<svg width="846" height="328" viewBox="0 0 846 328" fill="none" xmlns="http://www.w3.org/2000/svg">
<rect x="423" width="423" height="328" fill="#D9D9D9"/>
<rect x="461" y="152" width="51" height="80" fill="white"/>
<rect x="534" y="152" width="51" height="80" fill="white"/>
<rect x="606" y="152" width="52" height="80" fill="white"/>
<rect x="679" y="152" width="51" height="80" fill="white"/>
<rect x="752" y="152" width="51" height="80" fill="white"/>
<path d="M490.256 149.328V142.416H482.704V139.408H490.256V134.288C485.136 133.989 481.211 132.197 478.48 128.912C475.792 125.584 474.448 120.912 474.448 114.896V111.696L469.264 112.528L476.048 104.976L482.832 112.528L477.648 111.696V114.896C477.648 119.803 478.736 123.643 480.912 126.416C483.131 129.189 486.245 130.747 490.256 131.088V107.6L485.072 108.432L491.984 100.88L498.896 108.432L493.712 107.6V131.088C497.723 130.747 500.816 129.189 502.992 126.416C505.211 123.643 506.32 119.803 506.32 114.896V111.696L501.136 112.528L507.92 104.976L514.704 112.528L509.52 111.696V114.896C509.52 120.912 508.155 125.584 505.424 128.912C502.736 132.197 498.832 133.989 493.712 134.288V139.408H501.264V142.416H493.712V149.328H490.256Z" fill="black"/>
<path d="M542.815 149C541.023 149 540.639 148.616 540.639 146.824V102.152C540.639 100.36 541.023 99.976 542.815 99.976H575.199C576.991 99.976 577.375 100.36 577.375 102.152V146.824C577.375 148.616 576.991 149 575.199 149H542.815ZM543.199 148.104H574.815C576.287 148.104 576.479 147.912 576.479 146.44V102.536C576.479 101 576.287 100.872 574.815 100.872H543.199C541.663 100.872 541.535 101 541.535 102.536V146.44C541.535 147.912 541.663 148.104 543.199 148.104ZM542.495 106.952L544.159 102.472H545.183L546.847 106.952H545.823L545.503 105.928H543.839L543.455 106.952H542.495ZM544.095 105.224H545.247L544.671 103.56L544.095 105.224ZM544.671 112.904C544.415 112.328 544.095 111.688 543.519 111.24C542.943 110.792 542.687 110.28 542.687 109.704C542.687 109 543.007 108.68 543.647 108.68C544.031 108.68 544.287 108.936 544.671 109.448C544.991 108.936 545.375 108.68 545.695 108.68C546.335 108.68 546.655 109 546.655 109.704C546.655 110.28 546.399 110.728 545.887 111.24C545.375 111.752 544.927 112.328 544.671 112.904ZM559.007 130.056C558.687 129.288 557.727 128.008 556.255 126.216C554.783 124.424 554.015 123.08 554.015 122.056C554.015 120.456 554.975 119.496 556.447 119.496C557.855 119.496 558.751 120.84 558.943 121.48H559.071C559.199 120.84 560.159 119.496 561.567 119.496C563.039 119.496 563.999 120.456 563.999 122.056C563.999 123.016 563.231 124.424 561.759 126.216C560.287 127.944 559.391 129.224 559.007 130.056ZM572.319 140.296C571.679 140.296 571.359 139.912 571.359 139.272C571.359 138.696 571.551 138.12 572.127 137.672C572.703 137.224 573.087 136.648 573.343 136.072C573.599 136.648 574.047 137.16 574.559 137.672C575.071 138.184 575.327 138.696 575.327 139.272C575.327 139.912 575.007 140.296 574.367 140.296C574.047 140.296 573.663 140.04 573.343 139.528C573.023 140.04 572.639 140.296 572.319 140.296ZM572.831 146.504L571.167 142.024H572.127L572.511 143.048H574.175L574.495 142.024H575.519L573.855 146.504H572.831ZM573.343 145.416L573.919 143.752H572.767L573.343 145.416Z" fill="black"/>
<path d="M690.607 147.664C688.367 147.664 686.639 145.936 686.639 143.696V105.616C686.639 103.376 688.367 101.648 690.607 101.648H717.423C719.663 101.648 721.391 103.376 721.391 105.616V143.696C721.391 145.936 719.663 147.664 717.423 147.664H690.607ZM690.671 146.704H717.423C719.087 146.704 720.431 145.424 720.431 143.696V105.744C720.431 104.016 719.087 102.608 717.423 102.608H690.671C688.943 102.608 687.599 103.952 687.599 105.68V143.696C687.599 145.424 688.943 146.704 690.671 146.704ZM697.135 118.16C693.871 118.16 691.183 115.472 691.183 112.208C691.183 108.944 693.871 106.256 697.135 106.256C700.463 106.256 703.023 108.944 703.023 112.208C703.023 115.472 700.463 118.16 697.135 118.16ZM710.895 118.16C707.695 118.16 705.007 115.472 705.007 112.208C705.007 108.944 707.695 106.256 710.895 106.256C714.223 106.256 716.847 108.944 716.847 112.208C716.847 115.472 714.223 118.16 710.895 118.16ZM697.135 116.368C699.375 116.368 701.295 114.512 701.295 112.208C701.295 109.968 699.375 108.048 697.135 108.048C694.831 108.048 692.975 109.968 692.975 112.208C692.975 114.512 694.831 116.368 697.135 116.368ZM710.895 116.368C713.199 116.368 715.055 114.512 715.055 112.208C715.055 109.968 713.199 108.048 710.895 108.048C708.591 108.048 706.799 109.968 706.799 112.208C706.799 114.512 708.591 116.368 710.895 116.368ZM697.135 115.344C695.279 115.344 693.999 113.936 693.999 112.208C693.999 110.48 695.279 109.072 697.135 109.072C698.991 109.072 700.271 110.352 700.271 112.208C700.271 114.064 698.863 115.344 697.135 115.344ZM710.895 115.344C709.039 115.344 707.823 113.936 707.823 112.208C707.823 110.48 709.039 109.072 710.895 109.072C712.751 109.072 714.031 110.352 714.031 112.208C714.031 114.064 712.623 115.344 710.895 115.344ZM697.135 114C698.415 114 698.991 113.424 698.991 112.208C698.991 111.056 698.415 110.416 697.199 110.416C695.983 110.416 695.343 111.056 695.343 112.208C695.343 113.424 695.919 114 697.135 114ZM710.959 114C712.175 114 712.815 113.424 712.815 112.208C712.815 111.056 712.239 110.416 710.959 110.416C709.743 110.416 709.103 111.056 709.103 112.208C709.103 113.424 709.679 114 710.959 114ZM697.199 112.976C696.623 112.976 696.303 112.72 696.303 112.208C696.303 111.696 696.623 111.44 697.199 111.44C697.711 111.44 698.031 111.696 698.031 112.208C698.031 112.72 697.711 112.976 697.199 112.976ZM710.959 112.976C710.383 112.976 710.127 112.72 710.127 112.208C710.127 111.696 710.383 111.44 710.959 111.44C711.535 111.44 711.791 111.696 711.791 112.208C711.791 112.72 711.535 112.976 710.959 112.976ZM703.983 130.512C700.591 130.512 697.967 127.888 697.967 124.688C697.967 121.424 700.591 118.736 703.983 118.736C707.183 118.736 709.807 121.424 709.807 124.688C709.807 127.888 707.183 130.512 703.983 130.512ZM703.983 128.72C706.223 128.72 708.079 126.864 708.079 124.688C708.079 122.384 706.223 120.528 703.983 120.528C701.615 120.528 699.823 122.384 699.823 124.688C699.823 126.864 701.615 128.72 703.983 128.72ZM703.983 127.696C702.255 127.696 700.783 126.352 700.783 124.688C700.783 122.96 702.255 121.552 703.983 121.552C705.647 121.552 707.055 122.96 707.055 124.688C707.055 126.352 705.647 127.696 703.983 127.696ZM703.983 126.416C705.135 126.416 705.711 125.84 705.711 124.688C705.711 123.408 705.135 122.832 703.983 122.832C702.703 122.832 702.063 123.344 702.063 124.56C702.063 125.84 702.703 126.416 703.983 126.416ZM703.983 125.456C703.407 125.456 703.087 125.136 703.087 124.624C703.087 124.048 703.407 123.792 703.983 123.792C704.431 123.792 704.687 124.048 704.687 124.624C704.687 125.136 704.431 125.456 703.983 125.456ZM697.135 142.928C693.871 142.928 691.183 140.304 691.183 136.976C691.183 133.712 693.871 131.088 697.135 131.088C700.463 131.088 703.023 133.776 703.023 136.976C703.023 140.24 700.463 142.928 697.135 142.928ZM710.895 142.928C707.695 142.928 705.007 140.304 705.007 136.976C705.007 133.712 707.695 131.088 710.895 131.088C714.223 131.088 716.847 133.776 716.847 136.976C716.847 140.24 714.223 142.928 710.895 142.928ZM697.135 141.136C699.375 141.136 701.295 139.28 701.295 136.976C701.295 134.736 699.375 132.816 697.135 132.816C694.831 132.816 692.975 134.736 692.975 136.976C692.975 139.28 694.831 141.136 697.135 141.136ZM710.895 141.136C713.199 141.136 715.055 139.28 715.055 136.976C715.055 134.736 713.199 132.816 710.895 132.816C708.591 132.816 706.799 134.736 706.799 136.976C706.799 139.28 708.591 141.136 710.895 141.136ZM697.135 140.112C695.279 140.112 693.999 138.704 693.999 136.976C693.999 135.312 695.279 133.904 697.135 133.904C698.991 133.904 700.271 135.12 700.271 136.976C700.271 138.896 698.863 140.112 697.135 140.112ZM710.895 140.112C709.039 140.112 707.823 138.704 707.823 136.976C707.823 135.312 709.039 133.904 710.895 133.904C712.751 133.904 714.031 135.12 714.031 136.976C714.031 138.896 712.623 140.112 710.895 140.112ZM697.135 138.768C698.415 138.768 698.991 138.192 698.991 136.976C698.991 135.824 698.415 135.248 697.199 135.248C695.983 135.248 695.343 135.824 695.343 136.976C695.343 138.192 695.919 138.768 697.135 138.768ZM710.959 138.768C712.175 138.768 712.815 138.192 712.815 136.976C712.815 135.824 712.239 135.248 710.959 135.248C709.743 135.248 709.103 135.824 709.103 136.976C709.103 138.192 709.679 138.768 710.959 138.768ZM697.199 137.808C696.623 137.808 696.303 137.552 696.303 136.976C696.303 136.464 696.623 136.208 697.199 136.208C697.711 136.208 698.031 136.464 698.031 136.976C698.031 137.552 697.711 137.808 697.199 137.808ZM710.959 137.808C710.383 137.808 710.127 137.552 710.127 136.976C710.127 136.464 710.383 136.208 710.959 136.208C711.535 136.208 711.791 136.464 711.791 136.976C711.791 137.552 711.535 137.808 710.959 137.808Z" fill="black"/>
<path d="M618.06 147.072C613.58 147.072 609.164 142.72 609.164 138.496C609.164 133.376 614.092 128.576 618.38 127.104C616.844 127.552 615.372 127.744 613.9 127.744C607.948 127.744 602.764 124.288 602.764 118.784C602.764 113.28 606.732 109.568 611.468 109.568C615.244 109.568 619.596 112 622.22 115.328C620.748 113.216 619.532 109.888 619.532 106.496C619.532 101.44 623.052 97.28 628.492 97.28C633.804 97.28 637.324 101.312 637.324 106.496C637.324 109.632 636.3 112.96 634.636 115.328L634.892 115.008C637.644 111.616 641.484 109.568 645.516 109.568C650.124 109.568 654.22 113.152 654.22 118.72C654.22 124.416 648.652 127.744 643.02 127.744C641.036 127.68 639.5 127.424 638.476 127.104C642.892 128.704 647.82 133.184 647.82 138.624C647.82 142.528 643.596 147.072 638.86 147.072C634.636 147.072 631.5 144.256 629.772 139.904C628.876 137.664 628.492 135.872 628.492 134.4C627.532 142.272 623.756 147.072 618.06 147.072ZM624.908 116.352L626.956 115.584C627.34 114.624 627.468 113.792 627.468 113.152C627.468 112.32 626.956 110.72 626.956 110.08C626.956 108.928 627.468 107.904 628.492 107.904C629.516 107.904 630.028 108.928 630.028 110.08C630.028 110.912 629.388 112.32 629.388 113.152C629.388 113.92 629.58 114.752 629.9 115.584L631.948 116.352C633.676 114.624 634.764 111.552 634.764 108.544C634.764 104.512 632.204 101.888 628.492 101.888C624.78 101.888 622.092 104.512 622.092 108.544C622.092 111.552 623.18 114.688 624.908 116.352ZM615.564 126.208C617.292 126.208 618.764 125.888 620.044 125.184V123.008C619.596 122.368 618.316 121.792 616.204 121.6C614.156 121.408 613.068 120.768 613.068 119.68C613.068 118.72 613.836 118.336 614.604 118.336C615.116 118.336 616.012 118.592 617.164 119.296C618.316 120 619.532 120.32 620.684 120.32H620.94L622.22 118.528C620.94 115.904 617.036 113.024 613.26 113.024C609.676 113.024 607.18 115.968 607.18 119.552C607.18 123.392 610.572 126.208 615.564 126.208ZM641.356 126.208C646.348 126.208 649.804 123.392 649.804 119.552C649.804 115.84 647.18 113.024 643.66 113.024C639.756 113.024 635.852 115.968 634.636 118.528L636.044 120.32H636.3L636.812 120.256C637.836 120.128 638.86 119.936 639.884 119.296C640.908 118.656 641.676 118.336 642.252 118.336C643.276 118.336 643.788 118.784 643.788 119.744C643.788 120.832 642.956 121.408 641.292 121.472C639.628 121.536 638.156 122.048 636.94 123.008L636.812 125.184C638.092 125.888 639.564 126.208 641.356 126.208ZM619.084 142.976C623.372 142.976 626.636 137.216 626.636 133.248V132.608L626.572 132.096L624.524 131.456C623.052 132.352 622.092 133.568 621.708 134.976C621.324 136.448 620.62 137.152 619.596 137.152C618.828 137.152 618.188 136.384 618.188 135.68C618.188 134.784 618.764 134.016 619.852 133.248C620.94 132.48 621.708 131.328 622.092 129.792L620.94 128C617.548 128.64 612.556 132.288 612.556 136.704C612.556 140.032 615.82 142.976 619.084 142.976ZM637.516 142.976C640.844 142.976 644.044 139.968 644.044 136.704C644.044 132.224 639.116 128.768 635.66 128L634.508 129.792C634.828 131.264 635.596 132.352 636.684 133.248C637.772 134.144 638.348 134.976 638.348 135.808C638.348 136.512 637.708 137.152 637.004 137.152C636.108 137.152 635.34 136.448 634.828 134.976C634.316 133.568 633.356 132.416 632.076 131.456L630.028 132.096L629.964 132.608V133.248C629.964 135.616 631.5 139.584 633.804 141.504C634.956 142.464 636.172 142.976 637.516 142.976Z" fill="black"/>
<path d="M773.094 145.92C767.319 145.92 763.524 142.73 763.524 137.78C763.524 134.095 766.274 131.18 769.684 131.18C772.874 131.18 774.854 132.995 774.854 135.91C774.854 138.605 772.819 140.2 771.444 140.2C770.399 140.2 769.574 140.035 769.024 139.65C769.024 142.455 770.729 143.94 773.754 143.94C779.144 143.94 782.994 139.375 782.994 127.99V125.625L781.069 125.735L774.744 126.01C765.724 126.01 759.234 121.665 759.234 113.305C759.234 105.33 765.559 101.15 772.984 101.15H782.994V99.72C782.994 98.675 782.829 97.135 782.554 95.21L786.294 94.33C786.184 95.1 786.019 97.355 785.744 101.15H794.764L794.324 104.12C789.539 103.68 786.624 103.46 785.634 103.46L785.524 109.73V124.8C785.524 135.635 784.149 140.695 780.409 143.665C778.539 145.15 776.119 145.92 773.094 145.92ZM782.994 123.645V103.46H778.044C777.769 105.935 777.604 108.96 777.604 112.59C777.604 116.11 777.824 119.465 778.264 122.71C779.419 123.315 780.959 123.645 782.994 123.645Z" fill="black"/>
</svg>
