<svg width="257" height="479" viewBox="0 0 257 479" fill="none" xmlns="http://www.w3.org/2000/svg">
<path d="M181.723 447.955H75.8408V478H181.723V447.955Z" fill="#808080" stroke="black" stroke-width="0.45" stroke-miterlimit="10"/>
<path d="M172.176 433.43H84.4383L69.3252 422.796L84.3026 413.52H172.266L186.248 422.796L172.176 433.43Z" fill="#CACACA" stroke="black" stroke-width="0.15" stroke-miterlimit="10"/>
<path d="M61 430.082V456.145L75.8416 477.955V447.91" fill="#666666"/>
<path d="M61 430.082V456.145L75.8416 477.955V447.91" stroke="black" stroke-width="0.45" stroke-miterlimit="10"/>
<path d="M193.805 430.307V464.561L181.769 477.864L181.95 448.135" fill="#666666"/>
<path d="M193.805 430.307V464.561L181.769 477.864L181.95 448.135" stroke="black" stroke-width="0.45" stroke-miterlimit="10"/>
<path d="M123.987 455.149L128.647 461.846H133.308V466.824H106.928C106.385 465.964 104.982 463.475 105.254 460.082C105.435 457.729 106.385 456.009 106.928 455.104H123.942L123.987 455.149Z" fill="#666666" stroke="black" stroke-width="0.15" stroke-miterlimit="10"/>
<path d="M171.136 430.851H85.3897L73.8965 422.796L84.3942 416.326H172.267L182.132 422.796L171.136 430.851Z" fill="url(#paint0_radial_476_2132)" stroke="black" stroke-width="0.25" stroke-miterlimit="10"/>
<path d="M61 430.081L69.3258 422.796L84.4389 433.43H172.176L186.249 422.796L194.032 430.081L182.131 447.955L75.8416 447.909L61 430.081Z" fill="#979797" stroke="black" stroke-width="0.45" stroke-miterlimit="10"/>
<path d="M145.027 442.932H110.502L111.272 440.081C111.272 440.081 111.498 439.719 111.724 439.719H143.941C144.168 439.719 144.349 439.855 144.394 440.081L144.982 442.887L145.027 442.932Z" fill="url(#paint1_linear_476_2132)" stroke="#808080" stroke-width="0.25" stroke-miterlimit="10"/>
<path d="M84.4381 433.43C82.0852 436.869 78.1938 444.471 75.8408 447.91" stroke="black" stroke-width="0.45" stroke-miterlimit="10"/>
<path d="M172.176 433.43L182.085 447.774" stroke="black" stroke-width="0.45" stroke-miterlimit="10"/>
<path d="M123.624 455.33H124.212L128.872 462.027H133.578V466.688H132.9V462.434H128.465L123.624 455.33Z" fill="#4D4D4D"/>
<path d="M154.981 461.394C154.845 464.199 153.669 466.145 153.126 466.869H133.307V461.892H128.601L123.895 455.15H153.081C153.578 455.874 155.026 458.181 154.936 461.394H154.981Z" fill="#E4E4E4" stroke="black" stroke-width="0.4" stroke-miterlimit="10"/>
<path d="M119.235 462.751C120.21 462.751 121 461.961 121 460.987C121 460.012 120.21 459.222 119.235 459.222C118.26 459.222 117.47 460.012 117.47 460.987C117.47 461.961 118.26 462.751 119.235 462.751Z" fill="#666666" stroke="black" stroke-width="0.15" stroke-miterlimit="10"/>
<path d="M115.568 460.987C116.066 460.489 115.976 460.67 117.062 460.625C118.148 460.625 118.057 460.444 118.555 460.987C118.057 461.484 118.148 461.303 117.062 461.303C115.976 461.303 116.066 461.484 115.568 460.987Z" fill="black"/>
<path d="M114.393 457.91C114.393 458.634 114.303 458.407 113.488 459.267C112.629 460.082 112.855 460.127 112.131 460.172C112.131 459.448 112.221 459.629 113.036 458.815C113.896 458 113.669 457.955 114.393 457.91Z" fill="black"/>
<path d="M112.085 462.163C112.764 462.163 112.537 462.163 113.307 462.887C113.985 463.656 114.076 463.43 114.031 464.109C113.352 464.109 113.578 464.063 112.809 463.385C112.13 462.615 112.04 462.842 112.085 462.163Z" fill="black"/>
<path d="M172.267 413.52C172.177 413.792 172.041 414.199 172.041 414.742C172.041 415.421 172.267 415.918 172.403 416.19" stroke="black" stroke-width="0.1" stroke-miterlimit="10"/>
<path d="M84.3027 413.52C84.3932 413.792 84.529 414.244 84.529 414.787C84.529 415.375 84.3932 415.828 84.3027 416.099" stroke="black" stroke-width="0.1" stroke-miterlimit="10"/>
<path d="M69.5063 422.796C69.7778 422.57 70.5018 422.163 71.6783 422.072C72.4023 422.027 73.3525 422.57 73.6692 422.751" fill="#CACACA"/>
<path d="M69.5063 422.796C69.7778 422.57 70.5018 422.163 71.6783 422.072C72.4023 422.027 73.3525 422.57 73.6692 422.751" stroke="black" stroke-width="0.15" stroke-miterlimit="10"/>
<path d="M182.403 422.751C182.72 422.57 183.353 422.299 184.213 422.299C185.118 422.299 185.796 422.616 186.113 422.797" fill="#CACACA"/>
<path d="M182.403 422.751C182.72 422.57 183.353 422.299 184.213 422.299C185.118 422.299 185.796 422.616 186.113 422.797" stroke="black" stroke-width="0.15" stroke-miterlimit="10"/>
<path d="M171.633 433.158C171.995 432.344 171.768 431.529 170.863 431.122L171.044 430.76C171.497 430.851 172.13 431.122 172.492 431.665C172.854 432.253 172.854 432.842 172.718 433.52L171.633 433.158Z" fill="black"/>
<path d="M84.0313 433.565C83.8051 432.479 84.1671 431.167 85.2983 430.896L85.4793 431.257C84.8005 431.619 84.891 432.66 85.1173 433.203L84.0313 433.565Z" fill="black"/>
<path d="M84.4384 454.516C84.4384 454.516 82.9904 454.516 82.719 454.561C80.9542 455.149 75.2076 455.783 71.2257 451.439L66.2031 446.371V459.312L71.1352 465.737C72.1307 466.552 74.0312 467.955 76.8366 468.679C80.3208 469.538 83.1714 468.86 84.4384 468.452V454.47V454.516Z" fill="url(#paint2_linear_476_2132)" stroke="black" stroke-width="0.1" stroke-miterlimit="10"/>
<path d="M65.9775 446.054C68.3757 447.819 71.0454 450.263 72.9006 452.073C75.706 454.018 79.145 454.697 82.6744 454.561C79.2355 455.647 75.2536 455.104 72.2671 452.978C70.0499 450.806 67.9232 448.543 65.9775 446.054Z" fill="black"/>
<path d="M173.172 454.516C173.172 454.516 174.62 454.516 174.891 454.561C176.656 455.149 182.403 455.783 186.385 451.439L191.407 446.371V459.312L186.475 465.737C185.48 466.552 183.579 467.955 180.774 468.679C177.29 469.538 174.439 468.86 173.172 468.452V454.47V454.516Z" fill="url(#paint3_linear_476_2132)" stroke="black" stroke-width="0.1" stroke-miterlimit="10"/>
<path d="M191.634 446.054C189.689 448.543 187.562 450.806 185.345 452.978C182.358 455.104 178.376 455.647 174.938 454.561C178.467 454.697 181.906 454.018 184.711 452.073C186.566 450.263 189.236 447.819 191.634 446.054Z" fill="black"/>
<path d="M123.851 455.421H107.109C106.702 456.145 105.661 457.909 105.525 460.127C105.299 463.294 106.521 465.375 107.064 466.552C115.706 466.507 124.439 466.597 133.082 466.552" stroke="#4D4D4D" stroke-width="0.1" stroke-miterlimit="10"/>
<path opacity="0.67" d="M75.1621 348L126.248 421.258L179.868 348" fill="url(#paint4_linear_476_2132)"/>
<path d="M140.684 466.507V462.57H140.548V466.552C140.548 466.552 140.638 466.507 140.684 466.462V466.507Z" fill="#00FFFF"/>
<path d="M140.592 462.751C140.717 462.751 140.819 462.67 140.819 462.57C140.819 462.47 140.717 462.389 140.592 462.389C140.468 462.389 140.366 462.47 140.366 462.57C140.366 462.67 140.468 462.751 140.592 462.751Z" fill="#00FFFF"/>
<path d="M141.725 466.643V463.928H141.589V466.643H141.725Z" fill="#00FFFF"/>
<path d="M138.465 466.552V466.19H138.33V466.643C138.33 466.643 138.42 466.598 138.465 466.552Z" fill="#00FFFF"/>
<path d="M141.452 463.928C141.452 463.928 141.542 463.747 141.678 463.747C141.814 463.747 141.904 463.837 141.904 463.928C141.904 464.018 141.814 464.109 141.678 464.109C141.542 464.109 141.452 464.018 141.452 463.928Z" fill="#00FFFF"/>
<path d="M144.756 466.688V460.715H144.62V466.643C144.62 466.643 144.711 466.643 144.756 466.688Z" fill="#00FFFF"/>
<path d="M144.485 460.715C144.485 460.715 144.575 460.534 144.711 460.534C144.847 460.534 144.937 460.625 144.937 460.715C144.937 460.806 144.847 460.896 144.711 460.896C144.575 460.896 144.485 460.806 144.485 460.715Z" fill="#00FFFF"/>
<path d="M147.606 466.598V465.466H147.47V466.598C147.47 466.598 147.561 466.598 147.606 466.598Z" fill="#00FFFF"/>
<path d="M147.561 465.692C147.686 465.692 147.787 465.611 147.787 465.511C147.787 465.411 147.686 465.33 147.561 465.33C147.436 465.33 147.335 465.411 147.335 465.511C147.335 465.611 147.436 465.692 147.561 465.692Z" fill="#00FFFF"/>
<path d="M145.57 462.434L145.615 466.552L145.706 466.688L145.66 462.434H145.57Z" fill="#00FFFF"/>
<path d="M145.389 462.434C145.389 462.434 145.479 462.253 145.615 462.253C145.751 462.253 145.841 462.344 145.841 462.434C145.841 462.525 145.751 462.615 145.615 462.615C145.479 462.615 145.389 462.525 145.389 462.434Z" fill="#00FFFF"/>
<path d="M141.361 461.168L142.447 462.073V466.643C142.447 466.643 142.537 466.643 142.583 466.643V462.027L141.451 461.077L141.361 461.168Z" fill="#00FFFF"/>
<path d="M141.271 461.258C141.271 461.258 141.18 461.077 141.271 460.987C141.361 460.896 141.497 460.896 141.587 460.987C141.678 461.077 141.678 461.168 141.587 461.258C141.497 461.349 141.361 461.349 141.271 461.258Z" fill="#00FFFF"/>
<path d="M147.786 464.154L148.51 464.742V466.688C148.51 466.688 148.601 466.688 148.646 466.688V464.697L147.877 464.063L147.786 464.154Z" fill="#00FFFF"/>
<path d="M147.696 464.289C147.696 464.289 147.605 464.108 147.696 464.018C147.786 463.927 147.922 463.927 148.013 464.018C148.103 464.108 148.103 464.199 148.013 464.289C147.922 464.38 147.786 464.38 147.696 464.289Z" fill="#00FFFF"/>
<path d="M151.316 464.154L152.04 464.742V466.688C152.04 466.688 152.131 466.688 152.176 466.688V464.697L151.407 464.063L151.316 464.154Z" fill="#00FFFF"/>
<path d="M135.345 459.901L136.114 460.534V466.643C136.114 466.643 136.25 466.643 136.295 466.643V460.489L135.435 459.81L135.345 459.901Z" fill="#00FFFF"/>
<path d="M135.209 460.036C135.209 460.036 135.118 459.855 135.209 459.765C135.299 459.674 135.435 459.674 135.525 459.765C135.616 459.855 135.616 459.946 135.525 460.036C135.435 460.127 135.299 460.127 135.209 460.036Z" fill="#00FFFF"/>
<path d="M138.241 466.009C138.241 466.009 138.467 465.919 138.557 466.009C138.648 466.1 138.648 466.19 138.557 466.281C138.467 466.371 138.331 466.371 138.241 466.281C138.15 466.19 138.15 466.1 138.241 466.009Z" fill="#00FFFF"/>
<path d="M139.415 464.426V466.416L139.099 466.643C139.144 466.643 139.234 466.643 139.325 466.643L139.551 466.462V464.426H139.415Z" fill="#00FFFF"/>
<path d="M139.46 464.606C139.585 464.606 139.686 464.525 139.686 464.425C139.686 464.325 139.585 464.244 139.46 464.244C139.335 464.244 139.233 464.325 139.233 464.425C139.233 464.525 139.335 464.606 139.46 464.606Z" fill="#00FFFF"/>
<path d="M136.158 464.923L136.248 464.968L137.696 463.747V462.48H137.56V463.701L136.158 464.923Z" fill="#00FFFF"/>
<path d="M137.424 462.48C137.424 462.48 137.514 462.299 137.65 462.299C137.786 462.299 137.876 462.389 137.876 462.48C137.876 462.57 137.786 462.661 137.65 462.661C137.514 462.661 137.424 462.57 137.424 462.48Z" fill="#00FFFF"/>
<path d="M150.232 462.163V466.733C150.232 466.733 150.322 466.733 150.368 466.733V462.208L151.68 461.077H151.589L150.232 462.163Z" fill="#00FFFF"/>
<path d="M151.453 460.941C151.453 460.941 151.679 460.851 151.769 460.941C151.86 461.032 151.86 461.122 151.769 461.213C151.679 461.303 151.543 461.303 151.453 461.213C151.362 461.122 151.362 461.032 151.453 460.941Z" fill="#00FFFF"/>
<path d="M151.478 464.101C151.478 463.976 151.397 463.875 151.297 463.874C151.197 463.874 151.116 463.975 151.116 464.1C151.115 464.225 151.196 464.327 151.296 464.327C151.396 464.327 151.477 464.226 151.478 464.101Z" fill="#00FFFF" stroke="#B1B1B1" stroke-width="0.02" stroke-miterlimit="10"/>
<path d="M123.987 455.285L128.647 461.982H133.308V466.959H106.928C106.385 466.099 104.982 463.611 105.254 460.217C105.435 457.864 106.385 456.144 106.928 455.24H123.942L123.987 455.285Z" fill="#E4E4E4" stroke="black" stroke-width="0.4" stroke-miterlimit="10"/>
<path d="M114.802 464.153C116.476 464.153 117.833 462.796 117.833 461.122C117.833 459.447 116.476 458.09 114.802 458.09C113.127 458.09 111.77 459.447 111.77 461.122C111.77 462.796 113.127 464.153 114.802 464.153Z" fill="#00FFFF" stroke="#CACACA" stroke-width="0.05" stroke-miterlimit="10"/>
<path d="M114.802 463.565C116.151 463.565 117.245 462.471 117.245 461.122C117.245 459.772 116.151 458.678 114.802 458.678C113.452 458.678 112.358 459.772 112.358 461.122C112.358 462.471 113.452 463.565 114.802 463.565Z" fill="#E4E4E4" stroke="#1A1A1A" stroke-width="0.1" stroke-miterlimit="10"/>
<path opacity="0.65" d="M114.802 463.475C116.101 463.475 117.155 462.421 117.155 461.122C117.155 459.822 116.101 458.769 114.802 458.769C113.502 458.769 112.449 459.822 112.449 461.122C112.449 462.421 113.502 463.475 114.802 463.475Z" stroke="#666666" stroke-width="0.05" stroke-miterlimit="10"/>
<path d="M141.678 442.027H143.534L138.737 435.149H136.52H135.57L140.728 442.027H141.678Z" fill="#004497"/>
<path d="M141.68 442.027L136.521 435.15L136.295 434.833H112.63V442.027H141.68Z" fill="url(#paint5_linear_476_2132)"/>
<path d="M141.906 442.118H112.539V434.697H136.385L136.657 435.059L141.951 442.118H141.906ZM112.765 441.891H141.453L136.295 434.968H112.811V441.891H112.765Z" fill="black"/>
<g opacity="0.84">
<path d="M124.756 441.71H118.783V440.443L124.756 441.71Z" fill="url(#paint6_radial_476_2132)"/>
<path d="M126.702 441.891H118.558V440.172L126.702 441.891ZM119.055 441.484H122.856L119.055 440.67V441.484Z" fill="#007CBC"/>
</g>
<path d="M138.647 442.028C136.566 441.711 133.308 440.806 131.227 440.308C129.145 439.765 125.887 439.041 123.851 438.317C125.933 438.634 129.19 439.539 131.272 440.037C133.353 440.58 136.611 441.304 138.647 442.028Z" fill="#00EFFF"/>
<path d="M138.602 442.027L123.851 438.317V438.272L138.647 441.982L138.602 442.027Z" fill="#0091FF"/>
<path d="M137.923 440.489C136.43 440.308 134.303 439.629 132.855 439.267C131.407 438.86 129.19 438.362 127.833 437.819C129.28 438 131.498 438.679 132.9 439.041C134.348 439.448 136.566 439.946 137.923 440.489Z" fill="#00DFFF"/>
<defs>
<radialGradient id="paint0_radial_476_2132" cx="0" cy="0" r="1" gradientUnits="userSpaceOnUse" gradientTransform="translate(128.014 423.611) scale(38.5973 38.5973)">
<stop offset="0.45" stop-color="#00FFFF"/>
<stop offset="0.61" stop-color="#00FBFF"/>
<stop offset="0.75" stop-color="#00F0FF"/>
<stop offset="0.88" stop-color="#00DEFF"/>
<stop offset="0.99" stop-color="#00CAFF"/>
</radialGradient>
<linearGradient id="paint1_linear_476_2132" x1="127.788" y1="439.81" x2="127.788" y2="442.57" gradientUnits="userSpaceOnUse">
<stop offset="0.14" stop-color="#333333"/>
<stop offset="0.39" stop-color="#3B3B3B"/>
<stop offset="0.7" stop-color="#4D4D4D"/>
</linearGradient>
<linearGradient id="paint2_linear_476_2132" x1="66.2031" y1="457.774" x2="84.4384" y2="457.774" gradientUnits="userSpaceOnUse">
<stop offset="0.14" stop-color="#1A1A1A"/>
<stop offset="0.32" stop-color="#222222"/>
<stop offset="0.59" stop-color="#393939"/>
<stop offset="0.94" stop-color="#5E5E5E"/>
<stop offset="1" stop-color="#666666"/>
</linearGradient>
<linearGradient id="paint3_linear_476_2132" x1="191.452" y1="457.774" x2="173.217" y2="457.774" gradientUnits="userSpaceOnUse">
<stop offset="0.14" stop-color="#1A1A1A"/>
<stop offset="0.32" stop-color="#222222"/>
<stop offset="0.59" stop-color="#393939"/>
<stop offset="0.94" stop-color="#5E5E5E"/>
<stop offset="1" stop-color="#666666"/>
</linearGradient>
<linearGradient id="paint4_linear_476_2132" x1="126.339" y1="320.262" x2="130.32" y2="413.068" gradientUnits="userSpaceOnUse">
<stop stop-color="#333838" stop-opacity="0.06"/>
<stop offset="0.5" stop-color="#276A6A" stop-opacity="0.3775"/>
<stop offset="1" stop-color="#00FFFF"/>
</linearGradient>
<linearGradient id="paint5_linear_476_2132" x1="119.643" y1="432.389" x2="146.34" y2="465.783" gradientUnits="userSpaceOnUse">
<stop stop-color="#4D607A"/>
<stop offset="0.17" stop-color="#455E7B"/>
<stop offset="0.41" stop-color="#305B7F"/>
<stop offset="0.72" stop-color="#0E5785"/>
<stop offset="0.82" stop-color="#005588"/>
</linearGradient>
<radialGradient id="paint6_radial_476_2132" cx="0" cy="0" r="1" gradientUnits="userSpaceOnUse" gradientTransform="translate(121.77 441.467) scale(2.17194 1.80271)">
<stop offset="0.45" stop-color="#00FFFF"/>
<stop offset="0.61" stop-color="#00FBFF"/>
<stop offset="0.75" stop-color="#00F0FF"/>
<stop offset="0.89" stop-color="#00DEFF"/>
<stop offset="1" stop-color="#00CAFF"/>
</radialGradient>
</defs>
</svg>
