<svg width="101" height="44" viewBox="0 0 101 44" fill="none" xmlns="http://www.w3.org/2000/svg">
<mask id="mask0_17_79" style="mask-type:luminance" maskUnits="userSpaceOnUse" x="0" y="0" width="101" height="44">
<path d="M100.25 0H0V44H100.25V0Z" fill="white"/>
</mask>
<g mask="url(#mask0_17_79)">
<path d="M6.79999 27.12L10.85 23.12H89.77L92.81 27.12V0.119995H6.79999V27.12Z" fill="#2D1D00" stroke="black" stroke-width="0.25" stroke-miterlimit="10"/>
<path d="M93 38L7 37.8856L13 15H87.54L93 38Z" fill="#44210B"/>
<path d="M86.1861 9L86 14.0461L92.9493 37L96 36.5153L86.1861 9Z" fill="#603813"/>
<path d="M87 9.05463L88.3696 9L97 37.5812L95.9024 38L87 9.05463Z" fill="#8B6239"/>
<path d="M13.5584 9L14 14.1846L8.12266 38L5 37.6087L13.5584 9Z" fill="#603813"/>
<path d="M13 9H11.5916L4 37.6304L5.14791 38L13 9Z" fill="#8B6239"/>
<path d="M0 43.4C1.57 41.85 3.14 40.3 4.71 38.75H96.47L100 43.4V12H0V43.4Z" fill="#603813" stroke="#42210B" stroke-width="0.25" stroke-miterlimit="10"/>
<path d="M35.23 31.95C35.23 31.95 49.37 35.08 65.22 31.95H35.23Z" fill="#42210B"/>
<path d="M67.7 30.65L63.74 26.69C63.62 26.57 63.45 26.5 63.27 26.5H37.14C36.97 26.5 36.8 26.57 36.67 26.69L32.53 30.83C32.11 31.25 32.41 31.96 33 31.95L67.23 31.77C67.81 31.77 68.11 31.06 67.69 30.65H67.7Z" fill="#744417"/>
</g>
</svg>
