<svg width="775" height="140" viewBox="0 0 775 140" fill="none" xmlns="http://www.w3.org/2000/svg">
<path d="M21.5093 3H752.569C762.514 3 771.078 12.0156 771.078 23.7876V116.212C771.078 127.984 762.514 137 752.569 137H21.5093C11.5639 137 3 127.984 3 116.212V23.7876C3 12.0156 11.5639 3 21.5093 3Z" fill="#2B3C12" fill-opacity="0.76" stroke="#57EB23" stroke-width="6"/>
<path d="M85.0474 1V135M183.94 1V135M283.311 1V135M382.203 1V135M481.574 1V135M580.467 1V135M675.538 1V135" stroke="#57EB23" stroke-width="0.2"/>
<path d="M773.989 35.7852L0.0615717 35.9179M773.995 72.3935L0.0673115 72.5262M774 107.587L0.0728295 107.72" stroke="#57EB23" stroke-width="0.2"/>
<path d="M26.7161 43.7885L29.6065 53.7039C29.6065 53.7039 28.2725 49.557 25.6362 54.3158C23 59.0747 32.4968 71.4689 32.4968 71.4689L35.8 83.0369L40.7549 88.4077L36.7529 90.337L36.2129 94.1917L23 97.91C45.7097 122.698 63.8774 123.525 87 99.3423L72.7707 95.9117L69.6581 90.337L67.4347 92.4811L68.8323 87.1683L74.2 80.9712L77.0903 71.8821C77.0903 71.8821 87.8258 61.1404 84.332 53.4579C83.5201 51.6726 80.3936 54.117 80.3936 54.117L83.4427 42.7376C83.4427 35.8763 79.2265 30.3752 76.328 27.2998C60.5655 10.5756 36.7529 24.2981 36.7529 24.2981C36.7529 24.2981 28.9395 28.7796 26.7161 43.7885Z" stroke="#57EB23" stroke-width="3"/>
<g style="mix-blend-mode:luminosity">
<path d="M45.4686 99.1775L42.374 85.5612L68.3687 84.6328L65.8931 99.1775H45.4686Z" fill="#E7D5BF" stroke="black"/>
<path d="M26.5918 99.1775L38.9702 95.1545L55.3717 102.581L71.1542 96.0829L86.0083 99.1775C76.7245 111.246 52.5865 131.671 26.5918 99.1775Z" fill="#124D1E" stroke="black" stroke-width="0.6"/>
<path d="M52.14 102.835L51.1184 98.7488H55.4294H59.7783L59.0124 102.834L55.4368 104.209L52.14 102.835Z" fill="#18341F" stroke="black"/>
<path d="M42.993 89.8936H39.8984L43.9214 92.6787L42.993 89.8936Z" fill="#091B0D" stroke="black" stroke-width="0.6"/>
<path d="M53.2052 99.487L43.3025 92.3694L39.5889 90.2031L38.3511 94.5356L53.2052 104.748V99.487Z" fill="#02310C" stroke="black"/>
<path d="M67.4401 90.5122H70.5347L66.5117 93.2974L67.4401 90.5122Z" fill="#091B0D" stroke="black" stroke-width="0.6"/>
<path d="M57.2284 99.7965L67.1311 92.6789L70.8447 90.5127L72.0825 94.8451L57.2284 105.057V99.7965Z" fill="#02310C" stroke="black"/>
<path d="M36.7913 80.6581L30.406 53.3935C30.319 53.0199 30.2789 52.6368 30.2872 52.2536C30.58 38.3807 43.1987 27.6409 56.9361 28.6226C69.8987 29.5497 80.382 40.6658 79.7577 53.7302C79.7397 54.0916 79.6803 54.4501 79.5781 54.7992C77.2812 62.6512 74.9856 70.5032 72.6887 78.3552C72.5008 78.9988 72.1707 79.5987 71.7232 80.1141L62.8628 90.3071C61.9084 91.4047 60.4858 92.0414 58.9858 92.0414H52.1571C51.0466 92.0414 49.9679 91.6923 49.0895 91.0502L38.6297 83.4013C37.6973 82.7196 37.0468 81.7488 36.7927 80.6594L36.7913 80.6581Z" fill="#FFE8D4"/>
<path d="M50.4206 48.1536C46.085 48.11 41.7494 48.0663 37.4138 48.0227L34.168 50.5532L51.3833 49.9956L50.4206 48.1536Z" fill="#460000"/>
<path d="M60.2483 48.1536C64.5839 48.11 68.9195 48.0663 73.2551 48.0227L76.5009 50.5532L59.2856 49.9956L60.2483 48.1536Z" fill="#460000"/>
<path opacity="0.82" d="M50.7431 56.9041C51.0166 56.6996 51.3936 56.3464 51.3853 55.9169C51.3757 55.4425 50.9019 55.133 50.3356 54.6939C49.7928 54.274 49.0691 53.6618 48.2611 52.811H41.1065L35.3979 55.9169C37.275 56.8509 39.1534 57.7862 41.0305 58.7202C42.3564 58.3057 43.8564 57.9089 45.5166 57.5858C47.4254 57.2136 49.1851 57.0091 50.7431 56.9041Z" fill="white"/>
<path d="M41.1641 52.8101C40.8409 54.9547 42.6019 56.7558 44.4748 56.7586C46.3491 56.7599 48.1156 54.9575 47.7924 52.8101H41.1641Z" fill="#42210B"/>
<path opacity="0.82" d="M59.6507 57.1018C59.38 56.9123 59.0001 56.5824 58.9808 56.1515C58.9587 55.677 59.3841 55.3416 59.891 54.8712C60.3744 54.4227 61.0181 53.7709 61.7239 52.8765C63.9738 52.7429 66.2238 52.6107 68.4724 52.4771L74.0608 55.2585C72.3508 56.296 70.6409 57.3336 68.931 58.3698C67.6506 58.0031 66.1644 57.6622 64.4987 57.425C62.6962 57.1686 61.0609 57.0896 59.6479 57.0991L59.6507 57.1018Z" fill="white"/>
<path d="M68.9794 52.4486C69.4421 54.5701 67.8026 56.4721 65.9352 56.5839C64.0651 56.6971 62.1825 55.001 62.3648 52.8386C64.5692 52.7077 66.775 52.5782 68.9794 52.4473V52.4486Z" fill="#42210B"/>
<path opacity="0.35" d="M34.0044 68.7704L49.0457 91.0203L38.3345 83.186C37.5914 82.642 37.072 81.8689 36.869 80.999L34.0044 68.769V68.7704Z" fill="#C59B6D"/>
<path opacity="0.35" d="M76.3699 65.7568L62.457 90.769L72.3989 79.3312L76.3699 65.7568Z" fill="#C59B6D"/>
<path d="M36.7417 82.2556L30.3888 54.876C30.3022 54.5008 30.2623 54.1161 30.2706 53.7313C30.5619 39.7998 43.1166 29.0147 56.7843 30.0006C69.6811 30.9316 80.1112 42.0946 79.4901 55.2142C79.4722 55.577 79.4132 55.9371 79.3115 56.2876C77.0262 64.1727 74.7423 72.0579 72.457 79.9431C72.2701 80.5893 71.9417 81.1918 71.4964 81.7093L62.681 91.9454C61.7314 93.0476 60.316 93.687 58.8236 93.687H52.0296C50.9247 93.687 49.8515 93.3364 48.9775 92.6916L38.5707 85.0104C37.6431 84.3258 36.9959 83.351 36.743 82.257L36.7417 82.2556Z" fill="#FFE8D4"/>
<path d="M58.7952 93.687H52.0501C50.9205 93.687 49.8059 93.322 48.9109 92.6615L38.5791 85.0201C37.6268 84.316 36.9597 83.3082 36.6991 82.1833L30.392 54.9501C30.3033 54.5647 30.2624 54.167 30.2706 53.7707C30.4097 47.1016 33.463 40.6818 38.6487 36.1591C43.6761 31.7752 50.2834 29.5295 56.7842 29.9993C69.9182 30.9486 80.104 42.2793 79.4901 55.2565C79.4724 55.631 79.411 56.0028 79.3073 56.3623L72.5022 79.8899C72.3085 80.5599 71.9756 81.1728 71.5145 81.7094L62.7612 91.892C61.7816 93.0319 60.3355 93.687 58.7952 93.687ZM55.0788 30.2799C49.2301 30.2799 43.4101 32.467 38.8874 36.4124C33.7741 40.8725 30.7631 47.2011 30.6253 53.7775C30.6171 54.1466 30.6553 54.517 30.7385 54.8765L37.0456 82.1084C37.2885 83.1557 37.9092 84.094 38.796 84.749L49.1278 92.3905C49.96 93.006 50.9982 93.3451 52.0501 93.3451H58.7952C60.229 93.3451 61.5742 92.7364 62.4869 91.6755L71.2402 81.4942C71.67 80.9944 71.9797 80.4238 72.1598 79.8L78.9649 56.2711C79.0617 55.9374 79.119 55.5901 79.1354 55.2415C79.7398 42.4468 69.7013 31.2768 56.7583 30.3412C56.2003 30.3003 55.6396 30.2812 55.0816 30.2812L55.0788 30.2799Z" fill="black"/>
<path d="M50.3307 48.1194C45.9951 48.0758 41.6595 48.0322 37.3239 47.9885L34.0781 50.5191L51.2934 49.9614L50.3307 48.1194Z" fill="#460000"/>
<path d="M33.5532 50.707L37.2604 47.8179L50.4439 47.9501L51.5807 50.1234L33.5546 50.707H33.5532ZM37.3874 48.1601L34.6029 50.3307L51.0075 49.8003L50.2174 48.2896L37.3861 48.1601H37.3874Z" fill="black"/>
<path d="M60.1575 48.1194C64.4931 48.0758 68.8287 48.0322 73.1643 47.9885L76.4101 50.5191L59.1948 49.9614L60.1575 48.1194Z" fill="#460000"/>
<path d="M76.9352 50.707L58.9092 50.1234L60.0459 47.9501L73.2295 47.8179L76.9366 50.707H76.9352ZM59.481 49.8003L75.8855 50.3307L73.101 48.1601L60.2697 48.2896L59.4796 49.8003H59.481Z" fill="black"/>
<path d="M50.6075 56.817C51.3782 55.8517 50.852 55.6376 49.9487 55.0868C49.1172 54.5455 48.3479 53.9088 47.6932 53.1835L48.1683 53.3839C45.7899 53.1835 43.4087 52.7513 41.0137 53.1548L41.2126 53.1044C39.4585 54.3615 37.6021 55.4931 35.6864 56.513L35.6615 55.2382C36.5897 55.7276 37.4944 56.2566 38.3825 56.8116C39.2679 57.3747 40.1449 57.9541 40.9709 58.6249L40.9046 58.7463C38.83 58.2009 36.877 57.4101 34.9502 56.5266L33.7251 55.9512C35.9751 54.6083 38.3632 53.418 40.8162 52.4486L40.9557 52.3913C41.5717 52.4622 42.1877 52.5249 42.8037 52.5522C44.6974 52.6967 46.5565 52.2086 48.4349 52.1609L48.6448 52.3695C49.2981 53.0185 49.9376 53.6729 50.6241 54.2974C51.2346 54.8182 52.0757 55.6935 51.3506 56.4789C51.16 56.6902 50.9307 56.8238 50.6973 56.9247L50.6075 56.817Z" fill="black"/>
<path opacity="0.82" d="M50.6518 56.8713C50.9253 56.6668 51.3023 56.3137 51.294 55.8842C51.2844 55.4097 50.8106 55.1002 50.2443 54.6612C49.7015 54.2413 48.9778 53.6291 48.1698 52.7783H41.0151L35.3066 55.8842C37.1837 56.8182 39.0621 57.7535 40.9392 58.6874C42.2651 58.273 43.7651 57.8762 45.4253 57.5531C47.3341 57.1808 49.0938 56.9763 50.6518 56.8713Z" fill="white"/>
<path d="M41.0737 52.7764C40.7505 54.921 42.5115 56.7221 44.3845 56.7249C46.2587 56.7262 48.0253 54.9238 47.7021 52.7764H41.0737Z" fill="#42210B"/>
<path d="M44.3861 56.8955H44.3834C43.4345 56.8955 42.4953 56.4633 41.8102 55.712C41.0685 54.8994 40.7342 53.8196 40.8958 52.752L40.9179 52.6047H47.8585L47.8806 52.752C48.0422 53.8209 47.7065 54.9008 46.9621 55.7134C46.2742 56.4646 45.3364 56.8955 44.3861 56.8955ZM41.2329 52.947C41.1362 53.8673 41.4414 54.7862 42.0823 55.487C42.6997 56.1633 43.5381 56.5519 44.3834 56.5532H44.3861C45.2314 56.5532 46.0712 56.166 46.69 55.4898C47.3322 54.789 47.6375 53.8686 47.5422 52.947H41.2342H41.2329Z" fill="black"/>
<path d="M59.5546 57.1232C58.0022 56.5205 58.487 55.3834 59.4552 54.4972C60.0988 53.8332 60.6941 53.1433 61.3046 52.4561L61.5007 52.2353C62.7839 52.1725 64.0767 52.373 65.3612 52.3866C66.5794 52.3961 67.7838 52.2393 68.9813 52.0239C71.1084 52.7179 73.1829 53.5605 75.1871 54.5231L76.4301 55.1489C75.1429 55.8593 73.7658 56.5996 72.4205 57.1954C71.455 57.6249 70.4799 58.038 69.4482 58.3639L69.3736 58.2466C70.9371 56.8423 72.6595 55.6629 74.4509 54.5531L74.5089 55.8265C72.531 54.9212 70.6028 53.9014 68.77 52.7506L68.9716 52.7888C66.5545 52.5284 64.2065 53.0983 61.846 53.4392L62.3074 53.2101C61.7024 53.9736 60.9759 54.654 60.1817 55.243C59.3198 55.8429 58.8019 56.0924 59.6375 57.0086L59.556 57.1204L59.5546 57.1232Z" fill="black"/>
<path opacity="0.82" d="M59.5594 57.0691C59.2887 56.8796 58.9088 56.5496 58.8895 56.1188C58.8674 55.6443 59.2928 55.3089 59.7997 54.8385C60.2831 54.39 60.9268 53.7382 61.6326 52.8438C63.8825 52.7102 66.1325 52.578 68.3811 52.4443L73.9695 55.2257C72.2595 56.2633 70.5496 57.3009 68.8397 58.3371C67.5593 57.9703 66.0731 57.6295 64.4074 57.3922C62.6049 57.1359 60.9696 57.0568 59.5566 57.0664L59.5594 57.0691Z" fill="white"/>
<path d="M68.8866 52.4159C69.3493 54.5374 67.7098 56.4394 65.8424 56.5512C63.9723 56.6644 62.0897 54.9683 62.272 52.8059C64.4764 52.675 66.6822 52.5454 68.8866 52.4146V52.4159Z" fill="#42210B"/>
<path d="M65.664 56.728C64.7773 56.728 63.8892 56.3585 63.2027 55.6958C62.4058 54.9282 62.0011 53.8702 62.0922 52.7931L62.1047 52.6458L69.0314 52.2368L69.0632 52.3813C69.2938 53.4366 69.0314 54.5342 68.3436 55.3891C67.7082 56.1799 66.8008 56.6652 65.8533 56.7225C65.7897 56.7266 65.7262 56.728 65.664 56.728ZM62.4431 52.9676C62.4072 53.8934 62.7732 54.7933 63.461 55.4559C64.124 56.0953 64.99 56.4321 65.8325 56.3817C66.6764 56.3312 67.4872 55.8935 68.059 55.1818C68.6516 54.4442 68.896 53.5089 68.74 52.5954L62.4431 52.9676Z" fill="black"/>
<path d="M53.3514 54.3922C53.8059 55.9725 53.8501 57.6249 53.6774 59.2447C53.6263 61.9388 53.2617 64.7312 51.9716 67.1635L51.9385 67.1512C52.7161 64.0208 53.8197 60.8685 53.4827 57.6249L53.3169 54.3963L53.3528 54.3909L53.3514 54.3922Z" fill="black"/>
<path d="M54.2747 72.5535C53.6504 72.5535 53.1144 72.2113 52.9225 72.0885C51.9584 71.4709 51.5205 70.631 51.5026 70.5956C50.9625 69.6834 50.2982 69.1558 49.765 68.7318C49.1849 68.2709 48.7264 67.9055 48.8065 67.292C48.87 66.8066 49.2678 66.3553 49.9874 65.9545L50.1697 66.249C49.5523 66.5939 49.2126 66.9593 49.1642 67.3342C49.1103 67.7433 49.4128 68.0051 49.9971 68.4686C50.5523 68.9104 51.2443 69.4598 51.823 70.4361C51.8313 70.4524 52.2443 71.2391 53.1241 71.8036C53.3327 71.9372 53.8879 72.2944 54.4832 72.1935C55.1061 72.0885 55.9003 71.2105 56.4818 70.5697C56.7346 70.2902 56.9542 70.0488 57.142 69.8811C57.8478 69.2499 58.4652 68.9145 58.9624 68.6431C59.7207 68.2314 60.0343 68.0596 59.8616 67.2906C59.7511 66.7943 59.1517 66.3526 58.0812 65.9776L58.2056 65.6572C59.4169 66.0813 60.0729 66.5925 60.2138 67.2197C60.4403 68.2341 59.9238 68.515 59.142 68.9404C58.6627 69.2008 58.0647 69.5267 57.3906 70.1293C57.2166 70.2847 56.9929 70.5315 56.7567 70.7919C56.1061 71.5091 55.2967 72.4035 54.5481 72.5289C54.457 72.5439 54.3658 72.5507 54.2774 72.5507L54.2747 72.5535Z" fill="black"/>
<path opacity="0.35" d="M33.9175 70.1693L48.9588 92.4192L38.2475 84.5849C37.5045 84.0409 36.9851 83.2678 36.7821 82.398L33.9175 70.168V70.1693Z" fill="#C59B6D"/>
<path opacity="0.35" d="M75.7962 67.6921L61.8848 92.7043L71.8266 81.2665L75.7962 67.6921Z" fill="#C59B6D"/>
<path d="M55.0102 57.9497C55.2049 59.1182 55.2422 60.2689 55.3279 61.4387C55.6966 63.3571 56.5046 65.1432 57.0557 67.0275L57.0226 67.0411C55.8707 65.3722 55.4826 63.398 55.2118 61.4551C54.9453 60.3371 54.7008 59.0323 55.0102 57.9497Z" fill="black"/>
<path d="M30.8586 55.377C29.3296 53.0278 26.7329 53.5023 26.5589 53.7586C26.3918 54.0054 26.3089 54.2931 26.2992 54.5862C26.2357 56.4909 26.3766 58.9274 27.1128 61.6488C28.6749 67.4175 32.6804 69.9589 34.6141 71.8527C33.661 66.3254 32.0022 60.7053 30.8586 55.3784V55.377Z" fill="#FFE5D1"/>
<path d="M30.7663 55.3433C29.2373 52.9941 26.6407 53.4686 26.4666 53.7249C26.2995 53.9717 26.2166 54.2594 26.207 54.5525C26.1434 56.4572 26.2843 58.8937 27.0205 61.6151C28.5826 67.3838 32.5881 69.9252 34.5218 71.8191C33.5688 66.2917 31.9099 60.6716 30.7663 55.3447V55.3433Z" fill="#FFE5D1"/>
<path d="M34.7927 72.3293L34.3922 71.938C34.051 71.604 33.6366 71.2413 33.196 70.8582C31.0635 68.9971 28.1436 66.4502 26.8467 61.6577C26.2224 59.3494 25.9461 56.958 26.0276 54.5474C26.0387 54.2106 26.1381 53.8943 26.3163 53.6325C26.453 53.4308 27.0152 53.3285 27.5165 53.3339C28.1685 53.3394 29.8038 53.5385 30.9212 55.2523L30.9447 55.3082C31.395 57.4038 31.935 59.5921 32.4599 61.7095C33.2775 65.0158 34.1228 68.4326 34.7016 71.7908L34.7941 72.3293H34.7927ZM27.4806 53.6762C27.0041 53.6762 26.6712 53.7743 26.6077 53.8289C26.4751 54.0266 26.395 54.2829 26.3867 54.5583C26.3066 56.9361 26.5787 59.2962 27.1947 61.5732C28.4654 66.2661 31.3397 68.7748 33.4391 70.6059C33.7237 70.8541 33.9985 71.094 34.2513 71.3245C33.6781 68.1463 32.8797 64.9177 32.1063 61.7886C31.5842 59.6794 31.0455 57.4992 30.5952 55.4077C29.79 54.1888 28.721 53.8111 27.9641 53.7089C27.7914 53.6857 27.6284 53.6762 27.4806 53.6762Z" fill="black"/>
<path d="M32.4389 68.0478C29.1406 65.0073 28.095 62.5 27.4555 60.2449C26.979 58.5624 26.4293 55.1429 27.3174 54.8648C27.8657 54.6957 28.6447 55.6583 29.8878 57.503C30.3629 58.2079 30.693 58.8214 30.9126 59.2264C31.3215 59.9844 31.693 60.7725 32.0176 61.5688L31.682 61.6915C31.3615 60.9061 30.9955 60.129 30.5922 59.3818C30.3767 58.981 30.0494 58.377 29.5839 57.6857C29.1475 57.0381 27.827 55.0693 27.4293 55.1879C27.0715 55.2997 27.0978 57.668 27.8022 60.1549C28.4279 62.3636 29.4527 64.8192 32.6875 67.8024L32.4361 68.0478H32.4389Z" fill="black"/>
<path d="M28.0222 59.123C27.8385 58.4495 27.8109 57.7678 27.9407 57.0997C28.0278 56.6498 28.1714 56.0649 28.3164 55.7717L28.6438 55.9149C28.5139 56.1794 28.3758 56.752 28.2957 57.1611C28.1755 57.7801 28.2018 58.4113 28.3717 59.0372L28.0222 59.123Z" fill="black"/>
<path d="M32.4751 64.7621C32.4571 64.7525 30.7099 63.6427 30.6188 61.8621C30.5801 61.0958 30.8688 60.6691 31.0607 60.3882L31.1201 60.2996L31.4268 60.4795L31.3632 60.5736C31.1864 60.834 30.9447 61.1899 30.9779 61.8457C31.0594 63.4355 32.6353 64.4567 32.6519 64.4649L32.4737 64.7621H32.4751Z" fill="black"/>
<path opacity="0.35" d="M32.5378 68.1459C30.6055 66.4007 29.5116 64.6459 28.9135 63.4966C28.7118 63.1107 28.0668 61.8305 27.6055 60.0266C27.1898 58.3987 26.6994 55.4646 27.3486 55.2464C27.995 55.0297 29.5544 57.5752 30.1207 58.4996C30.6428 59.3517 30.8638 59.8752 31.0999 60.3906C30.9936 60.5283 30.8886 60.666 30.7823 60.8037C30.6704 61.1214 30.3776 62.0415 30.7823 62.399C30.9853 63.8933 32.3168 64.7032 32.5364 64.8327V68.1459H32.5378Z" fill="#C59B6D"/>
<path d="M78.4827 56.0394C80.0117 53.6902 82.6084 54.1646 82.7824 54.421C82.9495 54.6677 83.0324 54.9554 83.0421 55.2486C83.1056 57.1533 82.9647 59.5897 82.2285 62.3112C80.6664 68.0798 76.6609 70.6213 74.7272 72.5151C75.6803 66.9877 77.3391 61.3677 78.4827 56.0407V56.0394Z" fill="#FFE5D1"/>
<path d="M78.575 56.0062C80.104 53.657 82.7007 54.1314 82.8747 54.3878C83.0418 54.6345 83.1247 54.9222 83.1344 55.2154C83.1979 57.1201 83.057 59.5565 82.3208 62.278C80.7587 68.0466 76.7532 70.5881 74.8195 72.4819C75.7726 66.9545 77.4314 61.3345 78.575 56.0075V56.0062Z" fill="#FFE5D1"/>
<path d="M74.5491 72.9917L74.9496 72.6004C75.2908 72.2663 75.7052 71.9036 76.1458 71.5205C78.2783 69.6594 81.1982 67.1125 82.4951 62.3201C83.1194 60.0118 83.3957 57.6203 83.3142 55.2098C83.3031 54.873 83.2037 54.5567 83.0255 54.2949C82.8888 54.0931 82.3266 53.9908 81.8253 53.9963C81.1733 54.0018 79.538 54.2008 78.4206 55.9147L78.3971 55.9706C77.9468 58.0662 77.4068 60.2545 76.8819 62.3719C76.0643 65.6782 75.219 69.095 74.6402 72.4531L74.5477 72.9917H74.5491ZM81.8612 54.3385C82.3377 54.3385 82.6705 54.4367 82.7341 54.4912C82.8667 54.6889 82.9468 54.9453 82.9551 55.2207C83.0352 57.5985 82.7631 59.9586 82.1471 62.2355C80.8764 66.9285 78.0021 69.4372 75.9027 71.2683C75.6181 71.5164 75.3433 71.7564 75.0905 71.9868C75.6637 68.8087 76.462 65.58 77.2355 62.451C77.7576 60.3417 78.2963 58.1616 78.7466 56.0701C79.5518 54.8512 80.6208 54.4735 81.3777 54.3712C81.5504 54.3481 81.7134 54.3385 81.8612 54.3385Z" fill="black"/>
<path d="M76.9024 68.7106C80.2007 65.6702 81.2463 63.1628 81.8858 60.9077C82.3623 59.2252 82.912 55.8057 82.0239 55.5276C81.4756 55.3585 80.6966 56.3211 79.4535 58.1658C78.9784 58.8707 78.6483 59.4843 78.4287 59.8892C78.0198 60.6473 77.6483 61.4354 77.3237 62.2316L77.6593 62.3543C77.9798 61.569 78.3458 60.7918 78.7491 60.0447C78.9646 59.6438 79.2919 59.0398 79.7574 58.3485C80.1938 57.7009 81.5143 55.7321 81.9121 55.8507C82.2698 55.9625 82.2435 58.3308 81.5391 60.8177C80.9134 63.0265 79.8886 65.482 76.6538 68.4652L76.9052 68.7106H76.9024Z" fill="black"/>
<path d="M81.3196 59.7854C81.5033 59.1119 81.5309 58.4301 81.4011 57.7621C81.314 57.3121 81.1704 56.7272 81.0254 56.4341L80.698 56.5772C80.8279 56.8417 80.966 57.4144 81.0461 57.8234C81.1663 58.4424 81.14 59.0737 80.9701 59.6995L81.3196 59.7854Z" fill="black"/>
<path d="M76.8667 65.4247C76.8847 65.4151 78.6319 64.3053 78.723 62.5247C78.7617 61.7584 78.473 61.3317 78.2811 61.0508L78.2217 60.9622L77.915 61.1421L77.9786 61.2362C78.1554 61.4966 78.3971 61.8525 78.3639 62.5083C78.2824 64.0981 76.7065 65.1193 76.6899 65.1275L76.8681 65.4247H76.8667Z" fill="black"/>
<path opacity="0.35" d="M76.804 68.8087C78.7363 67.0635 79.8302 65.3088 80.4283 64.1594C80.6299 63.7736 81.275 62.4933 81.7363 60.6895C82.152 59.0615 82.6424 56.1274 81.9932 55.9093C81.3468 55.6925 79.7874 58.238 79.2211 59.1624C78.699 60.0146 78.478 60.538 78.2418 61.0534C78.3482 61.1911 78.4532 61.3288 78.5595 61.4665C78.6714 61.7842 78.9642 62.7044 78.5595 63.0619C78.3565 64.5562 77.025 65.3661 76.8054 65.4956V68.8087H76.804Z" fill="#C59B6D"/>
<path d="M62.6592 77.7984L60.023 79.5115C59.7954 79.6597 59.5248 79.7395 59.2493 79.7395H50.7949C50.2901 79.7395 49.8018 79.5799 49.4026 79.2868L47.3801 77.7984H62.6592Z" fill="white"/>
<path d="M46.685 77.5949H63.2871L60.0785 79.6809C59.8129 79.8535 59.5044 79.9431 59.1828 79.9431H50.7283C50.179 79.9431 49.6379 79.7672 49.204 79.4481L46.685 77.5949ZM61.8981 78.0036H47.942L49.468 79.1256C49.8259 79.3894 50.2746 79.5344 50.7283 79.5344H59.1828C59.417 79.5344 59.643 79.4676 59.836 79.3422L61.8997 78.002L61.8981 78.0036Z" fill="black"/>
<path opacity="0.35" d="M50.9417 80.0708C51.9153 80.2697 53.0457 80.4909 54.0193 80.6897H55.1591C56.2375 80.4909 57.1592 80.2697 58.2368 80.0708H50.9409H50.9417Z" fill="#C5806D"/>
<path d="M28.7578 44.6175L32.4713 60.4947L34.0187 44.6175L39.5889 38.4283C53.7892 38.4283 60.8549 37.2464 73.3202 37.8093L78.8905 45.5459L79.5094 59.2567L83.223 44.6175C83.223 44.6175 83.0714 39.9782 81.9851 37.285C80.2376 32.9525 77.6527 30.4769 77.6527 30.4769C63.0846 12.2887 37.7322 23.2653 32.4713 32.2389C32.4713 32.2389 30.9127 35.0936 29.9957 38.4283C29.3547 40.7591 28.7578 44.6175 28.7578 44.6175Z" fill="#5F3232" stroke="black" stroke-linecap="round"/>
</g>
<path d="M148.24 49.83H143.69L142.83 53H140L144.33 39.17H147.69L152.01 53H149.1L148.24 49.83ZM144.18 47.78H147.73L145.96 41.22L144.18 47.78ZM159.372 42.41V51.13H162.162V53H153.632V51.13H156.732V44.28H153.732V42.41H159.372ZM157.662 37.07C158.149 37.07 158.542 37.22 158.842 37.52C159.149 37.82 159.302 38.1933 159.302 38.64C159.302 39.0867 159.149 39.4633 158.842 39.77C158.542 40.07 158.149 40.22 157.662 40.22C157.176 40.22 156.779 40.07 156.472 39.77C156.166 39.4633 156.012 39.0867 156.012 38.64C156.012 38.1933 156.166 37.82 156.472 37.52C156.779 37.22 157.176 37.07 157.662 37.07ZM164.954 53V42.41H167.254L167.444 43.72C167.898 43.1867 168.408 42.7867 168.974 42.52C169.541 42.2467 170.151 42.11 170.804 42.11C171.758 42.11 172.484 42.3867 172.984 42.94C173.484 43.4867 173.734 44.2567 173.734 45.25V53H171.094V46.28C171.094 45.7467 171.061 45.32 170.994 45C170.928 44.6733 170.801 44.44 170.614 44.3C170.428 44.1533 170.158 44.08 169.804 44.08C169.518 44.08 169.241 44.1433 168.974 44.27C168.714 44.3967 168.468 44.5667 168.234 44.78C168.008 44.9933 167.794 45.23 167.594 45.49V53H164.954ZM182.767 37.9L185.407 38.18V53H183.067L182.907 51.75C182.58 52.2167 182.17 52.5933 181.677 52.88C181.183 53.16 180.61 53.3 179.957 53.3C179.063 53.3 178.323 53.0667 177.737 52.6C177.157 52.1333 176.723 51.48 176.437 50.64C176.157 49.7933 176.017 48.81 176.017 47.69C176.017 46.61 176.183 45.65 176.517 44.81C176.85 43.97 177.33 43.31 177.957 42.83C178.59 42.35 179.34 42.11 180.207 42.11C180.727 42.11 181.2 42.2 181.627 42.38C182.053 42.56 182.433 42.8267 182.767 43.18V37.9ZM180.917 44.08C180.25 44.08 179.723 44.37 179.337 44.95C178.957 45.5233 178.767 46.44 178.767 47.7C178.767 48.5867 178.847 49.2967 179.007 49.83C179.167 50.3567 179.393 50.7367 179.687 50.97C179.98 51.2033 180.327 51.32 180.727 51.32C181.167 51.32 181.553 51.19 181.887 50.93C182.227 50.6633 182.52 50.3333 182.767 49.94V45.12C182.52 44.7933 182.243 44.54 181.937 44.36C181.637 44.1733 181.297 44.08 180.917 44.08ZM196.749 50.21C196.749 50.6167 196.809 50.9133 196.929 51.1C197.049 51.28 197.242 51.4167 197.509 51.51L196.939 53.28C196.372 53.22 195.889 53.08 195.489 52.86C195.095 52.6333 194.792 52.2967 194.579 51.85C194.179 52.3367 193.672 52.7 193.059 52.94C192.452 53.18 191.815 53.3 191.149 53.3C190.069 53.3 189.212 52.9933 188.579 52.38C187.945 51.7667 187.629 50.97 187.629 49.99C187.629 48.8633 188.069 47.9967 188.949 47.39C189.835 46.7767 191.089 46.47 192.709 46.47H194.189V45.9C194.189 45.2733 193.995 44.82 193.609 44.54C193.222 44.2533 192.665 44.11 191.939 44.11C191.599 44.11 191.172 44.1567 190.659 44.25C190.152 44.3367 189.629 44.4733 189.089 44.66L188.459 42.85C189.132 42.5967 189.809 42.41 190.489 42.29C191.175 42.17 191.799 42.11 192.359 42.11C193.845 42.11 194.949 42.4267 195.669 43.06C196.389 43.6867 196.749 44.5767 196.749 45.73V50.21ZM192.009 51.39C192.409 51.39 192.812 51.2767 193.219 51.05C193.632 50.8233 193.955 50.5067 194.189 50.1V48.04H193.149C192.169 48.04 191.459 48.1967 191.019 48.51C190.585 48.8233 190.369 49.2667 190.369 49.84C190.369 50.3333 190.509 50.7167 190.789 50.99C191.069 51.2567 191.475 51.39 192.009 51.39ZM211.643 53V42.41H213.943L214.133 43.72C214.586 43.1867 215.096 42.7867 215.663 42.52C216.23 42.2467 216.84 42.11 217.493 42.11C218.446 42.11 219.173 42.3867 219.673 42.94C220.173 43.4867 220.423 44.2567 220.423 45.25V53H217.783V46.28C217.783 45.7467 217.75 45.32 217.683 45C217.616 44.6733 217.49 44.44 217.303 44.3C217.116 44.1533 216.846 44.08 216.493 44.08C216.206 44.08 215.93 44.1433 215.663 44.27C215.403 44.3967 215.156 44.5667 214.923 44.78C214.696 44.9933 214.483 45.23 214.283 45.49V53H211.643ZM231.765 50.21C231.765 50.6167 231.825 50.9133 231.945 51.1C232.065 51.28 232.259 51.4167 232.525 51.51L231.955 53.28C231.389 53.22 230.905 53.08 230.505 52.86C230.112 52.6333 229.809 52.2967 229.595 51.85C229.195 52.3367 228.689 52.7 228.075 52.94C227.469 53.18 226.832 53.3 226.165 53.3C225.085 53.3 224.229 52.9933 223.595 52.38C222.962 51.7667 222.645 50.97 222.645 49.99C222.645 48.8633 223.085 47.9967 223.965 47.39C224.852 46.7767 226.105 46.47 227.725 46.47H229.205V45.9C229.205 45.2733 229.012 44.82 228.625 44.54C228.239 44.2533 227.682 44.11 226.955 44.11C226.615 44.11 226.189 44.1567 225.675 44.25C225.169 44.3367 224.645 44.4733 224.105 44.66L223.475 42.85C224.149 42.5967 224.825 42.41 225.505 42.29C226.192 42.17 226.815 42.11 227.375 42.11C228.862 42.11 229.965 42.4267 230.685 43.06C231.405 43.6867 231.765 44.5767 231.765 45.73V50.21ZM227.025 51.39C227.425 51.39 227.829 51.2767 228.235 51.05C228.649 50.8233 228.972 50.5067 229.205 50.1V48.04H228.165C227.185 48.04 226.475 48.1967 226.035 48.51C225.602 48.8233 225.385 49.2667 225.385 49.84C225.385 50.3333 225.525 50.7167 225.805 50.99C226.085 51.2567 226.492 51.39 227.025 51.39ZM228.695 40.14C228.322 40.14 228.005 40.0633 227.745 39.91C227.492 39.7567 227.259 39.6033 227.045 39.45C226.839 39.2967 226.622 39.22 226.395 39.22C226.155 39.22 225.959 39.2967 225.805 39.45C225.652 39.5967 225.495 39.8167 225.335 40.11L223.925 39.42C224.172 38.84 224.499 38.3433 224.905 37.93C225.312 37.51 225.795 37.3 226.355 37.3C226.755 37.3 227.082 37.3767 227.335 37.53C227.595 37.6833 227.825 37.8367 228.025 37.99C228.225 38.1433 228.442 38.22 228.675 38.22C228.889 38.22 229.072 38.15 229.225 38.01C229.385 37.8633 229.552 37.6433 229.725 37.35L231.135 38.05C230.875 38.6767 230.535 39.1833 230.115 39.57C229.702 39.95 229.229 40.14 228.695 40.14ZM239.388 42.11C240.441 42.11 241.334 42.34 242.068 42.8C242.801 43.26 243.358 43.91 243.738 44.75C244.124 45.5833 244.318 46.56 244.318 47.68C244.318 48.8267 244.124 49.82 243.738 50.66C243.351 51.5 242.791 52.15 242.058 52.61C241.324 53.07 240.431 53.3 239.378 53.3C238.331 53.3 237.438 53.0767 236.698 52.63C235.964 52.1767 235.404 51.5333 235.018 50.7C234.631 49.86 234.438 48.86 234.438 47.7C234.438 46.5933 234.631 45.62 235.018 44.78C235.404 43.94 235.968 43.2867 236.708 42.82C237.448 42.3467 238.341 42.11 239.388 42.11ZM239.388 44.1C238.648 44.1 238.094 44.39 237.728 44.97C237.368 45.55 237.188 46.46 237.188 47.7C237.188 48.9533 237.368 49.87 237.728 50.45C238.088 51.0233 238.638 51.31 239.378 51.31C240.118 51.31 240.668 51.0233 241.028 50.45C241.388 49.87 241.568 48.9467 241.568 47.68C241.568 46.4467 241.388 45.5433 241.028 44.97C240.668 44.39 240.121 44.1 239.388 44.1ZM265.862 42.11C266.315 42.11 266.702 42.2067 267.022 42.4C267.342 42.5867 267.589 42.9033 267.762 43.35C267.935 43.79 268.022 44.39 268.022 45.15V53H265.722V45.48C265.722 45 265.682 44.66 265.602 44.46C265.529 44.26 265.359 44.16 265.092 44.16C264.872 44.16 264.649 44.2267 264.422 44.36C264.202 44.4867 263.972 44.7167 263.732 45.05V53H261.742V45.48C261.742 45 261.702 44.66 261.622 44.46C261.549 44.26 261.379 44.16 261.112 44.16C260.885 44.16 260.662 44.2267 260.442 44.36C260.222 44.4867 259.992 44.7167 259.752 45.05V53H257.422V42.41H259.392L259.562 43.51C259.875 43.07 260.205 42.7267 260.552 42.48C260.899 42.2333 261.315 42.11 261.802 42.11C262.202 42.11 262.555 42.21 262.862 42.41C263.175 42.6033 263.399 42.9367 263.532 43.41C263.839 43.0233 264.182 42.71 264.562 42.47C264.942 42.23 265.375 42.11 265.862 42.11ZM272.254 48.51C272.307 49.17 272.457 49.7067 272.704 50.12C272.957 50.5333 273.281 50.8367 273.674 51.03C274.067 51.2233 274.504 51.32 274.984 51.32C275.491 51.32 275.967 51.24 276.414 51.08C276.861 50.92 277.301 50.6967 277.734 50.41L278.834 51.92C278.341 52.3333 277.751 52.6667 277.064 52.92C276.384 53.1733 275.634 53.3 274.814 53.3C273.667 53.3 272.701 53.0633 271.914 52.59C271.134 52.1167 270.544 51.46 270.144 50.62C269.744 49.78 269.544 48.8133 269.544 47.72C269.544 46.6667 269.741 45.7167 270.134 44.87C270.527 44.0233 271.094 43.3533 271.834 42.86C272.574 42.36 273.467 42.11 274.514 42.11C275.487 42.11 276.327 42.3233 277.034 42.75C277.741 43.1767 278.287 43.79 278.674 44.59C279.061 45.3833 279.254 46.34 279.254 47.46C279.254 47.64 279.247 47.8233 279.234 48.01C279.227 48.1967 279.217 48.3633 279.204 48.51H272.254ZM274.524 43.97C273.884 43.97 273.357 44.2 272.944 44.66C272.537 45.1133 272.297 45.8333 272.224 46.82H276.684C276.671 45.9267 276.484 45.23 276.124 44.73C275.771 44.2233 275.237 43.97 274.524 43.97ZM301.798 50.21C301.798 50.6167 301.858 50.9133 301.978 51.1C302.098 51.28 302.292 51.4167 302.558 51.51L301.988 53.28C301.422 53.22 300.938 53.08 300.538 52.86C300.145 52.6333 299.842 52.2967 299.628 51.85C299.228 52.3367 298.722 52.7 298.108 52.94C297.502 53.18 296.865 53.3 296.198 53.3C295.118 53.3 294.262 52.9933 293.628 52.38C292.995 51.7667 292.678 50.97 292.678 49.99C292.678 48.8633 293.118 47.9967 293.998 47.39C294.885 46.7767 296.138 46.47 297.758 46.47H299.238V45.9C299.238 45.2733 299.045 44.82 298.658 44.54C298.272 44.2533 297.715 44.11 296.988 44.11C296.648 44.11 296.222 44.1567 295.708 44.25C295.202 44.3367 294.678 44.4733 294.138 44.66L293.508 42.85C294.182 42.5967 294.858 42.41 295.538 42.29C296.225 42.17 296.848 42.11 297.408 42.11C298.895 42.11 299.998 42.4267 300.718 43.06C301.438 43.6867 301.798 44.5767 301.798 45.73V50.21ZM297.058 51.39C297.458 51.39 297.862 51.2767 298.268 51.05C298.682 50.8233 299.005 50.5067 299.238 50.1V48.04H298.198C297.218 48.04 296.508 48.1967 296.068 48.51C295.635 48.8233 295.418 49.2667 295.418 49.84C295.418 50.3333 295.558 50.7167 295.838 50.99C296.118 51.2567 296.525 51.39 297.058 51.39ZM310.351 51.18C310.817 51.18 311.254 51.0933 311.661 50.92C312.074 50.7467 312.471 50.5267 312.851 50.26L314.051 51.95C313.584 52.3433 313.021 52.6667 312.361 52.92C311.701 53.1733 310.994 53.3 310.241 53.3C309.134 53.3 308.184 53.07 307.391 52.61C306.604 52.1433 305.997 51.4967 305.571 50.67C305.151 49.8367 304.941 48.87 304.941 47.77C304.941 46.6833 305.154 45.7133 305.581 44.86C306.014 44 306.627 43.3267 307.421 42.84C308.221 42.3533 309.174 42.11 310.281 42.11C311.041 42.11 311.727 42.22 312.341 42.44C312.961 42.6533 313.527 42.9733 314.041 43.4L312.871 45.02C312.477 44.7467 312.071 44.54 311.651 44.4C311.237 44.2533 310.807 44.18 310.361 44.18C309.581 44.18 308.944 44.4633 308.451 45.03C307.964 45.59 307.721 46.5033 307.721 47.77C307.721 48.6033 307.834 49.27 308.061 49.77C308.294 50.27 308.607 50.63 309.001 50.85C309.401 51.07 309.851 51.18 310.351 51.18ZM321.093 42.11C322.146 42.11 323.039 42.34 323.773 42.8C324.506 43.26 325.063 43.91 325.443 44.75C325.829 45.5833 326.023 46.56 326.023 47.68C326.023 48.8267 325.829 49.82 325.443 50.66C325.056 51.5 324.496 52.15 323.763 52.61C323.029 53.07 322.136 53.3 321.083 53.3C320.036 53.3 319.143 53.0767 318.403 52.63C317.669 52.1767 317.109 51.5333 316.723 50.7C316.336 49.86 316.143 48.86 316.143 47.7C316.143 46.5933 316.336 45.62 316.723 44.78C317.109 43.94 317.673 43.2867 318.413 42.82C319.153 42.3467 320.046 42.11 321.093 42.11ZM321.093 44.1C320.353 44.1 319.799 44.39 319.433 44.97C319.073 45.55 318.893 46.46 318.893 47.7C318.893 48.9533 319.073 49.87 319.433 50.45C319.793 51.0233 320.343 51.31 321.083 51.31C321.823 51.31 322.373 51.0233 322.733 50.45C323.093 49.87 323.273 48.9467 323.273 47.68C323.273 46.4467 323.093 45.5433 322.733 44.97C322.373 44.39 321.826 44.1 321.093 44.1ZM332.395 51.35C333.015 51.35 333.512 51.2433 333.885 51.03C334.265 50.81 334.455 50.5033 334.455 50.11C334.455 49.85 334.392 49.63 334.265 49.45C334.145 49.27 333.905 49.1033 333.545 48.95C333.185 48.79 332.645 48.6133 331.925 48.42C331.245 48.2467 330.648 48.0333 330.135 47.78C329.628 47.52 329.232 47.1867 328.945 46.78C328.665 46.3733 328.525 45.86 328.525 45.24C328.525 44.62 328.698 44.0767 329.045 43.61C329.392 43.1367 329.892 42.77 330.545 42.51C331.205 42.2433 331.998 42.11 332.925 42.11C333.832 42.11 334.625 42.23 335.305 42.47C335.985 42.7033 336.568 42.9967 337.055 43.35L335.975 44.96C335.548 44.6867 335.085 44.4667 334.585 44.3C334.092 44.1267 333.558 44.04 332.985 44.04C332.365 44.04 331.912 44.13 331.625 44.31C331.345 44.49 331.205 44.74 331.205 45.06C331.205 45.2867 331.275 45.48 331.415 45.64C331.562 45.7933 331.822 45.9433 332.195 46.09C332.575 46.23 333.115 46.4 333.815 46.6C334.502 46.7867 335.098 47.0067 335.605 47.26C336.118 47.5133 336.515 47.85 336.795 48.27C337.075 48.69 337.215 49.24 337.215 49.92C337.215 50.6867 336.992 51.32 336.545 51.82C336.098 52.32 335.508 52.6933 334.775 52.94C334.048 53.18 333.258 53.3 332.405 53.3C331.405 53.3 330.532 53.1567 329.785 52.87C329.038 52.5833 328.405 52.2133 327.885 51.76L329.255 50.22C329.668 50.5467 330.138 50.8167 330.665 51.03C331.198 51.2433 331.775 51.35 332.395 51.35ZM349.177 52.41C348.784 52.67 348.307 52.8833 347.747 53.05C347.187 53.2167 346.581 53.3 345.927 53.3C344.634 53.3 343.661 52.9667 343.007 52.3C342.354 51.6267 342.027 50.7333 342.027 49.62V44.28H339.727V42.41H342.027V40.08L344.667 39.76V42.41H348.167L347.897 44.28H344.667V49.61C344.667 50.1567 344.801 50.5567 345.067 50.81C345.334 51.0633 345.764 51.19 346.357 51.19C346.737 51.19 347.084 51.1467 347.397 51.06C347.717 50.9667 348.007 50.85 348.267 50.71L349.177 52.41ZM354.349 42.41V49.75C354.349 50.3233 354.463 50.7267 354.689 50.96C354.916 51.1933 355.246 51.31 355.679 51.31C356.093 51.31 356.496 51.1867 356.889 50.94C357.283 50.6867 357.603 50.3667 357.849 49.98V42.41H360.489V53H358.189L358.049 51.7C357.669 52.22 357.183 52.6167 356.589 52.89C355.996 53.1633 355.383 53.3 354.749 53.3C353.729 53.3 352.966 53.0133 352.459 52.44C351.959 51.86 351.709 51.07 351.709 50.07V42.41H354.349ZM370.912 42.11C371.365 42.11 371.752 42.2067 372.072 42.4C372.392 42.5867 372.638 42.9033 372.812 43.35C372.985 43.79 373.072 44.39 373.072 45.15V53H370.772V45.48C370.772 45 370.732 44.66 370.652 44.46C370.578 44.26 370.408 44.16 370.142 44.16C369.922 44.16 369.698 44.2267 369.472 44.36C369.252 44.4867 369.022 44.7167 368.782 45.05V53H366.792V45.48C366.792 45 366.752 44.66 366.672 44.46C366.598 44.26 366.428 44.16 366.162 44.16C365.935 44.16 365.712 44.2267 365.492 44.36C365.272 44.4867 365.042 44.7167 364.802 45.05V53H362.472V42.41H364.442L364.612 43.51C364.925 43.07 365.255 42.7267 365.602 42.48C365.948 42.2333 366.365 42.11 366.852 42.11C367.252 42.11 367.605 42.21 367.912 42.41C368.225 42.6033 368.448 42.9367 368.582 43.41C368.888 43.0233 369.232 42.71 369.612 42.47C369.992 42.23 370.425 42.11 370.912 42.11ZM377.304 48.51C377.357 49.17 377.507 49.7067 377.754 50.12C378.007 50.5333 378.33 50.8367 378.724 51.03C379.117 51.2233 379.554 51.32 380.034 51.32C380.54 51.32 381.017 51.24 381.464 51.08C381.91 50.92 382.35 50.6967 382.784 50.41L383.884 51.92C383.39 52.3333 382.8 52.6667 382.114 52.92C381.434 53.1733 380.684 53.3 379.864 53.3C378.717 53.3 377.75 53.0633 376.964 52.59C376.184 52.1167 375.594 51.46 375.194 50.62C374.794 49.78 374.594 48.8133 374.594 47.72C374.594 46.6667 374.79 45.7167 375.184 44.87C375.577 44.0233 376.144 43.3533 376.884 42.86C377.624 42.36 378.517 42.11 379.564 42.11C380.537 42.11 381.377 42.3233 382.084 42.75C382.79 43.1767 383.337 43.79 383.724 44.59C384.11 45.3833 384.304 46.34 384.304 47.46C384.304 47.64 384.297 47.8233 384.284 48.01C384.277 48.1967 384.267 48.3633 384.254 48.51H377.304ZM379.574 43.97C378.934 43.97 378.407 44.2 377.994 44.66C377.587 45.1133 377.347 45.8333 377.274 46.82H381.734C381.72 45.9267 381.534 45.23 381.174 44.73C380.82 44.2233 380.287 43.97 379.574 43.97ZM392.816 42.41V51.13H395.606V53H387.076V51.13H390.176V44.28H387.176V42.41H392.816ZM391.106 37.07C391.593 37.07 391.986 37.22 392.286 37.52C392.593 37.82 392.746 38.1933 392.746 38.64C392.746 39.0867 392.593 39.4633 392.286 39.77C391.986 40.07 391.593 40.22 391.106 40.22C390.619 40.22 390.223 40.07 389.916 39.77C389.609 39.4633 389.456 39.0867 389.456 38.64C389.456 38.1933 389.609 37.82 389.916 37.52C390.223 37.22 390.619 37.07 391.106 37.07ZM415.4 51.18C415.867 51.18 416.304 51.0933 416.71 50.92C417.124 50.7467 417.52 50.5267 417.9 50.26L419.1 51.95C418.634 52.3433 418.07 52.6667 417.41 52.92C416.75 53.1733 416.044 53.3 415.29 53.3C414.184 53.3 413.234 53.07 412.44 52.61C411.654 52.1433 411.047 51.4967 410.62 50.67C410.2 49.8367 409.99 48.87 409.99 47.77C409.99 46.6833 410.204 45.7133 410.63 44.86C411.064 44 411.677 43.3267 412.47 42.84C413.27 42.3533 414.224 42.11 415.33 42.11C416.09 42.11 416.777 42.22 417.39 42.44C418.01 42.6533 418.577 42.9733 419.09 43.4L417.92 45.02C417.527 44.7467 417.12 44.54 416.7 44.4C416.287 44.2533 415.857 44.18 415.41 44.18C414.63 44.18 413.994 44.4633 413.5 45.03C413.014 45.59 412.77 46.5033 412.77 47.77C412.77 48.6033 412.884 49.27 413.11 49.77C413.344 50.27 413.657 50.63 414.05 50.85C414.45 51.07 414.9 51.18 415.4 51.18ZM426.143 42.11C427.196 42.11 428.089 42.34 428.823 42.8C429.556 43.26 430.113 43.91 430.493 44.75C430.879 45.5833 431.073 46.56 431.073 47.68C431.073 48.8267 430.879 49.82 430.493 50.66C430.106 51.5 429.546 52.15 428.813 52.61C428.079 53.07 427.186 53.3 426.133 53.3C425.086 53.3 424.193 53.0767 423.453 52.63C422.719 52.1767 422.159 51.5333 421.773 50.7C421.386 49.86 421.193 48.86 421.193 47.7C421.193 46.5933 421.386 45.62 421.773 44.78C422.159 43.94 422.723 43.2867 423.463 42.82C424.203 42.3467 425.096 42.11 426.143 42.11ZM426.143 44.1C425.403 44.1 424.849 44.39 424.483 44.97C424.123 45.55 423.943 46.46 423.943 47.7C423.943 48.9533 424.123 49.87 424.483 50.45C424.843 51.0233 425.393 51.31 426.133 51.31C426.873 51.31 427.423 51.0233 427.783 50.45C428.143 49.87 428.323 48.9467 428.323 47.68C428.323 46.4467 428.143 45.5433 427.783 44.97C427.423 44.39 426.876 44.1 426.143 44.1ZM440.945 42.11C441.398 42.11 441.785 42.2067 442.105 42.4C442.425 42.5867 442.671 42.9033 442.845 43.35C443.018 43.79 443.105 44.39 443.105 45.15V53H440.805V45.48C440.805 45 440.765 44.66 440.685 44.46C440.611 44.26 440.441 44.16 440.175 44.16C439.955 44.16 439.731 44.2267 439.505 44.36C439.285 44.4867 439.055 44.7167 438.815 45.05V53H436.825V45.48C436.825 45 436.785 44.66 436.705 44.46C436.631 44.26 436.461 44.16 436.195 44.16C435.968 44.16 435.745 44.2267 435.525 44.36C435.305 44.4867 435.075 44.7167 434.835 45.05V53H432.505V42.41H434.475L434.645 43.51C434.958 43.07 435.288 42.7267 435.635 42.48C435.981 42.2333 436.398 42.11 436.885 42.11C437.285 42.11 437.638 42.21 437.945 42.41C438.258 42.6033 438.481 42.9367 438.615 43.41C438.921 43.0233 439.265 42.71 439.645 42.47C440.025 42.23 440.458 42.11 440.945 42.11ZM459.009 48.51C459.062 49.17 459.212 49.7067 459.459 50.12C459.712 50.5333 460.036 50.8367 460.429 51.03C460.822 51.2233 461.259 51.32 461.739 51.32C462.246 51.32 462.722 51.24 463.169 51.08C463.616 50.92 464.056 50.6967 464.489 50.41L465.589 51.92C465.096 52.3333 464.506 52.6667 463.819 52.92C463.139 53.1733 462.389 53.3 461.569 53.3C460.422 53.3 459.456 53.0633 458.669 52.59C457.889 52.1167 457.299 51.46 456.899 50.62C456.499 49.78 456.299 48.8133 456.299 47.72C456.299 46.6667 456.496 45.7167 456.889 44.87C457.282 44.0233 457.849 43.3533 458.589 42.86C459.329 42.36 460.222 42.11 461.269 42.11C462.242 42.11 463.082 42.3233 463.789 42.75C464.496 43.1767 465.042 43.79 465.429 44.59C465.816 45.3833 466.009 46.34 466.009 47.46C466.009 47.64 466.002 47.8233 465.989 48.01C465.982 48.1967 465.972 48.3633 465.959 48.51H459.009ZM461.279 43.97C460.639 43.97 460.112 44.2 459.699 44.66C459.292 45.1133 459.052 45.8333 458.979 46.82H463.439C463.426 45.9267 463.239 45.23 462.879 44.73C462.526 44.2233 461.992 43.97 461.279 43.97ZM472.461 51.35C473.081 51.35 473.578 51.2433 473.951 51.03C474.331 50.81 474.521 50.5033 474.521 50.11C474.521 49.85 474.458 49.63 474.331 49.45C474.211 49.27 473.971 49.1033 473.611 48.95C473.251 48.79 472.711 48.6133 471.991 48.42C471.311 48.2467 470.715 48.0333 470.201 47.78C469.695 47.52 469.298 47.1867 469.011 46.78C468.731 46.3733 468.591 45.86 468.591 45.24C468.591 44.62 468.765 44.0767 469.111 43.61C469.458 43.1367 469.958 42.77 470.611 42.51C471.271 42.2433 472.065 42.11 472.991 42.11C473.898 42.11 474.691 42.23 475.371 42.47C476.051 42.7033 476.635 42.9967 477.121 43.35L476.041 44.96C475.615 44.6867 475.151 44.4667 474.651 44.3C474.158 44.1267 473.625 44.04 473.051 44.04C472.431 44.04 471.978 44.13 471.691 44.31C471.411 44.49 471.271 44.74 471.271 45.06C471.271 45.2867 471.341 45.48 471.481 45.64C471.628 45.7933 471.888 45.9433 472.261 46.09C472.641 46.23 473.181 46.4 473.881 46.6C474.568 46.7867 475.165 47.0067 475.671 47.26C476.185 47.5133 476.581 47.85 476.861 48.27C477.141 48.69 477.281 49.24 477.281 49.92C477.281 50.6867 477.058 51.32 476.611 51.82C476.165 52.32 475.575 52.6933 474.841 52.94C474.115 53.18 473.325 53.3 472.471 53.3C471.471 53.3 470.598 53.1567 469.851 52.87C469.105 52.5833 468.471 52.2133 467.951 51.76L469.321 50.22C469.735 50.5467 470.205 50.8167 470.731 51.03C471.265 51.2433 471.841 51.35 472.461 51.35ZM484.133 51.35C484.753 51.35 485.25 51.2433 485.623 51.03C486.003 50.81 486.193 50.5033 486.193 50.11C486.193 49.85 486.13 49.63 486.003 49.45C485.883 49.27 485.643 49.1033 485.283 48.95C484.923 48.79 484.383 48.6133 483.663 48.42C482.983 48.2467 482.387 48.0333 481.873 47.78C481.367 47.52 480.97 47.1867 480.683 46.78C480.403 46.3733 480.263 45.86 480.263 45.24C480.263 44.62 480.437 44.0767 480.783 43.61C481.13 43.1367 481.63 42.77 482.283 42.51C482.943 42.2433 483.737 42.11 484.663 42.11C485.57 42.11 486.363 42.23 487.043 42.47C487.723 42.7033 488.307 42.9967 488.793 43.35L487.713 44.96C487.287 44.6867 486.823 44.4667 486.323 44.3C485.83 44.1267 485.297 44.04 484.723 44.04C484.103 44.04 483.65 44.13 483.363 44.31C483.083 44.49 482.943 44.74 482.943 45.06C482.943 45.2867 483.013 45.48 483.153 45.64C483.3 45.7933 483.56 45.9433 483.933 46.09C484.313 46.23 484.853 46.4 485.553 46.6C486.24 46.7867 486.837 47.0067 487.343 47.26C487.857 47.5133 488.253 47.85 488.533 48.27C488.813 48.69 488.953 49.24 488.953 49.92C488.953 50.6867 488.73 51.32 488.283 51.82C487.837 52.32 487.247 52.6933 486.513 52.94C485.787 53.18 484.997 53.3 484.143 53.3C483.143 53.3 482.27 53.1567 481.523 52.87C480.777 52.5833 480.143 52.2133 479.623 51.76L480.993 50.22C481.407 50.5467 481.877 50.8167 482.403 51.03C482.937 51.2433 483.513 51.35 484.133 51.35ZM494.026 48.51C494.079 49.17 494.229 49.7067 494.476 50.12C494.729 50.5333 495.052 50.8367 495.446 51.03C495.839 51.2233 496.276 51.32 496.756 51.32C497.262 51.32 497.739 51.24 498.186 51.08C498.632 50.92 499.072 50.6967 499.506 50.41L500.606 51.92C500.112 52.3333 499.522 52.6667 498.836 52.92C498.156 53.1733 497.406 53.3 496.586 53.3C495.439 53.3 494.472 53.0633 493.686 52.59C492.906 52.1167 492.316 51.46 491.916 50.62C491.516 49.78 491.316 48.8133 491.316 47.72C491.316 46.6667 491.512 45.7167 491.906 44.87C492.299 44.0233 492.866 43.3533 493.606 42.86C494.346 42.36 495.239 42.11 496.286 42.11C497.259 42.11 498.099 42.3233 498.806 42.75C499.512 43.1767 500.059 43.79 500.446 44.59C500.832 45.3833 501.026 46.34 501.026 47.46C501.026 47.64 501.019 47.8233 501.006 48.01C500.999 48.1967 500.989 48.3633 500.976 48.51H494.026ZM496.296 43.97C495.656 43.97 495.129 44.2 494.716 44.66C494.309 45.1133 494.069 45.8333 493.996 46.82H498.456C498.442 45.9267 498.256 45.23 497.896 44.73C497.542 44.2233 497.009 43.97 496.296 43.97ZM515.12 53V42.41H517.42L517.61 43.72C518.063 43.1867 518.573 42.7867 519.14 42.52C519.707 42.2467 520.317 42.11 520.97 42.11C521.923 42.11 522.65 42.3867 523.15 42.94C523.65 43.4867 523.9 44.2567 523.9 45.25V53H521.26V46.28C521.26 45.7467 521.227 45.32 521.16 45C521.093 44.6733 520.967 44.44 520.78 44.3C520.593 44.1533 520.323 44.08 519.97 44.08C519.683 44.08 519.407 44.1433 519.14 44.27C518.88 44.3967 518.633 44.5667 518.4 44.78C518.173 44.9933 517.96 45.23 517.76 45.49V53H515.12ZM531.192 42.11C532.246 42.11 533.139 42.34 533.872 42.8C534.606 43.26 535.162 43.91 535.542 44.75C535.929 45.5833 536.122 46.56 536.122 47.68C536.122 48.8267 535.929 49.82 535.542 50.66C535.156 51.5 534.596 52.15 533.862 52.61C533.129 53.07 532.236 53.3 531.182 53.3C530.136 53.3 529.242 53.0767 528.502 52.63C527.769 52.1767 527.209 51.5333 526.822 50.7C526.436 49.86 526.242 48.86 526.242 47.7C526.242 46.5933 526.436 45.62 526.822 44.78C527.209 43.94 527.772 43.2867 528.512 42.82C529.252 42.3467 530.146 42.11 531.192 42.11ZM531.192 44.1C530.452 44.1 529.899 44.39 529.532 44.97C529.172 45.55 528.992 46.46 528.992 47.7C528.992 48.9533 529.172 49.87 529.532 50.45C529.892 51.0233 530.442 51.31 531.182 51.31C531.922 51.31 532.472 51.0233 532.832 50.45C533.192 49.87 533.372 48.9467 533.372 47.68C533.372 46.4467 533.192 45.5433 532.832 44.97C532.472 44.39 531.926 44.1 531.192 44.1ZM548.054 42.41L544.414 53H541.314L537.654 42.41H540.494L542.904 50.89L545.364 42.41H548.054ZM554.537 42.11C555.59 42.11 556.483 42.34 557.217 42.8C557.95 43.26 558.507 43.91 558.887 44.75C559.273 45.5833 559.467 46.56 559.467 47.68C559.467 48.8267 559.273 49.82 558.887 50.66C558.5 51.5 557.94 52.15 557.207 52.61C556.473 53.07 555.58 53.3 554.527 53.3C553.48 53.3 552.587 53.0767 551.847 52.63C551.113 52.1767 550.553 51.5333 550.167 50.7C549.78 49.86 549.587 48.86 549.587 47.7C549.587 46.5933 549.78 45.62 550.167 44.78C550.553 43.94 551.117 43.2867 551.857 42.82C552.597 42.3467 553.49 42.11 554.537 42.11ZM554.537 44.1C553.797 44.1 553.243 44.39 552.877 44.97C552.517 45.55 552.337 46.46 552.337 47.7C552.337 48.9533 552.517 49.87 552.877 50.45C553.237 51.0233 553.787 51.31 554.527 51.31C555.267 51.31 555.817 51.0233 556.177 50.45C556.537 49.87 556.717 48.9467 556.717 47.68C556.717 46.4467 556.537 45.5433 556.177 44.97C555.817 44.39 555.27 44.1 554.537 44.1ZM576.121 42.41V49.75C576.121 50.3233 576.234 50.7267 576.461 50.96C576.688 51.1933 577.018 51.31 577.451 51.31C577.864 51.31 578.268 51.1867 578.661 50.94C579.054 50.6867 579.374 50.3667 579.621 49.98V42.41H582.261V53H579.961L579.821 51.7C579.441 52.22 578.954 52.6167 578.361 52.89C577.768 53.1633 577.154 53.3 576.521 53.3C575.501 53.3 574.738 53.0133 574.231 52.44C573.731 51.86 573.481 51.07 573.481 50.07V42.41H576.121ZM585.153 53V42.41H587.453L587.643 43.72C588.096 43.1867 588.606 42.7867 589.173 42.52C589.74 42.2467 590.35 42.11 591.003 42.11C591.956 42.11 592.683 42.3867 593.183 42.94C593.683 43.4867 593.933 44.2567 593.933 45.25V53H591.293V46.28C591.293 45.7467 591.26 45.32 591.193 45C591.126 44.6733 591 44.44 590.813 44.3C590.626 44.1533 590.356 44.08 590.003 44.08C589.716 44.08 589.44 44.1433 589.173 44.27C588.913 44.3967 588.666 44.5667 588.433 44.78C588.206 44.9933 587.993 45.23 587.793 45.49V53H585.153ZM602.915 42.41V51.13H605.705V53H597.175V51.13H600.275V44.28H597.275V42.41H602.915ZM601.205 37.07C601.692 37.07 602.085 37.22 602.385 37.52C602.692 37.82 602.845 38.1933 602.845 38.64C602.845 39.0867 602.692 39.4633 602.385 39.77C602.085 40.07 601.692 40.22 601.205 40.22C600.719 40.22 600.322 40.07 600.015 39.77C599.709 39.4633 599.555 39.0867 599.555 38.64C599.555 38.1933 599.709 37.82 600.015 37.52C600.322 37.22 600.719 37.07 601.205 37.07ZM615.068 37.9C615.774 37.9 616.401 37.9567 616.948 38.07C617.494 38.1833 617.991 38.3367 618.438 38.53L617.678 40.31C617.324 40.1633 616.954 40.0567 616.568 39.99C616.181 39.9233 615.794 39.89 615.408 39.89C614.741 39.89 614.254 40.0167 613.948 40.27C613.648 40.5167 613.498 40.9133 613.498 41.46V43.13H616.998L616.708 45.02H613.498V53H610.868V45.02H608.538V43.13H610.868V41.4C610.868 40.7133 611.034 40.11 611.368 39.59C611.701 39.0633 612.181 38.65 612.808 38.35C613.441 38.05 614.194 37.9 615.068 37.9ZM624.57 42.11C625.623 42.11 626.516 42.34 627.25 42.8C627.983 43.26 628.54 43.91 628.92 44.75C629.306 45.5833 629.5 46.56 629.5 47.68C629.5 48.8267 629.306 49.82 628.92 50.66C628.533 51.5 627.973 52.15 627.24 52.61C626.506 53.07 625.613 53.3 624.56 53.3C623.513 53.3 622.62 53.0767 621.88 52.63C621.146 52.1767 620.586 51.5333 620.2 50.7C619.813 49.86 619.62 48.86 619.62 47.7C619.62 46.5933 619.813 45.62 620.2 44.78C620.586 43.94 621.15 43.2867 621.89 42.82C622.63 42.3467 623.523 42.11 624.57 42.11ZM624.57 44.1C623.83 44.1 623.276 44.39 622.91 44.97C622.55 45.55 622.37 46.46 622.37 47.7C622.37 48.9533 622.55 49.87 622.91 50.45C623.27 51.0233 623.82 51.31 624.56 51.31C625.3 51.31 625.85 51.0233 626.21 50.45C626.57 49.87 626.75 48.9467 626.75 47.68C626.75 46.4467 626.57 45.5433 626.21 44.97C625.85 44.39 625.303 44.1 624.57 44.1ZM631.942 53V51.17H633.432V44.23H631.942V42.41H635.442L635.932 44.84C636.319 43.94 636.805 43.2633 637.392 42.81C637.979 42.35 638.715 42.12 639.602 42.12C639.942 42.12 640.242 42.1467 640.502 42.2C640.769 42.2533 641.022 42.3233 641.262 42.41L640.472 44.63C640.265 44.5767 640.069 44.5367 639.882 44.51C639.695 44.4767 639.485 44.46 639.252 44.46C638.519 44.46 637.879 44.7467 637.332 45.32C636.792 45.8867 636.372 46.6567 636.072 47.63V51.17H638.182V53H631.942ZM639.032 46.54V43.73L639.392 42.41H641.262L640.792 46.54H639.032ZM651.044 42.11C651.497 42.11 651.884 42.2067 652.204 42.4C652.524 42.5867 652.771 42.9033 652.944 43.35C653.117 43.79 653.204 44.39 653.204 45.15V53H650.904V45.48C650.904 45 650.864 44.66 650.784 44.46C650.711 44.26 650.541 44.16 650.274 44.16C650.054 44.16 649.831 44.2267 649.604 44.36C649.384 44.4867 649.154 44.7167 648.914 45.05V53H646.924V45.48C646.924 45 646.884 44.66 646.804 44.46C646.731 44.26 646.561 44.16 646.294 44.16C646.067 44.16 645.844 44.2267 645.624 44.36C645.404 44.4867 645.174 44.7167 644.934 45.05V53H642.604V42.41H644.574L644.744 43.51C645.057 43.07 645.387 42.7267 645.734 42.48C646.081 42.2333 646.497 42.11 646.984 42.11C647.384 42.11 647.737 42.21 648.044 42.41C648.357 42.6033 648.581 42.9367 648.714 43.41C649.021 43.0233 649.364 42.71 649.744 42.47C650.124 42.23 650.557 42.11 651.044 42.11ZM657.436 48.51C657.49 49.17 657.64 49.7067 657.886 50.12C658.14 50.5333 658.463 50.8367 658.856 51.03C659.25 51.2233 659.686 51.32 660.166 51.32C660.673 51.32 661.15 51.24 661.596 51.08C662.043 50.92 662.483 50.6967 662.916 50.41L664.016 51.92C663.523 52.3333 662.933 52.6667 662.246 52.92C661.566 53.1733 660.816 53.3 659.996 53.3C658.85 53.3 657.883 53.0633 657.096 52.59C656.316 52.1167 655.726 51.46 655.326 50.62C654.926 49.78 654.726 48.8133 654.726 47.72C654.726 46.6667 654.923 45.7167 655.316 44.87C655.71 44.0233 656.276 43.3533 657.016 42.86C657.756 42.36 658.65 42.11 659.696 42.11C660.67 42.11 661.51 42.3233 662.216 42.75C662.923 43.1767 663.47 43.79 663.856 44.59C664.243 45.3833 664.436 46.34 664.436 47.46C664.436 47.64 664.43 47.8233 664.416 48.01C664.41 48.1967 664.4 48.3633 664.386 48.51H657.436ZM659.706 43.97C659.066 43.97 658.54 44.2 658.126 44.66C657.72 45.1133 657.48 45.8333 657.406 46.82H661.866C661.853 45.9267 661.666 45.23 661.306 44.73C660.953 44.2233 660.42 43.97 659.706 43.97ZM669.178 51.23C669.178 50.8567 669.268 50.5133 669.448 50.2C669.635 49.8867 669.885 49.6367 670.198 49.45C670.512 49.2633 670.858 49.17 671.238 49.17C671.625 49.17 671.975 49.2633 672.288 49.45C672.602 49.6367 672.848 49.8867 673.028 50.2C673.215 50.5133 673.308 50.8567 673.308 51.23C673.308 51.6033 673.215 51.95 673.028 52.27C672.848 52.5833 672.602 52.8333 672.288 53.02C671.975 53.2067 671.625 53.3 671.238 53.3C670.858 53.3 670.512 53.2067 670.198 53.02C669.885 52.8333 669.635 52.5833 669.448 52.27C669.268 51.95 669.178 51.6033 669.178 51.23Z" fill="#FBFFFD"/>
</svg>
