<svg width="775" height="140" viewBox="0 0 775 140" fill="none" xmlns="http://www.w3.org/2000/svg">
<path d="M21.5093 3H752.569C762.514 3 771.078 12.0156 771.078 23.7876V116.212C771.078 127.984 762.514 137 752.569 137H21.5093C11.5639 137 3 127.984 3 116.212V23.7876C3 12.0156 11.5639 3 21.5093 3Z" fill="#2B3C12" fill-opacity="0.76" stroke="#57EB23" stroke-width="6"/>
<path d="M85.0474 1V135M183.94 1V135M283.311 1V135M382.203 1V135M481.574 1V135M580.467 1V135M675.538 1V135" stroke="#57EB23" stroke-width="0.2"/>
<path d="M773.989 35.7852L0.0615717 35.9179M773.995 72.3935L0.0673115 72.5262M774 107.587L0.0728295 107.72" stroke="#57EB23" stroke-width="0.2"/>
<path d="M26.7161 43.7885L29.6065 53.7039C29.6065 53.7039 28.2725 49.557 25.6362 54.3158C23 59.0747 32.4968 71.4689 32.4968 71.4689L35.8 83.0369L40.7549 88.4077L36.7529 90.337L36.2129 94.1917L23 97.91C45.7097 122.698 63.8774 123.525 87 99.3423L72.7707 95.9117L69.6581 90.337L67.4347 92.4811L68.8323 87.1683L74.2 80.9712L77.0903 71.8821C77.0903 71.8821 87.8258 61.1404 84.332 53.4579C83.5201 51.6726 80.3936 54.117 80.3936 54.117L83.4427 42.7376C83.4427 35.8763 79.2265 30.3752 76.328 27.2998C60.5655 10.5756 36.7529 24.2981 36.7529 24.2981C36.7529 24.2981 28.9395 28.7796 26.7161 43.7885Z" stroke="#57EB23" stroke-width="3"/>
<g style="mix-blend-mode:luminosity">
<path d="M45.4686 99.1775L42.374 85.5612L68.3687 84.6328L65.8931 99.1775H45.4686Z" fill="#E7D5BF" stroke="black"/>
<path d="M26.5918 99.1773L38.9702 95.1543L55.3717 102.581L71.1542 96.0827L86.0083 99.1773C76.7245 111.246 52.5865 131.671 26.5918 99.1773Z" fill="#124D1E" stroke="black" stroke-width="0.6"/>
<path d="M52.14 102.835L51.1184 98.749H55.4294H59.7783L59.0124 102.834L55.4368 104.209L52.14 102.835Z" fill="#18341F" stroke="black"/>
<path d="M42.993 89.8936H39.8984L43.9214 92.6787L42.993 89.8936Z" fill="#091B0D" stroke="black" stroke-width="0.6"/>
<path d="M53.2052 99.487L43.3025 92.3694L39.5889 90.2031L38.3511 94.5356L53.2052 104.748V99.487Z" fill="#02310C" stroke="black"/>
<path d="M67.4401 90.5122H70.5347L66.5117 93.2974L67.4401 90.5122Z" fill="#091B0D" stroke="black" stroke-width="0.6"/>
<path d="M57.2284 99.796L67.1311 92.6784L70.8447 90.5122L72.0825 94.8447L57.2284 105.057V99.796Z" fill="#02310C" stroke="black"/>
<path d="M36.7913 80.6578L30.406 53.3932C30.319 53.0197 30.2789 52.6365 30.2872 52.2534C30.58 38.3805 43.1987 27.6407 56.9361 28.6224C69.8987 29.5495 80.382 40.6656 79.7577 53.73C79.7397 54.0913 79.6803 54.4499 79.5781 54.7989C77.2812 62.6509 74.9856 70.503 72.6887 78.355C72.5008 78.9985 72.1707 79.5984 71.7232 80.1138L62.8628 90.3068C61.9084 91.4044 60.4858 92.0411 58.9858 92.0411H52.1571C51.0466 92.0411 49.9679 91.6921 49.0895 91.0499L38.6297 83.4011C37.6973 82.7193 37.0468 81.7486 36.7927 80.6592L36.7913 80.6578Z" fill="#FFE8D4"/>
<path d="M50.4206 48.1538C46.085 48.1102 41.7494 48.0666 37.4138 48.0229L34.168 50.5535L51.3833 49.9958L50.4206 48.1538Z" fill="#460000"/>
<path d="M60.2483 48.1538C64.5839 48.1102 68.9195 48.0666 73.2551 48.0229L76.5009 50.5535L59.2856 49.9958L60.2483 48.1538Z" fill="#460000"/>
<path opacity="0.82" d="M50.7431 56.9041C51.0166 56.6996 51.3936 56.3464 51.3853 55.9169C51.3757 55.4425 50.9019 55.133 50.3356 54.6939C49.7928 54.274 49.0691 53.6618 48.2611 52.811H41.1065L35.3979 55.9169C37.275 56.8509 39.1534 57.7862 41.0305 58.7202C42.3564 58.3057 43.8564 57.9089 45.5166 57.5858C47.4254 57.2136 49.1851 57.0091 50.7431 56.9041Z" fill="white"/>
<path d="M41.1641 52.8096C40.8409 54.9543 42.6019 56.7554 44.4748 56.7581C46.3491 56.7594 48.1156 54.957 47.7924 52.8096H41.1641Z" fill="#42210B"/>
<path opacity="0.82" d="M59.6507 57.1018C59.38 56.9123 59.0001 56.5824 58.9808 56.1515C58.9587 55.677 59.3841 55.3416 59.891 54.8712C60.3744 54.4227 61.0181 53.7709 61.7239 52.8765C63.9738 52.7429 66.2238 52.6107 68.4724 52.4771L74.0608 55.2585C72.3508 56.296 70.6409 57.3336 68.931 58.3698C67.6506 58.0031 66.1644 57.6622 64.4987 57.425C62.6962 57.1686 61.0609 57.0896 59.6479 57.0991L59.6507 57.1018Z" fill="white"/>
<path d="M68.9794 52.4486C69.4421 54.5701 67.8026 56.4721 65.9352 56.5839C64.0651 56.6971 62.1825 55.001 62.3648 52.8386C64.5692 52.7077 66.775 52.5782 68.9794 52.4473V52.4486Z" fill="#42210B"/>
<path opacity="0.35" d="M34.0044 68.7704L49.0457 91.0203L38.3345 83.186C37.5914 82.642 37.072 81.8689 36.869 80.999L34.0044 68.769V68.7704Z" fill="#C59B6D"/>
<path opacity="0.35" d="M76.3699 65.7568L62.457 90.769L72.3989 79.3312L76.3699 65.7568Z" fill="#C59B6D"/>
<path d="M36.7417 82.2556L30.3888 54.876C30.3022 54.5008 30.2623 54.1161 30.2706 53.7313C30.5619 39.7998 43.1166 29.0147 56.7843 30.0006C69.6811 30.9316 80.1112 42.0946 79.4901 55.2142C79.4722 55.577 79.4132 55.9371 79.3115 56.2876C77.0262 64.1727 74.7423 72.0579 72.457 79.9431C72.2701 80.5893 71.9417 81.1918 71.4964 81.7093L62.681 91.9454C61.7314 93.0476 60.316 93.687 58.8236 93.687H52.0296C50.9247 93.687 49.8515 93.3364 48.9775 92.6916L38.5707 85.0104C37.6431 84.3258 36.9959 83.351 36.743 82.257L36.7417 82.2556Z" fill="#FFE8D4"/>
<path d="M58.7952 93.687H52.0501C50.9205 93.687 49.8059 93.322 48.9109 92.6615L38.5791 85.0201C37.6268 84.316 36.9597 83.3082 36.6991 82.1833L30.392 54.9501C30.3033 54.5647 30.2624 54.167 30.2706 53.7707C30.4097 47.1016 33.463 40.6818 38.6487 36.1591C43.6761 31.7752 50.2834 29.5295 56.7842 29.9993C69.9182 30.9486 80.104 42.2793 79.4901 55.2565C79.4724 55.631 79.411 56.0028 79.3073 56.3623L72.5022 79.8899C72.3085 80.5599 71.9756 81.1728 71.5145 81.7094L62.7612 91.892C61.7816 93.0319 60.3355 93.687 58.7952 93.687ZM55.0788 30.2799C49.2301 30.2799 43.4101 32.467 38.8874 36.4124C33.7741 40.8725 30.7631 47.2011 30.6253 53.7775C30.6171 54.1466 30.6553 54.517 30.7385 54.8765L37.0456 82.1084C37.2885 83.1557 37.9092 84.094 38.796 84.749L49.1278 92.3905C49.96 93.006 50.9982 93.3451 52.0501 93.3451H58.7952C60.229 93.3451 61.5742 92.7364 62.4869 91.6755L71.2402 81.4942C71.67 80.9944 71.9797 80.4238 72.1598 79.8L78.9649 56.2711C79.0617 55.9374 79.119 55.5901 79.1354 55.2415C79.7398 42.4468 69.7013 31.2768 56.7583 30.3412C56.2003 30.3003 55.6396 30.2812 55.0816 30.2812L55.0788 30.2799Z" fill="black"/>
<path d="M50.3307 48.1197C45.9951 48.076 41.6595 48.0324 37.3239 47.9888L34.0781 50.5193L51.2934 49.9617L50.3307 48.1197Z" fill="#460000"/>
<path d="M33.5532 50.707L37.2604 47.8179L50.4439 47.9501L51.5807 50.1234L33.5546 50.707H33.5532ZM37.3874 48.1601L34.6029 50.3307L51.0075 49.8003L50.2174 48.2896L37.3861 48.1601H37.3874Z" fill="black"/>
<path d="M60.1575 48.1197C64.4931 48.076 68.8287 48.0324 73.1643 47.9888L76.4101 50.5193L59.1948 49.9617L60.1575 48.1197Z" fill="#460000"/>
<path d="M76.9352 50.707L58.9092 50.1234L60.0459 47.9501L73.2295 47.8179L76.9366 50.707H76.9352ZM59.481 49.8003L75.8855 50.3307L73.101 48.1601L60.2697 48.2896L59.4796 49.8003H59.481Z" fill="black"/>
<path d="M50.6075 56.8173C51.3782 55.8519 50.852 55.6379 49.9487 55.0871C49.1172 54.5458 48.3479 53.9091 47.6932 53.1837L48.1683 53.3841C45.7899 53.1837 43.4087 52.7515 41.0137 53.1551L41.2126 53.1046C39.4585 54.3617 37.6021 55.4934 35.6864 56.5132L35.6615 55.2384C36.5897 55.7279 37.4944 56.2569 38.3825 56.8118C39.2679 57.3749 40.1449 57.9544 40.9709 58.6252L40.9046 58.7465C38.83 58.2011 36.877 57.4104 34.9502 56.5268L33.7251 55.9515C35.9751 54.6085 38.3632 53.4182 40.8162 52.4488L40.9557 52.3916C41.5717 52.4625 42.1877 52.5252 42.8037 52.5524C44.6974 52.697 46.5565 52.2089 48.4349 52.1611L48.6448 52.3697C49.2981 53.0187 49.9376 53.6732 50.6241 54.2976C51.2346 54.8185 52.0757 55.6938 51.3506 56.4791C51.16 56.6905 50.9307 56.8241 50.6973 56.925L50.6075 56.8173Z" fill="black"/>
<path opacity="0.82" d="M50.6518 56.8713C50.9253 56.6668 51.3023 56.3137 51.294 55.8842C51.2844 55.4097 50.8106 55.1002 50.2443 54.6612C49.7015 54.2413 48.9778 53.6291 48.1698 52.7783H41.0151L35.3066 55.8842C37.1837 56.8182 39.0621 57.7535 40.9392 58.6874C42.2651 58.273 43.7651 57.8762 45.4253 57.5531C47.3341 57.1808 49.0938 56.9763 50.6518 56.8713Z" fill="white"/>
<path d="M41.0737 52.7764C40.7505 54.921 42.5115 56.7221 44.3845 56.7249C46.2587 56.7262 48.0253 54.9238 47.7021 52.7764H41.0737Z" fill="#42210B"/>
<path d="M44.3861 56.8957H44.3834C43.4345 56.8957 42.4953 56.4635 41.8102 55.7122C41.0685 54.8996 40.7342 53.8198 40.8958 52.7522L40.9179 52.605H47.8585L47.8806 52.7522C48.0422 53.8212 47.7065 54.901 46.9621 55.7136C46.2742 56.4649 45.3364 56.8957 44.3861 56.8957ZM41.2329 52.9472C41.1362 53.8675 41.4414 54.7865 42.0823 55.4873C42.6997 56.1635 43.5381 56.5521 44.3834 56.5535H44.3861C45.2314 56.5535 46.0712 56.1663 46.69 55.49C47.3322 54.7892 47.6375 53.8689 47.5422 52.9472H41.2342H41.2329Z" fill="black"/>
<path d="M59.5546 57.1232C58.0022 56.5205 58.487 55.3834 59.4552 54.4972C60.0988 53.8332 60.6941 53.1433 61.3046 52.4561L61.5007 52.2353C62.7839 52.1725 64.0767 52.373 65.3612 52.3866C66.5794 52.3961 67.7838 52.2393 68.9813 52.0239C71.1084 52.7179 73.1829 53.5605 75.1871 54.5231L76.4301 55.1489C75.1429 55.8593 73.7658 56.5996 72.4205 57.1954C71.455 57.6249 70.4799 58.038 69.4482 58.3639L69.3736 58.2466C70.9371 56.8423 72.6595 55.6629 74.4509 54.5531L74.5089 55.8265C72.531 54.9212 70.6028 53.9014 68.77 52.7506L68.9716 52.7888C66.5545 52.5284 64.2065 53.0983 61.846 53.4392L62.3074 53.2101C61.7024 53.9736 60.9759 54.654 60.1817 55.243C59.3198 55.8429 58.8019 56.0924 59.6375 57.0086L59.556 57.1204L59.5546 57.1232Z" fill="black"/>
<path opacity="0.82" d="M59.5594 57.0691C59.2887 56.8796 58.9088 56.5496 58.8895 56.1188C58.8674 55.6443 59.2928 55.3089 59.7997 54.8385C60.2831 54.39 60.9268 53.7382 61.6326 52.8438C63.8825 52.7102 66.1325 52.578 68.3811 52.4443L73.9695 55.2257C72.2595 56.2633 70.5496 57.3009 68.8397 58.3371C67.5593 57.9703 66.0731 57.6295 64.4074 57.3922C62.6049 57.1359 60.9696 57.0568 59.5566 57.0664L59.5594 57.0691Z" fill="white"/>
<path d="M68.8866 52.4159C69.3493 54.5374 67.7098 56.4394 65.8424 56.5512C63.9723 56.6644 62.0897 54.9683 62.272 52.8059C64.4764 52.675 66.6822 52.5454 68.8866 52.4146V52.4159Z" fill="#42210B"/>
<path d="M65.664 56.728C64.7773 56.728 63.8892 56.3585 63.2027 55.6958C62.4058 54.9282 62.0011 53.8702 62.0922 52.7931L62.1047 52.6458L69.0314 52.2368L69.0632 52.3813C69.2938 53.4366 69.0314 54.5342 68.3436 55.3891C67.7082 56.1799 66.8008 56.6652 65.8533 56.7225C65.7897 56.7266 65.7262 56.728 65.664 56.728ZM62.4431 52.9676C62.4072 53.8934 62.7732 54.7933 63.461 55.4559C64.124 56.0953 64.99 56.4321 65.8325 56.3817C66.6764 56.3312 67.4872 55.8935 68.059 55.1818C68.6516 54.4442 68.896 53.5089 68.74 52.5954L62.4431 52.9676Z" fill="black"/>
<path d="M53.3514 54.392C53.8059 55.9722 53.8501 57.6247 53.6774 59.2444C53.6263 61.9386 53.2617 64.7309 51.9716 67.1633L51.9385 67.151C52.7161 64.0206 53.8197 60.8683 53.4827 57.6247L53.3169 54.3961L53.3528 54.3906L53.3514 54.392Z" fill="black"/>
<path d="M54.2747 72.5535C53.6504 72.5535 53.1144 72.2113 52.9225 72.0885C51.9584 71.4709 51.5205 70.631 51.5026 70.5956C50.9625 69.6834 50.2982 69.1558 49.765 68.7318C49.1849 68.2709 48.7264 67.9055 48.8065 67.292C48.87 66.8066 49.2678 66.3553 49.9874 65.9545L50.1697 66.249C49.5523 66.5939 49.2126 66.9593 49.1642 67.3342C49.1103 67.7433 49.4128 68.0051 49.9971 68.4686C50.5523 68.9104 51.2443 69.4598 51.823 70.4361C51.8313 70.4524 52.2443 71.2391 53.1241 71.8036C53.3327 71.9372 53.8879 72.2944 54.4832 72.1935C55.1061 72.0885 55.9003 71.2105 56.4818 70.5697C56.7346 70.2902 56.9542 70.0488 57.142 69.8811C57.8478 69.2499 58.4652 68.9145 58.9624 68.6431C59.7207 68.2314 60.0343 68.0596 59.8616 67.2906C59.7511 66.7943 59.1517 66.3526 58.0812 65.9776L58.2056 65.6572C59.4169 66.0813 60.0729 66.5925 60.2138 67.2197C60.4403 68.2341 59.9238 68.515 59.142 68.9404C58.6627 69.2008 58.0647 69.5267 57.3906 70.1293C57.2166 70.2847 56.9929 70.5315 56.7567 70.7919C56.1061 71.5091 55.2967 72.4035 54.5481 72.5289C54.457 72.5439 54.3658 72.5507 54.2774 72.5507L54.2747 72.5535Z" fill="black"/>
<path opacity="0.35" d="M33.9175 70.1693L48.9588 92.4192L38.2475 84.5849C37.5045 84.0409 36.9851 83.2678 36.7821 82.398L33.9175 70.168V70.1693Z" fill="#C59B6D"/>
<path opacity="0.35" d="M75.7962 67.6924L61.8848 92.7046L71.8266 81.2667L75.7962 67.6924Z" fill="#C59B6D"/>
<path d="M55.0102 57.9497C55.2049 59.1182 55.2422 60.2689 55.3279 61.4387C55.6966 63.3571 56.5046 65.1432 57.0557 67.0275L57.0226 67.0411C55.8707 65.3722 55.4826 63.398 55.2118 61.4551C54.9453 60.3371 54.7008 59.0323 55.0102 57.9497Z" fill="black"/>
<path d="M30.8586 55.3775C29.3296 53.0283 26.7329 53.5028 26.5589 53.7591C26.3918 54.0059 26.3089 54.2936 26.2992 54.5867C26.2357 56.4914 26.3766 58.9279 27.1128 61.6493C28.6749 67.418 32.6804 69.9594 34.6141 71.8532C33.661 66.3259 32.0022 60.7058 30.8586 55.3789V55.3775Z" fill="#FFE5D1"/>
<path d="M30.7663 55.3433C29.2373 52.9941 26.6407 53.4686 26.4666 53.7249C26.2995 53.9717 26.2166 54.2594 26.207 54.5525C26.1434 56.4572 26.2843 58.8937 27.0205 61.6151C28.5826 67.3838 32.5881 69.9252 34.5218 71.8191C33.5688 66.2917 31.9099 60.6716 30.7663 55.3447V55.3433Z" fill="#FFE5D1"/>
<path d="M34.7927 72.3296L34.3922 71.9383C34.051 71.6042 33.6366 71.2415 33.196 70.8584C31.0635 68.9973 28.1436 66.4504 26.8467 61.658C26.2224 59.3497 25.9461 56.9582 26.0276 54.5476C26.0387 54.2109 26.1381 53.8946 26.3163 53.6328C26.453 53.431 27.0152 53.3287 27.5165 53.3342C28.1685 53.3396 29.8038 53.5387 30.9212 55.2525L30.9447 55.3084C31.395 57.404 31.935 59.5924 32.4599 61.7098C33.2775 65.0161 34.1228 68.4329 34.7016 71.791L34.7941 72.3296H34.7927ZM27.4806 53.6764C27.0041 53.6764 26.6712 53.7746 26.6077 53.8291C26.4751 54.0268 26.395 54.2831 26.3867 54.5586C26.3066 56.9364 26.5787 59.2965 27.1947 61.5734C28.4654 66.2664 31.3397 68.7751 33.4391 70.6062C33.7237 70.8543 33.9985 71.0943 34.2513 71.3247C33.6781 68.1465 32.8797 64.9179 32.1063 61.7888C31.5842 59.6796 31.0455 57.4995 30.5952 55.408C29.79 54.1891 28.721 53.8114 27.9641 53.7091C27.7914 53.686 27.6284 53.6764 27.4806 53.6764Z" fill="black"/>
<path d="M32.4389 68.0483C29.1406 65.0078 28.095 62.5005 27.4555 60.2454C26.979 58.5629 26.4293 55.1434 27.3174 54.8652C27.8657 54.6962 28.6447 55.6588 29.8878 57.5035C30.3629 58.2084 30.693 58.8219 30.9126 59.2269C31.3215 59.9849 31.693 60.773 32.0176 61.5692L31.682 61.692C31.3615 60.9066 30.9955 60.1295 30.5922 59.3823C30.3767 58.9814 30.0494 58.3774 29.5839 57.6862C29.1475 57.0386 27.827 55.0698 27.4293 55.1884C27.0715 55.3002 27.0978 57.6685 27.8022 60.1554C28.4279 62.3641 29.4527 64.8197 32.6875 67.8029L32.4361 68.0483H32.4389Z" fill="black"/>
<path d="M28.0222 59.1233C27.8385 58.4498 27.8109 57.768 27.9407 57.1C28.0278 56.65 28.1714 56.0651 28.3164 55.772L28.6438 55.9151C28.5139 56.1796 28.3758 56.7523 28.2957 57.1613C28.1755 57.7803 28.2018 58.4116 28.3717 59.0374L28.0222 59.1233Z" fill="black"/>
<path d="M32.4751 64.7623C32.4571 64.7528 30.7099 63.6429 30.6188 61.8623C30.5801 61.0961 30.8688 60.6693 31.0607 60.3884L31.1201 60.2998L31.4268 60.4798L31.3632 60.5739C31.1864 60.8343 30.9447 61.1901 30.9779 61.8459C31.0594 63.4357 32.6353 64.4569 32.6519 64.4651L32.4737 64.7623H32.4751Z" fill="black"/>
<path opacity="0.35" d="M32.5378 68.1464C30.6055 66.4012 29.5116 64.6464 28.9135 63.4971C28.7118 63.1112 28.0668 61.8309 27.6055 60.0271C27.1898 58.3992 26.6994 55.4651 27.3486 55.2469C27.995 55.0301 29.5544 57.5757 30.1207 58.5001C30.6428 59.3522 30.8638 59.8757 31.0999 60.3911C30.9936 60.5288 30.8886 60.6665 30.7823 60.8042C30.6704 61.1219 30.3776 62.042 30.7823 62.3995C30.9853 63.8938 32.3168 64.7037 32.5364 64.8332V68.1464H32.5378Z" fill="#C59B6D"/>
<path d="M78.4827 56.0396C80.0117 53.6904 82.6084 54.1649 82.7824 54.4212C82.9495 54.668 83.0324 54.9557 83.0421 55.2488C83.1056 57.1535 82.9647 59.59 82.2285 62.3114C80.6664 68.0801 76.6609 70.6215 74.7272 72.5153C75.6803 66.988 77.3391 61.3679 78.4827 56.041V56.0396Z" fill="#FFE5D1"/>
<path d="M78.575 56.0059C80.104 53.6567 82.7007 54.1312 82.8747 54.3875C83.0418 54.6343 83.1247 54.922 83.1344 55.2151C83.1979 57.1198 83.057 59.5563 82.3208 62.2777C80.7587 68.0464 76.7532 70.5878 74.8195 72.4816C75.7726 66.9543 77.4314 61.3342 78.575 56.0073V56.0059Z" fill="#FFE5D1"/>
<path d="M74.5491 72.9917L74.9496 72.6004C75.2908 72.2663 75.7052 71.9036 76.1458 71.5205C78.2783 69.6594 81.1982 67.1125 82.4951 62.3201C83.1194 60.0118 83.3957 57.6203 83.3142 55.2098C83.3031 54.873 83.2037 54.5567 83.0255 54.2949C82.8888 54.0931 82.3266 53.9908 81.8253 53.9963C81.1733 54.0018 79.538 54.2008 78.4206 55.9147L78.3971 55.9706C77.9468 58.0662 77.4068 60.2545 76.8819 62.3719C76.0643 65.6782 75.219 69.095 74.6402 72.4531L74.5477 72.9917H74.5491ZM81.8612 54.3385C82.3377 54.3385 82.6705 54.4367 82.7341 54.4912C82.8667 54.6889 82.9468 54.9453 82.9551 55.2207C83.0352 57.5985 82.7631 59.9586 82.1471 62.2355C80.8764 66.9285 78.0021 69.4372 75.9027 71.2683C75.6181 71.5164 75.3433 71.7564 75.0905 71.9868C75.6637 68.8087 76.462 65.58 77.2355 62.451C77.7576 60.3417 78.2963 58.1616 78.7466 56.0701C79.5518 54.8512 80.6208 54.4735 81.3777 54.3712C81.5504 54.3481 81.7134 54.3385 81.8612 54.3385Z" fill="black"/>
<path d="M76.9024 68.7109C80.2007 65.6704 81.2463 63.1631 81.8858 60.9079C82.3623 59.2255 82.912 55.806 82.0239 55.5278C81.4756 55.3588 80.6966 56.3214 79.4535 58.1661C78.9784 58.871 78.6483 59.4845 78.4287 59.8895C78.0198 60.6475 77.6483 61.4356 77.3237 62.2318L77.6593 62.3546C77.9798 61.5692 78.3458 60.7921 78.7491 60.0449C78.9646 59.644 79.2919 59.04 79.7574 58.3488C80.1938 57.7012 81.5143 55.7324 81.9121 55.851C82.2698 55.9628 82.2435 58.3311 81.5391 60.818C80.9134 63.0267 79.8886 65.4823 76.6538 68.4655L76.9052 68.7109H76.9024Z" fill="black"/>
<path d="M81.3196 59.7854C81.5033 59.1119 81.5309 58.4301 81.4011 57.7621C81.314 57.3121 81.1704 56.7272 81.0254 56.4341L80.698 56.5772C80.8279 56.8417 80.966 57.4144 81.0461 57.8234C81.1663 58.4424 81.14 59.0737 80.9701 59.6995L81.3196 59.7854Z" fill="black"/>
<path d="M76.8667 65.4249C76.8847 65.4154 78.6319 64.3055 78.723 62.5249C78.7617 61.7586 78.473 61.3319 78.2811 61.051L78.2217 60.9624L77.915 61.1424L77.9786 61.2365C78.1554 61.4969 78.3971 61.8527 78.3639 62.5085C78.2824 64.0983 76.7065 65.1195 76.6899 65.1277L76.8681 65.4249H76.8667Z" fill="black"/>
<path opacity="0.35" d="M76.804 68.809C78.7363 67.0638 79.8302 65.309 80.4283 64.1597C80.6299 63.7738 81.275 62.4935 81.7363 60.6897C82.152 59.0618 82.6424 56.1277 81.9932 55.9095C81.3468 55.6927 79.7874 58.2383 79.2211 59.1627C78.699 60.0148 78.478 60.5383 78.2418 61.0537C78.3482 61.1914 78.4532 61.3291 78.5595 61.4668C78.6714 61.7845 78.9642 62.7046 78.5595 63.0621C78.3565 64.5564 77.025 65.3663 76.8054 65.4958V68.809H76.804Z" fill="#C59B6D"/>
<path d="M62.6592 77.7986L60.023 79.5118C59.7954 79.66 59.5248 79.7397 59.2493 79.7397H50.7949C50.2901 79.7397 49.8018 79.5802 49.4026 79.287L47.3801 77.7986H62.6592Z" fill="white"/>
<path d="M46.685 77.5952H63.2871L60.0785 79.6812C59.8129 79.8538 59.5044 79.9434 59.1828 79.9434H50.7283C50.179 79.9434 49.6379 79.7675 49.204 79.4483L46.685 77.5952ZM61.8981 78.0039H47.942L49.468 79.1259C49.8259 79.3897 50.2746 79.5346 50.7283 79.5346H59.1828C59.417 79.5346 59.643 79.4679 59.836 79.3425L61.8997 78.0023L61.8981 78.0039Z" fill="black"/>
<path opacity="0.35" d="M50.9417 80.0708C51.9153 80.2697 53.0457 80.4909 54.0193 80.6897H55.1591C56.2375 80.4909 57.1592 80.2697 58.2368 80.0708H50.9409H50.9417Z" fill="#C5806D"/>
<path d="M28.7578 44.6175L32.4713 60.4947L34.0187 44.6175L39.5889 38.4283C53.7892 38.4283 60.8549 37.2464 73.3202 37.8093L78.8905 45.5459L79.5094 59.2567L83.223 44.6175C83.223 44.6175 83.0714 39.9782 81.9851 37.285C80.2376 32.9525 77.6527 30.4769 77.6527 30.4769C63.0846 12.2887 37.7322 23.2653 32.4713 32.2389C32.4713 32.2389 30.9127 35.0936 29.9957 38.4283C29.3547 40.7591 28.7578 44.6175 28.7578 44.6175Z" fill="#5F3232" stroke="black" stroke-linecap="round"/>
</g>
</svg>
