<svg width="480" height="738" viewBox="0 0 480 738" fill="none" xmlns="http://www.w3.org/2000/svg">
<rect x="6.8291" y="2.58141" width="465.864" height="728.109" rx="3" fill="#5F3C13" stroke="black" stroke-width="4"/>
<rect x="32.3125" y="28.066" width="418.809" height="681.054" fill="black"/>
<path d="M471.521 0.667313H360.151C358.512 0.667313 357.184 1.996 357.184 3.63503C357.184 4.65405 357.706 5.60182 358.568 6.14535L473.175 78.4121C473.731 78.7631 474.376 78.9494 475.034 78.9494C476.96 78.9494 478.521 77.3884 478.521 75.4629V7.66731C478.521 3.80132 475.387 0.667313 471.521 0.667313Z" fill="url(#paint0_linear_505_1655)" stroke="black"/>
<path d="M7.9996 0.667313H123.301C124.93 0.667313 126.251 1.98808 126.251 3.61732C126.251 4.6452 125.716 5.59897 124.839 6.13479L6.50759 78.4186C5.93925 78.7657 5.28618 78.9494 4.62019 78.9494C2.62061 78.9494 0.999611 77.3284 0.999611 75.3288V7.66731C0.999611 3.80132 4.13361 0.667313 7.9996 0.667313Z" fill="url(#paint1_linear_505_1655)" stroke="black"/>
<path d="M8.00064 736.519H119.37C121.009 736.519 122.338 735.19 122.338 733.551C122.338 732.532 121.815 731.585 120.953 731.041L6.34679 658.774C5.79005 658.423 5.14532 658.237 4.48714 658.237C2.5616 658.237 1.00063 659.798 1.00063 661.724V729.519C1.00063 733.385 4.13464 736.519 8.00064 736.519Z" fill="url(#paint2_linear_505_1655)" stroke="black"/>
<path d="M478.521 729.519V618.15C478.521 616.511 477.193 615.182 475.554 615.182C474.535 615.182 473.587 615.705 473.043 616.567L400.777 731.173C400.426 731.73 400.239 732.374 400.239 733.033C400.239 734.958 401.8 736.519 403.726 736.519H471.521C475.387 736.519 478.521 733.385 478.521 729.519Z" fill="url(#paint3_linear_505_1655)" stroke="black"/>
<path d="M104.178 86.83H99.6277L98.7677 90H95.9377L100.268 76.17H103.628L107.948 90H105.038L104.178 86.83ZM100.118 84.78H103.668L101.898 78.22L100.118 84.78ZM109.22 90V79.41H111.52L111.71 80.72C112.163 80.1867 112.673 79.7867 113.24 79.52C113.807 79.2467 114.417 79.11 115.07 79.11C116.023 79.11 116.75 79.3867 117.25 79.94C117.75 80.4867 118 81.2567 118 82.25V90H115.36V83.28C115.36 82.7467 115.327 82.32 115.26 82C115.193 81.6733 115.067 81.44 114.88 81.3C114.693 81.1533 114.423 81.08 114.07 81.08C113.783 81.08 113.507 81.1433 113.24 81.27C112.98 81.3967 112.733 81.5667 112.5 81.78C112.273 81.9933 112.06 82.23 111.86 82.49V90H109.22ZM129.342 87.21C129.342 87.6167 129.402 87.9133 129.522 88.1C129.642 88.28 129.835 88.4167 130.102 88.51L129.532 90.28C128.965 90.22 128.482 90.08 128.082 89.86C127.689 89.6333 127.385 89.2967 127.172 88.85C126.772 89.3367 126.265 89.7 125.652 89.94C125.045 90.18 124.409 90.3 123.742 90.3C122.662 90.3 121.805 89.9933 121.172 89.38C120.539 88.7667 120.222 87.97 120.222 86.99C120.222 85.8633 120.662 84.9967 121.542 84.39C122.429 83.7767 123.682 83.47 125.302 83.47H126.782V82.9C126.782 82.2733 126.589 81.82 126.202 81.54C125.815 81.2533 125.259 81.11 124.532 81.11C124.192 81.11 123.765 81.1567 123.252 81.25C122.745 81.3367 122.222 81.4733 121.682 81.66L121.052 79.85C121.725 79.5967 122.402 79.41 123.082 79.29C123.769 79.17 124.392 79.11 124.952 79.11C126.439 79.11 127.542 79.4267 128.262 80.06C128.982 80.6867 129.342 81.5767 129.342 82.73V87.21ZM124.602 88.39C125.002 88.39 125.405 88.2767 125.812 88.05C126.225 87.8233 126.549 87.5067 126.782 87.1V85.04H125.742C124.762 85.04 124.052 85.1967 123.612 85.51C123.179 85.8233 122.962 86.2667 122.962 86.84C122.962 87.3333 123.102 87.7167 123.382 87.99C123.662 88.2567 124.069 88.39 124.602 88.39ZM126.702 73.57L127.772 75.62L123.242 77.43L122.502 76.07L126.702 73.57ZM137.604 75.18V86.92C137.604 87.38 137.738 87.7067 138.004 87.9C138.278 88.0933 138.644 88.19 139.104 88.19C139.391 88.19 139.668 88.16 139.934 88.1C140.201 88.0333 140.454 87.9533 140.694 87.86L141.344 89.66C141.011 89.8267 140.604 89.9733 140.124 90.1C139.651 90.2333 139.101 90.3 138.474 90.3C137.321 90.3 136.448 89.97 135.854 89.31C135.261 88.65 134.964 87.76 134.964 86.64V77.05H131.794V75.18H137.604ZM150.326 79.41V88.13H153.116V90H144.586V88.13H147.686V81.28H144.686V79.41H150.326ZM148.616 74.07C149.103 74.07 149.496 74.22 149.796 74.52C150.103 74.82 150.256 75.1933 150.256 75.64C150.256 76.0867 150.103 76.4633 149.796 76.77C149.496 77.07 149.103 77.22 148.616 77.22C148.13 77.22 147.733 77.07 147.426 76.77C147.12 76.4633 146.966 76.0867 146.966 75.64C146.966 75.1933 147.12 74.82 147.426 74.52C147.733 74.22 148.13 74.07 148.616 74.07ZM159.939 88.35C160.559 88.35 161.055 88.2433 161.429 88.03C161.809 87.81 161.999 87.5033 161.999 87.11C161.999 86.85 161.935 86.63 161.809 86.45C161.689 86.27 161.449 86.1033 161.089 85.95C160.729 85.79 160.189 85.6133 159.469 85.42C158.789 85.2467 158.192 85.0333 157.679 84.78C157.172 84.52 156.775 84.1867 156.489 83.78C156.209 83.3733 156.069 82.86 156.069 82.24C156.069 81.62 156.242 81.0767 156.589 80.61C156.935 80.1367 157.435 79.77 158.089 79.51C158.749 79.2433 159.542 79.11 160.469 79.11C161.375 79.11 162.169 79.23 162.849 79.47C163.529 79.7033 164.112 79.9967 164.599 80.35L163.519 81.96C163.092 81.6867 162.629 81.4667 162.129 81.3C161.635 81.1267 161.102 81.04 160.529 81.04C159.909 81.04 159.455 81.13 159.169 81.31C158.889 81.49 158.749 81.74 158.749 82.06C158.749 82.2867 158.819 82.48 158.959 82.64C159.105 82.7933 159.365 82.9433 159.739 83.09C160.119 83.23 160.659 83.4 161.359 83.6C162.045 83.7867 162.642 84.0067 163.149 84.26C163.662 84.5133 164.059 84.85 164.339 85.27C164.619 85.69 164.759 86.24 164.759 86.92C164.759 87.6867 164.535 88.32 164.089 88.82C163.642 89.32 163.052 89.6933 162.319 89.94C161.592 90.18 160.802 90.3 159.949 90.3C158.949 90.3 158.075 90.1567 157.329 89.87C156.582 89.5833 155.949 89.2133 155.429 88.76L156.799 87.22C157.212 87.5467 157.682 87.8167 158.209 88.03C158.742 88.2433 159.319 88.35 159.939 88.35ZM169.831 85.51C169.884 86.17 170.034 86.7067 170.281 87.12C170.534 87.5333 170.857 87.8367 171.251 88.03C171.644 88.2233 172.081 88.32 172.561 88.32C173.067 88.32 173.544 88.24 173.991 88.08C174.437 87.92 174.877 87.6967 175.311 87.41L176.411 88.92C175.917 89.3333 175.327 89.6667 174.641 89.92C173.961 90.1733 173.211 90.3 172.391 90.3C171.244 90.3 170.277 90.0633 169.491 89.59C168.711 89.1167 168.121 88.46 167.721 87.62C167.321 86.78 167.121 85.8133 167.121 84.72C167.121 83.6667 167.317 82.7167 167.711 81.87C168.104 81.0233 168.671 80.3533 169.411 79.86C170.151 79.36 171.044 79.11 172.091 79.11C173.064 79.11 173.904 79.3233 174.611 79.75C175.317 80.1767 175.864 80.79 176.251 81.59C176.637 82.3833 176.831 83.34 176.831 84.46C176.831 84.64 176.824 84.8233 176.811 85.01C176.804 85.1967 176.794 85.3633 176.781 85.51H169.831ZM172.101 80.97C171.461 80.97 170.934 81.2 170.521 81.66C170.114 82.1133 169.874 82.8333 169.801 83.82H174.261C174.247 82.9267 174.061 82.23 173.701 81.73C173.347 81.2233 172.814 80.97 172.101 80.97ZM197.065 74.9L199.705 75.18V90H197.365L197.205 88.75C196.878 89.2167 196.468 89.5933 195.975 89.88C195.482 90.16 194.908 90.3 194.255 90.3C193.362 90.3 192.622 90.0667 192.035 89.6C191.455 89.1333 191.022 88.48 190.735 87.64C190.455 86.7933 190.315 85.81 190.315 84.69C190.315 83.61 190.482 82.65 190.815 81.81C191.148 80.97 191.628 80.31 192.255 79.83C192.888 79.35 193.638 79.11 194.505 79.11C195.025 79.11 195.498 79.2 195.925 79.38C196.352 79.56 196.732 79.8267 197.065 80.18V74.9ZM195.215 81.08C194.548 81.08 194.022 81.37 193.635 81.95C193.255 82.5233 193.065 83.44 193.065 84.7C193.065 85.5867 193.145 86.2967 193.305 86.83C193.465 87.3567 193.692 87.7367 193.985 87.97C194.278 88.2033 194.625 88.32 195.025 88.32C195.465 88.32 195.852 88.19 196.185 87.93C196.525 87.6633 196.818 87.3333 197.065 86.94V82.12C196.818 81.7933 196.542 81.54 196.235 81.36C195.935 81.1733 195.595 81.08 195.215 81.08ZM204.847 85.51C204.901 86.17 205.051 86.7067 205.297 87.12C205.551 87.5333 205.874 87.8367 206.267 88.03C206.661 88.2233 207.097 88.32 207.577 88.32C208.084 88.32 208.561 88.24 209.007 88.08C209.454 87.92 209.894 87.6967 210.327 87.41L211.427 88.92C210.934 89.3333 210.344 89.6667 209.657 89.92C208.977 90.1733 208.227 90.3 207.407 90.3C206.261 90.3 205.294 90.0633 204.507 89.59C203.727 89.1167 203.137 88.46 202.737 87.62C202.337 86.78 202.137 85.8133 202.137 84.72C202.137 83.6667 202.334 82.7167 202.727 81.87C203.121 81.0233 203.687 80.3533 204.427 79.86C205.167 79.36 206.061 79.11 207.107 79.11C208.081 79.11 208.921 79.3233 209.627 79.75C210.334 80.1767 210.881 80.79 211.267 81.59C211.654 82.3833 211.847 83.34 211.847 84.46C211.847 84.64 211.841 84.8233 211.827 85.01C211.821 85.1967 211.811 85.3633 211.797 85.51H204.847ZM207.117 80.97C206.477 80.97 205.951 81.2 205.537 81.66C205.131 82.1133 204.891 82.8333 204.817 83.82H209.277C209.264 82.9267 209.077 82.23 208.717 81.73C208.364 81.2233 207.831 80.97 207.117 80.97ZM230.982 75.18V86.92C230.982 87.38 231.115 87.7067 231.382 87.9C231.655 88.0933 232.022 88.19 232.482 88.19C232.768 88.19 233.045 88.16 233.312 88.1C233.578 88.0333 233.832 87.9533 234.072 87.86L234.722 89.66C234.388 89.8267 233.982 89.9733 233.502 90.1C233.028 90.2333 232.478 90.3 231.852 90.3C230.698 90.3 229.825 89.97 229.232 89.31C228.638 88.65 228.342 87.76 228.342 86.64V77.05H225.172V75.18H230.982ZM243.704 79.41V88.13H246.494V90H237.964V88.13H241.064V81.28H238.064V79.41H243.704ZM241.994 74.07C242.481 74.07 242.874 74.22 243.174 74.52C243.481 74.82 243.634 75.1933 243.634 75.64C243.634 76.0867 243.481 76.4633 243.174 76.77C242.874 77.07 242.481 77.22 241.994 77.22C241.507 77.22 241.111 77.07 240.804 76.77C240.497 76.4633 240.344 76.0867 240.344 75.64C240.344 75.1933 240.497 74.82 240.804 74.52C241.111 74.22 241.507 74.07 241.994 74.07ZM249.286 90V79.41H251.586L251.776 80.72C252.229 80.1867 252.739 79.7867 253.306 79.52C253.873 79.2467 254.483 79.11 255.136 79.11C256.089 79.11 256.816 79.3867 257.316 79.94C257.816 80.4867 258.066 81.2567 258.066 82.25V90H255.426V83.28C255.426 82.7467 255.393 82.32 255.326 82C255.259 81.6733 255.133 81.44 254.946 81.3C254.759 81.1533 254.489 81.08 254.136 81.08C253.849 81.08 253.573 81.1433 253.306 81.27C253.046 81.3967 252.799 81.5667 252.566 81.78C252.339 81.9933 252.126 82.23 251.926 82.49V90H249.286ZM263.598 74.93V80.6C264.038 80.1 264.532 79.7267 265.078 79.48C265.632 79.2333 266.208 79.11 266.808 79.11C267.782 79.11 268.512 79.3867 268.998 79.94C269.492 80.4867 269.738 81.2567 269.738 82.25V90H267.098V82.84C267.098 82.2 266.998 81.7467 266.798 81.48C266.605 81.2133 266.272 81.08 265.798 81.08C265.518 81.08 265.245 81.1467 264.978 81.28C264.718 81.4067 264.472 81.58 264.238 81.8C264.012 82.02 263.798 82.2667 263.598 82.54V90H260.958V75.19L263.598 74.93ZM281.08 87.21C281.08 87.6167 281.14 87.9133 281.26 88.1C281.38 88.28 281.574 88.4167 281.84 88.51L281.27 90.28C280.704 90.22 280.22 90.08 279.82 89.86C279.427 89.6333 279.124 89.2967 278.91 88.85C278.51 89.3367 278.004 89.7 277.39 89.94C276.784 90.18 276.147 90.3 275.48 90.3C274.4 90.3 273.544 89.9933 272.91 89.38C272.277 88.7667 271.96 87.97 271.96 86.99C271.96 85.8633 272.4 84.9967 273.28 84.39C274.167 83.7767 275.42 83.47 277.04 83.47H278.52V82.9C278.52 82.2733 278.327 81.82 277.94 81.54C277.554 81.2533 276.997 81.11 276.27 81.11C275.93 81.11 275.504 81.1567 274.99 81.25C274.484 81.3367 273.96 81.4733 273.42 81.66L272.79 79.85C273.464 79.5967 274.14 79.41 274.82 79.29C275.507 79.17 276.13 79.11 276.69 79.11C278.177 79.11 279.28 79.4267 280 80.06C280.72 80.6867 281.08 81.5767 281.08 82.73V87.21ZM276.34 88.39C276.74 88.39 277.144 88.2767 277.55 88.05C277.964 87.8233 278.287 87.5067 278.52 87.1V85.04H277.48C276.5 85.04 275.79 85.1967 275.35 85.51C274.917 85.8233 274.7 86.2667 274.7 86.84C274.7 87.3333 274.84 87.7167 275.12 87.99C275.4 88.2567 275.807 88.39 276.34 88.39ZM305.115 89.41C304.722 89.67 304.245 89.8833 303.685 90.05C303.125 90.2167 302.518 90.3 301.865 90.3C300.572 90.3 299.598 89.9667 298.945 89.3C298.292 88.6267 297.965 87.7333 297.965 86.62V81.28H295.665V79.41H297.965V77.08L300.605 76.76V79.41H304.105L303.835 81.28H300.605V86.61C300.605 87.1567 300.738 87.5567 301.005 87.81C301.272 88.0633 301.702 88.19 302.295 88.19C302.675 88.19 303.022 88.1467 303.335 88.06C303.655 87.9667 303.945 87.85 304.205 87.71L305.115 89.41ZM309.897 85.51C309.95 86.17 310.1 86.7067 310.347 87.12C310.6 87.5333 310.924 87.8367 311.317 88.03C311.71 88.2233 312.147 88.32 312.627 88.32C313.134 88.32 313.61 88.24 314.057 88.08C314.504 87.92 314.944 87.6967 315.377 87.41L316.477 88.92C315.984 89.3333 315.394 89.6667 314.707 89.92C314.027 90.1733 313.277 90.3 312.457 90.3C311.31 90.3 310.344 90.0633 309.557 89.59C308.777 89.1167 308.187 88.46 307.787 87.62C307.387 86.78 307.187 85.8133 307.187 84.72C307.187 83.6667 307.384 82.7167 307.777 81.87C308.17 81.0233 308.737 80.3533 309.477 79.86C310.217 79.36 311.11 79.11 312.157 79.11C313.13 79.11 313.97 79.3233 314.677 79.75C315.384 80.1767 315.93 80.79 316.317 81.59C316.704 82.3833 316.897 83.34 316.897 84.46C316.897 84.64 316.89 84.8233 316.877 85.01C316.87 85.1967 316.86 85.3633 316.847 85.51H309.897ZM312.167 80.97C311.527 80.97 311 81.2 310.587 81.66C310.18 82.1133 309.94 82.8333 309.867 83.82H314.327C314.314 82.9267 314.127 82.23 313.767 81.73C313.414 81.2233 312.88 80.97 312.167 80.97ZM326.849 79.11C327.303 79.11 327.689 79.2067 328.009 79.4C328.329 79.5867 328.576 79.9033 328.749 80.35C328.923 80.79 329.009 81.39 329.009 82.15V90H326.709V82.48C326.709 82 326.669 81.66 326.589 81.46C326.516 81.26 326.346 81.16 326.079 81.16C325.859 81.16 325.636 81.2267 325.409 81.36C325.189 81.4867 324.959 81.7167 324.719 82.05V90H322.729V82.48C322.729 82 322.689 81.66 322.609 81.46C322.536 81.26 322.366 81.16 322.099 81.16C321.873 81.16 321.649 81.2267 321.429 81.36C321.209 81.4867 320.979 81.7167 320.739 82.05V90H318.409V79.41H320.379L320.549 80.51C320.863 80.07 321.193 79.7267 321.539 79.48C321.886 79.2333 322.303 79.11 322.789 79.11C323.189 79.11 323.543 79.21 323.849 79.41C324.163 79.6033 324.386 79.9367 324.519 80.41C324.826 80.0233 325.169 79.71 325.549 79.47C325.929 79.23 326.363 79.11 326.849 79.11ZM336.461 79.11C337.395 79.11 338.141 79.34 338.701 79.8C339.268 80.2533 339.678 80.8967 339.931 81.73C340.191 82.5633 340.321 83.5467 340.321 84.68C340.321 85.7667 340.165 86.7333 339.851 87.58C339.538 88.4267 339.078 89.0933 338.471 89.58C337.871 90.06 337.131 90.3 336.251 90.3C335.171 90.3 334.298 89.9167 333.631 89.15V94.08L330.991 94.36V79.41H333.311L333.451 80.7C333.871 80.1533 334.341 79.7533 334.861 79.5C335.381 79.24 335.915 79.11 336.461 79.11ZM335.691 81.09C335.245 81.09 334.851 81.2233 334.511 81.49C334.178 81.7567 333.885 82.0867 333.631 82.48V87.22C333.871 87.58 334.145 87.85 334.451 88.03C334.758 88.21 335.105 88.3 335.491 88.3C336.165 88.3 336.678 88.02 337.031 87.46C337.391 86.8933 337.571 85.9767 337.571 84.71C337.571 83.8167 337.498 83.1067 337.351 82.58C337.211 82.0467 337.001 81.6667 336.721 81.44C336.441 81.2067 336.098 81.09 335.691 81.09ZM347.064 79.11C348.117 79.11 349.01 79.34 349.744 79.8C350.477 80.26 351.034 80.91 351.414 81.75C351.8 82.5833 351.994 83.56 351.994 84.68C351.994 85.8267 351.8 86.82 351.414 87.66C351.027 88.5 350.467 89.15 349.734 89.61C349 90.07 348.107 90.3 347.054 90.3C346.007 90.3 345.114 90.0767 344.374 89.63C343.64 89.1767 343.08 88.5333 342.694 87.7C342.307 86.86 342.114 85.86 342.114 84.7C342.114 83.5933 342.307 82.62 342.694 81.78C343.08 80.94 343.644 80.2867 344.384 79.82C345.124 79.3467 346.017 79.11 347.064 79.11ZM347.064 81.1C346.324 81.1 345.77 81.39 345.404 81.97C345.044 82.55 344.864 83.46 344.864 84.7C344.864 85.9533 345.044 86.87 345.404 87.45C345.764 88.0233 346.314 88.31 347.054 88.31C347.794 88.31 348.344 88.0233 348.704 87.45C349.064 86.87 349.244 85.9467 349.244 84.68C349.244 83.4467 349.064 82.5433 348.704 81.97C348.344 81.39 347.797 81.1 347.064 81.1ZM354.436 90V88.17H355.926V81.23H354.436V79.41H357.936L358.426 81.84C358.812 80.94 359.299 80.2633 359.886 79.81C360.472 79.35 361.209 79.12 362.096 79.12C362.436 79.12 362.736 79.1467 362.996 79.2C363.262 79.2533 363.516 79.3233 363.756 79.41L362.966 81.63C362.759 81.5767 362.562 81.5367 362.376 81.51C362.189 81.4767 361.979 81.46 361.746 81.46C361.012 81.46 360.372 81.7467 359.826 82.32C359.286 82.8867 358.866 83.6567 358.566 84.63V88.17H360.676V90H354.436ZM361.526 83.54V80.73L361.886 79.41H363.756L363.286 83.54H361.526ZM374.458 87.21C374.458 87.6167 374.518 87.9133 374.638 88.1C374.758 88.28 374.951 88.4167 375.218 88.51L374.648 90.28C374.081 90.22 373.598 90.08 373.198 89.86C372.805 89.6333 372.501 89.2967 372.288 88.85C371.888 89.3367 371.381 89.7 370.768 89.94C370.161 90.18 369.525 90.3 368.858 90.3C367.778 90.3 366.921 89.9933 366.288 89.38C365.655 88.7667 365.338 87.97 365.338 86.99C365.338 85.8633 365.778 84.9967 366.658 84.39C367.545 83.7767 368.798 83.47 370.418 83.47H371.898V82.9C371.898 82.2733 371.705 81.82 371.318 81.54C370.931 81.2533 370.375 81.11 369.648 81.11C369.308 81.11 368.881 81.1567 368.368 81.25C367.861 81.3367 367.338 81.4733 366.798 81.66L366.168 79.85C366.841 79.5967 367.518 79.41 368.198 79.29C368.885 79.17 369.508 79.11 370.068 79.11C371.555 79.11 372.658 79.4267 373.378 80.06C374.098 80.6867 374.458 81.5767 374.458 82.73V87.21ZM369.718 88.39C370.118 88.39 370.521 88.2767 370.928 88.05C371.341 87.8233 371.665 87.5067 371.898 87.1V85.04H370.858C369.878 85.04 369.168 85.1967 368.728 85.51C368.295 85.8233 368.078 86.2667 368.078 86.84C368.078 87.3333 368.218 87.7167 368.498 87.99C368.778 88.2567 369.185 88.39 369.718 88.39ZM382.72 75.18V86.92C382.72 87.38 382.853 87.7067 383.12 87.9C383.393 88.0933 383.76 88.19 384.22 88.19C384.507 88.19 384.783 88.16 385.05 88.1C385.317 88.0333 385.57 87.9533 385.81 87.86L386.46 89.66C386.127 89.8267 385.72 89.9733 385.24 90.1C384.767 90.2333 384.217 90.3 383.59 90.3C382.437 90.3 381.563 89.97 380.97 89.31C380.377 88.65 380.08 87.76 380.08 86.64V77.05H376.91V75.18H382.72Z" fill="#57EB23"/>
<path d="M339.616 176.184L323.296 176.757L323.869 193.076L340.188 192.504L339.616 176.184ZM224.104 300.096L222.641 298.733L221.889 299.54L222.17 300.606L224.104 300.096ZM271.074 478.188L272.499 479.591L273.298 478.779L273.007 477.678L271.074 478.188ZM143.595 607.756L159.924 607.624L159.792 591.294L143.462 591.427L143.595 607.756ZM330.279 183.266L222.641 298.733L225.567 301.46L333.205 185.994L330.279 183.266ZM222.17 300.606L269.14 478.698L273.007 477.678L226.038 299.586L222.17 300.606ZM269.648 476.785L150.268 598.123L153.119 600.928L272.499 479.591L269.648 476.785Z" fill="#57EB23"/>
<path d="M218.233 288.354L192.792 231.599H134.08" stroke="#23DFEB" stroke-width="2"/>
<path d="M274.987 493.844L300.429 550.599H359.141" stroke="#23DFEB" stroke-width="2"/>
<path d="M86.5856 222.17V235.6H83.9956V224.83L81.0456 226.66L79.9156 224.83L84.2556 222.17H86.5856ZM89.2756 233.97V236H80.6456V233.97H89.2756ZM96.0378 221.87C97.1245 221.87 98.0278 222.103 98.7478 222.57C99.4745 223.037 100.018 223.687 100.378 224.52C100.744 225.353 100.928 226.327 100.928 227.44C100.928 228.787 100.768 229.963 100.448 230.97C100.134 231.97 99.6478 232.827 98.9878 233.54C98.3345 234.247 97.4978 234.843 96.4778 235.33C95.4645 235.817 94.2611 236.22 92.8678 236.54L92.3078 234.65C93.5345 234.323 94.5645 233.93 95.3978 233.47C96.2311 233.01 96.8778 232.443 97.3378 231.77C97.7978 231.097 98.0811 230.28 98.1878 229.32L98.1978 228.29C98.2111 227.25 98.1545 226.4 98.0278 225.74C97.9078 225.08 97.6878 224.593 97.3678 224.28C97.0545 223.967 96.6078 223.81 96.0278 223.81C95.3478 223.81 94.8178 224.047 94.4378 224.52C94.0645 224.987 93.8778 225.7 93.8778 226.66C93.8778 227.58 94.0645 228.237 94.4378 228.63C94.8111 229.017 95.2878 229.21 95.8678 229.21C96.4078 229.21 96.8878 229.08 97.3078 228.82C97.7278 228.553 98.1378 228.18 98.5378 227.7L98.5078 229.37C98.0478 229.903 97.5478 230.33 97.0078 230.65C96.4745 230.963 95.8478 231.12 95.1278 231.12C94.3878 231.12 93.7211 230.94 93.1278 230.58C92.5345 230.213 92.0645 229.7 91.7178 229.04C91.3711 228.38 91.1978 227.597 91.1978 226.69C91.1978 225.697 91.4111 224.84 91.8378 224.12C92.2711 223.4 92.8511 222.847 93.5778 222.46C94.3111 222.067 95.1311 221.87 96.0378 221.87ZM106.84 221.87L109.08 222.72L105.66 230.93H112.73V232.94H102.92V231.14L106.84 221.87ZM111.21 227.39V236H108.67L108.64 231.25L108.98 227.39H111.21ZM119.512 221.87C121.106 221.87 122.309 222.5 123.122 223.76C123.936 225.013 124.342 226.78 124.342 229.06C124.342 231.347 123.936 233.127 123.122 234.4C122.309 235.667 121.106 236.3 119.512 236.3C117.912 236.3 116.706 235.667 115.892 234.4C115.086 233.127 114.682 231.347 114.682 229.06C114.682 226.78 115.086 225.013 115.892 223.76C116.706 222.5 117.912 221.87 119.512 221.87ZM119.512 223.83C118.759 223.83 118.189 224.233 117.802 225.04C117.422 225.84 117.232 227.18 117.232 229.06C117.232 230.1 117.269 230.963 117.342 231.65C117.422 232.33 117.552 232.867 117.732 233.26C117.912 233.653 118.146 233.933 118.432 234.1C118.726 234.26 119.086 234.34 119.512 234.34C120.019 234.34 120.439 234.17 120.772 233.83C121.112 233.483 121.366 232.923 121.532 232.15C121.699 231.37 121.782 230.34 121.782 229.06C121.782 227.7 121.709 226.64 121.562 225.88C121.422 225.12 121.186 224.59 120.852 224.29C120.526 223.983 120.079 223.83 119.512 223.83ZM121.242 224.28L121.922 225.92L117.982 234L117.172 232.66L121.242 224.28Z" fill="#57EB23"/>
<path d="M374.966 539.87C375.959 539.87 376.792 540.047 377.466 540.4C378.146 540.753 378.659 541.23 379.006 541.83C379.352 542.423 379.526 543.077 379.526 543.79C379.526 544.377 379.426 544.95 379.226 545.51C379.026 546.07 378.699 546.66 378.246 547.28C377.799 547.9 377.206 548.59 376.466 549.35C375.726 550.103 374.812 550.963 373.726 551.93H379.846L379.556 554H370.706V552.07C371.659 551.15 372.482 550.34 373.176 549.64C373.869 548.933 374.449 548.31 374.916 547.77C375.389 547.23 375.762 546.747 376.036 546.32C376.316 545.887 376.516 545.483 376.636 545.11C376.756 544.737 376.816 544.363 376.816 543.99C376.816 543.357 376.632 542.857 376.266 542.49C375.906 542.123 375.399 541.94 374.746 541.94C374.166 541.94 373.672 542.053 373.266 542.28C372.866 542.5 372.472 542.86 372.086 543.36L370.426 542.1C370.952 541.393 371.579 540.847 372.306 540.46C373.032 540.067 373.919 539.87 374.966 539.87ZM387.168 539.87C388.761 539.87 389.964 540.5 390.778 541.76C391.591 543.013 391.998 544.78 391.998 547.06C391.998 549.347 391.591 551.127 390.778 552.4C389.964 553.667 388.761 554.3 387.168 554.3C385.568 554.3 384.361 553.667 383.548 552.4C382.741 551.127 382.338 549.347 382.338 547.06C382.338 544.78 382.741 543.013 383.548 541.76C384.361 540.5 385.568 539.87 387.168 539.87ZM387.168 541.83C386.414 541.83 385.844 542.233 385.458 543.04C385.078 543.84 384.888 545.18 384.888 547.06C384.888 548.1 384.924 548.963 384.998 549.65C385.078 550.33 385.208 550.867 385.388 551.26C385.568 551.653 385.801 551.933 386.088 552.1C386.381 552.26 386.741 552.34 387.168 552.34C387.674 552.34 388.094 552.17 388.428 551.83C388.768 551.483 389.021 550.923 389.188 550.15C389.354 549.37 389.438 548.34 389.438 547.06C389.438 545.7 389.364 544.64 389.218 543.88C389.078 543.12 388.841 542.59 388.508 542.29C388.181 541.983 387.734 541.83 387.168 541.83ZM388.898 542.28L389.578 543.92L385.638 552L384.828 550.66L388.898 542.28ZM397.84 539.87L400.08 540.72L396.66 548.93H403.73V550.94H393.92V549.14L397.84 539.87ZM402.21 545.39V554H399.67L399.64 549.25L399.98 545.39H402.21ZM409.552 554.27L407.062 553.5L412.302 542.21H406.082V540.17H414.972V542.01L409.552 554.27Z" fill="#57EB23"/>
<circle cx="269.117" cy="480.145" r="11.6994" fill="#56E723" stroke="black" stroke-width="4"/>
<circle cx="226.063" cy="300.096" r="11.6994" fill="#56E723" stroke="black" stroke-width="4"/>
<defs>
<linearGradient id="paint0_linear_505_1655" x1="406.798" y1="19.4668" x2="459.051" y2="51.4185" gradientUnits="userSpaceOnUse">
<stop stop-color="#CB8D31"/>
<stop offset="0.317708" stop-color="#C89350"/>
<stop offset="0.666667" stop-color="#FFD089"/>
<stop offset="1" stop-color="#CF9B3B"/>
</linearGradient>
<linearGradient id="paint1_linear_505_1655" x1="75.0364" y1="19.4668" x2="22.0434" y2="52.9164" gradientUnits="userSpaceOnUse">
<stop stop-color="#CB8D31"/>
<stop offset="0.317708" stop-color="#C89350"/>
<stop offset="0.666667" stop-color="#FFD089"/>
<stop offset="1" stop-color="#CF9B3B"/>
</linearGradient>
<linearGradient id="paint2_linear_505_1655" x1="72.7238" y1="717.72" x2="20.4709" y2="685.768" gradientUnits="userSpaceOnUse">
<stop stop-color="#CB8D31"/>
<stop offset="0.317708" stop-color="#C89350"/>
<stop offset="0.666667" stop-color="#FFD089"/>
<stop offset="1" stop-color="#CF9B3B"/>
</linearGradient>
<linearGradient id="paint3_linear_505_1655" x1="459.722" y1="664.796" x2="427.77" y2="717.049" gradientUnits="userSpaceOnUse">
<stop stop-color="#CB8D31"/>
<stop offset="0.317708" stop-color="#C89350"/>
<stop offset="0.666667" stop-color="#FFD089"/>
<stop offset="1" stop-color="#CF9B3B"/>
</linearGradient>
</defs>
</svg>
