<svg width="480" height="738" viewBox="0 0 480 738" fill="none" xmlns="http://www.w3.org/2000/svg">
<rect x="6.8291" y="2.58141" width="465.864" height="728.109" rx="3" fill="#5F3C13" stroke="black" stroke-width="4"/>
<rect x="32.3125" y="28.066" width="418.809" height="681.054" fill="black"/>
<path d="M471.521 0.667313H360.151C358.512 0.667313 357.184 1.996 357.184 3.63503C357.184 4.65405 357.706 5.60182 358.568 6.14535L473.175 78.4121C473.731 78.7631 474.376 78.9494 475.034 78.9494C476.96 78.9494 478.521 77.3884 478.521 75.4629V7.66731C478.521 3.80132 475.387 0.667313 471.521 0.667313Z" fill="url(#paint0_linear_505_1655)" stroke="black"/>
<path d="M7.9996 0.667313H123.301C124.93 0.667313 126.251 1.98808 126.251 3.61732C126.251 4.6452 125.716 5.59897 124.839 6.13479L6.50759 78.4186C5.93925 78.7657 5.28618 78.9494 4.62019 78.9494C2.62061 78.9494 0.999611 77.3284 0.999611 75.3288V7.66731C0.999611 3.80132 4.13361 0.667313 7.9996 0.667313Z" fill="url(#paint1_linear_505_1655)" stroke="black"/>
<path d="M8.00064 736.519H119.37C121.009 736.519 122.338 735.19 122.338 733.551C122.338 732.532 121.815 731.585 120.953 731.041L6.34679 658.774C5.79005 658.423 5.14532 658.237 4.48714 658.237C2.5616 658.237 1.00063 659.798 1.00063 661.724V729.519C1.00063 733.385 4.13464 736.519 8.00064 736.519Z" fill="url(#paint2_linear_505_1655)" stroke="black"/>
<path d="M478.521 729.519V618.15C478.521 616.511 477.193 615.182 475.554 615.182C474.535 615.182 473.587 615.705 473.043 616.567L400.777 731.173C400.426 731.73 400.239 732.374 400.239 733.033C400.239 734.958 401.8 736.519 403.726 736.519H471.521C475.387 736.519 478.521 733.385 478.521 729.519Z" fill="url(#paint3_linear_505_1655)" stroke="black"/>
<path d="M134.938 97.0375H129.251L128.176 101H124.638L130.051 83.7125H134.251L139.651 101H136.013L134.938 97.0375ZM129.863 94.475H134.301L132.088 86.275L129.863 94.475ZM141.321 101V87.7625H144.196L144.433 89.4C145 88.7333 145.638 88.2333 146.346 87.9C147.054 87.5583 147.817 87.3875 148.633 87.3875C149.825 87.3875 150.733 87.7333 151.358 88.425C151.983 89.1083 152.296 90.0708 152.296 91.3125V101H148.996V92.6C148.996 91.9333 148.954 91.4 148.871 91C148.788 90.5917 148.629 90.3 148.396 90.125C148.163 89.9417 147.825 89.85 147.383 89.85C147.025 89.85 146.679 89.9292 146.346 90.0875C146.021 90.2458 145.713 90.4583 145.421 90.725C145.138 90.9917 144.871 91.2875 144.621 91.6125V101H141.321ZM166.554 97.5125C166.554 98.0208 166.629 98.3917 166.779 98.625C166.929 98.85 167.17 99.0208 167.504 99.1375L166.791 101.35C166.083 101.275 165.479 101.1 164.979 100.825C164.487 100.542 164.108 100.121 163.841 99.5625C163.341 100.171 162.708 100.625 161.941 100.925C161.183 101.225 160.387 101.375 159.554 101.375C158.204 101.375 157.133 100.992 156.341 100.225C155.549 99.4583 155.154 98.4625 155.154 97.2375C155.154 95.8292 155.704 94.7458 156.804 93.9875C157.912 93.2208 159.479 92.8375 161.504 92.8375H163.354V92.125C163.354 91.3417 163.112 90.775 162.629 90.425C162.145 90.0667 161.449 89.8875 160.541 89.8875C160.116 89.8875 159.583 89.9458 158.941 90.0625C158.308 90.1708 157.654 90.3417 156.979 90.575L156.191 88.3125C157.033 87.9958 157.879 87.7625 158.729 87.6125C159.587 87.4625 160.366 87.3875 161.066 87.3875C162.924 87.3875 164.304 87.7833 165.204 88.575C166.104 89.3583 166.554 90.4708 166.554 91.9125V97.5125ZM160.629 98.9875C161.129 98.9875 161.633 98.8458 162.141 98.5625C162.658 98.2792 163.062 97.8833 163.354 97.375V94.8H162.054C160.829 94.8 159.941 94.9958 159.391 95.3875C158.849 95.7792 158.579 96.3333 158.579 97.05C158.579 97.6667 158.754 98.1458 159.104 98.4875C159.454 98.8208 159.962 98.9875 160.629 98.9875ZM163.254 80.4625L164.591 83.025L158.929 85.2875L158.004 83.5875L163.254 80.4625ZM176.961 82.475V97.15C176.961 97.725 177.128 98.1333 177.461 98.375C177.803 98.6167 178.261 98.7375 178.836 98.7375C179.195 98.7375 179.54 98.7 179.874 98.625C180.207 98.5417 180.524 98.4417 180.824 98.325L181.636 100.575C181.22 100.783 180.711 100.967 180.111 101.125C179.52 101.292 178.832 101.375 178.049 101.375C176.607 101.375 175.515 100.962 174.774 100.137C174.032 99.3125 173.661 98.2 173.661 96.8V84.8125H169.699V82.475H176.961ZM192.944 87.7625V98.6625H196.432V101H185.769V98.6625H189.644V90.1H185.894V87.7625H192.944ZM190.807 81.0875C191.415 81.0875 191.907 81.275 192.282 81.65C192.665 82.025 192.857 82.4917 192.857 83.05C192.857 83.6083 192.665 84.0792 192.282 84.4625C191.907 84.8375 191.415 85.025 190.807 85.025C190.198 85.025 189.702 84.8375 189.319 84.4625C188.936 84.0792 188.744 83.6083 188.744 83.05C188.744 82.4917 188.936 82.025 189.319 81.65C189.702 81.275 190.198 81.0875 190.807 81.0875ZM205.039 98.9375C205.814 98.9375 206.435 98.8042 206.902 98.5375C207.377 98.2625 207.614 97.8792 207.614 97.3875C207.614 97.0625 207.535 96.7875 207.377 96.5625C207.227 96.3375 206.927 96.1292 206.477 95.9375C206.027 95.7375 205.352 95.5167 204.452 95.275C203.602 95.0583 202.856 94.7917 202.214 94.475C201.581 94.15 201.085 93.7333 200.727 93.225C200.377 92.7167 200.202 92.075 200.202 91.3C200.202 90.525 200.418 89.8458 200.852 89.2625C201.285 88.6708 201.91 88.2125 202.727 87.8875C203.552 87.5542 204.543 87.3875 205.702 87.3875C206.835 87.3875 207.827 87.5375 208.677 87.8375C209.527 88.1292 210.256 88.4958 210.864 88.9375L209.514 90.95C208.981 90.6083 208.402 90.3333 207.777 90.125C207.16 89.9083 206.493 89.8 205.777 89.8C205.002 89.8 204.435 89.9125 204.077 90.1375C203.727 90.3625 203.552 90.675 203.552 91.075C203.552 91.3583 203.639 91.6 203.814 91.8C203.998 91.9917 204.323 92.1792 204.789 92.3625C205.264 92.5375 205.939 92.75 206.814 93C207.673 93.2333 208.418 93.5083 209.052 93.825C209.693 94.1417 210.189 94.5625 210.539 95.0875C210.889 95.6125 211.064 96.3 211.064 97.15C211.064 98.1083 210.785 98.9 210.227 99.525C209.668 100.15 208.931 100.617 208.014 100.925C207.106 101.225 206.118 101.375 205.052 101.375C203.802 101.375 202.71 101.196 201.777 100.837C200.843 100.479 200.052 100.017 199.402 99.45L201.114 97.525C201.631 97.9333 202.218 98.2708 202.877 98.5375C203.543 98.8042 204.264 98.9375 205.039 98.9375ZM217.485 95.3875C217.551 96.2125 217.739 96.8833 218.047 97.4C218.364 97.9167 218.768 98.2958 219.26 98.5375C219.751 98.7792 220.297 98.9 220.897 98.9C221.53 98.9 222.126 98.8 222.685 98.6C223.243 98.4 223.793 98.1208 224.335 97.7625L225.71 99.65C225.093 100.167 224.355 100.583 223.497 100.9C222.647 101.217 221.71 101.375 220.685 101.375C219.251 101.375 218.043 101.079 217.06 100.487C216.085 99.8958 215.347 99.075 214.847 98.025C214.347 96.975 214.097 95.7667 214.097 94.4C214.097 93.0833 214.343 91.8958 214.835 90.8375C215.326 89.7792 216.035 88.9417 216.96 88.325C217.885 87.7 219.001 87.3875 220.31 87.3875C221.526 87.3875 222.576 87.6542 223.46 88.1875C224.343 88.7208 225.026 89.4875 225.51 90.4875C225.993 91.4792 226.235 92.675 226.235 94.075C226.235 94.3 226.226 94.5292 226.21 94.7625C226.201 94.9958 226.189 95.2042 226.172 95.3875H217.485ZM220.322 89.7125C219.522 89.7125 218.864 90 218.347 90.575C217.839 91.1417 217.539 92.0417 217.447 93.275H223.022C223.005 92.1583 222.772 91.2875 222.322 90.6625C221.88 90.0292 221.214 89.7125 220.322 89.7125ZM251.688 82.125L254.988 82.475V101H252.063L251.863 99.4375C251.454 100.021 250.942 100.492 250.325 100.85C249.708 101.2 248.992 101.375 248.175 101.375C247.058 101.375 246.133 101.083 245.4 100.5C244.675 99.9167 244.133 99.1 243.775 98.05C243.425 96.9917 243.25 95.7625 243.25 94.3625C243.25 93.0125 243.458 91.8125 243.875 90.7625C244.292 89.7125 244.892 88.8875 245.675 88.2875C246.467 87.6875 247.404 87.3875 248.488 87.3875C249.138 87.3875 249.729 87.5 250.263 87.725C250.796 87.95 251.271 88.2833 251.688 88.725V82.125ZM249.375 89.85C248.542 89.85 247.883 90.2125 247.4 90.9375C246.925 91.6542 246.688 92.8 246.688 94.375C246.688 95.4833 246.788 96.3708 246.988 97.0375C247.188 97.6958 247.471 98.1708 247.838 98.4625C248.204 98.7542 248.638 98.9 249.138 98.9C249.688 98.9 250.171 98.7375 250.588 98.4125C251.013 98.0792 251.379 97.6667 251.688 97.175V91.15C251.379 90.7417 251.033 90.425 250.65 90.2C250.275 89.9667 249.85 89.85 249.375 89.85ZM261.495 95.3875C261.562 96.2125 261.749 96.8833 262.058 97.4C262.374 97.9167 262.779 98.2958 263.27 98.5375C263.762 98.7792 264.308 98.9 264.908 98.9C265.541 98.9 266.137 98.8 266.695 98.6C267.254 98.4 267.804 98.1208 268.345 97.7625L269.72 99.65C269.104 100.167 268.366 100.583 267.508 100.9C266.658 101.217 265.72 101.375 264.695 101.375C263.262 101.375 262.054 101.079 261.07 100.487C260.095 99.8958 259.358 99.075 258.858 98.025C258.358 96.975 258.108 95.7667 258.108 94.4C258.108 93.0833 258.354 91.8958 258.845 90.8375C259.337 89.7792 260.045 88.9417 260.97 88.325C261.895 87.7 263.012 87.3875 264.32 87.3875C265.537 87.3875 266.587 87.6542 267.47 88.1875C268.354 88.7208 269.037 89.4875 269.52 90.4875C270.004 91.4792 270.245 92.675 270.245 94.075C270.245 94.3 270.237 94.5292 270.22 94.7625C270.212 94.9958 270.199 95.2042 270.183 95.3875H261.495ZM264.333 89.7125C263.533 89.7125 262.874 90 262.358 90.575C261.849 91.1417 261.549 92.0417 261.458 93.275H267.033C267.016 92.1583 266.783 91.2875 266.333 90.6625C265.891 90.0292 265.224 89.7125 264.333 89.7125ZM294.323 82.475V97.15C294.323 97.725 294.49 98.1333 294.823 98.375C295.165 98.6167 295.623 98.7375 296.198 98.7375C296.557 98.7375 296.902 98.7 297.236 98.625C297.569 98.5417 297.886 98.4417 298.186 98.325L298.998 100.575C298.582 100.783 298.073 100.967 297.473 101.125C296.882 101.292 296.194 101.375 295.411 101.375C293.969 101.375 292.877 100.962 292.136 100.137C291.394 99.3125 291.023 98.2 291.023 96.8V84.8125H287.061V82.475H294.323ZM310.306 87.7625V98.6625H313.793V101H303.131V98.6625H307.006V90.1H303.256V87.7625H310.306ZM308.168 81.0875C308.777 81.0875 309.268 81.275 309.643 81.65C310.027 82.025 310.218 82.4917 310.218 83.05C310.218 83.6083 310.027 84.0792 309.643 84.4625C309.268 84.8375 308.777 85.025 308.168 85.025C307.56 85.025 307.064 84.8375 306.681 84.4625C306.298 84.0792 306.106 83.6083 306.106 83.05C306.106 82.4917 306.298 82.025 306.681 81.65C307.064 81.275 307.56 81.0875 308.168 81.0875ZM317.364 101V87.7625H320.239L320.476 89.4C321.043 88.7333 321.68 88.2333 322.389 87.9C323.097 87.5583 323.859 87.3875 324.676 87.3875C325.868 87.3875 326.776 87.7333 327.401 88.425C328.026 89.1083 328.339 90.0708 328.339 91.3125V101H325.039V92.6C325.039 91.9333 324.997 91.4 324.914 91C324.83 90.5917 324.672 90.3 324.439 90.125C324.205 89.9417 323.868 89.85 323.426 89.85C323.068 89.85 322.722 89.9292 322.389 90.0875C322.064 90.2458 321.755 90.4583 321.464 90.725C321.18 90.9917 320.914 91.2875 320.664 91.6125V101H317.364ZM335.334 82.1625V89.25C335.884 88.625 336.501 88.1583 337.184 87.85C337.876 87.5417 338.596 87.3875 339.346 87.3875C340.563 87.3875 341.476 87.7333 342.084 88.425C342.701 89.1083 343.009 90.0708 343.009 91.3125V101H339.709V92.05C339.709 91.25 339.584 90.6833 339.334 90.35C339.092 90.0167 338.676 89.85 338.084 89.85C337.734 89.85 337.392 89.9333 337.059 90.1C336.734 90.2583 336.426 90.475 336.134 90.75C335.851 91.025 335.584 91.3333 335.334 91.675V101H332.034V82.4875L335.334 82.1625ZM357.267 97.5125C357.267 98.0208 357.342 98.3917 357.492 98.625C357.642 98.85 357.883 99.0208 358.217 99.1375L357.504 101.35C356.796 101.275 356.192 101.1 355.692 100.825C355.2 100.542 354.821 100.121 354.554 99.5625C354.054 100.171 353.421 100.625 352.654 100.925C351.896 101.225 351.1 101.375 350.267 101.375C348.917 101.375 347.846 100.992 347.054 100.225C346.262 99.4583 345.867 98.4625 345.867 97.2375C345.867 95.8292 346.417 94.7458 347.517 93.9875C348.625 93.2208 350.192 92.8375 352.217 92.8375H354.067V92.125C354.067 91.3417 353.825 90.775 353.342 90.425C352.858 90.0667 352.162 89.8875 351.254 89.8875C350.829 89.8875 350.296 89.9458 349.654 90.0625C349.021 90.1708 348.367 90.3417 347.692 90.575L346.904 88.3125C347.746 87.9958 348.592 87.7625 349.442 87.6125C350.3 87.4625 351.079 87.3875 351.779 87.3875C353.637 87.3875 355.017 87.7833 355.917 88.575C356.817 89.3583 357.267 90.4708 357.267 91.9125V97.5125ZM351.342 98.9875C351.842 98.9875 352.346 98.8458 352.854 98.5625C353.371 98.2792 353.775 97.8833 354.067 97.375V94.8H352.767C351.542 94.8 350.654 94.9958 350.104 95.3875C349.562 95.7792 349.292 96.3333 349.292 97.05C349.292 97.6667 349.467 98.1458 349.817 98.4875C350.167 98.8208 350.675 98.9875 351.342 98.9875ZM196.597 127.262C196.105 127.587 195.509 127.854 194.809 128.063C194.109 128.271 193.351 128.375 192.534 128.375C190.917 128.375 189.701 127.958 188.884 127.125C188.067 126.283 187.659 125.167 187.659 123.775V117.1H184.784V114.762H187.659V111.85L190.959 111.45V114.762H195.334L194.997 117.1H190.959V123.762C190.959 124.446 191.126 124.946 191.459 125.262C191.792 125.579 192.33 125.737 193.072 125.737C193.547 125.737 193.98 125.683 194.372 125.575C194.772 125.458 195.134 125.312 195.459 125.137L196.597 127.262ZM202.654 122.387C202.721 123.212 202.908 123.883 203.217 124.4C203.533 124.917 203.938 125.296 204.429 125.537C204.921 125.779 205.467 125.9 206.067 125.9C206.7 125.9 207.296 125.8 207.854 125.6C208.413 125.4 208.963 125.121 209.504 124.762L210.879 126.65C210.263 127.167 209.525 127.583 208.667 127.9C207.817 128.217 206.879 128.375 205.854 128.375C204.421 128.375 203.213 128.079 202.229 127.487C201.254 126.896 200.517 126.075 200.017 125.025C199.517 123.975 199.267 122.767 199.267 121.4C199.267 120.083 199.513 118.896 200.004 117.837C200.496 116.779 201.204 115.942 202.129 115.325C203.054 114.7 204.171 114.387 205.479 114.387C206.696 114.387 207.746 114.654 208.629 115.187C209.513 115.721 210.196 116.487 210.679 117.487C211.163 118.479 211.404 119.675 211.404 121.075C211.404 121.3 211.396 121.529 211.379 121.762C211.371 121.996 211.358 122.204 211.342 122.387H202.654ZM205.492 116.712C204.692 116.712 204.033 117 203.517 117.575C203.008 118.142 202.708 119.042 202.617 120.275H208.192C208.175 119.158 207.942 118.287 207.492 117.662C207.05 117.029 206.383 116.712 205.492 116.712ZM223.925 114.387C224.491 114.387 224.975 114.508 225.375 114.75C225.775 114.983 226.083 115.379 226.3 115.937C226.516 116.487 226.625 117.237 226.625 118.187V128H223.75V118.6C223.75 118 223.7 117.575 223.6 117.325C223.508 117.075 223.295 116.95 222.962 116.95C222.687 116.95 222.408 117.033 222.125 117.2C221.85 117.358 221.562 117.646 221.262 118.062V128H218.775V118.6C218.775 118 218.725 117.575 218.625 117.325C218.533 117.075 218.32 116.95 217.987 116.95C217.704 116.95 217.425 117.033 217.15 117.2C216.875 117.358 216.587 117.646 216.287 118.062V128H213.375V114.762H215.837L216.05 116.137C216.441 115.587 216.854 115.158 217.287 114.85C217.72 114.542 218.241 114.387 218.85 114.387C219.35 114.387 219.791 114.512 220.175 114.762C220.566 115.004 220.845 115.421 221.012 116.012C221.395 115.529 221.825 115.137 222.3 114.837C222.775 114.537 223.316 114.387 223.925 114.387ZM236.02 114.387C237.186 114.387 238.12 114.675 238.82 115.25C239.528 115.817 240.041 116.621 240.357 117.662C240.682 118.704 240.845 119.933 240.845 121.35C240.845 122.708 240.649 123.917 240.257 124.975C239.866 126.033 239.291 126.867 238.532 127.475C237.782 128.075 236.857 128.375 235.757 128.375C234.407 128.375 233.316 127.896 232.482 126.937V133.1L229.182 133.45V114.762H232.082L232.257 116.375C232.782 115.692 233.37 115.192 234.02 114.875C234.67 114.55 235.336 114.387 236.02 114.387ZM235.057 116.862C234.499 116.862 234.007 117.029 233.582 117.362C233.166 117.696 232.799 118.108 232.482 118.6V124.525C232.782 124.975 233.124 125.312 233.507 125.537C233.891 125.762 234.324 125.875 234.807 125.875C235.649 125.875 236.291 125.525 236.732 124.825C237.182 124.117 237.407 122.971 237.407 121.387C237.407 120.271 237.316 119.383 237.132 118.725C236.957 118.058 236.695 117.583 236.345 117.3C235.995 117.008 235.566 116.862 235.057 116.862ZM249.352 114.387C250.669 114.387 251.786 114.675 252.702 115.25C253.619 115.825 254.315 116.637 254.79 117.687C255.273 118.729 255.515 119.95 255.515 121.35C255.515 122.783 255.273 124.025 254.79 125.075C254.307 126.125 253.607 126.937 252.69 127.512C251.773 128.088 250.657 128.375 249.34 128.375C248.032 128.375 246.915 128.096 245.99 127.537C245.073 126.971 244.373 126.167 243.89 125.125C243.407 124.075 243.165 122.825 243.165 121.375C243.165 119.992 243.407 118.775 243.89 117.725C244.373 116.675 245.077 115.858 246.002 115.275C246.927 114.683 248.044 114.387 249.352 114.387ZM249.352 116.875C248.427 116.875 247.736 117.237 247.277 117.962C246.827 118.687 246.602 119.825 246.602 121.375C246.602 122.942 246.827 124.087 247.277 124.812C247.727 125.529 248.415 125.887 249.34 125.887C250.265 125.887 250.952 125.529 251.402 124.812C251.852 124.087 252.077 122.933 252.077 121.35C252.077 119.808 251.852 118.679 251.402 117.962C250.952 117.237 250.269 116.875 249.352 116.875ZM258.648 128V125.712H260.51V117.037H258.648V114.762H263.023L263.635 117.8C264.119 116.675 264.727 115.829 265.46 115.262C266.194 114.687 267.114 114.4 268.223 114.4C268.648 114.4 269.023 114.433 269.348 114.5C269.681 114.567 269.998 114.654 270.298 114.762L269.31 117.537C269.052 117.471 268.806 117.421 268.573 117.387C268.339 117.346 268.077 117.325 267.785 117.325C266.869 117.325 266.069 117.683 265.385 118.4C264.71 119.108 264.185 120.071 263.81 121.287V125.712H266.448V128H258.648ZM267.51 119.925V116.412L267.96 114.762H270.298L269.71 119.925H267.51ZM283.755 124.512C283.755 125.021 283.83 125.392 283.98 125.625C284.13 125.85 284.372 126.021 284.705 126.137L283.993 128.35C283.285 128.275 282.68 128.1 282.18 127.825C281.689 127.542 281.31 127.121 281.043 126.562C280.543 127.171 279.91 127.625 279.143 127.925C278.385 128.225 277.589 128.375 276.755 128.375C275.405 128.375 274.335 127.992 273.543 127.225C272.751 126.458 272.355 125.462 272.355 124.237C272.355 122.829 272.905 121.746 274.005 120.987C275.114 120.221 276.68 119.837 278.705 119.837H280.555V119.125C280.555 118.342 280.314 117.775 279.83 117.425C279.347 117.067 278.651 116.887 277.743 116.887C277.318 116.887 276.785 116.946 276.143 117.062C275.51 117.171 274.855 117.342 274.18 117.575L273.393 115.312C274.235 114.996 275.08 114.762 275.93 114.612C276.789 114.462 277.568 114.387 278.268 114.387C280.126 114.387 281.505 114.783 282.405 115.575C283.305 116.358 283.755 117.471 283.755 118.912V124.512ZM277.83 125.987C278.33 125.987 278.835 125.846 279.343 125.562C279.86 125.279 280.264 124.883 280.555 124.375V121.8H279.255C278.03 121.8 277.143 121.996 276.593 122.387C276.051 122.779 275.78 123.333 275.78 124.05C275.78 124.667 275.955 125.146 276.305 125.487C276.655 125.821 277.164 125.987 277.83 125.987ZM294.163 109.475V124.15C294.163 124.725 294.33 125.133 294.663 125.375C295.005 125.617 295.463 125.737 296.038 125.737C296.397 125.737 296.742 125.7 297.076 125.625C297.409 125.542 297.726 125.442 298.026 125.325L298.838 127.575C298.422 127.783 297.913 127.967 297.313 128.125C296.722 128.292 296.034 128.375 295.251 128.375C293.809 128.375 292.717 127.962 291.976 127.137C291.234 126.312 290.863 125.2 290.863 123.8V111.812H286.901V109.475H294.163Z" fill="#57EB23"/>
<path d="M176.789 684.037H171.101L170.026 688H166.489L171.901 670.712H176.101L181.501 688H177.864L176.789 684.037ZM171.714 681.475H176.151L173.939 673.275L171.714 681.475ZM190.784 674.762V685.662H194.272V688H183.609V685.662H187.484V677.1H183.734V674.762H190.784ZM188.647 668.087C189.255 668.087 189.747 668.275 190.122 668.65C190.505 669.025 190.697 669.492 190.697 670.05C190.697 670.608 190.505 671.079 190.122 671.462C189.747 671.837 189.255 672.025 188.647 672.025C188.038 672.025 187.542 671.837 187.159 671.462C186.776 671.079 186.584 670.608 186.584 670.05C186.584 669.492 186.776 669.025 187.159 668.65C187.542 668.275 188.038 668.087 188.647 668.087ZM203.342 674.387C204.658 674.387 205.775 674.675 206.692 675.25C207.608 675.825 208.304 676.637 208.779 677.687C209.263 678.729 209.504 679.95 209.504 681.35C209.504 682.783 209.263 684.025 208.779 685.075C208.296 686.125 207.596 686.937 206.679 687.512C205.763 688.088 204.646 688.375 203.329 688.375C202.021 688.375 200.904 688.096 199.979 687.537C199.063 686.971 198.363 686.167 197.879 685.125C197.396 684.075 197.154 682.825 197.154 681.375C197.154 679.992 197.396 678.775 197.879 677.725C198.363 676.675 199.067 675.858 199.992 675.275C200.917 674.683 202.033 674.387 203.342 674.387ZM203.342 676.875C202.417 676.875 201.725 677.237 201.267 677.962C200.817 678.687 200.592 679.825 200.592 681.375C200.592 682.942 200.817 684.087 201.267 684.812C201.717 685.529 202.404 685.887 203.329 685.887C204.254 685.887 204.942 685.529 205.392 684.812C205.842 684.087 206.067 682.933 206.067 681.35C206.067 679.808 205.842 678.679 205.392 677.962C204.942 677.237 204.258 676.875 203.342 676.875ZM212.512 688V674.762H215.387L215.625 676.4C216.191 675.733 216.829 675.233 217.537 674.9C218.245 674.558 219.008 674.387 219.825 674.387C221.016 674.387 221.925 674.733 222.55 675.425C223.175 676.108 223.487 677.071 223.487 678.312V688H220.187V679.6C220.187 678.933 220.145 678.4 220.062 678C219.979 677.592 219.82 677.3 219.587 677.125C219.354 676.942 219.016 676.85 218.575 676.85C218.216 676.85 217.87 676.929 217.537 677.087C217.212 677.246 216.904 677.458 216.612 677.725C216.329 677.992 216.062 678.287 215.812 678.612V688H212.512ZM248.79 670.337C249.99 670.337 251.007 670.496 251.84 670.812C252.673 671.121 253.444 671.567 254.153 672.15L252.415 674.212C251.923 673.796 251.382 673.479 250.79 673.262C250.207 673.046 249.582 672.937 248.915 672.937C248.115 672.937 247.378 673.15 246.703 673.575C246.036 674 245.498 674.683 245.09 675.625C244.69 676.558 244.49 677.792 244.49 679.325C244.49 680.833 244.682 682.054 245.065 682.987C245.457 683.921 245.986 684.604 246.653 685.037C247.328 685.462 248.09 685.675 248.94 685.675C249.84 685.675 250.586 685.517 251.178 685.2C251.769 684.883 252.303 684.537 252.778 684.162L254.39 686.2C253.782 686.8 253.019 687.312 252.103 687.737C251.194 688.163 250.09 688.375 248.79 688.375C247.282 688.375 245.936 688.029 244.753 687.337C243.569 686.646 242.64 685.629 241.965 684.287C241.29 682.946 240.953 681.292 240.953 679.325C240.953 677.392 241.298 675.758 241.99 674.425C242.69 673.083 243.632 672.067 244.815 671.375C246.007 670.683 247.332 670.337 248.79 670.337ZM262.023 674.387C263.339 674.387 264.456 674.675 265.373 675.25C266.289 675.825 266.985 676.637 267.46 677.687C267.944 678.729 268.185 679.95 268.185 681.35C268.185 682.783 267.944 684.025 267.46 685.075C266.977 686.125 266.277 686.937 265.36 687.512C264.444 688.088 263.327 688.375 262.01 688.375C260.702 688.375 259.585 688.096 258.66 687.537C257.744 686.971 257.044 686.167 256.56 685.125C256.077 684.075 255.835 682.825 255.835 681.375C255.835 679.992 256.077 678.775 256.56 677.725C257.044 676.675 257.748 675.858 258.673 675.275C259.598 674.683 260.714 674.387 262.023 674.387ZM262.023 676.875C261.098 676.875 260.406 677.237 259.948 677.962C259.498 678.687 259.273 679.825 259.273 681.375C259.273 682.942 259.498 684.087 259.948 684.812C260.398 685.529 261.085 685.887 262.01 685.887C262.935 685.887 263.623 685.529 264.073 684.812C264.523 684.087 264.748 682.933 264.748 681.35C264.748 679.808 264.523 678.679 264.073 677.962C263.623 677.237 262.939 676.875 262.023 676.875ZM271.318 688V685.712H273.18V677.037H271.318V674.762H275.693L276.305 677.8C276.789 676.675 277.397 675.829 278.13 675.262C278.864 674.687 279.785 674.4 280.893 674.4C281.318 674.4 281.693 674.433 282.018 674.5C282.351 674.567 282.668 674.654 282.968 674.762L281.98 677.537C281.722 677.471 281.476 677.421 281.243 677.387C281.01 677.346 280.747 677.325 280.455 677.325C279.539 677.325 278.739 677.683 278.055 678.4C277.38 679.108 276.855 680.071 276.48 681.287V685.712H279.118V688H271.318ZM280.18 679.925V676.412L280.63 674.762H282.968L282.38 679.925H280.18ZM292.701 674.387C293.867 674.387 294.801 674.675 295.501 675.25C296.209 675.817 296.722 676.621 297.038 677.662C297.363 678.704 297.526 679.933 297.526 681.35C297.526 682.708 297.33 683.917 296.938 684.975C296.547 686.033 295.972 686.867 295.213 687.475C294.463 688.075 293.538 688.375 292.438 688.375C291.088 688.375 289.997 687.896 289.163 686.937V693.1L285.863 693.45V674.762H288.763L288.938 676.375C289.463 675.692 290.051 675.192 290.701 674.875C291.351 674.55 292.017 674.387 292.701 674.387ZM291.738 676.862C291.18 676.862 290.688 677.029 290.263 677.362C289.847 677.696 289.48 678.108 289.163 678.6V684.525C289.463 684.975 289.805 685.312 290.188 685.537C290.572 685.762 291.005 685.875 291.488 685.875C292.33 685.875 292.972 685.525 293.413 684.825C293.863 684.117 294.088 682.971 294.088 681.387C294.088 680.271 293.997 679.383 293.813 678.725C293.638 678.058 293.376 677.583 293.026 677.3C292.676 677.008 292.247 676.862 291.738 676.862ZM303.433 685.787C303.433 685.321 303.546 684.892 303.771 684.5C304.004 684.108 304.317 683.796 304.708 683.562C305.1 683.329 305.533 683.212 306.008 683.212C306.492 683.212 306.929 683.329 307.321 683.562C307.713 683.796 308.021 684.108 308.246 684.5C308.479 684.892 308.596 685.321 308.596 685.787C308.596 686.254 308.479 686.687 308.246 687.087C308.021 687.479 307.713 687.792 307.321 688.025C306.929 688.258 306.492 688.375 306.008 688.375C305.533 688.375 305.1 688.258 304.708 688.025C304.317 687.792 304.004 687.479 303.771 687.087C303.546 686.687 303.433 686.254 303.433 685.787Z" fill="#57EB23"/>
<path d="M339.616 176.184L323.296 176.757L323.869 193.076L340.188 192.504L339.616 176.184ZM224.104 300.096L222.641 298.733L221.889 299.54L222.17 300.606L224.104 300.096ZM271.074 478.188L272.499 479.591L273.298 478.779L273.007 477.678L271.074 478.188ZM143.595 607.756L159.924 607.624L159.792 591.294L143.462 591.427L143.595 607.756ZM330.279 183.266L222.641 298.733L225.567 301.46L333.205 185.994L330.279 183.266ZM222.17 300.606L269.14 478.698L273.007 477.678L226.038 299.586L222.17 300.606ZM269.648 476.785L150.268 598.123L153.119 600.928L272.499 479.591L269.648 476.785Z" fill="#57EB23"/>
<path d="M218.233 288.354L192.792 231.599H134.08" stroke="#23DFEB" stroke-width="2"/>
<path d="M274.987 493.844L300.429 550.599H359.141" stroke="#23DFEB" stroke-width="2"/>
<path d="M86.5856 222.17V235.6H83.9956V224.83L81.0456 226.66L79.9156 224.83L84.2556 222.17H86.5856ZM89.2756 233.97V236H80.6456V233.97H89.2756ZM96.0378 221.87C97.1245 221.87 98.0278 222.103 98.7478 222.57C99.4745 223.037 100.018 223.687 100.378 224.52C100.744 225.353 100.928 226.327 100.928 227.44C100.928 228.787 100.768 229.963 100.448 230.97C100.134 231.97 99.6478 232.827 98.9878 233.54C98.3345 234.247 97.4978 234.843 96.4778 235.33C95.4645 235.817 94.2611 236.22 92.8678 236.54L92.3078 234.65C93.5345 234.323 94.5645 233.93 95.3978 233.47C96.2311 233.01 96.8778 232.443 97.3378 231.77C97.7978 231.097 98.0811 230.28 98.1878 229.32L98.1978 228.29C98.2111 227.25 98.1545 226.4 98.0278 225.74C97.9078 225.08 97.6878 224.593 97.3678 224.28C97.0545 223.967 96.6078 223.81 96.0278 223.81C95.3478 223.81 94.8178 224.047 94.4378 224.52C94.0645 224.987 93.8778 225.7 93.8778 226.66C93.8778 227.58 94.0645 228.237 94.4378 228.63C94.8111 229.017 95.2878 229.21 95.8678 229.21C96.4078 229.21 96.8878 229.08 97.3078 228.82C97.7278 228.553 98.1378 228.18 98.5378 227.7L98.5078 229.37C98.0478 229.903 97.5478 230.33 97.0078 230.65C96.4745 230.963 95.8478 231.12 95.1278 231.12C94.3878 231.12 93.7211 230.94 93.1278 230.58C92.5345 230.213 92.0645 229.7 91.7178 229.04C91.3711 228.38 91.1978 227.597 91.1978 226.69C91.1978 225.697 91.4111 224.84 91.8378 224.12C92.2711 223.4 92.8511 222.847 93.5778 222.46C94.3111 222.067 95.1311 221.87 96.0378 221.87ZM106.84 221.87L109.08 222.72L105.66 230.93H112.73V232.94H102.92V231.14L106.84 221.87ZM111.21 227.39V236H108.67L108.64 231.25L108.98 227.39H111.21ZM119.512 221.87C121.106 221.87 122.309 222.5 123.122 223.76C123.936 225.013 124.342 226.78 124.342 229.06C124.342 231.347 123.936 233.127 123.122 234.4C122.309 235.667 121.106 236.3 119.512 236.3C117.912 236.3 116.706 235.667 115.892 234.4C115.086 233.127 114.682 231.347 114.682 229.06C114.682 226.78 115.086 225.013 115.892 223.76C116.706 222.5 117.912 221.87 119.512 221.87ZM119.512 223.83C118.759 223.83 118.189 224.233 117.802 225.04C117.422 225.84 117.232 227.18 117.232 229.06C117.232 230.1 117.269 230.963 117.342 231.65C117.422 232.33 117.552 232.867 117.732 233.26C117.912 233.653 118.146 233.933 118.432 234.1C118.726 234.26 119.086 234.34 119.512 234.34C120.019 234.34 120.439 234.17 120.772 233.83C121.112 233.483 121.366 232.923 121.532 232.15C121.699 231.37 121.782 230.34 121.782 229.06C121.782 227.7 121.709 226.64 121.562 225.88C121.422 225.12 121.186 224.59 120.852 224.29C120.526 223.983 120.079 223.83 119.512 223.83ZM121.242 224.28L121.922 225.92L117.982 234L117.172 232.66L121.242 224.28Z" fill="#57EB23"/>
<path d="M374.966 539.87C375.959 539.87 376.792 540.047 377.466 540.4C378.146 540.753 378.659 541.23 379.006 541.83C379.352 542.423 379.526 543.077 379.526 543.79C379.526 544.377 379.426 544.95 379.226 545.51C379.026 546.07 378.699 546.66 378.246 547.28C377.799 547.9 377.206 548.59 376.466 549.35C375.726 550.103 374.812 550.963 373.726 551.93H379.846L379.556 554H370.706V552.07C371.659 551.15 372.482 550.34 373.176 549.64C373.869 548.933 374.449 548.31 374.916 547.77C375.389 547.23 375.762 546.747 376.036 546.32C376.316 545.887 376.516 545.483 376.636 545.11C376.756 544.737 376.816 544.363 376.816 543.99C376.816 543.357 376.632 542.857 376.266 542.49C375.906 542.123 375.399 541.94 374.746 541.94C374.166 541.94 373.672 542.053 373.266 542.28C372.866 542.5 372.472 542.86 372.086 543.36L370.426 542.1C370.952 541.393 371.579 540.847 372.306 540.46C373.032 540.067 373.919 539.87 374.966 539.87ZM387.168 539.87C388.761 539.87 389.964 540.5 390.778 541.76C391.591 543.013 391.998 544.78 391.998 547.06C391.998 549.347 391.591 551.127 390.778 552.4C389.964 553.667 388.761 554.3 387.168 554.3C385.568 554.3 384.361 553.667 383.548 552.4C382.741 551.127 382.338 549.347 382.338 547.06C382.338 544.78 382.741 543.013 383.548 541.76C384.361 540.5 385.568 539.87 387.168 539.87ZM387.168 541.83C386.414 541.83 385.844 542.233 385.458 543.04C385.078 543.84 384.888 545.18 384.888 547.06C384.888 548.1 384.924 548.963 384.998 549.65C385.078 550.33 385.208 550.867 385.388 551.26C385.568 551.653 385.801 551.933 386.088 552.1C386.381 552.26 386.741 552.34 387.168 552.34C387.674 552.34 388.094 552.17 388.428 551.83C388.768 551.483 389.021 550.923 389.188 550.15C389.354 549.37 389.438 548.34 389.438 547.06C389.438 545.7 389.364 544.64 389.218 543.88C389.078 543.12 388.841 542.59 388.508 542.29C388.181 541.983 387.734 541.83 387.168 541.83ZM388.898 542.28L389.578 543.92L385.638 552L384.828 550.66L388.898 542.28ZM397.84 539.87L400.08 540.72L396.66 548.93H403.73V550.94H393.92V549.14L397.84 539.87ZM402.21 545.39V554H399.67L399.64 549.25L399.98 545.39H402.21ZM409.552 554.27L407.062 553.5L412.302 542.21H406.082V540.17H414.972V542.01L409.552 554.27Z" fill="#57EB23"/>
<circle cx="269.117" cy="480.145" r="11.6994" fill="#56E723" stroke="black" stroke-width="4"/>
<circle cx="226.063" cy="300.096" r="11.6994" fill="#56E723" stroke="black" stroke-width="4"/>
<defs>
<linearGradient id="paint0_linear_505_1655" x1="406.798" y1="19.4668" x2="459.051" y2="51.4185" gradientUnits="userSpaceOnUse">
<stop stop-color="#CB8D31"/>
<stop offset="0.317708" stop-color="#C89350"/>
<stop offset="0.666667" stop-color="#FFD089"/>
<stop offset="1" stop-color="#CF9B3B"/>
</linearGradient>
<linearGradient id="paint1_linear_505_1655" x1="75.0364" y1="19.4668" x2="22.0434" y2="52.9164" gradientUnits="userSpaceOnUse">
<stop stop-color="#CB8D31"/>
<stop offset="0.317708" stop-color="#C89350"/>
<stop offset="0.666667" stop-color="#FFD089"/>
<stop offset="1" stop-color="#CF9B3B"/>
</linearGradient>
<linearGradient id="paint2_linear_505_1655" x1="72.7238" y1="717.72" x2="20.4709" y2="685.768" gradientUnits="userSpaceOnUse">
<stop stop-color="#CB8D31"/>
<stop offset="0.317708" stop-color="#C89350"/>
<stop offset="0.666667" stop-color="#FFD089"/>
<stop offset="1" stop-color="#CF9B3B"/>
</linearGradient>
<linearGradient id="paint3_linear_505_1655" x1="459.722" y1="664.796" x2="427.77" y2="717.049" gradientUnits="userSpaceOnUse">
<stop stop-color="#CB8D31"/>
<stop offset="0.317708" stop-color="#C89350"/>
<stop offset="0.666667" stop-color="#FFD089"/>
<stop offset="1" stop-color="#CF9B3B"/>
</linearGradient>
</defs>
</svg>
