<svg width="480" height="738" viewBox="0 0 480 738" fill="none" xmlns="http://www.w3.org/2000/svg">
<rect x="6.8291" y="2.91409" width="465.864" height="728.109" rx="3" fill="#5F3C13" stroke="black" stroke-width="4"/>
<rect x="32.3125" y="28.3987" width="418.809" height="681.054" fill="black"/>
<path d="M471.521 1H360.151C358.512 1 357.184 2.32869 357.184 3.96772C357.184 4.98674 357.706 5.93451 358.568 6.47803L473.175 78.7447C473.731 79.0958 474.376 79.2821 475.034 79.2821C476.96 79.2821 478.521 77.7211 478.521 75.7956V8C478.521 4.13401 475.387 1 471.521 1Z" fill="url(#paint0_linear_741_290)" stroke="black"/>
<path d="M7.9996 1H123.301C124.93 1 126.251 2.32076 126.251 3.95001C126.251 4.97788 125.716 5.93165 124.839 6.46748L6.50759 78.7512C5.93925 79.0984 5.28618 79.2821 4.62019 79.2821C2.62061 79.2821 0.999611 77.6611 0.999611 75.6615V8C0.999611 4.13401 4.13361 1 7.9996 1Z" fill="url(#paint1_linear_741_290)" stroke="black"/>
<path d="M8.00064 736.852H119.37C121.009 736.852 122.338 735.523 122.338 733.884C122.338 732.865 121.815 731.917 120.953 731.374L6.34679 659.107C5.79005 658.756 5.14532 658.57 4.48714 658.57C2.5616 658.57 1.00063 660.131 1.00063 662.056V729.852C1.00063 733.718 4.13464 736.852 8.00064 736.852Z" fill="url(#paint2_linear_741_290)" stroke="black"/>
<path d="M478.521 729.852V618.482C478.521 616.843 477.193 615.515 475.554 615.515C474.535 615.515 473.587 616.037 473.043 616.899L400.777 731.506C400.426 732.062 400.239 732.707 400.239 733.365C400.239 735.291 401.8 736.852 403.726 736.852H471.521C475.387 736.852 478.521 733.718 478.521 729.852Z" fill="url(#paint3_linear_741_290)" stroke="black"/>
<path d="M176.789 684.37H171.101L170.026 688.333H166.489L171.901 671.045H176.101L181.501 688.333H177.864L176.789 684.37ZM171.714 681.808H176.151L173.939 673.608L171.714 681.808ZM190.784 675.095V685.995H194.272V688.333H183.609V685.995H187.484V677.433H183.734V675.095H190.784ZM188.647 668.42C189.255 668.42 189.747 668.608 190.122 668.983C190.505 669.358 190.697 669.824 190.697 670.383C190.697 670.941 190.505 671.412 190.122 671.795C189.747 672.17 189.255 672.358 188.647 672.358C188.038 672.358 187.542 672.17 187.159 671.795C186.776 671.412 186.584 670.941 186.584 670.383C186.584 669.824 186.776 669.358 187.159 668.983C187.542 668.608 188.038 668.42 188.647 668.42ZM203.342 674.72C204.658 674.72 205.775 675.008 206.692 675.583C207.608 676.158 208.304 676.97 208.779 678.02C209.263 679.062 209.504 680.283 209.504 681.683C209.504 683.116 209.263 684.358 208.779 685.408C208.296 686.458 207.596 687.27 206.679 687.845C205.763 688.42 204.646 688.708 203.329 688.708C202.021 688.708 200.904 688.429 199.979 687.87C199.063 687.304 198.363 686.499 197.879 685.458C197.396 684.408 197.154 683.158 197.154 681.708C197.154 680.324 197.396 679.108 197.879 678.058C198.363 677.008 199.067 676.191 199.992 675.608C200.917 675.016 202.033 674.72 203.342 674.72ZM203.342 677.208C202.417 677.208 201.725 677.57 201.267 678.295C200.817 679.02 200.592 680.158 200.592 681.708C200.592 683.274 200.817 684.42 201.267 685.145C201.717 685.862 202.404 686.22 203.329 686.22C204.254 686.22 204.942 685.862 205.392 685.145C205.842 684.42 206.067 683.266 206.067 681.683C206.067 680.141 205.842 679.012 205.392 678.295C204.942 677.57 204.258 677.208 203.342 677.208ZM212.512 688.333V675.095H215.387L215.625 676.733C216.191 676.066 216.829 675.566 217.537 675.233C218.245 674.891 219.008 674.72 219.825 674.72C221.016 674.72 221.925 675.066 222.55 675.758C223.175 676.441 223.487 677.404 223.487 678.645V688.333H220.187V679.933C220.187 679.266 220.145 678.733 220.062 678.333C219.979 677.924 219.82 677.633 219.587 677.458C219.354 677.274 219.016 677.183 218.575 677.183C218.216 677.183 217.87 677.262 217.537 677.42C217.212 677.579 216.904 677.791 216.612 678.058C216.329 678.324 216.062 678.62 215.812 678.945V688.333H212.512ZM248.79 670.67C249.99 670.67 251.007 670.829 251.84 671.145C252.673 671.454 253.444 671.899 254.153 672.483L252.415 674.545C251.923 674.129 251.382 673.812 250.79 673.595C250.207 673.379 249.582 673.27 248.915 673.27C248.115 673.27 247.378 673.483 246.703 673.908C246.036 674.333 245.498 675.016 245.09 675.958C244.69 676.891 244.49 678.124 244.49 679.658C244.49 681.166 244.682 682.387 245.065 683.32C245.457 684.254 245.986 684.937 246.653 685.37C247.328 685.795 248.09 686.008 248.94 686.008C249.84 686.008 250.586 685.849 251.178 685.533C251.769 685.216 252.303 684.87 252.778 684.495L254.39 686.533C253.782 687.133 253.019 687.645 252.103 688.07C251.194 688.495 250.09 688.708 248.79 688.708C247.282 688.708 245.936 688.362 244.753 687.67C243.569 686.979 242.64 685.962 241.965 684.62C241.29 683.279 240.953 681.624 240.953 679.658C240.953 677.724 241.298 676.091 241.99 674.758C242.69 673.416 243.632 672.399 244.815 671.708C246.007 671.016 247.332 670.67 248.79 670.67ZM262.023 674.72C263.339 674.72 264.456 675.008 265.373 675.583C266.289 676.158 266.985 676.97 267.46 678.02C267.944 679.062 268.185 680.283 268.185 681.683C268.185 683.116 267.944 684.358 267.46 685.408C266.977 686.458 266.277 687.27 265.36 687.845C264.444 688.42 263.327 688.708 262.01 688.708C260.702 688.708 259.585 688.429 258.66 687.87C257.744 687.304 257.044 686.499 256.56 685.458C256.077 684.408 255.835 683.158 255.835 681.708C255.835 680.324 256.077 679.108 256.56 678.058C257.044 677.008 257.748 676.191 258.673 675.608C259.598 675.016 260.714 674.72 262.023 674.72ZM262.023 677.208C261.098 677.208 260.406 677.57 259.948 678.295C259.498 679.02 259.273 680.158 259.273 681.708C259.273 683.274 259.498 684.42 259.948 685.145C260.398 685.862 261.085 686.22 262.01 686.22C262.935 686.22 263.623 685.862 264.073 685.145C264.523 684.42 264.748 683.266 264.748 681.683C264.748 680.141 264.523 679.012 264.073 678.295C263.623 677.57 262.939 677.208 262.023 677.208ZM271.318 688.333V686.045H273.18V677.37H271.318V675.095H275.693L276.305 678.133C276.789 677.008 277.397 676.162 278.13 675.595C278.864 675.02 279.785 674.733 280.893 674.733C281.318 674.733 281.693 674.766 282.018 674.833C282.351 674.899 282.668 674.987 282.968 675.095L281.98 677.87C281.722 677.804 281.476 677.754 281.243 677.72C281.01 677.679 280.747 677.658 280.455 677.658C279.539 677.658 278.739 678.016 278.055 678.733C277.38 679.441 276.855 680.404 276.48 681.62V686.045H279.118V688.333H271.318ZM280.18 680.258V676.745L280.63 675.095H282.968L282.38 680.258H280.18ZM292.701 674.72C293.867 674.72 294.801 675.008 295.501 675.583C296.209 676.149 296.722 676.954 297.038 677.995C297.363 679.037 297.526 680.266 297.526 681.683C297.526 683.041 297.33 684.249 296.938 685.308C296.547 686.366 295.972 687.199 295.213 687.808C294.463 688.408 293.538 688.708 292.438 688.708C291.088 688.708 289.997 688.229 289.163 687.27V693.433L285.863 693.783V675.095H288.763L288.938 676.708C289.463 676.024 290.051 675.524 290.701 675.208C291.351 674.883 292.017 674.72 292.701 674.72ZM291.738 677.195C291.18 677.195 290.688 677.362 290.263 677.695C289.847 678.029 289.48 678.441 289.163 678.933V684.858C289.463 685.308 289.805 685.645 290.188 685.87C290.572 686.095 291.005 686.208 291.488 686.208C292.33 686.208 292.972 685.858 293.413 685.158C293.863 684.449 294.088 683.304 294.088 681.72C294.088 680.604 293.997 679.716 293.813 679.058C293.638 678.391 293.376 677.916 293.026 677.633C292.676 677.341 292.247 677.195 291.738 677.195ZM303.433 686.12C303.433 685.654 303.546 685.224 303.771 684.833C304.004 684.441 304.317 684.129 304.708 683.895C305.1 683.662 305.533 683.545 306.008 683.545C306.492 683.545 306.929 683.662 307.321 683.895C307.713 684.129 308.021 684.441 308.246 684.833C308.479 685.224 308.596 685.654 308.596 686.12C308.596 686.587 308.479 687.02 308.246 687.42C308.021 687.812 307.713 688.124 307.321 688.358C306.929 688.591 306.492 688.708 306.008 688.708C305.533 688.708 305.1 688.591 304.708 688.358C304.317 688.124 304.004 687.812 303.771 687.42C303.546 687.02 303.433 686.587 303.433 686.12Z" fill="#57EB23"/>
<path d="M339.616 176.517L323.296 177.089L323.869 193.409L340.188 192.837L339.616 176.517ZM224.104 300.429L222.641 299.065L221.889 299.872L222.17 300.939L224.104 300.429ZM271.074 478.521L272.499 479.923L273.298 479.112L273.007 478.011L271.074 478.521ZM143.595 608.089L159.924 607.956L159.792 591.627L143.462 591.76L143.595 608.089ZM330.279 183.599L222.641 299.065L225.567 301.793L333.205 186.327L330.279 183.599ZM222.17 300.939L269.14 479.031L273.007 478.011L226.038 299.919L222.17 300.939ZM269.648 477.118L150.268 598.455L153.119 601.261L272.499 479.923L269.648 477.118Z" fill="#57EB23"/>
<path d="M218.233 288.687L192.792 231.932H134.08" stroke="#23DFEB" stroke-width="2"/>
<path d="M274.987 494.177L300.429 550.932H359.141" stroke="#23DFEB" stroke-width="2"/>
<path d="M86.5856 222.503V235.933H83.9956V225.163L81.0456 226.993L79.9156 225.163L84.2556 222.503H86.5856ZM89.2756 234.303V236.333H80.6456V234.303H89.2756ZM96.0378 222.203C97.1245 222.203 98.0278 222.436 98.7478 222.903C99.4745 223.369 100.018 224.019 100.378 224.853C100.744 225.686 100.928 226.659 100.928 227.773C100.928 229.119 100.768 230.296 100.448 231.303C100.134 232.303 99.6478 233.159 98.9878 233.873C98.3345 234.579 97.4978 235.176 96.4778 235.663C95.4645 236.149 94.2611 236.553 92.8678 236.873L92.3078 234.983C93.5345 234.656 94.5645 234.263 95.3978 233.803C96.2311 233.343 96.8778 232.776 97.3378 232.103C97.7978 231.429 98.0811 230.613 98.1878 229.653L98.1978 228.623C98.2111 227.583 98.1545 226.733 98.0278 226.073C97.9078 225.413 97.6878 224.926 97.3678 224.613C97.0545 224.299 96.6078 224.143 96.0278 224.143C95.3478 224.143 94.8178 224.379 94.4378 224.853C94.0645 225.319 93.8778 226.033 93.8778 226.993C93.8778 227.913 94.0645 228.569 94.4378 228.963C94.8111 229.349 95.2878 229.543 95.8678 229.543C96.4078 229.543 96.8878 229.413 97.3078 229.153C97.7278 228.886 98.1378 228.513 98.5378 228.033L98.5078 229.703C98.0478 230.236 97.5478 230.663 97.0078 230.983C96.4745 231.296 95.8478 231.453 95.1278 231.453C94.3878 231.453 93.7211 231.273 93.1278 230.913C92.5345 230.546 92.0645 230.033 91.7178 229.373C91.3711 228.713 91.1978 227.929 91.1978 227.023C91.1978 226.029 91.4111 225.173 91.8378 224.453C92.2711 223.733 92.8511 223.179 93.5778 222.793C94.3111 222.399 95.1311 222.203 96.0378 222.203ZM106.84 222.203L109.08 223.053L105.66 231.263H112.73V233.273H102.92V231.473L106.84 222.203ZM111.21 227.723V236.333H108.67L108.64 231.583L108.98 227.723H111.21ZM119.512 222.203C121.106 222.203 122.309 222.833 123.122 224.093C123.936 225.346 124.342 227.113 124.342 229.393C124.342 231.679 123.936 233.459 123.122 234.733C122.309 235.999 121.106 236.633 119.512 236.633C117.912 236.633 116.706 235.999 115.892 234.733C115.086 233.459 114.682 231.679 114.682 229.393C114.682 227.113 115.086 225.346 115.892 224.093C116.706 222.833 117.912 222.203 119.512 222.203ZM119.512 224.163C118.759 224.163 118.189 224.566 117.802 225.373C117.422 226.173 117.232 227.513 117.232 229.393C117.232 230.433 117.269 231.296 117.342 231.983C117.422 232.663 117.552 233.199 117.732 233.593C117.912 233.986 118.146 234.266 118.432 234.433C118.726 234.593 119.086 234.673 119.512 234.673C120.019 234.673 120.439 234.503 120.772 234.163C121.112 233.816 121.366 233.256 121.532 232.483C121.699 231.703 121.782 230.673 121.782 229.393C121.782 228.033 121.709 226.973 121.562 226.213C121.422 225.453 121.186 224.923 120.852 224.623C120.526 224.316 120.079 224.163 119.512 224.163ZM121.242 224.613L121.922 226.253L117.982 234.333L117.172 232.993L121.242 224.613Z" fill="#57EB23"/>
<path d="M374.966 540.203C375.959 540.203 376.792 540.379 377.466 540.733C378.146 541.086 378.659 541.563 379.006 542.163C379.352 542.756 379.526 543.409 379.526 544.123C379.526 544.709 379.426 545.283 379.226 545.843C379.026 546.403 378.699 546.993 378.246 547.613C377.799 548.233 377.206 548.923 376.466 549.683C375.726 550.436 374.812 551.296 373.726 552.263H379.846L379.556 554.333H370.706V552.403C371.659 551.483 372.482 550.673 373.176 549.973C373.869 549.266 374.449 548.643 374.916 548.103C375.389 547.563 375.762 547.079 376.036 546.653C376.316 546.219 376.516 545.816 376.636 545.443C376.756 545.069 376.816 544.696 376.816 544.323C376.816 543.689 376.632 543.189 376.266 542.823C375.906 542.456 375.399 542.273 374.746 542.273C374.166 542.273 373.672 542.386 373.266 542.613C372.866 542.833 372.472 543.193 372.086 543.693L370.426 542.433C370.952 541.726 371.579 541.179 372.306 540.793C373.032 540.399 373.919 540.203 374.966 540.203ZM387.168 540.203C388.761 540.203 389.964 540.833 390.778 542.093C391.591 543.346 391.998 545.113 391.998 547.393C391.998 549.679 391.591 551.459 390.778 552.733C389.964 553.999 388.761 554.633 387.168 554.633C385.568 554.633 384.361 553.999 383.548 552.733C382.741 551.459 382.338 549.679 382.338 547.393C382.338 545.113 382.741 543.346 383.548 542.093C384.361 540.833 385.568 540.203 387.168 540.203ZM387.168 542.163C386.414 542.163 385.844 542.566 385.458 543.373C385.078 544.173 384.888 545.513 384.888 547.393C384.888 548.433 384.924 549.296 384.998 549.983C385.078 550.663 385.208 551.199 385.388 551.593C385.568 551.986 385.801 552.266 386.088 552.433C386.381 552.593 386.741 552.673 387.168 552.673C387.674 552.673 388.094 552.503 388.428 552.163C388.768 551.816 389.021 551.256 389.188 550.483C389.354 549.703 389.438 548.673 389.438 547.393C389.438 546.033 389.364 544.973 389.218 544.213C389.078 543.453 388.841 542.923 388.508 542.623C388.181 542.316 387.734 542.163 387.168 542.163ZM388.898 542.613L389.578 544.253L385.638 552.333L384.828 550.993L388.898 542.613ZM397.84 540.203L400.08 541.053L396.66 549.263H403.73V551.273H393.92V549.473L397.84 540.203ZM402.21 545.723V554.333H399.67L399.64 549.583L399.98 545.723H402.21ZM409.552 554.603L407.062 553.833L412.302 542.543H406.082V540.503H414.972V542.343L409.552 554.603Z" fill="#57EB23"/>
<circle cx="269.117" cy="480.478" r="11.6994" fill="#56E723" stroke="black" stroke-width="4"/>
<circle cx="226.063" cy="300.429" r="11.6994" fill="#56E723" stroke="black" stroke-width="4"/>
<defs>
<linearGradient id="paint0_linear_741_290" x1="406.798" y1="19.7995" x2="459.051" y2="51.7512" gradientUnits="userSpaceOnUse">
<stop stop-color="#CB8D31"/>
<stop offset="0.317708" stop-color="#C89350"/>
<stop offset="0.666667" stop-color="#FFD089"/>
<stop offset="1" stop-color="#CF9B3B"/>
</linearGradient>
<linearGradient id="paint1_linear_741_290" x1="75.0364" y1="19.7995" x2="22.0434" y2="53.2491" gradientUnits="userSpaceOnUse">
<stop stop-color="#CB8D31"/>
<stop offset="0.317708" stop-color="#C89350"/>
<stop offset="0.666667" stop-color="#FFD089"/>
<stop offset="1" stop-color="#CF9B3B"/>
</linearGradient>
<linearGradient id="paint2_linear_741_290" x1="72.7238" y1="718.052" x2="20.4709" y2="686.101" gradientUnits="userSpaceOnUse">
<stop stop-color="#CB8D31"/>
<stop offset="0.317708" stop-color="#C89350"/>
<stop offset="0.666667" stop-color="#FFD089"/>
<stop offset="1" stop-color="#CF9B3B"/>
</linearGradient>
<linearGradient id="paint3_linear_741_290" x1="459.722" y1="665.129" x2="427.77" y2="717.382" gradientUnits="userSpaceOnUse">
<stop stop-color="#CB8D31"/>
<stop offset="0.317708" stop-color="#C89350"/>
<stop offset="0.666667" stop-color="#FFD089"/>
<stop offset="1" stop-color="#CF9B3B"/>
</linearGradient>
</defs>
</svg>
