<svg width="176" height="217" viewBox="0 0 176 217" fill="none" xmlns="http://www.w3.org/2000/svg">
<path d="M142.471 2.66431L175.479 51.6231L176.001 206.552H163.277L162.651 54.3073L125.211 2.66431H142.471Z" fill="#004497"/>
<path d="M1 1H129.173L166.614 52.6429L167.187 216H1V158.774V151.366L11.3769 139.878L1 129.087V124.9L11.3769 114.325L1 100.85V1Z" fill="url(#paint0_linear_381_233)" stroke="black" stroke-miterlimit="10"/>
<path opacity="0.84" d="M34.3213 32.5654V189.803H143.827V96.126H96.7393L143.827 61.2858L34.3213 32.5654Z" fill="url(#paint1_radial_381_233)" stroke="#007CBC" stroke-width="2" stroke-miterlimit="10"/>
<path d="M141.74 41.1013C130.372 39.2761 112.904 34.2299 101.588 31.4383C90.3247 28.4321 72.6474 24.4059 61.749 20.4333C73.1167 22.2586 90.5854 27.3048 101.901 30.0963C113.164 33.1025 130.842 37.1287 141.74 41.1013Z" fill="#00EFFF"/>
<path d="M141.741 41.1013L61.8018 20.4333" stroke="#0091FF" stroke-width="0.05" stroke-miterlimit="10"/>
<path d="M138.038 32.5119C130.06 31.492 118.379 27.6805 110.505 25.6405C102.788 23.4395 90.6377 20.5943 83.2852 17.4807C91.1591 18.5007 103.1 22.3122 110.818 24.3521C118.692 26.6605 130.529 29.291 138.038 32.5119Z" fill="#00DFFF"/>
<path d="M138.038 32.5119L83.2852 17.4807" stroke="#0091FF" stroke-width="0.03" stroke-miterlimit="10"/>
<path d="M12.4969 114.75C11.2976 114.106 10.6325 113.071 9.8503 111.89L7.08659 108.347C6.14797 107.166 3.80143 104.213 2.91496 103.086L1.51953 100.375L3.90572 102.227C4.79219 103.354 7.19088 106.36 8.07735 107.488L10.8411 111.031C11.7797 112.051 12.1319 113.408 12.4969 114.75Z" fill="#00E9FF"/>
<path d="M1.63867 125.398C2.05584 124.164 2.99445 122.929 3.98522 122.124L6.74892 119.279C7.68754 118.366 10.0341 115.95 10.9206 115.038L12.7456 114.125L11.807 116.004C10.9206 116.917 8.52187 119.332 7.63539 120.245L4.87169 123.09C4.03736 124.056 2.83802 125.023 1.63867 125.452V125.398Z" fill="#00E9FF"/>
<path d="M12.8103 139.716C11.6109 139.34 10.3073 138.374 9.47296 137.407L6.60496 134.616C5.66635 133.703 3.21551 131.287 2.2769 130.375L1.28613 128.496L3.16337 129.408C4.04984 130.267 6.55282 132.737 7.49144 133.649L10.3594 136.441C11.3502 137.246 12.341 138.535 12.8103 139.716Z" fill="#00E9FF"/>
<path d="M1.5459 151.956C1.96306 150.668 3.00597 149.272 3.99673 148.36L6.74894 145.375C7.68756 144.355 9.9812 141.625 10.9198 140.659L12.8492 139.585L11.8584 141.625C10.9198 142.591 8.79411 145.192 7.85549 146.212L4.93535 149.326C4.10102 150.346 2.79739 151.473 1.5459 152.01V151.956Z" fill="#00E9FF"/>
<defs>
<linearGradient id="paint0_linear_381_233" x1="-2.18087" y1="21.829" x2="151.575" y2="208.743" gradientUnits="userSpaceOnUse">
<stop stop-color="#4D607A"/>
<stop offset="0.17" stop-color="#455E7B"/>
<stop offset="0.41" stop-color="#305B7F"/>
<stop offset="0.72" stop-color="#0E5785"/>
<stop offset="0.82" stop-color="#005588"/>
</linearGradient>
<radialGradient id="paint1_radial_381_233" cx="0" cy="0" r="1" gradientUnits="userSpaceOnUse" gradientTransform="translate(89.074 111.211) scale(66.4332 68.392)">
<stop offset="0.45" stop-color="#00FFFF"/>
<stop offset="0.61" stop-color="#00FBFF"/>
<stop offset="0.75" stop-color="#00F0FF"/>
<stop offset="0.89" stop-color="#00DEFF"/>
<stop offset="1" stop-color="#00CAFF"/>
</radialGradient>
</defs>
</svg>
