<svg width="405" height="219" viewBox="0 0 405 219" fill="none" xmlns="http://www.w3.org/2000/svg">
<g clip-path="url(#clip0_312_1269)">
<path d="M17.2524 71.292C29.9086 66.7518 42.5649 62.7684 55.1782 58.2282L104.516 53.8165C100.269 55.9581 95.335 58.0997 89.7577 60.0272C87.6554 60.7553 82.2068 62.5971 70.7089 64.9528C67.7916 65.5525 58.1814 67.5228 44.0236 69.3217C36.9446 70.2212 27.8922 70.6067 17.2095 71.292H17.2524Z" fill="#42210B" stroke="black" stroke-width="0.05" stroke-miterlimit="10"/>
<path d="M396.554 73.1338L360.516 59.9844H330.141C337.691 63.7536 347.859 67.9511 360.301 70.7352C374.759 73.9904 387.33 73.6478 396.597 73.1338H396.554Z" fill="#42210B" stroke="black" stroke-width="0.05" stroke-miterlimit="10"/>
<path d="M82.0352 211.909C82.0352 212.381 82.2497 216.064 80.8768 217.563C78.8175 219.833 75.4711 219.277 75.0421 219.234C54.2343 219.405 25.2751 218.334 4.03835 218.463C2.96578 218.463 1.97902 217.906 1.5071 216.921C-0.595128 212.552 4.51027 205.999 4.63898 205.827C5.28252 205.87 5.84025 210.025 6.48379 210.068C32.6543 212.124 82.0352 211.909 82.0352 211.909Z" fill="#603813" stroke="black" stroke-width="0.1" stroke-miterlimit="10"/>
<path d="M88.1272 204.928C88.1272 205.399 87.5695 207.583 85.8105 209.768C84.3947 211.567 80.8338 211.61 80.4048 211.567C59.5112 211.738 28.6214 210.582 7.38464 210.71C6.6982 210.71 6.01176 210.453 5.62564 209.896C2.57956 205.527 7.89947 198.717 8.02818 198.503C8.67172 198.546 8.3285 202.187 8.97204 202.229C35.1426 204.328 61.9567 202.829 88.1272 204.928Z" fill="#603813" stroke="black" stroke-width="0.1" stroke-miterlimit="10"/>
<path d="M329.926 210.839C329.926 211.31 329.755 214.993 330.999 216.492C332.887 218.763 336.018 218.206 336.447 218.163C355.839 218.334 382.868 217.263 402.646 217.392C403.633 217.392 404.577 216.835 405.006 215.85C406.979 211.481 402.217 204.928 402.088 204.756C401.488 204.799 400.973 208.954 400.372 208.997C375.961 211.053 329.926 210.839 329.926 210.839Z" fill="#603813" stroke="black" stroke-width="0.15" stroke-miterlimit="10"/>
<path d="M324.22 203.857C324.22 204.328 324.735 206.513 326.365 208.697C327.695 210.496 330.999 210.539 331.428 210.496C350.906 210.667 379.736 209.511 399.514 209.639C400.158 209.639 400.801 209.382 401.144 208.826C403.976 204.457 398.742 197.646 398.613 197.432C398.013 197.475 397.97 201.116 397.369 201.159C372.957 203.257 348.589 201.758 324.177 203.857H324.22Z" fill="#603813" stroke="black" stroke-width="0.15" stroke-miterlimit="10"/>
<path d="M17.2524 71.8488C17.3811 76.1748 17.5527 82.514 17.6385 90.2237C17.853 110.826 17.9388 121.32 16.0511 130.186C14.6353 136.868 11.6751 146.591 4.72485 157.727C5.96903 171.733 7.47062 187.709 8.71479 201.844C8.80059 202.658 9.44413 203.3 10.3022 203.343C36.344 204.885 62.1285 203.215 88.1703 204.842C88.5993 204.071 89.9722 202.272 92.6751 201.501C95.6782 200.645 98.3811 200.388 99.2392 200.516C169.299 199.531 241.161 200.602 311.221 199.617C312.465 199.445 317.913 199.274 320.273 199.617C322.032 199.874 323.362 201.887 324.263 202.958C349.533 202.272 372.142 201.844 397.412 201.201L404.233 158.241C402.303 155.671 399.428 151.431 397.197 145.734C392.564 134.127 393.722 124.832 395.267 99.1328C395.61 93.6503 396.125 84.8269 396.64 73.6906C390.462 73.6906 382.053 73.3051 372.185 71.8488C360.473 70.0927 340.652 65.8951 316.069 53.3025C277.37 33.4713 280.459 19.2083 253.388 8.71443C217.95 -5.03464 184.015 3.48892 178.523 4.94521C135.32 16.3814 126.525 51.8034 84.3949 62.0403C67.3197 66.195 47.0268 68.9362 47.0268 68.9362C34.8424 70.6067 24.6316 71.4205 17.424 71.8488H17.2524Z" fill="#603813" stroke="black" stroke-width="0.25" stroke-miterlimit="10"/>
<path d="M125.281 99.9895L125.71 120.806C125.71 120.806 128.627 122.99 130.901 120.549L130.172 100.032C130.172 99.4326 127.126 97.548 125.281 100.032V99.9895Z" fill="#666666" stroke="#1A1A1A" stroke-width="0.08" stroke-miterlimit="10"/>
<path d="M127.726 101.617C129.077 101.617 130.172 100.965 130.172 100.161C130.172 99.3565 129.077 98.7045 127.726 98.7045C126.376 98.7045 125.281 99.3565 125.281 100.161C125.281 100.965 126.376 101.617 127.726 101.617Z" fill="#1A1A1A"/>
<path d="M125.281 106.543C125.281 106.543 127.855 108.641 130.386 106.543" stroke="#1A1A1A" stroke-width="0.05" stroke-miterlimit="10"/>
<path d="M125.538 112.411C125.538 112.411 127.855 114.424 130.515 112.368" stroke="#1A1A1A" stroke-width="0.05" stroke-miterlimit="10"/>
<path d="M17.2524 71.806C24.7604 115.623 32.3112 159.483 39.8192 203.3L88.1704 204.928C82.593 158.798 76.3721 111.383 70.7948 65.2527C61.0988 67.4371 50.2016 69.3646 38.2318 70.5639C30.8525 71.292 23.8165 71.6775 17.2524 71.806Z" fill="#42210B" stroke="black" stroke-width="0.05" stroke-miterlimit="10"/>
<path d="M210.657 187.024C254.302 187.024 289.684 151.701 289.684 108.127C289.684 64.554 254.302 29.2308 210.657 29.2308C167.012 29.2308 131.631 64.554 131.631 108.127C131.631 151.701 167.012 187.024 210.657 187.024Z" fill="#2B140A" stroke="#2B140A" stroke-width="0.75" stroke-miterlimit="10"/>
<path d="M347.001 66.9659L326.065 202.315L373.944 201.373L396.554 74.5472C389.432 74.5472 381.195 74.076 372.099 72.7054C362.489 71.2491 354.08 69.1504 347.001 66.9231V66.9659Z" fill="#42210B" stroke="black" stroke-width="0.05" stroke-miterlimit="10"/>
<path d="M210.803 187.324C254.447 187.324 289.828 152.001 289.828 108.429C289.828 64.8561 254.447 29.5336 210.803 29.5336C167.159 29.5336 131.778 64.8561 131.778 108.429C131.778 152.001 167.159 187.324 210.803 187.324Z" fill="#391E00" stroke="#2B140A" stroke-width="0.75" stroke-miterlimit="10"/>
<path d="M151.813 159.055C156.446 163.938 176.353 183.897 207.843 185.353C244.18 187.024 267.734 162.867 271.552 158.798C236.973 159.697 186.349 158.155 151.813 159.055Z" fill="#2B140A"/>
<path d="M239.561 122.019L241.061 137.547L221.364 172.993L218.372 171.317L237.701 136.47L235.502 119.745L239.561 122.019Z" fill="#004497"/>
<path d="M206.504 103L236.647 119.887L238.845 136.612L218.083 173.99L179 152.095L186.321 139.027L187.268 137.336L191.178 136.079L190.118 132.248L190.654 131.292L194.447 130.244L193.731 125.8L206.504 103Z" fill="url(#paint0_linear_312_1269)" stroke="black" stroke-width="0.25" stroke-miterlimit="10"/>
<path opacity="0.84" d="M210.302 114.598L190.188 150.502L215.94 164.93L227.924 143.539L216.85 137.335L232.381 135.583L210.302 114.598Z" fill="url(#paint1_radial_312_1269)" stroke="#007CBC" stroke-width="0.5" stroke-miterlimit="10"/>
<path d="M234.472 130.699C232.033 128.785 228.57 125.331 226.266 123.203C224.002 121.032 220.36 117.784 218.305 115.441C220.745 117.356 224.207 120.809 226.511 122.938C228.776 125.108 232.418 128.356 234.472 130.699Z" fill="#00EFFF"/>
<path d="M234.472 130.699L218.317 115.448" stroke="#0091FF" stroke-width="0.05" stroke-miterlimit="10"/>
<path d="M234.7 128.25C232.955 126.966 230.695 124.557 229.104 123.054C227.571 121.534 225.078 119.284 223.747 117.604C225.468 118.875 227.789 121.318 229.343 122.801C230.899 124.365 233.346 126.525 234.7 128.25Z" fill="#00DFFF"/>
<path d="M234.7 128.25L223.747 117.604" stroke="#0091FF" stroke-width="0.03" stroke-miterlimit="10"/>
<path d="M194.882 130.504C194.682 130.199 194.54 129.733 194.508 129.36L194.311 128.187C194.241 127.794 194.067 126.81 194.003 126.436L194.076 125.817L194.346 126.371C194.41 126.745 194.59 127.747 194.654 128.121L194.85 129.295C194.941 129.651 194.975 130.137 194.889 130.492L194.882 130.504Z" fill="#00E9FF"/>
<path d="M190.828 131.615C191.084 131.388 191.462 131.23 191.798 131.176L192.812 130.891C193.15 130.806 194.011 130.564 194.336 130.472L194.882 130.504L194.421 130.809C194.096 130.901 193.222 131.137 192.897 131.228L191.883 131.514C191.563 131.624 191.158 131.687 190.821 131.627L190.828 131.615Z" fill="#00E9FF"/>
<path d="M191.661 136.253C191.427 136.009 191.244 135.617 191.172 135.286L190.854 134.271C190.75 133.939 190.483 133.064 190.379 132.732L190.386 132.173L190.711 132.629C190.81 132.941 191.082 133.835 191.186 134.167L191.504 135.182C191.634 135.497 191.702 135.922 191.661 136.253Z" fill="#00E9FF"/>
<path d="M187.37 137.586C187.633 137.346 188.057 137.165 188.406 137.087L189.491 136.761C189.843 136.652 190.775 136.369 191.119 136.272L191.71 136.281L191.216 136.616C190.872 136.713 189.94 136.996 189.589 137.105L188.504 137.432C188.177 137.555 187.726 137.64 187.363 137.598L187.37 137.586Z" fill="#00E9FF"/>
<path d="M103 187.793C115.979 187.793 126.5 152.47 126.5 108.897C126.5 65.3232 115.979 30 103 30C90.0213 30 79.5 65.3232 79.5 108.897C79.5 152.47 90.0213 187.793 103 187.793Z" fill="#7E7E71" stroke="#2B140A" stroke-width="0.75" stroke-miterlimit="10"/>
<path d="M103 187.793C115.979 187.793 126.5 152.47 126.5 108.897C126.5 65.3232 115.979 30 103 30C90.0213 30 79.5 65.3232 79.5 108.897C79.5 152.47 90.0213 187.793 103 187.793Z" fill="#7E7E71" stroke="#2B140A" stroke-width="0.75" stroke-miterlimit="10"/>
</g>
<defs>
<linearGradient id="paint0_linear_312_1269" x1="203.091" y1="107.337" x2="213.512" y2="170.577" gradientUnits="userSpaceOnUse">
<stop stop-color="#4D607A"/>
<stop offset="0.17" stop-color="#455E7B"/>
<stop offset="0.41" stop-color="#305B7F"/>
<stop offset="0.72" stop-color="#0E5785"/>
<stop offset="0.82" stop-color="#005588"/>
</linearGradient>
<radialGradient id="paint1_radial_312_1269" cx="0" cy="0" r="1" gradientUnits="userSpaceOnUse" gradientTransform="translate(213.118 139.77) rotate(29.2585) scale(17.908 17.9008)">
<stop offset="0.45" stop-color="#00FFFF"/>
<stop offset="0.61" stop-color="#00FBFF"/>
<stop offset="0.75" stop-color="#00F0FF"/>
<stop offset="0.89" stop-color="#00DEFF"/>
<stop offset="1" stop-color="#00CAFF"/>
</radialGradient>
<clipPath id="clip0_312_1269">
<rect width="405" height="219" fill="white"/>
</clipPath>
</defs>
</svg>
