<svg width="765" height="626" viewBox="0 0 765 626" fill="none" xmlns="http://www.w3.org/2000/svg">
<g clip-path="url(#clip0_502_884)">
<path d="M763.965 625.107H543.991H382.919H207.586H27.9874L0.910156 489.572L27.9874 339.534L47.9429 250.439L27.9874 173.545L10.8879 95.7031L27.9874 5.80504H233.254L365.82 16.9329L476.646 0.893066L763.965 5.80504L734.995 192.299L750.685 294.522L763.965 407.051L747.829 496.145L763.965 625.107Z" fill="white" stroke="black" stroke-miterlimit="10"/>
<path d="M229.737 372.256C229.969 333.014 230.184 293.772 230.416 254.53C255.619 299.863 280.84 345.178 306.043 390.511" stroke="black" stroke-width="8" stroke-miterlimit="10"/>
<path d="M302.474 276.035H217.726" stroke="black" stroke-miterlimit="10"/>
<path d="M343.312 280.322C336.548 310.651 329.783 340.962 323.018 371.292C320.662 341.838 318.306 312.366 315.95 282.912C353.986 322.118 392.005 361.325 430.042 400.549C384.294 357.217 346.793 305.203 320.144 248.099C352.594 272.909 385.044 297.737 417.512 322.547C416.155 309.061 407.248 296.594 394.968 290.932C395.147 305.846 420.35 345.66 432.13 354.77C443.911 363.879 443.018 343.856 452.96 354.966C416.476 332.746 385.811 301.042 364.785 263.853C418.529 285.377 469.756 313.187 517.11 346.535C474.112 354.77 427.115 335.908 401.715 300.22C440.894 292.289 480.984 306.114 517.914 321.422C444.642 319.118 371.05 316.831 298.279 325.673C368.516 328.191 438.931 325.744 508.81 318.332C510.863 318.117 513.112 317.796 514.522 316.278C518.271 312.169 500.118 267.997 494.959 265.979C464.134 253.887 445.232 280.304 414.406 268.212C459.083 267.211 503.902 283.894 537.084 313.83C497.28 309.311 458.119 299.345 420.992 284.287C471.773 296.969 519.252 322.708 557.61 358.36C543.367 333.711 531.872 307.507 523.375 280.34C525.892 313.348 535.245 345.821 550.649 375.132C554.29 382.062 562.09 389.85 568.552 385.456C571.301 383.581 572.407 380.115 573.068 376.865C577.441 355.877 571.408 333.8 560.841 315.17C550.274 296.54 535.406 280.751 520.716 265.175C517.449 261.71 513.701 258.03 508.953 257.78C503.384 257.495 498.886 262.014 494.977 265.997C483.411 277.768 470.078 287.806 455.548 295.647C441.751 303.096 425.312 267.604 416.53 254.601C413.388 264.496 405.178 313.491 399.466 322.154C397.592 324.994 415.905 361.378 412.621 362.254C404.143 364.504 379.082 319.403 377.244 310.83C373.763 294.558 365.874 279.25 354.611 267.015C349.506 286.127 344.401 305.257 339.278 324.369C338.19 328.441 335.316 333.586 331.3 332.282C325.606 307.347 314.111 283.751 297.975 263.907C302.92 292.825 308.756 321.583 315.521 350.126C315.325 340.141 311.612 322.601 318.984 316.635C325.963 311.008 351.702 312.491 360.805 311.544C389.952 308.543 419.225 306.704 448.516 305.989C402.09 312.241 351.577 317.724 311.344 293.736C333.031 299.398 354.718 305.078 376.405 310.74C378.761 311.366 381.474 311.919 383.491 310.58C385.401 309.311 385.99 306.793 386.347 304.525C388.81 289.128 387.971 273.213 383.902 258.155C378.975 304.292 371.889 350.179 362.697 395.655C364.517 355.752 363.875 315.742 360.787 275.928C355.057 304.024 372.478 331.317 390.773 353.376C368.498 328.138 346.222 302.899 323.946 277.66C364.589 284.698 404.143 297.969 440.823 316.849C452.103 322.654 463.491 329.334 470.649 339.819C392.326 331.281 316.949 297.451 258.511 244.581C276.753 251.654 294.995 258.727 313.236 265.782C373.014 288.949 433.04 312.187 495.424 326.977C444.75 306.722 394.593 285.18 345.008 262.407C356.128 265.211 366.802 269.766 376.53 275.856" stroke="black" stroke-width="5" stroke-miterlimit="10"/>
<path d="M221.938 328.334C238.394 327.709 254.869 327.906 271.308 328.906" stroke="black" stroke-width="9" stroke-miterlimit="10"/>
<path d="M566.302 267.712C551.291 271.052 538.083 279.75 525.678 288.824C499.528 307.954 475.2 329.531 453.067 353.198C442.554 364.451 432.505 376.222 424.24 389.225C420.046 395.816 416.208 403.729 418.546 411.195C422.438 394.601 426.329 377.99 430.202 361.396C437.324 330.978 444.464 300.506 454.281 270.855C456.78 263.318 459.51 255.726 464.223 249.35C474.557 276.571 484.874 303.81 495.209 331.031C493.121 308.186 491.014 285.359 488.926 262.514C498.029 273.963 503.759 287.681 509.363 301.202C519.073 324.601 528.765 348 538.475 371.399C532.425 355.52 526.391 339.659 520.341 323.779C512.059 302.042 503.777 280.286 494.852 258.799C487.998 242.33 480.68 225.826 469.845 211.661C468.899 262.907 491.246 312.473 490.05 363.7C490.033 364.683 489.979 365.719 489.426 366.54C487.605 369.238 483.446 366.683 481.536 364.058C467.079 344.213 461.063 319.636 455.352 295.754C459.243 327.191 464.116 358.503 469.952 389.636C457.476 338.462 441.09 288.235 420.992 239.561C444.089 272.981 462.491 309.972 472.041 349.465C448.373 323.369 423.705 298.184 398.127 273.945C443.553 305.168 490.586 334.032 538.993 360.396C508.971 358.145 479.841 345.41 457.779 324.905C452.442 319.939 447.284 314.116 446.034 306.936C445.677 304.828 445.677 302.578 446.677 300.684C447.569 299.005 449.158 297.809 450.693 296.683C457.511 291.664 464.312 286.645 471.13 281.608C468.774 309.365 470.416 337.462 476.039 364.754C477.967 308.097 479.912 251.172 490.693 195.514C496.262 203.606 497.458 213.841 498.422 223.629C502.456 264.782 505.347 306.025 508.239 347.268C507.578 316.688 506.954 285.77 513.594 255.923C517.306 295.147 521.037 334.371 524.749 373.614C526.213 372.274 526.017 369.559 524.375 368.452" stroke="black" stroke-width="5" stroke-miterlimit="10"/>
<g filter="url(#filter0_f_502_884)">
<path d="M67.2979 417.573L103.526 255.423L65.3585 58.0741" stroke="black" stroke-opacity="0.5" stroke-miterlimit="10"/>
</g>
<g filter="url(#filter1_f_502_884)">
<path d="M207.052 391.172L274.183 461.511L314.344 523.134L236.557 586.293" stroke="black" stroke-opacity="0.5" stroke-miterlimit="10"/>
</g>
<g filter="url(#filter2_f_502_884)">
<path d="M467.65 230.416L534.782 300.756L574.943 362.379L497.155 425.538" stroke="black" stroke-opacity="0.5" stroke-miterlimit="10"/>
</g>
<g filter="url(#filter3_f_502_884)">
<path d="M194.557 58.9437L232.04 135.749L301.849 190.906L450.693 169.686" stroke="black" stroke-opacity="0.35" stroke-miterlimit="10"/>
</g>
<g filter="url(#filter4_f_502_884)">
<path d="M380.188 81.2707L477.467 37.5094L572.96 30.7905L649.712 81.2708L723.251 86.412" stroke="black" stroke-opacity="0.34" stroke-miterlimit="10"/>
</g>
<g filter="url(#filter5_f_502_884)">
<path d="M678.271 328.656L722.502 403.193L707.758 486.696" stroke="black" stroke-opacity="0.5" stroke-miterlimit="10"/>
</g>
<g filter="url(#filter6_f_502_884)">
<path d="M508.703 599.132L587.974 599.132L668.863 586.472" stroke="black" stroke-opacity="0.5" stroke-miterlimit="10"/>
</g>
</g>
<defs>
<filter id="filter0_f_502_884" x="56.8672" y="49.9791" width="55.1699" height="375.703" filterUnits="userSpaceOnUse" color-interpolation-filters="sRGB">
<feFlood flood-opacity="0" result="BackgroundImageFix"/>
<feBlend mode="normal" in="SourceGraphic" in2="BackgroundImageFix" result="shape"/>
<feGaussianBlur stdDeviation="4" result="effect1_foregroundBlur_502_884"/>
</filter>
<filter id="filter1_f_502_884" x="198.69" y="382.827" width="124.318" height="211.855" filterUnits="userSpaceOnUse" color-interpolation-filters="sRGB">
<feFlood flood-opacity="0" result="BackgroundImageFix"/>
<feBlend mode="normal" in="SourceGraphic" in2="BackgroundImageFix" result="shape"/>
<feGaussianBlur stdDeviation="4" result="effect1_foregroundBlur_502_884"/>
</filter>
<filter id="filter2_f_502_884" x="459.289" y="222.071" width="124.318" height="211.855" filterUnits="userSpaceOnUse" color-interpolation-filters="sRGB">
<feFlood flood-opacity="0" result="BackgroundImageFix"/>
<feBlend mode="normal" in="SourceGraphic" in2="BackgroundImageFix" result="shape"/>
<feGaussianBlur stdDeviation="4" result="effect1_foregroundBlur_502_884"/>
</filter>
<filter id="filter3_f_502_884" x="186.107" y="50.7245" width="272.656" height="148.707" filterUnits="userSpaceOnUse" color-interpolation-filters="sRGB">
<feFlood flood-opacity="0" result="BackgroundImageFix"/>
<feBlend mode="normal" in="SourceGraphic" in2="BackgroundImageFix" result="shape"/>
<feGaussianBlur stdDeviation="4" result="effect1_foregroundBlur_502_884"/>
</filter>
<filter id="filter4_f_502_884" x="371.983" y="22.2799" width="359.302" height="72.6309" filterUnits="userSpaceOnUse" color-interpolation-filters="sRGB">
<feFlood flood-opacity="0" result="BackgroundImageFix"/>
<feBlend mode="normal" in="SourceGraphic" in2="BackgroundImageFix" result="shape"/>
<feGaussianBlur stdDeviation="4" result="effect1_foregroundBlur_502_884"/>
</filter>
<filter id="filter5_f_502_884" x="669.842" y="320.401" width="61.1855" height="174.383" filterUnits="userSpaceOnUse" color-interpolation-filters="sRGB">
<feFlood flood-opacity="0" result="BackgroundImageFix"/>
<feBlend mode="normal" in="SourceGraphic" in2="BackgroundImageFix" result="shape"/>
<feGaussianBlur stdDeviation="4" result="effect1_foregroundBlur_502_884"/>
</filter>
<filter id="filter6_f_502_884" x="500.703" y="577.978" width="176.238" height="29.6542" filterUnits="userSpaceOnUse" color-interpolation-filters="sRGB">
<feFlood flood-opacity="0" result="BackgroundImageFix"/>
<feBlend mode="normal" in="SourceGraphic" in2="BackgroundImageFix" result="shape"/>
<feGaussianBlur stdDeviation="4" result="effect1_foregroundBlur_502_884"/>
</filter>
<clipPath id="clip0_502_884">
<rect width="765" height="626" fill="white"/>
</clipPath>
</defs>
</svg>
