<svg width="1056" height="580" viewBox="0 0 1056 580" fill="none" xmlns="http://www.w3.org/2000/svg">
<g filter="url(#filter0_i_741_224)">
<path d="M21.0055 16.1557C31.1548 1.15439 330.404 0.0310917 528.81 0.000557693C728.18 -0.0301247 1029.26 1.15482 1039.09 16.1557C1048.91 31.1566 1055.26 180.565 1055.15 286.178C1055.04 389.991 1050.1 534.276 1039.09 551.585C1028.08 568.893 728.402 579.332 528.81 579.28C330.181 579.228 33.361 570.362 21.0055 551.585C8.64995 532.808 0.141199 390.108 0.0013656 286.178C-0.140887 180.45 10.8562 31.157 21.0055 16.1557Z" fill="white"/>
</g>
<g filter="url(#filter1_i_741_224)">
<path d="M21.0055 16.1557C31.1548 1.15439 330.404 0.0310917 528.81 0.000557693C728.18 -0.0301247 1029.26 1.15482 1039.09 16.1557C1048.91 31.1566 1055.26 180.565 1055.15 286.178C1055.04 389.991 1050.1 534.276 1039.09 551.585C1028.08 568.893 728.402 579.332 528.81 579.28C330.181 579.228 33.361 570.362 21.0055 551.585C8.64995 532.808 0.141199 390.108 0.0013656 286.178C-0.140887 180.45 10.8562 31.157 21.0055 16.1557Z" fill="#121212"/>
</g>
<g filter="url(#filter2_d_741_224)">
<path d="M537.957 337.778C551.842 337.838 563.108 335.279 563.121 332.062C563.133 328.845 551.887 326.189 538.002 326.128C524.117 326.068 512.851 328.627 512.838 331.844C512.826 335.061 524.072 337.718 537.957 337.778Z" stroke="#56E723" stroke-width="1.5" stroke-miterlimit="10" shape-rendering="crispEdges"/>
</g>
<g filter="url(#filter3_d_741_224)">
<path d="M537.58 355.796C546.479 355.834 553.699 354.065 553.708 351.845C553.716 349.624 546.51 347.792 537.611 347.754C528.712 347.715 521.491 349.484 521.483 351.705C521.474 353.925 528.681 355.757 537.58 355.796Z" stroke="#56E723" stroke-width="1.5" stroke-miterlimit="10" shape-rendering="crispEdges"/>
</g>
<g filter="url(#filter4_d_741_224)">
<path d="M537.998 379.459C544.355 379.487 549.515 377.989 549.523 376.114C549.53 374.238 544.382 372.696 538.024 372.668C531.666 372.641 526.506 374.138 526.499 376.014C526.491 377.889 531.64 379.431 537.998 379.459Z" stroke="#56E723" stroke-width="1.5" stroke-miterlimit="10" shape-rendering="crispEdges"/>
</g>
<g filter="url(#filter5_d_741_224)">
<path d="M538.006 402.508C544.397 402.536 549.584 401.144 549.591 399.4C549.597 397.655 544.422 396.219 538.03 396.191C531.639 396.163 526.452 397.555 526.445 399.299C526.439 401.044 531.614 402.481 538.006 402.508Z" stroke="#56E723" stroke-width="1.5" stroke-miterlimit="10" shape-rendering="crispEdges"/>
</g>
<g filter="url(#filter6_d_741_224)">
<path d="M538.518 318.045C563.025 318.151 582.91 313.842 582.93 308.421C582.951 303 563.101 298.519 538.593 298.412C514.086 298.306 494.202 302.615 494.181 308.036C494.16 313.457 514.01 317.938 538.518 318.045Z" stroke="#56E723" stroke-width="1.5" stroke-miterlimit="10" shape-rendering="crispEdges"/>
</g>
<g filter="url(#filter7_d_741_224)">
<path d="M538.178 431.05C548.734 431.096 557.303 428.311 557.316 424.831C557.329 421.35 548.783 418.491 538.227 418.445C527.67 418.399 519.102 421.184 519.089 424.665C519.075 428.146 527.622 431.004 538.178 431.05Z" stroke="#56E723" stroke-width="1.5" stroke-miterlimit="10" shape-rendering="crispEdges"/>
</g>
<g filter="url(#filter8_d_741_224)">
<path d="M538.652 451.309C555.671 451.383 569.477 448.813 569.49 445.57C569.502 442.326 555.716 439.636 538.698 439.562C521.679 439.488 507.873 442.058 507.86 445.302C507.848 448.546 521.634 451.236 538.652 451.309Z" stroke="#56E723" stroke-width="1.5" stroke-miterlimit="10" shape-rendering="crispEdges"/>
</g>
<g filter="url(#filter9_d_741_224)">
<path d="M537.93 471.238C562.437 471.345 582.322 466.957 582.343 461.437C582.364 455.918 562.514 451.357 538.007 451.251C513.499 451.144 493.615 455.533 493.593 461.052C493.572 466.571 513.422 471.132 537.93 471.238Z" stroke="#56E723" stroke-width="1.5" stroke-miterlimit="10" shape-rendering="crispEdges"/>
</g>
<path d="M494.981 310.097C499.528 314.466 525.478 339.013 526.125 382.631C526.812 428.647 497.913 456.965 493.592 461.051" stroke="#56E723" stroke-width="1.5" stroke-miterlimit="10"/>
<path d="M515.479 300.176C521.579 313.429 533.108 353.016 533.853 382.313C534.941 424.757 522.83 456.309 515.126 469.783" stroke="#56E723" stroke-width="1.5" stroke-miterlimit="10"/>
<path d="M582.241 310.143C575.445 316.334 555.859 334.706 550.54 367.876C542.088 420.657 579.239 458.39 582.335 461.437" stroke="#56E723" stroke-width="1.5" stroke-miterlimit="10"/>
<path d="M563.429 301.236C557.21 310.449 540.374 353.031 540.856 389.118C541.441 432.781 559.302 461.885 565.903 469.43" stroke="#56E723" stroke-width="1.5" stroke-miterlimit="10"/>
<path d="M537.698 313.383L537.698 290.282L472.725 290.282L503.757 384.216L472.725 478.363L537.698 478.363L537.698 458.712" stroke="#56E723" stroke-width="4" stroke-linecap="round"/>
<defs>
<filter id="filter0_i_741_224" x="0" y="0" width="1055.15" height="583.28" filterUnits="userSpaceOnUse" color-interpolation-filters="sRGB">
<feFlood flood-opacity="0" result="BackgroundImageFix"/>
<feBlend mode="normal" in="SourceGraphic" in2="BackgroundImageFix" result="shape"/>
<feColorMatrix in="SourceAlpha" type="matrix" values="0 0 0 0 0 0 0 0 0 0 0 0 0 0 0 0 0 0 127 0" result="hardAlpha"/>
<feOffset dy="4"/>
<feGaussianBlur stdDeviation="61"/>
<feComposite in2="hardAlpha" operator="arithmetic" k2="-1" k3="1"/>
<feColorMatrix type="matrix" values="0 0 0 0 0 0 0 0 0 0 0 0 0 0 0 0 0 0 0.5 0"/>
<feBlend mode="normal" in2="shape" result="effect1_innerShadow_741_224"/>
</filter>
<filter id="filter1_i_741_224" x="0" y="0" width="1055.15" height="583.28" filterUnits="userSpaceOnUse" color-interpolation-filters="sRGB">
<feFlood flood-opacity="0" result="BackgroundImageFix"/>
<feBlend mode="normal" in="SourceGraphic" in2="BackgroundImageFix" result="shape"/>
<feColorMatrix in="SourceAlpha" type="matrix" values="0 0 0 0 0 0 0 0 0 0 0 0 0 0 0 0 0 0 127 0" result="hardAlpha"/>
<feOffset dy="4"/>
<feGaussianBlur stdDeviation="61"/>
<feComposite in2="hardAlpha" operator="arithmetic" k2="-1" k3="1"/>
<feColorMatrix type="matrix" values="0 0 0 0 0 0 0 0 0 0 0 0 0 0 0 0 0 0 0.5 0"/>
<feBlend mode="normal" in2="shape" result="effect1_innerShadow_741_224"/>
</filter>
<filter id="filter2_d_741_224" x="508.088" y="325.377" width="59.7827" height="21.1519" filterUnits="userSpaceOnUse" color-interpolation-filters="sRGB">
<feFlood flood-opacity="0" result="BackgroundImageFix"/>
<feColorMatrix in="SourceAlpha" type="matrix" values="0 0 0 0 0 0 0 0 0 0 0 0 0 0 0 0 0 0 127 0" result="hardAlpha"/>
<feOffset dy="4"/>
<feGaussianBlur stdDeviation="2"/>
<feComposite in2="hardAlpha" operator="out"/>
<feColorMatrix type="matrix" values="0 0 0 0 0 0 0 0 0 0 0 0 0 0 0 0 0 0 0.25 0"/>
<feBlend mode="normal" in2="BackgroundImageFix" result="effect1_dropShadow_741_224"/>
<feBlend mode="normal" in="SourceGraphic" in2="effect1_dropShadow_741_224" result="shape"/>
</filter>
<filter id="filter3_d_741_224" x="516.732" y="347.003" width="41.7256" height="17.5429" filterUnits="userSpaceOnUse" color-interpolation-filters="sRGB">
<feFlood flood-opacity="0" result="BackgroundImageFix"/>
<feColorMatrix in="SourceAlpha" type="matrix" values="0 0 0 0 0 0 0 0 0 0 0 0 0 0 0 0 0 0 127 0" result="hardAlpha"/>
<feOffset dy="4"/>
<feGaussianBlur stdDeviation="2"/>
<feComposite in2="hardAlpha" operator="out"/>
<feColorMatrix type="matrix" values="0 0 0 0 0 0 0 0 0 0 0 0 0 0 0 0 0 0 0.25 0"/>
<feBlend mode="normal" in2="BackgroundImageFix" result="effect1_dropShadow_741_224"/>
<feBlend mode="normal" in="SourceGraphic" in2="effect1_dropShadow_741_224" result="shape"/>
</filter>
<filter id="filter4_d_741_224" x="521.749" y="371.918" width="32.5239" height="16.2915" filterUnits="userSpaceOnUse" color-interpolation-filters="sRGB">
<feFlood flood-opacity="0" result="BackgroundImageFix"/>
<feColorMatrix in="SourceAlpha" type="matrix" values="0 0 0 0 0 0 0 0 0 0 0 0 0 0 0 0 0 0 127 0" result="hardAlpha"/>
<feOffset dy="4"/>
<feGaussianBlur stdDeviation="2"/>
<feComposite in2="hardAlpha" operator="out"/>
<feColorMatrix type="matrix" values="0 0 0 0 0 0 0 0 0 0 0 0 0 0 0 0 0 0 0.25 0"/>
<feBlend mode="normal" in2="BackgroundImageFix" result="effect1_dropShadow_741_224"/>
<feBlend mode="normal" in="SourceGraphic" in2="effect1_dropShadow_741_224" result="shape"/>
</filter>
<filter id="filter5_d_741_224" x="521.695" y="395.44" width="32.6455" height="15.8182" filterUnits="userSpaceOnUse" color-interpolation-filters="sRGB">
<feFlood flood-opacity="0" result="BackgroundImageFix"/>
<feColorMatrix in="SourceAlpha" type="matrix" values="0 0 0 0 0 0 0 0 0 0 0 0 0 0 0 0 0 0 127 0" result="hardAlpha"/>
<feOffset dy="4"/>
<feGaussianBlur stdDeviation="2"/>
<feComposite in2="hardAlpha" operator="out"/>
<feColorMatrix type="matrix" values="0 0 0 0 0 0 0 0 0 0 0 0 0 0 0 0 0 0 0.25 0"/>
<feBlend mode="normal" in2="BackgroundImageFix" result="effect1_dropShadow_741_224"/>
<feBlend mode="normal" in="SourceGraphic" in2="effect1_dropShadow_741_224" result="shape"/>
</filter>
<filter id="filter6_d_741_224" x="489.431" y="297.66" width="98.249" height="29.1365" filterUnits="userSpaceOnUse" color-interpolation-filters="sRGB">
<feFlood flood-opacity="0" result="BackgroundImageFix"/>
<feColorMatrix in="SourceAlpha" type="matrix" values="0 0 0 0 0 0 0 0 0 0 0 0 0 0 0 0 0 0 127 0" result="hardAlpha"/>
<feOffset dy="4"/>
<feGaussianBlur stdDeviation="2"/>
<feComposite in2="hardAlpha" operator="out"/>
<feColorMatrix type="matrix" values="0 0 0 0 0 0 0 0 0 0 0 0 0 0 0 0 0 0 0.25 0"/>
<feBlend mode="normal" in2="BackgroundImageFix" result="effect1_dropShadow_741_224"/>
<feBlend mode="normal" in="SourceGraphic" in2="effect1_dropShadow_741_224" result="shape"/>
</filter>
<filter id="filter7_d_741_224" x="514.338" y="417.695" width="47.7275" height="22.1063" filterUnits="userSpaceOnUse" color-interpolation-filters="sRGB">
<feFlood flood-opacity="0" result="BackgroundImageFix"/>
<feColorMatrix in="SourceAlpha" type="matrix" values="0 0 0 0 0 0 0 0 0 0 0 0 0 0 0 0 0 0 127 0" result="hardAlpha"/>
<feOffset dy="4"/>
<feGaussianBlur stdDeviation="2"/>
<feComposite in2="hardAlpha" operator="out"/>
<feColorMatrix type="matrix" values="0 0 0 0 0 0 0 0 0 0 0 0 0 0 0 0 0 0 0.25 0"/>
<feBlend mode="normal" in2="BackgroundImageFix" result="effect1_dropShadow_741_224"/>
<feBlend mode="normal" in="SourceGraphic" in2="effect1_dropShadow_741_224" result="shape"/>
</filter>
<filter id="filter8_d_741_224" x="503.11" y="438.811" width="71.1294" height="21.2503" filterUnits="userSpaceOnUse" color-interpolation-filters="sRGB">
<feFlood flood-opacity="0" result="BackgroundImageFix"/>
<feColorMatrix in="SourceAlpha" type="matrix" values="0 0 0 0 0 0 0 0 0 0 0 0 0 0 0 0 0 0 127 0" result="hardAlpha"/>
<feOffset dy="4"/>
<feGaussianBlur stdDeviation="2"/>
<feComposite in2="hardAlpha" operator="out"/>
<feColorMatrix type="matrix" values="0 0 0 0 0 0 0 0 0 0 0 0 0 0 0 0 0 0 0.25 0"/>
<feBlend mode="normal" in2="BackgroundImageFix" result="effect1_dropShadow_741_224"/>
<feBlend mode="normal" in="SourceGraphic" in2="effect1_dropShadow_741_224" result="shape"/>
</filter>
<filter id="filter9_d_741_224" x="488.843" y="450.499" width="98.2495" height="29.4915" filterUnits="userSpaceOnUse" color-interpolation-filters="sRGB">
<feFlood flood-opacity="0" result="BackgroundImageFix"/>
<feColorMatrix in="SourceAlpha" type="matrix" values="0 0 0 0 0 0 0 0 0 0 0 0 0 0 0 0 0 0 127 0" result="hardAlpha"/>
<feOffset dy="4"/>
<feGaussianBlur stdDeviation="2"/>
<feComposite in2="hardAlpha" operator="out"/>
<feColorMatrix type="matrix" values="0 0 0 0 0 0 0 0 0 0 0 0 0 0 0 0 0 0 0.25 0"/>
<feBlend mode="normal" in2="BackgroundImageFix" result="effect1_dropShadow_741_224"/>
<feBlend mode="normal" in="SourceGraphic" in2="effect1_dropShadow_741_224" result="shape"/>
</filter>
</defs>
</svg>
