<svg width="1056" height="580" viewBox="0 0 1056 580" fill="none" xmlns="http://www.w3.org/2000/svg">
<g filter="url(#filter0_i_503_6162)">
<path d="M21.0055 16.1557C31.1548 1.15439 330.404 0.0310917 528.81 0.000557693C728.18 -0.0301247 1029.26 1.15482 1039.09 16.1557C1048.91 31.1566 1055.26 180.565 1055.15 286.178C1055.04 389.991 1050.1 534.276 1039.09 551.585C1028.08 568.893 728.402 579.332 528.81 579.28C330.181 579.228 33.361 570.362 21.0055 551.585C8.64995 532.808 0.141199 390.108 0.0013656 286.178C-0.140887 180.45 10.8562 31.157 21.0055 16.1557Z" fill="white"/>
</g>
<g filter="url(#filter1_i_503_6162)">
<path d="M21.0055 16.1557C31.1548 1.15439 330.404 0.0310917 528.81 0.000557693C728.18 -0.0301247 1029.26 1.15482 1039.09 16.1557C1048.91 31.1566 1055.26 180.565 1055.15 286.178C1055.04 389.991 1050.1 534.276 1039.09 551.585C1028.08 568.893 728.402 579.332 528.81 579.28C330.181 579.228 33.361 570.362 21.0055 551.585C8.64995 532.808 0.141199 390.108 0.0013656 286.178C-0.140887 180.45 10.8562 31.157 21.0055 16.1557Z" fill="#121212"/>
</g>
<path d="M72.1823 68.059L73.6946 92.8057H68.9637L68.4596 81.4075C68.4208 80.4532 68.395 79.5705 68.3821 78.7593C68.3821 77.9362 68.3885 77.1608 68.4014 76.4331C68.4144 75.6935 68.4338 74.9838 68.4596 74.3038C68.4984 73.6239 68.5436 72.9558 68.5953 72.2998L65.0472 88.5112H60.7429L56.9427 72.2998C56.9944 72.932 57.0396 73.594 57.0784 74.2859C57.1172 74.9778 57.143 75.6995 57.156 76.451C57.1818 77.2026 57.1948 77.9958 57.1948 78.8309C57.2077 79.6659 57.1947 80.5367 57.156 81.4433L56.7876 92.8057H52.1343L53.6466 68.059H59.5408L62.992 84.3957L66.2881 68.059H72.1823Z" fill="#57EB23"/>
<path d="M87.9108 73.8565V89.4596H93.3202V92.8057H76.7816V89.4596H82.7921V77.2026H76.9755V73.8565H87.9108ZM84.5953 64.3014C85.5389 64.3014 86.3015 64.5698 86.8832 65.1066C87.4777 65.6434 87.775 66.3114 87.775 67.1106C87.775 67.9099 87.4777 68.5839 86.8832 69.1326C86.3015 69.6694 85.5389 69.9378 84.5953 69.9378C83.6517 69.9378 82.8826 69.6694 82.288 69.1326C81.6934 68.5839 81.3961 67.9099 81.3961 67.1106C81.3961 66.3114 81.6934 65.6434 82.288 65.1066C82.8826 64.5698 83.6517 64.3014 84.5953 64.3014Z" fill="#57EB23"/>
<path d="M105.617 89.8532C106.819 89.8532 107.782 89.6624 108.506 89.2807C109.243 88.887 109.611 88.3383 109.611 87.6345C109.611 87.1692 109.488 86.7756 109.243 86.4535C109.01 86.1314 108.545 85.8332 107.847 85.5588C107.149 85.2725 106.102 84.9564 104.706 84.6105C103.387 84.3003 102.23 83.9186 101.235 83.4653C100.253 83 99.4836 82.4036 98.9278 81.6759C98.3849 80.9483 98.1135 80.0297 98.1135 78.9203C98.1135 77.8109 98.4495 76.8387 99.1217 76.0037C99.7938 75.1567 100.763 74.5006 102.03 74.0354C103.31 73.5583 104.848 73.3197 106.645 73.3197C108.402 73.3197 109.941 73.5344 111.259 73.9638C112.577 74.3814 113.708 74.9062 114.652 75.5385L112.558 78.4193C111.731 77.9302 110.832 77.5366 109.863 77.2383C108.907 76.9282 107.872 76.7731 106.761 76.7731C105.559 76.7731 104.68 76.9342 104.124 77.2562C103.581 77.5783 103.31 78.0257 103.31 78.5983C103.31 79.0038 103.445 79.3498 103.717 79.6361C104.001 79.9104 104.505 80.1788 105.229 80.4413C105.966 80.6918 107.013 80.996 108.37 81.3538C109.701 81.6879 110.858 82.0815 111.841 82.5348C112.836 82.9881 113.605 83.5905 114.148 84.3421C114.691 85.0936 114.962 86.0777 114.962 87.2945C114.962 88.6663 114.529 89.7996 113.663 90.6942C112.797 91.5889 111.653 92.2569 110.231 92.6983C108.823 93.1277 107.291 93.3425 105.636 93.3425C103.697 93.3425 102.004 93.086 100.556 92.573C99.1088 92.0601 97.8808 91.398 96.8726 90.5869L99.5288 87.8313C100.33 88.4158 101.242 88.8989 102.263 89.2807C103.297 89.6624 104.415 89.8532 105.617 89.8532Z" fill="#57EB23"/>
<path d="M127.317 89.8532C128.519 89.8532 129.482 89.6624 130.206 89.2807C130.943 88.887 131.311 88.3383 131.311 87.6345C131.311 87.1692 131.188 86.7756 130.943 86.4535C130.71 86.1314 130.245 85.8332 129.547 85.5588C128.849 85.2725 127.802 84.9564 126.406 84.6105C125.087 84.3003 123.931 83.9186 122.935 83.4653C121.953 83 121.184 82.4036 120.628 81.6759C120.085 80.9483 119.814 80.0297 119.814 78.9203C119.814 77.8109 120.15 76.8387 120.822 76.0037C121.494 75.1567 122.464 74.5006 123.73 74.0354C125.01 73.5583 126.548 73.3197 128.345 73.3197C130.103 73.3197 131.641 73.5344 132.959 73.9638C134.278 74.3814 135.409 74.9062 136.352 75.5385L134.258 78.4193C133.431 77.9302 132.533 77.5366 131.563 77.2383C130.607 76.9282 129.573 76.7731 128.461 76.7731C127.259 76.7731 126.38 76.9342 125.824 77.2562C125.281 77.5783 125.01 78.0257 125.01 78.5983C125.01 79.0038 125.146 79.3498 125.417 79.6361C125.701 79.9104 126.206 80.1788 126.929 80.4413C127.666 80.6918 128.713 80.996 130.07 81.3538C131.402 81.6879 132.559 82.0815 133.541 82.5348C134.536 82.9881 135.305 83.5905 135.848 84.3421C136.391 85.0936 136.663 86.0777 136.663 87.2945C136.663 88.6663 136.23 89.7996 135.363 90.6942C134.497 91.5889 133.354 92.2569 131.932 92.6983C130.523 93.1277 128.991 93.3425 127.337 93.3425C125.398 93.3425 123.704 93.086 122.257 92.573C120.809 92.0601 119.581 91.398 118.573 90.5869L121.229 87.8313C122.03 88.4158 122.942 88.8989 123.963 89.2807C124.997 89.6624 126.115 89.8532 127.317 89.8532Z" fill="#57EB23"/>
<path d="M157.587 87.8134C157.587 88.5411 157.704 89.0719 157.936 89.4059C158.169 89.728 158.544 89.9725 159.061 90.1395L157.956 93.3067C156.857 93.1993 155.92 92.9488 155.144 92.5552C154.382 92.1496 153.793 91.5472 153.38 90.7479C152.604 91.6187 151.622 92.2689 150.433 92.6983C149.257 93.1277 148.022 93.3425 146.73 93.3425C144.636 93.3425 142.975 92.7937 141.747 91.6963C140.519 90.5988 139.905 89.1733 139.905 87.4197C139.905 85.4037 140.758 83.853 142.464 82.7674C144.183 81.67 146.613 81.1212 149.754 81.1212H152.624V80.1013C152.624 78.98 152.249 78.1688 151.499 77.6678C150.749 77.1548 149.67 76.8984 148.261 76.8984C147.602 76.8984 146.775 76.9819 145.779 77.1489C144.797 77.304 143.782 77.5485 142.735 77.8825L141.514 74.6438C142.819 74.1905 144.131 73.8565 145.45 73.6418C146.781 73.427 147.99 73.3197 149.076 73.3197C151.958 73.3197 154.097 73.8863 155.493 75.0196C156.889 76.1409 157.587 77.7334 157.587 79.7971V87.8134ZM148.397 89.9248C149.173 89.9248 149.955 89.722 150.743 89.3164C151.544 88.9109 152.171 88.3442 152.624 87.6166V83.9305H150.607C148.707 83.9305 147.331 84.2108 146.477 84.7715C145.637 85.3322 145.217 86.1254 145.217 87.1513C145.217 88.0341 145.489 88.72 146.032 89.2091C146.574 89.6862 147.363 89.9248 148.397 89.9248ZM151.635 69.7947C150.911 69.7947 150.297 69.6575 149.793 69.3831C149.302 69.1087 148.849 68.8344 148.436 68.56C148.035 68.2856 147.615 68.1485 147.175 68.1485C146.71 68.1485 146.329 68.2856 146.032 68.56C145.734 68.8225 145.43 69.2161 145.12 69.741L142.386 68.5063C142.865 67.4685 143.498 66.5798 144.287 65.8402C145.075 65.0887 146.012 64.7129 147.098 64.7129C147.873 64.7129 148.507 64.8501 148.998 65.1245C149.502 65.3988 149.948 65.6732 150.336 65.9476C150.724 66.2219 151.144 66.3591 151.596 66.3591C152.01 66.3591 152.365 66.2339 152.662 65.9834C152.973 65.7209 153.296 65.3273 153.632 64.8024L156.366 66.0549C155.862 67.1763 155.202 68.0829 154.388 68.7747C153.587 69.4547 152.669 69.7947 151.635 69.7947Z" fill="#57EB23"/>
<path d="M171.435 73.3197C173.477 73.3197 175.209 73.7312 176.631 74.5543C178.053 75.3774 179.132 76.5405 179.869 78.0436C180.619 79.5347 180.994 81.2823 180.994 83.2863C180.994 85.3381 180.619 87.1155 179.869 88.6186C179.119 90.1216 178.034 91.2847 176.612 92.1078C175.19 92.9309 173.458 93.3425 171.416 93.3425C169.386 93.3425 167.654 92.9428 166.219 92.1436C164.798 91.3324 163.712 90.1813 162.962 88.6902C162.212 87.1871 161.838 85.3978 161.838 83.3221C161.838 81.3419 162.212 79.6003 162.962 78.0972C163.712 76.5942 164.804 75.4251 166.239 74.5901C167.674 73.7432 169.406 73.3197 171.435 73.3197ZM171.435 76.8805C170 76.8805 168.927 77.3994 168.216 78.4372C167.518 79.475 167.169 81.1033 167.169 83.3221C167.169 85.5648 167.518 87.205 168.216 88.2428C168.914 89.2687 169.981 89.7817 171.416 89.7817C172.85 89.7817 173.917 89.2687 174.615 88.2428C175.313 87.205 175.662 85.5528 175.662 83.2863C175.662 81.0795 175.313 79.4631 174.615 78.4372C173.917 77.3994 172.857 76.8805 171.435 76.8805Z" fill="#57EB23"/>
<path d="M214.816 67.5222C217.905 67.5222 220.239 68.6495 221.815 70.9041C223.392 73.1467 224.181 76.3079 224.181 80.3876C224.181 84.4792 223.392 87.6643 221.815 89.9427C220.239 92.2092 217.905 93.3425 214.816 93.3425C211.714 93.3425 209.374 92.2092 207.797 89.9427C206.233 87.6643 205.451 84.4792 205.451 80.3876C205.451 76.3079 206.233 73.1467 207.797 70.9041C209.374 68.6495 211.714 67.5222 214.816 67.5222ZM214.816 71.0293C213.356 71.0293 212.25 71.751 211.501 73.1944C210.764 74.6259 210.395 77.0236 210.395 80.3876C210.395 82.2485 210.467 83.7933 210.609 85.022C210.764 86.2388 211.016 87.199 211.365 87.9029C211.714 88.6067 212.166 89.1077 212.722 89.4059C213.291 89.6922 213.989 89.8354 214.816 89.8354C215.798 89.8354 216.613 89.5312 217.259 88.9228C217.918 88.3025 218.41 87.3004 218.733 85.9167C219.056 84.521 219.217 82.678 219.217 80.3876C219.217 77.9541 219.075 76.0574 218.791 74.6975C218.519 73.3376 218.061 72.3892 217.414 71.8524C216.781 71.3037 215.915 71.0293 214.816 71.0293ZM218.17 71.8345L219.489 74.769L211.85 89.227L210.279 86.8292L218.17 71.8345Z" fill="#57EB23"/>
<path d="M236.516 67.5222C239.606 67.5222 241.939 68.6495 243.516 70.9041C245.093 73.1467 245.881 76.3079 245.881 80.3876C245.881 84.4792 245.093 87.6643 243.516 89.9427C241.939 92.2092 239.606 93.3425 236.516 93.3425C233.414 93.3425 231.075 92.2092 229.498 89.9427C227.934 87.6643 227.152 84.4792 227.152 80.3876C227.152 76.3079 227.934 73.1467 229.498 70.9041C231.075 68.6495 233.414 67.5222 236.516 67.5222ZM236.516 71.0293C235.056 71.0293 233.951 71.751 233.201 73.1944C232.464 74.6259 232.096 77.0236 232.096 80.3876C232.096 82.2485 232.167 83.7933 232.309 85.022C232.464 86.2388 232.716 87.199 233.065 87.9029C233.414 88.6067 233.867 89.1077 234.422 89.4059C234.991 89.6922 235.689 89.8354 236.516 89.8354C237.499 89.8354 238.313 89.5312 238.959 88.9228C239.619 88.3025 240.11 87.3004 240.433 85.9167C240.756 84.521 240.918 82.678 240.918 80.3876C240.918 77.9541 240.775 76.0574 240.491 74.6975C240.22 73.3376 239.761 72.3892 239.114 71.8524C238.481 71.3037 237.615 71.0293 236.516 71.0293ZM239.871 71.8345L241.189 74.769L233.55 89.227L231.979 86.8292L239.871 71.8345Z" fill="#57EB23"/>
<path d="M262.269 68.059V92.0899H257.247V72.8187L251.527 76.0932L249.337 72.8187L257.751 68.059H262.269ZM267.484 89.1733V92.8057H250.752V89.1733H267.484Z" fill="#57EB23"/>
<path d="M279.968 222.772L287.918 192.35H295.338L284.155 229H275.516L264.386 192.35H272.098L279.968 222.772ZM322.69 192.35V197.783H314.926V223.567H322.69V229H299.9V223.567H307.665V197.783H299.9V192.35H322.69ZM348.691 220.599H336.633L334.354 229H326.855L338.329 192.35H347.233L358.681 229H350.97L348.691 220.599ZM337.932 215.167H347.339L342.649 197.783L337.932 215.167ZM375.353 229.795C372.085 229.795 369.303 229.071 367.006 227.622C364.709 226.173 362.951 224.027 361.732 221.182C360.531 218.338 359.93 214.814 359.93 210.609C359.93 207.482 360.363 204.735 361.229 202.368C362.095 199.982 363.278 197.995 364.78 196.405C366.299 194.797 368.048 193.587 370.027 192.774C372.023 191.962 374.134 191.555 376.36 191.555C378.94 191.555 381.104 191.944 382.853 192.721C384.602 193.499 386.192 194.559 387.623 195.901L383.674 199.956C382.561 198.949 381.457 198.207 380.362 197.73C379.267 197.253 378.03 197.014 376.652 197.014C375.38 197.014 374.187 197.262 373.074 197.756C371.979 198.251 371.007 199.037 370.159 200.115C369.329 201.193 368.675 202.597 368.198 204.328C367.721 206.06 367.483 208.171 367.483 210.662C367.483 213.966 367.774 216.624 368.357 218.638C368.958 220.635 369.85 222.083 371.034 222.984C372.235 223.868 373.737 224.309 375.539 224.309C376.546 224.309 377.491 224.195 378.374 223.965C379.275 223.718 380.132 223.391 380.945 222.984V213.63H375.433L374.691 208.33H387.861V226.27C386.095 227.313 384.196 228.161 382.164 228.814C380.15 229.468 377.88 229.795 375.353 229.795ZM402.573 197.703V207.747H415.558V213.02H402.573V223.673H418.34V229H395.312V192.35H418.155L417.413 197.703H402.573ZM449.799 192.35L451.866 229H445.4L444.711 212.119C444.658 210.706 444.623 209.399 444.605 208.197C444.605 206.978 444.614 205.83 444.632 204.752C444.65 203.657 444.676 202.606 444.711 201.599C444.764 200.592 444.826 199.603 444.897 198.631L440.047 222.64H434.164L428.97 198.631C429.041 199.567 429.103 200.548 429.156 201.572C429.209 202.597 429.244 203.666 429.262 204.779C429.297 205.892 429.315 207.067 429.315 208.303C429.333 209.54 429.315 210.83 429.262 212.172L428.758 229H422.398L424.465 192.35H432.521L437.238 216.545L441.743 192.35H449.799ZM506.623 210.503C506.623 207.782 506.367 205.583 505.855 203.904C505.36 202.226 504.68 200.945 503.814 200.062C502.948 199.161 501.968 198.551 500.873 198.233C499.777 197.915 498.638 197.756 497.454 197.756H494.751V223.62H497.481C498.717 223.62 499.883 223.426 500.979 223.037C502.092 222.649 503.072 221.977 503.92 221.023C504.768 220.052 505.431 218.718 505.908 217.022C506.385 215.308 506.623 213.135 506.623 210.503ZM514.202 210.503C514.202 213.506 513.875 216.077 513.222 218.214C512.586 220.352 511.702 222.128 510.572 223.541C509.441 224.937 508.134 226.032 506.65 226.827C505.183 227.622 503.611 228.187 501.933 228.523C500.272 228.841 498.585 229 496.871 229H487.49V192.35H496.235C498.514 192.35 500.722 192.598 502.86 193.092C504.998 193.569 506.915 194.453 508.611 195.742C510.324 197.032 511.685 198.869 512.692 201.254C513.699 203.622 514.202 206.705 514.202 210.503ZM542.905 192.35V197.783H535.141V223.567H542.905V229H520.115V223.567H527.88V197.783H520.115V192.35H542.905ZM576.591 218.479C576.591 220.705 576.016 222.666 574.868 224.362C573.737 226.058 572.103 227.392 569.966 228.364C567.828 229.318 565.24 229.795 562.201 229.795C559.021 229.795 556.292 229.327 554.013 228.39C551.734 227.436 549.826 226.217 548.289 224.733L552.105 220.467C553.43 221.651 554.914 222.578 556.557 223.249C558.2 223.921 560.046 224.256 562.095 224.256C563.402 224.256 564.577 224.053 565.62 223.647C566.68 223.241 567.51 222.649 568.111 221.871C568.729 221.076 569.038 220.105 569.038 218.956C569.038 217.949 568.826 217.101 568.402 216.412C567.978 215.723 567.245 215.105 566.203 214.557C565.178 214.01 563.747 213.462 561.91 212.914C559.207 212.084 556.981 211.174 555.232 210.185C553.483 209.178 552.184 207.994 551.336 206.634C550.488 205.256 550.064 203.631 550.064 201.758C550.064 199.656 550.647 197.845 551.813 196.325C552.979 194.788 554.551 193.614 556.53 192.801C558.526 191.971 560.752 191.555 563.208 191.555C565.929 191.555 568.323 191.953 570.39 192.748C572.457 193.525 574.276 194.638 575.849 196.087L572.218 200.194C570.964 199.117 569.603 198.322 568.137 197.809C566.688 197.297 565.213 197.041 563.712 197.041C562.528 197.041 561.468 197.2 560.532 197.518C559.613 197.836 558.889 198.304 558.359 198.922C557.829 199.541 557.564 200.327 557.564 201.281C557.564 202.147 557.802 202.889 558.279 203.507C558.774 204.108 559.613 204.673 560.797 205.203C561.98 205.715 563.606 206.298 565.673 206.952C567.846 207.606 569.745 208.392 571.37 209.31C573.013 210.229 574.294 211.422 575.213 212.888C576.131 214.337 576.591 216.2 576.591 218.479ZM601.186 204.09C601.186 202.571 600.895 201.343 600.312 200.407C599.747 199.452 598.916 198.755 597.821 198.313C596.726 197.871 595.409 197.65 593.872 197.65H590.083V210.927H594.084C595.533 210.927 596.779 210.706 597.821 210.264C598.881 209.805 599.702 209.072 600.285 208.065C600.886 207.058 601.186 205.733 601.186 204.09ZM608.712 204.037C608.712 206.881 608.103 209.213 606.884 211.033C605.683 212.835 603.995 214.169 601.822 215.034C599.649 215.882 597.141 216.306 594.296 216.306H590.083V229H582.822V192.35H593.607C598.36 192.35 602.061 193.313 604.711 195.239C607.379 197.165 608.712 200.097 608.712 204.037ZM640.145 210.662C640.145 214.478 639.606 217.826 638.529 220.705C637.469 223.567 635.879 225.802 633.759 227.41C631.639 229 629.015 229.795 625.888 229.795C622.779 229.795 620.155 229.018 618.018 227.463C615.898 225.891 614.299 223.682 613.221 220.838C612.161 217.976 611.631 214.593 611.631 210.688C611.631 206.872 612.161 203.533 613.221 200.671C614.299 197.792 615.898 195.557 618.018 193.967C620.155 192.359 622.779 191.555 625.888 191.555C629.015 191.555 631.639 192.333 633.759 193.887C635.879 195.442 637.469 197.65 638.529 200.512C639.606 203.374 640.145 206.758 640.145 210.662ZM632.672 210.662C632.672 206.033 632.142 202.606 631.082 200.38C630.04 198.136 628.309 197.014 625.888 197.014C623.468 197.014 621.728 198.136 620.668 200.38C619.625 202.624 619.104 206.06 619.104 210.688C619.104 215.335 619.643 218.771 620.721 220.997C621.798 223.205 623.521 224.309 625.888 224.309C628.344 224.309 630.084 223.188 631.109 220.944C632.151 218.7 632.672 215.273 632.672 210.662ZM660.793 229L650.007 198.551C650.095 199.223 650.201 200.088 650.325 201.149C650.449 202.208 650.564 203.41 650.67 204.752C650.793 206.095 650.89 207.517 650.961 209.019C651.049 210.521 651.094 212.04 651.094 213.577V229H644.787V192.35H654.009L664.688 222.746C664.547 221.845 664.388 220.652 664.211 219.168C664.052 217.684 663.911 215.98 663.787 214.054C663.663 212.128 663.602 210.079 663.602 207.906V192.35H669.909V229H660.793ZM700.202 192.35V197.783H692.437V223.567H700.202V229H677.412V223.567H685.176V197.783H677.412V192.35H700.202ZM693.02 179.392L695.75 184.771L683.613 189.117L681.917 185.513L693.02 179.392ZM720.399 222.772L728.349 192.35H735.769L724.586 229H715.947L704.817 192.35H712.528L720.399 222.772ZM748.625 197.703V207.747H761.61V213.02H748.625V223.673H764.392V229H741.364V192.35H764.207L763.465 197.703H748.625ZM773.009 229V192.35H780.27V223.117H796.435L795.666 229H773.009Z" fill="#57EB23"/>
<g filter="url(#filter2_d_503_6162)">
<path d="M537.957 337.778C551.842 337.838 563.108 335.279 563.12 332.062C563.133 328.845 551.887 326.189 538.002 326.128C524.116 326.068 512.85 328.627 512.838 331.844C512.826 335.061 524.072 337.718 537.957 337.778Z" stroke="#56E723" stroke-width="1.5" stroke-miterlimit="10" shape-rendering="crispEdges"/>
</g>
<g filter="url(#filter3_d_503_6162)">
<path d="M537.58 355.796C546.479 355.834 553.699 354.065 553.708 351.845C553.716 349.624 546.51 347.792 537.611 347.754C528.712 347.715 521.491 349.484 521.483 351.705C521.474 353.925 528.681 355.757 537.58 355.796Z" stroke="#56E723" stroke-width="1.5" stroke-miterlimit="10" shape-rendering="crispEdges"/>
</g>
<g filter="url(#filter4_d_503_6162)">
<path d="M537.998 379.459C544.355 379.487 549.515 377.989 549.523 376.114C549.53 374.238 544.382 372.696 538.024 372.668C531.666 372.641 526.506 374.138 526.499 376.014C526.491 377.889 531.64 379.431 537.998 379.459Z" stroke="#56E723" stroke-width="1.5" stroke-miterlimit="10" shape-rendering="crispEdges"/>
</g>
<g filter="url(#filter5_d_503_6162)">
<path d="M538.005 402.508C544.397 402.536 549.584 401.144 549.59 399.4C549.597 397.655 544.421 396.219 538.03 396.191C531.638 396.163 526.452 397.555 526.445 399.299C526.438 401.044 531.614 402.481 538.005 402.508Z" stroke="#56E723" stroke-width="1.5" stroke-miterlimit="10" shape-rendering="crispEdges"/>
</g>
<g filter="url(#filter6_d_503_6162)">
<path d="M538.518 318.045C563.025 318.151 582.91 313.842 582.93 308.421C582.951 303 563.101 298.519 538.593 298.412C514.086 298.306 494.202 302.615 494.181 308.036C494.16 313.457 514.01 317.938 538.518 318.045Z" stroke="#56E723" stroke-width="1.5" stroke-miterlimit="10" shape-rendering="crispEdges"/>
</g>
<g filter="url(#filter7_d_503_6162)">
<path d="M538.179 431.05C548.735 431.096 557.303 428.311 557.317 424.831C557.33 421.35 548.783 418.491 538.227 418.445C527.671 418.399 519.102 421.184 519.089 424.665C519.076 428.146 527.622 431.004 538.179 431.05Z" stroke="#56E723" stroke-width="1.5" stroke-miterlimit="10" shape-rendering="crispEdges"/>
</g>
<g filter="url(#filter8_d_503_6162)">
<path d="M538.652 451.309C555.671 451.383 569.477 448.813 569.49 445.57C569.502 442.326 555.716 439.636 538.698 439.562C521.679 439.488 507.873 442.058 507.86 445.302C507.848 448.546 521.634 451.236 538.652 451.309Z" stroke="#56E723" stroke-width="1.5" stroke-miterlimit="10" shape-rendering="crispEdges"/>
</g>
<g filter="url(#filter9_d_503_6162)">
<path d="M537.93 471.238C562.437 471.345 582.322 466.957 582.343 461.437C582.364 455.918 562.514 451.357 538.007 451.251C513.499 451.144 493.615 455.533 493.593 461.052C493.572 466.571 513.422 471.132 537.93 471.238Z" stroke="#56E723" stroke-width="1.5" stroke-miterlimit="10" shape-rendering="crispEdges"/>
</g>
<path d="M494.981 310.097C499.528 314.466 525.478 339.013 526.125 382.631C526.812 428.647 497.913 456.965 493.592 461.051" stroke="#56E723" stroke-width="1.5" stroke-miterlimit="10"/>
<path d="M515.479 300.176C521.579 313.429 533.108 353.016 533.853 382.313C534.941 424.757 522.83 456.309 515.126 469.783" stroke="#56E723" stroke-width="1.5" stroke-miterlimit="10"/>
<path d="M582.241 310.143C575.445 316.334 555.858 334.706 550.54 367.876C542.087 420.657 579.238 458.39 582.334 461.437" stroke="#56E723" stroke-width="1.5" stroke-miterlimit="10"/>
<path d="M563.43 301.236C557.211 310.449 540.375 353.031 540.857 389.118C541.442 432.781 559.303 461.885 565.903 469.43" stroke="#56E723" stroke-width="1.5" stroke-miterlimit="10"/>
<path d="M537.698 313.383L537.698 290.282L472.725 290.282L503.757 384.216L472.725 478.363L537.698 478.363L537.698 458.712" stroke="#56E723" stroke-width="4" stroke-linecap="round"/>
<defs>
<filter id="filter0_i_503_6162" x="0" y="0" width="1055.15" height="583.28" filterUnits="userSpaceOnUse" color-interpolation-filters="sRGB">
<feFlood flood-opacity="0" result="BackgroundImageFix"/>
<feBlend mode="normal" in="SourceGraphic" in2="BackgroundImageFix" result="shape"/>
<feColorMatrix in="SourceAlpha" type="matrix" values="0 0 0 0 0 0 0 0 0 0 0 0 0 0 0 0 0 0 127 0" result="hardAlpha"/>
<feOffset dy="4"/>
<feGaussianBlur stdDeviation="61"/>
<feComposite in2="hardAlpha" operator="arithmetic" k2="-1" k3="1"/>
<feColorMatrix type="matrix" values="0 0 0 0 0 0 0 0 0 0 0 0 0 0 0 0 0 0 0.5 0"/>
<feBlend mode="normal" in2="shape" result="effect1_innerShadow_503_6162"/>
</filter>
<filter id="filter1_i_503_6162" x="0" y="0" width="1055.15" height="583.28" filterUnits="userSpaceOnUse" color-interpolation-filters="sRGB">
<feFlood flood-opacity="0" result="BackgroundImageFix"/>
<feBlend mode="normal" in="SourceGraphic" in2="BackgroundImageFix" result="shape"/>
<feColorMatrix in="SourceAlpha" type="matrix" values="0 0 0 0 0 0 0 0 0 0 0 0 0 0 0 0 0 0 127 0" result="hardAlpha"/>
<feOffset dy="4"/>
<feGaussianBlur stdDeviation="61"/>
<feComposite in2="hardAlpha" operator="arithmetic" k2="-1" k3="1"/>
<feColorMatrix type="matrix" values="0 0 0 0 0 0 0 0 0 0 0 0 0 0 0 0 0 0 0.5 0"/>
<feBlend mode="normal" in2="shape" result="effect1_innerShadow_503_6162"/>
</filter>
<filter id="filter2_d_503_6162" x="508.088" y="325.377" width="59.7822" height="21.152" filterUnits="userSpaceOnUse" color-interpolation-filters="sRGB">
<feFlood flood-opacity="0" result="BackgroundImageFix"/>
<feColorMatrix in="SourceAlpha" type="matrix" values="0 0 0 0 0 0 0 0 0 0 0 0 0 0 0 0 0 0 127 0" result="hardAlpha"/>
<feOffset dy="4"/>
<feGaussianBlur stdDeviation="2"/>
<feComposite in2="hardAlpha" operator="out"/>
<feColorMatrix type="matrix" values="0 0 0 0 0 0 0 0 0 0 0 0 0 0 0 0 0 0 0.25 0"/>
<feBlend mode="normal" in2="BackgroundImageFix" result="effect1_dropShadow_503_6162"/>
<feBlend mode="normal" in="SourceGraphic" in2="effect1_dropShadow_503_6162" result="shape"/>
</filter>
<filter id="filter3_d_503_6162" x="516.732" y="347.003" width="41.7256" height="17.5428" filterUnits="userSpaceOnUse" color-interpolation-filters="sRGB">
<feFlood flood-opacity="0" result="BackgroundImageFix"/>
<feColorMatrix in="SourceAlpha" type="matrix" values="0 0 0 0 0 0 0 0 0 0 0 0 0 0 0 0 0 0 127 0" result="hardAlpha"/>
<feOffset dy="4"/>
<feGaussianBlur stdDeviation="2"/>
<feComposite in2="hardAlpha" operator="out"/>
<feColorMatrix type="matrix" values="0 0 0 0 0 0 0 0 0 0 0 0 0 0 0 0 0 0 0.25 0"/>
<feBlend mode="normal" in2="BackgroundImageFix" result="effect1_dropShadow_503_6162"/>
<feBlend mode="normal" in="SourceGraphic" in2="effect1_dropShadow_503_6162" result="shape"/>
</filter>
<filter id="filter4_d_503_6162" x="521.749" y="371.918" width="32.5234" height="16.2916" filterUnits="userSpaceOnUse" color-interpolation-filters="sRGB">
<feFlood flood-opacity="0" result="BackgroundImageFix"/>
<feColorMatrix in="SourceAlpha" type="matrix" values="0 0 0 0 0 0 0 0 0 0 0 0 0 0 0 0 0 0 127 0" result="hardAlpha"/>
<feOffset dy="4"/>
<feGaussianBlur stdDeviation="2"/>
<feComposite in2="hardAlpha" operator="out"/>
<feColorMatrix type="matrix" values="0 0 0 0 0 0 0 0 0 0 0 0 0 0 0 0 0 0 0.25 0"/>
<feBlend mode="normal" in2="BackgroundImageFix" result="effect1_dropShadow_503_6162"/>
<feBlend mode="normal" in="SourceGraphic" in2="effect1_dropShadow_503_6162" result="shape"/>
</filter>
<filter id="filter5_d_503_6162" x="521.695" y="395.441" width="32.6445" height="15.8182" filterUnits="userSpaceOnUse" color-interpolation-filters="sRGB">
<feFlood flood-opacity="0" result="BackgroundImageFix"/>
<feColorMatrix in="SourceAlpha" type="matrix" values="0 0 0 0 0 0 0 0 0 0 0 0 0 0 0 0 0 0 127 0" result="hardAlpha"/>
<feOffset dy="4"/>
<feGaussianBlur stdDeviation="2"/>
<feComposite in2="hardAlpha" operator="out"/>
<feColorMatrix type="matrix" values="0 0 0 0 0 0 0 0 0 0 0 0 0 0 0 0 0 0 0.25 0"/>
<feBlend mode="normal" in2="BackgroundImageFix" result="effect1_dropShadow_503_6162"/>
<feBlend mode="normal" in="SourceGraphic" in2="effect1_dropShadow_503_6162" result="shape"/>
</filter>
<filter id="filter6_d_503_6162" x="489.431" y="297.66" width="98.25" height="29.1365" filterUnits="userSpaceOnUse" color-interpolation-filters="sRGB">
<feFlood flood-opacity="0" result="BackgroundImageFix"/>
<feColorMatrix in="SourceAlpha" type="matrix" values="0 0 0 0 0 0 0 0 0 0 0 0 0 0 0 0 0 0 127 0" result="hardAlpha"/>
<feOffset dy="4"/>
<feGaussianBlur stdDeviation="2"/>
<feComposite in2="hardAlpha" operator="out"/>
<feColorMatrix type="matrix" values="0 0 0 0 0 0 0 0 0 0 0 0 0 0 0 0 0 0 0.25 0"/>
<feBlend mode="normal" in2="BackgroundImageFix" result="effect1_dropShadow_503_6162"/>
<feBlend mode="normal" in="SourceGraphic" in2="effect1_dropShadow_503_6162" result="shape"/>
</filter>
<filter id="filter7_d_503_6162" x="514.339" y="417.695" width="47.7275" height="22.1062" filterUnits="userSpaceOnUse" color-interpolation-filters="sRGB">
<feFlood flood-opacity="0" result="BackgroundImageFix"/>
<feColorMatrix in="SourceAlpha" type="matrix" values="0 0 0 0 0 0 0 0 0 0 0 0 0 0 0 0 0 0 127 0" result="hardAlpha"/>
<feOffset dy="4"/>
<feGaussianBlur stdDeviation="2"/>
<feComposite in2="hardAlpha" operator="out"/>
<feColorMatrix type="matrix" values="0 0 0 0 0 0 0 0 0 0 0 0 0 0 0 0 0 0 0.25 0"/>
<feBlend mode="normal" in2="BackgroundImageFix" result="effect1_dropShadow_503_6162"/>
<feBlend mode="normal" in="SourceGraphic" in2="effect1_dropShadow_503_6162" result="shape"/>
</filter>
<filter id="filter8_d_503_6162" x="503.11" y="438.811" width="71.1299" height="21.2502" filterUnits="userSpaceOnUse" color-interpolation-filters="sRGB">
<feFlood flood-opacity="0" result="BackgroundImageFix"/>
<feColorMatrix in="SourceAlpha" type="matrix" values="0 0 0 0 0 0 0 0 0 0 0 0 0 0 0 0 0 0 127 0" result="hardAlpha"/>
<feOffset dy="4"/>
<feGaussianBlur stdDeviation="2"/>
<feComposite in2="hardAlpha" operator="out"/>
<feColorMatrix type="matrix" values="0 0 0 0 0 0 0 0 0 0 0 0 0 0 0 0 0 0 0.25 0"/>
<feBlend mode="normal" in2="BackgroundImageFix" result="effect1_dropShadow_503_6162"/>
<feBlend mode="normal" in="SourceGraphic" in2="effect1_dropShadow_503_6162" result="shape"/>
</filter>
<filter id="filter9_d_503_6162" x="488.844" y="450.499" width="98.249" height="29.4915" filterUnits="userSpaceOnUse" color-interpolation-filters="sRGB">
<feFlood flood-opacity="0" result="BackgroundImageFix"/>
<feColorMatrix in="SourceAlpha" type="matrix" values="0 0 0 0 0 0 0 0 0 0 0 0 0 0 0 0 0 0 127 0" result="hardAlpha"/>
<feOffset dy="4"/>
<feGaussianBlur stdDeviation="2"/>
<feComposite in2="hardAlpha" operator="out"/>
<feColorMatrix type="matrix" values="0 0 0 0 0 0 0 0 0 0 0 0 0 0 0 0 0 0 0.25 0"/>
<feBlend mode="normal" in2="BackgroundImageFix" result="effect1_dropShadow_503_6162"/>
<feBlend mode="normal" in="SourceGraphic" in2="effect1_dropShadow_503_6162" result="shape"/>
</filter>
</defs>
</svg>
