<svg width="405" height="219" viewBox="0 0 405 219" fill="none" xmlns="http://www.w3.org/2000/svg">
<g clip-path="url(#clip0_312_712)">
<path d="M17.2524 71.292C29.9086 66.7518 42.5649 62.7684 55.1782 58.2282L104.516 53.8165C100.269 55.9581 95.335 58.0997 89.7577 60.0272C87.6554 60.7553 82.2068 62.5971 70.7089 64.9528C67.7916 65.5525 58.1814 67.5228 44.0236 69.3217C36.9446 70.2212 27.8922 70.6067 17.2095 71.292H17.2524Z" fill="#42210B" stroke="black" stroke-width="0.05" stroke-miterlimit="10"/>
<path d="M396.554 73.1337L360.516 59.9843H330.141C337.691 63.7535 347.859 67.9511 360.301 70.7351C374.759 73.9904 387.33 73.6477 396.597 73.1337H396.554Z" fill="#42210B" stroke="black" stroke-width="0.05" stroke-miterlimit="10"/>
<path d="M82.0352 211.909C82.0352 212.381 82.2497 216.064 80.8768 217.563C78.8175 219.833 75.4711 219.277 75.0421 219.234C54.2343 219.405 25.2751 218.334 4.03835 218.463C2.96578 218.463 1.97902 217.906 1.5071 216.921C-0.595128 212.552 4.51027 205.999 4.63898 205.827C5.28252 205.87 5.84025 210.025 6.48379 210.068C32.6543 212.124 82.0352 211.909 82.0352 211.909Z" fill="#603813" stroke="black" stroke-width="0.1" stroke-miterlimit="10"/>
<path d="M88.1272 204.928C88.1272 205.399 87.5695 207.583 85.8105 209.768C84.3947 211.567 80.8338 211.61 80.4048 211.567C59.5112 211.738 28.6214 210.582 7.38464 210.71C6.6982 210.71 6.01176 210.453 5.62564 209.896C2.57956 205.527 7.89947 198.717 8.02818 198.503C8.67172 198.546 8.3285 202.187 8.97204 202.229C35.1426 204.328 61.9567 202.829 88.1272 204.928Z" fill="#603813" stroke="black" stroke-width="0.1" stroke-miterlimit="10"/>
<path d="M329.926 210.839C329.926 211.31 329.755 214.993 330.999 216.492C332.887 218.763 336.018 218.206 336.447 218.163C355.839 218.334 382.868 217.263 402.646 217.392C403.633 217.392 404.577 216.835 405.006 215.85C406.979 211.481 402.217 204.928 402.088 204.756C401.488 204.799 400.973 208.954 400.372 208.997C375.961 211.053 329.926 210.839 329.926 210.839Z" fill="#603813" stroke="black" stroke-width="0.15" stroke-miterlimit="10"/>
<path d="M324.22 203.857C324.22 204.328 324.735 206.513 326.365 208.697C327.695 210.496 330.999 210.539 331.428 210.496C350.906 210.667 379.736 209.511 399.514 209.639C400.158 209.639 400.801 209.382 401.144 208.826C403.976 204.457 398.742 197.646 398.613 197.432C398.013 197.475 397.97 201.116 397.369 201.159C372.957 203.257 348.589 201.758 324.177 203.857H324.22Z" fill="#603813" stroke="black" stroke-width="0.15" stroke-miterlimit="10"/>
<path d="M17.2524 71.8488C17.3811 76.1748 17.5527 82.514 17.6385 90.2237C17.853 110.826 17.9388 121.32 16.0511 130.186C14.6353 136.868 11.6751 146.591 4.72485 157.727C5.96903 171.733 7.47062 187.709 8.71479 201.844C8.80059 202.658 9.44413 203.3 10.3022 203.343C36.344 204.885 62.1285 203.215 88.1703 204.842C88.5993 204.071 89.9722 202.272 92.6751 201.501C95.6782 200.645 98.3811 200.388 99.2392 200.516C169.299 199.531 241.161 200.602 311.221 199.617C312.465 199.445 317.913 199.274 320.273 199.617C322.032 199.874 323.362 201.887 324.263 202.958C349.533 202.272 372.142 201.844 397.412 201.201L404.233 158.241C402.303 155.671 399.428 151.431 397.197 145.734C392.564 134.127 393.722 124.832 395.267 99.1328C395.61 93.6503 396.125 84.8269 396.64 73.6906C390.462 73.6906 382.053 73.3051 372.185 71.8488C360.473 70.0927 340.652 65.8951 316.069 53.3025C277.37 33.4713 280.459 19.2083 253.388 8.71443C217.95 -5.03464 184.015 3.48892 178.523 4.94521C135.32 16.3814 126.525 51.8034 84.3949 62.0403C67.3197 66.195 47.0268 68.9362 47.0268 68.9362C34.8424 70.6067 24.6316 71.4205 17.424 71.8488H17.2524Z" fill="#603813" stroke="black" stroke-width="0.25" stroke-miterlimit="10"/>
<path d="M125.281 99.9894L125.71 120.806C125.71 120.806 128.627 122.99 130.901 120.549L130.172 100.032C130.172 99.4326 127.126 97.548 125.281 100.032V99.9894Z" fill="#666666" stroke="#1A1A1A" stroke-width="0.08" stroke-miterlimit="10"/>
<path d="M127.726 101.617C129.077 101.617 130.172 100.965 130.172 100.161C130.172 99.3565 129.077 98.7045 127.726 98.7045C126.376 98.7045 125.281 99.3565 125.281 100.161C125.281 100.965 126.376 101.617 127.726 101.617Z" fill="#1A1A1A"/>
<path d="M125.281 106.543C125.281 106.543 127.855 108.641 130.386 106.543" stroke="#1A1A1A" stroke-width="0.05" stroke-miterlimit="10"/>
<path d="M125.538 112.411C125.538 112.411 127.855 114.424 130.515 112.368" stroke="#1A1A1A" stroke-width="0.05" stroke-miterlimit="10"/>
<path d="M17.2524 71.8059C24.7604 115.623 32.3112 159.483 39.8192 203.3L88.1704 204.928C82.593 158.798 76.3721 111.383 70.7948 65.2527C61.0988 67.4371 50.2016 69.3645 38.2318 70.5638C30.8525 71.292 23.8165 71.6775 17.2524 71.8059Z" fill="#42210B" stroke="black" stroke-width="0.05" stroke-miterlimit="10"/>
<path d="M210.657 187.024C254.302 187.024 289.684 151.701 289.684 108.127C289.684 64.554 254.302 29.2308 210.657 29.2308C167.012 29.2308 131.631 64.554 131.631 108.127C131.631 151.701 167.012 187.024 210.657 187.024Z" fill="#2B140A" stroke="#2B140A" stroke-width="0.75" stroke-miterlimit="10"/>
<path d="M347.001 66.9659L326.065 202.315L373.944 201.373L396.554 74.5472C389.432 74.5472 381.195 74.076 372.099 72.7054C362.489 71.2491 354.08 69.1504 347.001 66.9231V66.9659Z" fill="#42210B" stroke="black" stroke-width="0.05" stroke-miterlimit="10"/>
<path d="M210.803 187.324C254.447 187.324 289.828 152.001 289.828 108.429C289.828 64.8561 254.447 29.5336 210.803 29.5336C167.159 29.5336 131.778 64.8561 131.778 108.429C131.778 152.001 167.159 187.324 210.803 187.324Z" fill="#391E00" stroke="#2B140A" stroke-width="0.75" stroke-miterlimit="10"/>
<path d="M151.813 159.055C156.446 163.938 176.353 183.897 207.843 185.353C244.18 187.024 267.734 162.867 271.552 158.798C236.973 159.697 186.349 158.155 151.813 159.055Z" fill="#2B140A"/>
<path d="M239.561 122.019L241.061 137.547L221.364 172.993L218.372 171.317L237.701 136.47L235.502 119.745L239.561 122.019Z" fill="#004497"/>
<path d="M206.504 103L236.647 119.887L238.845 136.612L218.083 173.99L179 152.095L186.321 139.027L187.268 137.336L191.178 136.079L190.118 132.248L190.654 131.292L194.447 130.244L193.731 125.8L206.504 103Z" fill="url(#paint0_linear_312_712)" stroke="black" stroke-width="0.25" stroke-miterlimit="10"/>
<path opacity="0.84" d="M210.302 114.598L190.188 150.502L215.94 164.93L227.924 143.539L216.85 137.335L232.381 135.583L210.302 114.598Z" fill="url(#paint1_radial_312_712)" stroke="#007CBC" stroke-width="0.5" stroke-miterlimit="10"/>
<path d="M234.472 130.699C232.033 128.785 228.57 125.331 226.266 123.203C224.002 121.032 220.36 117.784 218.305 115.441C220.745 117.356 224.207 120.809 226.511 122.938C228.776 125.108 232.418 128.356 234.472 130.699Z" fill="#00EFFF"/>
<path d="M234.472 130.699L218.317 115.448" stroke="#0091FF" stroke-width="0.05" stroke-miterlimit="10"/>
<path d="M234.7 128.25C232.955 126.966 230.695 124.557 229.104 123.054C227.571 121.534 225.078 119.284 223.747 117.604C225.468 118.875 227.789 121.318 229.343 122.801C230.899 124.365 233.346 126.525 234.7 128.25Z" fill="#00DFFF"/>
<path d="M234.7 128.25L223.747 117.604" stroke="#0091FF" stroke-width="0.03" stroke-miterlimit="10"/>
<path d="M194.882 130.504C194.682 130.199 194.54 129.733 194.508 129.36L194.311 128.187C194.241 127.794 194.067 126.81 194.003 126.436L194.076 125.817L194.346 126.371C194.41 126.745 194.59 127.747 194.654 128.121L194.85 129.295C194.941 129.651 194.975 130.137 194.889 130.492L194.882 130.504Z" fill="#00E9FF"/>
<path d="M190.828 131.615C191.084 131.388 191.462 131.23 191.798 131.176L192.812 130.891C193.15 130.806 194.011 130.564 194.336 130.472L194.882 130.504L194.421 130.809C194.096 130.901 193.222 131.137 192.897 131.228L191.883 131.514C191.563 131.625 191.158 131.687 190.821 131.627L190.828 131.615Z" fill="#00E9FF"/>
<path d="M191.661 136.253C191.427 136.009 191.244 135.617 191.172 135.286L190.854 134.271C190.75 133.939 190.483 133.065 190.379 132.732L190.386 132.173L190.711 132.629C190.81 132.942 191.082 133.835 191.186 134.167L191.504 135.183C191.634 135.497 191.702 135.922 191.661 136.253Z" fill="#00E9FF"/>
<path d="M187.37 137.586C187.633 137.346 188.057 137.165 188.406 137.087L189.491 136.761C189.843 136.652 190.775 136.369 191.119 136.272L191.71 136.281L191.216 136.616C190.872 136.713 189.94 136.996 189.589 137.105L188.504 137.432C188.177 137.555 187.726 137.64 187.363 137.598L187.37 137.586Z" fill="#00E9FF"/>
<path d="M165.889 187.327C184.728 187.327 200 152.003 200 108.43C200 64.8568 184.728 29.5336 165.889 29.5336C147.05 29.5336 131.778 64.8568 131.778 108.43C131.778 152.003 147.05 187.327 165.889 187.327Z" fill="#8B8B7F" stroke="#2B140A" stroke-width="0.75" stroke-miterlimit="10"/>
<path d="M165.889 187.327C184.728 187.327 200 152.003 200 108.43C200 64.8568 184.728 29.5336 165.889 29.5336C147.05 29.5336 131.778 64.8568 131.778 108.43C131.778 152.003 147.05 187.327 165.889 187.327Z" fill="#8B8B7F" stroke="#2B140A" stroke-width="0.75" stroke-miterlimit="10"/>
<path d="M165.778 53.991C178.593 53.991 189.037 78.1054 189.037 107.788C189.037 137.471 178.611 161.585 165.778 161.585C152.945 161.585 142.519 137.471 142.519 107.788C142.519 78.1054 152.945 53.991 165.778 53.991ZM165.778 52.9202C152.685 52.9202 142.056 77.4629 142.056 107.788C142.056 138.113 152.667 162.656 165.778 162.656C178.889 162.656 189.5 138.113 189.5 107.788C189.5 77.4629 178.889 52.9202 165.778 52.9202Z" fill="#42210B"/>
<path d="M165.843 48.7012C165.843 48.8154 165.775 48.8725 165.639 48.8725H165.528C165.528 48.8725 165.411 48.8725 165.176 48.8725C164.941 48.8582 164.704 48.8511 164.463 48.8511C164.037 48.8511 163.766 48.8582 163.648 48.8725C163.531 48.8868 163.438 48.8939 163.371 48.8939C163.222 48.8939 163.148 48.8297 163.148 48.7012C163.148 48.5727 163.191 48.5084 163.278 48.5084C163.414 48.5084 163.559 48.5013 163.713 48.487C163.904 48.4727 164.006 48.3657 164.019 48.1658C164.037 47.9516 164.046 47.5019 164.046 46.8166V36.7511C164.046 36.2942 164.04 36.0229 164.028 35.9372C164.016 35.8516 163.972 35.8088 163.898 35.8088C163.867 35.8088 163.667 35.8444 163.296 35.9158C163.222 35.9301 163.173 35.9372 163.148 35.9372C163.074 35.9372 163.037 35.8873 163.037 35.7873C163.037 35.6731 163.074 35.6089 163.148 35.5946C163.438 35.5232 163.732 35.3233 164.028 34.9949C164.324 34.6523 164.562 34.2525 164.741 33.7956C164.809 33.6672 164.855 33.6029 164.88 33.6029C164.929 33.6029 164.954 33.6743 164.954 33.8171V34.224C164.948 34.3382 164.945 34.4667 164.945 34.6095V47.4162C164.945 47.9302 164.954 48.23 164.972 48.3157C164.997 48.4014 165.074 48.4513 165.204 48.4656L165.417 48.487L165.574 48.5084H165.713C165.8 48.5084 165.843 48.5727 165.843 48.7012Z" fill="black"/>
<path d="M182.565 59.6664C182.565 59.7806 182.497 59.8378 182.361 59.8378H182.25C182.25 59.8378 182.133 59.8378 181.898 59.8378C181.664 59.8235 181.426 59.8163 181.185 59.8163C180.759 59.8163 180.488 59.8235 180.371 59.8378C180.253 59.852 180.161 59.8592 180.093 59.8592C179.945 59.8592 179.871 59.7949 179.871 59.6664C179.871 59.5379 179.914 59.4737 180 59.4737C180.136 59.4737 180.281 59.4665 180.435 59.4523C180.627 59.438 180.729 59.3309 180.741 59.131C180.759 58.9169 180.769 58.4671 180.769 57.7818V47.7163C180.769 47.2594 180.763 46.9882 180.75 46.9025C180.738 46.8168 180.695 46.774 180.621 46.774C180.59 46.774 180.389 46.8097 180.019 46.8811C179.945 46.8954 179.895 46.9025 179.871 46.9025C179.796 46.9025 179.759 46.8525 179.759 46.7526C179.759 46.6384 179.796 46.5741 179.871 46.5598C180.161 46.4884 180.454 46.2886 180.75 45.9602C181.046 45.6175 181.284 45.2178 181.463 44.7609C181.531 44.6324 181.577 44.5681 181.602 44.5681C181.651 44.5681 181.676 44.6395 181.676 44.7823V45.1892C181.67 45.3034 181.667 45.4319 181.667 45.5747V58.3815C181.667 58.8955 181.676 59.1953 181.695 59.2809C181.719 59.3666 181.796 59.4166 181.926 59.4309L182.139 59.4523L182.296 59.4737H182.435C182.522 59.4737 182.565 59.5379 182.565 59.6664Z" fill="black"/>
<path d="M193.028 77.9339C193.028 77.9768 193.021 78.091 193.009 78.2766C192.978 78.7477 192.929 79.9114 192.861 81.7674L192.852 82.0244C192.216 81.953 191.491 81.9173 190.676 81.9173C190.237 81.9173 189.827 81.9316 189.444 81.9601C189.062 81.9887 188.895 82.003 188.944 82.003C188.778 82.003 188.694 81.9316 188.694 81.7888C188.694 81.6746 188.855 81.3177 189.176 80.718C189.947 79.2617 190.497 78.0767 190.824 77.163C191.392 75.5782 191.676 73.715 191.676 71.5734C191.676 70.1314 191.546 69.0392 191.287 68.2967C191.089 67.7256 190.812 67.4401 190.454 67.4401C190.102 67.4401 189.824 67.69 189.62 68.1897C189.46 68.5751 189.379 68.9606 189.379 69.3461C189.379 69.5888 189.463 69.7173 189.629 69.7316C190.062 69.7744 190.278 70.2099 190.278 71.038C190.278 71.8232 190.099 72.2159 189.741 72.2159C189.512 72.2159 189.33 72.0517 189.194 71.7233C189.058 71.3949 188.991 70.9452 188.991 70.3741C188.991 69.3176 189.151 68.4681 189.472 67.8256C189.793 67.1831 190.216 66.8619 190.741 66.8619C191.265 66.8619 191.7 67.2474 192.046 68.0183C192.447 68.9178 192.648 70.0885 192.648 71.5306C192.648 73.1153 192.42 74.5788 191.963 75.9208C191.506 77.2486 190.737 78.6978 189.657 80.2683C190.065 80.2397 190.577 80.2255 191.194 80.2255C191.707 80.2255 192.031 80.2112 192.166 80.1826C192.302 80.1398 192.423 80.047 192.528 79.9042C192.614 79.7757 192.688 79.2974 192.75 78.4693C192.793 77.8982 192.855 77.6127 192.935 77.6127C192.997 77.6127 193.028 77.7198 193.028 77.9339Z" fill="black"/>
<path d="M196.791 107.778C196.791 109.081 196.563 110.196 196.108 111.123C195.606 112.144 194.964 112.654 194.183 112.654C193.545 112.654 193.077 112.308 192.778 111.617C192.588 111.178 192.493 110.675 192.493 110.11C192.493 109.623 192.557 109.238 192.686 108.955C192.822 108.657 193.002 108.508 193.226 108.508C193.403 108.508 193.549 108.626 193.664 108.861C193.779 109.097 193.837 109.395 193.837 109.756C193.837 110.306 193.678 110.738 193.358 111.052C193.229 111.178 193.165 111.303 193.165 111.429C193.165 111.633 193.253 111.822 193.43 111.994C193.606 112.151 193.8 112.23 194.01 112.23C194.526 112.23 194.944 111.822 195.263 111.005C195.589 110.188 195.752 109.12 195.752 107.801C195.752 105.147 195.236 103.82 194.204 103.82C194.102 103.82 194.027 103.828 193.98 103.843H193.908C193.82 103.843 193.776 103.773 193.776 103.631C193.776 103.521 193.857 103.435 194.02 103.372C194.496 103.215 194.862 102.815 195.12 102.171C195.378 101.511 195.507 100.671 195.507 99.6502C195.507 98.6451 195.395 97.8441 195.171 97.2473C194.947 96.6348 194.645 96.3286 194.265 96.3286C193.986 96.3286 193.742 96.4699 193.532 96.7526C193.328 97.0196 193.226 97.3337 193.226 97.6949C193.226 97.8362 193.274 97.9305 193.369 97.9776C193.817 98.2289 194.041 98.6608 194.041 99.2733C194.041 100.074 193.861 100.475 193.501 100.475C193.27 100.475 193.083 100.318 192.941 100.004C192.805 99.6894 192.737 99.2733 192.737 98.755C192.737 97.9069 192.893 97.2002 193.206 96.6348C193.525 96.0537 193.966 95.7632 194.53 95.7632C195.175 95.7632 195.667 96.1479 196.007 96.9175C196.346 97.687 196.516 98.5822 196.516 99.6031C196.516 101.017 196.227 102.061 195.65 102.736C195.446 102.972 195.117 103.168 194.662 103.325V103.49C195.226 103.537 195.681 103.828 196.027 104.362C196.536 105.147 196.791 106.286 196.791 107.778Z" fill="black"/>
<path d="M193.012 140.019C193.012 140.176 192.978 140.255 192.91 140.255C192.849 140.255 192.808 140.168 192.788 139.996C192.775 139.807 192.751 139.312 192.717 138.511C192.703 138.386 192.676 138.292 192.635 138.229C192.554 138.119 192.374 138.064 192.096 138.064C192.021 138.064 191.95 138.072 191.882 138.087L191.892 141.786C191.926 141.974 191.98 142.092 192.055 142.139C192.136 142.186 192.33 142.21 192.635 142.21C192.785 142.21 192.873 142.241 192.9 142.304C192.907 142.336 192.91 142.383 192.91 142.445C192.91 142.555 192.775 142.61 192.503 142.61C192.231 142.61 191.471 142.626 190.221 142.658C190.154 142.673 190.079 142.681 189.997 142.681C189.862 142.681 189.794 142.603 189.794 142.445C189.794 142.288 189.892 142.218 190.089 142.233C190.32 142.249 190.53 142.218 190.721 142.139C190.802 142.108 190.853 142.029 190.873 141.904C190.894 141.762 190.904 141.464 190.904 141.008V138.158C190.768 138.142 190.612 138.134 190.435 138.134H190.018C189.923 138.134 189.817 138.142 189.702 138.158C189.6 138.158 189.536 138.158 189.508 138.158L188.215 138.087C188.12 138.072 188.072 138.009 188.072 137.899C188.072 137.82 188.571 136.195 189.57 133.022C189.882 132.002 190.571 129.756 191.637 126.285C191.685 126.128 191.732 126.049 191.78 126.049C191.848 126.049 191.882 126.199 191.882 126.497V137.569H191.983C192.214 137.569 192.394 137.538 192.523 137.475C192.659 137.412 192.727 137.255 192.727 137.004C192.72 136.014 192.717 135.677 192.717 135.991C192.724 135.425 192.761 135.143 192.829 135.143C192.924 135.143 192.971 135.363 192.971 135.802V136.862L192.982 138.558C192.988 139.14 192.995 139.509 193.002 139.666C193.009 139.807 193.012 139.925 193.012 140.019ZM190.965 129.512C190.897 129.764 190.754 130.243 190.537 130.949C190.238 131.907 189.787 133.337 189.183 135.237L188.459 137.522C188.711 137.569 189.25 137.593 190.079 137.593C190.371 137.593 190.646 137.585 190.904 137.569V135.896C190.904 135.111 190.914 134.051 190.934 132.716C190.955 131.146 190.965 130.078 190.965 129.512Z" fill="black"/>
<path d="M183.278 167.346C183.278 169.173 182.975 170.573 182.37 171.544C182.006 172.129 181.534 172.422 180.954 172.422C180.373 172.422 179.948 172.072 179.676 171.372C179.528 170.987 179.454 170.53 179.454 170.002C179.454 169.559 179.515 169.202 179.639 168.931C179.762 168.645 179.923 168.502 180.12 168.502C180.281 168.502 180.414 168.61 180.519 168.824C180.63 169.038 180.685 169.302 180.685 169.616C180.685 170.144 180.534 170.544 180.231 170.815C180.096 170.93 180.028 171.058 180.028 171.201C180.028 171.429 180.117 171.636 180.296 171.822C180.481 171.993 180.685 172.079 180.907 172.079C181.34 172.079 181.664 171.736 181.88 171.051C182.176 170.109 182.324 168.838 182.324 167.239C182.324 166.068 182.207 165.162 181.972 164.519C181.738 163.877 181.404 163.555 180.972 163.555C180.639 163.555 180.272 163.848 179.87 164.433C179.907 161.221 179.935 159.194 179.954 158.351C179.96 157.866 180.006 157.573 180.093 157.473C180.179 157.359 180.414 157.302 180.796 157.302C180.858 157.302 180.963 157.302 181.111 157.302C181.259 157.316 181.377 157.323 181.463 157.323H181.778C182.204 157.323 182.451 157.309 182.519 157.28C182.593 157.238 182.639 157.116 182.657 156.916C182.682 156.588 182.725 156.424 182.787 156.424C182.849 156.424 182.88 156.502 182.88 156.659C182.88 156.759 182.877 156.838 182.87 156.895L182.852 157.388C182.821 158.187 182.756 158.687 182.657 158.887C182.565 159.072 182.333 159.165 181.963 159.165L180.194 159.144C180.17 159.629 180.148 161.093 180.13 163.534C180.481 163.163 180.849 162.977 181.231 162.977C181.867 162.977 182.367 163.37 182.731 164.155C183.096 164.926 183.278 165.99 183.278 167.346Z" fill="black"/>
<path d="M168.25 177.497C168.25 178.882 168.068 180.067 167.704 181.052C167.34 182.037 166.904 182.53 166.398 182.53C165.762 182.53 165.247 181.923 164.852 180.71C164.457 179.496 164.259 177.918 164.259 175.977C164.259 174.192 164.426 172.564 164.759 171.094C165.099 169.623 165.549 168.552 166.111 167.881C166.58 167.325 167.093 167.046 167.648 167.046C167.778 167.046 167.843 167.103 167.843 167.217C167.843 167.317 167.799 167.374 167.713 167.389C167.158 167.503 166.667 167.967 166.241 168.781C165.685 169.837 165.358 171.636 165.259 174.178C165.599 173.435 165.982 173.064 166.408 173.064C166.753 173.064 167.077 173.278 167.38 173.706C167.96 174.52 168.25 175.784 168.25 177.497ZM167.296 177.561C167.296 174.906 166.941 173.578 166.232 173.578C165.911 173.578 165.664 173.899 165.491 174.542C165.318 175.17 165.232 176.055 165.232 177.197C165.232 178.839 165.358 180.167 165.611 181.181C165.772 181.823 166.006 182.144 166.315 182.144C166.969 182.144 167.296 180.617 167.296 177.561Z" fill="black"/>
<path d="M152.898 158.394C152.898 158.48 152.54 159.815 151.824 162.399C151.423 163.855 151.148 164.997 151 165.825C150.852 166.639 150.778 167.453 150.778 168.267C150.778 168.681 150.821 169.495 150.908 170.708C150.938 171.136 150.954 171.501 150.954 171.8C150.954 172.814 150.79 173.321 150.463 173.321C150.074 173.321 149.88 172.543 149.88 170.987C149.88 169.545 150.167 167.646 150.741 165.29C151.105 163.805 151.577 162.077 152.158 160.107H150.75C150.022 160.107 149.602 160.114 149.491 160.129C149.355 160.143 149.259 160.193 149.204 160.279C149.154 160.364 149.117 160.486 149.093 160.643C149.074 160.785 149.025 161.285 148.945 162.142C148.92 162.313 148.883 162.399 148.833 162.399C148.772 162.399 148.741 162.313 148.741 162.142C148.741 161.97 148.756 161.692 148.787 161.307C148.855 160.436 148.898 159.693 148.917 159.079C148.929 158.637 148.969 158.33 149.037 158.158C149.08 158.158 149.207 158.173 149.417 158.201C149.886 158.258 150.225 158.287 150.435 158.287L152.352 158.244C152.401 158.244 152.454 158.237 152.509 158.223C152.559 158.223 152.59 158.223 152.602 158.223C152.8 158.223 152.898 158.28 152.898 158.394Z" fill="black"/>
<path d="M143.074 143.51C143.074 144.938 142.818 146.087 142.305 146.958C141.96 147.543 141.531 147.836 141.018 147.836C140.469 147.836 140.006 147.551 139.63 146.979C139.117 146.208 138.861 145.123 138.861 143.724C138.861 141.597 139.358 140.248 140.352 139.677V139.569C139.975 139.327 139.679 138.92 139.463 138.349C139.253 137.763 139.148 137.071 139.148 136.271C139.148 135.158 139.312 134.251 139.639 133.552C139.972 132.838 140.401 132.481 140.926 132.481C141.389 132.481 141.768 132.738 142.065 133.252C142.497 133.994 142.713 134.951 142.713 136.122C142.713 136.964 142.605 137.721 142.389 138.392C142.173 139.048 141.904 139.448 141.583 139.591L141.592 139.677C142.58 140.133 143.074 141.411 143.074 143.51ZM141.796 136.164C141.796 134.894 141.697 133.958 141.5 133.359C141.383 133.002 141.194 132.823 140.935 132.823C140.355 132.823 140.065 133.944 140.065 136.186C140.065 138.37 140.376 139.462 141 139.462C141.278 139.462 141.472 139.227 141.583 138.756C141.725 138.142 141.796 137.278 141.796 136.164ZM142.13 143.724C142.13 141.126 141.753 139.826 141 139.826C140.623 139.826 140.33 140.162 140.12 140.833C139.91 141.49 139.805 142.404 139.805 143.574C139.805 144.788 139.913 145.744 140.13 146.444C140.352 147.144 140.654 147.493 141.037 147.493C141.364 147.493 141.605 147.279 141.759 146.851C142.006 146.166 142.13 145.123 142.13 143.724Z" fill="black"/>
<path d="M139.173 102.59C139.173 104.648 138.966 106.516 138.552 108.197C138.144 109.862 137.608 111.016 136.942 111.66C136.454 112.131 135.965 112.367 135.476 112.367C135.299 112.367 135.211 112.312 135.211 112.202C135.211 112.107 135.259 112.045 135.354 112.013C136.501 111.668 137.289 110.348 137.717 108.056C137.886 107.129 138.005 105.951 138.073 104.522C137.7 105.339 137.279 105.747 136.81 105.747C136.362 105.747 135.954 105.433 135.588 104.805C135.051 103.894 134.783 102.551 134.783 100.776C134.783 99.2686 134.98 97.9886 135.374 96.9364C135.775 95.8684 136.257 95.3344 136.82 95.3344C137.513 95.3344 138.076 96.0098 138.511 97.3604C138.952 98.711 139.173 100.454 139.173 102.59ZM138.104 101.035C138.104 99.245 137.961 97.8315 137.676 96.795C137.479 96.0883 137.211 95.7349 136.871 95.7349C136.172 95.7349 135.822 97.4311 135.822 100.823C135.822 103.729 136.213 105.182 136.993 105.182C137.34 105.182 137.611 104.82 137.808 104.098C138.005 103.36 138.104 102.339 138.104 101.035Z" fill="black"/>
<path d="M141.416 80.1826C141.416 80.2968 141.349 80.3539 141.213 80.3539H141.102C141.102 80.3539 140.984 80.3539 140.75 80.3539C140.515 80.3397 140.278 80.3325 140.037 80.3325C139.611 80.3325 139.339 80.3397 139.222 80.3539C139.105 80.3682 139.012 80.3753 138.944 80.3753C138.796 80.3753 138.722 80.3111 138.722 80.1826C138.722 80.0541 138.765 79.9899 138.852 79.9899C138.987 79.9899 139.133 79.9827 139.287 79.9684C139.478 79.9542 139.58 79.8471 139.592 79.6472C139.611 79.433 139.62 78.9833 139.62 78.298V68.2325C139.62 67.7756 139.614 67.5043 139.602 67.4187C139.589 67.333 139.546 67.2902 139.472 67.2902C139.441 67.2902 139.241 67.3259 138.87 67.3972C138.796 67.4115 138.747 67.4187 138.722 67.4187C138.648 67.4187 138.611 67.3687 138.611 67.2688C138.611 67.1545 138.648 67.0903 138.722 67.076C139.012 67.0046 139.305 66.8047 139.602 66.4764C139.898 66.1337 140.136 65.7339 140.315 65.2771C140.383 65.1486 140.429 65.0843 140.454 65.0843C140.503 65.0843 140.528 65.1557 140.528 65.2985V65.7054C140.521 65.8196 140.518 65.9481 140.518 66.0909V78.8976C140.518 79.4116 140.528 79.7114 140.546 79.7971C140.571 79.8828 140.648 79.9327 140.778 79.947L140.991 79.9684L141.148 79.9899H141.287C141.373 79.9899 141.416 80.0541 141.416 80.1826Z" fill="black"/>
<path d="M151.361 58.3384C151.361 58.4526 151.293 58.5097 151.157 58.5097H151.046C151.046 58.5097 150.929 58.5097 150.694 58.5097C150.46 58.4954 150.222 58.4883 149.982 58.4883C149.556 58.4883 149.284 58.4954 149.167 58.5097C149.049 58.524 148.957 58.5311 148.889 58.5311C148.741 58.5311 148.667 58.4669 148.667 58.3384C148.667 58.2099 148.71 58.1456 148.796 58.1456C148.932 58.1456 149.077 58.1385 149.232 58.1242C149.423 58.1099 149.525 58.0029 149.537 57.803C149.556 57.5888 149.565 57.1391 149.565 56.4538V46.3883C149.565 45.9314 149.559 45.6601 149.546 45.5744C149.534 45.4888 149.491 45.446 149.417 45.446C149.386 45.446 149.185 45.4816 148.815 45.553C148.741 45.5673 148.691 45.5744 148.667 45.5744C148.593 45.5744 148.556 45.5245 148.556 45.4245C148.556 45.3103 148.593 45.2461 148.667 45.2318C148.957 45.1604 149.25 44.9605 149.546 44.6321C149.843 44.2895 150.08 43.8897 150.259 43.4328C150.327 43.3044 150.373 43.2401 150.398 43.2401C150.448 43.2401 150.472 43.3115 150.472 43.4543V43.8612C150.466 43.9754 150.463 44.1039 150.463 44.2467V57.0534C150.463 57.5674 150.472 57.8672 150.491 57.9529C150.515 58.0386 150.593 58.0885 150.722 58.1028L150.935 58.1242L151.093 58.1456H151.232C151.318 58.1456 151.361 58.2099 151.361 58.3384Z" fill="black"/>
<path d="M169.398 44.8249C169.398 44.8677 169.392 44.9819 169.379 45.1675C169.349 45.6387 169.299 46.8023 169.231 48.6584L169.222 48.9153C168.586 48.844 167.861 48.8083 167.046 48.8083C166.608 48.8083 166.197 48.8225 165.815 48.8511C165.432 48.8797 165.265 48.8939 165.315 48.8939C165.148 48.8939 165.065 48.8225 165.065 48.6798C165.065 48.5655 165.225 48.2086 165.546 47.609C166.318 46.1527 166.867 44.9677 167.194 44.0539C167.762 42.4691 168.046 40.6059 168.046 38.4643C168.046 37.0223 167.916 35.9301 167.657 35.1877C167.46 34.6166 167.182 34.331 166.824 34.331C166.472 34.331 166.194 34.5809 165.991 35.0806C165.83 35.4661 165.75 35.8516 165.75 36.2371C165.75 36.4798 165.833 36.6083 166 36.6226C166.432 36.6654 166.648 37.1009 166.648 37.9289C166.648 38.7142 166.469 39.1068 166.111 39.1068C165.883 39.1068 165.7 38.9426 165.565 38.6142C165.429 38.2859 165.361 37.8361 165.361 37.265C165.361 36.2085 165.521 35.359 165.842 34.7165C166.163 34.0741 166.586 33.7528 167.111 33.7528C167.636 33.7528 168.071 34.1383 168.416 34.9093C168.818 35.8088 169.018 36.9795 169.018 38.4215C169.018 40.0063 168.79 41.4697 168.333 42.8118C167.876 44.1396 167.108 45.5887 166.028 47.1592C166.435 47.1307 166.947 47.1164 167.565 47.1164C168.077 47.1164 168.401 47.1021 168.537 47.0736C168.673 47.0307 168.793 46.9379 168.898 46.7952C168.984 46.6667 169.058 46.1884 169.12 45.3603C169.163 44.7892 169.225 44.5036 169.305 44.5036C169.367 44.5036 169.398 44.6107 169.398 44.8249Z" fill="black"/>
<path d="M153.769 58.3384C153.769 58.4526 153.701 58.5097 153.565 58.5097H153.454C153.454 58.5097 153.337 58.5097 153.102 58.5097C152.867 58.4954 152.63 58.4883 152.389 58.4883C151.963 58.4883 151.691 58.4954 151.574 58.5097C151.457 58.524 151.364 58.5311 151.296 58.5311C151.148 58.5311 151.074 58.4669 151.074 58.3384C151.074 58.2099 151.117 58.1456 151.204 58.1456C151.34 58.1456 151.485 58.1385 151.639 58.1242C151.83 58.1099 151.932 58.0029 151.945 57.803C151.963 57.5888 151.972 57.1391 151.972 56.4538V46.3883C151.972 45.9314 151.966 45.6601 151.954 45.5744C151.941 45.4888 151.898 45.446 151.824 45.446C151.793 45.446 151.593 45.4816 151.222 45.553C151.148 45.5673 151.099 45.5744 151.074 45.5744C151 45.5744 150.963 45.5245 150.963 45.4245C150.963 45.3103 151 45.2461 151.074 45.2318C151.364 45.1604 151.658 44.9605 151.954 44.6321C152.25 44.2895 152.488 43.8897 152.667 43.4328C152.735 43.3044 152.781 43.2401 152.806 43.2401C152.855 43.2401 152.88 43.3115 152.88 43.4543V43.8612C152.874 43.9754 152.87 44.1039 152.87 44.2467V57.0534C152.87 57.5674 152.88 57.8672 152.898 57.9529C152.923 58.0386 153 58.0885 153.13 58.1028L153.343 58.1242L153.5 58.1456H153.639C153.725 58.1456 153.769 58.2099 153.769 58.3384Z" fill="black"/>
<path d="M145.074 73.1582C145.074 74.4288 144.991 75.6281 144.824 76.756C144.664 77.8839 144.441 78.7906 144.157 79.4759C143.855 80.2183 143.469 80.5895 143 80.5895C142.358 80.5895 141.827 79.8614 141.407 78.4051C140.994 76.9488 140.787 75.0856 140.787 72.8155C140.787 70.1885 141.08 68.1183 141.667 66.6049C142.019 65.6911 142.451 65.2342 142.963 65.2342C143.568 65.2342 144.049 65.8696 144.407 67.1403C144.852 68.7108 145.074 70.7167 145.074 73.1582ZM144.074 72.3872C144.074 70.2599 143.972 68.5037 143.769 67.1188C143.614 66.0623 143.343 65.5341 142.954 65.5341C142.176 65.5341 141.787 67.9255 141.787 72.7084C141.787 77.7198 142.198 80.2254 143.019 80.2254C143.401 80.2254 143.676 79.4973 143.843 78.041C143.997 76.7132 144.074 74.8286 144.074 72.3872Z" fill="black"/>
<path d="M165.778 111.3C164.926 111.3 164.24 109.715 164.24 107.745C164.24 105.775 164.926 104.19 165.778 104.19C166.629 104.19 167.315 105.775 167.315 107.745C167.315 109.715 166.629 111.3 165.778 111.3Z" fill="black"/>
<path d="M165.778 105.389C166.334 105.389 166.797 106.46 166.797 107.745C166.797 109.03 166.334 110.101 165.778 110.101C165.222 110.101 164.759 109.03 164.759 107.745C164.759 106.46 165.222 105.389 165.778 105.389ZM165.778 103.033C164.648 103.033 163.741 105.132 163.741 107.745C163.741 110.358 164.648 112.456 165.778 112.456C166.908 112.456 167.815 110.358 167.815 107.745C167.815 105.132 166.908 103.033 165.778 103.033Z" fill="black"/>
<path d="M156.259 120.594L160.852 119.138L161.722 113.57L159.241 112.328L156.259 120.594Z" fill="black" stroke="#1A1A1A" stroke-width="0.05" stroke-miterlimit="10"/>
<path d="M163.907 110.786L163.24 116.054L160.963 114.598L161.666 109.458L163.907 110.786Z" fill="black" stroke="#1A1A1A" stroke-width="0.05" stroke-miterlimit="10"/>
<path d="M181.704 87.9993C181.704 87.9993 184.556 85.9434 185.945 88.5989C185.945 88.5989 186.167 81.3175 190.074 76.6917C190.074 76.6917 186.37 82.5168 183.537 78.6191C183.537 78.6191 183.111 83.8018 181.426 86.5858L181.722 87.9993H181.704Z" fill="black" stroke="black" stroke-width="0.05" stroke-miterlimit="10"/>
<path d="M179.445 85.9434L175.871 92.5395L177.556 92.7965L177.019 96.6514L181.204 92.5395L182.482 86.5002L179.445 85.9434Z" fill="black" stroke="black" stroke-width="0.05" stroke-miterlimit="10"/>
<path d="M167.74 104.018L175.24 91.383L178.759 91.2974L176.87 98.1505L168.352 106.374C168.296 105.989 167.852 104.275 167.759 104.018H167.74Z" fill="black" stroke="#1A1A1A" stroke-width="0.05" stroke-miterlimit="10"/>
<path d="M183.018 90.612C182.166 88.6846 181.555 86.3716 181.24 83.7161C182.092 85.6435 182.685 87.9564 183.018 90.612Z" fill="#1A1A1A"/>
<path d="M160.148 87.9564L160.945 97.4223L163.148 98.9642L163.519 93.7387L160.148 87.9564Z" fill="black" stroke="#1A1A1A" stroke-width="0.05" stroke-miterlimit="10"/>
<path d="M164.334 103.333L162.26 102.219L162.722 97.4222L164.741 98.6215L164.334 103.333Z" fill="black" stroke="#1A1A1A" stroke-width="0.05" stroke-miterlimit="10"/>
<path d="M166.722 112.842L167.426 119.524L169.556 120.851L169.944 115.712L167.63 111.514C167.537 111.771 166.852 112.713 166.722 112.842Z" fill="black" stroke="#1A1A1A" stroke-width="0.05" stroke-miterlimit="10"/>
<path d="M168.963 121.708C168.963 121.708 169.297 128.476 168.371 131.559C168.371 131.559 172.63 131.302 174.741 138.927C174.741 138.927 172.704 129.247 173.982 123.079C173.982 123.079 171.185 123.421 170 120.209L168.982 121.708H168.963Z" fill="black" stroke="#1A1A1A" stroke-width="0.05" stroke-miterlimit="10"/>
<path d="M168.222 122.436C168.834 120.337 169.685 119.095 170.759 118.71C170.148 120.809 169.278 122.051 168.222 122.436Z" fill="#1A1A1A"/>
</g>
<defs>
<linearGradient id="paint0_linear_312_712" x1="203.091" y1="107.337" x2="213.512" y2="170.577" gradientUnits="userSpaceOnUse">
<stop stop-color="#4D607A"/>
<stop offset="0.17" stop-color="#455E7B"/>
<stop offset="0.41" stop-color="#305B7F"/>
<stop offset="0.72" stop-color="#0E5785"/>
<stop offset="0.82" stop-color="#005588"/>
</linearGradient>
<radialGradient id="paint1_radial_312_712" cx="0" cy="0" r="1" gradientUnits="userSpaceOnUse" gradientTransform="translate(213.118 139.77) rotate(29.2585) scale(17.908 17.9008)">
<stop offset="0.45" stop-color="#00FFFF"/>
<stop offset="0.61" stop-color="#00FBFF"/>
<stop offset="0.75" stop-color="#00F0FF"/>
<stop offset="0.89" stop-color="#00DEFF"/>
<stop offset="1" stop-color="#00CAFF"/>
</radialGradient>
<clipPath id="clip0_312_712">
<rect width="405" height="219" fill="white"/>
</clipPath>
</defs>
</svg>
