<svg width="450" height="536" viewBox="0 0 450 536" fill="none" xmlns="http://www.w3.org/2000/svg">
<path d="M363.549 5.14014L448.119 126.937L449.455 512.36H416.856L415.253 133.615L319.326 5.14014H363.549Z" fill="#004497"/>
<path d="M1.08472 1H329.48L425.406 129.474L426.876 535.865H1.08472V393.501V375.071L27.6716 346.492L1.08472 319.648V309.232L27.6716 282.922L1.08472 249.402V1Z" fill="url(#paint0_linear_381_233)" stroke="black" stroke-width="0.25" stroke-miterlimit="10"/>
<path opacity="0.84" d="M86.457 79.527V470.693H367.022V237.649H246.379L367.022 150.976L86.457 79.527Z" fill="url(#paint1_radial_381_233)" stroke="#007CBC" stroke-width="0.5" stroke-miterlimit="10"/>
<path d="M361.678 100.761C332.553 96.2206 287.796 83.667 258.804 76.7224C229.946 69.2437 184.655 59.2275 156.732 49.3448C185.857 53.8855 230.614 66.4392 259.606 73.3837C288.464 80.8625 333.755 90.8787 361.678 100.761Z" fill="#00EFFF"/>
<path d="M361.678 100.761L156.865 49.3448" stroke="#0091FF" stroke-width="0.05" stroke-miterlimit="10"/>
<path d="M352.192 79.3933C331.751 76.8559 301.824 67.3739 281.65 62.299C261.877 56.8235 230.747 49.7454 211.909 41.9995C232.083 44.5369 262.678 54.0189 282.451 59.0938C302.625 64.8364 332.953 71.3803 352.192 79.3933Z" fill="#00DFFF"/>
<path d="M352.192 79.3933L211.909 41.9995" stroke="#0091FF" stroke-width="0.03" stroke-miterlimit="10"/>
<path d="M32.4815 283.056C29.4087 281.453 26.0686 278.248 24.0646 275.31L16.9836 266.496C14.5788 263.558 8.56666 256.213 6.29541 253.408L4.02417 247.933L8.83386 251.271C11.1051 254.076 17.2508 261.555 19.5221 264.359L26.603 273.173C29.0078 275.711 31.5463 279.584 32.4815 282.922V283.056Z" fill="#00E9FF"/>
<path d="M4.02417 311.101C5.09299 308.03 7.49784 304.958 10.0363 302.955L17.1172 295.877C19.5221 293.606 25.5342 287.597 27.8054 285.326L32.4815 283.056L30.0767 287.73C27.8054 290.001 21.6597 296.01 19.3885 298.281L12.3075 305.359C10.1699 307.763 7.09703 310.167 4.02417 311.235V311.101Z" fill="#00E9FF"/>
<path d="M32.4812 345.691C29.4084 344.756 26.0683 342.352 23.9307 339.948L16.5825 333.003C14.1777 330.733 7.89837 324.723 5.49353 322.453L2.95508 317.779L7.76477 320.049C10.036 322.186 16.4489 328.329 18.8538 330.6L26.2019 337.544C28.7404 339.547 31.2788 342.753 32.4812 345.691Z" fill="#00E9FF"/>
<path d="M3.08862 376.674C4.15744 373.469 6.82949 369.997 9.36794 367.726L16.8497 359.98C19.2545 357.443 25.6675 350.765 28.0723 348.362L33.0156 345.691L30.4771 350.765C28.0723 353.169 21.6594 359.847 19.2545 362.384L11.7728 370.13C9.63515 372.668 6.29508 375.472 3.08862 376.808V376.674Z" fill="#00E9FF"/>
<defs>
<linearGradient id="paint0_linear_381_233" x1="-7.06504" y1="52.8171" x2="373.116" y2="528.801" gradientUnits="userSpaceOnUse">
<stop stop-color="#4D607A"/>
<stop offset="0.17" stop-color="#455E7B"/>
<stop offset="0.41" stop-color="#305B7F"/>
<stop offset="0.72" stop-color="#0E5785"/>
<stop offset="0.82" stop-color="#005588"/>
</linearGradient>
<radialGradient id="paint1_radial_381_233" cx="0" cy="0" r="1" gradientUnits="userSpaceOnUse" gradientTransform="translate(226.74 275.177) scale(170.21 170.142)">
<stop offset="0.45" stop-color="#00FFFF"/>
<stop offset="0.61" stop-color="#00FBFF"/>
<stop offset="0.75" stop-color="#00F0FF"/>
<stop offset="0.89" stop-color="#00DEFF"/>
<stop offset="1" stop-color="#00CAFF"/>
</radialGradient>
</defs>
</svg>
