<?xml version="1.0" encoding="UTF-8"?>
<svg id="Camada_2" data-name="Camada 2" xmlns="http://www.w3.org/2000/svg" xmlns:xlink="http://www.w3.org/1999/xlink" viewBox="0 0 33.68 40.3">
  <defs>
    <style>
      .cls-1 {
        fill: #00e9ff;
      }

      .cls-2 {
        fill: #00efff;
      }

      .cls-3 {
        fill: #00dfff;
      }

      .cls-4 {
        fill: #004497;
      }

      .cls-5 {
        stroke-width: .05px;
      }

      .cls-5, .cls-6 {
        fill: none;
        stroke: #0091ff;
      }

      .cls-5, .cls-6, .cls-7, .cls-8 {
        stroke-miterlimit: 10;
      }

      .cls-6 {
        stroke-width: .03px;
      }

      .cls-7 {
        fill: url(#tela);
        opacity: .84;
        stroke: #007cbc;
        stroke-width: .5px;
      }

      .cls-8 {
        fill: url(#Gradiente_sem_nome_56);
        stroke: #000;
        stroke-width: .25px;
      }
    </style>
    <linearGradient id="Gradiente_sem_nome_56" data-name="Gradiente sem nome 56" x1="-.49" y1="4" x2="27.98" y2="39.63" gradientUnits="userSpaceOnUse">
      <stop offset="0" stop-color="#4d607a"/>
      <stop offset=".17" stop-color="#455e7b"/>
      <stop offset=".41" stop-color="#305b7f"/>
      <stop offset=".72" stop-color="#0e5785"/>
      <stop offset=".82" stop-color="#058"/>
    </linearGradient>
    <radialGradient id="tela" cx="17.01" cy="20.65" fx="17.01" fy="20.65" r="12.74" gradientUnits="userSpaceOnUse">
      <stop offset=".45" stop-color="aqua"/>
      <stop offset=".61" stop-color="#00fbff"/>
      <stop offset=".75" stop-color="#00f0ff"/>
      <stop offset=".89" stop-color="#00deff"/>
      <stop offset="1" stop-color="#00caff"/>
    </radialGradient>
  </defs>
  <g id="chip">
    <g>
      <polygon class="cls-4" points="27.25 .43 33.58 9.55 33.68 38.41 31.24 38.41 31.12 10.05 23.94 .43 27.25 .43"/>
      <polygon class="cls-8" points=".12 .12 24.7 .12 31.88 9.74 31.99 40.17 .12 40.17 .12 29.51 .12 28.13 2.11 25.99 .12 23.98 .12 23.2 2.11 21.23 .12 18.72 .12 .12"/>
      <path class="cls-7" d="m6.51,6v29.29h21v-17.45h-9.03l9.03-6.49L6.51,6Z"/>
      <path class="cls-2" d="m27.11,7.59c-2.18-.34-5.53-1.28-7.7-1.8-2.16-.56-5.55-1.31-7.64-2.05,2.18.34,5.53,1.28,7.7,1.8,2.16.56,5.55,1.31,7.64,2.05h0Z"/>
      <line class="cls-5" x1="27.11" y1="7.59" x2="11.78" y2="3.74"/>
      <path class="cls-3" d="m26.4,5.99c-1.53-.19-3.77-.9-5.28-1.28-1.48-.41-3.81-.94-5.22-1.52,1.51.19,3.8.9,5.28,1.28,1.51.43,3.78.92,5.22,1.52h0Z"/>
      <line class="cls-6" x1="26.4" y1="5.99" x2="15.9" y2="3.19"/>
      <path class="cls-1" d="m2.47,21.24c-.23-.12-.48-.36-.63-.58,0,0-.53-.66-.53-.66-.18-.22-.63-.77-.8-.98,0,0-.17-.41-.17-.41l.36.25c.17.21.63.77.8.98,0,0,.53.66.53.66.18.19.37.48.44.73h0Z"/>
      <path class="cls-1" d="m.34,23.34c.08-.23.26-.46.45-.61,0,0,.53-.53.53-.53.18-.17.63-.62.8-.79,0,0,.35-.17.35-.17l-.18.35c-.17.17-.63.62-.8.79,0,0-.53.53-.53.53-.16.18-.39.36-.62.44H.34Z"/>
      <path class="cls-1" d="m2.47,25.93c-.23-.07-.48-.25-.64-.43,0,0-.55-.52-.55-.52-.18-.17-.65-.62-.83-.79,0,0-.19-.35-.19-.35l.36.17c.17.16.65.62.83.79,0,0,.55.52.55.52.19.15.38.39.47.61h0Z"/>
      <path class="cls-1" d="m.27,28.25c.08-.24.28-.5.47-.67,0,0,.56-.58.56-.58.18-.19.66-.69.84-.87,0,0,.37-.2.37-.2l-.19.38c-.18.18-.66.68-.84.87,0,0-.56.58-.56.58-.16.19-.41.4-.65.5H.27Z"/>
    </g>
  </g>
</svg>