<svg width="124" height="92" viewBox="0 0 124 92" fill="none" xmlns="http://www.w3.org/2000/svg">
<g filter="url(#filter0_d_389_324)">
<path d="M97.4053 29.6646H26.1157C24.1827 29.6646 22.6157 31.2316 22.6157 33.1646V83.0001C22.6157 84.9331 24.1827 86.5001 26.1157 86.5001H97.4053C99.3382 86.5001 100.905 84.9331 100.905 83.0001V33.1646C100.905 31.2316 99.3382 29.6646 97.4053 29.6646Z" fill="#2D3D18" fill-opacity="0.5" stroke="#57EB23"/>
<rect x="86.7856" y="35.4937" width="12.3046" height="9.60153" fill="#2D3D18" fill-opacity="0.5" stroke="#57EB23"/>
<rect x="86.7856" y="49.6782" width="12.3046" height="9.60153" fill="#2D3D18" fill-opacity="0.5" stroke="#57EB23"/>
<path d="M36.8482 1.96333L37.0619 3.35276C37.0619 3.35276 33.4399 3.13913 31.1624 3.49273C28.8849 3.84633 25.4961 5.14844 25.4961 5.14844L25.2824 3.75901C25.2824 3.75901 25.5616 3.65184 26.0134 3.49065C26.1922 3.42688 26.398 3.35465 26.6242 3.27726C27.5762 2.95157 28.8899 2.53441 30.0735 2.27113C30.3766 2.20373 30.6711 2.14641 30.9488 2.1033C31.2265 2.06018 31.5244 2.02552 31.8336 1.99788C33.1482 1.88035 34.6646 1.88992 35.6827 1.91726C35.9315 1.92394 36.1505 1.93169 36.3296 1.9389C36.6549 1.952 36.8482 1.96333 36.8482 1.96333Z" fill="#2D3D18" fill-opacity="0.5" stroke="#57EB23"/>
<path d="M34.1579 13.7621L32.5543 14.4939L31.015 14.2501L32.495 13.6244L30.8985 13.4922L32.1852 12.7281L30.7431 12.4817L32.3704 11.5627L30.5683 11.3449L31.9929 10.565L30.2677 10.2276L33.5363 9.72016L31.9929 10.565L33.5854 10.8765L32.3704 11.5627L33.8471 11.7411L32.1852 12.7281L33.9157 13.0238L32.495 13.6244L34.1579 13.7621Z" fill="#2D3D18" fill-opacity="0.5"/>
<path d="M30.7281 19.0798L31.5304 18.4379L30.863 18.2829L31.4138 17.68L30.7464 17.525L31.3167 17.0485L30.6299 16.7671L31.2196 16.4169L30.5327 16.1356L31.1224 15.7854L30.4162 15.3777L31.151 15.1343L34.1579 13.7621L30.8985 13.4922L33.8471 11.7411L30.5683 11.3449L33.5363 9.72016L30.2677 10.2276L33.5854 10.8765L30.7431 12.4817L33.9157 13.0238L31.015 14.2501L34.3133 14.7726L35.0871 14.7818L34.391 15.2779L35.1842 15.4134L34.4882 15.9094L35.2813 16.045L34.5853 16.541L35.3979 16.8028L34.6824 17.1726L35.5144 17.5607L34.799 17.9304L35.6116 18.1923L35.8824 18.2795" stroke="#57EB23"/>
<path d="M26.2801 3.5475L28.6511 18.9648C28.6511 18.9648 31.6952 19.3174 33.6086 19.0203C35.522 18.7233 38.3181 17.4639 38.3181 17.4639L35.947 2.04664C35.947 2.04664 32.8486 0.773758 30.8501 1.08404C28.8516 1.39432 26.2801 3.5475 26.2801 3.5475Z" fill="#2D3D18" fill-opacity="0.5" stroke="#57EB23"/>
<path d="M37.0622 3.35352L36.8485 1.96409C36.8485 1.96409 36.8059 1.98048 36.7269 2.01009C36.102 2.24436 33.2041 3.30588 31.1822 3.6198C28.9047 3.9734 25.2827 3.75977 25.2827 3.75977L25.4964 5.1492C25.4964 5.1492 25.7948 5.16669 26.274 5.18333C26.4635 5.18991 26.6814 5.19636 26.9203 5.20154C27.9258 5.22333 29.3036 5.22261 30.5111 5.11465C30.8202 5.08701 31.1182 5.05235 31.3959 5.00923C31.6736 4.96612 31.9681 4.9088 32.2711 4.8414C33.5597 4.55476 35.0025 4.08574 35.9649 3.75092C36.2001 3.66909 36.4066 3.59528 36.5751 3.5341C36.8813 3.42296 37.0622 3.35352 37.0622 3.35352Z" fill="#2D3D18" fill-opacity="0.5" stroke="#57EB23"/>
<path d="M36.8871 2.21653L37.0619 3.35334C37.0619 3.35334 36.9285 3.40458 36.6967 3.48948L38.8411 17.4325L38.6001 17.5394L36.4529 3.57799C36.31 3.6294 36.1458 3.68769 35.9646 3.75074C35.0022 4.08556 33.5594 4.55458 32.2708 4.84121C32.1444 4.86932 32.0195 4.89568 31.8968 4.91998C31.8123 4.93669 31.7288 4.95243 31.6466 4.9671C31.6045 4.97461 31.5627 4.98184 31.5212 4.98878L33.697 19.1365L33.4456 19.1755L31.2698 5.02782C31.2281 5.03378 31.1861 5.03956 31.1437 5.04518C30.9404 5.07209 30.7283 5.09502 30.5108 5.11447C29.3033 5.22242 27.9255 5.22314 26.9201 5.20136C26.6811 5.19618 26.4633 5.18973 26.2737 5.18315L28.3969 18.9887L28.1358 18.9653L26.0147 5.17345C25.6894 5.16035 25.4961 5.14901 25.4961 5.14901L25.3213 4.01221C25.3213 4.01221 28.9433 4.22584 31.2207 3.87224C33.4982 3.51864 36.8871 2.21653 36.8871 2.21653Z" fill="#2D3D18" fill-opacity="0.5"/>
<path d="M26.2737 5.18315C26.4633 5.18973 26.6811 5.19618 26.9201 5.20136C27.9255 5.22314 29.3033 5.22242 30.5108 5.11447C30.7283 5.09502 30.9404 5.07209 31.1437 5.04518C31.1861 5.03956 31.2281 5.03378 31.2698 5.02782M26.2737 5.18315C26.2289 5.18159 26.1857 5.18003 26.1442 5.17848C26.0991 5.17679 26.0558 5.1751 26.0147 5.17345M26.2737 5.18315L28.3969 18.9887L28.1358 18.9653L26.0147 5.17345M31.2698 5.02782C31.3121 5.02175 31.3541 5.01549 31.3956 5.00905C31.4371 5.00261 31.479 4.99585 31.5212 4.98878M31.2698 5.02782L33.4456 19.1755L33.697 19.1365L31.5212 4.98878M31.5212 4.98878C31.5627 4.98184 31.6045 4.97461 31.6466 4.9671C31.7288 4.95243 31.8123 4.93669 31.8968 4.91998C32.0195 4.89568 32.1444 4.86932 32.2708 4.84121C33.5594 4.55458 35.0022 4.08556 35.9646 3.75074C36.1458 3.68769 36.31 3.6294 36.4529 3.57799M36.6967 3.48948C36.9285 3.40458 37.0619 3.35334 37.0619 3.35334L36.8871 2.21653C36.8871 2.21653 33.4982 3.51864 31.2207 3.87224C28.9433 4.22584 25.3213 4.01221 25.3213 4.01221L25.4961 5.14901C25.4961 5.14901 25.6894 5.16035 26.0147 5.17345M36.6967 3.48948C36.6587 3.50341 36.618 3.51825 36.5748 3.53392C36.5362 3.54796 36.4955 3.56267 36.4529 3.57799M36.6967 3.48948L38.8411 17.4325L38.6001 17.5394L36.4529 3.57799" stroke="#57EB23"/>
<path d="M27.2115 24.6701L26.3882 19.3169L28.4897 18.9906C28.4897 18.9906 31.5206 19.3426 33.4265 19.0494C35.3482 18.7537 38.1566 17.4898 38.1566 17.4898L40.4683 17.1309L41.2916 22.4841L40.2859 22.6402L41.3612 25.4478L37.9589 28.4333L32.0503 29.3506L28.1611 27.4972L28.3429 24.4945L27.2115 24.6701Z" fill="#2D3D18" fill-opacity="0.5"/>
<path d="M28.3429 24.4945L27.2115 24.6701L26.3882 19.3169L28.4897 18.9906C28.4897 18.9906 31.5206 19.3426 33.4265 19.0494C35.3482 18.7537 38.1566 17.4898 38.1566 17.4898L40.4683 17.1309L41.2916 22.4841L40.2859 22.6402M28.3429 24.4945L28.1611 27.4972L32.0503 29.3506L37.9589 28.4333L41.3612 25.4478L40.2859 22.6402M28.3429 24.4945L40.2859 22.6402" stroke="#57EB23"/>
<path d="M28.1607 27.496L28.3424 24.4932L40.2854 22.639L41.3608 25.4466L37.9584 28.4321L32.0498 29.3494L28.1607 27.496Z" fill="#2D3D18" fill-opacity="0.5" stroke="#57EB23"/>
<path d="M85.8622 1.96333L85.6485 3.35276C85.6485 3.35276 89.2705 3.13913 91.548 3.49273C93.8255 3.84633 97.2144 5.14844 97.2144 5.14844L97.428 3.75901C97.428 3.75901 97.1488 3.65184 96.697 3.49065C96.5182 3.42688 96.3125 3.35465 96.0862 3.27726C95.1342 2.95157 93.8205 2.53441 92.6369 2.27113C92.3339 2.20373 92.0394 2.14641 91.7617 2.1033C91.484 2.06018 91.186 2.02552 90.8769 1.99788C89.5623 1.88035 88.0458 1.88992 87.0278 1.91726C86.779 1.92394 86.5599 1.93169 86.3809 1.9389C86.0555 1.952 85.8622 1.96333 85.8622 1.96333Z" fill="#2D3D18" fill-opacity="0.5" stroke="#57EB23"/>
<path d="M88.552 13.7621L90.1557 14.4939L91.6949 14.2501L90.215 13.6244L91.8115 13.4922L90.5248 12.7281L91.9669 12.4817L90.3396 11.5627L92.1417 11.3449L90.717 10.565L92.4423 10.2276L89.1737 9.72016L90.717 10.565L89.1245 10.8765L90.3396 11.5627L88.8628 11.7411L90.5248 12.7281L88.7943 13.0238L90.215 13.6244L88.552 13.7621Z" fill="#2D3D18" fill-opacity="0.5"/>
<path d="M91.9819 19.0798L91.1796 18.4379L91.847 18.2829L91.2961 17.68L91.9636 17.525L91.3933 17.0485L92.0801 16.7671L91.4904 16.4169L92.1772 16.1356L91.5875 15.7854L92.2938 15.3777L91.5589 15.1343L88.552 13.7621L91.8115 13.4922L88.8628 11.7411L92.1417 11.3449L89.1737 9.72016L92.4423 10.2276L89.1245 10.8765L91.9669 12.4817L88.7943 13.0238L91.6949 14.2501L88.3966 14.7726L87.6229 14.7818L88.3189 15.2779L87.5258 15.4134L88.2218 15.9094L87.4286 16.045L88.1247 16.541L87.3121 16.8028L88.0275 17.1726L87.1955 17.5607L87.911 17.9304L87.0984 18.1923L86.8275 18.2795" stroke="#57EB23"/>
<path d="M96.4299 3.5475L94.0588 18.9648C94.0588 18.9648 91.0148 19.3174 89.1014 19.0203C87.188 18.7233 84.3919 17.4639 84.3919 17.4639L86.763 2.04664C86.763 2.04664 89.8614 0.773758 91.8599 1.08404C93.8584 1.39432 96.4299 3.5475 96.4299 3.5475Z" fill="#2D3D18" fill-opacity="0.5" stroke="#57EB23"/>
<path d="M85.6482 3.35352L85.8619 1.96409C85.8619 1.96409 85.9046 1.98048 85.9836 2.01009C86.6084 2.24436 89.5063 3.30588 91.5283 3.6198C93.8058 3.9734 97.4277 3.75977 97.4277 3.75977L97.214 5.1492C97.214 5.1492 96.9157 5.16669 96.4365 5.18333C96.2469 5.18991 96.029 5.19636 95.7901 5.20154C94.7847 5.22333 93.4069 5.22261 92.1994 5.11465C91.8903 5.08701 91.5923 5.05235 91.3146 5.00923C91.0369 4.96612 90.7424 4.9088 90.4394 4.8414C89.1508 4.55476 87.7079 4.08574 86.7456 3.75092C86.5104 3.66909 86.3039 3.59528 86.1353 3.5341C85.8291 3.42296 85.6482 3.35352 85.6482 3.35352Z" fill="#2D3D18" fill-opacity="0.5" stroke="#57EB23"/>
<path d="M85.8234 2.21653L85.6485 3.35334C85.6485 3.35334 85.782 3.40458 86.0137 3.48948L83.8694 17.4325L84.1104 17.5394L86.2576 3.57799C86.4005 3.6294 86.5646 3.68769 86.7459 3.75074C87.7082 4.08556 89.1511 4.55458 90.4397 4.84121C90.566 4.86932 90.6909 4.89568 90.8137 4.91998C90.8981 4.93669 90.9816 4.95243 91.0639 4.9671C91.106 4.97461 91.1478 4.98184 91.1893 4.98878L89.0134 19.1365L89.2649 19.1755L91.4407 5.02782C91.4823 5.03378 91.5243 5.03956 91.5667 5.04518C91.7701 5.07209 91.9821 5.09502 92.1997 5.11447C93.4072 5.22242 94.7849 5.22314 95.7904 5.20136C96.0293 5.19618 96.2472 5.18973 96.4368 5.18315L94.3136 18.9887L94.5746 18.9653L96.6957 5.17345C97.021 5.16035 97.2143 5.14901 97.2143 5.14901L97.3892 4.01221C97.3892 4.01221 93.7672 4.22584 91.4897 3.87224C89.2122 3.51864 85.8234 2.21653 85.8234 2.21653Z" fill="#2D3D18" fill-opacity="0.5"/>
<path d="M96.4368 5.18315C96.2472 5.18973 96.0293 5.19618 95.7904 5.20136C94.7849 5.22314 93.4072 5.22242 92.1997 5.11447C91.9821 5.09502 91.7701 5.07209 91.5667 5.04518C91.5243 5.03956 91.4823 5.03378 91.4407 5.02782M96.4368 5.18315C96.4815 5.18159 96.5247 5.18003 96.5662 5.17848C96.6114 5.17679 96.6546 5.1751 96.6957 5.17345M96.4368 5.18315L94.3136 18.9887L94.5746 18.9653L96.6957 5.17345M91.4407 5.02782C91.3983 5.02175 91.3564 5.01549 91.3149 5.00905C91.2734 5.00261 91.2315 4.99585 91.1893 4.98878M91.4407 5.02782L89.2649 19.1755L89.0134 19.1365L91.1893 4.98878M91.1893 4.98878C91.1478 4.98184 91.106 4.97461 91.0639 4.9671C90.9816 4.95243 90.8981 4.93669 90.8137 4.91998C90.6909 4.89568 90.566 4.86932 90.4397 4.84121C89.1511 4.55458 87.7082 4.08556 86.7459 3.75074C86.5646 3.68769 86.4005 3.6294 86.2576 3.57799M86.0137 3.48948C85.782 3.40458 85.6485 3.35334 85.6485 3.35334L85.8234 2.21653C85.8234 2.21653 89.2122 3.51864 91.4897 3.87224C93.7672 4.22584 97.3892 4.01221 97.3892 4.01221L97.2143 5.14901C97.2143 5.14901 97.021 5.16035 96.6957 5.17345M86.0137 3.48948C86.0518 3.50341 86.0924 3.51825 86.1356 3.53392C86.1743 3.54796 86.215 3.56267 86.2576 3.57799M86.0137 3.48948L83.8694 17.4325L84.1104 17.5394L86.2576 3.57799" stroke="#57EB23"/>
<path d="M95.499 24.6701L96.3223 19.3169L94.2208 18.9906C94.2208 18.9906 91.1898 19.3426 89.284 19.0494C87.3622 18.7537 84.5538 17.4898 84.5538 17.4898L82.2422 17.1309L81.4189 22.4841L82.4246 22.6402L81.3492 25.4478L84.7516 28.4333L90.6602 29.3506L94.5493 27.4972L94.3675 24.4945L95.499 24.6701Z" fill="#2D3D18" fill-opacity="0.5"/>
<path d="M94.3675 24.4945L95.499 24.6701L96.3223 19.3169L94.2208 18.9906C94.2208 18.9906 91.1898 19.3426 89.284 19.0494C87.3622 18.7537 84.5538 17.4898 84.5538 17.4898L82.2422 17.1309L81.4189 22.4841L82.4246 22.6402M94.3675 24.4945L94.5493 27.4972L90.6602 29.3506L84.7516 28.4333L81.3492 25.4478L82.4246 22.6402M94.3675 24.4945L82.4246 22.6402" stroke="#57EB23"/>
<path d="M94.5498 27.496L94.368 24.4932L82.4251 22.639L81.3497 25.4466L84.752 28.4321L90.6607 29.3494L94.5498 27.496Z" fill="#2D3D18" fill-opacity="0.5" stroke="#57EB23"/>
<path d="M80.9383 35.7534H28.4653C26.947 35.7534 25.7153 36.9833 25.7153 38.5025L25.7153 43.848C25.7153 44.1819 25.8135 45.1666 25.8431 45.4587C25.8477 45.5045 25.8499 45.5494 25.8497 45.5944L25.7233 77.3501C25.7173 78.8731 26.9502 80.111 28.4733 80.111H80.931C82.4537 80.111 83.6865 78.8737 83.681 77.351L83.565 45.5607C83.5648 45.4941 83.5698 45.4274 83.5802 45.361C83.5926 45.2816 83.6082 45.182 83.623 45.0857C83.6327 45.023 83.6388 44.9148 83.6426 44.847L83.643 44.8393C83.6482 44.7461 83.6541 44.6288 83.6597 44.5097C83.671 44.2709 83.6818 44.0179 83.6859 43.9208C83.6875 43.8823 83.6883 43.8444 83.6883 43.8064V38.5034C83.6883 36.9846 82.4571 35.7534 80.9383 35.7534Z" fill="#2D3D18" fill-opacity="0.5" stroke="#57EB23" stroke-width="1.5"/>
<path d="M54.7139 38.6167C54.7161 38.3667 54.7162 38.3667 54.7164 38.3667L54.7173 38.3667L54.7207 38.3668L54.7343 38.3669L54.7878 38.3674L54.9966 38.3695C55.1794 38.3713 55.4476 38.3742 55.789 38.3783C56.472 38.3863 57.4481 38.399 58.6209 38.4174C60.9664 38.4542 64.0993 38.514 67.2478 38.6057C70.3955 38.6974 73.5618 38.8212 75.973 38.9863C77.1778 39.0688 78.1992 39.1619 78.937 39.2673C79.3049 39.3198 79.6101 39.3764 79.835 39.4385C79.9467 39.4693 80.0477 39.5039 80.1295 39.5444C80.1991 39.5788 80.3062 39.6414 80.3602 39.7541C80.4288 39.8973 80.482 40.1369 80.5286 40.4245C80.5768 40.7228 80.6224 41.1048 80.6655 41.555C80.7516 42.4561 80.8285 43.6427 80.8952 45.0044C80.9033 45.1701 80.8686 45.375 80.8397 45.5458L80.8363 45.5658C80.8035 45.7601 80.7783 45.9176 80.7833 46.0312C80.8186 46.84 80.8724 47.6821 80.928 48.5516C81.018 49.9604 81.1126 51.441 81.1406 52.9676L81.3391 53.2463L81.6203 53.6413H81.1514C81.1755 55.2442 81.1876 56.8257 81.1865 58.2849C81.1838 61.8286 81.1208 66.0634 80.9896 69.5612C80.924 71.3097 80.8412 72.8767 80.7403 74.0819C80.6898 74.6842 80.6345 75.1993 80.574 75.6029C80.5151 75.9959 80.4474 76.3132 80.3614 76.498C80.31 76.6084 80.2109 76.6768 80.1351 76.719C80.0511 76.7658 79.9479 76.806 79.8338 76.8419C79.6047 76.9141 79.2958 76.9799 78.9253 77.041C78.1821 77.1633 77.1572 77.2718 75.9508 77.368C73.536 77.5607 70.3711 77.7065 67.2269 77.8152C64.0819 77.924 60.9544 77.9958 58.6134 78.0404C57.4428 78.0627 56.4688 78.0782 55.7873 78.0882C55.4466 78.0932 55.179 78.0967 54.9965 78.0991L54.7883 78.1017L54.7348 78.1023L54.7213 78.1024L54.7179 78.1025L54.717 78.1025C54.7168 78.1025 54.7167 78.1025 54.7139 77.8525M54.7139 38.6167L54.7161 38.3667L54.7117 38.3667L54.7139 38.6167ZM54.7139 38.6167C54.7117 38.3667 54.7116 38.3667 54.7114 38.3667L54.7105 38.3667L54.7071 38.3668L54.6935 38.3669L54.6401 38.3674L54.4317 38.3695C54.2491 38.3713 53.9813 38.3742 53.6404 38.3783C52.9585 38.3863 51.9839 38.399 50.8127 38.4174C48.4706 38.4542 45.3421 38.5139 42.1974 38.6057C39.0535 38.6974 35.8906 38.8212 33.4807 38.9863C32.2766 39.0688 31.2554 39.1619 30.5171 39.2672C30.149 39.3198 29.8434 39.3764 29.618 39.4384C29.506 39.4693 29.4048 39.5038 29.3228 39.5441C29.2528 39.5785 29.1464 39.6404 29.0915 39.7512C29.021 39.8938 28.9629 40.1335 28.9103 40.4232C28.8559 40.7231 28.8023 41.1075 28.75 41.5606C28.6461 42.461 28.5461 43.6448 28.4552 45.0028L28.4549 45.0028L28.4532 45.0332C28.4426 45.1927 28.4481 45.3946 28.4532 45.5822L28.4534 45.5889C28.4587 45.7868 28.4635 45.9706 28.4549 46.1124C28.2301 49.825 28.0133 54.3984 28.0171 58.285C28.0206 61.8345 28.1287 66.0454 28.3131 69.5305C28.4052 71.2727 28.5166 72.8362 28.6439 74.046C28.7076 74.6507 28.7755 75.17 28.8475 75.5807C28.918 75.9823 28.9965 76.3061 29.0903 76.5009C29.1421 76.6084 29.2371 76.6789 29.3167 76.7253C29.4025 76.7753 29.5075 76.8186 29.6235 76.8572C29.8564 76.9347 30.1685 77.0048 30.5414 77.0694C31.2892 77.1988 32.3167 77.3116 33.5239 77.4103C35.9402 77.6077 39.1006 77.7503 42.2379 77.8528C45.376 77.9553 48.4945 78.0177 50.8282 78.0545C51.9951 78.0729 52.966 78.0849 53.6451 78.0923C53.9847 78.096 54.2514 78.0986 54.4332 78.1002L54.6408 78.102L54.694 78.1024L54.7075 78.1025L54.7109 78.1025L54.7118 78.1025C54.712 78.1025 54.7121 78.1025 54.7139 77.8525M54.7139 77.8525L54.7121 78.1026L54.7167 78.1025L54.7139 77.8525Z" fill="#2D3D18" fill-opacity="0.5" stroke="#57EB23" stroke-width="0.5"/>
<path d="M24.5052 74.2007L24.7885 74.6126L25.1335 74.3731L24.9587 73.9909L19.3637 61.761L19.0946 61.1728L18.5949 61.5829L12.6323 66.4758L12.5027 66.5821L12.463 66.7453L11.4034 71.1004L11.3913 71.1503L11.3895 71.2017L11.2501 75.1542L11.2389 75.4707L11.5188 75.6162L11.7487 75.1711C11.5188 75.6162 11.5188 75.6162 11.5189 75.6162L11.5192 75.6164L11.5199 75.6168L11.5224 75.618L11.5312 75.6226L11.5639 75.6392C11.5922 75.6536 11.6334 75.6744 11.6865 75.7006C11.7925 75.753 11.9458 75.8273 12.137 75.916C12.5191 76.0932 13.0547 76.3289 13.6697 76.5628C14.8815 77.0237 16.4693 77.5048 17.8025 77.4701C19.3396 77.4302 21.1042 76.6906 22.4377 76.003C23.1147 75.6539 23.7003 75.3077 24.1167 75.0488C24.3251 74.9192 24.4917 74.8111 24.6068 74.7349C24.6644 74.6969 24.7091 74.6668 24.7398 74.646L24.7752 74.6219L24.7847 74.6153L24.7873 74.6135L24.7881 74.6129L24.7884 74.6128C24.7885 74.6127 24.7885 74.6126 24.5052 74.2007Z" fill="#2D3D18" fill-opacity="0.5" stroke="#57EB23"/>
<path d="M14.5871 74.4228L14.0985 74.5249L14.1594 74.821L14.4488 74.9045L14.5871 74.4228ZM14.5871 74.4228C14.0985 74.5249 14.0985 74.5248 14.0984 74.5246L14.0984 74.5243L14.0981 74.5232L14.0974 74.5195L14.0948 74.5066L14.0855 74.4588C14.0775 74.4175 14.0663 74.3574 14.0527 74.2805C14.0254 74.1267 13.9887 73.9056 13.9499 73.6327C13.8724 73.0876 13.7864 72.332 13.7526 71.4914C13.6862 69.8436 13.8133 67.7413 14.718 66.3004C15.5122 65.0356 17.06 64.0364 18.331 63.3697C18.9789 63.0298 19.5795 62.7639 20.018 62.5829C20.2376 62.4923 20.4173 62.4226 20.5428 62.3754C20.6056 62.3518 20.6549 62.3337 20.689 62.3214L20.7284 62.3073L20.7391 62.3035L20.7422 62.3025L20.7431 62.3021L20.7434 62.302C20.7435 62.302 20.7436 62.302 20.9062 62.7754L20.7436 62.302L20.9689 62.2237L21.1709 62.3503L26.2576 65.5391L26.4583 65.6649L26.4879 65.9008L27.0722 70.5518L27.0992 70.7665L26.962 70.9336L23.7107 74.8941L23.606 75.0216L23.4464 75.0617L23.3259 74.5757C23.4464 75.0617 23.4463 75.0617 23.4463 75.0618L23.4461 75.0618L23.4456 75.0619L23.4438 75.0624L23.4375 75.064L23.4138 75.0698C23.3931 75.0749 23.363 75.0822 23.3243 75.0915C23.2469 75.1101 23.135 75.1364 22.9956 75.1678C22.7169 75.2306 22.3273 75.314 21.8828 75.3966C21.0031 75.5601 19.8736 75.7273 18.9622 75.7131C18.0399 75.6987 16.9033 75.4919 16.019 75.2967C15.5722 75.1981 15.1809 75.1004 14.9012 75.0273C14.7612 74.9907 14.6489 74.9602 14.5713 74.9388C14.5324 74.9281 14.5022 74.9196 14.4815 74.9138L14.4577 74.907L14.4514 74.9052L14.4496 74.9047L14.4491 74.9045L14.4489 74.9045C14.4489 74.9045 14.4488 74.9045 14.5871 74.4228Z" fill="#2D3D18" fill-opacity="0.5" stroke="#57EB23"/>
<path d="M25.7597 63.2043L26.1473 62.8882L26.0923 62.82L26.0174 62.7748C24.879 62.0871 23.9418 61.605 22.9407 61.262C21.996 60.9383 21.0129 60.7449 19.773 60.6075L17.4292 57.2243L17.1445 56.8133L16.7348 57.0998L12.3733 60.1501L11.9206 60.4667L12.2786 60.8871L14.5318 63.533C14.3202 63.7259 14.0367 63.992 13.7313 64.2999C13.1112 64.9251 12.3552 65.7674 11.9574 66.5342C10.9942 68.3909 10.801 69.913 10.5529 71.8671C10.5475 71.91 10.542 71.9531 10.5365 71.9963C10.3976 73.0889 10.4846 74.4663 10.5993 75.5438C10.6572 76.0881 10.7234 76.5666 10.7751 76.9091C10.801 77.0805 10.8233 77.2182 10.8392 77.3135C10.8472 77.3612 10.8536 77.3982 10.858 77.4236L10.8631 77.4528L10.8645 77.4606L10.8649 77.4627L10.865 77.4633L10.865 77.4635C10.865 77.4636 10.865 77.4637 11.356 77.3736L10.865 77.4637L10.9448 77.9058L11.3913 77.8733L18.6968 77.342L18.804 76.3618L13.0696 74.6552C13.0591 74.5729 13.0473 74.4758 13.0349 74.3661C12.9925 73.9886 12.9443 73.4634 12.9206 72.8728C12.8725 71.6716 12.9304 70.2753 13.2964 69.2898C14.0006 67.3938 15.8242 65.7654 17.3479 64.7748C19.6971 64.3807 21.2338 64.2825 22.3531 64.5085C23.4289 64.7256 24.1462 65.2484 24.8431 66.2213L24.8445 66.2241C24.8547 66.2442 24.8704 66.2762 24.8898 66.3191C24.9287 66.405 24.9823 66.5337 25.0365 66.6967C25.1452 67.0243 25.2529 67.4803 25.2542 67.9996C25.2567 69.0063 24.8635 70.3197 23.1 71.442C22.7766 71.6478 22.3392 71.7388 21.8179 71.7297C21.3005 71.7208 20.7426 71.614 20.218 71.4681C19.6959 71.323 19.2231 71.1438 18.8798 71.0003C18.7087 70.9287 18.571 70.8665 18.477 70.8227C18.43 70.8007 18.394 70.7834 18.3702 70.7718L18.3439 70.7589L18.338 70.756L18.337 70.7555L18.3369 70.7554C18.3369 70.7554 18.3369 70.7554 18.3365 70.7562L17.7435 71.5414L18.112 71.2031C17.7435 71.5414 17.7436 71.5415 17.7437 71.5416L17.7439 71.5418L17.7446 71.5426L17.7468 71.545L17.7546 71.5534L17.7828 71.5837C17.8071 71.6098 17.8425 71.6472 17.8881 71.6943C17.9793 71.7886 18.1115 71.9221 18.278 72.0816C18.6104 72.4002 19.0826 72.8256 19.6413 73.2517C20.7319 74.0835 22.2563 75.0002 23.7488 74.9916C24.1401 74.9893 24.5344 74.7919 24.8741 74.5594C25.2296 74.316 25.5986 73.9829 25.9535 73.6064C26.663 72.8538 27.3618 71.8796 27.828 70.9706C28.7979 69.0794 28.3243 67.0163 27.6812 65.5073C27.3553 64.7427 26.9741 64.0914 26.6753 63.6321C26.5256 63.4018 26.3956 63.2183 26.3021 63.0913C26.2554 63.0278 26.2178 62.9783 26.1913 62.9441C26.178 62.9269 26.1676 62.9136 26.1602 62.9043L26.1514 62.8932L26.1487 62.8899L26.1479 62.8888L26.1476 62.8885C26.1474 62.8883 26.1473 62.8882 25.7597 63.2043Z" fill="#2D3D18" fill-opacity="0.5" stroke="#57EB23"/>
<g filter="url(#filter1_i_389_324)">
<path d="M9.73467 56.3409L16.0282 54.3488L19.0783 59.4438L20.0903 60.9046C22.7444 61.1777 23.5123 61.8463 25.7598 63.2039C25.7598 63.2039 29.1187 67.3601 27.3845 70.7414C26.498 72.4699 24.7021 74.4846 23.7468 74.4902C21.1178 74.5055 18.1121 71.2027 18.1121 71.2027C18.1121 71.2027 21.6196 72.9766 23.3667 71.8647C27.1945 69.4287 25.2688 65.9567 25.2688 65.9567C23.7473 63.8135 21.9807 63.4803 17.1651 64.2974L15.2299 63.5809L9.73467 56.3409Z" fill="#2D3D18" fill-opacity="0.5"/>
</g>
<path d="M12.2257 75.1075L12.2653 75.3565L12.5059 75.4281L16.4473 76.6011L11.6901 76.9471C11.6818 76.894 11.6727 76.8355 11.6631 76.7722C11.6129 76.4395 11.5486 75.9745 11.4924 75.4463C11.379 74.3808 11.3026 73.0912 11.4274 72.1088L10.6355 72.0085C10.4982 73.0888 10.5841 74.4565 10.6986 75.5327C10.7563 76.0752 10.8223 76.5522 10.8738 76.8936C10.8996 77.0645 10.9219 77.2016 10.9377 77.2964C10.9456 77.3438 10.952 77.3807 10.9563 77.4059L10.9614 77.4347L10.9628 77.4424L10.9631 77.4444L10.9633 77.445L10.9633 77.4452C10.9633 77.4453 10.9633 77.4453 11.3561 77.3733L10.9633 77.4453L11.0271 77.799L11.3843 77.7731L18.6898 77.2417L18.7755 76.4576L12.9791 74.7324C12.9666 74.6375 12.9516 74.5176 12.9358 74.3771C12.8933 73.9979 12.8447 73.4702 12.821 72.8766C12.7728 71.6735 12.8295 70.26 13.203 69.2546C13.9211 67.3212 15.7776 65.6728 17.3113 64.679C19.6726 64.282 21.231 64.1794 22.373 64.4099C23.4805 64.6335 24.2188 65.1755 24.9287 66.1686C24.9301 66.1715 24.9318 66.1747 24.9336 66.1783C24.9443 66.1995 24.9606 66.2328 24.9807 66.2771C25.0209 66.3658 25.0758 66.4978 25.1312 66.6645C25.2424 66.9993 25.3527 67.4661 25.354 67.9988C25.3566 69.0387 24.9469 70.3848 23.1534 71.5263C22.8073 71.7465 22.3481 71.8388 21.8161 71.8296C21.2873 71.8205 20.7205 71.7115 20.1913 71.5644C19.6641 71.4178 19.1873 71.2371 18.8414 71.0925C18.6689 71.0203 18.53 70.9576 18.4349 70.9132C18.3873 70.891 18.3508 70.8735 18.3266 70.8617L18.2996 70.8484L18.2934 70.8453L18.2921 70.8447L18.292 70.8446C18.292 70.8446 18.292 70.8446 18.2917 70.8452L17.8173 71.4734L18.1121 71.2027C17.8173 71.4734 17.8173 71.4734 17.8174 71.4735L17.8176 71.4738L17.8183 71.4745L17.8204 71.4768L17.8279 71.4849L17.8556 71.5147C17.8796 71.5403 17.9146 71.5774 17.9598 71.6241C18.0503 71.7176 18.1815 71.8501 18.347 72.0087C18.6775 72.3254 19.1469 72.7483 19.7018 73.1715C20.7903 74.0018 22.2916 74.8995 23.7485 74.891C24.1093 74.8889 24.4829 74.7056 24.818 74.4763C25.1658 74.2383 25.5293 73.9104 25.8811 73.5372C26.5846 72.791 27.2777 71.8245 27.7393 70.9245C28.6887 69.0734 28.2285 67.046 27.5895 65.5465C27.2665 64.7886 26.8884 64.1426 26.5918 63.6866C26.4432 63.4582 26.3143 63.2763 26.2219 63.1506C26.1757 63.0878 26.1385 63.0389 26.1125 63.0053C26.0995 62.9884 26.0893 62.9754 26.0821 62.9663L26.0736 62.9557L26.0711 62.9526L26.0703 62.9516L26.0701 62.9513C26.07 62.9512 26.0699 62.951 25.7598 63.2039L26.0699 62.951L26.0258 62.8965L25.9659 62.8604C25.6949 62.6966 25.4428 62.5412 25.2043 62.3941C24.474 61.9438 23.8713 61.5722 23.2445 61.2833C22.4306 60.908 21.5737 60.6684 20.3143 60.5256L19.4137 59.2255L16.3704 54.1419L16.2086 53.8716L15.9087 53.9665L9.6152 55.9586L9.07262 56.1304L9.41707 56.5842L14.9123 63.8242L14.9826 63.9167L15.0913 63.957L16.2969 64.4033C14.8271 65.4598 13.1668 67.0592 12.455 68.9754C12.0223 70.1405 11.9745 71.6915 12.0233 72.9101C12.048 73.5274 12.0984 74.0749 12.1425 74.4682C12.1646 74.665 12.1852 74.8236 12.2004 74.9336C12.208 74.9886 12.2142 75.0315 12.2186 75.0609L12.2237 75.0948L12.2251 75.1039L12.2255 75.1064L12.2256 75.1071L12.2257 75.1074C12.2257 75.1075 12.2257 75.1075 12.6199 75.0438L12.2257 75.1075Z" stroke="#57EB23" stroke-width="0.8"/>
<path d="M17.1651 64.2974C21.9808 63.4804 23.7474 63.8135 25.2689 65.9567C25.2689 65.9567 27.1946 69.4287 23.3668 71.8648C21.6197 72.9767 18.1122 71.2028 18.1122 71.2028C18.1122 71.2028 21.1178 74.5056 23.7469 74.4903" stroke="#57EB23"/>
<path d="M25.8723 63.3661C23.4178 62.8911 20.1331 63.043 18.939 63.3962C17.7449 63.7495 13.9692 66.0453 12.8291 69.1149C12.0229 71.2855 12.62 75.0437 12.62 75.0437L18.6617 76.8418" stroke="#57EB23"/>
<g filter="url(#filter2_d_389_324)">
<path d="M19.0784 67.919C19.3937 66.8048 21.5015 66.2244 21.5015 66.2244C21.5015 66.2244 21.0999 65.9315 20.5671 65.9141C19.7588 65.8877 19.0962 66.1199 18.5653 66.8322C17.8805 67.7512 17.63 68.6108 17.7513 69.8109C17.9383 71.6612 20.6113 73.5932 20.6113 73.5932C20.6113 73.5932 17.7718 72.0981 17.1052 70.2628C16.5273 68.6717 16.2054 67.6439 17.2445 66.3103C17.8605 65.5198 18.3845 65.1202 19.3445 64.8417C20.394 64.5372 21.133 64.6188 22.1334 65.0597C23.1412 65.5038 23.7905 65.9636 24.1921 66.993C24.5345 67.8707 24.5094 68.5221 24.1857 69.4068C23.832 70.3739 23.195 71.0157 22.1491 71.3131C21.0497 71.6257 20.2741 71.1944 19.62 70.4315C18.8347 69.5157 18.8125 68.8586 19.0784 67.919Z" fill="#2D3D18" fill-opacity="0.5" shape-rendering="crispEdges"/>
<path d="M18.2477 69.7595C18.1578 68.87 18.29 68.2136 18.6843 67.5495C18.6504 67.624 18.6214 67.7017 18.5985 67.7828C18.4576 68.2806 18.3737 68.7664 18.4638 69.273C18.5549 69.785 18.8122 70.2579 19.2417 70.7588C19.5992 71.1757 20.0191 71.5372 20.5334 71.7415C21.0578 71.9499 21.6396 71.9784 22.2844 71.7951C23.4928 71.4516 24.2482 70.6884 24.6541 69.579C24.828 69.1035 24.9329 68.6606 24.9376 68.2016C24.9424 67.7402 24.8455 67.2936 24.6567 66.8096C24.4295 66.2272 24.123 65.7867 23.72 65.4305C23.3247 65.0812 22.8559 64.8306 22.3345 64.6008C21.8036 64.3669 21.3136 64.2155 20.8002 64.1719C20.2844 64.1281 19.7749 64.1955 19.2067 64.3603C18.6867 64.5112 18.2615 64.7019 17.8773 64.9754C17.4955 65.2473 17.1764 65.5853 16.8518 66.0019C16.2689 66.7499 16.0422 67.4539 16.0698 68.2092C16.096 68.9244 16.3527 69.6542 16.6364 70.4351C17.0223 71.4976 18.0021 72.4041 18.8066 73.0158C19.22 73.3302 19.6105 73.584 19.8976 73.7592C20.0414 73.847 20.16 73.9155 20.2434 73.9625C20.2851 73.986 20.3181 74.0041 20.3411 74.0166L20.368 74.0312L20.3756 74.0352L20.3779 74.0364L20.3786 74.0368L20.3789 74.0369C20.379 74.037 20.3791 74.037 20.6113 73.5932L20.3791 74.037L20.9022 73.188C20.9033 73.1865 20.9034 73.1865 20.9034 73.1865L20.9032 73.1864L20.9026 73.186L20.8983 73.1828L20.8787 73.1684C20.8611 73.1552 20.8343 73.1351 20.7997 73.1085C20.7305 73.0553 20.6302 72.9764 20.5086 72.8758C20.265 72.6739 19.9393 72.387 19.6094 72.0464C19.2784 71.7045 18.9517 71.3171 18.6994 70.915C18.4448 70.5092 18.2838 70.1166 18.2477 69.7595Z" stroke="#57EB23" shape-rendering="crispEdges"/>
</g>
<g filter="url(#filter3_f_389_324)">
<path d="M19.0784 67.919C19.3937 66.8048 21.5015 66.2244 21.5015 66.2244C21.5015 66.2244 21.0999 65.9315 20.5671 65.9141C19.7588 65.8877 19.0962 66.1199 18.5653 66.8322C17.8805 67.7512 17.63 68.6108 17.7513 69.8109C17.9383 71.6612 20.6113 73.5932 20.6113 73.5932C20.6113 73.5932 17.7718 72.0981 17.1052 70.2628C16.5273 68.6717 16.2054 67.6439 17.2445 66.3103C17.8605 65.5198 18.3845 65.1202 19.3445 64.8417C20.394 64.5372 21.133 64.6188 22.1334 65.0597C23.1412 65.5038 23.7905 65.9636 24.1921 66.993C24.5345 67.8707 24.5094 68.5221 24.1857 69.4068C23.832 70.3739 23.195 71.0157 22.1491 71.3131C21.0497 71.6257 20.2741 71.1944 19.62 70.4315C18.8347 69.5157 18.8125 68.8586 19.0784 67.919Z" fill="#2D3D18" fill-opacity="0.5"/>
<path d="M18.2477 69.7595C18.1578 68.87 18.29 68.2136 18.6843 67.5495C18.6504 67.624 18.6214 67.7017 18.5985 67.7828C18.4576 68.2806 18.3737 68.7664 18.4638 69.273C18.5549 69.785 18.8122 70.2579 19.2417 70.7588C19.5992 71.1757 20.0191 71.5372 20.5334 71.7415C21.0578 71.9499 21.6396 71.9784 22.2844 71.7951C23.4928 71.4516 24.2482 70.6884 24.6541 69.579C24.828 69.1035 24.9329 68.6606 24.9376 68.2016C24.9424 67.7402 24.8455 67.2936 24.6567 66.8096C24.4295 66.2272 24.123 65.7867 23.72 65.4305C23.3247 65.0812 22.8559 64.8306 22.3345 64.6008C21.8036 64.3669 21.3136 64.2155 20.8002 64.1719C20.2844 64.1281 19.7749 64.1955 19.2067 64.3603C18.6867 64.5112 18.2615 64.7019 17.8773 64.9754C17.4955 65.2473 17.1764 65.5853 16.8518 66.0019C16.2689 66.7499 16.0422 67.4539 16.0698 68.2092C16.096 68.9244 16.3527 69.6542 16.6364 70.4351C17.0223 71.4976 18.0021 72.4041 18.8066 73.0158C19.22 73.3302 19.6105 73.584 19.8976 73.7592C20.0414 73.847 20.16 73.9155 20.2434 73.9625C20.2851 73.986 20.3181 74.0041 20.3411 74.0166L20.368 74.0312L20.3756 74.0352L20.3779 74.0364L20.3786 74.0368L20.3789 74.0369C20.379 74.037 20.3791 74.037 20.6113 73.5932L20.3791 74.037L20.9022 73.188C20.9033 73.1865 20.9034 73.1865 20.9034 73.1865L20.9032 73.1864L20.9026 73.186L20.8983 73.1828L20.8787 73.1684C20.8611 73.1552 20.8343 73.1351 20.7997 73.1085C20.7305 73.0553 20.6302 72.9764 20.5086 72.8758C20.265 72.6739 19.9393 72.387 19.6094 72.0464C19.2784 71.7045 18.9517 71.3171 18.6994 70.915C18.4448 70.5092 18.2838 70.1166 18.2477 69.7595Z" stroke="#57EB23"/>
</g>
<path d="M14.8145 50.6863L14.5483 50.1965L14.0917 50.5158L8.43792 54.4699L8.02818 54.7564L8.31292 55.1674L12.2483 60.848L12.2625 60.8685L12.2786 60.8874L14.8504 63.9075L15.0945 64.1942L15.4366 64.0373L17.4383 63.1192L17.5176 63.0828L17.5799 63.0217L19.2935 61.3414L19.4755 61.1629L19.439 60.9104L19.315 60.0543L19.2387 58.923L19.2314 58.8134L19.179 58.7171L14.8145 50.6863Z" fill="#2D3D18" fill-opacity="0.5" stroke="#57EB23"/>
<path d="M108.768 76.2418C105.954 76.5914 101.718 74.505 101.718 74.505L105.445 61.5763L112.064 65.5259L113.755 69.6748L114.477 73.5628C114.477 73.5628 111.21 75.9383 108.768 76.2418Z" fill="#2D3D18" fill-opacity="0.5" stroke="#57EB23"/>
<path d="M109.852 65.5591C111.851 67.8879 111.559 73.2454 111.559 73.2454C111.559 73.2454 109.056 74.3934 107.34 74.6794C105.645 74.9621 102.939 74.6994 102.939 74.6994L99.1392 71.2676L99.0301 66.5809L103.59 62.669C103.59 62.669 108.094 63.5115 109.852 65.5591Z" fill="#2D3D18" fill-opacity="0.5" stroke="#57EB23" stroke-width="0.5"/>
<path d="M111.419 59.25L106.656 56.8837L104.737 60.7837C102.152 61.4495 100.875 62.1395 98.8531 63.8172C98.8531 63.8172 96.1452 68.4282 98.3596 71.5135C99.4915 73.0907 101.565 74.8154 102.511 74.6784C105.113 74.3016 107.597 70.5873 107.597 70.5873C107.597 70.5873 104.391 72.8645 102.499 72.0253C98.3536 70.1869 99.7452 66.4663 99.7452 66.4663C100.933 64.1199 102.631 63.5271 107.514 63.6171C109.217 64.3765 111.44 65.7886 112.514 67.735C113.632 69.7613 113.596 73.5669 113.596 73.5669L107.887 76.2459L115.19 75.6822C115.19 75.6822 115.29 72.3788 114.726 70.3781C114.173 68.4164 113.786 66.995 112.591 65.3468C111.675 64.0828 109.675 62.7954 109.675 62.7954L111.419 59.25Z" fill="#2D3D18" fill-opacity="0.5"/>
<path d="M98.8531 63.8172C100.875 62.1395 102.152 61.4495 104.737 60.7837L106.656 56.8837L111.419 59.25L109.675 62.7954C109.675 62.7954 111.675 64.0828 112.591 65.3468C113.786 66.995 114.173 68.4164 114.726 70.3781C115.29 72.3788 115.19 75.6822 115.19 75.6822L107.887 76.2459L113.596 73.5669C113.596 73.5669 113.632 69.7613 112.514 67.735C111.44 65.7886 109.217 64.3765 107.514 63.6171M98.8531 63.8172C101.21 62.9815 104.394 62.8193 105.627 62.9906C106.022 63.0455 106.71 63.2585 107.514 63.6171M98.8531 63.8172C98.8531 63.8172 96.1452 68.4282 98.3596 71.5135C99.4915 73.0907 101.565 74.8154 102.511 74.6784C105.113 74.3016 107.597 70.5873 107.597 70.5873C107.597 70.5873 104.391 72.8645 102.499 72.0253C98.3536 70.1869 99.7452 66.4663 99.7452 66.4663C100.933 64.1199 102.631 63.5271 107.514 63.6171" stroke="#57EB23"/>
<g filter="url(#filter4_i_389_324)">
<path d="M113.688 54.6401L107.42 53.5124L106.041 57.2394L104.384 60.6075C101.8 61.2734 100.875 62.1387 98.8534 63.8163C98.8534 63.8163 96.1455 68.4273 98.3598 71.5126C99.4918 73.0898 101.565 74.8145 102.511 74.6776C105.113 74.3007 107.598 70.5864 107.598 70.5864C107.598 70.5864 104.391 72.8636 102.499 72.0245C98.3538 70.1861 99.7455 66.4654 99.7455 66.4654C100.934 64.1191 102.631 63.5263 107.514 63.6163L109.839 62.8758L113.688 54.6401Z" fill="#2D3D18" fill-opacity="0.5"/>
</g>
<path d="M98.8534 63.8163C100.875 62.1387 101.8 61.2734 104.384 60.6075L106.041 57.2394L107.42 53.5124L113.688 54.6401L109.839 62.8758L107.514 63.6163M98.8534 63.8163C101.211 62.9807 104.394 62.8184 105.627 62.9897C106.023 63.0447 106.71 63.2577 107.514 63.6163M98.8534 63.8163C98.8534 63.8163 96.1455 68.4273 98.3598 71.5126C99.4918 73.0898 101.565 74.8145 102.511 74.6776C105.113 74.3007 107.598 70.5864 107.598 70.5864C107.598 70.5864 104.391 72.8636 102.499 72.0245C98.3538 70.1861 99.7455 66.4654 99.7455 66.4654C100.934 64.1191 102.631 63.5263 107.514 63.6163M114.726 70.3772C115.29 72.3779 115.19 75.6814 115.19 75.6814L107.887 76.2451L113.596 73.5661C113.596 73.5661 113.632 69.7605 112.514 67.7341C111.44 65.7877 109.217 64.3756 107.514 63.6163" stroke="#57EB23" stroke-width="0.5"/>
<path d="M107.514 63.6173C102.631 63.5273 100.934 64.1201 99.7455 66.4665C99.7455 66.4665 98.3539 70.1871 102.499 72.0255C104.391 72.8646 107.598 70.5874 107.598 70.5874C107.598 70.5874 105.113 74.3018 102.511 74.6786" stroke="#57EB23"/>
<path d="M98.7666 63.9944C101.124 63.1587 104.395 62.8193 105.628 62.9905C106.861 63.1618 110.934 64.8693 112.514 67.735C113.632 69.7613 113.597 73.5669 113.597 73.5669L107.888 76.2459" stroke="#57EB23" stroke-width="0.5"/>
<g filter="url(#filter5_d_389_324)">
<path d="M106.158 67.4834C105.681 66.4285 103.511 66.1688 103.511 66.1688C103.511 66.1688 103.865 65.8193 104.389 65.7226C105.185 65.576 105.875 65.7069 106.505 66.3321C107.318 67.1388 107.692 67.9515 107.75 69.1565C107.838 71.0142 105.48 73.3233 105.48 73.3233C105.48 73.3233 108.067 71.4214 108.455 69.507C108.792 67.8474 108.958 66.783 107.734 65.6191C107.008 64.9292 106.431 64.6121 105.44 64.4798C104.357 64.3351 103.639 64.526 102.714 65.1112C101.783 65.7007 101.209 66.2521 100.964 67.33C100.755 68.249 100.876 68.8895 101.327 69.7162C101.819 70.6198 102.544 71.1595 103.622 71.2977C104.756 71.4429 105.459 70.9007 105.993 70.0488C106.635 69.0261 106.56 68.373 106.158 67.4834Z" fill="#2D3D18" fill-opacity="0.5" shape-rendering="crispEdges"/>
<path d="M106.158 67.4834C105.681 66.4285 103.511 66.1688 103.511 66.1688C103.511 66.1688 103.865 65.8193 104.389 65.7226C105.185 65.576 105.875 65.7069 106.505 66.3321C107.318 67.1388 107.692 67.9515 107.75 69.1565C107.838 71.0142 105.48 73.3233 105.48 73.3233C105.48 73.3233 108.067 71.4214 108.455 69.507C108.792 67.8474 108.958 66.783 107.734 65.6191C107.008 64.9292 106.431 64.6121 105.44 64.4798C104.357 64.3351 103.639 64.526 102.714 65.1112C101.783 65.7007 101.209 66.2521 100.964 67.33C100.755 68.249 100.876 68.8895 101.327 69.7162C101.819 70.6198 102.544 71.1595 103.622 71.2977C104.756 71.4429 105.459 70.9007 105.993 70.0488C106.635 69.0261 106.56 68.373 106.158 67.4834Z" stroke="#57EB23" shape-rendering="crispEdges"/>
</g>
<g filter="url(#filter6_f_389_324)">
<path d="M106.158 67.4834C105.681 66.4285 103.511 66.1688 103.511 66.1688C103.511 66.1688 103.865 65.8193 104.389 65.7226C105.185 65.576 105.875 65.7069 106.505 66.3321C107.318 67.1388 107.692 67.9515 107.75 69.1565C107.838 71.0142 105.48 73.3233 105.48 73.3233C105.48 73.3233 108.067 71.4214 108.455 69.507C108.792 67.8474 108.958 66.783 107.734 65.6191C107.008 64.9292 106.431 64.6121 105.44 64.4798C104.357 64.3351 103.639 64.526 102.714 65.1112C101.783 65.7007 101.209 66.2521 100.964 67.33C100.755 68.249 100.876 68.8895 101.327 69.7162C101.819 70.6198 102.544 71.1595 103.622 71.2977C104.756 71.4429 105.459 70.9007 105.993 70.0488C106.635 69.0261 106.56 68.373 106.158 67.4834Z" fill="#2D3D18" fill-opacity="0.5"/>
<path d="M106.158 67.4834C105.681 66.4285 103.511 66.1688 103.511 66.1688C103.511 66.1688 103.865 65.8193 104.389 65.7226C105.185 65.576 105.875 65.7069 106.505 66.3321C107.318 67.1388 107.692 67.9515 107.75 69.1565C107.838 71.0142 105.48 73.3233 105.48 73.3233C105.48 73.3233 108.067 71.4214 108.455 69.507C108.792 67.8474 108.958 66.783 107.734 65.6191C107.008 64.9292 106.431 64.6121 105.44 64.4798C104.357 64.3351 103.639 64.526 102.714 65.1112C101.783 65.7007 101.209 66.2521 100.964 67.33C100.755 68.249 100.876 68.8895 101.327 69.7162C101.819 70.6198 102.544 71.1595 103.622 71.2977C104.756 71.4429 105.459 70.9007 105.993 70.0488C106.635 69.0261 106.56 68.373 106.158 67.4834Z" stroke="#57EB23" stroke-width="0.2"/>
</g>
<path d="M114.473 53.045L108.814 50.2342L105.331 58.6515L105.261 59.7195L105.265 60.6038L107.208 62.01L109.839 62.8761L111.76 59.4183L113.417 56.0502L114.551 53.7457L114.473 53.045Z" fill="#2D3D18" fill-opacity="0.5" stroke="#57EB23"/>
</g>
<defs>
<filter id="filter0_d_389_324" x="6.3335" y="0.535156" width="110.363" height="91.4648" filterUnits="userSpaceOnUse" color-interpolation-filters="sRGB">
<feFlood flood-opacity="0" result="BackgroundImageFix"/>
<feColorMatrix in="SourceAlpha" type="matrix" values="0 0 0 0 0 0 0 0 0 0 0 0 0 0 0 0 0 0 127 0" result="hardAlpha"/>
<feOffset dy="4"/>
<feGaussianBlur stdDeviation="0.5"/>
<feComposite in2="hardAlpha" operator="out"/>
<feColorMatrix type="matrix" values="0 0 0 0 0 0 0 0 0 0 0 0 0 0 0 0 0 0 0.25 0"/>
<feBlend mode="normal" in2="BackgroundImageFix" result="effect1_dropShadow_389_324"/>
<feBlend mode="normal" in="SourceGraphic" in2="effect1_dropShadow_389_324" result="shape"/>
</filter>
<filter id="filter1_i_389_324" x="8.41064" y="53.3945" width="20.2695" height="28.4043" filterUnits="userSpaceOnUse" color-interpolation-filters="sRGB">
<feFlood flood-opacity="0" result="BackgroundImageFix"/>
<feBlend mode="normal" in="SourceGraphic" in2="BackgroundImageFix" result="shape"/>
<feColorMatrix in="SourceAlpha" type="matrix" values="0 0 0 0 0 0 0 0 0 0 0 0 0 0 0 0 0 0 127 0" result="hardAlpha"/>
<feOffset dy="4"/>
<feGaussianBlur stdDeviation="2"/>
<feComposite in2="hardAlpha" operator="arithmetic" k2="-1" k3="1"/>
<feColorMatrix type="matrix" values="0 0 0 0 0 0 0 0 0 0 0 0 0 0 0 0 0 0 0.25 0"/>
<feBlend mode="normal" in2="shape" result="effect1_innerShadow_389_324"/>
</filter>
<filter id="filter2_d_389_324" x="11.5688" y="63.6577" width="17.8677" height="18.8232" filterUnits="userSpaceOnUse" color-interpolation-filters="sRGB">
<feFlood flood-opacity="0" result="BackgroundImageFix"/>
<feColorMatrix in="SourceAlpha" type="matrix" values="0 0 0 0 0 0 0 0 0 0 0 0 0 0 0 0 0 0 127 0" result="hardAlpha"/>
<feOffset dy="4"/>
<feGaussianBlur stdDeviation="2"/>
<feComposite in2="hardAlpha" operator="out"/>
<feColorMatrix type="matrix" values="0 0 0 0 0 0 0 0 0 0 0 0 0 0 0 0 0 0 0.25 0"/>
<feBlend mode="normal" in2="BackgroundImageFix" result="effect1_dropShadow_389_324"/>
<feBlend mode="normal" in="SourceGraphic" in2="effect1_dropShadow_389_324" result="shape"/>
</filter>
<filter id="filter3_f_389_324" x="11.5688" y="59.6577" width="17.8677" height="18.8232" filterUnits="userSpaceOnUse" color-interpolation-filters="sRGB">
<feFlood flood-opacity="0" result="BackgroundImageFix"/>
<feBlend mode="normal" in="SourceGraphic" in2="BackgroundImageFix" result="shape"/>
<feGaussianBlur stdDeviation="2" result="effect1_foregroundBlur_389_324"/>
</filter>
<filter id="filter4_i_389_324" x="97.2397" y="53.229" width="18.207" height="27.2656" filterUnits="userSpaceOnUse" color-interpolation-filters="sRGB">
<feFlood flood-opacity="0" result="BackgroundImageFix"/>
<feBlend mode="normal" in="SourceGraphic" in2="BackgroundImageFix" result="shape"/>
<feColorMatrix in="SourceAlpha" type="matrix" values="0 0 0 0 0 0 0 0 0 0 0 0 0 0 0 0 0 0 127 0" result="hardAlpha"/>
<feOffset dy="4"/>
<feGaussianBlur stdDeviation="2"/>
<feComposite in2="hardAlpha" operator="arithmetic" k2="-1" k3="1"/>
<feColorMatrix type="matrix" values="0 0 0 0 0 0 0 0 0 0 0 0 0 0 0 0 0 0 0.25 0"/>
<feBlend mode="normal" in2="shape" result="effect1_innerShadow_389_324"/>
</filter>
<filter id="filter5_d_389_324" x="96.3652" y="63.9326" width="16.8335" height="17.7949" filterUnits="userSpaceOnUse" color-interpolation-filters="sRGB">
<feFlood flood-opacity="0" result="BackgroundImageFix"/>
<feColorMatrix in="SourceAlpha" type="matrix" values="0 0 0 0 0 0 0 0 0 0 0 0 0 0 0 0 0 0 127 0" result="hardAlpha"/>
<feOffset dy="4"/>
<feGaussianBlur stdDeviation="2"/>
<feComposite in2="hardAlpha" operator="out"/>
<feColorMatrix type="matrix" values="0 0 0 0 0 0 0 0 0 0 0 0 0 0 0 0 0 0 0.25 0"/>
<feBlend mode="normal" in2="BackgroundImageFix" result="effect1_dropShadow_389_324"/>
<feBlend mode="normal" in="SourceGraphic" in2="effect1_dropShadow_389_324" result="shape"/>
</filter>
<filter id="filter6_f_389_324" x="96.7646" y="60.3335" width="16.0347" height="17.0708" filterUnits="userSpaceOnUse" color-interpolation-filters="sRGB">
<feFlood flood-opacity="0" result="BackgroundImageFix"/>
<feBlend mode="normal" in="SourceGraphic" in2="BackgroundImageFix" result="shape"/>
<feGaussianBlur stdDeviation="2" result="effect1_foregroundBlur_389_324"/>
</filter>
</defs>
</svg>
