<svg width="247" height="346" viewBox="0 0 247 346" fill="none" xmlns="http://www.w3.org/2000/svg">
<g clip-path="url(#clip0_459_9496)">
<path d="M225.591 291.08C224.281 290.95 223.401 291.29 222.931 291.53C220.751 292.65 219.621 295.72 220.231 299.16C221.161 300.97 221.641 302.49 221.891 303.42C223.791 310.5 221.061 315.16 221.801 323.49C222.001 325.77 222.411 327.75 222.411 327.75C222.921 330.22 223.431 331.38 224.061 333.66C224.471 335.12 224.991 337.26 225.361 339.96C227.321 339.96 229.271 339.96 231.231 339.96V335.18C231.451 334.89 232.791 333.07 232.321 330.62C231.781 327.81 229.311 326.61 229.061 326.49C228.901 323.97 228.841 319.88 229.711 314.98C231.041 307.55 233.991 304.81 233.271 299.51C231.991 290.09 225.271 290.88 225.591 291.08Z" fill="#251305" stroke="black" stroke-width="0.25" stroke-miterlimit="10"/>
<path d="M13.7408 291.15C15.0508 291.02 15.9308 291.36 16.4008 291.6C18.5808 292.72 19.7108 295.79 19.1008 299.23C18.1708 301.04 17.6908 302.56 17.4408 303.49C15.5408 310.57 18.2708 315.23 17.5308 323.56C17.3308 325.84 16.9208 327.82 16.9208 327.82C16.4108 330.29 15.9008 331.45 15.2708 333.73C14.8608 335.19 14.3408 337.33 13.9708 340.03H8.10077V335.25C7.88077 334.96 6.54077 333.14 7.01077 330.69C7.55077 327.88 10.0208 326.68 10.2708 326.56C10.4308 324.04 10.4908 319.95 9.62077 315.05C8.29077 307.62 5.34077 304.88 6.06077 299.58C7.34077 290.16 14.0608 290.95 13.7408 291.15Z" fill="#251305" stroke="black" stroke-width="0.25" stroke-miterlimit="10"/>
<path d="M235.56 13.2798H8.82031V297.96H235.56V13.2798Z" fill="#42210B" stroke="black" stroke-width="5" stroke-miterlimit="10"/>
<path d="M235.56 13.2798H8.82031V297.96H235.56V13.2798Z" fill="#351906" stroke="#5C310A" stroke-width="3" stroke-miterlimit="10"/>
<path d="M22.75 24.3837V113.75H11.25V19.3814L22.75 24.3837Z" fill="#411E06" stroke="#321806" stroke-width="0.5"/>
<path d="M221.25 27.2118L232.75 25.2951V115.705L221.25 113.788V27.2118Z" fill="#411E06" stroke="#321806" stroke-width="0.5"/>
<path d="M23.9708 286.769L11 296H233L220.528 286L23.9708 286.769Z" fill="#3C1D08" stroke="#301706" stroke-width="0.5"/>
<path d="M8.61914 42.3898V15.2798L238.179 16.7498V42.3898C235.369 42.3098 232.559 42.2298 229.749 42.1498C229.659 41.6698 229.479 41.0298 229.089 40.3698C226.519 35.9798 218.209 36.0698 214.099 36.7098C208.409 37.5998 204.409 40.5398 202.319 42.3898H192.259C192.159 41.8498 191.939 40.9998 191.309 40.1998C186.729 34.3398 167.959 40.2498 162.809 41.8798C156.619 43.8298 154.809 45.0698 149.609 45.6898C144.129 46.3398 139.479 45.7398 136.349 45.1198C132.349 45.9598 126.919 46.6498 120.559 46.1898C116.839 45.9198 113.559 45.3098 110.809 44.6098C106.649 45.3398 100.429 45.9898 93.0491 45.0198C89.8391 44.5998 86.6491 43.8898 83.4591 42.8898C74.3791 40.0398 62.6191 33.8098 55.3391 38.7898C53.6791 39.9198 52.6691 41.3498 52.0691 42.4098H42.6691C42.6791 41.7298 42.5991 40.6898 42.0091 39.6798C38.0891 32.9398 16.3091 35.4398 14.8891 40.9398C14.7491 41.4798 14.8291 41.9698 14.8891 42.2498C12.8091 42.3098 10.7191 42.3598 8.63914 42.4198L8.61914 42.3898Z" fill="#251200"/>
<path d="M7.61914 40.3898V13.2798L237.179 14.7498V40.3898C234.369 40.3098 231.559 40.2298 228.749 40.1498C228.659 39.6698 228.479 39.0298 228.089 38.3698C225.519 33.9798 217.209 34.0698 213.099 34.7098C207.409 35.5998 203.409 38.5398 201.319 40.3898H191.259C191.159 39.8498 190.939 38.9998 190.309 38.1998C185.729 32.3398 166.959 38.2498 161.809 39.8798C155.619 41.8298 153.809 43.0698 148.609 43.6898C143.129 44.3398 138.479 43.7398 135.349 43.1198C131.349 43.9598 125.919 44.6498 119.559 44.1898C115.839 43.9198 112.559 43.3098 109.809 42.6098C105.649 43.3398 99.4291 43.9898 92.0491 43.0198C88.8391 42.5998 85.6491 41.8898 82.4591 40.8898C73.3791 38.0398 61.6191 31.8098 54.3391 36.7898C52.6791 37.9198 51.6691 39.3498 51.0691 40.4098H41.6691C41.6791 39.7298 41.5991 38.6898 41.0091 37.6798C37.0891 30.9398 15.3091 33.4398 13.8891 38.9398C13.7491 39.4798 13.8291 39.9698 13.8891 40.2498C11.8091 40.3098 9.71914 40.3598 7.63914 40.4198L7.61914 40.3898Z" fill="#603813" stroke="black" stroke-miterlimit="10"/>
<path d="M12.0098 298.09C12.0098 302.22 12.0098 306.8 12.0098 308.63L17.0998 308.54C17.2598 308.5 17.8498 308.32 18.2298 307.74C18.7998 306.87 18.3798 305.89 18.3498 305.82C23.5898 303.19 28.1898 302.48 31.0498 302.27C40.6098 301.57 48.4898 305.25 49.3598 307.36C49.4198 307.51 49.6298 308.1 50.1998 308.41C51.0998 308.91 52.3498 308.38 53.2698 307.85C53.8498 307.78 54.4298 307.71 55.0098 307.64C55.2398 306.01 56.3798 304.7 57.7998 304.36C59.6498 303.93 61.7698 305.21 62.3298 307.43C62.8398 306.87 63.3498 306.32 63.8598 305.76C69.0598 308.05 76.4498 310.65 85.5998 311.89C95.7998 313.27 104.4 312.44 110.34 311.4C111.3 312.12 112.87 313.12 115.01 313.77C115.4 313.89 117.3 314.45 119.96 314.4C124.21 314.32 127.62 312.74 129.58 311.61C135.36 312.83 144.21 313.97 154.8 312.52C163.69 311.3 170.8 308.66 175.7 306.39C176.49 306.76 177.28 307.13 178.07 307.5C178.7 306.08 180.01 305.11 181.48 304.99C183.3 304.84 185.09 306.04 185.73 307.92C186.12 307.94 186.52 307.97 186.91 307.99C187.18 308.71 187.89 309.17 188.65 309.1C189.39 309.04 190.01 308.5 190.18 307.78C193.2 305.49 195.96 304.38 197.71 303.81C206.15 301.06 217.45 302.43 221.14 307.2C221.61 307.81 222.97 309.78 224.26 309.53C225 309.38 225.46 308.55 225.72 307.93C225.89 308.08 226.33 308.41 226.97 308.49C227.95 308.61 228.65 308.04 228.78 307.93C228.87 304.66 228.97 301.38 229.06 298.11H12.0098V298.09Z" fill="#5C310A" stroke="black" stroke-width="0.5" stroke-miterlimit="10"/>
<path d="M134.9 283.62H187.49V294.33H134.9C134.5 292.85 134.12 290.78 134.2 288.3C134.26 286.44 134.56 284.85 134.9 283.61V283.62Z" fill="#353100" stroke="black" stroke-width="0.25" stroke-miterlimit="10"/>
<path d="M41.3695 115.23H37.6895V59.1901C38.0795 59.0401 38.7195 58.8501 39.5195 58.8501C40.3295 58.8501 40.9795 59.0401 41.3695 59.1901V115.23Z" fill="#001F1D" stroke="black" stroke-width="0.25" stroke-miterlimit="10"/>
<path d="M45.0491 58.5298H41.3691V114.57H45.0491V58.5298Z" fill="#353100" stroke="black" stroke-width="0.25" stroke-miterlimit="10"/>
<path d="M50.6208 59.1699H45.0508V114.9H50.6208V59.1699Z" fill="#001F07" stroke="black" stroke-width="0.25" stroke-miterlimit="10"/>
<path d="M50.6194 114H58.9394V56.1002C57.9594 55.8302 56.6594 55.5802 55.1194 55.5402C53.2594 55.5002 51.7094 55.8002 50.6094 56.1002V114H50.6194Z" fill="#001500" stroke="black" stroke-width="0.25" stroke-miterlimit="10"/>
<path d="M76.2097 114.56H62.2397L59.9297 45.68C61.4897 45.17 63.8297 44.6 66.7197 44.61C69.5997 44.61 71.9297 45.18 73.4897 45.68C74.3897 68.64 75.2997 91.6 76.1997 114.56H76.2097Z" fill="#92680F" stroke="black" stroke-width="0.25" stroke-miterlimit="10"/>
<path d="M148.009 114.56H84.2095C83.4695 112.25 82.6495 108.73 82.8195 104.4C82.9395 101.18 83.5795 98.4898 84.2095 96.5298H148.009C148.699 99.0198 149.38 102.58 149.21 106.85C149.09 109.91 148.569 112.53 148.009 114.56Z" fill="#420F28" stroke="black" stroke-width="0.25" stroke-miterlimit="10"/>
<path d="M149.311 87.6299H87.0908C86.6545 87.6299 86.3008 87.9836 86.3008 88.4199V95.6499C86.3008 96.0862 86.6545 96.4399 87.0908 96.4399H149.311C149.747 96.4399 150.101 96.0862 150.101 95.6499V88.4199C150.101 87.9836 149.747 87.6299 149.311 87.6299Z" fill="#002341" stroke="black" stroke-width="0.25" stroke-miterlimit="10"/>
<path d="M167.19 56.2598H157.16V114.56H167.19V56.2598Z" fill="#073D74" stroke="black" stroke-width="0.25" stroke-miterlimit="10"/>
<path d="M172.62 54.3599H167.74V114.56H172.62V54.3599Z" fill="#5B7100" stroke="black" stroke-width="0.25" stroke-miterlimit="10"/>
<path d="M181.29 52.73H173.43V114.56H181.29V52.73Z" fill="#001500" stroke="black" stroke-width="0.25" stroke-miterlimit="10"/>
<path d="M190.833 59.5821L181.477 60.0889L184.423 114.499L193.78 113.992L190.833 59.5821Z" fill="#925A0F" stroke="black" stroke-width="0.25" stroke-miterlimit="10"/>
<path d="M204.439 59.5098H195.199V114.56H204.439V59.5098Z" fill="#3F0003" stroke="black" stroke-width="0.25" stroke-miterlimit="10"/>
<path d="M201.38 142.24H192.27V210.84H201.38V142.24Z" fill="#420F28" stroke="black" stroke-width="0.25" stroke-miterlimit="10"/>
<path d="M192.271 142.62H186.391V210.46H192.271V142.62Z" fill="#073D74" stroke="black" stroke-width="0.25" stroke-miterlimit="10"/>
<path d="M186.5 144.445L182.764 144.281L179.868 210.328L183.605 210.492L186.5 144.445Z" fill="#3F0003" stroke="black" stroke-width="0.25" stroke-miterlimit="10"/>
<path d="M177.37 146.43H170.18V210.46H177.37V146.43Z" fill="#353100" stroke="black" stroke-width="0.25" stroke-miterlimit="10"/>
<path d="M170.18 210.46H154.58V145.39C156.8 144.94 159.6 144.57 162.83 144.61C165.67 144.64 168.15 144.98 170.17 145.39V210.46H170.18Z" fill="#001F1D" stroke="black" stroke-width="0.25" stroke-miterlimit="10"/>
<path opacity="0.71" d="M140.35 181.56H83.1498C82.8406 181.56 82.5898 181.811 82.5898 182.12V193.98C82.5898 194.289 82.8406 194.54 83.1498 194.54H140.35C140.659 194.54 140.91 194.289 140.91 193.98V182.12C140.91 181.811 140.659 181.56 140.35 181.56Z" fill="#865706" stroke="black" stroke-width="0.25" stroke-miterlimit="10"/>
<path d="M136.06 202.1H76.2098C75.8398 201.36 75.1298 199.69 75.3298 197.53C75.4498 196.21 75.8698 195.18 76.2098 194.53H136.06C136.37 195.3 136.79 196.6 136.8 198.25C136.81 199.97 136.37 201.31 136.06 202.09V202.1Z" fill="#2B005F" stroke="black" stroke-width="0.25" stroke-miterlimit="10"/>
<path d="M55.2109 211.26H40.4609V152.76C42.3009 152.3 44.7309 151.88 47.6009 151.85C50.6809 151.83 53.2809 152.27 55.2109 152.76V211.26Z" fill="#002355" stroke="black" stroke-width="0.25" stroke-miterlimit="10"/>
<path d="M61.0591 152.77H55.8691V211.27H61.0591V152.77Z" fill="#30004A" stroke="black" stroke-width="0.25" stroke-miterlimit="10"/>
<path d="M61.6406 211.26H70.9906V152.76C70.0006 152.36 68.2806 151.81 66.0906 151.85C64.1406 151.88 62.5906 152.37 61.6406 152.76V211.26Z" fill="#172A00" stroke="black" stroke-width="0.25" stroke-miterlimit="10"/>
<path d="M136.76 202.1H75.1504V211.32H136.76V202.1Z" fill="#001F18" stroke="black" stroke-width="0.25" stroke-miterlimit="10"/>
<path d="M57.2407 294.13L40.4707 291.5L51.0607 224C52.9407 223.65 55.6207 223.36 58.7807 223.74C62.8407 224.23 65.9407 225.61 67.8307 226.63C64.3007 249.13 60.7707 271.63 57.2407 294.13Z" fill="#7F5D00" stroke="black" stroke-width="0.25" stroke-miterlimit="10"/>
<path d="M77.6907 294.13H67.7207V229.18C68.5407 228.73 70.1607 227.98 72.3307 227.9C74.9207 227.81 76.8507 228.72 77.6907 229.18V294.13Z" fill="#001F18" stroke="black" stroke-width="0.25" stroke-miterlimit="10"/>
<path d="M78.4395 294.33H90.4695V231.03C89.2595 230.5 87.0395 229.72 84.1795 229.77C81.6095 229.82 79.6095 230.52 78.4395 231.03V294.33Z" fill="#172A00" stroke="black" stroke-width="0.25" stroke-miterlimit="10"/>
<path d="M100.021 237.13H90.4707V294.33H100.021V237.13Z" fill="#073D74" stroke="black" stroke-width="0.25" stroke-miterlimit="10"/>
<path d="M107.008 235.848L100.438 236.354L104.883 294.123L111.453 293.617L107.008 235.848Z" fill="#002355" stroke="black" stroke-width="0.25" stroke-miterlimit="10"/>
<path d="M111.75 294.67H119.92V235.33C119.1 234.98 117.64 234.49 115.77 234.5C113.97 234.51 112.56 234.98 111.75 235.33V294.67Z" fill="#2B005F" stroke="black" stroke-width="0.25" stroke-miterlimit="10"/>
<path d="M22.75 125.167V210.75H11.25V120.375L22.75 125.167Z" fill="#411E06" stroke="#321806" stroke-width="0.5"/>
<path d="M221.25 124.212L232.75 122.295V212.705L221.25 210.788V124.212Z" fill="#411E06" stroke="#321806" stroke-width="0.5"/>
<path d="M22.85 286.922L11.15 295.21V218.216L22.85 222.604V286.922Z" fill="#3C1D08" stroke="#2C1505" stroke-width="0.3"/>
<path d="M221.25 224.754L233.233 216.474L233.747 295.49L221.25 285.877V224.754Z" fill="#3C1D08" stroke="#301706" stroke-width="0.5"/>
<path d="M11 119L234 119.3L231.996 122H12.5034L11 119Z" fill="#2F1701"/>
<path d="M11 218H234L228.5 221L16.5 220L11 218Z" fill="#2F1701"/>
<path d="M185.561 283.62H129.741C129.121 282.07 128.301 279.41 128.361 276.05C128.411 273.01 129.151 270.61 129.741 269.12H185.561V283.63V283.62Z" fill="#420F28" stroke="black" stroke-width="0.25" stroke-miterlimit="10"/>
<path opacity="0.46" d="M233.379 114.56H11.0391V119.51H233.379V114.56Z" fill="#5F2D07" stroke="black" stroke-width="0.5" stroke-miterlimit="10"/>
<path opacity="0.46" d="M233.381 211.33H10.7207V217.79H233.381V211.33Z" fill="#5F2D07" stroke="black" stroke-width="0.5" stroke-miterlimit="10"/>
<path d="M7 8.49V4.0001L10.4101 4V8.49H7Z" fill="#42210B" stroke="black" stroke-width="0.25" stroke-miterlimit="10"/>
<path d="M235 10.49V6.0001L238.41 6V10.49H235Z" fill="#42210B" stroke="black" stroke-width="0.25" stroke-miterlimit="10"/>
<path d="M235.5 6L10.4102 4V8.49L235.56 10.76L235.5 6Z" fill="#522B0D" stroke="black" stroke-width="0.25" stroke-miterlimit="10"/>
<path d="M8.29913 296.24C9.60913 296.11 10.4891 296.45 10.9591 296.69C13.1391 297.81 14.2691 300.88 13.6591 304.32C12.7291 306.13 12.2491 307.65 11.9991 308.58C10.0991 315.66 12.8291 320.32 12.0891 328.65C11.8891 330.93 11.4791 332.91 11.4791 332.91C10.9691 335.38 10.4591 336.54 9.82913 338.82C9.41913 340.28 8.89913 342.42 8.52913 345.12H2.66913V340.34C2.44913 340.05 1.10913 338.23 1.57913 335.78C2.11913 332.97 4.58913 331.77 4.83913 331.65C4.99913 329.13 5.05913 325.04 4.18913 320.14C2.85913 312.71 -0.0908693 309.97 0.629131 304.67C1.90913 295.25 8.62913 296.04 8.30913 296.24H8.29913Z" fill="#5C310A" stroke="black" stroke-width="0.5" stroke-miterlimit="10"/>
<path d="M232.239 296.24C230.929 296.11 230.049 296.45 229.579 296.69C227.399 297.81 226.269 300.88 226.879 304.32C227.809 306.13 228.289 307.65 228.539 308.58C230.439 315.66 227.709 320.32 228.449 328.65C228.649 330.93 229.059 332.91 229.059 332.91C229.569 335.38 230.079 336.54 230.709 338.82C231.119 340.28 231.639 342.42 232.009 345.12C233.969 345.12 235.919 345.12 237.879 345.12V340.34C238.099 340.05 239.439 338.23 238.969 335.78C238.429 332.97 235.959 331.77 235.709 331.65C235.549 329.13 235.489 325.04 236.359 320.14C237.689 312.71 240.639 309.97 239.919 304.67C238.639 295.25 231.919 296.04 232.239 296.24Z" fill="#5C310A" stroke="black" stroke-width="0.5" stroke-miterlimit="10"/>
<path d="M4.51033 12.56V23.84C4.51033 25.77 4.69033 27.7 5.05033 29.6C5.05033 29.6 5.05033 29.61 5.05033 29.62L4.92033 41.61C4.92033 41.61 4.90033 41.68 4.86033 41.69C4.48033 41.81 3.73033 42.34 3.74033 43.17C3.74033 44.01 4.25033 44.78 5.02033 45.12C5.03033 45.12 5.05033 45.12 5.06033 45.12H7.95033C7.95033 45.12 8.03033 45.09 8.04033 45.04C8.44033 42.49 8.84033 39.94 9.24033 37.39C9.64033 34.84 10.2903 32.52 11.1103 30.17C12.0403 27.52 12.8603 24.32 13.2403 20.64C13.5103 17.99 13.5103 15.58 13.3603 13.49C13.3603 13.44 13.4203 13.08 13.1603 12.77C13.0003 12.58 12.7503 12.46 12.4803 12.46H4.60033C4.60033 12.46 4.51033 12.5 4.51033 12.55V12.56Z" fill="#251200"/>
<path d="M3.51033 12.56V23.84C3.51033 25.77 3.69033 27.7 4.05033 29.6C4.05033 29.6 4.05033 29.61 4.05033 29.62L3.92033 41.61C3.92033 41.61 3.90033 41.68 3.86033 41.69C3.48033 41.81 2.73033 42.34 2.74033 43.17C2.74033 44.01 3.25033 44.78 4.02033 45.12C4.03033 45.12 4.05033 45.12 4.06033 45.12H6.95033C6.95033 45.12 7.03033 45.09 7.04033 45.04C7.44033 42.49 7.84033 39.94 8.24033 37.39C8.64033 34.84 9.29033 32.52 10.1103 30.17C11.0403 27.52 11.8603 24.32 12.2403 20.64C12.5103 17.99 12.5103 15.58 12.3603 13.49C12.3603 13.44 12.4203 13.08 12.1603 12.77C12.0003 12.58 11.7503 12.46 11.4803 12.46H3.60033C3.60033 12.46 3.51033 12.5 3.51033 12.55V12.56Z" fill="#5C310A" stroke="black" stroke-width="0.5" stroke-miterlimit="10"/>
<path d="M240.291 15.33V26.61C240.291 28.54 240.111 30.47 239.751 32.37C239.751 32.37 239.751 32.38 239.751 32.39L239.881 44.38C239.881 44.38 239.901 44.45 239.941 44.46C240.321 44.58 241.071 45.11 241.061 45.94C241.061 46.78 240.551 47.55 239.781 47.89C239.771 47.89 239.751 47.89 239.741 47.89H236.851C236.851 47.89 236.771 47.86 236.761 47.81C236.361 45.26 235.961 42.71 235.561 40.16C235.171 37.7 234.511 35.29 233.691 32.94C232.761 30.29 231.941 27.09 231.561 23.41C231.291 20.76 231.291 18.35 231.441 16.26C231.441 16.21 231.381 15.85 231.641 15.54C231.801 15.35 232.051 15.23 232.321 15.23H240.231C240.231 15.23 240.321 15.27 240.321 15.32L240.291 15.33Z" fill="#251200"/>
<path d="M241.291 15.33V26.61C241.291 28.54 241.111 30.47 240.751 32.37C240.751 32.37 240.751 32.38 240.751 32.39L240.881 44.38C240.881 44.38 240.901 44.45 240.941 44.46C241.321 44.58 242.071 45.11 242.061 45.94C242.061 46.78 241.551 47.55 240.781 47.89C240.771 47.89 240.751 47.89 240.741 47.89H237.851C237.851 47.89 237.771 47.86 237.761 47.81C237.361 45.26 236.961 42.71 236.561 40.16C236.171 37.7 235.511 35.29 234.691 32.94C233.761 30.29 232.941 27.09 232.561 23.41C232.291 20.76 232.291 18.35 232.441 16.26C232.441 16.21 232.381 15.85 232.641 15.54C232.801 15.35 233.051 15.23 233.321 15.23H241.231C241.231 15.23 241.321 15.27 241.321 15.32L241.291 15.33Z" fill="#5C310A" stroke="black" stroke-width="0.5" stroke-miterlimit="10"/>
<path opacity="0.23" d="M74 62C72.24 61.75 70.21 61.94 67.5 62C64.95 62.05 62.17 62.7 60.5 63L60.4004 53.8299C61.9304 53.4699 64.1504 53.0699 66.8704 53.0099C69.6804 52.9499 72.0004 53.2899 73.5704 53.5999L74 60V62Z" fill="#603813" stroke="black" stroke-width="0.12" stroke-miterlimit="10"/>
<path opacity="0.23" d="M75.9108 105.41C74.0908 105.25 71.7008 105.12 68.8908 105.15C66.2508 105.18 64.0108 105.36 62.2808 105.55L61.8008 100.93C63.3808 100.7 65.6808 100.45 68.5008 100.42C71.4108 100.39 73.8008 100.59 75.4308 100.79L75.9108 105.41Z" fill="#603813" stroke="black" stroke-width="0.12" stroke-miterlimit="10"/>
<path opacity="0.23" d="M64.5003 248.5C62.8103 247.94 58.4403 246.42 55.7603 245.99C53.2403 245.59 49.5103 245.43 47.8203 245.43L49.7704 234.07C51.3404 233.98 55.1404 234.03 57.8304 234.46C60.6104 234.9 64.9604 236.54 66.4504 237.13L65.5 244L64.5003 248.5Z" fill="#603813" stroke="black" stroke-width="0.12" stroke-miterlimit="10"/>
<path opacity="0.23" d="M58.5898 287.62C56.8298 287.14 53.3298 286.58 50.5598 286.12C47.9598 285.68 43.8298 285.46 42.0898 285.33L42.4398 280.7C44.0298 280.76 48.2298 280.92 51.0098 281.39C53.8798 281.87 57.3698 282.5 58.9398 282.99L58.5898 287.62Z" fill="#603813" stroke="black" stroke-width="0.12" stroke-miterlimit="10"/>
<path opacity="0.23" d="M55.2107 166.44C53.4507 166.19 50.0307 166.17 47.3207 166.23C44.7707 166.28 42.1407 166.56 40.4707 166.86V159.48C42.0007 159.12 44.2207 158.72 46.9407 158.66C49.7507 158.6 53.6407 158.89 55.2107 159.21V166.43V166.44Z" fill="#1B1422" stroke="black" stroke-width="0.12" stroke-miterlimit="10"/>
<path opacity="0.23" d="M55.2109 206.81C53.3909 206.65 50.6809 206.58 47.8709 206.61C45.2309 206.64 42.1909 206.82 40.4609 207.01V202.42C42.0409 202.19 44.6609 201.92 47.4809 201.89C50.3909 201.86 53.5809 202.05 55.2109 202.25V206.82V206.81Z" fill="#1B1422" stroke="black" stroke-width="0.12" stroke-miterlimit="10"/>
<path opacity="0.23" d="M170.251 164C168.491 163.75 164.371 163.04 161.661 163.09C159.111 163.14 156.481 163.42 154.811 163.72V153.13C156.341 152.77 158.561 152.37 161.281 152.31C164.091 152.25 168.601 152.68 170.181 153L170.251 160.78V164Z" fill="#01504B" stroke="black" stroke-width="0.12" stroke-miterlimit="10"/>
<path opacity="0.23" d="M170.181 200.61C168.361 200.45 165.021 200.23 162.221 200.27C159.581 200.3 156.541 200.48 154.811 200.67V196.08C156.391 195.85 159.011 195.58 161.831 195.55C164.741 195.52 168.561 195.86 170.191 196.05V200.62L170.181 200.61Z" fill="#01504B" stroke="black" stroke-width="0.12" stroke-miterlimit="10"/>
<path opacity="0.23" d="M131 114.5C131.78 113.06 131.31 97.88 130.5 96.46H140.65C141.51 97.76 142.03 112.94 141.27 114.29L131 114.5Z" fill="#50168D" stroke="black" stroke-width="0.12" stroke-miterlimit="10"/>
<path opacity="0.23" d="M92.3403 114.56C92.9903 112.12 92.6903 98.9198 92.3203 96.5298H96.8603C97.4803 98.4498 97.9803 112.46 97.1303 114.56C95.4903 114.56 93.9803 114.56 92.3403 114.56Z" fill="#50168D" stroke="black" stroke-width="0.12" stroke-miterlimit="10"/>
<path opacity="0.59" d="M96.1291 181.86H94.5091C93.9733 181.86 93.5391 182.294 93.5391 182.83V193.27C93.5391 193.806 93.9733 194.24 94.5091 194.24H96.1291C96.6648 194.24 97.0991 193.806 97.0991 193.27V182.83C97.0991 182.294 96.6648 181.86 96.1291 181.86Z" fill="#865906" stroke="#633C00" stroke-width="0.11" stroke-miterlimit="10"/>
<path opacity="0.59" d="M167 69.1826V67.8174C167 67.366 166.649 67 166.216 67H157.784C157.351 67 157 67.366 157 67.8174V69.1826C157 69.634 157.351 70 157.784 70H166.216C166.649 70 167 69.634 167 69.1826Z" fill="#022B54" stroke="#000A63" stroke-width="0.11" stroke-miterlimit="10"/>
<path opacity="0.59" d="M128.379 181.85H126.759C126.223 181.85 125.789 182.284 125.789 182.82V193.28C125.789 193.816 126.223 194.25 126.759 194.25H128.379C128.915 194.25 129.349 193.816 129.349 193.28V182.82C129.349 182.284 128.915 181.85 128.379 181.85Z" fill="#865906" stroke="#633C00" stroke-width="0.11" stroke-miterlimit="10"/>
<path opacity="0.59" d="M167 102.183V100.817C167 100.366 166.65 100 166.218 100H157.782C157.35 100 157 100.366 157 100.817V102.183C157 102.634 157.35 103 157.782 103H166.218C166.65 103 167 102.634 167 102.183Z" fill="#022B54" stroke="#000A63" stroke-width="0.11" stroke-miterlimit="10"/>
<path d="M141.581 269.47H140.081C139.512 269.47 139.051 269.931 139.051 270.5V282.28C139.051 282.849 139.512 283.31 140.081 283.31H141.581C142.15 283.31 142.611 282.849 142.611 282.28V270.5C142.611 269.931 142.15 269.47 141.581 269.47Z" fill="#4A1031" stroke="#4C1445" stroke-width="0.11" stroke-miterlimit="10"/>
<path d="M173.841 269.46H172.341C171.772 269.46 171.311 269.921 171.311 270.49V282.29C171.311 282.859 171.772 283.32 172.341 283.32H173.841C174.409 283.32 174.871 282.859 174.871 282.29V270.49C174.871 269.921 174.409 269.46 173.841 269.46Z" fill="#4A1031" stroke="#4C1445" stroke-width="0.11" stroke-miterlimit="10"/>
<path d="M90.1699 246.64V244.96C90.1699 244.441 89.7491 244.02 89.2299 244.02H79.6099C79.0908 244.02 78.6699 244.441 78.6699 244.96V246.64C78.6699 247.159 79.0908 247.58 79.6099 247.58H89.2299C89.7491 247.58 90.1699 247.159 90.1699 246.64Z" fill="#273407" stroke="#132900" stroke-width="0.11" stroke-miterlimit="10"/>
<path d="M90.1797 278.89V277.21C90.1797 276.691 89.7588 276.27 89.2397 276.27H79.5997C79.0806 276.27 78.6597 276.691 78.6597 277.21V278.89C78.6597 279.409 79.0806 279.83 79.5997 279.83H89.2397C89.7588 279.83 90.1797 279.409 90.1797 278.89Z" fill="#273407" stroke="#132900" stroke-width="0.11" stroke-miterlimit="10"/>
<path d="M1.97977 8.06982L0.509766 12.6198L245.83 15.2398L243.05 9.67982L1.97977 8.06982Z" fill="#5C310A" stroke="black" stroke-width="0.75" stroke-miterlimit="10"/>
</g>
<defs>
<clipPath id="clip0_459_9496">
<rect width="246.44" height="345.37" fill="white"/>
</clipPath>
</defs>
</svg>
