<svg width="98" height="169" viewBox="0 0 98 169" fill="none" xmlns="http://www.w3.org/2000/svg">
<rect width="98" height="169" fill="#AEACAC"/>
<rect x="11" y="11" width="76" height="98" fill="#E4E4E4"/>
<rect x="13" y="121" width="30" height="29" fill="#342A2A"/>
<rect x="55" y="121" width="30" height="29" fill="#342A2A"/>
<ellipse cx="48.5" cy="86.5" rx="16.5" ry="22.5" fill="black"/>
<circle cx="48.5" cy="51.5" r="12.5" fill="black"/>
<path d="M25.4663 31L23.0799 22.2727H24.1538L25.9776 29.3807H26.0629L27.9208 22.2727H29.114L30.9719 29.3807H31.0572L32.881 22.2727H33.9549L31.5685 31H30.4776L28.5515 24.0455H28.4833L26.5572 31H25.4663ZM34.9499 31H33.842L37.0465 22.2727H38.1374L41.342 31H40.234L37.6261 23.6534H37.5579L34.9499 31ZM35.359 27.5909H39.8249V28.5284H35.359V27.5909ZM49.6218 22.2727V31H48.5991L43.8434 24.1477H43.7582V31H42.7013V22.2727H43.7241L48.4968 29.142H48.582V22.2727H49.6218ZM51.2592 23.2102V22.2727H57.8047V23.2102H55.0604V31H54.0036V23.2102H51.2592ZM59.4357 31V22.2727H64.7028V23.2102H60.4925V26.1591H64.43V27.0966H60.4925V30.0625H64.771V31H59.4357ZM69.3008 31H66.6076V22.2727H69.4201C70.2667 22.2727 70.9911 22.4474 71.5934 22.7969C72.1957 23.1435 72.6573 23.642 72.9783 24.2926C73.2994 24.9403 73.4599 25.7159 73.4599 26.6193C73.4599 27.5284 73.2979 28.3111 72.9741 28.9673C72.6502 29.6207 72.1786 30.1236 71.5593 30.4759C70.94 30.8253 70.1871 31 69.3008 31ZM67.6644 30.0625H69.2326C69.9542 30.0625 70.5522 29.9233 71.0266 29.6449C71.5011 29.3665 71.8548 28.9702 72.0877 28.456C72.3207 27.9418 72.4371 27.3295 72.4371 26.6193C72.4371 25.9148 72.3221 25.3082 72.092 24.7997C71.8619 24.2884 71.5181 23.8963 71.0607 23.6236C70.6033 23.348 70.0337 23.2102 69.3519 23.2102H67.6644V30.0625Z" fill="black"/>
<path d="M25.9019 125.5C27.0566 123.5 29.9434 123.5 31.0981 125.5L40.1913 141.25C41.346 143.25 39.9027 145.75 37.5933 145.75H19.4067C17.0973 145.75 15.654 143.25 16.8087 141.25L25.9019 125.5Z" fill="#9747FF"/>
<path d="M67.9019 125.5C69.0566 123.5 71.9434 123.5 73.0981 125.5L82.1913 141.25C83.346 143.25 81.9027 145.75 79.5933 145.75H61.4067C59.0973 145.75 57.654 143.25 58.8087 141.25L67.9019 125.5Z" fill="#9747FF"/>
</svg>
