<svg width="254" height="62" viewBox="0 0 254 62" fill="none" xmlns="http://www.w3.org/2000/svg">
<rect x="0.739746" width="252.719" height="61.4598" fill="#57EB23"/>
<path d="M63.9227 24.39C63.9227 25.39 63.7227 26.265 63.3227 27.015C62.9327 27.765 62.3977 28.395 61.7177 28.905C61.0477 29.415 60.2927 29.81 59.4527 30.09L65.1377 39H60.4277L55.5227 30.735H53.6327V39H49.5377V18.255H55.6427C58.3727 18.255 60.4327 18.76 61.8227 19.77C63.2227 20.78 63.9227 22.32 63.9227 24.39ZM59.6627 24.39C59.6627 23.27 59.3377 22.465 58.6877 21.975C58.0377 21.475 57.0577 21.225 55.7477 21.225H53.6327V27.825H55.8827C57.0927 27.825 58.0227 27.555 58.6727 27.015C59.3327 26.475 59.6627 25.6 59.6627 24.39ZM70.791 32.265C70.871 33.255 71.096 34.06 71.466 34.68C71.846 35.3 72.331 35.755 72.921 36.045C73.511 36.335 74.166 36.48 74.886 36.48C75.646 36.48 76.361 36.36 77.031 36.12C77.701 35.88 78.361 35.545 79.011 35.115L80.661 37.38C79.921 38 79.036 38.5 78.006 38.88C76.986 39.26 75.861 39.45 74.631 39.45C72.911 39.45 71.461 39.095 70.281 38.385C69.111 37.675 68.226 36.69 67.626 35.43C67.026 34.17 66.726 32.72 66.726 31.08C66.726 29.5 67.021 28.075 67.611 26.805C68.201 25.535 69.051 24.53 70.161 23.79C71.271 23.04 72.611 22.665 74.181 22.665C75.641 22.665 76.901 22.985 77.961 23.625C79.021 24.265 79.841 25.185 80.421 26.385C81.001 27.575 81.291 29.01 81.291 30.69C81.291 30.96 81.281 31.235 81.261 31.515C81.251 31.795 81.236 32.045 81.216 32.265H70.791ZM74.196 25.455C73.236 25.455 72.446 25.8 71.826 26.49C71.216 27.17 70.856 28.25 70.746 29.73H77.436C77.416 28.39 77.136 27.345 76.596 26.595C76.066 25.835 75.266 25.455 74.196 25.455ZM94.2193 23.115V36.195H98.4043V39H85.6093V36.195H90.2593V25.92H85.7593V23.115H94.2193ZM91.6543 15.105C92.3843 15.105 92.9743 15.33 93.4243 15.78C93.8843 16.23 94.1143 16.79 94.1143 17.46C94.1143 18.13 93.8843 18.695 93.4243 19.155C92.9743 19.605 92.3843 19.83 91.6543 19.83C90.9243 19.83 90.3293 19.605 89.8693 19.155C89.4093 18.695 89.1793 18.13 89.1793 17.46C89.1793 16.79 89.4093 16.23 89.8693 15.78C90.3293 15.33 90.9243 15.105 91.6543 15.105ZM102.753 39V23.115H106.203L106.488 25.08C107.168 24.28 107.933 23.68 108.783 23.28C109.633 22.87 110.548 22.665 111.528 22.665C112.958 22.665 114.048 23.08 114.798 23.91C115.548 24.73 115.923 25.885 115.923 27.375V39H111.963V28.92C111.963 28.12 111.913 27.48 111.813 27C111.713 26.51 111.523 26.16 111.243 25.95C110.963 25.73 110.558 25.62 110.028 25.62C109.598 25.62 109.183 25.715 108.783 25.905C108.393 26.095 108.023 26.35 107.673 26.67C107.333 26.99 107.013 27.345 106.713 27.735V39H102.753ZM129.556 23.115V36.195H133.741V39H120.946V36.195H125.596V25.92H121.096V23.115H129.556ZM126.991 15.105C127.721 15.105 128.311 15.33 128.761 15.78C129.221 16.23 129.451 16.79 129.451 17.46C129.451 18.13 129.221 18.695 128.761 19.155C128.311 19.605 127.721 19.83 126.991 19.83C126.261 19.83 125.666 19.605 125.206 19.155C124.746 18.695 124.516 18.13 124.516 17.46C124.516 16.79 124.746 16.23 125.206 15.78C125.666 15.33 126.261 15.105 126.991 15.105ZM146.084 36.27C146.784 36.27 147.439 36.14 148.049 35.88C148.669 35.62 149.264 35.29 149.834 34.89L151.634 37.425C150.934 38.015 150.089 38.5 149.099 38.88C148.109 39.26 147.049 39.45 145.919 39.45C144.259 39.45 142.834 39.105 141.644 38.415C140.464 37.715 139.554 36.745 138.914 35.505C138.284 34.255 137.969 32.805 137.969 31.155C137.969 29.525 138.289 28.07 138.929 26.79C139.579 25.5 140.499 24.49 141.689 23.76C142.889 23.03 144.319 22.665 145.979 22.665C147.119 22.665 148.149 22.83 149.069 23.16C149.999 23.48 150.849 23.96 151.619 24.6L149.864 27.03C149.274 26.62 148.664 26.31 148.034 26.1C147.414 25.88 146.769 25.77 146.099 25.77C144.929 25.77 143.974 26.195 143.234 27.045C142.504 27.885 142.139 29.255 142.139 31.155C142.139 32.405 142.309 33.405 142.649 34.155C142.999 34.905 143.469 35.445 144.059 35.775C144.659 36.105 145.334 36.27 146.084 36.27ZM164.892 23.115V36.195H169.077V39H156.282V36.195H160.932V25.92H156.432V23.115H164.892ZM162.327 15.105C163.057 15.105 163.647 15.33 164.097 15.78C164.557 16.23 164.787 16.79 164.787 17.46C164.787 18.13 164.557 18.695 164.097 19.155C163.647 19.605 163.057 19.83 162.327 19.83C161.597 19.83 161.002 19.605 160.542 19.155C160.082 18.695 159.852 18.13 159.852 17.46C159.852 16.79 160.082 16.23 160.542 15.78C161.002 15.33 161.597 15.105 162.327 15.105ZM186.101 34.815C186.101 35.425 186.191 35.87 186.371 36.15C186.551 36.42 186.841 36.625 187.241 36.765L186.386 39.42C185.536 39.33 184.811 39.12 184.211 38.79C183.621 38.45 183.166 37.945 182.846 37.275C182.246 38.005 181.486 38.55 180.566 38.91C179.656 39.27 178.701 39.45 177.701 39.45C176.081 39.45 174.796 38.99 173.846 38.07C172.896 37.15 172.421 35.955 172.421 34.485C172.421 32.795 173.081 31.495 174.401 30.585C175.731 29.665 177.611 29.205 180.041 29.205H182.261V28.35C182.261 27.41 181.971 26.73 181.391 26.31C180.811 25.88 179.976 25.665 178.886 25.665C178.376 25.665 177.736 25.735 176.966 25.875C176.206 26.005 175.421 26.21 174.611 26.49L173.666 23.775C174.676 23.395 175.691 23.115 176.711 22.935C177.741 22.755 178.676 22.665 179.516 22.665C181.746 22.665 183.401 23.14 184.481 24.09C185.561 25.03 186.101 26.365 186.101 28.095V34.815ZM178.991 36.585C179.591 36.585 180.196 36.415 180.806 36.075C181.426 35.735 181.911 35.26 182.261 34.65V31.56H180.701C179.231 31.56 178.166 31.795 177.506 32.265C176.856 32.735 176.531 33.4 176.531 34.26C176.531 35 176.741 35.575 177.161 35.985C177.581 36.385 178.191 36.585 178.991 36.585ZM191.244 39V36.255H193.479V25.845H191.244V23.115H196.494L197.229 26.76C197.809 25.41 198.539 24.395 199.419 23.715C200.299 23.025 201.404 22.68 202.734 22.68C203.244 22.68 203.694 22.72 204.084 22.8C204.484 22.88 204.864 22.985 205.224 23.115L204.039 26.445C203.729 26.365 203.434 26.305 203.154 26.265C202.874 26.215 202.559 26.19 202.209 26.19C201.109 26.19 200.149 26.62 199.329 27.48C198.519 28.33 197.889 29.485 197.439 30.945V36.255H200.604V39H191.244ZM201.879 29.31V25.095L202.419 23.115H205.224L204.519 29.31H201.879Z" fill="black"/>
</svg>
