<svg width="846" height="329" viewBox="0 0 846 329" fill="none" xmlns="http://www.w3.org/2000/svg">
<rect x="423" width="423" height="328" fill="#D9D9D9"/>
<rect x="470" y="36" width="330" height="255.887" fill="#9E9E9E"/>
<rect x="423" y="1" width="313" height="328" fill="#D9D9D9"/>
<rect x="451" y="153" width="38" height="80" fill="white"/>
<rect x="505" y="153" width="38" height="80" fill="white"/>
<rect x="558" y="153" width="39" height="80" fill="white"/>
<rect x="612" y="153" width="38" height="80" fill="white"/>
<rect x="666" y="153" width="38" height="80" fill="white"/>
<path d="M479.256 150.328V143.416H471.704V140.408H479.256V135.288C474.136 134.989 470.211 133.197 467.48 129.912C464.792 126.584 463.448 121.912 463.448 115.896V112.696L458.264 113.528L465.048 105.976L471.832 113.528L466.648 112.696V115.896C466.648 120.803 467.736 124.643 469.912 127.416C472.131 130.189 475.245 131.747 479.256 132.088V108.6L474.072 109.432L480.984 101.88L487.896 109.432L482.712 108.6V132.088C486.723 131.747 489.816 130.189 491.992 127.416C494.211 124.643 495.32 120.803 495.32 115.896V112.696L490.136 113.528L496.92 105.976L503.704 113.528L498.52 112.696V115.896C498.52 121.912 497.155 126.584 494.424 129.912C491.736 133.197 487.832 134.989 482.712 135.288V140.408H490.264V143.416H482.712V150.328H479.256Z" fill="black"/>
<path d="M507.315 150C505.523 150 505.139 149.616 505.139 147.824V103.152C505.139 101.36 505.523 100.976 507.315 100.976H539.699C541.491 100.976 541.875 101.36 541.875 103.152V147.824C541.875 149.616 541.491 150 539.699 150H507.315ZM507.699 149.104H539.315C540.787 149.104 540.979 148.912 540.979 147.44V103.536C540.979 102 540.787 101.872 539.315 101.872H507.699C506.163 101.872 506.035 102 506.035 103.536V147.44C506.035 148.912 506.163 149.104 507.699 149.104ZM506.995 107.952L508.659 103.472H509.683L511.347 107.952H510.323L510.003 106.928H508.339L507.955 107.952H506.995ZM508.595 106.224H509.747L509.171 104.56L508.595 106.224ZM509.171 113.904C508.915 113.328 508.595 112.688 508.019 112.24C507.443 111.792 507.187 111.28 507.187 110.704C507.187 110 507.507 109.68 508.147 109.68C508.531 109.68 508.787 109.936 509.171 110.448C509.491 109.936 509.875 109.68 510.195 109.68C510.835 109.68 511.155 110 511.155 110.704C511.155 111.28 510.899 111.728 510.387 112.24C509.875 112.752 509.427 113.328 509.171 113.904ZM523.507 131.056C523.187 130.288 522.227 129.008 520.755 127.216C519.283 125.424 518.515 124.08 518.515 123.056C518.515 121.456 519.475 120.496 520.947 120.496C522.355 120.496 523.251 121.84 523.443 122.48H523.571C523.699 121.84 524.659 120.496 526.067 120.496C527.539 120.496 528.499 121.456 528.499 123.056C528.499 124.016 527.731 125.424 526.259 127.216C524.787 128.944 523.891 130.224 523.507 131.056ZM536.819 141.296C536.179 141.296 535.859 140.912 535.859 140.272C535.859 139.696 536.051 139.12 536.627 138.672C537.203 138.224 537.587 137.648 537.843 137.072C538.099 137.648 538.547 138.16 539.059 138.672C539.571 139.184 539.827 139.696 539.827 140.272C539.827 140.912 539.507 141.296 538.867 141.296C538.547 141.296 538.163 141.04 537.843 140.528C537.523 141.04 537.139 141.296 536.819 141.296ZM537.331 147.504L535.667 143.024H536.627L537.011 144.048H538.675L538.995 143.024H540.019L538.355 147.504H537.331ZM537.843 146.416L538.419 144.752H537.267L537.843 146.416Z" fill="black"/>
<path d="M617.607 148.664C615.367 148.664 613.639 146.936 613.639 144.696V106.616C613.639 104.376 615.367 102.648 617.607 102.648H644.423C646.663 102.648 648.391 104.376 648.391 106.616V144.696C648.391 146.936 646.663 148.664 644.423 148.664H617.607ZM617.671 147.704H644.423C646.087 147.704 647.431 146.424 647.431 144.696V106.744C647.431 105.016 646.087 103.608 644.423 103.608H617.671C615.943 103.608 614.599 104.952 614.599 106.68V144.696C614.599 146.424 615.943 147.704 617.671 147.704ZM624.135 119.16C620.871 119.16 618.183 116.472 618.183 113.208C618.183 109.944 620.871 107.256 624.135 107.256C627.463 107.256 630.023 109.944 630.023 113.208C630.023 116.472 627.463 119.16 624.135 119.16ZM637.895 119.16C634.695 119.16 632.007 116.472 632.007 113.208C632.007 109.944 634.695 107.256 637.895 107.256C641.223 107.256 643.847 109.944 643.847 113.208C643.847 116.472 641.223 119.16 637.895 119.16ZM624.135 117.368C626.375 117.368 628.295 115.512 628.295 113.208C628.295 110.968 626.375 109.048 624.135 109.048C621.831 109.048 619.975 110.968 619.975 113.208C619.975 115.512 621.831 117.368 624.135 117.368ZM637.895 117.368C640.199 117.368 642.055 115.512 642.055 113.208C642.055 110.968 640.199 109.048 637.895 109.048C635.591 109.048 633.799 110.968 633.799 113.208C633.799 115.512 635.591 117.368 637.895 117.368ZM624.135 116.344C622.279 116.344 620.999 114.936 620.999 113.208C620.999 111.48 622.279 110.072 624.135 110.072C625.991 110.072 627.271 111.352 627.271 113.208C627.271 115.064 625.863 116.344 624.135 116.344ZM637.895 116.344C636.039 116.344 634.823 114.936 634.823 113.208C634.823 111.48 636.039 110.072 637.895 110.072C639.751 110.072 641.031 111.352 641.031 113.208C641.031 115.064 639.623 116.344 637.895 116.344ZM624.135 115C625.415 115 625.991 114.424 625.991 113.208C625.991 112.056 625.415 111.416 624.199 111.416C622.983 111.416 622.343 112.056 622.343 113.208C622.343 114.424 622.919 115 624.135 115ZM637.959 115C639.175 115 639.815 114.424 639.815 113.208C639.815 112.056 639.239 111.416 637.959 111.416C636.743 111.416 636.103 112.056 636.103 113.208C636.103 114.424 636.679 115 637.959 115ZM624.199 113.976C623.623 113.976 623.303 113.72 623.303 113.208C623.303 112.696 623.623 112.44 624.199 112.44C624.711 112.44 625.031 112.696 625.031 113.208C625.031 113.72 624.711 113.976 624.199 113.976ZM637.959 113.976C637.383 113.976 637.127 113.72 637.127 113.208C637.127 112.696 637.383 112.44 637.959 112.44C638.535 112.44 638.791 112.696 638.791 113.208C638.791 113.72 638.535 113.976 637.959 113.976ZM630.983 131.512C627.591 131.512 624.967 128.888 624.967 125.688C624.967 122.424 627.591 119.736 630.983 119.736C634.183 119.736 636.807 122.424 636.807 125.688C636.807 128.888 634.183 131.512 630.983 131.512ZM630.983 129.72C633.223 129.72 635.079 127.864 635.079 125.688C635.079 123.384 633.223 121.528 630.983 121.528C628.615 121.528 626.823 123.384 626.823 125.688C626.823 127.864 628.615 129.72 630.983 129.72ZM630.983 128.696C629.255 128.696 627.783 127.352 627.783 125.688C627.783 123.96 629.255 122.552 630.983 122.552C632.647 122.552 634.055 123.96 634.055 125.688C634.055 127.352 632.647 128.696 630.983 128.696ZM630.983 127.416C632.135 127.416 632.711 126.84 632.711 125.688C632.711 124.408 632.135 123.832 630.983 123.832C629.703 123.832 629.063 124.344 629.063 125.56C629.063 126.84 629.703 127.416 630.983 127.416ZM630.983 126.456C630.407 126.456 630.087 126.136 630.087 125.624C630.087 125.048 630.407 124.792 630.983 124.792C631.431 124.792 631.687 125.048 631.687 125.624C631.687 126.136 631.431 126.456 630.983 126.456ZM624.135 143.928C620.871 143.928 618.183 141.304 618.183 137.976C618.183 134.712 620.871 132.088 624.135 132.088C627.463 132.088 630.023 134.776 630.023 137.976C630.023 141.24 627.463 143.928 624.135 143.928ZM637.895 143.928C634.695 143.928 632.007 141.304 632.007 137.976C632.007 134.712 634.695 132.088 637.895 132.088C641.223 132.088 643.847 134.776 643.847 137.976C643.847 141.24 641.223 143.928 637.895 143.928ZM624.135 142.136C626.375 142.136 628.295 140.28 628.295 137.976C628.295 135.736 626.375 133.816 624.135 133.816C621.831 133.816 619.975 135.736 619.975 137.976C619.975 140.28 621.831 142.136 624.135 142.136ZM637.895 142.136C640.199 142.136 642.055 140.28 642.055 137.976C642.055 135.736 640.199 133.816 637.895 133.816C635.591 133.816 633.799 135.736 633.799 137.976C633.799 140.28 635.591 142.136 637.895 142.136ZM624.135 141.112C622.279 141.112 620.999 139.704 620.999 137.976C620.999 136.312 622.279 134.904 624.135 134.904C625.991 134.904 627.271 136.12 627.271 137.976C627.271 139.896 625.863 141.112 624.135 141.112ZM637.895 141.112C636.039 141.112 634.823 139.704 634.823 137.976C634.823 136.312 636.039 134.904 637.895 134.904C639.751 134.904 641.031 136.12 641.031 137.976C641.031 139.896 639.623 141.112 637.895 141.112ZM624.135 139.768C625.415 139.768 625.991 139.192 625.991 137.976C625.991 136.824 625.415 136.248 624.199 136.248C622.983 136.248 622.343 136.824 622.343 137.976C622.343 139.192 622.919 139.768 624.135 139.768ZM637.959 139.768C639.175 139.768 639.815 139.192 639.815 137.976C639.815 136.824 639.239 136.248 637.959 136.248C636.743 136.248 636.103 136.824 636.103 137.976C636.103 139.192 636.679 139.768 637.959 139.768ZM624.199 138.808C623.623 138.808 623.303 138.552 623.303 137.976C623.303 137.464 623.623 137.208 624.199 137.208C624.711 137.208 625.031 137.464 625.031 137.976C625.031 138.552 624.711 138.808 624.199 138.808ZM637.959 138.808C637.383 138.808 637.127 138.552 637.127 137.976C637.127 137.464 637.383 137.208 637.959 137.208C638.535 137.208 638.791 137.464 638.791 137.976C638.791 138.552 638.535 138.808 637.959 138.808Z" fill="black"/>
<path d="M564.56 148.072C560.08 148.072 555.664 143.72 555.664 139.496C555.664 134.376 560.592 129.576 564.88 128.104C563.344 128.552 561.872 128.744 560.4 128.744C554.448 128.744 549.264 125.288 549.264 119.784C549.264 114.28 553.232 110.568 557.968 110.568C561.744 110.568 566.096 113 568.72 116.328C567.248 114.216 566.032 110.888 566.032 107.496C566.032 102.44 569.552 98.28 574.992 98.28C580.304 98.28 583.824 102.312 583.824 107.496C583.824 110.632 582.8 113.96 581.136 116.328L581.392 116.008C584.144 112.616 587.984 110.568 592.016 110.568C596.624 110.568 600.72 114.152 600.72 119.72C600.72 125.416 595.152 128.744 589.52 128.744C587.536 128.68 586 128.424 584.976 128.104C589.392 129.704 594.32 134.184 594.32 139.624C594.32 143.528 590.096 148.072 585.36 148.072C581.136 148.072 578 145.256 576.272 140.904C575.376 138.664 574.992 136.872 574.992 135.4C574.032 143.272 570.256 148.072 564.56 148.072ZM571.408 117.352L573.456 116.584C573.84 115.624 573.968 114.792 573.968 114.152C573.968 113.32 573.456 111.72 573.456 111.08C573.456 109.928 573.968 108.904 574.992 108.904C576.016 108.904 576.528 109.928 576.528 111.08C576.528 111.912 575.888 113.32 575.888 114.152C575.888 114.92 576.08 115.752 576.4 116.584L578.448 117.352C580.176 115.624 581.264 112.552 581.264 109.544C581.264 105.512 578.704 102.888 574.992 102.888C571.28 102.888 568.592 105.512 568.592 109.544C568.592 112.552 569.68 115.688 571.408 117.352ZM562.064 127.208C563.792 127.208 565.264 126.888 566.544 126.184V124.008C566.096 123.368 564.816 122.792 562.704 122.6C560.656 122.408 559.568 121.768 559.568 120.68C559.568 119.72 560.336 119.336 561.104 119.336C561.616 119.336 562.512 119.592 563.664 120.296C564.816 121 566.032 121.32 567.184 121.32H567.44L568.72 119.528C567.44 116.904 563.536 114.024 559.76 114.024C556.176 114.024 553.68 116.968 553.68 120.552C553.68 124.392 557.072 127.208 562.064 127.208ZM587.856 127.208C592.848 127.208 596.304 124.392 596.304 120.552C596.304 116.84 593.68 114.024 590.16 114.024C586.256 114.024 582.352 116.968 581.136 119.528L582.544 121.32H582.8L583.312 121.256C584.336 121.128 585.36 120.936 586.384 120.296C587.408 119.656 588.176 119.336 588.752 119.336C589.776 119.336 590.288 119.784 590.288 120.744C590.288 121.832 589.456 122.408 587.792 122.472C586.128 122.536 584.656 123.048 583.44 124.008L583.312 126.184C584.592 126.888 586.064 127.208 587.856 127.208ZM565.584 143.976C569.872 143.976 573.136 138.216 573.136 134.248V133.608L573.072 133.096L571.024 132.456C569.552 133.352 568.592 134.568 568.208 135.976C567.824 137.448 567.12 138.152 566.096 138.152C565.328 138.152 564.688 137.384 564.688 136.68C564.688 135.784 565.264 135.016 566.352 134.248C567.44 133.48 568.208 132.328 568.592 130.792L567.44 129C564.048 129.64 559.056 133.288 559.056 137.704C559.056 141.032 562.32 143.976 565.584 143.976ZM584.016 143.976C587.344 143.976 590.544 140.968 590.544 137.704C590.544 133.224 585.616 129.768 582.16 129L581.008 130.792C581.328 132.264 582.096 133.352 583.184 134.248C584.272 135.144 584.848 135.976 584.848 136.808C584.848 137.512 584.208 138.152 583.504 138.152C582.608 138.152 581.84 137.448 581.328 135.976C580.816 134.568 579.856 133.416 578.576 132.456L576.528 133.096L576.464 133.608V134.248C576.464 136.616 578 140.584 580.304 142.504C581.456 143.464 582.672 143.976 584.016 143.976Z" fill="black"/>
<path d="M681.094 146.92C675.319 146.92 671.524 143.73 671.524 138.78C671.524 135.095 674.274 132.18 677.684 132.18C680.874 132.18 682.854 133.995 682.854 136.91C682.854 139.605 680.819 141.2 679.444 141.2C678.399 141.2 677.574 141.035 677.024 140.65C677.024 143.455 678.729 144.94 681.754 144.94C687.144 144.94 690.994 140.375 690.994 128.99V126.625L689.069 126.735L682.744 127.01C673.724 127.01 667.234 122.665 667.234 114.305C667.234 106.33 673.559 102.15 680.984 102.15H690.994V100.72C690.994 99.675 690.829 98.135 690.554 96.21L694.294 95.33C694.184 96.1 694.019 98.355 693.744 102.15H702.764L702.324 105.12C697.539 104.68 694.624 104.46 693.634 104.46L693.524 110.73V125.8C693.524 136.635 692.149 141.695 688.409 144.665C686.539 146.15 684.119 146.92 681.094 146.92ZM690.994 124.645V104.46H686.044C685.769 106.935 685.604 109.96 685.604 113.59C685.604 117.11 685.824 120.465 686.264 123.71C687.419 124.315 688.959 124.645 690.994 124.645Z" fill="black"/>
</svg>
