<svg width="784" height="424" viewBox="0 0 784 424" fill="none" xmlns="http://www.w3.org/2000/svg">
<g clip-path="url(#clip0_77_1243)">
<path d="M31.8915 136.994C56.3915 128.203 80.8915 120.491 105.308 111.701L200.817 103.16C192.595 107.306 183.044 111.452 172.247 115.184C168.178 116.594 157.63 120.16 135.373 124.721C129.725 125.881 111.122 129.696 83.7152 133.179C70.0119 134.92 52.4881 135.667 31.8085 136.994H31.8915Z" fill="#42210B" stroke="black" stroke-width="0.05" stroke-miterlimit="10"/>
<path d="M766.144 140.559L696.381 115.101H637.581C652.198 122.399 671.881 130.525 695.966 135.916C723.954 142.218 748.288 141.555 766.227 140.559H766.144Z" fill="#42210B" stroke="black" stroke-width="0.05" stroke-miterlimit="10"/>
<path d="M157.298 409.239C157.298 410.151 157.714 417.283 155.056 420.185C151.069 424.58 144.591 423.502 143.761 423.419C103.481 423.751 47.422 421.678 6.31182 421.927C4.23554 421.927 2.32537 420.849 1.41182 418.941C-2.65768 410.483 7.22537 397.795 7.47453 397.464C8.72029 397.546 9.79995 405.59 11.0457 405.673C61.7067 409.654 157.298 409.239 157.298 409.239Z" fill="#603813" stroke="black" stroke-width="0.1" stroke-miterlimit="10"/>
<path d="M169.091 395.722C169.091 396.634 168.012 400.863 164.607 405.093C161.866 408.576 154.973 408.659 154.142 408.576C113.697 408.907 53.8999 406.668 12.7897 406.917C11.4609 406.917 10.1321 406.42 9.38465 405.341C3.48804 396.883 13.7863 383.698 14.0355 383.283C15.2813 383.366 14.6169 390.415 15.8626 390.498C66.5236 394.561 118.43 391.659 169.091 395.722Z" fill="#603813" stroke="black" stroke-width="0.1" stroke-miterlimit="10"/>
<path d="M637.166 407.166C637.166 408.078 636.834 415.21 639.242 418.112C642.897 422.507 648.959 421.429 649.79 421.346C687.329 421.678 739.651 419.605 777.937 419.853C779.847 419.853 781.675 418.775 782.505 416.868C786.325 408.41 777.107 395.722 776.858 395.39C775.695 395.473 774.698 403.517 773.536 403.6C726.28 407.58 637.166 407.166 637.166 407.166Z" fill="#603813" stroke="black" stroke-width="0.15" stroke-miterlimit="10"/>
<path d="M626.12 393.649C626.12 394.561 627.117 398.79 630.273 403.019C632.848 406.502 639.242 406.585 640.073 406.502C677.778 406.834 733.588 404.595 771.875 404.844C773.12 404.844 774.366 404.346 775.031 403.268C780.512 394.81 770.38 381.625 770.131 381.21C768.968 381.293 768.885 388.342 767.722 388.425C720.466 392.488 673.293 389.585 626.037 393.649H626.12Z" fill="#603813" stroke="black" stroke-width="0.15" stroke-miterlimit="10"/>
<path d="M31.8915 138.071C32.1406 146.447 32.4728 158.72 32.6389 173.647C33.0542 213.534 33.2203 233.851 29.566 251.016C26.8254 263.953 21.0949 282.777 7.64062 304.338C10.0491 331.455 12.9559 362.386 15.3644 389.751C15.5305 391.327 16.7762 392.571 18.4372 392.654C68.8491 395.639 118.763 392.405 169.175 395.556C170.005 394.064 172.663 390.581 177.895 389.088C183.708 387.429 188.941 386.932 190.602 387.181C326.224 385.273 465.334 387.347 600.956 385.439C603.364 385.108 613.912 384.776 618.48 385.439C621.885 385.937 624.459 389.834 626.203 391.907C675.12 390.581 718.888 389.751 767.805 388.508L781.01 305.333C777.273 300.357 771.708 292.148 767.39 281.119C758.42 258.646 760.663 240.651 763.652 190.895C764.317 180.281 765.313 163.198 766.31 141.637C754.351 141.637 738.073 140.891 718.971 138.071C696.298 134.671 657.929 126.545 610.341 102.164C535.429 63.7698 541.408 36.1555 489.003 15.8386C420.403 -10.7806 354.71 5.72169 344.08 8.54117C260.447 30.6824 243.422 99.2621 161.866 119.081C128.812 127.125 89.5288 132.432 89.5288 132.432C65.9423 135.667 46.1762 137.242 32.2237 138.071H31.8915Z" fill="#603813" stroke="black" stroke-width="0.25" stroke-miterlimit="10"/>
<path d="M31.8915 137.989L75.5762 392.571L169.175 395.722C158.378 306.411 146.336 214.612 135.539 125.301C116.769 129.53 95.6745 133.262 72.5033 135.584C58.2186 136.993 44.5983 137.74 31.8915 137.989Z" fill="#42210B" stroke="black" stroke-width="0.05" stroke-miterlimit="10"/>
<path d="M670.22 128.618L629.692 390.664L722.376 388.839L766.144 143.296C752.358 143.296 736.412 142.384 718.805 139.73C700.202 136.911 683.924 132.847 670.22 128.535V128.618Z" fill="#42210B" stroke="black" stroke-width="0.05" stroke-miterlimit="10"/>
<path d="M405.827 355.206C488.022 355.206 554.654 288.674 554.654 206.603C554.654 124.532 488.022 58 405.827 58C323.632 58 257 124.532 257 206.603C257 288.674 323.632 355.206 405.827 355.206Z" fill="#391E00" stroke="#2B140A" stroke-width="0.75" stroke-miterlimit="10"/>
<path d="M294.732 301.961C303.458 311.158 340.947 348.752 400.252 351.495C468.687 354.641 513.044 309.141 520.235 301.477C455.113 303.171 359.773 300.267 294.732 301.961Z" fill="#2B140A"/>
<path d="M268.97 359.318C283.346 359.318 295 290.93 295 206.568C295 122.207 283.346 53.8188 268.97 53.8188C254.593 53.8188 242.939 122.207 242.939 206.568C242.939 290.93 254.593 359.318 268.97 359.318Z" fill="#E4E4D9" stroke="#2B140A" stroke-width="0.75" stroke-miterlimit="10"/>
<path d="M268.885 101.169C278.664 101.169 286.634 147.856 286.634 205.324C286.634 262.792 278.678 309.479 268.885 309.479C259.091 309.479 251.135 262.792 251.135 205.324C251.135 147.856 259.091 101.169 268.885 101.169ZM268.885 99.0961C258.894 99.0961 250.782 146.613 250.782 205.324C250.782 264.036 258.879 311.552 268.885 311.552C278.89 311.552 286.987 264.036 286.987 205.324C286.987 146.613 278.89 99.0961 268.885 99.0961Z" fill="#42210B"/>
<path d="M240.847 190.812L240.989 231.114C240.989 231.114 241.95 235.343 242.699 230.617L242.458 190.895C242.458 189.734 241.455 186.085 240.847 190.895V190.812Z" fill="#666666" stroke="#1A1A1A" stroke-width="0.08" stroke-miterlimit="10"/>
<path d="M241.653 193.963C242.098 193.963 242.458 192.701 242.458 191.144C242.458 189.587 242.098 188.324 241.653 188.324C241.208 188.324 240.847 189.587 240.847 191.144C240.847 192.701 241.208 193.963 241.653 193.963Z" fill="#1A1A1A"/>
<path d="M240.847 203.5C240.847 203.5 241.695 207.563 242.529 203.5" stroke="#1A1A1A" stroke-width="0.05" stroke-miterlimit="10"/>
<path d="M240.932 214.861C240.932 214.861 241.695 218.758 242.572 214.778" stroke="#1A1A1A" stroke-width="0.05" stroke-miterlimit="10"/>
<path d="M283.288 87.4686C283.288 87.6873 282.988 87.7966 282.386 87.7966H281.894C281.894 87.7966 281.375 87.7966 280.336 87.7966C279.298 87.7693 278.245 87.7556 277.179 87.7556C275.293 87.7556 274.091 87.7693 273.571 87.7966C273.052 87.8239 272.642 87.8376 272.341 87.8376C271.685 87.8376 271.357 87.7146 271.357 87.4686C271.357 87.2226 271.549 87.0996 271.931 87.0996C272.533 87.0996 273.175 87.0859 273.858 87.0586C274.706 87.0313 275.157 86.8263 275.211 86.4436C275.293 86.0336 275.334 85.1726 275.334 83.8606V64.5906C275.334 63.7159 275.307 63.1966 275.252 63.0326C275.198 62.8686 275.006 62.7866 274.678 62.7866C274.542 62.7866 273.653 62.8549 272.013 62.9916C271.685 63.0189 271.467 63.0326 271.357 63.0326C271.029 63.0326 270.865 62.9369 270.865 62.7456C270.865 62.5269 271.029 62.4039 271.357 62.3766C272.642 62.2399 273.94 61.8573 275.252 61.2286C276.564 60.5726 277.617 59.8073 278.409 58.9326C278.71 58.6866 278.915 58.5636 279.024 58.5636C279.243 58.5636 279.352 58.7003 279.352 58.9736V59.7526C279.325 59.9713 279.311 60.2173 279.311 60.4906V85.0086C279.311 85.9926 279.352 86.5666 279.434 86.7306C279.544 86.8946 279.885 86.9903 280.459 87.0176L281.402 87.0586L282.099 87.0996H282.714C283.097 87.0996 283.288 87.2226 283.288 87.4686Z" fill="black"/>
<path d="M296.049 108.698C296.049 108.916 295.749 109.026 295.147 109.026H294.655C294.655 109.026 294.136 109.026 293.097 109.026C292.059 108.998 291.006 108.985 289.94 108.985C288.054 108.985 286.852 108.998 286.332 109.026C285.813 109.053 285.403 109.067 285.102 109.067C284.446 109.067 284.118 108.944 284.118 108.698C284.118 108.452 284.31 108.329 284.692 108.329C285.294 108.329 285.936 108.315 286.619 108.288C287.467 108.26 287.918 108.055 287.972 107.673C288.054 107.263 288.095 106.402 288.095 105.09V85.8196C288.095 84.945 288.068 84.4256 288.013 84.2616C287.959 84.0976 287.767 84.0156 287.439 84.0156C287.303 84.0156 286.414 84.084 284.774 84.2206C284.446 84.248 284.228 84.2616 284.118 84.2616C283.79 84.2616 283.626 84.166 283.626 83.9746C283.626 83.756 283.79 83.633 284.118 83.6056C285.403 83.469 286.701 83.0863 288.013 82.4576C289.325 81.8016 290.378 81.0363 291.17 80.1616C291.471 79.9156 291.676 79.7926 291.785 79.7926C292.004 79.7926 292.113 79.9293 292.113 80.2026V80.9816C292.086 81.2003 292.072 81.4463 292.072 81.7196V106.238C292.072 107.222 292.113 107.796 292.195 107.96C292.305 108.124 292.646 108.219 293.22 108.247L294.163 108.288L294.86 108.329H295.475C295.858 108.329 296.049 108.452 296.049 108.698Z" fill="black"/>
<path d="M306.409 144.149C306.409 144.231 306.382 144.45 306.327 144.805C306.19 145.707 305.972 147.935 305.671 151.488L305.63 151.98C302.815 151.844 299.603 151.775 295.995 151.775C294.054 151.775 292.237 151.803 290.542 151.857C288.847 151.912 288.109 151.939 288.328 151.939C287.59 151.939 287.221 151.803 287.221 151.529C287.221 151.311 287.932 150.627 289.353 149.479C292.77 146.691 295.202 144.423 296.651 142.673C299.166 139.639 300.423 136.072 300.423 131.972C300.423 129.212 299.849 127.121 298.701 125.699C297.826 124.606 296.596 124.059 295.011 124.059C293.453 124.059 292.223 124.538 291.321 125.494C290.61 126.232 290.255 126.97 290.255 127.708C290.255 128.173 290.624 128.419 291.362 128.446C293.275 128.528 294.232 129.362 294.232 130.947C294.232 132.451 293.439 133.202 291.854 133.202C290.843 133.202 290.036 132.888 289.435 132.259C288.834 131.631 288.533 130.77 288.533 129.676C288.533 127.654 289.244 126.027 290.665 124.797C292.086 123.567 293.959 122.952 296.282 122.952C298.605 122.952 300.532 123.69 302.063 125.166C303.84 126.888 304.728 129.13 304.728 131.89C304.728 134.924 303.717 137.726 301.694 140.295C299.671 142.837 296.268 145.612 291.485 148.618C293.289 148.564 295.558 148.536 298.291 148.536C300.56 148.536 301.995 148.509 302.596 148.454C303.197 148.372 303.73 148.195 304.195 147.921C304.578 147.675 304.906 146.76 305.179 145.174C305.37 144.081 305.644 143.534 305.999 143.534C306.272 143.534 306.409 143.739 306.409 144.149Z" fill="black"/>
<path d="M308.301 202.739C308.301 205.008 307.385 206.949 305.554 208.561C303.531 210.338 300.948 211.226 297.805 211.226C295.235 211.226 293.349 210.625 292.147 209.422C291.381 208.657 290.999 207.782 290.999 206.798C290.999 205.951 291.258 205.281 291.778 204.789C292.324 204.27 293.049 204.01 293.951 204.01C294.661 204.01 295.249 204.215 295.714 204.625C296.178 205.035 296.411 205.555 296.411 206.183C296.411 207.14 295.768 207.892 294.484 208.438C293.964 208.657 293.705 208.876 293.705 209.094C293.705 209.45 294.06 209.778 294.771 210.078C295.481 210.352 296.26 210.488 297.108 210.488C299.185 210.488 300.866 209.778 302.151 208.356C303.463 206.935 304.119 205.076 304.119 202.78C304.119 198.161 302.041 195.851 297.887 195.851C297.477 195.851 297.176 195.865 296.985 195.892H296.698C296.342 195.892 296.165 195.769 296.165 195.523C296.165 195.332 296.493 195.182 297.149 195.072C299.062 194.799 300.538 194.102 301.577 192.981C302.615 191.833 303.135 190.371 303.135 188.594C303.135 186.845 302.684 185.451 301.782 184.412C300.88 183.346 299.663 182.813 298.133 182.813C297.012 182.813 296.028 183.059 295.181 183.551C294.361 184.016 293.951 184.563 293.951 185.191C293.951 185.437 294.142 185.601 294.525 185.683C296.329 186.121 297.231 186.872 297.231 187.938C297.231 189.332 296.506 190.029 295.058 190.029C294.128 190.029 293.377 189.756 292.803 189.209C292.256 188.663 291.983 187.938 291.983 187.036C291.983 185.56 292.611 184.33 293.869 183.346C295.153 182.335 296.93 181.829 299.199 181.829C301.795 181.829 303.777 182.499 305.144 183.838C306.51 185.178 307.194 186.736 307.194 188.512C307.194 190.972 306.032 192.79 303.709 193.965C302.889 194.375 301.563 194.717 299.732 194.99V195.277C302 195.359 303.832 195.865 305.226 196.794C307.276 198.161 308.301 200.143 308.301 202.739Z" fill="black"/>
<path d="M306.381 264.77C306.381 265.043 306.244 265.18 305.971 265.18C305.725 265.18 305.561 265.03 305.479 264.729C305.424 264.401 305.328 263.54 305.192 262.146C305.137 261.927 305.028 261.763 304.864 261.654C304.536 261.463 303.811 261.367 302.691 261.367C302.39 261.367 302.103 261.381 301.83 261.408L301.871 267.845C302.007 268.173 302.226 268.378 302.527 268.46C302.855 268.542 303.634 268.583 304.864 268.583C305.465 268.583 305.82 268.638 305.93 268.747C305.957 268.802 305.971 268.884 305.971 268.993C305.971 269.184 305.424 269.28 304.331 269.28C303.237 269.28 300.176 269.307 295.147 269.362C294.873 269.389 294.573 269.403 294.245 269.403C293.698 269.403 293.425 269.266 293.425 268.993C293.425 268.72 293.821 268.597 294.614 268.624C295.543 268.651 296.39 268.597 297.156 268.46C297.484 268.405 297.689 268.269 297.771 268.05C297.853 267.804 297.894 267.285 297.894 266.492V261.531C297.347 261.504 296.718 261.49 296.008 261.49H294.327C293.944 261.49 293.52 261.504 293.056 261.531C292.646 261.531 292.386 261.531 292.277 261.531L287.07 261.408C286.687 261.381 286.496 261.271 286.496 261.08C286.496 260.943 288.505 258.114 292.523 252.593C293.78 250.816 296.554 246.908 300.846 240.867C301.037 240.594 301.228 240.457 301.42 240.457C301.693 240.457 301.83 240.717 301.83 241.236V260.506H302.24C303.169 260.506 303.893 260.451 304.413 260.342C304.959 260.233 305.233 259.959 305.233 259.522C305.205 257.8 305.192 257.212 305.192 257.759C305.219 256.775 305.369 256.283 305.643 256.283C306.025 256.283 306.217 256.666 306.217 257.431V259.276L306.258 262.228C306.285 263.239 306.312 263.882 306.34 264.155C306.367 264.401 306.381 264.606 306.381 264.77ZM298.14 246.484C297.866 246.921 297.292 247.755 296.418 248.985C295.215 250.652 293.397 253.14 290.965 256.447L288.054 260.424C289.065 260.506 291.238 260.547 294.573 260.547C295.748 260.547 296.855 260.533 297.894 260.506V257.595C297.894 256.228 297.935 254.383 298.017 252.06C298.099 249.327 298.14 247.468 298.14 246.484Z" fill="black"/>
<path d="M298.188 317.274C298.188 320.773 296.849 323.451 294.17 325.31C292.557 326.431 290.466 326.991 287.897 326.991C285.328 326.991 283.442 326.321 282.239 324.982C281.583 324.244 281.255 323.369 281.255 322.358C281.255 321.511 281.528 320.827 282.075 320.308C282.622 319.761 283.332 319.488 284.207 319.488C284.918 319.488 285.505 319.693 285.97 320.103C286.462 320.513 286.708 321.019 286.708 321.62C286.708 322.631 286.038 323.397 284.699 323.916C284.098 324.135 283.797 324.381 283.797 324.654C283.797 325.091 284.193 325.488 284.986 325.843C285.806 326.171 286.708 326.335 287.692 326.335C289.605 326.335 291.04 325.679 291.997 324.367C293.309 322.563 293.965 320.13 293.965 317.069C293.965 314.828 293.446 313.092 292.407 311.862C291.368 310.632 289.892 310.017 287.979 310.017C286.503 310.017 284.877 310.577 283.1 311.698C283.264 305.548 283.387 301.667 283.469 300.054C283.496 299.125 283.701 298.564 284.084 298.373C284.467 298.154 285.505 298.045 287.2 298.045C287.473 298.045 287.938 298.045 288.594 298.045C289.25 298.072 289.769 298.086 290.152 298.086H291.546C293.432 298.086 294.525 298.059 294.826 298.004C295.154 297.922 295.359 297.69 295.441 297.307C295.55 296.678 295.742 296.364 296.015 296.364C296.288 296.364 296.425 296.514 296.425 296.815C296.425 297.006 296.411 297.157 296.384 297.266L296.302 298.209C296.165 299.74 295.878 300.696 295.441 301.079C295.031 301.434 294.006 301.612 292.366 301.612L284.535 301.571C284.426 302.5 284.33 305.302 284.248 309.976C285.806 309.265 287.432 308.91 289.127 308.91C291.942 308.91 294.156 309.662 295.769 311.165C297.382 312.641 298.188 314.677 298.188 317.274Z" fill="black"/>
<path d="M287.297 336.926C287.297 339.578 286.491 341.846 284.878 343.732C283.266 345.618 281.339 346.561 279.097 346.561C276.282 346.561 274 345.4 272.25 343.076C270.501 340.753 269.626 337.733 269.626 334.015C269.626 330.599 270.364 327.483 271.84 324.667C273.344 321.852 275.339 319.802 277.826 318.517C279.904 317.451 282.172 316.918 284.632 316.918C285.206 316.918 285.493 317.028 285.493 317.246C285.493 317.438 285.302 317.547 284.919 317.574C282.459 317.793 280.286 318.681 278.4 320.239C275.94 322.262 274.492 325.706 274.054 330.571C275.558 329.15 277.252 328.439 279.138 328.439C280.669 328.439 282.104 328.849 283.443 329.669C286.013 331.227 287.297 333.646 287.297 336.926ZM283.074 337.049C283.074 331.965 281.503 329.423 278.359 329.423C276.938 329.423 275.845 330.038 275.079 331.268C274.314 332.471 273.931 334.166 273.931 336.352C273.931 339.496 274.492 342.038 275.612 343.978C276.323 345.208 277.362 345.823 278.728 345.823C281.626 345.823 283.074 342.899 283.074 337.049Z" fill="black"/>
<path d="M276.804 300.156C276.804 300.32 275.218 302.875 272.048 307.823C270.271 310.611 269.055 312.797 268.399 314.383C267.743 315.941 267.415 317.499 267.415 319.057C267.415 319.849 267.606 321.407 267.989 323.731C268.125 324.551 268.194 325.248 268.194 325.822C268.194 327.762 267.469 328.733 266.021 328.733C264.299 328.733 263.438 327.243 263.438 324.264C263.438 321.503 264.709 317.868 267.251 313.358C268.863 310.515 270.954 307.208 273.524 303.436H267.292C264.066 303.436 262.208 303.449 261.716 303.477C261.114 303.504 260.691 303.6 260.445 303.764C260.226 303.928 260.062 304.16 259.953 304.461C259.871 304.734 259.652 305.691 259.297 307.331C259.187 307.659 259.023 307.823 258.805 307.823C258.531 307.823 258.395 307.659 258.395 307.331C258.395 307.003 258.463 306.47 258.6 305.732C258.9 304.064 259.092 302.643 259.174 301.468C259.228 300.62 259.406 300.033 259.707 299.705C259.898 299.705 260.458 299.732 261.388 299.787C263.465 299.896 264.968 299.951 265.898 299.951L274.385 299.869C274.603 299.869 274.836 299.855 275.082 299.828C275.3 299.828 275.437 299.828 275.492 299.828C276.366 299.828 276.804 299.937 276.804 300.156Z" fill="black"/>
<path d="M268.323 271.11C268.323 273.843 267.188 276.043 264.92 277.711C263.389 278.831 261.489 279.392 259.221 279.392C256.788 279.392 254.738 278.845 253.071 277.752C250.802 276.276 249.668 274.198 249.668 271.52C249.668 267.447 251.868 264.864 256.269 263.771V263.566C254.601 263.101 253.289 262.322 252.333 261.229C251.403 260.108 250.939 258.782 250.939 257.252C250.939 255.12 251.663 253.384 253.112 252.045C254.588 250.678 256.487 249.995 258.811 249.995C260.861 249.995 262.542 250.487 263.854 251.471C265.767 252.892 266.724 254.723 266.724 256.965C266.724 258.577 266.245 260.026 265.289 261.311C264.332 262.568 263.143 263.333 261.722 263.607L261.763 263.771C266.136 264.645 268.323 267.092 268.323 271.11ZM262.665 257.047C262.665 254.614 262.227 252.824 261.353 251.676C260.833 250.992 260 250.651 258.852 250.651C256.282 250.651 254.998 252.796 254.998 257.088C254.998 261.27 256.378 263.361 259.139 263.361C260.369 263.361 261.23 262.91 261.722 262.008C262.35 260.832 262.665 259.179 262.665 257.047ZM264.141 271.52C264.141 266.545 262.473 264.058 259.139 264.058C257.471 264.058 256.173 264.7 255.244 265.985C254.314 267.242 253.85 268.991 253.85 271.233C253.85 273.556 254.328 275.387 255.285 276.727C256.269 278.066 257.608 278.736 259.303 278.736C260.751 278.736 261.817 278.326 262.501 277.506C263.594 276.194 264.141 274.198 264.141 271.52Z" fill="black"/>
<path d="M264.432 193.628C264.432 197.209 263.598 200.462 261.931 203.386C260.291 206.284 258.132 208.293 255.453 209.413C253.485 210.233 251.517 210.643 249.549 210.643C248.838 210.643 248.483 210.548 248.483 210.356C248.483 210.192 248.674 210.083 249.057 210.028C253.676 209.427 256.847 207.131 258.569 203.14C259.252 201.528 259.731 199.478 260.004 196.99C258.501 198.412 256.806 199.122 254.92 199.122C253.116 199.122 251.476 198.576 250 197.482C247.841 195.897 246.761 193.56 246.761 190.471C246.761 187.847 247.554 185.62 249.139 183.788C250.752 181.93 252.692 181 254.961 181C257.749 181 260.018 182.176 261.767 184.526C263.544 186.877 264.432 189.911 264.432 193.628ZM260.127 190.922C260.127 187.806 259.553 185.346 258.405 183.542C257.612 182.312 256.533 181.697 255.166 181.697C252.351 181.697 250.943 184.649 250.943 190.553C250.943 195.61 252.515 198.138 255.658 198.138C257.052 198.138 258.145 197.51 258.938 196.252C259.731 194.968 260.127 193.191 260.127 190.922Z" fill="black"/>
<path d="M264.649 148.419C264.649 148.638 264.348 148.747 263.747 148.747H263.255C263.255 148.747 262.735 148.747 261.697 148.747C260.658 148.72 259.606 148.706 258.54 148.706C256.654 148.706 255.451 148.72 254.932 148.747C254.412 148.774 254.002 148.788 253.702 148.788C253.046 148.788 252.718 148.665 252.718 148.419C252.718 148.173 252.909 148.05 253.292 148.05C253.893 148.05 254.535 148.036 255.219 148.009C256.066 147.982 256.517 147.777 256.572 147.394C256.654 146.984 256.695 146.123 256.695 144.811V125.541C256.695 124.666 256.667 124.147 256.613 123.983C256.558 123.819 256.367 123.737 256.039 123.737C255.902 123.737 255.014 123.805 253.374 123.942C253.046 123.969 252.827 123.983 252.718 123.983C252.39 123.983 252.226 123.887 252.226 123.696C252.226 123.477 252.39 123.354 252.718 123.327C254.002 123.19 255.301 122.808 256.613 122.179C257.925 121.523 258.977 120.758 259.77 119.883C260.07 119.637 260.275 119.514 260.385 119.514C260.603 119.514 260.713 119.651 260.713 119.924V120.703C260.685 120.922 260.672 121.168 260.672 121.441V145.959C260.672 146.943 260.713 147.517 260.795 147.681C260.904 147.845 261.246 147.941 261.82 147.968L262.763 148.009L263.46 148.05H264.075C264.457 148.05 264.649 148.173 264.649 148.419Z" fill="black"/>
<path d="M272.237 106.127C272.237 106.346 271.937 106.455 271.335 106.455H270.843C270.843 106.455 270.324 106.455 269.285 106.455C268.247 106.428 267.194 106.414 266.128 106.414C264.242 106.414 263.04 106.428 262.52 106.455C262.001 106.482 261.591 106.496 261.29 106.496C260.634 106.496 260.306 106.373 260.306 106.127C260.306 105.881 260.498 105.758 260.88 105.758C261.482 105.758 262.124 105.744 262.807 105.717C263.655 105.69 264.106 105.485 264.16 105.102C264.242 104.692 264.283 103.831 264.283 102.519V83.2489C264.283 82.3743 264.256 81.8549 264.201 81.6909C264.147 81.5269 263.955 81.4449 263.627 81.4449C263.491 81.4449 262.602 81.5133 260.962 81.6499C260.634 81.6773 260.416 81.6909 260.306 81.6909C259.978 81.6909 259.814 81.5953 259.814 81.4039C259.814 81.1853 259.978 81.0623 260.306 81.0349C261.591 80.8983 262.889 80.5156 264.201 79.8869C265.513 79.2309 266.566 78.4656 267.358 77.5909C267.659 77.3449 267.864 77.2219 267.973 77.2219C268.192 77.2219 268.301 77.3586 268.301 77.6319V78.4109C268.274 78.6296 268.26 78.8756 268.26 79.1489V103.667C268.26 104.651 268.301 105.225 268.383 105.389C268.493 105.553 268.834 105.649 269.408 105.676L270.351 105.717L271.048 105.758H271.663C272.046 105.758 272.237 105.881 272.237 106.127Z" fill="black"/>
<path d="M288.377 80.0476C288.377 80.1296 288.35 80.3483 288.295 80.7036C288.158 81.6056 287.94 83.8333 287.639 87.3866L287.598 87.8786C284.783 87.7419 281.571 87.6736 277.963 87.6736C276.022 87.6736 274.205 87.7009 272.51 87.7556C270.815 87.8103 270.077 87.8376 270.296 87.8376C269.558 87.8376 269.189 87.7009 269.189 87.4276C269.189 87.2089 269.9 86.5256 271.321 85.3776C274.738 82.5896 277.17 80.3209 278.619 78.5716C281.134 75.5376 282.391 71.9706 282.391 67.8706C282.391 65.1099 281.817 63.0189 280.669 61.5976C279.794 60.5043 278.564 59.9576 276.979 59.9576C275.421 59.9576 274.191 60.4359 273.289 61.3926C272.578 62.1306 272.223 62.8686 272.223 63.6066C272.223 64.0713 272.592 64.3173 273.33 64.3446C275.243 64.4266 276.2 65.2603 276.2 66.8456C276.2 68.3489 275.407 69.1006 273.822 69.1006C272.811 69.1006 272.004 68.7863 271.403 68.1576C270.802 67.5289 270.501 66.6679 270.501 65.5746C270.501 63.5519 271.212 61.9256 272.633 60.6956C274.054 59.4656 275.927 58.8506 278.25 58.8506C280.573 58.8506 282.5 59.5886 284.031 61.0646C285.808 62.7866 286.696 65.0279 286.696 67.7886C286.696 70.8226 285.685 73.6243 283.662 76.1936C281.639 78.7356 278.236 81.5099 273.453 84.5166C275.257 84.4619 277.526 84.4346 280.259 84.4346C282.528 84.4346 283.963 84.4073 284.564 84.3526C285.165 84.2706 285.698 84.0929 286.163 83.8196C286.546 83.5736 286.874 82.6579 287.147 81.0726C287.338 79.9793 287.612 79.4326 287.967 79.4326C288.24 79.4326 288.377 79.6376 288.377 80.0476Z" fill="black"/>
<path d="M274.074 106.127C274.074 106.346 273.774 106.455 273.172 106.455H272.68C272.68 106.455 272.161 106.455 271.122 106.455C270.084 106.428 269.031 106.414 267.965 106.414C266.079 106.414 264.877 106.428 264.357 106.455C263.838 106.482 263.428 106.496 263.127 106.496C262.471 106.496 262.143 106.373 262.143 106.127C262.143 105.881 262.335 105.758 262.717 105.758C263.319 105.758 263.961 105.744 264.644 105.717C265.492 105.69 265.943 105.485 265.997 105.102C266.079 104.692 266.12 103.831 266.12 102.519V83.2489C266.12 82.3743 266.093 81.8549 266.038 81.6909C265.984 81.5269 265.792 81.4449 265.464 81.4449C265.328 81.4449 264.439 81.5133 262.799 81.6499C262.471 81.6773 262.253 81.6909 262.143 81.6909C261.815 81.6909 261.651 81.5953 261.651 81.4039C261.651 81.1853 261.815 81.0623 262.143 81.0349C263.428 80.8983 264.726 80.5156 266.038 79.8869C267.35 79.2309 268.403 78.4656 269.195 77.5909C269.496 77.3449 269.701 77.2219 269.81 77.2219C270.029 77.2219 270.138 77.3586 270.138 77.6319V78.4109C270.111 78.6296 270.097 78.8756 270.097 79.1489V103.667C270.097 104.651 270.138 105.225 270.22 105.389C270.33 105.553 270.671 105.649 271.245 105.676L272.188 105.717L272.885 105.758H273.5C273.883 105.758 274.074 105.881 274.074 106.127Z" fill="black"/>
<path d="M269.985 134.971C269.985 137.404 269.616 139.7 268.878 141.859C268.167 144.018 267.183 145.754 265.926 147.066C264.586 148.487 262.878 149.198 260.801 149.198C257.958 149.198 255.607 147.804 253.749 145.016C251.917 142.228 251.002 138.661 251.002 134.315C251.002 129.286 252.3 125.322 254.897 122.425C256.455 120.676 258.368 119.801 260.637 119.801C263.315 119.801 265.447 121.017 267.033 123.45C269.001 126.457 269.985 130.297 269.985 134.971ZM265.557 133.495C265.557 129.422 265.106 126.06 264.204 123.409C263.52 121.386 262.318 120.375 260.596 120.375C257.152 120.375 255.43 124.953 255.43 134.11C255.43 143.704 257.247 148.501 260.883 148.501C262.577 148.501 263.794 147.107 264.532 144.319C265.215 141.777 265.557 138.169 265.557 133.495Z" fill="black"/>
<path d="M268.885 212.124C268.235 212.124 267.712 209.056 267.712 205.241C267.712 201.427 268.235 198.359 268.885 198.359C269.535 198.359 270.058 201.427 270.058 205.241C270.058 209.056 269.535 212.124 268.885 212.124Z" fill="black"/>
<path d="M268.885 200.68C269.309 200.68 269.662 202.754 269.662 205.241C269.662 207.729 269.309 209.802 268.885 209.802C268.461 209.802 268.107 207.729 268.107 205.241C268.107 202.754 268.461 200.68 268.885 200.68ZM268.885 196.12C268.023 196.12 267.33 200.183 267.33 205.241C267.33 210.3 268.023 214.363 268.885 214.363C269.747 214.363 270.439 210.3 270.439 205.241C270.439 200.183 269.747 196.12 268.885 196.12Z" fill="black"/>
<path d="M264.386 163.478L265.125 183.86L267.001 186.961L267.28 175.704L264.386 163.478Z" fill="black" stroke="#1A1A1A" stroke-width="0.05" stroke-miterlimit="10"/>
<path d="M268.051 196.262L266.275 194.069L266.628 183.613L268.361 186.036L268.051 196.262Z" fill="black" stroke="#1A1A1A" stroke-width="0.05" stroke-miterlimit="10"/>
<path d="M276.535 272.465C276.535 272.465 277.375 284.887 276.571 291.493C276.571 291.493 278.979 291.489 280.728 308.195C280.728 308.195 278.605 292.487 279.727 279.217C279.727 279.217 277.994 278.018 276.988 270.933L276.528 272.392L276.535 272.465Z" fill="black" stroke="black" stroke-width="0.05" stroke-miterlimit="10"/>
<path d="M277.079 262.166L274.714 247.134L274.718 254.665L273.425 252.829L275.01 270.9L277.079 275.746L277.079 262.166Z" fill="black" stroke="black" stroke-width="0.05" stroke-miterlimit="10"/>
<path d="M270.49 212.456L275.072 244.215L275.298 259.905L272.936 252.405L269.755 215.45C269.867 215.095 270.424 212.951 270.503 212.417L270.49 212.456Z" fill="black" stroke="#1A1A1A" stroke-width="0.05" stroke-miterlimit="10"/>
<path d="M275.748 278.74C276.332 274.621 277.056 271.665 277.919 269.871C277.334 273.989 276.611 276.945 275.748 278.74Z" fill="#1A1A1A"/>
<path d="M263.836 240.871L266.587 231.353L266.496 221.12L264.79 222.939L263.836 240.871Z" fill="black" stroke="#1A1A1A" stroke-width="0.05" stroke-miterlimit="10"/>
<path d="M267.545 213.257L267.74 222.745L266.124 223.889L265.98 214.614L267.545 213.257Z" fill="black" stroke="#1A1A1A" stroke-width="0.05" stroke-miterlimit="10"/>
<path d="M269.899 197.005L271.79 189.733L271.661 179.885L269.957 181.621L269.258 194.163C269.352 194.415 269.838 196.615 269.897 197.087L269.899 197.005Z" fill="black" stroke="#1A1A1A" stroke-width="0.05" stroke-miterlimit="10"/>
<path d="M272.084 181.776C272.084 181.776 274.108 175.966 275.288 177.868C275.288 177.868 274.109 160.027 275.942 146.242C275.942 146.242 273.45 161.194 271.214 159.766C271.214 159.766 272.042 171.335 271.342 178.423L272.07 181.763L272.084 181.776Z" fill="black" stroke="#1A1A1A" stroke-width="0.05" stroke-miterlimit="10"/>
<path d="M272.501 184.417C271.703 183.195 271.077 180.365 270.688 176.072C271.486 177.294 272.098 180.111 272.501 184.417Z" fill="#1A1A1A"/>
</g>
<defs>
<clipPath id="clip0_77_1243">
<rect width="784" height="424" fill="white"/>
</clipPath>
</defs>
</svg>
