<svg width="405" height="219" viewBox="0 0 405 219" fill="none" xmlns="http://www.w3.org/2000/svg">
<g clip-path="url(#clip0_312_659)">
<path d="M17.2524 71.292C29.9086 66.7518 42.5649 62.7684 55.1782 58.2282L104.516 53.8165C100.269 55.9581 95.335 58.0997 89.7577 60.0272C87.6554 60.7553 82.2068 62.5971 70.7089 64.9528C67.7916 65.5525 58.1814 67.5228 44.0236 69.3217C36.9446 70.2212 27.8922 70.6067 17.2095 71.292H17.2524Z" fill="#42210B" stroke="black" stroke-width="0.05" stroke-miterlimit="10"/>
<path d="M396.554 73.1338L360.516 59.9843H330.141C337.691 63.7535 347.859 67.9511 360.301 70.7352C374.759 73.9904 387.33 73.6477 396.597 73.1338H396.554Z" fill="#42210B" stroke="black" stroke-width="0.05" stroke-miterlimit="10"/>
<path d="M82.0352 211.909C82.0352 212.381 82.2497 216.064 80.8768 217.563C78.8175 219.833 75.4711 219.277 75.0421 219.234C54.2343 219.405 25.2751 218.334 4.03835 218.463C2.96578 218.463 1.97902 217.906 1.5071 216.921C-0.595128 212.552 4.51027 205.999 4.63898 205.827C5.28252 205.87 5.84025 210.025 6.48379 210.068C32.6543 212.124 82.0352 211.909 82.0352 211.909Z" fill="#603813" stroke="black" stroke-width="0.1" stroke-miterlimit="10"/>
<path d="M88.1272 204.928C88.1272 205.399 87.5695 207.583 85.8105 209.768C84.3947 211.567 80.8338 211.61 80.4048 211.567C59.5112 211.738 28.6214 210.582 7.38464 210.71C6.6982 210.71 6.01176 210.453 5.62564 209.896C2.57956 205.527 7.89947 198.717 8.02818 198.503C8.67172 198.546 8.3285 202.187 8.97204 202.229C35.1426 204.328 61.9567 202.829 88.1272 204.928Z" fill="#603813" stroke="black" stroke-width="0.1" stroke-miterlimit="10"/>
<path d="M329.926 210.839C329.926 211.31 329.755 214.993 330.999 216.492C332.887 218.763 336.018 218.206 336.447 218.163C355.839 218.334 382.868 217.263 402.646 217.392C403.633 217.392 404.577 216.835 405.006 215.85C406.979 211.481 402.217 204.928 402.088 204.756C401.488 204.799 400.973 208.954 400.372 208.997C375.961 211.053 329.926 210.839 329.926 210.839Z" fill="#603813" stroke="black" stroke-width="0.15" stroke-miterlimit="10"/>
<path d="M324.22 203.857C324.22 204.328 324.735 206.513 326.365 208.697C327.695 210.496 330.999 210.539 331.428 210.496C350.906 210.667 379.736 209.511 399.514 209.639C400.158 209.639 400.801 209.382 401.144 208.826C403.976 204.457 398.742 197.646 398.613 197.432C398.013 197.475 397.97 201.116 397.369 201.159C372.957 203.257 348.589 201.758 324.177 203.857H324.22Z" fill="#603813" stroke="black" stroke-width="0.15" stroke-miterlimit="10"/>
<path d="M17.2524 71.8488C17.3811 76.1748 17.5527 82.514 17.6385 90.2237C17.853 110.826 17.9388 121.32 16.0511 130.186C14.6353 136.868 11.6751 146.591 4.72485 157.727C5.96903 171.733 7.47062 187.709 8.71479 201.844C8.80059 202.658 9.44413 203.3 10.3022 203.343C36.344 204.885 62.1285 203.215 88.1703 204.842C88.5993 204.071 89.9722 202.272 92.6751 201.501C95.6782 200.645 98.3811 200.388 99.2392 200.516C169.299 199.531 241.161 200.602 311.221 199.617C312.465 199.445 317.913 199.274 320.273 199.617C322.032 199.874 323.362 201.887 324.263 202.958C349.533 202.272 372.142 201.844 397.412 201.201L404.233 158.241C402.303 155.671 399.428 151.431 397.197 145.734C392.564 134.127 393.722 124.832 395.267 99.1328C395.61 93.6503 396.125 84.8269 396.64 73.6906C390.462 73.6906 382.053 73.3051 372.185 71.8488C360.473 70.0927 340.652 65.8951 316.069 53.3025C277.37 33.4713 280.459 19.2083 253.388 8.71443C217.95 -5.03464 184.015 3.48892 178.523 4.94521C135.32 16.3814 126.525 51.8034 84.3949 62.0403C67.3197 66.195 47.0268 68.9362 47.0268 68.9362C34.8424 70.6067 24.6316 71.4205 17.424 71.8488H17.2524Z" fill="#603813" stroke="black" stroke-width="0.25" stroke-miterlimit="10"/>
<path d="M125.281 99.9894L125.71 120.806C125.71 120.806 128.627 122.99 130.901 120.549L130.172 100.032C130.172 99.4326 127.126 97.548 125.281 100.032V99.9894Z" fill="#666666" stroke="#1A1A1A" stroke-width="0.08" stroke-miterlimit="10"/>
<path d="M127.726 101.617C129.077 101.617 130.172 100.965 130.172 100.161C130.172 99.3565 129.077 98.7045 127.726 98.7045C126.376 98.7045 125.281 99.3565 125.281 100.161C125.281 100.965 126.376 101.617 127.726 101.617Z" fill="#1A1A1A"/>
<path d="M125.281 106.543C125.281 106.543 127.855 108.641 130.386 106.543" stroke="#1A1A1A" stroke-width="0.05" stroke-miterlimit="10"/>
<path d="M125.538 112.411C125.538 112.411 127.855 114.424 130.515 112.368" stroke="#1A1A1A" stroke-width="0.05" stroke-miterlimit="10"/>
<path d="M17.2524 71.8059C24.7604 115.623 32.3112 159.483 39.8192 203.3L88.1704 204.928C82.593 158.798 76.3721 111.383 70.7948 65.2527C61.0988 67.4371 50.2016 69.3645 38.2318 70.5638C30.8525 71.292 23.8165 71.6775 17.2524 71.8059Z" fill="#42210B" stroke="black" stroke-width="0.05" stroke-miterlimit="10"/>
<path d="M210.657 187.024C254.302 187.024 289.684 151.701 289.684 108.127C289.684 64.554 254.302 29.2308 210.657 29.2308C167.012 29.2308 131.631 64.554 131.631 108.127C131.631 151.701 167.012 187.024 210.657 187.024Z" fill="#2B140A" stroke="#2B140A" stroke-width="0.75" stroke-miterlimit="10"/>
<path d="M347.001 66.9659L326.065 202.315L373.944 201.373L396.554 74.5472C389.432 74.5472 381.195 74.0761 372.099 72.7054C362.489 71.2491 354.08 69.1504 347.001 66.9231V66.9659Z" fill="#42210B" stroke="black" stroke-width="0.05" stroke-miterlimit="10"/>
<path d="M210.803 187.324C254.447 187.324 289.828 152.001 289.828 108.429C289.828 64.8561 254.447 29.5336 210.803 29.5336C167.159 29.5336 131.778 64.8561 131.778 108.429C131.778 152.001 167.159 187.324 210.803 187.324Z" fill="#391E00" stroke="#2B140A" stroke-width="0.75" stroke-miterlimit="10"/>
<path d="M151.813 159.055C156.446 163.938 176.353 183.897 207.843 185.353C244.18 187.024 267.734 162.867 271.552 158.798C236.973 159.697 186.349 158.155 151.813 159.055Z" fill="#2B140A"/>
<path d="M239.557 122.019L241.057 137.547L221.36 172.993L218.368 171.317L237.697 136.47L235.498 119.745L239.557 122.019Z" fill="#004497"/>
<path d="M206.5 103L236.643 119.887L238.842 136.612L218.079 173.99L178.996 152.095L186.317 139.027L187.264 137.336L191.174 136.079L190.114 132.248L190.65 131.292L194.443 130.244L193.727 125.8L206.5 103Z" fill="url(#paint0_linear_312_659)" stroke="black" stroke-width="0.25" stroke-miterlimit="10"/>
<path opacity="0.84" d="M210.298 114.598L190.184 150.502L215.937 164.93L227.92 143.539L216.846 137.335L232.377 135.583L210.298 114.598Z" fill="url(#paint1_radial_312_659)" stroke="#007CBC" stroke-width="0.5" stroke-miterlimit="10"/>
<path d="M234.469 130.699C232.029 128.785 228.566 125.331 226.262 123.203C223.998 121.032 220.356 117.784 218.301 115.441C220.741 117.356 224.203 120.809 226.507 122.938C228.772 125.108 232.414 128.356 234.469 130.699Z" fill="#00EFFF"/>
<path d="M234.469 130.699L218.313 115.448" stroke="#0091FF" stroke-width="0.05" stroke-miterlimit="10"/>
<path d="M234.696 128.25C232.951 126.966 230.691 124.557 229.1 123.054C227.567 121.534 225.074 119.284 223.743 117.604C225.464 118.875 227.785 121.318 229.339 122.801C230.895 124.365 233.343 126.525 234.696 128.25Z" fill="#00DFFF"/>
<path d="M234.696 128.25L223.743 117.604" stroke="#0091FF" stroke-width="0.03" stroke-miterlimit="10"/>
<path d="M194.878 130.504C194.678 130.199 194.537 129.733 194.504 129.36L194.307 128.187C194.237 127.794 194.063 126.81 193.999 126.436L194.072 125.817L194.342 126.371C194.406 126.745 194.586 127.747 194.65 128.121L194.847 129.295C194.937 129.651 194.971 130.137 194.885 130.492L194.878 130.504Z" fill="#00E9FF"/>
<path d="M190.824 131.615C191.08 131.388 191.458 131.23 191.794 131.176L192.808 130.891C193.146 130.806 194.007 130.564 194.332 130.472L194.878 130.504L194.417 130.809C194.092 130.901 193.218 131.137 192.893 131.228L191.879 131.514C191.56 131.625 191.154 131.687 190.817 131.627L190.824 131.615Z" fill="#00E9FF"/>
<path d="M191.657 136.253C191.423 136.009 191.24 135.617 191.168 135.286L190.85 134.271C190.746 133.939 190.479 133.065 190.375 132.732L190.382 132.173L190.707 132.629C190.806 132.942 191.078 133.835 191.182 134.167L191.5 135.183C191.63 135.497 191.698 135.922 191.657 136.253Z" fill="#00E9FF"/>
<path d="M187.366 137.586C187.629 137.346 188.053 137.165 188.402 137.087L189.488 136.761C189.839 136.652 190.771 136.369 191.115 136.272L191.706 136.281L191.212 136.616C190.868 136.713 189.936 136.996 189.585 137.105L188.5 137.432C188.173 137.555 187.722 137.64 187.359 137.598L187.366 137.586Z" fill="#00E9FF"/>
<path d="M173.389 187.327C196.37 187.327 215 152.003 215 108.43C215 64.8568 196.37 29.5336 173.389 29.5336C150.408 29.5336 131.778 64.8568 131.778 108.43C131.778 152.003 150.408 187.327 173.389 187.327Z" fill="#9F9F97" stroke="#2B140A" stroke-width="0.75" stroke-miterlimit="10"/>
<path d="M173.389 187.327C196.37 187.327 215 152.003 215 108.43C215 64.8568 196.37 29.5336 173.389 29.5336C150.408 29.5336 131.778 64.8568 131.778 108.43C131.778 152.003 150.408 187.327 173.389 187.327Z" fill="#9F9F97" stroke="#2B140A" stroke-width="0.75" stroke-miterlimit="10"/>
<path d="M173.253 53.991C188.886 53.991 201.627 78.1054 201.627 107.788C201.627 137.471 188.908 161.585 173.253 161.585C157.598 161.585 144.88 137.471 144.88 107.788C144.88 78.1054 157.598 53.991 173.253 53.991ZM173.253 52.9202C157.282 52.9202 144.315 77.4629 144.315 107.788C144.315 138.113 157.26 162.656 173.253 162.656C189.247 162.656 202.191 138.113 202.191 107.788C202.191 77.4629 189.247 52.9202 173.253 52.9202Z" fill="#42210B"/>
<path d="M173.332 48.7012C173.332 48.8154 173.25 48.8725 173.084 48.8725H172.948C172.948 48.8725 172.805 48.8725 172.519 48.8725C172.233 48.8582 171.943 48.8511 171.649 48.8511C171.13 48.8511 170.799 48.8582 170.655 48.8725C170.512 48.8868 170.399 48.8939 170.317 48.8939C170.136 48.8939 170.046 48.8297 170.046 48.7012C170.046 48.5727 170.098 48.5084 170.204 48.5084C170.369 48.5084 170.546 48.5013 170.735 48.487C170.968 48.4727 171.092 48.3657 171.107 48.1658C171.13 47.9516 171.141 47.5019 171.141 46.8166V36.7511C171.141 36.2942 171.134 36.0229 171.119 35.9372C171.104 35.8516 171.051 35.8088 170.96 35.8088C170.923 35.8088 170.678 35.8444 170.226 35.9158C170.136 35.9301 170.076 35.9372 170.046 35.9372C169.955 35.9372 169.91 35.8873 169.91 35.7873C169.91 35.6731 169.955 35.6089 170.046 35.5946C170.399 35.5232 170.757 35.3233 171.119 34.9949C171.48 34.6523 171.77 34.2525 171.988 33.7956C172.071 33.6672 172.128 33.6029 172.158 33.6029C172.218 33.6029 172.248 33.6743 172.248 33.8171V34.224C172.241 34.3382 172.237 34.4667 172.237 34.6095V47.4162C172.237 47.9302 172.248 48.23 172.271 48.3157C172.301 48.4014 172.395 48.4513 172.553 48.4656L172.813 48.487L173.005 48.5084H173.174C173.28 48.5084 173.332 48.5727 173.332 48.7012Z" fill="black"/>
<path d="M193.731 59.6664C193.731 59.7806 193.649 59.8378 193.483 59.8378H193.347C193.347 59.8378 193.204 59.8378 192.918 59.8378C192.632 59.8235 192.342 59.8163 192.048 59.8163C191.529 59.8163 191.198 59.8235 191.054 59.8378C190.911 59.852 190.798 59.8592 190.716 59.8592C190.535 59.8592 190.445 59.7949 190.445 59.6664C190.445 59.5379 190.497 59.4737 190.603 59.4737C190.768 59.4737 190.945 59.4665 191.134 59.4523C191.367 59.438 191.491 59.3309 191.506 59.131C191.529 58.9169 191.54 58.4671 191.54 57.7818V47.7163C191.54 47.2594 191.533 46.9882 191.518 46.9025C191.503 46.8168 191.45 46.774 191.359 46.774C191.322 46.774 191.077 46.8097 190.625 46.8811C190.535 46.8954 190.475 46.9025 190.445 46.9025C190.354 46.9025 190.309 46.8525 190.309 46.7526C190.309 46.6384 190.354 46.5741 190.445 46.5598C190.798 46.4884 191.156 46.2886 191.518 45.9602C191.879 45.6175 192.169 45.2178 192.387 44.7609C192.47 44.6324 192.527 44.5681 192.557 44.5681C192.617 44.5681 192.647 44.6395 192.647 44.7823V45.1892C192.64 45.3034 192.636 45.4319 192.636 45.5747V58.3815C192.636 58.8955 192.647 59.1953 192.67 59.2809C192.7 59.3666 192.794 59.4166 192.952 59.4309L193.212 59.4523L193.404 59.4737H193.573C193.679 59.4737 193.731 59.5379 193.731 59.6664Z" fill="black"/>
<path d="M206.494 77.9339C206.494 77.9768 206.487 78.091 206.472 78.2766C206.434 78.7477 206.374 79.9114 206.291 81.7674L206.28 82.0244C205.504 81.953 204.619 81.9173 203.625 81.9173C203.091 81.9173 202.59 81.9316 202.123 81.9601C201.656 81.9887 201.453 82.003 201.513 82.003C201.31 82.003 201.208 81.9316 201.208 81.7888C201.208 81.6746 201.404 81.3177 201.796 80.718C202.737 79.2617 203.407 78.0767 203.806 77.163C204.499 75.5782 204.845 73.715 204.845 71.5734C204.845 70.1314 204.687 69.0392 204.371 68.2967C204.13 67.7256 203.791 67.4401 203.354 67.4401C202.925 67.4401 202.586 67.69 202.338 68.1897C202.142 68.5751 202.044 68.9606 202.044 69.3461C202.044 69.5888 202.146 69.7173 202.349 69.7316C202.876 69.7744 203.14 70.2099 203.14 71.038C203.14 71.8232 202.921 72.2159 202.485 72.2159C202.206 72.2159 201.984 72.0517 201.818 71.7233C201.653 71.3949 201.57 70.9452 201.57 70.3741C201.57 69.3176 201.766 68.4681 202.157 67.8256C202.549 67.1831 203.064 66.8619 203.705 66.8619C204.345 66.8619 204.875 67.2474 205.297 68.0183C205.787 68.9178 206.031 70.0885 206.031 71.5306C206.031 73.1153 205.753 74.5788 205.195 75.9208C204.638 77.2486 203.701 78.6978 202.383 80.2683C202.88 80.2397 203.505 80.2255 204.258 80.2255C204.883 80.2255 205.278 80.2112 205.444 80.1826C205.61 80.1398 205.756 80.047 205.884 79.9042C205.99 79.7757 206.08 79.2974 206.156 78.4693C206.208 77.8982 206.284 77.6127 206.381 77.6127C206.457 77.6127 206.494 77.7198 206.494 77.9339Z" fill="black"/>
<path d="M211.085 107.778C211.085 109.081 210.808 110.196 210.253 111.123C209.64 112.144 208.857 112.654 207.904 112.654C207.126 112.654 206.554 112.308 206.19 111.617C205.958 111.178 205.842 110.675 205.842 110.11C205.842 109.623 205.921 109.238 206.078 108.955C206.244 108.657 206.463 108.508 206.736 108.508C206.952 108.508 207.13 108.626 207.271 108.861C207.412 109.097 207.482 109.395 207.482 109.756C207.482 110.306 207.287 110.738 206.898 111.052C206.741 111.178 206.662 111.303 206.662 111.429C206.662 111.633 206.77 111.822 206.985 111.994C207.2 112.151 207.436 112.23 207.693 112.23C208.323 112.23 208.832 111.822 209.221 111.005C209.619 110.188 209.818 109.12 209.818 107.801C209.818 105.147 209.188 103.82 207.929 103.82C207.805 103.82 207.714 103.828 207.656 103.843H207.569C207.461 103.843 207.407 103.773 207.407 103.631C207.407 103.521 207.507 103.435 207.706 103.372C208.285 103.215 208.733 102.815 209.047 102.171C209.362 101.511 209.52 100.671 209.52 99.6502C209.52 98.6451 209.383 97.8441 209.11 97.2473C208.836 96.6348 208.468 96.3286 208.004 96.3286C207.664 96.3286 207.366 96.4699 207.109 96.7526C206.861 97.0196 206.736 97.3337 206.736 97.6949C206.736 97.8362 206.794 97.9305 206.91 97.9776C207.457 98.2289 207.73 98.6608 207.73 99.2733C207.73 100.074 207.511 100.475 207.072 100.475C206.79 100.475 206.562 100.318 206.389 100.004C206.223 99.6894 206.14 99.2733 206.14 98.755C206.14 97.9069 206.331 97.2002 206.712 96.6348C207.101 96.0537 207.639 95.7632 208.327 95.7632C209.114 95.7632 209.714 96.1479 210.128 96.9175C210.543 97.687 210.75 98.5822 210.75 99.6031C210.75 101.017 210.398 102.061 209.693 102.736C209.445 102.972 209.043 103.168 208.488 103.325V103.49C209.176 103.537 209.731 103.828 210.153 104.362C210.774 105.147 211.085 106.286 211.085 107.778Z" fill="black"/>
<path d="M206.476 140.019C206.476 140.176 206.434 140.255 206.351 140.255C206.277 140.255 206.227 140.168 206.202 139.996C206.186 139.807 206.157 139.312 206.115 138.511C206.099 138.386 206.066 138.292 206.016 138.229C205.917 138.119 205.697 138.064 205.357 138.064C205.266 138.064 205.179 138.072 205.097 138.087L205.109 141.786C205.15 141.974 205.217 142.092 205.308 142.139C205.407 142.186 205.643 142.21 206.016 142.21C206.198 142.21 206.306 142.241 206.339 142.304C206.347 142.336 206.351 142.383 206.351 142.445C206.351 142.555 206.186 142.61 205.854 142.61C205.523 142.61 204.595 142.626 203.071 142.658C202.988 142.673 202.897 142.681 202.798 142.681C202.632 142.681 202.549 142.603 202.549 142.445C202.549 142.288 202.67 142.218 202.91 142.233C203.191 142.249 203.448 142.218 203.68 142.139C203.779 142.108 203.842 142.029 203.866 141.904C203.891 141.762 203.904 141.464 203.904 141.008V138.158C203.738 138.142 203.548 138.134 203.332 138.134H202.823C202.707 138.134 202.578 138.142 202.438 138.158C202.313 138.158 202.235 138.158 202.202 138.158L200.624 138.087C200.508 138.072 200.45 138.009 200.45 137.899C200.45 137.82 201.059 136.195 202.276 133.022C202.657 132.002 203.498 129.756 204.798 126.285C204.856 126.128 204.914 126.049 204.972 126.049C205.055 126.049 205.097 126.199 205.097 126.497V137.569H205.221C205.502 137.569 205.722 137.538 205.879 137.475C206.045 137.412 206.128 137.255 206.128 137.004C206.119 136.014 206.115 135.677 206.115 135.991C206.124 135.425 206.169 135.143 206.252 135.143C206.368 135.143 206.426 135.363 206.426 135.802V136.862L206.438 138.558C206.447 139.14 206.455 139.509 206.463 139.666C206.471 139.807 206.476 139.925 206.476 140.019ZM203.978 129.512C203.895 129.764 203.722 130.243 203.456 130.949C203.092 131.907 202.541 133.337 201.804 135.237L200.922 137.522C201.228 137.569 201.887 137.593 202.897 137.593C203.254 137.593 203.589 137.585 203.904 137.569V135.896C203.904 135.111 203.916 134.051 203.941 132.716C203.966 131.146 203.978 130.078 203.978 129.512Z" fill="black"/>
<path d="M194.601 167.346C194.601 169.173 194.232 170.573 193.494 171.544C193.05 172.129 192.474 172.422 191.766 172.422C191.058 172.422 190.538 172.072 190.207 171.372C190.026 170.987 189.936 170.53 189.936 170.002C189.936 169.559 190.011 169.202 190.162 168.931C190.313 168.645 190.508 168.502 190.749 168.502C190.945 168.502 191.107 168.61 191.235 168.824C191.371 169.038 191.438 169.302 191.438 169.616C191.438 170.144 191.254 170.544 190.885 170.815C190.719 170.93 190.636 171.058 190.636 171.201C190.636 171.429 190.746 171.636 190.964 171.822C191.19 171.993 191.438 172.079 191.709 172.079C192.236 172.079 192.632 171.736 192.895 171.051C193.257 170.109 193.438 168.838 193.438 167.239C193.438 166.068 193.294 165.162 193.008 164.519C192.722 163.877 192.316 163.555 191.788 163.555C191.382 163.555 190.934 163.848 190.444 164.433C190.49 161.221 190.523 159.194 190.546 158.351C190.554 157.866 190.61 157.573 190.715 157.473C190.821 157.359 191.107 157.302 191.574 157.302C191.649 157.302 191.777 157.302 191.958 157.302C192.139 157.316 192.282 157.323 192.387 157.323H192.771C193.291 157.323 193.592 157.309 193.675 157.28C193.765 157.238 193.822 157.116 193.844 156.916C193.874 156.588 193.927 156.424 194.002 156.424C194.078 156.424 194.115 156.502 194.115 156.659C194.115 156.759 194.111 156.838 194.104 156.895L194.081 157.388C194.044 158.187 193.965 158.687 193.844 158.887C193.731 159.072 193.449 159.165 192.997 159.165L190.84 159.144C190.81 159.629 190.783 161.093 190.761 163.534C191.19 163.163 191.638 162.977 192.105 162.977C192.88 162.977 193.49 163.37 193.935 164.155C194.379 164.926 194.601 165.99 194.601 167.346Z" fill="black"/>
<path d="M176.269 177.497C176.269 178.882 176.047 180.067 175.603 181.052C175.158 182.037 174.628 182.53 174.01 182.53C173.234 182.53 172.606 181.923 172.124 180.71C171.642 179.496 171.401 177.918 171.401 175.977C171.401 174.192 171.604 172.564 172.011 171.094C172.425 169.623 172.975 168.552 173.66 167.881C174.232 167.325 174.857 167.046 175.535 167.046C175.693 167.046 175.772 167.103 175.772 167.217C175.772 167.317 175.719 167.374 175.614 167.389C174.936 167.503 174.338 167.967 173.818 168.781C173.14 169.837 172.741 171.636 172.621 174.178C173.035 173.435 173.502 173.064 174.021 173.064C174.443 173.064 174.838 173.278 175.207 173.706C175.915 174.52 176.269 175.784 176.269 177.497ZM175.106 177.561C175.106 174.906 174.673 173.578 173.807 173.578C173.415 173.578 173.114 173.899 172.903 174.542C172.692 175.17 172.587 176.055 172.587 177.197C172.587 178.839 172.741 180.167 173.05 181.181C173.246 181.823 173.532 182.144 173.908 182.144C174.707 182.144 175.106 180.617 175.106 177.561Z" fill="black"/>
<path d="M157.542 158.394C157.542 158.48 157.105 159.815 156.232 162.399C155.742 163.855 155.407 164.997 155.226 165.825C155.046 166.639 154.955 167.453 154.955 168.267C154.955 168.681 155.008 169.495 155.113 170.708C155.151 171.136 155.17 171.501 155.17 171.8C155.17 172.814 154.97 173.321 154.571 173.321C154.097 173.321 153.86 172.543 153.86 170.987C153.86 169.545 154.21 167.646 154.91 165.29C155.354 163.805 155.93 162.077 156.638 160.107H154.921C154.033 160.107 153.521 160.114 153.385 160.129C153.22 160.143 153.103 160.193 153.035 160.279C152.975 160.364 152.93 160.486 152.9 160.643C152.877 160.785 152.817 161.285 152.719 162.142C152.689 162.313 152.644 162.399 152.583 162.399C152.508 162.399 152.47 162.313 152.47 162.142C152.47 161.97 152.489 161.692 152.527 161.307C152.61 160.436 152.662 159.693 152.685 159.079C152.7 158.637 152.749 158.33 152.832 158.158C152.885 158.158 153.039 158.173 153.295 158.201C153.867 158.258 154.281 158.287 154.537 158.287L156.876 158.244C156.936 158.244 157 158.237 157.068 158.223C157.128 158.223 157.165 158.223 157.18 158.223C157.421 158.223 157.542 158.28 157.542 158.394Z" fill="black"/>
<path d="M145.557 143.51C145.557 144.938 145.245 146.087 144.62 146.958C144.198 147.543 143.675 147.836 143.05 147.836C142.38 147.836 141.815 147.551 141.356 146.979C140.731 146.208 140.418 145.123 140.418 143.724C140.418 141.597 141.024 140.248 142.237 139.677V139.569C141.777 139.327 141.416 138.92 141.152 138.349C140.896 137.763 140.768 137.071 140.768 136.271C140.768 135.158 140.968 134.251 141.367 133.552C141.774 132.838 142.297 132.481 142.937 132.481C143.502 132.481 143.965 132.738 144.326 133.252C144.853 133.994 145.117 134.951 145.117 136.122C145.117 136.964 144.985 137.721 144.722 138.392C144.458 139.048 144.131 139.448 143.739 139.591L143.75 139.677C144.955 140.133 145.557 141.411 145.557 143.51ZM143.999 136.164C143.999 134.894 143.878 133.958 143.637 133.359C143.494 133.002 143.265 132.823 142.948 132.823C142.24 132.823 141.887 133.944 141.887 136.186C141.887 138.37 142.267 139.462 143.027 139.462C143.366 139.462 143.603 139.227 143.739 138.756C143.912 138.142 143.999 137.278 143.999 136.164ZM144.405 143.724C144.405 141.126 143.946 139.826 143.027 139.826C142.568 139.826 142.21 140.162 141.954 140.833C141.698 141.49 141.57 142.404 141.57 143.574C141.57 144.788 141.702 145.744 141.966 146.444C142.237 147.144 142.606 147.493 143.073 147.493C143.472 147.493 143.765 147.279 143.954 146.851C144.255 146.166 144.405 145.123 144.405 143.724Z" fill="black"/>
<path d="M140.799 102.59C140.799 104.648 140.546 106.516 140.041 108.197C139.544 109.862 138.89 111.016 138.078 111.66C137.481 112.131 136.885 112.367 136.289 112.367C136.073 112.367 135.966 112.312 135.966 112.202C135.966 112.107 136.024 112.045 136.14 112.013C137.539 111.668 138.5 110.348 139.022 108.056C139.229 107.129 139.374 105.951 139.457 104.522C139.001 105.339 138.488 105.747 137.916 105.747C137.37 105.747 136.873 105.433 136.425 104.805C135.771 103.894 135.444 102.551 135.444 100.776C135.444 99.2686 135.684 97.9886 136.164 96.9364C136.653 95.8684 137.241 95.3344 137.929 95.3344C138.774 95.3344 139.461 96.0098 139.991 97.3604C140.53 98.711 140.799 100.454 140.799 102.59ZM139.494 101.035C139.494 99.245 139.32 97.8315 138.972 96.795C138.732 96.0883 138.405 95.7349 137.991 95.7349C137.138 95.7349 136.711 97.4311 136.711 100.823C136.711 103.729 137.187 105.182 138.14 105.182C138.562 105.182 138.894 104.82 139.134 104.098C139.374 103.36 139.494 102.339 139.494 101.035Z" fill="black"/>
<path d="M143.536 80.1826C143.536 80.2968 143.453 80.3539 143.287 80.3539H143.152C143.152 80.3539 143.008 80.3539 142.722 80.3539C142.436 80.3397 142.146 80.3325 141.853 80.3325C141.333 80.3325 141.002 80.3397 140.859 80.3539C140.716 80.3682 140.603 80.3753 140.52 80.3753C140.339 80.3753 140.249 80.3111 140.249 80.1826C140.249 80.0541 140.301 79.9899 140.407 79.9899C140.573 79.9899 140.749 79.9827 140.938 79.9684C141.171 79.9542 141.295 79.8471 141.31 79.6472C141.333 79.433 141.344 78.9833 141.344 78.298V68.2325C141.344 67.7756 141.337 67.5043 141.322 67.4187C141.307 67.333 141.254 67.2902 141.164 67.2902C141.126 67.2902 140.881 67.3259 140.429 67.3972C140.339 67.4115 140.279 67.4187 140.249 67.4187C140.158 67.4187 140.113 67.3687 140.113 67.2688C140.113 67.1545 140.158 67.0903 140.249 67.076C140.603 67.0046 140.96 66.8047 141.322 66.4764C141.683 66.1337 141.973 65.7339 142.191 65.2771C142.274 65.1486 142.331 65.0843 142.361 65.0843C142.421 65.0843 142.451 65.1557 142.451 65.2985V65.7054C142.444 65.8196 142.44 65.9481 142.44 66.0909V78.8976C142.44 79.4116 142.451 79.7114 142.474 79.7971C142.504 79.8828 142.598 79.9327 142.756 79.947L143.016 79.9684L143.208 79.9899H143.377C143.483 79.9899 143.536 80.0541 143.536 80.1826Z" fill="black"/>
<path d="M155.667 58.3384C155.667 58.4526 155.584 58.5097 155.418 58.5097H155.283C155.283 58.5097 155.14 58.5097 154.854 58.5097C154.567 58.4954 154.277 58.4883 153.984 58.4883C153.464 58.4883 153.133 58.4954 152.99 58.5097C152.847 58.524 152.734 58.5311 152.651 58.5311C152.47 58.5311 152.38 58.4669 152.38 58.3384C152.38 58.2099 152.433 58.1456 152.538 58.1456C152.704 58.1456 152.881 58.1385 153.069 58.1242C153.302 58.1099 153.427 58.0029 153.442 57.803C153.464 57.5888 153.476 57.1391 153.476 56.4538V46.3883C153.476 45.9314 153.468 45.6601 153.453 45.5744C153.438 45.4888 153.385 45.446 153.295 45.446C153.257 45.446 153.012 45.4816 152.561 45.553C152.47 45.5673 152.41 45.5744 152.38 45.5744C152.29 45.5744 152.244 45.5245 152.244 45.4245C152.244 45.3103 152.29 45.2461 152.38 45.2318C152.734 45.1604 153.091 44.9605 153.453 44.6321C153.814 44.2895 154.104 43.8897 154.323 43.4328C154.405 43.3044 154.462 43.2401 154.492 43.2401C154.552 43.2401 154.582 43.3115 154.582 43.4543V43.8612C154.575 43.9754 154.571 44.1039 154.571 44.2467V57.0534C154.571 57.5674 154.582 57.8672 154.605 57.9529C154.635 58.0386 154.729 58.0885 154.887 58.1028L155.147 58.1242L155.339 58.1456H155.509C155.614 58.1456 155.667 58.2099 155.667 58.3384Z" fill="black"/>
<path d="M177.669 44.8249C177.669 44.8677 177.662 44.9819 177.647 45.1675C177.609 45.6387 177.549 46.8023 177.466 48.6584L177.455 48.9153C176.679 48.844 175.794 48.8083 174.8 48.8083C174.266 48.8083 173.765 48.8225 173.298 48.8511C172.831 48.8797 172.628 48.8939 172.688 48.8939C172.485 48.8939 172.383 48.8225 172.383 48.6798C172.383 48.5655 172.579 48.2086 172.971 47.609C173.912 46.1527 174.582 44.9677 174.981 44.0539C175.674 42.4691 176.02 40.6059 176.02 38.4643C176.02 37.0223 175.862 35.9301 175.546 35.1877C175.305 34.6166 174.966 34.331 174.529 34.331C174.1 34.331 173.761 34.5809 173.513 35.0806C173.317 35.4661 173.219 35.8516 173.219 36.2371C173.219 36.4798 173.321 36.6083 173.524 36.6226C174.051 36.6654 174.315 37.1009 174.315 37.9289C174.315 38.7142 174.096 39.1068 173.66 39.1068C173.381 39.1068 173.159 38.9426 172.993 38.6142C172.828 38.2859 172.745 37.8361 172.745 37.265C172.745 36.2085 172.94 35.359 173.332 34.7165C173.724 34.0741 174.239 33.7528 174.879 33.7528C175.52 33.7528 176.05 34.1383 176.472 34.9093C176.962 35.8088 177.206 36.9795 177.206 38.4215C177.206 40.0063 176.928 41.4697 176.37 42.8118C175.813 44.1396 174.876 45.5887 173.558 47.1592C174.055 47.1307 174.68 47.1164 175.433 47.1164C176.058 47.1164 176.453 47.1021 176.619 47.0736C176.785 47.0307 176.931 46.9379 177.059 46.7952C177.165 46.6667 177.255 46.1884 177.33 45.3603C177.383 44.7892 177.459 44.5036 177.556 44.5036C177.632 44.5036 177.669 44.6107 177.669 44.8249Z" fill="black"/>
<path d="M158.604 58.3384C158.604 58.4526 158.521 58.5097 158.355 58.5097H158.22C158.22 58.5097 158.076 58.5097 157.79 58.5097C157.504 58.4954 157.214 58.4883 156.921 58.4883C156.401 58.4883 156.07 58.4954 155.927 58.5097C155.784 58.524 155.671 58.5311 155.588 58.5311C155.407 58.5311 155.317 58.4669 155.317 58.3384C155.317 58.2099 155.369 58.1456 155.475 58.1456C155.641 58.1456 155.817 58.1385 156.006 58.1242C156.239 58.1099 156.363 58.0029 156.378 57.803C156.401 57.5888 156.412 57.1391 156.412 56.4538V46.3883C156.412 45.9314 156.405 45.6601 156.39 45.5744C156.375 45.4888 156.322 45.446 156.232 45.446C156.194 45.446 155.949 45.4816 155.497 45.553C155.407 45.5673 155.347 45.5744 155.317 45.5744C155.226 45.5744 155.181 45.5245 155.181 45.4245C155.181 45.3103 155.226 45.2461 155.317 45.2318C155.671 45.1604 156.028 44.9605 156.39 44.6321C156.751 44.2895 157.041 43.8897 157.259 43.4328C157.342 43.3044 157.399 43.2401 157.429 43.2401C157.489 43.2401 157.519 43.3115 157.519 43.4543V43.8612C157.512 43.9754 157.508 44.1039 157.508 44.2467V57.0534C157.508 57.5674 157.519 57.8672 157.542 57.9529C157.572 58.0386 157.666 58.0885 157.824 58.1028L158.084 58.1242L158.276 58.1456H158.445C158.551 58.1456 158.604 58.2099 158.604 58.3384Z" fill="black"/>
<path d="M147.997 73.1582C147.997 74.4288 147.896 75.6281 147.692 76.756C147.497 77.8839 147.226 78.7906 146.879 79.4759C146.51 80.2183 146.04 80.5895 145.467 80.5895C144.684 80.5895 144.037 79.8614 143.525 78.4051C143.02 76.9488 142.768 75.0856 142.768 72.8155C142.768 70.1885 143.125 68.1183 143.841 66.6049C144.27 65.6911 144.797 65.2342 145.422 65.2342C146.16 65.2342 146.747 65.8696 147.184 67.1403C147.726 68.7108 147.997 70.7167 147.997 73.1582ZM146.777 72.3872C146.777 70.2599 146.653 68.5037 146.405 67.1188C146.216 66.0623 145.885 65.5341 145.411 65.5341C144.462 65.5341 143.988 67.9255 143.988 72.7084C143.988 77.7198 144.488 80.2254 145.49 80.2254C145.957 80.2254 146.292 79.4973 146.495 78.041C146.683 76.7132 146.777 74.8286 146.777 72.3872Z" fill="black"/>
<path d="M173.253 111.3C172.214 111.3 171.378 109.715 171.378 107.745C171.378 105.775 172.214 104.19 173.253 104.19C174.292 104.19 175.128 105.775 175.128 107.745C175.128 109.715 174.292 111.3 173.253 111.3Z" fill="black"/>
<path d="M173.253 105.389C173.931 105.389 174.496 106.46 174.496 107.745C174.496 109.03 173.931 110.101 173.253 110.101C172.576 110.101 172.011 109.03 172.011 107.745C172.011 106.46 172.576 105.389 173.253 105.389ZM173.253 103.033C171.875 103.033 170.769 105.132 170.769 107.745C170.769 110.358 171.875 112.456 173.253 112.456C174.631 112.456 175.738 110.358 175.738 107.745C175.738 105.132 174.631 103.033 173.253 103.033Z" fill="black"/>
<path d="M161.642 120.594L167.244 119.138L168.306 113.57L165.279 112.328L161.642 120.594Z" fill="black" stroke="#1A1A1A" stroke-width="0.05" stroke-miterlimit="10"/>
<path d="M170.971 110.786L170.158 116.054L167.38 114.598L168.238 109.458L170.971 110.786Z" fill="black" stroke="#1A1A1A" stroke-width="0.05" stroke-miterlimit="10"/>
<path d="M192.681 87.9993C192.681 87.9993 196.16 85.9434 197.854 88.5989C197.854 88.5989 198.125 81.3175 202.892 76.6917C202.892 76.6917 198.374 82.5168 194.917 78.6191C194.917 78.6191 194.398 83.8018 192.342 86.5858L192.703 87.9993H192.681Z" fill="black" stroke="black" stroke-width="0.05" stroke-miterlimit="10"/>
<path d="M189.925 85.9434L185.565 92.5395L187.621 92.7965L186.966 96.6514L192.071 92.5395L193.63 86.5002L189.925 85.9434Z" fill="black" stroke="black" stroke-width="0.05" stroke-miterlimit="10"/>
<path d="M175.648 104.018L184.797 91.383L189.089 91.2974L186.785 98.1505L176.393 106.374C176.325 105.989 175.783 104.275 175.67 104.018H175.648Z" fill="black" stroke="#1A1A1A" stroke-width="0.05" stroke-miterlimit="10"/>
<path d="M194.285 90.612C193.245 88.6846 192.5 86.3716 192.116 83.7161C193.155 85.6435 193.878 87.9564 194.285 90.612Z" fill="#1A1A1A"/>
<path d="M166.386 87.9564L167.358 97.4223L170.046 98.9642L170.498 93.7387L166.386 87.9564Z" fill="black" stroke="#1A1A1A" stroke-width="0.05" stroke-miterlimit="10"/>
<path d="M171.492 103.333L168.962 102.219L169.526 97.4222L171.989 98.6215L171.492 103.333Z" fill="black" stroke="#1A1A1A" stroke-width="0.05" stroke-miterlimit="10"/>
<path d="M174.406 112.842L175.264 119.524L177.862 120.851L178.336 115.712L175.512 111.514C175.399 111.771 174.564 112.713 174.406 112.842Z" fill="black" stroke="#1A1A1A" stroke-width="0.05" stroke-miterlimit="10"/>
<path d="M177.139 121.708C177.139 121.708 177.546 128.476 176.416 131.559C176.416 131.559 181.612 131.302 184.187 138.927C184.187 138.927 181.702 129.247 183.261 123.079C183.261 123.079 179.85 123.421 178.404 120.209L177.162 121.708H177.139Z" fill="black" stroke="#1A1A1A" stroke-width="0.05" stroke-miterlimit="10"/>
<path d="M176.235 122.436C176.981 120.337 178.02 119.095 179.33 118.71C178.585 120.809 177.523 122.051 176.235 122.436Z" fill="#1A1A1A"/>
</g>
<defs>
<linearGradient id="paint0_linear_312_659" x1="203.087" y1="107.337" x2="213.508" y2="170.577" gradientUnits="userSpaceOnUse">
<stop stop-color="#4D607A"/>
<stop offset="0.17" stop-color="#455E7B"/>
<stop offset="0.41" stop-color="#305B7F"/>
<stop offset="0.72" stop-color="#0E5785"/>
<stop offset="0.82" stop-color="#005588"/>
</linearGradient>
<radialGradient id="paint1_radial_312_659" cx="0" cy="0" r="1" gradientUnits="userSpaceOnUse" gradientTransform="translate(213.114 139.77) rotate(29.2585) scale(17.908 17.9008)">
<stop offset="0.45" stop-color="#00FFFF"/>
<stop offset="0.61" stop-color="#00FBFF"/>
<stop offset="0.75" stop-color="#00F0FF"/>
<stop offset="0.89" stop-color="#00DEFF"/>
<stop offset="1" stop-color="#00CAFF"/>
</radialGradient>
<clipPath id="clip0_312_659">
<rect width="405" height="219" fill="white"/>
</clipPath>
</defs>
</svg>
