<svg width="405" height="219" viewBox="0 0 405 219" fill="none" xmlns="http://www.w3.org/2000/svg">
<g clip-path="url(#clip0_312_845)">
<path d="M17.2524 71.292C29.9086 66.7518 42.5649 62.7684 55.1782 58.2282L104.516 53.8165C100.269 55.9581 95.335 58.0997 89.7577 60.0272C87.6554 60.7553 82.2068 62.5971 70.7089 64.9528C67.7916 65.5525 58.1814 67.5228 44.0236 69.3217C36.9446 70.2212 27.8922 70.6067 17.2095 71.292H17.2524Z" fill="#42210B" stroke="black" stroke-width="0.05" stroke-miterlimit="10"/>
<path d="M396.554 73.1337L360.516 59.9843H330.141C337.691 63.7535 347.859 67.9511 360.301 70.7351C374.759 73.9904 387.33 73.6477 396.597 73.1337H396.554Z" fill="#42210B" stroke="black" stroke-width="0.05" stroke-miterlimit="10"/>
<path d="M82.0352 211.909C82.0352 212.381 82.2497 216.064 80.8768 217.563C78.8175 219.833 75.4711 219.277 75.0421 219.234C54.2343 219.405 25.2751 218.334 4.03835 218.463C2.96578 218.463 1.97902 217.906 1.5071 216.921C-0.595128 212.552 4.51027 205.999 4.63898 205.827C5.28252 205.87 5.84025 210.025 6.48379 210.068C32.6543 212.124 82.0352 211.909 82.0352 211.909Z" fill="#603813" stroke="black" stroke-width="0.1" stroke-miterlimit="10"/>
<path d="M88.1272 204.928C88.1272 205.399 87.5695 207.583 85.8105 209.768C84.3947 211.567 80.8338 211.61 80.4048 211.567C59.5112 211.738 28.6214 210.582 7.38464 210.71C6.6982 210.71 6.01176 210.453 5.62564 209.896C2.57956 205.527 7.89947 198.717 8.02818 198.503C8.67172 198.546 8.3285 202.187 8.97204 202.229C35.1426 204.328 61.9567 202.829 88.1272 204.928Z" fill="#603813" stroke="black" stroke-width="0.1" stroke-miterlimit="10"/>
<path d="M329.926 210.839C329.926 211.31 329.755 214.993 330.999 216.492C332.887 218.763 336.018 218.206 336.447 218.163C355.839 218.334 382.868 217.263 402.646 217.392C403.633 217.392 404.577 216.835 405.006 215.85C406.979 211.481 402.217 204.928 402.088 204.756C401.488 204.799 400.973 208.954 400.372 208.997C375.961 211.053 329.926 210.839 329.926 210.839Z" fill="#603813" stroke="black" stroke-width="0.15" stroke-miterlimit="10"/>
<path d="M324.22 203.857C324.22 204.328 324.735 206.513 326.365 208.697C327.695 210.496 330.999 210.539 331.428 210.496C350.906 210.667 379.736 209.511 399.514 209.639C400.158 209.639 400.801 209.382 401.144 208.826C403.976 204.457 398.742 197.646 398.613 197.432C398.013 197.475 397.97 201.116 397.369 201.159C372.957 203.257 348.589 201.758 324.177 203.857H324.22Z" fill="#603813" stroke="black" stroke-width="0.15" stroke-miterlimit="10"/>
<path d="M17.2524 71.8488C17.3811 76.1748 17.5527 82.514 17.6385 90.2237C17.853 110.826 17.9388 121.32 16.0511 130.186C14.6353 136.868 11.6751 146.591 4.72485 157.727C5.96903 171.733 7.47062 187.709 8.71479 201.844C8.80059 202.658 9.44413 203.3 10.3022 203.343C36.344 204.885 62.1285 203.215 88.1703 204.842C88.5993 204.071 89.9722 202.272 92.6751 201.501C95.6782 200.645 98.3811 200.388 99.2392 200.516C169.299 199.531 241.161 200.602 311.221 199.617C312.465 199.445 317.913 199.274 320.273 199.617C322.032 199.874 323.362 201.887 324.263 202.958C349.533 202.272 372.142 201.844 397.412 201.201L404.233 158.241C402.303 155.671 399.428 151.431 397.197 145.734C392.564 134.127 393.722 124.832 395.267 99.1328C395.61 93.6503 396.125 84.8269 396.64 73.6906C390.462 73.6906 382.053 73.3051 372.185 71.8488C360.473 70.0927 340.652 65.8951 316.069 53.3025C277.37 33.4713 280.459 19.2083 253.388 8.71443C217.95 -5.03464 184.015 3.48892 178.523 4.94521C135.32 16.3814 126.525 51.8034 84.3949 62.0403C67.3197 66.195 47.0268 68.9362 47.0268 68.9362C34.8424 70.6067 24.6316 71.4205 17.424 71.8488H17.2524Z" fill="#603813" stroke="black" stroke-width="0.25" stroke-miterlimit="10"/>
<path d="M125.281 99.9894L125.71 120.806C125.71 120.806 128.627 122.99 130.901 120.549L130.172 100.032C130.172 99.4326 127.126 97.548 125.281 100.032V99.9894Z" fill="#666666" stroke="#1A1A1A" stroke-width="0.08" stroke-miterlimit="10"/>
<path d="M127.726 101.617C129.077 101.617 130.172 100.965 130.172 100.161C130.172 99.3565 129.077 98.7045 127.726 98.7045C126.376 98.7045 125.281 99.3565 125.281 100.161C125.281 100.965 126.376 101.617 127.726 101.617Z" fill="#1A1A1A"/>
<path d="M125.281 106.543C125.281 106.543 127.855 108.641 130.386 106.543" stroke="#1A1A1A" stroke-width="0.05" stroke-miterlimit="10"/>
<path d="M125.538 112.411C125.538 112.411 127.855 114.424 130.515 112.368" stroke="#1A1A1A" stroke-width="0.05" stroke-miterlimit="10"/>
<path d="M17.2524 71.806C24.7604 115.623 32.3112 159.483 39.8192 203.3L88.1704 204.928C82.593 158.798 76.3721 111.383 70.7948 65.2527C61.0988 67.4371 50.2016 69.3646 38.2318 70.5639C30.8525 71.292 23.8165 71.6775 17.2524 71.806Z" fill="#42210B" stroke="black" stroke-width="0.05" stroke-miterlimit="10"/>
<path d="M210.657 187.024C254.302 187.024 289.684 151.701 289.684 108.127C289.684 64.554 254.302 29.2308 210.657 29.2308C167.012 29.2308 131.631 64.554 131.631 108.127C131.631 151.701 167.012 187.024 210.657 187.024Z" fill="#2B140A" stroke="#2B140A" stroke-width="0.75" stroke-miterlimit="10"/>
<path d="M347.001 66.9659L326.065 202.315L373.944 201.373L396.554 74.5472C389.432 74.5472 381.195 74.076 372.099 72.7054C362.489 71.2491 354.08 69.1504 347.001 66.9231V66.9659Z" fill="#42210B" stroke="black" stroke-width="0.05" stroke-miterlimit="10"/>
<path d="M210.803 187.324C254.447 187.324 289.828 152.001 289.828 108.429C289.828 64.8561 254.447 29.5336 210.803 29.5336C167.159 29.5336 131.778 64.8561 131.778 108.429C131.778 152.001 167.159 187.324 210.803 187.324Z" fill="#391E00" stroke="#2B140A" stroke-width="0.75" stroke-miterlimit="10"/>
<path d="M151.813 159.055C156.446 163.938 176.353 183.897 207.843 185.353C244.18 187.024 267.734 162.867 271.552 158.798C236.973 159.697 186.349 158.155 151.813 159.055Z" fill="#2B140A"/>
<path d="M239.561 122.019L241.061 137.547L221.364 172.993L218.372 171.317L237.701 136.47L235.502 119.745L239.561 122.019Z" fill="#004497"/>
<path d="M206.504 103L236.647 119.887L238.845 136.612L218.083 173.99L179 152.095L186.321 139.027L187.268 137.336L191.178 136.079L190.118 132.248L190.654 131.292L194.447 130.244L193.731 125.8L206.504 103Z" fill="url(#paint0_linear_312_845)" stroke="black" stroke-width="0.25" stroke-miterlimit="10"/>
<path opacity="0.84" d="M210.302 114.598L190.188 150.502L215.94 164.93L227.924 143.539L216.85 137.335L232.381 135.583L210.302 114.598Z" fill="url(#paint1_radial_312_845)" stroke="#007CBC" stroke-width="0.5" stroke-miterlimit="10"/>
<path d="M234.472 130.699C232.033 128.785 228.57 125.331 226.266 123.203C224.002 121.032 220.36 117.784 218.305 115.441C220.745 117.356 224.207 120.809 226.511 122.938C228.776 125.108 232.418 128.356 234.472 130.699Z" fill="#00EFFF"/>
<path d="M234.472 130.699L218.317 115.448" stroke="#0091FF" stroke-width="0.05" stroke-miterlimit="10"/>
<path d="M234.7 128.25C232.955 126.966 230.695 124.557 229.104 123.054C227.571 121.534 225.078 119.284 223.747 117.604C225.468 118.875 227.789 121.318 229.343 122.801C230.899 124.365 233.346 126.525 234.7 128.25Z" fill="#00DFFF"/>
<path d="M234.7 128.25L223.747 117.604" stroke="#0091FF" stroke-width="0.03" stroke-miterlimit="10"/>
<path d="M194.882 130.504C194.682 130.199 194.54 129.733 194.508 129.36L194.311 128.187C194.241 127.794 194.067 126.81 194.003 126.436L194.076 125.817L194.346 126.371C194.41 126.745 194.59 127.747 194.654 128.121L194.85 129.295C194.941 129.651 194.975 130.137 194.889 130.492L194.882 130.504Z" fill="#00E9FF"/>
<path d="M190.828 131.615C191.084 131.388 191.462 131.23 191.798 131.176L192.812 130.891C193.15 130.806 194.011 130.564 194.336 130.472L194.882 130.504L194.421 130.809C194.096 130.901 193.222 131.137 192.897 131.228L191.883 131.514C191.563 131.625 191.158 131.687 190.821 131.627L190.828 131.615Z" fill="#00E9FF"/>
<path d="M191.661 136.253C191.427 136.009 191.244 135.617 191.172 135.286L190.854 134.271C190.75 133.939 190.483 133.064 190.379 132.732L190.386 132.173L190.711 132.629C190.81 132.941 191.082 133.835 191.186 134.167L191.504 135.182C191.634 135.497 191.702 135.922 191.661 136.253Z" fill="#00E9FF"/>
<path d="M187.37 137.586C187.633 137.346 188.057 137.165 188.406 137.087L189.491 136.761C189.843 136.652 190.775 136.369 191.119 136.272L191.71 136.281L191.216 136.616C190.872 136.713 189.94 136.996 189.589 137.105L188.504 137.432C188.177 137.555 187.726 137.64 187.363 137.598L187.37 137.586Z" fill="#00E9FF"/>
<path d="M155.389 187.327C168.429 187.327 179 152.003 179 108.43C179 64.8568 168.429 29.5336 155.389 29.5336C142.349 29.5336 131.778 64.8568 131.778 108.43C131.778 152.003 142.349 187.327 155.389 187.327Z" fill="#7E7E71" stroke="#2B140A" stroke-width="0.75" stroke-miterlimit="10"/>
<path d="M155.389 187.327C168.429 187.327 179 152.003 179 108.43C179 64.8568 168.429 29.5336 155.389 29.5336C142.349 29.5336 131.778 64.8568 131.778 108.43C131.778 152.003 142.349 187.327 155.389 187.327Z" fill="#7E7E71" stroke="#2B140A" stroke-width="0.75" stroke-miterlimit="10"/>
<path d="M155.312 53.991C164.182 53.991 171.412 78.1054 171.412 107.788C171.412 137.471 164.195 161.585 155.312 161.585C146.429 161.585 139.212 137.471 139.212 107.788C139.212 78.1054 146.429 53.991 155.312 53.991ZM155.312 52.9202C146.249 52.9202 138.892 77.4629 138.892 107.788C138.892 138.113 146.237 162.656 155.312 162.656C164.387 162.656 171.732 138.113 171.732 107.788C171.732 77.4629 164.387 52.9202 155.312 52.9202Z" fill="#42210B"/>
<path d="M155.357 48.7012C155.357 48.8154 155.31 48.8725 155.216 48.8725H155.139C155.139 48.8725 155.058 48.8725 154.896 48.8725C154.733 48.8582 154.569 48.8511 154.402 48.8511C154.107 48.8511 153.919 48.8582 153.838 48.8725C153.757 48.8868 153.693 48.8939 153.646 48.8939C153.543 48.8939 153.492 48.8297 153.492 48.7012C153.492 48.5727 153.522 48.5084 153.582 48.5084C153.676 48.5084 153.776 48.5013 153.883 48.487C154.015 48.4727 154.086 48.3657 154.094 48.1658C154.107 47.9516 154.114 47.5019 154.114 46.8166V36.7511C154.114 36.2942 154.109 36.0229 154.101 35.9372C154.092 35.8516 154.062 35.8088 154.011 35.8088C153.99 35.8088 153.851 35.8444 153.595 35.9158C153.543 35.9301 153.509 35.9372 153.492 35.9372C153.441 35.9372 153.415 35.8873 153.415 35.7873C153.415 35.6731 153.441 35.6089 153.492 35.5946C153.693 35.5232 153.896 35.3233 154.101 34.9949C154.306 34.6523 154.47 34.2525 154.594 33.7956C154.641 33.6672 154.673 33.6029 154.69 33.6029C154.725 33.6029 154.742 33.6743 154.742 33.8171V34.224C154.737 34.3382 154.735 34.4667 154.735 34.6095V47.4162C154.735 47.9302 154.742 48.23 154.755 48.3157C154.772 48.4014 154.825 48.4513 154.915 48.4656L155.062 48.487L155.171 48.5084H155.267C155.327 48.5084 155.357 48.5727 155.357 48.7012Z" fill="black"/>
<path d="M166.932 59.6664C166.932 59.7806 166.885 59.8378 166.791 59.8378H166.714C166.714 59.8378 166.633 59.8378 166.47 59.8378C166.308 59.8235 166.144 59.8163 165.977 59.8163C165.682 59.8163 165.494 59.8235 165.413 59.8378C165.332 59.852 165.268 59.8592 165.221 59.8592C165.118 59.8592 165.067 59.7949 165.067 59.6664C165.067 59.5379 165.097 59.4737 165.157 59.4737C165.251 59.4737 165.351 59.4665 165.458 59.4523C165.59 59.438 165.661 59.3309 165.669 59.131C165.682 58.9169 165.688 58.4671 165.688 57.7818V47.7163C165.688 47.2594 165.684 46.9882 165.676 46.9025C165.667 46.8168 165.637 46.774 165.586 46.774C165.565 46.774 165.426 46.8097 165.169 46.8811C165.118 46.8954 165.084 46.9025 165.067 46.9025C165.016 46.9025 164.99 46.8525 164.99 46.7526C164.99 46.6384 165.016 46.5741 165.067 46.5598C165.268 46.4884 165.471 46.2886 165.676 45.9602C165.881 45.6175 166.045 45.2178 166.169 44.7609C166.216 44.6324 166.248 44.5681 166.265 44.5681C166.299 44.5681 166.317 44.6395 166.317 44.7823V45.1892C166.312 45.3034 166.31 45.4319 166.31 45.5747V58.3815C166.31 58.8955 166.317 59.1953 166.329 59.2809C166.346 59.3666 166.4 59.4166 166.49 59.4309L166.637 59.4523L166.746 59.4737H166.842C166.902 59.4737 166.932 59.5379 166.932 59.6664Z" fill="black"/>
<path d="M174.174 77.9339C174.174 77.9768 174.17 78.091 174.161 78.2766C174.14 78.7477 174.106 79.9114 174.059 81.7674L174.052 82.0244C173.612 81.953 173.11 81.9173 172.546 81.9173C172.243 81.9173 171.958 81.9316 171.694 81.9601C171.429 81.9887 171.313 82.003 171.347 82.003C171.232 82.003 171.174 81.9316 171.174 81.7888C171.174 81.6746 171.286 81.3177 171.508 80.718C172.042 79.2617 172.422 78.0767 172.649 77.163C173.042 75.5782 173.238 73.715 173.238 71.5734C173.238 70.1314 173.148 69.0392 172.969 68.2967C172.832 67.7256 172.64 67.4401 172.392 67.4401C172.149 67.4401 171.956 67.69 171.815 68.1897C171.704 68.5751 171.649 68.9606 171.649 69.3461C171.649 69.5888 171.706 69.7173 171.822 69.7316C172.121 69.7744 172.27 70.2099 172.27 71.038C172.27 71.8232 172.146 72.2159 171.899 72.2159C171.741 72.2159 171.615 72.0517 171.521 71.7233C171.427 71.3949 171.38 70.9452 171.38 70.3741C171.38 69.3176 171.491 68.4681 171.713 67.8256C171.935 67.1831 172.228 66.8619 172.591 66.8619C172.954 66.8619 173.255 67.2474 173.495 68.0183C173.772 68.9178 173.911 70.0885 173.911 71.5306C173.911 73.1153 173.753 74.5788 173.437 75.9208C173.121 77.2486 172.589 78.6978 171.841 80.2683C172.123 80.2397 172.478 80.2255 172.905 80.2255C173.26 80.2255 173.484 80.2112 173.578 80.1826C173.672 80.1398 173.755 80.047 173.828 79.9042C173.888 79.7757 173.939 79.2974 173.982 78.4693C174.012 77.8982 174.054 77.6127 174.11 77.6127C174.153 77.6127 174.174 77.7198 174.174 77.9339Z" fill="black"/>
<path d="M176.779 107.778C176.779 109.081 176.621 110.196 176.306 111.123C175.959 112.144 175.514 112.654 174.974 112.654C174.532 112.654 174.208 112.308 174.001 111.617C173.869 111.178 173.804 110.675 173.804 110.11C173.804 109.623 173.848 109.238 173.938 108.955C174.032 108.657 174.156 108.508 174.311 108.508C174.433 108.508 174.534 108.626 174.614 108.861C174.694 109.097 174.734 109.395 174.734 109.756C174.734 110.306 174.624 110.738 174.403 111.052C174.314 111.178 174.269 111.303 174.269 111.429C174.269 111.633 174.33 111.822 174.452 111.994C174.574 112.151 174.708 112.23 174.854 112.23C175.211 112.23 175.5 111.822 175.721 111.005C175.947 110.188 176.06 109.12 176.06 107.801C176.06 105.147 175.702 103.82 174.988 103.82C174.918 103.82 174.866 103.828 174.833 103.843H174.784C174.722 103.843 174.692 103.773 174.692 103.631C174.692 103.521 174.748 103.435 174.861 103.372C175.19 103.215 175.444 102.815 175.623 102.171C175.801 101.511 175.89 100.671 175.89 99.6502C175.89 98.6451 175.813 97.8441 175.658 97.2473C175.503 96.6348 175.294 96.3286 175.03 96.3286C174.838 96.3286 174.668 96.4699 174.523 96.7526C174.382 97.0196 174.311 97.3337 174.311 97.6949C174.311 97.8362 174.344 97.9305 174.41 97.9776C174.72 98.2289 174.875 98.6608 174.875 99.2733C174.875 100.074 174.751 100.475 174.502 100.475C174.342 100.475 174.213 100.318 174.114 100.004C174.02 99.6894 173.973 99.2733 173.973 98.755C173.973 97.9069 174.081 97.2002 174.297 96.6348C174.518 96.0537 174.824 95.7632 175.214 95.7632C175.66 95.7632 176.001 96.1479 176.236 96.9175C176.471 97.687 176.588 98.5822 176.588 99.6031C176.588 101.017 176.389 102.061 175.989 102.736C175.848 102.972 175.62 103.168 175.305 103.325V103.49C175.695 103.537 176.01 103.828 176.25 104.362C176.602 105.147 176.779 106.286 176.779 107.778Z" fill="black"/>
<path d="M174.163 140.019C174.163 140.176 174.14 140.255 174.093 140.255C174.05 140.255 174.022 140.168 174.008 139.996C173.999 139.807 173.982 139.312 173.959 138.511C173.949 138.386 173.931 138.292 173.902 138.229C173.846 138.119 173.721 138.064 173.529 138.064C173.477 138.064 173.428 138.072 173.381 138.087L173.388 141.786C173.411 141.974 173.449 142.092 173.501 142.139C173.557 142.186 173.691 142.21 173.902 142.21C174.006 142.21 174.067 142.241 174.086 142.304C174.09 142.336 174.093 142.383 174.093 142.445C174.093 142.555 173.999 142.61 173.811 142.61C173.623 142.61 173.096 142.626 172.232 142.658C172.185 142.673 172.133 142.681 172.076 142.681C171.982 142.681 171.935 142.603 171.935 142.445C171.935 142.288 172.004 142.218 172.14 142.233C172.3 142.249 172.445 142.218 172.577 142.139C172.633 142.108 172.669 142.029 172.683 141.904C172.697 141.762 172.704 141.464 172.704 141.008V138.158C172.61 138.142 172.502 138.134 172.38 138.134H172.091C172.025 138.134 171.952 138.142 171.872 138.158C171.801 138.158 171.757 138.158 171.738 138.158L170.843 138.087C170.777 138.072 170.744 138.009 170.744 137.899C170.744 137.82 171.089 136.195 171.78 133.022C171.997 132.002 172.474 129.756 173.211 126.285C173.244 126.128 173.277 126.049 173.31 126.049C173.357 126.049 173.381 126.199 173.381 126.497V137.569H173.451C173.611 137.569 173.736 137.538 173.825 137.475C173.919 137.412 173.966 137.255 173.966 137.004C173.961 136.014 173.959 135.677 173.959 135.991C173.963 135.425 173.989 135.143 174.036 135.143C174.102 135.143 174.135 135.363 174.135 135.802V136.862L174.142 138.558C174.147 139.14 174.151 139.509 174.156 139.666C174.161 139.807 174.163 139.925 174.163 140.019ZM172.746 129.512C172.699 129.764 172.6 130.243 172.45 130.949C172.243 131.907 171.931 133.337 171.512 135.237L171.012 137.522C171.186 137.569 171.559 137.593 172.133 137.593C172.335 137.593 172.525 137.585 172.704 137.569V135.896C172.704 135.111 172.711 134.051 172.725 132.716C172.739 131.146 172.746 130.078 172.746 129.512Z" fill="black"/>
<path d="M167.425 167.346C167.425 169.173 167.216 170.573 166.797 171.544C166.545 172.129 166.218 172.422 165.817 172.422C165.415 172.422 165.12 172.072 164.932 171.372C164.83 170.987 164.778 170.53 164.778 170.002C164.778 169.559 164.821 169.202 164.906 168.931C164.992 168.645 165.103 168.502 165.24 168.502C165.351 168.502 165.443 168.61 165.515 168.824C165.592 169.038 165.631 169.302 165.631 169.616C165.631 170.144 165.526 170.544 165.317 170.815C165.223 170.93 165.176 171.058 165.176 171.201C165.176 171.429 165.238 171.636 165.362 171.822C165.49 171.993 165.631 172.079 165.785 172.079C166.084 172.079 166.308 171.736 166.457 171.051C166.663 170.109 166.765 168.838 166.765 167.239C166.765 166.068 166.684 165.162 166.522 164.519C166.359 163.877 166.128 163.555 165.829 163.555C165.599 163.555 165.344 163.848 165.067 164.433C165.092 161.221 165.112 159.194 165.124 158.351C165.129 157.866 165.161 157.573 165.221 157.473C165.28 157.359 165.443 157.302 165.708 157.302C165.75 157.302 165.823 157.302 165.926 157.302C166.028 157.316 166.109 157.323 166.169 157.323H166.387C166.682 157.323 166.853 157.309 166.9 157.28C166.951 157.238 166.983 157.116 166.996 156.916C167.013 156.588 167.043 156.424 167.086 156.424C167.128 156.424 167.15 156.502 167.15 156.659C167.15 156.759 167.148 156.838 167.143 156.895L167.13 157.388C167.109 158.187 167.064 158.687 166.996 158.887C166.932 159.072 166.772 159.165 166.515 159.165L165.291 159.144C165.274 159.629 165.259 161.093 165.246 163.534C165.49 163.163 165.744 162.977 166.009 162.977C166.449 162.977 166.795 163.37 167.047 164.155C167.299 164.926 167.425 165.99 167.425 167.346Z" fill="black"/>
<path d="M157.023 177.497C157.023 178.882 156.897 180.067 156.645 181.052C156.393 182.037 156.092 182.53 155.742 182.53C155.301 182.53 154.945 181.923 154.671 180.71C154.398 179.496 154.261 177.918 154.261 175.977C154.261 174.192 154.376 172.564 154.607 171.094C154.842 169.623 155.154 168.552 155.543 167.881C155.868 167.325 156.222 167.046 156.607 167.046C156.696 167.046 156.741 167.103 156.741 167.217C156.741 167.317 156.711 167.374 156.652 167.389C156.267 167.503 155.927 167.967 155.633 168.781C155.248 169.837 155.022 171.636 154.953 174.178C155.188 173.435 155.453 173.064 155.748 173.064C155.987 173.064 156.212 173.278 156.421 173.706C156.823 174.52 157.023 175.784 157.023 177.497ZM156.363 177.561C156.363 174.906 156.118 173.578 155.626 173.578C155.404 173.578 155.233 173.899 155.113 174.542C154.994 175.17 154.934 176.055 154.934 177.197C154.934 178.839 155.022 180.167 155.197 181.181C155.308 181.823 155.47 182.144 155.684 182.144C156.137 182.144 156.363 180.617 156.363 177.561Z" fill="black"/>
<path d="M146.397 158.394C146.397 158.48 146.149 159.815 145.654 162.399C145.376 163.855 145.186 164.997 145.083 165.825C144.981 166.639 144.929 167.453 144.929 168.267C144.929 168.681 144.959 169.495 145.019 170.708C145.041 171.136 145.051 171.501 145.051 171.8C145.051 172.814 144.938 173.321 144.712 173.321C144.442 173.321 144.308 172.543 144.308 170.987C144.308 169.545 144.506 167.646 144.904 165.29C145.156 163.805 145.483 162.077 145.884 160.107H144.91C144.406 160.107 144.115 160.114 144.039 160.129C143.945 160.143 143.878 160.193 143.84 160.279C143.806 160.364 143.78 160.486 143.763 160.643C143.75 160.785 143.716 161.285 143.66 162.142C143.643 162.313 143.618 162.399 143.584 162.399C143.541 162.399 143.519 162.313 143.519 162.142C143.519 161.97 143.53 161.692 143.551 161.307C143.598 160.436 143.628 159.693 143.641 159.079C143.65 158.637 143.678 158.33 143.725 158.158C143.754 158.158 143.842 158.173 143.987 158.201C144.312 158.258 144.547 158.287 144.692 158.287L146.019 158.244C146.053 158.244 146.089 158.237 146.128 158.223C146.162 158.223 146.183 158.223 146.192 158.223C146.329 158.223 146.397 158.28 146.397 158.394Z" fill="black"/>
<path d="M139.597 143.51C139.597 144.938 139.42 146.087 139.065 146.958C138.826 147.543 138.529 147.836 138.174 147.836C137.794 147.836 137.473 147.551 137.213 146.979C136.858 146.208 136.681 145.123 136.681 143.724C136.681 141.597 137.025 140.248 137.713 139.677V139.569C137.452 139.327 137.247 138.92 137.097 138.349C136.952 137.763 136.879 137.071 136.879 136.271C136.879 135.158 136.993 134.251 137.219 133.552C137.45 132.838 137.747 132.481 138.11 132.481C138.43 132.481 138.693 132.738 138.898 133.252C139.197 133.994 139.347 134.951 139.347 136.122C139.347 136.964 139.272 137.721 139.123 138.392C138.973 139.048 138.787 139.448 138.565 139.591L138.571 139.677C139.255 140.133 139.597 141.411 139.597 143.51ZM138.712 136.164C138.712 134.894 138.644 133.958 138.507 133.359C138.426 133.002 138.296 132.823 138.116 132.823C137.715 132.823 137.514 133.944 137.514 136.186C137.514 138.37 137.73 139.462 138.161 139.462C138.354 139.462 138.488 139.227 138.565 138.756C138.663 138.142 138.712 137.278 138.712 136.164ZM138.943 143.724C138.943 141.126 138.683 139.826 138.161 139.826C137.901 139.826 137.698 140.162 137.552 140.833C137.407 141.49 137.334 142.404 137.334 143.574C137.334 144.788 137.409 145.744 137.559 146.444C137.713 147.144 137.922 147.493 138.187 147.493C138.413 147.493 138.58 147.279 138.687 146.851C138.858 146.166 138.943 145.123 138.943 143.724Z" fill="black"/>
<path d="M136.897 102.59C136.897 104.648 136.753 106.516 136.467 108.197C136.185 109.862 135.813 111.016 135.353 111.66C135.014 112.131 134.676 112.367 134.338 112.367C134.215 112.367 134.154 112.312 134.154 112.202C134.154 112.107 134.187 112.045 134.253 112.013C135.047 111.668 135.592 110.348 135.889 108.056C136.006 107.129 136.088 105.951 136.135 104.522C135.877 105.339 135.585 105.747 135.261 105.747C134.951 105.747 134.669 105.433 134.415 104.805C134.044 103.894 133.858 102.551 133.858 100.776C133.858 99.2686 133.994 97.9886 134.267 96.9364C134.544 95.8684 134.878 95.3344 135.268 95.3344C135.748 95.3344 136.138 96.0098 136.438 97.3604C136.744 98.711 136.897 100.454 136.897 102.59ZM136.156 101.035C136.156 99.245 136.058 97.8315 135.86 96.795C135.724 96.0883 135.538 95.7349 135.303 95.7349C134.819 95.7349 134.577 97.4311 134.577 100.823C134.577 103.729 134.848 105.182 135.388 105.182C135.628 105.182 135.816 104.82 135.952 104.098C136.088 103.36 136.156 102.339 136.156 101.035Z" fill="black"/>
<path d="M138.45 80.1826C138.45 80.2968 138.403 80.3539 138.309 80.3539H138.232C138.232 80.3539 138.15 80.3539 137.988 80.3539C137.826 80.3397 137.661 80.3325 137.495 80.3325C137.2 80.3325 137.012 80.3397 136.931 80.3539C136.849 80.3682 136.785 80.3753 136.738 80.3753C136.636 80.3753 136.585 80.3111 136.585 80.1826C136.585 80.0541 136.614 79.9899 136.674 79.9899C136.768 79.9899 136.869 79.9827 136.975 79.9684C137.108 79.9542 137.178 79.8471 137.187 79.6472C137.2 79.433 137.206 78.9833 137.206 78.298V68.2325C137.206 67.7756 137.202 67.5043 137.193 67.4187C137.185 67.333 137.155 67.2902 137.104 67.2902C137.082 67.2902 136.943 67.3259 136.687 67.3972C136.636 67.4115 136.602 67.4187 136.585 67.4187C136.533 67.4187 136.508 67.3687 136.508 67.2688C136.508 67.1545 136.533 67.0903 136.585 67.076C136.785 67.0046 136.988 66.8047 137.193 66.4764C137.398 66.1337 137.563 65.7339 137.687 65.2771C137.734 65.1486 137.766 65.0843 137.783 65.0843C137.817 65.0843 137.834 65.1557 137.834 65.2985V65.7054C137.83 65.8196 137.828 65.9481 137.828 66.0909V78.8976C137.828 79.4116 137.834 79.7114 137.847 79.7971C137.864 79.8828 137.918 79.9327 138.007 79.947L138.155 79.9684L138.264 79.9899H138.36C138.42 79.9899 138.45 80.0541 138.45 80.1826Z" fill="black"/>
<path d="M145.333 58.3384C145.333 58.4526 145.286 58.5097 145.192 58.5097H145.115C145.115 58.5097 145.034 58.5097 144.872 58.5097C144.709 58.4954 144.545 58.4883 144.378 58.4883C144.083 58.4883 143.895 58.4954 143.814 58.5097C143.733 58.524 143.669 58.5311 143.622 58.5311C143.519 58.5311 143.468 58.4669 143.468 58.3384C143.468 58.2099 143.498 58.1456 143.558 58.1456C143.652 58.1456 143.752 58.1385 143.859 58.1242C143.991 58.1099 144.062 58.0029 144.071 57.803C144.083 57.5888 144.09 57.1391 144.09 56.4538V46.3883C144.09 45.9314 144.085 45.6601 144.077 45.5744C144.068 45.4888 144.038 45.446 143.987 45.446C143.966 45.446 143.827 45.4816 143.571 45.553C143.519 45.5673 143.485 45.5744 143.468 45.5744C143.417 45.5744 143.391 45.5245 143.391 45.4245C143.391 45.3103 143.417 45.2461 143.468 45.2318C143.669 45.1604 143.872 44.9605 144.077 44.6321C144.282 44.2895 144.447 43.8897 144.57 43.4328C144.617 43.3044 144.649 43.2401 144.667 43.2401C144.701 43.2401 144.718 43.3115 144.718 43.4543V43.8612C144.714 43.9754 144.711 44.1039 144.711 44.2467V57.0534C144.711 57.5674 144.718 57.8672 144.731 57.9529C144.748 58.0386 144.801 58.0885 144.891 58.1028L145.038 58.1242L145.147 58.1456H145.243C145.303 58.1456 145.333 58.2099 145.333 58.3384Z" fill="black"/>
<path d="M157.818 44.8249C157.818 44.8677 157.814 44.9819 157.805 45.1675C157.784 45.6387 157.75 46.8023 157.703 48.6584L157.696 48.9153C157.256 48.844 156.754 48.8083 156.19 48.8083C155.887 48.8083 155.602 48.8225 155.338 48.8511C155.073 48.8797 154.957 48.8939 154.991 48.8939C154.876 48.8939 154.818 48.8225 154.818 48.6798C154.818 48.5655 154.93 48.2086 155.152 47.609C155.686 46.1527 156.066 44.9677 156.293 44.0539C156.686 42.4691 156.882 40.6059 156.882 38.4643C156.882 37.0223 156.792 35.9301 156.613 35.1877C156.476 34.6166 156.284 34.331 156.036 34.331C155.793 34.331 155.6 34.5809 155.459 35.0806C155.348 35.4661 155.293 35.8516 155.293 36.2371C155.293 36.4798 155.35 36.6083 155.466 36.6226C155.765 36.6654 155.914 37.1009 155.914 37.9289C155.914 38.7142 155.79 39.1068 155.543 39.1068C155.385 39.1068 155.259 38.9426 155.165 38.6142C155.071 38.2859 155.024 37.8361 155.024 37.265C155.024 36.2085 155.135 35.359 155.357 34.7165C155.579 34.0741 155.872 33.7528 156.235 33.7528C156.598 33.7528 156.899 34.1383 157.139 34.9093C157.416 35.8088 157.555 36.9795 157.555 38.4215C157.555 40.0063 157.397 41.4697 157.081 42.8118C156.765 44.1396 156.233 45.5887 155.485 47.1592C155.767 47.1307 156.122 47.1164 156.549 47.1164C156.904 47.1164 157.128 47.1021 157.222 47.0736C157.316 47.0307 157.399 46.9379 157.472 46.7952C157.532 46.6667 157.583 46.1884 157.626 45.3603C157.656 44.7892 157.698 44.5036 157.754 44.5036C157.797 44.5036 157.818 44.6107 157.818 44.8249Z" fill="black"/>
<path d="M147 58.3384C147 58.4526 146.953 58.5097 146.859 58.5097H146.782C146.782 58.5097 146.7 58.5097 146.538 58.5097C146.376 58.4954 146.211 58.4883 146.045 58.4883C145.75 58.4883 145.562 58.4954 145.481 58.5097C145.399 58.524 145.335 58.5311 145.288 58.5311C145.186 58.5311 145.134 58.4669 145.134 58.3384C145.134 58.2099 145.164 58.1456 145.224 58.1456C145.318 58.1456 145.419 58.1385 145.525 58.1242C145.658 58.1099 145.728 58.0029 145.737 57.803C145.75 57.5888 145.756 57.1391 145.756 56.4538V46.3883C145.756 45.9314 145.752 45.6601 145.743 45.5744C145.735 45.4888 145.705 45.446 145.654 45.446C145.632 45.446 145.493 45.4816 145.237 45.553C145.186 45.5673 145.152 45.5744 145.134 45.5744C145.083 45.5744 145.058 45.5245 145.058 45.4245C145.058 45.3103 145.083 45.2461 145.134 45.2318C145.335 45.1604 145.538 44.9605 145.743 44.6321C145.948 44.2895 146.113 43.8897 146.237 43.4328C146.284 43.3044 146.316 43.2401 146.333 43.2401C146.367 43.2401 146.384 43.3115 146.384 43.4543V43.8612C146.38 43.9754 146.378 44.1039 146.378 44.2467V57.0534C146.378 57.5674 146.384 57.8672 146.397 57.9529C146.414 58.0386 146.468 58.0885 146.557 58.1028L146.705 58.1242L146.814 58.1456H146.91C146.97 58.1456 147 58.2099 147 58.3384Z" fill="black"/>
<path d="M140.981 73.1582C140.981 74.4288 140.924 75.6281 140.808 76.756C140.697 77.8839 140.543 78.7906 140.347 79.4759C140.137 80.2183 139.87 80.5895 139.546 80.5895C139.101 80.5895 138.734 79.8614 138.443 78.4051C138.157 76.9488 138.014 75.0856 138.014 72.8155C138.014 70.1885 138.217 68.1183 138.623 66.6049C138.866 65.6911 139.165 65.2342 139.52 65.2342C139.939 65.2342 140.272 65.8696 140.52 67.1403C140.827 68.7108 140.981 70.7167 140.981 73.1582ZM140.289 72.3872C140.289 70.2599 140.219 68.5037 140.078 67.1188C139.971 66.0623 139.783 65.5341 139.514 65.5341C138.975 65.5341 138.706 67.9255 138.706 72.7084C138.706 77.7198 138.99 80.2254 139.558 80.2254C139.823 80.2254 140.014 79.4973 140.129 78.041C140.236 76.7132 140.289 74.8286 140.289 72.3872Z" fill="black"/>
<path d="M155.312 111.3C154.722 111.3 154.248 109.715 154.248 107.745C154.248 105.775 154.722 104.19 155.312 104.19C155.901 104.19 156.376 105.775 156.376 107.745C156.376 109.715 155.901 111.3 155.312 111.3Z" fill="black"/>
<path d="M155.312 105.389C155.697 105.389 156.017 106.46 156.017 107.745C156.017 109.03 155.697 110.101 155.312 110.101C154.928 110.101 154.607 109.03 154.607 107.745C154.607 106.46 154.928 105.389 155.312 105.389ZM155.312 103.033C154.53 103.033 153.902 105.132 153.902 107.745C153.902 110.358 154.53 112.456 155.312 112.456C156.094 112.456 156.722 110.358 156.722 107.745C156.722 105.132 156.094 103.033 155.312 103.033Z" fill="black"/>
<path d="M148.723 120.594L151.902 119.138L152.505 113.57L150.787 112.328L148.723 120.594Z" fill="black" stroke="#1A1A1A" stroke-width="0.05" stroke-miterlimit="10"/>
<path d="M154.017 110.786L153.556 116.054L151.979 114.598L152.466 109.458L154.017 110.786Z" fill="black" stroke="#1A1A1A" stroke-width="0.05" stroke-miterlimit="10"/>
<path d="M166.336 87.9993C166.336 87.9993 168.31 85.9434 169.271 88.5989C169.271 88.5989 169.425 81.3175 172.129 76.6917C172.129 76.6917 169.566 82.5168 167.605 78.6191C167.605 78.6191 167.31 83.8018 166.143 86.5858L166.348 87.9993H166.336Z" fill="black" stroke="black" stroke-width="0.05" stroke-miterlimit="10"/>
<path d="M164.772 85.9434L162.298 92.5395L163.465 92.7965L163.093 96.6514L165.99 92.5395L166.874 86.5002L164.772 85.9434Z" fill="black" stroke="black" stroke-width="0.05" stroke-miterlimit="10"/>
<path d="M156.671 104.018L161.862 91.383L164.297 91.2974L162.99 98.1505L157.094 106.374C157.055 105.989 156.748 104.275 156.683 104.018H156.671Z" fill="black" stroke="#1A1A1A" stroke-width="0.05" stroke-miterlimit="10"/>
<path d="M167.245 90.612C166.656 88.6846 166.233 86.3716 166.015 83.7161C166.605 85.6435 167.015 87.9564 167.245 90.612Z" fill="#1A1A1A"/>
<path d="M151.416 87.9564L151.967 97.4223L153.492 98.9642L153.748 93.7387L151.416 87.9564Z" fill="black" stroke="#1A1A1A" stroke-width="0.05" stroke-miterlimit="10"/>
<path d="M154.312 103.333L152.877 102.219L153.197 97.4222L154.594 98.6215L154.312 103.333Z" fill="black" stroke="#1A1A1A" stroke-width="0.05" stroke-miterlimit="10"/>
<path d="M155.966 112.842L156.453 119.524L157.927 120.851L158.196 115.712L156.594 111.514C156.53 111.771 156.055 112.713 155.966 112.842Z" fill="black" stroke="#1A1A1A" stroke-width="0.05" stroke-miterlimit="10"/>
<path d="M157.517 121.708C157.517 121.708 157.748 128.476 157.107 131.559C157.107 131.559 160.055 131.302 161.516 138.927C161.516 138.927 160.106 129.247 160.991 123.079C160.991 123.079 159.055 123.421 158.235 120.209L157.53 121.708H157.517Z" fill="black" stroke="#1A1A1A" stroke-width="0.05" stroke-miterlimit="10"/>
<path d="M157.004 122.436C157.427 120.337 158.017 119.095 158.76 118.71C158.337 120.809 157.735 122.051 157.004 122.436Z" fill="#1A1A1A"/>
</g>
<defs>
<linearGradient id="paint0_linear_312_845" x1="203.091" y1="107.337" x2="213.512" y2="170.577" gradientUnits="userSpaceOnUse">
<stop stop-color="#4D607A"/>
<stop offset="0.17" stop-color="#455E7B"/>
<stop offset="0.41" stop-color="#305B7F"/>
<stop offset="0.72" stop-color="#0E5785"/>
<stop offset="0.82" stop-color="#005588"/>
</linearGradient>
<radialGradient id="paint1_radial_312_845" cx="0" cy="0" r="1" gradientUnits="userSpaceOnUse" gradientTransform="translate(213.118 139.77) rotate(29.2585) scale(17.908 17.9008)">
<stop offset="0.45" stop-color="#00FFFF"/>
<stop offset="0.61" stop-color="#00FBFF"/>
<stop offset="0.75" stop-color="#00F0FF"/>
<stop offset="0.89" stop-color="#00DEFF"/>
<stop offset="1" stop-color="#00CAFF"/>
</radialGradient>
<clipPath id="clip0_312_845">
<rect width="405" height="219" fill="white"/>
</clipPath>
</defs>
</svg>
