<svg width="201" height="331" viewBox="0 0 201 331" fill="none" xmlns="http://www.w3.org/2000/svg">
<g clip-path="url(#clip0_506_6446)">
<path d="M9.52899 292.275C7.99351 295.024 6.98388 300.083 8.51936 301.636C11.8638 305.057 24.5472 296.913 30.9415 300.838C33.4866 302.392 35.4848 306.128 34.0125 315.3H61.9665C62.8289 316.937 66.636 323.675 75.7858 327.075C83.6735 329.992 90.7619 328.649 92.9915 328.145C92.3815 323.989 96.1466 320.589 100.059 320.652C103.866 320.715 107.421 324.094 106.811 328.145C109.798 328.565 114.446 328.859 119.705 327.6C131.42 324.829 137.31 316.622 138.761 314.481C147.49 314.397 156.198 314.292 164.928 314.209C167.788 304.113 171.658 300.964 175.024 300.293C180.03 299.264 184.321 303.63 188.233 301.909C191.388 300.524 192.124 296.137 192.187 292.275C131.378 292.904 70.338 291.645 9.50795 292.275H9.52899Z" fill="#603813" stroke="#D2A329" stroke-width="4" stroke-miterlimit="10"/>
<path d="M190.967 38.7253C192.503 35.9757 193.512 30.9173 191.977 29.3641C188.632 25.9429 175.949 34.0867 169.555 30.1617C167.009 28.6085 165.011 24.8724 166.484 15.7001H138.53C137.667 14.063 133.86 7.32543 124.71 3.92517C116.823 1.00767 109.734 2.35098 107.504 2.85472C108.114 7.01059 104.349 10.4108 100.437 10.3479C96.63 10.2849 93.0752 6.90564 93.6852 2.85472C90.6984 2.43494 86.0499 2.14109 80.7914 3.40044C69.0755 6.17102 63.1861 14.3778 61.7347 16.5187C53.0056 16.6027 44.2976 16.7076 35.5685 16.7916C32.7079 26.8874 28.8377 30.0358 25.4723 30.7074C20.4662 31.7359 16.1753 27.3701 12.263 29.0913C9.10788 30.4765 8.3717 34.8633 8.30859 38.7253C69.1176 38.0956 130.158 39.355 190.988 38.7253H190.967Z" fill="#603813" stroke="#D2A329" stroke-width="4" stroke-miterlimit="10"/>
<path d="M193.323 292.275H9.52838C6.20502 255.229 2.31375 215.056 2.10341 172.175C1.87204 124.256 4.62748 79.4862 8.26635 38.7251C70.1271 38.7251 129.085 38.7251 190.946 38.7251C194.206 75.5612 198.644 115.588 198.876 158.091C199.128 206.303 196.94 251.199 193.302 292.275H193.323Z" fill="#603813" stroke="#D2A329" stroke-width="4" stroke-miterlimit="10"/>
<path d="M189.894 295.234L10.6641 294.878C11.0427 294.059 11.0216 293.03 11.2951 291.687C11.4844 290.743 11.4002 289.735 11.3161 289.084C41.3105 289.357 70.5897 289.609 100.584 289.924C131.104 290.239 161.12 289.861 191.408 289.924C191.514 290.995 190.525 290.68 190.462 291.708C190.378 292.779 190.083 294.416 189.894 295.213V295.234Z" fill="#603813"/>
<path d="M189.052 41.0131L10.2849 41.3909C10.1797 39.6698 10.3059 38.3055 10.4532 37.34C10.6425 36.1436 11.0421 34.3176 11.1052 34.3386C40.5737 34.5904 71.3674 35.2411 100.836 35.5769C130.388 35.9337 160.362 36.2696 189.683 36.3325C189.578 36.6054 188.758 40.8032 189.031 41.0131H189.052Z" fill="#603813"/>
<path d="M101.719 289.924C144.062 289.924 178.388 235.27 178.388 167.851C178.388 100.431 144.062 45.7773 101.719 45.7773C59.3765 45.7773 25.0508 100.431 25.0508 167.851C25.0508 235.27 59.3765 289.924 101.719 289.924Z" fill="url(#paint0_linear_506_6446)" stroke="#D2AD29" stroke-width="4" stroke-miterlimit="10"/>
<g opacity="0.8">
<path d="M162.657 233.828C158.379 231.469 149.849 227.102 141.318 225.987C134.944 225.154 130.128 225.749 128.562 225.925C119.998 226.886 102.003 227.247 61.5068 225C50.9204 227.661 48.5861 226.716 37.9997 229.377C37.8657 229.725 41.4995 238.377 44.4995 244.377C47.4995 250.377 48.5459 251.449 52.0001 256.877C62.5001 273.377 76 281.149 82 283.877C87.5 286.377 100.5 290.877 115.5 286.377C123.5 284.377 131.68 278.734 133 277.377C136.5 275.377 142 270.877 152 256.377C161.212 243.02 163.5 235 163.5 235C163.568 234.921 162.932 234.077 163 234L162.657 233.826V233.828Z" fill="#1B1464"/>
<path d="M71.0491 215.078L60.5467 171.026C60.4036 170.422 60.3377 169.803 60.3514 169.184C60.833 146.77 81.5878 129.417 104.183 131.004C125.503 132.501 142.746 150.462 141.719 171.57C141.689 172.154 141.592 172.733 141.424 173.297C137.646 185.984 133.87 198.671 130.092 211.357C129.783 212.397 129.24 213.366 128.504 214.199L113.931 230.668C112.361 232.441 110.021 233.47 107.554 233.47H96.3224C94.4959 233.47 92.7217 232.906 91.2768 231.868L74.0728 219.51C72.5394 218.409 71.4694 216.84 71.0513 215.08L71.0491 215.078Z" fill="#FFE8D4"/>
<path d="M93.4662 162.56C86.3351 162.49 79.2041 162.419 72.073 162.349L66.7344 166.437L95.0496 165.536L93.4662 162.56Z" fill="#460000"/>
<path d="M109.63 162.56C116.761 162.49 123.892 162.419 131.023 162.349L136.362 166.437L108.047 165.536L109.63 162.56Z" fill="#460000"/>
<g opacity="0.9">
<path d="M63.1754 182.057L65.2132 163.808C65.2768 163.231 65.4971 162.68 65.8538 162.205L72.6668 153.082C73.1961 152.373 74.0594 151.946 74.9886 151.932L128.427 151.181L137.421 164.396L138.573 181.447L141.424 173.303L139.729 146.687L121.026 129.106L92.5379 125.693L64.518 139.268L57.0371 157.887L63.1777 182.059L63.1754 182.057Z" fill="#460000"/>
</g>
<path opacity="0.82" d="M93.9971 176.699C94.4469 176.368 95.0671 175.798 95.0534 175.104C95.0375 174.337 94.2583 173.837 93.3269 173.128C92.4341 172.449 91.2437 171.46 89.9147 170.086H78.147L68.7578 175.104C71.8451 176.613 74.9347 178.124 78.0221 179.633C80.2029 178.963 82.6701 178.322 85.4007 177.8C88.5403 177.199 91.4345 176.868 93.9971 176.699Z" fill="white"/>
<path d="M78.2412 170.083C77.7096 173.548 80.6061 176.458 83.6866 176.463C86.7694 176.465 89.6749 173.553 89.1433 170.083H78.2412Z" fill="#42210B"/>
<path opacity="0.82" d="M108.648 177.018C108.203 176.712 107.578 176.179 107.546 175.483C107.51 174.716 108.21 174.174 109.043 173.414C109.838 172.689 110.897 171.636 112.058 170.191C115.759 169.975 119.459 169.762 123.158 169.546L132.349 174.04C129.537 175.716 126.724 177.393 123.912 179.067C121.806 178.474 119.362 177.924 116.622 177.54C113.657 177.126 110.968 176.998 108.644 177.014L108.648 177.018Z" fill="white"/>
<path d="M123.991 169.5C124.752 172.928 122.056 176.001 118.984 176.181C115.909 176.364 112.812 173.624 113.112 170.13C116.738 169.919 120.366 169.709 123.991 169.498V169.5Z" fill="#42210B"/>
<path opacity="0.35" d="M66.4648 195.871L91.2043 231.82L73.5868 219.162C72.3646 218.283 71.5104 217.034 71.1765 215.629L66.4648 195.869V195.871Z" fill="#C59B6D"/>
<path opacity="0.35" d="M136.147 191.002L113.264 231.415L129.616 212.935L136.147 191.002Z" fill="#C59B6D"/>
<path d="M60.291 170.232C57.7761 166.436 53.5052 167.203 53.219 167.617C52.9441 168.015 52.8078 168.48 52.7919 168.954C52.6874 172.031 52.9191 175.968 54.13 180.365C56.6993 189.686 63.2874 193.792 66.4679 196.852C64.9004 187.921 62.172 178.841 60.291 170.234V170.232Z" fill="#FFE5D1"/>
<path d="M70.8948 215.025L60.3924 170.973C60.2493 170.37 60.1834 169.751 60.1971 169.132C60.6787 146.717 81.4335 129.365 104.028 130.951C125.349 132.449 142.592 150.409 141.565 171.517C141.535 172.101 141.437 172.681 141.269 173.245C137.491 185.931 133.716 198.618 129.938 211.304C129.629 212.344 129.086 213.313 128.35 214.146L113.777 230.615C112.207 232.389 109.867 233.417 107.4 233.417H96.1681C94.3416 233.417 92.5674 232.853 91.1225 231.816L73.9185 219.457C72.3851 218.356 71.3151 216.787 70.8971 215.027L70.8948 215.025Z" fill="#FFE8D4"/>
<path d="M107.398 233.692H96.1665C94.2855 233.692 92.4295 233.102 90.9392 232.034L73.7352 219.673C72.1495 218.534 71.0386 216.904 70.6047 215.084L60.1023 171.033C59.9547 170.409 59.8865 169.766 59.9001 169.125C60.1319 158.337 65.2161 147.953 73.851 140.637C82.2225 133.546 93.2246 129.913 104.05 130.673C125.92 132.208 142.881 150.537 141.858 171.528C141.829 172.134 141.727 172.735 141.554 173.317L130.222 211.375C129.9 212.458 129.346 213.45 128.578 214.318L114.002 230.789C112.371 232.633 109.963 233.692 107.398 233.692ZM101.21 131.127C91.4708 131.127 81.7795 134.665 74.2486 141.047C65.734 148.261 60.7202 158.498 60.4908 169.136C60.4772 169.733 60.5408 170.332 60.6794 170.914L71.1817 214.963C71.5861 216.657 72.6197 218.175 74.0964 219.235L91.3004 231.595C92.6862 232.591 94.415 233.139 96.1665 233.139H107.398C109.786 233.139 112.026 232.155 113.545 230.439L128.121 213.97C128.837 213.161 129.352 212.238 129.652 211.229L140.984 173.169C141.145 172.63 141.241 172.068 141.268 171.504C142.274 150.808 125.559 132.739 104.006 131.226C103.077 131.16 102.144 131.129 101.214 131.129L101.21 131.127Z" fill="black"/>
<path d="M93.3177 162.505C86.1867 162.434 79.0556 162.364 71.9246 162.293L66.5859 166.382L94.9012 165.481L93.3177 162.505Z" fill="#460000"/>
<path d="M65.7227 166.686L71.8201 162.018L93.504 162.232L95.3737 165.743L65.7249 166.686H65.7227ZM72.0291 162.571L67.4492 166.078L94.4309 165.221L93.1314 162.78L72.0268 162.571H72.0291Z" fill="black"/>
<path d="M109.482 162.505C116.613 162.434 123.744 162.364 130.875 162.293L136.214 166.382L107.898 165.481L109.482 162.505Z" fill="#460000"/>
<path d="M137.076 166.686L107.428 165.743L109.297 162.232L130.981 162.018L137.079 166.686H137.076ZM108.368 165.221L135.35 166.078L130.77 162.571L109.665 162.78L108.366 165.221H108.368Z" fill="black"/>
<g opacity="0.9">
<path d="M63.0214 182.001L65.0592 163.752C65.1228 163.175 65.3432 162.624 65.6998 162.148L72.5128 153.026C73.0422 152.317 73.9054 151.889 74.8346 151.876L128.273 151.125L137.267 164.34L138.419 181.391L141.27 173.246L139.575 146.631L120.872 129.049L92.3817 125.635L64.3618 139.209L56.8809 157.828L63.0214 182.001Z" fill="#460000"/>
</g>
<path d="M93.7736 176.557C95.0412 174.998 94.1757 174.652 92.69 173.762C91.3224 172.887 90.057 171.859 88.9802 170.687L89.7617 171.01C85.8497 170.687 81.9332 169.988 77.9939 170.64L78.3211 170.559C75.4359 172.59 72.3827 174.418 69.2318 176.066L69.1909 174.006C70.7175 174.797 72.2055 175.652 73.6662 176.549C75.1224 177.458 76.565 178.395 77.9235 179.478L77.8145 179.675C74.4023 178.793 71.19 177.516 68.0209 176.088L66.0059 175.159C69.7066 172.989 73.6344 171.066 77.6691 169.499L77.8985 169.407C78.9117 169.521 79.9249 169.623 80.9381 169.667C84.0527 169.9 87.1105 169.112 90.2001 169.034L90.5454 169.371C91.62 170.42 92.6718 171.477 93.8008 172.486C94.805 173.328 96.1885 174.742 94.9958 176.011C94.6823 176.353 94.3052 176.568 93.9212 176.731L93.7736 176.557Z" fill="black"/>
<path opacity="0.82" d="M93.8467 176.646C94.2965 176.315 94.9167 175.745 94.9031 175.051C94.8871 174.284 94.1079 173.784 93.1765 173.075C92.2837 172.396 91.0933 171.407 89.7643 170.032H77.9966L68.6074 175.051C71.6947 176.56 74.7843 178.071 77.8717 179.58C80.0526 178.91 82.5197 178.269 85.2503 177.747C88.3899 177.146 91.2841 176.815 93.8467 176.646Z" fill="white"/>
<path d="M78.0927 170.03C77.5611 173.495 80.4576 176.406 83.5381 176.41C86.6209 176.412 89.5265 173.5 88.9949 170.03H78.0927Z" fill="#42210B"/>
<path d="M83.5407 176.685H83.5362C81.9755 176.685 80.4307 175.987 79.3039 174.773C78.084 173.46 77.5342 171.715 77.8 169.991L77.8363 169.753H89.2519L89.2883 169.991C89.5541 171.718 89.002 173.462 87.7776 174.775C86.6462 175.989 85.1037 176.685 83.5407 176.685ZM78.3543 170.306C78.1953 171.793 78.6973 173.277 79.7514 174.41C80.7669 175.502 82.1459 176.13 83.5362 176.132H83.5407C84.931 176.132 86.3123 175.507 87.33 174.414C88.3864 173.282 88.8884 171.795 88.7317 170.306H78.3566H78.3543Z" fill="black"/>
<path d="M108.489 177.053C105.936 176.079 106.733 174.242 108.326 172.81C109.384 171.737 110.363 170.623 111.368 169.513L111.69 169.156C113.801 169.054 115.927 169.378 118.04 169.4C120.043 169.416 122.024 169.162 123.994 168.814C127.492 169.935 130.905 171.297 134.201 172.852L136.246 173.863C134.128 175.011 131.863 176.207 129.651 177.17C128.063 177.864 126.459 178.531 124.762 179.058L124.639 178.868C127.211 176.599 130.044 174.694 132.99 172.901L133.086 174.958C129.832 173.495 126.661 171.848 123.646 169.988L123.978 170.05C120.002 169.629 116.141 170.55 112.258 171.101L113.017 170.731C112.022 171.964 110.827 173.064 109.521 174.015C108.103 174.985 107.251 175.388 108.626 176.868L108.491 177.049L108.489 177.053Z" fill="black"/>
<path opacity="0.82" d="M108.498 176.965C108.052 176.659 107.428 176.126 107.396 175.43C107.36 174.663 108.059 174.121 108.893 173.361C109.688 172.636 110.747 171.583 111.908 170.138C115.608 169.922 119.309 169.709 123.007 169.493L132.199 173.987C129.387 175.663 126.574 177.339 123.762 179.014C121.656 178.421 119.211 177.87 116.472 177.487C113.507 177.073 110.817 176.945 108.493 176.961L108.498 176.965Z" fill="white"/>
<path d="M123.839 169.446C124.6 172.874 121.904 175.947 118.832 176.128C115.756 176.311 112.66 173.57 112.96 170.076C116.585 169.865 120.213 169.656 123.839 169.444V169.446Z" fill="#42210B"/>
<path d="M118.538 176.414C117.08 176.414 115.619 175.817 114.49 174.747C113.179 173.506 112.513 171.797 112.663 170.057L112.684 169.819L124.077 169.158L124.129 169.391C124.508 171.096 124.077 172.87 122.945 174.251C121.9 175.529 120.408 176.313 118.849 176.405C118.745 176.412 118.64 176.414 118.538 176.414ZM113.24 170.338C113.181 171.834 113.783 173.288 114.915 174.359C116.005 175.392 117.43 175.936 118.815 175.855C120.203 175.773 121.537 175.066 122.477 173.916C123.452 172.724 123.854 171.213 123.597 169.737L113.24 170.338Z" fill="black"/>
<path d="M98.2869 172.641C99.0343 175.194 99.107 177.864 98.823 180.481C98.739 184.834 98.1392 189.345 96.0174 193.275L95.9629 193.256C97.2419 188.198 99.057 183.104 98.5027 177.864L98.2301 172.647L98.2892 172.638L98.2869 172.641Z" fill="black"/>
<path d="M99.8058 201.983C98.7789 201.983 97.8975 201.43 97.5817 201.232C95.996 200.234 95.2759 198.877 95.2463 198.82C94.3581 197.346 93.2654 196.494 92.3885 195.809C91.4343 195.064 90.6801 194.474 90.8119 193.482C90.9164 192.698 91.5706 191.969 92.7542 191.321L93.0541 191.797C92.0386 192.354 91.4798 192.945 91.4003 193.551C91.3117 194.212 91.8092 194.634 92.7701 195.383C93.6834 196.097 94.8215 196.985 95.7734 198.562C95.787 198.589 96.4663 199.86 97.9134 200.772C98.2564 200.988 99.1697 201.565 100.149 201.402C101.173 201.232 102.48 199.814 103.436 198.778C103.852 198.327 104.213 197.937 104.522 197.666C105.683 196.646 106.698 196.104 107.516 195.665C108.763 195 109.279 194.723 108.995 193.48C108.813 192.678 107.827 191.965 106.067 191.359L106.271 190.841C108.264 191.526 109.343 192.352 109.574 193.366C109.947 195.005 109.097 195.458 107.811 196.146C107.023 196.566 106.039 197.093 104.931 198.067C104.645 198.318 104.277 198.716 103.888 199.137C102.818 200.296 101.487 201.741 100.256 201.944C100.106 201.968 99.9557 201.979 99.8103 201.979L99.8058 201.983Z" fill="black"/>
<path opacity="0.35" d="M66.3164 195.817L91.0559 231.767L73.4384 219.109C72.2162 218.23 71.362 216.981 71.028 215.575L66.3164 195.815V195.817Z" fill="#C59B6D"/>
<path opacity="0.35" d="M135.996 190.949L113.115 231.361L129.467 212.881L135.996 190.949Z" fill="#C59B6D"/>
<path d="M101.015 178.388C101.335 180.276 101.397 182.135 101.537 184.025C102.144 187.125 103.473 190.011 104.379 193.055L104.325 193.077C102.43 190.381 101.792 187.191 101.347 184.052C100.908 182.245 100.506 180.137 101.015 178.388Z" fill="black"/>
<path d="M60.1367 170.178C57.6218 166.382 53.3509 167.149 53.0647 167.563C52.7898 167.962 52.6535 168.427 52.6376 168.9C52.5331 171.978 52.7648 175.914 53.9757 180.311C56.545 189.632 63.1331 193.738 66.3136 196.798C64.7461 187.867 62.0177 178.787 60.1367 170.18V170.178Z" fill="#FFE5D1"/>
<path d="M66.7598 197.622L66.101 196.99C65.5399 196.45 64.8584 195.864 64.1337 195.245C60.6261 192.238 55.8236 188.123 53.6904 180.38C52.6636 176.65 52.2092 172.786 52.3432 168.891C52.3614 168.347 52.525 167.836 52.818 167.413C53.0429 167.087 53.9675 166.922 54.7922 166.931C55.8645 166.94 58.5542 167.261 60.3921 170.03L60.4307 170.121C61.1713 173.506 62.0596 177.042 62.9228 180.463C64.2677 185.805 65.658 191.326 66.6099 196.752L66.7621 197.622H66.7598ZM54.7331 167.484C53.9494 167.484 53.4019 167.642 53.2974 167.73C53.0793 168.05 52.9475 168.464 52.9339 168.909C52.8021 172.751 53.2497 176.564 54.2629 180.243C56.3529 187.825 61.0804 191.879 64.5335 194.837C65.0015 195.238 65.4536 195.626 65.8693 195.998C64.9265 190.863 63.6134 185.647 62.3413 180.591C61.4825 177.183 60.5965 173.661 59.8559 170.281C58.5315 168.312 56.7732 167.702 55.5282 167.537C55.2443 167.499 54.9762 167.484 54.7331 167.484Z" fill="black"/>
<path d="M62.8905 190.705C57.4656 185.792 55.7459 181.741 54.694 178.097C53.9103 175.379 53.0061 169.854 54.4669 169.405C55.3687 169.131 56.65 170.687 58.6946 173.667C59.4761 174.806 60.019 175.797 60.3803 176.452C61.0527 177.677 61.6638 178.95 62.1977 180.236L61.6456 180.435C61.1186 179.166 60.5166 177.91 59.8532 176.703C59.4988 176.055 58.9604 175.079 58.1948 173.962C57.4769 172.916 55.3051 169.735 54.6509 169.927C54.0625 170.107 54.1057 173.934 55.2642 177.952C56.2934 181.521 57.979 185.488 63.2995 190.308L62.886 190.705H62.8905Z" fill="black"/>
<path d="M55.6237 176.284C55.3215 175.196 55.2761 174.094 55.4896 173.015C55.6328 172.288 55.869 171.343 56.1076 170.869L56.646 171.101C56.4324 171.528 56.2052 172.453 56.0735 173.114C55.8758 174.114 55.919 175.134 56.1984 176.145L55.6237 176.284Z" fill="black"/>
<path d="M62.9497 185.395C62.9201 185.38 60.0464 183.587 59.8964 180.71C59.8328 179.472 60.3076 178.782 60.6234 178.328L60.7211 178.185L61.2254 178.476L61.1209 178.628C60.8301 179.049 60.4325 179.624 60.4871 180.683C60.6211 183.252 63.2132 184.902 63.2404 184.915L62.9474 185.395H62.9497Z" fill="black"/>
<path d="M90.1543 211.886L93.7846 209.568C94.0981 209.368 94.4706 209.26 94.85 209.26H106.493C107.188 209.26 107.86 209.476 108.41 209.872L111.195 211.886H90.1543Z" fill="#FFC3B4"/>
<path d="M112.06 212.161H89.1973L93.6158 209.339C93.9816 209.106 94.4064 208.984 94.8494 208.984H106.492C107.249 208.984 107.994 209.222 108.591 209.654L112.06 212.161ZM91.1101 211.608H110.329L108.228 210.09C107.735 209.733 107.117 209.537 106.492 209.537H94.8494C94.5268 209.537 94.2156 209.628 93.9498 209.797L91.1078 211.61L91.1101 211.608Z" fill="black"/>
<path opacity="0.35" d="M90.2991 211.939C93.107 212.879 96.367 213.926 99.1749 214.866H102.462C105.572 213.926 108.23 212.879 111.338 211.939H90.2969H90.2991Z" fill="#C5806D"/>
<path opacity="0.35" d="M63.2444 190.562C60.0662 187.742 58.2669 184.907 57.2833 183.05C56.9516 182.426 55.8907 180.358 55.1319 177.443C54.4481 174.813 53.6416 170.072 54.7094 169.72C55.7726 169.37 58.3374 173.482 59.2688 174.976C60.1275 176.353 60.7341 177.551 61.1226 178.384C60.9476 178.606 60.775 178.829 60.6 179.051C60.416 179.565 60.2297 180.349 60.357 181.276C60.6909 183.691 62.8809 184.999 63.2421 185.208V190.562H63.2444Z" fill="#C59B6D"/>
</g>
</g>
<defs>
<linearGradient id="paint0_linear_506_6446" x1="178.787" y1="58.7696" x2="38.2869" y2="280.476" gradientUnits="userSpaceOnUse">
<stop offset="0.15625" stop-color="#F1F6F7"/>
<stop offset="0.46875" stop-color="#C3F8FC"/>
<stop offset="0.760417" stop-color="#EFF3F3"/>
</linearGradient>
<clipPath id="clip0_506_6446">
<rect width="201" height="331" fill="white"/>
</clipPath>
</defs>
</svg>
