<svg width="201" height="331" viewBox="0 0 201 331" fill="none" xmlns="http://www.w3.org/2000/svg">
<g clip-path="url(#clip0_506_6446)">
<path d="M12.4391 293.17C10.9037 295.919 9.89404 300.978 11.4295 302.531C14.7739 305.952 27.4574 297.808 33.8517 301.733C36.3968 303.287 38.395 307.023 36.9226 316.195H64.8767C65.7391 317.832 69.5462 324.57 78.6959 327.97C86.5837 330.887 93.6721 329.544 95.9017 329.04C95.2917 324.885 99.0568 321.484 102.969 321.547C106.776 321.61 110.331 324.989 109.721 329.04C112.708 329.46 117.356 329.754 122.615 328.495C134.331 325.724 140.22 317.517 141.671 315.376C150.401 315.292 159.109 315.187 167.838 315.104C170.698 305.008 174.568 301.859 177.934 301.188C182.94 300.159 187.231 304.525 191.143 302.804C194.298 301.419 195.035 297.032 195.098 293.17C134.289 293.799 73.2482 292.54 12.4181 293.17H12.4391Z" fill="#603813" stroke="#D2A329" stroke-width="4" stroke-miterlimit="10"/>
<path d="M193.877 39.6203C195.413 36.8707 196.422 31.8123 194.887 30.2591C191.542 26.8379 178.859 34.9817 172.465 31.0567C169.92 29.5035 167.921 25.7674 169.394 16.5951H141.44C140.577 14.958 136.77 8.22045 127.62 4.82019C119.733 1.90269 112.644 3.246 110.415 3.74974C111.025 7.90561 107.26 11.3059 103.347 11.2429C99.5401 11.1799 95.9854 7.80066 96.5954 3.74974C93.6086 3.32996 88.9601 3.03611 83.7016 4.29546C71.9857 7.06604 66.0962 15.2728 64.6449 17.4137C55.9158 17.4977 47.2078 17.6026 38.4787 17.6866C35.6181 27.7824 31.7478 30.9308 28.3824 31.6024C23.3763 32.6309 19.0854 28.2652 15.1731 29.9863C12.018 31.3716 11.2819 35.7583 11.2188 39.6203C72.0278 38.9907 133.068 40.25 193.898 39.6203H193.877Z" fill="#603813" stroke="#D2A329" stroke-width="4" stroke-miterlimit="10"/>
<path d="M196.233 293.17H12.4385C9.11518 256.124 5.22391 215.951 5.01357 173.07C4.78219 125.151 7.53764 80.3812 11.1765 39.6201C73.0372 39.6201 131.995 39.6201 193.856 39.6201C197.116 76.4562 201.554 116.483 201.786 158.986C202.038 207.198 199.851 252.094 196.212 293.17H196.233Z" fill="#603813" stroke="#D2A329" stroke-width="4" stroke-miterlimit="10"/>
<path d="M192.804 296.129L13.5742 295.773C13.9528 294.954 13.9318 293.925 14.2052 292.582C14.3945 291.638 14.3104 290.63 14.2263 289.979C44.2206 290.252 73.4998 290.504 103.494 290.819C134.014 291.134 164.03 290.756 194.319 290.819C194.424 291.89 193.435 291.575 193.372 292.603C193.288 293.674 192.993 295.311 192.804 296.108V296.129Z" fill="#603813"/>
<path d="M191.962 41.9082L13.1951 42.286C13.0899 40.5648 13.2161 39.2005 13.3633 38.235C13.5526 37.0387 13.9523 35.2126 14.0154 35.2336C43.4839 35.4854 74.2775 36.1361 103.746 36.4719C133.299 36.8288 163.272 37.1646 192.593 37.2276C192.488 37.5004 191.668 41.6983 191.941 41.9082H191.962Z" fill="#603813"/>
<path d="M104.63 290.819C146.972 290.819 181.298 236.165 181.298 168.746C181.298 101.326 146.972 46.6724 104.63 46.6724C62.2866 46.6724 27.9609 101.326 27.9609 168.746C27.9609 236.165 62.2866 290.819 104.63 290.819Z" fill="url(#paint0_linear_506_6446)" stroke="#D2AD29" stroke-width="4" stroke-miterlimit="10"/>
<g style="mix-blend-mode:multiply" opacity="0.85">
<path d="M87.6777 260.871L82.6777 238.871L124.678 237.371L120.678 260.871H87.6777Z" fill="#E7D5BF" stroke="black"/>
<path d="M57.1777 260.871L77.1777 254.371L103.678 266.371L129.178 255.871L153.178 260.871C138.178 280.371 99.1777 313.371 57.1777 260.871Z" fill="#124D1E" stroke="black" stroke-width="0.6"/>
<path d="M98.1956 267.006L96.4119 259.871H103.771H111.169L109.831 267.004L103.779 269.332L98.1956 267.006Z" fill="#18341F" stroke="black"/>
<path d="M83.6777 245.871H78.6777L85.1777 250.371L83.6777 245.871Z" fill="#091B0D" stroke="black" stroke-width="0.6"/>
<path d="M100.178 261.371L84.1777 249.871L78.1777 246.371L76.1777 253.371L100.178 269.871V261.371Z" fill="#02310C" stroke="black"/>
<path d="M123.178 246.871H128.178L121.678 251.371L123.178 246.871Z" fill="#091B0D" stroke="black" stroke-width="0.6"/>
<path d="M106.678 261.871L122.678 250.371L128.678 246.871L130.678 253.871L106.678 270.371V261.871Z" fill="#02310C" stroke="black"/>
<path d="M74.7268 230.948L64.2245 186.897C64.0813 186.293 64.0155 185.674 64.0291 185.055C64.5107 162.64 85.2655 145.288 107.86 146.874C129.181 148.372 146.424 166.332 145.397 187.441C145.367 188.025 145.27 188.604 145.101 189.168C141.323 201.855 137.548 214.541 133.77 227.228C133.461 228.267 132.918 229.237 132.182 230.069L117.609 246.538C116.039 248.312 113.699 249.341 111.232 249.341H100C98.1737 249.341 96.3994 248.777 94.9546 247.739L77.7505 235.381C76.2171 234.279 75.1471 232.711 74.7291 230.951L74.7268 230.948Z" fill="#FFE8D4"/>
<path d="M97.1439 178.431C90.0129 178.36 82.8818 178.29 75.7507 178.219L70.4121 182.308L98.7273 181.407L97.1439 178.431Z" fill="#460000"/>
<path d="M113.308 178.431C120.439 178.36 127.57 178.29 134.701 178.219L140.04 182.308L111.725 181.407L113.308 178.431Z" fill="#460000"/>
<path opacity="0.82" d="M97.6748 192.569C98.1246 192.239 98.7448 191.668 98.7312 190.975C98.7153 190.208 97.9361 189.708 97.0046 188.999C96.1118 188.32 94.9214 187.331 93.5925 185.956H81.8247L72.4355 190.975C75.5229 192.484 78.6125 193.995 81.6998 195.504C83.8807 194.834 86.3478 194.193 89.0785 193.671C92.218 193.07 95.1123 192.739 97.6748 192.569Z" fill="white"/>
<path d="M81.9189 185.954C81.3873 189.419 84.2838 192.329 87.3643 192.334C90.4471 192.336 93.3527 189.423 92.8211 185.954H81.9189Z" fill="#42210B"/>
<path opacity="0.82" d="M112.326 192.889C111.881 192.583 111.256 192.049 111.224 191.353C111.188 190.587 111.887 190.045 112.721 189.285C113.516 188.56 114.575 187.507 115.736 186.062C119.436 185.846 123.137 185.632 126.836 185.417L136.027 189.91C133.215 191.587 130.402 193.263 127.59 194.938C125.484 194.345 123.039 193.794 120.3 193.411C117.335 192.997 114.645 192.869 112.321 192.884L112.326 192.889Z" fill="white"/>
<path d="M127.669 185.371C128.43 188.798 125.734 191.871 122.662 192.052C119.586 192.235 116.49 189.494 116.79 186.001C120.415 185.789 124.043 185.58 127.669 185.368V185.371Z" fill="#42210B"/>
<path opacity="0.35" d="M70.1426 211.741L94.882 247.691L77.2645 235.033C76.0423 234.154 75.1882 232.905 74.8542 231.499L70.1426 211.739V211.741Z" fill="#C59B6D"/>
<path opacity="0.35" d="M139.825 206.873L116.941 247.286L133.294 228.805L139.825 206.873Z" fill="#C59B6D"/>
<path d="M74.6452 233.53L64.1961 189.293C64.0537 188.686 63.9882 188.065 64.0017 187.443C64.4809 164.934 85.1304 147.508 107.611 149.101C128.823 150.605 145.978 168.642 144.957 189.839C144.927 190.425 144.83 191.007 144.663 191.573C140.904 204.314 137.148 217.054 133.389 229.794C133.081 230.838 132.541 231.811 131.809 232.648L117.309 249.186C115.748 250.967 113.42 252 110.965 252H99.7903C97.9731 252 96.2078 251.434 94.7703 250.392L77.6536 237.981C76.1279 236.875 75.0633 235.3 74.6475 233.532L74.6452 233.53Z" fill="#FFE8D4"/>
<path d="M110.918 252H99.8241C97.9661 252 96.1328 251.41 94.6608 250.343L77.6673 237.997C76.1011 236.859 75.0038 235.231 74.5752 233.413L64.2014 189.412C64.0555 188.79 63.9882 188.147 64.0017 187.507C64.2306 176.732 69.2525 166.359 77.7818 159.051C86.0507 151.968 96.9182 148.34 107.611 149.099C129.213 150.633 145.966 168.94 144.957 189.907C144.927 190.513 144.826 191.113 144.656 191.694L133.463 229.708C133.144 230.791 132.597 231.781 131.839 232.648L117.441 249.1C115.83 250.942 113.452 252 110.918 252ZM104.806 149.552C95.1858 149.552 85.6132 153.086 78.1745 159.461C69.7641 166.667 64.8117 176.892 64.5851 187.518C64.5716 188.114 64.6345 188.713 64.7714 189.294L75.1451 233.292C75.5446 234.984 76.5656 236.501 78.0241 237.559L95.0175 249.905C96.3864 250.9 98.094 251.448 99.8241 251.448H110.918C113.277 251.448 115.489 250.464 116.99 248.75L131.387 232.3C132.094 231.492 132.604 230.57 132.9 229.563L144.093 191.547C144.252 191.008 144.346 190.447 144.373 189.883C145.367 169.211 128.856 151.163 107.568 149.651C106.65 149.585 105.728 149.555 104.81 149.555L104.806 149.552Z" fill="black"/>
<path d="M96.9955 178.376C89.8644 178.305 82.7334 178.235 75.6023 178.164L70.2637 182.253L98.5789 181.352L96.9955 178.376Z" fill="#460000"/>
<path d="M69.4004 182.557L75.4978 177.889L97.1817 178.102L99.0514 181.614L69.4027 182.557H69.4004ZM75.7068 178.442L71.1269 181.949L98.1086 181.092L96.8092 178.651L75.7045 178.442H75.7068Z" fill="black"/>
<path d="M113.16 178.376C120.291 178.305 127.422 178.235 134.553 178.164L139.891 182.253L111.576 181.352L113.16 178.376Z" fill="#460000"/>
<path d="M140.754 182.557L111.105 181.614L112.975 178.102L134.659 177.889L140.756 182.557H140.754ZM112.046 181.092L139.028 181.949L134.448 178.442L113.343 178.651L112.044 181.092H112.046Z" fill="black"/>
<path d="M97.4513 192.428C98.719 190.868 97.8534 190.522 96.3677 189.632C95.0001 188.758 93.7347 187.729 92.6579 186.557L93.4394 186.881C89.5274 186.557 85.6109 185.859 81.6717 186.511L81.9988 186.429C79.1137 188.461 76.0604 190.289 72.9095 191.937L72.8686 189.877C74.3952 190.668 75.8832 191.523 77.344 192.419C78.8002 193.329 80.2427 194.265 81.6013 195.349L81.4922 195.545C78.08 194.664 74.8677 193.386 71.6986 191.959L69.6836 191.029C73.3843 188.859 77.3122 186.936 81.3468 185.37L81.5763 185.277C82.5895 185.392 83.6027 185.493 84.6159 185.537C87.7305 185.771 90.7882 184.982 93.8778 184.905L94.2232 185.242C95.2977 186.291 96.3495 187.348 97.4786 188.357C98.4827 189.199 99.8662 190.613 98.6735 191.882C98.36 192.223 97.9829 192.439 97.599 192.602L97.4513 192.428Z" fill="black"/>
<path opacity="0.82" d="M97.5244 192.516C97.9742 192.186 98.5944 191.615 98.5808 190.921C98.5649 190.154 97.7857 189.654 96.8542 188.945C95.9614 188.267 94.771 187.277 93.4421 185.903H81.6743L72.2852 190.921C75.3725 192.43 78.4621 193.941 81.5494 195.45C83.7303 194.781 86.1974 194.14 88.9281 193.617C92.0676 193.016 94.9619 192.686 97.5244 192.516Z" fill="white"/>
<path d="M81.7705 185.901C81.2389 189.366 84.1354 192.276 87.2159 192.281C90.2986 192.283 93.2042 189.37 92.6726 185.901H81.7705Z" fill="#42210B"/>
<path d="M87.2185 192.556H87.2139C85.6532 192.556 84.1084 191.858 82.9816 190.644C81.7617 189.331 81.2119 187.586 81.4777 185.861L81.5141 185.623H92.9297L92.966 185.861C93.2318 187.588 92.6798 189.333 91.4553 190.646C90.324 191.86 88.7814 192.556 87.2185 192.556ZM82.032 186.176C81.873 187.663 82.3751 189.148 83.4292 190.28C84.4446 191.373 85.8236 192.001 87.2139 192.003H87.2185C88.6088 192.003 89.99 191.377 91.0078 190.285C92.0641 189.152 92.5662 187.665 92.4094 186.176H82.0343H82.032Z" fill="black"/>
<path d="M112.167 192.924C109.613 191.95 110.411 190.113 112.003 188.681C113.062 187.608 114.041 186.493 115.045 185.383L115.368 185.026C117.478 184.925 119.605 185.249 121.717 185.271C123.721 185.286 125.702 185.033 127.672 184.685C131.17 185.806 134.582 187.168 137.879 188.723L139.923 189.734C137.806 190.882 135.541 192.078 133.328 193.04C131.74 193.734 130.137 194.402 128.44 194.928L128.317 194.739C130.889 192.47 133.721 190.564 136.668 188.771L136.763 190.829C133.51 189.366 130.339 187.718 127.324 185.859L127.656 185.921C123.68 185.5 119.818 186.421 115.936 186.971L116.695 186.601C115.7 187.835 114.505 188.934 113.198 189.886C111.781 190.855 110.929 191.258 112.303 192.739L112.169 192.919L112.167 192.924Z" fill="black"/>
<path opacity="0.82" d="M112.175 192.836C111.73 192.529 111.105 191.996 111.074 191.3C111.037 190.534 111.737 189.992 112.571 189.232C113.366 188.507 114.424 187.454 115.585 186.009C119.286 185.793 122.987 185.579 126.685 185.363L135.877 189.857C133.064 191.534 130.252 193.21 127.439 194.884C125.333 194.292 122.889 193.741 120.149 193.358C117.185 192.944 114.495 192.816 112.171 192.831L112.175 192.836Z" fill="white"/>
<path d="M127.517 185.317C128.278 188.745 125.581 191.818 122.51 191.998C119.434 192.181 116.337 189.441 116.637 185.947C120.263 185.735 123.891 185.526 127.517 185.315V185.317Z" fill="#42210B"/>
<path d="M122.216 192.285C120.757 192.285 119.297 191.688 118.168 190.617C116.857 189.377 116.191 187.667 116.341 185.927L116.362 185.689L127.754 185.028L127.807 185.262C128.186 186.967 127.754 188.74 126.623 190.121C125.578 191.399 124.086 192.183 122.527 192.276C122.423 192.283 122.318 192.285 122.216 192.285ZM116.918 186.209C116.859 187.705 117.461 189.159 118.592 190.229C119.683 191.263 121.107 191.807 122.493 191.725C123.881 191.644 125.215 190.937 126.155 189.787C127.13 188.595 127.532 187.084 127.275 185.608L116.918 186.209Z" fill="black"/>
<path d="M101.965 188.511C102.712 191.064 102.785 193.734 102.501 196.351C102.417 200.704 101.817 205.216 99.6951 209.146L99.6406 209.126C100.92 204.068 102.735 198.975 102.18 193.734L101.908 188.518L101.967 188.509L101.965 188.511Z" fill="black"/>
<path d="M103.484 217.854C102.457 217.854 101.575 217.301 101.259 217.103C99.6738 216.105 98.9536 214.748 98.9241 214.691C98.0358 213.217 96.9431 212.364 96.0662 211.679C95.1121 210.935 94.3578 210.344 94.4896 209.353C94.5941 208.569 95.2484 207.84 96.432 207.192L96.7318 207.668C95.7164 208.225 95.1575 208.815 95.078 209.421C94.9894 210.082 95.4869 210.505 96.4479 211.254C97.3611 211.968 98.4993 212.856 99.4511 214.433C99.4648 214.459 100.144 215.73 101.591 216.642C101.934 216.858 102.847 217.435 103.827 217.272C104.851 217.103 106.157 215.684 107.114 214.649C107.53 214.197 107.891 213.807 108.2 213.536C109.361 212.516 110.376 211.974 111.194 211.536C112.441 210.871 112.957 210.593 112.673 209.351C112.491 208.549 111.505 207.835 109.744 207.229L109.949 206.712C111.941 207.397 113.02 208.223 113.252 209.236C113.625 210.875 112.775 211.329 111.489 212.016C110.701 212.437 109.717 212.964 108.609 213.937C108.322 214.188 107.954 214.587 107.566 215.008C106.496 216.167 105.165 217.612 103.933 217.814C103.783 217.839 103.633 217.85 103.488 217.85L103.484 217.854Z" fill="black"/>
<path opacity="0.35" d="M70 214.002L79.5 231.5L94.7395 249.952L77.122 237.294C75.8998 236.415 75.0456 235.166 74.7116 233.76L70 214V214.002Z" fill="#C59B6D"/>
<path opacity="0.35" d="M138.881 210L128.5 228.5L116 250.413L132.352 231.932L138.881 210Z" fill="#C59B6D"/>
<path d="M104.693 194.259C105.013 196.146 105.074 198.006 105.215 199.896C105.822 202.995 107.151 205.881 108.057 208.926L108.003 208.948C106.108 206.251 105.47 203.061 105.024 199.922C104.586 198.116 104.184 196.008 104.693 194.259Z" fill="black"/>
<path d="M64.9687 190.102C62.4539 186.307 58.183 187.073 57.8967 187.487C57.6218 187.886 57.4855 188.351 57.4696 188.825C57.3651 191.902 57.5969 195.839 58.8077 200.236C61.3771 209.556 67.9652 213.662 71.1456 216.722C69.5781 207.792 66.8497 198.711 64.9687 190.104V190.102Z" fill="#FFE5D1"/>
<path d="M64.8164 190.049C62.3015 186.253 58.0306 187.019 57.7444 187.434C57.4695 187.832 57.3332 188.297 57.3173 188.771C57.2128 191.848 57.4445 195.785 58.6554 200.182C61.2247 209.502 67.8128 213.609 70.9933 216.669C69.4258 207.738 66.6974 198.658 64.8164 190.051V190.049Z" fill="#FFE5D1"/>
<path d="M71.4395 217.492L70.7807 216.86C70.2196 216.32 69.5381 215.734 68.8134 215.115C65.3058 212.108 60.5033 207.993 58.3701 200.25C57.3432 196.521 56.8889 192.657 57.0229 188.762C57.0411 188.218 57.2047 187.707 57.4977 187.284C57.7226 186.958 58.6472 186.793 59.4719 186.801C60.5442 186.81 63.2339 187.132 65.0718 189.901L65.1104 189.991C65.851 193.377 66.7392 196.913 67.6025 200.334C68.9474 205.676 70.3377 211.196 71.2896 216.622L71.4418 217.492H71.4395ZM59.4128 187.354C58.6291 187.354 58.0816 187.513 57.9771 187.601C57.759 187.92 57.6272 188.335 57.6136 188.78C57.4818 192.621 57.9294 196.435 58.9426 200.114C61.0326 207.696 65.7601 211.749 69.2132 214.708C69.6812 215.109 70.1333 215.497 70.549 215.869C69.6062 210.734 68.2931 205.517 67.0209 200.462C66.1622 197.054 65.2762 193.531 64.5356 190.152C63.2112 188.183 61.4529 187.572 60.2079 187.407C59.924 187.37 59.6559 187.354 59.4128 187.354Z" fill="black"/>
<path d="M67.5683 210.575C62.1433 205.663 60.4236 201.612 59.3718 197.968C58.588 195.249 57.6839 189.725 59.1446 189.275C60.0465 189.002 61.3278 190.557 63.3723 193.538C64.1538 194.677 64.6968 195.668 65.058 196.322C65.7304 197.547 66.3415 198.82 66.8754 200.107L66.3234 200.305C65.7963 199.036 65.1943 197.781 64.5309 196.573C64.1765 195.926 63.6381 194.95 62.8726 193.833C62.1547 192.787 59.9829 189.606 59.3286 189.797C58.7402 189.978 58.7834 193.804 59.942 197.822C60.9711 201.391 62.6567 205.359 67.9772 210.179L67.5637 210.575H67.5683Z" fill="black"/>
<path d="M60.3034 196.155C60.0012 195.067 59.9558 193.965 60.1693 192.886C60.3125 192.159 60.5487 191.214 60.7872 190.74L61.3257 190.971C61.1121 191.399 60.8849 192.324 60.7532 192.985C60.5555 193.985 60.5987 195.005 60.8781 196.016L60.3034 196.155Z" fill="black"/>
<path d="M67.6274 205.266C67.5979 205.251 64.7241 203.457 64.5741 200.58C64.5105 199.342 64.9853 198.653 65.3011 198.199L65.3988 198.056L65.9031 198.347L65.7986 198.499C65.5078 198.919 65.1103 199.494 65.1648 200.554C65.2988 203.123 67.8909 204.773 67.9182 204.786L67.6251 205.266H67.6274Z" fill="black"/>
<path opacity="0.35" d="M67.7307 210.733C64.5525 207.914 62.7533 205.079 61.7696 203.222C61.4379 202.598 60.377 200.53 59.6182 197.615C58.9344 194.985 58.128 190.244 59.1957 189.892C60.2589 189.541 62.8237 193.654 63.7551 195.148C64.6138 196.525 64.9773 197.37 65.3658 198.203C65.1909 198.426 65.0182 198.648 64.8433 198.871C64.6593 199.384 64.1777 200.871 64.8433 201.448C65.1772 203.863 67.3672 205.171 67.7284 205.38V210.733H67.7307Z" fill="#C59B6D"/>
<path d="M143.301 191.172C145.816 187.376 150.087 188.143 150.373 188.557C150.648 188.956 150.784 189.42 150.8 189.894C150.904 192.972 150.673 196.908 149.462 201.305C146.892 210.626 140.304 214.732 137.124 217.792C138.691 208.861 141.42 199.781 143.301 191.174V191.172Z" fill="#FFE5D1"/>
<path d="M143.453 191.118C145.968 187.322 150.239 188.089 150.525 188.503C150.8 188.902 150.936 189.367 150.952 189.84C151.057 192.918 150.825 196.854 149.614 201.252C147.045 210.572 140.457 214.678 137.276 217.738C138.844 208.808 141.572 199.727 143.453 191.12V191.118Z" fill="#FFE5D1"/>
<path d="M136.83 218.562L137.489 217.93C138.05 217.39 138.731 216.804 139.456 216.185C142.964 213.178 147.766 209.063 149.899 201.32C150.926 197.59 151.381 193.726 151.247 189.832C151.228 189.287 151.065 188.776 150.772 188.353C150.547 188.027 149.622 187.862 148.798 187.871C147.725 187.88 145.036 188.201 143.198 190.97L143.159 191.061C142.419 194.447 141.53 197.982 140.667 201.403C139.322 206.746 137.932 212.266 136.98 217.692L136.828 218.562H136.83ZM148.857 188.424C149.64 188.424 150.188 188.582 150.292 188.671C150.511 188.99 150.642 189.404 150.656 189.849C150.788 193.691 150.34 197.504 149.327 201.183C147.237 208.766 142.509 212.819 139.056 215.777C138.588 216.178 138.136 216.566 137.721 216.938C138.663 211.803 139.976 206.587 141.249 201.531C142.107 198.123 142.993 194.601 143.734 191.222C145.058 189.252 146.817 188.642 148.062 188.477C148.346 188.439 148.614 188.424 148.857 188.424Z" fill="black"/>
<path d="M140.701 211.645C146.126 206.732 147.846 202.681 148.898 199.037C149.682 196.319 150.586 190.794 149.125 190.345C148.223 190.072 146.942 191.627 144.897 194.607C144.116 195.746 143.573 196.738 143.212 197.392C142.539 198.617 141.928 199.89 141.394 201.176L141.946 201.375C142.473 200.106 143.075 198.85 143.739 197.643C144.093 196.995 144.631 196.019 145.397 194.903C146.115 193.856 148.287 190.675 148.941 190.867C149.529 191.047 149.486 194.874 148.328 198.892C147.298 202.461 145.613 206.428 140.292 211.248L140.706 211.645H140.701Z" fill="black"/>
<path d="M147.966 197.224C148.268 196.136 148.314 195.035 148.1 193.955C147.957 193.228 147.721 192.283 147.482 191.81L146.944 192.041C147.157 192.468 147.385 193.393 147.516 194.054C147.714 195.054 147.671 196.074 147.391 197.086L147.966 197.224Z" fill="black"/>
<path d="M140.642 206.336C140.672 206.32 143.545 204.527 143.695 201.65C143.759 200.412 143.284 199.722 142.968 199.269L142.871 199.125L142.366 199.416L142.471 199.568C142.762 199.989 143.159 200.564 143.105 201.624C142.971 204.192 140.379 205.842 140.351 205.855L140.644 206.336H140.642Z" fill="black"/>
<path opacity="0.35" d="M140.539 211.803C143.717 208.983 145.516 206.148 146.5 204.291C146.832 203.668 147.893 201.599 148.651 198.685C149.335 196.054 150.142 191.314 149.074 190.961C148.011 190.611 145.446 194.724 144.514 196.217C143.656 197.594 143.292 198.44 142.904 199.273C143.079 199.495 143.251 199.718 143.426 199.94C143.61 200.453 144.092 201.94 143.426 202.518C143.092 204.932 140.902 206.241 140.541 206.45V211.803H140.539Z" fill="#C59B6D"/>
<path d="M117.273 226.329L112.938 229.097C112.563 229.336 112.118 229.465 111.665 229.465H97.7593C96.9291 229.465 96.1259 229.207 95.4693 228.734L92.1428 226.329H117.273Z" fill="white"/>
<path d="M90.9999 226H118.307L113.029 229.37C112.592 229.649 112.085 229.794 111.556 229.794H97.6502C96.7467 229.794 95.8567 229.51 95.1431 228.994L90.9999 226ZM116.022 226.66H93.0675L95.5773 228.473C96.1661 228.899 96.9041 229.134 97.6502 229.134H111.556C111.941 229.134 112.313 229.026 112.63 228.823L116.025 226.658L116.022 226.66Z" fill="black"/>
<path opacity="0.35" d="M98.0013 230C99.6027 230.321 101.462 230.679 103.063 231H104.938C106.712 230.679 108.228 230.321 110 230H98H98.0013Z" fill="#C5806D"/>
<path d="M60.6777 172.718L66.6777 198.371L69.1777 172.718L78.1777 162.718C101.121 162.718 112.537 160.808 132.678 161.718L141.678 174.218L142.678 196.37L148.678 172.718C148.678 172.718 148.433 165.222 146.678 160.87C143.854 153.87 139.678 149.87 139.678 149.87C116.14 120.484 75.1777 138.219 66.6777 152.717C66.6777 152.717 64.1594 157.33 62.6777 162.718C61.6421 166.484 60.6777 172.718 60.6777 172.718Z" fill="#5F3232" stroke="black" stroke-linecap="round"/>
</g>
</g>
<defs>
<linearGradient id="paint0_linear_506_6446" x1="181.697" y1="59.6646" x2="41.197" y2="281.371" gradientUnits="userSpaceOnUse">
<stop offset="0.15625" stop-color="#F1F6F7"/>
<stop offset="0.46875" stop-color="#C3F8FC"/>
<stop offset="0.760417" stop-color="#EFF3F3"/>
</linearGradient>
<clipPath id="clip0_506_6446">
<rect width="201" height="331" fill="white"/>
</clipPath>
</defs>
</svg>
