<svg width="24" height="176" viewBox="0 0 24 176" fill="none" xmlns="http://www.w3.org/2000/svg">
<g clip-path="url(#clip0_78_1328)">
<path d="M13.7992 173.964L21.2992 153.875L13.7992 145.464L6.29921 153.875L13.7992 173.964Z" fill="black" stroke="#1A1A1A" stroke-width="0.05" stroke-miterlimit="10"/>
<path d="M13.7992 133.464L21.2992 141.876L13.7992 154.964L6.29919 141.876L13.7992 133.464Z" fill="black" stroke="#1A1A1A" stroke-width="0.05" stroke-miterlimit="10"/>
<path d="M15.5981 42.414C15.5981 42.414 15.5981 33.4741 23.5982 26.4742C11.8879 18.5628 13.0982 1.47412 13.0982 1.47412C13.0982 1.47412 13.5982 17.9741 1.59819 26.4742C11.598 33.9741 11.598 42.4139 11.598 42.4139L15.5981 42.414Z" fill="black" stroke="black" stroke-width="0.05" stroke-miterlimit="10"/>
<path d="M7.78399 48.9742L10.2992 69.4646L13.7992 63.4647L17.2992 69.4646L19.7992 48.9742L13.7992 38.4646L7.78399 48.9742Z" fill="black" stroke="black" stroke-width="0.05" stroke-miterlimit="10"/>
<path d="M10.7992 112.464L6.79919 70.8851L13.7992 57.4645L20.7992 70.8852L16.7992 112.464C16.0569 112.393 11.4827 112.28 10.7992 112.464Z" fill="black" stroke="#1A1A1A" stroke-width="0.05" stroke-miterlimit="10"/>
<path d="M20.6136 41.8737C15.4729 43.3782 10.301 43.4619 5.09792 42.1247C10.2387 40.6202 15.4106 40.5365 20.6136 41.8737Z" fill="#1A1A1A"/>
</g>
<defs>
<clipPath id="clip0_78_1328">
<rect width="23" height="175" fill="white" transform="matrix(-1 0 0 -1 23.7992 175.964)"/>
</clipPath>
</defs>
</svg>
