<svg width="1986" height="375" viewBox="0 0 1986 375" fill="none" xmlns="http://www.w3.org/2000/svg">
<g clip-path="url(#clip0_376_894)">
<path d="M210.11 245.373L169.044 278.283C169.947 283.048 186.817 281.183 202.548 284.261C258.472 295.226 999.437 327.13 999.437 327.13L1721.73 291.231C1725.14 290.358 1736.38 292.341 1744.98 278.268C1744.98 278.268 1738.8 255.095 1738.42 251.277L210.11 245.358V245.373Z" fill="#EEECEE"/>
<path d="M169.044 316.165V278.268C442.774 290.24 716.488 302.196 990.218 314.167C1241.81 302.196 1493.4 290.24 1744.98 278.268V318.222C1492.88 334.174 1240.79 359.033 988.693 374.985C715.467 355.378 442.256 335.772 169.029 316.15L169.044 316.165Z" fill="black"/>
<path d="M1986 140.089L1819.83 114H1641.16L1567.69 150.61L1986 140.089Z" fill="#EEECEE"/>
<path d="M1765.86 160.687H1748.35L1660.77 268.798H1685.29L1765.86 160.687Z" fill="#2A2A2C"/>
<path d="M1697.75 163.232H1680.25L1592.67 268.813H1617.19L1697.75 163.232Z" fill="#2A2A2C"/>
<path d="M1748.39 161.19H1745.48L1658.02 268.798L1660.82 269.301L1748.39 161.19Z" fill="#3ECFFF"/>
<path d="M1680.57 162.729L1677.51 163.025L1591.2 269.108L1592.99 269.301L1680.57 162.729Z" fill="#3ECFFF"/>
<path d="M179.255 167.538H196.776L284.34 267.57H259.818L179.255 167.538Z" fill="#2A2A2C"/>
<path d="M250.126 169.891H267.633L355.211 267.584H330.689L250.126 169.891Z" fill="#2A2A2C"/>
<path d="M196.732 168.012H199.633L287.107 267.57L284.296 268.028L196.732 168.012Z" fill="#3ECFFF"/>
<path d="M267.307 169.432L270.37 169.713L356.66 267.851L354.87 268.028L267.307 169.432Z" fill="#3ECFFF"/>
<path d="M1975.69 159.917L1971.84 168.929L1557.39 184.496V152.8L1975.69 137.233V159.917Z" fill="black"/>
<path d="M0 143.403L115 114.8L333.56 116.723L418.297 158.956L0 143.403Z" fill="#EEECEE"/>
<path d="M0 166.088L3.84763 175.1L418.297 190.667V158.97L0 143.403V166.088Z" fill="black"/>
<path d="M282.964 112.269H163.998V146.007H282.964V112.269Z" fill="#808080"/>
<path d="M283.349 146.392H163.613V111.899H283.349V146.392ZM164.383 145.623H282.579V112.654H164.383V145.623Z" fill="black"/>
<path d="M272.205 95.9623H173.631L156.643 84.0355L173.498 73.5884H272.338L288.01 84.0207L272.205 95.9623Z" fill="#CACACA"/>
<path d="M272.323 96.347H173.513L173.41 96.273L155.947 84.0058L156.436 83.7099L173.38 73.2036H272.427L288.646 83.991L272.309 96.3322L272.323 96.347ZM173.75 95.5775H272.072L287.359 84.0354L272.22 73.9731H173.617L157.338 84.0502L173.75 95.5775Z" fill="black"/>
<path d="M147.335 92.2185V121.503L163.998 146.008V112.24" fill="#666666"/>
<path d="M164.383 147.251L146.95 121.621V92.2185H147.72V121.37L163.613 144.765V112.24H164.383V147.251Z" fill="black"/>
<path d="M296.505 92.4404L296.519 130.959L282.964 145.889L283.171 112.491" fill="#666666"/>
<path d="M282.579 146.881L282.786 112.491H283.556L283.349 144.898L296.135 130.811V92.4404H296.889V131.106L282.579 146.881Z" fill="black"/>
<path d="M218.042 120.378L223.296 127.91H228.549V133.518H198.908C198.301 132.557 196.703 129.745 197.013 125.957C197.235 123.293 198.286 121.355 198.908 120.378H218.027H218.042Z" fill="#666666"/>
<path d="M228.948 133.888H198.715L198.597 133.711C197.738 132.364 196.347 129.553 196.643 125.913C196.85 123.353 197.812 121.37 198.597 120.156L198.715 119.979H218.249L223.503 127.511H228.948V133.874V133.888ZM199.144 133.119H228.194V128.28H223.118L217.864 120.748H199.159C198.449 121.888 197.62 123.693 197.442 125.972C197.176 129.227 198.36 131.787 199.174 133.119H199.144Z" fill="black"/>
<path d="M271.021 93.0767H174.697L161.822 84.0206L173.587 76.7698H272.338L283.393 84.0206L271.021 93.0767Z" fill="url(#paint0_radial_376_894)"/>
<path d="M271.228 93.7131H174.505L160.668 83.9911L173.41 76.1335H272.53L284.517 83.9911L271.228 93.7131ZM174.904 92.4405H270.814L282.283 84.0502L272.146 77.4061H173.765L162.962 84.065L174.889 92.4553L174.904 92.4405Z" fill="black"/>
<path d="M147.335 92.2184L156.643 84.0353L173.632 95.9621H272.205L288.01 84.0205L296.756 92.2184L283.423 112.269L163.998 112.239L147.335 92.2184Z" fill="#979797"/>
<path d="M283.615 112.654L163.82 112.624L163.702 112.491L146.802 92.1888L156.613 83.5618L156.865 83.7394L173.75 95.5922H272.072L288.039 83.5322L297.259 92.174L297.081 92.4404L283.629 112.669L283.615 112.654ZM164.175 111.855L283.215 111.884L296.267 92.2776L287.995 84.5089L272.338 96.3321H173.528L173.424 96.2581L156.687 84.5089L147.882 92.248L164.19 111.855H164.175Z" fill="black"/>
<path d="M241.72 106.617H202.918L203.806 103.435C203.865 103.198 204.087 103.036 204.324 103.036H240.506C240.758 103.036 240.98 103.213 241.039 103.465L241.72 106.617Z" fill="url(#paint1_linear_376_894)"/>
<path d="M242.504 107.253H202.089L203.199 103.272C203.347 102.754 203.806 102.414 204.338 102.414H240.521C241.083 102.414 241.557 102.799 241.675 103.332L242.519 107.253H242.504ZM203.746 105.98H240.935L240.417 103.598L204.338 103.672L203.746 105.98Z" fill="#808080"/>
<path d="M164.308 112.462L163.672 112.032C164.974 110.124 166.75 106.957 168.467 103.923C170.198 100.86 171.989 97.6936 173.306 95.7551L173.942 96.1843C172.64 98.0931 170.864 101.26 169.147 104.293C167.416 107.356 165.625 110.523 164.308 112.462Z" fill="black"/>
<path d="M283.008 112.299L271.895 96.1842L272.516 95.7402L283.63 111.87L283.008 112.299Z" fill="black"/>
<path d="M217.688 120.556H218.324L223.577 128.103H228.846V133.326H228.076V128.532H223.089L217.688 120.556Z" fill="#4D4D4D"/>
<path d="M252.907 127.363C252.774 130.485 251.428 132.675 250.821 133.518H228.579V127.925H223.31L218.042 120.378H250.806C251.368 121.192 253.011 123.752 252.893 127.363H252.907Z" fill="#E4E4E4"/>
<path d="M251.014 133.888H228.194V128.295H223.118L217.332 119.979H251.028L251.147 120.142C252.641 122.317 253.381 124.818 253.293 127.363C253.159 130.603 251.739 132.897 251.132 133.726L251.014 133.888ZM228.964 133.119H250.629C251.236 132.246 252.405 130.189 252.523 127.333C252.612 125.025 251.946 122.746 250.614 120.748H218.782L223.518 127.54H228.964V133.134V133.119Z" fill="black"/>
<path d="M212.73 128.887C213.809 128.887 214.683 128.012 214.683 126.934C214.683 125.855 213.809 124.98 212.73 124.98C211.651 124.98 210.776 125.855 210.776 126.934C210.776 128.012 211.651 128.887 212.73 128.887Z" fill="#666666"/>
<path d="M212.73 129.286C211.442 129.286 210.392 128.236 210.392 126.948C210.392 125.661 211.442 124.61 212.73 124.61C214.017 124.61 215.068 125.661 215.068 126.948C215.068 128.236 214.017 129.286 212.73 129.286ZM212.73 125.365C211.857 125.365 211.146 126.075 211.146 126.948C211.146 127.821 211.857 128.532 212.73 128.532C213.603 128.532 214.313 127.821 214.313 126.948C214.313 126.075 213.603 125.365 212.73 125.365Z" fill="black"/>
<path d="M208.645 126.934C209.207 126.356 209.088 126.593 210.302 126.549C211.501 126.593 211.397 126.356 211.959 126.934C211.397 127.511 211.501 127.274 210.302 127.318C209.088 127.274 209.207 127.511 208.645 126.934Z" fill="black"/>
<path d="M207.313 123.456C207.283 124.3 207.209 124.033 206.307 124.995C205.36 125.883 205.596 125.972 204.768 126.001C204.782 125.173 204.886 125.409 205.774 124.462C206.736 123.56 206.469 123.486 207.313 123.456Z" fill="black"/>
<path d="M204.709 128.221C205.493 128.191 205.241 128.265 206.085 129.049C206.869 129.893 206.958 129.641 206.914 130.426C206.144 130.455 206.381 130.366 205.537 129.597C204.753 128.753 204.664 129.005 204.709 128.221Z" fill="black"/>
<path d="M272.264 76.681C271.998 76.1483 271.85 75.5564 271.835 74.9645C271.835 74.4614 271.909 73.973 272.087 73.4995L272.56 73.6771C272.412 74.0914 272.338 74.5205 272.338 74.9497C272.338 75.4676 272.471 75.9707 272.708 76.4442L272.249 76.6662L272.264 76.681Z" fill="black"/>
<path d="M173.75 76.5774L173.276 76.3998C173.395 76.1039 173.528 75.6008 173.513 74.9941C173.513 74.5353 173.424 74.1062 173.276 73.6771L173.75 73.4995C173.928 73.9878 174.016 74.4762 174.016 74.9941C174.016 75.6748 173.868 76.2371 173.75 76.5774Z" fill="black"/>
<path d="M156.85 84.0205C157.146 83.769 157.945 83.2955 159.277 83.1919C160.12 83.1179 161.171 83.7394 161.496 83.9465" fill="#CACACA"/>
<path d="M157.102 84.3165L156.613 83.7246C157.057 83.3546 157.99 82.9107 159.262 82.8071C159.321 82.8071 159.381 82.8071 159.425 82.8071C160.357 82.8071 161.408 83.4286 161.704 83.621L161.29 84.2721C160.742 83.9169 159.913 83.5174 159.307 83.5766C157.856 83.695 157.161 84.2573 157.087 84.3165H157.102Z" fill="black"/>
<path d="M283.704 83.9615C284.059 83.7839 284.77 83.4731 285.732 83.4731C286.767 83.4731 287.537 83.8283 287.877 84.0355" fill="#CACACA"/>
<path d="M287.685 84.3462C287.27 84.1094 286.59 83.8431 285.717 83.8431C285.08 83.8431 284.459 83.991 283.867 84.3018L283.526 83.6211C284.222 83.2807 284.962 83.0884 285.717 83.0884C286.752 83.0884 287.552 83.4139 288.055 83.6951L287.685 84.361V84.3462Z" fill="black"/>
<path d="M271.599 95.6663C272.028 94.7489 271.776 93.8166 270.726 93.3727L270.918 92.9731C271.451 93.0767 272.146 93.3727 272.531 94.009C272.916 94.6749 272.931 95.3556 272.797 96.0806L271.599 95.6663Z" fill="black"/>
<path d="M173.188 96.1103C172.951 94.9116 173.351 93.4023 174.608 93.0916L174.801 93.4911C174.046 93.9054 174.164 95.0596 174.401 95.6959L173.203 96.1103H173.188Z" fill="black"/>
<path d="M173.631 119.639C173.631 119.639 171.988 119.609 171.692 119.713C169.68 120.349 163.257 121.089 158.758 116.235L153.135 110.568V125.084L158.684 132.29C159.779 133.223 161.94 134.806 165.092 135.59C168.999 136.567 172.225 135.768 173.631 135.339V119.639Z" fill="url(#paint2_linear_376_894)"/>
<path d="M168.896 136.315C167.697 136.315 166.41 136.182 165.033 135.842C162.665 135.25 160.416 134.081 158.537 132.483L152.898 125.173V109.946L158.966 116.057C163.317 120.778 169.591 120.142 171.633 119.476C171.959 119.372 173.365 119.402 173.661 119.402H173.912V135.546L173.735 135.605C172.521 135.975 170.864 136.33 168.925 136.33L168.896 136.315ZM153.402 124.995L158.907 132.128C160.697 133.637 162.873 134.762 165.166 135.339C168.541 136.182 171.471 135.709 173.394 135.146V119.89C172.684 119.89 171.929 119.905 171.781 119.949C169.65 120.615 163.124 121.296 158.596 116.398L153.416 111.174V124.995H153.402Z" fill="black"/>
<path d="M152.928 110.138C155.606 112.121 158.625 114.888 160.712 116.901C163.849 119.106 167.726 119.846 171.707 119.712C167.83 120.911 163.376 120.304 160.016 117.922C157.53 115.451 155.118 112.92 152.943 110.138H152.928Z" fill="black"/>
<path d="M273.345 119.639C273.345 119.639 274.987 119.609 275.283 119.713C277.296 120.349 283.719 121.089 288.217 116.235L293.841 110.568V125.084L288.291 132.29C287.196 133.223 285.036 134.806 281.883 135.59C277.977 136.567 274.751 135.768 273.345 135.339V119.639Z" fill="url(#paint3_linear_376_894)"/>
<path d="M278.095 136.315C276.156 136.315 274.499 135.96 273.27 135.59L273.093 135.531V119.402H273.344C273.64 119.402 275.046 119.372 275.372 119.476C277.429 120.142 283.689 120.778 288.039 116.057L294.107 109.946V125.173L294.062 125.247L288.513 132.453C286.604 134.096 284.354 135.265 281.972 135.857C280.596 136.197 279.308 136.33 278.109 136.33L278.095 136.315ZM273.611 135.161C275.52 135.738 278.45 136.197 281.839 135.353C284.133 134.776 286.323 133.652 288.143 132.098L293.604 124.995V111.174L288.409 116.413C283.881 121.311 277.355 120.63 275.224 119.964C275.076 119.92 274.336 119.905 273.611 119.905V135.161Z" fill="black"/>
<path d="M294.062 110.138C291.887 112.92 289.46 115.451 286.989 117.922C283.629 120.304 279.175 120.911 275.298 119.712C279.279 119.846 283.141 119.106 286.293 116.901C288.38 114.888 291.384 112.121 294.077 110.138H294.062Z" fill="black"/>
<path d="M221.905 133.459C219.063 133.459 216.237 133.459 213.469 133.445C208.734 133.445 203.85 133.415 199.056 133.445H198.893L198.671 133.001C197.975 131.624 196.821 129.331 197.058 125.972C197.176 124.196 197.813 122.332 198.893 120.556L198.967 120.438H217.924V120.941H199.263C198.271 122.613 197.679 124.359 197.576 126.016C197.354 129.242 198.479 131.462 199.144 132.779L199.233 132.941C203.984 132.912 208.823 132.927 213.499 132.941C218.353 132.941 223.37 132.971 228.298 132.941V133.445C226.196 133.459 224.065 133.459 221.934 133.459H221.905Z" fill="#4D4D4D"/>
<path opacity="0.67" d="M163.229 0L220.617 82.3041L280.862 0" fill="url(#paint4_linear_376_894)"/>
<path d="M236.822 133.104L236.778 128.709H236.645L236.689 133.193C236.733 133.163 236.778 133.134 236.822 133.119V133.104Z" fill="#00FFFF"/>
<path d="M236.674 133.237V133.193L236.63 128.694H236.807V128.724L236.852 133.134C236.852 133.134 236.763 133.193 236.733 133.222L236.689 133.252L236.674 133.237ZM236.674 128.739L236.719 133.148C236.719 133.148 236.763 133.119 236.793 133.104L236.748 128.739H236.674Z" fill="#CACACA"/>
<path d="M236.718 128.931C236.849 128.931 236.955 128.838 236.955 128.724C236.955 128.61 236.849 128.517 236.718 128.517C236.587 128.517 236.481 128.61 236.481 128.724C236.481 128.838 236.587 128.931 236.718 128.931Z" fill="#00FFFF"/>
<path d="M236.719 128.946C236.571 128.946 236.452 128.842 236.452 128.724C236.452 128.606 236.571 128.502 236.719 128.502C236.867 128.502 236.985 128.606 236.985 128.724C236.985 128.842 236.867 128.946 236.719 128.946ZM236.719 128.532C236.6 128.532 236.511 128.62 236.511 128.709C236.511 128.813 236.615 128.887 236.733 128.887C236.852 128.887 236.941 128.798 236.941 128.709C236.941 128.606 236.837 128.532 236.719 128.532Z" fill="#CACACA"/>
<path d="M237.991 133.282L237.976 130.233H237.857V133.282H237.991Z" fill="#00FFFF"/>
<path d="M238.02 133.311H237.843V130.219H238.02V133.311ZM237.887 133.267H237.961V130.263H237.872V133.267H237.887Z" fill="#CACACA"/>
<path d="M234.321 133.178V132.749H234.188V133.281C234.188 133.281 234.276 133.208 234.321 133.178Z" fill="#00FFFF"/>
<path d="M234.158 133.341V132.719H234.321V133.193C234.321 133.193 234.232 133.252 234.188 133.296L234.144 133.341H234.158ZM234.203 132.778V133.222C234.203 133.222 234.262 133.178 234.292 133.163V132.778H234.203Z" fill="#CACACA"/>
<path d="M237.68 130.248C237.68 130.13 237.783 130.041 237.916 130.041C238.05 130.041 238.153 130.13 238.153 130.248C238.153 130.367 238.05 130.455 237.916 130.455C237.783 130.455 237.68 130.367 237.68 130.248Z" fill="#00FFFF"/>
<path d="M237.917 130.47C237.769 130.47 237.65 130.366 237.65 130.248C237.65 130.13 237.769 130.026 237.917 130.026C238.065 130.026 238.183 130.13 238.183 130.248C238.183 130.366 238.065 130.47 237.917 130.47ZM237.695 130.248C237.695 130.352 237.798 130.426 237.917 130.426C238.035 130.426 238.124 130.337 238.124 130.248C238.124 130.144 238.02 130.071 237.902 130.071C237.784 130.071 237.695 130.159 237.695 130.248Z" fill="#CACACA"/>
<path d="M241.41 133.311L241.38 126.608H241.247L241.277 133.252C241.321 133.267 241.365 133.296 241.41 133.311Z" fill="#00FFFF"/>
<path d="M241.439 133.356H241.41C241.41 133.356 241.365 133.311 241.351 133.311C241.321 133.311 241.306 133.296 241.291 133.282V133.252L241.247 126.578H241.425V126.608L241.454 133.356H241.439ZM241.306 133.237C241.306 133.237 241.336 133.252 241.351 133.267C241.351 133.267 241.365 133.267 241.38 133.282L241.351 126.638H241.277L241.306 133.237Z" fill="#CACACA"/>
<path d="M241.084 126.623C241.084 126.504 241.188 126.416 241.321 126.416C241.454 126.416 241.558 126.504 241.558 126.623C241.558 126.741 241.454 126.83 241.321 126.83C241.188 126.83 241.084 126.741 241.084 126.623Z" fill="#00FFFF"/>
<path d="M241.321 126.845C241.173 126.845 241.055 126.741 241.055 126.623C241.055 126.504 241.173 126.401 241.321 126.386C241.469 126.386 241.587 126.49 241.587 126.608C241.587 126.741 241.469 126.83 241.321 126.83V126.845ZM241.321 126.43C241.203 126.43 241.099 126.519 241.114 126.608C241.114 126.697 241.217 126.786 241.336 126.786C241.454 126.786 241.543 126.712 241.543 126.608C241.543 126.504 241.439 126.43 241.321 126.43Z" fill="#CACACA"/>
<path d="M244.606 133.252V131.994H244.473V133.252C244.473 133.252 244.561 133.252 244.606 133.252Z" fill="#00FFFF"/>
<path d="M244.458 133.296V131.979H244.636V133.282H244.606C244.606 133.282 244.517 133.282 244.488 133.282H244.458V133.296ZM244.502 132.024V133.237H244.591V132.024H244.502Z" fill="#CACACA"/>
<path d="M244.546 132.216C244.677 132.216 244.783 132.124 244.783 132.009C244.783 131.895 244.677 131.802 244.546 131.802C244.416 131.802 244.31 131.895 244.31 132.009C244.31 132.124 244.416 132.216 244.546 132.216Z" fill="#00FFFF"/>
<path d="M244.547 132.231C244.399 132.231 244.28 132.127 244.28 132.009C244.28 131.876 244.399 131.787 244.547 131.787C244.547 131.787 244.68 131.817 244.739 131.861C244.783 131.905 244.813 131.965 244.813 132.009C244.813 132.142 244.695 132.231 244.547 132.231ZM244.325 132.009C244.325 132.098 244.428 132.187 244.547 132.187C244.665 132.187 244.754 132.113 244.754 132.009C244.754 131.965 244.739 131.92 244.695 131.891C244.65 131.846 244.591 131.832 244.547 131.832C244.428 131.832 244.339 131.905 244.339 132.009H244.325Z" fill="#CACACA"/>
<path d="M242.297 128.561L242.356 133.193C242.356 133.193 242.489 133.311 242.489 133.326L242.43 128.576H242.297V128.561Z" fill="#00FFFF"/>
<path d="M242.46 133.311C242.46 133.311 242.356 133.222 242.342 133.208H242.312L242.327 133.178L242.268 128.531H242.445V128.561L242.504 133.311H242.46ZM242.371 133.178C242.371 133.178 242.43 133.222 242.46 133.252L242.401 128.591H242.327L242.386 133.178H242.371Z" fill="#CACACA"/>
<path d="M242.119 128.576C242.119 128.458 242.223 128.369 242.356 128.369C242.489 128.369 242.593 128.458 242.593 128.576C242.593 128.694 242.489 128.783 242.356 128.783C242.223 128.783 242.119 128.694 242.119 128.576Z" fill="#00FFFF"/>
<path d="M242.356 128.798C242.356 128.798 242.223 128.768 242.164 128.724C242.119 128.68 242.09 128.635 242.09 128.576C242.09 128.576 242.105 128.472 242.149 128.428C242.193 128.384 242.267 128.354 242.356 128.354C242.504 128.354 242.623 128.458 242.623 128.576C242.623 128.709 242.504 128.798 242.356 128.798ZM242.356 128.398C242.356 128.398 242.223 128.428 242.193 128.458C242.164 128.487 242.149 128.532 242.149 128.576C242.149 128.576 242.164 128.65 242.208 128.694C242.253 128.739 242.312 128.754 242.356 128.754C242.475 128.754 242.563 128.68 242.563 128.576C242.563 128.487 242.46 128.398 242.341 128.398H242.356Z" fill="#CACACA"/>
<path d="M237.592 127.126L238.82 128.147V133.296C238.82 133.296 238.909 133.282 238.953 133.267V128.088L237.681 127.037L237.592 127.111V127.126Z" fill="#00FFFF"/>
<path d="M238.791 133.326V128.147L237.548 127.126L237.681 127.008H237.696L238.969 128.073V133.297C238.939 133.297 238.895 133.311 238.835 133.326H238.806H238.791ZM237.622 127.126L238.835 128.132V133.282C238.835 133.282 238.895 133.282 238.924 133.267V128.103L237.681 127.082L237.637 127.126H237.622Z" fill="#CACACA"/>
<path d="M237.474 127.229C237.385 127.155 237.385 127.022 237.474 126.948C237.563 126.874 237.725 126.874 237.814 126.948C237.903 127.022 237.903 127.155 237.814 127.229C237.725 127.303 237.563 127.303 237.474 127.229Z" fill="#00FFFF"/>
<path d="M237.636 127.318C237.636 127.318 237.503 127.303 237.459 127.259C237.459 127.259 237.385 127.155 237.385 127.096C237.385 127.037 237.414 126.978 237.459 126.934C237.562 126.845 237.725 126.845 237.829 126.934C237.888 126.978 237.918 127.037 237.918 127.096C237.918 127.155 237.888 127.215 237.844 127.259C237.784 127.303 237.725 127.318 237.651 127.318H237.636ZM237.488 127.215C237.577 127.289 237.71 127.274 237.799 127.215C237.844 127.185 237.858 127.141 237.858 127.096C237.858 127.052 237.829 127.008 237.799 126.978C237.71 126.904 237.577 126.904 237.488 126.978C237.444 127.008 237.429 127.052 237.429 127.096C237.429 127.141 237.459 127.185 237.488 127.215Z" fill="#CACACA"/>
<path d="M244.828 130.5L245.627 131.166V133.356C245.627 133.356 245.731 133.356 245.775 133.356V131.121L244.917 130.426L244.828 130.5Z" fill="#00FFFF"/>
<path d="M245.628 133.4V131.18L244.799 130.514L244.932 130.411H244.947L245.79 131.121L245.82 133.4H245.79C245.79 133.4 245.716 133.415 245.657 133.4H245.628ZM244.873 130.514L245.642 131.166L245.672 133.356C245.672 133.356 245.716 133.356 245.746 133.356V131.151L244.917 130.485L244.873 130.529V130.514Z" fill="#CACACA"/>
<path d="M244.725 130.618C244.636 130.544 244.636 130.411 244.725 130.337C244.814 130.263 244.976 130.263 245.065 130.337C245.154 130.411 245.154 130.544 245.065 130.618C244.976 130.692 244.814 130.692 244.725 130.618Z" fill="#00FFFF"/>
<path d="M244.887 130.707C244.887 130.707 244.754 130.692 244.695 130.648C244.636 130.603 244.621 130.544 244.621 130.485C244.621 130.426 244.651 130.367 244.695 130.322C244.799 130.233 244.961 130.233 245.065 130.322C245.109 130.367 245.139 130.426 245.139 130.485C245.139 130.544 245.109 130.603 245.065 130.648C245.006 130.692 244.947 130.707 244.873 130.707H244.887ZM244.887 130.293C244.887 130.293 244.769 130.307 244.739 130.352C244.71 130.396 244.68 130.426 244.68 130.47C244.68 130.515 244.71 130.559 244.739 130.589C244.828 130.663 244.961 130.648 245.05 130.589C245.095 130.559 245.109 130.515 245.109 130.47C245.109 130.426 245.08 130.381 245.05 130.352C245.006 130.322 244.947 130.293 244.902 130.293H244.887Z" fill="#CACACA"/>
<path d="M248.778 130.5L249.577 131.166V133.356C249.577 133.356 249.681 133.356 249.725 133.356V131.121L248.867 130.426L248.778 130.5Z" fill="#00FFFF"/>
<path d="M249.563 133.385V131.166L248.734 130.5L248.868 130.396H248.882L249.711 131.107L249.741 133.385H249.711C249.711 133.385 249.637 133.385 249.593 133.385H249.563ZM248.808 130.5L249.578 131.151L249.607 133.341H249.681V131.136L248.853 130.47L248.794 130.515L248.808 130.5Z" fill="#CACACA"/>
<path d="M230.813 125.72L231.687 126.445L231.746 133.311C231.746 133.311 231.835 133.311 231.879 133.311L231.82 126.386L230.902 125.616L230.813 125.69V125.72Z" fill="#00FFFF"/>
<path d="M231.894 133.356H231.717V133.326L231.657 126.46L230.77 125.72L230.903 125.616H230.918L231.835 126.401L231.909 133.356H231.894ZM231.761 133.311H231.835L231.776 126.416L230.888 125.69L230.844 125.735L231.702 126.445L231.761 133.311Z" fill="#CACACA"/>
<path d="M230.695 125.839C230.607 125.765 230.607 125.631 230.695 125.557C230.784 125.483 230.947 125.483 231.036 125.557C231.125 125.631 231.125 125.765 231.036 125.839C230.947 125.913 230.784 125.913 230.695 125.839Z" fill="#00FFFF"/>
<path d="M230.858 125.912C230.858 125.912 230.725 125.898 230.666 125.853C230.621 125.809 230.592 125.75 230.592 125.691C230.592 125.631 230.621 125.572 230.666 125.528C230.769 125.439 230.932 125.439 231.036 125.528C231.08 125.572 231.11 125.631 231.11 125.691C231.11 125.75 231.08 125.809 231.036 125.853C230.977 125.898 230.917 125.912 230.843 125.912H230.858ZM230.858 125.498C230.858 125.498 230.74 125.513 230.71 125.557C230.666 125.587 230.651 125.631 230.651 125.676C230.651 125.72 230.681 125.765 230.71 125.794C230.784 125.868 230.932 125.868 231.021 125.794C231.065 125.765 231.08 125.72 231.08 125.676C231.08 125.631 231.051 125.587 231.021 125.557C230.977 125.528 230.917 125.498 230.873 125.498H230.858Z" fill="#CACACA"/>
<path d="M234.084 132.571C234.173 132.497 234.336 132.497 234.425 132.571C234.513 132.645 234.513 132.779 234.425 132.853C234.336 132.927 234.173 132.927 234.084 132.853C233.995 132.779 233.995 132.645 234.084 132.571Z" fill="#00FFFF"/>
<path d="M234.247 132.941C234.247 132.941 234.114 132.927 234.069 132.882C234.01 132.838 233.98 132.779 233.98 132.719C233.98 132.66 234.01 132.601 234.054 132.557C234.158 132.468 234.321 132.468 234.424 132.557C234.484 132.601 234.513 132.66 234.513 132.719C234.513 132.779 234.484 132.838 234.439 132.882C234.38 132.927 234.321 132.941 234.247 132.941ZM234.099 132.601C234.099 132.601 234.04 132.675 234.04 132.719C234.04 132.764 234.069 132.808 234.099 132.838C234.188 132.912 234.321 132.897 234.41 132.838C234.454 132.808 234.469 132.764 234.469 132.719C234.469 132.675 234.439 132.631 234.41 132.601C234.321 132.527 234.188 132.542 234.099 132.601Z" fill="#CACACA"/>
<path d="M235.386 130.781V133.03L235.046 133.282C235.12 133.282 235.223 133.282 235.297 133.282L235.549 133.074V130.781H235.401H235.386Z" fill="#00FFFF"/>
<path d="M234.928 133.326L235.401 133L235.372 130.751H235.549V133.074L235.312 133.311C235.253 133.326 235.224 133.311 235.194 133.311C235.15 133.311 235.091 133.296 235.061 133.311L234.943 133.341L234.928 133.326ZM235.135 133.252C235.135 133.252 235.239 133.252 235.283 133.252H235.298L235.534 133.045L235.505 130.796H235.431V133.015L235.15 133.237L235.135 133.252Z" fill="#CACACA"/>
<path d="M235.446 130.988C235.577 130.988 235.683 130.895 235.683 130.781C235.683 130.666 235.577 130.574 235.446 130.574C235.315 130.574 235.209 130.666 235.209 130.781C235.209 130.895 235.315 130.988 235.446 130.988Z" fill="#00FFFF"/>
<path d="M235.446 131.018C235.446 131.018 235.313 130.988 235.254 130.944C235.209 130.899 235.18 130.855 235.18 130.796C235.18 130.796 235.194 130.692 235.239 130.648C235.283 130.603 235.357 130.574 235.446 130.574C235.594 130.574 235.712 130.677 235.712 130.796C235.712 130.929 235.594 131.018 235.446 131.018ZM235.446 130.618C235.446 130.618 235.313 130.648 235.283 130.677C235.254 130.707 235.239 130.751 235.239 130.796C235.239 130.796 235.254 130.87 235.298 130.914C235.342 130.958 235.402 130.973 235.446 130.973C235.564 130.973 235.653 130.899 235.653 130.796C235.653 130.707 235.55 130.618 235.431 130.618H235.446Z" fill="#CACACA"/>
<path d="M231.731 131.343L231.835 131.417L233.478 130.012L233.463 128.591H233.33L233.344 129.967L231.731 131.343Z" fill="#00FFFF"/>
<path d="M231.835 131.462L231.702 131.358H231.732L233.345 129.967V128.576H233.508V130.026L231.85 131.462H231.835ZM231.776 131.358L231.835 131.403L233.463 130.012V128.635H233.36V129.997L231.776 131.373V131.358Z" fill="#CACACA"/>
<path d="M233.152 128.606C233.152 128.487 233.256 128.399 233.389 128.399C233.522 128.399 233.626 128.487 233.626 128.606C233.626 128.724 233.522 128.813 233.389 128.813C233.256 128.813 233.152 128.724 233.152 128.606Z" fill="#00FFFF"/>
<path d="M233.404 128.828C233.256 128.828 233.138 128.724 233.138 128.606C233.138 128.487 233.256 128.384 233.404 128.384C233.552 128.384 233.67 128.487 233.67 128.606C233.67 128.665 233.656 128.709 233.611 128.754C233.567 128.798 233.493 128.828 233.419 128.828H233.404ZM233.182 128.606C233.182 128.709 233.286 128.783 233.404 128.783C233.463 128.783 233.522 128.754 233.567 128.724C233.596 128.695 233.611 128.65 233.611 128.606C233.611 128.502 233.522 128.428 233.389 128.428C233.271 128.428 233.182 128.517 233.182 128.606Z" fill="#CACACA"/>
<path d="M247.551 128.265V133.415C247.551 133.415 247.64 133.415 247.684 133.415V128.31L249.134 127.052L249.046 126.978L247.536 128.265H247.551Z" fill="#00FFFF"/>
<path d="M247.714 133.43H247.536V128.236L249.06 126.934L249.194 127.037H249.164L247.699 128.325V133.43H247.714ZM247.581 133.385H247.655V128.31L249.09 127.052L249.046 127.008L247.566 128.28V133.4L247.581 133.385Z" fill="#CACACA"/>
<path d="M248.928 126.874C249.017 126.8 249.179 126.8 249.268 126.874C249.357 126.948 249.357 127.082 249.268 127.155C249.179 127.229 249.017 127.229 248.928 127.155C248.839 127.082 248.839 126.948 248.928 126.874Z" fill="#00FFFF"/>
<path d="M249.105 127.244C249.105 127.244 248.972 127.229 248.913 127.185C248.854 127.141 248.839 127.082 248.839 127.022C248.839 126.963 248.868 126.904 248.913 126.86C249.016 126.771 249.179 126.771 249.283 126.86C249.327 126.904 249.357 126.963 249.357 127.022C249.357 127.082 249.327 127.141 249.283 127.185C249.224 127.229 249.164 127.244 249.09 127.244H249.105ZM249.105 126.83C249.105 126.83 248.987 126.845 248.957 126.889C248.957 126.889 248.898 126.963 248.898 127.008C248.898 127.052 248.928 127.096 248.957 127.126C249.046 127.2 249.179 127.185 249.253 127.126C249.298 127.096 249.312 127.052 249.312 127.008C249.312 126.963 249.283 126.919 249.253 126.889C249.209 126.86 249.15 126.83 249.105 126.83Z" fill="#CACACA"/>
<path d="M248.988 130.442C248.988 130.311 248.896 130.205 248.781 130.204C248.667 130.204 248.574 130.31 248.574 130.441C248.573 130.571 248.666 130.678 248.78 130.678C248.895 130.678 248.988 130.572 248.988 130.442Z" fill="#00FFFF"/>
<path d="M248.764 130.722C248.631 130.722 248.513 130.603 248.513 130.44C248.513 130.278 248.616 130.159 248.764 130.145C248.897 130.145 249.016 130.278 249.016 130.44C249.016 130.603 248.897 130.722 248.764 130.722ZM248.764 130.233C248.675 130.233 248.616 130.322 248.616 130.426C248.616 130.529 248.69 130.618 248.764 130.618C248.838 130.618 248.912 130.529 248.912 130.426C248.912 130.322 248.838 130.233 248.764 130.233Z" fill="#B1B1B1"/>
<path d="M218.042 120.526L223.296 128.058H228.549V133.666H198.908C198.301 132.705 196.703 129.893 197.013 126.105C197.235 123.441 198.286 121.503 198.908 120.526H218.027H218.042Z" fill="#E4E4E4"/>
<path d="M228.815 133.903H198.774L198.7 133.785C197.857 132.438 196.48 129.656 196.776 126.075C196.939 124.063 197.605 122.095 198.7 120.378L198.774 120.26H218.16L218.234 120.363L223.414 127.792H228.8V133.903H228.815ZM199.07 133.4H228.312V128.295H223.177L223.103 128.191L217.923 120.763H199.07C198.064 122.391 197.442 124.226 197.294 126.105C197.028 129.434 198.256 132.053 199.07 133.385V133.4Z" fill="black"/>
<path d="M207.756 130.485C209.636 130.485 211.16 128.961 211.16 127.081C211.16 125.202 209.636 123.678 207.756 123.678C205.876 123.678 204.353 125.202 204.353 127.081C204.353 128.961 205.876 130.485 207.756 130.485Z" fill="#00FFFF"/>
<path d="M207.742 130.618C205.803 130.618 204.22 129.035 204.22 127.081C204.22 125.128 205.803 123.56 207.742 123.56C209.68 123.56 211.264 125.143 211.264 127.081C211.264 129.02 209.68 130.618 207.742 130.618ZM207.742 123.826C205.936 123.826 204.471 125.291 204.471 127.096C204.471 128.901 205.936 130.366 207.742 130.366C209.547 130.366 211.012 128.901 211.012 127.096C211.012 125.291 209.547 123.826 207.742 123.826Z" fill="#CACACA"/>
<path d="M207.758 129.848C209.286 129.848 210.525 128.61 210.525 127.081C210.525 125.553 209.286 124.314 207.758 124.314C206.229 124.314 204.99 125.553 204.99 127.081C204.99 128.61 206.229 129.848 207.758 129.848Z" fill="#E4E4E4"/>
<path d="M207.743 130.1C206.085 130.1 204.724 128.739 204.724 127.081C204.724 125.424 206.07 124.063 207.743 124.063C209.415 124.063 210.761 125.409 210.761 127.081C210.761 128.754 209.415 130.1 207.743 130.1ZM207.743 124.581C206.366 124.581 205.242 125.705 205.242 127.081C205.242 128.458 206.366 129.597 207.743 129.597C209.119 129.597 210.258 128.472 210.258 127.081C210.258 125.69 209.134 124.581 207.743 124.581Z" fill="#1A1A1A"/>
<path opacity="0.65" d="M207.742 129.849C206.218 129.849 204.989 128.606 204.989 127.081C204.989 125.557 206.232 124.329 207.742 124.329C209.251 124.329 210.494 125.572 210.494 127.081C210.494 128.591 209.251 129.849 207.742 129.849ZM207.742 124.595C206.366 124.595 205.241 125.705 205.241 127.096C205.241 128.487 206.366 129.597 207.742 129.597C209.118 129.597 210.243 128.472 210.243 127.096C210.243 125.72 209.118 124.595 207.742 124.595Z" fill="#666666"/>
<path d="M891.526 178.622H1087.13L1136.41 201.203L1086.84 229.732H891.215L841.936 201.203L891.526 178.622Z" fill="#4D4D4D"/>
<path d="M1087 230.354H891.052L890.904 230.265L840.56 201.129L841.684 200.626L891.526 177.985L1087.4 178.045L1137.8 201.129L1087.02 230.354H1087ZM891.393 229.081H1086.66L1135.02 201.262L1086.99 179.258H891.644L843.312 201.262L891.378 229.081H891.393Z" fill="black"/>
<path d="M891.526 182.469H1086.84L1125.28 201.203L1086.84 223.828H891.526L854.308 201.203L891.526 182.469Z" fill="url(#paint5_radial_376_894)"/>
<path d="M1087 224.464H891.333L891.185 224.376L852.99 201.158L854.011 200.64L891.511 181.847L1087.1 181.907L1126.62 201.158L1087 224.479V224.464ZM891.688 223.192H1086.65L1123.94 201.262L1086.67 183.12H891.659L855.595 201.262L891.674 223.192H891.688Z" fill="#808080"/>
<path d="M1136.41 201.203L1167.96 156.425L1124.04 138.52L1086.84 178.621L1136.41 201.203Z" fill="url(#paint6_linear_376_894)"/>
<path d="M1136.84 202.801L1084.71 179.051L1123.72 137.011L1169.92 155.848L1136.84 202.786V202.801ZM1088.95 178.207L1135.97 199.619L1165.99 157.017L1124.38 140.044L1088.97 178.207H1088.95Z" fill="black"/>
<path d="M1166.7 188.003L1167.96 157.979L1136.41 202.742L1166.7 188.003Z" fill="#808080"/>
<path d="M1132.54 206.041L1169.41 153.702L1167.95 188.802L1132.52 206.041H1132.54ZM1166.51 162.241L1140.29 199.442L1165.48 187.189L1166.51 162.241Z" fill="black"/>
<path d="M841.935 201.203L810.399 156.425L854.307 138.52L891.525 178.622L841.935 201.203Z" fill="url(#paint7_linear_376_894)"/>
<path d="M841.507 202.801L808.432 155.863L854.633 137.026L893.642 179.066L841.507 202.816V202.801ZM812.353 157.017L842.38 199.619L889.395 178.207L853.982 140.044L812.368 157.017H812.353Z" fill="black"/>
<path d="M811.643 186.45L810.399 157.949L841.935 201.203L811.643 186.45Z" fill="#808080"/>
<path d="M845.975 204.577L810.4 187.263L808.935 153.791L845.975 204.577ZM812.871 185.65L837.895 197.829L811.835 162.107L812.856 185.65H812.871Z" fill="black"/>
<path d="M856.083 139.201L891.526 161.146H1084.63L1122.86 139.201L1086.84 178.622H891.526L856.083 139.201Z" fill="url(#paint8_linear_376_894)"/>
<path d="M1087.1 179.258H891.23L891.037 179.051L852.635 136.33L891.688 160.524H1084.45L1126.05 136.626L1087.09 179.258H1087.1ZM891.792 177.985H1086.54L1119.62 141.776L1084.79 161.782H891.318L891.17 161.693L859.516 142.086L891.792 177.985Z" fill="black"/>
<path d="M1166.72 187.988L1165.8 239.069L1137.36 280.902L1136.41 202.061L1137.92 201.203L1166.72 187.988Z" fill="#808080"/>
<path d="M1136.15 284.957L1135.14 201.336L1137.3 200.108L1168.02 185.991L1167.08 239.469L1136.15 284.957ZM1137.7 202.801L1138.59 276.848L1164.54 238.67L1165.4 190.001L1137.69 202.801H1137.7Z" fill="black"/>
<path d="M843.461 201.202L841.137 281.346L812.235 239.587L811.644 186.464L843.461 201.202Z" fill="#808080"/>
<path d="M842.291 285.253L810.962 239.987L810.341 184.452L844.762 200.403L842.291 285.253ZM813.493 239.188L839.968 277.44L842.158 202.002L812.916 188.462L813.478 239.188H813.493Z" fill="black"/>
<path d="M893.035 298.941L841.936 282.5L843.46 201.203L892.724 229.732L893.035 298.941Z" fill="#B1B1B1"/>
<path d="M894.323 300.687L840.648 283.418L842.232 199.027L893.997 229.007L894.323 300.701V300.687ZM843.223 281.583L891.763 297.194L891.467 230.472L844.703 203.393L843.238 281.598L843.223 281.583Z" fill="black"/>
<path d="M1088.35 229.732V298.941H893.035L892.725 229.732H1088.35Z" fill="#B1B1B1"/>
<path d="M1089.62 300.213H891.778L891.452 228.46H1089.61V300.213H1089.62ZM894.308 297.668H1087.07V231.005H894.012L894.308 297.668Z" fill="black"/>
<path d="M1136.41 202.061V282.293L1088.35 298.94V229.732L1136.41 202.061Z" fill="#B1B1B1"/>
<path d="M1087.07 300.731V229.007L1137.69 199.871V283.196L1087.07 300.731ZM1089.62 230.472V297.165L1135.15 281.405V204.281L1089.62 230.487V230.472Z" fill="black"/>
<path d="M1137.05 201.203H1135.78V202.061H1137.05V201.203Z" fill="#1A1A1A"/>
<path d="M843.46 201.203L838.236 217.732L881.359 243.509L892.68 229.732L843.46 201.203Z" fill="#333333"/>
<path d="M881.507 244.323L881.034 244.042L837.481 218.013L843.09 200.256L893.642 229.555L881.492 244.338L881.507 244.323ZM839.006 217.436L881.226 242.68L891.718 229.895L843.83 202.15L839.006 217.436Z" fill="black"/>
<path d="M838.34 218.457L843.105 237.516L886.287 265.365L881.359 243.509L838.34 218.457Z" fill="#333333"/>
<path d="M887.249 266.726L842.557 237.915L842.498 237.679L837.378 217.169L881.937 243.109L887.264 266.741L887.249 266.726ZM843.667 237.116L885.325 263.974L880.797 243.908L839.317 219.759L843.653 237.116H843.667Z" fill="black"/>
<path d="M886.273 243.746L892.399 236.303L892.68 229.732L881.359 243.509L886.287 265.365L885.932 259.52L885.784 247.549L883.357 244.634L886.273 243.746Z" fill="#333333"/>
<path d="M885.666 265.498L880.679 243.346L893.406 227.853L893.036 236.539L886.643 244.293L884.467 244.959L886.421 247.297L886.583 259.505L886.939 265.306L885.681 265.483L885.666 265.498ZM882.04 243.672L885.281 258.01L885.148 247.771L882.262 244.308L885.903 243.198L891.778 236.066L891.97 231.597L882.055 243.672H882.04Z" fill="black"/>
<path d="M1136.81 201.868L1142.02 218.382L1098.99 244.16L1087.68 230.383L1136.81 201.868Z" fill="#333333"/>
<path d="M1098.84 244.989L1086.72 230.206L1087.37 229.836L1137.18 200.921L1142.78 218.678L1142.35 218.93L1098.84 244.989ZM1088.64 230.546L1099.12 243.316L1141.25 218.087L1136.43 202.801L1088.63 230.546H1088.64Z" fill="black"/>
<path d="M1141.9 219.122L1137.15 238.182L1094.06 266.016L1098.99 244.16L1141.9 219.122Z" fill="#333333"/>
<path d="M1093.1 267.407L1098.42 243.76L1098.66 243.612L1142.89 217.805L1137.71 238.566L1137.51 238.7L1093.11 267.392L1093.1 267.407ZM1099.53 244.574L1095.02 264.64L1136.59 237.782L1140.93 220.439L1099.53 244.574Z" fill="black"/>
<path d="M1094.07 244.411L1087.96 236.953L1087.68 230.383L1098.99 244.16L1094.06 266.016L1094.41 260.186L1094.56 248.2L1096.97 245.299L1094.07 244.411Z" fill="#333333"/>
<path d="M1094.68 266.164L1093.42 265.986L1093.78 260.141L1093.94 247.978L1095.88 245.625L1093.7 244.959L1087.33 237.205L1086.96 228.519L1099.65 244.012L1099.58 244.308L1094.67 266.164H1094.68ZM1095.2 248.436L1095.06 258.647L1098.29 244.323L1088.39 232.248L1088.58 236.717L1094.44 243.849L1098.07 244.959L1095.18 248.422L1095.2 248.436Z" fill="black"/>
<path d="M979.311 254.592L988.678 268.014H998.046V277.987H945.244C944.164 276.286 941.323 271.269 941.87 264.521C942.255 259.786 944.119 256.324 945.244 254.592H979.311Z" fill="#E4E4E4"/>
<path d="M998.682 278.624H944.889L944.697 278.328C943.188 275.93 940.716 270.914 941.234 264.477C941.604 259.919 943.321 256.398 944.697 254.252L944.889 253.956H979.636L989.004 267.377H998.668V278.624H998.682ZM945.6 277.351H997.41V268.65H988.338L978.971 255.229H945.585C944.327 257.286 942.832 260.482 942.507 264.581C942.033 270.411 944.149 274.983 945.6 277.366V277.351Z" fill="black"/>
<path d="M960.975 272.349C964.318 272.349 967.028 269.64 967.028 266.297C967.028 262.955 964.318 260.245 960.975 260.245C957.633 260.245 954.923 262.955 954.923 266.297C954.923 269.64 957.633 272.349 960.975 272.349Z" fill="#00FFFF"/>
<path d="M960.976 272.483C957.572 272.483 954.79 269.701 954.79 266.297C954.79 262.894 957.557 260.112 960.976 260.112C964.394 260.112 967.162 262.894 967.162 266.297C967.162 269.701 964.394 272.483 960.976 272.483ZM960.976 260.363C957.705 260.363 955.042 263.012 955.042 266.297C955.042 269.582 957.705 272.231 960.976 272.231C964.246 272.231 966.91 269.582 966.91 266.297C966.91 263.012 964.246 260.363 960.976 260.363Z" fill="#CACACA"/>
<path d="M960.976 271.21C963.689 271.21 965.889 269.011 965.889 266.297C965.889 263.584 963.689 261.385 960.976 261.385C958.262 261.385 956.062 263.584 956.062 266.297C956.062 269.011 958.262 271.21 960.976 271.21Z" fill="#E4E4E4"/>
<path d="M960.975 271.462C958.119 271.462 955.796 269.138 955.796 266.282C955.796 263.426 958.119 261.103 960.975 261.103C963.832 261.103 966.14 263.426 966.14 266.282C966.14 269.138 963.817 271.462 960.975 271.462ZM960.975 261.621C958.4 261.621 956.314 263.722 956.314 266.282C956.314 268.842 958.415 270.944 960.975 270.944C963.536 270.944 965.637 268.842 965.637 266.282C965.637 263.722 963.55 261.621 960.975 261.621Z" fill="#1A1A1A"/>
<path opacity="0.65" d="M960.976 271.106C958.327 271.106 956.166 268.946 956.166 266.297C956.166 263.648 958.327 261.488 960.976 261.488C963.625 261.488 965.785 263.648 965.785 266.297C965.785 268.946 963.625 271.106 960.976 271.106ZM960.976 261.74C958.46 261.74 956.418 263.782 956.418 266.297C956.418 268.813 958.46 270.855 960.976 270.855C963.491 270.855 965.534 268.813 965.534 266.297C965.534 263.782 963.491 261.74 960.976 261.74Z" fill="#666666"/>
<path d="M1041.41 266.785C1041.18 272.349 1038.79 276.241 1037.69 277.736H998.076V267.777H988.708L979.74 254.592H1038.11C1039.1 256.042 1041.64 260.363 1041.42 266.785H1041.41Z" fill="#E4E4E4"/>
<path d="M1038.02 278.372H997.439V268.413H988.367L978.526 253.956H1038.42L1038.61 254.222C1039.72 255.835 1042.26 260.275 1042.03 266.8C1041.79 272.571 1039.26 276.626 1038.19 278.106L1038 278.372H1038.02ZM998.712 277.099H1037.37C1038.45 275.531 1040.56 271.861 1040.77 266.756C1040.98 260.955 1038.86 256.916 1037.75 255.229H980.924L989.033 267.141H998.697V277.099H998.712Z" fill="black"/>
<path d="M1012.75 277.011L1012.7 269.183H1012.47L1012.55 277.159C1012.62 277.114 1012.7 277.055 1012.77 277.011H1012.75Z" fill="#00FFFF"/>
<path d="M1012.52 277.203V277.159L1012.44 269.153H1012.73V269.168L1012.78 277.025C1012.71 277.07 1012.64 277.114 1012.56 277.173L1012.52 277.203ZM1012.5 269.197L1012.58 277.099C1012.58 277.099 1012.7 277.025 1012.76 276.996L1012.7 269.197H1012.52H1012.5Z" fill="#CACACA"/>
<path d="M1012.58 269.553C1012.81 269.553 1013.01 269.394 1013.01 269.197C1013.01 269.001 1012.81 268.842 1012.58 268.842C1012.34 268.842 1012.15 269.001 1012.15 269.197C1012.15 269.394 1012.34 269.553 1012.58 269.553Z" fill="#00FFFF"/>
<path d="M1012.59 269.582C1012.34 269.582 1012.13 269.419 1012.13 269.197C1012.13 268.975 1012.33 268.813 1012.58 268.798C1012.83 268.798 1013.04 268.961 1013.04 269.183C1013.04 269.405 1012.84 269.567 1012.59 269.567V269.582ZM1012.59 268.857C1012.37 268.857 1012.19 269.005 1012.19 269.197C1012.19 269.39 1012.37 269.523 1012.61 269.523C1012.83 269.523 1013.01 269.375 1013.01 269.183C1013.01 268.99 1012.83 268.842 1012.59 268.842V268.857Z" fill="#CACACA"/>
<path d="M1014.84 277.321L1014.83 271.905H1014.61V277.321H1014.84Z" fill="#00FFFF"/>
<path d="M1014.87 277.351H1014.59V271.876H1014.86V277.351H1014.87ZM1014.65 277.306H1014.83V271.935H1014.64V277.306H1014.65Z" fill="#CACACA"/>
<path d="M1008.29 277.144V276.389H1008.05V277.336C1008.14 277.277 1008.21 277.218 1008.29 277.158V277.144Z" fill="#00FFFF"/>
<path d="M1008.04 277.38V276.359H1008.3V277.158C1008.23 277.218 1008.15 277.277 1008.08 277.336L1008.04 277.366V277.38ZM1008.08 276.419V277.277C1008.08 277.277 1008.2 277.188 1008.27 277.129V276.404H1008.08V276.419Z" fill="#CACACA"/>
<path d="M1014.28 271.92C1014.28 271.728 1014.47 271.565 1014.71 271.55C1014.95 271.535 1015.14 271.713 1015.14 271.905C1015.14 272.098 1014.95 272.26 1014.71 272.275C1014.47 272.29 1014.28 272.112 1014.28 271.92Z" fill="#00FFFF"/>
<path d="M1014.71 272.305C1014.47 272.305 1014.27 272.142 1014.27 271.92C1014.27 271.713 1014.47 271.535 1014.72 271.535C1014.98 271.535 1015.18 271.698 1015.18 271.92C1015.18 272.009 1015.15 272.098 1015.08 272.172C1014.99 272.26 1014.87 272.305 1014.74 272.305H1014.71ZM1014.31 271.92C1014.31 272.098 1014.49 272.246 1014.71 272.246C1014.83 272.246 1014.95 272.201 1015.02 272.127C1015.08 272.068 1015.11 271.994 1015.11 271.92C1015.11 271.743 1014.93 271.595 1014.71 271.595C1014.49 271.595 1014.31 271.743 1014.31 271.935V271.92Z" fill="#CACACA"/>
<path d="M1020.92 277.38L1020.88 265.439H1020.66L1020.7 277.262C1020.78 277.292 1020.85 277.336 1020.92 277.38Z" fill="#00FFFF"/>
<path d="M1020.95 277.425H1020.92C1020.85 277.366 1020.78 277.321 1020.7 277.292V277.262L1020.64 265.409H1020.91V265.439L1020.95 277.425ZM1020.73 277.247C1020.73 277.247 1020.85 277.306 1020.91 277.336L1020.86 265.468H1020.69L1020.73 277.262V277.247Z" fill="#CACACA"/>
<path d="M1020.35 265.454C1020.35 265.261 1020.54 265.098 1020.78 265.084C1021.01 265.069 1021.21 265.246 1021.21 265.439C1021.21 265.631 1021.01 265.794 1020.78 265.809C1020.54 265.824 1020.35 265.646 1020.35 265.454Z" fill="#00FFFF"/>
<path d="M1020.78 265.838C1020.52 265.838 1020.32 265.676 1020.32 265.454C1020.32 265.365 1020.35 265.276 1020.42 265.202C1020.51 265.113 1020.63 265.054 1020.78 265.069C1021.01 265.069 1021.22 265.232 1021.22 265.454C1021.22 265.661 1021.01 265.838 1020.76 265.838H1020.78ZM1020.78 265.113C1020.66 265.113 1020.54 265.158 1020.47 265.232C1020.41 265.291 1020.38 265.365 1020.38 265.439C1020.38 265.616 1020.55 265.764 1020.78 265.764C1021 265.764 1021.18 265.616 1021.18 265.424C1021.18 265.246 1021 265.098 1020.78 265.098V265.113Z" fill="#CACACA"/>
<path d="M1026.62 277.277V275.043H1026.38V277.277C1026.46 277.277 1026.55 277.277 1026.62 277.277Z" fill="#00FFFF"/>
<path d="M1026.37 277.321V275.028H1026.64V277.307H1026.62C1026.55 277.307 1026.47 277.307 1026.4 277.307H1026.37V277.321ZM1026.41 275.072V277.262C1026.41 277.262 1026.53 277.262 1026.59 277.262V275.072H1026.41Z" fill="#CACACA"/>
<path d="M1026.5 275.412C1026.74 275.412 1026.93 275.253 1026.93 275.057C1026.93 274.861 1026.74 274.702 1026.5 274.702C1026.27 274.702 1026.07 274.861 1026.07 275.057C1026.07 275.253 1026.27 275.412 1026.5 275.412Z" fill="#00FFFF"/>
<path d="M1026.52 275.442C1026.27 275.442 1026.06 275.265 1026.06 275.057C1026.06 274.969 1026.09 274.88 1026.16 274.806C1026.25 274.717 1026.37 274.673 1026.5 274.673C1026.76 274.673 1026.96 274.835 1026.96 275.057C1026.96 275.265 1026.77 275.442 1026.5 275.457L1026.52 275.442ZM1026.52 274.717C1026.4 274.717 1026.28 274.761 1026.21 274.835C1026.15 274.895 1026.12 274.969 1026.12 275.043C1026.12 275.22 1026.3 275.383 1026.52 275.383C1026.74 275.383 1026.92 275.22 1026.92 275.043C1026.92 274.865 1026.74 274.717 1026.5 274.717H1026.52Z" fill="#CACACA"/>
<path d="M1022.51 268.916L1022.6 277.159C1022.6 277.159 1022.83 277.366 1022.83 277.38L1022.73 268.916H1022.51Z" fill="#00FFFF"/>
<path d="M1022.82 277.381C1022.82 277.381 1022.63 277.188 1022.6 277.188H1022.57L1022.58 277.159L1022.49 268.887H1022.77V268.902L1022.88 277.366H1022.83L1022.82 277.381ZM1022.63 277.144C1022.63 277.144 1022.76 277.247 1022.82 277.307L1022.72 268.931H1022.54L1022.63 277.144Z" fill="#CACACA"/>
<path d="M1022.2 268.931C1022.2 268.739 1022.39 268.576 1022.63 268.561C1022.86 268.546 1023.06 268.724 1023.06 268.916C1023.06 269.109 1022.86 269.271 1022.63 269.286C1022.39 269.301 1022.2 269.123 1022.2 268.931Z" fill="#00FFFF"/>
<path d="M1022.63 269.316C1022.38 269.316 1022.17 269.153 1022.17 268.931C1022.17 268.842 1022.2 268.753 1022.27 268.679C1022.36 268.591 1022.48 268.531 1022.61 268.531C1022.86 268.531 1023.07 268.694 1023.07 268.916C1023.07 269.138 1022.88 269.301 1022.61 269.301L1022.63 269.316ZM1022.63 268.591C1022.51 268.591 1022.39 268.635 1022.32 268.724C1022.26 268.783 1022.23 268.857 1022.23 268.931C1022.23 269.109 1022.4 269.257 1022.63 269.257C1022.85 269.257 1023.03 269.109 1023.03 268.916C1023.03 268.724 1022.85 268.576 1022.61 268.576L1022.63 268.591Z" fill="#CACACA"/>
<path d="M1014.12 266.341L1016.31 268.162V277.351C1016.38 277.336 1016.46 277.321 1016.54 277.306V268.088L1014.28 266.208L1014.12 266.341Z" fill="#00FFFF"/>
<path d="M1016.28 277.38V268.162L1014.07 266.341L1014.26 266.179H1014.28L1016.54 268.073V277.336L1016.45 277.351C1016.41 277.351 1016.35 277.366 1016.31 277.38H1016.28ZM1014.15 266.341L1016.31 268.147V277.321C1016.31 277.321 1016.4 277.306 1016.44 277.292H1016.5V268.088L1014.26 266.253L1014.15 266.356V266.341Z" fill="#CACACA"/>
<path d="M1013.91 266.549C1013.75 266.415 1013.75 266.179 1013.91 266.045C1014.07 265.912 1014.34 265.897 1014.52 266.045C1014.68 266.179 1014.68 266.415 1014.52 266.549C1014.35 266.697 1014.09 266.697 1013.91 266.549Z" fill="#00FFFF"/>
<path d="M1014.22 266.682C1014.12 266.682 1014 266.652 1013.91 266.578C1013.82 266.504 1013.78 266.415 1013.78 266.312C1013.78 266.208 1013.82 266.105 1013.91 266.031C1014.09 265.898 1014.35 265.868 1014.55 266.031C1014.63 266.105 1014.68 266.193 1014.68 266.297C1014.68 266.401 1014.63 266.504 1014.55 266.578C1014.46 266.652 1014.34 266.697 1014.22 266.697V266.682ZM1014.22 265.957C1014.12 265.957 1014.01 265.986 1013.92 266.06C1013.85 266.119 1013.81 266.208 1013.81 266.297C1013.81 266.386 1013.85 266.475 1013.92 266.534C1014.09 266.667 1014.34 266.667 1014.5 266.534C1014.58 266.475 1014.62 266.386 1014.61 266.297C1014.61 266.208 1014.56 266.119 1014.49 266.06C1014.41 266.001 1014.31 265.957 1014.21 265.957H1014.22Z" fill="#CACACA"/>
<path d="M1027.02 272.379L1028.44 273.563L1028.47 277.469C1028.55 277.469 1028.62 277.469 1028.69 277.469L1028.66 273.489L1027.17 272.246L1027.01 272.379H1027.02Z" fill="#00FFFF"/>
<path d="M1028.46 277.499V277.469L1028.43 273.563L1026.99 272.379L1027.18 272.201H1027.2L1028.69 273.459L1028.74 277.484H1028.71C1028.63 277.484 1028.56 277.484 1028.49 277.484H1028.46V277.499ZM1027.07 272.379L1028.47 273.533L1028.52 277.44C1028.52 277.44 1028.63 277.44 1028.69 277.44L1028.66 273.489L1027.2 272.275L1027.08 272.379H1027.07Z" fill="#CACACA"/>
<path d="M1026.83 272.586C1026.67 272.453 1026.67 272.216 1026.83 272.083C1026.99 271.935 1027.26 271.935 1027.44 272.083C1027.6 272.216 1027.6 272.453 1027.44 272.586C1027.27 272.719 1027.01 272.734 1026.83 272.586Z" fill="#00FFFF"/>
<path d="M1027.13 272.719C1027.01 272.719 1026.9 272.675 1026.81 272.616C1026.73 272.542 1026.68 272.438 1026.68 272.335C1026.68 272.231 1026.73 272.142 1026.81 272.068C1026.98 271.92 1027.27 271.92 1027.45 272.068C1027.54 272.142 1027.58 272.231 1027.58 272.335C1027.58 272.438 1027.54 272.542 1027.45 272.616C1027.36 272.69 1027.24 272.734 1027.13 272.734V272.719ZM1026.84 272.571C1027.01 272.705 1027.26 272.705 1027.42 272.571C1027.5 272.512 1027.53 272.423 1027.53 272.335C1027.53 272.246 1027.48 272.172 1027.41 272.098C1027.24 271.965 1026.99 271.965 1026.83 272.098C1026.76 272.157 1026.73 272.246 1026.71 272.335C1026.71 272.423 1026.76 272.512 1026.83 272.571H1026.84Z" fill="#CACACA"/>
<path d="M1034.05 272.364L1035.47 273.548L1035.5 277.454C1035.58 277.454 1035.65 277.454 1035.72 277.454L1035.69 273.474L1034.2 272.231L1034.04 272.364H1034.05Z" fill="#00FFFF"/>
<path d="M1035.5 277.469H1035.47V277.44L1035.44 273.533L1034.01 272.349L1034.2 272.172H1034.21L1035.71 273.43L1035.75 277.455H1035.72C1035.65 277.455 1035.58 277.455 1035.5 277.455V277.469ZM1034.08 272.364L1035.47 273.518L1035.52 277.41C1035.52 277.41 1035.62 277.41 1035.69 277.41L1035.66 273.459L1034.2 272.246L1034.08 272.349V272.364Z" fill="#CACACA"/>
<path d="M1002.04 263.855L1003.61 265.158L1003.71 277.395C1003.79 277.395 1003.86 277.395 1003.94 277.395L1003.83 265.069L1002.2 263.708L1002.04 263.841V263.855Z" fill="#00FFFF"/>
<path d="M1003.97 277.425H1003.94C1003.86 277.425 1003.79 277.425 1003.71 277.425H1003.68V277.395L1003.58 265.158L1002 263.856L1002.19 263.678H1002.2L1003.83 265.054L1003.95 277.425H1003.97ZM1003.74 277.366C1003.74 277.366 1003.86 277.366 1003.92 277.366L1003.82 265.069L1002.2 263.737L1002.09 263.841L1003.62 265.128L1003.74 277.366Z" fill="#CACACA"/>
<path d="M1001.83 264.063C1001.67 263.93 1001.67 263.693 1001.83 263.56C1002 263.412 1002.26 263.412 1002.44 263.56C1002.6 263.693 1002.6 263.93 1002.44 264.063C1002.28 264.196 1002.01 264.211 1001.83 264.063Z" fill="#00FFFF"/>
<path d="M1002.15 264.196C1002.03 264.196 1001.91 264.152 1001.83 264.078C1001.75 264.004 1001.7 263.915 1001.7 263.811C1001.7 263.708 1001.75 263.619 1001.83 263.545C1002 263.397 1002.29 263.397 1002.47 263.545C1002.56 263.619 1002.6 263.708 1002.6 263.811C1002.6 263.915 1002.56 264.018 1002.47 264.092C1002.38 264.166 1002.26 264.211 1002.16 264.211L1002.15 264.196ZM1002.15 263.471C1002.04 263.471 1001.94 263.5 1001.86 263.574C1001.79 263.634 1001.75 263.722 1001.75 263.811C1001.75 263.9 1001.79 263.989 1001.86 264.048C1002.03 264.181 1002.28 264.196 1002.44 264.048C1002.52 263.989 1002.56 263.9 1002.56 263.811C1002.56 263.722 1002.52 263.634 1002.44 263.574C1002.37 263.515 1002.26 263.471 1002.16 263.471H1002.15Z" fill="#CACACA"/>
<path d="M1007.87 276.064C1008.03 275.916 1008.3 275.916 1008.48 276.064C1008.66 276.212 1008.64 276.434 1008.48 276.567C1008.32 276.715 1008.05 276.715 1007.87 276.567C1007.71 276.434 1007.71 276.197 1007.87 276.064Z" fill="#00FFFF"/>
<path d="M1008.18 276.7C1008.06 276.7 1007.96 276.67 1007.87 276.596C1007.78 276.522 1007.74 276.433 1007.74 276.33C1007.74 276.226 1007.78 276.123 1007.87 276.049C1008.05 275.901 1008.35 275.901 1008.51 276.049C1008.6 276.123 1008.64 276.226 1008.64 276.33C1008.64 276.433 1008.6 276.522 1008.51 276.596C1008.42 276.67 1008.32 276.715 1008.2 276.715L1008.18 276.7ZM1007.9 276.078C1007.83 276.138 1007.78 276.226 1007.78 276.315C1007.78 276.404 1007.83 276.478 1007.9 276.552C1008.06 276.685 1008.32 276.685 1008.48 276.552C1008.55 276.493 1008.6 276.419 1008.6 276.33C1008.6 276.241 1008.55 276.152 1008.48 276.093C1008.32 275.96 1008.05 275.96 1007.9 276.093V276.078Z" fill="#CACACA"/>
<path d="M1010.21 272.867L1010.24 276.877L1009.59 277.321C1009.71 277.306 1009.9 277.336 1010.03 277.321L1010.48 276.951L1010.45 272.867H1010.23H1010.21Z" fill="#00FFFF"/>
<path d="M1009.49 277.351L1009.57 277.292L1010.23 276.848L1010.18 272.838H1010.46V272.867L1010.49 276.951L1010.05 277.351C1009.97 277.351 1009.9 277.351 1009.83 277.351C1009.74 277.351 1009.65 277.351 1009.6 277.351H1009.5H1009.49ZM1009.66 277.277C1009.77 277.277 1009.87 277.292 1009.97 277.292H1010.02L1010.45 276.922L1010.4 272.882H1010.23L1010.25 276.863L1009.66 277.277Z" fill="#CACACA"/>
<path d="M1010.31 273.237C1010.55 273.237 1010.74 273.078 1010.74 272.882C1010.74 272.686 1010.55 272.527 1010.31 272.527C1010.08 272.527 1009.88 272.686 1009.88 272.882C1009.88 273.078 1010.08 273.237 1010.31 273.237Z" fill="#00FFFF"/>
<path d="M1010.33 273.267C1010.08 273.267 1009.87 273.104 1009.87 272.882C1009.87 272.66 1010.08 272.497 1010.33 272.497C1010.45 272.497 1010.58 272.542 1010.65 272.631C1010.73 272.704 1010.76 272.793 1010.76 272.882C1010.76 272.971 1010.73 273.06 1010.65 273.134C1010.57 273.222 1010.45 273.267 1010.31 273.267H1010.33ZM1010.33 272.542C1010.11 272.542 1009.93 272.69 1009.93 272.882C1009.93 273.074 1010.11 273.208 1010.34 273.208C1010.46 273.208 1010.58 273.163 1010.65 273.089C1010.71 273.03 1010.74 272.956 1010.74 272.882C1010.74 272.808 1010.71 272.734 1010.65 272.66C1010.58 272.586 1010.48 272.542 1010.36 272.542H1010.33Z" fill="#CACACA"/>
<path d="M1003.7 273.874L1003.86 274.007L1006.79 271.506L1006.76 268.976H1006.54L1006.55 271.432L1003.7 273.874Z" fill="#00FFFF"/>
<path d="M1003.86 274.051H1003.85L1003.65 273.888H1003.68L1006.54 271.417L1006.51 268.961H1006.78V268.99L1006.81 271.521L1003.86 274.066V274.051ZM1003.74 273.888L1003.86 273.992L1006.78 271.506L1006.75 269.02H1006.57V271.447L1003.74 273.888Z" fill="#CACACA"/>
<path d="M1006.23 268.99C1006.23 268.798 1006.42 268.635 1006.66 268.62C1006.89 268.605 1007.09 268.783 1007.09 268.975C1007.09 269.168 1006.89 269.331 1006.66 269.345C1006.42 269.36 1006.23 269.183 1006.23 268.99Z" fill="#00FFFF"/>
<path d="M1006.66 269.375C1006.41 269.375 1006.2 269.212 1006.2 268.99C1006.2 268.783 1006.41 268.605 1006.66 268.605C1006.91 268.605 1007.12 268.768 1007.12 268.99C1007.12 269.197 1006.91 269.375 1006.66 269.375ZM1006.24 268.99C1006.24 269.168 1006.44 269.316 1006.66 269.316C1006.88 269.316 1007.06 269.168 1007.06 268.975C1007.06 268.798 1006.87 268.65 1006.64 268.65C1006.42 268.65 1006.24 268.798 1006.24 268.99Z" fill="#CACACA"/>
<path d="M1031.88 268.383V277.558C1031.96 277.558 1032.05 277.558 1032.13 277.558V268.457L1034.72 266.223L1034.55 266.09L1031.88 268.383Z" fill="#00FFFF"/>
<path d="M1032.16 277.573H1031.88V268.369L1034.57 266.06H1034.58L1034.78 266.223H1034.75L1032.13 268.487L1032.16 277.588V277.573ZM1031.91 268.384V277.528H1031.98C1031.98 277.528 1032.07 277.514 1032.1 277.528V268.458L1034.67 266.208L1034.55 266.105L1031.91 268.384Z" fill="#CACACA"/>
<path d="M1034.32 265.912C1034.48 265.765 1034.75 265.765 1034.92 265.912C1035.1 266.06 1035.09 266.282 1034.92 266.416C1034.76 266.564 1034.5 266.564 1034.32 266.416C1034.14 266.268 1034.16 266.046 1034.32 265.912Z" fill="#00FFFF"/>
<path d="M1034.63 266.549C1034.51 266.549 1034.41 266.519 1034.32 266.445C1034.23 266.371 1034.18 266.282 1034.18 266.179C1034.18 266.075 1034.23 265.972 1034.32 265.898C1034.5 265.75 1034.79 265.75 1034.95 265.898C1035.04 265.972 1035.09 266.06 1035.09 266.164C1035.09 266.268 1035.04 266.356 1034.95 266.43C1034.87 266.504 1034.75 266.549 1034.64 266.549H1034.63ZM1034.33 265.927C1034.26 265.986 1034.21 266.075 1034.23 266.164C1034.23 266.253 1034.27 266.342 1034.35 266.401C1034.51 266.534 1034.76 266.534 1034.92 266.401C1035 266.342 1035.04 266.253 1035.04 266.164C1035.04 266.075 1035 265.986 1034.92 265.927C1034.78 265.794 1034.52 265.779 1034.35 265.927H1034.33Z" fill="#CACACA"/>
<path opacity="0.67" d="M872.199 55.5945L985.364 193.064L1108.87 55.5945" fill="url(#paint9_linear_376_894)"/>
</g>
<defs>
<radialGradient id="paint0_radial_376_894" cx="0" cy="0" r="1" gradientUnits="userSpaceOnUse" gradientTransform="translate(222.615 84.9232) scale(43.3747 43.3717)">
<stop offset="0.45" stop-color="#00FFFF"/>
<stop offset="0.61" stop-color="#00FBFF"/>
<stop offset="0.75" stop-color="#00F0FF"/>
<stop offset="0.88" stop-color="#00DEFF"/>
<stop offset="0.99" stop-color="#00CAFF"/>
</radialGradient>
<linearGradient id="paint1_linear_376_894" x1="222.334" y1="103.154" x2="222.334" y2="106.217" gradientUnits="userSpaceOnUse">
<stop offset="0.14" stop-color="#333333"/>
<stop offset="0.39" stop-color="#3B3B3B"/>
<stop offset="0.7" stop-color="#4D4D4D"/>
</linearGradient>
<linearGradient id="paint2_linear_376_894" x1="153.135" y1="123.308" x2="173.631" y2="123.308" gradientUnits="userSpaceOnUse">
<stop offset="0.14" stop-color="#1A1A1A"/>
<stop offset="0.32" stop-color="#222222"/>
<stop offset="0.59" stop-color="#393939"/>
<stop offset="0.94" stop-color="#5E5E5E"/>
<stop offset="1" stop-color="#666666"/>
</linearGradient>
<linearGradient id="paint3_linear_376_894" x1="293.841" y1="123.308" x2="273.345" y2="123.308" gradientUnits="userSpaceOnUse">
<stop offset="0.14" stop-color="#1A1A1A"/>
<stop offset="0.32" stop-color="#222222"/>
<stop offset="0.59" stop-color="#393939"/>
<stop offset="0.94" stop-color="#5E5E5E"/>
<stop offset="1" stop-color="#666666"/>
</linearGradient>
<linearGradient id="paint4_linear_376_894" x1="220.721" y1="-31.1489" x2="225.16" y2="73.1148" gradientUnits="userSpaceOnUse">
<stop stop-color="#333333"/>
<stop offset="0.23" stop-color="#323535"/>
<stop offset="0.36" stop-color="#303D3D"/>
<stop offset="0.47" stop-color="#2C4B4B"/>
<stop offset="0.56" stop-color="#275F5F"/>
<stop offset="0.65" stop-color="#217979"/>
<stop offset="0.73" stop-color="#199999"/>
<stop offset="0.81" stop-color="#0FBFBF"/>
<stop offset="0.88" stop-color="#05EAEA"/>
<stop offset="0.91" stop-color="#00FFFF"/>
</linearGradient>
<radialGradient id="paint5_radial_376_894" cx="0" cy="0" r="1" gradientUnits="userSpaceOnUse" gradientTransform="translate(989.789 203.156) scale(96.916 96.9093)">
<stop offset="0.45" stop-color="#00FFFF"/>
<stop offset="0.61" stop-color="#00FBFF"/>
<stop offset="0.75" stop-color="#00F0FF"/>
<stop offset="0.89" stop-color="#00DEFF"/>
<stop offset="1" stop-color="#00CAFF"/>
</radialGradient>
<linearGradient id="paint6_linear_376_894" x1="1107.36" y1="194.795" x2="1152.17" y2="143.489" gradientUnits="userSpaceOnUse">
<stop stop-color="#A1B1B1"/>
<stop offset="0.45" stop-color="#9A9F9F"/>
<stop offset="0.82" stop-color="#979797"/>
</linearGradient>
<linearGradient id="paint7_linear_376_894" x1="874.019" y1="194.011" x2="825.66" y2="148.92" gradientUnits="userSpaceOnUse">
<stop stop-color="#A1B1B1"/>
<stop offset="0.45" stop-color="#9A9F9F"/>
<stop offset="0.82" stop-color="#979797"/>
</linearGradient>
<linearGradient id="paint8_linear_376_894" x1="988.634" y1="177.823" x2="989.27" y2="148.227" gradientUnits="userSpaceOnUse">
<stop stop-color="#A1B1B1"/>
<stop offset="0.82" stop-color="#979797"/>
</linearGradient>
<linearGradient id="paint9_linear_376_894" x1="988.265" y1="2.45641" x2="995.737" y2="177.526" gradientUnits="userSpaceOnUse">
<stop stop-color="#333333"/>
<stop offset="0.23" stop-color="#323535"/>
<stop offset="0.36" stop-color="#303D3D"/>
<stop offset="0.47" stop-color="#2C4B4B"/>
<stop offset="0.56" stop-color="#275F5F"/>
<stop offset="0.65" stop-color="#217979"/>
<stop offset="0.73" stop-color="#199999"/>
<stop offset="0.81" stop-color="#0FBFBF"/>
<stop offset="0.88" stop-color="#05EAEA"/>
<stop offset="0.91" stop-color="#00FFFF"/>
</linearGradient>
<clipPath id="clip0_376_894">
<rect width="1986" height="375" fill="white"/>
</clipPath>
</defs>
</svg>
