<svg width="40" height="175" viewBox="0 0 40 175" fill="none" xmlns="http://www.w3.org/2000/svg">
<g clip-path="url(#clip0_78_1328)">
<path d="M22.0311 176.365L29.5312 156.276L22.0312 147.865L14.5311 156.275L22.0311 176.365Z" fill="black" stroke="#1A1A1A" stroke-width="0.05" stroke-miterlimit="10"/>
<path d="M22.0312 135.864L29.5312 144.276L22.0312 157.365L14.5311 144.276L22.0312 135.864Z" fill="black" stroke="#1A1A1A" stroke-width="0.05" stroke-miterlimit="10"/>
<path d="M23.83 44.8141C23.83 44.8141 23.83 35.8743 31.8301 28.8743C20.1199 20.9629 21.3301 3.87427 21.3301 3.87427C21.3301 3.87427 21.8301 20.3743 9.83012 28.8743C19.8299 36.3743 19.83 44.814 19.83 44.814L23.83 44.8141Z" fill="black" stroke="black" stroke-width="0.05" stroke-miterlimit="10"/>
<path d="M16.0159 51.3744L18.5311 71.8647L22.0311 65.8648L25.5311 71.8647L28.0311 51.3743L22.0311 40.8648L16.0159 51.3744Z" fill="black" stroke="black" stroke-width="0.05" stroke-miterlimit="10"/>
<path d="M19.0311 114.865L15.0311 73.2853L22.0311 59.8647L29.0311 73.2853L25.0311 114.865C24.2888 114.793 19.7146 114.681 19.0311 114.865Z" fill="black" stroke="#1A1A1A" stroke-width="0.05" stroke-miterlimit="10"/>
<path d="M28.8456 44.2739C23.7048 45.7784 18.5329 45.862 13.3299 44.5248C18.4706 43.0203 23.6425 42.9367 28.8456 44.2739Z" fill="#1A1A1A"/>
</g>
<defs>
<clipPath id="clip0_78_1328">
<rect width="40" height="175" fill="white" transform="matrix(-1 0 0 -1 40 175)"/>
</clipPath>
</defs>
</svg>
