<svg width="40" height="117" viewBox="0 0 40 117" fill="none" xmlns="http://www.w3.org/2000/svg">
<g clip-path="url(#clip0_78_1331)">
<path d="M19.284 118.76L26.2839 101.119L19.4846 93.4773L12.2839 101.119L19.284 118.76Z" fill="black" stroke="#1A1A1A" stroke-width="0.05" stroke-miterlimit="10"/>
<path d="M19.2839 83.2601L26.284 90.2537L19.2839 97.2603L12.284 90.2536L19.2839 83.2601Z" fill="black" stroke="#1A1A1A" stroke-width="0.05" stroke-miterlimit="10"/>
<path d="M21.784 62.2604L26.284 49.7604L19.6279 42.2999L12.284 49.7604L16.784 62.2603C17.377 62.1426 21.2253 62.0809 21.784 62.2604Z" fill="black" stroke="#1A1A1A" stroke-width="0.05" stroke-miterlimit="10"/>
<path d="M21.784 42.2603C21.784 42.2603 26.284 28.2604 34.2839 28.2604C22.284 20.7603 19.284 0.260198 19.284 0.260198C19.284 0.260198 19.284 17.2602 4.28396 28.2602C13.284 28.2604 16.784 42.2603 16.784 42.2603L21.784 42.2603Z" fill="black" stroke="#1A1A1A" stroke-width="0.05" stroke-miterlimit="10"/>
<path d="M26.284 43.2605C21.284 45.2605 17.284 45.2605 12.784 43.2605C17.284 41.2605 21.284 41.2605 26.284 43.2605Z" fill="#1A1A1A"/>
</g>
<defs>
<clipPath id="clip0_78_1331">
<rect width="40" height="117" fill="white" transform="matrix(-1 0 0 -1 40 117)"/>
</clipPath>
</defs>
</svg>
