<svg width="277" height="147" viewBox="0 0 277 147" fill="none" xmlns="http://www.w3.org/2000/svg">
<g clip-path="url(#clip0_459_9486)">
<path d="M12.2207 11.0498H22.6007V122.27C22.6007 123.19 21.8507 123.94 20.9307 123.94H13.8907C12.9707 123.94 12.2207 123.19 12.2207 122.27V11.0498Z" fill="#5B3413" stroke="black" stroke-width="0.5" stroke-miterlimit="10"/>
<path d="M251.859 8.81006H263.509V121.92C263.509 122.9 262.709 123.7 261.729 123.7H253.639C252.659 123.7 251.859 122.9 251.859 121.92V8.81006Z" fill="#5B3413" stroke="black" stroke-width="0.25" stroke-miterlimit="10"/>
<path d="M5.45049 14.9502H17.1005C17.1005 14.9502 18.4705 142.93 16.6805 144.17C16.3005 144.43 15.9205 144.54 15.6805 144.59H10.1405C8.94049 143.76 8.40049 142.9 8.13049 142.28C7.08049 139.91 8.51049 137.83 7.21049 135.54C6.83049 134.86 6.34049 134.41 6.03049 134.15C14.1505 104.43 12.1605 84.7802 8.65049 72.1502C7.73049 68.8402 6.41049 64.9602 5.20049 58.6502C1.73049 40.5802 3.45049 25.1602 5.45049 14.9502Z" fill="#603813" stroke="black" stroke-width="0.25" stroke-miterlimit="10"/>
<path d="M269.61 16.1499H257.96C257.96 16.1499 256.59 144.13 258.38 145.37C258.76 145.63 259.14 145.74 259.38 145.79H264.92C266.12 144.96 266.66 144.1 266.93 143.48C267.98 141.11 266.55 139.03 267.85 136.74C268.23 136.06 268.72 135.61 269.03 135.35C260.91 105.63 262.9 85.9799 266.41 73.3499C267.33 70.0399 268.65 66.1599 269.86 59.8499C273.33 41.7799 271.61 26.3599 269.61 16.1499Z" fill="#603813" stroke="black" stroke-width="0.5" stroke-miterlimit="10"/>
<path d="M269.409 16.4102H258.199L270.379 22.1802L269.409 16.4102Z" fill="#42210B"/>
<path d="M5.28984 16.1499H16.9498L4.33984 22.0299L5.28984 16.1499Z" fill="#42210B"/>
<path d="M275.419 5.94971H0.119141V16.1497H275.419V5.94971Z" fill="#603813" stroke="black" stroke-width="0.25" stroke-miterlimit="10"/>
<path d="M0.119141 5.94988L26.1691 0.849883L254.559 0.129883L275.419 5.94988H0.119141Z" fill="#603813" stroke="black" stroke-width="0.25" stroke-miterlimit="10"/>
</g>
<defs>
<clipPath id="clip0_459_9486">
<rect width="276.33" height="146.03" fill="white"/>
</clipPath>
</defs>
</svg>
