<svg width="784" height="424" viewBox="0 0 784 424" fill="none" xmlns="http://www.w3.org/2000/svg">
<g clip-path="url(#clip0_77_991)">
<path d="M31.8915 136.994C56.3915 128.203 80.8915 120.491 105.308 111.701L200.817 103.16C192.595 107.306 183.044 111.452 172.247 115.184C168.178 116.594 157.63 120.16 135.373 124.721C129.725 125.881 111.122 129.696 83.7152 133.179C70.0119 134.92 52.4881 135.667 31.8085 136.994H31.8915Z" fill="#42210B" stroke="black" stroke-width="0.05" stroke-miterlimit="10"/>
<path d="M766.144 140.559L696.381 115.101H637.581C652.198 122.399 671.881 130.525 695.966 135.916C723.954 142.218 748.288 141.555 766.227 140.559H766.144Z" fill="#42210B" stroke="black" stroke-width="0.05" stroke-miterlimit="10"/>
<path d="M157.298 409.239C157.298 410.151 157.714 417.283 155.056 420.185C151.069 424.58 144.591 423.502 143.761 423.419C103.481 423.751 47.422 421.678 6.31182 421.927C4.23554 421.927 2.32537 420.849 1.41182 418.941C-2.65768 410.483 7.22537 397.795 7.47453 397.463C8.72029 397.546 9.79995 405.59 11.0457 405.673C61.7067 409.654 157.298 409.239 157.298 409.239Z" fill="#603813" stroke="black" stroke-width="0.1" stroke-miterlimit="10"/>
<path d="M169.091 395.722C169.091 396.634 168.012 400.863 164.607 405.093C161.866 408.576 154.973 408.658 154.142 408.576C113.697 408.907 53.8999 406.668 12.7897 406.917C11.4609 406.917 10.1321 406.419 9.38465 405.341C3.48804 396.883 13.7863 383.698 14.0355 383.283C15.2813 383.366 14.6169 390.415 15.8626 390.498C66.5236 394.561 118.43 391.659 169.091 395.722Z" fill="#603813" stroke="black" stroke-width="0.1" stroke-miterlimit="10"/>
<path d="M637.166 407.166C637.166 408.078 636.834 415.21 639.242 418.112C642.897 422.507 648.959 421.429 649.79 421.346C687.329 421.678 739.651 419.605 777.937 419.853C779.847 419.853 781.675 418.775 782.505 416.868C786.325 408.41 777.107 395.722 776.858 395.39C775.695 395.473 774.698 403.517 773.536 403.6C726.28 407.58 637.166 407.166 637.166 407.166Z" fill="#603813" stroke="black" stroke-width="0.15" stroke-miterlimit="10"/>
<path d="M626.12 393.649C626.12 394.561 627.117 398.79 630.273 403.019C632.848 406.502 639.242 406.585 640.073 406.502C677.778 406.834 733.588 404.595 771.875 404.844C773.12 404.844 774.366 404.346 775.031 403.268C780.512 394.81 770.38 381.625 770.131 381.21C768.968 381.293 768.885 388.342 767.722 388.425C720.466 392.488 673.293 389.585 626.037 393.649H626.12Z" fill="#603813" stroke="black" stroke-width="0.15" stroke-miterlimit="10"/>
<path d="M31.8915 138.071C32.1406 146.447 32.4728 158.72 32.6389 173.647C33.0542 213.534 33.2203 233.851 29.566 251.016C26.8254 263.953 21.0949 282.777 7.64062 304.338C10.0491 331.455 12.9559 362.386 15.3644 389.751C15.5305 391.327 16.7762 392.571 18.4372 392.654C68.8491 395.639 118.763 392.405 169.175 395.556C170.005 394.064 172.663 390.581 177.895 389.088C183.708 387.429 188.941 386.932 190.602 387.181C326.224 385.273 465.334 387.347 600.956 385.439C603.364 385.108 613.912 384.776 618.48 385.439C621.885 385.937 624.459 389.834 626.203 391.907C675.12 390.581 718.888 389.751 767.805 388.508L781.01 305.333C777.273 300.357 771.708 292.148 767.39 281.119C758.42 258.646 760.663 240.651 763.652 190.895C764.317 180.281 765.313 163.198 766.31 141.637C754.351 141.637 738.073 140.891 718.971 138.071C696.298 134.671 657.929 126.545 610.341 102.164C535.429 63.7698 541.408 36.1555 489.003 15.8386C420.403 -10.7806 354.71 5.72169 344.08 8.54117C260.447 30.6824 243.422 99.2621 161.866 119.081C128.812 127.125 89.5288 132.432 89.5288 132.432C65.9423 135.667 46.1762 137.242 32.2237 138.071H31.8915Z" fill="#603813" stroke="black" stroke-width="0.25" stroke-miterlimit="10"/>
<path d="M31.8915 137.989L75.5762 392.571L169.175 395.722C158.378 306.411 146.336 214.612 135.539 125.301C116.769 129.53 95.6745 133.262 72.5033 135.584C58.2186 136.993 44.5983 137.74 31.8915 137.989Z" fill="#42210B" stroke="black" stroke-width="0.05" stroke-miterlimit="10"/>
<path d="M670.22 128.618L629.692 390.664L722.376 388.839L766.144 143.296C752.358 143.296 736.412 142.384 718.805 139.73C700.202 136.911 683.924 132.847 670.22 128.535V128.618Z" fill="#42210B" stroke="black" stroke-width="0.05" stroke-miterlimit="10"/>
<path d="M405.827 355.206C488.022 355.206 554.654 288.674 554.654 206.603C554.654 124.532 488.022 58 405.827 58C323.632 58 257 124.532 257 206.603C257 288.674 323.632 355.206 405.827 355.206Z" fill="#391E00" stroke="#2B140A" stroke-width="0.75" stroke-miterlimit="10"/>
<path d="M294.732 301.961C303.458 311.158 340.947 348.752 400.252 351.495C468.687 354.641 513.044 309.141 520.235 301.477C455.113 303.171 359.773 300.267 294.732 301.961Z" fill="#2B140A"/>
<path d="M377.506 359.318C447.367 359.318 504 290.93 504 206.568C504 122.207 447.367 53.8188 377.506 53.8188C307.645 53.8188 251.011 122.207 251.011 206.568C251.011 290.93 307.645 359.318 377.506 359.318Z" fill="#E4E4D9" stroke="#2B140A" stroke-width="0.75" stroke-miterlimit="10"/>
<path d="M377.093 101.169C424.615 101.169 463.346 147.856 463.346 205.324C463.346 262.792 424.683 309.479 377.093 309.479C329.503 309.479 290.841 262.792 290.841 205.324C290.841 147.856 329.503 101.169 377.093 101.169ZM377.093 99.0961C328.542 99.0961 289.124 146.613 289.124 205.324C289.124 264.036 328.473 311.552 377.093 311.552C425.713 311.552 465.063 264.036 465.063 205.324C465.063 146.613 425.713 99.0961 377.093 99.0961Z" fill="#42210B"/>
<path d="M240.847 190.812L241.534 231.114C241.534 231.114 246.204 235.343 249.843 230.617L248.676 190.895C248.676 189.734 243.8 186.085 240.847 190.895V190.812Z" fill="#666666" stroke="#1A1A1A" stroke-width="0.08" stroke-miterlimit="10"/>
<path d="M244.762 193.963C246.924 193.963 248.676 192.701 248.676 191.144C248.676 189.587 246.924 188.324 244.762 188.324C242.6 188.324 240.847 189.587 240.847 191.144C240.847 192.701 242.6 193.963 244.762 193.963Z" fill="#1A1A1A"/>
<path d="M240.847 203.5C240.847 203.5 244.968 207.563 249.019 203.5" stroke="#1A1A1A" stroke-width="0.05" stroke-miterlimit="10"/>
<path d="M241.259 214.861C241.259 214.861 244.968 218.758 249.225 214.778" stroke="#1A1A1A" stroke-width="0.05" stroke-miterlimit="10"/>
<path d="M380.153 87.4686C380.153 87.6873 379.852 87.7966 379.251 87.7966H378.759C378.759 87.7966 378.239 87.7966 377.201 87.7966C376.162 87.7693 375.11 87.7556 374.044 87.7556C372.158 87.7556 370.955 87.7693 370.436 87.7966C369.916 87.8239 369.506 87.8376 369.206 87.8376C368.55 87.8376 368.222 87.7146 368.222 87.4686C368.222 87.2226 368.413 87.0996 368.796 87.0996C369.397 87.0996 370.039 87.0859 370.723 87.0586C371.57 87.0313 372.021 86.8263 372.076 86.4436C372.158 86.0336 372.199 85.1726 372.199 83.8606V64.5906C372.199 63.7159 372.171 63.1966 372.117 63.0326C372.062 62.8686 371.871 62.7866 371.543 62.7866C371.406 62.7866 370.518 62.8549 368.878 62.9916C368.55 63.0189 368.331 63.0326 368.222 63.0326C367.894 63.0326 367.73 62.9369 367.73 62.7456C367.73 62.5269 367.894 62.4039 368.222 62.3766C369.506 62.2399 370.805 61.8573 372.117 61.2286C373.429 60.5726 374.481 59.8073 375.274 58.9326C375.574 58.6866 375.779 58.5636 375.889 58.5636C376.107 58.5636 376.217 58.7003 376.217 58.9736V59.7526C376.189 59.9713 376.176 60.2173 376.176 60.4906V85.0086C376.176 85.9926 376.217 86.5666 376.299 86.7306C376.408 86.8946 376.75 86.9903 377.324 87.0176L378.267 87.0586L378.964 87.0996H379.579C379.961 87.0996 380.153 87.2226 380.153 87.4686Z" fill="black"/>
<path d="M442.164 108.698C442.164 108.916 441.863 109.026 441.262 109.026H440.77C440.77 109.026 440.25 109.026 439.212 109.026C438.173 108.998 437.121 108.985 436.055 108.985C434.169 108.985 432.966 108.998 432.447 109.026C431.927 109.053 431.517 109.067 431.217 109.067C430.561 109.067 430.233 108.944 430.233 108.698C430.233 108.452 430.424 108.329 430.807 108.329C431.408 108.329 432.05 108.315 432.734 108.288C433.581 108.26 434.032 108.055 434.087 107.673C434.169 107.263 434.21 106.402 434.21 105.09V85.8196C434.21 84.945 434.182 84.4256 434.128 84.2616C434.073 84.0976 433.882 84.0156 433.554 84.0156C433.417 84.0156 432.529 84.084 430.889 84.2206C430.561 84.248 430.342 84.2616 430.233 84.2616C429.905 84.2616 429.741 84.166 429.741 83.9746C429.741 83.756 429.905 83.633 430.233 83.6056C431.517 83.469 432.816 83.0863 434.128 82.4576C435.44 81.8016 436.492 81.0363 437.285 80.1616C437.585 79.9156 437.79 79.7926 437.9 79.7926C438.118 79.7926 438.228 79.9293 438.228 80.2026V80.9816C438.2 81.2003 438.187 81.4463 438.187 81.7196V106.238C438.187 107.222 438.228 107.796 438.31 107.96C438.419 108.124 438.761 108.219 439.335 108.247L440.278 108.288L440.975 108.329H441.59C441.972 108.329 442.164 108.452 442.164 108.698Z" fill="black"/>
<path d="M481.43 144.149C481.43 144.231 481.403 144.45 481.348 144.805C481.211 145.707 480.993 147.935 480.692 151.488L480.651 151.98C477.836 151.844 474.624 151.775 471.016 151.775C469.075 151.775 467.258 151.803 465.563 151.857C463.868 151.912 463.13 151.939 463.349 151.939C462.611 151.939 462.242 151.803 462.242 151.529C462.242 151.311 462.953 150.627 464.374 149.479C467.791 146.691 470.223 144.423 471.672 142.673C474.187 139.639 475.444 136.072 475.444 131.972C475.444 129.212 474.87 127.121 473.722 125.699C472.847 124.606 471.617 124.059 470.032 124.059C468.474 124.059 467.244 124.538 466.342 125.494C465.631 126.232 465.276 126.97 465.276 127.708C465.276 128.173 465.645 128.419 466.383 128.446C468.296 128.528 469.253 129.362 469.253 130.947C469.253 132.451 468.46 133.202 466.875 133.202C465.864 133.202 465.057 132.888 464.456 132.259C463.855 131.631 463.554 130.77 463.554 129.676C463.554 127.654 464.265 126.027 465.686 124.797C467.107 123.567 468.98 122.952 471.303 122.952C473.626 122.952 475.553 123.69 477.084 125.166C478.861 126.888 479.749 129.13 479.749 131.89C479.749 134.924 478.738 137.726 476.715 140.295C474.692 142.837 471.289 145.612 466.506 148.618C468.31 148.564 470.579 148.536 473.312 148.536C475.581 148.536 477.016 148.509 477.617 148.454C478.218 148.372 478.751 148.195 479.216 147.921C479.599 147.675 479.927 146.76 480.2 145.174C480.391 144.081 480.665 143.534 481.02 143.534C481.293 143.534 481.43 143.739 481.43 144.149Z" fill="black"/>
<path d="M493.63 202.739C493.63 205.008 492.715 206.949 490.883 208.561C488.861 210.338 486.278 211.226 483.134 211.226C480.565 211.226 478.679 210.625 477.476 209.422C476.711 208.657 476.328 207.782 476.328 206.798C476.328 205.951 476.588 205.281 477.107 204.789C477.654 204.27 478.378 204.01 479.28 204.01C479.991 204.01 480.579 204.215 481.043 204.625C481.508 205.035 481.74 205.555 481.74 206.183C481.74 207.14 481.098 207.892 479.813 208.438C479.294 208.657 479.034 208.876 479.034 209.094C479.034 209.45 479.39 209.778 480.1 210.078C480.811 210.352 481.59 210.488 482.437 210.488C484.515 210.488 486.196 209.778 487.48 208.356C488.792 206.935 489.448 205.076 489.448 202.78C489.448 198.161 487.371 195.851 483.216 195.851C482.806 195.851 482.506 195.865 482.314 195.892H482.027C481.672 195.892 481.494 195.769 481.494 195.523C481.494 195.332 481.822 195.182 482.478 195.072C484.392 194.799 485.868 194.102 486.906 192.981C487.945 191.833 488.464 190.371 488.464 188.594C488.464 186.845 488.013 185.451 487.111 184.412C486.209 183.346 484.993 182.813 483.462 182.813C482.342 182.813 481.358 183.059 480.51 183.551C479.69 184.016 479.28 184.563 479.28 185.191C479.28 185.437 479.472 185.601 479.854 185.683C481.658 186.121 482.56 186.872 482.56 187.938C482.56 189.332 481.836 190.029 480.387 190.029C479.458 190.029 478.706 189.756 478.132 189.209C477.586 188.663 477.312 187.938 477.312 187.036C477.312 185.56 477.941 184.33 479.198 183.346C480.483 182.335 482.26 181.829 484.528 181.829C487.125 181.829 489.107 182.499 490.473 183.838C491.84 185.178 492.523 186.736 492.523 188.512C492.523 190.972 491.362 192.79 489.038 193.965C488.218 194.375 486.893 194.717 485.061 194.99V195.277C487.33 195.359 489.161 195.865 490.555 196.794C492.605 198.161 493.63 200.143 493.63 202.739Z" fill="black"/>
<path d="M479.711 264.77C479.711 265.043 479.574 265.18 479.301 265.18C479.055 265.18 478.891 265.03 478.809 264.729C478.754 264.401 478.659 263.54 478.522 262.146C478.467 261.927 478.358 261.763 478.194 261.654C477.866 261.463 477.142 261.367 476.021 261.367C475.72 261.367 475.433 261.381 475.16 261.408L475.201 267.845C475.338 268.173 475.556 268.378 475.857 268.46C476.185 268.542 476.964 268.583 478.194 268.583C478.795 268.583 479.151 268.638 479.26 268.747C479.287 268.802 479.301 268.884 479.301 268.993C479.301 269.184 478.754 269.28 477.661 269.28C476.568 269.28 473.506 269.307 468.477 269.362C468.204 269.389 467.903 269.403 467.575 269.403C467.028 269.403 466.755 269.266 466.755 268.993C466.755 268.72 467.151 268.597 467.944 268.624C468.873 268.651 469.721 268.597 470.486 268.46C470.814 268.405 471.019 268.269 471.101 268.05C471.183 267.804 471.224 267.285 471.224 266.492V261.531C470.677 261.504 470.049 261.49 469.338 261.49H467.657C467.274 261.49 466.851 261.504 466.386 261.531C465.976 261.531 465.716 261.531 465.607 261.531L460.4 261.408C460.017 261.381 459.826 261.271 459.826 261.08C459.826 260.943 461.835 258.114 465.853 252.593C467.11 250.816 469.885 246.908 474.176 240.867C474.367 240.594 474.559 240.457 474.75 240.457C475.023 240.457 475.16 240.717 475.16 241.236V260.506H475.57C476.499 260.506 477.224 260.451 477.743 260.342C478.29 260.233 478.563 259.959 478.563 259.522C478.536 257.8 478.522 257.212 478.522 257.759C478.549 256.775 478.7 256.283 478.973 256.283C479.356 256.283 479.547 256.666 479.547 257.431V259.276L479.588 262.228C479.615 263.239 479.643 263.882 479.67 264.155C479.697 264.401 479.711 264.606 479.711 264.77ZM471.47 246.484C471.197 246.921 470.623 247.755 469.748 248.985C468.545 250.652 466.728 253.14 464.295 256.447L461.384 260.424C462.395 260.506 464.568 260.547 467.903 260.547C469.078 260.547 470.185 260.533 471.224 260.506V257.595C471.224 256.228 471.265 254.383 471.347 252.06C471.429 249.327 471.47 247.468 471.47 246.484Z" fill="black"/>
<path d="M445.121 317.274C445.121 320.773 443.781 323.451 441.103 325.31C439.49 326.431 437.399 326.991 434.83 326.991C432.26 326.991 430.374 326.321 429.172 324.982C428.516 324.244 428.188 323.369 428.188 322.358C428.188 321.511 428.461 320.827 429.008 320.308C429.554 319.761 430.265 319.488 431.14 319.488C431.85 319.488 432.438 319.693 432.903 320.103C433.395 320.513 433.641 321.019 433.641 321.62C433.641 322.631 432.971 323.397 431.632 323.916C431.03 324.135 430.73 324.381 430.73 324.654C430.73 325.091 431.126 325.488 431.919 325.843C432.739 326.171 433.641 326.335 434.625 326.335C436.538 326.335 437.973 325.679 438.93 324.367C440.242 322.563 440.898 320.13 440.898 317.069C440.898 314.828 440.378 313.092 439.34 311.862C438.301 310.632 436.825 310.017 434.912 310.017C433.436 310.017 431.809 310.577 430.033 311.698C430.197 305.548 430.32 301.667 430.402 300.054C430.429 299.125 430.634 298.564 431.017 298.373C431.399 298.154 432.438 298.045 434.133 298.045C434.406 298.045 434.871 298.045 435.527 298.045C436.183 298.072 436.702 298.086 437.085 298.086H438.479C440.365 298.086 441.458 298.059 441.759 298.004C442.087 297.922 442.292 297.69 442.374 297.307C442.483 296.678 442.674 296.364 442.948 296.364C443.221 296.364 443.358 296.514 443.358 296.815C443.358 297.006 443.344 297.157 443.317 297.266L443.235 298.209C443.098 299.74 442.811 300.696 442.374 301.079C441.964 301.434 440.939 301.612 439.299 301.612L431.468 301.571C431.358 302.5 431.263 305.302 431.181 309.976C432.739 309.265 434.365 308.91 436.06 308.91C438.875 308.91 441.089 309.662 442.702 311.165C444.314 312.641 445.121 314.677 445.121 317.274Z" fill="black"/>
<path d="M389.507 336.926C389.507 339.578 388.7 341.846 387.088 343.732C385.475 345.618 383.548 346.561 381.307 346.561C378.491 346.561 376.209 345.4 374.46 343.076C372.71 340.753 371.836 337.733 371.836 334.015C371.836 330.599 372.574 327.483 374.05 324.667C375.553 321.852 377.548 319.802 380.036 318.517C382.113 317.451 384.382 316.918 386.842 316.918C387.416 316.918 387.703 317.028 387.703 317.246C387.703 317.438 387.511 317.547 387.129 317.574C384.669 317.793 382.496 318.681 380.61 320.239C378.15 322.262 376.701 325.706 376.264 330.571C377.767 329.15 379.462 328.439 381.348 328.439C382.878 328.439 384.313 328.849 385.653 329.669C388.222 331.227 389.507 333.646 389.507 336.926ZM385.284 337.049C385.284 331.965 383.712 329.423 380.569 329.423C379.147 329.423 378.054 330.038 377.289 331.268C376.523 332.471 376.141 334.166 376.141 336.352C376.141 339.496 376.701 342.038 377.822 343.978C378.532 345.208 379.571 345.823 380.938 345.823C383.835 345.823 385.284 342.899 385.284 337.049Z" fill="black"/>
<path d="M332.817 300.156C332.817 300.32 331.232 302.875 328.061 307.823C326.284 310.611 325.068 312.797 324.412 314.383C323.756 315.941 323.428 317.499 323.428 319.057C323.428 319.849 323.619 321.407 324.002 323.731C324.139 324.551 324.207 325.248 324.207 325.822C324.207 327.762 323.483 328.733 322.034 328.733C320.312 328.733 319.451 327.243 319.451 324.264C319.451 321.503 320.722 317.868 323.264 313.358C324.877 310.515 326.968 307.208 329.537 303.436H323.305C320.08 303.436 318.221 303.449 317.729 303.477C317.128 303.504 316.704 303.6 316.458 303.764C316.239 303.928 316.075 304.16 315.966 304.461C315.884 304.734 315.665 305.691 315.31 307.331C315.201 307.659 315.037 307.823 314.818 307.823C314.545 307.823 314.408 307.659 314.408 307.331C314.408 307.003 314.476 306.47 314.613 305.732C314.914 304.064 315.105 302.643 315.187 301.468C315.242 300.62 315.419 300.033 315.72 299.705C315.911 299.705 316.472 299.732 317.401 299.787C319.478 299.896 320.982 299.951 321.911 299.951L330.398 299.869C330.617 299.869 330.849 299.855 331.095 299.828C331.314 299.828 331.45 299.828 331.505 299.828C332.38 299.828 332.817 299.937 332.817 300.156Z" fill="black"/>
<path d="M296.193 271.11C296.193 273.843 295.059 276.043 292.79 277.711C291.259 278.831 289.36 279.392 287.091 279.392C284.658 279.392 282.608 278.845 280.941 277.752C278.672 276.276 277.538 274.198 277.538 271.52C277.538 267.447 279.738 264.864 284.139 263.771V263.566C282.472 263.101 281.16 262.322 280.203 261.229C279.274 260.108 278.809 258.782 278.809 257.252C278.809 255.12 279.533 253.384 280.982 252.045C282.458 250.678 284.358 249.995 286.681 249.995C288.731 249.995 290.412 250.487 291.724 251.471C293.637 252.892 294.594 254.723 294.594 256.965C294.594 258.577 294.116 260.026 293.159 261.311C292.202 262.568 291.013 263.333 289.592 263.607L289.633 263.771C294.006 264.645 296.193 267.092 296.193 271.11ZM290.535 257.047C290.535 254.614 290.098 252.824 289.223 251.676C288.704 250.992 287.87 250.651 286.722 250.651C284.153 250.651 282.868 252.796 282.868 257.088C282.868 261.27 284.248 263.361 287.009 263.361C288.239 263.361 289.1 262.91 289.592 262.008C290.221 260.832 290.535 259.179 290.535 257.047ZM292.011 271.52C292.011 266.545 290.344 264.058 287.009 264.058C285.342 264.058 284.043 264.7 283.114 265.985C282.185 267.242 281.72 268.991 281.72 271.233C281.72 273.556 282.198 275.387 283.155 276.727C284.139 278.066 285.478 278.736 287.173 278.736C288.622 278.736 289.688 278.326 290.371 277.506C291.464 276.194 292.011 274.198 292.011 271.52Z" fill="black"/>
<path d="M279.976 193.628C279.976 197.209 279.143 200.462 277.475 203.386C275.835 206.284 273.676 208.293 270.997 209.413C269.029 210.233 267.061 210.643 265.093 210.643C264.383 210.643 264.027 210.548 264.027 210.356C264.027 210.192 264.219 210.083 264.601 210.028C269.221 209.427 272.391 207.131 274.113 203.14C274.797 201.528 275.275 199.478 275.548 196.99C274.045 198.412 272.35 199.122 270.464 199.122C268.66 199.122 267.02 198.576 265.544 197.482C263.385 195.897 262.305 193.56 262.305 190.471C262.305 187.847 263.098 185.62 264.683 183.788C266.296 181.93 268.237 181 270.505 181C273.293 181 275.562 182.176 277.311 184.526C279.088 186.877 279.976 189.911 279.976 193.628ZM275.671 190.922C275.671 187.806 275.097 185.346 273.949 183.542C273.157 182.312 272.077 181.697 270.71 181.697C267.895 181.697 266.487 184.649 266.487 190.553C266.487 195.61 268.059 198.138 271.202 198.138C272.596 198.138 273.69 197.51 274.482 196.252C275.275 194.968 275.671 193.191 275.671 190.922Z" fill="black"/>
<path d="M289.574 148.419C289.574 148.638 289.273 148.747 288.672 148.747H288.18C288.18 148.747 287.661 148.747 286.622 148.747C285.583 148.72 284.531 148.706 283.465 148.706C281.579 148.706 280.376 148.72 279.857 148.747C279.338 148.774 278.928 148.788 278.627 148.788C277.971 148.788 277.643 148.665 277.643 148.419C277.643 148.173 277.834 148.05 278.217 148.05C278.818 148.05 279.461 148.036 280.144 148.009C280.991 147.982 281.442 147.777 281.497 147.394C281.579 146.984 281.62 146.123 281.62 144.811V125.541C281.62 124.666 281.593 124.147 281.538 123.983C281.483 123.819 281.292 123.737 280.964 123.737C280.827 123.737 279.939 123.805 278.299 123.942C277.971 123.969 277.752 123.983 277.643 123.983C277.315 123.983 277.151 123.887 277.151 123.696C277.151 123.477 277.315 123.354 277.643 123.327C278.928 123.19 280.226 122.808 281.538 122.179C282.85 121.523 283.902 120.758 284.695 119.883C284.996 119.637 285.201 119.514 285.31 119.514C285.529 119.514 285.638 119.651 285.638 119.924V120.703C285.611 120.922 285.597 121.168 285.597 121.441V145.959C285.597 146.943 285.638 147.517 285.72 147.681C285.829 147.845 286.171 147.941 286.745 147.968L287.688 148.009L288.385 148.05H289C289.383 148.05 289.574 148.173 289.574 148.419Z" fill="black"/>
<path d="M326.451 106.127C326.451 106.346 326.15 106.455 325.549 106.455H325.057C325.057 106.455 324.537 106.455 323.499 106.455C322.46 106.428 321.408 106.414 320.342 106.414C318.456 106.414 317.253 106.428 316.734 106.455C316.214 106.482 315.804 106.496 315.504 106.496C314.848 106.496 314.52 106.373 314.52 106.127C314.52 105.881 314.711 105.758 315.094 105.758C315.695 105.758 316.337 105.744 317.021 105.717C317.868 105.69 318.319 105.485 318.374 105.102C318.456 104.692 318.497 103.831 318.497 102.519V83.2489C318.497 82.3743 318.469 81.8549 318.415 81.6909C318.36 81.5269 318.169 81.4449 317.841 81.4449C317.704 81.4449 316.816 81.5133 315.176 81.6499C314.848 81.6773 314.629 81.6909 314.52 81.6909C314.192 81.6909 314.028 81.5953 314.028 81.4039C314.028 81.1853 314.192 81.0623 314.52 81.0349C315.804 80.8983 317.103 80.5156 318.415 79.8869C319.727 79.2309 320.779 78.4656 321.572 77.5909C321.872 77.3449 322.077 77.2219 322.187 77.2219C322.405 77.2219 322.515 77.3586 322.515 77.6319V78.4109C322.487 78.6296 322.474 78.8756 322.474 79.1489V103.667C322.474 104.651 322.515 105.225 322.597 105.389C322.706 105.553 323.048 105.649 323.622 105.676L324.565 105.717L325.262 105.758H325.877C326.259 105.758 326.451 105.881 326.451 106.127Z" fill="black"/>
<path d="M393.804 80.0476C393.804 80.1296 393.777 80.3483 393.722 80.7036C393.586 81.6056 393.367 83.8333 393.066 87.3866L393.025 87.8786C390.21 87.7419 386.998 87.6736 383.39 87.6736C381.45 87.6736 379.632 87.7009 377.937 87.7556C376.243 87.8103 375.505 87.8376 375.723 87.8376C374.985 87.8376 374.616 87.7009 374.616 87.4276C374.616 87.2089 375.327 86.5256 376.748 85.3776C380.165 82.5896 382.598 80.3209 384.046 78.5716C386.561 75.5376 387.818 71.9706 387.818 67.8706C387.818 65.1099 387.244 63.0189 386.096 61.5976C385.222 60.5043 383.992 59.9576 382.406 59.9576C380.848 59.9576 379.618 60.4359 378.716 61.3926C378.006 62.1306 377.65 62.8686 377.65 63.6066C377.65 64.0713 378.019 64.3173 378.757 64.3446C380.671 64.4266 381.627 65.2603 381.627 66.8456C381.627 68.3489 380.835 69.1006 379.249 69.1006C378.238 69.1006 377.432 68.7863 376.83 68.1576C376.229 67.5289 375.928 66.6679 375.928 65.5746C375.928 63.5519 376.639 61.9256 378.06 60.6956C379.482 59.4656 381.354 58.8506 383.677 58.8506C386.001 58.8506 387.928 59.5886 389.458 61.0646C391.235 62.7866 392.123 65.0279 392.123 67.7886C392.123 70.8226 391.112 73.6243 389.089 76.1936C387.067 78.7356 383.664 81.5099 378.88 84.5166C380.684 84.4619 382.953 84.4346 385.686 84.4346C387.955 84.4346 389.39 84.4073 389.991 84.3526C390.593 84.2706 391.126 84.0929 391.59 83.8196C391.973 83.5736 392.301 82.6579 392.574 81.0726C392.766 79.9793 393.039 79.4326 393.394 79.4326C393.668 79.4326 393.804 79.6376 393.804 80.0476Z" fill="black"/>
<path d="M335.378 106.127C335.378 106.346 335.078 106.455 334.476 106.455H333.984C333.984 106.455 333.465 106.455 332.426 106.455C331.388 106.428 330.335 106.414 329.269 106.414C327.383 106.414 326.181 106.428 325.661 106.455C325.142 106.482 324.732 106.496 324.431 106.496C323.775 106.496 323.447 106.373 323.447 106.127C323.447 105.881 323.639 105.758 324.021 105.758C324.623 105.758 325.265 105.744 325.948 105.717C326.796 105.69 327.247 105.485 327.301 105.102C327.383 104.692 327.424 103.831 327.424 102.519V83.2489C327.424 82.3743 327.397 81.8549 327.342 81.6909C327.288 81.5269 327.096 81.4449 326.768 81.4449C326.632 81.4449 325.743 81.5133 324.103 81.6499C323.775 81.6773 323.557 81.6909 323.447 81.6909C323.119 81.6909 322.955 81.5953 322.955 81.4039C322.955 81.1853 323.119 81.0623 323.447 81.0349C324.732 80.8983 326.03 80.5156 327.342 79.8869C328.654 79.2309 329.707 78.4656 330.499 77.5909C330.8 77.3449 331.005 77.2219 331.114 77.2219C331.333 77.2219 331.442 77.3586 331.442 77.6319V78.4109C331.415 78.6296 331.401 78.8756 331.401 79.1489V103.667C331.401 104.651 331.442 105.225 331.524 105.389C331.634 105.553 331.975 105.649 332.549 105.676L333.492 105.717L334.189 105.758H334.804C335.187 105.758 335.378 105.881 335.378 106.127Z" fill="black"/>
<path d="M303.636 134.971C303.636 137.404 303.267 139.7 302.529 141.859C301.819 144.018 300.835 145.754 299.577 147.066C298.238 148.487 296.53 149.198 294.452 149.198C291.61 149.198 289.259 147.804 287.4 145.016C285.569 142.228 284.653 138.661 284.653 134.315C284.653 129.286 285.952 125.322 288.548 122.425C290.106 120.676 292.02 119.801 294.288 119.801C296.967 119.801 299.099 121.017 300.684 123.45C302.652 126.457 303.636 130.297 303.636 134.971ZM299.208 133.495C299.208 129.422 298.757 126.06 297.855 123.409C297.172 121.386 295.969 120.375 294.247 120.375C290.803 120.375 289.081 124.953 289.081 134.11C289.081 143.704 290.899 148.501 294.534 148.501C296.229 148.501 297.445 147.107 298.183 144.319C298.867 141.777 299.208 138.169 299.208 133.495Z" fill="black"/>
<path d="M377.093 212.124C373.935 212.124 371.394 209.056 371.394 205.241C371.394 201.427 373.935 198.359 377.093 198.359C380.252 198.359 382.793 201.427 382.793 205.241C382.793 209.056 380.252 212.124 377.093 212.124Z" fill="black"/>
<path d="M377.094 200.68C379.154 200.68 380.871 202.754 380.871 205.241C380.871 207.729 379.154 209.802 377.094 209.802C375.033 209.802 373.317 207.729 373.317 205.241C373.317 202.754 375.033 200.68 377.094 200.68ZM377.094 196.12C372.905 196.12 369.54 200.183 369.54 205.241C369.54 210.3 372.905 214.363 377.094 214.363C381.283 214.363 384.647 210.3 384.647 205.241C384.647 200.183 381.283 196.12 377.094 196.12Z" fill="black"/>
<path d="M355.234 163.478L358.824 183.86L367.939 186.961L369.295 175.704L355.234 163.478Z" fill="black" stroke="#1A1A1A" stroke-width="0.05" stroke-miterlimit="10"/>
<path d="M373.04 196.262L364.409 194.069L366.125 183.613L374.547 186.036L373.04 196.262Z" fill="black" stroke="#1A1A1A" stroke-width="0.05" stroke-miterlimit="10"/>
<path d="M414.27 272.465C414.27 272.465 418.352 284.887 414.444 291.493C414.444 291.493 426.147 291.489 434.645 308.195C434.645 308.195 424.331 292.487 429.78 279.217C429.78 279.217 421.362 278.018 416.471 270.933L414.237 272.392L414.27 272.465Z" fill="black" stroke="black" stroke-width="0.05" stroke-miterlimit="10"/>
<path d="M416.916 262.166L405.422 247.134L405.441 254.665L399.155 252.829L406.86 270.9L416.913 275.746L416.916 262.166Z" fill="black" stroke="black" stroke-width="0.05" stroke-miterlimit="10"/>
<path d="M384.897 212.456L407.159 244.215L408.257 259.905L396.783 252.405L381.322 215.45C381.866 215.095 384.572 212.951 384.957 212.417L384.897 212.456Z" fill="black" stroke="#1A1A1A" stroke-width="0.05" stroke-miterlimit="10"/>
<path d="M410.446 278.74C413.285 274.621 416.801 271.665 420.994 269.871C418.154 273.989 414.638 276.945 410.446 278.74Z" fill="#1A1A1A"/>
<path d="M352.561 240.871L365.926 231.353L365.487 221.12L357.197 222.939L352.561 240.871Z" fill="black" stroke="#1A1A1A" stroke-width="0.05" stroke-miterlimit="10"/>
<path d="M370.583 213.257L371.534 222.745L363.677 223.889L362.977 214.614L370.583 213.257Z" fill="black" stroke="#1A1A1A" stroke-width="0.05" stroke-miterlimit="10"/>
<path d="M382.023 197.005L391.213 189.733L390.586 179.885L382.306 181.621L378.91 194.163C379.364 194.415 381.725 196.615 382.013 197.087L382.023 197.005Z" fill="black" stroke="#1A1A1A" stroke-width="0.05" stroke-miterlimit="10"/>
<path d="M392.639 181.776C392.639 181.776 402.477 175.966 408.21 177.868C408.21 177.868 402.483 160.027 411.387 146.242C411.387 146.242 399.278 161.194 388.413 159.766C388.413 159.766 392.434 171.335 389.034 178.423L392.571 181.763L392.639 181.776Z" fill="black" stroke="#1A1A1A" stroke-width="0.05" stroke-miterlimit="10"/>
<path d="M394.666 184.417C390.791 183.195 387.746 180.365 385.859 176.072C389.733 177.294 392.711 180.111 394.666 184.417Z" fill="#1A1A1A"/>
</g>
<defs>
<clipPath id="clip0_77_991">
<rect width="784" height="424" fill="white"/>
</clipPath>
</defs>
</svg>
