<svg width="97" height="149" viewBox="0 0 97 149" fill="none" xmlns="http://www.w3.org/2000/svg">
<g filter="url(#filter0_d_505_1548)">
<path d="M53.0014 38.0626C65.5433 38.1171 75.7181 36.1928 75.7274 33.7646C75.7368 31.3364 65.5771 29.3239 53.0353 29.2694C40.4934 29.215 30.3186 31.1393 30.3092 33.5675C30.2999 35.9957 40.4595 38.0082 53.0014 38.0626Z" stroke="#56E723" stroke-width="2" stroke-miterlimit="10" shape-rendering="crispEdges"/>
</g>
<g filter="url(#filter1_d_505_1548)">
<path d="M53.5012 51.6649C62.0004 51.7018 68.8957 50.3729 68.9021 48.6968C68.9086 47.0207 62.0238 45.632 53.5245 45.5951C45.0253 45.5582 38.13 46.8871 38.1236 48.5632C38.1171 50.2393 45.0019 51.628 53.5012 51.6649Z" stroke="#56E723" stroke-width="2" stroke-miterlimit="10" shape-rendering="crispEdges"/>
</g>
<g filter="url(#filter2_d_505_1548)">
<path d="M54.051 69.5273C60.3629 69.5547 65.4841 68.4295 65.4896 67.0141C65.495 65.5987 60.3827 64.429 54.0708 64.4016C47.7589 64.3743 42.6377 65.4995 42.6322 66.9149C42.6268 68.3303 47.7392 69.4999 54.051 69.5273Z" stroke="#56E723" stroke-width="2" stroke-miterlimit="10" shape-rendering="crispEdges"/>
</g>
<g filter="url(#filter3_d_505_1548)">
<path d="M53.8258 86.9238C60.2628 86.9518 65.4852 85.907 65.4902 84.5903C65.4953 83.2736 60.2812 82.1835 53.8442 82.1556C47.4072 82.1276 42.1849 83.1724 42.1798 84.4891C42.1747 85.8058 47.3888 86.8959 53.8258 86.9238Z" stroke="#56E723" stroke-width="2" stroke-miterlimit="10" shape-rendering="crispEdges"/>
</g>
<g filter="url(#filter4_d_505_1548)">
<path d="M53.4761 23.1683C74.1865 23.2581 90.9884 20.0138 91.0041 15.9217C91.0199 11.8297 74.2436 8.43962 53.5332 8.34974C32.8228 8.25987 16.0209 11.5043 16.0052 15.5963C15.9894 19.6883 32.7657 23.0784 53.4761 23.1683Z" fill="#2D3D18"/>
<path d="M53.4761 23.1683C74.1865 23.2581 90.9884 20.0138 91.0041 15.9217C91.0199 11.8297 74.2436 8.43962 53.5332 8.34974C32.8228 8.25987 16.0209 11.5043 16.0052 15.5963C15.9894 19.6883 32.7657 23.0784 53.4761 23.1683Z" stroke="#56E723" stroke-width="3" stroke-miterlimit="10"/>
</g>
<g filter="url(#filter5_d_505_1548)">
<path d="M54.3126 108.468C63.9293 108.51 71.7335 106.414 71.7436 103.787C71.7537 101.159 63.966 98.9957 54.3492 98.954C44.7325 98.9122 36.9283 101.008 36.9182 103.636C36.9081 106.263 44.6958 108.426 54.3126 108.468Z" stroke="#56E723" stroke-width="2" stroke-miterlimit="10" shape-rendering="crispEdges"/>
</g>
<g filter="url(#filter6_d_505_1548)">
<path d="M54.5262 123.755C68.7287 123.816 80.2498 121.881 80.2593 119.433C80.2687 116.984 68.7629 114.95 54.5603 114.888C40.3577 114.826 28.8366 116.761 28.8272 119.21C28.8177 121.658 40.3236 123.693 54.5262 123.755Z" stroke="#56E723" stroke-width="2" stroke-miterlimit="10" shape-rendering="crispEdges"/>
</g>
<g filter="url(#filter7_d_505_1548)">
<path d="M54.8729 138.805C74.2562 138.889 89.9824 135.58 89.9985 131.414C90.0145 127.248 74.3143 123.802 54.931 123.718C35.5477 123.634 19.8215 126.943 19.8054 131.109C19.7894 135.275 35.4896 138.721 54.8729 138.805Z" stroke="#56E723" stroke-width="3" stroke-miterlimit="10" shape-rendering="crispEdges"/>
</g>
<path d="M16.4932 17.1689C19.9251 20.467 42.5114 39.5765 43 72.5C43.5184 107.233 22.7768 128.026 19.5149 131.111" stroke="#56E723" stroke-width="3" stroke-miterlimit="10"/>
<path d="M36.0356 9.68066C40.6393 19.6841 49.3412 49.5636 49.9038 71.6769C50.7251 103.713 41.5838 127.528 35.7689 137.698" stroke="#56E723" stroke-width="1.5" stroke-miterlimit="10"/>
<path d="M90.0958 17.107C84.9661 21.7805 70.1825 35.6474 66.1682 60.6834C59.7882 100.522 87.8297 129.003 90.1663 131.302" stroke="#56E723" stroke-width="3" stroke-miterlimit="10"/>
<path d="M72.2282 10.4811C67.534 17.4346 54.8261 49.5753 55.1902 76.8134C55.6316 109.77 69.113 131.737 74.0951 137.432" stroke="#56E723" stroke-width="1.5" stroke-miterlimit="10"/>
<path d="M52.806 19.649L52.806 2.21292L3.76465 2.21292L27.1874 73.1133L3.76465 144.175L52.806 144.175L52.806 129.342" stroke="#56E723" stroke-width="4" stroke-linecap="round"/>
<defs>
<filter id="filter0_d_505_1548" x="25.3091" y="28.2686" width="55.4185" height="18.7954" filterUnits="userSpaceOnUse" color-interpolation-filters="sRGB">
<feFlood flood-opacity="0" result="BackgroundImageFix"/>
<feColorMatrix in="SourceAlpha" type="matrix" values="0 0 0 0 0 0 0 0 0 0 0 0 0 0 0 0 0 0 127 0" result="hardAlpha"/>
<feOffset dy="4"/>
<feGaussianBlur stdDeviation="2"/>
<feComposite in2="hardAlpha" operator="out"/>
<feColorMatrix type="matrix" values="0 0 0 0 0 0 0 0 0 0 0 0 0 0 0 0 0 0 0.25 0"/>
<feBlend mode="normal" in2="BackgroundImageFix" result="effect1_dropShadow_505_1548"/>
<feBlend mode="normal" in="SourceGraphic" in2="effect1_dropShadow_505_1548" result="shape"/>
</filter>
<filter id="filter1_d_505_1548" x="33.1235" y="44.5942" width="40.7788" height="16.0713" filterUnits="userSpaceOnUse" color-interpolation-filters="sRGB">
<feFlood flood-opacity="0" result="BackgroundImageFix"/>
<feColorMatrix in="SourceAlpha" type="matrix" values="0 0 0 0 0 0 0 0 0 0 0 0 0 0 0 0 0 0 127 0" result="hardAlpha"/>
<feOffset dy="4"/>
<feGaussianBlur stdDeviation="2"/>
<feComposite in2="hardAlpha" operator="out"/>
<feColorMatrix type="matrix" values="0 0 0 0 0 0 0 0 0 0 0 0 0 0 0 0 0 0 0.25 0"/>
<feBlend mode="normal" in2="BackgroundImageFix" result="effect1_dropShadow_505_1548"/>
<feBlend mode="normal" in="SourceGraphic" in2="effect1_dropShadow_505_1548" result="shape"/>
</filter>
<filter id="filter2_d_505_1548" x="37.6323" y="63.4014" width="32.8574" height="15.1265" filterUnits="userSpaceOnUse" color-interpolation-filters="sRGB">
<feFlood flood-opacity="0" result="BackgroundImageFix"/>
<feColorMatrix in="SourceAlpha" type="matrix" values="0 0 0 0 0 0 0 0 0 0 0 0 0 0 0 0 0 0 127 0" result="hardAlpha"/>
<feOffset dy="4"/>
<feGaussianBlur stdDeviation="2"/>
<feComposite in2="hardAlpha" operator="out"/>
<feColorMatrix type="matrix" values="0 0 0 0 0 0 0 0 0 0 0 0 0 0 0 0 0 0 0.25 0"/>
<feBlend mode="normal" in2="BackgroundImageFix" result="effect1_dropShadow_505_1548"/>
<feBlend mode="normal" in="SourceGraphic" in2="effect1_dropShadow_505_1548" result="shape"/>
</filter>
<filter id="filter3_d_505_1548" x="37.1797" y="81.1548" width="33.3105" height="14.7695" filterUnits="userSpaceOnUse" color-interpolation-filters="sRGB">
<feFlood flood-opacity="0" result="BackgroundImageFix"/>
<feColorMatrix in="SourceAlpha" type="matrix" values="0 0 0 0 0 0 0 0 0 0 0 0 0 0 0 0 0 0 127 0" result="hardAlpha"/>
<feOffset dy="4"/>
<feGaussianBlur stdDeviation="2"/>
<feComposite in2="hardAlpha" operator="out"/>
<feColorMatrix type="matrix" values="0 0 0 0 0 0 0 0 0 0 0 0 0 0 0 0 0 0 0.25 0"/>
<feBlend mode="normal" in2="BackgroundImageFix" result="effect1_dropShadow_505_1548"/>
<feBlend mode="normal" in="SourceGraphic" in2="effect1_dropShadow_505_1548" result="shape"/>
</filter>
<filter id="filter4_d_505_1548" x="10.5054" y="6.84814" width="85.999" height="25.8218" filterUnits="userSpaceOnUse" color-interpolation-filters="sRGB">
<feFlood flood-opacity="0" result="BackgroundImageFix"/>
<feColorMatrix in="SourceAlpha" type="matrix" values="0 0 0 0 0 0 0 0 0 0 0 0 0 0 0 0 0 0 127 0" result="hardAlpha"/>
<feOffset dy="4"/>
<feGaussianBlur stdDeviation="2"/>
<feComposite in2="hardAlpha" operator="out"/>
<feColorMatrix type="matrix" values="0 0 0 0 0 0 0 0 0 0 0 0 0 0 0 0 0 0 0.25 0"/>
<feBlend mode="normal" in2="BackgroundImageFix" result="effect1_dropShadow_505_1548"/>
<feBlend mode="normal" in="SourceGraphic" in2="effect1_dropShadow_505_1548" result="shape"/>
</filter>
<filter id="filter5_d_505_1548" x="31.918" y="97.9531" width="44.8257" height="19.5156" filterUnits="userSpaceOnUse" color-interpolation-filters="sRGB">
<feFlood flood-opacity="0" result="BackgroundImageFix"/>
<feColorMatrix in="SourceAlpha" type="matrix" values="0 0 0 0 0 0 0 0 0 0 0 0 0 0 0 0 0 0 127 0" result="hardAlpha"/>
<feOffset dy="4"/>
<feGaussianBlur stdDeviation="2"/>
<feComposite in2="hardAlpha" operator="out"/>
<feColorMatrix type="matrix" values="0 0 0 0 0 0 0 0 0 0 0 0 0 0 0 0 0 0 0.25 0"/>
<feBlend mode="normal" in2="BackgroundImageFix" result="effect1_dropShadow_505_1548"/>
<feBlend mode="normal" in="SourceGraphic" in2="effect1_dropShadow_505_1548" result="shape"/>
</filter>
<filter id="filter6_d_505_1548" x="23.8271" y="113.887" width="61.4321" height="18.8691" filterUnits="userSpaceOnUse" color-interpolation-filters="sRGB">
<feFlood flood-opacity="0" result="BackgroundImageFix"/>
<feColorMatrix in="SourceAlpha" type="matrix" values="0 0 0 0 0 0 0 0 0 0 0 0 0 0 0 0 0 0 127 0" result="hardAlpha"/>
<feOffset dy="4"/>
<feGaussianBlur stdDeviation="2"/>
<feComposite in2="hardAlpha" operator="out"/>
<feColorMatrix type="matrix" values="0 0 0 0 0 0 0 0 0 0 0 0 0 0 0 0 0 0 0.25 0"/>
<feBlend mode="normal" in2="BackgroundImageFix" result="effect1_dropShadow_505_1548"/>
<feBlend mode="normal" in="SourceGraphic" in2="effect1_dropShadow_505_1548" result="shape"/>
</filter>
<filter id="filter7_d_505_1548" x="14.3057" y="122.217" width="81.1929" height="26.0894" filterUnits="userSpaceOnUse" color-interpolation-filters="sRGB">
<feFlood flood-opacity="0" result="BackgroundImageFix"/>
<feColorMatrix in="SourceAlpha" type="matrix" values="0 0 0 0 0 0 0 0 0 0 0 0 0 0 0 0 0 0 127 0" result="hardAlpha"/>
<feOffset dy="4"/>
<feGaussianBlur stdDeviation="2"/>
<feComposite in2="hardAlpha" operator="out"/>
<feColorMatrix type="matrix" values="0 0 0 0 0 0 0 0 0 0 0 0 0 0 0 0 0 0 0.25 0"/>
<feBlend mode="normal" in2="BackgroundImageFix" result="effect1_dropShadow_505_1548"/>
<feBlend mode="normal" in="SourceGraphic" in2="effect1_dropShadow_505_1548" result="shape"/>
</filter>
</defs>
</svg>
