<svg width="846" height="328" viewBox="0 0 846 328" fill="none" xmlns="http://www.w3.org/2000/svg">
<rect x="423" width="423" height="328" fill="#D9D9D9"/>
<rect x="470" y="36" width="330" height="255.887" fill="#9E9E9E"/>
<rect x="423" width="86" height="328" fill="#D9D9D9"/>
<rect x="431" y="153" width="10" height="80" fill="white"/>
<rect x="446" y="153" width="10" height="80" fill="white"/>
<rect x="460" y="153" width="11" height="80" fill="white"/>
<rect x="475" y="153" width="10" height="80" fill="white"/>
<rect x="490" y="153" width="10" height="80" fill="white"/>
<path d="M456.256 150.328V143.416H448.704V140.408H456.256V135.288C451.136 134.989 447.211 133.197 444.48 129.912C441.792 126.584 440.448 121.912 440.448 115.896V112.696L435.264 113.528L442.048 105.976L448.832 113.528L443.648 112.696V115.896C443.648 120.803 444.736 124.643 446.912 127.416C449.131 130.189 452.245 131.747 456.256 132.088V108.6L451.072 109.432L457.984 101.88L464.896 109.432L459.712 108.6V132.088C463.723 131.747 466.816 130.189 468.992 127.416C471.211 124.643 472.32 120.803 472.32 115.896V112.696L467.136 113.528L473.92 105.976L480.704 113.528L475.52 112.696V115.896C475.52 121.912 474.155 126.584 471.424 129.912C468.736 133.197 464.832 134.989 459.712 135.288V140.408H467.264V143.416H459.712V150.328H456.256Z" fill="black"/>
<path d="M434.815 150C433.023 150 432.639 149.616 432.639 147.824V103.152C432.639 101.36 433.023 100.976 434.815 100.976H467.199C468.991 100.976 469.375 101.36 469.375 103.152V147.824C469.375 149.616 468.991 150 467.199 150H434.815ZM435.199 149.104H466.815C468.287 149.104 468.479 148.912 468.479 147.44V103.536C468.479 102 468.287 101.872 466.815 101.872H435.199C433.663 101.872 433.535 102 433.535 103.536V147.44C433.535 148.912 433.663 149.104 435.199 149.104ZM434.495 107.952L436.159 103.472H437.183L438.847 107.952H437.823L437.503 106.928H435.839L435.455 107.952H434.495ZM436.095 106.224H437.247L436.671 104.56L436.095 106.224ZM436.671 113.904C436.415 113.328 436.095 112.688 435.519 112.24C434.943 111.792 434.687 111.28 434.687 110.704C434.687 110 435.007 109.68 435.647 109.68C436.031 109.68 436.287 109.936 436.671 110.448C436.991 109.936 437.375 109.68 437.695 109.68C438.335 109.68 438.655 110 438.655 110.704C438.655 111.28 438.399 111.728 437.887 112.24C437.375 112.752 436.927 113.328 436.671 113.904ZM451.007 131.056C450.687 130.288 449.727 129.008 448.255 127.216C446.783 125.424 446.015 124.08 446.015 123.056C446.015 121.456 446.975 120.496 448.447 120.496C449.855 120.496 450.751 121.84 450.943 122.48H451.071C451.199 121.84 452.159 120.496 453.567 120.496C455.039 120.496 455.999 121.456 455.999 123.056C455.999 124.016 455.231 125.424 453.759 127.216C452.287 128.944 451.391 130.224 451.007 131.056ZM464.319 141.296C463.679 141.296 463.359 140.912 463.359 140.272C463.359 139.696 463.551 139.12 464.127 138.672C464.703 138.224 465.087 137.648 465.343 137.072C465.599 137.648 466.047 138.16 466.559 138.672C467.071 139.184 467.327 139.696 467.327 140.272C467.327 140.912 467.007 141.296 466.367 141.296C466.047 141.296 465.663 141.04 465.343 140.528C465.023 141.04 464.639 141.296 464.319 141.296ZM464.831 147.504L463.167 143.024H464.127L464.511 144.048H466.175L466.495 143.024H467.519L465.855 147.504H464.831ZM465.343 146.416L465.919 144.752H464.767L465.343 146.416Z" fill="black"/>
<path d="M466.607 148.664C464.367 148.664 462.639 146.936 462.639 144.696V106.616C462.639 104.376 464.367 102.648 466.607 102.648H493.423C495.663 102.648 497.391 104.376 497.391 106.616V144.696C497.391 146.936 495.663 148.664 493.423 148.664H466.607ZM466.671 147.704H493.423C495.087 147.704 496.431 146.424 496.431 144.696V106.744C496.431 105.016 495.087 103.608 493.423 103.608H466.671C464.943 103.608 463.599 104.952 463.599 106.68V144.696C463.599 146.424 464.943 147.704 466.671 147.704ZM473.135 119.16C469.871 119.16 467.183 116.472 467.183 113.208C467.183 109.944 469.871 107.256 473.135 107.256C476.463 107.256 479.023 109.944 479.023 113.208C479.023 116.472 476.463 119.16 473.135 119.16ZM486.895 119.16C483.695 119.16 481.007 116.472 481.007 113.208C481.007 109.944 483.695 107.256 486.895 107.256C490.223 107.256 492.847 109.944 492.847 113.208C492.847 116.472 490.223 119.16 486.895 119.16ZM473.135 117.368C475.375 117.368 477.295 115.512 477.295 113.208C477.295 110.968 475.375 109.048 473.135 109.048C470.831 109.048 468.975 110.968 468.975 113.208C468.975 115.512 470.831 117.368 473.135 117.368ZM486.895 117.368C489.199 117.368 491.055 115.512 491.055 113.208C491.055 110.968 489.199 109.048 486.895 109.048C484.591 109.048 482.799 110.968 482.799 113.208C482.799 115.512 484.591 117.368 486.895 117.368ZM473.135 116.344C471.279 116.344 469.999 114.936 469.999 113.208C469.999 111.48 471.279 110.072 473.135 110.072C474.991 110.072 476.271 111.352 476.271 113.208C476.271 115.064 474.863 116.344 473.135 116.344ZM486.895 116.344C485.039 116.344 483.823 114.936 483.823 113.208C483.823 111.48 485.039 110.072 486.895 110.072C488.751 110.072 490.031 111.352 490.031 113.208C490.031 115.064 488.623 116.344 486.895 116.344ZM473.135 115C474.415 115 474.991 114.424 474.991 113.208C474.991 112.056 474.415 111.416 473.199 111.416C471.983 111.416 471.343 112.056 471.343 113.208C471.343 114.424 471.919 115 473.135 115ZM486.959 115C488.175 115 488.815 114.424 488.815 113.208C488.815 112.056 488.239 111.416 486.959 111.416C485.743 111.416 485.103 112.056 485.103 113.208C485.103 114.424 485.679 115 486.959 115ZM473.199 113.976C472.623 113.976 472.303 113.72 472.303 113.208C472.303 112.696 472.623 112.44 473.199 112.44C473.711 112.44 474.031 112.696 474.031 113.208C474.031 113.72 473.711 113.976 473.199 113.976ZM486.959 113.976C486.383 113.976 486.127 113.72 486.127 113.208C486.127 112.696 486.383 112.44 486.959 112.44C487.535 112.44 487.791 112.696 487.791 113.208C487.791 113.72 487.535 113.976 486.959 113.976ZM479.983 131.512C476.591 131.512 473.967 128.888 473.967 125.688C473.967 122.424 476.591 119.736 479.983 119.736C483.183 119.736 485.807 122.424 485.807 125.688C485.807 128.888 483.183 131.512 479.983 131.512ZM479.983 129.72C482.223 129.72 484.079 127.864 484.079 125.688C484.079 123.384 482.223 121.528 479.983 121.528C477.615 121.528 475.823 123.384 475.823 125.688C475.823 127.864 477.615 129.72 479.983 129.72ZM479.983 128.696C478.255 128.696 476.783 127.352 476.783 125.688C476.783 123.96 478.255 122.552 479.983 122.552C481.647 122.552 483.055 123.96 483.055 125.688C483.055 127.352 481.647 128.696 479.983 128.696ZM479.983 127.416C481.135 127.416 481.711 126.84 481.711 125.688C481.711 124.408 481.135 123.832 479.983 123.832C478.703 123.832 478.063 124.344 478.063 125.56C478.063 126.84 478.703 127.416 479.983 127.416ZM479.983 126.456C479.407 126.456 479.087 126.136 479.087 125.624C479.087 125.048 479.407 124.792 479.983 124.792C480.431 124.792 480.687 125.048 480.687 125.624C480.687 126.136 480.431 126.456 479.983 126.456ZM473.135 143.928C469.871 143.928 467.183 141.304 467.183 137.976C467.183 134.712 469.871 132.088 473.135 132.088C476.463 132.088 479.023 134.776 479.023 137.976C479.023 141.24 476.463 143.928 473.135 143.928ZM486.895 143.928C483.695 143.928 481.007 141.304 481.007 137.976C481.007 134.712 483.695 132.088 486.895 132.088C490.223 132.088 492.847 134.776 492.847 137.976C492.847 141.24 490.223 143.928 486.895 143.928ZM473.135 142.136C475.375 142.136 477.295 140.28 477.295 137.976C477.295 135.736 475.375 133.816 473.135 133.816C470.831 133.816 468.975 135.736 468.975 137.976C468.975 140.28 470.831 142.136 473.135 142.136ZM486.895 142.136C489.199 142.136 491.055 140.28 491.055 137.976C491.055 135.736 489.199 133.816 486.895 133.816C484.591 133.816 482.799 135.736 482.799 137.976C482.799 140.28 484.591 142.136 486.895 142.136ZM473.135 141.112C471.279 141.112 469.999 139.704 469.999 137.976C469.999 136.312 471.279 134.904 473.135 134.904C474.991 134.904 476.271 136.12 476.271 137.976C476.271 139.896 474.863 141.112 473.135 141.112ZM486.895 141.112C485.039 141.112 483.823 139.704 483.823 137.976C483.823 136.312 485.039 134.904 486.895 134.904C488.751 134.904 490.031 136.12 490.031 137.976C490.031 139.896 488.623 141.112 486.895 141.112ZM473.135 139.768C474.415 139.768 474.991 139.192 474.991 137.976C474.991 136.824 474.415 136.248 473.199 136.248C471.983 136.248 471.343 136.824 471.343 137.976C471.343 139.192 471.919 139.768 473.135 139.768ZM486.959 139.768C488.175 139.768 488.815 139.192 488.815 137.976C488.815 136.824 488.239 136.248 486.959 136.248C485.743 136.248 485.103 136.824 485.103 137.976C485.103 139.192 485.679 139.768 486.959 139.768ZM473.199 138.808C472.623 138.808 472.303 138.552 472.303 137.976C472.303 137.464 472.623 137.208 473.199 137.208C473.711 137.208 474.031 137.464 474.031 137.976C474.031 138.552 473.711 138.808 473.199 138.808ZM486.959 138.808C486.383 138.808 486.127 138.552 486.127 137.976C486.127 137.464 486.383 137.208 486.959 137.208C487.535 137.208 487.791 137.464 487.791 137.976C487.791 138.552 487.535 138.808 486.959 138.808Z" fill="black"/>
<path d="M454.56 148.072C450.08 148.072 445.664 143.72 445.664 139.496C445.664 134.376 450.592 129.576 454.88 128.104C453.344 128.552 451.872 128.744 450.4 128.744C444.448 128.744 439.264 125.288 439.264 119.784C439.264 114.28 443.232 110.568 447.968 110.568C451.744 110.568 456.096 113 458.72 116.328C457.248 114.216 456.032 110.888 456.032 107.496C456.032 102.44 459.552 98.28 464.992 98.28C470.304 98.28 473.824 102.312 473.824 107.496C473.824 110.632 472.8 113.96 471.136 116.328L471.392 116.008C474.144 112.616 477.984 110.568 482.016 110.568C486.624 110.568 490.72 114.152 490.72 119.72C490.72 125.416 485.152 128.744 479.52 128.744C477.536 128.68 476 128.424 474.976 128.104C479.392 129.704 484.32 134.184 484.32 139.624C484.32 143.528 480.096 148.072 475.36 148.072C471.136 148.072 468 145.256 466.272 140.904C465.376 138.664 464.992 136.872 464.992 135.4C464.032 143.272 460.256 148.072 454.56 148.072ZM461.408 117.352L463.456 116.584C463.84 115.624 463.968 114.792 463.968 114.152C463.968 113.32 463.456 111.72 463.456 111.08C463.456 109.928 463.968 108.904 464.992 108.904C466.016 108.904 466.528 109.928 466.528 111.08C466.528 111.912 465.888 113.32 465.888 114.152C465.888 114.92 466.08 115.752 466.4 116.584L468.448 117.352C470.176 115.624 471.264 112.552 471.264 109.544C471.264 105.512 468.704 102.888 464.992 102.888C461.28 102.888 458.592 105.512 458.592 109.544C458.592 112.552 459.68 115.688 461.408 117.352ZM452.064 127.208C453.792 127.208 455.264 126.888 456.544 126.184V124.008C456.096 123.368 454.816 122.792 452.704 122.6C450.656 122.408 449.568 121.768 449.568 120.68C449.568 119.72 450.336 119.336 451.104 119.336C451.616 119.336 452.512 119.592 453.664 120.296C454.816 121 456.032 121.32 457.184 121.32H457.44L458.72 119.528C457.44 116.904 453.536 114.024 449.76 114.024C446.176 114.024 443.68 116.968 443.68 120.552C443.68 124.392 447.072 127.208 452.064 127.208ZM477.856 127.208C482.848 127.208 486.304 124.392 486.304 120.552C486.304 116.84 483.68 114.024 480.16 114.024C476.256 114.024 472.352 116.968 471.136 119.528L472.544 121.32H472.8L473.312 121.256C474.336 121.128 475.36 120.936 476.384 120.296C477.408 119.656 478.176 119.336 478.752 119.336C479.776 119.336 480.288 119.784 480.288 120.744C480.288 121.832 479.456 122.408 477.792 122.472C476.128 122.536 474.656 123.048 473.44 124.008L473.312 126.184C474.592 126.888 476.064 127.208 477.856 127.208ZM455.584 143.976C459.872 143.976 463.136 138.216 463.136 134.248V133.608L463.072 133.096L461.024 132.456C459.552 133.352 458.592 134.568 458.208 135.976C457.824 137.448 457.12 138.152 456.096 138.152C455.328 138.152 454.688 137.384 454.688 136.68C454.688 135.784 455.264 135.016 456.352 134.248C457.44 133.48 458.208 132.328 458.592 130.792L457.44 129C454.048 129.64 449.056 133.288 449.056 137.704C449.056 141.032 452.32 143.976 455.584 143.976ZM474.016 143.976C477.344 143.976 480.544 140.968 480.544 137.704C480.544 133.224 475.616 129.768 472.16 129L471.008 130.792C471.328 132.264 472.096 133.352 473.184 134.248C474.272 135.144 474.848 135.976 474.848 136.808C474.848 137.512 474.208 138.152 473.504 138.152C472.608 138.152 471.84 137.448 471.328 135.976C470.816 134.568 469.856 133.416 468.576 132.456L466.528 133.096L466.464 133.608V134.248C466.464 136.616 468 140.584 470.304 142.504C471.456 143.464 472.672 143.976 474.016 143.976Z" fill="black"/>
<path d="M491.094 146.92C485.319 146.92 481.524 143.73 481.524 138.78C481.524 135.095 484.274 132.18 487.684 132.18C490.874 132.18 492.854 133.995 492.854 136.91C492.854 139.605 490.819 141.2 489.444 141.2C488.399 141.2 487.574 141.035 487.024 140.65C487.024 143.455 488.729 144.94 491.754 144.94C497.144 144.94 500.994 140.375 500.994 128.99V126.625L499.069 126.735L492.744 127.01C483.724 127.01 477.234 122.665 477.234 114.305C477.234 106.33 483.559 102.15 490.984 102.15H500.994V100.72C500.994 99.675 500.829 98.135 500.554 96.21L504.294 95.33C504.184 96.1 504.019 98.355 503.744 102.15H512.764L512.324 105.12C507.539 104.68 504.624 104.46 503.634 104.46L503.524 110.73V125.8C503.524 136.635 502.149 141.695 498.409 144.665C496.539 146.15 494.119 146.92 491.094 146.92ZM500.994 124.645V104.46H496.044C495.769 106.935 495.604 109.96 495.604 113.59C495.604 117.11 495.824 120.465 496.264 123.71C497.419 124.315 498.959 124.645 500.994 124.645Z" fill="black"/>
</svg>
