<svg width="44" height="44" viewBox="0 0 44 44" fill="none" xmlns="http://www.w3.org/2000/svg">
<path d="M42.34 1H2.34001V30H42.34V1Z" fill="#2D1D00" stroke="black" stroke-width="0.25" stroke-miterlimit="10"/>
<path d="M39.93 39.2749L3.81999 39.1653L6.33999 17.0985H37.64L39.93 39.2749Z" fill="#44210B"/>
<path d="M37.3 12.1793L36.66 17.0986L40.05 39.6434L41.29 39.1654L37.3 12.1793Z" fill="#603813"/>
<path d="M37.3 12.1793L37.91 12.1295L41.78 38.777L41.29 39.1654L37.3 12.1793Z" fill="#8B6239"/>
<path d="M6.48 12L6.83 17.0985L4.31 39.6831L3.06 39.3047L6.48 12Z" fill="#603813"/>
<path d="M6.48 12H5.87L2.56 38.9562L3.06 39.3047L6.48 12Z" fill="#8B6239"/>
<path d="M43.33 13H1V43.561H43.33V13Z" fill="#603813" stroke="#42210B" stroke-width="0.25" stroke-miterlimit="10"/>
<path d="M14.63 30.4861C14.63 30.4861 21.43 32.7465 29.36 30.4861H14.63Z" fill="#42210B"/>
<path d="M31.07 29.8189L29.06 27.7676C29 27.7078 28.91 27.668 28.83 27.668H15.61C15.52 27.668 15.44 27.7078 15.38 27.7676L13.28 29.9085C13.07 30.1276 13.22 30.4861 13.52 30.4861L30.84 30.3965C31.13 30.3965 31.28 30.028 31.07 29.8189Z" fill="#744417"/>
</svg>
