<svg width="405" height="219" viewBox="0 0 405 219" fill="none" xmlns="http://www.w3.org/2000/svg">
<g clip-path="url(#clip0_312_606)">
<path d="M17.2524 71.292C29.9086 66.7518 42.5649 62.7684 55.1782 58.2282L104.516 53.8165C100.269 55.9581 95.335 58.0997 89.7577 60.0272C87.6554 60.7553 82.2068 62.5971 70.7089 64.9528C67.7916 65.5525 58.1814 67.5228 44.0236 69.3217C36.9446 70.2212 27.8922 70.6067 17.2095 71.292H17.2524Z" fill="#42210B" stroke="black" stroke-width="0.05" stroke-miterlimit="10"/>
<path d="M396.554 73.1338L360.516 59.9843H330.141C337.691 63.7535 347.859 67.9511 360.301 70.7352C374.759 73.9904 387.33 73.6477 396.597 73.1338H396.554Z" fill="#42210B" stroke="black" stroke-width="0.05" stroke-miterlimit="10"/>
<path d="M82.0352 211.909C82.0352 212.381 82.2497 216.064 80.8768 217.563C78.8175 219.833 75.4711 219.277 75.0421 219.234C54.2343 219.405 25.2751 218.334 4.03835 218.463C2.96578 218.463 1.97902 217.906 1.5071 216.921C-0.595128 212.552 4.51027 205.999 4.63898 205.827C5.28252 205.87 5.84025 210.025 6.48379 210.068C32.6543 212.124 82.0352 211.909 82.0352 211.909Z" fill="#603813" stroke="black" stroke-width="0.1" stroke-miterlimit="10"/>
<path d="M88.1272 204.928C88.1272 205.399 87.5695 207.583 85.8105 209.768C84.3947 211.567 80.8338 211.61 80.4048 211.567C59.5112 211.738 28.6214 210.582 7.38464 210.71C6.6982 210.71 6.01176 210.453 5.62564 209.896C2.57956 205.527 7.89947 198.717 8.02818 198.503C8.67172 198.546 8.3285 202.187 8.97204 202.229C35.1426 204.328 61.9567 202.829 88.1272 204.928Z" fill="#603813" stroke="black" stroke-width="0.1" stroke-miterlimit="10"/>
<path d="M329.926 210.839C329.926 211.31 329.755 214.993 330.999 216.492C332.887 218.763 336.018 218.206 336.447 218.163C355.839 218.334 382.868 217.263 402.646 217.392C403.633 217.392 404.577 216.835 405.006 215.85C406.979 211.481 402.217 204.928 402.088 204.756C401.488 204.799 400.973 208.954 400.372 208.997C375.961 211.053 329.926 210.839 329.926 210.839Z" fill="#603813" stroke="black" stroke-width="0.15" stroke-miterlimit="10"/>
<path d="M324.22 203.857C324.22 204.328 324.735 206.513 326.365 208.697C327.695 210.496 330.999 210.539 331.428 210.496C350.906 210.667 379.736 209.511 399.514 209.639C400.158 209.639 400.801 209.382 401.144 208.826C403.976 204.457 398.742 197.646 398.613 197.432C398.013 197.475 397.97 201.116 397.369 201.159C372.957 203.257 348.589 201.758 324.177 203.857H324.22Z" fill="#603813" stroke="black" stroke-width="0.15" stroke-miterlimit="10"/>
<path d="M17.2524 71.8488C17.3811 76.1748 17.5527 82.514 17.6385 90.2237C17.853 110.826 17.9388 121.32 16.0511 130.186C14.6353 136.868 11.6751 146.591 4.72485 157.727C5.96903 171.733 7.47062 187.709 8.71479 201.844C8.80059 202.658 9.44413 203.3 10.3022 203.343C36.344 204.885 62.1285 203.215 88.1703 204.842C88.5993 204.071 89.9722 202.272 92.6751 201.501C95.6782 200.645 98.3811 200.388 99.2392 200.516C169.299 199.531 241.161 200.602 311.221 199.617C312.465 199.445 317.913 199.274 320.273 199.617C322.032 199.874 323.362 201.887 324.263 202.958C349.533 202.272 372.142 201.844 397.412 201.201L404.233 158.241C402.303 155.671 399.428 151.431 397.197 145.734C392.564 134.127 393.722 124.832 395.267 99.1328C395.61 93.6503 396.125 84.8269 396.64 73.6906C390.462 73.6906 382.053 73.3051 372.185 71.8488C360.473 70.0927 340.652 65.8951 316.069 53.3025C277.37 33.4713 280.459 19.2083 253.388 8.71443C217.95 -5.03464 184.015 3.48892 178.523 4.94521C135.32 16.3814 126.525 51.8034 84.3949 62.0403C67.3197 66.195 47.0268 68.9362 47.0268 68.9362C34.8424 70.6067 24.6316 71.4205 17.424 71.8488H17.2524Z" fill="#603813" stroke="black" stroke-width="0.25" stroke-miterlimit="10"/>
<path d="M125.281 99.9894L125.71 120.806C125.71 120.806 128.627 122.99 130.901 120.549L130.172 100.032C130.172 99.4326 127.126 97.548 125.281 100.032V99.9894Z" fill="#666666" stroke="#1A1A1A" stroke-width="0.08" stroke-miterlimit="10"/>
<path d="M127.726 101.617C129.077 101.617 130.172 100.965 130.172 100.161C130.172 99.3565 129.077 98.7045 127.726 98.7045C126.376 98.7045 125.281 99.3565 125.281 100.161C125.281 100.965 126.376 101.617 127.726 101.617Z" fill="#1A1A1A"/>
<path d="M125.281 106.543C125.281 106.543 127.855 108.641 130.386 106.543" stroke="#1A1A1A" stroke-width="0.05" stroke-miterlimit="10"/>
<path d="M125.538 112.411C125.538 112.411 127.855 114.424 130.515 112.368" stroke="#1A1A1A" stroke-width="0.05" stroke-miterlimit="10"/>
<path d="M17.2524 71.806C24.7604 115.623 32.3112 159.483 39.8192 203.3L88.1704 204.928C82.593 158.798 76.3721 111.383 70.7948 65.2527C61.0988 67.4371 50.2016 69.3645 38.2318 70.5638C30.8525 71.292 23.8165 71.6775 17.2524 71.806Z" fill="#42210B" stroke="black" stroke-width="0.05" stroke-miterlimit="10"/>
<path d="M210.657 187.024C254.302 187.024 289.684 151.701 289.684 108.127C289.684 64.554 254.302 29.2309 210.657 29.2309C167.012 29.2309 131.631 64.554 131.631 108.127C131.631 151.701 167.012 187.024 210.657 187.024Z" fill="#2B140A" stroke="#2B140A" stroke-width="0.75" stroke-miterlimit="10"/>
<path d="M347.001 66.9659L326.065 202.315L373.944 201.373L396.554 74.5472C389.432 74.5472 381.195 74.0761 372.099 72.7054C362.489 71.2491 354.08 69.1504 347.001 66.9231V66.9659Z" fill="#42210B" stroke="black" stroke-width="0.05" stroke-miterlimit="10"/>
<path d="M210.803 187.324C254.447 187.324 289.828 152.001 289.828 108.429C289.828 64.8561 254.447 29.5336 210.803 29.5336C167.159 29.5336 131.778 64.8561 131.778 108.429C131.778 152.001 167.159 187.324 210.803 187.324Z" fill="#391E00" stroke="#2B140A" stroke-width="0.75" stroke-miterlimit="10"/>
<path d="M151.813 159.055C156.446 163.938 176.353 183.897 207.843 185.353C244.18 187.024 267.734 162.867 271.552 158.798C236.973 159.697 186.349 158.155 151.813 159.055Z" fill="#2B140A"/>
<path d="M239.557 122.019L241.057 137.547L221.36 172.993L218.368 171.317L237.697 136.47L235.498 119.745L239.557 122.019Z" fill="#004497"/>
<path d="M206.5 103L236.643 119.887L238.842 136.612L218.079 173.99L178.996 152.095L186.317 139.027L187.264 137.336L191.174 136.079L190.114 132.248L190.65 131.292L194.443 130.244L193.727 125.8L206.5 103Z" fill="url(#paint0_linear_312_606)" stroke="black" stroke-width="0.25" stroke-miterlimit="10"/>
<path opacity="0.84" d="M210.298 114.598L190.184 150.502L215.937 164.93L227.92 143.539L216.846 137.335L232.377 135.583L210.298 114.598Z" fill="url(#paint1_radial_312_606)" stroke="#007CBC" stroke-width="0.5" stroke-miterlimit="10"/>
<path d="M234.469 130.699C232.029 128.785 228.566 125.331 226.262 123.203C223.998 121.032 220.356 117.784 218.301 115.441C220.741 117.356 224.203 120.809 226.507 122.938C228.772 125.108 232.414 128.356 234.469 130.699Z" fill="#00EFFF"/>
<path d="M234.469 130.699L218.313 115.448" stroke="#0091FF" stroke-width="0.05" stroke-miterlimit="10"/>
<path d="M234.696 128.25C232.951 126.966 230.691 124.557 229.1 123.054C227.567 121.534 225.074 119.284 223.743 117.604C225.464 118.875 227.785 121.318 229.339 122.801C230.895 124.365 233.343 126.525 234.696 128.25Z" fill="#00DFFF"/>
<path d="M234.696 128.25L223.743 117.604" stroke="#0091FF" stroke-width="0.03" stroke-miterlimit="10"/>
<path d="M194.878 130.504C194.678 130.199 194.537 129.733 194.504 129.36L194.307 128.187C194.237 127.794 194.063 126.81 193.999 126.436L194.072 125.817L194.342 126.371C194.406 126.745 194.586 127.747 194.65 128.121L194.847 129.295C194.937 129.651 194.971 130.137 194.885 130.492L194.878 130.504Z" fill="#00E9FF"/>
<path d="M190.824 131.615C191.08 131.388 191.458 131.23 191.794 131.176L192.808 130.891C193.146 130.806 194.007 130.564 194.332 130.472L194.878 130.504L194.417 130.809C194.092 130.901 193.218 131.137 192.893 131.228L191.879 131.514C191.56 131.625 191.154 131.687 190.817 131.627L190.824 131.615Z" fill="#00E9FF"/>
<path d="M191.657 136.253C191.423 136.009 191.24 135.617 191.168 135.286L190.85 134.271C190.746 133.939 190.479 133.065 190.375 132.732L190.382 132.173L190.707 132.629C190.806 132.942 191.078 133.835 191.182 134.167L191.5 135.183C191.63 135.497 191.698 135.922 191.657 136.253Z" fill="#00E9FF"/>
<path d="M187.366 137.586C187.629 137.346 188.053 137.165 188.402 137.087L189.488 136.761C189.839 136.652 190.771 136.369 191.115 136.272L191.706 136.281L191.212 136.616C190.868 136.713 189.936 136.996 189.585 137.105L188.5 137.432C188.173 137.555 187.722 137.64 187.359 137.598L187.366 137.586Z" fill="#00E9FF"/>
<path d="M180.889 187.327C208.012 187.327 230 152.003 230 108.43C230 64.8568 208.012 29.5336 180.889 29.5336C153.766 29.5336 131.778 64.8568 131.778 108.43C131.778 152.003 153.766 187.327 180.889 187.327Z" fill="#9F9F97" stroke="#2B140A" stroke-width="0.75" stroke-miterlimit="10"/>
<path d="M180.889 187.327C208.012 187.327 230 152.003 230 108.43C230 64.8568 208.012 29.5336 180.889 29.5336C153.766 29.5336 131.778 64.8568 131.778 108.43C131.778 152.003 153.766 187.327 180.889 187.327Z" fill="#9F9F97" stroke="#2B140A" stroke-width="0.75" stroke-miterlimit="10"/>
<path d="M180.729 53.991C199.179 53.991 214.216 78.1054 214.216 107.788C214.216 137.471 199.206 161.585 180.729 161.585C162.252 161.585 147.242 137.471 147.242 107.788C147.242 78.1054 162.252 53.991 180.729 53.991ZM180.729 52.9202C161.879 52.9202 146.575 77.4629 146.575 107.788C146.575 138.113 161.852 162.656 180.729 162.656C199.606 162.656 214.883 138.113 214.883 107.788C214.883 77.4629 199.606 52.9202 180.729 52.9202Z" fill="#42210B"/>
<path d="M180.822 48.7012C180.822 48.8154 180.725 48.8725 180.529 48.8725H180.369C180.369 48.8725 180.2 48.8725 179.863 48.8725C179.525 48.8582 179.183 48.8511 178.836 48.8511C178.223 48.8511 177.832 48.8582 177.663 48.8725C177.494 48.8868 177.361 48.8939 177.263 48.8939C177.05 48.8939 176.943 48.8297 176.943 48.7012C176.943 48.5727 177.005 48.5084 177.13 48.5084C177.325 48.5084 177.534 48.5013 177.756 48.487C178.032 48.4727 178.178 48.3657 178.196 48.1658C178.223 47.9516 178.236 47.5019 178.236 46.8166V36.7511C178.236 36.2942 178.227 36.0229 178.21 35.9372C178.192 35.8516 178.13 35.8088 178.023 35.8088C177.978 35.8088 177.69 35.8444 177.156 35.9158C177.05 35.9301 176.979 35.9372 176.943 35.9372C176.836 35.9372 176.783 35.8873 176.783 35.7873C176.783 35.6731 176.836 35.6089 176.943 35.5946C177.361 35.5232 177.783 35.3233 178.21 34.9949C178.636 34.6523 178.978 34.2525 179.236 33.7956C179.334 33.6672 179.4 33.6029 179.436 33.6029C179.507 33.6029 179.543 33.6743 179.543 33.8171V34.224C179.534 34.3382 179.529 34.4667 179.529 34.6095V47.4162C179.529 47.9302 179.543 48.23 179.569 48.3157C179.605 48.4014 179.716 48.4513 179.903 48.4656L180.209 48.487L180.436 48.5084H180.636C180.76 48.5084 180.822 48.5727 180.822 48.7012Z" fill="black"/>
<path d="M204.898 59.6664C204.898 59.7806 204.8 59.8378 204.605 59.8378H204.445C204.445 59.8378 204.276 59.8378 203.938 59.8378C203.601 59.8235 203.258 59.8163 202.912 59.8163C202.299 59.8163 201.908 59.8235 201.739 59.8378C201.57 59.852 201.436 59.8592 201.339 59.8592C201.125 59.8592 201.019 59.7949 201.019 59.6664C201.019 59.5379 201.081 59.4737 201.205 59.4737C201.401 59.4737 201.61 59.4665 201.832 59.4523C202.107 59.438 202.254 59.3309 202.272 59.131C202.299 58.9169 202.312 58.4671 202.312 57.7818V47.7163C202.312 47.2594 202.303 46.9882 202.285 46.9025C202.267 46.8168 202.205 46.774 202.099 46.774C202.054 46.774 201.765 46.8097 201.232 46.8811C201.125 46.8954 201.054 46.9025 201.019 46.9025C200.912 46.9025 200.859 46.8525 200.859 46.7526C200.859 46.6384 200.912 46.5741 201.019 46.5598C201.436 46.4884 201.859 46.2886 202.285 45.9602C202.712 45.6175 203.054 45.2178 203.312 44.7609C203.409 44.6324 203.476 44.5681 203.512 44.5681C203.583 44.5681 203.618 44.6395 203.618 44.7823V45.1892C203.609 45.3034 203.605 45.4319 203.605 45.5747V58.3815C203.605 58.8955 203.618 59.1953 203.645 59.2809C203.681 59.3666 203.792 59.4166 203.978 59.4309L204.285 59.4523L204.511 59.4737H204.711C204.836 59.4737 204.898 59.5379 204.898 59.6664Z" fill="black"/>
<path d="M219.961 77.9339C219.961 77.9768 219.953 78.091 219.935 78.2766C219.89 78.7477 219.819 79.9114 219.722 81.7674L219.708 82.0244C218.793 81.953 217.749 81.9173 216.575 81.9173C215.944 81.9173 215.353 81.9316 214.802 81.9601C214.251 81.9887 214.011 82.003 214.083 82.003C213.843 82.003 213.723 81.9316 213.723 81.7888C213.723 81.6746 213.954 81.3177 214.416 80.718C215.527 79.2617 216.318 78.0767 216.789 77.163C217.606 75.5782 218.015 73.715 218.015 71.5734C218.015 70.1314 217.829 69.0392 217.455 68.2967C217.171 67.7256 216.771 67.4401 216.255 67.4401C215.749 67.4401 215.349 67.69 215.056 68.1897C214.825 68.5751 214.709 68.9606 214.709 69.3461C214.709 69.5888 214.829 69.7173 215.069 69.7316C215.691 69.7744 216.002 70.2099 216.002 71.038C216.002 71.8232 215.744 72.2159 215.229 72.2159C214.9 72.2159 214.638 72.0517 214.442 71.7233C214.247 71.3949 214.149 70.9452 214.149 70.3741C214.149 69.3176 214.38 68.4681 214.842 67.8256C215.305 67.1831 215.913 66.8619 216.669 66.8619C217.424 66.8619 218.051 67.2474 218.548 68.0183C219.126 68.9178 219.415 70.0885 219.415 71.5306C219.415 73.1153 219.086 74.5788 218.428 75.9208C217.771 77.2486 216.664 78.6978 215.109 80.2683C215.696 80.2397 216.433 80.2255 217.322 80.2255C218.06 80.2255 218.526 80.2112 218.722 80.1826C218.917 80.1398 219.091 80.047 219.242 79.9042C219.366 79.7757 219.473 79.2974 219.562 78.4693C219.624 77.8982 219.713 77.6127 219.828 77.6127C219.917 77.6127 219.961 77.7198 219.961 77.9339Z" fill="black"/>
<path d="M225.38 107.778C225.38 109.081 225.052 110.196 224.397 111.123C223.674 112.144 222.75 112.654 221.626 112.654C220.707 112.654 220.032 112.308 219.602 111.617C219.328 111.178 219.191 110.675 219.191 110.11C219.191 109.623 219.284 109.238 219.47 108.955C219.665 108.657 219.925 108.508 220.247 108.508C220.501 108.508 220.711 108.626 220.878 108.861C221.044 109.097 221.127 109.395 221.127 109.756C221.127 110.306 220.897 110.738 220.438 111.052C220.252 111.178 220.159 111.303 220.159 111.429C220.159 111.633 220.286 111.822 220.54 111.994C220.795 112.151 221.073 112.23 221.376 112.23C222.119 112.23 222.72 111.822 223.18 111.005C223.649 110.188 223.884 109.12 223.884 107.801C223.884 105.147 223.141 103.82 221.655 103.82C221.508 103.82 221.401 103.828 221.332 103.843H221.23C221.103 103.843 221.039 103.773 221.039 103.631C221.039 103.521 221.156 103.435 221.391 103.372C222.075 103.215 222.603 102.815 222.975 102.171C223.346 101.511 223.532 100.671 223.532 99.6502C223.532 98.6451 223.371 97.8441 223.048 97.2473C222.725 96.6348 222.29 96.3286 221.743 96.3286C221.342 96.3286 220.99 96.4699 220.687 96.7526C220.394 97.0196 220.247 97.3337 220.247 97.6949C220.247 97.8362 220.316 97.9305 220.452 97.9776C221.098 98.2289 221.42 98.6608 221.42 99.2733C221.42 100.074 221.161 100.475 220.643 100.475C220.311 100.475 220.042 100.318 219.837 100.004C219.641 99.6894 219.543 99.2733 219.543 98.755C219.543 97.9069 219.768 97.2002 220.218 96.6348C220.677 96.0537 221.313 95.7632 222.124 95.7632C223.053 95.7632 223.762 96.1479 224.25 96.9175C224.739 97.687 224.984 98.5822 224.984 99.6031C224.984 101.017 224.568 102.061 223.737 102.736C223.444 102.972 222.97 103.168 222.315 103.325V103.49C223.126 103.537 223.781 103.828 224.28 104.362C225.013 105.147 225.38 106.286 225.38 107.778Z" fill="black"/>
<path d="M219.939 140.019C219.939 140.176 219.89 140.255 219.793 140.255C219.705 140.255 219.646 140.168 219.617 139.996C219.597 139.807 219.563 139.312 219.514 138.511C219.495 138.386 219.455 138.292 219.397 138.229C219.279 138.119 219.02 138.064 218.62 138.064C218.512 138.064 218.409 138.072 218.312 138.087L218.326 141.786C218.375 141.974 218.453 142.092 218.561 142.139C218.678 142.186 218.957 142.21 219.397 142.21C219.612 142.21 219.739 142.241 219.778 142.304C219.788 142.336 219.793 142.383 219.793 142.445C219.793 142.555 219.597 142.61 219.206 142.61C218.815 142.61 217.72 142.626 215.921 142.658C215.824 142.673 215.716 142.681 215.599 142.681C215.403 142.681 215.305 142.603 215.305 142.445C215.305 142.288 215.447 142.218 215.731 142.233C216.063 142.249 216.366 142.218 216.64 142.139C216.757 142.108 216.831 142.029 216.86 141.904C216.889 141.762 216.904 141.464 216.904 141.008V138.158C216.708 138.142 216.483 138.134 216.229 138.134H215.628C215.491 138.134 215.34 138.142 215.174 138.158C215.027 138.158 214.934 138.158 214.895 138.158L213.033 138.087C212.896 138.072 212.827 138.009 212.827 137.899C212.827 137.82 213.546 136.195 214.983 133.022C215.433 132.002 216.425 129.756 217.96 126.285C218.028 126.128 218.097 126.049 218.165 126.049C218.263 126.049 218.312 126.199 218.312 126.497V137.569H218.458C218.791 137.569 219.05 137.538 219.235 137.475C219.431 137.412 219.529 137.255 219.529 137.004C219.519 136.014 219.514 135.677 219.514 135.991C219.524 135.425 219.578 135.143 219.675 135.143C219.812 135.143 219.881 135.363 219.881 135.802V136.862L219.895 138.558C219.905 139.14 219.915 139.509 219.925 139.666C219.934 139.807 219.939 139.925 219.939 140.019ZM216.992 129.512C216.894 129.764 216.689 130.243 216.376 130.949C215.946 131.907 215.296 133.337 214.426 135.237L213.385 137.522C213.746 137.569 214.523 137.593 215.716 137.593C216.136 137.593 216.532 137.585 216.904 137.569V135.896C216.904 135.111 216.919 134.051 216.948 132.716C216.977 131.146 216.992 130.078 216.992 129.512Z" fill="black"/>
<path d="M205.924 167.346C205.924 169.173 205.489 170.573 204.618 171.544C204.094 172.129 203.414 172.422 202.578 172.422C201.743 172.422 201.13 172.072 200.739 171.372C200.525 170.987 200.419 170.53 200.419 170.002C200.419 169.559 200.507 169.202 200.685 168.931C200.863 168.645 201.094 168.502 201.378 168.502C201.61 168.502 201.801 168.61 201.952 168.824C202.112 169.038 202.192 169.302 202.192 169.616C202.192 170.144 201.974 170.544 201.538 170.815C201.343 170.93 201.245 171.058 201.245 171.201C201.245 171.429 201.374 171.636 201.632 171.822C201.898 171.993 202.192 172.079 202.512 172.079C203.134 172.079 203.6 171.736 203.911 171.051C204.338 170.109 204.551 168.838 204.551 167.239C204.551 166.068 204.382 165.162 204.045 164.519C203.707 163.877 203.227 163.555 202.605 163.555C202.125 163.555 201.596 163.848 201.019 164.433C201.072 161.221 201.112 159.194 201.138 158.351C201.147 157.866 201.214 157.573 201.338 157.473C201.463 157.359 201.801 157.302 202.352 157.302C202.44 157.302 202.592 157.302 202.805 157.302C203.018 157.316 203.187 157.323 203.311 157.323H203.765C204.378 157.323 204.733 157.309 204.831 157.28C204.938 157.238 205.004 157.116 205.031 156.916C205.067 156.588 205.129 156.424 205.218 156.424C205.307 156.424 205.351 156.502 205.351 156.659C205.351 156.759 205.347 156.838 205.338 156.895L205.311 157.388C205.267 158.187 205.173 158.687 205.031 158.887C204.898 159.072 204.565 159.165 204.031 159.165L201.485 159.144C201.45 159.629 201.418 161.093 201.392 163.534C201.898 163.163 202.427 162.977 202.978 162.977C203.894 162.977 204.613 163.37 205.138 164.155C205.662 164.926 205.924 165.99 205.924 167.346Z" fill="black"/>
<path d="M184.288 177.497C184.288 178.882 184.026 180.067 183.502 181.052C182.977 182.037 182.351 182.53 181.622 182.53C180.707 182.53 179.965 181.923 179.396 180.71C178.827 179.496 178.543 177.918 178.543 175.977C178.543 174.192 178.783 172.564 179.263 171.094C179.751 169.623 180.4 168.552 181.209 167.881C181.884 167.325 182.622 167.046 183.422 167.046C183.608 167.046 183.702 167.103 183.702 167.217C183.702 167.317 183.64 167.374 183.515 167.389C182.715 167.503 182.009 167.967 181.396 168.781C180.596 169.837 180.125 171.636 179.982 174.178C180.471 173.435 181.022 173.064 181.636 173.064C182.133 173.064 182.6 173.278 183.035 173.706C183.871 174.52 184.288 175.784 184.288 177.497ZM182.915 177.561C182.915 174.906 182.404 173.578 181.382 173.578C180.92 173.578 180.565 173.899 180.316 174.542C180.067 175.17 179.942 176.055 179.942 177.197C179.942 178.839 180.125 180.167 180.489 181.181C180.72 181.823 181.058 182.144 181.502 182.144C182.444 182.144 182.915 180.617 182.915 177.561Z" fill="black"/>
<path d="M162.186 158.394C162.186 158.48 161.67 159.815 160.639 162.399C160.062 163.855 159.666 164.997 159.453 165.825C159.24 166.639 159.133 167.453 159.133 168.267C159.133 168.681 159.195 169.495 159.32 170.708C159.364 171.136 159.386 171.501 159.386 171.8C159.386 172.814 159.151 173.321 158.68 173.321C158.12 173.321 157.84 172.543 157.84 170.987C157.84 169.545 158.253 167.646 159.08 165.29C159.604 163.805 160.284 162.077 161.119 160.107H159.093C158.044 160.107 157.44 160.114 157.28 160.129C157.084 160.143 156.947 160.193 156.867 160.279C156.796 160.364 156.742 160.486 156.707 160.643C156.68 160.785 156.609 161.285 156.493 162.142C156.458 162.313 156.405 162.399 156.334 162.399C156.245 162.399 156.2 162.313 156.2 162.142C156.2 161.97 156.222 161.692 156.267 161.307C156.365 160.436 156.427 159.693 156.453 159.079C156.471 158.637 156.529 158.33 156.627 158.158C156.689 158.158 156.871 158.173 157.173 158.201C157.849 158.258 158.338 158.287 158.64 158.287L161.399 158.244C161.47 158.244 161.546 158.237 161.626 158.223C161.697 158.223 161.741 158.223 161.759 158.223C162.044 158.223 162.186 158.28 162.186 158.394Z" fill="black"/>
<path d="M148.041 143.51C148.041 144.938 147.672 146.087 146.935 146.958C146.437 147.543 145.819 147.836 145.082 147.836C144.291 147.836 143.624 147.551 143.082 146.979C142.345 146.208 141.976 145.123 141.976 143.724C141.976 141.597 142.691 140.248 144.122 139.677V139.569C143.58 139.327 143.153 138.92 142.842 138.349C142.54 137.763 142.389 137.071 142.389 136.271C142.389 135.158 142.624 134.251 143.095 133.552C143.575 132.838 144.193 132.481 144.948 132.481C145.615 132.481 146.162 132.738 146.588 133.252C147.21 133.994 147.521 134.951 147.521 136.122C147.521 136.964 147.366 137.721 147.055 138.392C146.744 139.048 146.357 139.448 145.895 139.591L145.908 139.677C147.33 140.133 148.041 141.411 148.041 143.51ZM146.202 136.164C146.202 134.894 146.059 133.958 145.775 133.359C145.606 133.002 145.335 132.823 144.962 132.823C144.126 132.823 143.709 133.944 143.709 136.186C143.709 138.37 144.158 139.462 145.055 139.462C145.455 139.462 145.735 139.227 145.895 138.756C146.099 138.142 146.202 137.278 146.202 136.164ZM146.682 143.724C146.682 141.126 146.139 139.826 145.055 139.826C144.513 139.826 144.091 140.162 143.789 140.833C143.487 141.49 143.335 142.404 143.335 143.574C143.335 144.788 143.491 145.744 143.802 146.444C144.122 147.144 144.557 147.493 145.108 147.493C145.579 147.493 145.926 147.279 146.148 146.851C146.504 146.166 146.682 145.123 146.682 143.724Z" fill="black"/>
<path d="M142.425 102.59C142.425 104.648 142.127 106.516 141.53 108.197C140.944 109.862 140.172 111.016 139.214 111.66C138.51 112.131 137.806 112.367 137.102 112.367C136.848 112.367 136.721 112.312 136.721 112.202C136.721 112.107 136.789 112.045 136.926 112.013C138.578 111.668 139.712 110.348 140.328 108.056C140.572 107.129 140.743 105.951 140.841 104.522C140.304 105.339 139.697 105.747 139.023 105.747C138.378 105.747 137.791 105.433 137.263 104.805C136.491 103.894 136.105 102.551 136.105 100.776C136.105 99.2686 136.388 97.9886 136.955 96.9364C137.532 95.8684 138.226 95.3344 139.038 95.3344C140.035 95.3344 140.846 96.0098 141.472 97.3604C142.107 98.711 142.425 100.454 142.425 102.59ZM140.885 101.035C140.885 99.245 140.68 97.8315 140.269 96.795C139.986 96.0883 139.6 95.7349 139.111 95.7349C138.104 95.7349 137.6 97.4311 137.6 100.823C137.6 103.729 138.163 105.182 139.287 105.182C139.785 105.182 140.176 104.82 140.46 104.098C140.743 103.36 140.885 102.339 140.885 101.035Z" fill="black"/>
<path d="M145.655 80.1826C145.655 80.2968 145.557 80.3539 145.362 80.3539H145.202C145.202 80.3539 145.033 80.3539 144.695 80.3539C144.357 80.3397 144.015 80.3325 143.669 80.3325C143.055 80.3325 142.664 80.3397 142.495 80.3539C142.327 80.3682 142.193 80.3753 142.096 80.3753C141.882 80.3753 141.776 80.3111 141.776 80.1826C141.776 80.0541 141.838 79.9899 141.962 79.9899C142.158 79.9899 142.367 79.9827 142.589 79.9684C142.864 79.9542 143.011 79.8471 143.029 79.6472C143.055 79.433 143.069 78.9833 143.069 78.298V68.2325C143.069 67.7756 143.06 67.5043 143.042 67.4187C143.024 67.333 142.962 67.2902 142.855 67.2902C142.811 67.2902 142.522 67.3259 141.989 67.3972C141.882 67.4115 141.811 67.4187 141.776 67.4187C141.669 67.4187 141.616 67.3687 141.616 67.2688C141.616 67.1545 141.669 67.0903 141.776 67.076C142.193 67.0046 142.615 66.8047 143.042 66.4764C143.469 66.1337 143.811 65.7339 144.069 65.2771C144.166 65.1486 144.233 65.0843 144.269 65.0843C144.34 65.0843 144.375 65.1557 144.375 65.2985V65.7054C144.366 65.8196 144.362 65.9481 144.362 66.0909V78.8976C144.362 79.4116 144.375 79.7114 144.402 79.7971C144.437 79.8828 144.548 79.9327 144.735 79.947L145.042 79.9684L145.268 79.9899H145.468C145.593 79.9899 145.655 80.0541 145.655 80.1826Z" fill="black"/>
<path d="M159.973 58.3384C159.973 58.4526 159.875 58.5097 159.679 58.5097H159.519C159.519 58.5097 159.351 58.5097 159.013 58.5097C158.675 58.4954 158.333 58.4883 157.986 58.4883C157.373 58.4883 156.982 58.4954 156.813 58.5097C156.644 58.524 156.511 58.5311 156.413 58.5311C156.2 58.5311 156.093 58.4669 156.093 58.3384C156.093 58.2099 156.156 58.1456 156.28 58.1456C156.475 58.1456 156.684 58.1385 156.907 58.1242C157.182 58.1099 157.329 58.0029 157.346 57.803C157.373 57.5888 157.386 57.1391 157.386 56.4538V46.3883C157.386 45.9314 157.378 45.6601 157.36 45.5744C157.342 45.4888 157.28 45.446 157.173 45.446C157.129 45.446 156.84 45.4816 156.307 45.553C156.2 45.5673 156.129 45.5744 156.093 45.5744C155.987 45.5744 155.933 45.5245 155.933 45.4245C155.933 45.3103 155.987 45.2461 156.093 45.2318C156.511 45.1604 156.933 44.9605 157.36 44.6321C157.786 44.2895 158.129 43.8897 158.386 43.4328C158.484 43.3044 158.551 43.2401 158.586 43.2401C158.657 43.2401 158.693 43.3115 158.693 43.4543V43.8612C158.684 43.9754 158.68 44.1039 158.68 44.2467V57.0534C158.68 57.5674 158.693 57.8672 158.72 57.9529C158.755 58.0386 158.866 58.0885 159.053 58.1028L159.359 58.1242L159.586 58.1456H159.786C159.91 58.1456 159.973 58.2099 159.973 58.3384Z" fill="black"/>
<path d="M185.941 44.8249C185.941 44.8677 185.932 44.9819 185.914 45.1675C185.87 45.6387 185.799 46.8023 185.701 48.6584L185.688 48.9153C184.772 48.844 183.728 48.8083 182.555 48.8083C181.924 48.8083 181.333 48.8225 180.782 48.8511C180.231 48.8797 179.991 48.8939 180.062 48.8939C179.822 48.8939 179.702 48.8225 179.702 48.6798C179.702 48.5655 179.933 48.2086 180.395 47.609C181.506 46.1527 182.297 44.9677 182.768 44.0539C183.586 42.4691 183.995 40.6059 183.995 38.4643C183.995 37.0223 183.808 35.9301 183.435 35.1877C183.15 34.6166 182.75 34.331 182.235 34.331C181.728 34.331 181.328 34.5809 181.035 35.0806C180.804 35.4661 180.689 35.8516 180.689 36.2371C180.689 36.4798 180.809 36.6083 181.049 36.6226C181.671 36.6654 181.982 37.1009 181.982 37.9289C181.982 38.7142 181.724 39.1068 181.208 39.1068C180.88 39.1068 180.617 38.9426 180.422 38.6142C180.226 38.2859 180.129 37.8361 180.129 37.265C180.129 36.2085 180.36 35.359 180.822 34.7165C181.284 34.0741 181.893 33.7528 182.648 33.7528C183.404 33.7528 184.03 34.1383 184.528 34.9093C185.106 35.8088 185.394 36.9795 185.394 38.4215C185.394 40.0063 185.066 41.4697 184.408 42.8118C183.75 44.1396 182.644 45.5887 181.089 47.1592C181.675 47.1307 182.413 47.1164 183.301 47.1164C184.039 47.1164 184.506 47.1021 184.701 47.0736C184.897 47.0307 185.07 46.9379 185.221 46.7952C185.346 46.6667 185.452 46.1884 185.541 45.3603C185.603 44.7892 185.692 44.5036 185.808 44.5036C185.897 44.5036 185.941 44.6107 185.941 44.8249Z" fill="black"/>
<path d="M163.439 58.3384C163.439 58.4526 163.341 58.5097 163.146 58.5097H162.986C162.986 58.5097 162.817 58.5097 162.479 58.5097C162.141 58.4954 161.799 58.4883 161.452 58.4883C160.839 58.4883 160.448 58.4954 160.279 58.5097C160.111 58.524 159.977 58.5311 159.879 58.5311C159.666 58.5311 159.56 58.4669 159.56 58.3384C159.56 58.2099 159.622 58.1456 159.746 58.1456C159.942 58.1456 160.151 58.1385 160.373 58.1242C160.648 58.1099 160.795 58.0029 160.813 57.803C160.839 57.5888 160.853 57.1391 160.853 56.4538V46.3883C160.853 45.9314 160.844 45.6601 160.826 45.5744C160.808 45.4888 160.746 45.446 160.639 45.446C160.595 45.446 160.306 45.4816 159.773 45.553C159.666 45.5673 159.595 45.5744 159.56 45.5744C159.453 45.5744 159.4 45.5245 159.4 45.4245C159.4 45.3103 159.453 45.2461 159.56 45.2318C159.977 45.1604 160.399 44.9605 160.826 44.6321C161.253 44.2895 161.595 43.8897 161.852 43.4328C161.95 43.3044 162.017 43.2401 162.052 43.2401C162.123 43.2401 162.159 43.3115 162.159 43.4543V43.8612C162.15 43.9754 162.146 44.1039 162.146 44.2467V57.0534C162.146 57.5674 162.159 57.8672 162.186 57.9529C162.221 58.0386 162.332 58.0885 162.519 58.1028L162.826 58.1242L163.052 58.1456H163.252C163.377 58.1456 163.439 58.2099 163.439 58.3384Z" fill="black"/>
<path d="M150.921 73.1582C150.921 74.4288 150.801 75.6281 150.561 76.756C150.33 77.8839 150.01 78.7906 149.601 79.4759C149.166 80.2183 148.61 80.5895 147.935 80.5895C147.01 80.5895 146.246 79.8614 145.642 78.4051C145.046 76.9488 144.749 75.0856 144.749 72.8155C144.749 70.1885 145.171 68.1183 146.015 66.6049C146.522 65.6911 147.144 65.2342 147.881 65.2342C148.752 65.2342 149.446 65.8696 149.961 67.1403C150.601 68.7108 150.921 70.7167 150.921 73.1582ZM149.481 72.3872C149.481 70.2599 149.335 68.5037 149.041 67.1188C148.819 66.0623 148.428 65.5341 147.868 65.5341C146.748 65.5341 146.188 67.9255 146.188 72.7084C146.188 77.7198 146.779 80.2254 147.961 80.2254C148.512 80.2254 148.908 79.4973 149.148 78.041C149.37 76.7132 149.481 74.8286 149.481 72.3872Z" fill="black"/>
<path d="M180.729 111.3C179.502 111.3 178.516 109.715 178.516 107.745C178.516 105.775 179.502 104.19 180.729 104.19C181.955 104.19 182.941 105.775 182.941 107.745C182.941 109.715 181.955 111.3 180.729 111.3Z" fill="black"/>
<path d="M180.729 105.389C181.529 105.389 182.196 106.46 182.196 107.745C182.196 109.03 181.529 110.101 180.729 110.101C179.929 110.101 179.263 109.03 179.263 107.745C179.263 106.46 179.929 105.389 180.729 105.389ZM180.729 103.033C179.103 103.033 177.796 105.132 177.796 107.745C177.796 110.358 179.103 112.456 180.729 112.456C182.356 112.456 183.662 110.358 183.662 107.745C183.662 105.132 182.356 103.033 180.729 103.033Z" fill="black"/>
<path d="M167.025 120.594L173.637 119.138L174.89 113.57L171.317 112.328L167.025 120.594Z" fill="black" stroke="#1A1A1A" stroke-width="0.05" stroke-miterlimit="10"/>
<path d="M178.036 110.786L177.076 116.054L173.797 114.598L174.81 109.458L178.036 110.786Z" fill="black" stroke="#1A1A1A" stroke-width="0.05" stroke-miterlimit="10"/>
<path d="M203.658 87.9993C203.658 87.9993 207.764 85.9434 209.764 88.5989C209.764 88.5989 210.084 81.3175 215.709 76.6917C215.709 76.6917 210.377 82.5168 206.298 78.6191C206.298 78.6191 205.685 83.8018 203.258 86.5858L203.685 87.9993H203.658Z" fill="black" stroke="black" stroke-width="0.05" stroke-miterlimit="10"/>
<path d="M200.405 85.9434L195.26 92.5395L197.686 92.7965L196.913 96.6514L202.938 92.5395L204.778 86.5002L200.405 85.9434Z" fill="black" stroke="black" stroke-width="0.05" stroke-miterlimit="10"/>
<path d="M183.555 104.018L194.353 91.383L199.419 91.2974L196.699 98.1505L184.435 106.374C184.355 105.989 183.715 104.275 183.582 104.018H183.555Z" fill="black" stroke="#1A1A1A" stroke-width="0.05" stroke-miterlimit="10"/>
<path d="M205.551 90.612C204.324 88.6846 203.444 86.3716 202.991 83.7161C204.218 85.6435 205.071 87.9564 205.551 90.612Z" fill="#1A1A1A"/>
<path d="M172.624 87.9564L173.77 97.4223L176.943 98.9642L177.476 93.7387L172.624 87.9564Z" fill="black" stroke="#1A1A1A" stroke-width="0.05" stroke-miterlimit="10"/>
<path d="M178.65 103.333L175.664 102.219L176.33 97.4222L179.236 98.6215L178.65 103.333Z" fill="black" stroke="#1A1A1A" stroke-width="0.05" stroke-miterlimit="10"/>
<path d="M182.089 112.842L183.102 119.524L186.168 120.851L186.728 115.712L183.395 111.514C183.262 111.771 182.275 112.713 182.089 112.842Z" fill="black" stroke="#1A1A1A" stroke-width="0.05" stroke-miterlimit="10"/>
<path d="M185.315 121.708C185.315 121.708 185.795 128.476 184.462 131.559C184.462 131.559 190.594 131.302 193.634 138.927C193.634 138.927 190.701 129.247 192.54 123.079C192.54 123.079 188.515 123.421 186.808 120.209L185.342 121.708H185.315Z" fill="black" stroke="#1A1A1A" stroke-width="0.05" stroke-miterlimit="10"/>
<path d="M184.249 122.436C185.128 120.337 186.355 119.095 187.901 118.71C187.021 120.809 185.768 122.051 184.249 122.436Z" fill="#1A1A1A"/>
</g>
<defs>
<linearGradient id="paint0_linear_312_606" x1="203.087" y1="107.337" x2="213.508" y2="170.577" gradientUnits="userSpaceOnUse">
<stop stop-color="#4D607A"/>
<stop offset="0.17" stop-color="#455E7B"/>
<stop offset="0.41" stop-color="#305B7F"/>
<stop offset="0.72" stop-color="#0E5785"/>
<stop offset="0.82" stop-color="#005588"/>
</linearGradient>
<radialGradient id="paint1_radial_312_606" cx="0" cy="0" r="1" gradientUnits="userSpaceOnUse" gradientTransform="translate(213.114 139.77) rotate(29.2585) scale(17.908 17.9008)">
<stop offset="0.45" stop-color="#00FFFF"/>
<stop offset="0.61" stop-color="#00FBFF"/>
<stop offset="0.75" stop-color="#00F0FF"/>
<stop offset="0.89" stop-color="#00DEFF"/>
<stop offset="1" stop-color="#00CAFF"/>
</radialGradient>
<clipPath id="clip0_312_606">
<rect width="405" height="219" fill="white"/>
</clipPath>
</defs>
</svg>
