<svg width="182" height="255" viewBox="0 0 182 255" fill="none" xmlns="http://www.w3.org/2000/svg">
<g clip-path="url(#clip0_164_164)">
<path d="M173.52 9.82996H6.62988V219.37H173.52V9.82996Z" fill="#42210B" stroke="#2B140A" stroke-width="3" stroke-miterlimit="10"/>
<path d="M7.80004 29.79V9.82996L171.91 10.91V29.78C169.9 29.72 167.89 29.66 165.88 29.6C165.81 29.25 165.69 28.78 165.41 28.29C163.58 25.06 157.63 25.12 154.69 25.6C150.62 26.25 147.76 28.42 146.27 29.78H139.08C139.01 29.39 138.85 28.76 138.4 28.17C135.12 23.85 121.71 28.21 118.02 29.4C113.59 30.84 112.3 31.75 108.58 32.2C104.66 32.68 101.34 32.24 99.1 31.78C96.24 32.4 92.36 32.91 87.81 32.57C85.15 32.37 82.8 31.92 80.84 31.41C77.87 31.95 73.42 32.43 68.14 31.71C65.85 31.4 63.57 30.88 61.28 30.14C54.79 28.04 46.38 23.46 41.18 27.12C39.99 27.95 39.27 29.01 38.84 29.79H32.12C32.12 29.29 32.07 28.52 31.65 27.78C28.85 22.82 13.28 24.66 12.26 28.71C12.16 29.11 12.22 29.46 12.26 29.67C10.77 29.71 9.28004 29.75 7.79004 29.79H7.80004Z" fill="#2B140A" stroke="#2B140A" stroke-width="2" stroke-miterlimit="10"/>
<path d="M8.96997 219.46C8.96997 222.5 8.96997 225.87 8.96997 227.22L12.71 227.15C12.83 227.12 13.26 226.99 13.54 226.56C13.96 225.92 13.65 225.2 13.63 225.15C17.48 223.22 20.87 222.69 22.98 222.54C30.02 222.03 35.81 224.73 36.45 226.28C36.49 226.39 36.65 226.82 37.07 227.05C37.74 227.42 38.66 227.03 39.33 226.64C39.76 226.59 40.18 226.54 40.61 226.49C40.78 225.29 41.61 224.32 42.66 224.08C44.02 223.76 45.59 224.71 45.99 226.34C46.37 225.93 46.74 225.52 47.12 225.11C50.95 226.8 56.38 228.71 63.12 229.62C70.62 230.63 76.96 230.03 81.33 229.26C82.04 229.79 83.19 230.53 84.77 231C85.06 231.09 86.46 231.5 88.41 231.46C91.54 231.4 94.05 230.24 95.49 229.41C99.75 230.31 106.26 231.15 114.06 230.08C120.6 229.18 125.83 227.24 129.45 225.57C130.03 225.84 130.61 226.12 131.19 226.39C131.65 225.35 132.62 224.63 133.7 224.54C135.04 224.43 136.35 225.31 136.83 226.69C137.12 226.71 137.41 226.72 137.7 226.74C137.9 227.27 138.42 227.6 138.98 227.56C139.52 227.52 139.98 227.12 140.11 226.59C142.33 224.91 144.36 224.09 145.65 223.67C151.86 221.65 160.18 222.65 162.89 226.16C163.24 226.61 164.24 228.06 165.19 227.87C165.74 227.76 166.08 227.15 166.27 226.69C166.4 226.8 166.72 227.04 167.19 227.1C167.91 227.19 168.43 226.77 168.52 226.69C168.59 224.28 168.66 221.87 168.73 219.46H8.96997Z" fill="#2B140A" stroke="#2B140A" stroke-miterlimit="10"/>
<path d="M99.4301 210.28H138.14V218.17H99.4301C99.1401 217.08 98.86 215.56 98.92 213.73C98.96 212.36 99.1901 211.19 99.4301 210.28Z" fill="#353100"/>
<path d="M30.5899 84.87H27.8799V43.62C28.1699 43.51 28.6399 43.37 29.2299 43.37C29.8299 43.37 30.2999 43.51 30.5899 43.62V84.87Z" fill="#001F1D"/>
<path d="M33.3001 43.14H30.5901V84.39H33.3001V43.14Z" fill="#353100"/>
<path d="M37.4001 43.62H33.3V84.64H37.4001V43.62Z" fill="#001F07"/>
<path d="M37.3899 83.97H43.5199V41.35C42.7999 41.15 41.8399 40.97 40.7099 40.94C39.3399 40.91 38.1999 41.13 37.3899 41.35V83.97Z" fill="#001500"/>
<path d="M56.23 84.38H45.95L44.25 33.68C45.4 33.31 47.12 32.89 49.25 32.89C51.37 32.89 53.09 33.31 54.23 33.68C54.9 50.58 55.56 67.48 56.23 84.38Z" fill="#94680F"/>
<path d="M109.08 84.38H62.12C61.58 82.68 60.97 80.09 61.1 76.9C61.19 74.53 61.66 72.55 62.12 71.1H109.08C109.59 72.93 110.09 75.55 109.97 78.7C109.88 80.95 109.5 82.88 109.08 84.38Z" fill="#420F28"/>
<path d="M110.02 64.5601H64.2399C63.9141 64.5601 63.6499 64.8242 63.6499 65.1501V70.4601C63.6499 70.7859 63.9141 71.0501 64.2399 71.0501H110.02C110.346 71.0501 110.61 70.7859 110.61 70.4601V65.1501C110.61 64.8242 110.346 64.5601 110.02 64.5601Z" fill="#002341"/>
<path d="M123.2 41.47H115.81V84.39H123.2V41.47Z" fill="#073D74"/>
<path d="M127.19 40.0699H123.6V84.3799H127.19V40.0699Z" fill="#5B7100"/>
<path d="M133.58 38.87H127.79V84.38H133.58V38.87Z" fill="#001500"/>
<path d="M140.606 43.9225L133.716 44.2957L135.885 84.337L142.775 83.9638L140.606 43.9225Z" fill="#945A0F"/>
<path d="M150.61 43.86H143.81V84.38H150.61V43.86Z" fill="#3F0003"/>
<path d="M148.35 104.76H141.65V155.25H148.35V104.76Z" fill="#420F28"/>
<path d="M141.65 105.04H137.32V154.97H141.65V105.04Z" fill="#073D74"/>
<path d="M137.404 106.378L134.656 106.258L132.525 154.871L135.273 154.992L137.404 106.378Z" fill="#3F0003"/>
<path d="M130.68 107.84H125.39V154.97H130.68V107.84Z" fill="#353100"/>
<path d="M125.39 154.97H113.91V107.07C115.54 106.74 117.6 106.47 119.98 106.5C122.07 106.52 123.9 106.77 125.39 107.07V154.97Z" fill="#001F1D"/>
<path d="M103.43 133.7H61.3399C61.108 133.7 60.9199 133.888 60.9199 134.12V142.83C60.9199 143.062 61.108 143.25 61.3399 143.25H103.43C103.662 143.25 103.85 143.062 103.85 142.83V134.12C103.85 133.888 103.662 133.7 103.43 133.7Z" fill="#7F5D00"/>
<path d="M100.28 148.82H56.2299C55.9599 148.28 55.4399 147.05 55.5799 145.46C55.6699 144.49 55.9799 143.73 56.2299 143.25H100.28C100.51 143.81 100.82 144.77 100.83 145.99C100.83 147.26 100.52 148.25 100.28 148.82Z" fill="#2B005F"/>
<path d="M40.7699 155.56H29.9199V112.5C31.2799 112.16 33.0599 111.85 35.1699 111.83C37.4399 111.81 39.3499 112.14 40.7699 112.5V155.56Z" fill="#002355"/>
<path d="M45.08 112.5H41.26V155.56H45.08V112.5Z" fill="#30004A"/>
<path d="M45.51 155.56H52.39V112.5C51.66 112.21 50.4 111.8 48.79 111.83C47.35 111.86 46.21 112.21 45.51 112.5V155.56Z" fill="#172A00"/>
<path d="M100.8 148.82H55.45V155.61H100.8V148.82Z" fill="#001F18"/>
<path d="M42.2599 218.03L29.9099 216.09L37.7099 166.41C39.0899 166.15 41.0599 165.94 43.3899 166.22C46.3799 166.58 48.6599 167.6 50.0499 168.35C47.4499 184.91 44.8499 201.47 42.2499 218.03H42.2599Z" fill="#7F5D00"/>
<path d="M57.32 218.03H49.98V170.22C50.59 169.89 51.78 169.33 53.38 169.28C55.29 169.21 56.71 169.88 57.32 170.22V218.03Z" fill="#001F18"/>
<path d="M57.8701 218.17H66.7301V171.58C65.8401 171.19 64.2101 170.62 62.1001 170.66C60.2101 170.69 58.7401 171.21 57.8701 171.58V218.17Z" fill="#172A00"/>
<path d="M73.76 176.07H66.73V218.17H73.76V176.07Z" fill="#073D74"/>
<path d="M78.8977 175.124L74.062 175.497L77.3341 218.021L82.1698 217.649L78.8977 175.124Z" fill="#002355"/>
<path d="M82.3899 218.42H88.4099V174.74C87.7999 174.48 86.7299 174.12 85.3599 174.13C84.0299 174.13 82.9999 174.49 82.3999 174.74V218.42H82.3899Z" fill="#2B005F"/>
<path d="M136.72 210.28H95.64C95.19 209.14 94.58 207.18 94.62 204.71C94.66 202.48 95.2 200.7 95.64 199.61H136.72V210.29V210.28Z" fill="#420F28"/>
<path d="M171.91 84.38H8.26001V88.03H171.91V84.38Z" fill="#2B140A" stroke="#2B140A" stroke-miterlimit="10"/>
<path d="M171.91 155.61H8.02002V160.37H171.91V155.61Z" fill="#2B140A" stroke="#2B140A" stroke-miterlimit="10"/>
<path d="M3.68994 6.02998L4.28994 0.22998L7.79994 2.72998V6.02998H3.68994Z" fill="#42210B" stroke="#2B140A" stroke-width="0.25" stroke-miterlimit="10"/>
<path d="M173.52 4.42998L7.80005 2.72998V6.02998L173.52 7.70998V4.42998Z" fill="#2B140A" stroke="#2B140A" stroke-width="0.25" stroke-miterlimit="10"/>
<path d="M173.52 4.42998L177.76 2.72998L178.29 7.70998H173.52V4.42998Z" fill="#42210B" stroke="#2B140A" stroke-width="0.25" stroke-miterlimit="10"/>
<path d="M6.24998 218.11C7.20998 218.01 7.85998 218.26 8.20998 218.44C9.80998 219.27 10.65 221.52 10.2 224.06C9.51998 225.39 9.15998 226.51 8.97998 227.19C7.57998 232.4 9.58998 235.83 9.03998 241.96C8.88998 243.63 8.58998 245.09 8.58998 245.09C8.21998 246.91 7.83998 247.76 7.36998 249.44C7.06998 250.51 6.68998 252.09 6.40998 254.08H2.09998V250.56C1.93998 250.35 0.949984 249 1.29998 247.2C1.69998 245.13 3.50998 244.25 3.69998 244.16C3.81998 242.3 3.85998 239.29 3.21998 235.69C2.23998 230.22 0.0699843 228.2 0.599984 224.3C1.53998 217.37 6.48998 217.95 6.24998 218.1V218.11Z" fill="#2B140A" stroke="black" stroke-width="0.25" stroke-miterlimit="10"/>
<path d="M171.08 218.11C170.12 218.01 169.47 218.26 169.12 218.44C167.52 219.27 166.68 221.52 167.13 224.06C167.81 225.39 168.17 226.51 168.35 227.19C169.75 232.4 167.74 235.83 168.29 241.96C168.44 243.63 168.74 245.09 168.74 245.09C169.11 246.91 169.49 247.76 169.96 249.44C170.26 250.51 170.64 252.09 170.92 254.08H175.24V250.56C175.4 250.35 176.39 249 176.04 247.2C175.64 245.13 173.83 244.25 173.64 244.16C173.52 242.3 173.48 239.29 174.12 235.69C175.1 230.22 177.27 228.2 176.74 224.3C175.8 217.37 170.85 217.95 171.09 218.1L171.08 218.11Z" fill="#2B140A" stroke="black" stroke-width="0.25" stroke-miterlimit="10"/>
<path d="M1.59001 6L0.51001 9.35L181.08 11.28L179.03 7.19L1.59001 6Z" fill="#2B140A" stroke="#2B140A" stroke-width="0.75" stroke-miterlimit="10"/>
<path opacity="0.46" d="M1.59001 6L0.51001 9.35L181.08 11.28L179.03 7.19L1.59001 6Z" fill="#2B140A" stroke="#2B140A" stroke-width="0.75" stroke-miterlimit="10"/>
<path d="M2.71991 9.29997V17.6C2.71991 19.02 2.84991 20.44 3.11991 21.84C3.11991 21.84 3.11991 21.84 3.11991 21.85L3.02991 30.68C3.02991 30.68 3.01991 30.73 2.98991 30.74C2.70991 30.83 2.15991 31.22 2.15991 31.83C2.15991 32.45 2.53991 33.01 3.09991 33.27C3.10991 33.27 3.11991 33.27 3.12991 33.27H5.25991C5.25991 33.27 5.31991 33.25 5.32991 33.21C5.62991 31.33 5.91991 29.46 6.21991 27.58C6.51991 25.7 6.98991 24 7.59991 22.26C8.27991 20.31 8.88991 17.95 9.16991 15.24C9.36991 13.29 9.36991 11.51 9.25991 9.97997C9.25991 9.93997 9.29991 9.66997 9.10991 9.44997C8.98991 9.30997 8.80991 9.21997 8.60991 9.21997H2.78991C2.78991 9.21997 2.71991 9.24997 2.71991 9.28997V9.29997Z" fill="#2B140A"/>
<path d="M177.73 10.67V18.97C177.73 20.39 177.6 21.81 177.33 23.21C177.33 23.21 177.33 23.21 177.33 23.22L177.42 32.05C177.42 32.05 177.43 32.1 177.46 32.11C177.74 32.2 178.29 32.59 178.29 33.2C178.29 33.82 177.91 34.38 177.35 34.64C177.34 34.64 177.33 34.64 177.32 34.64H175.19C175.19 34.64 175.13 34.62 175.12 34.58C174.82 32.7 174.53 30.83 174.23 28.95C173.93 27.07 173.46 25.37 172.85 23.63C172.17 21.68 171.56 19.32 171.28 16.61C171.08 14.66 171.08 12.88 171.19 11.35C171.19 11.31 171.15 11.04 171.34 10.82C171.46 10.68 171.64 10.59 171.84 10.59H177.66C177.66 10.59 177.73 10.62 177.73 10.66V10.67Z" fill="#2B140A"/>
<path d="M44.94 46.6L41.71 43.62L42.18 64.12L45.38 65.43L44.94 46.6Z" fill="#B1B1B1"/>
<path d="M43 46.9301L43.36 62.8001L45.34 63.6001L44.96 48.4701L43 46.9301Z" fill="#1A1A1A"/>
</g>
<defs>
<clipPath id="clip0_164_164">
<rect width="181.69" height="254.21" fill="white"/>
</clipPath>
</defs>
</svg>
