<svg width="190" height="96" viewBox="0 0 190 96" fill="none" xmlns="http://www.w3.org/2000/svg">
<g clip-path="url(#clip0_20_112)">
<path d="M51.42 35.38L55.47 31.38H134.39L137.43 35.38V8.38H51.42V35.38Z" fill="#603813" stroke="black" stroke-width="0.25" stroke-miterlimit="10"/>
<path d="M177.2 7.38H137.2V36.38H177.2V7.38Z" fill="#603813" stroke="black" stroke-width="0.25" stroke-miterlimit="10"/>
<path d="M52.38 7.38H12.38V36.38H52.38V7.38Z" fill="#603813" stroke="black" stroke-width="0.25" stroke-miterlimit="10"/>
<path d="M177.38 7.38H12.38V8.38H177.38V7.38Z" fill="#42210B"/>
<path d="M12.38 6.38H4.38V95.38H12.38V6.38Z" fill="#603813" stroke="black" stroke-width="0.75" stroke-miterlimit="10"/>
<path d="M185.38 6.38H177.38V95.38H185.38V6.38Z" fill="#603813" stroke="black" stroke-width="0.75" stroke-miterlimit="10"/>
<path d="M185.38 7.38H177.38L185.38 11.35V7.38Z" fill="#42210B"/>
<path d="M4.38 7.38H12.38L4.38 11.35V7.38Z" fill="#42210B"/>
<path d="M26.38 22.88C26.38 22.88 32.38 24.88 39.38 22.88H26.38Z" fill="#42210B"/>
<path d="M40.88 22.28L39.11 20.46C39.06 20.4 38.98 20.37 38.9 20.37H27.24C27.16 20.37 27.09 20.4 27.03 20.46L25.18 22.36C24.99 22.55 25.13 22.87 25.39 22.87L40.67 22.79C40.93 22.79 41.06 22.47 40.88 22.28Z" fill="#744417"/>
<path d="M150.55 22.88C150.55 22.88 156.55 24.88 163.55 22.88H150.55Z" fill="#42210B"/>
<path d="M165.05 22.28L163.28 20.46C163.23 20.4 163.15 20.37 163.07 20.37H151.41C151.33 20.37 151.26 20.4 151.2 20.46L149.35 22.36C149.16 22.55 149.3 22.87 149.56 22.87L164.84 22.79C165.1 22.79 165.23 22.47 165.05 22.28Z" fill="#744417"/>
<path d="M107.26 22.41L104.37 19.52C104.28 19.43 104.16 19.38 104.03 19.38H84.95C84.82 19.38 84.7 19.43 84.61 19.52L81.59 22.54C81.29 22.84 81.5 23.36 81.93 23.36L106.92 23.23C107.35 23.23 107.56 22.71 107.26 22.41Z" fill="#744417"/>
<path d="M83.54 23.36C83.54 23.36 93.87 25.65 105.44 23.36H83.54Z" fill="#42210B"/>
<path d="M189.38 0.380005H0.380005V7.38H189.38V0.380005Z" fill="#603813" stroke="black" stroke-width="0.75" stroke-miterlimit="10"/>
</g>
<defs>
<clipPath id="clip0_20_112">
<rect width="189.75" height="95.75" fill="white"/>
</clipPath>
</defs>
</svg>
