<svg width="847" height="424" viewBox="0 0 847 424" fill="none" xmlns="http://www.w3.org/2000/svg">
<path d="M34.4543 136.993C60.9231 128.203 87.3919 120.491 113.771 111.701L216.954 103.16C208.071 107.306 197.753 111.452 186.089 115.184C181.692 116.594 170.297 120.159 146.251 124.72C140.15 125.881 120.052 129.696 90.4425 133.179C75.6379 134.92 56.706 135.667 34.3646 136.993H34.4543Z" fill="#42210B" stroke="black" stroke-width="0.05" stroke-miterlimit="10"/>
<path d="M827.709 140.559L752.34 115.101H688.815C704.607 122.399 725.872 130.525 751.892 135.915C782.129 142.218 808.418 141.554 827.799 140.559H827.709Z" fill="#42210B" stroke="black" stroke-width="0.05" stroke-miterlimit="10"/>
<path d="M169.938 409.239C169.938 410.151 170.387 417.283 167.516 420.185C163.209 424.58 156.211 423.502 155.313 423.419C111.797 423.751 51.2328 421.678 6.81912 421.927C4.576 421.927 2.51234 420.848 1.52536 418.941C-2.87114 410.483 7.80609 397.795 8.07526 397.463C9.42113 397.546 10.5875 405.59 11.9334 405.673C66.6654 409.653 169.938 409.239 169.938 409.239Z" fill="#603813" stroke="black" stroke-width="0.1" stroke-miterlimit="10"/>
<path d="M182.679 395.722C182.679 396.634 181.513 400.863 177.834 405.093C174.873 408.576 167.426 408.659 166.529 408.576C122.833 408.907 58.2313 406.668 13.8176 406.917C12.382 406.917 10.9464 406.42 10.1389 405.341C3.76847 396.883 14.8943 383.698 15.1635 383.283C16.5094 383.366 15.7916 390.415 17.1374 390.498C71.8694 394.561 127.947 391.659 182.679 395.722Z" fill="#603813" stroke="black" stroke-width="0.1" stroke-miterlimit="10"/>
<path d="M688.367 407.166C688.367 408.078 688.008 415.209 690.61 418.112C694.558 422.507 701.108 421.429 702.005 421.346C742.561 421.678 799.087 419.604 840.45 419.853C842.514 419.853 844.488 418.775 845.385 416.868C849.512 408.41 839.553 395.722 839.284 395.39C838.028 395.473 836.951 403.517 835.695 403.6C784.642 407.58 688.367 407.166 688.367 407.166Z" fill="#603813" stroke="black" stroke-width="0.15" stroke-miterlimit="10"/>
<path d="M676.434 393.649C676.434 394.561 677.51 398.79 680.92 403.019C683.701 406.502 690.61 406.585 691.507 406.502C732.242 406.834 792.537 404.595 833.9 404.844C835.246 404.844 836.592 404.346 837.31 403.268C843.232 394.81 832.285 381.625 832.016 381.21C830.76 381.293 830.67 388.342 829.414 388.425C778.361 392.488 727.397 389.585 676.344 393.649H676.434Z" fill="#603813" stroke="black" stroke-width="0.15" stroke-miterlimit="10"/>
<path d="M34.4542 138.071C34.7234 146.447 35.0823 158.72 35.2617 173.646C35.7104 213.534 35.8898 233.851 31.9419 251.016C28.981 263.953 22.79 282.777 8.25464 304.338C10.8567 331.454 13.997 362.386 16.599 389.751C16.7785 391.327 18.1243 392.571 19.9188 392.654C74.3817 395.639 128.306 392.405 182.769 395.556C183.666 394.063 186.537 390.581 192.19 389.088C198.471 387.429 204.123 386.932 205.918 387.181C352.438 385.273 502.727 387.346 649.247 385.439C651.849 385.107 663.244 384.776 668.179 385.439C671.858 385.937 674.639 389.834 676.523 391.907C729.371 390.581 776.656 389.751 829.504 388.507L843.77 305.333C839.732 300.357 833.721 292.148 829.055 281.118C819.365 258.645 821.787 240.651 825.017 190.895C825.735 180.281 826.812 163.198 827.889 141.637C814.968 141.637 797.382 140.891 776.746 138.071C752.251 134.671 710.798 126.545 659.386 102.164C578.454 63.7697 584.915 36.1554 528.298 15.8385C454.186 -10.7807 383.214 5.72157 371.729 8.54105C281.376 30.6823 262.983 99.262 174.873 119.081C139.163 127.125 96.7231 132.432 96.7231 132.432C71.2413 135.666 49.8868 137.242 34.8131 138.071H34.4542Z" fill="#603813" stroke="black" stroke-width="0.25" stroke-miterlimit="10"/>
<path d="M34.4542 137.988L81.6494 392.571L182.769 395.722C171.105 306.411 158.095 214.612 146.43 125.301C126.153 129.53 103.363 133.262 78.3295 135.584C62.8969 136.993 48.1821 137.74 34.4542 137.988Z" fill="#42210B" stroke="black" stroke-width="0.05" stroke-miterlimit="10"/>
<path d="M724.077 128.618L680.292 390.664L780.424 388.839L827.709 143.296C812.815 143.296 795.588 142.384 776.566 139.73C756.468 136.911 738.882 132.847 724.077 128.535V128.618Z" fill="#42210B" stroke="black" stroke-width="0.05" stroke-miterlimit="10"/>
<path d="M438.933 355.255C527.733 355.255 599.719 288.723 599.719 206.652C599.719 124.58 527.733 58.0483 438.933 58.0483C350.133 58.0483 278.146 124.58 278.146 206.652C278.146 288.723 350.133 355.255 438.933 355.255Z" fill="#391E00" stroke="#2B140A" stroke-width="0.75" stroke-miterlimit="10"/>
<path d="M318.91 302.009C328.337 311.206 368.84 348.8 432.91 351.543C506.844 354.69 554.765 309.189 562.534 301.525C492.179 303.219 389.178 300.315 318.91 302.009Z" fill="#2B140A"/>
<path d="M145.319 365.804C220.99 365.804 282.333 298.805 282.333 216.157C282.333 133.509 220.99 66.5098 145.319 66.5098C69.6475 66.5098 8.30396 133.509 8.30396 216.157C8.30396 298.805 69.6475 365.804 145.319 365.804Z" fill="#E4E4D9" stroke="#2B140A" stroke-width="0.5" stroke-miterlimit="10"/>
<path d="M282.333 193.71L283.164 234.115C283.164 234.115 288.81 238.355 293.212 233.616L291.8 193.793C291.8 192.629 285.904 188.971 282.333 193.793V193.71Z" fill="#666666" stroke="#1A1A1A" stroke-width="0.08" stroke-miterlimit="10"/>
<path d="M287.067 196.869C289.681 196.869 291.8 195.604 291.8 194.042C291.8 192.481 289.681 191.216 287.067 191.216C284.453 191.216 282.333 192.481 282.333 194.042C282.333 195.604 284.453 196.869 287.067 196.869Z" fill="#1A1A1A"/>
<path d="M282.333 206.43C282.333 206.43 287.316 210.504 292.215 206.43" stroke="#1A1A1A" stroke-width="0.05" stroke-miterlimit="10"/>
<path d="M282.832 217.82C282.832 217.82 287.316 221.727 292.464 217.737" stroke="#1A1A1A" stroke-width="0.05" stroke-miterlimit="10"/>
</svg>
