<svg width="775" height="140" viewBox="0 0 775 140" fill="none" xmlns="http://www.w3.org/2000/svg">
<path d="M21.5093 3H752.569C762.514 3 771.078 12.0156 771.078 23.7876V116.212C771.078 127.984 762.514 137 752.569 137H21.5093C11.5639 137 3 127.984 3 116.212V23.7876C3 12.0156 11.5639 3 21.5093 3Z" fill="#2B3C12" fill-opacity="0.76" stroke="#57EB23" stroke-width="6"/>
<path d="M85.0474 1V135M183.94 1V135M283.311 1V135M382.203 1V135M481.574 1V135M580.467 1V135M675.538 1V135" stroke="#57EB23" stroke-width="0.2"/>
<path d="M773.989 35.7852L0.0615717 35.9179M773.995 72.3935L0.0673115 72.5262M774 107.587L0.0728295 107.72" stroke="#57EB23" stroke-width="0.2"/>
<path d="M26.7161 43.7885L29.6065 53.7039C29.6065 53.7039 28.2725 49.557 25.6362 54.3158C23 59.0747 32.4968 71.4689 32.4968 71.4689L35.8 83.0369L40.7549 88.4077L36.7529 90.337L36.2129 94.1917L23 97.91C45.7097 122.698 63.8774 123.525 87 99.3423L72.7707 95.9117L69.6581 90.337L67.4347 92.4811L68.8323 87.1683L74.2 80.9712L77.0903 71.8821C77.0903 71.8821 87.8258 61.1404 84.332 53.4579C83.5201 51.6726 80.3936 54.117 80.3936 54.117L83.4427 42.7376C83.4427 35.8763 79.2265 30.3752 76.328 27.2998C60.5655 10.5756 36.7529 24.2981 36.7529 24.2981C36.7529 24.2981 28.9395 28.7796 26.7161 43.7885Z" stroke="#57EB23" stroke-width="3"/>
<g style="mix-blend-mode:luminosity">
<path d="M45.4686 99.1775L42.374 85.5612L68.3687 84.6328L65.8931 99.1775H45.4686Z" fill="#E7D5BF" stroke="black"/>
<path d="M26.5918 99.1773L38.9702 95.1543L55.3717 102.581L71.1542 96.0827L86.0083 99.1773C76.7245 111.246 52.5865 131.671 26.5918 99.1773Z" fill="#124D1E" stroke="black" stroke-width="0.6"/>
<path d="M52.14 102.835L51.1184 98.749H55.4294H59.7783L59.0124 102.834L55.4368 104.209L52.14 102.835Z" fill="#18341F" stroke="black"/>
<path d="M42.993 89.8936H39.8984L43.9214 92.6787L42.993 89.8936Z" fill="#091B0D" stroke="black" stroke-width="0.6"/>
<path d="M53.2052 99.487L43.3025 92.3694L39.5889 90.2031L38.3511 94.5356L53.2052 104.748V99.487Z" fill="#02310C" stroke="black"/>
<path d="M67.4401 90.5122H70.5347L66.5117 93.2974L67.4401 90.5122Z" fill="#091B0D" stroke="black" stroke-width="0.6"/>
<path d="M57.2284 99.796L67.1311 92.6784L70.8447 90.5122L72.0825 94.8447L57.2284 105.057V99.796Z" fill="#02310C" stroke="black"/>
<path d="M36.7913 80.6578L30.406 53.3932C30.319 53.0197 30.2789 52.6365 30.2872 52.2534C30.58 38.3805 43.1987 27.6407 56.9361 28.6224C69.8987 29.5495 80.382 40.6656 79.7577 53.73C79.7397 54.0913 79.6803 54.4499 79.5781 54.7989C77.2812 62.6509 74.9856 70.503 72.6887 78.355C72.5008 78.9985 72.1707 79.5984 71.7232 80.1138L62.8628 90.3068C61.9084 91.4044 60.4858 92.0411 58.9858 92.0411H52.1571C51.0466 92.0411 49.9679 91.6921 49.0895 91.0499L38.6297 83.4011C37.6973 82.7193 37.0468 81.7486 36.7927 80.6592L36.7913 80.6578Z" fill="#FFE8D4"/>
<path d="M50.4206 48.1538C46.085 48.1102 41.7494 48.0666 37.4138 48.0229L34.168 50.5535L51.3833 49.9958L50.4206 48.1538Z" fill="#460000"/>
<path d="M60.2483 48.1538C64.5839 48.1102 68.9195 48.0666 73.2551 48.0229L76.5009 50.5535L59.2856 49.9958L60.2483 48.1538Z" fill="#460000"/>
<path opacity="0.82" d="M50.7431 56.9041C51.0166 56.6996 51.3936 56.3464 51.3853 55.9169C51.3757 55.4425 50.9019 55.133 50.3356 54.6939C49.7928 54.274 49.0691 53.6618 48.2611 52.811H41.1065L35.3979 55.9169C37.275 56.8509 39.1534 57.7862 41.0305 58.7202C42.3564 58.3057 43.8564 57.9089 45.5166 57.5858C47.4254 57.2136 49.1851 57.0091 50.7431 56.9041Z" fill="white"/>
<path d="M41.1641 52.8096C40.8409 54.9543 42.6019 56.7554 44.4748 56.7581C46.3491 56.7594 48.1156 54.957 47.7924 52.8096H41.1641Z" fill="#42210B"/>
<path opacity="0.82" d="M59.6507 57.1018C59.38 56.9123 59.0001 56.5824 58.9808 56.1515C58.9587 55.677 59.3841 55.3416 59.891 54.8712C60.3744 54.4227 61.0181 53.7709 61.7239 52.8765C63.9738 52.7429 66.2238 52.6107 68.4724 52.4771L74.0608 55.2585C72.3508 56.296 70.6409 57.3336 68.931 58.3698C67.6506 58.0031 66.1644 57.6622 64.4987 57.425C62.6962 57.1686 61.0609 57.0896 59.6479 57.0991L59.6507 57.1018Z" fill="white"/>
<path d="M68.9794 52.4486C69.4421 54.5701 67.8026 56.4721 65.9352 56.5839C64.0651 56.6971 62.1825 55.001 62.3648 52.8386C64.5692 52.7077 66.775 52.5782 68.9794 52.4473V52.4486Z" fill="#42210B"/>
<path opacity="0.35" d="M34.0044 68.7704L49.0457 91.0203L38.3345 83.186C37.5914 82.642 37.072 81.8689 36.869 80.999L34.0044 68.769V68.7704Z" fill="#C59B6D"/>
<path opacity="0.35" d="M76.3699 65.7568L62.457 90.769L72.3989 79.3312L76.3699 65.7568Z" fill="#C59B6D"/>
<path d="M36.7417 82.2556L30.3888 54.876C30.3022 54.5008 30.2623 54.1161 30.2706 53.7313C30.5619 39.7998 43.1166 29.0147 56.7843 30.0006C69.6811 30.9316 80.1112 42.0946 79.4901 55.2142C79.4722 55.577 79.4132 55.9371 79.3115 56.2876C77.0262 64.1727 74.7423 72.0579 72.457 79.9431C72.2701 80.5893 71.9417 81.1918 71.4964 81.7093L62.681 91.9454C61.7314 93.0476 60.316 93.687 58.8236 93.687H52.0296C50.9247 93.687 49.8515 93.3364 48.9775 92.6916L38.5707 85.0104C37.6431 84.3258 36.9959 83.351 36.743 82.257L36.7417 82.2556Z" fill="#FFE8D4"/>
<path d="M58.7952 93.687H52.0501C50.9205 93.687 49.8059 93.322 48.9109 92.6615L38.5791 85.0201C37.6268 84.316 36.9597 83.3082 36.6991 82.1833L30.392 54.9501C30.3033 54.5647 30.2624 54.167 30.2706 53.7707C30.4097 47.1016 33.463 40.6818 38.6487 36.1591C43.6761 31.7752 50.2834 29.5295 56.7842 29.9993C69.9182 30.9486 80.104 42.2793 79.4901 55.2565C79.4724 55.631 79.411 56.0028 79.3073 56.3623L72.5022 79.8899C72.3085 80.5599 71.9756 81.1728 71.5145 81.7094L62.7612 91.892C61.7816 93.0319 60.3355 93.687 58.7952 93.687ZM55.0788 30.2799C49.2301 30.2799 43.4101 32.467 38.8874 36.4124C33.7741 40.8725 30.7631 47.2011 30.6253 53.7775C30.6171 54.1466 30.6553 54.517 30.7385 54.8765L37.0456 82.1084C37.2885 83.1557 37.9092 84.094 38.796 84.749L49.1278 92.3905C49.96 93.006 50.9982 93.3451 52.0501 93.3451H58.7952C60.229 93.3451 61.5742 92.7364 62.4869 91.6755L71.2402 81.4942C71.67 80.9944 71.9797 80.4238 72.1598 79.8L78.9649 56.2711C79.0617 55.9374 79.119 55.5901 79.1354 55.2415C79.7398 42.4468 69.7013 31.2768 56.7583 30.3412C56.2003 30.3003 55.6396 30.2812 55.0816 30.2812L55.0788 30.2799Z" fill="black"/>
<path d="M50.3307 48.1197C45.9951 48.076 41.6595 48.0324 37.3239 47.9888L34.0781 50.5193L51.2934 49.9617L50.3307 48.1197Z" fill="#460000"/>
<path d="M33.5532 50.707L37.2604 47.8179L50.4439 47.9501L51.5807 50.1234L33.5546 50.707H33.5532ZM37.3874 48.1601L34.6029 50.3307L51.0075 49.8003L50.2174 48.2896L37.3861 48.1601H37.3874Z" fill="black"/>
<path d="M60.1575 48.1197C64.4931 48.076 68.8287 48.0324 73.1643 47.9888L76.4101 50.5193L59.1948 49.9617L60.1575 48.1197Z" fill="#460000"/>
<path d="M76.9352 50.707L58.9092 50.1234L60.0459 47.9501L73.2295 47.8179L76.9366 50.707H76.9352ZM59.481 49.8003L75.8855 50.3307L73.101 48.1601L60.2697 48.2896L59.4796 49.8003H59.481Z" fill="black"/>
<path d="M50.6075 56.8173C51.3782 55.8519 50.852 55.6379 49.9487 55.0871C49.1172 54.5458 48.3479 53.9091 47.6932 53.1837L48.1683 53.3841C45.7899 53.1837 43.4087 52.7515 41.0137 53.1551L41.2126 53.1046C39.4585 54.3617 37.6021 55.4934 35.6864 56.5132L35.6615 55.2384C36.5897 55.7279 37.4944 56.2569 38.3825 56.8118C39.2679 57.3749 40.1449 57.9544 40.9709 58.6252L40.9046 58.7465C38.83 58.2011 36.877 57.4104 34.9502 56.5268L33.7251 55.9515C35.9751 54.6085 38.3632 53.4182 40.8162 52.4488L40.9557 52.3916C41.5717 52.4625 42.1877 52.5252 42.8037 52.5524C44.6974 52.697 46.5565 52.2089 48.4349 52.1611L48.6448 52.3697C49.2981 53.0187 49.9376 53.6732 50.6241 54.2976C51.2346 54.8185 52.0757 55.6938 51.3506 56.4791C51.16 56.6905 50.9307 56.8241 50.6973 56.925L50.6075 56.8173Z" fill="black"/>
<path opacity="0.82" d="M50.6518 56.8713C50.9253 56.6668 51.3023 56.3137 51.294 55.8842C51.2844 55.4097 50.8106 55.1002 50.2443 54.6612C49.7015 54.2413 48.9778 53.6291 48.1698 52.7783H41.0151L35.3066 55.8842C37.1837 56.8182 39.0621 57.7535 40.9392 58.6874C42.2651 58.273 43.7651 57.8762 45.4253 57.5531C47.3341 57.1808 49.0938 56.9763 50.6518 56.8713Z" fill="white"/>
<path d="M41.0737 52.7764C40.7505 54.921 42.5115 56.7221 44.3845 56.7249C46.2587 56.7262 48.0253 54.9238 47.7021 52.7764H41.0737Z" fill="#42210B"/>
<path d="M44.3861 56.8957H44.3834C43.4345 56.8957 42.4953 56.4635 41.8102 55.7122C41.0685 54.8996 40.7342 53.8198 40.8958 52.7522L40.9179 52.605H47.8585L47.8806 52.7522C48.0422 53.8212 47.7065 54.901 46.9621 55.7136C46.2742 56.4649 45.3364 56.8957 44.3861 56.8957ZM41.2329 52.9472C41.1362 53.8675 41.4414 54.7865 42.0823 55.4873C42.6997 56.1635 43.5381 56.5521 44.3834 56.5535H44.3861C45.2314 56.5535 46.0712 56.1663 46.69 55.49C47.3322 54.7892 47.6375 53.8689 47.5422 52.9472H41.2342H41.2329Z" fill="black"/>
<path d="M59.5546 57.1232C58.0022 56.5205 58.487 55.3834 59.4552 54.4972C60.0988 53.8332 60.6941 53.1433 61.3046 52.4561L61.5007 52.2353C62.7839 52.1725 64.0767 52.373 65.3612 52.3866C66.5794 52.3961 67.7838 52.2393 68.9813 52.0239C71.1084 52.7179 73.1829 53.5605 75.1871 54.5231L76.4301 55.1489C75.1429 55.8593 73.7658 56.5996 72.4205 57.1954C71.455 57.6249 70.4799 58.038 69.4482 58.3639L69.3736 58.2466C70.9371 56.8423 72.6595 55.6629 74.4509 54.5531L74.5089 55.8265C72.531 54.9212 70.6028 53.9014 68.77 52.7506L68.9716 52.7888C66.5545 52.5284 64.2065 53.0983 61.846 53.4392L62.3074 53.2101C61.7024 53.9736 60.9759 54.654 60.1817 55.243C59.3198 55.8429 58.8019 56.0924 59.6375 57.0086L59.556 57.1204L59.5546 57.1232Z" fill="black"/>
<path opacity="0.82" d="M59.5594 57.0691C59.2887 56.8796 58.9088 56.5496 58.8895 56.1188C58.8674 55.6443 59.2928 55.3089 59.7997 54.8385C60.2831 54.39 60.9268 53.7382 61.6326 52.8438C63.8825 52.7102 66.1325 52.578 68.3811 52.4443L73.9695 55.2257C72.2595 56.2633 70.5496 57.3009 68.8397 58.3371C67.5593 57.9703 66.0731 57.6295 64.4074 57.3922C62.6049 57.1359 60.9696 57.0568 59.5566 57.0664L59.5594 57.0691Z" fill="white"/>
<path d="M68.8866 52.4159C69.3493 54.5374 67.7098 56.4394 65.8424 56.5512C63.9723 56.6644 62.0897 54.9683 62.272 52.8059C64.4764 52.675 66.6822 52.5454 68.8866 52.4146V52.4159Z" fill="#42210B"/>
<path d="M65.664 56.728C64.7773 56.728 63.8892 56.3585 63.2027 55.6958C62.4058 54.9282 62.0011 53.8702 62.0922 52.7931L62.1047 52.6458L69.0314 52.2368L69.0632 52.3813C69.2938 53.4366 69.0314 54.5342 68.3436 55.3891C67.7082 56.1799 66.8008 56.6652 65.8533 56.7225C65.7897 56.7266 65.7262 56.728 65.664 56.728ZM62.4431 52.9676C62.4072 53.8934 62.7732 54.7933 63.461 55.4559C64.124 56.0953 64.99 56.4321 65.8325 56.3817C66.6764 56.3312 67.4872 55.8935 68.059 55.1818C68.6516 54.4442 68.896 53.5089 68.74 52.5954L62.4431 52.9676Z" fill="black"/>
<path d="M53.3514 54.392C53.8059 55.9722 53.8501 57.6247 53.6774 59.2444C53.6263 61.9386 53.2617 64.7309 51.9716 67.1633L51.9385 67.151C52.7161 64.0206 53.8197 60.8683 53.4827 57.6247L53.3169 54.3961L53.3528 54.3906L53.3514 54.392Z" fill="black"/>
<path d="M54.2747 72.5535C53.6504 72.5535 53.1144 72.2113 52.9225 72.0885C51.9584 71.4709 51.5205 70.631 51.5026 70.5956C50.9625 69.6834 50.2982 69.1558 49.765 68.7318C49.1849 68.2709 48.7264 67.9055 48.8065 67.292C48.87 66.8066 49.2678 66.3553 49.9874 65.9545L50.1697 66.249C49.5523 66.5939 49.2126 66.9593 49.1642 67.3342C49.1103 67.7433 49.4128 68.0051 49.9971 68.4686C50.5523 68.9104 51.2443 69.4598 51.823 70.4361C51.8313 70.4524 52.2443 71.2391 53.1241 71.8036C53.3327 71.9372 53.8879 72.2944 54.4832 72.1935C55.1061 72.0885 55.9003 71.2105 56.4818 70.5697C56.7346 70.2902 56.9542 70.0488 57.142 69.8811C57.8478 69.2499 58.4652 68.9145 58.9624 68.6431C59.7207 68.2314 60.0343 68.0596 59.8616 67.2906C59.7511 66.7943 59.1517 66.3526 58.0812 65.9776L58.2056 65.6572C59.4169 66.0813 60.0729 66.5925 60.2138 67.2197C60.4403 68.2341 59.9238 68.515 59.142 68.9404C58.6627 69.2008 58.0647 69.5267 57.3906 70.1293C57.2166 70.2847 56.9929 70.5315 56.7567 70.7919C56.1061 71.5091 55.2967 72.4035 54.5481 72.5289C54.457 72.5439 54.3658 72.5507 54.2774 72.5507L54.2747 72.5535Z" fill="black"/>
<path opacity="0.35" d="M33.9175 70.1693L48.9588 92.4192L38.2475 84.5849C37.5045 84.0409 36.9851 83.2678 36.7821 82.398L33.9175 70.168V70.1693Z" fill="#C59B6D"/>
<path opacity="0.35" d="M75.7962 67.6924L61.8848 92.7046L71.8266 81.2667L75.7962 67.6924Z" fill="#C59B6D"/>
<path d="M55.0102 57.9497C55.2049 59.1182 55.2422 60.2689 55.3279 61.4387C55.6966 63.3571 56.5046 65.1432 57.0557 67.0275L57.0226 67.0411C55.8707 65.3722 55.4826 63.398 55.2118 61.4551C54.9453 60.3371 54.7008 59.0323 55.0102 57.9497Z" fill="black"/>
<path d="M30.8586 55.3775C29.3296 53.0283 26.7329 53.5028 26.5589 53.7591C26.3918 54.0059 26.3089 54.2936 26.2992 54.5867C26.2357 56.4914 26.3766 58.9279 27.1128 61.6493C28.6749 67.418 32.6804 69.9594 34.6141 71.8532C33.661 66.3259 32.0022 60.7058 30.8586 55.3789V55.3775Z" fill="#FFE5D1"/>
<path d="M30.7663 55.3433C29.2373 52.9941 26.6407 53.4686 26.4666 53.7249C26.2995 53.9717 26.2166 54.2594 26.207 54.5525C26.1434 56.4572 26.2843 58.8937 27.0205 61.6151C28.5826 67.3838 32.5881 69.9252 34.5218 71.8191C33.5688 66.2917 31.9099 60.6716 30.7663 55.3447V55.3433Z" fill="#FFE5D1"/>
<path d="M34.7927 72.3296L34.3922 71.9383C34.051 71.6042 33.6366 71.2415 33.196 70.8584C31.0635 68.9973 28.1436 66.4504 26.8467 61.658C26.2224 59.3497 25.9461 56.9582 26.0276 54.5476C26.0387 54.2109 26.1381 53.8946 26.3163 53.6328C26.453 53.431 27.0152 53.3287 27.5165 53.3342C28.1685 53.3396 29.8038 53.5387 30.9212 55.2525L30.9447 55.3084C31.395 57.404 31.935 59.5924 32.4599 61.7098C33.2775 65.0161 34.1228 68.4329 34.7016 71.791L34.7941 72.3296H34.7927ZM27.4806 53.6764C27.0041 53.6764 26.6712 53.7746 26.6077 53.8291C26.4751 54.0268 26.395 54.2831 26.3867 54.5586C26.3066 56.9364 26.5787 59.2965 27.1947 61.5734C28.4654 66.2664 31.3397 68.7751 33.4391 70.6062C33.7237 70.8543 33.9985 71.0943 34.2513 71.3247C33.6781 68.1465 32.8797 64.9179 32.1063 61.7888C31.5842 59.6796 31.0455 57.4995 30.5952 55.408C29.79 54.1891 28.721 53.8114 27.9641 53.7091C27.7914 53.686 27.6284 53.6764 27.4806 53.6764Z" fill="black"/>
<path d="M32.4389 68.0483C29.1406 65.0078 28.095 62.5005 27.4555 60.2454C26.979 58.5629 26.4293 55.1434 27.3174 54.8652C27.8657 54.6962 28.6447 55.6588 29.8878 57.5035C30.3629 58.2084 30.693 58.8219 30.9126 59.2269C31.3215 59.9849 31.693 60.773 32.0176 61.5692L31.682 61.692C31.3615 60.9066 30.9955 60.1295 30.5922 59.3823C30.3767 58.9814 30.0494 58.3774 29.5839 57.6862C29.1475 57.0386 27.827 55.0698 27.4293 55.1884C27.0715 55.3002 27.0978 57.6685 27.8022 60.1554C28.4279 62.3641 29.4527 64.8197 32.6875 67.8029L32.4361 68.0483H32.4389Z" fill="black"/>
<path d="M28.0222 59.1233C27.8385 58.4498 27.8109 57.768 27.9407 57.1C28.0278 56.65 28.1714 56.0651 28.3164 55.772L28.6438 55.9151C28.5139 56.1796 28.3758 56.7523 28.2957 57.1613C28.1755 57.7803 28.2018 58.4116 28.3717 59.0374L28.0222 59.1233Z" fill="black"/>
<path d="M32.4751 64.7623C32.4571 64.7528 30.7099 63.6429 30.6188 61.8623C30.5801 61.0961 30.8688 60.6693 31.0607 60.3884L31.1201 60.2998L31.4268 60.4798L31.3632 60.5739C31.1864 60.8343 30.9447 61.1901 30.9779 61.8459C31.0594 63.4357 32.6353 64.4569 32.6519 64.4651L32.4737 64.7623H32.4751Z" fill="black"/>
<path opacity="0.35" d="M32.5378 68.1464C30.6055 66.4012 29.5116 64.6464 28.9135 63.4971C28.7118 63.1112 28.0668 61.8309 27.6055 60.0271C27.1898 58.3992 26.6994 55.4651 27.3486 55.2469C27.995 55.0301 29.5544 57.5757 30.1207 58.5001C30.6428 59.3522 30.8638 59.8757 31.0999 60.3911C30.9936 60.5288 30.8886 60.6665 30.7823 60.8042C30.6704 61.1219 30.3776 62.042 30.7823 62.3995C30.9853 63.8938 32.3168 64.7037 32.5364 64.8332V68.1464H32.5378Z" fill="#C59B6D"/>
<path d="M78.4827 56.0396C80.0117 53.6904 82.6084 54.1649 82.7824 54.4212C82.9495 54.668 83.0324 54.9557 83.0421 55.2488C83.1056 57.1535 82.9647 59.59 82.2285 62.3114C80.6664 68.0801 76.6609 70.6215 74.7272 72.5153C75.6803 66.988 77.3391 61.3679 78.4827 56.041V56.0396Z" fill="#FFE5D1"/>
<path d="M78.575 56.0059C80.104 53.6567 82.7007 54.1312 82.8747 54.3875C83.0418 54.6343 83.1247 54.922 83.1344 55.2151C83.1979 57.1198 83.057 59.5563 82.3208 62.2777C80.7587 68.0464 76.7532 70.5878 74.8195 72.4816C75.7726 66.9543 77.4314 61.3342 78.575 56.0073V56.0059Z" fill="#FFE5D1"/>
<path d="M74.5491 72.9917L74.9496 72.6004C75.2908 72.2663 75.7052 71.9036 76.1458 71.5205C78.2783 69.6594 81.1982 67.1125 82.4951 62.3201C83.1194 60.0118 83.3957 57.6203 83.3142 55.2098C83.3031 54.873 83.2037 54.5567 83.0255 54.2949C82.8888 54.0931 82.3266 53.9908 81.8253 53.9963C81.1733 54.0018 79.538 54.2008 78.4206 55.9147L78.3971 55.9706C77.9468 58.0662 77.4068 60.2545 76.8819 62.3719C76.0643 65.6782 75.219 69.095 74.6402 72.4531L74.5477 72.9917H74.5491ZM81.8612 54.3385C82.3377 54.3385 82.6705 54.4367 82.7341 54.4912C82.8667 54.6889 82.9468 54.9453 82.9551 55.2207C83.0352 57.5985 82.7631 59.9586 82.1471 62.2355C80.8764 66.9285 78.0021 69.4372 75.9027 71.2683C75.6181 71.5164 75.3433 71.7564 75.0905 71.9868C75.6637 68.8087 76.462 65.58 77.2355 62.451C77.7576 60.3417 78.2963 58.1616 78.7466 56.0701C79.5518 54.8512 80.6208 54.4735 81.3777 54.3712C81.5504 54.3481 81.7134 54.3385 81.8612 54.3385Z" fill="black"/>
<path d="M76.9024 68.7109C80.2007 65.6704 81.2463 63.1631 81.8858 60.9079C82.3623 59.2255 82.912 55.806 82.0239 55.5278C81.4756 55.3588 80.6966 56.3214 79.4535 58.1661C78.9784 58.871 78.6483 59.4845 78.4287 59.8895C78.0198 60.6475 77.6483 61.4356 77.3237 62.2318L77.6593 62.3546C77.9798 61.5692 78.3458 60.7921 78.7491 60.0449C78.9646 59.644 79.2919 59.04 79.7574 58.3488C80.1938 57.7012 81.5143 55.7324 81.9121 55.851C82.2698 55.9628 82.2435 58.3311 81.5391 60.818C80.9134 63.0267 79.8886 65.4823 76.6538 68.4655L76.9052 68.7109H76.9024Z" fill="black"/>
<path d="M81.3196 59.7854C81.5033 59.1119 81.5309 58.4301 81.4011 57.7621C81.314 57.3121 81.1704 56.7272 81.0254 56.4341L80.698 56.5772C80.8279 56.8417 80.966 57.4144 81.0461 57.8234C81.1663 58.4424 81.14 59.0737 80.9701 59.6995L81.3196 59.7854Z" fill="black"/>
<path d="M76.8667 65.4249C76.8847 65.4154 78.6319 64.3055 78.723 62.5249C78.7617 61.7586 78.473 61.3319 78.2811 61.051L78.2217 60.9624L77.915 61.1424L77.9786 61.2365C78.1554 61.4969 78.3971 61.8527 78.3639 62.5085C78.2824 64.0983 76.7065 65.1195 76.6899 65.1277L76.8681 65.4249H76.8667Z" fill="black"/>
<path opacity="0.35" d="M76.804 68.809C78.7363 67.0638 79.8302 65.309 80.4283 64.1597C80.6299 63.7738 81.275 62.4935 81.7363 60.6897C82.152 59.0618 82.6424 56.1277 81.9932 55.9095C81.3468 55.6927 79.7874 58.2383 79.2211 59.1627C78.699 60.0148 78.478 60.5383 78.2418 61.0537C78.3482 61.1914 78.4532 61.3291 78.5595 61.4668C78.6714 61.7845 78.9642 62.7046 78.5595 63.0621C78.3565 64.5564 77.025 65.3663 76.8054 65.4958V68.809H76.804Z" fill="#C59B6D"/>
<path d="M62.6592 77.7986L60.023 79.5118C59.7954 79.66 59.5248 79.7397 59.2493 79.7397H50.7949C50.2901 79.7397 49.8018 79.5802 49.4026 79.287L47.3801 77.7986H62.6592Z" fill="white"/>
<path d="M46.685 77.5952H63.2871L60.0785 79.6812C59.8129 79.8538 59.5044 79.9434 59.1828 79.9434H50.7283C50.179 79.9434 49.6379 79.7675 49.204 79.4483L46.685 77.5952ZM61.8981 78.0039H47.942L49.468 79.1259C49.8259 79.3897 50.2746 79.5346 50.7283 79.5346H59.1828C59.417 79.5346 59.643 79.4679 59.836 79.3425L61.8997 78.0023L61.8981 78.0039Z" fill="black"/>
<path opacity="0.35" d="M50.9417 80.0708C51.9153 80.2697 53.0457 80.4909 54.0193 80.6897H55.1591C56.2375 80.4909 57.1592 80.2697 58.2368 80.0708H50.9409H50.9417Z" fill="#C5806D"/>
<path d="M28.7578 44.6175L32.4713 60.4947L34.0187 44.6175L39.5889 38.4283C53.7892 38.4283 60.8549 37.2464 73.3202 37.8093L78.8905 45.5459L79.5094 59.2567L83.223 44.6175C83.223 44.6175 83.0714 39.9782 81.9851 37.285C80.2376 32.9525 77.6527 30.4769 77.6527 30.4769C63.0846 12.2887 37.7322 23.2653 32.4713 32.2389C32.4713 32.2389 30.9127 35.0936 29.9957 38.4283C29.3547 40.7591 28.7578 44.6175 28.7578 44.6175Z" fill="#5F3232" stroke="black" stroke-linecap="round"/>
</g>
<path d="M151.38 46.08C151.38 47.52 151.177 48.7833 150.77 49.87C150.37 50.95 149.77 51.7933 148.97 52.4C148.17 53 147.18 53.3 146 53.3C144.827 53.3 143.837 53.0067 143.03 52.42C142.23 51.8267 141.627 50.9933 141.22 49.92C140.82 48.84 140.62 47.5633 140.62 46.09C140.62 44.65 140.82 43.39 141.22 42.31C141.627 41.2233 142.23 40.38 143.03 39.78C143.837 39.1733 144.827 38.87 146 38.87C147.18 38.87 148.17 39.1633 148.97 39.75C149.77 40.3367 150.37 41.17 150.77 42.25C151.177 43.33 151.38 44.6067 151.38 46.08ZM148.56 46.08C148.56 44.3333 148.36 43.04 147.96 42.2C147.567 41.3533 146.913 40.93 146 40.93C145.087 40.93 144.43 41.3533 144.03 42.2C143.637 43.0467 143.44 44.3433 143.44 46.09C143.44 47.8433 143.643 49.14 144.05 49.98C144.457 50.8133 145.107 51.23 146 51.23C146.927 51.23 147.583 50.8067 147.97 49.96C148.363 49.1133 148.56 47.82 148.56 46.08ZM153.452 47.79V45.69H161.892V47.79H153.452ZM174.724 46.08C174.724 47.52 174.521 48.7833 174.114 49.87C173.714 50.95 173.114 51.7933 172.314 52.4C171.514 53 170.524 53.3 169.344 53.3C168.171 53.3 167.181 53.0067 166.374 52.42C165.574 51.8267 164.971 50.9933 164.564 49.92C164.164 48.84 163.964 47.5633 163.964 46.09C163.964 44.65 164.164 43.39 164.564 42.31C164.971 41.2233 165.574 40.38 166.374 39.78C167.181 39.1733 168.171 38.87 169.344 38.87C170.524 38.87 171.514 39.1633 172.314 39.75C173.114 40.3367 173.714 41.17 174.114 42.25C174.521 43.33 174.724 44.6067 174.724 46.08ZM171.904 46.08C171.904 44.3333 171.704 43.04 171.304 42.2C170.911 41.3533 170.258 40.93 169.344 40.93C168.431 40.93 167.774 41.3533 167.374 42.2C166.981 43.0467 166.784 44.3433 166.784 46.09C166.784 47.8433 166.988 49.14 167.394 49.98C167.801 50.8133 168.451 51.23 169.344 51.23C170.271 51.23 170.928 50.8067 171.314 49.96C171.708 49.1133 171.904 47.82 171.904 46.08ZM191.919 42.11C192.479 42.11 192.989 42.2167 193.449 42.43C193.909 42.6433 194.305 42.9567 194.639 43.37L194.779 42.41H197.079V57.36L194.439 57.08V51.96C194.105 52.3867 193.705 52.7167 193.239 52.95C192.772 53.1833 192.235 53.3 191.629 53.3C190.709 53.3 189.962 53.07 189.389 52.61C188.822 52.1433 188.405 51.49 188.139 50.65C187.879 49.81 187.749 48.8233 187.749 47.69C187.749 46.61 187.909 45.65 188.229 44.81C188.549 43.97 189.019 43.31 189.639 42.83C190.265 42.35 191.025 42.11 191.919 42.11ZM192.599 44.08C191.919 44.08 191.399 44.37 191.039 44.95C190.679 45.5233 190.499 46.44 190.499 47.7C190.499 48.5867 190.572 49.2933 190.719 49.82C190.872 50.3467 191.089 50.7233 191.369 50.95C191.655 51.1767 191.999 51.29 192.399 51.29C192.845 51.29 193.235 51.1633 193.569 50.91C193.902 50.6567 194.192 50.3333 194.439 49.94V45.12C194.205 44.7933 193.935 44.54 193.629 44.36C193.329 44.1733 192.985 44.08 192.599 44.08ZM202.611 42.41V49.75C202.611 50.3233 202.724 50.7267 202.951 50.96C203.178 51.1933 203.508 51.31 203.941 51.31C204.354 51.31 204.758 51.1867 205.151 50.94C205.544 50.6867 205.864 50.3667 206.111 49.98V42.41H208.751V53H206.451L206.311 51.7C205.931 52.22 205.444 52.6167 204.851 52.89C204.258 53.1633 203.644 53.3 203.011 53.3C201.991 53.3 201.228 53.0133 200.721 52.44C200.221 51.86 199.971 51.07 199.971 50.07V42.41H202.611ZM213.893 48.51C213.946 49.17 214.096 49.7067 214.343 50.12C214.596 50.5333 214.92 50.8367 215.313 51.03C215.706 51.2233 216.143 51.32 216.623 51.32C217.13 51.32 217.606 51.24 218.053 51.08C218.5 50.92 218.94 50.6967 219.373 50.41L220.473 51.92C219.98 52.3333 219.39 52.6667 218.703 52.92C218.023 53.1733 217.273 53.3 216.453 53.3C215.306 53.3 214.34 53.0633 213.553 52.59C212.773 52.1167 212.183 51.46 211.783 50.62C211.383 49.78 211.183 48.8133 211.183 47.72C211.183 46.6667 211.38 45.7167 211.773 44.87C212.166 44.0233 212.733 43.3533 213.473 42.86C214.213 42.36 215.106 42.11 216.153 42.11C217.126 42.11 217.966 42.3233 218.673 42.75C219.38 43.1767 219.926 43.79 220.313 44.59C220.7 45.3833 220.893 46.34 220.893 47.46C220.893 47.64 220.886 47.8233 220.873 48.01C220.866 48.1967 220.856 48.3633 220.843 48.51H213.893ZM216.163 43.97C215.523 43.97 214.996 44.2 214.583 44.66C214.176 45.1133 213.936 45.8333 213.863 46.82H218.323C218.31 45.9267 218.123 45.23 217.763 44.73C217.41 44.2233 216.876 43.97 216.163 43.97ZM237.238 48.51C237.291 49.17 237.441 49.7067 237.688 50.12C237.941 50.5333 238.264 50.8367 238.658 51.03C239.051 51.2233 239.488 51.32 239.968 51.32C240.474 51.32 240.951 51.24 241.398 51.08C241.844 50.92 242.284 50.6967 242.718 50.41L243.818 51.92C243.324 52.3333 242.734 52.6667 242.048 52.92C241.368 53.1733 240.618 53.3 239.798 53.3C238.651 53.3 237.684 53.0633 236.898 52.59C236.118 52.1167 235.528 51.46 235.128 50.62C234.728 49.78 234.528 48.8133 234.528 47.72C234.528 46.6667 234.724 45.7167 235.118 44.87C235.511 44.0233 236.078 43.3533 236.818 42.86C237.558 42.36 238.451 42.11 239.498 42.11C240.471 42.11 241.311 42.3233 242.018 42.75C242.724 43.1767 243.271 43.79 243.658 44.59C244.044 45.3833 244.238 46.34 244.238 47.46C244.238 47.64 244.231 47.8233 244.218 48.01C244.211 48.1967 244.201 48.3633 244.188 48.51H237.238ZM239.508 43.97C238.868 43.97 238.341 44.2 237.928 44.66C237.521 45.1133 237.281 45.8333 237.208 46.82H241.668C241.654 45.9267 241.468 45.23 241.108 44.73C240.754 44.2233 240.221 43.97 239.508 43.97ZM249.3 42.41V49.75C249.3 50.3233 249.413 50.7267 249.64 50.96C249.866 51.1933 250.196 51.31 250.63 51.31C251.043 51.31 251.446 51.1867 251.84 50.94C252.233 50.6867 252.553 50.3667 252.8 49.98V42.41H255.44V53H253.14L253 51.7C252.62 52.22 252.133 52.6167 251.54 52.89C250.946 53.1633 250.333 53.3 249.7 53.3C248.68 53.3 247.916 53.0133 247.41 52.44C246.91 51.86 246.66 51.07 246.66 50.07V42.41H249.3ZM272.254 48.51C272.307 49.17 272.457 49.7067 272.704 50.12C272.957 50.5333 273.281 50.8367 273.674 51.03C274.067 51.2233 274.504 51.32 274.984 51.32C275.491 51.32 275.967 51.24 276.414 51.08C276.861 50.92 277.301 50.6967 277.734 50.41L278.834 51.92C278.341 52.3333 277.751 52.6667 277.064 52.92C276.384 53.1733 275.634 53.3 274.814 53.3C273.667 53.3 272.701 53.0633 271.914 52.59C271.134 52.1167 270.544 51.46 270.144 50.62C269.744 49.78 269.544 48.8133 269.544 47.72C269.544 46.6667 269.741 45.7167 270.134 44.87C270.527 44.0233 271.094 43.3533 271.834 42.86C272.574 42.36 273.467 42.11 274.514 42.11C275.487 42.11 276.327 42.3233 277.034 42.75C277.741 43.1767 278.287 43.79 278.674 44.59C279.061 45.3833 279.254 46.34 279.254 47.46C279.254 47.64 279.247 47.8233 279.234 48.01C279.227 48.1967 279.217 48.3633 279.204 48.51H272.254ZM274.524 43.97C273.884 43.97 273.357 44.2 272.944 44.66C272.537 45.1133 272.297 45.8333 272.224 46.82H276.684C276.671 45.9267 276.484 45.23 276.124 44.73C275.771 44.2233 275.237 43.97 274.524 43.97ZM285.706 51.35C286.326 51.35 286.823 51.2433 287.196 51.03C287.576 50.81 287.766 50.5033 287.766 50.11C287.766 49.85 287.703 49.63 287.576 49.45C287.456 49.27 287.216 49.1033 286.856 48.95C286.496 48.79 285.956 48.6133 285.236 48.42C284.556 48.2467 283.96 48.0333 283.446 47.78C282.94 47.52 282.543 47.1867 282.256 46.78C281.976 46.3733 281.836 45.86 281.836 45.24C281.836 44.62 282.01 44.0767 282.356 43.61C282.703 43.1367 283.203 42.77 283.856 42.51C284.516 42.2433 285.31 42.11 286.236 42.11C287.143 42.11 287.936 42.23 288.616 42.47C289.296 42.7033 289.88 42.9967 290.366 43.35L289.286 44.96C288.86 44.6867 288.396 44.4667 287.896 44.3C287.403 44.1267 286.87 44.04 286.296 44.04C285.676 44.04 285.223 44.13 284.936 44.31C284.656 44.49 284.516 44.74 284.516 45.06C284.516 45.2867 284.586 45.48 284.726 45.64C284.873 45.7933 285.133 45.9433 285.506 46.09C285.886 46.23 286.426 46.4 287.126 46.6C287.813 46.7867 288.41 47.0067 288.916 47.26C289.43 47.5133 289.826 47.85 290.106 48.27C290.386 48.69 290.526 49.24 290.526 49.92C290.526 50.6867 290.303 51.32 289.856 51.82C289.41 52.32 288.82 52.6933 288.086 52.94C287.36 53.18 286.57 53.3 285.716 53.3C284.716 53.3 283.843 53.1567 283.096 52.87C282.35 52.5833 281.716 52.2133 281.196 51.76L282.566 50.22C282.98 50.5467 283.45 50.8167 283.976 51.03C284.51 51.2433 285.086 51.35 285.706 51.35ZM302.488 52.41C302.095 52.67 301.618 52.8833 301.058 53.05C300.498 53.2167 299.892 53.3 299.238 53.3C297.945 53.3 296.972 52.9667 296.318 52.3C295.665 51.6267 295.338 50.7333 295.338 49.62V44.28H293.038V42.41H295.338V40.08L297.978 39.76V42.41H301.478L301.208 44.28H297.978V49.61C297.978 50.1567 298.112 50.5567 298.378 50.81C298.645 51.0633 299.075 51.19 299.668 51.19C300.048 51.19 300.395 51.1467 300.708 51.06C301.028 50.9667 301.318 50.85 301.578 50.71L302.488 52.41ZM309.421 42.11C310.474 42.11 311.367 42.34 312.101 42.8C312.834 43.26 313.391 43.91 313.771 44.75C314.157 45.5833 314.351 46.56 314.351 47.68C314.351 48.8267 314.157 49.82 313.771 50.66C313.384 51.5 312.824 52.15 312.091 52.61C311.357 53.07 310.464 53.3 309.411 53.3C308.364 53.3 307.471 53.0767 306.731 52.63C305.997 52.1767 305.437 51.5333 305.051 50.7C304.664 49.86 304.471 48.86 304.471 47.7C304.471 46.5933 304.664 45.62 305.051 44.78C305.437 43.94 306.001 43.2867 306.741 42.82C307.481 42.3467 308.374 42.11 309.421 42.11ZM309.421 44.1C308.681 44.1 308.127 44.39 307.761 44.97C307.401 45.55 307.221 46.46 307.221 47.7C307.221 48.9533 307.401 49.87 307.761 50.45C308.121 51.0233 308.671 51.31 309.411 51.31C310.151 51.31 310.701 51.0233 311.061 50.45C311.421 49.87 311.601 48.9467 311.601 47.68C311.601 46.4467 311.421 45.5433 311.061 44.97C310.701 44.39 310.154 44.1 309.421 44.1ZM319.333 42.41V49.75C319.333 50.3233 319.446 50.7267 319.673 50.96C319.899 51.1933 320.229 51.31 320.663 51.31C321.076 51.31 321.479 51.1867 321.873 50.94C322.266 50.6867 322.586 50.3667 322.833 49.98V42.41H325.473V53H323.173L323.033 51.7C322.653 52.22 322.166 52.6167 321.573 52.89C320.979 53.1633 320.366 53.3 319.733 53.3C318.713 53.3 317.949 53.0133 317.443 52.44C316.943 51.86 316.693 51.07 316.693 50.07V42.41H319.333ZM346.607 37.9C347.314 37.9 347.941 37.9567 348.487 38.07C349.034 38.1833 349.531 38.3367 349.977 38.53L349.217 40.31C348.864 40.1633 348.494 40.0567 348.107 39.99C347.721 39.9233 347.334 39.89 346.947 39.89C346.281 39.89 345.794 40.0167 345.487 40.27C345.187 40.5167 345.037 40.9133 345.037 41.46V43.13H348.537L348.247 45.02H345.037V53H342.407V45.02H340.077V43.13H342.407V41.4C342.407 40.7133 342.574 40.11 342.907 39.59C343.241 39.0633 343.721 38.65 344.347 38.35C344.981 38.05 345.734 37.9 346.607 37.9ZM360.159 50.21C360.159 50.6167 360.219 50.9133 360.339 51.1C360.459 51.28 360.653 51.4167 360.919 51.51L360.349 53.28C359.783 53.22 359.299 53.08 358.899 52.86C358.506 52.6333 358.203 52.2967 357.989 51.85C357.589 52.3367 357.083 52.7 356.469 52.94C355.863 53.18 355.226 53.3 354.559 53.3C353.479 53.3 352.623 52.9933 351.989 52.38C351.356 51.7667 351.039 50.97 351.039 49.99C351.039 48.8633 351.479 47.9967 352.359 47.39C353.246 46.7767 354.499 46.47 356.119 46.47H357.599V45.9C357.599 45.2733 357.406 44.82 357.019 44.54C356.633 44.2533 356.076 44.11 355.349 44.11C355.009 44.11 354.583 44.1567 354.069 44.25C353.563 44.3367 353.039 44.4733 352.499 44.66L351.869 42.85C352.543 42.5967 353.219 42.41 353.899 42.29C354.586 42.17 355.209 42.11 355.769 42.11C357.256 42.11 358.359 42.4267 359.079 43.06C359.799 43.6867 360.159 44.5767 360.159 45.73V50.21ZM355.419 51.39C355.819 51.39 356.223 51.2767 356.629 51.05C357.043 50.8233 357.366 50.5067 357.599 50.1V48.04H356.559C355.579 48.04 354.869 48.1967 354.429 48.51C353.996 48.8233 353.779 49.2667 353.779 49.84C353.779 50.3333 353.919 50.7167 354.199 50.99C354.479 51.2567 354.886 51.39 355.419 51.39ZM366.572 50.95H372.082L371.812 53H363.422V51.11L368.892 44.47H363.872V42.41H371.992V44.31L366.572 50.95ZM377.304 48.51C377.357 49.17 377.507 49.7067 377.754 50.12C378.007 50.5333 378.33 50.8367 378.724 51.03C379.117 51.2233 379.554 51.32 380.034 51.32C380.54 51.32 381.017 51.24 381.464 51.08C381.91 50.92 382.35 50.6967 382.784 50.41L383.884 51.92C383.39 52.3333 382.8 52.6667 382.114 52.92C381.434 53.1733 380.684 53.3 379.864 53.3C378.717 53.3 377.75 53.0633 376.964 52.59C376.184 52.1167 375.594 51.46 375.194 50.62C374.794 49.78 374.594 48.8133 374.594 47.72C374.594 46.6667 374.79 45.7167 375.184 44.87C375.577 44.0233 376.144 43.3533 376.884 42.86C377.624 42.36 378.517 42.11 379.564 42.11C380.537 42.11 381.377 42.3233 382.084 42.75C382.79 43.1767 383.337 43.79 383.724 44.59C384.11 45.3833 384.304 46.34 384.304 47.46C384.304 47.64 384.297 47.8233 384.284 48.01C384.277 48.1967 384.267 48.3633 384.254 48.51H377.304ZM379.574 43.97C378.934 43.97 378.407 44.2 377.994 44.66C377.587 45.1133 377.347 45.8333 377.274 46.82H381.734C381.72 45.9267 381.534 45.23 381.174 44.73C380.82 44.2233 380.287 43.97 379.574 43.97ZM386.726 53V42.41H389.026L389.216 43.72C389.669 43.1867 390.179 42.7867 390.746 42.52C391.313 42.2467 391.923 42.11 392.576 42.11C393.529 42.11 394.256 42.3867 394.756 42.94C395.256 43.4867 395.506 44.2567 395.506 45.25V53H392.866V46.28C392.866 45.7467 392.833 45.32 392.766 45C392.699 44.6733 392.573 44.44 392.386 44.3C392.199 44.1533 391.929 44.08 391.576 44.08C391.289 44.08 391.013 44.1433 390.746 44.27C390.486 44.3967 390.239 44.5667 390.006 44.78C389.779 44.9933 389.566 45.23 389.366 45.49V53H386.726ZM404.538 37.9L407.178 38.18V53H404.838L404.678 51.75C404.351 52.2167 403.941 52.5933 403.448 52.88C402.955 53.16 402.381 53.3 401.728 53.3C400.835 53.3 400.095 53.0667 399.508 52.6C398.928 52.1333 398.495 51.48 398.208 50.64C397.928 49.7933 397.788 48.81 397.788 47.69C397.788 46.61 397.955 45.65 398.288 44.81C398.621 43.97 399.101 43.31 399.728 42.83C400.361 42.35 401.111 42.11 401.978 42.11C402.498 42.11 402.971 42.2 403.398 42.38C403.825 42.56 404.205 42.8267 404.538 43.18V37.9ZM402.688 44.08C402.021 44.08 401.495 44.37 401.108 44.95C400.728 45.5233 400.538 46.44 400.538 47.7C400.538 48.5867 400.618 49.2967 400.778 49.83C400.938 50.3567 401.165 50.7367 401.458 50.97C401.751 51.2033 402.098 51.32 402.498 51.32C402.938 51.32 403.325 51.19 403.658 50.93C403.998 50.6633 404.291 50.3333 404.538 49.94V45.12C404.291 44.7933 404.015 44.54 403.708 44.36C403.408 44.1733 403.068 44.08 402.688 44.08ZM414.47 42.11C415.524 42.11 416.417 42.34 417.15 42.8C417.884 43.26 418.44 43.91 418.82 44.75C419.207 45.5833 419.4 46.56 419.4 47.68C419.4 48.8267 419.207 49.82 418.82 50.66C418.434 51.5 417.874 52.15 417.14 52.61C416.407 53.07 415.514 53.3 414.46 53.3C413.414 53.3 412.52 53.0767 411.78 52.63C411.047 52.1767 410.487 51.5333 410.1 50.7C409.714 49.86 409.52 48.86 409.52 47.7C409.52 46.5933 409.714 45.62 410.1 44.78C410.487 43.94 411.05 43.2867 411.79 42.82C412.53 42.3467 413.424 42.11 414.47 42.11ZM414.47 44.1C413.73 44.1 413.177 44.39 412.81 44.97C412.45 45.55 412.27 46.46 412.27 47.7C412.27 48.9533 412.45 49.87 412.81 50.45C413.17 51.0233 413.72 51.31 414.46 51.31C415.2 51.31 415.75 51.0233 416.11 50.45C416.47 49.87 416.65 48.9467 416.65 47.68C416.65 46.4467 416.47 45.5433 416.11 44.97C415.75 44.39 415.204 44.1 414.47 44.1ZM433.415 53V42.41H435.715L435.905 43.72C436.358 43.1867 436.868 42.7867 437.435 42.52C438.001 42.2467 438.611 42.11 439.265 42.11C440.218 42.11 440.945 42.3867 441.445 42.94C441.945 43.4867 442.195 44.2567 442.195 45.25V53H439.555V46.28C439.555 45.7467 439.521 45.32 439.455 45C439.388 44.6733 439.261 44.44 439.075 44.3C438.888 44.1533 438.618 44.08 438.265 44.08C437.978 44.08 437.701 44.1433 437.435 44.27C437.175 44.3967 436.928 44.5667 436.695 44.78C436.468 44.9933 436.255 45.23 436.055 45.49V53H433.415ZM447.337 48.51C447.39 49.17 447.54 49.7067 447.787 50.12C448.04 50.5333 448.364 50.8367 448.757 51.03C449.15 51.2233 449.587 51.32 450.067 51.32C450.574 51.32 451.05 51.24 451.497 51.08C451.944 50.92 452.384 50.6967 452.817 50.41L453.917 51.92C453.424 52.3333 452.834 52.6667 452.147 52.92C451.467 53.1733 450.717 53.3 449.897 53.3C448.75 53.3 447.784 53.0633 446.997 52.59C446.217 52.1167 445.627 51.46 445.227 50.62C444.827 49.78 444.627 48.8133 444.627 47.72C444.627 46.6667 444.824 45.7167 445.217 44.87C445.61 44.0233 446.177 43.3533 446.917 42.86C447.657 42.36 448.55 42.11 449.597 42.11C450.57 42.11 451.41 42.3233 452.117 42.75C452.824 43.1767 453.37 43.79 453.757 44.59C454.144 45.3833 454.337 46.34 454.337 47.46C454.337 47.64 454.33 47.8233 454.317 48.01C454.31 48.1967 454.3 48.3633 454.287 48.51H447.337ZM449.607 43.97C448.967 43.97 448.44 44.2 448.027 44.66C447.62 45.1133 447.38 45.8333 447.307 46.82H451.767C451.754 45.9267 451.567 45.23 451.207 44.73C450.854 44.2233 450.32 43.97 449.607 43.97ZM460.789 51.35C461.409 51.35 461.906 51.2433 462.279 51.03C462.659 50.81 462.849 50.5033 462.849 50.11C462.849 49.85 462.786 49.63 462.659 49.45C462.539 49.27 462.299 49.1033 461.939 48.95C461.579 48.79 461.039 48.6133 460.319 48.42C459.639 48.2467 459.042 48.0333 458.529 47.78C458.022 47.52 457.626 47.1867 457.339 46.78C457.059 46.3733 456.919 45.86 456.919 45.24C456.919 44.62 457.092 44.0767 457.439 43.61C457.786 43.1367 458.286 42.77 458.939 42.51C459.599 42.2433 460.392 42.11 461.319 42.11C462.226 42.11 463.019 42.23 463.699 42.47C464.379 42.7033 464.962 42.9967 465.449 43.35L464.369 44.96C463.942 44.6867 463.479 44.4667 462.979 44.3C462.486 44.1267 461.952 44.04 461.379 44.04C460.759 44.04 460.306 44.13 460.019 44.31C459.739 44.49 459.599 44.74 459.599 45.06C459.599 45.2867 459.669 45.48 459.809 45.64C459.956 45.7933 460.216 45.9433 460.589 46.09C460.969 46.23 461.509 46.4 462.209 46.6C462.896 46.7867 463.492 47.0067 463.999 47.26C464.512 47.5133 464.909 47.85 465.189 48.27C465.469 48.69 465.609 49.24 465.609 49.92C465.609 50.6867 465.386 51.32 464.939 51.82C464.492 52.32 463.902 52.6933 463.169 52.94C462.442 53.18 461.652 53.3 460.799 53.3C459.799 53.3 458.926 53.1567 458.179 52.87C457.432 52.5833 456.799 52.2133 456.279 51.76L457.649 50.22C458.062 50.5467 458.532 50.8167 459.059 51.03C459.592 51.2433 460.169 51.35 460.789 51.35ZM472.461 51.35C473.081 51.35 473.578 51.2433 473.951 51.03C474.331 50.81 474.521 50.5033 474.521 50.11C474.521 49.85 474.458 49.63 474.331 49.45C474.211 49.27 473.971 49.1033 473.611 48.95C473.251 48.79 472.711 48.6133 471.991 48.42C471.311 48.2467 470.715 48.0333 470.201 47.78C469.695 47.52 469.298 47.1867 469.011 46.78C468.731 46.3733 468.591 45.86 468.591 45.24C468.591 44.62 468.765 44.0767 469.111 43.61C469.458 43.1367 469.958 42.77 470.611 42.51C471.271 42.2433 472.065 42.11 472.991 42.11C473.898 42.11 474.691 42.23 475.371 42.47C476.051 42.7033 476.635 42.9967 477.121 43.35L476.041 44.96C475.615 44.6867 475.151 44.4667 474.651 44.3C474.158 44.1267 473.625 44.04 473.051 44.04C472.431 44.04 471.978 44.13 471.691 44.31C471.411 44.49 471.271 44.74 471.271 45.06C471.271 45.2867 471.341 45.48 471.481 45.64C471.628 45.7933 471.888 45.9433 472.261 46.09C472.641 46.23 473.181 46.4 473.881 46.6C474.568 46.7867 475.165 47.0067 475.671 47.26C476.185 47.5133 476.581 47.85 476.861 48.27C477.141 48.69 477.281 49.24 477.281 49.92C477.281 50.6867 477.058 51.32 476.611 51.82C476.165 52.32 475.575 52.6933 474.841 52.94C474.115 53.18 473.325 53.3 472.471 53.3C471.471 53.3 470.598 53.1567 469.851 52.87C469.105 52.5833 468.471 52.2133 467.951 51.76L469.321 50.22C469.735 50.5467 470.205 50.8167 470.731 51.03C471.265 51.2433 471.841 51.35 472.461 51.35ZM482.353 48.51C482.407 49.17 482.557 49.7067 482.803 50.12C483.057 50.5333 483.38 50.8367 483.773 51.03C484.167 51.2233 484.603 51.32 485.083 51.32C485.59 51.32 486.067 51.24 486.513 51.08C486.96 50.92 487.4 50.6967 487.833 50.41L488.933 51.92C488.44 52.3333 487.85 52.6667 487.163 52.92C486.483 53.1733 485.733 53.3 484.913 53.3C483.767 53.3 482.8 53.0633 482.013 52.59C481.233 52.1167 480.643 51.46 480.243 50.62C479.843 49.78 479.643 48.8133 479.643 47.72C479.643 46.6667 479.84 45.7167 480.233 44.87C480.627 44.0233 481.193 43.3533 481.933 42.86C482.673 42.36 483.567 42.11 484.613 42.11C485.587 42.11 486.427 42.3233 487.133 42.75C487.84 43.1767 488.387 43.79 488.773 44.59C489.16 45.3833 489.353 46.34 489.353 47.46C489.353 47.64 489.347 47.8233 489.333 48.01C489.327 48.1967 489.317 48.3633 489.303 48.51H482.353ZM484.623 43.97C483.983 43.97 483.457 44.2 483.043 44.66C482.637 45.1133 482.397 45.8333 482.323 46.82H486.783C486.77 45.9267 486.583 45.23 486.223 44.73C485.87 44.2233 485.337 43.97 484.623 43.97ZM508.778 51.18C509.244 51.18 509.681 51.0933 510.088 50.92C510.501 50.7467 510.898 50.5267 511.278 50.26L512.478 51.95C512.011 52.3433 511.448 52.6667 510.788 52.92C510.128 53.1733 509.421 53.3 508.668 53.3C507.561 53.3 506.611 53.07 505.818 52.61C505.031 52.1433 504.424 51.4967 503.998 50.67C503.578 49.8367 503.368 48.87 503.368 47.77C503.368 46.6833 503.581 45.7133 504.008 44.86C504.441 44 505.054 43.3267 505.848 42.84C506.648 42.3533 507.601 42.11 508.708 42.11C509.468 42.11 510.154 42.22 510.768 42.44C511.388 42.6533 511.954 42.9733 512.468 43.4L511.298 45.02C510.904 44.7467 510.498 44.54 510.078 44.4C509.664 44.2533 509.234 44.18 508.788 44.18C508.008 44.18 507.371 44.4633 506.878 45.03C506.391 45.59 506.148 46.5033 506.148 47.77C506.148 48.6033 506.261 49.27 506.488 49.77C506.721 50.27 507.034 50.63 507.428 50.85C507.828 51.07 508.278 51.18 508.778 51.18ZM523.57 50.21C523.57 50.6167 523.63 50.9133 523.75 51.1C523.87 51.28 524.063 51.4167 524.33 51.51L523.76 53.28C523.193 53.22 522.71 53.08 522.31 52.86C521.917 52.6333 521.613 52.2967 521.4 51.85C521 52.3367 520.493 52.7 519.88 52.94C519.273 53.18 518.637 53.3 517.97 53.3C516.89 53.3 516.033 52.9933 515.4 52.38C514.767 51.7667 514.45 50.97 514.45 49.99C514.45 48.8633 514.89 47.9967 515.77 47.39C516.657 46.7767 517.91 46.47 519.53 46.47H521.01V45.9C521.01 45.2733 520.817 44.82 520.43 44.54C520.043 44.2533 519.487 44.11 518.76 44.11C518.42 44.11 517.993 44.1567 517.48 44.25C516.973 44.3367 516.45 44.4733 515.91 44.66L515.28 42.85C515.953 42.5967 516.63 42.41 517.31 42.29C517.997 42.17 518.62 42.11 519.18 42.11C520.667 42.11 521.77 42.4267 522.49 43.06C523.21 43.6867 523.57 44.5767 523.57 45.73V50.21ZM518.83 51.39C519.23 51.39 519.633 51.2767 520.04 51.05C520.453 50.8233 520.777 50.5067 521.01 50.1V48.04H519.97C518.99 48.04 518.28 48.1967 517.84 48.51C517.407 48.8233 517.19 49.2667 517.19 49.84C517.19 50.3333 517.33 50.7167 517.61 50.99C517.89 51.2567 518.297 51.39 518.83 51.39ZM526.892 53V51.17H528.382V44.23H526.892V42.41H530.392L530.882 44.84C531.269 43.94 531.756 43.2633 532.342 42.81C532.929 42.35 533.666 42.12 534.552 42.12C534.892 42.12 535.192 42.1467 535.452 42.2C535.719 42.2533 535.972 42.3233 536.212 42.41L535.422 44.63C535.216 44.5767 535.019 44.5367 534.832 44.51C534.646 44.4767 534.436 44.46 534.202 44.46C533.469 44.46 532.829 44.7467 532.282 45.32C531.742 45.8867 531.322 46.6567 531.022 47.63V51.17H533.132V53H526.892ZM533.982 46.54V43.73L534.342 42.41H536.212L535.742 46.54H533.982ZM547.604 52.41C547.211 52.67 546.734 52.8833 546.174 53.05C545.614 53.2167 545.008 53.3 544.354 53.3C543.061 53.3 542.088 52.9667 541.434 52.3C540.781 51.6267 540.454 50.7333 540.454 49.62V44.28H538.154V42.41H540.454V40.08L543.094 39.76V42.41H546.594L546.324 44.28H543.094V49.61C543.094 50.1567 543.228 50.5567 543.494 50.81C543.761 51.0633 544.191 51.19 544.784 51.19C545.164 51.19 545.511 51.1467 545.824 51.06C546.144 50.9667 546.434 50.85 546.694 50.71L547.604 52.41ZM558.587 50.21C558.587 50.6167 558.647 50.9133 558.767 51.1C558.887 51.28 559.08 51.4167 559.347 51.51L558.777 53.28C558.21 53.22 557.727 53.08 557.327 52.86C556.933 52.6333 556.63 52.2967 556.417 51.85C556.017 52.3367 555.51 52.7 554.897 52.94C554.29 53.18 553.653 53.3 552.987 53.3C551.907 53.3 551.05 52.9933 550.417 52.38C549.783 51.7667 549.467 50.97 549.467 49.99C549.467 48.8633 549.907 47.9967 550.787 47.39C551.673 46.7767 552.927 46.47 554.547 46.47H556.027V45.9C556.027 45.2733 555.833 44.82 555.447 44.54C555.06 44.2533 554.503 44.11 553.777 44.11C553.437 44.11 553.01 44.1567 552.497 44.25C551.99 44.3367 551.467 44.4733 550.927 44.66L550.297 42.85C550.97 42.5967 551.647 42.41 552.327 42.29C553.013 42.17 553.637 42.11 554.197 42.11C555.683 42.11 556.787 42.4267 557.507 43.06C558.227 43.6867 558.587 44.5767 558.587 45.73V50.21ZM553.847 51.39C554.247 51.39 554.65 51.2767 555.057 51.05C555.47 50.8233 555.793 50.5067 556.027 50.1V48.04H554.987C554.007 48.04 553.297 48.1967 552.857 48.51C552.423 48.8233 552.207 49.2667 552.207 49.84C552.207 50.3333 552.347 50.7167 552.627 50.99C552.907 51.2567 553.313 51.39 553.847 51.39ZM564.999 50.95H570.509L570.239 53H561.849V51.11L567.319 44.47H562.299V42.41H570.419V44.31L564.999 50.95ZM577.811 38.87C578.764 38.87 579.564 39.0233 580.211 39.33C580.858 39.63 581.348 40.03 581.681 40.53C582.014 41.0233 582.181 41.5533 582.181 42.12C582.181 42.7667 582.058 43.2933 581.811 43.7C581.564 44.1067 581.258 44.45 580.891 44.73C580.531 45.0033 580.168 45.2667 579.801 45.52C579.434 45.7667 579.128 46.05 578.881 46.37C578.634 46.6833 578.511 47.09 578.511 47.59V48.1H576.041V47.49C576.041 46.8167 576.154 46.2633 576.381 45.83C576.614 45.3967 576.898 45.0367 577.231 44.75C577.571 44.4633 577.908 44.2067 578.241 43.98C578.581 43.7533 578.864 43.5167 579.091 43.27C579.324 43.0167 579.441 42.7033 579.441 42.33C579.441 41.8967 579.264 41.5633 578.911 41.33C578.558 41.09 578.111 40.97 577.571 40.97C577.111 40.97 576.651 41.0767 576.191 41.29C575.738 41.5033 575.321 41.8333 574.941 42.28L573.231 40.96C573.804 40.28 574.471 39.7633 575.231 39.41C575.991 39.05 576.851 38.87 577.811 38.87ZM577.321 50.01C577.781 50.01 578.171 50.1733 578.491 50.5C578.811 50.82 578.971 51.2033 578.971 51.65C578.971 52.1033 578.811 52.4933 578.491 52.82C578.171 53.14 577.781 53.3 577.321 53.3C576.861 53.3 576.471 53.14 576.151 52.82C575.838 52.4933 575.681 52.1033 575.681 51.65C575.681 51.2033 575.838 50.82 576.151 50.5C576.471 50.1733 576.861 50.01 577.321 50.01Z" fill="#FBFFFD"/>
<path d="M718 105.5C717.172 105.5 716.5 106.172 716.5 107C716.5 107.828 717.172 108.5 718 108.5V105.5ZM750.282 108.061C750.868 107.475 750.868 106.525 750.282 105.939L740.736 96.3934C740.15 95.8076 739.201 95.8076 738.615 96.3934C738.029 96.9792 738.029 97.9289 738.615 98.5147L747.1 107L738.615 115.485C738.029 116.071 738.029 117.021 738.615 117.607C739.201 118.192 740.15 118.192 740.736 117.607L750.282 108.061ZM718 108.5H749.221V105.5H718V108.5Z" fill="#57EB23"/>
</svg>
