<svg width="405" height="219" viewBox="0 0 405 219" fill="none" xmlns="http://www.w3.org/2000/svg">
<g clip-path="url(#clip0_311_396)">
<path d="M17.2524 71.292C29.9086 66.7518 42.5649 62.7684 55.1782 58.2282L104.516 53.8165C100.269 55.9581 95.335 58.0997 89.7577 60.0272C87.6554 60.7553 82.2068 62.5971 70.7089 64.9528C67.7916 65.5525 58.1814 67.5228 44.0236 69.3217C36.9446 70.2212 27.8922 70.6067 17.2095 71.292H17.2524Z" fill="#42210B" stroke="black" stroke-width="0.05" stroke-miterlimit="10"/>
<path d="M396.554 73.1338L360.516 59.9844H330.141C337.691 63.7536 347.859 67.9511 360.301 70.7352C374.759 73.9904 387.33 73.6478 396.597 73.1338H396.554Z" fill="#42210B" stroke="black" stroke-width="0.05" stroke-miterlimit="10"/>
<path d="M82.0352 211.909C82.0352 212.381 82.2497 216.064 80.8768 217.563C78.8175 219.833 75.4711 219.277 75.0421 219.234C54.2343 219.405 25.2751 218.334 4.03835 218.463C2.96578 218.463 1.97902 217.906 1.5071 216.921C-0.595128 212.552 4.51027 205.999 4.63898 205.827C5.28252 205.87 5.84025 210.025 6.48379 210.068C32.6543 212.124 82.0352 211.909 82.0352 211.909Z" fill="#603813" stroke="black" stroke-width="0.1" stroke-miterlimit="10"/>
<path d="M88.1272 204.928C88.1272 205.399 87.5695 207.583 85.8105 209.768C84.3947 211.567 80.8338 211.61 80.4048 211.567C59.5112 211.738 28.6214 210.582 7.38464 210.71C6.6982 210.71 6.01176 210.453 5.62564 209.896C2.57956 205.527 7.89947 198.717 8.02818 198.503C8.67172 198.546 8.3285 202.187 8.97204 202.229C35.1426 204.328 61.9567 202.829 88.1272 204.928Z" fill="#603813" stroke="black" stroke-width="0.1" stroke-miterlimit="10"/>
<path d="M329.926 210.839C329.926 211.31 329.755 214.993 330.999 216.492C332.887 218.763 336.018 218.206 336.447 218.163C355.839 218.334 382.868 217.263 402.646 217.392C403.633 217.392 404.577 216.835 405.006 215.85C406.979 211.481 402.217 204.928 402.088 204.756C401.488 204.799 400.973 208.954 400.372 208.997C375.961 211.053 329.926 210.839 329.926 210.839Z" fill="#603813" stroke="black" stroke-width="0.15" stroke-miterlimit="10"/>
<path d="M324.22 203.857C324.22 204.328 324.735 206.513 326.365 208.697C327.695 210.496 330.999 210.539 331.428 210.496C350.906 210.667 379.736 209.511 399.514 209.639C400.158 209.639 400.801 209.382 401.144 208.826C403.976 204.457 398.742 197.646 398.613 197.432C398.013 197.475 397.97 201.116 397.369 201.159C372.957 203.257 348.589 201.758 324.177 203.857H324.22Z" fill="#603813" stroke="black" stroke-width="0.15" stroke-miterlimit="10"/>
<path d="M17.2524 71.8488C17.3811 76.1748 17.5527 82.514 17.6385 90.2237C17.853 110.826 17.9388 121.32 16.0511 130.186C14.6353 136.868 11.6751 146.591 4.72485 157.727C5.96903 171.733 7.47062 187.709 8.71479 201.844C8.80059 202.658 9.44413 203.3 10.3022 203.343C36.344 204.885 62.1285 203.215 88.1703 204.842C88.5993 204.071 89.9722 202.272 92.6751 201.501C95.6782 200.645 98.3811 200.388 99.2392 200.516C169.299 199.531 241.161 200.602 311.221 199.617C312.465 199.445 317.913 199.274 320.273 199.617C322.032 199.874 323.362 201.887 324.263 202.958C349.533 202.272 372.142 201.844 397.412 201.201L404.233 158.241C402.303 155.671 399.428 151.431 397.197 145.734C392.564 134.127 393.722 124.832 395.267 99.1328C395.61 93.6503 396.125 84.8269 396.64 73.6906C390.462 73.6906 382.053 73.3051 372.185 71.8488C360.473 70.0927 340.652 65.8951 316.069 53.3025C277.37 33.4713 280.459 19.2083 253.388 8.71443C217.95 -5.03464 184.015 3.48892 178.523 4.94521C135.32 16.3814 126.525 51.8034 84.3949 62.0403C67.3197 66.195 47.0268 68.9362 47.0268 68.9362C34.8424 70.6067 24.6316 71.4205 17.424 71.8488H17.2524Z" fill="#603813" stroke="black" stroke-width="0.25" stroke-miterlimit="10"/>
<path d="M125.281 99.9895L125.71 120.806C125.71 120.806 128.627 122.99 130.901 120.549L130.172 100.032C130.172 99.4326 127.126 97.548 125.281 100.032V99.9895Z" fill="#666666" stroke="#1A1A1A" stroke-width="0.08" stroke-miterlimit="10"/>
<path d="M127.726 101.617C129.077 101.617 130.172 100.965 130.172 100.161C130.172 99.3565 129.077 98.7045 127.726 98.7045C126.376 98.7045 125.281 99.3565 125.281 100.161C125.281 100.965 126.376 101.617 127.726 101.617Z" fill="#1A1A1A"/>
<path d="M125.281 106.543C125.281 106.543 127.855 108.641 130.386 106.543" stroke="#1A1A1A" stroke-width="0.05" stroke-miterlimit="10"/>
<path d="M125.538 112.411C125.538 112.411 127.855 114.424 130.515 112.368" stroke="#1A1A1A" stroke-width="0.05" stroke-miterlimit="10"/>
<path d="M17.2524 71.806C24.7604 115.623 32.3112 159.483 39.8192 203.3L88.1704 204.928C82.593 158.798 76.3721 111.383 70.7948 65.2527C61.0988 67.4371 50.2016 69.3646 38.2318 70.5639C30.8525 71.292 23.8165 71.6775 17.2524 71.806Z" fill="#42210B" stroke="black" stroke-width="0.05" stroke-miterlimit="10"/>
<path d="M210.657 187.024C254.302 187.024 289.684 151.701 289.684 108.127C289.684 64.554 254.302 29.2308 210.657 29.2308C167.012 29.2308 131.631 64.554 131.631 108.127C131.631 151.701 167.012 187.024 210.657 187.024Z" fill="#2B140A" stroke="#2B140A" stroke-width="0.75" stroke-miterlimit="10"/>
<path d="M347.001 66.9659L326.065 202.315L373.944 201.373L396.554 74.5472C389.432 74.5472 381.195 74.076 372.099 72.7054C362.489 71.2491 354.08 69.1504 347.001 66.9231V66.9659Z" fill="#42210B" stroke="black" stroke-width="0.05" stroke-miterlimit="10"/>
<path d="M210.803 187.324C254.447 187.324 289.828 152.001 289.828 108.429C289.828 64.8561 254.447 29.5336 210.803 29.5336C167.159 29.5336 131.778 64.8561 131.778 108.429C131.778 152.001 167.159 187.324 210.803 187.324Z" fill="#391E00" stroke="#2B140A" stroke-width="0.75" stroke-miterlimit="10"/>
<path d="M151.813 159.055C156.446 163.938 176.353 183.897 207.843 185.353C244.18 187.024 267.734 162.867 271.552 158.798C236.973 159.697 186.349 158.155 151.813 159.055Z" fill="#2B140A"/>
<path d="M207.389 187.327C249.148 187.327 283 152.003 283 108.43C283 64.8568 249.148 29.5336 207.389 29.5336C165.63 29.5336 131.778 64.8568 131.778 108.43C131.778 152.003 165.63 187.327 207.389 187.327Z" fill="#DBDBD2" stroke="#2B140A" stroke-width="0.75" stroke-miterlimit="10"/>
<path d="M207.389 187.327C249.148 187.327 283 152.003 283 108.43C283 64.8568 249.148 29.5336 207.389 29.5336C165.63 29.5336 131.778 64.8568 131.778 108.43C131.778 152.003 165.63 187.327 207.389 187.327Z" fill="#DBDBD2" stroke="#2B140A" stroke-width="0.75" stroke-miterlimit="10"/>
<path d="M207.143 53.991C235.548 53.991 258.7 78.1054 258.7 107.788C258.7 137.471 235.589 161.585 207.143 161.585C178.696 161.585 155.586 137.471 155.586 107.788C155.586 78.1054 178.696 53.991 207.143 53.991ZM207.143 52.9202C178.122 52.9202 154.56 77.4629 154.56 107.788C154.56 138.113 178.081 162.656 207.143 162.656C236.205 162.656 259.726 138.113 259.726 107.788C259.726 77.4629 236.205 52.9202 207.143 52.9202Z" fill="#42210B"/>
<path d="M207.286 48.7012C207.286 48.8154 207.136 48.8725 206.835 48.8725H206.588C206.588 48.8725 206.328 48.8725 205.808 48.8725C205.288 48.8582 204.762 48.8511 204.228 48.8511C203.284 48.8511 202.682 48.8582 202.422 48.8725C202.162 48.8868 201.957 48.8939 201.806 48.8939C201.478 48.8939 201.314 48.8297 201.314 48.7012C201.314 48.5727 201.409 48.5084 201.601 48.5084C201.902 48.5084 202.224 48.5013 202.566 48.487C202.99 48.4727 203.216 48.3657 203.243 48.1658C203.284 47.9516 203.304 47.5019 203.304 46.8166V36.7511C203.304 36.2942 203.291 36.0229 203.263 35.9372C203.236 35.8516 203.14 35.8088 202.976 35.8088C202.908 35.8088 202.463 35.8444 201.642 35.9158C201.478 35.9301 201.368 35.9372 201.314 35.9372C201.149 35.9372 201.067 35.8873 201.067 35.7873C201.067 35.6731 201.149 35.6089 201.314 35.5946C201.957 35.5232 202.607 35.3233 203.263 34.9949C203.92 34.6523 204.447 34.2525 204.844 33.7956C204.994 33.6672 205.097 33.6029 205.152 33.6029C205.261 33.6029 205.316 33.6743 205.316 33.8171V34.224C205.302 34.3382 205.295 34.4667 205.295 34.6095V47.4162C205.295 47.9302 205.316 48.23 205.357 48.3157C205.412 48.4014 205.583 48.4513 205.87 48.4656L206.342 48.487L206.691 48.5084H206.999C207.19 48.5084 207.286 48.5727 207.286 48.7012Z" fill="black"/>
<path d="M244.353 59.6664C244.353 59.7806 244.202 59.8378 243.901 59.8378H243.655C243.655 59.8378 243.395 59.8378 242.875 59.8378C242.355 59.8235 241.828 59.8163 241.295 59.8163C240.351 59.8163 239.749 59.8235 239.489 59.8378C239.229 59.852 239.024 59.8592 238.873 59.8592C238.545 59.8592 238.38 59.7949 238.38 59.6664C238.38 59.5379 238.476 59.4737 238.668 59.4737C238.969 59.4737 239.29 59.4665 239.632 59.4523C240.057 59.438 240.282 59.3309 240.31 59.131C240.351 58.9169 240.371 58.4671 240.371 57.7818V47.7163C240.371 47.2594 240.358 46.9882 240.33 46.9025C240.303 46.8168 240.207 46.774 240.043 46.774C239.974 46.774 239.53 46.8097 238.709 46.8811C238.545 46.8954 238.435 46.9025 238.38 46.9025C238.216 46.9025 238.134 46.8525 238.134 46.7526C238.134 46.6384 238.216 46.5741 238.38 46.5598C239.024 46.4884 239.673 46.2886 240.33 45.9602C240.987 45.6175 241.514 45.2178 241.911 44.7609C242.061 44.6324 242.164 44.5681 242.218 44.5681C242.328 44.5681 242.383 44.6395 242.383 44.7823V45.1892C242.369 45.3034 242.362 45.4319 242.362 45.5747V58.3815C242.362 58.8955 242.383 59.1953 242.424 59.2809C242.478 59.3666 242.649 59.4166 242.937 59.4309L243.409 59.4523L243.758 59.4737H244.066C244.257 59.4737 244.353 59.5379 244.353 59.6664Z" fill="black"/>
<path d="M267.544 77.9339C267.544 77.9768 267.531 78.091 267.503 78.2766C267.435 78.7477 267.326 79.9114 267.175 81.7674L267.155 82.0244C265.745 81.953 264.137 81.9173 262.331 81.9173C261.36 81.9173 260.45 81.9316 259.602 81.9601C258.753 81.9887 258.384 82.003 258.493 82.003C258.124 82.003 257.939 81.9316 257.939 81.7888C257.939 81.6746 258.295 81.3177 259.006 80.718C260.717 79.2617 261.935 78.0767 262.66 77.163C263.919 75.5782 264.548 73.715 264.548 71.5734C264.548 70.1314 264.261 69.0392 263.686 68.2967C263.248 67.7256 262.632 67.4401 261.839 67.4401C261.059 67.4401 260.443 67.69 259.992 68.1897C259.636 68.5751 259.458 68.9606 259.458 69.3461C259.458 69.5888 259.643 69.7173 260.012 69.7316C260.97 69.7744 261.449 70.2099 261.449 71.038C261.449 71.8232 261.052 72.2159 260.258 72.2159C259.752 72.2159 259.348 72.0517 259.047 71.7233C258.746 71.3949 258.596 70.9452 258.596 70.3741C258.596 69.3176 258.952 68.4681 259.663 67.8256C260.375 67.1831 261.312 66.8619 262.475 66.8619C263.638 66.8619 264.603 67.2474 265.369 68.0183C266.258 68.9178 266.703 70.0885 266.703 71.5306C266.703 73.1153 266.197 74.5788 265.184 75.9208C264.172 77.2486 262.468 78.6978 260.074 80.2683C260.977 80.2397 262.112 80.2255 263.481 80.2255C264.616 80.2255 265.335 80.2112 265.636 80.1826C265.937 80.1398 266.204 80.047 266.436 79.9042C266.628 79.7757 266.792 79.2974 266.929 78.4693C267.025 77.8982 267.161 77.6127 267.339 77.6127C267.476 77.6127 267.544 77.7198 267.544 77.9339Z" fill="black"/>
<path d="M275.886 107.778C275.886 109.081 275.382 110.196 274.373 111.123C273.26 112.144 271.837 112.654 270.106 112.654C268.692 112.654 267.653 112.308 266.991 111.617C266.569 111.178 266.359 110.675 266.359 110.11C266.359 109.623 266.502 109.238 266.788 108.955C267.089 108.657 267.488 108.508 267.984 108.508C268.376 108.508 268.699 108.626 268.955 108.861C269.211 109.097 269.339 109.395 269.339 109.756C269.339 110.306 268.985 110.738 268.278 111.052C267.992 111.178 267.849 111.303 267.849 111.429C267.849 111.633 268.044 111.822 268.436 111.994C268.827 112.151 269.256 112.23 269.723 112.23C270.867 112.23 271.792 111.822 272.5 111.005C273.222 110.188 273.583 109.12 273.583 107.801C273.583 105.147 272.439 103.82 270.152 103.82C269.926 103.82 269.76 103.828 269.655 103.843H269.497C269.301 103.843 269.203 103.773 269.203 103.631C269.203 103.521 269.384 103.435 269.745 103.372C270.799 103.215 271.612 102.815 272.184 102.171C272.755 101.511 273.041 100.671 273.041 99.6502C273.041 98.6451 272.793 97.8441 272.296 97.2473C271.8 96.6348 271.13 96.3286 270.287 96.3286C269.67 96.3286 269.128 96.4699 268.662 96.7526C268.21 97.0196 267.984 97.3337 267.984 97.6949C267.984 97.8362 268.09 97.9305 268.3 97.9776C269.294 98.2289 269.79 98.6608 269.79 99.2733C269.79 100.074 269.392 100.475 268.594 100.475C268.082 100.475 267.668 100.318 267.352 100.004C267.051 99.6894 266.901 99.2733 266.901 98.755C266.901 97.9069 267.247 97.2002 267.939 96.6348C268.647 96.0537 269.625 95.7632 270.874 95.7632C272.304 95.7632 273.395 96.1479 274.148 96.9175C274.9 97.687 275.277 98.5822 275.277 99.6031C275.277 101.017 274.637 102.061 273.357 102.736C272.906 102.972 272.176 103.168 271.168 103.325V103.49C272.417 103.537 273.425 103.828 274.193 104.362C275.322 105.147 275.886 106.286 275.886 107.778Z" fill="black"/>
<path d="M267.51 140.019C267.51 140.176 267.435 140.255 267.285 140.255C267.149 140.255 267.059 140.168 267.014 139.996C266.984 139.807 266.931 139.312 266.856 138.511C266.826 138.386 266.765 138.292 266.675 138.229C266.494 138.119 266.096 138.064 265.478 138.064C265.313 138.064 265.155 138.072 265.004 138.087L265.027 141.786C265.102 141.974 265.223 142.092 265.388 142.139C265.569 142.186 265.998 142.21 266.675 142.21C267.006 142.21 267.202 142.241 267.262 142.304C267.277 142.336 267.285 142.383 267.285 142.445C267.285 142.555 266.984 142.61 266.382 142.61C265.779 142.61 264.094 142.626 261.324 142.658C261.174 142.673 261.008 142.681 260.828 142.681C260.527 142.681 260.376 142.603 260.376 142.445C260.376 142.288 260.594 142.218 261.031 142.233C261.543 142.249 262.009 142.218 262.431 142.139C262.611 142.108 262.724 142.029 262.769 141.904C262.814 141.762 262.837 141.464 262.837 141.008V138.158C262.536 138.142 262.19 138.134 261.798 138.134H260.873C260.662 138.134 260.429 138.142 260.173 138.158C259.947 138.158 259.804 138.158 259.744 138.158L256.877 138.087C256.666 138.072 256.561 138.009 256.561 137.899C256.561 137.82 257.667 136.195 259.879 133.022C260.572 132.002 262.099 129.756 264.463 126.285C264.568 126.128 264.673 126.049 264.779 126.049C264.929 126.049 265.004 126.199 265.004 126.497V137.569H265.23C265.742 137.569 266.141 137.538 266.427 137.475C266.728 137.412 266.878 137.255 266.878 137.004C266.863 136.014 266.856 135.677 266.856 135.991C266.871 135.425 266.953 135.143 267.104 135.143C267.315 135.143 267.42 135.363 267.42 135.802V136.862L267.443 138.558C267.458 139.14 267.473 139.509 267.488 139.666C267.503 139.807 267.51 139.925 267.51 140.019ZM262.972 129.512C262.822 129.764 262.506 130.243 262.024 130.949C261.362 131.907 260.361 133.337 259.022 135.237L257.419 137.522C257.976 137.569 259.172 137.593 261.008 137.593C261.655 137.593 262.265 137.585 262.837 137.569V135.896C262.837 135.111 262.86 134.051 262.905 132.716C262.95 131.146 262.972 130.078 262.972 129.512Z" fill="black"/>
<path d="M245.933 167.346C245.933 169.173 245.262 170.573 243.922 171.544C243.114 172.129 242.068 172.422 240.781 172.422C239.495 172.422 238.551 172.072 237.949 171.372C237.621 170.987 237.456 170.53 237.456 170.002C237.456 169.559 237.593 169.202 237.867 168.931C238.141 168.645 238.496 168.502 238.934 168.502C239.29 168.502 239.584 168.61 239.817 168.824C240.063 169.038 240.186 169.302 240.186 169.616C240.186 170.144 239.851 170.544 239.18 170.815C238.879 170.93 238.729 171.058 238.729 171.201C238.729 171.429 238.927 171.636 239.324 171.822C239.735 171.993 240.186 172.079 240.679 172.079C241.637 172.079 242.355 171.736 242.834 171.051C243.491 170.109 243.819 168.838 243.819 167.239C243.819 166.068 243.559 165.162 243.039 164.519C242.519 163.877 241.78 163.555 240.822 163.555C240.084 163.555 239.269 163.848 238.38 164.433C238.462 161.221 238.524 159.194 238.565 158.351C238.578 157.866 238.681 157.573 238.873 157.473C239.064 157.359 239.584 157.302 240.432 157.302C240.569 157.302 240.802 157.302 241.13 157.302C241.459 157.316 241.719 157.323 241.91 157.323H242.608C243.552 157.323 244.099 157.309 244.25 157.28C244.414 157.238 244.517 157.116 244.558 156.916C244.613 156.588 244.708 156.424 244.845 156.424C244.982 156.424 245.05 156.502 245.05 156.659C245.05 156.759 245.044 156.838 245.03 156.895L244.989 157.388C244.92 158.187 244.777 158.687 244.558 158.887C244.353 159.072 243.839 159.165 243.018 159.165L239.098 159.144C239.044 159.629 238.996 161.093 238.955 163.534C239.735 163.163 240.549 162.977 241.397 162.977C242.806 162.977 243.915 163.37 244.722 164.155C245.529 164.926 245.933 165.99 245.933 167.346Z" fill="black"/>
<path d="M212.622 177.497C212.622 178.882 212.219 180.067 211.411 181.052C210.604 182.037 209.64 182.53 208.518 182.53C207.108 182.53 205.966 181.923 205.09 180.71C204.214 179.496 203.776 177.918 203.776 175.977C203.776 174.192 204.146 172.564 204.885 171.094C205.637 169.623 206.636 168.552 207.881 167.881C208.921 167.325 210.057 167.046 211.288 167.046C211.576 167.046 211.719 167.103 211.719 167.217C211.719 167.317 211.624 167.374 211.432 167.389C210.201 167.503 209.113 167.967 208.169 168.781C206.937 169.837 206.212 171.636 205.993 174.178C206.746 173.435 207.594 173.064 208.538 173.064C209.304 173.064 210.023 173.278 210.693 173.706C211.979 174.52 212.622 175.784 212.622 177.497ZM210.508 177.561C210.508 174.906 209.722 173.578 208.148 173.578C207.437 173.578 206.889 173.899 206.506 174.542C206.123 175.17 205.931 176.055 205.931 177.197C205.931 178.839 206.212 180.167 206.773 181.181C207.129 181.823 207.649 182.144 208.333 182.144C209.783 182.144 210.508 180.617 210.508 177.561Z" fill="black"/>
<path d="M178.593 158.394C178.593 158.48 177.8 159.815 176.213 162.399C175.323 163.855 174.714 164.997 174.386 165.825C174.058 166.639 173.893 167.453 173.893 168.267C173.893 168.681 173.989 169.495 174.181 170.708C174.249 171.136 174.283 171.501 174.283 171.8C174.283 172.814 173.921 173.321 173.196 173.321C172.334 173.321 171.903 172.543 171.903 170.987C171.903 169.545 172.539 167.646 173.811 165.29C174.619 163.805 175.665 162.077 176.951 160.107H173.832C172.217 160.107 171.287 160.114 171.041 160.129C170.739 160.143 170.527 160.193 170.404 160.279C170.295 160.364 170.213 160.486 170.158 160.643C170.117 160.785 170.007 161.285 169.83 162.142C169.775 162.313 169.693 162.399 169.583 162.399C169.446 162.399 169.378 162.313 169.378 162.142C169.378 161.97 169.412 161.692 169.481 161.307C169.631 160.436 169.727 159.693 169.768 159.079C169.795 158.637 169.884 158.33 170.035 158.158C170.131 158.158 170.411 158.173 170.876 158.201C171.916 158.258 172.669 158.287 173.134 158.287L177.382 158.244C177.492 158.244 177.608 158.237 177.731 158.223C177.841 158.223 177.909 158.223 177.937 158.223C178.374 158.223 178.593 158.28 178.593 158.394Z" fill="black"/>
<path d="M156.817 143.51C156.817 144.938 156.249 146.087 155.113 146.958C154.347 147.543 153.396 147.836 152.26 147.836C151.042 147.836 150.016 147.551 149.182 146.979C148.046 146.208 147.478 145.123 147.478 143.724C147.478 141.597 148.58 140.248 150.782 139.677V139.569C149.948 139.327 149.291 138.92 148.812 138.349C148.347 137.763 148.114 137.071 148.114 136.271C148.114 135.158 148.477 134.251 149.202 133.552C149.941 132.838 150.892 132.481 152.055 132.481C153.081 132.481 153.923 132.738 154.579 133.252C155.537 133.994 156.016 134.951 156.016 136.122C156.016 136.964 155.777 137.721 155.298 138.392C154.819 139.048 154.224 139.448 153.512 139.591L153.533 139.677C155.722 140.133 156.817 141.411 156.817 143.51ZM153.984 136.164C153.984 134.894 153.765 133.958 153.327 133.359C153.068 133.002 152.65 132.823 152.076 132.823C150.789 132.823 150.146 133.944 150.146 136.186C150.146 138.37 150.837 139.462 152.219 139.462C152.835 139.462 153.266 139.227 153.512 138.756C153.827 138.142 153.984 137.278 153.984 136.164ZM154.723 143.724C154.723 141.126 153.888 139.826 152.219 139.826C151.385 139.826 150.735 140.162 150.269 140.833C149.804 141.49 149.572 142.404 149.572 143.574C149.572 144.788 149.811 145.744 150.29 146.444C150.782 147.144 151.453 147.493 152.301 147.493C153.026 147.493 153.56 147.279 153.902 146.851C154.449 146.166 154.723 145.123 154.723 143.724Z" fill="black"/>
<path d="M148.17 102.59C148.17 104.648 147.711 106.516 146.793 108.197C145.889 109.862 144.7 111.016 143.225 111.66C142.142 112.131 141.058 112.367 139.974 112.367C139.583 112.367 139.387 112.312 139.387 112.202C139.387 112.107 139.493 112.045 139.703 112.013C142.247 111.668 143.993 110.348 144.941 108.056C145.318 107.129 145.581 105.951 145.731 104.522C144.904 105.339 143.97 105.747 142.932 105.747C141.939 105.747 141.036 105.433 140.223 104.805C139.034 103.894 138.439 102.551 138.439 100.776C138.439 99.2686 138.876 97.9886 139.749 96.9364C140.637 95.8684 141.705 95.3344 142.955 95.3344C144.49 95.3344 145.739 96.0098 146.702 97.3604C147.681 98.711 148.17 100.454 148.17 102.59ZM145.799 101.035C145.799 99.245 145.483 97.8315 144.851 96.795C144.414 96.0883 143.82 95.7349 143.067 95.7349C141.517 95.7349 140.742 97.4311 140.742 100.823C140.742 103.729 141.607 105.182 143.338 105.182C144.106 105.182 144.708 104.82 145.144 104.098C145.581 103.36 145.799 102.339 145.799 101.035Z" fill="black"/>
<path d="M153.143 80.1826C153.143 80.2968 152.992 80.3539 152.691 80.3539H152.445C152.445 80.3539 152.185 80.3539 151.665 80.3539C151.145 80.3397 150.618 80.3325 150.085 80.3325C149.14 80.3325 148.538 80.3397 148.278 80.3539C148.018 80.3682 147.813 80.3753 147.663 80.3753C147.334 80.3753 147.17 80.3111 147.17 80.1826C147.17 80.0541 147.266 79.9899 147.457 79.9899C147.758 79.9899 148.08 79.9827 148.422 79.9684C148.846 79.9542 149.072 79.8471 149.099 79.6472C149.14 79.433 149.161 78.9833 149.161 78.298V68.2325C149.161 67.7756 149.147 67.5043 149.12 67.4187C149.093 67.333 148.997 67.2902 148.833 67.2902C148.764 67.2902 148.319 67.3259 147.498 67.3972C147.334 67.4115 147.225 67.4187 147.17 67.4187C147.006 67.4187 146.924 67.3687 146.924 67.2688C146.924 67.1545 147.006 67.0903 147.17 67.076C147.813 67.0046 148.463 66.8047 149.12 66.4764C149.777 66.1337 150.303 65.7339 150.7 65.2771C150.851 65.1486 150.953 65.0843 151.008 65.0843C151.118 65.0843 151.172 65.1557 151.172 65.2985V65.7054C151.159 65.8196 151.152 65.9481 151.152 66.0909V78.8976C151.152 79.4116 151.172 79.7114 151.213 79.7971C151.268 79.8828 151.439 79.9327 151.726 79.947L152.199 79.9684L152.547 79.9899H152.855C153.047 79.9899 153.143 80.0541 153.143 80.1826Z" fill="black"/>
<path d="M175.186 58.3384C175.186 58.4526 175.036 58.5097 174.735 58.5097H174.488C174.488 58.5097 174.228 58.5097 173.708 58.5097C173.188 58.4954 172.662 58.4883 172.128 58.4883C171.184 58.4883 170.582 58.4954 170.322 58.5097C170.062 58.524 169.857 58.5311 169.706 58.5311C169.378 58.5311 169.214 58.4669 169.214 58.3384C169.214 58.2099 169.309 58.1456 169.501 58.1456C169.802 58.1456 170.123 58.1385 170.466 58.1242C170.89 58.1099 171.115 58.0029 171.143 57.803C171.184 57.5888 171.204 57.1391 171.204 56.4538V46.3883C171.204 45.9314 171.191 45.6601 171.163 45.5744C171.136 45.4888 171.04 45.446 170.876 45.446C170.808 45.446 170.363 45.4816 169.542 45.553C169.378 45.5673 169.268 45.5744 169.214 45.5744C169.049 45.5744 168.967 45.5245 168.967 45.4245C168.967 45.3103 169.049 45.2461 169.214 45.2318C169.857 45.1604 170.507 44.9605 171.163 44.6321C171.82 44.2895 172.347 43.8897 172.744 43.4328C172.894 43.3044 172.997 43.2401 173.052 43.2401C173.161 43.2401 173.216 43.3115 173.216 43.4543V43.8612C173.202 43.9754 173.195 44.1039 173.195 44.2467V57.0534C173.195 57.5674 173.216 57.8672 173.257 57.9529C173.312 58.0386 173.483 58.0885 173.77 58.1028L174.242 58.1242L174.591 58.1456H174.899C175.09 58.1456 175.186 58.2099 175.186 58.3384Z" fill="black"/>
<path d="M215.167 44.8249C215.167 44.8677 215.153 44.9819 215.126 45.1675C215.057 45.6387 214.948 46.8023 214.797 48.6584L214.777 48.9153C213.367 48.844 211.76 48.8083 209.954 48.8083C208.982 48.8083 208.072 48.8225 207.224 48.8511C206.376 48.8797 206.006 48.8939 206.116 48.8939C205.746 48.8939 205.561 48.8225 205.561 48.6798C205.561 48.5655 205.917 48.2086 206.629 47.609C208.339 46.1527 209.557 44.9677 210.282 44.0539C211.541 42.4691 212.17 40.6059 212.17 38.4643C212.17 37.0223 211.883 35.9301 211.308 35.1877C210.87 34.6166 210.255 34.331 209.461 34.331C208.681 34.331 208.065 34.5809 207.614 35.0806C207.258 35.4661 207.08 35.8516 207.08 36.2371C207.08 36.4798 207.265 36.6083 207.634 36.6226C208.592 36.6654 209.071 37.1009 209.071 37.9289C209.071 38.7142 208.674 39.1068 207.881 39.1068C207.374 39.1068 206.971 38.9426 206.67 38.6142C206.369 38.2859 206.218 37.8361 206.218 37.265C206.218 36.2085 206.574 35.359 207.285 34.7165C207.997 34.0741 208.934 33.7528 210.097 33.7528C211.26 33.7528 212.225 34.1383 212.991 34.9093C213.881 35.8088 214.325 36.9795 214.325 38.4215C214.325 40.0063 213.819 41.4697 212.806 42.8118C211.794 44.1396 210.09 45.5887 207.696 47.1592C208.599 47.1307 209.735 47.1164 211.103 47.1164C212.239 47.1164 212.957 47.1021 213.258 47.0736C213.559 47.0307 213.826 46.9379 214.058 46.7952C214.25 46.6667 214.414 46.1884 214.551 45.3603C214.647 44.7892 214.784 44.5036 214.961 44.5036C215.098 44.5036 215.167 44.6107 215.167 44.8249Z" fill="black"/>
<path d="M180.523 58.3384C180.523 58.4526 180.372 58.5097 180.071 58.5097H179.825C179.825 58.5097 179.565 58.5097 179.045 58.5097C178.525 58.4954 177.998 58.4883 177.464 58.4883C176.52 58.4883 175.918 58.4954 175.658 58.5097C175.398 58.524 175.193 58.5311 175.043 58.5311C174.714 58.5311 174.55 58.4669 174.55 58.3384C174.55 58.2099 174.646 58.1456 174.837 58.1456C175.138 58.1456 175.46 58.1385 175.802 58.1242C176.226 58.1099 176.452 58.0029 176.479 57.803C176.52 57.5888 176.541 57.1391 176.541 56.4538V46.3883C176.541 45.9314 176.527 45.6601 176.5 45.5744C176.472 45.4888 176.377 45.446 176.212 45.446C176.144 45.446 175.699 45.4816 174.878 45.553C174.714 45.5673 174.605 45.5744 174.55 45.5744C174.386 45.5744 174.304 45.5245 174.304 45.4245C174.304 45.3103 174.386 45.2461 174.55 45.2318C175.193 45.1604 175.843 44.9605 176.5 44.6321C177.157 44.2895 177.683 43.8897 178.08 43.4328C178.231 43.3044 178.333 43.2401 178.388 43.2401C178.498 43.2401 178.552 43.3115 178.552 43.4543V43.8612C178.539 43.9754 178.532 44.1039 178.532 44.2467V57.0534C178.532 57.5674 178.552 57.8672 178.593 57.9529C178.648 58.0386 178.819 58.0885 179.106 58.1028L179.578 58.1242L179.927 58.1456H180.235C180.427 58.1456 180.523 58.2099 180.523 58.3384Z" fill="black"/>
<path d="M161.25 73.1582C161.25 74.4288 161.065 75.6281 160.696 76.756C160.34 77.8839 159.848 78.7906 159.218 79.4759C158.548 80.2183 157.693 80.5895 156.653 80.5895C155.23 80.5895 154.053 79.8614 153.122 78.4051C152.206 76.9488 151.747 75.0856 151.747 72.8155C151.747 70.1885 152.397 68.1183 153.697 66.6049C154.477 65.6911 155.435 65.2342 156.571 65.2342C157.911 65.2342 158.979 65.8696 159.772 67.1403C160.757 68.7108 161.25 70.7167 161.25 73.1582ZM159.033 72.3872C159.033 70.2599 158.808 68.5037 158.356 67.1188C158.014 66.0623 157.412 65.5341 156.55 65.5341C154.826 65.5341 153.964 67.9255 153.964 72.7084C153.964 77.7198 154.874 80.2254 156.694 80.2254C157.542 80.2254 158.151 79.4973 158.52 78.041C158.862 76.7132 159.033 74.8286 159.033 72.3872Z" fill="black"/>
<path d="M207.143 111.3C205.254 111.3 203.736 109.715 203.736 107.745C203.736 105.775 205.254 104.19 207.143 104.19C209.031 104.19 210.55 105.775 210.55 107.745C210.55 109.715 209.031 111.3 207.143 111.3Z" fill="black"/>
<path d="M207.143 105.389C208.374 105.389 209.4 106.46 209.4 107.745C209.4 109.03 208.374 110.101 207.143 110.101C205.911 110.101 204.885 109.03 204.885 107.745C204.885 106.46 205.911 105.389 207.143 105.389ZM207.143 103.033C204.639 103.033 202.627 105.132 202.627 107.745C202.627 110.358 204.639 112.456 207.143 112.456C209.647 112.456 211.658 110.358 211.658 107.745C211.658 105.132 209.647 103.033 207.143 103.033Z" fill="black"/>
<path d="M186.044 120.594L196.224 119.138L198.153 113.57L192.652 112.328L186.044 120.594Z" fill="black" stroke="#1A1A1A" stroke-width="0.05" stroke-miterlimit="10"/>
<path d="M202.997 110.786L201.519 116.054L196.47 114.598L198.03 109.458L202.997 110.786Z" fill="black" stroke="#1A1A1A" stroke-width="0.05" stroke-miterlimit="10"/>
<path d="M242.444 87.9993C242.444 87.9993 248.766 85.9434 251.844 88.5989C251.844 88.5989 252.337 81.3175 260.998 76.6917C260.998 76.6917 252.789 82.5168 246.508 78.6191C246.508 78.6191 245.564 83.8018 241.829 86.5858L242.485 87.9993H242.444Z" fill="black" stroke="black" stroke-width="0.05" stroke-miterlimit="10"/>
<path d="M237.436 85.9434L229.514 92.5395L233.249 92.7965L232.059 96.6514L241.336 92.5395L244.168 86.5002L237.436 85.9434Z" fill="black" stroke="black" stroke-width="0.05" stroke-miterlimit="10"/>
<path d="M211.494 104.018L228.118 91.383L235.917 91.2974L231.73 98.1505L212.848 106.374C212.725 105.989 211.74 104.275 211.535 104.018H211.494Z" fill="black" stroke="#1A1A1A" stroke-width="0.05" stroke-miterlimit="10"/>
<path d="M245.359 90.612C243.47 88.6846 242.116 86.3716 241.418 83.7161C243.306 85.6435 244.62 87.9564 245.359 90.612Z" fill="#1A1A1A"/>
<path d="M194.664 87.9564L196.429 97.4223L201.314 98.9642L202.135 93.7387L194.664 87.9564Z" fill="black" stroke="#1A1A1A" stroke-width="0.05" stroke-miterlimit="10"/>
<path d="M203.941 103.333L199.344 102.219L200.37 97.4222L204.844 98.6215L203.941 103.333Z" fill="black" stroke="#1A1A1A" stroke-width="0.05" stroke-miterlimit="10"/>
<path d="M209.237 112.842L210.796 119.524L215.517 120.851L216.379 115.712L211.248 111.514C211.043 111.771 209.524 112.713 209.237 112.842Z" fill="black" stroke="#1A1A1A" stroke-width="0.05" stroke-miterlimit="10"/>
<path d="M214.203 121.708C214.203 121.708 214.942 128.476 212.89 131.559C212.89 131.559 222.331 131.302 227.011 138.927C227.011 138.927 222.495 129.247 225.328 123.079C225.328 123.079 219.129 123.421 216.502 120.209L214.244 121.708H214.203Z" fill="black" stroke="#1A1A1A" stroke-width="0.05" stroke-miterlimit="10"/>
<path d="M212.562 122.436C213.916 120.337 215.804 119.095 218.185 118.71C216.831 120.809 214.901 122.051 212.562 122.436Z" fill="#1A1A1A"/>
</g>
<defs>
<clipPath id="clip0_311_396">
<rect width="405" height="219" fill="white"/>
</clipPath>
</defs>
</svg>
