<svg width="784" height="424" viewBox="0 0 784 424" fill="none" xmlns="http://www.w3.org/2000/svg">
<g clip-path="url(#clip0_77_928)">
<path d="M31.8915 136.994C56.3915 128.203 80.8915 120.491 105.308 111.701L200.817 103.16C192.595 107.306 183.044 111.452 172.247 115.184C168.178 116.594 157.63 120.16 135.373 124.721C129.725 125.881 111.122 129.696 83.7152 133.179C70.0119 134.92 52.4881 135.667 31.8085 136.994H31.8915Z" fill="#42210B" stroke="black" stroke-width="0.05" stroke-miterlimit="10"/>
<path d="M766.144 140.559L696.381 115.101H637.581C652.198 122.399 671.881 130.525 695.966 135.916C723.954 142.218 748.288 141.555 766.227 140.559H766.144Z" fill="#42210B" stroke="black" stroke-width="0.05" stroke-miterlimit="10"/>
<path d="M157.298 409.239C157.298 410.151 157.714 417.283 155.056 420.185C151.069 424.58 144.591 423.502 143.761 423.419C103.481 423.751 47.422 421.678 6.31182 421.927C4.23554 421.927 2.32537 420.849 1.41182 418.941C-2.65768 410.483 7.22537 397.795 7.47453 397.464C8.72029 397.546 9.79995 405.59 11.0457 405.673C61.7067 409.654 157.298 409.239 157.298 409.239Z" fill="#603813" stroke="black" stroke-width="0.1" stroke-miterlimit="10"/>
<path d="M169.091 395.722C169.091 396.634 168.012 400.863 164.607 405.093C161.866 408.576 154.973 408.659 154.142 408.576C113.697 408.907 53.8999 406.668 12.7897 406.917C11.4609 406.917 10.1321 406.42 9.38465 405.341C3.48804 396.883 13.7863 383.698 14.0355 383.283C15.2813 383.366 14.6169 390.415 15.8626 390.498C66.5236 394.561 118.43 391.659 169.091 395.722Z" fill="#603813" stroke="black" stroke-width="0.1" stroke-miterlimit="10"/>
<path d="M637.166 407.166C637.166 408.078 636.834 415.21 639.242 418.112C642.897 422.507 648.959 421.429 649.79 421.346C687.329 421.678 739.651 419.605 777.937 419.853C779.847 419.853 781.675 418.775 782.505 416.868C786.325 408.41 777.107 395.722 776.858 395.39C775.695 395.473 774.698 403.517 773.536 403.6C726.28 407.58 637.166 407.166 637.166 407.166Z" fill="#603813" stroke="black" stroke-width="0.15" stroke-miterlimit="10"/>
<path d="M626.12 393.649C626.12 394.561 627.117 398.79 630.273 403.019C632.848 406.502 639.242 406.585 640.073 406.502C677.778 406.834 733.588 404.595 771.875 404.844C773.12 404.844 774.366 404.346 775.031 403.268C780.512 394.81 770.38 381.625 770.131 381.21C768.968 381.293 768.885 388.342 767.722 388.425C720.466 392.488 673.293 389.585 626.037 393.649H626.12Z" fill="#603813" stroke="black" stroke-width="0.15" stroke-miterlimit="10"/>
<path d="M31.8915 138.071C32.1406 146.447 32.4728 158.72 32.6389 173.647C33.0542 213.534 33.2203 233.851 29.566 251.016C26.8254 263.953 21.0949 282.777 7.64062 304.338C10.0491 331.455 12.9559 362.386 15.3644 389.751C15.5305 391.327 16.7762 392.571 18.4372 392.654C68.8491 395.639 118.763 392.405 169.175 395.556C170.005 394.064 172.663 390.581 177.895 389.088C183.708 387.429 188.941 386.932 190.602 387.181C326.224 385.273 465.334 387.347 600.956 385.439C603.364 385.108 613.912 384.776 618.48 385.439C621.885 385.937 624.459 389.834 626.203 391.907C675.12 390.581 718.888 389.751 767.805 388.508L781.01 305.333C777.273 300.357 771.708 292.148 767.39 281.119C758.42 258.646 760.663 240.651 763.652 190.895C764.317 180.281 765.313 163.198 766.31 141.637C754.351 141.637 738.073 140.891 718.971 138.071C696.298 134.671 657.929 126.545 610.341 102.164C535.429 63.7698 541.408 36.1555 489.003 15.8386C420.403 -10.7806 354.71 5.72169 344.08 8.54117C260.447 30.6824 243.422 99.2621 161.866 119.081C128.812 127.125 89.5288 132.432 89.5288 132.432C65.9423 135.667 46.1762 137.242 32.2237 138.071H31.8915Z" fill="#603813" stroke="black" stroke-width="0.25" stroke-miterlimit="10"/>
<path d="M31.8915 137.989L75.5762 392.571L169.175 395.722C158.378 306.411 146.336 214.612 135.539 125.301C116.769 129.53 95.6745 133.262 72.5033 135.584C58.2186 136.993 44.5983 137.74 31.8915 137.989Z" fill="#42210B" stroke="black" stroke-width="0.05" stroke-miterlimit="10"/>
<path d="M670.22 128.618L629.692 390.664L722.376 388.839L766.144 143.296C752.358 143.296 736.412 142.384 718.805 139.73C700.202 136.911 683.924 132.847 670.22 128.535V128.618Z" fill="#42210B" stroke="black" stroke-width="0.05" stroke-miterlimit="10"/>
<path d="M405.827 355.206C488.022 355.206 554.654 288.674 554.654 206.603C554.654 124.532 488.022 58 405.827 58C323.632 58 257 124.532 257 206.603C257 288.674 323.632 355.206 405.827 355.206Z" fill="#391E00" stroke="#2B140A" stroke-width="0.75" stroke-miterlimit="10"/>
<path d="M294.732 301.961C303.458 311.158 340.947 348.752 400.252 351.495C468.687 354.641 513.044 309.141 520.235 301.477C455.113 303.171 359.773 300.267 294.732 301.961Z" fill="#2B140A"/>
<path d="M393.604 359.318C471.695 359.318 535 290.93 535 206.568C535 122.207 471.695 53.8188 393.604 53.8188C315.513 53.8188 252.208 122.207 252.208 206.568C252.208 290.93 315.513 359.318 393.604 359.318Z" fill="#E4E4D9" stroke="#2B140A" stroke-width="0.75" stroke-miterlimit="10"/>
<path d="M393.143 101.169C446.263 101.169 489.557 147.856 489.557 205.324C489.557 262.792 446.34 309.479 393.143 309.479C339.947 309.479 296.73 262.792 296.73 205.324C296.73 147.856 339.947 101.169 393.143 101.169ZM393.143 99.0961C338.873 99.0961 294.811 146.613 294.811 205.324C294.811 264.036 338.796 311.552 393.143 311.552C447.491 311.552 491.476 264.036 491.476 205.324C491.476 146.613 447.491 99.0961 393.143 99.0961Z" fill="#42210B"/>
<path d="M240.847 190.812L241.615 231.114C241.615 231.114 246.835 235.343 250.903 230.617L249.598 190.895C249.598 189.734 244.148 186.085 240.847 190.895V190.812Z" fill="#666666" stroke="#1A1A1A" stroke-width="0.08" stroke-miterlimit="10"/>
<path d="M245.223 193.963C247.639 193.963 249.598 192.701 249.598 191.144C249.598 189.587 247.639 188.324 245.223 188.324C242.806 188.324 240.847 189.587 240.847 191.144C240.847 192.701 242.806 193.963 245.223 193.963Z" fill="#1A1A1A"/>
<path d="M240.847 203.5C240.847 203.5 245.453 207.563 249.982 203.5" stroke="#1A1A1A" stroke-width="0.05" stroke-miterlimit="10"/>
<path d="M241.308 214.861C241.308 214.861 245.453 218.758 250.212 214.778" stroke="#1A1A1A" stroke-width="0.05" stroke-miterlimit="10"/>
<path d="M394.52 87.4686C394.52 87.6873 394.219 87.7966 393.618 87.7966H393.126C393.126 87.7966 392.607 87.7966 391.568 87.7966C390.529 87.7693 389.477 87.7556 388.411 87.7556C386.525 87.7556 385.322 87.7693 384.803 87.7966C384.284 87.8239 383.874 87.8376 383.573 87.8376C382.917 87.8376 382.589 87.7146 382.589 87.4686C382.589 87.2226 382.78 87.0996 383.163 87.0996C383.764 87.0996 384.407 87.0859 385.09 87.0586C385.937 87.0313 386.388 86.8263 386.443 86.4436C386.525 86.0336 386.566 85.1726 386.566 83.8606V64.5906C386.566 63.7159 386.539 63.1966 386.484 63.0326C386.429 62.8686 386.238 62.7866 385.91 62.7866C385.773 62.7866 384.885 62.8549 383.245 62.9916C382.917 63.0189 382.698 63.0326 382.589 63.0326C382.261 63.0326 382.097 62.9369 382.097 62.7456C382.097 62.5269 382.261 62.4039 382.589 62.3766C383.874 62.2399 385.172 61.8573 386.484 61.2286C387.796 60.5726 388.848 59.8073 389.641 58.9326C389.942 58.6866 390.147 58.5636 390.256 58.5636C390.475 58.5636 390.584 58.7003 390.584 58.9736V59.7526C390.557 59.9713 390.543 60.2173 390.543 60.4906V85.0086C390.543 85.9926 390.584 86.5666 390.666 86.7306C390.775 86.8946 391.117 86.9903 391.691 87.0176L392.634 87.0586L393.331 87.0996H393.946C394.329 87.0996 394.52 87.2226 394.52 87.4686Z" fill="black"/>
<path d="M463.836 108.698C463.836 108.916 463.536 109.026 462.934 109.026H462.442C462.442 109.026 461.923 109.026 460.884 109.026C459.846 108.998 458.793 108.985 457.727 108.985C455.841 108.985 454.639 108.998 454.119 109.026C453.6 109.053 453.19 109.067 452.889 109.067C452.233 109.067 451.905 108.944 451.905 108.698C451.905 108.452 452.097 108.329 452.479 108.329C453.081 108.329 453.723 108.315 454.406 108.288C455.254 108.26 455.705 108.055 455.759 107.673C455.841 107.263 455.882 106.402 455.882 105.09V85.8196C455.882 84.945 455.855 84.4256 455.8 84.2616C455.746 84.0976 455.554 84.0156 455.226 84.0156C455.09 84.0156 454.201 84.084 452.561 84.2206C452.233 84.248 452.015 84.2616 451.905 84.2616C451.577 84.2616 451.413 84.166 451.413 83.9746C451.413 83.756 451.577 83.633 451.905 83.6056C453.19 83.469 454.488 83.0863 455.8 82.4576C457.112 81.8016 458.165 81.0363 458.957 80.1616C459.258 79.9156 459.463 79.7926 459.572 79.7926C459.791 79.7926 459.9 79.9293 459.9 80.2026V80.9816C459.873 81.2003 459.859 81.4463 459.859 81.7196V106.238C459.859 107.222 459.9 107.796 459.982 107.96C460.092 108.124 460.433 108.219 461.007 108.247L461.95 108.288L462.647 108.329H463.262C463.645 108.329 463.836 108.452 463.836 108.698Z" fill="black"/>
<path d="M507.39 144.149C507.39 144.231 507.363 144.45 507.308 144.805C507.171 145.707 506.953 147.935 506.652 151.488L506.611 151.98C503.796 151.844 500.584 151.775 496.976 151.775C495.035 151.775 493.218 151.803 491.523 151.857C489.828 151.912 489.09 151.939 489.309 151.939C488.571 151.939 488.202 151.803 488.202 151.529C488.202 151.311 488.913 150.627 490.334 149.479C493.751 146.691 496.183 144.423 497.632 142.673C500.147 139.639 501.404 136.072 501.404 131.972C501.404 129.212 500.83 127.121 499.682 125.699C498.807 124.606 497.577 124.059 495.992 124.059C494.434 124.059 493.204 124.538 492.302 125.494C491.591 126.232 491.236 126.97 491.236 127.708C491.236 128.173 491.605 128.419 492.343 128.446C494.256 128.528 495.213 129.362 495.213 130.947C495.213 132.451 494.42 133.202 492.835 133.202C491.824 133.202 491.017 132.888 490.416 132.259C489.815 131.631 489.514 130.77 489.514 129.676C489.514 127.654 490.225 126.027 491.646 124.797C493.067 123.567 494.94 122.952 497.263 122.952C499.586 122.952 501.513 123.69 503.044 125.166C504.821 126.888 505.709 129.13 505.709 131.89C505.709 134.924 504.698 137.726 502.675 140.295C500.652 142.837 497.249 145.612 492.466 148.618C494.27 148.564 496.539 148.536 499.272 148.536C501.541 148.536 502.976 148.509 503.577 148.454C504.178 148.372 504.711 148.195 505.176 147.921C505.559 147.675 505.887 146.76 506.16 145.174C506.351 144.081 506.625 143.534 506.98 143.534C507.253 143.534 507.39 143.739 507.39 144.149Z" fill="black"/>
<path d="M521.119 202.739C521.119 205.008 520.204 206.949 518.372 208.561C516.35 210.338 513.767 211.226 510.623 211.226C508.054 211.226 506.168 210.625 504.965 209.422C504.2 208.657 503.817 207.782 503.817 206.798C503.817 205.951 504.077 205.281 504.596 204.789C505.143 204.27 505.867 204.01 506.769 204.01C507.48 204.01 508.068 204.215 508.532 204.625C508.997 205.035 509.229 205.555 509.229 206.183C509.229 207.14 508.587 207.892 507.302 208.438C506.783 208.657 506.523 208.876 506.523 209.094C506.523 209.45 506.879 209.778 507.589 210.078C508.3 210.352 509.079 210.488 509.926 210.488C512.004 210.488 513.685 209.778 514.969 208.356C516.281 206.935 516.937 205.076 516.937 202.78C516.937 198.161 514.86 195.851 510.705 195.851C510.295 195.851 509.995 195.865 509.803 195.892H509.516C509.161 195.892 508.983 195.769 508.983 195.523C508.983 195.332 509.311 195.182 509.967 195.072C511.881 194.799 513.357 194.102 514.395 192.981C515.434 191.833 515.953 190.371 515.953 188.594C515.953 186.845 515.502 185.451 514.6 184.412C513.698 183.346 512.482 182.813 510.951 182.813C509.831 182.813 508.847 183.059 507.999 183.551C507.179 184.016 506.769 184.563 506.769 185.191C506.769 185.437 506.961 185.601 507.343 185.683C509.147 186.121 510.049 186.872 510.049 187.938C510.049 189.332 509.325 190.029 507.876 190.029C506.947 190.029 506.195 189.756 505.621 189.209C505.075 188.663 504.801 187.938 504.801 187.036C504.801 185.56 505.43 184.33 506.687 183.346C507.972 182.335 509.749 181.829 512.017 181.829C514.614 181.829 516.596 182.499 517.962 183.838C519.329 185.178 520.012 186.736 520.012 188.512C520.012 190.972 518.851 192.79 516.527 193.965C515.707 194.375 514.382 194.717 512.55 194.99V195.277C514.819 195.359 516.65 195.865 518.044 196.794C520.094 198.161 521.119 200.143 521.119 202.739Z" fill="black"/>
<path d="M505.42 264.77C505.42 265.043 505.284 265.18 505.01 265.18C504.764 265.18 504.6 265.03 504.518 264.729C504.464 264.401 504.368 263.54 504.231 262.146C504.177 261.927 504.067 261.763 503.903 261.654C503.575 261.463 502.851 261.367 501.73 261.367C501.43 261.367 501.143 261.381 500.869 261.408L500.91 267.845C501.047 268.173 501.266 268.378 501.566 268.46C501.894 268.542 502.673 268.583 503.903 268.583C504.505 268.583 504.86 268.638 504.969 268.747C504.997 268.802 505.01 268.884 505.01 268.993C505.01 269.184 504.464 269.28 503.37 269.28C502.277 269.28 499.216 269.307 494.186 269.362C493.913 269.389 493.612 269.403 493.284 269.403C492.738 269.403 492.464 269.266 492.464 268.993C492.464 268.72 492.861 268.597 493.653 268.624C494.583 268.651 495.43 268.597 496.195 268.46C496.523 268.405 496.728 268.269 496.81 268.05C496.892 267.804 496.933 267.285 496.933 266.492V261.531C496.387 261.504 495.758 261.49 495.047 261.49H493.366C492.984 261.49 492.56 261.504 492.095 261.531C491.685 261.531 491.426 261.531 491.316 261.531L486.109 261.408C485.727 261.381 485.535 261.271 485.535 261.08C485.535 260.943 487.544 258.114 491.562 252.593C492.82 250.816 495.594 246.908 499.885 240.867C500.077 240.594 500.268 240.457 500.459 240.457C500.733 240.457 500.869 240.717 500.869 241.236V260.506H501.279C502.209 260.506 502.933 260.451 503.452 260.342C503.999 260.233 504.272 259.959 504.272 259.522C504.245 257.8 504.231 257.212 504.231 257.759C504.259 256.775 504.409 256.283 504.682 256.283C505.065 256.283 505.256 256.666 505.256 257.431V259.276L505.297 262.228C505.325 263.239 505.352 263.882 505.379 264.155C505.407 264.401 505.42 264.606 505.42 264.77ZM497.179 246.484C496.906 246.921 496.332 247.755 495.457 248.985C494.255 250.652 492.437 253.14 490.004 256.447L487.093 260.424C488.105 260.506 490.278 260.547 493.612 260.547C494.788 260.547 495.895 260.533 496.933 260.506V257.595C496.933 256.228 496.974 254.383 497.056 252.06C497.138 249.327 497.179 247.468 497.179 246.484Z" fill="black"/>
<path d="M466.915 317.274C466.915 320.773 465.575 323.451 462.897 325.31C461.284 326.431 459.193 326.991 456.624 326.991C454.054 326.991 452.168 326.321 450.966 324.982C450.31 324.244 449.982 323.369 449.982 322.358C449.982 321.511 450.255 320.827 450.802 320.308C451.348 319.761 452.059 319.488 452.934 319.488C453.644 319.488 454.232 319.693 454.697 320.103C455.189 320.513 455.435 321.019 455.435 321.62C455.435 322.631 454.765 323.397 453.426 323.916C452.824 324.135 452.524 324.381 452.524 324.654C452.524 325.091 452.92 325.488 453.713 325.843C454.533 326.171 455.435 326.335 456.419 326.335C458.332 326.335 459.767 325.679 460.724 324.367C462.036 322.563 462.692 320.13 462.692 317.069C462.692 314.828 462.172 313.092 461.134 311.862C460.095 310.632 458.619 310.017 456.706 310.017C455.23 310.017 453.603 310.577 451.827 311.698C451.991 305.548 452.114 301.667 452.196 300.054C452.223 299.125 452.428 298.564 452.811 298.373C453.193 298.154 454.232 298.045 455.927 298.045C456.2 298.045 456.665 298.045 457.321 298.045C457.977 298.072 458.496 298.086 458.879 298.086H460.273C462.159 298.086 463.252 298.059 463.553 298.004C463.881 297.922 464.086 297.69 464.168 297.307C464.277 296.678 464.468 296.364 464.742 296.364C465.015 296.364 465.152 296.514 465.152 296.815C465.152 297.006 465.138 297.157 465.111 297.266L465.029 298.209C464.892 299.74 464.605 300.696 464.168 301.079C463.758 301.434 462.733 301.612 461.093 301.612L453.262 301.571C453.152 302.5 453.057 305.302 452.975 309.976C454.533 309.265 456.159 308.91 457.854 308.91C460.669 308.91 462.883 309.662 464.496 311.165C466.108 312.641 466.915 314.677 466.915 317.274Z" fill="black"/>
<path d="M404.667 336.926C404.667 339.578 403.86 341.846 402.248 343.732C400.635 345.618 398.708 346.561 396.467 346.561C393.651 346.561 391.369 345.4 389.62 343.076C387.87 340.753 386.996 337.733 386.996 334.015C386.996 330.599 387.734 327.483 389.21 324.667C390.713 321.852 392.708 319.802 395.196 318.517C397.273 317.451 399.542 316.918 402.002 316.918C402.576 316.918 402.863 317.028 402.863 317.246C402.863 317.438 402.671 317.547 402.289 317.574C399.829 317.793 397.656 318.681 395.77 320.239C393.31 322.262 391.861 325.706 391.424 330.571C392.927 329.15 394.622 328.439 396.508 328.439C398.038 328.439 399.473 328.849 400.813 329.669C403.382 331.227 404.667 333.646 404.667 336.926ZM400.444 337.049C400.444 331.965 398.872 329.423 395.729 329.423C394.307 329.423 393.214 330.038 392.449 331.268C391.683 332.471 391.301 334.166 391.301 336.352C391.301 339.496 391.861 342.038 392.982 343.978C393.692 345.208 394.731 345.823 396.098 345.823C398.995 345.823 400.444 342.899 400.444 337.049Z" fill="black"/>
<path d="M341.125 300.156C341.125 300.32 339.54 302.875 336.369 307.823C334.593 310.611 333.376 312.797 332.72 314.383C332.064 315.941 331.736 317.499 331.736 319.057C331.736 319.849 331.928 321.407 332.31 323.731C332.447 324.551 332.515 325.248 332.515 325.822C332.515 327.762 331.791 328.733 330.342 328.733C328.62 328.733 327.759 327.243 327.759 324.264C327.759 321.503 329.03 317.868 331.572 313.358C333.185 310.515 335.276 307.208 337.845 303.436H331.613C328.388 303.436 326.529 303.449 326.037 303.477C325.436 303.504 325.012 303.6 324.766 303.764C324.548 303.928 324.384 304.16 324.274 304.461C324.192 304.734 323.974 305.691 323.618 307.331C323.509 307.659 323.345 307.823 323.126 307.823C322.853 307.823 322.716 307.659 322.716 307.331C322.716 307.003 322.785 306.47 322.921 305.732C323.222 304.064 323.413 302.643 323.495 301.468C323.55 300.62 323.728 300.033 324.028 299.705C324.22 299.705 324.78 299.732 325.709 299.787C327.787 299.896 329.29 299.951 330.219 299.951L338.706 299.869C338.925 299.869 339.157 299.855 339.403 299.828C339.622 299.828 339.759 299.828 339.813 299.828C340.688 299.828 341.125 299.937 341.125 300.156Z" fill="black"/>
<path d="M300.327 271.11C300.327 273.843 299.193 276.043 296.924 277.711C295.393 278.831 293.494 279.392 291.225 279.392C288.792 279.392 286.742 278.845 285.075 277.752C282.806 276.276 281.672 274.198 281.672 271.52C281.672 267.447 283.872 264.864 288.273 263.771V263.566C286.606 263.101 285.294 262.322 284.337 261.229C283.408 260.108 282.943 258.782 282.943 257.252C282.943 255.12 283.667 253.384 285.116 252.045C286.592 250.678 288.492 249.995 290.815 249.995C292.865 249.995 294.546 250.487 295.858 251.471C297.771 252.892 298.728 254.723 298.728 256.965C298.728 258.577 298.25 260.026 297.293 261.311C296.336 262.568 295.147 263.333 293.726 263.607L293.767 263.771C298.14 264.645 300.327 267.092 300.327 271.11ZM294.669 257.047C294.669 254.614 294.232 252.824 293.357 251.676C292.838 250.992 292.004 250.651 290.856 250.651C288.287 250.651 287.002 252.796 287.002 257.088C287.002 261.27 288.382 263.361 291.143 263.361C292.373 263.361 293.234 262.91 293.726 262.008C294.355 260.832 294.669 259.179 294.669 257.047ZM296.145 271.52C296.145 266.545 294.478 264.058 291.143 264.058C289.476 264.058 288.177 264.7 287.248 265.985C286.319 267.242 285.854 268.991 285.854 271.233C285.854 273.556 286.332 275.387 287.289 276.727C288.273 278.066 289.612 278.736 291.307 278.736C292.756 278.736 293.822 278.326 294.505 277.506C295.598 276.194 296.145 274.198 296.145 271.52Z" fill="black"/>
<path d="M282.282 193.628C282.282 197.209 281.448 200.462 279.781 203.386C278.141 206.284 275.981 208.293 273.303 209.413C271.335 210.233 269.367 210.643 267.399 210.643C266.688 210.643 266.333 210.548 266.333 210.356C266.333 210.192 266.524 210.083 266.907 210.028C271.526 209.427 274.697 207.131 276.419 203.14C277.102 201.528 277.58 199.478 277.854 196.99C276.35 198.412 274.656 199.122 272.77 199.122C270.966 199.122 269.326 198.576 267.85 197.482C265.69 195.897 264.611 193.56 264.611 190.471C264.611 187.847 265.403 185.62 266.989 183.788C268.601 181.93 270.542 181 272.811 181C275.599 181 277.867 182.176 279.617 184.526C281.393 186.877 282.282 189.911 282.282 193.628ZM277.977 190.922C277.977 187.806 277.403 185.346 276.255 183.542C275.462 182.312 274.382 181.697 273.016 181.697C270.2 181.697 268.793 184.649 268.793 190.553C268.793 195.61 270.364 198.138 273.508 198.138C274.902 198.138 275.995 197.51 276.788 196.252C277.58 194.968 277.977 193.191 277.977 190.922Z" fill="black"/>
<path d="M293.271 148.419C293.271 148.638 292.97 148.747 292.369 148.747H291.877C291.877 148.747 291.358 148.747 290.319 148.747C289.28 148.72 288.228 148.706 287.162 148.706C285.276 148.706 284.073 148.72 283.554 148.747C283.035 148.774 282.625 148.788 282.324 148.788C281.668 148.788 281.34 148.665 281.34 148.419C281.34 148.173 281.531 148.05 281.914 148.05C282.515 148.05 283.158 148.036 283.841 148.009C284.688 147.982 285.139 147.777 285.194 147.394C285.276 146.984 285.317 146.123 285.317 144.811V125.541C285.317 124.666 285.29 124.147 285.235 123.983C285.18 123.819 284.989 123.737 284.661 123.737C284.524 123.737 283.636 123.805 281.996 123.942C281.668 123.969 281.449 123.983 281.34 123.983C281.012 123.983 280.848 123.887 280.848 123.696C280.848 123.477 281.012 123.354 281.34 123.327C282.625 123.19 283.923 122.808 285.235 122.179C286.547 121.523 287.599 120.758 288.392 119.883C288.693 119.637 288.898 119.514 289.007 119.514C289.226 119.514 289.335 119.651 289.335 119.924V120.703C289.308 120.922 289.294 121.168 289.294 121.441V145.959C289.294 146.943 289.335 147.517 289.417 147.681C289.526 147.845 289.868 147.941 290.442 147.968L291.385 148.009L292.082 148.05H292.697C293.08 148.05 293.271 148.173 293.271 148.419Z" fill="black"/>
<path d="M334.492 106.127C334.492 106.346 334.191 106.455 333.59 106.455H333.098C333.098 106.455 332.579 106.455 331.54 106.455C330.501 106.428 329.449 106.414 328.383 106.414C326.497 106.414 325.294 106.428 324.775 106.455C324.256 106.482 323.846 106.496 323.545 106.496C322.889 106.496 322.561 106.373 322.561 106.127C322.561 105.881 322.752 105.758 323.135 105.758C323.736 105.758 324.379 105.744 325.062 105.717C325.909 105.69 326.36 105.485 326.415 105.102C326.497 104.692 326.538 103.831 326.538 102.519V83.2489C326.538 82.3743 326.511 81.8549 326.456 81.6909C326.401 81.5269 326.21 81.4449 325.882 81.4449C325.745 81.4449 324.857 81.5133 323.217 81.6499C322.889 81.6773 322.67 81.6909 322.561 81.6909C322.233 81.6909 322.069 81.5953 322.069 81.4039C322.069 81.1853 322.233 81.0623 322.561 81.0349C323.846 80.8983 325.144 80.5156 326.456 79.8869C327.768 79.2309 328.82 78.4656 329.613 77.5909C329.914 77.3449 330.119 77.2219 330.228 77.2219C330.447 77.2219 330.556 77.3586 330.556 77.6319V78.4109C330.529 78.6296 330.515 78.8756 330.515 79.1489V103.667C330.515 104.651 330.556 105.225 330.638 105.389C330.747 105.553 331.089 105.649 331.663 105.676L332.606 105.717L333.303 105.758H333.918C334.301 105.758 334.492 105.881 334.492 106.127Z" fill="black"/>
<path d="M409.442 80.0476C409.442 80.1296 409.414 80.3483 409.36 80.7036C409.223 81.6056 409.004 83.8333 408.704 87.3866L408.663 87.8786C405.847 87.7419 402.636 87.6736 399.028 87.6736C397.087 87.6736 395.269 87.7009 393.575 87.7556C391.88 87.8103 391.142 87.8376 391.361 87.8376C390.623 87.8376 390.254 87.7009 390.254 87.4276C390.254 87.2089 390.964 86.5256 392.386 85.3776C395.802 82.5896 398.235 80.3209 399.684 78.5716C402.198 75.5376 403.456 71.9706 403.456 67.8706C403.456 65.1099 402.882 63.0189 401.734 61.5976C400.859 60.5043 399.629 59.9576 398.044 59.9576C396.486 59.9576 395.256 60.4359 394.354 61.3926C393.643 62.1306 393.288 62.8686 393.288 63.6066C393.288 64.0713 393.657 64.3173 394.395 64.3446C396.308 64.4266 397.265 65.2603 397.265 66.8456C397.265 68.3489 396.472 69.1006 394.887 69.1006C393.875 69.1006 393.069 68.7863 392.468 68.1576C391.866 67.5289 391.566 66.6679 391.566 65.5746C391.566 63.5519 392.276 61.9256 393.698 60.6956C395.119 59.4656 396.991 58.8506 399.315 58.8506C401.638 58.8506 403.565 59.5886 405.096 61.0646C406.872 62.7866 407.761 65.0279 407.761 67.7886C407.761 70.8226 406.749 73.6243 404.727 76.1936C402.704 78.7356 399.301 81.5099 394.518 84.5166C396.322 84.4619 398.59 84.4346 401.324 84.4346C403.592 84.4346 405.027 84.4073 405.629 84.3526C406.23 84.2706 406.763 84.0929 407.228 83.8196C407.61 83.5736 407.938 82.6579 408.212 81.0726C408.403 79.9793 408.676 79.4326 409.032 79.4326C409.305 79.4326 409.442 79.6376 409.442 80.0476Z" fill="black"/>
<path d="M344.471 106.127C344.471 106.346 344.171 106.455 343.569 106.455H343.077C343.077 106.455 342.558 106.455 341.519 106.455C340.481 106.428 339.428 106.414 338.362 106.414C336.476 106.414 335.274 106.428 334.754 106.455C334.235 106.482 333.825 106.496 333.524 106.496C332.868 106.496 332.54 106.373 332.54 106.127C332.54 105.881 332.732 105.758 333.114 105.758C333.716 105.758 334.358 105.744 335.041 105.717C335.889 105.69 336.34 105.485 336.394 105.102C336.476 104.692 336.517 103.831 336.517 102.519V83.2489C336.517 82.3743 336.49 81.8549 336.435 81.6909C336.381 81.5269 336.189 81.4449 335.861 81.4449C335.725 81.4449 334.836 81.5133 333.196 81.6499C332.868 81.6773 332.65 81.6909 332.54 81.6909C332.212 81.6909 332.048 81.5953 332.048 81.4039C332.048 81.1853 332.212 81.0623 332.54 81.0349C333.825 80.8983 335.123 80.5156 336.435 79.8869C337.747 79.2309 338.8 78.4656 339.592 77.5909C339.893 77.3449 340.098 77.2219 340.207 77.2219C340.426 77.2219 340.535 77.3586 340.535 77.6319V78.4109C340.508 78.6296 340.494 78.8756 340.494 79.1489V103.667C340.494 104.651 340.535 105.225 340.617 105.389C340.727 105.553 341.068 105.649 341.642 105.676L342.585 105.717L343.282 105.758H343.897C344.28 105.758 344.471 105.881 344.471 106.127Z" fill="black"/>
<path d="M308.628 134.971C308.628 137.404 308.259 139.7 307.521 141.859C306.81 144.018 305.826 145.754 304.569 147.066C303.229 148.487 301.521 149.198 299.444 149.198C296.601 149.198 294.25 147.804 292.392 145.016C290.56 142.228 289.645 138.661 289.645 134.315C289.645 129.286 290.943 125.322 293.54 122.425C295.098 120.676 297.011 119.801 299.28 119.801C301.958 119.801 304.09 121.017 305.676 123.45C307.644 126.457 308.628 130.297 308.628 134.971ZM304.2 133.495C304.2 129.422 303.749 126.06 302.847 123.409C302.163 121.386 300.961 120.375 299.239 120.375C295.795 120.375 294.073 124.953 294.073 134.11C294.073 143.704 295.89 148.501 299.526 148.501C301.22 148.501 302.437 147.107 303.175 144.319C303.858 141.777 304.2 138.169 304.2 133.495Z" fill="black"/>
<path d="M393.144 212.124C389.613 212.124 386.772 209.056 386.772 205.241C386.772 201.427 389.613 198.359 393.144 198.359C396.675 198.359 399.515 201.427 399.515 205.241C399.515 209.056 396.675 212.124 393.144 212.124Z" fill="black"/>
<path d="M393.144 200.68C395.447 200.68 397.366 202.754 397.366 205.241C397.366 207.729 395.447 209.802 393.144 209.802C390.841 209.802 388.922 207.729 388.922 205.241C388.922 202.754 390.841 200.68 393.144 200.68ZM393.144 196.12C388.461 196.12 384.7 200.183 384.7 205.241C384.7 210.3 388.461 214.363 393.144 214.363C397.826 214.363 401.588 210.3 401.588 205.241C401.588 200.183 397.826 196.12 393.144 196.12Z" fill="black"/>
<path d="M368.709 163.478L372.722 183.86L382.91 186.961L384.426 175.704L368.709 163.478Z" fill="black" stroke="#1A1A1A" stroke-width="0.05" stroke-miterlimit="10"/>
<path d="M388.613 196.262L378.965 194.069L380.883 183.613L390.297 186.036L388.613 196.262Z" fill="black" stroke="#1A1A1A" stroke-width="0.05" stroke-miterlimit="10"/>
<path d="M434.699 272.465C434.699 272.465 439.262 284.887 434.894 291.493C434.894 291.493 447.976 291.489 457.475 308.195C457.475 308.195 445.946 292.487 452.037 279.217C452.037 279.217 442.627 278.018 437.16 270.933L434.663 272.392L434.699 272.465Z" fill="black" stroke="black" stroke-width="0.05" stroke-miterlimit="10"/>
<path d="M437.657 262.166L424.81 247.134L424.83 254.665L417.804 252.829L426.417 270.9L437.653 275.746L437.657 262.166Z" fill="black" stroke="black" stroke-width="0.05" stroke-miterlimit="10"/>
<path d="M401.866 212.456L426.751 244.215L427.978 259.905L415.152 252.405L397.871 215.45C398.478 215.095 401.504 212.951 401.934 212.417L401.866 212.456Z" fill="black" stroke="#1A1A1A" stroke-width="0.05" stroke-miterlimit="10"/>
<path d="M430.425 278.74C433.599 274.621 437.529 271.665 442.215 269.871C439.042 273.989 435.111 276.945 430.425 278.74Z" fill="#1A1A1A"/>
<path d="M365.721 240.871L380.66 231.353L380.169 221.12L370.903 222.939L365.721 240.871Z" fill="black" stroke="#1A1A1A" stroke-width="0.05" stroke-miterlimit="10"/>
<path d="M385.866 213.257L386.929 222.745L378.146 223.889L377.364 214.614L385.866 213.257Z" fill="black" stroke="#1A1A1A" stroke-width="0.05" stroke-miterlimit="10"/>
<path d="M398.654 197.005L408.926 189.733L408.225 179.885L398.971 181.621L395.174 194.163C395.682 194.415 398.321 196.615 398.642 197.087L398.654 197.005Z" fill="black" stroke="#1A1A1A" stroke-width="0.05" stroke-miterlimit="10"/>
<path d="M410.52 181.776C410.52 181.776 421.517 175.966 427.926 177.868C427.926 177.868 421.524 160.027 431.477 146.242C431.477 146.242 417.942 161.194 405.796 159.766C405.796 159.766 410.291 171.335 406.491 178.423L410.444 181.763L410.52 181.776Z" fill="black" stroke="#1A1A1A" stroke-width="0.05" stroke-miterlimit="10"/>
<path d="M412.786 184.417C408.455 183.195 405.051 180.365 402.941 176.072C407.272 177.294 410.601 180.111 412.786 184.417Z" fill="#1A1A1A"/>
</g>
<defs>
<clipPath id="clip0_77_928">
<rect width="784" height="424" fill="white"/>
</clipPath>
</defs>
</svg>
