<svg width="652" height="307" viewBox="0 0 652 307" fill="none" xmlns="http://www.w3.org/2000/svg">
<g clip-path="url(#clip0_376_1337)">
<path opacity="0.36" d="M628.945 0H23.0546C10.3219 0 0 10.3007 0 23.0073V283.993C0 296.699 10.3219 307 23.0546 307H628.945C641.678 307 652 296.699 652 283.993V23.0073C652 10.3007 641.678 0 628.945 0Z" fill="url(#paint0_radial_376_1337)"/>
<path d="M601.034 286.121H402.93L385.665 270.768H61.0197L43.0439 254.779V154.239L29.2881 142.004V59.8011L61.0789 35.0059H517.596L533.513 20.8499H585.042L609.163 42.2908V118.878L627.657 135.325V262.434L601.034 286.106V286.121ZM404.203 282.766H599.746L624.281 260.956V136.861L605.787 120.415V43.8276L583.754 24.2337H534.787L518.869 38.3898H62.2338L32.6345 61.4561V140.526L46.3903 152.761V253.302L62.2783 267.428H386.909L404.174 282.781L404.203 282.766Z" fill="#29A9E0"/>
<path d="M19.2343 94.3046H15.873V55.9444L54.2382 23.2141H511.466V26.5684H55.482L19.2343 57.496V94.3046Z" fill="#29A9E0"/>
<path d="M381.934 277.949H56.9037L32.9902 255.134V231.802H36.3514V253.701L58.2511 274.595H381.934V277.949Z" fill="#29A9E0"/>
<path fill-rule="evenodd" clip-rule="evenodd" d="M169.748 85.0103C171.184 88.0691 171.984 91.4825 171.984 95.0732C171.984 103.008 168.09 110.042 162.093 114.357H167.305C172.28 109.436 175.36 102.624 175.36 95.0732C175.36 91.1574 174.531 87.4484 173.035 84.0794L169.733 85.0103H169.748ZM166.698 75.1986C161.841 70.6917 155.326 67.9285 148.174 67.9285C133.16 67.9285 120.974 80.0749 120.974 95.0732C120.974 102.609 124.054 109.436 129.029 114.357H134.241C128.244 110.042 124.35 103.008 124.35 95.0732C124.35 81.9515 135.011 71.3123 148.159 71.3123C154.941 71.3123 161.056 74.1347 165.395 78.6711L166.683 75.1986H166.698Z" fill="#0084FF"/>
<path d="M159.976 109.451H136.447V81.8923H159.976V109.451ZM139.009 106.894H157.414V84.4635H139.009V106.894Z" fill="#0084FF"/>
<path fill-rule="evenodd" clip-rule="evenodd" d="M136.447 93.5068C133.471 96.4917 131.635 100.614 131.635 105.151C131.635 114.268 139.038 121.656 148.174 121.656C157.31 121.656 164.714 114.268 164.714 105.151C164.714 100.659 162.907 96.5804 159.99 93.5955V99.1072C160.923 100.925 161.441 102.979 161.441 105.151C161.441 112.465 155.504 118.391 148.174 118.391C140.845 118.391 134.907 112.465 134.907 105.151C134.907 102.905 135.47 100.792 136.462 98.9299V93.5068H136.447Z" fill="#0084FF"/>
<path fill-rule="evenodd" clip-rule="evenodd" d="M145.465 53.7872L142.666 52.5903C141.689 55.1615 141.171 57.9395 141.171 60.8505C141.171 73.7948 151.684 84.2863 164.655 84.2863C168.549 84.2863 172.221 83.3406 175.464 81.6708L173.954 79.0406C171.17 80.4591 168.016 81.2571 164.67 81.2571C153.372 81.2571 144.221 72.1251 144.221 60.8505C144.221 58.368 144.665 55.989 145.48 53.7872H145.465Z" fill="#0084FF"/>
<path d="M148.16 216.109L133.945 181.073H162.375L148.16 216.109ZM139.72 184.96L148.16 205.765L156.6 184.96H139.72Z" fill="#0084FF"/>
<path fill-rule="evenodd" clip-rule="evenodd" d="M161.516 173.286C169.926 177.837 175.583 186.541 175.583 196.441C175.583 210.966 163.411 222.936 148.16 222.936C132.909 222.936 120.737 210.966 120.737 196.441C120.737 186.541 126.379 177.837 134.804 173.286L132.79 169.813C123.195 175.044 116.725 185.004 116.725 196.426C116.725 213.272 130.791 226.925 148.16 226.925C165.529 226.925 179.595 213.272 179.595 196.426C179.595 184.989 173.11 175.03 163.53 169.813L161.516 173.286Z" fill="#0084FF"/>
<path d="M162.375 209.179H133.827V180.689H162.375V209.179ZM137.721 205.292H158.481V184.575H137.721V205.292Z" fill="#0084FF"/>
<path d="M486.086 107.722C475.159 107.722 466.26 98.8413 466.26 87.9361C466.26 77.0309 475.159 68.1501 486.086 68.1501C497.014 68.1501 505.913 77.0309 505.913 87.9361C505.913 98.8413 497.014 107.722 486.086 107.722ZM486.086 71.1646C476.832 71.1646 469.295 78.6859 469.295 87.9213C469.295 97.1567 476.832 104.678 486.086 104.678C495.341 104.678 502.878 97.1567 502.878 87.9213C502.878 78.6859 495.341 71.1646 486.086 71.1646Z" fill="#0084FF"/>
<path d="M495.045 105.964C488.012 105.964 481.393 103.23 476.418 98.2649C471.442 93.3 468.703 86.6948 468.703 79.6759C468.703 72.657 471.442 66.0518 476.418 61.0868C481.393 56.1219 488.012 53.3882 495.045 53.3882C502.078 53.3882 508.697 56.1219 513.672 61.0868C518.647 66.0518 521.387 72.657 521.387 79.6759C521.387 86.6948 518.647 93.3 513.672 98.2649C508.697 103.23 502.078 105.964 495.045 105.964ZM495.045 56.4174C488.826 56.4174 482.962 58.8408 478.565 63.2294C474.167 67.6181 471.739 73.4697 471.739 79.6759C471.739 85.8821 474.167 91.7336 478.565 96.1223C482.962 100.511 488.826 102.934 495.045 102.934C501.264 102.934 507.127 100.511 511.525 96.1223C515.923 91.7336 518.351 85.8821 518.351 79.6759C518.351 73.4697 515.923 67.6181 511.525 63.2294C507.127 58.8408 501.264 56.4174 495.045 56.4174Z" fill="#0084FF"/>
<path d="M494.897 122.44L500.997 116.677L495.223 110.589L489.122 116.352L494.897 122.44ZM495.208 73.78L494.038 116.485L496.096 116.544L497.266 73.8391L495.208 73.78Z" fill="#0084FF"/>
<path d="M478.61 198.495C471.117 198.495 465.017 192.407 465.017 184.93C465.017 177.453 471.117 171.365 478.61 171.365C486.102 171.365 492.202 177.453 492.202 184.93C492.202 192.407 486.102 198.495 478.61 198.495ZM478.61 175.074C473.161 175.074 468.718 179.492 468.718 184.945C468.718 190.397 473.146 194.816 478.61 194.816C484.073 194.816 488.501 190.397 488.501 184.945C488.501 179.492 484.073 175.074 478.61 175.074Z" fill="#0084FF"/>
<path d="M494.483 203.549C489.952 203.549 486.265 199.869 486.265 195.348C486.265 190.826 489.952 187.146 494.483 187.146C499.014 187.146 502.701 190.826 502.701 195.348C502.701 199.869 499.014 203.549 494.483 203.549ZM494.483 190.855C491.995 190.855 489.966 192.88 489.966 195.362C489.966 197.845 491.995 199.869 494.483 199.869C496.97 199.869 498.999 197.845 498.999 195.362C498.999 192.88 496.97 190.855 494.483 190.855Z" fill="#0084FF"/>
<path fill-rule="evenodd" clip-rule="evenodd" d="M482.311 159.16H510.726V209.43H514.428V155.451H478.595V209.43H482.296V159.16H482.311ZM490.1 221.31L490.751 225.004H506.254L505.292 221.31H490.1Z" fill="#0084FF"/>
<path d="M329.799 122.632C320.5 122.632 311.764 119.026 305.189 112.465C298.615 105.905 295.002 97.1863 295.002 87.9066C295.002 78.6268 298.615 69.9086 305.189 63.3477C311.764 56.7869 320.5 53.1814 329.799 53.1814C339.097 53.1814 347.834 56.7869 354.408 63.3477C360.982 69.9086 364.595 78.6268 364.595 87.9066C364.595 97.1863 360.982 105.905 354.408 112.465C347.834 119.026 339.097 122.632 329.799 122.632ZM329.799 57.0972C321.551 57.0972 313.807 60.3037 307.973 66.1258C302.139 71.9478 298.926 79.676 298.926 87.9066C298.926 96.1372 302.139 103.865 307.973 109.687C313.807 115.509 321.551 118.716 329.799 118.716C338.046 118.716 345.79 115.509 351.624 109.687C357.458 103.865 360.671 96.1372 360.671 87.9066C360.671 79.676 357.458 71.9478 351.624 66.1258C345.79 60.3037 338.046 57.0972 329.799 57.0972Z" fill="#0084FF"/>
<path fill-rule="evenodd" clip-rule="evenodd" d="M299.873 58.6782C291.952 66.6428 287.184 77.6515 287.406 89.6206C287.406 90.2707 287.45 90.9209 287.48 91.5859C288.294 104.309 294.602 115.391 303.945 122.661L303.605 117.209C297.075 111.076 292.633 102.698 291.567 93.1965L302.02 92.2951L301.769 88.3793L291.33 89.2807C291.226 79.7941 294.558 70.9872 300.229 64.1308L299.888 58.6782H299.873Z" fill="#0084FF"/>
<path d="M345.021 108.83L329.799 97.7922L314.577 108.83L320.396 90.9654L305.175 79.9272H323.995L329.814 62.0623L335.633 79.9272H354.453L339.231 90.9654L345.05 108.83H345.021ZM329.799 92.9455L337.558 98.5754L334.596 89.473L342.355 83.8431H332.76L329.799 74.7406L326.838 83.8431H317.243L325.001 89.473L322.04 98.5754L329.799 92.9455Z" fill="#0084FF"/>
<path fill-rule="evenodd" clip-rule="evenodd" d="M327.607 114.12L322.987 102.728L326.363 100.275L329.784 108.727L333.204 100.275L336.58 102.728L331.96 114.12L329.769 119.514L327.577 114.12H327.607Z" fill="#0084FF"/>
<path d="M357.102 207.45H296.956L327.029 155.465L357.102 207.45ZM303.486 203.682H350.572L327.029 162.987L303.486 203.682Z" fill="#0084FF"/>
<path d="M349.313 198.347H304.744L327.029 159.839L349.313 198.347ZM308.12 196.411H345.937L327.029 163.725L308.12 196.411Z" fill="#0084FF"/>
<path fill-rule="evenodd" clip-rule="evenodd" d="M317.597 172.68H301.369H297.016L299.177 176.448L324.734 221L326.896 224.768L329.088 221.015L347.093 190.146L344.961 186.319L326.926 217.232L303.531 176.448H319.7L317.597 172.665V172.68Z" fill="#0084FF"/>
<path fill-rule="evenodd" clip-rule="evenodd" d="M357.991 180.778C357.991 186.437 353.386 191.033 347.715 191.033C346.797 191.033 345.894 190.915 345.05 190.678L347.478 194.786C347.552 194.786 347.641 194.786 347.715 194.786C355.474 194.786 361.767 188.506 361.767 180.763C361.767 173.02 355.474 166.74 347.715 166.74C342.34 166.74 337.661 169.754 335.307 174.187L337.735 178.295C338.846 173.818 342.888 170.493 347.715 170.493C353.386 170.493 357.991 175.089 357.991 180.748V180.778Z" fill="#0084FF"/>
<path d="M142.432 139.981V133.057L141.436 134.257H139.732L142.18 131.341H143.728V139.981H142.432Z" fill="#0000FF"/>
<path d="M320.31 139.981V136.705C320.31 136.409 320.378 136.145 320.514 135.913C320.658 135.681 320.846 135.497 321.078 135.361C321.318 135.217 321.582 135.145 321.87 135.145H327.354C327.434 135.145 327.502 135.117 327.558 135.061C327.622 134.997 327.654 134.925 327.654 134.845V132.937C327.654 132.857 327.622 132.789 327.558 132.733C327.502 132.669 327.434 132.637 327.354 132.637H321.906C321.826 132.637 321.754 132.669 321.69 132.733C321.634 132.789 321.606 132.857 321.606 132.937V133.405H320.31V132.901C320.31 132.605 320.378 132.341 320.514 132.109C320.658 131.877 320.846 131.689 321.078 131.545C321.318 131.401 321.582 131.329 321.87 131.329H327.39C327.67 131.329 327.926 131.401 328.158 131.545C328.398 131.689 328.59 131.877 328.734 132.109C328.878 132.341 328.95 132.605 328.95 132.901V134.881C328.95 135.169 328.878 135.433 328.734 135.673C328.59 135.905 328.398 136.093 328.158 136.237C327.926 136.373 327.67 136.441 327.39 136.441H321.906C321.826 136.441 321.754 136.473 321.69 136.537C321.634 136.593 321.606 136.661 321.606 136.741V138.385C321.606 138.465 321.634 138.537 321.69 138.601C321.754 138.657 321.826 138.685 321.906 138.685H328.95V139.981H320.31Z" fill="#0000FF"/>
<path d="M488.473 139.981C488.177 139.981 487.913 139.909 487.681 139.765C487.449 139.621 487.261 139.433 487.117 139.201C486.973 138.969 486.901 138.709 486.901 138.421V138.061H488.209V138.385C488.209 138.465 488.237 138.537 488.293 138.601C488.349 138.657 488.417 138.685 488.497 138.685H493.957C494.037 138.685 494.105 138.657 494.161 138.601C494.217 138.537 494.245 138.465 494.245 138.385V136.537C494.245 136.457 494.217 136.389 494.161 136.333C494.105 136.269 494.037 136.237 493.957 136.237H488.473V134.941H493.585C493.673 134.941 493.745 134.913 493.801 134.857C493.857 134.793 493.885 134.721 493.885 134.641V132.937C493.885 132.857 493.857 132.789 493.801 132.733C493.745 132.669 493.673 132.637 493.585 132.637H488.497C488.417 132.637 488.349 132.669 488.293 132.733C488.237 132.789 488.209 132.857 488.209 132.937V133.381H486.901V132.901C486.901 132.605 486.969 132.341 487.105 132.109C487.249 131.877 487.441 131.689 487.681 131.545C487.921 131.401 488.185 131.329 488.473 131.329H493.621C493.917 131.329 494.181 131.401 494.413 131.545C494.653 131.689 494.841 131.877 494.977 132.109C495.113 132.341 495.181 132.605 495.181 132.901V134.677C495.181 134.781 495.169 134.885 495.145 134.989C495.129 135.093 495.101 135.189 495.061 135.277C495.237 135.453 495.361 135.649 495.433 135.865C495.505 136.081 495.541 136.293 495.541 136.501V138.421C495.541 138.709 495.469 138.969 495.325 139.201C495.189 139.433 495.001 139.621 494.761 139.765C494.529 139.909 494.273 139.981 493.993 139.981H488.473Z" fill="#0000FF"/>
<path d="M144.793 248.309V246.113H139.081V244.805L144.793 239.657H146.089V244.805H147.361V246.113H146.089V248.309H144.793ZM140.977 244.805H144.793V241.553L140.977 244.805Z" fill="#0000FF"/>
<path d="M319.485 248.309C319.197 248.309 318.933 248.237 318.693 248.093C318.461 247.949 318.273 247.761 318.129 247.529C317.993 247.297 317.925 247.037 317.925 246.749V246.281H319.221V246.713C319.221 246.793 319.249 246.865 319.305 246.929C319.369 246.985 319.441 247.013 319.521 247.013H324.969C325.049 247.013 325.117 246.985 325.173 246.929C325.237 246.865 325.269 246.793 325.269 246.713V244.829C325.269 244.749 325.237 244.681 325.173 244.625C325.117 244.561 325.049 244.529 324.969 244.529H317.925V239.657H326.565V240.965H319.521C319.441 240.965 319.369 240.997 319.305 241.061C319.249 241.117 319.221 241.185 319.221 241.265V242.933C319.221 243.013 319.249 243.085 319.305 243.149C319.369 243.205 319.441 243.233 319.521 243.233H325.005C325.285 243.233 325.541 243.301 325.773 243.437C326.013 243.573 326.205 243.761 326.349 244.001C326.493 244.241 326.565 244.505 326.565 244.793V246.749C326.565 247.037 326.493 247.297 326.349 247.529C326.205 247.761 326.013 247.949 325.773 248.093C325.541 248.237 325.285 248.309 325.005 248.309H319.485Z" fill="#0000FF"/>
<path d="M490.863 248.309C490.575 248.309 490.311 248.237 490.071 248.093C489.839 247.949 489.651 247.761 489.507 247.529C489.371 247.297 489.303 247.037 489.303 246.749V241.229C489.303 240.933 489.371 240.669 489.507 240.437C489.651 240.205 489.839 240.017 490.071 239.873C490.311 239.729 490.575 239.657 490.863 239.657H496.503V240.965H490.899C490.819 240.965 490.747 240.997 490.683 241.061C490.627 241.117 490.599 241.185 490.599 241.265V242.909C490.599 242.989 490.627 243.061 490.683 243.125C490.747 243.181 490.819 243.209 490.899 243.209H496.383C496.663 243.209 496.919 243.281 497.151 243.425C497.391 243.561 497.583 243.749 497.727 243.989C497.871 244.221 497.943 244.481 497.943 244.769V246.749C497.943 247.037 497.871 247.297 497.727 247.529C497.583 247.761 497.391 247.949 497.151 248.093C496.919 248.237 496.663 248.309 496.383 248.309H490.863ZM490.899 247.013H496.347C496.427 247.013 496.495 246.985 496.551 246.929C496.615 246.865 496.647 246.793 496.647 246.713V244.805C496.647 244.725 496.615 244.657 496.551 244.601C496.495 244.537 496.427 244.505 496.347 244.505H490.599V246.713C490.599 246.793 490.627 246.865 490.683 246.929C490.747 246.985 490.819 247.013 490.899 247.013Z" fill="#0000FF"/>
</g>
<defs>
<radialGradient id="paint0_radial_376_1337" cx="0" cy="0" r="1" gradientUnits="userSpaceOnUse" gradientTransform="translate(325.993 153.5) scale(292.499 291.898)">
<stop offset="0.45" stop-color="#00FFFF"/>
<stop offset="0.61" stop-color="#00FBFF"/>
<stop offset="0.75" stop-color="#00F0FF"/>
<stop offset="0.89" stop-color="#00DEFF"/>
<stop offset="1" stop-color="#00CAFF"/>
</radialGradient>
<clipPath id="clip0_376_1337">
<rect width="652" height="307" fill="white"/>
</clipPath>
</defs>
</svg>
