<?xml version="1.0" encoding="UTF-8"?>
<svg id="Camada_2" data-name="Camada 2" xmlns="http://www.w3.org/2000/svg" xmlns:xlink="http://www.w3.org/1999/xlink" viewBox="0 0 193.94 91.5">
  <defs>
    <style>
      .cls-1, .cls-2 {
        fill: #0084ff;
      }

      .cls-3 {
        fill: blue;
        font-family: Orbitron-Medium, Orbitron;
        font-size: 7.5px;
        font-variation-settings: 'wght' 500;
        font-weight: 500;
      }

      .cls-4 {
        fill: none;
        stroke: #29a9e0;
        stroke-miterlimit: 10;
      }

      .cls-2 {
        fill-rule: evenodd;
      }

      .cls-5 {
        fill: url(#Gradiente_sem_nome_31);
        opacity: .36;
      }
    </style>
    <radialGradient id="Gradiente_sem_nome_31" data-name="Gradiente sem nome 31" cx="96.97" cy="45.75" fx="96.97" fy="45.75" r="87.01" gradientUnits="userSpaceOnUse">
      <stop offset=".45" stop-color="aqua"/>
      <stop offset=".61" stop-color="#00fbff"/>
      <stop offset=".75" stop-color="#00f0ff"/>
      <stop offset=".89" stop-color="#00deff"/>
      <stop offset="1" stop-color="#00caff"/>
    </radialGradient>
  </defs>
  <g id="Monitor_simbolos" data-name="Monitor simbolos">
    <rect class="cls-5" width="193.94" height="91.5" rx="6.86" ry="6.86"/>
    <polygon class="cls-4" points="18.34 10.94 154.15 10.94 158.89 6.72 173.83 6.72 180.7 12.84 180.7 35.66 186.2 40.57 186.2 78 178.59 84.78 120.04 84.78 114.9 80.21 18.34 80.21 13.3 75.72 13.3 45.75 9.21 42.11 9.21 18.07 18.34 10.94"/>
    <polyline class="cls-4" points="152.14 7.42 16.32 7.42 5.22 16.91 5.22 28.11"/>
    <polyline class="cls-4" points="10.31 69.09 10.31 75.83 17.13 82.35 113.61 82.35"/>
    <g>
      <path class="cls-2" d="m50.49,25.34c.43.91.66,1.93.66,3,0,2.37-1.16,4.46-2.94,5.75h1.55c1.48-1.47,2.4-3.5,2.4-5.75,0-1.17-.25-2.27-.69-3.28l-.98.28Zm-.91-2.92c-1.44-1.34-3.38-2.17-5.51-2.17-4.47,0-8.09,3.62-8.09,8.09,0,2.25.92,4.28,2.4,5.75h1.55c-1.78-1.29-2.94-3.38-2.94-5.75,0-3.91,3.17-7.08,7.08-7.08,2.02,0,3.84.84,5.13,2.2l.38-1.03Z"/>
      <path class="cls-1" d="m47.59,32.62h-7v-8.21h7v8.21Zm-6.24-.76h5.47v-6.69h-5.47v6.69Z"/>
      <path class="cls-2" d="m40.59,27.87c-.89.89-1.43,2.12-1.43,3.47,0,2.72,2.2,4.92,4.92,4.92s4.92-2.2,4.92-4.92c0-1.34-.54-2.56-1.41-3.44v1.64c.28.54.43,1.15.43,1.8,0,2.18-1.77,3.95-3.95,3.95s-3.95-1.77-3.95-3.95c0-.67.17-1.3.46-1.85v-1.62Z"/>
      <path class="cls-2" d="m43.27,16.03l-.83-.36c-.29.77-.45,1.6-.45,2.46,0,3.86,3.13,6.99,6.99,6.99,1.16,0,2.25-.28,3.21-.78l-.45-.78c-.83.42-1.77.66-2.76.66-3.36,0-6.08-2.72-6.08-6.08,0-.74.13-1.45.37-2.11Z"/>
    </g>
    <g>
      <path class="cls-1" d="m44.07,64.41l-4.23-10.44h8.45l-4.23,10.44Zm-2.51-9.28l2.51,6.2,2.51-6.2h-5.02Z"/>
      <path class="cls-2" d="m48.05,51.65c2.5,1.36,4.18,3.95,4.18,6.9,0,4.33-3.62,7.9-8.16,7.9s-8.16-3.57-8.16-7.9c0-2.95,1.68-5.54,4.18-6.9l-.6-1.03c-2.85,1.56-4.78,4.53-4.78,7.93,0,5.02,4.19,9.09,9.35,9.09s9.35-4.07,9.35-9.09c0-3.41-1.93-6.38-4.78-7.93l-.6,1.03Z"/>
      <path class="cls-1" d="m48.3,62.35h-8.49v-8.49h8.49v8.49Zm-7.33-1.16h6.18v-6.18h-6.18v6.18Z"/>
    </g>
    <text/>
    <g>
      <path class="cls-1" d="m144.59,32.11c-3.25,0-5.9-2.65-5.9-5.9s2.65-5.9,5.9-5.9,5.9,2.65,5.9,5.9-2.65,5.9-5.9,5.9Zm0-10.89c-2.75,0-5,2.24-5,5s2.24,5,5,5,5-2.24,5-5-2.24-5-5-5Z"/>
      <path class="cls-1" d="m147.25,31.58c-2.09,0-4.06-.82-5.54-2.3-1.48-1.48-2.3-3.45-2.3-5.54s.82-4.06,2.3-5.54c1.48-1.48,3.45-2.3,5.54-2.3s4.06.82,5.54,2.3c1.48,1.48,2.3,3.45,2.3,5.54s-.82,4.06-2.3,5.54c-1.48,1.48-3.45,2.3-5.54,2.3Zm0-14.77c-1.85,0-3.59.72-4.9,2.03-1.31,1.31-2.03,3.05-2.03,4.9s.72,3.59,2.03,4.9c1.31,1.31,3.05,2.03,4.9,2.03s3.59-.72,4.9-2.03,2.03-3.05,2.03-4.9-.72-3.59-2.03-4.9-3.05-2.03-4.9-2.03Z"/>
      <path class="cls-1" d="m147.21,36.5l1.81-1.72-1.72-1.81-1.81,1.72,1.72,1.81Zm.09-14.5l-.35,12.73.61.02.35-12.73-.61-.02Z"/>
    </g>
    <path class="cls-1" d="m142.36,59.17c-2.23,0-4.04-1.81-4.04-4.04s1.81-4.04,4.04-4.04,4.04,1.81,4.04,4.04-1.81,4.04-4.04,4.04Zm0-6.98c-1.62,0-2.94,1.32-2.94,2.94s1.32,2.94,2.94,2.94,2.94-1.32,2.94-2.94-1.32-2.94-2.94-2.94Z"/>
    <path class="cls-1" d="m147.09,60.67c-1.35,0-2.44-1.1-2.44-2.44s1.1-2.44,2.44-2.44,2.44,1.1,2.44,2.44-1.1,2.44-2.44,2.44Zm0-3.79c-.74,0-1.34.6-1.34,1.34s.6,1.34,1.34,1.34,1.34-.6,1.34-1.34-.6-1.34-1.34-1.34Z"/>
    <path class="cls-2" d="m143.47,47.44h8.45v14.99h1.1v-16.09h-10.66v16.09h1.1v-14.99Zm2.32,18.52l.19,1.1h4.61l-.29-1.1h-4.52Z"/>
    <g>
      <path class="cls-1" d="m98.1,36.55c-2.76,0-5.36-1.08-7.32-3.03-1.95-1.95-3.03-4.55-3.03-7.32s1.08-5.36,3.03-7.32c1.95-1.95,4.55-3.03,7.32-3.03s5.36,1.08,7.32,3.03c1.95,1.95,3.03,4.55,3.03,7.32s-1.08,5.36-3.03,7.32c-1.95,1.95-4.55,3.03-7.32,3.03Zm0-19.53c-2.45,0-4.76.96-6.49,2.69-1.73,1.73-2.69,4.04-2.69,6.49s.96,4.76,2.69,6.49c1.73,1.73,4.04,2.69,6.49,2.69s4.76-.96,6.49-2.69c1.73-1.73,2.69-4.04,2.69-6.49s-.96-4.76-2.69-6.49c-1.73-1.73-4.04-2.69-6.49-2.69Z"/>
      <path class="cls-2" d="m89.2,17.49c-2.36,2.37-3.78,5.65-3.71,9.22,0,.19.01.39.02.58.24,3.79,2.12,7.1,4.9,9.26l-.1-1.62c-1.94-1.83-3.27-4.33-3.58-7.16l3.11-.27-.07-1.17-3.11.27c-.03-2.83.96-5.45,2.65-7.5l-.1-1.62Z"/>
      <path class="cls-1" d="m102.63,32.44l-4.53-3.29-4.53,3.29,1.73-5.32-4.53-3.29h5.6l1.73-5.32,1.73,5.32h5.6l-4.53,3.29,1.73,5.32Zm-4.53-4.73l2.31,1.68-.88-2.71,2.31-1.68h-2.85l-.88-2.71-.88,2.71h-2.85l2.31,1.68-.88,2.71,2.31-1.68Z"/>
      <path class="cls-2" d="m97.45,34.01l-1.37-3.4,1.01-.73,1.02,2.52,1.02-2.52,1.01.73-1.37,3.4-.65,1.61-.65-1.61Z"/>
    </g>
    <g>
      <path class="cls-1" d="m106.22,61.83h-17.89l8.95-15.5,8.95,15.5Zm-15.95-1.12h14.01l-7-12.13-7,12.13Z"/>
      <path class="cls-1" d="m103.9,59.12h-13.26l6.63-11.48,6.63,11.48Zm-12.25-.58h11.25l-5.62-9.74-5.62,9.74Z"/>
      <path class="cls-2" d="m94.47,51.47h-4.83s-1.3,0-1.3,0l.64,1.12,7.6,13.28.64,1.12.65-1.12,5.36-9.2-.63-1.14-5.36,9.21-6.96-12.16h4.81s-.63-1.13-.63-1.13Z"/>
      <path class="cls-2" d="m106.49,53.88c0,1.69-1.37,3.06-3.06,3.06-.27,0-.54-.04-.79-.1l.72,1.23s.05,0,.07,0c2.31,0,4.18-1.87,4.18-4.18s-1.87-4.18-4.18-4.18c-1.6,0-2.99.9-3.69,2.22l.72,1.23c.33-1.33,1.53-2.32,2.97-2.32,1.69,0,3.06,1.37,3.06,3.06Z"/>
    </g>
    <text class="cls-3" transform="translate(41.56 43.43)"><tspan x="0" y="0">1</tspan></text>
    <text class="cls-3" transform="translate(95.07 43.43)"><tspan x="0" y="0">2</tspan></text>
    <text class="cls-3" transform="translate(144.64 43.43)"><tspan x="0" y="0">3</tspan></text>
    <text class="cls-3" transform="translate(41.35 75.72)"><tspan x="0" y="0">4</tspan></text>
    <text class="cls-3" transform="translate(94.37 75.72)"><tspan x="0" y="0">5</tspan></text>
    <text class="cls-3" transform="translate(145.34 75.72)"><tspan x="0" y="0">6</tspan></text>
  </g>
</svg>