<svg width="252" height="69" viewBox="0 0 252 69" fill="none" xmlns="http://www.w3.org/2000/svg">
<path d="M126.24 0.000133135C78.8757 0.00742236 7.43742 0.275582 5.01453 3.85678C3.23883 6.48138 1.35442 26.3254 0.487784 46.675C0.487784 46.675 77.092 51.6812 126.24 51.675C175.233 51.6689 251.594 46.675 251.594 46.675C251.047 26.3324 249.774 6.48079 248.056 3.85678C245.711 0.275685 173.835 -0.00719152 126.24 0.000133135Z" fill="#DADADA"/>
<path d="M82.2334 32V14.3853H85.8467L91.1446 27.9351H91.3521L96.6377 14.3853H100.251V32H97.419V19.4756H97.1993L92.3164 32H90.168L85.2852 19.4756H85.0777V32H82.2334ZM105.522 16.4238C104.521 16.4238 103.703 15.6304 103.703 14.6294C103.703 13.6406 104.521 12.835 105.522 12.835C106.511 12.835 107.328 13.6406 107.328 14.6294C107.328 15.6304 106.511 16.4238 105.522 16.4238ZM103.996 32V18.6577H107.036V32H103.996ZM115.492 32.2686C112.099 32.2686 110.048 30.7061 109.792 28.4478V28.4233H112.807L112.819 28.4478C113.136 29.3755 114.028 30.0225 115.541 30.0225C117.055 30.0225 118.105 29.3389 118.105 28.3379V28.3135C118.105 27.5322 117.519 27.0195 116.054 26.6899L113.893 26.2017C111.354 25.6401 110.146 24.4438 110.146 22.4785V22.4663C110.146 20.0615 112.343 18.4014 115.492 18.4014C118.739 18.4014 120.68 20.0127 120.876 22.1733V22.1978H118.019L118.007 22.1611C117.787 21.3188 116.908 20.6353 115.48 20.6353C114.125 20.6353 113.149 21.2944 113.149 22.2954V22.3076C113.149 23.0889 113.71 23.5649 115.151 23.8945L117.311 24.3706C119.924 24.9565 121.156 26.0674 121.156 28.0083V28.0327C121.156 30.5718 118.776 32.2686 115.492 32.2686ZM128.698 32.2686C125.304 32.2686 123.253 30.7061 122.997 28.4478V28.4233H126.012L126.024 28.4478C126.342 29.3755 127.233 30.0225 128.747 30.0225C130.26 30.0225 131.31 29.3389 131.31 28.3379V28.3135C131.31 27.5322 130.724 27.0195 129.259 26.6899L127.099 26.2017C124.56 25.6401 123.351 24.4438 123.351 22.4785V22.4663C123.351 20.0615 125.548 18.4014 128.698 18.4014C131.945 18.4014 133.886 20.0127 134.081 22.1733V22.1978H131.225L131.212 22.1611C130.993 21.3188 130.114 20.6353 128.686 20.6353C127.331 20.6353 126.354 21.2944 126.354 22.2954V22.3076C126.354 23.0889 126.916 23.5649 128.356 23.8945L130.517 24.3706C133.129 24.9565 134.362 26.0674 134.362 28.0083V28.0327C134.362 30.5718 131.981 32.2686 128.698 32.2686ZM138.668 16.4238C137.667 16.4238 136.849 15.6304 136.849 14.6294C136.849 13.6406 137.667 12.835 138.668 12.835C139.657 12.835 140.475 13.6406 140.475 14.6294C140.475 15.6304 139.657 16.4238 138.668 16.4238ZM137.142 32V18.6577H140.182V32H137.142ZM149.359 32.2686C145.355 32.2686 142.938 29.6562 142.938 25.335V25.3105C142.938 21.0259 145.392 18.4014 149.359 18.4014C153.339 18.4014 155.78 21.0137 155.78 25.3105V25.335C155.78 29.6562 153.351 32.2686 149.359 32.2686ZM149.359 29.8027C151.471 29.8027 152.667 28.1548 152.667 25.3472V25.3228C152.667 22.5151 151.459 20.855 149.359 20.855C147.247 20.855 146.039 22.5151 146.039 25.3228V25.3472C146.039 28.1548 147.247 29.8027 149.359 29.8027ZM158.512 32V18.6577H161.551V20.6963H161.759C162.394 19.2681 163.675 18.4014 165.604 18.4014C168.582 18.4014 170.206 20.1958 170.206 23.3696V32H167.166V24.0776C167.166 22.0024 166.324 20.9526 164.481 20.9526C162.674 20.9526 161.551 22.2222 161.551 24.2241V32H158.512Z" fill="black"/>
</svg>
