<svg width="201" height="331" viewBox="0 0 201 331" fill="none" xmlns="http://www.w3.org/2000/svg">
<g clip-path="url(#clip0_459_9420)">
<path d="M9.52899 292.275C7.99351 295.024 6.98388 300.083 8.51936 301.636C11.8638 305.057 24.5472 296.913 30.9415 300.838C33.4866 302.392 35.4848 306.128 34.0125 315.3H61.9665C62.8289 316.937 66.636 323.675 75.7858 327.075C83.6735 329.992 90.7619 328.649 92.9915 328.145C92.3815 323.989 96.1466 320.589 100.059 320.652C103.866 320.715 107.421 324.094 106.811 328.145C109.798 328.565 114.446 328.859 119.705 327.6C131.42 324.829 137.31 316.622 138.761 314.481C147.49 314.397 156.198 314.292 164.928 314.209C167.788 304.113 171.658 300.964 175.024 300.293C180.03 299.264 184.321 303.63 188.233 301.909C191.388 300.524 192.124 296.137 192.187 292.275C131.378 292.904 70.338 291.645 9.50795 292.275H9.52899Z" fill="#603813" stroke="#D2A329" stroke-width="4" stroke-miterlimit="10"/>
<path d="M190.967 38.7253C192.503 35.9757 193.512 30.9173 191.977 29.3641C188.632 25.9429 175.949 34.0867 169.555 30.1617C167.009 28.6085 165.011 24.8724 166.484 15.7001H138.53C137.667 14.063 133.86 7.32543 124.71 3.92517C116.823 1.00767 109.734 2.35098 107.504 2.85472C108.114 7.01059 104.349 10.4108 100.437 10.3479C96.63 10.2849 93.0752 6.90564 93.6852 2.85472C90.6984 2.43494 86.0499 2.14109 80.7914 3.40044C69.0755 6.17102 63.1861 14.3778 61.7347 16.5187C53.0056 16.6027 44.2976 16.7076 35.5685 16.7916C32.7079 26.8874 28.8377 30.0358 25.4723 30.7074C20.4662 31.7359 16.1753 27.3701 12.263 29.0913C9.10788 30.4765 8.3717 34.8633 8.30859 38.7253C69.1176 38.0956 130.158 39.355 190.988 38.7253H190.967Z" fill="#603813" stroke="#D2A329" stroke-width="4" stroke-miterlimit="10"/>
<path d="M193.323 292.275H9.52838C6.20502 255.229 2.31375 215.056 2.10341 172.175C1.87204 124.256 4.62748 79.4862 8.26635 38.7251C70.1271 38.7251 129.085 38.7251 190.946 38.7251C194.206 75.5612 198.644 115.588 198.876 158.091C199.128 206.303 196.94 251.199 193.302 292.275H193.323Z" fill="#603813" stroke="#D2A329" stroke-width="4" stroke-miterlimit="10"/>
<path d="M189.894 295.234L10.6641 294.878C11.0427 294.059 11.0216 293.03 11.2951 291.687C11.4844 290.743 11.4002 289.735 11.3161 289.084C41.3105 289.357 70.5897 289.609 100.584 289.924C131.104 290.239 161.12 289.861 191.408 289.924C191.514 290.995 190.525 290.68 190.462 291.708C190.378 292.779 190.083 294.416 189.894 295.213V295.234Z" fill="#603813"/>
<path d="M189.052 41.0131L10.2849 41.3909C10.1797 39.6698 10.3059 38.3055 10.4532 37.34C10.6425 36.1436 11.0421 34.3176 11.1052 34.3386C40.5737 34.5904 71.3674 35.2411 100.836 35.5769C130.388 35.9337 160.362 36.2696 189.683 36.3325C189.578 36.6054 188.758 40.8032 189.031 41.0131H189.052Z" fill="#603813"/>
<path d="M101.719 289.924C144.062 289.924 178.388 235.27 178.388 167.851C178.388 100.431 144.062 45.7773 101.719 45.7773C59.3765 45.7773 25.0508 100.431 25.0508 167.851C25.0508 235.27 59.3765 289.924 101.719 289.924Z" fill="url(#paint0_linear_459_9420)" stroke="#D2AD29" stroke-width="4" stroke-miterlimit="10"/>
</g>
<defs>
<linearGradient id="paint0_linear_459_9420" x1="178.787" y1="58.7696" x2="38.2869" y2="280.476" gradientUnits="userSpaceOnUse">
<stop offset="0.15625" stop-color="#F1F6F7"/>
<stop offset="0.46875" stop-color="#C3F8FC"/>
<stop offset="0.760417" stop-color="#EFF3F3"/>
</linearGradient>
<clipPath id="clip0_459_9420">
<rect width="201" height="331" fill="white"/>
</clipPath>
</defs>
</svg>
