<svg width="775" height="140" viewBox="0 0 775 140" fill="none" xmlns="http://www.w3.org/2000/svg">
<path d="M21.5093 3H752.569C762.514 3 771.078 12.0156 771.078 23.7876V116.212C771.078 127.984 762.514 137 752.569 137H21.5093C11.5639 137 3 127.984 3 116.212V23.7876C3 12.0156 11.5639 3 21.5093 3Z" fill="#2B3C12" fill-opacity="0.76" stroke="#57EB23" stroke-width="6"/>
<path d="M85.0474 1V135M183.94 1V135M283.311 1V135M382.203 1V135M481.574 1V135M580.467 1V135M675.538 1V135" stroke="#57EB23" stroke-width="0.2"/>
<path d="M773.989 35.7852L0.0615717 35.9179M773.995 72.3935L0.0673115 72.5262M774 107.587L0.0728295 107.72" stroke="#57EB23" stroke-width="0.2"/>
<path d="M26.7161 43.7885L29.6065 53.7039C29.6065 53.7039 28.2725 49.557 25.6362 54.3158C23 59.0747 32.4968 71.4689 32.4968 71.4689L35.8 83.0369L40.7549 88.4077L36.7529 90.337L36.2129 94.1917L23 97.91C45.7097 122.698 63.8774 123.525 87 99.3423L72.7707 95.9117L69.6581 90.337L67.4347 92.4811L68.8323 87.1683L74.2 80.9712L77.0903 71.8821C77.0903 71.8821 87.8258 61.1404 84.332 53.4579C83.5201 51.6726 80.3936 54.117 80.3936 54.117L83.4427 42.7376C83.4427 35.8763 79.2265 30.3752 76.328 27.2998C60.5655 10.5756 36.7529 24.2981 36.7529 24.2981C36.7529 24.2981 28.9395 28.7796 26.7161 43.7885Z" stroke="#57EB23" stroke-width="3"/>
<g style="mix-blend-mode:luminosity">
<path d="M45.4686 99.1775L42.374 85.5612L68.3687 84.6328L65.8931 99.1775H45.4686Z" fill="#E7D5BF" stroke="black"/>
<path d="M26.5918 99.1775L38.9702 95.1545L55.3717 102.581L71.1542 96.0829L86.0083 99.1775C76.7245 111.246 52.5865 131.671 26.5918 99.1775Z" fill="#124D1E" stroke="black" stroke-width="0.6"/>
<path d="M52.14 102.835L51.1184 98.7488H55.4294H59.7783L59.0124 102.834L55.4368 104.209L52.14 102.835Z" fill="#18341F" stroke="black"/>
<path d="M42.993 89.8936H39.8984L43.9214 92.6787L42.993 89.8936Z" fill="#091B0D" stroke="black" stroke-width="0.6"/>
<path d="M53.2052 99.487L43.3025 92.3694L39.5889 90.2031L38.3511 94.5356L53.2052 104.748V99.487Z" fill="#02310C" stroke="black"/>
<path d="M67.4401 90.5122H70.5347L66.5117 93.2974L67.4401 90.5122Z" fill="#091B0D" stroke="black" stroke-width="0.6"/>
<path d="M57.2284 99.7965L67.1311 92.6789L70.8447 90.5127L72.0825 94.8451L57.2284 105.057V99.7965Z" fill="#02310C" stroke="black"/>
<path d="M36.7913 80.6581L30.406 53.3935C30.319 53.0199 30.2789 52.6368 30.2872 52.2536C30.58 38.3807 43.1987 27.6409 56.9361 28.6226C69.8987 29.5497 80.382 40.6658 79.7577 53.7302C79.7397 54.0916 79.6803 54.4501 79.5781 54.7992C77.2812 62.6512 74.9856 70.5032 72.6887 78.3552C72.5008 78.9988 72.1707 79.5987 71.7232 80.1141L62.8628 90.3071C61.9084 91.4047 60.4858 92.0414 58.9858 92.0414H52.1571C51.0466 92.0414 49.9679 91.6923 49.0895 91.0502L38.6297 83.4013C37.6973 82.7196 37.0468 81.7488 36.7927 80.6594L36.7913 80.6581Z" fill="#FFE8D4"/>
<path d="M50.4206 48.1536C46.085 48.11 41.7494 48.0663 37.4138 48.0227L34.168 50.5532L51.3833 49.9956L50.4206 48.1536Z" fill="#460000"/>
<path d="M60.2483 48.1536C64.5839 48.11 68.9195 48.0663 73.2551 48.0227L76.5009 50.5532L59.2856 49.9956L60.2483 48.1536Z" fill="#460000"/>
<path opacity="0.82" d="M50.7431 56.9041C51.0166 56.6996 51.3936 56.3464 51.3853 55.9169C51.3757 55.4425 50.9019 55.133 50.3356 54.6939C49.7928 54.274 49.0691 53.6618 48.2611 52.811H41.1065L35.3979 55.9169C37.275 56.8509 39.1534 57.7862 41.0305 58.7202C42.3564 58.3057 43.8564 57.9089 45.5166 57.5858C47.4254 57.2136 49.1851 57.0091 50.7431 56.9041Z" fill="white"/>
<path d="M41.1641 52.8101C40.8409 54.9547 42.6019 56.7558 44.4748 56.7586C46.3491 56.7599 48.1156 54.9575 47.7924 52.8101H41.1641Z" fill="#42210B"/>
<path opacity="0.82" d="M59.6507 57.1018C59.38 56.9123 59.0001 56.5824 58.9808 56.1515C58.9587 55.677 59.3841 55.3416 59.891 54.8712C60.3744 54.4227 61.0181 53.7709 61.7239 52.8765C63.9738 52.7429 66.2238 52.6107 68.4724 52.4771L74.0608 55.2585C72.3508 56.296 70.6409 57.3336 68.931 58.3698C67.6506 58.0031 66.1644 57.6622 64.4987 57.425C62.6962 57.1686 61.0609 57.0896 59.6479 57.0991L59.6507 57.1018Z" fill="white"/>
<path d="M68.9794 52.4486C69.4421 54.5701 67.8026 56.4721 65.9352 56.5839C64.0651 56.6971 62.1825 55.001 62.3648 52.8386C64.5692 52.7077 66.775 52.5782 68.9794 52.4473V52.4486Z" fill="#42210B"/>
<path opacity="0.35" d="M34.0044 68.7704L49.0457 91.0203L38.3345 83.186C37.5914 82.642 37.072 81.8689 36.869 80.999L34.0044 68.769V68.7704Z" fill="#C59B6D"/>
<path opacity="0.35" d="M76.3699 65.7568L62.457 90.769L72.3989 79.3312L76.3699 65.7568Z" fill="#C59B6D"/>
<path d="M36.7417 82.2556L30.3888 54.876C30.3022 54.5008 30.2623 54.1161 30.2706 53.7313C30.5619 39.7998 43.1166 29.0147 56.7843 30.0006C69.6811 30.9316 80.1112 42.0946 79.4901 55.2142C79.4722 55.577 79.4132 55.9371 79.3115 56.2876C77.0262 64.1727 74.7423 72.0579 72.457 79.9431C72.2701 80.5893 71.9417 81.1918 71.4964 81.7093L62.681 91.9454C61.7314 93.0476 60.316 93.687 58.8236 93.687H52.0296C50.9247 93.687 49.8515 93.3364 48.9775 92.6916L38.5707 85.0104C37.6431 84.3258 36.9959 83.351 36.743 82.257L36.7417 82.2556Z" fill="#FFE8D4"/>
<path d="M58.7952 93.687H52.0501C50.9205 93.687 49.8059 93.322 48.9109 92.6615L38.5791 85.0201C37.6268 84.316 36.9597 83.3082 36.6991 82.1833L30.392 54.9501C30.3033 54.5647 30.2624 54.167 30.2706 53.7707C30.4097 47.1016 33.463 40.6818 38.6487 36.1591C43.6761 31.7752 50.2834 29.5295 56.7842 29.9993C69.9182 30.9486 80.104 42.2793 79.4901 55.2565C79.4724 55.631 79.411 56.0028 79.3073 56.3623L72.5022 79.8899C72.3085 80.5599 71.9756 81.1728 71.5145 81.7094L62.7612 91.892C61.7816 93.0319 60.3355 93.687 58.7952 93.687ZM55.0788 30.2799C49.2301 30.2799 43.4101 32.467 38.8874 36.4124C33.7741 40.8725 30.7631 47.2011 30.6253 53.7775C30.6171 54.1466 30.6553 54.517 30.7385 54.8765L37.0456 82.1084C37.2885 83.1557 37.9092 84.094 38.796 84.749L49.1278 92.3905C49.96 93.006 50.9982 93.3451 52.0501 93.3451H58.7952C60.229 93.3451 61.5742 92.7364 62.4869 91.6755L71.2402 81.4942C71.67 80.9944 71.9797 80.4238 72.1598 79.8L78.9649 56.2711C79.0617 55.9374 79.119 55.5901 79.1354 55.2415C79.7398 42.4468 69.7013 31.2768 56.7583 30.3412C56.2003 30.3003 55.6396 30.2812 55.0816 30.2812L55.0788 30.2799Z" fill="black"/>
<path d="M50.3307 48.1194C45.9951 48.0758 41.6595 48.0322 37.3239 47.9885L34.0781 50.5191L51.2934 49.9614L50.3307 48.1194Z" fill="#460000"/>
<path d="M33.5532 50.707L37.2604 47.8179L50.4439 47.9501L51.5807 50.1234L33.5546 50.707H33.5532ZM37.3874 48.1601L34.6029 50.3307L51.0075 49.8003L50.2174 48.2896L37.3861 48.1601H37.3874Z" fill="black"/>
<path d="M60.1575 48.1194C64.4931 48.0758 68.8287 48.0322 73.1643 47.9885L76.4101 50.5191L59.1948 49.9614L60.1575 48.1194Z" fill="#460000"/>
<path d="M76.9352 50.707L58.9092 50.1234L60.0459 47.9501L73.2295 47.8179L76.9366 50.707H76.9352ZM59.481 49.8003L75.8855 50.3307L73.101 48.1601L60.2697 48.2896L59.4796 49.8003H59.481Z" fill="black"/>
<path d="M50.6075 56.817C51.3782 55.8517 50.852 55.6376 49.9487 55.0868C49.1172 54.5455 48.3479 53.9088 47.6932 53.1835L48.1683 53.3839C45.7899 53.1835 43.4087 52.7513 41.0137 53.1548L41.2126 53.1044C39.4585 54.3615 37.6021 55.4931 35.6864 56.513L35.6615 55.2382C36.5897 55.7276 37.4944 56.2566 38.3825 56.8116C39.2679 57.3747 40.1449 57.9541 40.9709 58.6249L40.9046 58.7463C38.83 58.2009 36.877 57.4101 34.9502 56.5266L33.7251 55.9512C35.9751 54.6083 38.3632 53.418 40.8162 52.4486L40.9557 52.3913C41.5717 52.4622 42.1877 52.5249 42.8037 52.5522C44.6974 52.6967 46.5565 52.2086 48.4349 52.1609L48.6448 52.3695C49.2981 53.0185 49.9376 53.6729 50.6241 54.2974C51.2346 54.8182 52.0757 55.6935 51.3506 56.4789C51.16 56.6902 50.9307 56.8238 50.6973 56.9247L50.6075 56.817Z" fill="black"/>
<path opacity="0.82" d="M50.6518 56.8713C50.9253 56.6668 51.3023 56.3137 51.294 55.8842C51.2844 55.4097 50.8106 55.1002 50.2443 54.6612C49.7015 54.2413 48.9778 53.6291 48.1698 52.7783H41.0151L35.3066 55.8842C37.1837 56.8182 39.0621 57.7535 40.9392 58.6874C42.2651 58.273 43.7651 57.8762 45.4253 57.5531C47.3341 57.1808 49.0938 56.9763 50.6518 56.8713Z" fill="white"/>
<path d="M41.0737 52.7764C40.7505 54.921 42.5115 56.7221 44.3845 56.7249C46.2587 56.7262 48.0253 54.9238 47.7021 52.7764H41.0737Z" fill="#42210B"/>
<path d="M44.3861 56.8955H44.3834C43.4345 56.8955 42.4953 56.4633 41.8102 55.712C41.0685 54.8994 40.7342 53.8196 40.8958 52.752L40.9179 52.6047H47.8585L47.8806 52.752C48.0422 53.8209 47.7065 54.9008 46.9621 55.7134C46.2742 56.4646 45.3364 56.8955 44.3861 56.8955ZM41.2329 52.947C41.1362 53.8673 41.4414 54.7862 42.0823 55.487C42.6997 56.1633 43.5381 56.5519 44.3834 56.5532H44.3861C45.2314 56.5532 46.0712 56.166 46.69 55.4898C47.3322 54.789 47.6375 53.8686 47.5422 52.947H41.2342H41.2329Z" fill="black"/>
<path d="M59.5546 57.1232C58.0022 56.5205 58.487 55.3834 59.4552 54.4972C60.0988 53.8332 60.6941 53.1433 61.3046 52.4561L61.5007 52.2353C62.7839 52.1725 64.0767 52.373 65.3612 52.3866C66.5794 52.3961 67.7838 52.2393 68.9813 52.0239C71.1084 52.7179 73.1829 53.5605 75.1871 54.5231L76.4301 55.1489C75.1429 55.8593 73.7658 56.5996 72.4205 57.1954C71.455 57.6249 70.4799 58.038 69.4482 58.3639L69.3736 58.2466C70.9371 56.8423 72.6595 55.6629 74.4509 54.5531L74.5089 55.8265C72.531 54.9212 70.6028 53.9014 68.77 52.7506L68.9716 52.7888C66.5545 52.5284 64.2065 53.0983 61.846 53.4392L62.3074 53.2101C61.7024 53.9736 60.9759 54.654 60.1817 55.243C59.3198 55.8429 58.8019 56.0924 59.6375 57.0086L59.556 57.1204L59.5546 57.1232Z" fill="black"/>
<path opacity="0.82" d="M59.5594 57.0691C59.2887 56.8796 58.9088 56.5496 58.8895 56.1188C58.8674 55.6443 59.2928 55.3089 59.7997 54.8385C60.2831 54.39 60.9268 53.7382 61.6326 52.8438C63.8825 52.7102 66.1325 52.578 68.3811 52.4443L73.9695 55.2257C72.2595 56.2633 70.5496 57.3009 68.8397 58.3371C67.5593 57.9703 66.0731 57.6295 64.4074 57.3922C62.6049 57.1359 60.9696 57.0568 59.5566 57.0664L59.5594 57.0691Z" fill="white"/>
<path d="M68.8866 52.4159C69.3493 54.5374 67.7098 56.4394 65.8424 56.5512C63.9723 56.6644 62.0897 54.9683 62.272 52.8059C64.4764 52.675 66.6822 52.5454 68.8866 52.4146V52.4159Z" fill="#42210B"/>
<path d="M65.664 56.728C64.7773 56.728 63.8892 56.3585 63.2027 55.6958C62.4058 54.9282 62.0011 53.8702 62.0922 52.7931L62.1047 52.6458L69.0314 52.2368L69.0632 52.3813C69.2938 53.4366 69.0314 54.5342 68.3436 55.3891C67.7082 56.1799 66.8008 56.6652 65.8533 56.7225C65.7897 56.7266 65.7262 56.728 65.664 56.728ZM62.4431 52.9676C62.4072 53.8934 62.7732 54.7933 63.461 55.4559C64.124 56.0953 64.99 56.4321 65.8325 56.3817C66.6764 56.3312 67.4872 55.8935 68.059 55.1818C68.6516 54.4442 68.896 53.5089 68.74 52.5954L62.4431 52.9676Z" fill="black"/>
<path d="M53.3514 54.3922C53.8059 55.9725 53.8501 57.6249 53.6774 59.2447C53.6263 61.9388 53.2617 64.7312 51.9716 67.1635L51.9385 67.1512C52.7161 64.0208 53.8197 60.8685 53.4827 57.6249L53.3169 54.3963L53.3528 54.3909L53.3514 54.3922Z" fill="black"/>
<path d="M54.2747 72.5535C53.6504 72.5535 53.1144 72.2113 52.9225 72.0885C51.9584 71.4709 51.5205 70.631 51.5026 70.5956C50.9625 69.6834 50.2982 69.1558 49.765 68.7318C49.1849 68.2709 48.7264 67.9055 48.8065 67.292C48.87 66.8066 49.2678 66.3553 49.9874 65.9545L50.1697 66.249C49.5523 66.5939 49.2126 66.9593 49.1642 67.3342C49.1103 67.7433 49.4128 68.0051 49.9971 68.4686C50.5523 68.9104 51.2443 69.4598 51.823 70.4361C51.8313 70.4524 52.2443 71.2391 53.1241 71.8036C53.3327 71.9372 53.8879 72.2944 54.4832 72.1935C55.1061 72.0885 55.9003 71.2105 56.4818 70.5697C56.7346 70.2902 56.9542 70.0488 57.142 69.8811C57.8478 69.2499 58.4652 68.9145 58.9624 68.6431C59.7207 68.2314 60.0343 68.0596 59.8616 67.2906C59.7511 66.7943 59.1517 66.3526 58.0812 65.9776L58.2056 65.6572C59.4169 66.0813 60.0729 66.5925 60.2138 67.2197C60.4403 68.2341 59.9238 68.515 59.142 68.9404C58.6627 69.2008 58.0647 69.5267 57.3906 70.1293C57.2166 70.2847 56.9929 70.5315 56.7567 70.7919C56.1061 71.5091 55.2967 72.4035 54.5481 72.5289C54.457 72.5439 54.3658 72.5507 54.2774 72.5507L54.2747 72.5535Z" fill="black"/>
<path opacity="0.35" d="M33.9175 70.1693L48.9588 92.4192L38.2475 84.5849C37.5045 84.0409 36.9851 83.2678 36.7821 82.398L33.9175 70.168V70.1693Z" fill="#C59B6D"/>
<path opacity="0.35" d="M75.7962 67.6921L61.8848 92.7043L71.8266 81.2665L75.7962 67.6921Z" fill="#C59B6D"/>
<path d="M55.0102 57.9497C55.2049 59.1182 55.2422 60.2689 55.3279 61.4387C55.6966 63.3571 56.5046 65.1432 57.0557 67.0275L57.0226 67.0411C55.8707 65.3722 55.4826 63.398 55.2118 61.4551C54.9453 60.3371 54.7008 59.0323 55.0102 57.9497Z" fill="black"/>
<path d="M30.8586 55.377C29.3296 53.0278 26.7329 53.5023 26.5589 53.7586C26.3918 54.0054 26.3089 54.2931 26.2992 54.5862C26.2357 56.4909 26.3766 58.9274 27.1128 61.6488C28.6749 67.4175 32.6804 69.9589 34.6141 71.8527C33.661 66.3254 32.0022 60.7053 30.8586 55.3784V55.377Z" fill="#FFE5D1"/>
<path d="M30.7663 55.3433C29.2373 52.9941 26.6407 53.4686 26.4666 53.7249C26.2995 53.9717 26.2166 54.2594 26.207 54.5525C26.1434 56.4572 26.2843 58.8937 27.0205 61.6151C28.5826 67.3838 32.5881 69.9252 34.5218 71.8191C33.5688 66.2917 31.9099 60.6716 30.7663 55.3447V55.3433Z" fill="#FFE5D1"/>
<path d="M34.7927 72.3293L34.3922 71.938C34.051 71.604 33.6366 71.2413 33.196 70.8582C31.0635 68.9971 28.1436 66.4502 26.8467 61.6577C26.2224 59.3494 25.9461 56.958 26.0276 54.5474C26.0387 54.2106 26.1381 53.8943 26.3163 53.6325C26.453 53.4308 27.0152 53.3285 27.5165 53.3339C28.1685 53.3394 29.8038 53.5385 30.9212 55.2523L30.9447 55.3082C31.395 57.4038 31.935 59.5921 32.4599 61.7095C33.2775 65.0158 34.1228 68.4326 34.7016 71.7908L34.7941 72.3293H34.7927ZM27.4806 53.6762C27.0041 53.6762 26.6712 53.7743 26.6077 53.8289C26.4751 54.0266 26.395 54.2829 26.3867 54.5583C26.3066 56.9361 26.5787 59.2962 27.1947 61.5732C28.4654 66.2661 31.3397 68.7748 33.4391 70.6059C33.7237 70.8541 33.9985 71.094 34.2513 71.3245C33.6781 68.1463 32.8797 64.9177 32.1063 61.7886C31.5842 59.6794 31.0455 57.4992 30.5952 55.4077C29.79 54.1888 28.721 53.8111 27.9641 53.7089C27.7914 53.6857 27.6284 53.6762 27.4806 53.6762Z" fill="black"/>
<path d="M32.4389 68.0478C29.1406 65.0073 28.095 62.5 27.4555 60.2449C26.979 58.5624 26.4293 55.1429 27.3174 54.8648C27.8657 54.6957 28.6447 55.6583 29.8878 57.503C30.3629 58.2079 30.693 58.8214 30.9126 59.2264C31.3215 59.9844 31.693 60.7725 32.0176 61.5688L31.682 61.6915C31.3615 60.9061 30.9955 60.129 30.5922 59.3818C30.3767 58.981 30.0494 58.377 29.5839 57.6857C29.1475 57.0381 27.827 55.0693 27.4293 55.1879C27.0715 55.2997 27.0978 57.668 27.8022 60.1549C28.4279 62.3636 29.4527 64.8192 32.6875 67.8024L32.4361 68.0478H32.4389Z" fill="black"/>
<path d="M28.0222 59.123C27.8385 58.4495 27.8109 57.7678 27.9407 57.0997C28.0278 56.6498 28.1714 56.0649 28.3164 55.7717L28.6438 55.9149C28.5139 56.1794 28.3758 56.752 28.2957 57.1611C28.1755 57.7801 28.2018 58.4113 28.3717 59.0372L28.0222 59.123Z" fill="black"/>
<path d="M32.4751 64.7621C32.4571 64.7525 30.7099 63.6427 30.6188 61.8621C30.5801 61.0958 30.8688 60.6691 31.0607 60.3882L31.1201 60.2996L31.4268 60.4795L31.3632 60.5736C31.1864 60.834 30.9447 61.1899 30.9779 61.8457C31.0594 63.4355 32.6353 64.4567 32.6519 64.4649L32.4737 64.7621H32.4751Z" fill="black"/>
<path opacity="0.35" d="M32.5378 68.1459C30.6055 66.4007 29.5116 64.6459 28.9135 63.4966C28.7118 63.1107 28.0668 61.8305 27.6055 60.0266C27.1898 58.3987 26.6994 55.4646 27.3486 55.2464C27.995 55.0297 29.5544 57.5752 30.1207 58.4996C30.6428 59.3517 30.8638 59.8752 31.0999 60.3906C30.9936 60.5283 30.8886 60.666 30.7823 60.8037C30.6704 61.1214 30.3776 62.0415 30.7823 62.399C30.9853 63.8933 32.3168 64.7032 32.5364 64.8327V68.1459H32.5378Z" fill="#C59B6D"/>
<path d="M78.4827 56.0394C80.0117 53.6902 82.6084 54.1646 82.7824 54.421C82.9495 54.6677 83.0324 54.9554 83.0421 55.2486C83.1056 57.1533 82.9647 59.5897 82.2285 62.3112C80.6664 68.0798 76.6609 70.6213 74.7272 72.5151C75.6803 66.9877 77.3391 61.3677 78.4827 56.0407V56.0394Z" fill="#FFE5D1"/>
<path d="M78.575 56.0062C80.104 53.657 82.7007 54.1314 82.8747 54.3878C83.0418 54.6345 83.1247 54.9222 83.1344 55.2154C83.1979 57.1201 83.057 59.5565 82.3208 62.278C80.7587 68.0466 76.7532 70.5881 74.8195 72.4819C75.7726 66.9545 77.4314 61.3345 78.575 56.0075V56.0062Z" fill="#FFE5D1"/>
<path d="M74.5491 72.9917L74.9496 72.6004C75.2908 72.2663 75.7052 71.9036 76.1458 71.5205C78.2783 69.6594 81.1982 67.1125 82.4951 62.3201C83.1194 60.0118 83.3957 57.6203 83.3142 55.2098C83.3031 54.873 83.2037 54.5567 83.0255 54.2949C82.8888 54.0931 82.3266 53.9908 81.8253 53.9963C81.1733 54.0018 79.538 54.2008 78.4206 55.9147L78.3971 55.9706C77.9468 58.0662 77.4068 60.2545 76.8819 62.3719C76.0643 65.6782 75.219 69.095 74.6402 72.4531L74.5477 72.9917H74.5491ZM81.8612 54.3385C82.3377 54.3385 82.6705 54.4367 82.7341 54.4912C82.8667 54.6889 82.9468 54.9453 82.9551 55.2207C83.0352 57.5985 82.7631 59.9586 82.1471 62.2355C80.8764 66.9285 78.0021 69.4372 75.9027 71.2683C75.6181 71.5164 75.3433 71.7564 75.0905 71.9868C75.6637 68.8087 76.462 65.58 77.2355 62.451C77.7576 60.3417 78.2963 58.1616 78.7466 56.0701C79.5518 54.8512 80.6208 54.4735 81.3777 54.3712C81.5504 54.3481 81.7134 54.3385 81.8612 54.3385Z" fill="black"/>
<path d="M76.9024 68.7106C80.2007 65.6702 81.2463 63.1628 81.8858 60.9077C82.3623 59.2252 82.912 55.8057 82.0239 55.5276C81.4756 55.3585 80.6966 56.3211 79.4535 58.1658C78.9784 58.8707 78.6483 59.4843 78.4287 59.8892C78.0198 60.6473 77.6483 61.4354 77.3237 62.2316L77.6593 62.3543C77.9798 61.569 78.3458 60.7918 78.7491 60.0447C78.9646 59.6438 79.2919 59.0398 79.7574 58.3485C80.1938 57.7009 81.5143 55.7321 81.9121 55.8507C82.2698 55.9625 82.2435 58.3308 81.5391 60.8177C80.9134 63.0265 79.8886 65.482 76.6538 68.4652L76.9052 68.7106H76.9024Z" fill="black"/>
<path d="M81.3196 59.7854C81.5033 59.1119 81.5309 58.4301 81.4011 57.7621C81.314 57.3121 81.1704 56.7272 81.0254 56.4341L80.698 56.5772C80.8279 56.8417 80.966 57.4144 81.0461 57.8234C81.1663 58.4424 81.14 59.0737 80.9701 59.6995L81.3196 59.7854Z" fill="black"/>
<path d="M76.8667 65.4247C76.8847 65.4151 78.6319 64.3053 78.723 62.5247C78.7617 61.7584 78.473 61.3317 78.2811 61.0508L78.2217 60.9622L77.915 61.1421L77.9786 61.2362C78.1554 61.4966 78.3971 61.8525 78.3639 62.5083C78.2824 64.0981 76.7065 65.1193 76.6899 65.1275L76.8681 65.4247H76.8667Z" fill="black"/>
<path opacity="0.35" d="M76.804 68.8087C78.7363 67.0635 79.8302 65.3088 80.4283 64.1594C80.6299 63.7736 81.275 62.4933 81.7363 60.6895C82.152 59.0615 82.6424 56.1274 81.9932 55.9093C81.3468 55.6925 79.7874 58.238 79.2211 59.1624C78.699 60.0146 78.478 60.538 78.2418 61.0534C78.3482 61.1911 78.4532 61.3288 78.5595 61.4665C78.6714 61.7842 78.9642 62.7044 78.5595 63.0619C78.3565 64.5562 77.025 65.3661 76.8054 65.4956V68.8087H76.804Z" fill="#C59B6D"/>
<path d="M62.6592 77.7984L60.023 79.5115C59.7954 79.6597 59.5248 79.7395 59.2493 79.7395H50.7949C50.2901 79.7395 49.8018 79.5799 49.4026 79.2868L47.3801 77.7984H62.6592Z" fill="white"/>
<path d="M46.685 77.5949H63.2871L60.0785 79.6809C59.8129 79.8535 59.5044 79.9431 59.1828 79.9431H50.7283C50.179 79.9431 49.6379 79.7672 49.204 79.4481L46.685 77.5949ZM61.8981 78.0036H47.942L49.468 79.1256C49.8259 79.3894 50.2746 79.5344 50.7283 79.5344H59.1828C59.417 79.5344 59.643 79.4676 59.836 79.3422L61.8997 78.002L61.8981 78.0036Z" fill="black"/>
<path opacity="0.35" d="M50.9417 80.0708C51.9153 80.2697 53.0457 80.4909 54.0193 80.6897H55.1591C56.2375 80.4909 57.1592 80.2697 58.2368 80.0708H50.9409H50.9417Z" fill="#C5806D"/>
<path d="M28.7578 44.6175L32.4713 60.4947L34.0187 44.6175L39.5889 38.4283C53.7892 38.4283 60.8549 37.2464 73.3202 37.8093L78.8905 45.5459L79.5094 59.2567L83.223 44.6175C83.223 44.6175 83.0714 39.9782 81.9851 37.285C80.2376 32.9525 77.6527 30.4769 77.6527 30.4769C63.0846 12.2887 37.7322 23.2653 32.4713 32.2389C32.4713 32.2389 30.9127 35.0936 29.9957 38.4283C29.3547 40.7591 28.7578 44.6175 28.7578 44.6175Z" fill="#5F3232" stroke="black" stroke-linecap="round"/>
</g>
<path d="M151.14 49.03C151.14 49.87 150.923 50.61 150.49 51.25C150.063 51.89 149.447 52.3933 148.64 52.76C147.833 53.12 146.857 53.3 145.71 53.3C144.51 53.3 143.48 53.1233 142.62 52.77C141.76 52.41 141.04 51.95 140.46 51.39L141.9 49.78C142.4 50.2267 142.96 50.5767 143.58 50.83C144.2 51.0833 144.897 51.21 145.67 51.21C146.163 51.21 146.607 51.1333 147 50.98C147.4 50.8267 147.713 50.6033 147.94 50.31C148.173 50.01 148.29 49.6433 148.29 49.21C148.29 48.83 148.21 48.51 148.05 48.25C147.89 47.99 147.613 47.7567 147.22 47.55C146.833 47.3433 146.293 47.1367 145.6 46.93C144.58 46.6167 143.74 46.2733 143.08 45.9C142.42 45.52 141.93 45.0733 141.61 44.56C141.29 44.04 141.13 43.4267 141.13 42.72C141.13 41.9267 141.35 41.2433 141.79 40.67C142.23 40.09 142.823 39.6467 143.57 39.34C144.323 39.0267 145.163 38.87 146.09 38.87C147.117 38.87 148.02 39.02 148.8 39.32C149.58 39.6133 150.267 40.0333 150.86 40.58L149.49 42.13C149.017 41.7233 148.503 41.4233 147.95 41.23C147.403 41.0367 146.847 40.94 146.28 40.94C145.833 40.94 145.433 41 145.08 41.12C144.733 41.24 144.46 41.4167 144.26 41.65C144.06 41.8833 143.96 42.18 143.96 42.54C143.96 42.8667 144.05 43.1467 144.23 43.38C144.417 43.6067 144.733 43.82 145.18 44.02C145.627 44.2133 146.24 44.4333 147.02 44.68C147.84 44.9267 148.557 45.2233 149.17 45.57C149.79 45.9167 150.273 46.3667 150.62 46.92C150.967 47.4667 151.14 48.17 151.14 49.03ZM155.532 48.51C155.586 49.17 155.736 49.7067 155.982 50.12C156.236 50.5333 156.559 50.8367 156.952 51.03C157.346 51.2233 157.782 51.32 158.262 51.32C158.769 51.32 159.246 51.24 159.692 51.08C160.139 50.92 160.579 50.6967 161.012 50.41L162.112 51.92C161.619 52.3333 161.029 52.6667 160.342 52.92C159.662 53.1733 158.912 53.3 158.092 53.3C156.946 53.3 155.979 53.0633 155.192 52.59C154.412 52.1167 153.822 51.46 153.422 50.62C153.022 49.78 152.822 48.8133 152.822 47.72C152.822 46.6667 153.019 45.7167 153.412 44.87C153.806 44.0233 154.372 43.3533 155.112 42.86C155.852 42.36 156.746 42.11 157.792 42.11C158.766 42.11 159.606 42.3233 160.312 42.75C161.019 43.1767 161.566 43.79 161.952 44.59C162.339 45.3833 162.532 46.34 162.532 47.46C162.532 47.64 162.526 47.8233 162.512 48.01C162.506 48.1967 162.496 48.3633 162.482 48.51H155.532ZM157.802 43.97C157.162 43.97 156.636 44.2 156.222 44.66C155.816 45.1133 155.576 45.8333 155.502 46.82H159.962C159.949 45.9267 159.762 45.23 159.402 44.73C159.049 44.2233 158.516 43.97 157.802 43.97ZM165.054 53V51.17H166.544V44.23H165.054V42.41H168.554L169.044 44.84C169.431 43.94 169.918 43.2633 170.504 42.81C171.091 42.35 171.828 42.12 172.714 42.12C173.054 42.12 173.354 42.1467 173.614 42.2C173.881 42.2533 174.134 42.3233 174.374 42.41L173.584 44.63C173.378 44.5767 173.181 44.5367 172.994 44.51C172.808 44.4767 172.598 44.46 172.364 44.46C171.631 44.46 170.991 44.7467 170.444 45.32C169.904 45.8867 169.484 46.6567 169.184 47.63V51.17H171.294V53H165.054ZM172.144 46.54V43.73L172.504 42.41H174.374L173.904 46.54H172.144ZM185.077 50.21C185.077 50.6167 185.137 50.9133 185.257 51.1C185.377 51.28 185.57 51.4167 185.837 51.51L185.267 53.28C184.7 53.22 184.217 53.08 183.817 52.86C183.423 52.6333 183.12 52.2967 182.907 51.85C182.507 52.3367 182 52.7 181.387 52.94C180.78 53.18 180.143 53.3 179.477 53.3C178.397 53.3 177.54 52.9933 176.907 52.38C176.273 51.7667 175.957 50.97 175.957 49.99C175.957 48.8633 176.397 47.9967 177.277 47.39C178.163 46.7767 179.417 46.47 181.037 46.47H182.517V45.9C182.517 45.2733 182.323 44.82 181.937 44.54C181.55 44.2533 180.993 44.11 180.267 44.11C179.927 44.11 179.5 44.1567 178.987 44.25C178.48 44.3367 177.957 44.4733 177.417 44.66L176.787 42.85C177.46 42.5967 178.137 42.41 178.817 42.29C179.503 42.17 180.127 42.11 180.687 42.11C182.173 42.11 183.277 42.4267 183.997 43.06C184.717 43.6867 185.077 44.5767 185.077 45.73V50.21ZM180.337 51.39C180.737 51.39 181.14 51.2767 181.547 51.05C181.96 50.8233 182.283 50.5067 182.517 50.1V48.04H181.477C180.497 48.04 179.787 48.1967 179.347 48.51C178.913 48.8233 178.697 49.2667 178.697 49.84C178.697 50.3333 178.837 50.7167 179.117 50.99C179.397 51.2567 179.803 51.39 180.337 51.39ZM182.437 36.57L183.507 38.62L178.977 40.43L178.237 39.07L182.437 36.57ZM203.591 42.11C204.151 42.11 204.661 42.2167 205.121 42.43C205.581 42.6433 205.978 42.9567 206.311 43.37L206.451 42.41H208.751V57.36L206.111 57.08V51.96C205.778 52.3867 205.378 52.7167 204.911 52.95C204.444 53.1833 203.908 53.3 203.301 53.3C202.381 53.3 201.634 53.07 201.061 52.61C200.494 52.1433 200.078 51.49 199.811 50.65C199.551 49.81 199.421 48.8233 199.421 47.69C199.421 46.61 199.581 45.65 199.901 44.81C200.221 43.97 200.691 43.31 201.311 42.83C201.938 42.35 202.698 42.11 203.591 42.11ZM204.271 44.08C203.591 44.08 203.071 44.37 202.711 44.95C202.351 45.5233 202.171 46.44 202.171 47.7C202.171 48.5867 202.244 49.2933 202.391 49.82C202.544 50.3467 202.761 50.7233 203.041 50.95C203.328 51.1767 203.671 51.29 204.071 51.29C204.518 51.29 204.908 51.1633 205.241 50.91C205.574 50.6567 205.864 50.3333 206.111 49.94V45.12C205.878 44.7933 205.608 44.54 205.301 44.36C205.001 44.1733 204.658 44.08 204.271 44.08ZM214.283 42.41V49.75C214.283 50.3233 214.396 50.7267 214.623 50.96C214.85 51.1933 215.18 51.31 215.613 51.31C216.026 51.31 216.43 51.1867 216.823 50.94C217.216 50.6867 217.536 50.3667 217.783 49.98V42.41H220.423V53H218.123L217.983 51.7C217.603 52.22 217.116 52.6167 216.523 52.89C215.93 53.1633 215.316 53.3 214.683 53.3C213.663 53.3 212.9 53.0133 212.393 52.44C211.893 51.86 211.643 51.07 211.643 50.07V42.41H214.283ZM225.565 48.51C225.619 49.17 225.769 49.7067 226.015 50.12C226.269 50.5333 226.592 50.8367 226.985 51.03C227.379 51.2233 227.815 51.32 228.295 51.32C228.802 51.32 229.279 51.24 229.725 51.08C230.172 50.92 230.612 50.6967 231.045 50.41L232.145 51.92C231.652 52.3333 231.062 52.6667 230.375 52.92C229.695 53.1733 228.945 53.3 228.125 53.3C226.979 53.3 226.012 53.0633 225.225 52.59C224.445 52.1167 223.855 51.46 223.455 50.62C223.055 49.78 222.855 48.8133 222.855 47.72C222.855 46.6667 223.052 45.7167 223.445 44.87C223.839 44.0233 224.405 43.3533 225.145 42.86C225.885 42.36 226.779 42.11 227.825 42.11C228.799 42.11 229.639 42.3233 230.345 42.75C231.052 43.1767 231.599 43.79 231.985 44.59C232.372 45.3833 232.565 46.34 232.565 47.46C232.565 47.64 232.559 47.8233 232.545 48.01C232.539 48.1967 232.529 48.3633 232.515 48.51H225.565ZM227.835 43.97C227.195 43.97 226.669 44.2 226.255 44.66C225.849 45.1133 225.609 45.8333 225.535 46.82H229.995C229.982 45.9267 229.795 45.23 229.435 44.73C229.082 44.2233 228.549 43.97 227.835 43.97ZM248.91 48.51C248.963 49.17 249.113 49.7067 249.36 50.12C249.613 50.5333 249.936 50.8367 250.33 51.03C250.723 51.2233 251.16 51.32 251.64 51.32C252.146 51.32 252.623 51.24 253.07 51.08C253.516 50.92 253.956 50.6967 254.39 50.41L255.49 51.92C254.996 52.3333 254.406 52.6667 253.72 52.92C253.04 53.1733 252.29 53.3 251.47 53.3C250.323 53.3 249.356 53.0633 248.57 52.59C247.79 52.1167 247.2 51.46 246.8 50.62C246.4 49.78 246.2 48.8133 246.2 47.72C246.2 46.6667 246.396 45.7167 246.79 44.87C247.183 44.0233 247.75 43.3533 248.49 42.86C249.23 42.36 250.123 42.11 251.17 42.11C252.143 42.11 252.983 42.3233 253.69 42.75C254.396 43.1767 254.943 43.79 255.33 44.59C255.716 45.3833 255.91 46.34 255.91 47.46C255.91 47.64 255.903 47.8233 255.89 48.01C255.883 48.1967 255.873 48.3633 255.86 48.51H248.91ZM251.18 43.97C250.54 43.97 250.013 44.2 249.6 44.66C249.193 45.1133 248.953 45.8333 248.88 46.82H253.34C253.326 45.9267 253.14 45.23 252.78 44.73C252.426 44.2233 251.893 43.97 251.18 43.97ZM262.362 51.35C262.982 51.35 263.479 51.2433 263.852 51.03C264.232 50.81 264.422 50.5033 264.422 50.11C264.422 49.85 264.359 49.63 264.232 49.45C264.112 49.27 263.872 49.1033 263.512 48.95C263.152 48.79 262.612 48.6133 261.892 48.42C261.212 48.2467 260.615 48.0333 260.102 47.78C259.595 47.52 259.199 47.1867 258.912 46.78C258.632 46.3733 258.492 45.86 258.492 45.24C258.492 44.62 258.665 44.0767 259.012 43.61C259.359 43.1367 259.859 42.77 260.512 42.51C261.172 42.2433 261.965 42.11 262.892 42.11C263.799 42.11 264.592 42.23 265.272 42.47C265.952 42.7033 266.535 42.9967 267.022 43.35L265.942 44.96C265.515 44.6867 265.052 44.4667 264.552 44.3C264.059 44.1267 263.525 44.04 262.952 44.04C262.332 44.04 261.879 44.13 261.592 44.31C261.312 44.49 261.172 44.74 261.172 45.06C261.172 45.2867 261.242 45.48 261.382 45.64C261.529 45.7933 261.789 45.9433 262.162 46.09C262.542 46.23 263.082 46.4 263.782 46.6C264.469 46.7867 265.065 47.0067 265.572 47.26C266.085 47.5133 266.482 47.85 266.762 48.27C267.042 48.69 267.182 49.24 267.182 49.92C267.182 50.6867 266.959 51.32 266.512 51.82C266.065 52.32 265.475 52.6933 264.742 52.94C264.015 53.18 263.225 53.3 262.372 53.3C261.372 53.3 260.499 53.1567 259.752 52.87C259.005 52.5833 258.372 52.2133 257.852 51.76L259.222 50.22C259.635 50.5467 260.105 50.8167 260.632 51.03C261.165 51.2433 261.742 51.35 262.362 51.35ZM274.034 51.35C274.654 51.35 275.151 51.2433 275.524 51.03C275.904 50.81 276.094 50.5033 276.094 50.11C276.094 49.85 276.031 49.63 275.904 49.45C275.784 49.27 275.544 49.1033 275.184 48.95C274.824 48.79 274.284 48.6133 273.564 48.42C272.884 48.2467 272.287 48.0333 271.774 47.78C271.267 47.52 270.871 47.1867 270.584 46.78C270.304 46.3733 270.164 45.86 270.164 45.24C270.164 44.62 270.337 44.0767 270.684 43.61C271.031 43.1367 271.531 42.77 272.184 42.51C272.844 42.2433 273.637 42.11 274.564 42.11C275.471 42.11 276.264 42.23 276.944 42.47C277.624 42.7033 278.207 42.9967 278.694 43.35L277.614 44.96C277.187 44.6867 276.724 44.4667 276.224 44.3C275.731 44.1267 275.197 44.04 274.624 44.04C274.004 44.04 273.551 44.13 273.264 44.31C272.984 44.49 272.844 44.74 272.844 45.06C272.844 45.2867 272.914 45.48 273.054 45.64C273.201 45.7933 273.461 45.9433 273.834 46.09C274.214 46.23 274.754 46.4 275.454 46.6C276.141 46.7867 276.737 47.0067 277.244 47.26C277.757 47.5133 278.154 47.85 278.434 48.27C278.714 48.69 278.854 49.24 278.854 49.92C278.854 50.6867 278.631 51.32 278.184 51.82C277.737 52.32 277.147 52.6933 276.414 52.94C275.687 53.18 274.897 53.3 274.044 53.3C273.044 53.3 272.171 53.1567 271.424 52.87C270.677 52.5833 270.044 52.2133 269.524 51.76L270.894 50.22C271.307 50.5467 271.777 50.8167 272.304 51.03C272.837 51.2433 273.414 51.35 274.034 51.35ZM290.126 50.21C290.126 50.6167 290.186 50.9133 290.306 51.1C290.426 51.28 290.62 51.4167 290.886 51.51L290.316 53.28C289.75 53.22 289.266 53.08 288.866 52.86C288.473 52.6333 288.17 52.2967 287.956 51.85C287.556 52.3367 287.05 52.7 286.436 52.94C285.83 53.18 285.193 53.3 284.526 53.3C283.446 53.3 282.59 52.9933 281.956 52.38C281.323 51.7667 281.006 50.97 281.006 49.99C281.006 48.8633 281.446 47.9967 282.326 47.39C283.213 46.7767 284.466 46.47 286.086 46.47H287.566V45.9C287.566 45.2733 287.373 44.82 286.986 44.54C286.6 44.2533 286.043 44.11 285.316 44.11C284.976 44.11 284.55 44.1567 284.036 44.25C283.53 44.3367 283.006 44.4733 282.466 44.66L281.836 42.85C282.51 42.5967 283.186 42.41 283.866 42.29C284.553 42.17 285.176 42.11 285.736 42.11C287.223 42.11 288.326 42.4267 289.046 43.06C289.766 43.6867 290.126 44.5767 290.126 45.73V50.21ZM285.386 51.39C285.786 51.39 286.19 51.2767 286.596 51.05C287.01 50.8233 287.333 50.5067 287.566 50.1V48.04H286.526C285.546 48.04 284.836 48.1967 284.396 48.51C283.963 48.8233 283.746 49.2667 283.746 49.84C283.746 50.3333 283.886 50.7167 284.166 50.99C284.446 51.2567 284.853 51.39 285.386 51.39ZM297.378 51.35C297.998 51.35 298.495 51.2433 298.868 51.03C299.248 50.81 299.438 50.5033 299.438 50.11C299.438 49.85 299.375 49.63 299.248 49.45C299.128 49.27 298.888 49.1033 298.528 48.95C298.168 48.79 297.628 48.6133 296.908 48.42C296.228 48.2467 295.632 48.0333 295.118 47.78C294.612 47.52 294.215 47.1867 293.928 46.78C293.648 46.3733 293.508 45.86 293.508 45.24C293.508 44.62 293.682 44.0767 294.028 43.61C294.375 43.1367 294.875 42.77 295.528 42.51C296.188 42.2433 296.982 42.11 297.908 42.11C298.815 42.11 299.608 42.23 300.288 42.47C300.968 42.7033 301.552 42.9967 302.038 43.35L300.958 44.96C300.532 44.6867 300.068 44.4667 299.568 44.3C299.075 44.1267 298.542 44.04 297.968 44.04C297.348 44.04 296.895 44.13 296.608 44.31C296.328 44.49 296.188 44.74 296.188 45.06C296.188 45.2867 296.258 45.48 296.398 45.64C296.545 45.7933 296.805 45.9433 297.178 46.09C297.558 46.23 298.098 46.4 298.798 46.6C299.485 46.7867 300.082 47.0067 300.588 47.26C301.102 47.5133 301.498 47.85 301.778 48.27C302.058 48.69 302.198 49.24 302.198 49.92C302.198 50.6867 301.975 51.32 301.528 51.82C301.082 52.32 300.492 52.6933 299.758 52.94C299.032 53.18 298.242 53.3 297.388 53.3C296.388 53.3 295.515 53.1567 294.768 52.87C294.022 52.5833 293.388 52.2133 292.868 51.76L294.238 50.22C294.652 50.5467 295.122 50.8167 295.648 51.03C296.182 51.2433 296.758 51.35 297.378 51.35ZM322.163 42.11C323.096 42.11 323.843 42.34 324.403 42.8C324.969 43.2533 325.379 43.8967 325.633 44.73C325.893 45.5633 326.023 46.5467 326.023 47.68C326.023 48.7667 325.866 49.7333 325.553 50.58C325.239 51.4267 324.779 52.0933 324.173 52.58C323.573 53.06 322.833 53.3 321.953 53.3C320.873 53.3 319.999 52.9167 319.333 52.15V57.08L316.693 57.36V42.41H319.013L319.153 43.7C319.573 43.1533 320.043 42.7533 320.563 42.5C321.083 42.24 321.616 42.11 322.163 42.11ZM321.393 44.09C320.946 44.09 320.553 44.2233 320.213 44.49C319.879 44.7567 319.586 45.0867 319.333 45.48V50.22C319.573 50.58 319.846 50.85 320.153 51.03C320.459 51.21 320.806 51.3 321.193 51.3C321.866 51.3 322.379 51.02 322.733 50.46C323.093 49.8933 323.273 48.9767 323.273 47.71C323.273 46.8167 323.199 46.1067 323.053 45.58C322.913 45.0467 322.703 44.6667 322.423 44.44C322.143 44.2067 321.799 44.09 321.393 44.09ZM330.615 48.51C330.668 49.17 330.818 49.7067 331.065 50.12C331.318 50.5333 331.642 50.8367 332.035 51.03C332.428 51.2233 332.865 51.32 333.345 51.32C333.852 51.32 334.328 51.24 334.775 51.08C335.222 50.92 335.662 50.6967 336.095 50.41L337.195 51.92C336.702 52.3333 336.112 52.6667 335.425 52.92C334.745 53.1733 333.995 53.3 333.175 53.3C332.028 53.3 331.062 53.0633 330.275 52.59C329.495 52.1167 328.905 51.46 328.505 50.62C328.105 49.78 327.905 48.8133 327.905 47.72C327.905 46.6667 328.102 45.7167 328.495 44.87C328.888 44.0233 329.455 43.3533 330.195 42.86C330.935 42.36 331.828 42.11 332.875 42.11C333.848 42.11 334.688 42.3233 335.395 42.75C336.102 43.1767 336.648 43.79 337.035 44.59C337.422 45.3833 337.615 46.34 337.615 47.46C337.615 47.64 337.608 47.8233 337.595 48.01C337.588 48.1967 337.578 48.3633 337.565 48.51H330.615ZM332.885 43.97C332.245 43.97 331.718 44.2 331.305 44.66C330.898 45.1133 330.658 45.8333 330.585 46.82H335.045C335.032 45.9267 334.845 45.23 334.485 44.73C334.132 44.2233 333.598 43.97 332.885 43.97ZM344.067 51.35C344.687 51.35 345.184 51.2433 345.557 51.03C345.937 50.81 346.127 50.5033 346.127 50.11C346.127 49.85 346.064 49.63 345.937 49.45C345.817 49.27 345.577 49.1033 345.217 48.95C344.857 48.79 344.317 48.6133 343.597 48.42C342.917 48.2467 342.321 48.0333 341.807 47.78C341.301 47.52 340.904 47.1867 340.617 46.78C340.337 46.3733 340.197 45.86 340.197 45.24C340.197 44.62 340.371 44.0767 340.717 43.61C341.064 43.1367 341.564 42.77 342.217 42.51C342.877 42.2433 343.671 42.11 344.597 42.11C345.504 42.11 346.297 42.23 346.977 42.47C347.657 42.7033 348.241 42.9967 348.727 43.35L347.647 44.96C347.221 44.6867 346.757 44.4667 346.257 44.3C345.764 44.1267 345.231 44.04 344.657 44.04C344.037 44.04 343.584 44.13 343.297 44.31C343.017 44.49 342.877 44.74 342.877 45.06C342.877 45.2867 342.947 45.48 343.087 45.64C343.234 45.7933 343.494 45.9433 343.867 46.09C344.247 46.23 344.787 46.4 345.487 46.6C346.174 46.7867 346.771 47.0067 347.277 47.26C347.791 47.5133 348.187 47.85 348.467 48.27C348.747 48.69 348.887 49.24 348.887 49.92C348.887 50.6867 348.664 51.32 348.217 51.82C347.771 52.32 347.181 52.6933 346.447 52.94C345.721 53.18 344.931 53.3 344.077 53.3C343.077 53.3 342.204 53.1567 341.457 52.87C340.711 52.5833 340.077 52.2133 339.557 51.76L340.927 50.22C341.341 50.5467 341.811 50.8167 342.337 51.03C342.871 51.2433 343.447 51.35 344.067 51.35ZM355.739 51.35C356.359 51.35 356.856 51.2433 357.229 51.03C357.609 50.81 357.799 50.5033 357.799 50.11C357.799 49.85 357.736 49.63 357.609 49.45C357.489 49.27 357.249 49.1033 356.889 48.95C356.529 48.79 355.989 48.6133 355.269 48.42C354.589 48.2467 353.993 48.0333 353.479 47.78C352.973 47.52 352.576 47.1867 352.289 46.78C352.009 46.3733 351.869 45.86 351.869 45.24C351.869 44.62 352.043 44.0767 352.389 43.61C352.736 43.1367 353.236 42.77 353.889 42.51C354.549 42.2433 355.343 42.11 356.269 42.11C357.176 42.11 357.969 42.23 358.649 42.47C359.329 42.7033 359.913 42.9967 360.399 43.35L359.319 44.96C358.893 44.6867 358.429 44.4667 357.929 44.3C357.436 44.1267 356.903 44.04 356.329 44.04C355.709 44.04 355.256 44.13 354.969 44.31C354.689 44.49 354.549 44.74 354.549 45.06C354.549 45.2867 354.619 45.48 354.759 45.64C354.906 45.7933 355.166 45.9433 355.539 46.09C355.919 46.23 356.459 46.4 357.159 46.6C357.846 46.7867 358.443 47.0067 358.949 47.26C359.463 47.5133 359.859 47.85 360.139 48.27C360.419 48.69 360.559 49.24 360.559 49.92C360.559 50.6867 360.336 51.32 359.889 51.82C359.443 52.32 358.853 52.6933 358.119 52.94C357.393 53.18 356.603 53.3 355.749 53.3C354.749 53.3 353.876 53.1567 353.129 52.87C352.383 52.5833 351.749 52.2133 351.229 51.76L352.599 50.22C353.013 50.5467 353.483 50.8167 354.009 51.03C354.543 51.2433 355.119 51.35 355.739 51.35ZM367.782 42.11C368.835 42.11 369.728 42.34 370.462 42.8C371.195 43.26 371.752 43.91 372.132 44.75C372.518 45.5833 372.712 46.56 372.712 47.68C372.712 48.8267 372.518 49.82 372.132 50.66C371.745 51.5 371.185 52.15 370.452 52.61C369.718 53.07 368.825 53.3 367.772 53.3C366.725 53.3 365.832 53.0767 365.092 52.63C364.358 52.1767 363.798 51.5333 363.412 50.7C363.025 49.86 362.832 48.86 362.832 47.7C362.832 46.5933 363.025 45.62 363.412 44.78C363.798 43.94 364.362 43.2867 365.102 42.82C365.842 42.3467 366.735 42.11 367.782 42.11ZM367.782 44.1C367.042 44.1 366.488 44.39 366.122 44.97C365.762 45.55 365.582 46.46 365.582 47.7C365.582 48.9533 365.762 49.87 366.122 50.45C366.482 51.0233 367.032 51.31 367.772 51.31C368.512 51.31 369.062 51.0233 369.422 50.45C369.782 49.87 369.962 48.9467 369.962 47.68C369.962 46.4467 369.782 45.5433 369.422 44.97C369.062 44.39 368.515 44.1 367.782 44.1ZM383.504 50.21C383.504 50.6167 383.564 50.9133 383.684 51.1C383.804 51.28 383.997 51.4167 384.264 51.51L383.694 53.28C383.127 53.22 382.644 53.08 382.244 52.86C381.85 52.6333 381.547 52.2967 381.334 51.85C380.934 52.3367 380.427 52.7 379.814 52.94C379.207 53.18 378.57 53.3 377.904 53.3C376.824 53.3 375.967 52.9933 375.334 52.38C374.7 51.7667 374.384 50.97 374.384 49.99C374.384 48.8633 374.824 47.9967 375.704 47.39C376.59 46.7767 377.844 46.47 379.464 46.47H380.944V45.9C380.944 45.2733 380.75 44.82 380.364 44.54C379.977 44.2533 379.42 44.11 378.694 44.11C378.354 44.11 377.927 44.1567 377.414 44.25C376.907 44.3367 376.384 44.4733 375.844 44.66L375.214 42.85C375.887 42.5967 376.564 42.41 377.244 42.29C377.93 42.17 378.554 42.11 379.114 42.11C380.6 42.11 381.704 42.4267 382.424 43.06C383.144 43.6867 383.504 44.5767 383.504 45.73V50.21ZM378.764 51.39C379.164 51.39 379.567 51.2767 379.974 51.05C380.387 50.8233 380.71 50.5067 380.944 50.1V48.04H379.904C378.924 48.04 378.214 48.1967 377.774 48.51C377.34 48.8233 377.124 49.2667 377.124 49.84C377.124 50.3333 377.264 50.7167 377.544 50.99C377.824 51.2567 378.23 51.39 378.764 51.39ZM390.756 51.35C391.376 51.35 391.873 51.2433 392.246 51.03C392.626 50.81 392.816 50.5033 392.816 50.11C392.816 49.85 392.753 49.63 392.626 49.45C392.506 49.27 392.266 49.1033 391.906 48.95C391.546 48.79 391.006 48.6133 390.286 48.42C389.606 48.2467 389.009 48.0333 388.496 47.78C387.989 47.52 387.593 47.1867 387.306 46.78C387.026 46.3733 386.886 45.86 386.886 45.24C386.886 44.62 387.059 44.0767 387.406 43.61C387.753 43.1367 388.253 42.77 388.906 42.51C389.566 42.2433 390.359 42.11 391.286 42.11C392.193 42.11 392.986 42.23 393.666 42.47C394.346 42.7033 394.929 42.9967 395.416 43.35L394.336 44.96C393.909 44.6867 393.446 44.4667 392.946 44.3C392.453 44.1267 391.919 44.04 391.346 44.04C390.726 44.04 390.273 44.13 389.986 44.31C389.706 44.49 389.566 44.74 389.566 45.06C389.566 45.2867 389.636 45.48 389.776 45.64C389.923 45.7933 390.183 45.9433 390.556 46.09C390.936 46.23 391.476 46.4 392.176 46.6C392.863 46.7867 393.459 47.0067 393.966 47.26C394.479 47.5133 394.876 47.85 395.156 48.27C395.436 48.69 395.576 49.24 395.576 49.92C395.576 50.6867 395.353 51.32 394.906 51.82C394.459 52.32 393.869 52.6933 393.136 52.94C392.409 53.18 391.619 53.3 390.766 53.3C389.766 53.3 388.893 53.1567 388.146 52.87C387.399 52.5833 386.766 52.2133 386.246 51.76L387.616 50.22C388.029 50.5467 388.499 50.8167 389.026 51.03C389.559 51.2433 390.136 51.35 390.756 51.35ZM412.32 48.51C412.374 49.17 412.524 49.7067 412.77 50.12C413.024 50.5333 413.347 50.8367 413.74 51.03C414.134 51.2233 414.57 51.32 415.05 51.32C415.557 51.32 416.034 51.24 416.48 51.08C416.927 50.92 417.367 50.6967 417.8 50.41L418.9 51.92C418.407 52.3333 417.817 52.6667 417.13 52.92C416.45 53.1733 415.7 53.3 414.88 53.3C413.734 53.3 412.767 53.0633 411.98 52.59C411.2 52.1167 410.61 51.46 410.21 50.62C409.81 49.78 409.61 48.8133 409.61 47.72C409.61 46.6667 409.807 45.7167 410.2 44.87C410.594 44.0233 411.16 43.3533 411.9 42.86C412.64 42.36 413.534 42.11 414.58 42.11C415.554 42.11 416.394 42.3233 417.1 42.75C417.807 43.1767 418.354 43.79 418.74 44.59C419.127 45.3833 419.32 46.34 419.32 47.46C419.32 47.64 419.314 47.8233 419.3 48.01C419.294 48.1967 419.284 48.3633 419.27 48.51H412.32ZM414.59 43.97C413.95 43.97 413.424 44.2 413.01 44.66C412.604 45.1133 412.364 45.8333 412.29 46.82H416.75C416.737 45.9267 416.55 45.23 416.19 44.73C415.837 44.2233 415.304 43.97 414.59 43.97ZM425.773 51.35C426.393 51.35 426.889 51.2433 427.263 51.03C427.643 50.81 427.833 50.5033 427.833 50.11C427.833 49.85 427.769 49.63 427.643 49.45C427.523 49.27 427.283 49.1033 426.923 48.95C426.563 48.79 426.023 48.6133 425.303 48.42C424.623 48.2467 424.026 48.0333 423.513 47.78C423.006 47.52 422.609 47.1867 422.323 46.78C422.043 46.3733 421.903 45.86 421.903 45.24C421.903 44.62 422.076 44.0767 422.423 43.61C422.769 43.1367 423.269 42.77 423.923 42.51C424.583 42.2433 425.376 42.11 426.303 42.11C427.209 42.11 428.003 42.23 428.683 42.47C429.363 42.7033 429.946 42.9967 430.433 43.35L429.353 44.96C428.926 44.6867 428.463 44.4667 427.963 44.3C427.469 44.1267 426.936 44.04 426.363 44.04C425.743 44.04 425.289 44.13 425.003 44.31C424.723 44.49 424.583 44.74 424.583 45.06C424.583 45.2867 424.653 45.48 424.793 45.64C424.939 45.7933 425.199 45.9433 425.573 46.09C425.953 46.23 426.493 46.4 427.193 46.6C427.879 46.7867 428.476 47.0067 428.983 47.26C429.496 47.5133 429.893 47.85 430.173 48.27C430.453 48.69 430.593 49.24 430.593 49.92C430.593 50.6867 430.369 51.32 429.923 51.82C429.476 52.32 428.886 52.6933 428.153 52.94C427.426 53.18 426.636 53.3 425.783 53.3C424.783 53.3 423.909 53.1567 423.163 52.87C422.416 52.5833 421.783 52.2133 421.263 51.76L422.633 50.22C423.046 50.5467 423.516 50.8167 424.043 51.03C424.576 51.2433 425.153 51.35 425.773 51.35ZM442.555 52.41C442.161 52.67 441.685 52.8833 441.125 53.05C440.565 53.2167 439.958 53.3 439.305 53.3C438.011 53.3 437.038 52.9667 436.385 52.3C435.731 51.6267 435.405 50.7333 435.405 49.62V44.28H433.105V42.41H435.405V40.08L438.045 39.76V42.41H441.545L441.275 44.28H438.045V49.61C438.045 50.1567 438.178 50.5567 438.445 50.81C438.711 51.0633 439.141 51.19 439.735 51.19C440.115 51.19 440.461 51.1467 440.775 51.06C441.095 50.9667 441.385 50.85 441.645 50.71L442.555 52.41ZM453.537 50.21C453.537 50.6167 453.597 50.9133 453.717 51.1C453.837 51.28 454.03 51.4167 454.297 51.51L453.727 53.28C453.16 53.22 452.677 53.08 452.277 52.86C451.884 52.6333 451.58 52.2967 451.367 51.85C450.967 52.3367 450.46 52.7 449.847 52.94C449.24 53.18 448.604 53.3 447.937 53.3C446.857 53.3 446 52.9933 445.367 52.38C444.734 51.7667 444.417 50.97 444.417 49.99C444.417 48.8633 444.857 47.9967 445.737 47.39C446.624 46.7767 447.877 46.47 449.497 46.47H450.977V45.9C450.977 45.2733 450.784 44.82 450.397 44.54C450.01 44.2533 449.454 44.11 448.727 44.11C448.387 44.11 447.96 44.1567 447.447 44.25C446.94 44.3367 446.417 44.4733 445.877 44.66L445.247 42.85C445.92 42.5967 446.597 42.41 447.277 42.29C447.964 42.17 448.587 42.11 449.147 42.11C450.634 42.11 451.737 42.4267 452.457 43.06C453.177 43.6867 453.537 44.5767 453.537 45.73V50.21ZM448.797 51.39C449.197 51.39 449.6 51.2767 450.007 51.05C450.42 50.8233 450.744 50.5067 450.977 50.1V48.04H449.937C448.957 48.04 448.247 48.1967 447.807 48.51C447.374 48.8233 447.157 49.2667 447.157 49.84C447.157 50.3333 447.297 50.7167 447.577 50.99C447.857 51.2567 448.264 51.39 448.797 51.39ZM450.467 40.14C450.094 40.14 449.777 40.0633 449.517 39.91C449.264 39.7567 449.03 39.6033 448.817 39.45C448.61 39.2967 448.394 39.22 448.167 39.22C447.927 39.22 447.73 39.2967 447.577 39.45C447.424 39.5967 447.267 39.8167 447.107 40.11L445.697 39.42C445.944 38.84 446.27 38.3433 446.677 37.93C447.084 37.51 447.567 37.3 448.127 37.3C448.527 37.3 448.854 37.3767 449.107 37.53C449.367 37.6833 449.597 37.8367 449.797 37.99C449.997 38.1433 450.214 38.22 450.447 38.22C450.66 38.22 450.844 38.15 450.997 38.01C451.157 37.8633 451.324 37.6433 451.497 37.35L452.907 38.05C452.647 38.6767 452.307 39.1833 451.887 39.57C451.474 39.95 451 40.14 450.467 40.14ZM461.159 42.11C462.212 42.11 463.106 42.34 463.839 42.8C464.572 43.26 465.129 43.91 465.509 44.75C465.896 45.5833 466.089 46.56 466.089 47.68C466.089 48.8267 465.896 49.82 465.509 50.66C465.122 51.5 464.562 52.15 463.829 52.61C463.096 53.07 462.202 53.3 461.149 53.3C460.102 53.3 459.209 53.0767 458.469 52.63C457.736 52.1767 457.176 51.5333 456.789 50.7C456.402 49.86 456.209 48.86 456.209 47.7C456.209 46.5933 456.402 45.62 456.789 44.78C457.176 43.94 457.739 43.2867 458.479 42.82C459.219 42.3467 460.112 42.11 461.159 42.11ZM461.159 44.1C460.419 44.1 459.866 44.39 459.499 44.97C459.139 45.55 458.959 46.46 458.959 47.7C458.959 48.9533 459.139 49.87 459.499 50.45C459.859 51.0233 460.409 51.31 461.149 51.31C461.889 51.31 462.439 51.0233 462.799 50.45C463.159 49.87 463.339 48.9467 463.339 47.68C463.339 46.4467 463.159 45.5433 462.799 44.97C462.439 44.39 461.892 44.1 461.159 44.1ZM482.353 48.51C482.407 49.17 482.557 49.7067 482.803 50.12C483.057 50.5333 483.38 50.8367 483.773 51.03C484.167 51.2233 484.603 51.32 485.083 51.32C485.59 51.32 486.067 51.24 486.513 51.08C486.96 50.92 487.4 50.6967 487.833 50.41L488.933 51.92C488.44 52.3333 487.85 52.6667 487.163 52.92C486.483 53.1733 485.733 53.3 484.913 53.3C483.767 53.3 482.8 53.0633 482.013 52.59C481.233 52.1167 480.643 51.46 480.243 50.62C479.843 49.78 479.643 48.8133 479.643 47.72C479.643 46.6667 479.84 45.7167 480.233 44.87C480.627 44.0233 481.193 43.3533 481.933 42.86C482.673 42.36 483.567 42.11 484.613 42.11C485.587 42.11 486.427 42.3233 487.133 42.75C487.84 43.1767 488.387 43.79 488.773 44.59C489.16 45.3833 489.353 46.34 489.353 47.46C489.353 47.64 489.347 47.8233 489.333 48.01C489.327 48.1967 489.317 48.3633 489.303 48.51H482.353ZM484.623 43.97C483.983 43.97 483.457 44.2 483.043 44.66C482.637 45.1133 482.397 45.8333 482.323 46.82H486.783C486.77 45.9267 486.583 45.23 486.223 44.73C485.87 44.2233 485.337 43.97 484.623 43.97ZM491.776 53V42.41H494.076L494.266 43.72C494.719 43.1867 495.229 42.7867 495.796 42.52C496.362 42.2467 496.972 42.11 497.626 42.11C498.579 42.11 499.306 42.3867 499.806 42.94C500.306 43.4867 500.556 44.2567 500.556 45.25V53H497.916V46.28C497.916 45.7467 497.882 45.32 497.816 45C497.749 44.6733 497.622 44.44 497.436 44.3C497.249 44.1533 496.979 44.08 496.626 44.08C496.339 44.08 496.062 44.1433 495.796 44.27C495.536 44.3967 495.289 44.5667 495.056 44.78C494.829 44.9933 494.616 45.23 494.416 45.49V53H491.776ZM513.038 42.41L509.398 53H506.298L502.638 42.41H505.478L507.888 50.89L510.348 42.41H513.038ZM519.52 42.11C520.573 42.11 521.467 42.34 522.2 42.8C522.933 43.26 523.49 43.91 523.87 44.75C524.257 45.5833 524.45 46.56 524.45 47.68C524.45 48.8267 524.257 49.82 523.87 50.66C523.483 51.5 522.923 52.15 522.19 52.61C521.457 53.07 520.563 53.3 519.51 53.3C518.463 53.3 517.57 53.0767 516.83 52.63C516.097 52.1767 515.537 51.5333 515.15 50.7C514.763 49.86 514.57 48.86 514.57 47.7C514.57 46.5933 514.763 45.62 515.15 44.78C515.537 43.94 516.1 43.2867 516.84 42.82C517.58 42.3467 518.473 42.11 519.52 42.11ZM519.52 44.1C518.78 44.1 518.227 44.39 517.86 44.97C517.5 45.55 517.32 46.46 517.32 47.7C517.32 48.9533 517.5 49.87 517.86 50.45C518.22 51.0233 518.77 51.31 519.51 51.31C520.25 51.31 520.8 51.0233 521.16 50.45C521.52 49.87 521.7 48.9467 521.7 47.68C521.7 46.4467 521.52 45.5433 521.16 44.97C520.8 44.39 520.253 44.1 519.52 44.1ZM531.832 38.18V49.92C531.832 50.38 531.966 50.7067 532.232 50.9C532.506 51.0933 532.872 51.19 533.332 51.19C533.619 51.19 533.896 51.16 534.162 51.1C534.429 51.0333 534.682 50.9533 534.922 50.86L535.572 52.66C535.239 52.8267 534.832 52.9733 534.352 53.1C533.879 53.2333 533.329 53.3 532.702 53.3C531.549 53.3 530.676 52.97 530.082 52.31C529.489 51.65 529.192 50.76 529.192 49.64V40.05H526.022V38.18H531.832ZM548.054 42.41L544.414 53H541.314L537.654 42.41H540.494L542.904 50.89L545.364 42.41H548.054ZM556.227 42.41V51.13H559.017V53H550.487V51.13H553.587V44.28H550.587V42.41H556.227ZM554.517 37.07C555.003 37.07 555.397 37.22 555.697 37.52C556.003 37.82 556.157 38.1933 556.157 38.64C556.157 39.0867 556.003 39.4633 555.697 39.77C555.397 40.07 555.003 40.22 554.517 40.22C554.03 40.22 553.633 40.07 553.327 39.77C553.02 39.4633 552.867 39.0867 552.867 38.64C552.867 38.1933 553.02 37.82 553.327 37.52C553.633 37.22 554.03 37.07 554.517 37.07ZM567.949 37.9L570.589 38.18V53H568.249L568.089 51.75C567.762 52.2167 567.352 52.5933 566.859 52.88C566.365 53.16 565.792 53.3 565.139 53.3C564.245 53.3 563.505 53.0667 562.919 52.6C562.339 52.1333 561.905 51.48 561.619 50.64C561.339 49.7933 561.199 48.81 561.199 47.69C561.199 46.61 561.365 45.65 561.699 44.81C562.032 43.97 562.512 43.31 563.139 42.83C563.772 42.35 564.522 42.11 565.389 42.11C565.909 42.11 566.382 42.2 566.809 42.38C567.235 42.56 567.615 42.8267 567.949 43.18V37.9ZM566.099 44.08C565.432 44.08 564.905 44.37 564.519 44.95C564.139 45.5233 563.949 46.44 563.949 47.7C563.949 48.5867 564.029 49.2967 564.189 49.83C564.349 50.3567 564.575 50.7367 564.869 50.97C565.162 51.2033 565.509 51.32 565.909 51.32C566.349 51.32 566.735 51.19 567.069 50.93C567.409 50.6633 567.702 50.3333 567.949 49.94V45.12C567.702 44.7933 567.425 44.54 567.119 44.36C566.819 44.1733 566.479 44.08 566.099 44.08ZM581.931 50.21C581.931 50.6167 581.991 50.9133 582.111 51.1C582.231 51.28 582.424 51.4167 582.691 51.51L582.121 53.28C581.554 53.22 581.071 53.08 580.671 52.86C580.278 52.6333 579.974 52.2967 579.761 51.85C579.361 52.3367 578.854 52.7 578.241 52.94C577.634 53.18 576.998 53.3 576.331 53.3C575.251 53.3 574.394 52.9933 573.761 52.38C573.128 51.7667 572.811 50.97 572.811 49.99C572.811 48.8633 573.251 47.9967 574.131 47.39C575.018 46.7767 576.271 46.47 577.891 46.47H579.371V45.9C579.371 45.2733 579.178 44.82 578.791 44.54C578.404 44.2533 577.848 44.11 577.121 44.11C576.781 44.11 576.354 44.1567 575.841 44.25C575.334 44.3367 574.811 44.4733 574.271 44.66L573.641 42.85C574.314 42.5967 574.991 42.41 575.671 42.29C576.358 42.17 576.981 42.11 577.541 42.11C579.028 42.11 580.131 42.4267 580.851 43.06C581.571 43.6867 581.931 44.5767 581.931 45.73V50.21ZM577.191 51.39C577.591 51.39 577.994 51.2767 578.401 51.05C578.814 50.8233 579.138 50.5067 579.371 50.1V48.04H578.331C577.351 48.04 576.641 48.1967 576.201 48.51C575.768 48.8233 575.551 49.2667 575.551 49.84C575.551 50.3333 575.691 50.7167 575.971 50.99C576.251 51.2567 576.658 51.39 577.191 51.39ZM589.183 51.35C589.803 51.35 590.3 51.2433 590.673 51.03C591.053 50.81 591.243 50.5033 591.243 50.11C591.243 49.85 591.18 49.63 591.053 49.45C590.933 49.27 590.693 49.1033 590.333 48.95C589.973 48.79 589.433 48.6133 588.713 48.42C588.033 48.2467 587.436 48.0333 586.923 47.78C586.416 47.52 586.02 47.1867 585.733 46.78C585.453 46.3733 585.313 45.86 585.313 45.24C585.313 44.62 585.486 44.0767 585.833 43.61C586.18 43.1367 586.68 42.77 587.333 42.51C587.993 42.2433 588.786 42.11 589.713 42.11C590.62 42.11 591.413 42.23 592.093 42.47C592.773 42.7033 593.356 42.9967 593.843 43.35L592.763 44.96C592.336 44.6867 591.873 44.4667 591.373 44.3C590.88 44.1267 590.346 44.04 589.773 44.04C589.153 44.04 588.7 44.13 588.413 44.31C588.133 44.49 587.993 44.74 587.993 45.06C587.993 45.2867 588.063 45.48 588.203 45.64C588.35 45.7933 588.61 45.9433 588.983 46.09C589.363 46.23 589.903 46.4 590.603 46.6C591.29 46.7867 591.886 47.0067 592.393 47.26C592.906 47.5133 593.303 47.85 593.583 48.27C593.863 48.69 594.003 49.24 594.003 49.92C594.003 50.6867 593.78 51.32 593.333 51.82C592.886 52.32 592.296 52.6933 591.563 52.94C590.836 53.18 590.046 53.3 589.193 53.3C588.193 53.3 587.32 53.1567 586.573 52.87C585.826 52.5833 585.193 52.2133 584.673 51.76L586.043 50.22C586.456 50.5467 586.926 50.8167 587.453 51.03C587.986 51.2433 588.563 51.35 589.183 51.35ZM613.828 51.18C614.294 51.18 614.731 51.0933 615.138 50.92C615.551 50.7467 615.948 50.5267 616.328 50.26L617.528 51.95C617.061 52.3433 616.498 52.6667 615.838 52.92C615.178 53.1733 614.471 53.3 613.718 53.3C612.611 53.3 611.661 53.07 610.868 52.61C610.081 52.1433 609.474 51.4967 609.048 50.67C608.628 49.8367 608.418 48.87 608.418 47.77C608.418 46.6833 608.631 45.7133 609.058 44.86C609.491 44 610.104 43.3267 610.898 42.84C611.698 42.3533 612.651 42.11 613.758 42.11C614.518 42.11 615.204 42.22 615.818 42.44C616.438 42.6533 617.004 42.9733 617.518 43.4L616.348 45.02C615.954 44.7467 615.548 44.54 615.128 44.4C614.714 44.2533 614.284 44.18 613.838 44.18C613.058 44.18 612.421 44.4633 611.928 45.03C611.441 45.59 611.198 46.5033 611.198 47.77C611.198 48.6033 611.311 49.27 611.538 49.77C611.771 50.27 612.084 50.63 612.478 50.85C612.878 51.07 613.328 51.18 613.828 51.18ZM624.57 42.11C625.623 42.11 626.516 42.34 627.25 42.8C627.983 43.26 628.54 43.91 628.92 44.75C629.306 45.5833 629.5 46.56 629.5 47.68C629.5 48.8267 629.306 49.82 628.92 50.66C628.533 51.5 627.973 52.15 627.24 52.61C626.506 53.07 625.613 53.3 624.56 53.3C623.513 53.3 622.62 53.0767 621.88 52.63C621.146 52.1767 620.586 51.5333 620.2 50.7C619.813 49.86 619.62 48.86 619.62 47.7C619.62 46.5933 619.813 45.62 620.2 44.78C620.586 43.94 621.15 43.2867 621.89 42.82C622.63 42.3467 623.523 42.11 624.57 42.11ZM624.57 44.1C623.83 44.1 623.276 44.39 622.91 44.97C622.55 45.55 622.37 46.46 622.37 47.7C622.37 48.9533 622.55 49.87 622.91 50.45C623.27 51.0233 623.82 51.31 624.56 51.31C625.3 51.31 625.85 51.0233 626.21 50.45C626.57 49.87 626.75 48.9467 626.75 47.68C626.75 46.4467 626.57 45.5433 626.21 44.97C625.85 44.39 625.303 44.1 624.57 44.1ZM639.372 42.11C639.825 42.11 640.212 42.2067 640.532 42.4C640.852 42.5867 641.099 42.9033 641.272 43.35C641.445 43.79 641.532 44.39 641.532 45.15V53H639.232V45.48C639.232 45 639.192 44.66 639.112 44.46C639.039 44.26 638.869 44.16 638.602 44.16C638.382 44.16 638.159 44.2267 637.932 44.36C637.712 44.4867 637.482 44.7167 637.242 45.05V53H635.252V45.48C635.252 45 635.212 44.66 635.132 44.46C635.059 44.26 634.889 44.16 634.622 44.16C634.395 44.16 634.172 44.2267 633.952 44.36C633.732 44.4867 633.502 44.7167 633.262 45.05V53H630.932V42.41H632.902L633.072 43.51C633.385 43.07 633.715 42.7267 634.062 42.48C634.409 42.2333 634.825 42.11 635.312 42.11C635.712 42.11 636.065 42.21 636.372 42.41C636.685 42.6033 636.909 42.9367 637.042 43.41C637.349 43.0233 637.692 42.71 638.072 42.47C638.452 42.23 638.885 42.11 639.372 42.11ZM659.586 42.11C660.64 42.11 661.533 42.34 662.266 42.8C663 43.26 663.556 43.91 663.936 44.75C664.323 45.5833 664.516 46.56 664.516 47.68C664.516 48.8267 664.323 49.82 663.936 50.66C663.55 51.5 662.99 52.15 662.256 52.61C661.523 53.07 660.63 53.3 659.576 53.3C658.53 53.3 657.636 53.0767 656.896 52.63C656.163 52.1767 655.603 51.5333 655.216 50.7C654.83 49.86 654.636 48.86 654.636 47.7C654.636 46.5933 654.83 45.62 655.216 44.78C655.603 43.94 656.166 43.2867 656.906 42.82C657.646 42.3467 658.54 42.11 659.586 42.11ZM659.586 44.1C658.846 44.1 658.293 44.39 657.926 44.97C657.566 45.55 657.386 46.46 657.386 47.7C657.386 48.9533 657.566 49.87 657.926 50.45C658.286 51.0233 658.836 51.31 659.576 51.31C660.316 51.31 660.866 51.0233 661.226 50.45C661.586 49.87 661.766 48.9467 661.766 47.68C661.766 46.4467 661.586 45.5433 661.226 44.97C660.866 44.39 660.32 44.1 659.586 44.1ZM141.71 93V91.17H143.2V84.23H141.71V82.41H145.21L145.7 84.84C146.087 83.94 146.573 83.2633 147.16 82.81C147.747 82.35 148.483 82.12 149.37 82.12C149.71 82.12 150.01 82.1467 150.27 82.2C150.537 82.2533 150.79 82.3233 151.03 82.41L150.24 84.63C150.033 84.5767 149.837 84.5367 149.65 84.51C149.463 84.4767 149.253 84.46 149.02 84.46C148.287 84.46 147.647 84.7467 147.1 85.32C146.56 85.8867 146.14 86.6567 145.84 87.63V91.17H147.95V93H141.71ZM148.8 86.54V83.73L149.16 82.41H151.03L150.56 86.54H148.8ZM155.532 88.51C155.586 89.17 155.736 89.7067 155.982 90.12C156.236 90.5333 156.559 90.8367 156.952 91.03C157.346 91.2233 157.782 91.32 158.262 91.32C158.769 91.32 159.246 91.24 159.692 91.08C160.139 90.92 160.579 90.6967 161.012 90.41L162.112 91.92C161.619 92.3333 161.029 92.6667 160.342 92.92C159.662 93.1733 158.912 93.3 158.092 93.3C156.946 93.3 155.979 93.0633 155.192 92.59C154.412 92.1167 153.822 91.46 153.422 90.62C153.022 89.78 152.822 88.8133 152.822 87.72C152.822 86.6667 153.019 85.7167 153.412 84.87C153.806 84.0233 154.372 83.3533 155.112 82.86C155.852 82.36 156.746 82.11 157.792 82.11C158.766 82.11 159.606 82.3233 160.312 82.75C161.019 83.1767 161.566 83.79 161.952 84.59C162.339 85.3833 162.532 86.34 162.532 87.46C162.532 87.64 162.526 87.8233 162.512 88.01C162.506 88.1967 162.496 88.3633 162.482 88.51H155.532ZM157.802 83.97C157.162 83.97 156.636 84.2 156.222 84.66C155.816 85.1133 155.576 85.8333 155.502 86.82H159.962C159.949 85.9267 159.762 85.23 159.402 84.73C159.049 84.2233 158.516 83.97 157.802 83.97ZM168.984 91.35C169.604 91.35 170.101 91.2433 170.474 91.03C170.854 90.81 171.044 90.5033 171.044 90.11C171.044 89.85 170.981 89.63 170.854 89.45C170.734 89.27 170.494 89.1033 170.134 88.95C169.774 88.79 169.234 88.6133 168.514 88.42C167.834 88.2467 167.238 88.0333 166.724 87.78C166.218 87.52 165.821 87.1867 165.534 86.78C165.254 86.3733 165.114 85.86 165.114 85.24C165.114 84.62 165.288 84.0767 165.634 83.61C165.981 83.1367 166.481 82.77 167.134 82.51C167.794 82.2433 168.588 82.11 169.514 82.11C170.421 82.11 171.214 82.23 171.894 82.47C172.574 82.7033 173.158 82.9967 173.644 83.35L172.564 84.96C172.138 84.6867 171.674 84.4667 171.174 84.3C170.681 84.1267 170.148 84.04 169.574 84.04C168.954 84.04 168.501 84.13 168.214 84.31C167.934 84.49 167.794 84.74 167.794 85.06C167.794 85.2867 167.864 85.48 168.004 85.64C168.151 85.7933 168.411 85.9433 168.784 86.09C169.164 86.23 169.704 86.4 170.404 86.6C171.091 86.7867 171.688 87.0067 172.194 87.26C172.708 87.5133 173.104 87.85 173.384 88.27C173.664 88.69 173.804 89.24 173.804 89.92C173.804 90.6867 173.581 91.32 173.134 91.82C172.688 92.32 172.098 92.6933 171.364 92.94C170.638 93.18 169.848 93.3 168.994 93.3C167.994 93.3 167.121 93.1567 166.374 92.87C165.628 92.5833 164.994 92.2133 164.474 91.76L165.844 90.22C166.258 90.5467 166.728 90.8167 167.254 91.03C167.788 91.2433 168.364 91.35 168.984 91.35ZM182.097 82.11C183.03 82.11 183.777 82.34 184.337 82.8C184.903 83.2533 185.313 83.8967 185.567 84.73C185.827 85.5633 185.957 86.5467 185.957 87.68C185.957 88.7667 185.8 89.7333 185.487 90.58C185.173 91.4267 184.713 92.0933 184.107 92.58C183.507 93.06 182.767 93.3 181.887 93.3C180.807 93.3 179.933 92.9167 179.267 92.15V97.08L176.627 97.36V82.41H178.947L179.087 83.7C179.507 83.1533 179.977 82.7533 180.497 82.5C181.017 82.24 181.55 82.11 182.097 82.11ZM181.327 84.09C180.88 84.09 180.487 84.2233 180.147 84.49C179.813 84.7567 179.52 85.0867 179.267 85.48V90.22C179.507 90.58 179.78 90.85 180.087 91.03C180.393 91.21 180.74 91.3 181.127 91.3C181.8 91.3 182.313 91.02 182.667 90.46C183.027 89.8933 183.207 88.9767 183.207 87.71C183.207 86.8167 183.133 86.1067 182.987 85.58C182.847 85.0467 182.637 84.6667 182.357 84.44C182.077 84.2067 181.733 84.09 181.327 84.09ZM192.699 82.11C193.752 82.11 194.645 82.34 195.379 82.8C196.112 83.26 196.669 83.91 197.049 84.75C197.435 85.5833 197.629 86.56 197.629 87.68C197.629 88.8267 197.435 89.82 197.049 90.66C196.662 91.5 196.102 92.15 195.369 92.61C194.635 93.07 193.742 93.3 192.689 93.3C191.642 93.3 190.749 93.0767 190.009 92.63C189.275 92.1767 188.715 91.5333 188.329 90.7C187.942 89.86 187.749 88.86 187.749 87.7C187.749 86.5933 187.942 85.62 188.329 84.78C188.715 83.94 189.279 83.2867 190.019 82.82C190.759 82.3467 191.652 82.11 192.699 82.11ZM192.699 84.1C191.959 84.1 191.405 84.39 191.039 84.97C190.679 85.55 190.499 86.46 190.499 87.7C190.499 88.9533 190.679 89.87 191.039 90.45C191.399 91.0233 191.949 91.31 192.689 91.31C193.429 91.31 193.979 91.0233 194.339 90.45C194.699 89.87 194.879 88.9467 194.879 87.68C194.879 86.4467 194.699 85.5433 194.339 84.97C193.979 84.39 193.432 84.1 192.699 84.1ZM199.971 93V82.41H202.271L202.461 83.72C202.914 83.1867 203.424 82.7867 203.991 82.52C204.558 82.2467 205.168 82.11 205.821 82.11C206.774 82.11 207.501 82.3867 208.001 82.94C208.501 83.4867 208.751 84.2567 208.751 85.25V93H206.111V86.28C206.111 85.7467 206.078 85.32 206.011 85C205.944 84.6733 205.818 84.44 205.631 84.3C205.444 84.1533 205.174 84.08 204.821 84.08C204.534 84.08 204.258 84.1433 203.991 84.27C203.731 84.3967 203.484 84.5667 203.251 84.78C203.024 84.9933 202.811 85.23 202.611 85.49V93H199.971ZM215.673 91.35C216.293 91.35 216.79 91.2433 217.163 91.03C217.543 90.81 217.733 90.5033 217.733 90.11C217.733 89.85 217.67 89.63 217.543 89.45C217.423 89.27 217.183 89.1033 216.823 88.95C216.463 88.79 215.923 88.6133 215.203 88.42C214.523 88.2467 213.926 88.0333 213.413 87.78C212.906 87.52 212.51 87.1867 212.223 86.78C211.943 86.3733 211.803 85.86 211.803 85.24C211.803 84.62 211.976 84.0767 212.323 83.61C212.67 83.1367 213.17 82.77 213.823 82.51C214.483 82.2433 215.276 82.11 216.203 82.11C217.11 82.11 217.903 82.23 218.583 82.47C219.263 82.7033 219.846 82.9967 220.333 83.35L219.253 84.96C218.826 84.6867 218.363 84.4667 217.863 84.3C217.37 84.1267 216.836 84.04 216.263 84.04C215.643 84.04 215.19 84.13 214.903 84.31C214.623 84.49 214.483 84.74 214.483 85.06C214.483 85.2867 214.553 85.48 214.693 85.64C214.84 85.7933 215.1 85.9433 215.473 86.09C215.853 86.23 216.393 86.4 217.093 86.6C217.78 86.7867 218.376 87.0067 218.883 87.26C219.396 87.5133 219.793 87.85 220.073 88.27C220.353 88.69 220.493 89.24 220.493 89.92C220.493 90.6867 220.27 91.32 219.823 91.82C219.376 92.32 218.786 92.6933 218.053 92.94C217.326 93.18 216.536 93.3 215.683 93.3C214.683 93.3 213.81 93.1567 213.063 92.87C212.316 92.5833 211.683 92.2133 211.163 91.76L212.533 90.22C212.946 90.5467 213.416 90.8167 213.943 91.03C214.476 91.2433 215.053 91.35 215.673 91.35ZM231.765 90.21C231.765 90.6167 231.825 90.9133 231.945 91.1C232.065 91.28 232.259 91.4167 232.525 91.51L231.955 93.28C231.389 93.22 230.905 93.08 230.505 92.86C230.112 92.6333 229.809 92.2967 229.595 91.85C229.195 92.3367 228.689 92.7 228.075 92.94C227.469 93.18 226.832 93.3 226.165 93.3C225.085 93.3 224.229 92.9933 223.595 92.38C222.962 91.7667 222.645 90.97 222.645 89.99C222.645 88.8633 223.085 87.9967 223.965 87.39C224.852 86.7767 226.105 86.47 227.725 86.47H229.205V85.9C229.205 85.2733 229.012 84.82 228.625 84.54C228.239 84.2533 227.682 84.11 226.955 84.11C226.615 84.11 226.189 84.1567 225.675 84.25C225.169 84.3367 224.645 84.4733 224.105 84.66L223.475 82.85C224.149 82.5967 224.825 82.41 225.505 82.29C226.192 82.17 226.815 82.11 227.375 82.11C228.862 82.11 229.965 82.4267 230.685 83.06C231.405 83.6867 231.765 84.5767 231.765 85.73V90.21ZM227.025 91.39C227.425 91.39 227.829 91.2767 228.235 91.05C228.649 90.8233 228.972 90.5067 229.205 90.1V88.04H228.165C227.185 88.04 226.475 88.1967 226.035 88.51C225.602 88.8233 225.385 89.2667 225.385 89.84C225.385 90.3333 225.525 90.7167 225.805 90.99C226.085 91.2567 226.492 91.39 227.025 91.39ZM229.125 76.57L230.195 78.62L225.665 80.43L224.925 79.07L229.125 76.57ZM244.578 82.41L240.938 93H237.838L234.178 82.41H237.018L239.428 90.89L241.888 82.41H244.578ZM248.91 88.51C248.963 89.17 249.113 89.7067 249.36 90.12C249.613 90.5333 249.936 90.8367 250.33 91.03C250.723 91.2233 251.16 91.32 251.64 91.32C252.146 91.32 252.623 91.24 253.07 91.08C253.516 90.92 253.956 90.6967 254.39 90.41L255.49 91.92C254.996 92.3333 254.406 92.6667 253.72 92.92C253.04 93.1733 252.29 93.3 251.47 93.3C250.323 93.3 249.356 93.0633 248.57 92.59C247.79 92.1167 247.2 91.46 246.8 90.62C246.4 89.78 246.2 88.8133 246.2 87.72C246.2 86.6667 246.396 85.7167 246.79 84.87C247.183 84.0233 247.75 83.3533 248.49 82.86C249.23 82.36 250.123 82.11 251.17 82.11C252.143 82.11 252.983 82.3233 253.69 82.75C254.396 83.1767 254.943 83.79 255.33 84.59C255.716 85.3833 255.91 86.34 255.91 87.46C255.91 87.64 255.903 87.8233 255.89 88.01C255.883 88.1967 255.873 88.3633 255.86 88.51H248.91ZM251.18 83.97C250.54 83.97 250.013 84.2 249.6 84.66C249.193 85.1133 248.953 85.8333 248.88 86.82H253.34C253.326 85.9267 253.14 85.23 252.78 84.73C252.426 84.2233 251.893 83.97 251.18 83.97ZM263.372 78.18V89.92C263.372 90.38 263.505 90.7067 263.772 90.9C264.045 91.0933 264.412 91.19 264.872 91.19C265.159 91.19 265.435 91.16 265.702 91.1C265.969 91.0333 266.222 90.9533 266.462 90.86L267.112 92.66C266.779 92.8267 266.372 92.9733 265.892 93.1C265.419 93.2333 264.869 93.3 264.242 93.3C263.089 93.3 262.215 92.97 261.622 92.31C261.029 91.65 260.732 90.76 260.732 89.64V80.05H257.562V78.18H263.372ZM287.146 82.11C288.08 82.11 288.826 82.34 289.386 82.8C289.953 83.2533 290.363 83.8967 290.616 84.73C290.876 85.5633 291.006 86.5467 291.006 87.68C291.006 88.7667 290.85 89.7333 290.536 90.58C290.223 91.4267 289.763 92.0933 289.156 92.58C288.556 93.06 287.816 93.3 286.936 93.3C285.856 93.3 284.983 92.9167 284.316 92.15V97.08L281.676 97.36V82.41H283.996L284.136 83.7C284.556 83.1533 285.026 82.7533 285.546 82.5C286.066 82.24 286.6 82.11 287.146 82.11ZM286.376 84.09C285.93 84.09 285.536 84.2233 285.196 84.49C284.863 84.7567 284.57 85.0867 284.316 85.48V90.22C284.556 90.58 284.83 90.85 285.136 91.03C285.443 91.21 285.79 91.3 286.176 91.3C286.85 91.3 287.363 91.02 287.716 90.46C288.076 89.8933 288.256 88.9767 288.256 87.71C288.256 86.8167 288.183 86.1067 288.036 85.58C287.896 85.0467 287.686 84.6667 287.406 84.44C287.126 84.2067 286.783 84.09 286.376 84.09ZM297.748 82.11C298.802 82.11 299.695 82.34 300.428 82.8C301.162 83.26 301.718 83.91 302.098 84.75C302.485 85.5833 302.678 86.56 302.678 87.68C302.678 88.8267 302.485 89.82 302.098 90.66C301.712 91.5 301.152 92.15 300.418 92.61C299.685 93.07 298.792 93.3 297.738 93.3C296.692 93.3 295.798 93.0767 295.058 92.63C294.325 92.1767 293.765 91.5333 293.378 90.7C292.992 89.86 292.798 88.86 292.798 87.7C292.798 86.5933 292.992 85.62 293.378 84.78C293.765 83.94 294.328 83.2867 295.068 82.82C295.808 82.3467 296.702 82.11 297.748 82.11ZM297.748 84.1C297.008 84.1 296.455 84.39 296.088 84.97C295.728 85.55 295.548 86.46 295.548 87.7C295.548 88.9533 295.728 89.87 296.088 90.45C296.448 91.0233 296.998 91.31 297.738 91.31C298.478 91.31 299.028 91.0233 299.388 90.45C299.748 89.87 299.928 88.9467 299.928 87.68C299.928 86.4467 299.748 85.5433 299.388 84.97C299.028 84.39 298.482 84.1 297.748 84.1ZM305.121 93V91.17H306.611V84.23H305.121V82.41H308.621L309.111 84.84C309.497 83.94 309.984 83.2633 310.571 82.81C311.157 82.35 311.894 82.12 312.781 82.12C313.121 82.12 313.421 82.1467 313.681 82.2C313.947 82.2533 314.201 82.3233 314.441 82.41L313.651 84.63C313.444 84.5767 313.247 84.5367 313.061 84.51C312.874 84.4767 312.664 84.46 312.431 84.46C311.697 84.46 311.057 84.7467 310.511 85.32C309.971 85.8867 309.551 86.6567 309.251 87.63V91.17H311.361V93H305.121ZM312.211 86.54V83.73L312.571 82.41H314.441L313.971 86.54H312.211ZM330.615 88.51C330.668 89.17 330.818 89.7067 331.065 90.12C331.318 90.5333 331.642 90.8367 332.035 91.03C332.428 91.2233 332.865 91.32 333.345 91.32C333.852 91.32 334.328 91.24 334.775 91.08C335.222 90.92 335.662 90.6967 336.095 90.41L337.195 91.92C336.702 92.3333 336.112 92.6667 335.425 92.92C334.745 93.1733 333.995 93.3 333.175 93.3C332.028 93.3 331.062 93.0633 330.275 92.59C329.495 92.1167 328.905 91.46 328.505 90.62C328.105 89.78 327.905 88.8133 327.905 87.72C327.905 86.6667 328.102 85.7167 328.495 84.87C328.888 84.0233 329.455 83.3533 330.195 82.86C330.935 82.36 331.828 82.11 332.875 82.11C333.848 82.11 334.688 82.3233 335.395 82.75C336.102 83.1767 336.648 83.79 337.035 84.59C337.422 85.3833 337.615 86.34 337.615 87.46C337.615 87.64 337.608 87.8233 337.595 88.01C337.588 88.1967 337.578 88.3633 337.565 88.51H330.615ZM332.885 83.97C332.245 83.97 331.718 84.2 331.305 84.66C330.898 85.1133 330.658 85.8333 330.585 86.82H335.045C335.032 85.9267 334.845 85.23 334.485 84.73C334.132 84.2233 333.598 83.97 332.885 83.97ZM344.067 91.35C344.687 91.35 345.184 91.2433 345.557 91.03C345.937 90.81 346.127 90.5033 346.127 90.11C346.127 89.85 346.064 89.63 345.937 89.45C345.817 89.27 345.577 89.1033 345.217 88.95C344.857 88.79 344.317 88.6133 343.597 88.42C342.917 88.2467 342.321 88.0333 341.807 87.78C341.301 87.52 340.904 87.1867 340.617 86.78C340.337 86.3733 340.197 85.86 340.197 85.24C340.197 84.62 340.371 84.0767 340.717 83.61C341.064 83.1367 341.564 82.77 342.217 82.51C342.877 82.2433 343.671 82.11 344.597 82.11C345.504 82.11 346.297 82.23 346.977 82.47C347.657 82.7033 348.241 82.9967 348.727 83.35L347.647 84.96C347.221 84.6867 346.757 84.4667 346.257 84.3C345.764 84.1267 345.231 84.04 344.657 84.04C344.037 84.04 343.584 84.13 343.297 84.31C343.017 84.49 342.877 84.74 342.877 85.06C342.877 85.2867 342.947 85.48 343.087 85.64C343.234 85.7933 343.494 85.9433 343.867 86.09C344.247 86.23 344.787 86.4 345.487 86.6C346.174 86.7867 346.771 87.0067 347.277 87.26C347.791 87.5133 348.187 87.85 348.467 88.27C348.747 88.69 348.887 89.24 348.887 89.92C348.887 90.6867 348.664 91.32 348.217 91.82C347.771 92.32 347.181 92.6933 346.447 92.94C345.721 93.18 344.931 93.3 344.077 93.3C343.077 93.3 342.204 93.1567 341.457 92.87C340.711 92.5833 340.077 92.2133 339.557 91.76L340.927 90.22C341.341 90.5467 341.811 90.8167 342.337 91.03C342.871 91.2433 343.447 91.35 344.067 91.35ZM355.739 91.35C356.359 91.35 356.856 91.2433 357.229 91.03C357.609 90.81 357.799 90.5033 357.799 90.11C357.799 89.85 357.736 89.63 357.609 89.45C357.489 89.27 357.249 89.1033 356.889 88.95C356.529 88.79 355.989 88.6133 355.269 88.42C354.589 88.2467 353.993 88.0333 353.479 87.78C352.973 87.52 352.576 87.1867 352.289 86.78C352.009 86.3733 351.869 85.86 351.869 85.24C351.869 84.62 352.043 84.0767 352.389 83.61C352.736 83.1367 353.236 82.77 353.889 82.51C354.549 82.2433 355.343 82.11 356.269 82.11C357.176 82.11 357.969 82.23 358.649 82.47C359.329 82.7033 359.913 82.9967 360.399 83.35L359.319 84.96C358.893 84.6867 358.429 84.4667 357.929 84.3C357.436 84.1267 356.903 84.04 356.329 84.04C355.709 84.04 355.256 84.13 354.969 84.31C354.689 84.49 354.549 84.74 354.549 85.06C354.549 85.2867 354.619 85.48 354.759 85.64C354.906 85.7933 355.166 85.9433 355.539 86.09C355.919 86.23 356.459 86.4 357.159 86.6C357.846 86.7867 358.443 87.0067 358.949 87.26C359.463 87.5133 359.859 87.85 360.139 88.27C360.419 88.69 360.559 89.24 360.559 89.92C360.559 90.6867 360.336 91.32 359.889 91.82C359.443 92.32 358.853 92.6933 358.119 92.94C357.393 93.18 356.603 93.3 355.749 93.3C354.749 93.3 353.876 93.1567 353.129 92.87C352.383 92.5833 351.749 92.2133 351.229 91.76L352.599 90.22C353.013 90.5467 353.483 90.8167 354.009 91.03C354.543 91.2433 355.119 91.35 355.739 91.35ZM371.832 90.21C371.832 90.6167 371.892 90.9133 372.012 91.1C372.132 91.28 372.325 91.4167 372.592 91.51L372.022 93.28C371.455 93.22 370.972 93.08 370.572 92.86C370.178 92.6333 369.875 92.2967 369.662 91.85C369.262 92.3367 368.755 92.7 368.142 92.94C367.535 93.18 366.898 93.3 366.232 93.3C365.152 93.3 364.295 92.9933 363.662 92.38C363.028 91.7667 362.712 90.97 362.712 89.99C362.712 88.8633 363.152 87.9967 364.032 87.39C364.918 86.7767 366.172 86.47 367.792 86.47H369.272V85.9C369.272 85.2733 369.078 84.82 368.692 84.54C368.305 84.2533 367.748 84.11 367.022 84.11C366.682 84.11 366.255 84.1567 365.742 84.25C365.235 84.3367 364.712 84.4733 364.172 84.66L363.542 82.85C364.215 82.5967 364.892 82.41 365.572 82.29C366.258 82.17 366.882 82.11 367.442 82.11C368.928 82.11 370.032 82.4267 370.752 83.06C371.472 83.6867 371.832 84.5767 371.832 85.73V90.21ZM367.092 91.39C367.492 91.39 367.895 91.2767 368.302 91.05C368.715 90.8233 369.038 90.5067 369.272 90.1V88.04H368.232C367.252 88.04 366.542 88.1967 366.102 88.51C365.668 88.8233 365.452 89.2667 365.452 89.84C365.452 90.3333 365.592 90.7167 365.872 90.99C366.152 91.2567 366.558 91.39 367.092 91.39ZM392.816 82.41V91.13H395.606V93H387.076V91.13H390.176V84.28H387.176V82.41H392.816ZM391.106 77.07C391.593 77.07 391.986 77.22 392.286 77.52C392.593 77.82 392.746 78.1933 392.746 78.64C392.746 79.0867 392.593 79.4633 392.286 79.77C391.986 80.07 391.593 80.22 391.106 80.22C390.619 80.22 390.223 80.07 389.916 79.77C389.609 79.4633 389.456 79.0867 389.456 78.64C389.456 78.1933 389.609 77.82 389.916 77.52C390.223 77.22 390.619 77.07 391.106 77.07ZM398.398 93V82.41H400.698L400.888 83.72C401.341 83.1867 401.851 82.7867 402.418 82.52C402.985 82.2467 403.595 82.11 404.248 82.11C405.201 82.11 405.928 82.3867 406.428 82.94C406.928 83.4867 407.178 84.2567 407.178 85.25V93H404.538V86.28C404.538 85.7467 404.505 85.32 404.438 85C404.371 84.6733 404.245 84.44 404.058 84.3C403.871 84.1533 403.601 84.08 403.248 84.08C402.961 84.08 402.685 84.1433 402.418 84.27C402.158 84.3967 401.911 84.5667 401.678 84.78C401.451 84.9933 401.238 85.23 401.038 85.49V93H398.398ZM416.64 77.9C417.347 77.9 417.974 77.9567 418.52 78.07C419.067 78.1833 419.564 78.3367 420.01 78.53L419.25 80.31C418.897 80.1633 418.527 80.0567 418.14 79.99C417.754 79.9233 417.367 79.89 416.98 79.89C416.314 79.89 415.827 80.0167 415.52 80.27C415.22 80.5167 415.07 80.9133 415.07 81.46V83.13H418.57L418.28 85.02H415.07V93H412.44V85.02H410.11V83.13H412.44V81.4C412.44 80.7133 412.607 80.11 412.94 79.59C413.274 79.0633 413.754 78.65 414.38 78.35C415.014 78.05 415.767 77.9 416.64 77.9ZM421.843 93V91.17H423.333V84.23H421.843V82.41H425.343L425.833 84.84C426.219 83.94 426.706 83.2633 427.293 82.81C427.879 82.35 428.616 82.12 429.503 82.12C429.843 82.12 430.143 82.1467 430.403 82.2C430.669 82.2533 430.923 82.3233 431.163 82.41L430.373 84.63C430.166 84.5767 429.969 84.5367 429.783 84.51C429.596 84.4767 429.386 84.46 429.153 84.46C428.419 84.46 427.779 84.7467 427.233 85.32C426.693 85.8867 426.273 86.6567 425.973 87.63V91.17H428.083V93H421.843ZM428.933 86.54V83.73L429.293 82.41H431.163L430.693 86.54H428.933ZM441.865 90.21C441.865 90.6167 441.925 90.9133 442.045 91.1C442.165 91.28 442.358 91.4167 442.625 91.51L442.055 93.28C441.488 93.22 441.005 93.08 440.605 92.86C440.211 92.6333 439.908 92.2967 439.695 91.85C439.295 92.3367 438.788 92.7 438.175 92.94C437.568 93.18 436.931 93.3 436.265 93.3C435.185 93.3 434.328 92.9933 433.695 92.38C433.061 91.7667 432.745 90.97 432.745 89.99C432.745 88.8633 433.185 87.9967 434.065 87.39C434.951 86.7767 436.205 86.47 437.825 86.47H439.305V85.9C439.305 85.2733 439.111 84.82 438.725 84.54C438.338 84.2533 437.781 84.11 437.055 84.11C436.715 84.11 436.288 84.1567 435.775 84.25C435.268 84.3367 434.745 84.4733 434.205 84.66L433.575 82.85C434.248 82.5967 434.925 82.41 435.605 82.29C436.291 82.17 436.915 82.11 437.475 82.11C438.961 82.11 440.065 82.4267 440.785 83.06C441.505 83.6867 441.865 84.5767 441.865 85.73V90.21ZM437.125 91.39C437.525 91.39 437.928 91.2767 438.335 91.05C438.748 90.8233 439.071 90.5067 439.305 90.1V88.04H438.265C437.285 88.04 436.575 88.1967 436.135 88.51C435.701 88.8233 435.485 89.2667 435.485 89.84C435.485 90.3333 435.625 90.7167 435.905 90.99C436.185 91.2567 436.591 91.39 437.125 91.39ZM450.417 91.18C450.884 91.18 451.32 91.0933 451.727 90.92C452.14 90.7467 452.537 90.5267 452.917 90.26L454.117 91.95C453.65 92.3433 453.087 92.6667 452.427 92.92C451.767 93.1733 451.06 93.3 450.307 93.3C449.2 93.3 448.25 93.07 447.457 92.61C446.67 92.1433 446.064 91.4967 445.637 90.67C445.217 89.8367 445.007 88.87 445.007 87.77C445.007 86.6833 445.22 85.7133 445.647 84.86C446.08 84 446.694 83.3267 447.487 82.84C448.287 82.3533 449.24 82.11 450.347 82.11C451.107 82.11 451.794 82.22 452.407 82.44C453.027 82.6533 453.594 82.9733 454.107 83.4L452.937 85.02C452.544 84.7467 452.137 84.54 451.717 84.4C451.304 84.2533 450.874 84.18 450.427 84.18C449.647 84.18 449.01 84.4633 448.517 85.03C448.03 85.59 447.787 86.5033 447.787 87.77C447.787 88.6033 447.9 89.27 448.127 89.77C448.36 90.27 448.674 90.63 449.067 90.85C449.467 91.07 449.917 91.18 450.417 91.18ZM450.797 95.87C450.797 95.57 450.64 95.37 450.327 95.27C450.02 95.1767 449.574 95.13 448.987 95.13L449.237 92.68H450.777V94.02C451.464 94.0933 451.967 94.3 452.287 94.64C452.614 94.9867 452.777 95.4033 452.777 95.89C452.777 96.3433 452.657 96.7333 452.417 97.06C452.177 97.3867 451.847 97.6367 451.427 97.81C451.007 97.99 450.527 98.08 449.987 98.08C449.534 98.08 449.11 98.0233 448.717 97.91C448.324 97.7967 447.994 97.6633 447.727 97.51L448.397 96.23C448.584 96.33 448.79 96.41 449.017 96.47C449.25 96.53 449.477 96.56 449.697 96.56C450.03 96.56 450.297 96.5067 450.497 96.4C450.697 96.3 450.797 96.1233 450.797 95.87ZM465.209 90.21C465.209 90.6167 465.269 90.9133 465.389 91.1C465.509 91.28 465.702 91.4167 465.969 91.51L465.399 93.28C464.832 93.22 464.349 93.08 463.949 92.86C463.556 92.6333 463.252 92.2967 463.039 91.85C462.639 92.3367 462.132 92.7 461.519 92.94C460.912 93.18 460.276 93.3 459.609 93.3C458.529 93.3 457.672 92.9933 457.039 92.38C456.406 91.7667 456.089 90.97 456.089 89.99C456.089 88.8633 456.529 87.9967 457.409 87.39C458.296 86.7767 459.549 86.47 461.169 86.47H462.649V85.9C462.649 85.2733 462.456 84.82 462.069 84.54C461.682 84.2533 461.126 84.11 460.399 84.11C460.059 84.11 459.632 84.1567 459.119 84.25C458.612 84.3367 458.089 84.4733 457.549 84.66L456.919 82.85C457.592 82.5967 458.269 82.41 458.949 82.29C459.636 82.17 460.259 82.11 460.819 82.11C462.306 82.11 463.409 82.4267 464.129 83.06C464.849 83.6867 465.209 84.5767 465.209 85.73V90.21ZM460.469 91.39C460.869 91.39 461.272 91.2767 461.679 91.05C462.092 90.8233 462.416 90.5067 462.649 90.1V88.04H461.609C460.629 88.04 459.919 88.1967 459.479 88.51C459.046 88.8233 458.829 89.2667 458.829 89.84C458.829 90.3333 458.969 90.7167 459.249 90.99C459.529 91.2567 459.936 91.39 460.469 91.39ZM462.139 80.14C461.766 80.14 461.449 80.0633 461.189 79.91C460.936 79.7567 460.702 79.6033 460.489 79.45C460.282 79.2967 460.066 79.22 459.839 79.22C459.599 79.22 459.402 79.2967 459.249 79.45C459.096 79.5967 458.939 79.8167 458.779 80.11L457.369 79.42C457.616 78.84 457.942 78.3433 458.349 77.93C458.756 77.51 459.239 77.3 459.799 77.3C460.199 77.3 460.526 77.3767 460.779 77.53C461.039 77.6833 461.269 77.8367 461.469 77.99C461.669 78.1433 461.886 78.22 462.119 78.22C462.332 78.22 462.516 78.15 462.669 78.01C462.829 77.8633 462.996 77.6433 463.169 77.35L464.579 78.05C464.319 78.6767 463.979 79.1833 463.559 79.57C463.146 79.95 462.672 80.14 462.139 80.14ZM472.831 82.11C473.885 82.11 474.778 82.34 475.511 82.8C476.245 83.26 476.801 83.91 477.181 84.75C477.568 85.5833 477.761 86.56 477.761 87.68C477.761 88.8267 477.568 89.82 477.181 90.66C476.795 91.5 476.235 92.15 475.501 92.61C474.768 93.07 473.875 93.3 472.821 93.3C471.775 93.3 470.881 93.0767 470.141 92.63C469.408 92.1767 468.848 91.5333 468.461 90.7C468.075 89.86 467.881 88.86 467.881 87.7C467.881 86.5933 468.075 85.62 468.461 84.78C468.848 83.94 469.411 83.2867 470.151 82.82C470.891 82.3467 471.785 82.11 472.831 82.11ZM472.831 84.1C472.091 84.1 471.538 84.39 471.171 84.97C470.811 85.55 470.631 86.46 470.631 87.7C470.631 88.9533 470.811 89.87 471.171 90.45C471.531 91.0233 472.081 91.31 472.821 91.31C473.561 91.31 474.111 91.0233 474.471 90.45C474.831 89.87 475.011 88.9467 475.011 87.68C475.011 86.4467 474.831 85.5433 474.471 84.97C474.111 84.39 473.565 84.1 472.831 84.1ZM484.433 78.87C485.387 78.87 486.187 79.0233 486.833 79.33C487.48 79.63 487.97 80.03 488.303 80.53C488.637 81.0233 488.803 81.5533 488.803 82.12C488.803 82.7667 488.68 83.2933 488.433 83.7C488.187 84.1067 487.88 84.45 487.513 84.73C487.153 85.0033 486.79 85.2667 486.423 85.52C486.057 85.7667 485.75 86.05 485.503 86.37C485.257 86.6833 485.133 87.09 485.133 87.59V88.1H482.663V87.49C482.663 86.8167 482.777 86.2633 483.003 85.83C483.237 85.3967 483.52 85.0367 483.853 84.75C484.193 84.4633 484.53 84.2067 484.863 83.98C485.203 83.7533 485.487 83.5167 485.713 83.27C485.947 83.0167 486.063 82.7033 486.063 82.33C486.063 81.8967 485.887 81.5633 485.533 81.33C485.18 81.09 484.733 80.97 484.193 80.97C483.733 80.97 483.273 81.0767 482.813 81.29C482.36 81.5033 481.943 81.8333 481.563 82.28L479.853 80.96C480.427 80.28 481.093 79.7633 481.853 79.41C482.613 79.05 483.473 78.87 484.433 78.87ZM483.943 90.01C484.403 90.01 484.793 90.1733 485.113 90.5C485.433 90.82 485.593 91.2033 485.593 91.65C485.593 92.1033 485.433 92.4933 485.113 92.82C484.793 93.14 484.403 93.3 483.943 93.3C483.483 93.3 483.093 93.14 482.773 92.82C482.46 92.4933 482.303 92.1033 482.303 91.65C482.303 91.2033 482.46 90.82 482.773 90.5C483.093 90.1733 483.483 90.01 483.943 90.01Z" fill="#FBFFFD"/>
<path d="M718 106.5C717.172 106.5 716.5 107.172 716.5 108C716.5 108.828 717.172 109.5 718 109.5V106.5ZM750.282 109.061C750.868 108.475 750.868 107.525 750.282 106.939L740.736 97.3934C740.15 96.8076 739.201 96.8076 738.615 97.3934C738.029 97.9792 738.029 98.9289 738.615 99.5147L747.1 108L738.615 116.485C738.029 117.071 738.029 118.021 738.615 118.607C739.201 119.192 740.15 119.192 740.736 118.607L750.282 109.061ZM718 109.5H749.221V106.5H718V109.5Z" fill="#57EB23"/>
</svg>
