<svg width="43" height="57" viewBox="0 0 43 57" fill="none" xmlns="http://www.w3.org/2000/svg">
<g clip-path="url(#clip0_20_143)">
<path d="M41.46 0.119995H1.46001V29.12H41.46V0.119995Z" fill="#2D1D00" stroke="black" stroke-width="0.25" stroke-miterlimit="10"/>
<path d="M39.05 38.51L2.93999 38.4L5.45999 16.24H36.76L39.05 38.51Z" fill="#44210B"/>
<path d="M36.42 11.3L35.78 16.24L39.17 38.8801L40.41 38.4001L36.42 11.3Z" fill="#603813"/>
<path d="M36.42 11.3L37.03 11.25L40.9 38.01L40.41 38.4L36.42 11.3Z" fill="#8B6239"/>
<path d="M5.59999 11.12L5.94999 16.24L3.42999 38.92L2.17999 38.54L5.59999 11.12Z" fill="#603813"/>
<path d="M5.59999 11.12H4.98999L1.67999 38.19L2.17999 38.54L5.59999 11.12Z" fill="#8B6239"/>
<path d="M42.45 25.62H0.119995V56.31H42.45V25.62Z" fill="#603813" stroke="#42210B" stroke-width="0.25" stroke-miterlimit="10"/>
<path d="M13.75 43.1799C13.75 43.1799 20.55 45.4499 28.48 43.1799H13.75Z" fill="#42210B"/>
<path d="M30.19 42.51L28.18 40.45C28.12 40.39 28.03 40.35 27.95 40.35H14.73C14.64 40.35 14.56 40.39 14.5 40.45L12.4 42.6C12.19 42.82 12.34 43.18 12.64 43.18L29.96 43.09C30.25 43.09 30.4 42.72 30.19 42.51Z" fill="#744417"/>
</g>
<defs>
<clipPath id="clip0_20_143">
<rect width="42.58" height="56.43" fill="white"/>
</clipPath>
</defs>
</svg>
