<svg width="125" height="55" viewBox="0 0 125 55" fill="none" xmlns="http://www.w3.org/2000/svg">
<path d="M4.71686 46.3941C4.49725 47.1538 4.17627 48.7577 4.61551 50.6824C5.12232 52.8603 6.33865 54.2615 6.89614 54.8355C46.8328 55.5446 85.0632 53.6875 125 54.3966L124.172 47.3058L4.71686 46.411V46.3941Z" fill="#4D4D4D"/>
<path d="M82.3266 0.708954L102.717 29.9163H123.108V51.6277H8.16337C5.81515 47.9135 -0.367932 37.024 0.831519 22.319C1.65931 12.0205 5.74757 4.49072 8.16337 0.708954H82.3266Z" fill="#E4E4E4"/>
<path d="M123.8 52.3032H7.79154L7.58882 51.9824C4.32834 46.8162 -0.97626 36.0956 0.155616 22.2517C0.797576 14.5362 3.3654 6.95575 7.58882 0.320779L7.79154 0H82.6643L103.072 29.2074H123.8V52.2863V52.3032ZM8.55178 50.9357H122.449V30.5749H102.379L81.9717 1.36756H8.53487C5.69673 5.87529 2.26733 13.1011 1.50712 22.353C0.442814 35.5385 5.35885 45.8033 8.53487 50.9357H8.55178Z" fill="black"/>
<path d="M42.3905 39.337C49.6679 39.337 55.5675 33.4412 55.5675 26.1683C55.5675 18.8955 49.6679 12.9997 42.3905 12.9997C35.113 12.9997 29.2134 18.8955 29.2134 26.1683C29.2134 33.4412 35.113 39.337 42.3905 39.337Z" fill="#00FFFF"/>
<path d="M42.3901 39.5567C34.9907 39.5567 28.9766 33.5463 28.9766 26.1685C28.9766 18.7907 34.9907 12.7635 42.3901 12.7635C49.7896 12.7635 55.8037 18.7738 55.8037 26.1685C55.8037 33.5632 49.7727 39.5567 42.3901 39.5567ZM42.3901 13.2194C35.2441 13.2194 29.4496 19.027 29.4496 26.1685C29.4496 33.31 35.2441 39.1177 42.3901 39.1177C49.5362 39.1177 55.3476 33.31 55.3476 26.1685C55.3476 19.027 49.5362 13.2194 42.3901 13.2194Z" fill="#CACACA"/>
<path d="M42.3898 36.8725C48.3051 36.8725 53.1004 32.0802 53.1004 26.1687C53.1004 20.2572 48.3051 15.4649 42.3898 15.4649C36.4745 15.4649 31.6792 20.2572 31.6792 26.1687C31.6792 32.0802 36.4745 36.8725 42.3898 36.8725Z" fill="#E4E4E4"/>
<path d="M42.3901 37.3114C36.2408 37.3114 31.2402 32.314 31.2402 26.1686C31.2402 20.0233 36.2408 15.0091 42.3901 15.0091C48.5394 15.0091 53.5568 20.0064 53.5568 26.1686C53.5568 32.3309 48.5563 37.3114 42.3901 37.3114ZM42.3901 15.9039C36.7307 15.9039 32.1356 20.496 32.1356 26.1518C32.1356 31.8076 36.7307 36.3997 42.3901 36.3997C48.0495 36.3997 52.6614 31.8076 52.6614 26.1518C52.6614 20.496 48.0663 15.9039 42.3901 15.9039Z" fill="#1A1A1A"/>
<path opacity="0.65" d="M42.3892 36.5853C36.6454 36.5853 31.9658 31.9087 31.9658 26.1686C31.9658 20.4284 36.6454 15.7519 42.3892 15.7519C48.1331 15.7519 52.8126 20.4284 52.8126 26.1686C52.8126 31.9087 48.1331 36.5853 42.3892 36.5853ZM42.3892 16.2077C36.8988 16.2077 32.4219 20.6816 32.4219 26.1686C32.4219 31.6555 36.8988 36.1295 42.3892 36.1295C47.8797 36.1295 52.3565 31.6555 52.3565 26.1686C52.3565 20.6816 47.8797 16.2077 42.3892 16.2077Z" fill="#666666"/>
</svg>
