<svg width="15" height="8" viewBox="0 0 15 8" fill="none" xmlns="http://www.w3.org/2000/svg">
<path d="M1.43624 6.05999C1.41624 6.13999 1.37624 6.31999 1.42624 6.52999C1.48624 6.76999 1.61624 6.92999 1.67624 6.98999C6.09624 7.06999 10.3162 6.85999 14.7362 6.93999L14.6462 6.14999L1.43624 6.04999V6.05999Z" fill="#4D4D4D"/>
<path d="M10.0163 1L12.2763 4.23H14.5364V6.63H1.82635C1.56635 6.22 0.88635 5.01 1.01635 3.39C1.10635 2.25 1.55635 1.42 1.82635 1H10.0263H10.0163Z" fill="#E4E4E4" stroke="black" stroke-width="0.15" stroke-miterlimit="10"/>
<path d="M5.60624 5.27998C6.41258 5.27998 7.06624 4.62632 7.06624 3.81998C7.06624 3.01365 6.41258 2.35999 5.60624 2.35999C4.7999 2.35999 4.14624 3.01365 4.14624 3.81998C4.14624 4.62632 4.7999 5.27998 5.60624 5.27998Z" fill="#00FFFF" stroke="#CACACA" stroke-width="0.05" stroke-miterlimit="10"/>
<path d="M5.60627 5.00002C6.25797 5.00002 6.78627 4.47171 6.78627 3.82001C6.78627 3.16832 6.25797 2.64001 5.60627 2.64001C4.95457 2.64001 4.42627 3.16832 4.42627 3.82001C4.42627 4.47171 4.95457 5.00002 5.60627 5.00002Z" fill="#E4E4E4" stroke="#1A1A1A" stroke-width="0.1" stroke-miterlimit="10"/>
<path opacity="0.65" d="M5.60632 4.95C6.2304 4.95 6.73632 4.44409 6.73632 3.82C6.73632 3.19592 6.2304 2.69 5.60632 2.69C4.98224 2.69 4.47632 3.19592 4.47632 3.82C4.47632 4.44409 4.98224 4.95 5.60632 4.95Z" stroke="#666666" stroke-width="0.05" stroke-miterlimit="10"/>
</svg>
