<svg width="405" height="219" viewBox="0 0 405 219" fill="none" xmlns="http://www.w3.org/2000/svg">
<g clip-path="url(#clip0_296_204)">
<path d="M17.2524 71.292C29.9086 66.7518 42.5649 62.7684 55.1782 58.2282L104.516 53.8165C100.269 55.9581 95.335 58.0997 89.7577 60.0272C87.6554 60.7553 82.2068 62.5971 70.7089 64.9528C67.7916 65.5525 58.1814 67.5228 44.0236 69.3217C36.9446 70.2212 27.8922 70.6067 17.2095 71.292H17.2524Z" fill="#42210B" stroke="black" stroke-width="0.05" stroke-miterlimit="10"/>
<path d="M396.554 73.1338L360.516 59.9844H330.141C337.691 63.7536 347.859 67.9511 360.301 70.7352C374.759 73.9904 387.33 73.6478 396.597 73.1338H396.554Z" fill="#42210B" stroke="black" stroke-width="0.05" stroke-miterlimit="10"/>
<path d="M82.0352 211.909C82.0352 212.381 82.2497 216.064 80.8768 217.563C78.8175 219.833 75.4711 219.277 75.0421 219.234C54.2343 219.405 25.2751 218.334 4.03835 218.463C2.96578 218.463 1.97902 217.906 1.5071 216.921C-0.595128 212.552 4.51027 205.999 4.63898 205.827C5.28252 205.87 5.84025 210.025 6.48379 210.068C32.6543 212.124 82.0352 211.909 82.0352 211.909Z" fill="#603813" stroke="black" stroke-width="0.1" stroke-miterlimit="10"/>
<path d="M88.1272 204.928C88.1272 205.399 87.5695 207.583 85.8105 209.768C84.3947 211.567 80.8338 211.61 80.4048 211.567C59.5112 211.738 28.6214 210.582 7.38464 210.71C6.6982 210.71 6.01176 210.453 5.62564 209.896C2.57956 205.527 7.89947 198.717 8.02818 198.503C8.67172 198.546 8.3285 202.187 8.97204 202.229C35.1426 204.328 61.9567 202.829 88.1272 204.928Z" fill="#603813" stroke="black" stroke-width="0.1" stroke-miterlimit="10"/>
<path d="M329.926 210.839C329.926 211.31 329.754 214.993 330.999 216.492C332.886 218.763 336.018 218.206 336.447 218.163C355.839 218.334 382.868 217.263 402.646 217.392C403.633 217.392 404.576 216.835 405.005 215.85C406.979 211.481 402.217 204.928 402.088 204.756C401.487 204.799 400.973 208.954 400.372 208.997C375.96 211.053 329.926 210.839 329.926 210.839Z" fill="#603813" stroke="black" stroke-width="0.15" stroke-miterlimit="10"/>
<path d="M324.22 203.857C324.22 204.328 324.735 206.513 326.365 208.697C327.695 210.496 330.999 210.539 331.428 210.496C350.905 210.667 379.736 209.511 399.514 209.639C400.157 209.639 400.801 209.382 401.144 208.826C403.976 204.457 398.742 197.646 398.613 197.432C398.012 197.475 397.969 201.116 397.369 201.159C372.957 203.257 348.589 201.758 324.177 203.857H324.22Z" fill="#603813" stroke="black" stroke-width="0.15" stroke-miterlimit="10"/>
<path d="M17.2524 71.8488C17.3811 76.1748 17.5527 82.514 17.6385 90.2237C17.853 110.826 17.9388 121.32 16.0511 130.186C14.6353 136.868 11.6751 146.591 4.72485 157.727C5.96903 171.733 7.47062 187.709 8.71479 201.844C8.80059 202.658 9.44413 203.3 10.3022 203.343C36.344 204.885 62.1285 203.215 88.1703 204.842C88.5993 204.071 89.9722 202.272 92.6751 201.501C95.6782 200.645 98.3811 200.388 99.2392 200.516C169.299 199.531 241.161 200.602 311.221 199.617C312.465 199.445 317.913 199.274 320.273 199.617C322.032 199.874 323.362 201.887 324.263 202.958C349.533 202.272 372.142 201.844 397.412 201.201L404.233 158.241C402.303 155.671 399.428 151.431 397.197 145.734C392.564 134.127 393.722 124.832 395.267 99.1328C395.61 93.6503 396.125 84.8269 396.64 73.6906C390.462 73.6906 382.053 73.3051 372.185 71.8488C360.473 70.0927 340.652 65.8951 316.069 53.3025C277.37 33.4713 280.459 19.2083 253.388 8.71443C217.95 -5.03464 184.015 3.48892 178.523 4.94521C135.32 16.3814 126.525 51.8034 84.3949 62.0403C67.3197 66.195 47.0268 68.9362 47.0268 68.9362C34.8424 70.6067 24.6316 71.4205 17.424 71.8488H17.2524Z" fill="#603813" stroke="black" stroke-width="0.25" stroke-miterlimit="10"/>
<path d="M125.281 99.9895L125.71 120.806C125.71 120.806 128.627 122.99 130.901 120.549L130.172 100.032C130.172 99.4326 127.126 97.548 125.281 100.032V99.9895Z" fill="#666666" stroke="#1A1A1A" stroke-width="0.08" stroke-miterlimit="10"/>
<path d="M127.726 101.617C129.077 101.617 130.172 100.965 130.172 100.161C130.172 99.3565 129.077 98.7045 127.726 98.7045C126.376 98.7045 125.281 99.3565 125.281 100.161C125.281 100.965 126.376 101.617 127.726 101.617Z" fill="#1A1A1A"/>
<path d="M125.281 106.543C125.281 106.543 127.855 108.641 130.386 106.543" stroke="#1A1A1A" stroke-width="0.05" stroke-miterlimit="10"/>
<path d="M125.538 112.411C125.538 112.411 127.855 114.424 130.515 112.368" stroke="#1A1A1A" stroke-width="0.05" stroke-miterlimit="10"/>
<path d="M17.2524 71.806C24.7604 115.623 32.3112 159.483 39.8192 203.3L88.1704 204.928C82.593 158.798 76.3721 111.383 70.7948 65.2527C61.0988 67.4371 50.2016 69.3646 38.2318 70.5639C30.8525 71.292 23.8165 71.6775 17.2524 71.806Z" fill="#42210B" stroke="black" stroke-width="0.05" stroke-miterlimit="10"/>
<path d="M347.001 66.9659L326.065 202.315L373.944 201.373L396.554 74.5472C389.432 74.5472 381.195 74.076 372.099 72.7054C362.489 71.2491 354.08 69.1504 347.001 66.9231V66.9659Z" fill="#42210B" stroke="black" stroke-width="0.05" stroke-miterlimit="10"/>
<path d="M210.657 187.024C254.302 187.024 289.684 151.701 289.684 108.127C289.684 64.554 254.302 29.2308 210.657 29.2308C167.012 29.2308 131.631 64.554 131.631 108.127C131.631 151.701 167.012 187.024 210.657 187.024Z" fill="#E2E2D7" stroke="#2B140A" stroke-width="0.75" stroke-miterlimit="10"/>
<path d="M210.657 187.024C254.302 187.024 289.684 151.701 289.684 108.127C289.684 64.554 254.302 29.2308 210.657 29.2308C167.012 29.2308 131.631 64.554 131.631 108.127C131.631 151.701 167.012 187.024 210.657 187.024Z" fill="#E2E2D7" stroke="#2B140A" stroke-width="0.75" stroke-miterlimit="10"/>
<path d="M210.4 53.6882C240.088 53.6882 264.285 77.8026 264.285 107.485C264.285 137.168 240.131 161.282 210.4 161.282C180.668 161.282 156.514 137.168 156.514 107.485C156.514 77.8026 180.668 53.6882 210.4 53.6882ZM210.4 52.6174C180.068 52.6174 155.442 77.1602 155.442 107.485C155.442 137.81 180.025 162.353 210.4 162.353C240.775 162.353 265.358 137.81 265.358 107.485C265.358 77.1602 240.775 52.6174 210.4 52.6174Z" fill="#42210B"/>
<path d="M210.55 48.3985C210.55 48.5127 210.392 48.5698 210.078 48.5698H209.82C209.82 48.5698 209.549 48.5698 209.005 48.5698C208.462 48.5555 207.911 48.5484 207.353 48.5484C206.367 48.5484 205.737 48.5555 205.466 48.5698C205.194 48.5841 204.979 48.5912 204.822 48.5912C204.479 48.5912 204.307 48.5269 204.307 48.3985C204.307 48.27 204.407 48.2057 204.608 48.2057C204.922 48.2057 205.258 48.1986 205.616 48.1843C206.059 48.17 206.295 48.0629 206.324 47.8631C206.367 47.6489 206.388 47.1992 206.388 46.5138V36.4483C206.388 35.9914 206.374 35.7202 206.345 35.6345C206.317 35.5489 206.216 35.506 206.045 35.506C205.973 35.506 205.509 35.5417 204.65 35.6131C204.479 35.6274 204.364 35.6345 204.307 35.6345C204.136 35.6345 204.05 35.5845 204.05 35.4846C204.05 35.3704 204.136 35.3061 204.307 35.2919C204.979 35.2205 205.659 35.0206 206.345 34.6922C207.032 34.3496 207.582 33.9498 207.997 33.4929C208.154 33.3644 208.261 33.3002 208.319 33.3002C208.433 33.3002 208.49 33.3716 208.49 33.5143V33.9212C208.476 34.0355 208.469 34.1639 208.469 34.3067V47.1135C208.469 47.6275 208.49 47.9273 208.533 48.013C208.59 48.0986 208.769 48.1486 209.069 48.1629L209.563 48.1843L209.928 48.2057H210.249C210.449 48.2057 210.55 48.27 210.55 48.3985Z" fill="black"/>
<path d="M249.291 59.3637C249.291 59.4779 249.133 59.535 248.819 59.535H248.561C248.561 59.535 248.29 59.535 247.746 59.535C247.203 59.5207 246.652 59.5136 246.094 59.5136C245.108 59.5136 244.478 59.5207 244.207 59.535C243.935 59.5493 243.721 59.5564 243.563 59.5564C243.22 59.5564 243.048 59.4922 243.048 59.3637C243.048 59.2352 243.148 59.1709 243.349 59.1709C243.663 59.1709 243.999 59.1638 244.357 59.1495C244.8 59.1353 245.036 59.0282 245.065 58.8283C245.108 58.6141 245.129 58.1644 245.129 57.4791V47.4136C245.129 46.9567 245.115 46.6854 245.086 46.5998C245.058 46.5141 244.958 46.4713 244.786 46.4713C244.714 46.4713 244.25 46.507 243.392 46.5783C243.22 46.5926 243.106 46.5998 243.048 46.5998C242.877 46.5998 242.791 46.5498 242.791 46.4498C242.791 46.3356 242.877 46.2714 243.048 46.2571C243.721 46.1857 244.4 45.9858 245.086 45.6575C245.773 45.3148 246.323 44.915 246.738 44.4582C246.895 44.3297 247.003 44.2654 247.06 44.2654C247.174 44.2654 247.231 44.3368 247.231 44.4796V44.8865C247.217 45.0007 247.21 45.1292 247.21 45.272V58.0787C247.21 58.5927 247.231 58.8925 247.274 58.9782C247.331 59.0639 247.51 59.1138 247.811 59.1281L248.304 59.1495L248.669 59.1709H248.99C249.191 59.1709 249.291 59.2352 249.291 59.3637Z" fill="black"/>
<path d="M273.53 77.6312C273.53 77.674 273.516 77.7883 273.487 77.9739C273.415 78.445 273.301 79.6086 273.144 81.4647L273.122 81.7217C271.649 81.6503 269.969 81.6146 268.081 81.6146C267.066 81.6146 266.115 81.6289 265.228 81.6574C264.342 81.686 263.955 81.7002 264.07 81.7002C263.684 81.7002 263.491 81.6289 263.491 81.4861C263.491 81.3719 263.862 81.0149 264.606 80.4153C266.394 78.959 267.666 77.774 268.424 76.8602C269.74 75.2754 270.398 73.4123 270.398 71.2707C270.398 69.8286 270.098 68.7364 269.497 67.994C269.039 67.4229 268.396 67.1374 267.566 67.1374C266.751 67.1374 266.108 67.3872 265.636 67.8869C265.264 68.2724 265.078 68.6579 265.078 69.0434C265.078 69.2861 265.271 69.4146 265.657 69.4289C266.658 69.4717 267.159 69.9072 267.159 70.7353C267.159 71.5205 266.744 71.9131 265.915 71.9131C265.385 71.9131 264.964 71.7489 264.649 71.4206C264.334 71.0922 264.177 70.6424 264.177 70.0714C264.177 69.0148 264.549 68.1653 265.293 67.5229C266.036 66.8804 267.016 66.5591 268.231 66.5591C269.447 66.5591 270.455 66.9446 271.256 67.7156C272.186 68.6151 272.65 69.7858 272.65 71.2278C272.65 72.8126 272.121 74.276 271.063 75.6181C270.005 76.9459 268.224 78.395 265.722 79.9655C266.665 79.937 267.852 79.9227 269.282 79.9227C270.469 79.9227 271.22 79.9084 271.535 79.8799C271.849 79.8371 272.128 79.7442 272.371 79.6015C272.572 79.473 272.743 78.9947 272.886 78.1666C272.986 77.5955 273.129 77.31 273.315 77.31C273.458 77.31 273.53 77.417 273.53 77.6312Z" fill="black"/>
<path d="M282.248 107.475C282.248 108.778 281.721 109.893 280.667 110.82C279.503 111.841 278.017 112.351 276.208 112.351C274.729 112.351 273.643 112.006 272.951 111.315C272.511 110.875 272.291 110.372 272.291 109.807C272.291 109.32 272.44 108.935 272.739 108.653C273.053 108.354 273.47 108.205 273.989 108.205C274.398 108.205 274.737 108.323 275.004 108.558C275.272 108.794 275.405 109.092 275.405 109.454C275.405 110.003 275.036 110.435 274.296 110.749C273.997 110.875 273.848 111.001 273.848 111.126C273.848 111.33 274.052 111.519 274.461 111.692C274.87 111.849 275.319 111.927 275.806 111.927C277.002 111.927 277.969 111.519 278.709 110.702C279.464 109.886 279.841 108.818 279.841 107.498C279.841 104.844 278.646 103.517 276.255 103.517C276.019 103.517 275.846 103.525 275.736 103.541H275.57C275.366 103.541 275.264 103.47 275.264 103.329C275.264 103.219 275.452 103.132 275.83 103.07C276.931 102.912 277.781 102.512 278.378 101.868C278.976 101.208 279.275 100.368 279.275 99.3474C279.275 98.3423 279.015 97.5414 278.496 96.9446C277.977 96.3321 277.277 96.0258 276.396 96.0258C275.751 96.0258 275.185 96.1672 274.697 96.4499C274.225 96.7168 273.989 97.0309 273.989 97.3922C273.989 97.5335 274.1 97.6277 274.32 97.6749C275.358 97.9261 275.877 98.358 275.877 98.9705C275.877 99.7715 275.46 100.172 274.627 100.172C274.092 100.172 273.659 100.015 273.329 99.7008C273.014 99.3867 272.857 98.9705 272.857 98.4523C272.857 97.6042 273.219 96.8975 273.942 96.3321C274.682 95.751 275.704 95.4604 277.01 95.4604C278.504 95.4604 279.645 95.8452 280.431 96.6148C281.218 97.3843 281.611 98.2795 281.611 99.3003C281.611 100.714 280.943 101.758 279.605 102.433C279.133 102.669 278.371 102.865 277.317 103.022V103.187C278.622 103.234 279.676 103.525 280.478 104.059C281.658 104.844 282.248 105.983 282.248 107.475Z" fill="black"/>
<path d="M273.494 139.716C273.494 139.873 273.415 139.952 273.258 139.952C273.117 139.952 273.022 139.866 272.975 139.693C272.944 139.504 272.888 139.01 272.81 138.209C272.778 138.083 272.715 137.989 272.621 137.926C272.432 137.816 272.015 137.761 271.37 137.761C271.197 137.761 271.032 137.769 270.875 137.785L270.899 141.483C270.977 141.672 271.103 141.789 271.276 141.837C271.465 141.884 271.913 141.907 272.621 141.907C272.967 141.907 273.172 141.939 273.235 142.001C273.25 142.033 273.258 142.08 273.258 142.143C273.258 142.253 272.944 142.308 272.314 142.308C271.685 142.308 269.923 142.323 267.029 142.355C266.871 142.37 266.698 142.378 266.51 142.378C266.195 142.378 266.038 142.3 266.038 142.143C266.038 141.986 266.266 141.915 266.722 141.931C267.257 141.946 267.744 141.915 268.185 141.837C268.374 141.805 268.492 141.727 268.539 141.601C268.586 141.46 268.61 141.161 268.61 140.706V137.855C268.295 137.84 267.933 137.832 267.524 137.832H266.557C266.337 137.832 266.093 137.84 265.825 137.855C265.589 137.855 265.44 137.855 265.377 137.855L262.38 137.785C262.16 137.769 262.05 137.706 262.05 137.596C262.05 137.518 263.206 135.892 265.519 132.72C266.242 131.699 267.839 129.453 270.309 125.982C270.419 125.825 270.529 125.747 270.639 125.747C270.796 125.747 270.875 125.896 270.875 126.194V137.266H271.111C271.646 137.266 272.063 137.235 272.362 137.172C272.676 137.109 272.833 136.952 272.833 136.701C272.818 135.712 272.81 135.374 272.81 135.688C272.826 135.123 272.912 134.84 273.069 134.84C273.29 134.84 273.4 135.06 273.4 135.5V136.56L273.423 138.256C273.439 138.837 273.455 139.206 273.471 139.363C273.486 139.504 273.494 139.622 273.494 139.716ZM268.751 129.21C268.594 129.461 268.264 129.94 267.76 130.647C267.068 131.605 266.022 133.034 264.622 134.934L262.947 137.219C263.529 137.266 264.779 137.29 266.698 137.29C267.375 137.29 268.012 137.282 268.61 137.266V135.594C268.61 134.809 268.633 133.748 268.68 132.413C268.728 130.843 268.751 129.775 268.751 129.21Z" fill="black"/>
<path d="M250.942 167.043C250.942 168.871 250.241 170.27 248.84 171.241C247.996 171.826 246.902 172.119 245.558 172.119C244.213 172.119 243.227 171.769 242.597 171.069C242.254 170.684 242.083 170.227 242.083 169.699C242.083 169.256 242.226 168.899 242.512 168.628C242.798 168.342 243.17 168.2 243.627 168.2C243.999 168.2 244.306 168.307 244.55 168.521C244.807 168.735 244.936 168.999 244.936 169.313C244.936 169.842 244.585 170.241 243.885 170.513C243.57 170.627 243.413 170.755 243.413 170.898C243.413 171.127 243.62 171.334 244.035 171.519C244.464 171.691 244.936 171.776 245.451 171.776C246.452 171.776 247.202 171.434 247.703 170.748C248.389 169.806 248.733 168.535 248.733 166.936C248.733 165.765 248.461 164.859 247.917 164.216C247.374 163.574 246.602 163.253 245.601 163.253C244.828 163.253 243.978 163.545 243.048 164.131C243.134 160.918 243.198 158.891 243.241 158.049C243.255 157.563 243.363 157.27 243.563 157.17C243.763 157.056 244.306 156.999 245.193 156.999C245.336 156.999 245.579 156.999 245.922 156.999C246.266 157.013 246.537 157.021 246.738 157.021H247.467C248.454 157.021 249.026 157.006 249.183 156.978C249.355 156.935 249.462 156.814 249.505 156.614C249.562 156.285 249.662 156.121 249.805 156.121C249.948 156.121 250.02 156.2 250.02 156.357C250.02 156.457 250.012 156.535 249.998 156.592L249.955 157.085C249.884 157.884 249.734 158.384 249.505 158.584C249.29 158.77 248.754 158.862 247.896 158.862L243.799 158.841C243.742 159.326 243.692 160.79 243.649 163.231C244.464 162.86 245.315 162.674 246.201 162.674C247.674 162.674 248.833 163.067 249.676 163.852C250.52 164.623 250.942 165.687 250.942 167.043Z" fill="black"/>
<path d="M216.127 177.194C216.127 178.579 215.705 179.764 214.861 180.749C214.017 181.735 213.009 182.227 211.837 182.227C210.364 182.227 209.169 181.62 208.254 180.407C207.339 179.193 206.881 177.616 206.881 175.674C206.881 173.889 207.267 172.262 208.04 170.791C208.826 169.32 209.87 168.25 211.172 167.579C212.258 167.022 213.445 166.743 214.733 166.743C215.033 166.743 215.183 166.8 215.183 166.915C215.183 167.015 215.083 167.072 214.883 167.086C213.596 167.2 212.459 167.664 211.472 168.478C210.185 169.535 209.427 171.334 209.198 173.875C209.985 173.132 210.871 172.761 211.858 172.761C212.659 172.761 213.41 172.975 214.11 173.404C215.455 174.218 216.127 175.481 216.127 177.194ZM213.917 177.259C213.917 174.603 213.095 173.275 211.45 173.275C210.707 173.275 210.135 173.596 209.734 174.239C209.334 174.867 209.134 175.752 209.134 176.895C209.134 178.536 209.427 179.864 210.013 180.878C210.385 181.52 210.928 181.842 211.644 181.842C213.159 181.842 213.917 180.314 213.917 177.259Z" fill="black"/>
<path d="M180.561 158.091C180.561 158.177 179.731 159.512 178.072 162.096C177.143 163.552 176.506 164.694 176.163 165.523C175.82 166.336 175.648 167.15 175.648 167.964C175.648 168.378 175.749 169.192 175.949 170.405C176.02 170.834 176.056 171.198 176.056 171.498C176.056 172.511 175.677 173.018 174.919 173.018C174.018 173.018 173.568 172.24 173.568 170.684C173.568 169.242 174.233 167.343 175.563 164.987C176.406 163.502 177.5 161.775 178.845 159.804H175.584C173.897 159.804 172.924 159.812 172.667 159.826C172.352 159.84 172.13 159.89 172.002 159.976C171.887 160.061 171.801 160.183 171.744 160.34C171.701 160.483 171.587 160.982 171.401 161.839C171.344 162.01 171.258 162.096 171.144 162.096C171.001 162.096 170.929 162.01 170.929 161.839C170.929 161.668 170.965 161.389 171.036 161.004C171.194 160.133 171.294 159.39 171.337 158.777C171.365 158.334 171.458 158.027 171.616 157.856C171.716 157.856 172.009 157.87 172.495 157.898C173.582 157.956 174.368 157.984 174.855 157.984L179.295 157.941C179.41 157.941 179.531 157.934 179.66 157.92C179.774 157.92 179.846 157.92 179.874 157.92C180.332 157.92 180.561 157.977 180.561 158.091Z" fill="black"/>
<path d="M157.8 143.207C157.8 144.635 157.207 145.784 156.02 146.655C155.219 147.241 154.225 147.533 153.038 147.533C151.765 147.533 150.693 147.248 149.82 146.677C148.633 145.906 148.04 144.821 148.04 143.421C148.04 141.294 149.191 139.945 151.494 139.374V139.267C150.621 139.024 149.935 138.617 149.434 138.046C148.948 137.461 148.705 136.768 148.705 135.969C148.705 134.855 149.084 133.948 149.842 133.249C150.614 132.535 151.608 132.178 152.824 132.178C153.896 132.178 154.776 132.435 155.462 132.949C156.463 133.691 156.964 134.648 156.964 135.819C156.964 136.661 156.713 137.418 156.213 138.089C155.712 138.746 155.09 139.145 154.347 139.288L154.368 139.374C156.656 139.831 157.8 141.109 157.8 143.207ZM154.84 135.862C154.84 134.591 154.611 133.656 154.154 133.056C153.882 132.699 153.446 132.521 152.845 132.521C151.501 132.521 150.829 133.641 150.829 135.883C150.829 138.067 151.551 139.16 152.995 139.16C153.639 139.16 154.089 138.924 154.347 138.453C154.676 137.839 154.84 136.975 154.84 135.862ZM155.612 143.421C155.612 140.823 154.74 139.524 152.995 139.524C152.123 139.524 151.444 139.859 150.957 140.53C150.471 141.187 150.228 142.101 150.228 143.272C150.228 144.485 150.478 145.442 150.979 146.141C151.494 146.841 152.194 147.191 153.081 147.191C153.839 147.191 154.397 146.976 154.754 146.548C155.326 145.863 155.612 144.821 155.612 143.421Z" fill="black"/>
<path d="M148.763 102.287C148.763 104.345 148.283 106.214 147.323 107.894C146.38 109.559 145.137 110.713 143.595 111.357C142.463 111.828 141.33 112.064 140.197 112.064C139.788 112.064 139.584 112.009 139.584 111.899C139.584 111.805 139.694 111.742 139.914 111.71C142.573 111.365 144.397 110.046 145.389 107.753C145.782 106.826 146.057 105.648 146.214 104.219C145.349 105.036 144.374 105.444 143.288 105.444C142.25 105.444 141.306 105.13 140.457 104.502C139.214 103.591 138.593 102.248 138.593 100.474C138.593 98.9658 139.049 97.6859 139.961 96.6336C140.889 95.5657 142.006 95.0317 143.312 95.0317C144.917 95.0317 146.222 95.707 147.229 97.0577C148.252 98.4083 148.763 100.152 148.763 102.287ZM146.285 100.733C146.285 98.9423 145.955 97.5288 145.294 96.4923C144.838 95.7855 144.217 95.4322 143.43 95.4322C141.81 95.4322 141 97.1283 141 100.521C141 103.426 141.904 104.879 143.713 104.879C144.515 104.879 145.145 104.518 145.601 103.795C146.057 103.057 146.285 102.036 146.285 100.733Z" fill="black"/>
<path d="M153.96 79.8799C153.96 79.9941 153.803 80.0512 153.488 80.0512H153.231C153.231 80.0512 152.959 80.0512 152.416 80.0512C151.872 80.0369 151.322 80.0298 150.764 80.0298C149.777 80.0298 149.148 80.0369 148.876 80.0512C148.605 80.0655 148.39 80.0726 148.233 80.0726C147.89 80.0726 147.718 80.0084 147.718 79.8799C147.718 79.7514 147.818 79.6871 148.018 79.6871C148.333 79.6871 148.669 79.68 149.027 79.6657C149.47 79.6514 149.706 79.5443 149.734 79.3445C149.777 79.1303 149.799 78.6806 149.799 77.9953V67.9297C149.799 67.4729 149.784 67.2016 149.756 67.1159C149.727 67.0303 149.627 66.9874 149.456 66.9874C149.384 66.9874 148.919 67.0231 148.061 67.0945C147.89 67.1088 147.775 67.1159 147.718 67.1159C147.546 67.1159 147.461 67.066 147.461 66.966C147.461 66.8518 147.546 66.7876 147.718 66.7733C148.39 66.7019 149.069 66.502 149.756 66.1736C150.442 65.831 150.993 65.4312 151.408 64.9743C151.565 64.8458 151.672 64.7816 151.729 64.7816C151.844 64.7816 151.901 64.853 151.901 64.9957V65.4026C151.887 65.5169 151.88 65.6454 151.88 65.7881V78.5949C151.88 79.1089 151.901 79.4087 151.944 79.4944C152.001 79.58 152.18 79.63 152.48 79.6443L152.974 79.6657L153.338 79.6871H153.66C153.86 79.6871 153.96 79.7514 153.96 79.8799Z" fill="black"/>
<path d="M177 58.0357C177 58.1499 176.842 58.207 176.528 58.207H176.27C176.27 58.207 175.998 58.207 175.455 58.207C174.912 58.1927 174.361 58.1856 173.803 58.1856C172.817 58.1856 172.187 58.1927 171.916 58.207C171.644 58.2213 171.429 58.2284 171.272 58.2284C170.929 58.2284 170.757 58.1641 170.757 58.0357C170.757 57.9072 170.857 57.8429 171.058 57.8429C171.372 57.8429 171.708 57.8358 172.066 57.8215C172.509 57.8072 172.745 57.7001 172.774 57.5003C172.817 57.2861 172.838 56.8364 172.838 56.151V46.0855C172.838 45.6286 172.824 45.3574 172.795 45.2717C172.766 45.186 172.666 45.1432 172.495 45.1432C172.423 45.1432 171.958 45.1789 171.1 45.2503C170.929 45.2646 170.814 45.2717 170.757 45.2717C170.586 45.2717 170.5 45.2217 170.5 45.1218C170.5 45.0076 170.586 44.9433 170.757 44.9291C171.429 44.8577 172.109 44.6578 172.795 44.3294C173.481 43.9868 174.032 43.587 174.447 43.1301C174.604 43.0016 174.711 42.9374 174.769 42.9374C174.883 42.9374 174.94 43.0088 174.94 43.1515V43.5584C174.926 43.6727 174.919 43.8011 174.919 43.9439V56.7507C174.919 57.2647 174.94 57.5645 174.983 57.6502C175.04 57.7358 175.219 57.7858 175.519 57.8001L176.013 57.8215L176.377 57.8429H176.699C176.899 57.8429 177 57.9072 177 58.0357Z" fill="black"/>
<path d="M218.786 44.5222C218.786 44.565 218.772 44.6792 218.743 44.8648C218.672 45.336 218.557 46.4996 218.4 48.3556L218.379 48.6126C216.906 48.5412 215.225 48.5055 213.337 48.5055C212.322 48.5055 211.371 48.5198 210.484 48.5484C209.598 48.5769 209.212 48.5912 209.326 48.5912C208.94 48.5912 208.747 48.5198 208.747 48.377C208.747 48.2628 209.119 47.9059 209.862 47.3062C211.65 45.8499 212.923 44.6649 213.681 43.7512C214.996 42.1664 215.654 40.3032 215.654 38.1616C215.654 36.7196 215.354 35.6274 214.753 34.885C214.296 34.3139 213.652 34.0283 212.823 34.0283C212.008 34.0283 211.364 34.2782 210.892 34.7779C210.52 35.1634 210.334 35.5488 210.334 35.9343C210.334 36.1771 210.527 36.3055 210.914 36.3198C211.915 36.3627 212.415 36.7981 212.415 37.6262C212.415 38.4115 212 38.8041 211.171 38.8041C210.642 38.8041 210.22 38.6399 209.905 38.3115C209.591 37.9831 209.433 37.5334 209.433 36.9623C209.433 35.9058 209.805 35.0563 210.549 34.4138C211.292 33.7713 212.272 33.4501 213.488 33.4501C214.703 33.4501 215.711 33.8356 216.512 34.6065C217.442 35.506 217.907 36.6768 217.907 38.1188C217.907 39.7036 217.377 41.167 216.319 42.5091C215.261 43.8368 213.481 45.286 210.978 46.8565C211.922 46.8279 213.109 46.8137 214.539 46.8137C215.726 46.8137 216.477 46.7994 216.791 46.7708C217.106 46.728 217.385 46.6352 217.628 46.4924C217.828 46.3639 218 45.8856 218.143 45.0576C218.243 44.4865 218.386 44.2009 218.572 44.2009C218.715 44.2009 218.786 44.308 218.786 44.5222Z" fill="black"/>
<path d="M182.577 58.0357C182.577 58.1499 182.42 58.207 182.105 58.207H181.848C181.848 58.207 181.576 58.207 181.033 58.207C180.489 58.1927 179.939 58.1856 179.381 58.1856C178.394 58.1856 177.765 58.1927 177.493 58.207C177.221 58.2213 177.007 58.2284 176.85 58.2284C176.506 58.2284 176.335 58.1641 176.335 58.0357C176.335 57.9072 176.435 57.8429 176.635 57.8429C176.95 57.8429 177.286 57.8358 177.643 57.8215C178.087 57.8072 178.323 57.7001 178.351 57.5003C178.394 57.2861 178.415 56.8364 178.415 56.151V46.0855C178.415 45.6286 178.401 45.3574 178.373 45.2717C178.344 45.186 178.244 45.1432 178.072 45.1432C178.001 45.1432 177.536 45.1789 176.678 45.2503C176.506 45.2646 176.392 45.2717 176.335 45.2717C176.163 45.2717 176.077 45.2217 176.077 45.1218C176.077 45.0076 176.163 44.9433 176.335 44.9291C177.007 44.8577 177.686 44.6578 178.373 44.3294C179.059 43.9868 179.61 43.587 180.024 43.1301C180.182 43.0016 180.289 42.9374 180.346 42.9374C180.461 42.9374 180.518 43.0088 180.518 43.1515V43.5584C180.503 43.6727 180.496 43.8011 180.496 43.9439V56.7507C180.496 57.2647 180.518 57.5645 180.561 57.6502C180.618 57.7358 180.797 57.7858 181.097 57.8001L181.59 57.8215L181.955 57.8429H182.277C182.477 57.8429 182.577 57.9072 182.577 58.0357Z" fill="black"/>
<path d="M162.434 72.8554C162.434 74.1261 162.241 75.3254 161.855 76.4533C161.483 77.5812 160.968 78.4878 160.31 79.1731C159.61 79.9156 158.716 80.2868 157.629 80.2868C156.142 80.2868 154.912 79.5586 153.939 78.1023C152.981 76.646 152.502 74.7829 152.502 72.5128C152.502 69.8857 153.181 67.8155 154.54 66.3021C155.355 65.3884 156.356 64.9315 157.543 64.9315C158.945 64.9315 160.06 65.5668 160.89 66.8375C161.919 68.408 162.434 70.414 162.434 72.8554ZM160.117 72.0844C160.117 69.9571 159.881 68.201 159.409 66.8161C159.052 65.7596 158.423 65.2313 157.522 65.2313C155.72 65.2313 154.819 67.6228 154.819 72.4057C154.819 77.417 155.77 79.9227 157.672 79.9227C158.558 79.9227 159.195 79.1946 159.581 77.7383C159.939 76.4105 160.117 74.5259 160.117 72.0844Z" fill="black"/>
<path d="M210.4 110.997C208.426 110.997 206.839 109.413 206.839 107.442C206.839 105.472 208.426 103.887 210.4 103.887C212.373 103.887 213.96 105.472 213.96 107.442C213.96 109.413 212.373 110.997 210.4 110.997Z" fill="black"/>
<path d="M210.399 105.086C211.687 105.086 212.759 106.157 212.759 107.442C212.759 108.727 211.687 109.798 210.399 109.798C209.112 109.798 208.04 108.727 208.04 107.442C208.04 106.157 209.112 105.086 210.399 105.086ZM210.399 102.731C207.782 102.731 205.68 104.829 205.68 107.442C205.68 110.055 207.782 112.154 210.399 112.154C213.017 112.154 215.119 110.055 215.119 107.442C215.119 104.829 213.017 102.731 210.399 102.731Z" fill="black"/>
<path d="M188.348 120.292L198.987 118.835L201.004 113.267L195.255 112.025L188.348 120.292Z" fill="black" stroke="#1A1A1A" stroke-width="0.05" stroke-miterlimit="10"/>
<path d="M206.066 110.483L204.522 115.752L199.245 114.295L200.875 109.155L206.066 110.483Z" fill="black" stroke="#1A1A1A" stroke-width="0.05" stroke-miterlimit="10"/>
<path d="M247.296 87.6966C247.296 87.6966 253.903 85.6406 257.121 88.2962C257.121 88.2962 257.635 81.0148 266.688 76.3889C266.688 76.3889 258.107 82.2141 251.543 78.3164C251.543 78.3164 250.556 83.499 246.652 86.2831L247.339 87.6966H247.296Z" fill="black" stroke="black" stroke-width="0.05" stroke-miterlimit="10"/>
<path d="M242.062 85.6406L233.781 92.2367L237.686 92.4937L236.441 96.3486L246.137 92.2367L249.098 86.1974L242.062 85.6406Z" fill="black" stroke="black" stroke-width="0.05" stroke-miterlimit="10"/>
<path d="M214.947 103.716L232.323 91.0803L240.474 90.9946L236.098 97.8477L216.363 106.071C216.234 105.686 215.205 103.973 214.99 103.716H214.947Z" fill="black" stroke="#1A1A1A" stroke-width="0.05" stroke-miterlimit="10"/>
<path d="M250.342 90.3093C248.368 88.3818 246.952 86.0689 246.223 83.4133C248.197 85.3408 249.57 87.6537 250.342 90.3093Z" fill="#1A1A1A"/>
<path d="M197.357 87.6538L199.202 97.1197L204.307 98.6616L205.165 93.4361L197.357 87.6538Z" fill="black" stroke="#1A1A1A" stroke-width="0.05" stroke-miterlimit="10"/>
<path d="M207.053 103.03L202.248 101.917L203.321 97.1196L207.997 98.3189L207.053 103.03Z" fill="black" stroke="#1A1A1A" stroke-width="0.05" stroke-miterlimit="10"/>
<path d="M212.588 112.539L214.218 119.221L219.152 120.549L220.053 115.409L214.69 111.211C214.475 111.468 212.888 112.411 212.588 112.539Z" fill="black" stroke="#1A1A1A" stroke-width="0.05" stroke-miterlimit="10"/>
<path d="M217.779 121.405C217.779 121.405 218.551 128.173 216.406 131.257C216.406 131.257 226.274 131 231.164 138.624C231.164 138.624 226.445 128.944 229.405 122.776C229.405 122.776 222.927 123.119 220.181 119.906L217.822 121.405H217.779Z" fill="black" stroke="#1A1A1A" stroke-width="0.05" stroke-miterlimit="10"/>
<path d="M216.063 122.134C217.479 120.035 219.452 118.793 221.94 118.407C220.525 120.506 218.508 121.748 216.063 122.134Z" fill="#1A1A1A"/>
</g>
<defs>
<clipPath id="clip0_296_204">
<rect width="405" height="219" fill="white"/>
</clipPath>
</defs>
</svg>
