<svg width="784" height="424" viewBox="0 0 784 424" fill="none" xmlns="http://www.w3.org/2000/svg">
<g clip-path="url(#clip0_77_805)">
<path d="M31.8915 136.993C56.3915 128.203 80.8915 120.491 105.308 111.701L200.817 103.16C192.595 107.306 183.044 111.452 172.247 115.184C168.178 116.594 157.63 120.159 135.373 124.72C129.725 125.881 111.122 129.696 83.7152 133.179C70.0119 134.92 52.4881 135.667 31.8085 136.993H31.8915Z" fill="#42210B" stroke="black" stroke-width="0.05" stroke-miterlimit="10"/>
<path d="M766.144 140.559L696.381 115.101H637.581C652.198 122.399 671.881 130.525 695.966 135.915C723.954 142.218 748.288 141.554 766.227 140.559H766.144Z" fill="#42210B" stroke="black" stroke-width="0.05" stroke-miterlimit="10"/>
<path d="M157.298 409.239C157.298 410.151 157.714 417.283 155.056 420.185C151.069 424.58 144.591 423.502 143.761 423.419C103.481 423.751 47.422 421.678 6.31182 421.927C4.23554 421.927 2.32537 420.848 1.41182 418.941C-2.65768 410.483 7.22537 397.795 7.47453 397.463C8.72029 397.546 9.79995 405.59 11.0457 405.673C61.7067 409.653 157.298 409.239 157.298 409.239Z" fill="#603813" stroke="black" stroke-width="0.1" stroke-miterlimit="10"/>
<path d="M169.091 395.722C169.091 396.634 168.012 400.863 164.607 405.092C161.866 408.575 154.973 408.658 154.142 408.575C113.697 408.907 53.8999 406.668 12.7897 406.917C11.4609 406.917 10.1321 406.419 9.38465 405.341C3.48804 396.883 13.7863 383.698 14.0355 383.283C15.2813 383.366 14.6169 390.415 15.8626 390.498C66.5236 394.561 118.43 391.658 169.091 395.722Z" fill="#603813" stroke="black" stroke-width="0.1" stroke-miterlimit="10"/>
<path d="M637.166 407.166C637.166 408.078 636.834 415.21 639.242 418.112C642.897 422.507 648.959 421.429 649.79 421.346C687.329 421.678 739.651 419.605 777.937 419.854C779.847 419.854 781.675 418.775 782.505 416.868C786.325 408.41 777.107 395.722 776.858 395.39C775.695 395.473 774.698 403.517 773.536 403.6C726.28 407.58 637.166 407.166 637.166 407.166Z" fill="#603813" stroke="black" stroke-width="0.15" stroke-miterlimit="10"/>
<path d="M626.12 393.649C626.12 394.561 627.117 398.79 630.273 403.019C632.848 406.502 639.242 406.585 640.073 406.502C677.778 406.834 733.588 404.595 771.875 404.844C773.12 404.844 774.366 404.346 775.031 403.268C780.512 394.81 770.38 381.625 770.131 381.21C768.968 381.293 768.885 388.342 767.722 388.425C720.466 392.488 673.293 389.585 626.037 393.649H626.12Z" fill="#603813" stroke="black" stroke-width="0.15" stroke-miterlimit="10"/>
<path d="M31.8915 138.071C32.1406 146.447 32.4728 158.72 32.6389 173.646C33.0542 213.534 33.2203 233.851 29.566 251.016C26.8254 263.953 21.0949 282.777 7.64062 304.338C10.0491 331.454 12.9559 362.386 15.3644 389.751C15.5305 391.327 16.7762 392.571 18.4372 392.654C68.8491 395.639 118.763 392.405 169.175 395.556C170.005 394.063 172.663 390.581 177.895 389.088C183.708 387.429 188.941 386.932 190.602 387.181C326.224 385.273 465.334 387.346 600.956 385.439C603.364 385.107 613.912 384.776 618.48 385.439C621.885 385.937 624.459 389.834 626.203 391.907C675.12 390.581 718.888 389.751 767.805 388.507L781.01 305.333C777.273 300.357 771.708 292.148 767.39 281.118C758.42 258.645 760.663 240.651 763.652 190.895C764.317 180.281 765.313 163.198 766.31 141.637C754.351 141.637 738.073 140.891 718.971 138.071C696.298 134.671 657.929 126.545 610.341 102.164C535.429 63.7697 541.408 36.1554 489.003 15.8385C420.403 -10.7807 354.71 5.72157 344.08 8.54105C260.447 30.6823 243.422 99.262 161.866 119.081C128.812 127.125 89.5288 132.432 89.5288 132.432C65.9423 135.666 46.1762 137.242 32.2237 138.071H31.8915Z" fill="#603813" stroke="black" stroke-width="0.25" stroke-miterlimit="10"/>
<path d="M31.8915 137.988L75.5762 392.571L169.175 395.722C158.378 306.411 146.336 214.612 135.539 125.301C116.769 129.53 95.6745 133.262 72.5033 135.584C58.2186 136.993 44.5983 137.74 31.8915 137.988Z" fill="#42210B" stroke="black" stroke-width="0.05" stroke-miterlimit="10"/>
<path d="M670.22 128.618L629.692 390.664L722.376 388.839L766.144 143.296C752.358 143.296 736.412 142.384 718.805 139.73C700.202 136.91 683.924 132.847 670.22 128.535V128.618Z" fill="#42210B" stroke="black" stroke-width="0.05" stroke-miterlimit="10"/>
<path d="M406.119 359.318C490.607 359.318 559.098 290.93 559.098 206.568C559.098 122.207 490.607 53.8188 406.119 53.8188C321.63 53.8188 253.139 122.207 253.139 206.568C253.139 290.93 321.63 359.318 406.119 359.318Z" fill="#E4E4D9" stroke="#2B140A" stroke-width="0.75" stroke-miterlimit="10"/>
<path d="M405.62 101.169C463.092 101.169 509.932 147.857 509.932 205.324C509.932 262.792 463.175 309.479 405.62 309.479C348.066 309.479 301.308 262.792 301.308 205.324C301.308 147.857 348.066 101.169 405.62 101.169ZM405.62 99.0962C346.903 99.0962 299.232 146.613 299.232 205.324C299.232 264.036 346.82 311.552 405.62 311.552C464.42 311.552 512.008 264.036 512.008 205.324C512.008 146.613 464.42 99.0962 405.62 99.0962Z" fill="#42210B"/>
<path d="M240.847 190.812L241.678 231.114C241.678 231.114 247.325 235.343 251.727 230.617L250.315 190.895C250.315 189.734 244.419 186.085 240.847 190.895V190.812Z" fill="#666666" stroke="#1A1A1A" stroke-width="0.08" stroke-miterlimit="10"/>
<path d="M245.581 193.963C248.196 193.963 250.315 192.701 250.315 191.144C250.315 189.587 248.196 188.324 245.581 188.324C242.967 188.324 240.847 189.587 240.847 191.144C240.847 192.701 242.967 193.963 245.581 193.963Z" fill="#1A1A1A"/>
<path d="M240.847 203.5C240.847 203.5 245.83 207.563 250.73 203.5" stroke="#1A1A1A" stroke-width="0.05" stroke-miterlimit="10"/>
<path d="M241.346 214.861C241.346 214.861 245.83 218.758 250.98 214.778" stroke="#1A1A1A" stroke-width="0.05" stroke-miterlimit="10"/>
<path d="M405.689 87.4686C405.689 87.6873 405.388 87.7966 404.787 87.7966H404.295C404.295 87.7966 403.775 87.7966 402.737 87.7966C401.698 87.7693 400.646 87.7556 399.58 87.7556C397.694 87.7556 396.491 87.7693 395.972 87.7966C395.452 87.8239 395.042 87.8376 394.742 87.8376C394.086 87.8376 393.758 87.7146 393.758 87.4686C393.758 87.2226 393.949 87.0996 394.332 87.0996C394.933 87.0996 395.575 87.0859 396.259 87.0586C397.106 87.0313 397.557 86.8263 397.612 86.4436C397.694 86.0336 397.735 85.1726 397.735 83.8606V64.5906C397.735 63.7159 397.707 63.1966 397.653 63.0326C397.598 62.8686 397.407 62.7866 397.079 62.7866C396.942 62.7866 396.054 62.8549 394.414 62.9916C394.086 63.0189 393.867 63.0326 393.758 63.0326C393.43 63.0326 393.266 62.9369 393.266 62.7456C393.266 62.5269 393.43 62.4039 393.758 62.3766C395.042 62.2399 396.341 61.8573 397.653 61.2286C398.965 60.5726 400.017 59.8073 400.81 58.9326C401.11 58.6866 401.315 58.5636 401.425 58.5636C401.643 58.5636 401.753 58.7003 401.753 58.9736V59.7526C401.725 59.9713 401.712 60.2173 401.712 60.4906V85.0086C401.712 85.9926 401.753 86.5666 401.835 86.7306C401.944 86.8946 402.286 86.9903 402.86 87.0176L403.803 87.0586L404.5 87.0996H405.115C405.497 87.0996 405.689 87.2226 405.689 87.4686Z" fill="black"/>
<path d="M480.684 108.698C480.684 108.916 480.383 109.026 479.782 109.026H479.29C479.29 109.026 478.77 109.026 477.732 109.026C476.693 108.998 475.641 108.985 474.575 108.985C472.689 108.985 471.486 108.998 470.967 109.026C470.447 109.053 470.037 109.067 469.737 109.067C469.081 109.067 468.753 108.944 468.753 108.698C468.753 108.452 468.944 108.329 469.327 108.329C469.928 108.329 470.57 108.315 471.254 108.288C472.101 108.26 472.552 108.055 472.607 107.673C472.689 107.263 472.73 106.402 472.73 105.09V85.8196C472.73 84.945 472.702 84.4256 472.648 84.2616C472.593 84.0976 472.402 84.0156 472.074 84.0156C471.937 84.0156 471.049 84.084 469.409 84.2206C469.081 84.248 468.862 84.2616 468.753 84.2616C468.425 84.2616 468.261 84.166 468.261 83.9746C468.261 83.756 468.425 83.633 468.753 83.6056C470.037 83.469 471.336 83.0863 472.648 82.4576C473.96 81.8016 475.012 81.0363 475.805 80.1616C476.105 79.9156 476.31 79.7926 476.42 79.7926C476.638 79.7926 476.748 79.9293 476.748 80.2026V80.9816C476.72 81.2003 476.707 81.4463 476.707 81.7196V106.238C476.707 107.222 476.748 107.796 476.83 107.96C476.939 108.124 477.281 108.219 477.855 108.247L478.798 108.288L479.495 108.329H480.11C480.492 108.329 480.684 108.452 480.684 108.698Z" fill="black"/>
<path d="M527.571 144.149C527.571 144.231 527.543 144.45 527.489 144.805C527.352 145.707 527.133 147.935 526.833 151.488L526.792 151.98C523.976 151.844 520.765 151.775 517.157 151.775C515.216 151.775 513.398 151.803 511.704 151.857C510.009 151.912 509.271 151.939 509.49 151.939C508.752 151.939 508.383 151.803 508.383 151.529C508.383 151.311 509.093 150.627 510.515 149.479C513.931 146.691 516.364 144.423 517.813 142.673C520.327 139.639 521.585 136.072 521.585 131.972C521.585 129.212 521.011 127.121 519.863 125.699C518.988 124.606 517.758 124.059 516.173 124.059C514.615 124.059 513.385 124.538 512.483 125.494C511.772 126.232 511.417 126.97 511.417 127.708C511.417 128.173 511.786 128.419 512.524 128.446C514.437 128.528 515.394 129.362 515.394 130.947C515.394 132.451 514.601 133.202 513.016 133.202C512.004 133.202 511.198 132.888 510.597 132.259C509.995 131.631 509.695 130.77 509.695 129.676C509.695 127.654 510.405 126.027 511.827 124.797C513.248 123.567 515.12 122.952 517.444 122.952C519.767 122.952 521.694 123.69 523.225 125.166C525.001 126.888 525.89 129.13 525.89 131.89C525.89 134.924 524.878 137.726 522.856 140.295C520.833 142.837 517.43 145.612 512.647 148.618C514.451 148.564 516.719 148.536 519.453 148.536C521.721 148.536 523.156 148.509 523.758 148.454C524.359 148.372 524.892 148.195 525.357 147.921C525.739 147.675 526.067 146.76 526.341 145.174C526.532 144.081 526.805 143.534 527.161 143.534C527.434 143.534 527.571 143.739 527.571 144.149Z" fill="black"/>
<path d="M542.488 202.739C542.488 205.008 541.573 206.949 539.741 208.561C537.719 210.338 535.136 211.226 531.992 211.226C529.423 211.226 527.537 210.625 526.334 209.422C525.569 208.657 525.186 207.782 525.186 206.798C525.186 205.951 525.446 205.281 525.965 204.789C526.512 204.27 527.236 204.01 528.138 204.01C528.849 204.01 529.437 204.215 529.901 204.625C530.366 205.035 530.598 205.555 530.598 206.183C530.598 207.14 529.956 207.892 528.671 208.438C528.152 208.657 527.892 208.876 527.892 209.094C527.892 209.45 528.248 209.778 528.958 210.078C529.669 210.352 530.448 210.488 531.295 210.488C533.373 210.488 535.054 209.778 536.338 208.356C537.65 206.935 538.306 205.076 538.306 202.78C538.306 198.161 536.229 195.851 532.074 195.851C531.664 195.851 531.364 195.865 531.172 195.892H530.885C530.53 195.892 530.352 195.769 530.352 195.523C530.352 195.332 530.68 195.182 531.336 195.072C533.25 194.799 534.726 194.102 535.764 192.981C536.803 191.833 537.322 190.371 537.322 188.594C537.322 186.845 536.871 185.451 535.969 184.412C535.067 183.346 533.851 182.813 532.32 182.813C531.2 182.813 530.216 183.059 529.368 183.551C528.548 184.016 528.138 184.563 528.138 185.191C528.138 185.437 528.33 185.601 528.712 185.683C530.516 186.121 531.418 186.872 531.418 187.938C531.418 189.332 530.694 190.029 529.245 190.029C528.316 190.029 527.564 189.756 526.99 189.209C526.444 188.663 526.17 187.938 526.17 187.036C526.17 185.56 526.799 184.33 528.056 183.346C529.341 182.335 531.118 181.829 533.386 181.829C535.983 181.829 537.965 182.499 539.331 183.838C540.698 185.178 541.381 186.736 541.381 188.512C541.381 190.972 540.22 192.79 537.896 193.965C537.076 194.375 535.751 194.717 533.919 194.99V195.277C536.188 195.359 538.019 195.865 539.413 196.794C541.463 198.161 542.488 200.143 542.488 202.739Z" fill="black"/>
<path d="M525.406 264.77C525.406 265.043 525.269 265.18 524.996 265.18C524.75 265.18 524.586 265.03 524.504 264.729C524.449 264.401 524.354 263.54 524.217 262.146C524.162 261.927 524.053 261.763 523.889 261.654C523.561 261.463 522.837 261.367 521.716 261.367C521.415 261.367 521.128 261.381 520.855 261.408L520.896 267.845C521.033 268.173 521.251 268.378 521.552 268.46C521.88 268.542 522.659 268.583 523.889 268.583C524.49 268.583 524.846 268.638 524.955 268.747C524.982 268.802 524.996 268.884 524.996 268.993C524.996 269.184 524.449 269.28 523.356 269.28C522.263 269.28 519.201 269.307 514.172 269.362C513.899 269.389 513.598 269.403 513.27 269.403C512.723 269.403 512.45 269.266 512.45 268.993C512.45 268.72 512.846 268.597 513.639 268.624C514.568 268.651 515.416 268.597 516.181 268.46C516.509 268.405 516.714 268.269 516.796 268.05C516.878 267.804 516.919 267.285 516.919 266.492V261.531C516.372 261.504 515.744 261.49 515.033 261.49H513.352C512.969 261.49 512.546 261.504 512.081 261.531C511.671 261.531 511.411 261.531 511.302 261.531L506.095 261.408C505.712 261.381 505.521 261.271 505.521 261.08C505.521 260.943 507.53 258.114 511.548 252.593C512.805 250.816 515.58 246.908 519.871 240.867C520.062 240.594 520.254 240.457 520.445 240.457C520.718 240.457 520.855 240.717 520.855 241.236V260.506H521.265C522.194 260.506 522.919 260.451 523.438 260.342C523.985 260.233 524.258 259.959 524.258 259.522C524.231 257.8 524.217 257.212 524.217 257.759C524.244 256.775 524.395 256.283 524.668 256.283C525.051 256.283 525.242 256.666 525.242 257.431V259.276L525.283 262.228C525.31 263.239 525.338 263.882 525.365 264.155C525.392 264.401 525.406 264.606 525.406 264.77ZM517.165 246.484C516.892 246.921 516.318 247.755 515.443 248.985C514.24 250.652 512.423 253.14 509.99 256.447L507.079 260.424C508.09 260.506 510.263 260.547 513.598 260.547C514.773 260.547 515.88 260.533 516.919 260.506V257.595C516.919 256.228 516.96 254.383 517.042 252.06C517.124 249.327 517.165 247.468 517.165 246.484Z" fill="black"/>
<path d="M483.856 317.274C483.856 320.773 482.517 323.451 479.838 325.31C478.226 326.431 476.135 326.991 473.565 326.991C470.996 326.991 469.11 326.321 467.907 324.982C467.251 324.244 466.923 323.369 466.923 322.358C466.923 321.511 467.197 320.827 467.743 320.308C468.29 319.761 469.001 319.488 469.875 319.488C470.586 319.488 471.174 319.693 471.638 320.103C472.13 320.513 472.376 321.019 472.376 321.62C472.376 322.631 471.707 323.397 470.367 323.916C469.766 324.135 469.465 324.381 469.465 324.654C469.465 325.091 469.862 325.488 470.654 325.843C471.474 326.171 472.376 326.335 473.36 326.335C475.274 326.335 476.709 325.679 477.665 324.367C478.977 322.563 479.633 320.13 479.633 317.069C479.633 314.828 479.114 313.092 478.075 311.862C477.037 310.632 475.561 310.017 473.647 310.017C472.171 310.017 470.545 310.577 468.768 311.698C468.932 305.548 469.055 301.667 469.137 300.054C469.165 299.125 469.37 298.564 469.752 298.373C470.135 298.154 471.174 298.045 472.868 298.045C473.142 298.045 473.606 298.045 474.262 298.045C474.918 298.072 475.438 298.086 475.82 298.086H477.214C479.1 298.086 480.194 298.059 480.494 298.004C480.822 297.922 481.027 297.69 481.109 297.307C481.219 296.678 481.41 296.364 481.683 296.364C481.957 296.364 482.093 296.514 482.093 296.815C482.093 297.006 482.08 297.157 482.052 297.266L481.97 298.209C481.834 299.74 481.547 300.696 481.109 301.079C480.699 301.434 479.674 301.612 478.034 301.612L470.203 301.571C470.094 302.5 469.998 305.302 469.916 309.976C471.474 309.265 473.101 308.91 474.795 308.91C477.611 308.91 479.825 309.662 481.437 311.165C483.05 312.641 483.856 314.677 483.856 317.274Z" fill="black"/>
<path d="M416.452 336.926C416.452 339.578 415.646 341.846 414.033 343.732C412.42 345.618 410.493 346.561 408.252 346.561C405.437 346.561 403.154 345.4 401.405 343.076C399.656 340.753 398.781 337.733 398.781 334.015C398.781 330.599 399.519 327.483 400.995 324.667C402.498 321.852 404.494 319.802 406.981 318.517C409.058 317.451 411.327 316.918 413.787 316.918C414.361 316.918 414.648 317.028 414.648 317.246C414.648 317.438 414.457 317.547 414.074 317.574C411.614 317.793 409.441 318.681 407.555 320.239C405.095 322.262 403.646 325.706 403.209 330.571C404.712 329.15 406.407 328.439 408.293 328.439C409.824 328.439 411.259 328.849 412.598 329.669C415.167 331.227 416.452 333.646 416.452 336.926ZM412.229 337.049C412.229 331.965 410.657 329.423 407.514 329.423C406.093 329.423 404.999 330.038 404.234 331.268C403.469 332.471 403.086 334.166 403.086 336.352C403.086 339.496 403.646 342.038 404.767 343.978C405.478 345.208 406.516 345.823 407.883 345.823C410.78 345.823 412.229 342.899 412.229 337.049Z" fill="black"/>
<path d="M347.584 300.156C347.584 300.32 345.998 302.875 342.828 307.823C341.051 310.611 339.835 312.797 339.179 314.383C338.523 315.941 338.195 317.499 338.195 319.057C338.195 319.849 338.386 321.407 338.769 323.731C338.905 324.551 338.974 325.248 338.974 325.822C338.974 327.762 338.249 328.733 336.801 328.733C335.079 328.733 334.218 327.243 334.218 324.264C334.218 321.503 335.489 317.868 338.031 313.358C339.643 310.515 341.734 307.208 344.304 303.436H338.072C334.846 303.436 332.988 303.449 332.496 303.477C331.894 303.504 331.471 303.6 331.225 303.764C331.006 303.928 330.842 304.16 330.733 304.461C330.651 304.734 330.432 305.691 330.077 307.331C329.967 307.659 329.803 307.823 329.585 307.823C329.311 307.823 329.175 307.659 329.175 307.331C329.175 307.003 329.243 306.47 329.38 305.732C329.68 304.064 329.872 302.643 329.954 301.468C330.008 300.62 330.186 300.033 330.487 299.705C330.678 299.705 331.238 299.732 332.168 299.787C334.245 299.896 335.748 299.951 336.678 299.951L345.165 299.869C345.383 299.869 345.616 299.855 345.862 299.828C346.08 299.828 346.217 299.828 346.272 299.828C347.146 299.828 347.584 299.937 347.584 300.156Z" fill="black"/>
<path d="M303.54 271.11C303.54 273.843 302.406 276.043 300.137 277.711C298.607 278.831 296.707 279.392 294.438 279.392C292.006 279.392 289.956 278.845 288.288 277.752C286.02 276.276 284.885 274.198 284.885 271.52C284.885 267.447 287.086 264.864 291.486 263.771V263.566C289.819 263.101 288.507 262.322 287.55 261.229C286.621 260.108 286.156 258.782 286.156 257.252C286.156 255.12 286.881 253.384 288.329 252.045C289.805 250.678 291.705 249.995 294.029 249.995C296.078 249.995 297.759 250.487 299.071 251.471C300.985 252.892 301.941 254.723 301.941 256.965C301.941 258.577 301.463 260.026 300.506 261.311C299.55 262.568 298.361 263.333 296.939 263.607L296.98 263.771C301.354 264.645 303.54 267.092 303.54 271.11ZM297.882 257.047C297.882 254.614 297.445 252.824 296.57 251.676C296.051 250.992 295.217 250.651 294.069 250.651C291.5 250.651 290.215 252.796 290.215 257.088C290.215 261.27 291.596 263.361 294.356 263.361C295.586 263.361 296.447 262.91 296.939 262.008C297.568 260.832 297.882 259.179 297.882 257.047ZM299.358 271.52C299.358 266.545 297.691 264.058 294.356 264.058C292.689 264.058 291.391 264.7 290.461 265.985C289.532 267.242 289.067 268.991 289.067 271.233C289.067 273.556 289.546 275.387 290.502 276.727C291.486 278.066 292.826 278.736 294.52 278.736C295.969 278.736 297.035 278.326 297.719 277.506C298.812 276.194 299.358 274.198 299.358 271.52Z" fill="black"/>
<path d="M284.074 193.628C284.074 197.209 283.24 200.462 281.573 203.386C279.933 206.284 277.774 208.293 275.095 209.413C273.127 210.233 271.159 210.643 269.191 210.643C268.48 210.643 268.125 210.548 268.125 210.356C268.125 210.192 268.316 210.083 268.699 210.028C273.318 209.427 276.489 207.131 278.211 203.14C278.894 201.528 279.373 199.478 279.646 196.99C278.143 198.412 276.448 199.122 274.562 199.122C272.758 199.122 271.118 198.576 269.642 197.482C267.483 195.897 266.403 193.56 266.403 190.471C266.403 187.847 267.196 185.62 268.781 183.788C270.394 181.93 272.334 181 274.603 181C277.391 181 279.66 182.176 281.409 184.526C283.186 186.877 284.074 189.911 284.074 193.628ZM279.769 190.922C279.769 187.806 279.195 185.346 278.047 183.542C277.254 182.312 276.175 181.697 274.808 181.697C271.993 181.697 270.585 184.649 270.585 190.553C270.585 195.61 272.157 198.138 275.3 198.138C276.694 198.138 277.787 197.51 278.58 196.252C279.373 194.968 279.769 193.191 279.769 190.922Z" fill="black"/>
<path d="M296.145 148.419C296.145 148.638 295.844 148.747 295.243 148.747H294.751C294.751 148.747 294.231 148.747 293.193 148.747C292.154 148.72 291.102 148.706 290.036 148.706C288.15 148.706 286.947 148.72 286.428 148.747C285.908 148.774 285.498 148.788 285.198 148.788C284.542 148.788 284.214 148.665 284.214 148.419C284.214 148.173 284.405 148.05 284.788 148.05C285.389 148.05 286.031 148.036 286.715 148.009C287.562 147.982 288.013 147.777 288.068 147.394C288.15 146.984 288.191 146.123 288.191 144.811V125.541C288.191 124.666 288.163 124.147 288.109 123.983C288.054 123.819 287.863 123.737 287.535 123.737C287.398 123.737 286.51 123.805 284.87 123.942C284.542 123.969 284.323 123.983 284.214 123.983C283.886 123.983 283.722 123.887 283.722 123.696C283.722 123.477 283.886 123.354 284.214 123.327C285.498 123.19 286.797 122.808 288.109 122.179C289.421 121.523 290.473 120.758 291.266 119.883C291.566 119.637 291.771 119.514 291.881 119.514C292.099 119.514 292.209 119.651 292.209 119.924V120.703C292.181 120.922 292.168 121.168 292.168 121.441V145.959C292.168 146.943 292.209 147.517 292.291 147.681C292.4 147.845 292.742 147.941 293.316 147.968L294.259 148.009L294.956 148.05H295.571C295.953 148.05 296.145 148.173 296.145 148.419Z" fill="black"/>
<path d="M340.743 106.127C340.743 106.345 340.442 106.455 339.841 106.455H339.349C339.349 106.455 338.83 106.455 337.791 106.455C336.752 106.427 335.7 106.414 334.634 106.414C332.748 106.414 331.545 106.427 331.026 106.455C330.507 106.482 330.097 106.496 329.796 106.496C329.14 106.496 328.812 106.373 328.812 106.127C328.812 105.881 329.003 105.758 329.386 105.758C329.987 105.758 330.63 105.744 331.313 105.717C332.16 105.689 332.611 105.484 332.666 105.102C332.748 104.692 332.789 103.831 332.789 102.519V83.2488C332.789 82.3742 332.762 81.8548 332.707 81.6908C332.652 81.5268 332.461 81.4448 332.133 81.4448C331.996 81.4448 331.108 81.5132 329.468 81.6498C329.14 81.6772 328.921 81.6908 328.812 81.6908C328.484 81.6908 328.32 81.5952 328.32 81.4038C328.32 81.1852 328.484 81.0622 328.812 81.0348C330.097 80.8982 331.395 80.5155 332.707 79.8868C334.019 79.2308 335.071 78.4655 335.864 77.5908C336.165 77.3448 336.37 77.2218 336.479 77.2218C336.698 77.2218 336.807 77.3585 336.807 77.6318V78.4108C336.78 78.6295 336.766 78.8755 336.766 79.1488V103.667C336.766 104.651 336.807 105.225 336.889 105.389C336.998 105.553 337.34 105.648 337.914 105.676L338.857 105.717L339.554 105.758H340.169C340.552 105.758 340.743 105.881 340.743 106.127Z" fill="black"/>
<path d="M421.598 80.0476C421.598 80.1296 421.571 80.3483 421.516 80.7036C421.379 81.6056 421.161 83.8333 420.86 87.3866L420.819 87.8786C418.004 87.7419 414.792 87.6736 411.184 87.6736C409.243 87.6736 407.426 87.7009 405.731 87.7556C404.036 87.8103 403.298 87.8376 403.517 87.8376C402.779 87.8376 402.41 87.7009 402.41 87.4276C402.41 87.2089 403.121 86.5256 404.542 85.3776C407.959 82.5896 410.391 80.3209 411.84 78.5716C414.355 75.5376 415.612 71.9706 415.612 67.8706C415.612 65.1099 415.038 63.0189 413.89 61.5976C413.015 60.5043 411.785 59.9576 410.2 59.9576C408.642 59.9576 407.412 60.4359 406.51 61.3926C405.799 62.1306 405.444 62.8686 405.444 63.6066C405.444 64.0713 405.813 64.3173 406.551 64.3446C408.464 64.4266 409.421 65.2603 409.421 66.8456C409.421 68.3489 408.628 69.1006 407.043 69.1006C406.032 69.1006 405.225 68.7863 404.624 68.1576C404.023 67.5289 403.722 66.6679 403.722 65.5746C403.722 63.5519 404.433 61.9256 405.854 60.6956C407.275 59.4656 409.148 58.8506 411.471 58.8506C413.794 58.8506 415.721 59.5886 417.252 61.0646C419.029 62.7866 419.917 65.0279 419.917 67.7886C419.917 70.8226 418.906 73.6243 416.883 76.1936C414.86 78.7356 411.457 81.5099 406.674 84.5166C408.478 84.4619 410.747 84.4346 413.48 84.4346C415.749 84.4346 417.184 84.4073 417.785 84.3526C418.386 84.2706 418.919 84.0929 419.384 83.8196C419.767 83.5736 420.095 82.6579 420.368 81.0726C420.559 79.9793 420.833 79.4326 421.188 79.4326C421.461 79.4326 421.598 79.6376 421.598 80.0476Z" fill="black"/>
<path d="M351.54 106.127C351.54 106.345 351.239 106.455 350.638 106.455H350.146C350.146 106.455 349.626 106.455 348.588 106.455C347.549 106.427 346.497 106.414 345.431 106.414C343.545 106.414 342.342 106.427 341.823 106.455C341.303 106.482 340.893 106.496 340.593 106.496C339.937 106.496 339.609 106.373 339.609 106.127C339.609 105.881 339.8 105.758 340.183 105.758C340.784 105.758 341.426 105.744 342.11 105.717C342.957 105.689 343.408 105.484 343.463 105.102C343.545 104.692 343.586 103.831 343.586 102.519V83.2488C343.586 82.3742 343.558 81.8548 343.504 81.6908C343.449 81.5268 343.258 81.4448 342.93 81.4448C342.793 81.4448 341.905 81.5132 340.265 81.6498C339.937 81.6772 339.718 81.6908 339.609 81.6908C339.281 81.6908 339.117 81.5952 339.117 81.4038C339.117 81.1852 339.281 81.0622 339.609 81.0348C340.893 80.8982 342.192 80.5155 343.504 79.8868C344.816 79.2308 345.868 78.4655 346.661 77.5908C346.961 77.3448 347.166 77.2218 347.276 77.2218C347.494 77.2218 347.604 77.3585 347.604 77.6318V78.4108C347.576 78.6295 347.563 78.8755 347.563 79.1488V103.667C347.563 104.651 347.604 105.225 347.686 105.389C347.795 105.553 348.137 105.648 348.711 105.676L349.654 105.717L350.351 105.758H350.966C351.348 105.758 351.54 105.881 351.54 106.127Z" fill="black"/>
<path d="M312.508 134.971C312.508 137.404 312.139 139.7 311.401 141.859C310.69 144.018 309.706 145.754 308.449 147.066C307.11 148.487 305.401 149.198 303.324 149.198C300.481 149.198 298.131 147.804 296.272 145.016C294.441 142.228 293.525 138.661 293.525 134.315C293.525 129.286 294.823 125.322 297.42 122.425C298.978 120.676 300.891 119.801 303.16 119.801C305.839 119.801 307.971 121.017 309.556 123.45C311.524 126.457 312.508 130.297 312.508 134.971ZM308.08 133.495C308.08 129.422 307.629 126.06 306.727 123.409C306.044 121.386 304.841 120.375 303.119 120.375C299.675 120.375 297.953 124.953 297.953 134.11C297.953 143.704 299.771 148.501 303.406 148.501C305.101 148.501 306.317 147.107 307.055 144.319C307.738 141.777 308.08 138.169 308.08 133.495Z" fill="black"/>
<path d="M405.62 212.124C401.8 212.124 398.727 209.056 398.727 205.241C398.727 201.427 401.8 198.358 405.62 198.358C409.441 198.358 412.514 201.427 412.514 205.241C412.514 209.056 409.441 212.124 405.62 212.124Z" fill="black"/>
<path d="M405.62 200.68C408.112 200.68 410.188 202.753 410.188 205.241C410.188 207.729 408.112 209.802 405.62 209.802C403.129 209.802 401.053 207.729 401.053 205.241C401.053 202.753 403.129 200.68 405.62 200.68ZM405.62 196.119C400.554 196.119 396.485 200.183 396.485 205.241C396.485 210.3 400.554 214.363 405.62 214.363C410.687 214.363 414.756 210.3 414.756 205.241C414.756 200.183 410.687 196.119 405.62 196.119Z" fill="black"/>
<path d="M379.184 163.478L383.525 183.86L394.549 186.961L396.188 175.704L379.184 163.478Z" fill="black" stroke="#1A1A1A" stroke-width="0.05" stroke-miterlimit="10"/>
<path d="M400.718 196.262L390.281 194.069L392.355 183.613L402.541 186.036L400.718 196.262Z" fill="black" stroke="#1A1A1A" stroke-width="0.05" stroke-miterlimit="10"/>
<path d="M450.581 272.465C450.581 272.465 455.517 284.887 450.791 291.493C450.791 291.493 464.945 291.489 475.222 308.195C475.222 308.195 462.748 292.487 469.338 279.217C469.338 279.217 459.157 278.018 453.243 270.933L450.541 272.392L450.581 272.465Z" fill="black" stroke="black" stroke-width="0.05" stroke-miterlimit="10"/>
<path d="M453.781 262.166L439.881 247.134L439.903 254.665L432.301 252.829L441.62 270.9L453.777 275.746L453.781 262.166Z" fill="black" stroke="black" stroke-width="0.05" stroke-miterlimit="10"/>
<path d="M415.058 212.456L441.981 244.215L443.309 259.905L429.432 252.405L410.735 215.45C411.392 215.095 414.665 212.951 415.131 212.417L415.058 212.456Z" fill="black" stroke="#1A1A1A" stroke-width="0.05" stroke-miterlimit="10"/>
<path d="M445.956 278.74C449.39 274.621 453.642 271.665 458.712 269.871C455.278 273.989 451.026 276.945 445.956 278.74Z" fill="#1A1A1A"/>
<path d="M375.951 240.871L392.115 231.353L391.583 221.12L381.558 222.939L375.951 240.871Z" fill="black" stroke="#1A1A1A" stroke-width="0.05" stroke-miterlimit="10"/>
<path d="M397.747 213.257L398.896 222.745L389.394 223.889L388.548 214.614L397.747 213.257Z" fill="black" stroke="#1A1A1A" stroke-width="0.05" stroke-miterlimit="10"/>
<path d="M411.582 197.005L422.696 189.733L421.938 179.885L411.925 181.621L407.817 194.163C408.366 194.415 411.222 196.614 411.569 197.087L411.582 197.005Z" fill="black" stroke="#1A1A1A" stroke-width="0.05" stroke-miterlimit="10"/>
<path d="M424.42 181.776C424.42 181.776 436.318 175.966 443.252 177.868C443.252 177.868 436.326 160.027 447.094 146.242C447.094 146.242 432.45 161.194 419.31 159.766C419.31 159.766 424.173 171.335 420.061 178.422L424.338 181.763L424.42 181.776Z" fill="black" stroke="#1A1A1A" stroke-width="0.05" stroke-miterlimit="10"/>
<path d="M426.872 184.417C422.186 183.195 418.503 180.365 416.221 176.072C420.907 177.294 424.508 180.111 426.872 184.417Z" fill="#1A1A1A"/>
</g>
<defs>
<clipPath id="clip0_77_805">
<rect width="784" height="424" fill="white"/>
</clipPath>
</defs>
</svg>
