<svg width="775" height="140" viewBox="0 0 775 140" fill="none" xmlns="http://www.w3.org/2000/svg">
<path d="M21.5093 3H752.569C762.514 3 771.078 12.0156 771.078 23.7876V116.212C771.078 127.984 762.514 137 752.569 137H21.5093C11.5639 137 3 127.984 3 116.212V23.7876C3 12.0156 11.5639 3 21.5093 3Z" fill="#2B3C12" fill-opacity="0.76" stroke="#57EB23" stroke-width="6"/>
<path d="M85.0474 1V135M183.94 1V135M283.311 1V135M382.203 1V135M481.574 1V135M580.467 1V135M675.538 1V135" stroke="#57EB23" stroke-width="0.2"/>
<path d="M773.989 35.7852L0.0615717 35.9179M773.995 72.3935L0.0673115 72.5262M774 107.587L0.0728295 107.72" stroke="#57EB23" stroke-width="0.2"/>
<path d="M26.7161 43.7885L29.6065 53.7039C29.6065 53.7039 28.2725 49.557 25.6362 54.3158C23 59.0747 32.4968 71.4689 32.4968 71.4689L35.8 83.0369L40.7549 88.4077L36.7529 90.337L36.2129 94.1917L23 97.91C45.7097 122.698 63.8774 123.525 87 99.3423L72.7707 95.9117L69.6581 90.337L67.4347 92.4811L68.8323 87.1683L74.2 80.9712L77.0903 71.8821C77.0903 71.8821 87.8258 61.1404 84.332 53.4579C83.5201 51.6726 80.3936 54.117 80.3936 54.117L83.4427 42.7376C83.4427 35.8763 79.2265 30.3752 76.328 27.2998C60.5655 10.5756 36.7529 24.2981 36.7529 24.2981C36.7529 24.2981 28.9395 28.7796 26.7161 43.7885Z" stroke="#57EB23" stroke-width="3"/>
<g style="mix-blend-mode:luminosity">
<path d="M45.4686 99.1775L42.374 85.5612L68.3687 84.6328L65.8931 99.1775H45.4686Z" fill="#E7D5BF" stroke="black"/>
<path d="M26.5918 99.1773L38.9702 95.1543L55.3717 102.581L71.1542 96.0827L86.0083 99.1773C76.7245 111.246 52.5865 131.671 26.5918 99.1773Z" fill="#124D1E" stroke="black" stroke-width="0.6"/>
<path d="M52.14 102.835L51.1184 98.749H55.4294H59.7783L59.0124 102.834L55.4368 104.209L52.14 102.835Z" fill="#18341F" stroke="black"/>
<path d="M42.993 89.8936H39.8984L43.9214 92.6787L42.993 89.8936Z" fill="#091B0D" stroke="black" stroke-width="0.6"/>
<path d="M53.2052 99.487L43.3025 92.3694L39.5889 90.2031L38.3511 94.5356L53.2052 104.748V99.487Z" fill="#02310C" stroke="black"/>
<path d="M67.4401 90.5122H70.5347L66.5117 93.2974L67.4401 90.5122Z" fill="#091B0D" stroke="black" stroke-width="0.6"/>
<path d="M57.2284 99.796L67.1311 92.6784L70.8447 90.5122L72.0825 94.8447L57.2284 105.057V99.796Z" fill="#02310C" stroke="black"/>
<path d="M36.7913 80.6578L30.406 53.3932C30.319 53.0197 30.2789 52.6365 30.2872 52.2534C30.58 38.3805 43.1987 27.6407 56.9361 28.6224C69.8987 29.5495 80.382 40.6656 79.7577 53.73C79.7397 54.0913 79.6803 54.4499 79.5781 54.7989C77.2812 62.6509 74.9856 70.503 72.6887 78.355C72.5008 78.9985 72.1707 79.5984 71.7232 80.1138L62.8628 90.3068C61.9084 91.4044 60.4858 92.0411 58.9858 92.0411H52.1571C51.0466 92.0411 49.9679 91.6921 49.0895 91.0499L38.6297 83.4011C37.6973 82.7193 37.0468 81.7486 36.7927 80.6592L36.7913 80.6578Z" fill="#FFE8D4"/>
<path d="M50.4206 48.1538C46.085 48.1102 41.7494 48.0666 37.4138 48.0229L34.168 50.5535L51.3833 49.9958L50.4206 48.1538Z" fill="#460000"/>
<path d="M60.2483 48.1538C64.5839 48.1102 68.9195 48.0666 73.2551 48.0229L76.5009 50.5535L59.2856 49.9958L60.2483 48.1538Z" fill="#460000"/>
<path opacity="0.82" d="M50.7431 56.9041C51.0166 56.6996 51.3936 56.3464 51.3853 55.9169C51.3757 55.4425 50.9019 55.133 50.3356 54.6939C49.7928 54.274 49.0691 53.6618 48.2611 52.811H41.1065L35.3979 55.9169C37.275 56.8509 39.1534 57.7862 41.0305 58.7202C42.3564 58.3057 43.8564 57.9089 45.5166 57.5858C47.4254 57.2136 49.1851 57.0091 50.7431 56.9041Z" fill="white"/>
<path d="M41.1641 52.8096C40.8409 54.9543 42.6019 56.7554 44.4748 56.7581C46.3491 56.7594 48.1156 54.957 47.7924 52.8096H41.1641Z" fill="#42210B"/>
<path opacity="0.82" d="M59.6507 57.1018C59.38 56.9123 59.0001 56.5824 58.9808 56.1515C58.9587 55.677 59.3841 55.3416 59.891 54.8712C60.3744 54.4227 61.0181 53.7709 61.7239 52.8765C63.9738 52.7429 66.2238 52.6107 68.4724 52.4771L74.0608 55.2585C72.3508 56.296 70.6409 57.3336 68.931 58.3698C67.6506 58.0031 66.1644 57.6622 64.4987 57.425C62.6962 57.1686 61.0609 57.0896 59.6479 57.0991L59.6507 57.1018Z" fill="white"/>
<path d="M68.9794 52.4486C69.4421 54.5701 67.8026 56.4721 65.9352 56.5839C64.0651 56.6971 62.1825 55.001 62.3648 52.8386C64.5692 52.7077 66.775 52.5782 68.9794 52.4473V52.4486Z" fill="#42210B"/>
<path opacity="0.35" d="M34.0044 68.7704L49.0457 91.0203L38.3345 83.186C37.5914 82.642 37.072 81.8689 36.869 80.999L34.0044 68.769V68.7704Z" fill="#C59B6D"/>
<path opacity="0.35" d="M76.3699 65.7568L62.457 90.769L72.3989 79.3312L76.3699 65.7568Z" fill="#C59B6D"/>
<path d="M36.7417 82.2556L30.3888 54.876C30.3022 54.5008 30.2623 54.1161 30.2706 53.7313C30.5619 39.7998 43.1166 29.0147 56.7843 30.0006C69.6811 30.9316 80.1112 42.0946 79.4901 55.2142C79.4722 55.577 79.4132 55.9371 79.3115 56.2876C77.0262 64.1727 74.7423 72.0579 72.457 79.9431C72.2701 80.5893 71.9417 81.1918 71.4964 81.7093L62.681 91.9454C61.7314 93.0476 60.316 93.687 58.8236 93.687H52.0296C50.9247 93.687 49.8515 93.3364 48.9775 92.6916L38.5707 85.0104C37.6431 84.3258 36.9959 83.351 36.743 82.257L36.7417 82.2556Z" fill="#FFE8D4"/>
<path d="M58.7952 93.687H52.0501C50.9205 93.687 49.8059 93.322 48.9109 92.6615L38.5791 85.0201C37.6268 84.316 36.9597 83.3082 36.6991 82.1833L30.392 54.9501C30.3033 54.5647 30.2624 54.167 30.2706 53.7707C30.4097 47.1016 33.463 40.6818 38.6487 36.1591C43.6761 31.7752 50.2834 29.5295 56.7842 29.9993C69.9182 30.9486 80.104 42.2793 79.4901 55.2565C79.4724 55.631 79.411 56.0028 79.3073 56.3623L72.5022 79.8899C72.3085 80.5599 71.9756 81.1728 71.5145 81.7094L62.7612 91.892C61.7816 93.0319 60.3355 93.687 58.7952 93.687ZM55.0788 30.2799C49.2301 30.2799 43.4101 32.467 38.8874 36.4124C33.7741 40.8725 30.7631 47.2011 30.6253 53.7775C30.6171 54.1466 30.6553 54.517 30.7385 54.8765L37.0456 82.1084C37.2885 83.1557 37.9092 84.094 38.796 84.749L49.1278 92.3905C49.96 93.006 50.9982 93.3451 52.0501 93.3451H58.7952C60.229 93.3451 61.5742 92.7364 62.4869 91.6755L71.2402 81.4942C71.67 80.9944 71.9797 80.4238 72.1598 79.8L78.9649 56.2711C79.0617 55.9374 79.119 55.5901 79.1354 55.2415C79.7398 42.4468 69.7013 31.2768 56.7583 30.3412C56.2003 30.3003 55.6396 30.2812 55.0816 30.2812L55.0788 30.2799Z" fill="black"/>
<path d="M50.3307 48.1197C45.9951 48.076 41.6595 48.0324 37.3239 47.9888L34.0781 50.5193L51.2934 49.9617L50.3307 48.1197Z" fill="#460000"/>
<path d="M33.5532 50.707L37.2604 47.8179L50.4439 47.9501L51.5807 50.1234L33.5546 50.707H33.5532ZM37.3874 48.1601L34.6029 50.3307L51.0075 49.8003L50.2174 48.2896L37.3861 48.1601H37.3874Z" fill="black"/>
<path d="M60.1575 48.1197C64.4931 48.076 68.8287 48.0324 73.1643 47.9888L76.4101 50.5193L59.1948 49.9617L60.1575 48.1197Z" fill="#460000"/>
<path d="M76.9352 50.707L58.9092 50.1234L60.0459 47.9501L73.2295 47.8179L76.9366 50.707H76.9352ZM59.481 49.8003L75.8855 50.3307L73.101 48.1601L60.2697 48.2896L59.4796 49.8003H59.481Z" fill="black"/>
<path d="M50.6075 56.8173C51.3782 55.8519 50.852 55.6379 49.9487 55.0871C49.1172 54.5458 48.3479 53.9091 47.6932 53.1837L48.1683 53.3841C45.7899 53.1837 43.4087 52.7515 41.0137 53.1551L41.2126 53.1046C39.4585 54.3617 37.6021 55.4934 35.6864 56.5132L35.6615 55.2384C36.5897 55.7279 37.4944 56.2569 38.3825 56.8118C39.2679 57.3749 40.1449 57.9544 40.9709 58.6252L40.9046 58.7465C38.83 58.2011 36.877 57.4104 34.9502 56.5268L33.7251 55.9515C35.9751 54.6085 38.3632 53.4182 40.8162 52.4488L40.9557 52.3916C41.5717 52.4625 42.1877 52.5252 42.8037 52.5524C44.6974 52.697 46.5565 52.2089 48.4349 52.1611L48.6448 52.3697C49.2981 53.0187 49.9376 53.6732 50.6241 54.2976C51.2346 54.8185 52.0757 55.6938 51.3506 56.4791C51.16 56.6905 50.9307 56.8241 50.6973 56.925L50.6075 56.8173Z" fill="black"/>
<path opacity="0.82" d="M50.6518 56.8713C50.9253 56.6668 51.3023 56.3137 51.294 55.8842C51.2844 55.4097 50.8106 55.1002 50.2443 54.6612C49.7015 54.2413 48.9778 53.6291 48.1698 52.7783H41.0151L35.3066 55.8842C37.1837 56.8182 39.0621 57.7535 40.9392 58.6874C42.2651 58.273 43.7651 57.8762 45.4253 57.5531C47.3341 57.1808 49.0938 56.9763 50.6518 56.8713Z" fill="white"/>
<path d="M41.0737 52.7764C40.7505 54.921 42.5115 56.7221 44.3845 56.7249C46.2587 56.7262 48.0253 54.9238 47.7021 52.7764H41.0737Z" fill="#42210B"/>
<path d="M44.3861 56.8957H44.3834C43.4345 56.8957 42.4953 56.4635 41.8102 55.7122C41.0685 54.8996 40.7342 53.8198 40.8958 52.7522L40.9179 52.605H47.8585L47.8806 52.7522C48.0422 53.8212 47.7065 54.901 46.9621 55.7136C46.2742 56.4649 45.3364 56.8957 44.3861 56.8957ZM41.2329 52.9472C41.1362 53.8675 41.4414 54.7865 42.0823 55.4873C42.6997 56.1635 43.5381 56.5521 44.3834 56.5535H44.3861C45.2314 56.5535 46.0712 56.1663 46.69 55.49C47.3322 54.7892 47.6375 53.8689 47.5422 52.9472H41.2342H41.2329Z" fill="black"/>
<path d="M59.5546 57.1232C58.0022 56.5205 58.487 55.3834 59.4552 54.4972C60.0988 53.8332 60.6941 53.1433 61.3046 52.4561L61.5007 52.2353C62.7839 52.1725 64.0767 52.373 65.3612 52.3866C66.5794 52.3961 67.7838 52.2393 68.9813 52.0239C71.1084 52.7179 73.1829 53.5605 75.1871 54.5231L76.4301 55.1489C75.1429 55.8593 73.7658 56.5996 72.4205 57.1954C71.455 57.6249 70.4799 58.038 69.4482 58.3639L69.3736 58.2466C70.9371 56.8423 72.6595 55.6629 74.4509 54.5531L74.5089 55.8265C72.531 54.9212 70.6028 53.9014 68.77 52.7506L68.9716 52.7888C66.5545 52.5284 64.2065 53.0983 61.846 53.4392L62.3074 53.2101C61.7024 53.9736 60.9759 54.654 60.1817 55.243C59.3198 55.8429 58.8019 56.0924 59.6375 57.0086L59.556 57.1204L59.5546 57.1232Z" fill="black"/>
<path opacity="0.82" d="M59.5594 57.0691C59.2887 56.8796 58.9088 56.5496 58.8895 56.1188C58.8674 55.6443 59.2928 55.3089 59.7997 54.8385C60.2831 54.39 60.9268 53.7382 61.6326 52.8438C63.8825 52.7102 66.1325 52.578 68.3811 52.4443L73.9695 55.2257C72.2595 56.2633 70.5496 57.3009 68.8397 58.3371C67.5593 57.9703 66.0731 57.6295 64.4074 57.3922C62.6049 57.1359 60.9696 57.0568 59.5566 57.0664L59.5594 57.0691Z" fill="white"/>
<path d="M68.8866 52.4159C69.3493 54.5374 67.7098 56.4394 65.8424 56.5512C63.9723 56.6644 62.0897 54.9683 62.272 52.8059C64.4764 52.675 66.6822 52.5454 68.8866 52.4146V52.4159Z" fill="#42210B"/>
<path d="M65.664 56.728C64.7773 56.728 63.8892 56.3585 63.2027 55.6958C62.4058 54.9282 62.0011 53.8702 62.0922 52.7931L62.1047 52.6458L69.0314 52.2368L69.0632 52.3813C69.2938 53.4366 69.0314 54.5342 68.3436 55.3891C67.7082 56.1799 66.8008 56.6652 65.8533 56.7225C65.7897 56.7266 65.7262 56.728 65.664 56.728ZM62.4431 52.9676C62.4072 53.8934 62.7732 54.7933 63.461 55.4559C64.124 56.0953 64.99 56.4321 65.8325 56.3817C66.6764 56.3312 67.4872 55.8935 68.059 55.1818C68.6516 54.4442 68.896 53.5089 68.74 52.5954L62.4431 52.9676Z" fill="black"/>
<path d="M53.3514 54.392C53.8059 55.9722 53.8501 57.6247 53.6774 59.2444C53.6263 61.9386 53.2617 64.7309 51.9716 67.1633L51.9385 67.151C52.7161 64.0206 53.8197 60.8683 53.4827 57.6247L53.3169 54.3961L53.3528 54.3906L53.3514 54.392Z" fill="black"/>
<path d="M54.2747 72.5535C53.6504 72.5535 53.1144 72.2113 52.9225 72.0885C51.9584 71.4709 51.5205 70.631 51.5026 70.5956C50.9625 69.6834 50.2982 69.1558 49.765 68.7318C49.1849 68.2709 48.7264 67.9055 48.8065 67.292C48.87 66.8066 49.2678 66.3553 49.9874 65.9545L50.1697 66.249C49.5523 66.5939 49.2126 66.9593 49.1642 67.3342C49.1103 67.7433 49.4128 68.0051 49.9971 68.4686C50.5523 68.9104 51.2443 69.4598 51.823 70.4361C51.8313 70.4524 52.2443 71.2391 53.1241 71.8036C53.3327 71.9372 53.8879 72.2944 54.4832 72.1935C55.1061 72.0885 55.9003 71.2105 56.4818 70.5697C56.7346 70.2902 56.9542 70.0488 57.142 69.8811C57.8478 69.2499 58.4652 68.9145 58.9624 68.6431C59.7207 68.2314 60.0343 68.0596 59.8616 67.2906C59.7511 66.7943 59.1517 66.3526 58.0812 65.9776L58.2056 65.6572C59.4169 66.0813 60.0729 66.5925 60.2138 67.2197C60.4403 68.2341 59.9238 68.515 59.142 68.9404C58.6627 69.2008 58.0647 69.5267 57.3906 70.1293C57.2166 70.2847 56.9929 70.5315 56.7567 70.7919C56.1061 71.5091 55.2967 72.4035 54.5481 72.5289C54.457 72.5439 54.3658 72.5507 54.2774 72.5507L54.2747 72.5535Z" fill="black"/>
<path opacity="0.35" d="M33.9175 70.1693L48.9588 92.4192L38.2475 84.5849C37.5045 84.0409 36.9851 83.2678 36.7821 82.398L33.9175 70.168V70.1693Z" fill="#C59B6D"/>
<path opacity="0.35" d="M75.7962 67.6924L61.8848 92.7046L71.8266 81.2667L75.7962 67.6924Z" fill="#C59B6D"/>
<path d="M55.0102 57.9497C55.2049 59.1182 55.2422 60.2689 55.3279 61.4387C55.6966 63.3571 56.5046 65.1432 57.0557 67.0275L57.0226 67.0411C55.8707 65.3722 55.4826 63.398 55.2118 61.4551C54.9453 60.3371 54.7008 59.0323 55.0102 57.9497Z" fill="black"/>
<path d="M30.8586 55.3775C29.3296 53.0283 26.7329 53.5028 26.5589 53.7591C26.3918 54.0059 26.3089 54.2936 26.2992 54.5867C26.2357 56.4914 26.3766 58.9279 27.1128 61.6493C28.6749 67.418 32.6804 69.9594 34.6141 71.8532C33.661 66.3259 32.0022 60.7058 30.8586 55.3789V55.3775Z" fill="#FFE5D1"/>
<path d="M30.7663 55.3433C29.2373 52.9941 26.6407 53.4686 26.4666 53.7249C26.2995 53.9717 26.2166 54.2594 26.207 54.5525C26.1434 56.4572 26.2843 58.8937 27.0205 61.6151C28.5826 67.3838 32.5881 69.9252 34.5218 71.8191C33.5688 66.2917 31.9099 60.6716 30.7663 55.3447V55.3433Z" fill="#FFE5D1"/>
<path d="M34.7927 72.3296L34.3922 71.9383C34.051 71.6042 33.6366 71.2415 33.196 70.8584C31.0635 68.9973 28.1436 66.4504 26.8467 61.658C26.2224 59.3497 25.9461 56.9582 26.0276 54.5476C26.0387 54.2109 26.1381 53.8946 26.3163 53.6328C26.453 53.431 27.0152 53.3287 27.5165 53.3342C28.1685 53.3396 29.8038 53.5387 30.9212 55.2525L30.9447 55.3084C31.395 57.404 31.935 59.5924 32.4599 61.7098C33.2775 65.0161 34.1228 68.4329 34.7016 71.791L34.7941 72.3296H34.7927ZM27.4806 53.6764C27.0041 53.6764 26.6712 53.7746 26.6077 53.8291C26.4751 54.0268 26.395 54.2831 26.3867 54.5586C26.3066 56.9364 26.5787 59.2965 27.1947 61.5734C28.4654 66.2664 31.3397 68.7751 33.4391 70.6062C33.7237 70.8543 33.9985 71.0943 34.2513 71.3247C33.6781 68.1465 32.8797 64.9179 32.1063 61.7888C31.5842 59.6796 31.0455 57.4995 30.5952 55.408C29.79 54.1891 28.721 53.8114 27.9641 53.7091C27.7914 53.686 27.6284 53.6764 27.4806 53.6764Z" fill="black"/>
<path d="M32.4389 68.0483C29.1406 65.0078 28.095 62.5005 27.4555 60.2454C26.979 58.5629 26.4293 55.1434 27.3174 54.8652C27.8657 54.6962 28.6447 55.6588 29.8878 57.5035C30.3629 58.2084 30.693 58.8219 30.9126 59.2269C31.3215 59.9849 31.693 60.773 32.0176 61.5692L31.682 61.692C31.3615 60.9066 30.9955 60.1295 30.5922 59.3823C30.3767 58.9814 30.0494 58.3774 29.5839 57.6862C29.1475 57.0386 27.827 55.0698 27.4293 55.1884C27.0715 55.3002 27.0978 57.6685 27.8022 60.1554C28.4279 62.3641 29.4527 64.8197 32.6875 67.8029L32.4361 68.0483H32.4389Z" fill="black"/>
<path d="M28.0222 59.1233C27.8385 58.4498 27.8109 57.768 27.9407 57.1C28.0278 56.65 28.1714 56.0651 28.3164 55.772L28.6438 55.9151C28.5139 56.1796 28.3758 56.7523 28.2957 57.1613C28.1755 57.7803 28.2018 58.4116 28.3717 59.0374L28.0222 59.1233Z" fill="black"/>
<path d="M32.4751 64.7623C32.4571 64.7528 30.7099 63.6429 30.6188 61.8623C30.5801 61.0961 30.8688 60.6693 31.0607 60.3884L31.1201 60.2998L31.4268 60.4798L31.3632 60.5739C31.1864 60.8343 30.9447 61.1901 30.9779 61.8459C31.0594 63.4357 32.6353 64.4569 32.6519 64.4651L32.4737 64.7623H32.4751Z" fill="black"/>
<path opacity="0.35" d="M32.5378 68.1464C30.6055 66.4012 29.5116 64.6464 28.9135 63.4971C28.7118 63.1112 28.0668 61.8309 27.6055 60.0271C27.1898 58.3992 26.6994 55.4651 27.3486 55.2469C27.995 55.0301 29.5544 57.5757 30.1207 58.5001C30.6428 59.3522 30.8638 59.8757 31.0999 60.3911C30.9936 60.5288 30.8886 60.6665 30.7823 60.8042C30.6704 61.1219 30.3776 62.042 30.7823 62.3995C30.9853 63.8938 32.3168 64.7037 32.5364 64.8332V68.1464H32.5378Z" fill="#C59B6D"/>
<path d="M78.4827 56.0396C80.0117 53.6904 82.6084 54.1649 82.7824 54.4212C82.9495 54.668 83.0324 54.9557 83.0421 55.2488C83.1056 57.1535 82.9647 59.59 82.2285 62.3114C80.6664 68.0801 76.6609 70.6215 74.7272 72.5153C75.6803 66.988 77.3391 61.3679 78.4827 56.041V56.0396Z" fill="#FFE5D1"/>
<path d="M78.575 56.0059C80.104 53.6567 82.7007 54.1312 82.8747 54.3875C83.0418 54.6343 83.1247 54.922 83.1344 55.2151C83.1979 57.1198 83.057 59.5563 82.3208 62.2777C80.7587 68.0464 76.7532 70.5878 74.8195 72.4816C75.7726 66.9543 77.4314 61.3342 78.575 56.0073V56.0059Z" fill="#FFE5D1"/>
<path d="M74.5491 72.9917L74.9496 72.6004C75.2908 72.2663 75.7052 71.9036 76.1458 71.5205C78.2783 69.6594 81.1982 67.1125 82.4951 62.3201C83.1194 60.0118 83.3957 57.6203 83.3142 55.2098C83.3031 54.873 83.2037 54.5567 83.0255 54.2949C82.8888 54.0931 82.3266 53.9908 81.8253 53.9963C81.1733 54.0018 79.538 54.2008 78.4206 55.9147L78.3971 55.9706C77.9468 58.0662 77.4068 60.2545 76.8819 62.3719C76.0643 65.6782 75.219 69.095 74.6402 72.4531L74.5477 72.9917H74.5491ZM81.8612 54.3385C82.3377 54.3385 82.6705 54.4367 82.7341 54.4912C82.8667 54.6889 82.9468 54.9453 82.9551 55.2207C83.0352 57.5985 82.7631 59.9586 82.1471 62.2355C80.8764 66.9285 78.0021 69.4372 75.9027 71.2683C75.6181 71.5164 75.3433 71.7564 75.0905 71.9868C75.6637 68.8087 76.462 65.58 77.2355 62.451C77.7576 60.3417 78.2963 58.1616 78.7466 56.0701C79.5518 54.8512 80.6208 54.4735 81.3777 54.3712C81.5504 54.3481 81.7134 54.3385 81.8612 54.3385Z" fill="black"/>
<path d="M76.9024 68.7109C80.2007 65.6704 81.2463 63.1631 81.8858 60.9079C82.3623 59.2255 82.912 55.806 82.0239 55.5278C81.4756 55.3588 80.6966 56.3214 79.4535 58.1661C78.9784 58.871 78.6483 59.4845 78.4287 59.8895C78.0198 60.6475 77.6483 61.4356 77.3237 62.2318L77.6593 62.3546C77.9798 61.5692 78.3458 60.7921 78.7491 60.0449C78.9646 59.644 79.2919 59.04 79.7574 58.3488C80.1938 57.7012 81.5143 55.7324 81.9121 55.851C82.2698 55.9628 82.2435 58.3311 81.5391 60.818C80.9134 63.0267 79.8886 65.4823 76.6538 68.4655L76.9052 68.7109H76.9024Z" fill="black"/>
<path d="M81.3196 59.7854C81.5033 59.1119 81.5309 58.4301 81.4011 57.7621C81.314 57.3121 81.1704 56.7272 81.0254 56.4341L80.698 56.5772C80.8279 56.8417 80.966 57.4144 81.0461 57.8234C81.1663 58.4424 81.14 59.0737 80.9701 59.6995L81.3196 59.7854Z" fill="black"/>
<path d="M76.8667 65.4249C76.8847 65.4154 78.6319 64.3055 78.723 62.5249C78.7617 61.7586 78.473 61.3319 78.2811 61.051L78.2217 60.9624L77.915 61.1424L77.9786 61.2365C78.1554 61.4969 78.3971 61.8527 78.3639 62.5085C78.2824 64.0983 76.7065 65.1195 76.6899 65.1277L76.8681 65.4249H76.8667Z" fill="black"/>
<path opacity="0.35" d="M76.804 68.809C78.7363 67.0638 79.8302 65.309 80.4283 64.1597C80.6299 63.7738 81.275 62.4935 81.7363 60.6897C82.152 59.0618 82.6424 56.1277 81.9932 55.9095C81.3468 55.6927 79.7874 58.2383 79.2211 59.1627C78.699 60.0148 78.478 60.5383 78.2418 61.0537C78.3482 61.1914 78.4532 61.3291 78.5595 61.4668C78.6714 61.7845 78.9642 62.7046 78.5595 63.0621C78.3565 64.5564 77.025 65.3663 76.8054 65.4958V68.809H76.804Z" fill="#C59B6D"/>
<path d="M62.6592 77.7986L60.023 79.5118C59.7954 79.66 59.5248 79.7397 59.2493 79.7397H50.7949C50.2901 79.7397 49.8018 79.5802 49.4026 79.287L47.3801 77.7986H62.6592Z" fill="white"/>
<path d="M46.685 77.5952H63.2871L60.0785 79.6812C59.8129 79.8538 59.5044 79.9434 59.1828 79.9434H50.7283C50.179 79.9434 49.6379 79.7675 49.204 79.4483L46.685 77.5952ZM61.8981 78.0039H47.942L49.468 79.1259C49.8259 79.3897 50.2746 79.5346 50.7283 79.5346H59.1828C59.417 79.5346 59.643 79.4679 59.836 79.3425L61.8997 78.0023L61.8981 78.0039Z" fill="black"/>
<path opacity="0.35" d="M50.9417 80.0708C51.9153 80.2697 53.0457 80.4909 54.0193 80.6897H55.1591C56.2375 80.4909 57.1592 80.2697 58.2368 80.0708H50.9409H50.9417Z" fill="#C5806D"/>
<path d="M28.7578 44.6175L32.4713 60.4947L34.0187 44.6175L39.5889 38.4283C53.7892 38.4283 60.8549 37.2464 73.3202 37.8093L78.8905 45.5459L79.5094 59.2567L83.223 44.6175C83.223 44.6175 83.0714 39.9782 81.9851 37.285C80.2376 32.9525 77.6527 30.4769 77.6527 30.4769C63.0846 12.2887 37.7322 23.2653 32.4713 32.2389C32.4713 32.2389 30.9127 35.0936 29.9957 38.4283C29.3547 40.7591 28.7578 44.6175 28.7578 44.6175Z" fill="#5F3232" stroke="black" stroke-linecap="round"/>
</g>
<path d="M147.3 53L143.23 41.51C143.263 41.7633 143.303 42.09 143.35 42.49C143.397 42.89 143.44 43.3433 143.48 43.85C143.527 44.3567 143.563 44.8933 143.59 45.46C143.623 46.0267 143.64 46.6 143.64 47.18V53H141.26V39.17H144.74L148.77 50.64C148.717 50.3 148.657 49.85 148.59 49.29C148.53 48.73 148.477 48.0867 148.43 47.36C148.383 46.6333 148.36 45.86 148.36 45.04V39.17H150.74V53H147.3ZM161.732 50.21C161.732 50.6167 161.792 50.9133 161.912 51.1C162.032 51.28 162.226 51.4167 162.492 51.51L161.922 53.28C161.356 53.22 160.872 53.08 160.472 52.86C160.079 52.6333 159.776 52.2967 159.562 51.85C159.162 52.3367 158.656 52.7 158.042 52.94C157.436 53.18 156.799 53.3 156.132 53.3C155.052 53.3 154.196 52.9933 153.562 52.38C152.929 51.7667 152.612 50.97 152.612 49.99C152.612 48.8633 153.052 47.9967 153.932 47.39C154.819 46.7767 156.072 46.47 157.692 46.47H159.172V45.9C159.172 45.2733 158.979 44.82 158.592 44.54C158.206 44.2533 157.649 44.11 156.922 44.11C156.582 44.11 156.156 44.1567 155.642 44.25C155.136 44.3367 154.612 44.4733 154.072 44.66L153.442 42.85C154.116 42.5967 154.792 42.41 155.472 42.29C156.159 42.17 156.782 42.11 157.342 42.11C158.829 42.11 159.932 42.4267 160.652 43.06C161.372 43.6867 161.732 44.5767 161.732 45.73V50.21ZM156.992 51.39C157.392 51.39 157.796 51.2767 158.202 51.05C158.616 50.8233 158.939 50.5067 159.172 50.1V48.04H158.132C157.152 48.04 156.442 48.1967 156.002 48.51C155.569 48.8233 155.352 49.2667 155.352 49.84C155.352 50.3333 155.492 50.7167 155.772 50.99C156.052 51.2567 156.459 51.39 156.992 51.39ZM158.662 40.14C158.289 40.14 157.972 40.0633 157.712 39.91C157.459 39.7567 157.226 39.6033 157.012 39.45C156.806 39.2967 156.589 39.22 156.362 39.22C156.122 39.22 155.926 39.2967 155.772 39.45C155.619 39.5967 155.462 39.8167 155.302 40.11L153.892 39.42C154.139 38.84 154.466 38.3433 154.872 37.93C155.279 37.51 155.762 37.3 156.322 37.3C156.722 37.3 157.049 37.3767 157.302 37.53C157.562 37.6833 157.792 37.8367 157.992 37.99C158.192 38.1433 158.409 38.22 158.642 38.22C158.856 38.22 159.039 38.15 159.192 38.01C159.352 37.8633 159.519 37.6433 159.692 37.35L161.102 38.05C160.842 38.6767 160.502 39.1833 160.082 39.57C159.669 39.95 159.196 40.14 158.662 40.14ZM169.354 42.11C170.408 42.11 171.301 42.34 172.034 42.8C172.768 43.26 173.324 43.91 173.704 44.75C174.091 45.5833 174.284 46.56 174.284 47.68C174.284 48.8267 174.091 49.82 173.704 50.66C173.318 51.5 172.758 52.15 172.024 52.61C171.291 53.07 170.398 53.3 169.344 53.3C168.298 53.3 167.404 53.0767 166.664 52.63C165.931 52.1767 165.371 51.5333 164.984 50.7C164.598 49.86 164.404 48.86 164.404 47.7C164.404 46.5933 164.598 45.62 164.984 44.78C165.371 43.94 165.934 43.2867 166.674 42.82C167.414 42.3467 168.308 42.11 169.354 42.11ZM169.354 44.1C168.614 44.1 168.061 44.39 167.694 44.97C167.334 45.55 167.154 46.46 167.154 47.7C167.154 48.9533 167.334 49.87 167.694 50.45C168.054 51.0233 168.604 51.31 169.344 51.31C170.084 51.31 170.634 51.0233 170.994 50.45C171.354 49.87 171.534 48.9467 171.534 47.68C171.534 46.4467 171.354 45.5433 170.994 44.97C170.634 44.39 170.088 44.1 169.354 44.1ZM193.769 42.11C194.702 42.11 195.449 42.34 196.009 42.8C196.575 43.2533 196.985 43.8967 197.239 44.73C197.499 45.5633 197.629 46.5467 197.629 47.68C197.629 48.7667 197.472 49.7333 197.159 50.58C196.845 51.4267 196.385 52.0933 195.779 52.58C195.179 53.06 194.439 53.3 193.559 53.3C192.479 53.3 191.605 52.9167 190.939 52.15V57.08L188.299 57.36V42.41H190.619L190.759 43.7C191.179 43.1533 191.649 42.7533 192.169 42.5C192.689 42.24 193.222 42.11 193.769 42.11ZM192.999 44.09C192.552 44.09 192.159 44.2233 191.819 44.49C191.485 44.7567 191.192 45.0867 190.939 45.48V50.22C191.179 50.58 191.452 50.85 191.759 51.03C192.065 51.21 192.412 51.3 192.799 51.3C193.472 51.3 193.985 51.02 194.339 50.46C194.699 49.8933 194.879 48.9767 194.879 47.71C194.879 46.8167 194.805 46.1067 194.659 45.58C194.519 45.0467 194.309 44.6667 194.029 44.44C193.749 44.2067 193.405 44.09 192.999 44.09ZM208.421 50.21C208.421 50.6167 208.481 50.9133 208.601 51.1C208.721 51.28 208.914 51.4167 209.181 51.51L208.611 53.28C208.044 53.22 207.561 53.08 207.161 52.86C206.768 52.6333 206.464 52.2967 206.251 51.85C205.851 52.3367 205.344 52.7 204.731 52.94C204.124 53.18 203.488 53.3 202.821 53.3C201.741 53.3 200.884 52.9933 200.251 52.38C199.618 51.7667 199.301 50.97 199.301 49.99C199.301 48.8633 199.741 47.9967 200.621 47.39C201.508 46.7767 202.761 46.47 204.381 46.47H205.861V45.9C205.861 45.2733 205.668 44.82 205.281 44.54C204.894 44.2533 204.338 44.11 203.611 44.11C203.271 44.11 202.844 44.1567 202.331 44.25C201.824 44.3367 201.301 44.4733 200.761 44.66L200.131 42.85C200.804 42.5967 201.481 42.41 202.161 42.29C202.848 42.17 203.471 42.11 204.031 42.11C205.518 42.11 206.621 42.4267 207.341 43.06C208.061 43.6867 208.421 44.5767 208.421 45.73V50.21ZM203.681 51.39C204.081 51.39 204.484 51.2767 204.891 51.05C205.304 50.8233 205.628 50.5067 205.861 50.1V48.04H204.821C203.841 48.04 203.131 48.1967 202.691 48.51C202.258 48.8233 202.041 49.2667 202.041 49.84C202.041 50.3333 202.181 50.7167 202.461 50.99C202.741 51.2567 203.148 51.39 203.681 51.39ZM211.743 53V51.17H213.233V44.23H211.743V42.41H215.243L215.733 44.84C216.12 43.94 216.606 43.2633 217.193 42.81C217.78 42.35 218.516 42.12 219.403 42.12C219.743 42.12 220.043 42.1467 220.303 42.2C220.57 42.2533 220.823 42.3233 221.063 42.41L220.273 44.63C220.066 44.5767 219.87 44.5367 219.683 44.51C219.496 44.4767 219.286 44.46 219.053 44.46C218.32 44.46 217.68 44.7467 217.133 45.32C216.593 45.8867 216.173 46.6567 215.873 47.63V51.17H217.983V53H211.743ZM218.833 46.54V43.73L219.193 42.41H221.063L220.593 46.54H218.833ZM225.565 48.51C225.619 49.17 225.769 49.7067 226.015 50.12C226.269 50.5333 226.592 50.8367 226.985 51.03C227.379 51.2233 227.815 51.32 228.295 51.32C228.802 51.32 229.279 51.24 229.725 51.08C230.172 50.92 230.612 50.6967 231.045 50.41L232.145 51.92C231.652 52.3333 231.062 52.6667 230.375 52.92C229.695 53.1733 228.945 53.3 228.125 53.3C226.979 53.3 226.012 53.0633 225.225 52.59C224.445 52.1167 223.855 51.46 223.455 50.62C223.055 49.78 222.855 48.8133 222.855 47.72C222.855 46.6667 223.052 45.7167 223.445 44.87C223.839 44.0233 224.405 43.3533 225.145 42.86C225.885 42.36 226.779 42.11 227.825 42.11C228.799 42.11 229.639 42.3233 230.345 42.75C231.052 43.1767 231.599 43.79 231.985 44.59C232.372 45.3833 232.565 46.34 232.565 47.46C232.565 47.64 232.559 47.8233 232.545 48.01C232.539 48.1967 232.529 48.3633 232.515 48.51H225.565ZM227.835 43.97C227.195 43.97 226.669 44.2 226.255 44.66C225.849 45.1133 225.609 45.8333 225.535 46.82H229.995C229.982 45.9267 229.795 45.23 229.435 44.73C229.082 44.2233 228.549 43.97 227.835 43.97ZM240.318 51.18C240.784 51.18 241.221 51.0933 241.628 50.92C242.041 50.7467 242.438 50.5267 242.818 50.26L244.018 51.95C243.551 52.3433 242.988 52.6667 242.328 52.92C241.668 53.1733 240.961 53.3 240.208 53.3C239.101 53.3 238.151 53.07 237.358 52.61C236.571 52.1433 235.964 51.4967 235.538 50.67C235.118 49.8367 234.908 48.87 234.908 47.77C234.908 46.6833 235.121 45.7133 235.548 44.86C235.981 44 236.594 43.3267 237.388 42.84C238.188 42.3533 239.141 42.11 240.248 42.11C241.008 42.11 241.694 42.22 242.308 42.44C242.928 42.6533 243.494 42.9733 244.008 43.4L242.838 45.02C242.444 44.7467 242.038 44.54 241.618 44.4C241.204 44.2533 240.774 44.18 240.328 44.18C239.548 44.18 238.911 44.4633 238.418 45.03C237.931 45.59 237.688 46.5033 237.688 47.77C237.688 48.6033 237.801 49.27 238.028 49.77C238.261 50.27 238.574 50.63 238.968 50.85C239.368 51.07 239.818 51.18 240.318 51.18ZM248.91 48.51C248.963 49.17 249.113 49.7067 249.36 50.12C249.613 50.5333 249.936 50.8367 250.33 51.03C250.723 51.2233 251.16 51.32 251.64 51.32C252.146 51.32 252.623 51.24 253.07 51.08C253.516 50.92 253.956 50.6967 254.39 50.41L255.49 51.92C254.996 52.3333 254.406 52.6667 253.72 52.92C253.04 53.1733 252.29 53.3 251.47 53.3C250.323 53.3 249.356 53.0633 248.57 52.59C247.79 52.1167 247.2 51.46 246.8 50.62C246.4 49.78 246.2 48.8133 246.2 47.72C246.2 46.6667 246.396 45.7167 246.79 44.87C247.183 44.0233 247.75 43.3533 248.49 42.86C249.23 42.36 250.123 42.11 251.17 42.11C252.143 42.11 252.983 42.3233 253.69 42.75C254.396 43.1767 254.943 43.79 255.33 44.59C255.716 45.3833 255.91 46.34 255.91 47.46C255.91 47.64 255.903 47.8233 255.89 48.01C255.883 48.1967 255.873 48.3633 255.86 48.51H248.91ZM251.18 43.97C250.54 43.97 250.013 44.2 249.6 44.66C249.193 45.1133 248.953 45.8333 248.88 46.82H253.34C253.326 45.9267 253.14 45.23 252.78 44.73C252.426 44.2233 251.893 43.97 251.18 43.97ZM274.034 51.35C274.654 51.35 275.151 51.2433 275.524 51.03C275.904 50.81 276.094 50.5033 276.094 50.11C276.094 49.85 276.031 49.63 275.904 49.45C275.784 49.27 275.544 49.1033 275.184 48.95C274.824 48.79 274.284 48.6133 273.564 48.42C272.884 48.2467 272.287 48.0333 271.774 47.78C271.267 47.52 270.871 47.1867 270.584 46.78C270.304 46.3733 270.164 45.86 270.164 45.24C270.164 44.62 270.337 44.0767 270.684 43.61C271.031 43.1367 271.531 42.77 272.184 42.51C272.844 42.2433 273.637 42.11 274.564 42.11C275.471 42.11 276.264 42.23 276.944 42.47C277.624 42.7033 278.207 42.9967 278.694 43.35L277.614 44.96C277.187 44.6867 276.724 44.4667 276.224 44.3C275.731 44.1267 275.197 44.04 274.624 44.04C274.004 44.04 273.551 44.13 273.264 44.31C272.984 44.49 272.844 44.74 272.844 45.06C272.844 45.2867 272.914 45.48 273.054 45.64C273.201 45.7933 273.461 45.9433 273.834 46.09C274.214 46.23 274.754 46.4 275.454 46.6C276.141 46.7867 276.737 47.0067 277.244 47.26C277.757 47.5133 278.154 47.85 278.434 48.27C278.714 48.69 278.854 49.24 278.854 49.92C278.854 50.6867 278.631 51.32 278.184 51.82C277.737 52.32 277.147 52.6933 276.414 52.94C275.687 53.18 274.897 53.3 274.044 53.3C273.044 53.3 272.171 53.1567 271.424 52.87C270.677 52.5833 270.044 52.2133 269.524 51.76L270.894 50.22C271.307 50.5467 271.777 50.8167 272.304 51.03C272.837 51.2433 273.414 51.35 274.034 51.35ZM283.926 48.51C283.98 49.17 284.13 49.7067 284.376 50.12C284.63 50.5333 284.953 50.8367 285.346 51.03C285.74 51.2233 286.176 51.32 286.656 51.32C287.163 51.32 287.64 51.24 288.086 51.08C288.533 50.92 288.973 50.6967 289.406 50.41L290.506 51.92C290.013 52.3333 289.423 52.6667 288.736 52.92C288.056 53.1733 287.306 53.3 286.486 53.3C285.34 53.3 284.373 53.0633 283.586 52.59C282.806 52.1167 282.216 51.46 281.816 50.62C281.416 49.78 281.216 48.8133 281.216 47.72C281.216 46.6667 281.413 45.7167 281.806 44.87C282.2 44.0233 282.766 43.3533 283.506 42.86C284.246 42.36 285.14 42.11 286.186 42.11C287.16 42.11 288 42.3233 288.706 42.75C289.413 43.1767 289.96 43.79 290.346 44.59C290.733 45.3833 290.926 46.34 290.926 47.46C290.926 47.64 290.92 47.8233 290.906 48.01C290.9 48.1967 290.89 48.3633 290.876 48.51H283.926ZM286.196 43.97C285.556 43.97 285.03 44.2 284.616 44.66C284.21 45.1133 283.97 45.8333 283.896 46.82H288.356C288.343 45.9267 288.156 45.23 287.796 44.73C287.443 44.2233 286.91 43.97 286.196 43.97ZM293.448 53V51.17H294.938V44.23H293.448V42.41H296.948L297.438 44.84C297.825 43.94 298.312 43.2633 298.898 42.81C299.485 42.35 300.222 42.12 301.108 42.12C301.448 42.12 301.748 42.1467 302.008 42.2C302.275 42.2533 302.528 42.3233 302.768 42.41L301.978 44.63C301.772 44.5767 301.575 44.5367 301.388 44.51C301.202 44.4767 300.992 44.46 300.758 44.46C300.025 44.46 299.385 44.7467 298.838 45.32C298.298 45.8867 297.878 46.6567 297.578 47.63V51.17H299.688V53H293.448ZM300.538 46.54V43.73L300.898 42.41H302.768L302.298 46.54H300.538ZM322.833 37.9L325.473 38.18V53H323.133L322.973 51.75C322.646 52.2167 322.236 52.5933 321.743 52.88C321.249 53.16 320.676 53.3 320.023 53.3C319.129 53.3 318.389 53.0667 317.803 52.6C317.223 52.1333 316.789 51.48 316.503 50.64C316.223 49.7933 316.083 48.81 316.083 47.69C316.083 46.61 316.249 45.65 316.583 44.81C316.916 43.97 317.396 43.31 318.023 42.83C318.656 42.35 319.406 42.11 320.273 42.11C320.793 42.11 321.266 42.2 321.693 42.38C322.119 42.56 322.499 42.8267 322.833 43.18V37.9ZM320.983 44.08C320.316 44.08 319.789 44.37 319.403 44.95C319.023 45.5233 318.833 46.44 318.833 47.7C318.833 48.5867 318.913 49.2967 319.073 49.83C319.233 50.3567 319.459 50.7367 319.753 50.97C320.046 51.2033 320.393 51.32 320.793 51.32C321.233 51.32 321.619 51.19 321.953 50.93C322.293 50.6633 322.586 50.3333 322.833 49.94V45.12C322.586 44.7933 322.309 44.54 322.003 44.36C321.703 44.1733 321.363 44.08 320.983 44.08ZM330.615 48.51C330.668 49.17 330.818 49.7067 331.065 50.12C331.318 50.5333 331.642 50.8367 332.035 51.03C332.428 51.2233 332.865 51.32 333.345 51.32C333.852 51.32 334.328 51.24 334.775 51.08C335.222 50.92 335.662 50.6967 336.095 50.41L337.195 51.92C336.702 52.3333 336.112 52.6667 335.425 52.92C334.745 53.1733 333.995 53.3 333.175 53.3C332.028 53.3 331.062 53.0633 330.275 52.59C329.495 52.1167 328.905 51.46 328.505 50.62C328.105 49.78 327.905 48.8133 327.905 47.72C327.905 46.6667 328.102 45.7167 328.495 44.87C328.888 44.0233 329.455 43.3533 330.195 42.86C330.935 42.36 331.828 42.11 332.875 42.11C333.848 42.11 334.688 42.3233 335.395 42.75C336.102 43.1767 336.648 43.79 337.035 44.59C337.422 45.3833 337.615 46.34 337.615 47.46C337.615 47.64 337.608 47.8233 337.595 48.01C337.588 48.1967 337.578 48.3633 337.565 48.51H330.615ZM332.885 43.97C332.245 43.97 331.718 44.2 331.305 44.66C330.898 45.1133 330.658 45.8333 330.585 46.82H335.045C335.032 45.9267 334.845 45.23 334.485 44.73C334.132 44.2233 333.598 43.97 332.885 43.97ZM344.067 51.35C344.687 51.35 345.184 51.2433 345.557 51.03C345.937 50.81 346.127 50.5033 346.127 50.11C346.127 49.85 346.064 49.63 345.937 49.45C345.817 49.27 345.577 49.1033 345.217 48.95C344.857 48.79 344.317 48.6133 343.597 48.42C342.917 48.2467 342.321 48.0333 341.807 47.78C341.301 47.52 340.904 47.1867 340.617 46.78C340.337 46.3733 340.197 45.86 340.197 45.24C340.197 44.62 340.371 44.0767 340.717 43.61C341.064 43.1367 341.564 42.77 342.217 42.51C342.877 42.2433 343.671 42.11 344.597 42.11C345.504 42.11 346.297 42.23 346.977 42.47C347.657 42.7033 348.241 42.9967 348.727 43.35L347.647 44.96C347.221 44.6867 346.757 44.4667 346.257 44.3C345.764 44.1267 345.231 44.04 344.657 44.04C344.037 44.04 343.584 44.13 343.297 44.31C343.017 44.49 342.877 44.74 342.877 45.06C342.877 45.2867 342.947 45.48 343.087 45.64C343.234 45.7933 343.494 45.9433 343.867 46.09C344.247 46.23 344.787 46.4 345.487 46.6C346.174 46.7867 346.771 47.0067 347.277 47.26C347.791 47.5133 348.187 47.85 348.467 48.27C348.747 48.69 348.887 49.24 348.887 49.92C348.887 50.6867 348.664 51.32 348.217 51.82C347.771 52.32 347.181 52.6933 346.447 52.94C345.721 53.18 344.931 53.3 344.077 53.3C343.077 53.3 342.204 53.1567 341.457 52.87C340.711 52.5833 340.077 52.2133 339.557 51.76L340.927 50.22C341.341 50.5467 341.811 50.8167 342.337 51.03C342.871 51.2433 343.447 51.35 344.067 51.35ZM355.739 51.35C356.359 51.35 356.856 51.2433 357.229 51.03C357.609 50.81 357.799 50.5033 357.799 50.11C357.799 49.85 357.736 49.63 357.609 49.45C357.489 49.27 357.249 49.1033 356.889 48.95C356.529 48.79 355.989 48.6133 355.269 48.42C354.589 48.2467 353.993 48.0333 353.479 47.78C352.973 47.52 352.576 47.1867 352.289 46.78C352.009 46.3733 351.869 45.86 351.869 45.24C351.869 44.62 352.043 44.0767 352.389 43.61C352.736 43.1367 353.236 42.77 353.889 42.51C354.549 42.2433 355.343 42.11 356.269 42.11C357.176 42.11 357.969 42.23 358.649 42.47C359.329 42.7033 359.913 42.9967 360.399 43.35L359.319 44.96C358.893 44.6867 358.429 44.4667 357.929 44.3C357.436 44.1267 356.903 44.04 356.329 44.04C355.709 44.04 355.256 44.13 354.969 44.31C354.689 44.49 354.549 44.74 354.549 45.06C354.549 45.2867 354.619 45.48 354.759 45.64C354.906 45.7933 355.166 45.9433 355.539 46.09C355.919 46.23 356.459 46.4 357.159 46.6C357.846 46.7867 358.443 47.0067 358.949 47.26C359.463 47.5133 359.859 47.85 360.139 48.27C360.419 48.69 360.559 49.24 360.559 49.92C360.559 50.6867 360.336 51.32 359.889 51.82C359.443 52.32 358.853 52.6933 358.119 52.94C357.393 53.18 356.603 53.3 355.749 53.3C354.749 53.3 353.876 53.1567 353.129 52.87C352.383 52.5833 351.749 52.2133 351.229 51.76L352.599 50.22C353.013 50.5467 353.483 50.8167 354.009 51.03C354.543 51.2433 355.119 51.35 355.739 51.35ZM365.632 48.51C365.685 49.17 365.835 49.7067 366.082 50.12C366.335 50.5333 366.658 50.8367 367.052 51.03C367.445 51.2233 367.882 51.32 368.362 51.32C368.868 51.32 369.345 51.24 369.792 51.08C370.238 50.92 370.678 50.6967 371.112 50.41L372.212 51.92C371.718 52.3333 371.128 52.6667 370.442 52.92C369.762 53.1733 369.012 53.3 368.192 53.3C367.045 53.3 366.078 53.0633 365.292 52.59C364.512 52.1167 363.922 51.46 363.522 50.62C363.122 49.78 362.922 48.8133 362.922 47.72C362.922 46.6667 363.118 45.7167 363.512 44.87C363.905 44.0233 364.472 43.3533 365.212 42.86C365.952 42.36 366.845 42.11 367.892 42.11C368.865 42.11 369.705 42.3233 370.412 42.75C371.118 43.1767 371.665 43.79 372.052 44.59C372.438 45.3833 372.632 46.34 372.632 47.46C372.632 47.64 372.625 47.8233 372.612 48.01C372.605 48.1967 372.595 48.3633 372.582 48.51H365.632ZM367.902 43.97C367.262 43.97 366.735 44.2 366.322 44.66C365.915 45.1133 365.675 45.8333 365.602 46.82H370.062C370.048 45.9267 369.862 45.23 369.502 44.73C369.148 44.2233 368.615 43.97 367.902 43.97ZM395.176 50.21C395.176 50.6167 395.236 50.9133 395.356 51.1C395.476 51.28 395.669 51.4167 395.936 51.51L395.366 53.28C394.799 53.22 394.316 53.08 393.916 52.86C393.523 52.6333 393.219 52.2967 393.006 51.85C392.606 52.3367 392.099 52.7 391.486 52.94C390.879 53.18 390.243 53.3 389.576 53.3C388.496 53.3 387.639 52.9933 387.006 52.38C386.373 51.7667 386.056 50.97 386.056 49.99C386.056 48.8633 386.496 47.9967 387.376 47.39C388.263 46.7767 389.516 46.47 391.136 46.47H392.616V45.9C392.616 45.2733 392.423 44.82 392.036 44.54C391.649 44.2533 391.093 44.11 390.366 44.11C390.026 44.11 389.599 44.1567 389.086 44.25C388.579 44.3367 388.056 44.4733 387.516 44.66L386.886 42.85C387.559 42.5967 388.236 42.41 388.916 42.29C389.603 42.17 390.226 42.11 390.786 42.11C392.273 42.11 393.376 42.4267 394.096 43.06C394.816 43.6867 395.176 44.5767 395.176 45.73V50.21ZM390.436 51.39C390.836 51.39 391.239 51.2767 391.646 51.05C392.059 50.8233 392.383 50.5067 392.616 50.1V48.04H391.576C390.596 48.04 389.886 48.1967 389.446 48.51C389.013 48.8233 388.796 49.2667 388.796 49.84C388.796 50.3333 388.936 50.7167 389.216 50.99C389.496 51.2567 389.903 51.39 390.436 51.39ZM398.398 53V42.41H400.698L400.888 43.72C401.341 43.1867 401.851 42.7867 402.418 42.52C402.985 42.2467 403.595 42.11 404.248 42.11C405.201 42.11 405.928 42.3867 406.428 42.94C406.928 43.4867 407.178 44.2567 407.178 45.25V53H404.538V46.28C404.538 45.7467 404.505 45.32 404.438 45C404.371 44.6733 404.245 44.44 404.058 44.3C403.871 44.1533 403.601 44.08 403.248 44.08C402.961 44.08 402.685 44.1433 402.418 44.27C402.158 44.3967 401.911 44.5667 401.678 44.78C401.451 44.9933 401.238 45.23 401.038 45.49V53H398.398ZM414.47 42.11C415.524 42.11 416.417 42.34 417.15 42.8C417.884 43.26 418.44 43.91 418.82 44.75C419.207 45.5833 419.4 46.56 419.4 47.68C419.4 48.8267 419.207 49.82 418.82 50.66C418.434 51.5 417.874 52.15 417.14 52.61C416.407 53.07 415.514 53.3 414.46 53.3C413.414 53.3 412.52 53.0767 411.78 52.63C411.047 52.1767 410.487 51.5333 410.1 50.7C409.714 49.86 409.52 48.86 409.52 47.7C409.52 46.5933 409.714 45.62 410.1 44.78C410.487 43.94 411.05 43.2867 411.79 42.82C412.53 42.3467 413.424 42.11 414.47 42.11ZM414.47 44.1C413.73 44.1 413.177 44.39 412.81 44.97C412.45 45.55 412.27 46.46 412.27 47.7C412.27 48.9533 412.45 49.87 412.81 50.45C413.17 51.0233 413.72 51.31 414.46 51.31C415.2 51.31 415.75 51.0233 416.11 50.45C416.47 49.87 416.65 48.9467 416.65 47.68C416.65 46.4467 416.47 45.5433 416.11 44.97C415.75 44.39 415.204 44.1 414.47 44.1ZM426.133 49.17C426.699 49.17 427.169 49.36 427.543 49.74C427.923 50.12 428.113 50.5867 428.113 51.14C428.113 51.48 428.056 51.8233 427.943 52.17C427.829 52.51 427.656 52.9467 427.423 53.48L425.913 56.9H424.013L425.013 52.76C424.746 52.58 424.539 52.3467 424.393 52.06C424.246 51.7733 424.173 51.4633 424.173 51.13C424.173 50.5767 424.359 50.1133 424.733 49.74C425.106 49.36 425.573 49.17 426.133 49.17ZM447.337 48.51C447.39 49.17 447.54 49.7067 447.787 50.12C448.04 50.5333 448.364 50.8367 448.757 51.03C449.15 51.2233 449.587 51.32 450.067 51.32C450.574 51.32 451.05 51.24 451.497 51.08C451.944 50.92 452.384 50.6967 452.817 50.41L453.917 51.92C453.424 52.3333 452.834 52.6667 452.147 52.92C451.467 53.1733 450.717 53.3 449.897 53.3C448.75 53.3 447.784 53.0633 446.997 52.59C446.217 52.1167 445.627 51.46 445.227 50.62C444.827 49.78 444.627 48.8133 444.627 47.72C444.627 46.6667 444.824 45.7167 445.217 44.87C445.61 44.0233 446.177 43.3533 446.917 42.86C447.657 42.36 448.55 42.11 449.597 42.11C450.57 42.11 451.41 42.3233 452.117 42.75C452.824 43.1767 453.37 43.79 453.757 44.59C454.144 45.3833 454.337 46.34 454.337 47.46C454.337 47.64 454.33 47.8233 454.317 48.01C454.31 48.1967 454.3 48.3633 454.287 48.51H447.337ZM449.607 43.97C448.967 43.97 448.44 44.2 448.027 44.66C447.62 45.1133 447.38 45.8333 447.307 46.82H451.767C451.754 45.9267 451.567 45.23 451.207 44.73C450.854 44.2233 450.32 43.97 449.607 43.97ZM460.789 51.35C461.409 51.35 461.906 51.2433 462.279 51.03C462.659 50.81 462.849 50.5033 462.849 50.11C462.849 49.85 462.786 49.63 462.659 49.45C462.539 49.27 462.299 49.1033 461.939 48.95C461.579 48.79 461.039 48.6133 460.319 48.42C459.639 48.2467 459.042 48.0333 458.529 47.78C458.022 47.52 457.626 47.1867 457.339 46.78C457.059 46.3733 456.919 45.86 456.919 45.24C456.919 44.62 457.092 44.0767 457.439 43.61C457.786 43.1367 458.286 42.77 458.939 42.51C459.599 42.2433 460.392 42.11 461.319 42.11C462.226 42.11 463.019 42.23 463.699 42.47C464.379 42.7033 464.962 42.9967 465.449 43.35L464.369 44.96C463.942 44.6867 463.479 44.4667 462.979 44.3C462.486 44.1267 461.952 44.04 461.379 44.04C460.759 44.04 460.306 44.13 460.019 44.31C459.739 44.49 459.599 44.74 459.599 45.06C459.599 45.2867 459.669 45.48 459.809 45.64C459.956 45.7933 460.216 45.9433 460.589 46.09C460.969 46.23 461.509 46.4 462.209 46.6C462.896 46.7867 463.492 47.0067 463.999 47.26C464.512 47.5133 464.909 47.85 465.189 48.27C465.469 48.69 465.609 49.24 465.609 49.92C465.609 50.6867 465.386 51.32 464.939 51.82C464.492 52.32 463.902 52.6933 463.169 52.94C462.442 53.18 461.652 53.3 460.799 53.3C459.799 53.3 458.926 53.1567 458.179 52.87C457.432 52.5833 456.799 52.2133 456.279 51.76L457.649 50.22C458.062 50.5467 458.532 50.8167 459.059 51.03C459.592 51.2433 460.169 51.35 460.789 51.35ZM472.461 51.35C473.081 51.35 473.578 51.2433 473.951 51.03C474.331 50.81 474.521 50.5033 474.521 50.11C474.521 49.85 474.458 49.63 474.331 49.45C474.211 49.27 473.971 49.1033 473.611 48.95C473.251 48.79 472.711 48.6133 471.991 48.42C471.311 48.2467 470.715 48.0333 470.201 47.78C469.695 47.52 469.298 47.1867 469.011 46.78C468.731 46.3733 468.591 45.86 468.591 45.24C468.591 44.62 468.765 44.0767 469.111 43.61C469.458 43.1367 469.958 42.77 470.611 42.51C471.271 42.2433 472.065 42.11 472.991 42.11C473.898 42.11 474.691 42.23 475.371 42.47C476.051 42.7033 476.635 42.9967 477.121 43.35L476.041 44.96C475.615 44.6867 475.151 44.4667 474.651 44.3C474.158 44.1267 473.625 44.04 473.051 44.04C472.431 44.04 471.978 44.13 471.691 44.31C471.411 44.49 471.271 44.74 471.271 45.06C471.271 45.2867 471.341 45.48 471.481 45.64C471.628 45.7933 471.888 45.9433 472.261 46.09C472.641 46.23 473.181 46.4 473.881 46.6C474.568 46.7867 475.165 47.0067 475.671 47.26C476.185 47.5133 476.581 47.85 476.861 48.27C477.141 48.69 477.281 49.24 477.281 49.92C477.281 50.6867 477.058 51.32 476.611 51.82C476.165 52.32 475.575 52.6933 474.841 52.94C474.115 53.18 473.325 53.3 472.471 53.3C471.471 53.3 470.598 53.1567 469.851 52.87C469.105 52.5833 468.471 52.2133 467.951 51.76L469.321 50.22C469.735 50.5467 470.205 50.8167 470.731 51.03C471.265 51.2433 471.841 51.35 472.461 51.35ZM482.353 48.51C482.407 49.17 482.557 49.7067 482.803 50.12C483.057 50.5333 483.38 50.8367 483.773 51.03C484.167 51.2233 484.603 51.32 485.083 51.32C485.59 51.32 486.067 51.24 486.513 51.08C486.96 50.92 487.4 50.6967 487.833 50.41L488.933 51.92C488.44 52.3333 487.85 52.6667 487.163 52.92C486.483 53.1733 485.733 53.3 484.913 53.3C483.767 53.3 482.8 53.0633 482.013 52.59C481.233 52.1167 480.643 51.46 480.243 50.62C479.843 49.78 479.643 48.8133 479.643 47.72C479.643 46.6667 479.84 45.7167 480.233 44.87C480.627 44.0233 481.193 43.3533 481.933 42.86C482.673 42.36 483.567 42.11 484.613 42.11C485.587 42.11 486.427 42.3233 487.133 42.75C487.84 43.1767 488.387 43.79 488.773 44.59C489.16 45.3833 489.353 46.34 489.353 47.46C489.353 47.64 489.347 47.8233 489.333 48.01C489.327 48.1967 489.317 48.3633 489.303 48.51H482.353ZM484.623 43.97C483.983 43.97 483.457 44.2 483.043 44.66C482.637 45.1133 482.397 45.8333 482.323 46.82H486.783C486.77 45.9267 486.583 45.23 486.223 44.73C485.87 44.2233 485.337 43.97 484.623 43.97ZM509.538 42.41V51.13H512.328V53H503.798V51.13H506.898V44.28H503.898V42.41H509.538ZM507.828 37.07C508.314 37.07 508.708 37.22 509.008 37.52C509.314 37.82 509.468 38.1933 509.468 38.64C509.468 39.0867 509.314 39.4633 509.008 39.77C508.708 40.07 508.314 40.22 507.828 40.22C507.341 40.22 506.944 40.07 506.638 39.77C506.331 39.4633 506.178 39.0867 506.178 38.64C506.178 38.1933 506.331 37.82 506.638 37.52C506.944 37.22 507.341 37.07 507.828 37.07ZM521.26 37.9L523.9 38.18V53H521.56L521.4 51.75C521.073 52.2167 520.663 52.5933 520.17 52.88C519.677 53.16 519.103 53.3 518.45 53.3C517.557 53.3 516.817 53.0667 516.23 52.6C515.65 52.1333 515.217 51.48 514.93 50.64C514.65 49.7933 514.51 48.81 514.51 47.69C514.51 46.61 514.677 45.65 515.01 44.81C515.343 43.97 515.823 43.31 516.45 42.83C517.083 42.35 517.833 42.11 518.7 42.11C519.22 42.11 519.693 42.2 520.12 42.38C520.547 42.56 520.927 42.8267 521.26 43.18V37.9ZM519.41 44.08C518.743 44.08 518.217 44.37 517.83 44.95C517.45 45.5233 517.26 46.44 517.26 47.7C517.26 48.5867 517.34 49.2967 517.5 49.83C517.66 50.3567 517.887 50.7367 518.18 50.97C518.473 51.2033 518.82 51.32 519.22 51.32C519.66 51.32 520.047 51.19 520.38 50.93C520.72 50.6633 521.013 50.3333 521.26 49.94V45.12C521.013 44.7933 520.737 44.54 520.43 44.36C520.13 44.1733 519.79 44.08 519.41 44.08ZM532.882 42.41V51.13H535.672V53H527.142V51.13H530.242V44.28H527.242V42.41H532.882ZM531.172 37.07C531.659 37.07 532.052 37.22 532.352 37.52C532.659 37.82 532.812 38.1933 532.812 38.64C532.812 39.0867 532.659 39.4633 532.352 39.77C532.052 40.07 531.659 40.22 531.172 40.22C530.686 40.22 530.289 40.07 529.982 39.77C529.676 39.4633 529.522 39.0867 529.522 38.64C529.522 38.1933 529.676 37.82 529.982 37.52C530.289 37.22 530.686 37.07 531.172 37.07ZM542.864 42.11C543.918 42.11 544.811 42.34 545.544 42.8C546.278 43.26 546.834 43.91 547.214 44.75C547.601 45.5833 547.794 46.56 547.794 47.68C547.794 48.8267 547.601 49.82 547.214 50.66C546.828 51.5 546.268 52.15 545.534 52.61C544.801 53.07 543.908 53.3 542.854 53.3C541.808 53.3 540.914 53.0767 540.174 52.63C539.441 52.1767 538.881 51.5333 538.494 50.7C538.108 49.86 537.914 48.86 537.914 47.7C537.914 46.5933 538.108 45.62 538.494 44.78C538.881 43.94 539.444 43.2867 540.184 42.82C540.924 42.3467 541.818 42.11 542.864 42.11ZM542.864 44.1C542.124 44.1 541.571 44.39 541.204 44.97C540.844 45.55 540.664 46.46 540.664 47.7C540.664 48.9533 540.844 49.87 541.204 50.45C541.564 51.0233 542.114 51.31 542.854 51.31C543.594 51.31 544.144 51.0233 544.504 50.45C544.864 49.87 545.044 48.9467 545.044 47.68C545.044 46.4467 544.864 45.5433 544.504 44.97C544.144 44.39 543.598 44.1 542.864 44.1ZM557.667 42.11C558.12 42.11 558.507 42.2067 558.827 42.4C559.147 42.5867 559.393 42.9033 559.567 43.35C559.74 43.79 559.827 44.39 559.827 45.15V53H557.527V45.48C557.527 45 557.487 44.66 557.407 44.46C557.333 44.26 557.163 44.16 556.897 44.16C556.677 44.16 556.453 44.2267 556.227 44.36C556.007 44.4867 555.777 44.7167 555.537 45.05V53H553.547V45.48C553.547 45 553.507 44.66 553.427 44.46C553.353 44.26 553.183 44.16 552.917 44.16C552.69 44.16 552.467 44.2267 552.247 44.36C552.027 44.4867 551.797 44.7167 551.557 45.05V53H549.227V42.41H551.197L551.367 43.51C551.68 43.07 552.01 42.7267 552.357 42.48C552.703 42.2333 553.12 42.11 553.607 42.11C554.007 42.11 554.36 42.21 554.667 42.41C554.98 42.6033 555.203 42.9367 555.337 43.41C555.643 43.0233 555.987 42.71 556.367 42.47C556.747 42.23 557.18 42.11 557.667 42.11ZM570.259 50.21C570.259 50.6167 570.319 50.9133 570.439 51.1C570.559 51.28 570.752 51.4167 571.019 51.51L570.449 53.28C569.882 53.22 569.399 53.08 568.999 52.86C568.605 52.6333 568.302 52.2967 568.089 51.85C567.689 52.3367 567.182 52.7 566.569 52.94C565.962 53.18 565.325 53.3 564.659 53.3C563.579 53.3 562.722 52.9933 562.089 52.38C561.455 51.7667 561.139 50.97 561.139 49.99C561.139 48.8633 561.579 47.9967 562.459 47.39C563.345 46.7767 564.599 46.47 566.219 46.47H567.699V45.9C567.699 45.2733 567.505 44.82 567.119 44.54C566.732 44.2533 566.175 44.11 565.449 44.11C565.109 44.11 564.682 44.1567 564.169 44.25C563.662 44.3367 563.139 44.4733 562.599 44.66L561.969 42.85C562.642 42.5967 563.319 42.41 563.999 42.29C564.685 42.17 565.309 42.11 565.869 42.11C567.355 42.11 568.459 42.4267 569.179 43.06C569.899 43.6867 570.259 44.5767 570.259 45.73V50.21ZM565.519 51.39C565.919 51.39 566.322 51.2767 566.729 51.05C567.142 50.8233 567.465 50.5067 567.699 50.1V48.04H566.659C565.679 48.04 564.969 48.1967 564.529 48.51C564.095 48.8233 563.879 49.2667 563.879 49.84C563.879 50.3333 564.019 50.7167 564.299 50.99C564.579 51.2567 564.985 51.39 565.519 51.39ZM589.183 51.35C589.803 51.35 590.3 51.2433 590.673 51.03C591.053 50.81 591.243 50.5033 591.243 50.11C591.243 49.85 591.18 49.63 591.053 49.45C590.933 49.27 590.693 49.1033 590.333 48.95C589.973 48.79 589.433 48.6133 588.713 48.42C588.033 48.2467 587.436 48.0333 586.923 47.78C586.416 47.52 586.02 47.1867 585.733 46.78C585.453 46.3733 585.313 45.86 585.313 45.24C585.313 44.62 585.486 44.0767 585.833 43.61C586.18 43.1367 586.68 42.77 587.333 42.51C587.993 42.2433 588.786 42.11 589.713 42.11C590.62 42.11 591.413 42.23 592.093 42.47C592.773 42.7033 593.356 42.9967 593.843 43.35L592.763 44.96C592.336 44.6867 591.873 44.4667 591.373 44.3C590.88 44.1267 590.346 44.04 589.773 44.04C589.153 44.04 588.7 44.13 588.413 44.31C588.133 44.49 587.993 44.74 587.993 45.06C587.993 45.2867 588.063 45.48 588.203 45.64C588.35 45.7933 588.61 45.9433 588.983 46.09C589.363 46.23 589.903 46.4 590.603 46.6C591.29 46.7867 591.886 47.0067 592.393 47.26C592.906 47.5133 593.303 47.85 593.583 48.27C593.863 48.69 594.003 49.24 594.003 49.92C594.003 50.6867 593.78 51.32 593.333 51.82C592.886 52.32 592.296 52.6933 591.563 52.94C590.836 53.18 590.046 53.3 589.193 53.3C588.193 53.3 587.32 53.1567 586.573 52.87C585.826 52.5833 585.193 52.2133 584.673 51.76L586.043 50.22C586.456 50.5467 586.926 50.8167 587.453 51.03C587.986 51.2433 588.563 51.35 589.183 51.35ZM599.075 48.51C599.129 49.17 599.279 49.7067 599.525 50.12C599.779 50.5333 600.102 50.8367 600.495 51.03C600.889 51.2233 601.325 51.32 601.805 51.32C602.312 51.32 602.789 51.24 603.235 51.08C603.682 50.92 604.122 50.6967 604.555 50.41L605.655 51.92C605.162 52.3333 604.572 52.6667 603.885 52.92C603.205 53.1733 602.455 53.3 601.635 53.3C600.489 53.3 599.522 53.0633 598.735 52.59C597.955 52.1167 597.365 51.46 596.965 50.62C596.565 49.78 596.365 48.8133 596.365 47.72C596.365 46.6667 596.562 45.7167 596.955 44.87C597.349 44.0233 597.915 43.3533 598.655 42.86C599.395 42.36 600.289 42.11 601.335 42.11C602.309 42.11 603.149 42.3233 603.855 42.75C604.562 43.1767 605.109 43.79 605.495 44.59C605.882 45.3833 606.075 46.34 606.075 47.46C606.075 47.64 606.069 47.8233 606.055 48.01C606.049 48.1967 606.039 48.3633 606.025 48.51H599.075ZM601.345 43.97C600.705 43.97 600.179 44.2 599.765 44.66C599.359 45.1133 599.119 45.8333 599.045 46.82H603.505C603.492 45.9267 603.305 45.23 602.945 44.73C602.592 44.2233 602.059 43.97 601.345 43.97ZM629.31 52.41C628.916 52.67 628.44 52.8833 627.88 53.05C627.32 53.2167 626.713 53.3 626.06 53.3C624.766 53.3 623.793 52.9667 623.14 52.3C622.486 51.6267 622.16 50.7333 622.16 49.62V44.28H619.86V42.41H622.16V40.08L624.8 39.76V42.41H628.3L628.03 44.28H624.8V49.61C624.8 50.1567 624.933 50.5567 625.2 50.81C625.466 51.0633 625.896 51.19 626.49 51.19C626.87 51.19 627.216 51.1467 627.53 51.06C627.85 50.9667 628.14 50.85 628.4 50.71L629.31 52.41ZM636.242 42.11C637.295 42.11 638.189 42.34 638.922 42.8C639.655 43.26 640.212 43.91 640.592 44.75C640.979 45.5833 641.172 46.56 641.172 47.68C641.172 48.8267 640.979 49.82 640.592 50.66C640.205 51.5 639.645 52.15 638.912 52.61C638.179 53.07 637.285 53.3 636.232 53.3C635.185 53.3 634.292 53.0767 633.552 52.63C632.819 52.1767 632.259 51.5333 631.872 50.7C631.485 49.86 631.292 48.86 631.292 47.7C631.292 46.5933 631.485 45.62 631.872 44.78C632.259 43.94 632.822 43.2867 633.562 42.82C634.302 42.3467 635.195 42.11 636.242 42.11ZM636.242 44.1C635.502 44.1 634.949 44.39 634.582 44.97C634.222 45.55 634.042 46.46 634.042 47.7C634.042 48.9533 634.222 49.87 634.582 50.45C634.942 51.0233 635.492 51.31 636.232 51.31C636.972 51.31 637.522 51.0233 637.882 50.45C638.242 49.87 638.422 48.9467 638.422 47.68C638.422 46.4467 638.242 45.5433 637.882 44.97C637.522 44.39 636.975 44.1 636.242 44.1ZM643.614 53V51.17H645.104V44.23H643.614V42.41H647.114L647.604 44.84C647.991 43.94 648.477 43.2633 649.064 42.81C649.651 42.35 650.387 42.12 651.274 42.12C651.614 42.12 651.914 42.1467 652.174 42.2C652.441 42.2533 652.694 42.3233 652.934 42.41L652.144 44.63C651.937 44.5767 651.741 44.5367 651.554 44.51C651.367 44.4767 651.157 44.46 650.924 44.46C650.191 44.46 649.551 44.7467 649.004 45.32C648.464 45.8867 648.044 46.6567 647.744 47.63V51.17H649.854V53H643.614ZM650.704 46.54V43.73L651.064 42.41H652.934L652.464 46.54H650.704ZM655.186 53V42.41H657.486L657.676 43.72C658.13 43.1867 658.64 42.7867 659.206 42.52C659.773 42.2467 660.383 42.11 661.036 42.11C661.99 42.11 662.716 42.3867 663.216 42.94C663.716 43.4867 663.966 44.2567 663.966 45.25V53H661.326V46.28C661.326 45.7467 661.293 45.32 661.226 45C661.16 44.6733 661.033 44.44 660.846 44.3C660.66 44.1533 660.39 44.08 660.036 44.08C659.75 44.08 659.473 44.1433 659.206 44.27C658.946 44.3967 658.7 44.5667 658.466 44.78C658.24 44.9933 658.026 45.23 657.826 45.49V53H655.186ZM671.258 42.11C672.312 42.11 673.205 42.34 673.938 42.8C674.672 43.26 675.228 43.91 675.608 44.75C675.995 45.5833 676.188 46.56 676.188 47.68C676.188 48.8267 675.995 49.82 675.608 50.66C675.222 51.5 674.662 52.15 673.928 52.61C673.195 53.07 672.302 53.3 671.248 53.3C670.202 53.3 669.308 53.0767 668.568 52.63C667.835 52.1767 667.275 51.5333 666.888 50.7C666.502 49.86 666.308 48.86 666.308 47.7C666.308 46.5933 666.502 45.62 666.888 44.78C667.275 43.94 667.838 43.2867 668.578 42.82C669.318 42.3467 670.212 42.11 671.258 42.11ZM671.258 44.1C670.518 44.1 669.965 44.39 669.598 44.97C669.238 45.55 669.058 46.46 669.058 47.7C669.058 48.9533 669.238 49.87 669.598 50.45C669.958 51.0233 670.508 51.31 671.248 51.31C671.988 51.31 672.538 51.0233 672.898 50.45C673.258 49.87 673.438 48.9467 673.438 47.68C673.438 46.4467 673.258 45.5433 672.898 44.97C672.538 44.39 671.992 44.1 671.258 44.1ZM681.171 42.41V49.75C681.171 50.3233 681.284 50.7267 681.511 50.96C681.737 51.1933 682.067 51.31 682.501 51.31C682.914 51.31 683.317 51.1867 683.711 50.94C684.104 50.6867 684.424 50.3667 684.671 49.98V42.41H687.311V53H685.011L684.871 51.7C684.491 52.22 684.004 52.6167 683.411 52.89C682.817 53.1633 682.204 53.3 681.571 53.3C680.551 53.3 679.787 53.0133 679.281 52.44C678.781 51.86 678.531 51.07 678.531 50.07V42.41H681.171ZM146.01 82.11C147.063 82.11 147.957 82.34 148.69 82.8C149.423 83.26 149.98 83.91 150.36 84.75C150.747 85.5833 150.94 86.56 150.94 87.68C150.94 88.8267 150.747 89.82 150.36 90.66C149.973 91.5 149.413 92.15 148.68 92.61C147.947 93.07 147.053 93.3 146 93.3C144.953 93.3 144.06 93.0767 143.32 92.63C142.587 92.1767 142.027 91.5333 141.64 90.7C141.253 89.86 141.06 88.86 141.06 87.7C141.06 86.5933 141.253 85.62 141.64 84.78C142.027 83.94 142.59 83.2867 143.33 82.82C144.07 82.3467 144.963 82.11 146.01 82.11ZM146.01 84.1C145.27 84.1 144.717 84.39 144.35 84.97C143.99 85.55 143.81 86.46 143.81 87.7C143.81 88.9533 143.99 89.87 144.35 90.45C144.71 91.0233 145.26 91.31 146 91.31C146.74 91.31 147.29 91.0233 147.65 90.45C148.01 89.87 148.19 88.9467 148.19 87.68C148.19 86.4467 148.01 85.5433 147.65 84.97C147.29 84.39 146.743 84.1 146.01 84.1ZM159.852 77.9C160.559 77.9 161.186 77.9567 161.732 78.07C162.279 78.1833 162.776 78.3367 163.222 78.53L162.462 80.31C162.109 80.1633 161.739 80.0567 161.352 79.99C160.966 79.9233 160.579 79.89 160.192 79.89C159.526 79.89 159.039 80.0167 158.732 80.27C158.432 80.5167 158.282 80.9133 158.282 81.46V83.13H161.782L161.492 85.02H158.282V93H155.652V85.02H153.322V83.13H155.652V81.4C155.652 80.7133 155.819 80.11 156.152 79.59C156.486 79.0633 156.966 78.65 157.592 78.35C158.226 78.05 158.979 77.9 159.852 77.9ZM171.044 83.13V91.13H173.834V93H165.304V91.13H168.404V85.02H165.404V83.13H171.044ZM169.334 77.65C169.821 77.65 170.214 77.8 170.514 78.1C170.821 78.4 170.974 78.7733 170.974 79.22C170.974 79.6667 170.821 80.0433 170.514 80.35C170.214 80.65 169.821 80.8 169.334 80.8C168.848 80.8 168.451 80.65 168.144 80.35C167.838 80.0433 167.684 79.6667 167.684 79.22C167.684 78.7733 167.838 78.4 168.144 78.1C168.451 77.8 168.848 77.65 169.334 77.65ZM181.957 91.18C182.423 91.18 182.86 91.0933 183.267 90.92C183.68 90.7467 184.077 90.5267 184.457 90.26L185.657 91.95C185.19 92.3433 184.627 92.6667 183.967 92.92C183.307 93.1733 182.6 93.3 181.847 93.3C180.74 93.3 179.79 93.07 178.997 92.61C178.21 92.1433 177.603 91.4967 177.177 90.67C176.757 89.8367 176.547 88.87 176.547 87.77C176.547 86.6833 176.76 85.7133 177.187 84.86C177.62 84 178.233 83.3267 179.027 82.84C179.827 82.3533 180.78 82.11 181.887 82.11C182.647 82.11 183.333 82.22 183.947 82.44C184.567 82.6533 185.133 82.9733 185.647 83.4L184.477 85.02C184.083 84.7467 183.677 84.54 183.257 84.4C182.843 84.2533 182.413 84.18 181.967 84.18C181.187 84.18 180.55 84.4633 180.057 85.03C179.57 85.59 179.327 86.5033 179.327 87.77C179.327 88.6033 179.44 89.27 179.667 89.77C179.9 90.27 180.213 90.63 180.607 90.85C181.007 91.07 181.457 91.18 181.957 91.18ZM194.389 82.41V91.13H197.179V93H188.649V91.13H191.749V84.28H188.749V82.41H194.389ZM192.679 77.07C193.165 77.07 193.559 77.22 193.859 77.52C194.165 77.82 194.319 78.1933 194.319 78.64C194.319 79.0867 194.165 79.4633 193.859 79.77C193.559 80.07 193.165 80.22 192.679 80.22C192.192 80.22 191.795 80.07 191.489 79.77C191.182 79.4633 191.029 79.0867 191.029 78.64C191.029 78.1933 191.182 77.82 191.489 77.52C191.795 77.22 192.192 77.07 192.679 77.07ZM208.421 90.21C208.421 90.6167 208.481 90.9133 208.601 91.1C208.721 91.28 208.914 91.4167 209.181 91.51L208.611 93.28C208.044 93.22 207.561 93.08 207.161 92.86C206.768 92.6333 206.464 92.2967 206.251 91.85C205.851 92.3367 205.344 92.7 204.731 92.94C204.124 93.18 203.488 93.3 202.821 93.3C201.741 93.3 200.884 92.9933 200.251 92.38C199.618 91.7667 199.301 90.97 199.301 89.99C199.301 88.8633 199.741 87.9967 200.621 87.39C201.508 86.7767 202.761 86.47 204.381 86.47H205.861V85.9C205.861 85.2733 205.668 84.82 205.281 84.54C204.894 84.2533 204.338 84.11 203.611 84.11C203.271 84.11 202.844 84.1567 202.331 84.25C201.824 84.3367 201.301 84.4733 200.761 84.66L200.131 82.85C200.804 82.5967 201.481 82.41 202.161 82.29C202.848 82.17 203.471 82.11 204.031 82.11C205.518 82.11 206.621 82.4267 207.341 83.06C208.061 83.6867 208.421 84.5767 208.421 85.73V90.21ZM203.681 91.39C204.081 91.39 204.484 91.2767 204.891 91.05C205.304 90.8233 205.628 90.5067 205.861 90.1V88.04H204.821C203.841 88.04 203.131 88.1967 202.691 88.51C202.258 88.8233 202.041 89.2667 202.041 89.84C202.041 90.3333 202.181 90.7167 202.461 90.99C202.741 91.2567 203.148 91.39 203.681 91.39ZM216.683 78.18V89.92C216.683 90.38 216.816 90.7067 217.083 90.9C217.356 91.0933 217.723 91.19 218.183 91.19C218.47 91.19 218.746 91.16 219.013 91.1C219.28 91.0333 219.533 90.9533 219.773 90.86L220.423 92.66C220.09 92.8267 219.683 92.9733 219.203 93.1C218.73 93.2333 218.18 93.3 217.553 93.3C216.4 93.3 215.526 92.97 214.933 92.31C214.34 91.65 214.043 90.76 214.043 89.64V80.05H210.873V78.18H216.683ZM243.438 90.21C243.438 90.6167 243.498 90.9133 243.618 91.1C243.738 91.28 243.931 91.4167 244.198 91.51L243.628 93.28C243.061 93.22 242.578 93.08 242.178 92.86C241.784 92.6333 241.481 92.2967 241.268 91.85C240.868 92.3367 240.361 92.7 239.748 92.94C239.141 93.18 238.504 93.3 237.838 93.3C236.758 93.3 235.901 92.9933 235.268 92.38C234.634 91.7667 234.318 90.97 234.318 89.99C234.318 88.8633 234.758 87.9967 235.638 87.39C236.524 86.7767 237.778 86.47 239.398 86.47H240.878V85.9C240.878 85.2733 240.684 84.82 240.298 84.54C239.911 84.2533 239.354 84.11 238.628 84.11C238.288 84.11 237.861 84.1567 237.348 84.25C236.841 84.3367 236.318 84.4733 235.778 84.66L235.148 82.85C235.821 82.5967 236.498 82.41 237.178 82.29C237.864 82.17 238.488 82.11 239.048 82.11C240.534 82.11 241.638 82.4267 242.358 83.06C243.078 83.6867 243.438 84.5767 243.438 85.73V90.21ZM238.698 91.39C239.098 91.39 239.501 91.2767 239.908 91.05C240.321 90.8233 240.644 90.5067 240.878 90.1V88.04H239.838C238.858 88.04 238.148 88.1967 237.708 88.51C237.274 88.8233 237.058 89.2667 237.058 89.84C237.058 90.3333 237.198 90.7167 237.478 90.99C237.758 91.2567 238.164 91.39 238.698 91.39ZM252.13 82.11C253.063 82.11 253.81 82.34 254.37 82.8C254.936 83.2533 255.346 83.8967 255.6 84.73C255.86 85.5633 255.99 86.5467 255.99 87.68C255.99 88.7667 255.833 89.7333 255.52 90.58C255.206 91.4267 254.746 92.0933 254.14 92.58C253.54 93.06 252.8 93.3 251.92 93.3C250.84 93.3 249.966 92.9167 249.3 92.15V97.08L246.66 97.36V82.41H248.98L249.12 83.7C249.54 83.1533 250.01 82.7533 250.53 82.5C251.05 82.24 251.583 82.11 252.13 82.11ZM251.36 84.09C250.913 84.09 250.52 84.2233 250.18 84.49C249.846 84.7567 249.553 85.0867 249.3 85.48V90.22C249.54 90.58 249.813 90.85 250.12 91.03C250.426 91.21 250.773 91.3 251.16 91.3C251.833 91.3 252.346 91.02 252.7 90.46C253.06 89.8933 253.24 88.9767 253.24 87.71C253.24 86.8167 253.166 86.1067 253.02 85.58C252.88 85.0467 252.67 84.6667 252.39 84.44C252.11 84.2067 251.766 84.09 251.36 84.09ZM260.582 88.51C260.635 89.17 260.785 89.7067 261.032 90.12C261.285 90.5333 261.609 90.8367 262.002 91.03C262.395 91.2233 262.832 91.32 263.312 91.32C263.819 91.32 264.295 91.24 264.742 91.08C265.189 90.92 265.629 90.6967 266.062 90.41L267.162 91.92C266.669 92.3333 266.079 92.6667 265.392 92.92C264.712 93.1733 263.962 93.3 263.142 93.3C261.995 93.3 261.029 93.0633 260.242 92.59C259.462 92.1167 258.872 91.46 258.472 90.62C258.072 89.78 257.872 88.8133 257.872 87.72C257.872 86.6667 258.069 85.7167 258.462 84.87C258.855 84.0233 259.422 83.3533 260.162 82.86C260.902 82.36 261.795 82.11 262.842 82.11C263.815 82.11 264.655 82.3233 265.362 82.75C266.069 83.1767 266.615 83.79 267.002 84.59C267.389 85.3833 267.582 86.34 267.582 87.46C267.582 87.64 267.575 87.8233 267.562 88.01C267.555 88.1967 267.545 88.3633 267.532 88.51H260.582ZM262.852 83.97C262.212 83.97 261.685 84.2 261.272 84.66C260.865 85.1133 260.625 85.8333 260.552 86.82H265.012C264.999 85.9267 264.812 85.23 264.452 84.73C264.099 84.2233 263.565 83.97 262.852 83.97ZM270.004 93V82.41H272.304L272.494 83.72C272.947 83.1867 273.457 82.7867 274.024 82.52C274.591 82.2467 275.201 82.11 275.854 82.11C276.807 82.11 277.534 82.3867 278.034 82.94C278.534 83.4867 278.784 84.2567 278.784 85.25V93H276.144V86.28C276.144 85.7467 276.111 85.32 276.044 85C275.977 84.6733 275.851 84.44 275.664 84.3C275.477 84.1533 275.207 84.08 274.854 84.08C274.567 84.08 274.291 84.1433 274.024 84.27C273.764 84.3967 273.517 84.5667 273.284 84.78C273.057 84.9933 272.844 85.23 272.644 85.49V93H270.004ZM290.126 90.21C290.126 90.6167 290.186 90.9133 290.306 91.1C290.426 91.28 290.62 91.4167 290.886 91.51L290.316 93.28C289.75 93.22 289.266 93.08 288.866 92.86C288.473 92.6333 288.17 92.2967 287.956 91.85C287.556 92.3367 287.05 92.7 286.436 92.94C285.83 93.18 285.193 93.3 284.526 93.3C283.446 93.3 282.59 92.9933 281.956 92.38C281.323 91.7667 281.006 90.97 281.006 89.99C281.006 88.8633 281.446 87.9967 282.326 87.39C283.213 86.7767 284.466 86.47 286.086 86.47H287.566V85.9C287.566 85.2733 287.373 84.82 286.986 84.54C286.6 84.2533 286.043 84.11 285.316 84.11C284.976 84.11 284.55 84.1567 284.036 84.25C283.53 84.3367 283.006 84.4733 282.466 84.66L281.836 82.85C282.51 82.5967 283.186 82.41 283.866 82.29C284.553 82.17 285.176 82.11 285.736 82.11C287.223 82.11 288.326 82.4267 289.046 83.06C289.766 83.6867 290.126 84.5767 290.126 85.73V90.21ZM285.386 91.39C285.786 91.39 286.19 91.2767 286.596 91.05C287.01 90.8233 287.333 90.5067 287.566 90.1V88.04H286.526C285.546 88.04 284.836 88.1967 284.396 88.51C283.963 88.8233 283.746 89.2667 283.746 89.84C283.746 90.3333 283.886 90.7167 284.166 90.99C284.446 91.2567 284.853 91.39 285.386 91.39ZM297.378 91.35C297.998 91.35 298.495 91.2433 298.868 91.03C299.248 90.81 299.438 90.5033 299.438 90.11C299.438 89.85 299.375 89.63 299.248 89.45C299.128 89.27 298.888 89.1033 298.528 88.95C298.168 88.79 297.628 88.6133 296.908 88.42C296.228 88.2467 295.632 88.0333 295.118 87.78C294.612 87.52 294.215 87.1867 293.928 86.78C293.648 86.3733 293.508 85.86 293.508 85.24C293.508 84.62 293.682 84.0767 294.028 83.61C294.375 83.1367 294.875 82.77 295.528 82.51C296.188 82.2433 296.982 82.11 297.908 82.11C298.815 82.11 299.608 82.23 300.288 82.47C300.968 82.7033 301.552 82.9967 302.038 83.35L300.958 84.96C300.532 84.6867 300.068 84.4667 299.568 84.3C299.075 84.1267 298.542 84.04 297.968 84.04C297.348 84.04 296.895 84.13 296.608 84.31C296.328 84.49 296.188 84.74 296.188 85.06C296.188 85.2867 296.258 85.48 296.398 85.64C296.545 85.7933 296.805 85.9433 297.178 86.09C297.558 86.23 298.098 86.4 298.798 86.6C299.485 86.7867 300.082 87.0067 300.588 87.26C301.102 87.5133 301.498 87.85 301.778 88.27C302.058 88.69 302.198 89.24 302.198 89.92C302.198 90.6867 301.975 91.32 301.528 91.82C301.082 92.32 300.492 92.6933 299.758 92.94C299.032 93.18 298.242 93.3 297.388 93.3C296.388 93.3 295.515 93.1567 294.768 92.87C294.022 92.5833 293.388 92.2133 292.868 91.76L294.238 90.22C294.652 90.5467 295.122 90.8167 295.648 91.03C296.182 91.2433 296.758 91.35 297.378 91.35ZM318.943 88.51C318.996 89.17 319.146 89.7067 319.393 90.12C319.646 90.5333 319.969 90.8367 320.363 91.03C320.756 91.2233 321.193 91.32 321.673 91.32C322.179 91.32 322.656 91.24 323.103 91.08C323.549 90.92 323.989 90.6967 324.423 90.41L325.523 91.92C325.029 92.3333 324.439 92.6667 323.753 92.92C323.073 93.1733 322.323 93.3 321.503 93.3C320.356 93.3 319.389 93.0633 318.603 92.59C317.823 92.1167 317.233 91.46 316.833 90.62C316.433 89.78 316.233 88.8133 316.233 87.72C316.233 86.6667 316.429 85.7167 316.823 84.87C317.216 84.0233 317.783 83.3533 318.523 82.86C319.263 82.36 320.156 82.11 321.203 82.11C322.176 82.11 323.016 82.3233 323.723 82.75C324.429 83.1767 324.976 83.79 325.363 84.59C325.749 85.3833 325.943 86.34 325.943 87.46C325.943 87.64 325.936 87.8233 325.923 88.01C325.916 88.1967 325.906 88.3633 325.893 88.51H318.943ZM321.213 83.97C320.573 83.97 320.046 84.2 319.633 84.66C319.226 85.1133 318.986 85.8333 318.913 86.82H323.373C323.359 85.9267 323.173 85.23 322.813 84.73C322.459 84.2233 321.926 83.97 321.213 83.97ZM335.895 82.11C336.348 82.11 336.735 82.2067 337.055 82.4C337.375 82.5867 337.622 82.9033 337.795 83.35C337.968 83.79 338.055 84.39 338.055 85.15V93H335.755V85.48C335.755 85 335.715 84.66 335.635 84.46C335.562 84.26 335.392 84.16 335.125 84.16C334.905 84.16 334.682 84.2267 334.455 84.36C334.235 84.4867 334.005 84.7167 333.765 85.05V93H331.775V85.48C331.775 85 331.735 84.66 331.655 84.46C331.582 84.26 331.412 84.16 331.145 84.16C330.918 84.16 330.695 84.2267 330.475 84.36C330.255 84.4867 330.025 84.7167 329.785 85.05V93H327.455V82.41H329.425L329.595 83.51C329.908 83.07 330.238 82.7267 330.585 82.48C330.932 82.2333 331.348 82.11 331.835 82.11C332.235 82.11 332.588 82.21 332.895 82.41C333.208 82.6033 333.432 82.9367 333.565 83.41C333.872 83.0233 334.215 82.71 334.595 82.47C334.975 82.23 335.408 82.11 335.895 82.11ZM355.569 78.87C356.563 78.87 357.396 79.0467 358.069 79.4C358.749 79.7533 359.263 80.23 359.609 80.83C359.956 81.4233 360.129 82.0767 360.129 82.79C360.129 83.3767 360.029 83.95 359.829 84.51C359.629 85.07 359.303 85.66 358.849 86.28C358.403 86.9 357.809 87.59 357.069 88.35C356.329 89.1033 355.416 89.9633 354.329 90.93H360.449L360.159 93H351.309V91.07C352.263 90.15 353.086 89.34 353.779 88.64C354.473 87.9333 355.053 87.31 355.519 86.77C355.993 86.23 356.366 85.7467 356.639 85.32C356.919 84.8867 357.119 84.4833 357.239 84.11C357.359 83.7367 357.419 83.3633 357.419 82.99C357.419 82.3567 357.236 81.8567 356.869 81.49C356.509 81.1233 356.003 80.94 355.349 80.94C354.769 80.94 354.276 81.0533 353.869 81.28C353.469 81.5 353.076 81.86 352.689 82.36L351.029 81.1C351.556 80.3933 352.183 79.8467 352.909 79.46C353.636 79.0667 354.523 78.87 355.569 78.87ZM371.872 79.17L371.562 81.11H366.362V84.57C366.728 84.39 367.095 84.2633 367.462 84.19C367.828 84.1167 368.182 84.08 368.522 84.08C369.248 84.08 369.902 84.2567 370.482 84.61C371.068 84.9633 371.528 85.4733 371.862 86.14C372.202 86.8 372.372 87.5933 372.372 88.52C372.372 89.4467 372.155 90.2733 371.722 91C371.295 91.72 370.695 92.2833 369.922 92.69C369.148 93.0967 368.242 93.3 367.202 93.3C366.262 93.3 365.425 93.1267 364.692 92.78C363.965 92.4333 363.342 91.9667 362.822 91.38L364.362 89.95C364.728 90.3767 365.138 90.7 365.592 90.92C366.045 91.1333 366.532 91.24 367.052 91.24C367.845 91.24 368.475 91 368.942 90.52C369.408 90.0333 369.642 89.37 369.642 88.53C369.642 87.8967 369.552 87.3933 369.372 87.02C369.192 86.6467 368.945 86.3767 368.632 86.21C368.318 86.0433 367.958 85.96 367.552 85.96C367.245 85.96 366.942 85.9967 366.642 86.07C366.348 86.1367 366.032 86.2533 365.692 86.42H363.842V79.17H371.872ZM378.864 78.87C379.817 78.87 380.63 79.03 381.304 79.35C381.984 79.6633 382.504 80.0867 382.864 80.62C383.224 81.1533 383.404 81.74 383.404 82.38C383.404 82.9533 383.284 83.4633 383.044 83.91C382.81 84.35 382.484 84.7167 382.064 85.01C381.65 85.3033 381.17 85.52 380.624 85.66C381.23 85.7333 381.774 85.9 382.254 86.16C382.74 86.4133 383.127 86.78 383.414 87.26C383.7 87.7333 383.844 88.34 383.844 89.08C383.844 89.86 383.634 90.57 383.214 91.21C382.794 91.85 382.197 92.36 381.424 92.74C380.657 93.1133 379.747 93.3 378.694 93.3C377.754 93.3 376.884 93.1333 376.084 92.8C375.284 92.46 374.604 91.9633 374.044 91.31L375.594 89.91C375.987 90.37 376.437 90.7067 376.944 90.92C377.457 91.1333 377.99 91.24 378.544 91.24C379.324 91.24 379.947 91.04 380.414 90.64C380.887 90.2333 381.124 89.6633 381.124 88.93C381.124 88.3833 381.02 87.9467 380.814 87.62C380.607 87.2867 380.314 87.0467 379.934 86.9C379.56 86.7467 379.117 86.67 378.604 86.67H377.374L377.684 84.79H378.554C378.974 84.79 379.354 84.7167 379.694 84.57C380.04 84.4233 380.314 84.2 380.514 83.9C380.72 83.6 380.824 83.2233 380.824 82.77C380.824 82.17 380.614 81.7033 380.194 81.37C379.774 81.03 379.247 80.86 378.614 80.86C378.04 80.86 377.53 80.9667 377.084 81.18C376.637 81.3933 376.204 81.6967 375.784 82.09L374.414 80.64C375.027 80.0467 375.704 79.6033 376.444 79.31C377.19 79.0167 377.997 78.87 378.864 78.87ZM391.116 78.87C392.709 78.87 393.913 79.5 394.726 80.76C395.539 82.0133 395.946 83.78 395.946 86.06C395.946 88.3467 395.539 90.1267 394.726 91.4C393.913 92.6667 392.709 93.3 391.116 93.3C389.516 93.3 388.309 92.6667 387.496 91.4C386.689 90.1267 386.286 88.3467 386.286 86.06C386.286 83.78 386.689 82.0133 387.496 80.76C388.309 79.5 389.516 78.87 391.116 78.87ZM391.116 80.83C390.363 80.83 389.793 81.2333 389.406 82.04C389.026 82.84 388.836 84.18 388.836 86.06C388.836 87.1 388.873 87.9633 388.946 88.65C389.026 89.33 389.156 89.8667 389.336 90.26C389.516 90.6533 389.749 90.9333 390.036 91.1C390.329 91.26 390.689 91.34 391.116 91.34C391.623 91.34 392.043 91.17 392.376 90.83C392.716 90.4833 392.969 89.9233 393.136 89.15C393.303 88.37 393.386 87.34 393.386 86.06C393.386 84.7 393.313 83.64 393.166 82.88C393.026 82.12 392.789 81.59 392.456 81.29C392.129 80.9833 391.683 80.83 391.116 80.83ZM392.846 81.28L393.526 82.92L389.586 91L388.776 89.66L392.846 81.28ZM400.718 91.23C400.718 90.8567 400.808 90.5133 400.988 90.2C401.175 89.8867 401.425 89.6367 401.738 89.45C402.051 89.2633 402.398 89.17 402.778 89.17C403.165 89.17 403.515 89.2633 403.828 89.45C404.141 89.6367 404.388 89.8867 404.568 90.2C404.755 90.5133 404.848 90.8567 404.848 91.23C404.848 91.6033 404.755 91.95 404.568 92.27C404.388 92.5833 404.141 92.8333 403.828 93.02C403.515 93.2067 403.165 93.3 402.778 93.3C402.398 93.3 402.051 93.2067 401.738 93.02C401.425 92.8333 401.175 92.5833 400.988 92.27C400.808 91.95 400.718 91.6033 400.718 91.23Z" fill="#FBFFFD"/>
<path d="M718 105.5C717.172 105.5 716.5 106.172 716.5 107C716.5 107.828 717.172 108.5 718 108.5V105.5ZM750.282 108.061C750.868 107.475 750.868 106.525 750.282 105.939L740.736 96.3934C740.15 95.8076 739.201 95.8076 738.615 96.3934C738.029 96.9792 738.029 97.9289 738.615 98.5147L747.1 107L738.615 115.485C738.029 116.071 738.029 117.021 738.615 117.607C739.201 118.192 740.15 118.192 740.736 117.607L750.282 108.061ZM718 108.5H749.221V105.5H718V108.5Z" fill="#57EB23"/>
</svg>
