<?xml version="1.0" encoding="UTF-8"?>
<svg id="Camada_2" data-name="Camada 2" xmlns="http://www.w3.org/2000/svg" viewBox="0 0 628.18 101.48">
  <defs>
    <style>
      .cls-1 {
        fill: #979797;
      }

      .cls-2 {
        fill: #666;
      }

      .cls-3 {
        fill: #b1b1b1;
      }

      .cls-4 {
        fill: #1a1a1a;
      }

      .cls-5 {
        fill: #3a3a3a;
      }
    </style>
  </defs>
  <g id="Camada_1-2" data-name="Camada 1">
    <g>
      <g>
        <rect id="regua_maior" data-name="regua maior" x="24.93" y="34.88" width="589.43" height="13.4"/>
        <g>
          <g>
            <g>
              <rect class="cls-3" x="39.68" y="43.75" width=".41" height="4.53"/>
              <rect class="cls-3" x="37.05" y="43.75" width=".41" height="4.53"/>
              <rect class="cls-3" x="42.53" y="41.58" width=".8" height="6.7"/>
            </g>
            <g>
              <rect class="cls-3" x="47.95" y="43.75" width=".41" height="4.53"/>
              <rect class="cls-3" x="45.33" y="43.75" width=".41" height="4.53"/>
              <rect class="cls-3" x="50.8" y="41.58" width=".8" height="6.7"/>
            </g>
            <g>
              <rect class="cls-3" x="56.58" y="43.75" width=".41" height="4.53"/>
              <rect class="cls-3" x="53.96" y="43.75" width=".41" height="4.53"/>
              <rect class="cls-3" x="59.43" y="41.58" width=".8" height="6.7"/>
            </g>
            <g>
              <rect class="cls-3" x="65.29" y="43.75" width=".41" height="4.53"/>
              <rect class="cls-3" x="62.66" y="43.75" width=".41" height="4.53"/>
              <rect class="cls-3" x="68.14" y="41.58" width=".8" height="6.7"/>
            </g>
            <g>
              <rect class="cls-3" x="73.93" y="43.75" width=".41" height="4.53"/>
              <rect class="cls-3" x="71.3" y="43.75" width=".41" height="4.53"/>
              <rect class="cls-3" x="76.76" y="41.58" width=".8" height="6.7"/>
            </g>
            <g>
              <rect class="cls-3" x="82.7" y="43.75" width=".41" height="4.53"/>
              <rect class="cls-3" x="80.07" y="43.75" width=".41" height="4.53"/>
              <rect class="cls-3" x="85.54" y="41.58" width=".8" height="6.7"/>
            </g>
            <g>
              <rect class="cls-3" x="91.55" y="43.75" width=".41" height="4.53"/>
              <rect class="cls-3" x="88.92" y="43.75" width=".41" height="4.53"/>
              <rect class="cls-3" x="94.39" y="41.58" width=".8" height="6.7"/>
            </g>
            <g>
              <rect class="cls-3" x="100.04" y="43.75" width=".41" height="4.53"/>
              <rect class="cls-3" x="97.41" y="43.75" width=".41" height="4.53"/>
              <rect class="cls-3" x="102.88" y="41.58" width=".8" height="6.7"/>
            </g>
            <g>
              <rect class="cls-3" x="108.17" y="43.75" width=".41" height="4.53"/>
              <rect class="cls-3" x="105.54" y="43.75" width=".41" height="4.53"/>
              <rect class="cls-3" x="111.01" y="41.58" width=".8" height="6.7"/>
            </g>
            <g>
              <rect class="cls-3" x="116.58" y="43.75" width=".41" height="4.53"/>
              <rect class="cls-3" x="113.96" y="43.75" width=".41" height="4.53"/>
              <rect class="cls-3" x="119.42" y="41.58" width=".8" height="6.7"/>
            </g>
            <g>
              <rect class="cls-3" x="125.14" y="43.75" width=".41" height="4.53"/>
              <rect class="cls-3" x="122.52" y="43.75" width=".41" height="4.53"/>
              <rect class="cls-3" x="127.99" y="41.58" width=".8" height="6.7"/>
            </g>
            <g>
              <rect class="cls-3" x="133.99" y="43.75" width=".41" height="4.53"/>
              <rect class="cls-3" x="131.36" y="43.75" width=".41" height="4.53"/>
              <rect class="cls-3" x="136.84" y="41.58" width=".8" height="6.7"/>
            </g>
            <g>
              <rect class="cls-3" x="143.6" y="43.75" width=".41" height="4.53"/>
              <rect class="cls-3" x="140.98" y="43.75" width=".41" height="4.53"/>
              <rect class="cls-3" x="146.45" y="41.58" width=".8" height="6.7"/>
            </g>
          </g>
          <g>
            <g>
              <rect class="cls-3" x="153.01" y="43.63" width=".41" height="4.54"/>
              <rect class="cls-3" x="150.38" y="43.63" width=".41" height="4.54"/>
              <rect class="cls-3" x="155.85" y="41.48" width=".8" height="6.7"/>
            </g>
            <g>
              <rect class="cls-3" x="161.28" y="43.63" width=".41" height="4.54"/>
              <rect class="cls-3" x="158.65" y="43.63" width=".41" height="4.54"/>
              <rect class="cls-3" x="164.12" y="41.48" width=".8" height="6.7"/>
            </g>
            <g>
              <rect class="cls-3" x="169.91" y="43.63" width=".41" height="4.54"/>
              <rect class="cls-3" x="167.29" y="43.63" width=".41" height="4.54"/>
              <rect class="cls-3" x="172.75" y="41.48" width=".8" height="6.7"/>
            </g>
            <g>
              <rect class="cls-3" x="178.62" y="43.63" width=".41" height="4.54"/>
              <rect class="cls-3" x="175.99" y="43.63" width=".41" height="4.54"/>
              <rect class="cls-3" x="181.46" y="41.48" width=".8" height="6.7"/>
            </g>
            <g>
              <rect class="cls-3" x="187.25" y="43.63" width=".41" height="4.54"/>
              <rect class="cls-3" x="184.62" y="43.63" width=".41" height="4.54"/>
              <rect class="cls-3" x="190.09" y="41.48" width=".8" height="6.7"/>
            </g>
            <g>
              <rect class="cls-3" x="196.03" y="43.63" width=".41" height="4.54"/>
              <rect class="cls-3" x="193.4" y="43.63" width=".41" height="4.54"/>
              <rect class="cls-3" x="198.87" y="41.48" width=".8" height="6.7"/>
            </g>
            <g>
              <rect class="cls-3" x="204.87" y="43.63" width=".41" height="4.54"/>
              <rect class="cls-3" x="202.25" y="43.63" width=".41" height="4.54"/>
              <rect class="cls-3" x="207.72" y="41.48" width=".8" height="6.7"/>
            </g>
            <g>
              <rect class="cls-3" x="213.36" y="43.63" width=".41" height="4.54"/>
              <rect class="cls-3" x="210.74" y="43.63" width=".41" height="4.54"/>
              <rect class="cls-3" x="216.21" y="41.48" width=".8" height="6.7"/>
            </g>
            <g>
              <rect class="cls-3" x="221.49" y="43.63" width=".41" height="4.54"/>
              <rect class="cls-3" x="218.86" y="43.63" width=".41" height="4.54"/>
              <rect class="cls-3" x="224.34" y="41.48" width=".8" height="6.7"/>
            </g>
            <g>
              <rect class="cls-3" x="229.91" y="43.63" width=".41" height="4.54"/>
              <rect class="cls-3" x="227.28" y="43.63" width=".41" height="4.54"/>
              <rect class="cls-3" x="232.75" y="41.48" width=".8" height="6.7"/>
            </g>
            <g>
              <rect class="cls-3" x="238.47" y="43.63" width=".41" height="4.54"/>
              <rect class="cls-3" x="235.84" y="43.63" width=".41" height="4.54"/>
              <rect class="cls-3" x="241.31" y="41.48" width=".8" height="6.7"/>
            </g>
            <g>
              <rect class="cls-3" x="247.32" y="43.63" width=".41" height="4.54"/>
              <rect class="cls-3" x="244.69" y="43.63" width=".41" height="4.54"/>
              <rect class="cls-3" x="250.16" y="41.48" width=".8" height="6.7"/>
            </g>
            <g>
              <rect class="cls-3" x="256.93" y="43.63" width=".41" height="4.54"/>
              <rect class="cls-3" x="254.3" y="43.63" width=".41" height="4.54"/>
              <rect class="cls-3" x="259.77" y="41.48" width=".8" height="6.7"/>
            </g>
          </g>
          <g>
            <g>
              <rect class="cls-3" x="266.72" y="43.69" width=".41" height="4.54"/>
              <rect class="cls-3" x="264.09" y="43.69" width=".41" height="4.54"/>
              <rect class="cls-3" x="269.56" y="41.53" width=".8" height="6.7"/>
            </g>
            <g>
              <rect class="cls-3" x="274.99" y="43.69" width=".41" height="4.54"/>
              <rect class="cls-3" x="272.36" y="43.69" width=".41" height="4.54"/>
              <rect class="cls-3" x="277.84" y="41.53" width=".8" height="6.7"/>
            </g>
            <g>
              <rect class="cls-3" x="283.63" y="43.69" width=".41" height="4.54"/>
              <rect class="cls-3" x="281" y="43.69" width=".41" height="4.54"/>
              <rect class="cls-3" x="286.46" y="41.53" width=".8" height="6.7"/>
            </g>
            <g>
              <rect class="cls-3" x="292.33" y="43.69" width=".41" height="4.54"/>
              <rect class="cls-3" x="289.7" y="43.69" width=".41" height="4.54"/>
              <rect class="cls-3" x="295.17" y="41.53" width=".8" height="6.7"/>
            </g>
            <g>
              <rect class="cls-3" x="300.96" y="43.69" width=".41" height="4.54"/>
              <rect class="cls-3" x="298.34" y="43.69" width=".41" height="4.54"/>
              <rect class="cls-3" x="303.81" y="41.53" width=".8" height="6.7"/>
            </g>
            <g>
              <rect class="cls-3" x="309.74" y="43.69" width=".41" height="4.54"/>
              <rect class="cls-3" x="307.11" y="43.69" width=".41" height="4.54"/>
              <rect class="cls-3" x="312.58" y="41.53" width=".8" height="6.7"/>
            </g>
            <g>
              <rect class="cls-3" x="318.59" y="43.69" width=".41" height="4.54"/>
              <rect class="cls-3" x="315.96" y="43.69" width=".41" height="4.54"/>
              <rect class="cls-3" x="321.43" y="41.53" width=".8" height="6.7"/>
            </g>
            <g>
              <rect class="cls-3" x="327.07" y="43.69" width=".41" height="4.54"/>
              <rect class="cls-3" x="324.45" y="43.69" width=".41" height="4.54"/>
              <rect class="cls-3" x="329.92" y="41.53" width=".8" height="6.7"/>
            </g>
            <g>
              <rect class="cls-3" x="335.2" y="43.69" width=".41" height="4.54"/>
              <rect class="cls-3" x="332.58" y="43.69" width=".41" height="4.54"/>
              <rect class="cls-3" x="338.05" y="41.53" width=".8" height="6.7"/>
            </g>
            <g>
              <rect class="cls-3" x="343.63" y="43.69" width=".39" height="4.54"/>
              <rect class="cls-3" x="341" y="43.69" width=".39" height="4.54"/>
              <rect class="cls-3" x="346.45" y="41.53" width=".81" height="6.7"/>
            </g>
            <g>
              <rect class="cls-3" x="352.18" y="43.69" width=".39" height="4.54"/>
              <rect class="cls-3" x="349.57" y="43.69" width=".39" height="4.54"/>
              <rect class="cls-3" x="355.02" y="41.53" width=".81" height="6.7"/>
            </g>
            <g>
              <rect class="cls-3" x="361.04" y="43.69" width=".39" height="4.54"/>
              <rect class="cls-3" x="358.41" y="43.69" width=".39" height="4.54"/>
              <rect class="cls-3" x="363.87" y="41.53" width=".81" height="6.7"/>
            </g>
            <g>
              <rect class="cls-3" x="370.64" y="43.69" width=".39" height="4.54"/>
              <rect class="cls-3" x="368.03" y="43.69" width=".39" height="4.54"/>
              <rect class="cls-3" x="373.48" y="41.53" width=".81" height="6.7"/>
            </g>
          </g>
          <g>
            <g>
              <rect class="cls-3" x="380.05" y="43.58" width=".39" height="4.54"/>
              <rect class="cls-3" x="377.43" y="43.58" width=".39" height="4.54"/>
              <rect class="cls-3" x="382.89" y="41.42" width=".81" height="6.7"/>
            </g>
            <g>
              <rect class="cls-3" x="388.33" y="43.58" width=".39" height="4.54"/>
              <rect class="cls-3" x="385.7" y="43.58" width=".39" height="4.54"/>
              <rect class="cls-3" x="391.15" y="41.42" width=".81" height="6.7"/>
            </g>
            <g>
              <rect class="cls-3" x="396.95" y="43.58" width=".39" height="4.54"/>
              <rect class="cls-3" x="394.33" y="43.58" width=".39" height="4.54"/>
              <rect class="cls-3" x="399.79" y="41.42" width=".81" height="6.7"/>
            </g>
            <g>
              <rect class="cls-3" x="405.66" y="43.58" width=".39" height="4.54"/>
              <rect class="cls-3" x="403.03" y="43.58" width=".39" height="4.54"/>
              <rect class="cls-3" x="408.49" y="41.42" width=".81" height="6.7"/>
            </g>
            <g>
              <rect class="cls-3" x="414.3" y="43.58" width=".39" height="4.54"/>
              <rect class="cls-3" x="411.67" y="43.58" width=".39" height="4.54"/>
              <rect class="cls-3" x="417.12" y="41.42" width=".81" height="6.7"/>
            </g>
            <g>
              <rect class="cls-3" x="423.08" y="43.58" width=".39" height="4.54"/>
              <rect class="cls-3" x="420.45" y="43.58" width=".39" height="4.54"/>
              <rect class="cls-3" x="425.9" y="41.42" width=".81" height="6.7"/>
            </g>
            <g>
              <rect class="cls-3" x="431.92" y="43.58" width=".39" height="4.54"/>
              <rect class="cls-3" x="429.29" y="43.58" width=".39" height="4.54"/>
              <rect class="cls-3" x="434.74" y="41.42" width=".81" height="6.7"/>
            </g>
            <g>
              <rect class="cls-3" x="440.41" y="43.58" width=".39" height="4.54"/>
              <rect class="cls-3" x="437.78" y="43.58" width=".39" height="4.54"/>
              <rect class="cls-3" x="443.23" y="41.42" width=".81" height="6.7"/>
            </g>
            <g>
              <rect class="cls-3" x="448.53" y="43.58" width=".39" height="4.54"/>
              <rect class="cls-3" x="445.9" y="43.58" width=".39" height="4.54"/>
              <rect class="cls-3" x="451.37" y="41.42" width=".81" height="6.7"/>
            </g>
            <g>
              <rect class="cls-3" x="456.96" y="43.58" width=".39" height="4.54"/>
              <rect class="cls-3" x="454.33" y="43.58" width=".39" height="4.54"/>
              <rect class="cls-3" x="459.78" y="41.42" width=".81" height="6.7"/>
            </g>
            <g>
              <rect class="cls-3" x="465.51" y="43.58" width=".39" height="4.54"/>
              <rect class="cls-3" x="462.88" y="43.58" width=".39" height="4.54"/>
              <rect class="cls-3" x="468.34" y="41.42" width=".81" height="6.7"/>
            </g>
            <g>
              <rect class="cls-3" x="474.36" y="43.58" width=".39" height="4.54"/>
              <rect class="cls-3" x="471.74" y="43.58" width=".39" height="4.54"/>
              <rect class="cls-3" x="477.2" y="41.42" width=".81" height="6.7"/>
            </g>
            <g>
              <rect class="cls-3" x="483.97" y="43.58" width=".39" height="4.54"/>
              <rect class="cls-3" x="481.34" y="43.58" width=".39" height="4.54"/>
              <rect class="cls-3" x="486.8" y="41.42" width=".81" height="6.7"/>
            </g>
          </g>
          <g>
            <g>
              <rect class="cls-3" x="492.33" y="43.58" width=".39" height="4.54"/>
              <rect class="cls-3" x="489.72" y="43.58" width=".39" height="4.54"/>
              <rect class="cls-3" x="495.17" y="41.42" width=".81" height="6.7"/>
            </g>
            <g>
              <rect class="cls-3" x="500.61" y="43.58" width=".39" height="4.54"/>
              <rect class="cls-3" x="497.98" y="43.58" width=".39" height="4.54"/>
              <rect class="cls-3" x="503.44" y="41.42" width=".81" height="6.7"/>
            </g>
            <g>
              <rect class="cls-3" x="509.25" y="43.58" width=".39" height="4.54"/>
              <rect class="cls-3" x="506.62" y="43.58" width=".39" height="4.54"/>
              <rect class="cls-3" x="512.07" y="41.42" width=".81" height="6.7"/>
            </g>
            <g>
              <rect class="cls-3" x="517.95" y="43.58" width=".39" height="4.54"/>
              <rect class="cls-3" x="515.32" y="43.58" width=".39" height="4.54"/>
              <rect class="cls-3" x="520.77" y="41.42" width=".81" height="6.7"/>
            </g>
            <g>
              <rect class="cls-3" x="526.58" y="43.58" width=".39" height="4.54"/>
              <rect class="cls-3" x="523.95" y="43.58" width=".39" height="4.54"/>
              <rect class="cls-3" x="529.41" y="41.42" width=".81" height="6.7"/>
            </g>
            <g>
              <rect class="cls-3" x="535.36" y="43.58" width=".39" height="4.54"/>
              <rect class="cls-3" x="532.73" y="43.58" width=".39" height="4.54"/>
              <rect class="cls-3" x="538.19" y="41.42" width=".81" height="6.7"/>
            </g>
            <g>
              <rect class="cls-3" x="544.2" y="43.58" width=".39" height="4.54"/>
              <rect class="cls-3" x="541.57" y="43.58" width=".39" height="4.54"/>
              <rect class="cls-3" x="547.03" y="41.42" width=".81" height="6.7"/>
            </g>
            <g>
              <rect class="cls-3" x="552.69" y="43.58" width=".39" height="4.54"/>
              <rect class="cls-3" x="550.06" y="43.58" width=".39" height="4.54"/>
              <rect class="cls-3" x="555.52" y="41.42" width=".81" height="6.7"/>
            </g>
            <g>
              <rect class="cls-3" x="560.82" y="43.58" width=".39" height="4.54"/>
              <rect class="cls-3" x="558.2" y="43.58" width=".39" height="4.54"/>
              <rect class="cls-3" x="563.66" y="41.42" width=".81" height="6.7"/>
            </g>
            <g>
              <rect class="cls-3" x="569.24" y="43.58" width=".39" height="4.54"/>
              <rect class="cls-3" x="566.61" y="43.58" width=".39" height="4.54"/>
              <rect class="cls-3" x="572.07" y="41.42" width=".81" height="6.7"/>
            </g>
            <g>
              <rect class="cls-3" x="577.8" y="43.58" width=".39" height="4.54"/>
              <rect class="cls-3" x="575.17" y="43.58" width=".39" height="4.54"/>
              <rect class="cls-3" x="580.62" y="41.42" width=".81" height="6.7"/>
            </g>
            <g>
              <rect class="cls-3" x="586.64" y="43.58" width=".39" height="4.54"/>
              <rect class="cls-3" x="584.03" y="43.58" width=".39" height="4.54"/>
              <rect class="cls-3" x="589.48" y="41.42" width=".81" height="6.7"/>
            </g>
            <g>
              <rect class="cls-3" x="596.26" y="43.58" width=".39" height="4.54"/>
              <rect class="cls-3" x="593.63" y="43.58" width=".39" height="4.54"/>
              <rect class="cls-3" x="599.08" y="41.42" width=".81" height="6.7"/>
            </g>
          </g>
        </g>
        <path class="cls-1" d="m29.15,34.88h585.21v-14.45h-120.15c-1.57-6.55-6.73-11.46-12.85-12.34-7.5-1.07-15.22,4.09-17.38,12.34H188.75c-.93-6.87-6.63-12.08-13.3-12.34-7.06-.27-13.39,5.06-14.38,12.34H29.15v14.45Z"/>
        <path class="cls-1" d="m29.15,0c-.48.12-7.48,2.01-9.58,9.31-2.13,7.41,1.52,17.83,9.58,21.81C29.15,31.12,29.15,0,29.15,0Z"/>
      </g>
      <g>
        <ellipse class="cls-5" cx="14.95" cy="67.79" rx="14.95" ry="19.51"/>
        <path class="cls-4" d="m10.92,48.28h602.22c1.38.55,11.21,4.28,14.01,13.4,2.92,9.5,0,26.79-13.51,26.79H10.92c11.01-5.61,16.28-17.24,13.38-26.79-2.79-9.19-13.38-13.4-13.38-13.4Z"/>
      </g>
      <g>
        <path class="cls-2" d="m343.81,56.37h6.29c-.29.27-2.79,2.71-2.36,6.29.31,2.51,1.88,4.06,2.36,4.49h78.35c7.5,5.35,11.12,11.03,9.67,13.69-1.41,2.61-7.46,1.98-9,1.8v7.18l-65.11-8.55.67,17.98c-.17.21-2.03,2.42-5.01,2.22-2.5-.17-3.96-1.92-4.2-2.22.07-5.99.15-11.98.22-17.98-6.33,1.5-12.85-1.41-15.84-6.95-3.22-5.97-1.6-13.64,3.94-17.96h.02Z"/>
        <path id="regua_menor" data-name="regua menor" class="cls-2" d="m223.83,66.59c30,0,60,.02,90,.02.62,1.05,1.63,2.4,1.81,5.17.23,3.71-1.18,4.59-1.81,5.64h-14.61v20.06c-.82,1.37-2.32,2.11-3.78,1.87-1.66-.27-2.49-1.68-2.59-1.87-.31-6.69-.62-13.38-.93-20.06h-67.82c-2.41-1.42-3.72-4.05-3.3-6.56.45-2.69,2.67-4.07,3.02-4.29v.02Z"/>
      </g>
    </g>
  </g>
</svg>