<svg width="98" height="169" viewBox="0 0 98 169" fill="none" xmlns="http://www.w3.org/2000/svg">
<rect width="98" height="169" fill="#AEACAC"/>
<rect x="11" y="11" width="76" height="98" fill="#E4E4E4"/>
<rect x="13" y="121" width="30" height="29" fill="#342A2A"/>
<rect x="55" y="121" width="30" height="29" fill="#342A2A"/>
<circle cx="48.5" cy="51.5" r="12.5" fill="black"/>
<path d="M25.9019 125.5C27.0566 123.5 29.9434 123.5 31.0981 125.5L40.1913 141.25C41.346 143.25 39.9027 145.75 37.5933 145.75H19.4067C17.0973 145.75 15.654 143.25 16.8087 141.25L25.9019 125.5Z" fill="#9747FF"/>
<path d="M67.9019 125.5C69.0566 123.5 71.9434 123.5 73.0981 125.5L82.1913 141.25C83.346 143.25 81.9027 145.75 79.5933 145.75H61.4067C59.0973 145.75 57.654 143.25 58.8087 141.25L67.9019 125.5Z" fill="#9747FF"/>
</svg>
