<svg width="405" height="219" viewBox="0 0 405 219" fill="none" xmlns="http://www.w3.org/2000/svg">
<g clip-path="url(#clip0_312_447)">
<path d="M17.2524 71.292C29.9086 66.7518 42.5649 62.7684 55.1782 58.2282L104.516 53.8165C100.269 55.9581 95.335 58.0997 89.7577 60.0272C87.6554 60.7553 82.2068 62.5971 70.7089 64.9528C67.7916 65.5525 58.1814 67.5228 44.0236 69.3217C36.9446 70.2212 27.8922 70.6067 17.2095 71.292H17.2524Z" fill="#42210B" stroke="black" stroke-width="0.05" stroke-miterlimit="10"/>
<path d="M396.554 73.1337L360.516 59.9843H330.141C337.691 63.7535 347.859 67.9511 360.301 70.7351C374.759 73.9904 387.33 73.6477 396.597 73.1337H396.554Z" fill="#42210B" stroke="black" stroke-width="0.05" stroke-miterlimit="10"/>
<path d="M82.0352 211.909C82.0352 212.381 82.2497 216.064 80.8768 217.563C78.8175 219.833 75.4711 219.277 75.0421 219.234C54.2343 219.405 25.2751 218.334 4.03835 218.463C2.96578 218.463 1.97902 217.906 1.5071 216.921C-0.595128 212.552 4.51027 205.999 4.63898 205.827C5.28252 205.87 5.84025 210.025 6.48379 210.068C32.6543 212.124 82.0352 211.909 82.0352 211.909Z" fill="#603813" stroke="black" stroke-width="0.1" stroke-miterlimit="10"/>
<path d="M88.1272 204.928C88.1272 205.399 87.5695 207.583 85.8105 209.768C84.3947 211.567 80.8338 211.61 80.4048 211.567C59.5112 211.738 28.6214 210.582 7.38464 210.71C6.6982 210.71 6.01176 210.453 5.62564 209.896C2.57956 205.527 7.89947 198.717 8.02818 198.503C8.67172 198.546 8.3285 202.187 8.97204 202.229C35.1426 204.328 61.9567 202.829 88.1272 204.928Z" fill="#603813" stroke="black" stroke-width="0.1" stroke-miterlimit="10"/>
<path d="M329.926 210.839C329.926 211.31 329.755 214.993 330.999 216.492C332.887 218.763 336.018 218.206 336.447 218.163C355.839 218.334 382.868 217.263 402.646 217.392C403.633 217.392 404.577 216.835 405.006 215.85C406.979 211.481 402.217 204.928 402.088 204.756C401.488 204.799 400.973 208.954 400.372 208.997C375.961 211.053 329.926 210.839 329.926 210.839Z" fill="#603813" stroke="black" stroke-width="0.15" stroke-miterlimit="10"/>
<path d="M324.22 203.857C324.22 204.328 324.735 206.513 326.365 208.697C327.695 210.496 330.999 210.539 331.428 210.496C350.906 210.667 379.736 209.511 399.514 209.639C400.158 209.639 400.801 209.382 401.144 208.826C403.976 204.457 398.742 197.646 398.613 197.432C398.013 197.475 397.97 201.116 397.369 201.159C372.957 203.257 348.589 201.758 324.177 203.857H324.22Z" fill="#603813" stroke="black" stroke-width="0.15" stroke-miterlimit="10"/>
<path d="M17.2524 71.8488C17.3811 76.1748 17.5527 82.514 17.6385 90.2237C17.853 110.826 17.9388 121.32 16.0511 130.186C14.6353 136.868 11.6751 146.591 4.72485 157.727C5.96903 171.733 7.47062 187.709 8.71479 201.844C8.80059 202.658 9.44413 203.3 10.3022 203.343C36.344 204.885 62.1285 203.215 88.1703 204.842C88.5993 204.071 89.9722 202.272 92.6751 201.501C95.6782 200.645 98.3811 200.388 99.2392 200.516C169.299 199.531 241.161 200.602 311.221 199.617C312.465 199.445 317.913 199.274 320.273 199.617C322.032 199.874 323.362 201.887 324.263 202.958C349.533 202.272 372.142 201.844 397.412 201.201L404.233 158.241C402.303 155.671 399.428 151.431 397.197 145.734C392.564 134.127 393.722 124.832 395.267 99.1328C395.61 93.6503 396.125 84.8269 396.64 73.6906C390.462 73.6906 382.053 73.3051 372.185 71.8488C360.473 70.0927 340.652 65.8951 316.069 53.3025C277.37 33.4713 280.459 19.2083 253.388 8.71443C217.95 -5.03464 184.015 3.48892 178.523 4.94521C135.32 16.3814 126.525 51.8034 84.3949 62.0403C67.3197 66.195 47.0268 68.9362 47.0268 68.9362C34.8424 70.6067 24.6316 71.4205 17.424 71.8488H17.2524Z" fill="#603813" stroke="black" stroke-width="0.25" stroke-miterlimit="10"/>
<path d="M125.281 99.9894L125.71 120.806C125.71 120.806 128.627 122.99 130.901 120.549L130.172 100.032C130.172 99.4326 127.126 97.548 125.281 100.032V99.9894Z" fill="#666666" stroke="#1A1A1A" stroke-width="0.08" stroke-miterlimit="10"/>
<path d="M127.726 101.617C129.077 101.617 130.172 100.965 130.172 100.161C130.172 99.3565 129.077 98.7045 127.726 98.7045C126.376 98.7045 125.281 99.3565 125.281 100.161C125.281 100.965 126.376 101.617 127.726 101.617Z" fill="#1A1A1A"/>
<path d="M125.281 106.543C125.281 106.543 127.855 108.641 130.386 106.543" stroke="#1A1A1A" stroke-width="0.05" stroke-miterlimit="10"/>
<path d="M125.538 112.411C125.538 112.411 127.855 114.424 130.515 112.368" stroke="#1A1A1A" stroke-width="0.05" stroke-miterlimit="10"/>
<path d="M17.2524 71.806C24.7604 115.623 32.3112 159.483 39.8192 203.3L88.1704 204.928C82.593 158.798 76.3721 111.383 70.7948 65.2527C61.0988 67.4371 50.2016 69.3646 38.2318 70.5639C30.8525 71.292 23.8165 71.6775 17.2524 71.806Z" fill="#42210B" stroke="black" stroke-width="0.05" stroke-miterlimit="10"/>
<path d="M210.657 187.024C254.302 187.024 289.684 151.701 289.684 108.127C289.684 64.554 254.302 29.2308 210.657 29.2308C167.012 29.2308 131.631 64.554 131.631 108.127C131.631 151.701 167.012 187.024 210.657 187.024Z" fill="#2B140A" stroke="#2B140A" stroke-width="0.75" stroke-miterlimit="10"/>
<path d="M347.001 66.9659L326.065 202.315L373.944 201.373L396.554 74.5472C389.432 74.5472 381.195 74.076 372.099 72.7054C362.489 71.2491 354.08 69.1504 347.001 66.9231V66.9659Z" fill="#42210B" stroke="black" stroke-width="0.05" stroke-miterlimit="10"/>
<path d="M210.803 187.324C254.447 187.324 289.828 152.001 289.828 108.429C289.828 64.8561 254.447 29.5336 210.803 29.5336C167.159 29.5336 131.778 64.8561 131.778 108.429C131.778 152.001 167.159 187.324 210.803 187.324Z" fill="#391E00" stroke="#2B140A" stroke-width="0.75" stroke-miterlimit="10"/>
<path d="M151.813 159.055C156.446 163.938 176.353 183.897 207.843 185.353C244.18 187.024 267.734 162.867 271.552 158.798C236.973 159.697 186.349 158.155 151.813 159.055Z" fill="#2B140A"/>
<path d="M201.889 187.327C240.61 187.327 272 152.003 272 108.43C272 64.8568 240.61 29.5336 201.889 29.5336C163.168 29.5336 131.778 64.8568 131.778 108.43C131.778 152.003 163.168 187.327 201.889 187.327Z" fill="#C8C8BF" stroke="#2B140A" stroke-width="0.75" stroke-miterlimit="10"/>
<path d="M201.889 187.327C240.61 187.327 272 152.003 272 108.43C272 64.8568 240.61 29.5336 201.889 29.5336C163.168 29.5336 131.778 64.8568 131.778 108.43C131.778 152.003 163.168 187.327 201.889 187.327Z" fill="#C8C8BF" stroke="#2B140A" stroke-width="0.75" stroke-miterlimit="10"/>
<path d="M201.661 53.991C228 53.991 249.467 78.1054 249.467 107.788C249.467 137.471 228.038 161.585 201.661 161.585C175.283 161.585 153.854 137.471 153.854 107.788C153.854 78.1054 175.283 53.991 201.661 53.991ZM201.661 52.9202C174.75 52.9202 152.903 77.4629 152.903 107.788C152.903 138.113 174.712 162.656 201.661 162.656C228.609 162.656 250.419 138.113 250.419 107.788C250.419 77.4629 228.609 52.9202 201.661 52.9202Z" fill="#42210B"/>
<path d="M201.794 48.7012C201.794 48.8154 201.654 48.8725 201.375 48.8725H201.147C201.147 48.8725 200.905 48.8725 200.423 48.8725C199.941 48.8582 199.453 48.8511 198.958 48.8511C198.082 48.8511 197.524 48.8582 197.283 48.8725C197.042 48.8868 196.852 48.8939 196.712 48.8939C196.408 48.8939 196.255 48.8297 196.255 48.7012C196.255 48.5727 196.344 48.5084 196.522 48.5084C196.801 48.5084 197.099 48.5013 197.416 48.487C197.81 48.4727 198.019 48.3657 198.044 48.1658C198.082 47.9516 198.102 47.5019 198.102 46.8166V36.7511C198.102 36.2942 198.089 36.0229 198.063 35.9372C198.038 35.8516 197.949 35.8088 197.797 35.8088C197.734 35.8088 197.321 35.8444 196.56 35.9158C196.408 35.9301 196.306 35.9372 196.255 35.9372C196.103 35.9372 196.027 35.8873 196.027 35.7873C196.027 35.6731 196.103 35.6089 196.255 35.5946C196.852 35.5232 197.454 35.3233 198.063 34.9949C198.672 34.6523 199.161 34.2525 199.529 33.7956C199.668 33.6672 199.764 33.6029 199.814 33.6029C199.916 33.6029 199.967 33.6743 199.967 33.8171V34.224C199.954 34.3382 199.948 34.4667 199.948 34.6095V47.4162C199.948 47.9302 199.967 48.23 200.005 48.3157C200.055 48.4014 200.214 48.4513 200.48 48.4656L200.918 48.487L201.242 48.5084H201.527C201.705 48.5084 201.794 48.5727 201.794 48.7012Z" fill="black"/>
<path d="M236.164 59.6664C236.164 59.7806 236.025 59.8378 235.745 59.8378H235.517C235.517 59.8378 235.276 59.8378 234.794 59.8378C234.312 59.8235 233.823 59.8163 233.328 59.8163C232.453 59.8163 231.895 59.8235 231.654 59.8378C231.413 59.852 231.222 59.8592 231.083 59.8592C230.778 59.8592 230.626 59.7949 230.626 59.6664C230.626 59.5379 230.715 59.4737 230.892 59.4737C231.172 59.4737 231.47 59.4665 231.787 59.4523C232.18 59.438 232.39 59.3309 232.415 59.131C232.453 58.9169 232.472 58.4671 232.472 57.7818V47.7163C232.472 47.2594 232.459 46.9882 232.434 46.9025C232.409 46.8168 232.32 46.774 232.168 46.774C232.104 46.774 231.692 46.8097 230.931 46.8811C230.778 46.8954 230.677 46.9025 230.626 46.9025C230.474 46.9025 230.398 46.8525 230.398 46.7526C230.398 46.6384 230.474 46.5741 230.626 46.5598C231.222 46.4884 231.825 46.2886 232.434 45.9602C233.043 45.6175 233.531 45.2178 233.899 44.7609C234.039 44.6324 234.134 44.5681 234.185 44.5681C234.286 44.5681 234.337 44.6395 234.337 44.7823V45.1892C234.324 45.3034 234.318 45.4319 234.318 45.5747V58.3815C234.318 58.8955 234.337 59.1953 234.375 59.2809C234.426 59.3666 234.585 59.4166 234.851 59.4309L235.289 59.4523L235.612 59.4737H235.898C236.075 59.4737 236.164 59.5379 236.164 59.6664Z" fill="black"/>
<path d="M257.669 77.9339C257.669 77.9768 257.656 78.091 257.631 78.2766C257.567 78.7477 257.466 79.9114 257.326 81.7674L257.307 82.0244C256 81.953 254.509 81.9173 252.835 81.9173C251.934 81.9173 251.09 81.9316 250.304 81.9601C249.517 81.9887 249.174 82.003 249.276 82.003C248.933 82.003 248.762 81.9316 248.762 81.7888C248.762 81.6746 249.092 81.3177 249.752 80.718C251.338 79.2617 252.467 78.0767 253.139 77.163C254.306 75.5782 254.89 73.715 254.89 71.5734C254.89 70.1314 254.624 69.0392 254.091 68.2967C253.685 67.7256 253.114 67.4401 252.378 67.4401C251.655 67.4401 251.084 67.69 250.665 68.1897C250.335 68.5751 250.17 68.9606 250.17 69.3461C250.17 69.5888 250.342 69.7173 250.684 69.7316C251.572 69.7744 252.016 70.2099 252.016 71.038C252.016 71.8232 251.648 72.2159 250.913 72.2159C250.443 72.2159 250.069 72.0517 249.79 71.7233C249.511 71.3949 249.371 70.9452 249.371 70.3741C249.371 69.3176 249.701 68.4681 250.361 67.8256C251.02 67.1831 251.89 66.8619 252.968 66.8619C254.046 66.8619 254.941 67.2474 255.651 68.0183C256.476 68.9178 256.888 70.0885 256.888 71.5306C256.888 73.1153 256.419 74.5788 255.48 75.9208C254.541 77.2486 252.962 78.6978 250.741 80.2683C251.579 80.2397 252.632 80.2255 253.9 80.2255C254.954 80.2255 255.62 80.2112 255.899 80.1826C256.178 80.1398 256.425 80.047 256.641 79.9042C256.819 79.7757 256.971 79.2974 257.098 78.4693C257.187 77.8982 257.313 77.6127 257.478 77.6127C257.605 77.6127 257.669 77.7198 257.669 77.9339Z" fill="black"/>
<path d="M265.403 107.778C265.403 109.081 264.936 110.196 264.001 111.123C262.968 112.144 261.649 112.654 260.044 112.654C258.732 112.654 257.769 112.308 257.155 111.617C256.765 111.178 256.569 110.675 256.569 110.11C256.569 109.623 256.702 109.238 256.967 108.955C257.246 108.657 257.616 108.508 258.076 108.508C258.439 108.508 258.739 108.626 258.977 108.861C259.214 109.097 259.333 109.395 259.333 109.756C259.333 110.306 259.005 110.738 258.349 111.052C258.083 111.178 257.951 111.303 257.951 111.429C257.951 111.633 258.132 111.822 258.495 111.994C258.858 112.151 259.256 112.23 259.688 112.23C260.749 112.23 261.607 111.822 262.263 111.005C262.933 110.188 263.268 109.12 263.268 107.801C263.268 105.147 262.208 103.82 260.086 103.82C259.877 103.82 259.723 103.828 259.626 103.843H259.479C259.298 103.843 259.207 103.773 259.207 103.631C259.207 103.521 259.374 103.435 259.709 103.372C260.686 103.215 261.44 102.815 261.97 102.171C262.501 101.511 262.766 100.671 262.766 99.6502C262.766 98.6451 262.535 97.8441 262.075 97.2473C261.614 96.6348 260.993 96.3286 260.212 96.3286C259.64 96.3286 259.137 96.4699 258.704 96.7526C258.286 97.0196 258.076 97.3337 258.076 97.6949C258.076 97.8362 258.174 97.9305 258.37 97.9776C259.291 98.2289 259.751 98.6608 259.751 99.2733C259.751 100.074 259.381 100.475 258.642 100.475C258.167 100.475 257.783 100.318 257.49 100.004C257.211 99.6894 257.072 99.2733 257.072 98.755C257.072 97.9069 257.393 97.2002 258.035 96.6348C258.691 96.0537 259.598 95.7632 260.756 95.7632C262.082 95.7632 263.094 96.1479 263.792 96.9175C264.489 97.687 264.838 98.5822 264.838 99.6031C264.838 101.017 264.245 102.061 263.059 102.736C262.64 102.972 261.963 103.168 261.028 103.325V103.49C262.187 103.537 263.122 103.828 263.833 104.362C264.88 105.147 265.403 106.286 265.403 107.778Z" fill="black"/>
<path d="M257.637 140.019C257.637 140.176 257.567 140.255 257.428 140.255C257.302 140.255 257.218 140.168 257.176 139.996C257.149 139.807 257.1 139.312 257.03 138.511C257.002 138.386 256.946 138.292 256.862 138.229C256.695 138.119 256.325 138.064 255.753 138.064C255.599 138.064 255.453 138.072 255.313 138.087L255.334 141.786C255.404 141.974 255.516 142.092 255.669 142.139C255.837 142.186 256.234 142.21 256.862 142.21C257.169 142.21 257.351 142.241 257.407 142.304C257.421 142.336 257.428 142.383 257.428 142.445C257.428 142.555 257.149 142.61 256.59 142.61C256.032 142.61 254.469 142.626 251.901 142.658C251.761 142.673 251.608 142.681 251.44 142.681C251.161 142.681 251.022 142.603 251.022 142.445C251.022 142.288 251.224 142.218 251.629 142.233C252.103 142.249 252.536 142.218 252.927 142.139C253.094 142.108 253.199 142.029 253.241 141.904C253.283 141.762 253.304 141.464 253.304 141.008V138.158C253.024 138.142 252.703 138.134 252.341 138.134H251.482C251.287 138.134 251.071 138.142 250.833 138.158C250.624 138.158 250.491 138.158 250.436 138.158L247.777 138.087C247.582 138.072 247.484 138.009 247.484 137.899C247.484 137.82 248.51 136.195 250.561 133.022C251.203 132.002 252.62 129.756 254.811 126.285C254.909 126.128 255.006 126.049 255.104 126.049C255.244 126.049 255.313 126.199 255.313 126.497V137.569H255.523C255.997 137.569 256.367 137.538 256.632 137.475C256.911 137.412 257.051 137.255 257.051 137.004C257.037 136.014 257.03 135.677 257.03 135.991C257.044 135.425 257.121 135.143 257.26 135.143C257.456 135.143 257.553 135.363 257.553 135.802V136.862L257.574 138.558C257.588 139.14 257.602 139.509 257.616 139.666C257.63 139.807 257.637 139.925 257.637 140.019ZM253.429 129.512C253.29 129.764 252.997 130.243 252.55 130.949C251.936 131.907 251.008 133.337 249.766 135.237L248.279 137.522C248.796 137.569 249.905 137.593 251.608 137.593C252.208 137.593 252.773 137.585 253.304 137.569V135.896C253.304 135.111 253.325 134.051 253.366 132.716C253.408 131.146 253.429 130.078 253.429 129.512Z" fill="black"/>
<path d="M237.629 167.346C237.629 169.173 237.007 170.573 235.764 171.544C235.016 172.129 234.045 172.422 232.852 172.422C231.66 172.422 230.784 172.072 230.226 171.372C229.921 170.987 229.769 170.53 229.769 170.002C229.769 169.559 229.896 169.202 230.15 168.931C230.404 168.645 230.733 168.502 231.139 168.502C231.469 168.502 231.742 168.61 231.958 168.824C232.186 169.038 232.3 169.302 232.3 169.616C232.3 170.144 231.99 170.544 231.368 170.815C231.089 170.93 230.949 171.058 230.949 171.201C230.949 171.429 231.133 171.636 231.501 171.822C231.882 171.993 232.3 172.079 232.757 172.079C233.645 172.079 234.311 171.736 234.755 171.051C235.364 170.109 235.669 168.838 235.669 167.239C235.669 166.068 235.428 165.162 234.946 164.519C234.464 163.877 233.778 163.555 232.89 163.555C232.205 163.555 231.45 163.848 230.626 164.433C230.702 161.221 230.759 159.194 230.797 158.351C230.81 157.866 230.905 157.573 231.082 157.473C231.26 157.359 231.742 157.302 232.529 157.302C232.656 157.302 232.871 157.302 233.176 157.302C233.48 157.316 233.721 157.323 233.899 157.323H234.546C235.422 157.323 235.929 157.309 236.069 157.28C236.221 157.238 236.316 157.116 236.354 156.916C236.405 156.588 236.494 156.424 236.62 156.424C236.747 156.424 236.811 156.502 236.811 156.659C236.811 156.759 236.804 156.838 236.792 156.895L236.754 157.388C236.69 158.187 236.557 158.687 236.354 158.887C236.164 159.072 235.688 159.165 234.927 159.165L231.292 159.144C231.241 159.629 231.197 161.093 231.159 163.534C231.882 163.163 232.637 162.977 233.423 162.977C234.73 162.977 235.758 163.37 236.506 164.155C237.255 164.926 237.629 165.99 237.629 167.346Z" fill="black"/>
<path d="M206.742 177.497C206.742 178.882 206.367 180.067 205.619 181.052C204.87 182.037 203.976 182.53 202.935 182.53C201.629 182.53 200.569 181.923 199.757 180.71C198.945 179.496 198.539 177.918 198.539 175.977C198.539 174.192 198.882 172.564 199.567 171.094C200.265 169.623 201.191 168.552 202.345 167.881C203.31 167.325 204.363 167.046 205.505 167.046C205.771 167.046 205.904 167.103 205.904 167.217C205.904 167.317 205.815 167.374 205.638 167.389C204.496 167.503 203.487 167.967 202.612 168.781C201.47 169.837 200.798 171.636 200.595 174.178C201.292 173.435 202.079 173.064 202.954 173.064C203.665 173.064 204.331 173.278 204.953 173.706C206.145 174.52 206.742 175.784 206.742 177.497ZM204.781 177.561C204.781 174.906 204.052 173.578 202.593 173.578C201.933 173.578 201.426 173.899 201.07 174.542C200.715 175.17 200.537 176.055 200.537 177.197C200.537 178.839 200.798 180.167 201.318 181.181C201.648 181.823 202.13 182.144 202.764 182.144C204.109 182.144 204.781 180.617 204.781 177.561Z" fill="black"/>
<path d="M175.188 158.394C175.188 158.48 174.452 159.815 172.98 162.399C172.156 163.855 171.591 164.997 171.287 165.825C170.982 166.639 170.83 167.453 170.83 168.267C170.83 168.681 170.919 169.495 171.096 170.708C171.16 171.136 171.191 171.501 171.191 171.8C171.191 172.814 170.855 173.321 170.183 173.321C169.383 173.321 168.984 172.543 168.984 170.987C168.984 169.545 169.574 167.646 170.754 165.29C171.502 163.805 172.473 162.077 173.665 160.107H170.773C169.276 160.107 168.413 160.114 168.184 160.129C167.905 160.143 167.709 160.193 167.594 160.279C167.493 160.364 167.417 160.486 167.366 160.643C167.328 160.785 167.227 161.285 167.062 162.142C167.011 162.313 166.935 162.399 166.833 162.399C166.706 162.399 166.643 162.313 166.643 162.142C166.643 161.97 166.675 161.692 166.738 161.307C166.878 160.436 166.966 159.693 167.005 159.079C167.03 158.637 167.112 158.33 167.252 158.158C167.341 158.158 167.601 158.173 168.032 158.201C168.996 158.258 169.694 158.287 170.126 158.287L174.065 158.244C174.167 158.244 174.274 158.237 174.389 158.223C174.49 158.223 174.554 158.223 174.579 158.223C174.985 158.223 175.188 158.28 175.188 158.394Z" fill="black"/>
<path d="M154.995 143.51C154.995 144.938 154.469 146.087 153.416 146.958C152.705 147.543 151.823 147.836 150.77 147.836C149.641 147.836 148.69 147.551 147.916 146.979C146.863 146.208 146.336 145.123 146.336 143.724C146.336 141.597 147.357 140.248 149.4 139.677V139.569C148.626 139.327 148.017 138.92 147.573 138.349C147.142 137.763 146.926 137.071 146.926 136.271C146.926 135.158 147.262 134.251 147.935 133.552C148.62 132.838 149.502 132.481 150.58 132.481C151.532 132.481 152.312 132.738 152.921 133.252C153.809 133.994 154.253 134.951 154.253 136.122C154.253 136.964 154.031 137.721 153.587 138.392C153.143 139.048 152.591 139.448 151.931 139.591L151.95 139.677C153.98 140.133 154.995 141.411 154.995 143.51ZM152.369 136.164C152.369 134.894 152.166 133.958 151.76 133.359C151.519 133.002 151.132 132.823 150.599 132.823C149.406 132.823 148.81 133.944 148.81 136.186C148.81 138.37 149.451 139.462 150.732 139.462C151.303 139.462 151.703 139.227 151.931 138.756C152.223 138.142 152.369 137.278 152.369 136.164ZM153.054 143.724C153.054 141.126 152.28 139.826 150.732 139.826C149.958 139.826 149.356 140.162 148.924 140.833C148.493 141.49 148.277 142.404 148.277 143.574C148.277 144.788 148.499 145.744 148.943 146.444C149.4 147.144 150.022 147.493 150.808 147.493C151.481 147.493 151.976 147.279 152.293 146.851C152.8 146.166 153.054 145.123 153.054 143.724Z" fill="black"/>
<path d="M146.977 102.59C146.977 104.648 146.552 106.516 145.7 108.197C144.863 109.862 143.76 111.016 142.393 111.66C141.388 112.131 140.383 112.367 139.378 112.367C139.015 112.367 138.834 112.312 138.834 112.202C138.834 112.107 138.932 112.045 139.127 112.013C141.486 111.668 143.104 110.348 143.984 108.056C144.333 107.129 144.577 105.951 144.716 104.522C143.949 105.339 143.084 105.747 142.121 105.747C141.199 105.747 140.362 105.433 139.608 104.805C138.506 103.894 137.955 102.551 137.955 100.776C137.955 99.2686 138.359 97.9886 139.169 96.9364C139.992 95.8684 140.983 95.3344 142.141 95.3344C143.565 95.3344 144.723 96.0098 145.617 97.3604C146.524 98.711 146.977 100.454 146.977 102.59ZM144.779 101.035C144.779 99.245 144.486 97.8315 143.9 96.795C143.495 96.0883 142.944 95.7349 142.246 95.7349C140.809 95.7349 140.09 97.4311 140.09 100.823C140.09 103.729 140.892 105.182 142.497 105.182C143.209 105.182 143.767 104.82 144.172 104.098C144.577 103.36 144.779 102.339 144.779 101.035Z" fill="black"/>
<path d="M151.588 80.1826C151.588 80.2968 151.449 80.3539 151.17 80.3539H150.941C150.941 80.3539 150.7 80.3539 150.218 80.3539C149.736 80.3397 149.248 80.3325 148.753 80.3325C147.877 80.3325 147.319 80.3397 147.078 80.3539C146.837 80.3682 146.647 80.3753 146.507 80.3753C146.203 80.3753 146.05 80.3111 146.05 80.1826C146.05 80.0541 146.139 79.9899 146.317 79.9899C146.596 79.9899 146.894 79.9827 147.211 79.9684C147.605 79.9542 147.814 79.8471 147.839 79.6472C147.877 79.433 147.896 78.9833 147.896 78.298V68.2325C147.896 67.7756 147.884 67.5043 147.858 67.4187C147.833 67.333 147.744 67.2902 147.592 67.2902C147.528 67.2902 147.116 67.3259 146.355 67.3972C146.203 67.4115 146.101 67.4187 146.05 67.4187C145.898 67.4187 145.822 67.3687 145.822 67.2688C145.822 67.1545 145.898 67.0903 146.05 67.076C146.647 67.0046 147.249 66.8047 147.858 66.4764C148.467 66.1337 148.956 65.7339 149.324 65.2771C149.463 65.1486 149.558 65.0843 149.609 65.0843C149.711 65.0843 149.761 65.1557 149.761 65.2985V65.7054C149.749 65.8196 149.742 65.9481 149.742 66.0909V78.8976C149.742 79.4116 149.761 79.7114 149.8 79.7971C149.85 79.8828 150.009 79.9327 150.275 79.947L150.713 79.9684L151.037 79.9899H151.322C151.5 79.9899 151.588 80.0541 151.588 80.1826Z" fill="black"/>
<path d="M172.028 58.3384C172.028 58.4526 171.889 58.5097 171.61 58.5097H171.381C171.381 58.5097 171.14 58.5097 170.658 58.5097C170.176 58.4954 169.688 58.4883 169.193 58.4883C168.317 58.4883 167.759 58.4954 167.518 58.5097C167.277 58.524 167.087 58.5311 166.947 58.5311C166.643 58.5311 166.49 58.4669 166.49 58.3384C166.49 58.2099 166.579 58.1456 166.757 58.1456C167.036 58.1456 167.334 58.1385 167.651 58.1242C168.045 58.1099 168.254 58.0029 168.279 57.803C168.317 57.5888 168.336 57.1391 168.336 56.4538V46.3883C168.336 45.9314 168.324 45.6601 168.298 45.5744C168.273 45.4888 168.184 45.446 168.032 45.446C167.968 45.446 167.556 45.4816 166.795 45.553C166.643 45.5673 166.541 45.5744 166.49 45.5744C166.338 45.5744 166.262 45.5245 166.262 45.4245C166.262 45.3103 166.338 45.2461 166.49 45.2318C167.087 45.1604 167.689 44.9605 168.298 44.6321C168.907 44.2895 169.396 43.8897 169.764 43.4328C169.903 43.3044 169.998 43.2401 170.049 43.2401C170.151 43.2401 170.201 43.3115 170.201 43.4543V43.8612C170.189 43.9754 170.182 44.1039 170.182 44.2467V57.0534C170.182 57.5674 170.201 57.8672 170.24 57.9529C170.29 58.0386 170.449 58.0885 170.715 58.1028L171.153 58.1242L171.477 58.1456H171.762C171.94 58.1456 172.028 58.2099 172.028 58.3384Z" fill="black"/>
<path d="M209.101 44.8249C209.101 44.8677 209.088 44.9819 209.063 45.1675C208.999 45.6387 208.898 46.8023 208.758 48.6584L208.739 48.9153C207.432 48.844 205.942 48.8083 204.267 48.8083C203.366 48.8083 202.522 48.8225 201.736 48.8511C200.949 48.8797 200.607 48.8939 200.708 48.8939C200.366 48.8939 200.194 48.8225 200.194 48.6798C200.194 48.5655 200.524 48.2086 201.184 47.609C202.77 46.1527 203.899 44.9677 204.571 44.0539C205.739 42.4691 206.322 40.6059 206.322 38.4643C206.322 37.0223 206.056 35.9301 205.523 35.1877C205.117 34.6166 204.546 34.331 203.81 34.331C203.087 34.331 202.516 34.5809 202.097 35.0806C201.768 35.4661 201.603 35.8516 201.603 36.2371C201.603 36.4798 201.774 36.6083 202.116 36.6226C203.005 36.6654 203.449 37.1009 203.449 37.9289C203.449 38.7142 203.081 39.1068 202.345 39.1068C201.875 39.1068 201.501 38.9426 201.222 38.6142C200.943 38.2859 200.803 37.8361 200.803 37.265C200.803 36.2085 201.133 35.359 201.793 34.7165C202.453 34.0741 203.322 33.7528 204.4 33.7528C205.479 33.7528 206.373 34.1383 207.084 34.9093C207.908 35.8088 208.321 36.9795 208.321 38.4215C208.321 40.0063 207.851 41.4697 206.912 42.8118C205.973 44.1396 204.394 45.5887 202.174 47.1592C203.011 47.1307 204.064 47.1164 205.333 47.1164C206.386 47.1164 207.052 47.1021 207.331 47.0736C207.61 47.0307 207.858 46.9379 208.073 46.7952C208.251 46.6667 208.403 46.1884 208.53 45.3603C208.619 44.7892 208.746 44.5036 208.911 44.5036C209.037 44.5036 209.101 44.6107 209.101 44.8249Z" fill="black"/>
<path d="M176.977 58.3384C176.977 58.4526 176.837 58.5097 176.558 58.5097H176.33C176.33 58.5097 176.089 58.5097 175.607 58.5097C175.124 58.4954 174.636 58.4883 174.141 58.4883C173.266 58.4883 172.707 58.4954 172.466 58.5097C172.225 58.524 172.035 58.5311 171.895 58.5311C171.591 58.5311 171.439 58.4669 171.439 58.3384C171.439 58.2099 171.527 58.1456 171.705 58.1456C171.984 58.1456 172.282 58.1385 172.6 58.1242C172.993 58.1099 173.202 58.0029 173.228 57.803C173.266 57.5888 173.285 57.1391 173.285 56.4538V46.3883C173.285 45.9314 173.272 45.6601 173.247 45.5744C173.221 45.4888 173.132 45.446 172.98 45.446C172.917 45.446 172.504 45.4816 171.743 45.553C171.591 45.5673 171.489 45.5744 171.439 45.5744C171.286 45.5744 171.21 45.5245 171.21 45.4245C171.21 45.3103 171.286 45.2461 171.439 45.2318C172.035 45.1604 172.638 44.9605 173.247 44.6321C173.856 44.2895 174.344 43.8897 174.712 43.4328C174.852 43.3044 174.947 43.2401 174.998 43.2401C175.099 43.2401 175.15 43.3115 175.15 43.4543V43.8612C175.137 43.9754 175.131 44.1039 175.131 44.2467V57.0534C175.131 57.5674 175.15 57.8672 175.188 57.9529C175.239 58.0386 175.397 58.0885 175.664 58.1028L176.101 58.1242L176.425 58.1456H176.71C176.888 58.1456 176.977 58.2099 176.977 58.3384Z" fill="black"/>
<path d="M159.106 73.1582C159.106 74.4288 158.935 75.6281 158.592 76.756C158.262 77.8839 157.806 78.7906 157.222 79.4759C156.6 80.2183 155.807 80.5895 154.843 80.5895C153.524 80.5895 152.433 79.8614 151.57 78.4051C150.72 76.9488 150.295 75.0856 150.295 72.8155C150.295 70.1885 150.897 68.1183 152.103 66.6049C152.826 65.6911 153.714 65.2342 154.767 65.2342C156.01 65.2342 157 65.8696 157.736 67.1403C158.649 68.7108 159.106 70.7167 159.106 73.1582ZM157.051 72.3872C157.051 70.2599 156.841 68.5037 156.423 67.1188C156.106 66.0623 155.547 65.5341 154.748 65.5341C153.149 65.5341 152.35 67.9255 152.35 72.7084C152.35 77.7198 153.194 80.2254 154.881 80.2254C155.668 80.2254 156.232 79.4973 156.575 78.041C156.892 76.7132 157.051 74.8286 157.051 72.3872Z" fill="black"/>
<path d="M201.66 111.3C199.91 111.3 198.501 109.715 198.501 107.745C198.501 105.775 199.91 104.19 201.66 104.19C203.411 104.19 204.82 105.775 204.82 107.745C204.82 109.715 203.411 111.3 201.66 111.3Z" fill="black"/>
<path d="M201.661 105.389C202.803 105.389 203.754 106.46 203.754 107.745C203.754 109.03 202.803 110.101 201.661 110.101C200.519 110.101 199.567 109.03 199.567 107.745C199.567 106.46 200.519 105.389 201.661 105.389ZM201.661 103.033C199.339 103.033 197.474 105.132 197.474 107.745C197.474 110.358 199.339 112.456 201.661 112.456C203.983 112.456 205.848 110.358 205.848 107.745C205.848 105.132 203.983 103.033 201.661 103.033Z" fill="black"/>
<path d="M182.096 120.594L191.536 119.138L193.325 113.57L188.224 112.328L182.096 120.594Z" fill="black" stroke="#1A1A1A" stroke-width="0.05" stroke-miterlimit="10"/>
<path d="M197.816 110.786L196.446 116.054L191.764 114.598L193.211 109.458L197.816 110.786Z" fill="black" stroke="#1A1A1A" stroke-width="0.05" stroke-miterlimit="10"/>
<path d="M234.394 87.9993C234.394 87.9993 240.256 85.9434 243.111 88.5989C243.111 88.5989 243.567 81.3175 251.599 76.6917C251.599 76.6917 243.986 82.5168 238.163 78.6191C238.163 78.6191 237.287 83.8018 233.823 86.5858L234.432 87.9993H234.394Z" fill="black" stroke="black" stroke-width="0.05" stroke-miterlimit="10"/>
<path d="M229.751 85.9434L222.405 92.5395L225.868 92.7965L224.764 96.6514L233.367 92.5395L235.993 86.5002L229.751 85.9434Z" fill="black" stroke="black" stroke-width="0.05" stroke-miterlimit="10"/>
<path d="M205.695 104.018L221.11 91.383L228.342 91.2974L224.46 98.1505L206.951 106.374C206.837 105.989 205.923 104.275 205.733 104.018H205.695Z" fill="black" stroke="#1A1A1A" stroke-width="0.05" stroke-miterlimit="10"/>
<path d="M237.097 90.612C235.346 88.6846 234.09 86.3716 233.443 83.7161C235.194 85.6435 236.411 87.9564 237.097 90.612Z" fill="#1A1A1A"/>
<path d="M190.09 87.9564L191.727 97.4223L196.256 98.9642L197.017 93.7387L190.09 87.9564Z" fill="black" stroke="#1A1A1A" stroke-width="0.05" stroke-miterlimit="10"/>
<path d="M198.692 103.333L194.429 102.219L195.381 97.4222L199.529 98.6215L198.692 103.333Z" fill="black" stroke="#1A1A1A" stroke-width="0.05" stroke-miterlimit="10"/>
<path d="M203.602 112.842L205.048 119.524L209.426 120.851L210.225 115.712L205.467 111.514C205.277 111.771 203.868 112.713 203.602 112.842Z" fill="black" stroke="#1A1A1A" stroke-width="0.05" stroke-miterlimit="10"/>
<path d="M208.208 121.708C208.208 121.708 208.893 128.476 206.99 131.559C206.99 131.559 215.744 131.302 220.083 138.927C220.083 138.927 215.896 129.247 218.523 123.079C218.523 123.079 212.775 123.421 210.339 120.209L208.246 121.708H208.208Z" fill="black" stroke="#1A1A1A" stroke-width="0.05" stroke-miterlimit="10"/>
<path d="M206.685 122.436C207.941 120.337 209.692 119.095 211.9 118.71C210.644 120.809 208.855 122.051 206.685 122.436Z" fill="#1A1A1A"/>
</g>
<defs>
<clipPath id="clip0_312_447">
<rect width="405" height="219" fill="white"/>
</clipPath>
</defs>
</svg>
