<svg width="775" height="140" viewBox="0 0 775 140" fill="none" xmlns="http://www.w3.org/2000/svg">
<path d="M21.5093 3H752.569C762.514 3 771.078 12.0156 771.078 23.7876V116.212C771.078 127.984 762.514 137 752.569 137H21.5093C11.5639 137 3 127.984 3 116.212V23.7876C3 12.0156 11.5639 3 21.5093 3Z" fill="#2B3C12" fill-opacity="0.76" stroke="#57EB23" stroke-width="6"/>
<path d="M85.0474 1V135M183.94 1V135M283.311 1V135M382.203 1V135M481.574 1V135M580.467 1V135M675.538 1V135" stroke="#57EB23" stroke-width="0.2"/>
<path d="M773.989 35.7852L0.0615717 35.9179M773.995 72.3935L0.0673115 72.5262M774 107.587L0.0728295 107.72" stroke="#57EB23" stroke-width="0.2"/>
<path d="M26.7161 43.7885L29.6065 53.7039C29.6065 53.7039 28.2725 49.557 25.6362 54.3158C23 59.0747 32.4968 71.4689 32.4968 71.4689L35.8 83.0369L40.7549 88.4077L36.7529 90.337L36.2129 94.1917L23 97.91C45.7097 122.698 63.8774 123.525 87 99.3423L72.7707 95.9117L69.6581 90.337L67.4347 92.4811L68.8323 87.1683L74.2 80.9712L77.0903 71.8821C77.0903 71.8821 87.8258 61.1404 84.332 53.4579C83.5201 51.6726 80.3936 54.117 80.3936 54.117L83.4427 42.7376C83.4427 35.8763 79.2265 30.3752 76.328 27.2998C60.5655 10.5756 36.7529 24.2981 36.7529 24.2981C36.7529 24.2981 28.9395 28.7796 26.7161 43.7885Z" stroke="#57EB23" stroke-width="3"/>
<g style="mix-blend-mode:luminosity">
<path d="M45.4686 99.1775L42.374 85.5612L68.3687 84.6328L65.8931 99.1775H45.4686Z" fill="#E7D5BF" stroke="black"/>
<path d="M26.5918 99.1773L38.9702 95.1543L55.3717 102.581L71.1542 96.0827L86.0083 99.1773C76.7245 111.246 52.5865 131.671 26.5918 99.1773Z" fill="#124D1E" stroke="black" stroke-width="0.6"/>
<path d="M52.14 102.835L51.1184 98.749H55.4294H59.7783L59.0124 102.834L55.4368 104.209L52.14 102.835Z" fill="#18341F" stroke="black"/>
<path d="M42.993 89.8936H39.8984L43.9214 92.6787L42.993 89.8936Z" fill="#091B0D" stroke="black" stroke-width="0.6"/>
<path d="M53.2052 99.487L43.3025 92.3694L39.5889 90.2031L38.3511 94.5356L53.2052 104.748V99.487Z" fill="#02310C" stroke="black"/>
<path d="M67.4401 90.5122H70.5347L66.5117 93.2974L67.4401 90.5122Z" fill="#091B0D" stroke="black" stroke-width="0.6"/>
<path d="M57.2284 99.796L67.1311 92.6784L70.8447 90.5122L72.0825 94.8447L57.2284 105.057V99.796Z" fill="#02310C" stroke="black"/>
<path d="M36.7913 80.6578L30.406 53.3932C30.319 53.0197 30.2789 52.6365 30.2872 52.2534C30.58 38.3805 43.1987 27.6407 56.9361 28.6224C69.8987 29.5495 80.382 40.6656 79.7577 53.73C79.7397 54.0913 79.6803 54.4499 79.5781 54.7989C77.2812 62.6509 74.9856 70.503 72.6887 78.355C72.5008 78.9985 72.1707 79.5984 71.7232 80.1138L62.8628 90.3068C61.9084 91.4044 60.4858 92.0411 58.9858 92.0411H52.1571C51.0466 92.0411 49.9679 91.6921 49.0895 91.0499L38.6297 83.4011C37.6973 82.7193 37.0468 81.7486 36.7927 80.6592L36.7913 80.6578Z" fill="#FFE8D4"/>
<path d="M50.4206 48.1538C46.085 48.1102 41.7494 48.0666 37.4138 48.0229L34.168 50.5535L51.3833 49.9958L50.4206 48.1538Z" fill="#460000"/>
<path d="M60.2483 48.1538C64.5839 48.1102 68.9195 48.0666 73.2551 48.0229L76.5009 50.5535L59.2856 49.9958L60.2483 48.1538Z" fill="#460000"/>
<path opacity="0.82" d="M50.7431 56.9041C51.0166 56.6996 51.3936 56.3464 51.3853 55.9169C51.3757 55.4425 50.9019 55.133 50.3356 54.6939C49.7928 54.274 49.0691 53.6618 48.2611 52.811H41.1065L35.3979 55.9169C37.275 56.8509 39.1534 57.7862 41.0305 58.7202C42.3564 58.3057 43.8564 57.9089 45.5166 57.5858C47.4254 57.2136 49.1851 57.0091 50.7431 56.9041Z" fill="white"/>
<path d="M41.1641 52.8096C40.8409 54.9543 42.6019 56.7554 44.4748 56.7581C46.3491 56.7594 48.1156 54.957 47.7924 52.8096H41.1641Z" fill="#42210B"/>
<path opacity="0.82" d="M59.6507 57.1018C59.38 56.9123 59.0001 56.5824 58.9808 56.1515C58.9587 55.677 59.3841 55.3416 59.891 54.8712C60.3744 54.4227 61.0181 53.7709 61.7239 52.8765C63.9738 52.7429 66.2238 52.6107 68.4724 52.4771L74.0608 55.2585C72.3508 56.296 70.6409 57.3336 68.931 58.3698C67.6506 58.0031 66.1644 57.6622 64.4987 57.425C62.6962 57.1686 61.0609 57.0896 59.6479 57.0991L59.6507 57.1018Z" fill="white"/>
<path d="M68.9794 52.4486C69.4421 54.5701 67.8026 56.4721 65.9352 56.5839C64.0651 56.6971 62.1825 55.001 62.3648 52.8386C64.5692 52.7077 66.775 52.5782 68.9794 52.4473V52.4486Z" fill="#42210B"/>
<path opacity="0.35" d="M34.0044 68.7704L49.0457 91.0203L38.3345 83.186C37.5914 82.642 37.072 81.8689 36.869 80.999L34.0044 68.769V68.7704Z" fill="#C59B6D"/>
<path opacity="0.35" d="M76.3699 65.7568L62.457 90.769L72.3989 79.3312L76.3699 65.7568Z" fill="#C59B6D"/>
<path d="M36.7417 82.2556L30.3888 54.876C30.3022 54.5008 30.2623 54.1161 30.2706 53.7313C30.5619 39.7998 43.1166 29.0147 56.7843 30.0006C69.6811 30.9316 80.1112 42.0946 79.4901 55.2142C79.4722 55.577 79.4132 55.9371 79.3115 56.2876C77.0262 64.1727 74.7423 72.0579 72.457 79.9431C72.2701 80.5893 71.9417 81.1918 71.4964 81.7093L62.681 91.9454C61.7314 93.0476 60.316 93.687 58.8236 93.687H52.0296C50.9247 93.687 49.8515 93.3364 48.9775 92.6916L38.5707 85.0104C37.6431 84.3258 36.9959 83.351 36.743 82.257L36.7417 82.2556Z" fill="#FFE8D4"/>
<path d="M58.7952 93.687H52.0501C50.9205 93.687 49.8059 93.322 48.9109 92.6615L38.5791 85.0201C37.6268 84.316 36.9597 83.3082 36.6991 82.1833L30.392 54.9501C30.3033 54.5647 30.2624 54.167 30.2706 53.7707C30.4097 47.1016 33.463 40.6818 38.6487 36.1591C43.6761 31.7752 50.2834 29.5295 56.7842 29.9993C69.9182 30.9486 80.104 42.2793 79.4901 55.2565C79.4724 55.631 79.411 56.0028 79.3073 56.3623L72.5022 79.8899C72.3085 80.5599 71.9756 81.1728 71.5145 81.7094L62.7612 91.892C61.7816 93.0319 60.3355 93.687 58.7952 93.687ZM55.0788 30.2799C49.2301 30.2799 43.4101 32.467 38.8874 36.4124C33.7741 40.8725 30.7631 47.2011 30.6253 53.7775C30.6171 54.1466 30.6553 54.517 30.7385 54.8765L37.0456 82.1084C37.2885 83.1557 37.9092 84.094 38.796 84.749L49.1278 92.3905C49.96 93.006 50.9982 93.3451 52.0501 93.3451H58.7952C60.229 93.3451 61.5742 92.7364 62.4869 91.6755L71.2402 81.4942C71.67 80.9944 71.9797 80.4238 72.1598 79.8L78.9649 56.2711C79.0617 55.9374 79.119 55.5901 79.1354 55.2415C79.7398 42.4468 69.7013 31.2768 56.7583 30.3412C56.2003 30.3003 55.6396 30.2812 55.0816 30.2812L55.0788 30.2799Z" fill="black"/>
<path d="M50.3307 48.1197C45.9951 48.076 41.6595 48.0324 37.3239 47.9888L34.0781 50.5193L51.2934 49.9617L50.3307 48.1197Z" fill="#460000"/>
<path d="M33.5532 50.707L37.2604 47.8179L50.4439 47.9501L51.5807 50.1234L33.5546 50.707H33.5532ZM37.3874 48.1601L34.6029 50.3307L51.0075 49.8003L50.2174 48.2896L37.3861 48.1601H37.3874Z" fill="black"/>
<path d="M60.1575 48.1197C64.4931 48.076 68.8287 48.0324 73.1643 47.9888L76.4101 50.5193L59.1948 49.9617L60.1575 48.1197Z" fill="#460000"/>
<path d="M76.9352 50.707L58.9092 50.1234L60.0459 47.9501L73.2295 47.8179L76.9366 50.707H76.9352ZM59.481 49.8003L75.8855 50.3307L73.101 48.1601L60.2697 48.2896L59.4796 49.8003H59.481Z" fill="black"/>
<path d="M50.6075 56.8173C51.3782 55.8519 50.852 55.6379 49.9487 55.0871C49.1172 54.5458 48.3479 53.9091 47.6932 53.1837L48.1683 53.3841C45.7899 53.1837 43.4087 52.7515 41.0137 53.1551L41.2126 53.1046C39.4585 54.3617 37.6021 55.4934 35.6864 56.5132L35.6615 55.2384C36.5897 55.7279 37.4944 56.2569 38.3825 56.8118C39.2679 57.3749 40.1449 57.9544 40.9709 58.6252L40.9046 58.7465C38.83 58.2011 36.877 57.4104 34.9502 56.5268L33.7251 55.9515C35.9751 54.6085 38.3632 53.4182 40.8162 52.4488L40.9557 52.3916C41.5717 52.4625 42.1877 52.5252 42.8037 52.5524C44.6974 52.697 46.5565 52.2089 48.4349 52.1611L48.6448 52.3697C49.2981 53.0187 49.9376 53.6732 50.6241 54.2976C51.2346 54.8185 52.0757 55.6938 51.3506 56.4791C51.16 56.6905 50.9307 56.8241 50.6973 56.925L50.6075 56.8173Z" fill="black"/>
<path opacity="0.82" d="M50.6518 56.8713C50.9253 56.6668 51.3023 56.3137 51.294 55.8842C51.2844 55.4097 50.8106 55.1002 50.2443 54.6612C49.7015 54.2413 48.9778 53.6291 48.1698 52.7783H41.0151L35.3066 55.8842C37.1837 56.8182 39.0621 57.7535 40.9392 58.6874C42.2651 58.273 43.7651 57.8762 45.4253 57.5531C47.3341 57.1808 49.0938 56.9763 50.6518 56.8713Z" fill="white"/>
<path d="M41.0737 52.7764C40.7505 54.921 42.5115 56.7221 44.3845 56.7249C46.2587 56.7262 48.0253 54.9238 47.7021 52.7764H41.0737Z" fill="#42210B"/>
<path d="M44.3861 56.8957H44.3834C43.4345 56.8957 42.4953 56.4635 41.8102 55.7122C41.0685 54.8996 40.7342 53.8198 40.8958 52.7522L40.9179 52.605H47.8585L47.8806 52.7522C48.0422 53.8212 47.7065 54.901 46.9621 55.7136C46.2742 56.4649 45.3364 56.8957 44.3861 56.8957ZM41.2329 52.9472C41.1362 53.8675 41.4414 54.7865 42.0823 55.4873C42.6997 56.1635 43.5381 56.5521 44.3834 56.5535H44.3861C45.2314 56.5535 46.0712 56.1663 46.69 55.49C47.3322 54.7892 47.6375 53.8689 47.5422 52.9472H41.2342H41.2329Z" fill="black"/>
<path d="M59.5546 57.1232C58.0022 56.5205 58.487 55.3834 59.4552 54.4972C60.0988 53.8332 60.6941 53.1433 61.3046 52.4561L61.5007 52.2353C62.7839 52.1725 64.0767 52.373 65.3612 52.3866C66.5794 52.3961 67.7838 52.2393 68.9813 52.0239C71.1084 52.7179 73.1829 53.5605 75.1871 54.5231L76.4301 55.1489C75.1429 55.8593 73.7658 56.5996 72.4205 57.1954C71.455 57.6249 70.4799 58.038 69.4482 58.3639L69.3736 58.2466C70.9371 56.8423 72.6595 55.6629 74.4509 54.5531L74.5089 55.8265C72.531 54.9212 70.6028 53.9014 68.77 52.7506L68.9716 52.7888C66.5545 52.5284 64.2065 53.0983 61.846 53.4392L62.3074 53.2101C61.7024 53.9736 60.9759 54.654 60.1817 55.243C59.3198 55.8429 58.8019 56.0924 59.6375 57.0086L59.556 57.1204L59.5546 57.1232Z" fill="black"/>
<path opacity="0.82" d="M59.5594 57.0691C59.2887 56.8796 58.9088 56.5496 58.8895 56.1188C58.8674 55.6443 59.2928 55.3089 59.7997 54.8385C60.2831 54.39 60.9268 53.7382 61.6326 52.8438C63.8825 52.7102 66.1325 52.578 68.3811 52.4443L73.9695 55.2257C72.2595 56.2633 70.5496 57.3009 68.8397 58.3371C67.5593 57.9703 66.0731 57.6295 64.4074 57.3922C62.6049 57.1359 60.9696 57.0568 59.5566 57.0664L59.5594 57.0691Z" fill="white"/>
<path d="M68.8866 52.4159C69.3493 54.5374 67.7098 56.4394 65.8424 56.5512C63.9723 56.6644 62.0897 54.9683 62.272 52.8059C64.4764 52.675 66.6822 52.5454 68.8866 52.4146V52.4159Z" fill="#42210B"/>
<path d="M65.664 56.728C64.7773 56.728 63.8892 56.3585 63.2027 55.6958C62.4058 54.9282 62.0011 53.8702 62.0922 52.7931L62.1047 52.6458L69.0314 52.2368L69.0632 52.3813C69.2938 53.4366 69.0314 54.5342 68.3436 55.3891C67.7082 56.1799 66.8008 56.6652 65.8533 56.7225C65.7897 56.7266 65.7262 56.728 65.664 56.728ZM62.4431 52.9676C62.4072 53.8934 62.7732 54.7933 63.461 55.4559C64.124 56.0953 64.99 56.4321 65.8325 56.3817C66.6764 56.3312 67.4872 55.8935 68.059 55.1818C68.6516 54.4442 68.896 53.5089 68.74 52.5954L62.4431 52.9676Z" fill="black"/>
<path d="M53.3514 54.392C53.8059 55.9722 53.8501 57.6247 53.6774 59.2444C53.6263 61.9386 53.2617 64.7309 51.9716 67.1633L51.9385 67.151C52.7161 64.0206 53.8197 60.8683 53.4827 57.6247L53.3169 54.3961L53.3528 54.3906L53.3514 54.392Z" fill="black"/>
<path d="M54.2747 72.5535C53.6504 72.5535 53.1144 72.2113 52.9225 72.0885C51.9584 71.4709 51.5205 70.631 51.5026 70.5956C50.9625 69.6834 50.2982 69.1558 49.765 68.7318C49.1849 68.2709 48.7264 67.9055 48.8065 67.292C48.87 66.8066 49.2678 66.3553 49.9874 65.9545L50.1697 66.249C49.5523 66.5939 49.2126 66.9593 49.1642 67.3342C49.1103 67.7433 49.4128 68.0051 49.9971 68.4686C50.5523 68.9104 51.2443 69.4598 51.823 70.4361C51.8313 70.4524 52.2443 71.2391 53.1241 71.8036C53.3327 71.9372 53.8879 72.2944 54.4832 72.1935C55.1061 72.0885 55.9003 71.2105 56.4818 70.5697C56.7346 70.2902 56.9542 70.0488 57.142 69.8811C57.8478 69.2499 58.4652 68.9145 58.9624 68.6431C59.7207 68.2314 60.0343 68.0596 59.8616 67.2906C59.7511 66.7943 59.1517 66.3526 58.0812 65.9776L58.2056 65.6572C59.4169 66.0813 60.0729 66.5925 60.2138 67.2197C60.4403 68.2341 59.9238 68.515 59.142 68.9404C58.6627 69.2008 58.0647 69.5267 57.3906 70.1293C57.2166 70.2847 56.9929 70.5315 56.7567 70.7919C56.1061 71.5091 55.2967 72.4035 54.5481 72.5289C54.457 72.5439 54.3658 72.5507 54.2774 72.5507L54.2747 72.5535Z" fill="black"/>
<path opacity="0.35" d="M33.9175 70.1693L48.9588 92.4192L38.2475 84.5849C37.5045 84.0409 36.9851 83.2678 36.7821 82.398L33.9175 70.168V70.1693Z" fill="#C59B6D"/>
<path opacity="0.35" d="M75.7962 67.6924L61.8848 92.7046L71.8266 81.2667L75.7962 67.6924Z" fill="#C59B6D"/>
<path d="M55.0102 57.9497C55.2049 59.1182 55.2422 60.2689 55.3279 61.4387C55.6966 63.3571 56.5046 65.1432 57.0557 67.0275L57.0226 67.0411C55.8707 65.3722 55.4826 63.398 55.2118 61.4551C54.9453 60.3371 54.7008 59.0323 55.0102 57.9497Z" fill="black"/>
<path d="M30.8586 55.3775C29.3296 53.0283 26.7329 53.5028 26.5589 53.7591C26.3918 54.0059 26.3089 54.2936 26.2992 54.5867C26.2357 56.4914 26.3766 58.9279 27.1128 61.6493C28.6749 67.418 32.6804 69.9594 34.6141 71.8532C33.661 66.3259 32.0022 60.7058 30.8586 55.3789V55.3775Z" fill="#FFE5D1"/>
<path d="M30.7663 55.3433C29.2373 52.9941 26.6407 53.4686 26.4666 53.7249C26.2995 53.9717 26.2166 54.2594 26.207 54.5525C26.1434 56.4572 26.2843 58.8937 27.0205 61.6151C28.5826 67.3838 32.5881 69.9252 34.5218 71.8191C33.5688 66.2917 31.9099 60.6716 30.7663 55.3447V55.3433Z" fill="#FFE5D1"/>
<path d="M34.7927 72.3296L34.3922 71.9383C34.051 71.6042 33.6366 71.2415 33.196 70.8584C31.0635 68.9973 28.1436 66.4504 26.8467 61.658C26.2224 59.3497 25.9461 56.9582 26.0276 54.5476C26.0387 54.2109 26.1381 53.8946 26.3163 53.6328C26.453 53.431 27.0152 53.3287 27.5165 53.3342C28.1685 53.3396 29.8038 53.5387 30.9212 55.2525L30.9447 55.3084C31.395 57.404 31.935 59.5924 32.4599 61.7098C33.2775 65.0161 34.1228 68.4329 34.7016 71.791L34.7941 72.3296H34.7927ZM27.4806 53.6764C27.0041 53.6764 26.6712 53.7746 26.6077 53.8291C26.4751 54.0268 26.395 54.2831 26.3867 54.5586C26.3066 56.9364 26.5787 59.2965 27.1947 61.5734C28.4654 66.2664 31.3397 68.7751 33.4391 70.6062C33.7237 70.8543 33.9985 71.0943 34.2513 71.3247C33.6781 68.1465 32.8797 64.9179 32.1063 61.7888C31.5842 59.6796 31.0455 57.4995 30.5952 55.408C29.79 54.1891 28.721 53.8114 27.9641 53.7091C27.7914 53.686 27.6284 53.6764 27.4806 53.6764Z" fill="black"/>
<path d="M32.4389 68.0483C29.1406 65.0078 28.095 62.5005 27.4555 60.2454C26.979 58.5629 26.4293 55.1434 27.3174 54.8652C27.8657 54.6962 28.6447 55.6588 29.8878 57.5035C30.3629 58.2084 30.693 58.8219 30.9126 59.2269C31.3215 59.9849 31.693 60.773 32.0176 61.5692L31.682 61.692C31.3615 60.9066 30.9955 60.1295 30.5922 59.3823C30.3767 58.9814 30.0494 58.3774 29.5839 57.6862C29.1475 57.0386 27.827 55.0698 27.4293 55.1884C27.0715 55.3002 27.0978 57.6685 27.8022 60.1554C28.4279 62.3641 29.4527 64.8197 32.6875 67.8029L32.4361 68.0483H32.4389Z" fill="black"/>
<path d="M28.0222 59.1233C27.8385 58.4498 27.8109 57.768 27.9407 57.1C28.0278 56.65 28.1714 56.0651 28.3164 55.772L28.6438 55.9151C28.5139 56.1796 28.3758 56.7523 28.2957 57.1613C28.1755 57.7803 28.2018 58.4116 28.3717 59.0374L28.0222 59.1233Z" fill="black"/>
<path d="M32.4751 64.7623C32.4571 64.7528 30.7099 63.6429 30.6188 61.8623C30.5801 61.0961 30.8688 60.6693 31.0607 60.3884L31.1201 60.2998L31.4268 60.4798L31.3632 60.5739C31.1864 60.8343 30.9447 61.1901 30.9779 61.8459C31.0594 63.4357 32.6353 64.4569 32.6519 64.4651L32.4737 64.7623H32.4751Z" fill="black"/>
<path opacity="0.35" d="M32.5378 68.1464C30.6055 66.4012 29.5116 64.6464 28.9135 63.4971C28.7118 63.1112 28.0668 61.8309 27.6055 60.0271C27.1898 58.3992 26.6994 55.4651 27.3486 55.2469C27.995 55.0301 29.5544 57.5757 30.1207 58.5001C30.6428 59.3522 30.8638 59.8757 31.0999 60.3911C30.9936 60.5288 30.8886 60.6665 30.7823 60.8042C30.6704 61.1219 30.3776 62.042 30.7823 62.3995C30.9853 63.8938 32.3168 64.7037 32.5364 64.8332V68.1464H32.5378Z" fill="#C59B6D"/>
<path d="M78.4827 56.0396C80.0117 53.6904 82.6084 54.1649 82.7824 54.4212C82.9495 54.668 83.0324 54.9557 83.0421 55.2488C83.1056 57.1535 82.9647 59.59 82.2285 62.3114C80.6664 68.0801 76.6609 70.6215 74.7272 72.5153C75.6803 66.988 77.3391 61.3679 78.4827 56.041V56.0396Z" fill="#FFE5D1"/>
<path d="M78.575 56.0059C80.104 53.6567 82.7007 54.1312 82.8747 54.3875C83.0418 54.6343 83.1247 54.922 83.1344 55.2151C83.1979 57.1198 83.057 59.5563 82.3208 62.2777C80.7587 68.0464 76.7532 70.5878 74.8195 72.4816C75.7726 66.9543 77.4314 61.3342 78.575 56.0073V56.0059Z" fill="#FFE5D1"/>
<path d="M74.5491 72.9917L74.9496 72.6004C75.2908 72.2663 75.7052 71.9036 76.1458 71.5205C78.2783 69.6594 81.1982 67.1125 82.4951 62.3201C83.1194 60.0118 83.3957 57.6203 83.3142 55.2098C83.3031 54.873 83.2037 54.5567 83.0255 54.2949C82.8888 54.0931 82.3266 53.9908 81.8253 53.9963C81.1733 54.0018 79.538 54.2008 78.4206 55.9147L78.3971 55.9706C77.9468 58.0662 77.4068 60.2545 76.8819 62.3719C76.0643 65.6782 75.219 69.095 74.6402 72.4531L74.5477 72.9917H74.5491ZM81.8612 54.3385C82.3377 54.3385 82.6705 54.4367 82.7341 54.4912C82.8667 54.6889 82.9468 54.9453 82.9551 55.2207C83.0352 57.5985 82.7631 59.9586 82.1471 62.2355C80.8764 66.9285 78.0021 69.4372 75.9027 71.2683C75.6181 71.5164 75.3433 71.7564 75.0905 71.9868C75.6637 68.8087 76.462 65.58 77.2355 62.451C77.7576 60.3417 78.2963 58.1616 78.7466 56.0701C79.5518 54.8512 80.6208 54.4735 81.3777 54.3712C81.5504 54.3481 81.7134 54.3385 81.8612 54.3385Z" fill="black"/>
<path d="M76.9024 68.7109C80.2007 65.6704 81.2463 63.1631 81.8858 60.9079C82.3623 59.2255 82.912 55.806 82.0239 55.5278C81.4756 55.3588 80.6966 56.3214 79.4535 58.1661C78.9784 58.871 78.6483 59.4845 78.4287 59.8895C78.0198 60.6475 77.6483 61.4356 77.3237 62.2318L77.6593 62.3546C77.9798 61.5692 78.3458 60.7921 78.7491 60.0449C78.9646 59.644 79.2919 59.04 79.7574 58.3488C80.1938 57.7012 81.5143 55.7324 81.9121 55.851C82.2698 55.9628 82.2435 58.3311 81.5391 60.818C80.9134 63.0267 79.8886 65.4823 76.6538 68.4655L76.9052 68.7109H76.9024Z" fill="black"/>
<path d="M81.3196 59.7854C81.5033 59.1119 81.5309 58.4301 81.4011 57.7621C81.314 57.3121 81.1704 56.7272 81.0254 56.4341L80.698 56.5772C80.8279 56.8417 80.966 57.4144 81.0461 57.8234C81.1663 58.4424 81.14 59.0737 80.9701 59.6995L81.3196 59.7854Z" fill="black"/>
<path d="M76.8667 65.4249C76.8847 65.4154 78.6319 64.3055 78.723 62.5249C78.7617 61.7586 78.473 61.3319 78.2811 61.051L78.2217 60.9624L77.915 61.1424L77.9786 61.2365C78.1554 61.4969 78.3971 61.8527 78.3639 62.5085C78.2824 64.0983 76.7065 65.1195 76.6899 65.1277L76.8681 65.4249H76.8667Z" fill="black"/>
<path opacity="0.35" d="M76.804 68.809C78.7363 67.0638 79.8302 65.309 80.4283 64.1597C80.6299 63.7738 81.275 62.4935 81.7363 60.6897C82.152 59.0618 82.6424 56.1277 81.9932 55.9095C81.3468 55.6927 79.7874 58.2383 79.2211 59.1627C78.699 60.0148 78.478 60.5383 78.2418 61.0537C78.3482 61.1914 78.4532 61.3291 78.5595 61.4668C78.6714 61.7845 78.9642 62.7046 78.5595 63.0621C78.3565 64.5564 77.025 65.3663 76.8054 65.4958V68.809H76.804Z" fill="#C59B6D"/>
<path d="M62.6592 77.7986L60.023 79.5118C59.7954 79.66 59.5248 79.7397 59.2493 79.7397H50.7949C50.2901 79.7397 49.8018 79.5802 49.4026 79.287L47.3801 77.7986H62.6592Z" fill="white"/>
<path d="M46.685 77.5952H63.2871L60.0785 79.6812C59.8129 79.8538 59.5044 79.9434 59.1828 79.9434H50.7283C50.179 79.9434 49.6379 79.7675 49.204 79.4483L46.685 77.5952ZM61.8981 78.0039H47.942L49.468 79.1259C49.8259 79.3897 50.2746 79.5346 50.7283 79.5346H59.1828C59.417 79.5346 59.643 79.4679 59.836 79.3425L61.8997 78.0023L61.8981 78.0039Z" fill="black"/>
<path opacity="0.35" d="M50.9417 80.0708C51.9153 80.2697 53.0457 80.4909 54.0193 80.6897H55.1591C56.2375 80.4909 57.1592 80.2697 58.2368 80.0708H50.9409H50.9417Z" fill="#C5806D"/>
<path d="M28.7578 44.6175L32.4713 60.4947L34.0187 44.6175L39.5889 38.4283C53.7892 38.4283 60.8549 37.2464 73.3202 37.8093L78.8905 45.5459L79.5094 59.2567L83.223 44.6175C83.223 44.6175 83.0714 39.9782 81.9851 37.285C80.2376 32.9525 77.6527 30.4769 77.6527 30.4769C63.0846 12.2887 37.7322 23.2653 32.4713 32.2389C32.4713 32.2389 30.9127 35.0936 29.9957 38.4283C29.3547 40.7591 28.7578 44.6175 28.7578 44.6175Z" fill="#5F3232" stroke="black" stroke-linecap="round"/>
</g>
<path d="M151.38 46.08C151.38 47.52 151.177 48.7833 150.77 49.87C150.37 50.95 149.77 51.7933 148.97 52.4C148.17 53 147.18 53.3 146 53.3C144.827 53.3 143.837 53.0067 143.03 52.42C142.23 51.8267 141.627 50.9933 141.22 49.92C140.82 48.84 140.62 47.5633 140.62 46.09C140.62 44.65 140.82 43.39 141.22 42.31C141.627 41.2233 142.23 40.38 143.03 39.78C143.837 39.1733 144.827 38.87 146 38.87C147.18 38.87 148.17 39.1633 148.97 39.75C149.77 40.3367 150.37 41.17 150.77 42.25C151.177 43.33 151.38 44.6067 151.38 46.08ZM148.56 46.08C148.56 44.3333 148.36 43.04 147.96 42.2C147.567 41.3533 146.913 40.93 146 40.93C145.087 40.93 144.43 41.3533 144.03 42.2C143.637 43.0467 143.44 44.3433 143.44 46.09C143.44 47.8433 143.643 49.14 144.05 49.98C144.457 50.8133 145.107 51.23 146 51.23C146.927 51.23 147.583 50.8067 147.97 49.96C148.363 49.1133 148.56 47.82 148.56 46.08ZM171.044 42.41V51.13H173.834V53H165.304V51.13H168.404V44.28H165.404V42.41H171.044ZM169.334 37.07C169.821 37.07 170.214 37.22 170.514 37.52C170.821 37.82 170.974 38.1933 170.974 38.64C170.974 39.0867 170.821 39.4633 170.514 39.77C170.214 40.07 169.821 40.22 169.334 40.22C168.848 40.22 168.451 40.07 168.144 39.77C167.838 39.4633 167.684 39.0867 167.684 38.64C167.684 38.1933 167.838 37.82 168.144 37.52C168.451 37.22 168.848 37.07 169.334 37.07ZM176.627 53V42.41H178.927L179.117 43.72C179.57 43.1867 180.08 42.7867 180.647 42.52C181.213 42.2467 181.823 42.11 182.477 42.11C183.43 42.11 184.157 42.3867 184.657 42.94C185.157 43.4867 185.407 44.2567 185.407 45.25V53H182.767V46.28C182.767 45.7467 182.733 45.32 182.667 45C182.6 44.6733 182.473 44.44 182.287 44.3C182.1 44.1533 181.83 44.08 181.477 44.08C181.19 44.08 180.913 44.1433 180.647 44.27C180.387 44.3967 180.14 44.5667 179.907 44.78C179.68 44.9933 179.467 45.23 179.267 45.49V53H176.627ZM194.869 37.9C195.575 37.9 196.202 37.9567 196.749 38.07C197.295 38.1833 197.792 38.3367 198.239 38.53L197.479 40.31C197.125 40.1633 196.755 40.0567 196.369 39.99C195.982 39.9233 195.595 39.89 195.209 39.89C194.542 39.89 194.055 40.0167 193.749 40.27C193.449 40.5167 193.299 40.9133 193.299 41.46V43.13H196.799L196.509 45.02H193.299V53H190.669V45.02H188.339V43.13H190.669V41.4C190.669 40.7133 190.835 40.11 191.169 39.59C191.502 39.0633 191.982 38.65 192.609 38.35C193.242 38.05 193.995 37.9 194.869 37.9ZM200.071 53V51.17H201.561V44.23H200.071V42.41H203.571L204.061 44.84C204.448 43.94 204.934 43.2633 205.521 42.81C206.108 42.35 206.844 42.12 207.731 42.12C208.071 42.12 208.371 42.1467 208.631 42.2C208.898 42.2533 209.151 42.3233 209.391 42.41L208.601 44.63C208.394 44.5767 208.198 44.5367 208.011 44.51C207.824 44.4767 207.614 44.46 207.381 44.46C206.648 44.46 206.008 44.7467 205.461 45.32C204.921 45.8867 204.501 46.6567 204.201 47.63V51.17H206.311V53H200.071ZM207.161 46.54V43.73L207.521 42.41H209.391L208.921 46.54H207.161ZM220.093 50.21C220.093 50.6167 220.153 50.9133 220.273 51.1C220.393 51.28 220.586 51.4167 220.853 51.51L220.283 53.28C219.716 53.22 219.233 53.08 218.833 52.86C218.44 52.6333 218.136 52.2967 217.923 51.85C217.523 52.3367 217.016 52.7 216.403 52.94C215.796 53.18 215.16 53.3 214.493 53.3C213.413 53.3 212.556 52.9933 211.923 52.38C211.29 51.7667 210.973 50.97 210.973 49.99C210.973 48.8633 211.413 47.9967 212.293 47.39C213.18 46.7767 214.433 46.47 216.053 46.47H217.533V45.9C217.533 45.2733 217.34 44.82 216.953 44.54C216.566 44.2533 216.01 44.11 215.283 44.11C214.943 44.11 214.516 44.1567 214.003 44.25C213.496 44.3367 212.973 44.4733 212.433 44.66L211.803 42.85C212.476 42.5967 213.153 42.41 213.833 42.29C214.52 42.17 215.143 42.11 215.703 42.11C217.19 42.11 218.293 42.4267 219.013 43.06C219.733 43.6867 220.093 44.5767 220.093 45.73V50.21ZM215.353 51.39C215.753 51.39 216.156 51.2767 216.563 51.05C216.976 50.8233 217.3 50.5067 217.533 50.1V48.04H216.493C215.513 48.04 214.803 48.1967 214.363 48.51C213.93 48.8233 213.713 49.2667 213.713 49.84C213.713 50.3333 213.853 50.7167 214.133 50.99C214.413 51.2567 214.82 51.39 215.353 51.39ZM232.455 52.41C232.062 52.67 231.585 52.8833 231.025 53.05C230.465 53.2167 229.859 53.3 229.205 53.3C227.912 53.3 226.939 52.9667 226.285 52.3C225.632 51.6267 225.305 50.7333 225.305 49.62V44.28H223.005V42.41H225.305V40.08L227.945 39.76V42.41H231.445L231.175 44.28H227.945V49.61C227.945 50.1567 228.079 50.5567 228.345 50.81C228.612 51.0633 229.042 51.19 229.635 51.19C230.015 51.19 230.362 51.1467 230.675 51.06C230.995 50.9667 231.285 50.85 231.545 50.71L232.455 52.41ZM239.388 42.11C240.441 42.11 241.334 42.34 242.068 42.8C242.801 43.26 243.358 43.91 243.738 44.75C244.124 45.5833 244.318 46.56 244.318 47.68C244.318 48.8267 244.124 49.82 243.738 50.66C243.351 51.5 242.791 52.15 242.058 52.61C241.324 53.07 240.431 53.3 239.378 53.3C238.331 53.3 237.438 53.0767 236.698 52.63C235.964 52.1767 235.404 51.5333 235.018 50.7C234.631 49.86 234.438 48.86 234.438 47.7C234.438 46.5933 234.631 45.62 235.018 44.78C235.404 43.94 235.968 43.2867 236.708 42.82C237.448 42.3467 238.341 42.11 239.388 42.11ZM239.388 44.1C238.648 44.1 238.094 44.39 237.728 44.97C237.368 45.55 237.188 46.46 237.188 47.7C237.188 48.9533 237.368 49.87 237.728 50.45C238.088 51.0233 238.638 51.31 239.378 51.31C240.118 51.31 240.668 51.0233 241.028 50.45C241.388 49.87 241.568 48.9467 241.568 47.68C241.568 46.4467 241.388 45.5433 241.028 44.97C240.668 44.39 240.121 44.1 239.388 44.1ZM246.76 53V51.17H248.25V44.23H246.76V42.41H250.26L250.75 44.84C251.136 43.94 251.623 43.2633 252.21 42.81C252.796 42.35 253.533 42.12 254.42 42.12C254.76 42.12 255.06 42.1467 255.32 42.2C255.586 42.2533 255.84 42.3233 256.08 42.41L255.29 44.63C255.083 44.5767 254.886 44.5367 254.7 44.51C254.513 44.4767 254.303 44.46 254.07 44.46C253.336 44.46 252.696 44.7467 252.15 45.32C251.61 45.8867 251.19 46.6567 250.89 47.63V51.17H253V53H246.76ZM253.85 46.54V43.73L254.21 42.41H256.08L255.61 46.54H253.85ZM276.144 37.9L278.784 38.18V53H276.444L276.284 51.75C275.957 52.2167 275.547 52.5933 275.054 52.88C274.561 53.16 273.987 53.3 273.334 53.3C272.441 53.3 271.701 53.0667 271.114 52.6C270.534 52.1333 270.101 51.48 269.814 50.64C269.534 49.7933 269.394 48.81 269.394 47.69C269.394 46.61 269.561 45.65 269.894 44.81C270.227 43.97 270.707 43.31 271.334 42.83C271.967 42.35 272.717 42.11 273.584 42.11C274.104 42.11 274.577 42.2 275.004 42.38C275.431 42.56 275.811 42.8267 276.144 43.18V37.9ZM274.294 44.08C273.627 44.08 273.101 44.37 272.714 44.95C272.334 45.5233 272.144 46.44 272.144 47.7C272.144 48.5867 272.224 49.2967 272.384 49.83C272.544 50.3567 272.771 50.7367 273.064 50.97C273.357 51.2033 273.704 51.32 274.104 51.32C274.544 51.32 274.931 51.19 275.264 50.93C275.604 50.6633 275.897 50.3333 276.144 49.94V45.12C275.897 44.7933 275.621 44.54 275.314 44.36C275.014 44.1733 274.674 44.08 274.294 44.08ZM286.076 42.11C287.13 42.11 288.023 42.34 288.756 42.8C289.49 43.26 290.046 43.91 290.426 44.75C290.813 45.5833 291.006 46.56 291.006 47.68C291.006 48.8267 290.813 49.82 290.426 50.66C290.04 51.5 289.48 52.15 288.746 52.61C288.013 53.07 287.12 53.3 286.066 53.3C285.02 53.3 284.126 53.0767 283.386 52.63C282.653 52.1767 282.093 51.5333 281.706 50.7C281.32 49.86 281.126 48.86 281.126 47.7C281.126 46.5933 281.32 45.62 281.706 44.78C282.093 43.94 282.656 43.2867 283.396 42.82C284.136 42.3467 285.03 42.11 286.076 42.11ZM286.076 44.1C285.336 44.1 284.783 44.39 284.416 44.97C284.056 45.55 283.876 46.46 283.876 47.7C283.876 48.9533 284.056 49.87 284.416 50.45C284.776 51.0233 285.326 51.31 286.066 51.31C286.806 51.31 287.356 51.0233 287.716 50.45C288.076 49.87 288.256 48.9467 288.256 47.68C288.256 46.4467 288.076 45.5433 287.716 44.97C287.356 44.39 286.81 44.1 286.076 44.1ZM314.161 52.41C313.767 52.67 313.291 52.8833 312.731 53.05C312.171 53.2167 311.564 53.3 310.911 53.3C309.617 53.3 308.644 52.9667 307.991 52.3C307.337 51.6267 307.011 50.7333 307.011 49.62V44.28H304.711V42.41H307.011V40.08L309.651 39.76V42.41H313.151L312.881 44.28H309.651V49.61C309.651 50.1567 309.784 50.5567 310.051 50.81C310.317 51.0633 310.747 51.19 311.341 51.19C311.721 51.19 312.067 51.1467 312.381 51.06C312.701 50.9667 312.991 50.85 313.251 50.71L314.161 52.41ZM318.943 48.51C318.996 49.17 319.146 49.7067 319.393 50.12C319.646 50.5333 319.969 50.8367 320.363 51.03C320.756 51.2233 321.193 51.32 321.673 51.32C322.179 51.32 322.656 51.24 323.103 51.08C323.549 50.92 323.989 50.6967 324.423 50.41L325.523 51.92C325.029 52.3333 324.439 52.6667 323.753 52.92C323.073 53.1733 322.323 53.3 321.503 53.3C320.356 53.3 319.389 53.0633 318.603 52.59C317.823 52.1167 317.233 51.46 316.833 50.62C316.433 49.78 316.233 48.8133 316.233 47.72C316.233 46.6667 316.429 45.7167 316.823 44.87C317.216 44.0233 317.783 43.3533 318.523 42.86C319.263 42.36 320.156 42.11 321.203 42.11C322.176 42.11 323.016 42.3233 323.723 42.75C324.429 43.1767 324.976 43.79 325.363 44.59C325.749 45.3833 325.943 46.34 325.943 47.46C325.943 47.64 325.936 47.8233 325.923 48.01C325.916 48.1967 325.906 48.3633 325.893 48.51H318.943ZM321.213 43.97C320.573 43.97 320.046 44.2 319.633 44.66C319.226 45.1133 318.986 45.8333 318.913 46.82H323.373C323.359 45.9267 323.173 45.23 322.813 44.73C322.459 44.2233 321.926 43.97 321.213 43.97ZM335.895 42.11C336.348 42.11 336.735 42.2067 337.055 42.4C337.375 42.5867 337.622 42.9033 337.795 43.35C337.968 43.79 338.055 44.39 338.055 45.15V53H335.755V45.48C335.755 45 335.715 44.66 335.635 44.46C335.562 44.26 335.392 44.16 335.125 44.16C334.905 44.16 334.682 44.2267 334.455 44.36C334.235 44.4867 334.005 44.7167 333.765 45.05V53H331.775V45.48C331.775 45 331.735 44.66 331.655 44.46C331.582 44.26 331.412 44.16 331.145 44.16C330.918 44.16 330.695 44.2267 330.475 44.36C330.255 44.4867 330.025 44.7167 329.785 45.05V53H327.455V42.41H329.425L329.595 43.51C329.908 43.07 330.238 42.7267 330.585 42.48C330.932 42.2333 331.348 42.11 331.835 42.11C332.235 42.11 332.588 42.21 332.895 42.41C333.208 42.6033 333.432 42.9367 333.565 43.41C333.872 43.0233 334.215 42.71 334.595 42.47C334.975 42.23 335.408 42.11 335.895 42.11ZM345.507 42.11C346.441 42.11 347.187 42.34 347.747 42.8C348.314 43.2533 348.724 43.8967 348.977 44.73C349.237 45.5633 349.367 46.5467 349.367 47.68C349.367 48.7667 349.211 49.7333 348.897 50.58C348.584 51.4267 348.124 52.0933 347.517 52.58C346.917 53.06 346.177 53.3 345.297 53.3C344.217 53.3 343.344 52.9167 342.677 52.15V57.08L340.037 57.36V42.41H342.357L342.497 43.7C342.917 43.1533 343.387 42.7533 343.907 42.5C344.427 42.24 344.961 42.11 345.507 42.11ZM344.737 44.09C344.291 44.09 343.897 44.2233 343.557 44.49C343.224 44.7567 342.931 45.0867 342.677 45.48V50.22C342.917 50.58 343.191 50.85 343.497 51.03C343.804 51.21 344.151 51.3 344.537 51.3C345.211 51.3 345.724 51.02 346.077 50.46C346.437 49.8933 346.617 48.9767 346.617 47.71C346.617 46.8167 346.544 46.1067 346.397 45.58C346.257 45.0467 346.047 44.6667 345.767 44.44C345.487 44.2067 345.144 44.09 344.737 44.09ZM356.109 42.11C357.163 42.11 358.056 42.34 358.789 42.8C359.523 43.26 360.079 43.91 360.459 44.75C360.846 45.5833 361.039 46.56 361.039 47.68C361.039 48.8267 360.846 49.82 360.459 50.66C360.073 51.5 359.513 52.15 358.779 52.61C358.046 53.07 357.153 53.3 356.099 53.3C355.053 53.3 354.159 53.0767 353.419 52.63C352.686 52.1767 352.126 51.5333 351.739 50.7C351.353 49.86 351.159 48.86 351.159 47.7C351.159 46.5933 351.353 45.62 351.739 44.78C352.126 43.94 352.689 43.2867 353.429 42.82C354.169 42.3467 355.063 42.11 356.109 42.11ZM356.109 44.1C355.369 44.1 354.816 44.39 354.449 44.97C354.089 45.55 353.909 46.46 353.909 47.7C353.909 48.9533 354.089 49.87 354.449 50.45C354.809 51.0233 355.359 51.31 356.099 51.31C356.839 51.31 357.389 51.0233 357.749 50.45C358.109 49.87 358.289 48.9467 358.289 47.68C358.289 46.4467 358.109 45.5433 357.749 44.97C357.389 44.39 356.843 44.1 356.109 44.1ZM382.584 42.11C383.037 42.11 383.424 42.2067 383.744 42.4C384.064 42.5867 384.31 42.9033 384.484 43.35C384.657 43.79 384.744 44.39 384.744 45.15V53H382.444V45.48C382.444 45 382.404 44.66 382.324 44.46C382.25 44.26 382.08 44.16 381.814 44.16C381.594 44.16 381.37 44.2267 381.144 44.36C380.924 44.4867 380.694 44.7167 380.454 45.05V53H378.464V45.48C378.464 45 378.424 44.66 378.344 44.46C378.27 44.26 378.1 44.16 377.834 44.16C377.607 44.16 377.384 44.2267 377.164 44.36C376.944 44.4867 376.714 44.7167 376.474 45.05V53H374.144V42.41H376.114L376.284 43.51C376.597 43.07 376.927 42.7267 377.274 42.48C377.62 42.2333 378.037 42.11 378.524 42.11C378.924 42.11 379.277 42.21 379.584 42.41C379.897 42.6033 380.12 42.9367 380.254 43.41C380.56 43.0233 380.904 42.71 381.284 42.47C381.664 42.23 382.097 42.11 382.584 42.11ZM388.976 48.51C389.029 49.17 389.179 49.7067 389.426 50.12C389.679 50.5333 390.003 50.8367 390.396 51.03C390.789 51.2233 391.226 51.32 391.706 51.32C392.213 51.32 392.689 51.24 393.136 51.08C393.583 50.92 394.023 50.6967 394.456 50.41L395.556 51.92C395.063 52.3333 394.473 52.6667 393.786 52.92C393.106 53.1733 392.356 53.3 391.536 53.3C390.389 53.3 389.423 53.0633 388.636 52.59C387.856 52.1167 387.266 51.46 386.866 50.62C386.466 49.78 386.266 48.8133 386.266 47.72C386.266 46.6667 386.463 45.7167 386.856 44.87C387.249 44.0233 387.816 43.3533 388.556 42.86C389.296 42.36 390.189 42.11 391.236 42.11C392.209 42.11 393.049 42.3233 393.756 42.75C394.463 43.1767 395.009 43.79 395.396 44.59C395.783 45.3833 395.976 46.34 395.976 47.46C395.976 47.64 395.969 47.8233 395.956 48.01C395.949 48.1967 395.939 48.3633 395.926 48.51H388.976ZM391.246 43.97C390.606 43.97 390.079 44.2 389.666 44.66C389.259 45.1133 389.019 45.8333 388.946 46.82H393.406C393.393 45.9267 393.206 45.23 392.846 44.73C392.493 44.2233 391.959 43.97 391.246 43.97ZM415.4 51.18C415.867 51.18 416.304 51.0933 416.71 50.92C417.124 50.7467 417.52 50.5267 417.9 50.26L419.1 51.95C418.634 52.3433 418.07 52.6667 417.41 52.92C416.75 53.1733 416.044 53.3 415.29 53.3C414.184 53.3 413.234 53.07 412.44 52.61C411.654 52.1433 411.047 51.4967 410.62 50.67C410.2 49.8367 409.99 48.87 409.99 47.77C409.99 46.6833 410.204 45.7133 410.63 44.86C411.064 44 411.677 43.3267 412.47 42.84C413.27 42.3533 414.224 42.11 415.33 42.11C416.09 42.11 416.777 42.22 417.39 42.44C418.01 42.6533 418.577 42.9733 419.09 43.4L417.92 45.02C417.527 44.7467 417.12 44.54 416.7 44.4C416.287 44.2533 415.857 44.18 415.41 44.18C414.63 44.18 413.994 44.4633 413.5 45.03C413.014 45.59 412.77 46.5033 412.77 47.77C412.77 48.6033 412.884 49.27 413.11 49.77C413.344 50.27 413.657 50.63 414.05 50.85C414.45 51.07 414.9 51.18 415.4 51.18ZM426.143 42.11C427.196 42.11 428.089 42.34 428.823 42.8C429.556 43.26 430.113 43.91 430.493 44.75C430.879 45.5833 431.073 46.56 431.073 47.68C431.073 48.8267 430.879 49.82 430.493 50.66C430.106 51.5 429.546 52.15 428.813 52.61C428.079 53.07 427.186 53.3 426.133 53.3C425.086 53.3 424.193 53.0767 423.453 52.63C422.719 52.1767 422.159 51.5333 421.773 50.7C421.386 49.86 421.193 48.86 421.193 47.7C421.193 46.5933 421.386 45.62 421.773 44.78C422.159 43.94 422.723 43.2867 423.463 42.82C424.203 42.3467 425.096 42.11 426.143 42.11ZM426.143 44.1C425.403 44.1 424.849 44.39 424.483 44.97C424.123 45.55 423.943 46.46 423.943 47.7C423.943 48.9533 424.123 49.87 424.483 50.45C424.843 51.0233 425.393 51.31 426.133 51.31C426.873 51.31 427.423 51.0233 427.783 50.45C428.143 49.87 428.323 48.9467 428.323 47.68C428.323 46.4467 428.143 45.5433 427.783 44.97C427.423 44.39 426.876 44.1 426.143 44.1ZM433.415 53V42.41H435.715L435.905 43.72C436.358 43.1867 436.868 42.7867 437.435 42.52C438.001 42.2467 438.611 42.11 439.265 42.11C440.218 42.11 440.945 42.3867 441.445 42.94C441.945 43.4867 442.195 44.2567 442.195 45.25V53H439.555V46.28C439.555 45.7467 439.521 45.32 439.455 45C439.388 44.6733 439.261 44.44 439.075 44.3C438.888 44.1533 438.618 44.08 438.265 44.08C437.978 44.08 437.701 44.1433 437.435 44.27C437.175 44.3967 436.928 44.5667 436.695 44.78C436.468 44.9933 436.255 45.23 436.055 45.49V53H433.415ZM447.727 37.93V43.6C448.167 43.1 448.66 42.7267 449.207 42.48C449.76 42.2333 450.337 42.11 450.937 42.11C451.91 42.11 452.64 42.3867 453.127 42.94C453.62 43.4867 453.867 44.2567 453.867 45.25V53H451.227V45.84C451.227 45.2 451.127 44.7467 450.927 44.48C450.734 44.2133 450.4 44.08 449.927 44.08C449.647 44.08 449.374 44.1467 449.107 44.28C448.847 44.4067 448.6 44.58 448.367 44.8C448.14 45.02 447.927 45.2667 447.727 45.54V53H445.087V38.19L447.727 37.93ZM459.009 48.51C459.062 49.17 459.212 49.7067 459.459 50.12C459.712 50.5333 460.036 50.8367 460.429 51.03C460.822 51.2233 461.259 51.32 461.739 51.32C462.246 51.32 462.722 51.24 463.169 51.08C463.616 50.92 464.056 50.6967 464.489 50.41L465.589 51.92C465.096 52.3333 464.506 52.6667 463.819 52.92C463.139 53.1733 462.389 53.3 461.569 53.3C460.422 53.3 459.456 53.0633 458.669 52.59C457.889 52.1167 457.299 51.46 456.899 50.62C456.499 49.78 456.299 48.8133 456.299 47.72C456.299 46.6667 456.496 45.7167 456.889 44.87C457.282 44.0233 457.849 43.3533 458.589 42.86C459.329 42.36 460.222 42.11 461.269 42.11C462.242 42.11 463.082 42.3233 463.789 42.75C464.496 43.1767 465.042 43.79 465.429 44.59C465.816 45.3833 466.009 46.34 466.009 47.46C466.009 47.64 466.002 47.8233 465.989 48.01C465.982 48.1967 465.972 48.3633 465.959 48.51H459.009ZM461.279 43.97C460.639 43.97 460.112 44.2 459.699 44.66C459.292 45.1133 459.052 45.8333 458.979 46.82H463.439C463.426 45.9267 463.239 45.23 462.879 44.73C462.526 44.2233 461.992 43.97 461.279 43.97ZM473.761 51.18C474.228 51.18 474.665 51.0933 475.071 50.92C475.485 50.7467 475.881 50.5267 476.261 50.26L477.461 51.95C476.995 52.3433 476.431 52.6667 475.771 52.92C475.111 53.1733 474.405 53.3 473.651 53.3C472.545 53.3 471.595 53.07 470.801 52.61C470.015 52.1433 469.408 51.4967 468.981 50.67C468.561 49.8367 468.351 48.87 468.351 47.77C468.351 46.6833 468.565 45.7133 468.991 44.86C469.425 44 470.038 43.3267 470.831 42.84C471.631 42.3533 472.585 42.11 473.691 42.11C474.451 42.11 475.138 42.22 475.751 42.44C476.371 42.6533 476.938 42.9733 477.451 43.4L476.281 45.02C475.888 44.7467 475.481 44.54 475.061 44.4C474.648 44.2533 474.218 44.18 473.771 44.18C472.991 44.18 472.355 44.4633 471.861 45.03C471.375 45.59 471.131 46.5033 471.131 47.77C471.131 48.6033 471.245 49.27 471.471 49.77C471.705 50.27 472.018 50.63 472.411 50.85C472.811 51.07 473.261 51.18 473.761 51.18ZM482.353 48.51C482.407 49.17 482.557 49.7067 482.803 50.12C483.057 50.5333 483.38 50.8367 483.773 51.03C484.167 51.2233 484.603 51.32 485.083 51.32C485.59 51.32 486.067 51.24 486.513 51.08C486.96 50.92 487.4 50.6967 487.833 50.41L488.933 51.92C488.44 52.3333 487.85 52.6667 487.163 52.92C486.483 53.1733 485.733 53.3 484.913 53.3C483.767 53.3 482.8 53.0633 482.013 52.59C481.233 52.1167 480.643 51.46 480.243 50.62C479.843 49.78 479.643 48.8133 479.643 47.72C479.643 46.6667 479.84 45.7167 480.233 44.87C480.627 44.0233 481.193 43.3533 481.933 42.86C482.673 42.36 483.567 42.11 484.613 42.11C485.587 42.11 486.427 42.3233 487.133 42.75C487.84 43.1767 488.387 43.79 488.773 44.59C489.16 45.3833 489.353 46.34 489.353 47.46C489.353 47.64 489.347 47.8233 489.333 48.01C489.327 48.1967 489.317 48.3633 489.303 48.51H482.353ZM484.623 43.97C483.983 43.97 483.457 44.2 483.043 44.66C482.637 45.1133 482.397 45.8333 482.323 46.82H486.783C486.77 45.9267 486.583 45.23 486.223 44.73C485.87 44.2233 485.337 43.97 484.623 43.97ZM496.106 38.87C497.059 38.87 497.859 39.0233 498.506 39.33C499.152 39.63 499.642 40.03 499.976 40.53C500.309 41.0233 500.476 41.5533 500.476 42.12C500.476 42.7667 500.352 43.2933 500.106 43.7C499.859 44.1067 499.552 44.45 499.186 44.73C498.826 45.0033 498.462 45.2667 498.096 45.52C497.729 45.7667 497.422 46.05 497.176 46.37C496.929 46.6833 496.806 47.09 496.806 47.59V48.1H494.336V47.49C494.336 46.8167 494.449 46.2633 494.676 45.83C494.909 45.3967 495.192 45.0367 495.526 44.75C495.866 44.4633 496.202 44.2067 496.536 43.98C496.876 43.7533 497.159 43.5167 497.386 43.27C497.619 43.0167 497.736 42.7033 497.736 42.33C497.736 41.8967 497.559 41.5633 497.206 41.33C496.852 41.09 496.406 40.97 495.866 40.97C495.406 40.97 494.946 41.0767 494.486 41.29C494.032 41.5033 493.616 41.8333 493.236 42.28L491.526 40.96C492.099 40.28 492.766 39.7633 493.526 39.41C494.286 39.05 495.146 38.87 496.106 38.87ZM495.616 50.01C496.076 50.01 496.466 50.1733 496.786 50.5C497.106 50.82 497.266 51.2033 497.266 51.65C497.266 52.1033 497.106 52.4933 496.786 52.82C496.466 53.14 496.076 53.3 495.616 53.3C495.156 53.3 494.766 53.14 494.446 52.82C494.132 52.4933 493.976 52.1033 493.976 51.65C493.976 51.2033 494.132 50.82 494.446 50.5C494.766 50.1733 495.156 50.01 495.616 50.01Z" fill="#FBFFFD"/>
</svg>
