<?xml version="1.0" encoding="UTF-8"?>
<svg id="Camada_2" data-name="Camada 2" xmlns="http://www.w3.org/2000/svg" viewBox="0 0 42.86 42.85">
  <defs>
    <style>
      .cls-1 {
        fill: #b1b1b1;
      }

      .cls-2 {
        fill: #2e0035;
      }
    </style>
  </defs>
  <g id="Camada_1-2" data-name="Camada 1">
    <g>
      <circle class="cls-2" cx="21.42" cy="21.43" r="19.76"/>
      <path class="cls-1" d="m21.45,42.85c-6.92,0-13.72-3.34-17.84-9.51C-2.96,23.51-.31,10.17,9.52,3.62,14.27.42,20.01-.69,25.6.41c5.61,1.11,10.47,4.34,13.63,9.11,3.19,4.75,4.33,10.47,3.21,16.08-1.11,5.61-4.34,10.47-9.11,13.64-3.65,2.45-7.78,3.61-11.88,3.61Zm-.05-39.5c-3.45,0-6.93.98-10.02,3.04C3.1,11.94.86,23.19,6.38,31.48c5.56,8.28,16.81,10.5,25.09,4.98,8.29-5.56,10.52-16.81,4.98-25.09h0c-3.48-5.21-9.22-8.02-15.06-8.02Z"/>
    </g>
  </g>
</svg>