<svg width="65" height="46" viewBox="0 0 65 46" fill="none" xmlns="http://www.w3.org/2000/svg">
<g clip-path="url(#clip0_37_163)">
<path d="M53.78 28.22C54.5919 28.22 55.25 27.5619 55.25 26.75C55.25 25.9382 54.5919 25.28 53.78 25.28C52.9681 25.28 52.31 25.9382 52.31 26.75C52.31 27.5619 52.9681 28.22 53.78 28.22Z" fill="#2E0035" stroke="#B1B1B1" stroke-width="0.25" stroke-miterlimit="10"/>
<path d="M47 39.81H17.27C16.8613 39.81 16.53 40.1413 16.53 40.55V40.65C16.53 41.0587 16.8613 41.39 17.27 41.39H47C47.4087 41.39 47.74 41.0587 47.74 40.65V40.55C47.74 40.1413 47.4087 39.81 47 39.81Z" fill="#979797" stroke="#979797" stroke-width="0.25" stroke-miterlimit="10"/>
<path d="M56.98 23.94H6.98001L5.98001 40.94H7.94001L9.90001 42.94H54.98L56.88 40.93H58.98L56.98 23.94ZM55.98 37.94C55.9 39.1 55.14 39.8 54.98 39.94H48.98C49.14 40.45 49.04 40.8 48.98 40.94C48.69 41.67 47.68 42.14 46.5 41.94H16.98C16.47 41.81 15.71 41.55 14.98 40.94C14.73 40.73 14.52 40.51 14.35 40.31H10.16C8.96001 40.31 7.98001 39.33 7.98001 38.13V33.94C8.07001 33.5 8.31001 32.69 8.98001 31.94C9.33001 31.55 9.69001 31.28 9.98001 31.11V28.62C9.88001 28.56 9.06001 27.99 8.98001 26.94C8.92001 26.15 9.31001 25.39 9.98001 24.94C24.98 25.17 39.98 24.71 54.98 24.94C55.22 25.22 55.87 26.72 55.98 27.94C56.12 29.59 55.16 30.73 54.98 30.94V35.52C55.1 35.63 56.08 36.53 55.98 37.94Z" fill="#1A1A1A"/>
<path d="M7.84001 8.47003H55.91L58.85 23.8C58.92 24.15 58.64 24.47 58.27 24.47L7.42001 24.49C7.09001 24.49 6.84001 24.21 6.86001 23.89L7.84001 8.47003Z" fill="#1A1A1A"/>
<path d="M13.46 7.94H51.48C49.85 8.25 48.6 9.56 48.4 11.1C48.15 12.97 49.46 14.88 51.48 15.32C49.61 17 43.37 22.18 33.92 22.67C22.67 23.25 15.06 16.75 13.46 15.32C15.48 14.89 16.79 12.97 16.54 11.1C16.33 9.55 15.09 8.25 13.46 7.94Z" fill="#4D4D4D"/>
<path d="M19.21 16.2501L23.75 13.4901" stroke="#1A1A1A" stroke-width="0.05" stroke-miterlimit="10"/>
<path d="M18.45 15.52L22.98 12.76" stroke="#1A1A1A" stroke-width="0.05" stroke-miterlimit="10"/>
<path d="M20.39 17.15L24.53 14.14" stroke="#1A1A1A" stroke-width="0.05" stroke-miterlimit="10"/>
<path d="M21.73 17.8L25.31 14.7" stroke="#1A1A1A" stroke-width="0.05" stroke-miterlimit="10"/>
<path d="M23.1 18.52L26.29 15.29" stroke="#1A1A1A" stroke-width="0.05" stroke-miterlimit="10"/>
<path d="M24.69 18.98L27.15 15.73" stroke="#1A1A1A" stroke-width="0.05" stroke-miterlimit="10"/>
<path d="M26.07 19.42L27.98 16.09" stroke="#1A1A1A" stroke-width="0.05" stroke-miterlimit="10"/>
<path d="M27.31 19.7L28.78 16.37" stroke="#1A1A1A" stroke-width="0.05" stroke-miterlimit="10"/>
<path d="M28.44 19.94L29.66 16.6" stroke="#1A1A1A" stroke-width="0.05" stroke-miterlimit="10"/>
<path d="M29.82 20.13L30.5 16.79" stroke="#1A1A1A" stroke-width="0.05" stroke-miterlimit="10"/>
<path d="M31.13 20.28L31.33 16.9" stroke="#1A1A1A" stroke-width="0.05" stroke-miterlimit="10"/>
<path d="M32.15 20.46L32.29 16.94" stroke="#1A1A1A" stroke-width="0.05" stroke-miterlimit="10"/>
<path d="M33.44 20.44L33.26 16.92" stroke="#1A1A1A" stroke-width="0.05" stroke-miterlimit="10"/>
<path d="M34.74 20.51L33.99 16.83" stroke="#1A1A1A" stroke-width="0.05" stroke-miterlimit="10"/>
<path d="M36.35 20.46L34.81 16.73" stroke="#1A1A1A" stroke-width="0.05" stroke-miterlimit="10"/>
<path d="M37.8 20.33L35.68 16.55" stroke="#1A1A1A" stroke-width="0.05" stroke-miterlimit="10"/>
<path d="M38.96 20.02L36.63 16.22" stroke="#1A1A1A" stroke-width="0.05" stroke-miterlimit="10"/>
<path d="M40.18 19.61L37.37 15.95" stroke="#1A1A1A" stroke-width="0.05" stroke-miterlimit="10"/>
<path d="M41.44 19.23L38.16 15.61" stroke="#1A1A1A" stroke-width="0.05" stroke-miterlimit="10"/>
<path d="M42.64 18.54L38.95 15.14" stroke="#1A1A1A" stroke-width="0.05" stroke-miterlimit="10"/>
<path d="M43.47 18.01L39.78 14.61" stroke="#1A1A1A" stroke-width="0.05" stroke-miterlimit="10"/>
<path d="M44.3 17.36L40.61 13.96" stroke="#1A1A1A" stroke-width="0.05" stroke-miterlimit="10"/>
<path d="M44.98 16.75L41.29 13.35" stroke="#1A1A1A" stroke-width="0.05" stroke-miterlimit="10"/>
<path d="M45.81 15.91L41.94 12.71" stroke="#1A1A1A" stroke-width="0.05" stroke-miterlimit="10"/>
<path d="M45.78 15.88L46.77 16.37L46.49 16.51L45.78 15.88Z" fill="#666666"/>
<path d="M45.78 15.88L45.85 16.25L46.47 16.8L46.76 16.69L46.77 16.37L46.49 16.51" fill="#1A1A1A"/>
<path d="M44.91 16.65L45.89 17.15L45.62 17.29L44.91 16.65Z" fill="#666666"/>
<path d="M44.91 16.65L44.97 17.03L45.6 17.57L45.89 17.46V17.15L45.62 17.29" fill="#1A1A1A"/>
<path d="M44.28 17.32L45.26 17.82L44.99 17.96L44.28 17.32Z" fill="#666666"/>
<path d="M44.28 17.32L44.34 17.69L44.97 18.24L45.25 18.13L45.26 17.82L44.99 17.96" fill="#1A1A1A"/>
<path d="M43.42 17.93L44.41 18.43L44.13 18.57L43.42 17.93Z" fill="#666666"/>
<path d="M43.42 17.93L43.49 18.31L44.11 18.86L44.4 18.74L44.41 18.43L44.13 18.57" fill="#1A1A1A"/>
<path d="M42.59 18.47L43.57 18.97L43.3 19.11L42.59 18.47Z" fill="#666666"/>
<path d="M42.59 18.47L42.65 18.85L43.28 19.39L43.57 19.28V18.97L43.3 19.11" fill="#1A1A1A"/>
<path d="M41.38 19.13L42.37 19.62L42.09 19.76L41.38 19.13Z" fill="#666666"/>
<path d="M41.38 19.13L41.45 19.5L42.07 20.05L42.36 19.94L42.37 19.62L42.09 19.76" fill="#1A1A1A"/>
<path d="M40.15 19.56L41.13 20.06L40.86 20.2L40.15 19.56Z" fill="#666666"/>
<path d="M40.15 19.56L40.21 19.93L40.84 20.48L41.13 20.37V20.06L40.86 20.2" fill="#1A1A1A"/>
<path d="M38.94 19.96L39.9 20.52L39.62 20.64L38.94 19.96Z" fill="#666666"/>
<path d="M38.94 19.96L38.99 20.34L39.58 20.92L39.87 20.83L39.9 20.52L39.62 20.64" fill="#1A1A1A"/>
<path d="M37.75 20.23L38.7 20.8L38.41 20.92L37.75 20.23Z" fill="#666666"/>
<path d="M37.75 20.23L37.79 20.61L38.37 21.2L38.67 21.11L38.7 20.8L38.41 20.92" fill="#1A1A1A"/>
<path d="M36.32 20.39L37.27 20.96L36.98 21.08L36.32 20.39Z" fill="#666666"/>
<path d="M36.32 20.39L36.36 20.77L36.94 21.36L37.24 21.27L37.27 20.96L36.98 21.08" fill="#1A1A1A"/>
<path d="M33.43 20.38L34.25 21.11L33.95 21.18L33.43 20.38Z" fill="#666666"/>
<path d="M33.43 20.38L33.39 20.76L33.86 21.45L34.17 21.41L34.25 21.11L33.95 21.18" fill="#1A1A1A"/>
<path d="M32.13 20.36L32.96 21.1L32.66 21.16L32.13 20.36Z" fill="#666666"/>
<path d="M32.13 20.36L32.1 20.74L32.57 21.43L32.87 21.4L32.96 21.1L32.66 21.16" fill="#1A1A1A"/>
<path d="M31.11 20.23L31.94 20.96L31.64 21.03L31.11 20.23Z" fill="#666666"/>
<path d="M31.11 20.23L31.08 20.61L31.55 21.3L31.85 21.26L31.94 20.96L31.64 21.03" fill="#1A1A1A"/>
<path d="M29.79 20.09L30.62 20.83L30.32 20.89L29.79 20.09Z" fill="#666666"/>
<path d="M29.79 20.09L29.76 20.47L30.23 21.16L30.53 21.13L30.62 20.83L30.32 20.89" fill="#1A1A1A"/>
<path d="M28.41 19.9L29.24 20.63L28.94 20.7L28.41 19.9Z" fill="#666666"/>
<path d="M28.41 19.9L28.38 20.28L28.85 20.97L29.15 20.93L29.24 20.63L28.94 20.7" fill="#1A1A1A"/>
<path d="M26.08 19.33L26.6 20.3L26.3 20.26L26.08 19.33Z" fill="#666666"/>
<path d="M26.08 19.33L25.92 19.67L26.12 20.48L26.42 20.55L26.6 20.3L26.3 20.26" fill="#1A1A1A"/>
<path d="M23.12 18.46L23.52 19.49L23.23 19.41L23.12 18.46Z" fill="#666666"/>
<path d="M23.12 18.46L22.92 18.79L23.02 19.61L23.31 19.72L23.52 19.49L23.23 19.41" fill="#1A1A1A"/>
<path d="M21.73 17.76L22.14 18.78L21.84 18.7L21.73 17.76Z" fill="#666666"/>
<path d="M21.73 17.76L21.53 18.08L21.63 18.9L21.92 19.01L22.14 18.78L21.84 18.7" fill="#1A1A1A"/>
<path d="M19.23 16.19L19.43 17.27L19.15 17.14L19.23 16.19Z" fill="#666666"/>
<path d="M19.23 16.19L18.97 16.46L18.91 17.29L19.17 17.46L19.43 17.27L19.15 17.14" fill="#1A1A1A"/>
<path d="M20.45 17.05L20.54 18.15L20.28 17.99L20.45 17.05Z" fill="#666666"/>
<path d="M20.45 17.05L20.16 17.3L20.02 18.1201L20.27 18.3L20.54 18.15L20.28 17.99" fill="#1A1A1A"/>
<path d="M18.62 15.38L18.53 16.48L18.29 16.28L18.62 15.38Z" fill="#666666"/>
<path d="M18.62 15.38L18.3 15.58L18.02 16.37L18.23 16.59L18.53 16.48L18.29 16.28" fill="#1A1A1A"/>
<path d="M24.7 18.9L25.11 19.93L24.81 19.85L24.7 18.9Z" fill="#666666"/>
<path d="M24.7 18.9L24.5 19.23L24.61 20.05L24.89 20.16L25.11 19.93L24.81 19.85" fill="#1A1A1A"/>
<path d="M27.31 19.63L27.94 20.54L27.64 20.53L27.31 19.63Z" fill="#666666"/>
<path d="M27.31 19.63L27.19 19.99L27.48 20.77L27.79 20.81L27.94 20.54L27.64 20.53" fill="#1A1A1A"/>
<path d="M34.72 20.44L35.58 21.13L35.29 21.21L34.72 20.44Z" fill="#666666"/>
<path d="M34.72 20.44L34.7 20.82L35.21 21.48L35.51 21.43L35.58 21.13L35.29 21.21" fill="#1A1A1A"/>
<path d="M25.94 10.6H31.59L31.56 7.94H33.45V10.6H38.71L41.94 12.71C41.25 13.45 38.05 16.73 32.94 16.93C27.21 17.16 23.53 13.34 22.94 12.71C23.94 12.01 24.94 11.3 25.94 10.6Z" fill="#808080"/>
<path d="M55.01 6.53998L57.95 6.55998C58.13 6.64998 58.41 6.82998 58.49 7.07998C58.6 7.45998 58.12 7.74998 57.95 7.83998H55.01V6.54998V6.53998Z" fill="black"/>
<path d="M58.6 5.09998H59.84C60.03 5.42998 60.35 6.09998 60.36 6.99998C60.38 8.25998 59.78 9.14998 59.56 9.43998L58.59 9.32998" fill="#333333"/>
<path d="M58.6 9.31998C58.9921 9.31998 59.31 8.3753 59.31 7.20998C59.31 6.04465 58.9921 5.09998 58.6 5.09998C58.2079 5.09998 57.89 6.04465 57.89 7.20998C57.89 8.3753 58.2079 9.31998 58.6 9.31998Z" fill="black"/>
<path d="M4.98 7.94L0 45.94H64.98L56.98 7.94H4.98Z" fill="black"/>
<path d="M7.44999 7.94H55.52L58.46 23.27C58.53 23.62 58.25 23.94 57.88 23.94L7.02999 23.96C6.69999 23.96 6.44999 23.68 6.46999 23.36L7.44999 7.94Z" fill="#1A1A1A"/>
<path d="M55.67 3.27001H56.05C56.05 3.27001 56.12 2.89001 57.79 2.99001L58.38 2.57001H58.77V2.81001C58.61 2.95001 58.37 3.13001 58.06 3.27001C57.52 3.51001 57.03 3.53001 56.76 3.52001V3.94001L55.67 3.97001V3.27001Z" fill="#808080"/>
<path d="M7.98001 0.94V0H56.04V3.94H57.11C57.22 4.15 57.38 4.52 57.41 5C57.46 5.69 57.23 6.21 57.11 6.44H56.26L55.98 7.94H8.19001L7.98001 3.5V0.94Z" fill="#333333"/>
<path d="M53.98 3.94H9.98001V4.94H53.98V3.94Z" fill="black"/>
<path d="M10.29 3.94H53.98V2.86H45.01C44.89 2.37 44.51 2 44.05 1.94C43.49 1.86 42.91 2.25 42.75 2.86H22.2C22.13 2.35 21.71 1.96 21.21 1.94C20.68 1.92 20.21 2.32 20.14 2.86H10.29V3.94Z" fill="#979797"/>
<path d="M10.29 1.33002C10.29 1.33002 9.73002 1.48002 9.58002 2.02002C9.42002 2.57002 9.69002 3.35002 10.29 3.65002V1.33002Z" fill="#979797"/>
<path d="M11.14 28.32C11.9022 28.32 12.52 27.7022 12.52 26.94C12.52 26.1778 11.9022 25.56 11.14 25.56C10.3779 25.56 9.76001 26.1778 9.76001 26.94C9.76001 27.7022 10.3779 28.32 11.14 28.32Z" fill="#2E0035" stroke="#B1B1B1" stroke-width="0.25" stroke-miterlimit="10"/>
<path d="M10.12 36.34C10.8821 36.34 11.5 35.7222 11.5 34.96C11.5 34.1979 10.8821 33.58 10.12 33.58C9.35784 33.58 8.73999 34.1979 8.73999 34.96C8.73999 35.7222 9.35784 36.34 10.12 36.34Z" fill="#2E0035" stroke="#B1B1B1" stroke-width="0.25" stroke-miterlimit="10"/>
<path d="M53.72 39.6C54.6202 39.6 55.35 38.8703 55.35 37.97C55.35 37.0698 54.6202 36.34 53.72 36.34C52.8198 36.34 52.09 37.0698 52.09 37.97C52.09 38.8703 52.8198 39.6 53.72 39.6Z" fill="#2E0035" stroke="#B1B1B1" stroke-width="0.25" stroke-miterlimit="10"/>
<path d="M10.36 40C11.2602 40 11.99 39.2702 11.99 38.37C11.99 37.4698 11.2602 36.74 10.36 36.74C9.45979 36.74 8.73001 37.4698 8.73001 38.37C8.73001 39.2702 9.45979 40 10.36 40Z" fill="#2E0035" stroke="#B1B1B1" stroke-width="0.25" stroke-miterlimit="10"/>
<path d="M27.24 10.64C27.38 10.87 28.94 13.33 32 13.54C34.26 13.7 36.45 12.57 37.64 10.64H27.23H27.24Z" fill="#979797"/>
<path d="M28.74 10.64C28.9 10.86 30.04 12.41 32.11 12.56C34.57 12.74 36.05 10.77 36.14 10.64" fill="#666666"/>
<path d="M9.22999 7.84999C9.84854 7.84999 10.35 7.19633 10.35 6.38999C10.35 5.58366 9.84854 4.92999 9.22999 4.92999C8.61143 4.92999 8.10999 5.58366 8.10999 6.38999C8.10999 7.19633 8.61143 7.84999 9.22999 7.84999Z" fill="#3A3A3A"/>
<path d="M8.92999 4.94H53.88C53.98 4.98 54.72 5.26 54.93 5.94C55.15 6.65 54.93 7.94 53.92 7.94H8.92999C9.74999 7.52 10.15 6.65 9.92999 5.94C9.71999 5.25 8.92999 4.94 8.92999 4.94Z" fill="#1A1A1A"/>
<path opacity="0.36" d="M8.33 2.71001H8.28C8.29 2.85001 8.33 2.96001 8.36 3.04001C8.43 3.23001 8.52 3.31001 8.56 3.49001C8.58 3.59001 8.57 3.67001 8.56 3.72001C8.59 3.72001 8.61 3.71001 8.64 3.70001C8.64 3.61001 8.64 3.51001 8.64 3.39001C8.59 3.06001 8.44 2.83001 8.34 2.70001L8.33 2.71001Z" fill="#1A1A1A"/>
<path d="M33.78 5.53998H34.25C34.25 5.53998 34.04 5.73998 34.07 6.00998C34.09 6.19998 34.21 6.30998 34.25 6.34998H40.1C40.66 6.74998 40.93 7.16998 40.82 7.36998C40.71 7.55998 40.26 7.51998 40.15 7.49998V8.03998L35.29 7.39998L35.34 8.73998C35.34 8.73998 35.19 8.91998 34.97 8.90998C34.78 8.89998 34.67 8.76998 34.66 8.73998C34.66 8.28998 34.67 7.84998 34.68 7.39998C34.21 7.50998 33.72 7.28998 33.5 6.87998C33.26 6.42998 33.38 5.85998 33.79 5.53998H33.78Z" fill="#666666"/>
<path d="M24.82 6.29999C27.06 6.29999 29.3 6.29999 31.54 6.29999C31.59 6.37999 31.66 6.47999 31.67 6.68999C31.69 6.96999 31.58 7.02999 31.54 7.10999H30.45V8.60999C30.39 8.70999 30.28 8.76999 30.17 8.74999C30.05 8.72999 29.98 8.61999 29.98 8.60999C29.96 8.10999 29.93 7.60999 29.91 7.10999H24.85C24.67 6.99999 24.57 6.80999 24.6 6.61999C24.63 6.41999 24.8 6.31999 24.83 6.29999H24.82Z" fill="#666666"/>
<path d="M11.09 4.59998V4.93998" stroke="#B1B1B1" stroke-width="0.03" stroke-miterlimit="10"/>
<path d="M10.9 4.59998V4.93998" stroke="#B1B1B1" stroke-width="0.03" stroke-miterlimit="10"/>
<path d="M11.32 4.44V4.94" stroke="#B1B1B1" stroke-width="0.06" stroke-miterlimit="10"/>
<path d="M11.71 4.59998V4.93998" stroke="#B1B1B1" stroke-width="0.03" stroke-miterlimit="10"/>
<path d="M11.51 4.59998V4.93998" stroke="#B1B1B1" stroke-width="0.03" stroke-miterlimit="10"/>
<path d="M11.94 4.44V4.94" stroke="#B1B1B1" stroke-width="0.06" stroke-miterlimit="10"/>
<path d="M12.35 4.59998V4.93998" stroke="#B1B1B1" stroke-width="0.03" stroke-miterlimit="10"/>
<path d="M12.16 4.59998V4.93998" stroke="#B1B1B1" stroke-width="0.03" stroke-miterlimit="10"/>
<path d="M12.58 4.44V4.94" stroke="#B1B1B1" stroke-width="0.06" stroke-miterlimit="10"/>
<path d="M13 4.59998V4.93998" stroke="#B1B1B1" stroke-width="0.03" stroke-miterlimit="10"/>
<path d="M12.81 4.59998V4.93998" stroke="#B1B1B1" stroke-width="0.03" stroke-miterlimit="10"/>
<path d="M13.23 4.44V4.94" stroke="#B1B1B1" stroke-width="0.06" stroke-miterlimit="10"/>
<path d="M13.65 4.59998V4.93998" stroke="#B1B1B1" stroke-width="0.03" stroke-miterlimit="10"/>
<path d="M13.45 4.59998V4.93998" stroke="#B1B1B1" stroke-width="0.03" stroke-miterlimit="10"/>
<path d="M13.88 4.44V4.94" stroke="#B1B1B1" stroke-width="0.06" stroke-miterlimit="10"/>
<path d="M14.3 4.59998V4.93998" stroke="#B1B1B1" stroke-width="0.03" stroke-miterlimit="10"/>
<path d="M14.11 4.59998V4.93998" stroke="#B1B1B1" stroke-width="0.03" stroke-miterlimit="10"/>
<path d="M14.53 4.44V4.94" stroke="#B1B1B1" stroke-width="0.06" stroke-miterlimit="10"/>
<path d="M14.96 4.59998V4.93998" stroke="#B1B1B1" stroke-width="0.03" stroke-miterlimit="10"/>
<path d="M14.77 4.59998V4.93998" stroke="#B1B1B1" stroke-width="0.03" stroke-miterlimit="10"/>
<path d="M15.19 4.44V4.94" stroke="#B1B1B1" stroke-width="0.06" stroke-miterlimit="10"/>
<path d="M15.6 4.59998V4.93998" stroke="#B1B1B1" stroke-width="0.03" stroke-miterlimit="10"/>
<path d="M15.4 4.59998V4.93998" stroke="#B1B1B1" stroke-width="0.03" stroke-miterlimit="10"/>
<path d="M15.82 4.44V4.94" stroke="#B1B1B1" stroke-width="0.06" stroke-miterlimit="10"/>
<path d="M16.2 4.59998V4.93998" stroke="#B1B1B1" stroke-width="0.03" stroke-miterlimit="10"/>
<path d="M16.01 4.59998V4.93998" stroke="#B1B1B1" stroke-width="0.03" stroke-miterlimit="10"/>
<path d="M16.43 4.44V4.94" stroke="#B1B1B1" stroke-width="0.06" stroke-miterlimit="10"/>
<path d="M16.83 4.59998V4.93998" stroke="#B1B1B1" stroke-width="0.03" stroke-miterlimit="10"/>
<path d="M16.64 4.59998V4.93998" stroke="#B1B1B1" stroke-width="0.03" stroke-miterlimit="10"/>
<path d="M17.06 4.44V4.94" stroke="#B1B1B1" stroke-width="0.06" stroke-miterlimit="10"/>
<path d="M17.47 4.59998V4.93998" stroke="#B1B1B1" stroke-width="0.03" stroke-miterlimit="10"/>
<path d="M17.28 4.59998V4.93998" stroke="#B1B1B1" stroke-width="0.03" stroke-miterlimit="10"/>
<path d="M17.7 4.44V4.94" stroke="#B1B1B1" stroke-width="0.06" stroke-miterlimit="10"/>
<path d="M18.13 4.59998V4.93998" stroke="#B1B1B1" stroke-width="0.03" stroke-miterlimit="10"/>
<path d="M17.94 4.59998V4.93998" stroke="#B1B1B1" stroke-width="0.03" stroke-miterlimit="10"/>
<path d="M18.36 4.44V4.94" stroke="#B1B1B1" stroke-width="0.06" stroke-miterlimit="10"/>
<path d="M18.85 4.59998V4.93998" stroke="#B1B1B1" stroke-width="0.03" stroke-miterlimit="10"/>
<path d="M18.65 4.59998V4.93998" stroke="#B1B1B1" stroke-width="0.03" stroke-miterlimit="10"/>
<path d="M19.08 4.44V4.94" stroke="#B1B1B1" stroke-width="0.06" stroke-miterlimit="10"/>
<path d="M19.55 4.58997V4.92997" stroke="#B1B1B1" stroke-width="0.03" stroke-miterlimit="10"/>
<path d="M19.36 4.58997V4.92997" stroke="#B1B1B1" stroke-width="0.03" stroke-miterlimit="10"/>
<path d="M19.78 4.42999V4.92999" stroke="#B1B1B1" stroke-width="0.06" stroke-miterlimit="10"/>
<path d="M20.17 4.58997V4.92997" stroke="#B1B1B1" stroke-width="0.03" stroke-miterlimit="10"/>
<path d="M19.97 4.58997V4.92997" stroke="#B1B1B1" stroke-width="0.03" stroke-miterlimit="10"/>
<path d="M20.4 4.42999V4.92999" stroke="#B1B1B1" stroke-width="0.06" stroke-miterlimit="10"/>
<path d="M20.81 4.58997V4.92997" stroke="#B1B1B1" stroke-width="0.03" stroke-miterlimit="10"/>
<path d="M20.62 4.58997V4.92997" stroke="#B1B1B1" stroke-width="0.03" stroke-miterlimit="10"/>
<path d="M21.04 4.42999V4.92999" stroke="#B1B1B1" stroke-width="0.06" stroke-miterlimit="10"/>
<path d="M21.46 4.58997V4.92997" stroke="#B1B1B1" stroke-width="0.03" stroke-miterlimit="10"/>
<path d="M21.27 4.58997V4.92997" stroke="#B1B1B1" stroke-width="0.03" stroke-miterlimit="10"/>
<path d="M21.69 4.42999V4.92999" stroke="#B1B1B1" stroke-width="0.06" stroke-miterlimit="10"/>
<path d="M22.11 4.58997V4.92997" stroke="#B1B1B1" stroke-width="0.03" stroke-miterlimit="10"/>
<path d="M21.91 4.58997V4.92997" stroke="#B1B1B1" stroke-width="0.03" stroke-miterlimit="10"/>
<path d="M22.33 4.42999V4.92999" stroke="#B1B1B1" stroke-width="0.06" stroke-miterlimit="10"/>
<path d="M22.76 4.58997V4.92997" stroke="#B1B1B1" stroke-width="0.03" stroke-miterlimit="10"/>
<path d="M22.57 4.58997V4.92997" stroke="#B1B1B1" stroke-width="0.03" stroke-miterlimit="10"/>
<path d="M22.99 4.42999V4.92999" stroke="#B1B1B1" stroke-width="0.06" stroke-miterlimit="10"/>
<path d="M23.42 4.58997V4.92997" stroke="#B1B1B1" stroke-width="0.03" stroke-miterlimit="10"/>
<path d="M23.23 4.58997V4.92997" stroke="#B1B1B1" stroke-width="0.03" stroke-miterlimit="10"/>
<path d="M23.65 4.42999V4.92999" stroke="#B1B1B1" stroke-width="0.06" stroke-miterlimit="10"/>
<path d="M24.06 4.58997V4.92997" stroke="#B1B1B1" stroke-width="0.03" stroke-miterlimit="10"/>
<path d="M23.86 4.58997V4.92997" stroke="#B1B1B1" stroke-width="0.03" stroke-miterlimit="10"/>
<path d="M24.28 4.42999V4.92999" stroke="#B1B1B1" stroke-width="0.06" stroke-miterlimit="10"/>
<path d="M24.66 4.58997V4.92997" stroke="#B1B1B1" stroke-width="0.03" stroke-miterlimit="10"/>
<path d="M24.47 4.58997V4.92997" stroke="#B1B1B1" stroke-width="0.03" stroke-miterlimit="10"/>
<path d="M24.89 4.42999V4.92999" stroke="#B1B1B1" stroke-width="0.06" stroke-miterlimit="10"/>
<path d="M25.29 4.58997V4.92997" stroke="#B1B1B1" stroke-width="0.03" stroke-miterlimit="10"/>
<path d="M25.1 4.58997V4.92997" stroke="#B1B1B1" stroke-width="0.03" stroke-miterlimit="10"/>
<path d="M25.52 4.42999V4.92999" stroke="#B1B1B1" stroke-width="0.06" stroke-miterlimit="10"/>
<path d="M25.93 4.58997V4.92997" stroke="#B1B1B1" stroke-width="0.03" stroke-miterlimit="10"/>
<path d="M25.74 4.58997V4.92997" stroke="#B1B1B1" stroke-width="0.03" stroke-miterlimit="10"/>
<path d="M26.16 4.42999V4.92999" stroke="#B1B1B1" stroke-width="0.06" stroke-miterlimit="10"/>
<path d="M26.59 4.58997V4.92997" stroke="#B1B1B1" stroke-width="0.03" stroke-miterlimit="10"/>
<path d="M26.4 4.58997V4.92997" stroke="#B1B1B1" stroke-width="0.03" stroke-miterlimit="10"/>
<path d="M26.82 4.42999V4.92999" stroke="#B1B1B1" stroke-width="0.06" stroke-miterlimit="10"/>
<path d="M27.31 4.58997V4.92997" stroke="#B1B1B1" stroke-width="0.03" stroke-miterlimit="10"/>
<path d="M27.11 4.58997V4.92997" stroke="#B1B1B1" stroke-width="0.03" stroke-miterlimit="10"/>
<path d="M27.54 4.42999V4.92999" stroke="#B1B1B1" stroke-width="0.06" stroke-miterlimit="10"/>
<path d="M28.04 4.59998V4.92998" stroke="#B1B1B1" stroke-width="0.03" stroke-miterlimit="10"/>
<path d="M27.84 4.59998V4.92998" stroke="#B1B1B1" stroke-width="0.03" stroke-miterlimit="10"/>
<path d="M28.27 4.42999V4.92999" stroke="#B1B1B1" stroke-width="0.06" stroke-miterlimit="10"/>
<path d="M28.66 4.59998V4.92998" stroke="#B1B1B1" stroke-width="0.03" stroke-miterlimit="10"/>
<path d="M28.46 4.59998V4.92998" stroke="#B1B1B1" stroke-width="0.03" stroke-miterlimit="10"/>
<path d="M28.88 4.42999V4.92999" stroke="#B1B1B1" stroke-width="0.06" stroke-miterlimit="10"/>
<path d="M29.3 4.59998V4.92998" stroke="#B1B1B1" stroke-width="0.03" stroke-miterlimit="10"/>
<path d="M29.11 4.59998V4.92998" stroke="#B1B1B1" stroke-width="0.03" stroke-miterlimit="10"/>
<path d="M29.53 4.42999V4.92999" stroke="#B1B1B1" stroke-width="0.06" stroke-miterlimit="10"/>
<path d="M29.95 4.59998V4.92998" stroke="#B1B1B1" stroke-width="0.03" stroke-miterlimit="10"/>
<path d="M29.76 4.59998V4.92998" stroke="#B1B1B1" stroke-width="0.03" stroke-miterlimit="10"/>
<path d="M30.18 4.42999V4.92999" stroke="#B1B1B1" stroke-width="0.06" stroke-miterlimit="10"/>
<path d="M30.6 4.59998V4.92998" stroke="#B1B1B1" stroke-width="0.03" stroke-miterlimit="10"/>
<path d="M30.4 4.59998V4.92998" stroke="#B1B1B1" stroke-width="0.03" stroke-miterlimit="10"/>
<path d="M30.82 4.42999V4.92999" stroke="#B1B1B1" stroke-width="0.06" stroke-miterlimit="10"/>
<path d="M31.25 4.59998V4.92998" stroke="#B1B1B1" stroke-width="0.03" stroke-miterlimit="10"/>
<path d="M31.06 4.59998V4.92998" stroke="#B1B1B1" stroke-width="0.03" stroke-miterlimit="10"/>
<path d="M31.48 4.42999V4.92999" stroke="#B1B1B1" stroke-width="0.06" stroke-miterlimit="10"/>
<path d="M31.91 4.59998V4.92998" stroke="#B1B1B1" stroke-width="0.03" stroke-miterlimit="10"/>
<path d="M31.72 4.59998V4.92998" stroke="#B1B1B1" stroke-width="0.03" stroke-miterlimit="10"/>
<path d="M32.14 4.42999V4.92999" stroke="#B1B1B1" stroke-width="0.06" stroke-miterlimit="10"/>
<path d="M32.55 4.59998V4.92998" stroke="#B1B1B1" stroke-width="0.03" stroke-miterlimit="10"/>
<path d="M32.35 4.59998V4.92998" stroke="#B1B1B1" stroke-width="0.03" stroke-miterlimit="10"/>
<path d="M32.77 4.42999V4.92999" stroke="#B1B1B1" stroke-width="0.06" stroke-miterlimit="10"/>
<path d="M33.15 4.59998V4.92998" stroke="#B1B1B1" stroke-width="0.03" stroke-miterlimit="10"/>
<path d="M32.96 4.59998V4.92998" stroke="#B1B1B1" stroke-width="0.03" stroke-miterlimit="10"/>
<path d="M33.38 4.42999V4.92999" stroke="#B1B1B1" stroke-width="0.06" stroke-miterlimit="10"/>
<path d="M33.78 4.59998V4.92998" stroke="#B1B1B1" stroke-width="0.03" stroke-miterlimit="10"/>
<path d="M33.58 4.59998V4.92998" stroke="#B1B1B1" stroke-width="0.03" stroke-miterlimit="10"/>
<path d="M34.01 4.42999V4.92999" stroke="#B1B1B1" stroke-width="0.06" stroke-miterlimit="10"/>
<path d="M34.42 4.59998V4.92998" stroke="#B1B1B1" stroke-width="0.03" stroke-miterlimit="10"/>
<path d="M34.22 4.59998V4.92998" stroke="#B1B1B1" stroke-width="0.03" stroke-miterlimit="10"/>
<path d="M34.65 4.42999V4.92999" stroke="#B1B1B1" stroke-width="0.06" stroke-miterlimit="10"/>
<path d="M35.08 4.59998V4.92998" stroke="#B1B1B1" stroke-width="0.03" stroke-miterlimit="10"/>
<path d="M34.88 4.59998V4.92998" stroke="#B1B1B1" stroke-width="0.03" stroke-miterlimit="10"/>
<path d="M35.31 4.42999V4.92999" stroke="#B1B1B1" stroke-width="0.06" stroke-miterlimit="10"/>
<path d="M35.8 4.59998V4.92998" stroke="#B1B1B1" stroke-width="0.03" stroke-miterlimit="10"/>
<path d="M35.6 4.59998V4.92998" stroke="#B1B1B1" stroke-width="0.03" stroke-miterlimit="10"/>
<path d="M36.02 4.42999V4.92999" stroke="#B1B1B1" stroke-width="0.06" stroke-miterlimit="10"/>
<path d="M36.5 4.58997V4.92997" stroke="#B1B1B1" stroke-width="0.03" stroke-miterlimit="10"/>
<path d="M36.3 4.58997V4.92997" stroke="#B1B1B1" stroke-width="0.03" stroke-miterlimit="10"/>
<path d="M36.73 4.42999V4.92999" stroke="#B1B1B1" stroke-width="0.06" stroke-miterlimit="10"/>
<path d="M37.12 4.58997V4.92997" stroke="#B1B1B1" stroke-width="0.03" stroke-miterlimit="10"/>
<path d="M36.92 4.58997V4.92997" stroke="#B1B1B1" stroke-width="0.03" stroke-miterlimit="10"/>
<path d="M37.34 4.42999V4.92999" stroke="#B1B1B1" stroke-width="0.06" stroke-miterlimit="10"/>
<path d="M37.76 4.58997V4.92997" stroke="#B1B1B1" stroke-width="0.03" stroke-miterlimit="10"/>
<path d="M37.57 4.58997V4.92997" stroke="#B1B1B1" stroke-width="0.03" stroke-miterlimit="10"/>
<path d="M37.99 4.42999V4.92999" stroke="#B1B1B1" stroke-width="0.06" stroke-miterlimit="10"/>
<path d="M38.41 4.58997V4.92997" stroke="#B1B1B1" stroke-width="0.03" stroke-miterlimit="10"/>
<path d="M38.22 4.58997V4.92997" stroke="#B1B1B1" stroke-width="0.03" stroke-miterlimit="10"/>
<path d="M38.64 4.42999V4.92999" stroke="#B1B1B1" stroke-width="0.06" stroke-miterlimit="10"/>
<path d="M39.06 4.58997V4.92997" stroke="#B1B1B1" stroke-width="0.03" stroke-miterlimit="10"/>
<path d="M38.86 4.58997V4.92997" stroke="#B1B1B1" stroke-width="0.03" stroke-miterlimit="10"/>
<path d="M39.28 4.42999V4.92999" stroke="#B1B1B1" stroke-width="0.06" stroke-miterlimit="10"/>
<path d="M39.71 4.58997V4.92997" stroke="#B1B1B1" stroke-width="0.03" stroke-miterlimit="10"/>
<path d="M39.52 4.58997V4.92997" stroke="#B1B1B1" stroke-width="0.03" stroke-miterlimit="10"/>
<path d="M39.94 4.42999V4.92999" stroke="#B1B1B1" stroke-width="0.06" stroke-miterlimit="10"/>
<path d="M40.37 4.58997V4.92997" stroke="#B1B1B1" stroke-width="0.03" stroke-miterlimit="10"/>
<path d="M40.18 4.58997V4.92997" stroke="#B1B1B1" stroke-width="0.03" stroke-miterlimit="10"/>
<path d="M40.6 4.42999V4.92999" stroke="#B1B1B1" stroke-width="0.06" stroke-miterlimit="10"/>
<path d="M41.01 4.58997V4.92997" stroke="#B1B1B1" stroke-width="0.03" stroke-miterlimit="10"/>
<path d="M40.81 4.58997V4.92997" stroke="#B1B1B1" stroke-width="0.03" stroke-miterlimit="10"/>
<path d="M41.23 4.42999V4.92999" stroke="#B1B1B1" stroke-width="0.06" stroke-miterlimit="10"/>
<path d="M41.61 4.58997V4.92997" stroke="#B1B1B1" stroke-width="0.03" stroke-miterlimit="10"/>
<path d="M41.42 4.58997V4.92997" stroke="#B1B1B1" stroke-width="0.03" stroke-miterlimit="10"/>
<path d="M41.84 4.42999V4.92999" stroke="#B1B1B1" stroke-width="0.06" stroke-miterlimit="10"/>
<path d="M42.24 4.58997V4.92997" stroke="#B1B1B1" stroke-width="0.03" stroke-miterlimit="10"/>
<path d="M42.04 4.58997V4.92997" stroke="#B1B1B1" stroke-width="0.03" stroke-miterlimit="10"/>
<path d="M42.47 4.42999V4.92999" stroke="#B1B1B1" stroke-width="0.06" stroke-miterlimit="10"/>
<path d="M42.88 4.58997V4.92997" stroke="#B1B1B1" stroke-width="0.03" stroke-miterlimit="10"/>
<path d="M42.68 4.58997V4.92997" stroke="#B1B1B1" stroke-width="0.03" stroke-miterlimit="10"/>
<path d="M43.11 4.42999V4.92999" stroke="#B1B1B1" stroke-width="0.06" stroke-miterlimit="10"/>
<path d="M43.54 4.58997V4.92997" stroke="#B1B1B1" stroke-width="0.03" stroke-miterlimit="10"/>
<path d="M43.34 4.58997V4.92997" stroke="#B1B1B1" stroke-width="0.03" stroke-miterlimit="10"/>
<path d="M43.77 4.42999V4.92999" stroke="#B1B1B1" stroke-width="0.06" stroke-miterlimit="10"/>
<path d="M44.26 4.58997V4.92997" stroke="#B1B1B1" stroke-width="0.03" stroke-miterlimit="10"/>
<path d="M44.06 4.58997V4.92997" stroke="#B1B1B1" stroke-width="0.03" stroke-miterlimit="10"/>
<path d="M44.48 4.42999V4.92999" stroke="#B1B1B1" stroke-width="0.06" stroke-miterlimit="10"/>
<path d="M44.88 4.58997V4.92997" stroke="#B1B1B1" stroke-width="0.03" stroke-miterlimit="10"/>
<path d="M44.69 4.58997V4.92997" stroke="#B1B1B1" stroke-width="0.03" stroke-miterlimit="10"/>
<path d="M45.11 4.42999V4.92999" stroke="#B1B1B1" stroke-width="0.06" stroke-miterlimit="10"/>
<path d="M45.5 4.58997V4.92997" stroke="#B1B1B1" stroke-width="0.03" stroke-miterlimit="10"/>
<path d="M45.3 4.58997V4.92997" stroke="#B1B1B1" stroke-width="0.03" stroke-miterlimit="10"/>
<path d="M45.73 4.42999V4.92999" stroke="#B1B1B1" stroke-width="0.06" stroke-miterlimit="10"/>
<path d="M46.14 4.58997V4.92997" stroke="#B1B1B1" stroke-width="0.03" stroke-miterlimit="10"/>
<path d="M45.95 4.58997V4.92997" stroke="#B1B1B1" stroke-width="0.03" stroke-miterlimit="10"/>
<path d="M46.37 4.42999V4.92999" stroke="#B1B1B1" stroke-width="0.06" stroke-miterlimit="10"/>
<path d="M46.79 4.58997V4.92997" stroke="#B1B1B1" stroke-width="0.03" stroke-miterlimit="10"/>
<path d="M46.6 4.58997V4.92997" stroke="#B1B1B1" stroke-width="0.03" stroke-miterlimit="10"/>
<path d="M47.02 4.42999V4.92999" stroke="#B1B1B1" stroke-width="0.06" stroke-miterlimit="10"/>
<path d="M47.44 4.58997V4.92997" stroke="#B1B1B1" stroke-width="0.03" stroke-miterlimit="10"/>
<path d="M47.24 4.58997V4.92997" stroke="#B1B1B1" stroke-width="0.03" stroke-miterlimit="10"/>
<path d="M47.66 4.42999V4.92999" stroke="#B1B1B1" stroke-width="0.06" stroke-miterlimit="10"/>
<path d="M48.09 4.58997V4.92997" stroke="#B1B1B1" stroke-width="0.03" stroke-miterlimit="10"/>
<path d="M47.9 4.58997V4.92997" stroke="#B1B1B1" stroke-width="0.03" stroke-miterlimit="10"/>
<path d="M48.32 4.42999V4.92999" stroke="#B1B1B1" stroke-width="0.06" stroke-miterlimit="10"/>
<path d="M48.75 4.58997V4.92997" stroke="#B1B1B1" stroke-width="0.03" stroke-miterlimit="10"/>
<path d="M48.56 4.58997V4.92997" stroke="#B1B1B1" stroke-width="0.03" stroke-miterlimit="10"/>
<path d="M48.98 4.42999V4.92999" stroke="#B1B1B1" stroke-width="0.06" stroke-miterlimit="10"/>
<path d="M49.39 4.58997V4.92997" stroke="#B1B1B1" stroke-width="0.03" stroke-miterlimit="10"/>
<path d="M49.19 4.58997V4.92997" stroke="#B1B1B1" stroke-width="0.03" stroke-miterlimit="10"/>
<path d="M49.61 4.42999V4.92999" stroke="#B1B1B1" stroke-width="0.06" stroke-miterlimit="10"/>
<path d="M49.99 4.58997V4.92997" stroke="#B1B1B1" stroke-width="0.03" stroke-miterlimit="10"/>
<path d="M49.8 4.58997V4.92997" stroke="#B1B1B1" stroke-width="0.03" stroke-miterlimit="10"/>
<path d="M50.22 4.42999V4.92999" stroke="#B1B1B1" stroke-width="0.06" stroke-miterlimit="10"/>
<path d="M50.62 4.58997V4.92997" stroke="#B1B1B1" stroke-width="0.03" stroke-miterlimit="10"/>
<path d="M50.43 4.58997V4.92997" stroke="#B1B1B1" stroke-width="0.03" stroke-miterlimit="10"/>
<path d="M50.85 4.42999V4.92999" stroke="#B1B1B1" stroke-width="0.06" stroke-miterlimit="10"/>
<path d="M51.26 4.58997V4.92997" stroke="#B1B1B1" stroke-width="0.03" stroke-miterlimit="10"/>
<path d="M51.07 4.58997V4.92997" stroke="#B1B1B1" stroke-width="0.03" stroke-miterlimit="10"/>
<path d="M51.49 4.42999V4.92999" stroke="#B1B1B1" stroke-width="0.06" stroke-miterlimit="10"/>
<path d="M51.92 4.58997V4.92997" stroke="#B1B1B1" stroke-width="0.03" stroke-miterlimit="10"/>
<path d="M51.73 4.58997V4.92997" stroke="#B1B1B1" stroke-width="0.03" stroke-miterlimit="10"/>
<path d="M52.15 4.42999V4.92999" stroke="#B1B1B1" stroke-width="0.06" stroke-miterlimit="10"/>
<path d="M52.64 4.58997V4.92997" stroke="#B1B1B1" stroke-width="0.03" stroke-miterlimit="10"/>
<path d="M52.44 4.58997V4.92997" stroke="#B1B1B1" stroke-width="0.03" stroke-miterlimit="10"/>
<path d="M52.87 4.42999V4.92999" stroke="#B1B1B1" stroke-width="0.06" stroke-miterlimit="10"/>
<path d="M8.49002 5.43996V7.43996C8.58002 7.47996 8.71002 7.52996 8.88002 7.54996C9.15002 7.56996 9.37002 7.48996 9.47002 7.43996V5.43996C9.34002 5.39996 9.15002 5.35996 8.92002 5.36996C8.75002 5.36996 8.60002 5.40996 8.49002 5.43996Z" fill="#1A1A1A"/>
<path d="M4.01001 6.02998C3.93001 5.72998 3.87001 5.62998 3.89001 5.13998C3.91001 4.83998 3.95001 4.56998 4.01001 4.34998H2.88001C2.79001 4.61998 2.70001 4.92998 2.65001 5.27998C2.49001 6.35998 2.69001 7.27998 2.88001 7.84998H3.92001L3.97001 6.84998H8.50001V6.02998H4.00001H4.01001Z" fill="#1A1A1A"/>
<path d="M8.97999 2.92999L5.98 1.92999L3.98 7.92999L2.37 8.92999V9.93999L4.17 10.47L6.98 3.91999L8.97999 3.66999V2.92999Z" fill="#808080"/>
<path d="M6.28999 2.98001C6.48882 2.98001 6.64999 2.81883 6.64999 2.62001C6.64999 2.42119 6.48882 2.26001 6.28999 2.26001C6.09117 2.26001 5.92999 2.42119 5.92999 2.62001C5.92999 2.81883 6.09117 2.98001 6.28999 2.98001Z" fill="#666666"/>
<path d="M6.13998 2.38C6.27998 2.55 6.33998 2.67 6.40998 2.87C6.26998 2.7 6.20998 2.58 6.13998 2.38Z" fill="#4D4D4D"/>
<path d="M9.22998 1.90998C9.12998 1.85998 9.01998 1.81998 8.90998 1.76998C8.82998 1.72998 8.73998 1.69998 8.65998 1.66998C8.50998 1.78998 8.42998 1.91998 8.38998 2.00998C8.07998 2.62998 8.55998 3.33998 8.58998 3.38998C8.61998 3.53998 8.65998 3.87998 8.50998 4.24998C8.41998 4.47998 8.28998 4.63998 8.19998 4.74998C8.33998 4.82998 8.48998 4.89998 8.62998 4.97998C8.77998 4.89998 9.03998 4.71998 9.22998 4.40998C9.59998 3.81998 9.45998 3.19998 9.41998 3.05998C9.34998 2.67998 9.27998 2.28998 9.20998 1.90998H9.22998Z" fill="#808080"/>
<path d="M8.82999 2.59998C9.01777 2.59998 9.16999 2.44776 9.16999 2.25998C9.16999 2.07221 9.01777 1.91998 8.82999 1.91998C8.64221 1.91998 8.48999 2.07221 8.48999 2.25998C8.48999 2.44776 8.64221 2.59998 8.82999 2.59998Z" fill="#4D4D4D"/>
<path d="M8.70999 2.01001C8.84999 2.18001 8.90999 2.30001 8.97999 2.50001C8.83999 2.33001 8.77999 2.21001 8.70999 2.01001Z" fill="#333333"/>
</g>
<defs>
<clipPath id="clip0_37_163">
<rect width="64.98" height="45.94" fill="white"/>
</clipPath>
</defs>
</svg>
