<svg width="1158" height="535" viewBox="0 0 1158 535" fill="none" xmlns="http://www.w3.org/2000/svg">
<g clip-path="url(#clip0_583_334)">
<rect width="1158" height="535" fill="white"/>
<g filter="url(#filter0_i_583_334)">
<path fill-rule="evenodd" clip-rule="evenodd" d="M597.063 0H0V535H1158V262.13C1158 261.926 1158 261.722 1158 261.518V0H597.063Z" fill="#121212"/>
</g>
<path d="M280.206 103.96C280.206 103.043 280.03 102.301 279.678 101.736C279.337 101.16 278.836 100.739 278.174 100.472C277.513 100.205 276.718 100.072 275.79 100.072H273.502V108.088H275.918C276.793 108.088 277.545 107.955 278.174 107.688C278.814 107.411 279.31 106.968 279.662 106.36C280.025 105.752 280.206 104.952 280.206 103.96ZM284.75 103.928C284.75 105.645 284.382 107.053 283.646 108.152C282.921 109.24 281.902 110.045 280.59 110.568C279.278 111.08 277.764 111.336 276.046 111.336H273.502V119H269.118V96.872H275.63C278.5 96.872 280.734 97.4533 282.334 98.616C283.945 99.7787 284.75 101.549 284.75 103.928ZM301.49 114.536C301.49 115.187 301.586 115.661 301.778 115.96C301.97 116.248 302.279 116.467 302.706 116.616L301.794 119.448C300.887 119.352 300.114 119.128 299.474 118.776C298.844 118.413 298.359 117.875 298.018 117.16C297.378 117.939 296.567 118.52 295.586 118.904C294.615 119.288 293.596 119.48 292.53 119.48C290.802 119.48 289.431 118.989 288.418 118.008C287.404 117.027 286.898 115.752 286.898 114.184C286.898 112.381 287.602 110.995 289.01 110.024C290.428 109.043 292.434 108.552 295.026 108.552H297.394V107.64C297.394 106.637 297.084 105.912 296.466 105.464C295.847 105.005 294.956 104.776 293.794 104.776C293.25 104.776 292.567 104.851 291.746 105C290.935 105.139 290.098 105.357 289.234 105.656L288.226 102.76C289.303 102.355 290.386 102.056 291.474 101.864C292.572 101.672 293.57 101.576 294.466 101.576C296.844 101.576 298.61 102.083 299.762 103.096C300.914 104.099 301.49 105.523 301.49 107.368V114.536ZM293.906 116.424C294.546 116.424 295.191 116.243 295.842 115.88C296.503 115.517 297.02 115.011 297.394 114.36V111.064H295.73C294.162 111.064 293.026 111.315 292.322 111.816C291.628 112.317 291.282 113.027 291.282 113.944C291.282 114.733 291.506 115.347 291.954 115.784C292.402 116.211 293.052 116.424 293.906 116.424ZM306.997 119V116.072H309.381V104.968H306.997V102.056H312.597L313.381 105.944C314 104.504 314.779 103.421 315.717 102.696C316.656 101.96 317.835 101.592 319.253 101.592C319.797 101.592 320.277 101.635 320.693 101.72C321.12 101.805 321.525 101.917 321.909 102.056L320.645 105.608C320.315 105.523 320 105.459 319.701 105.416C319.403 105.363 319.067 105.336 318.693 105.336C317.52 105.336 316.496 105.795 315.621 106.712C314.757 107.619 314.085 108.851 313.605 110.408V116.072H316.981V119H306.997ZM318.341 108.664V104.168L318.917 102.056H321.909L321.157 108.664H318.341ZM339.225 114.536C339.225 115.187 339.321 115.661 339.513 115.96C339.705 116.248 340.014 116.467 340.441 116.616L339.529 119.448C338.622 119.352 337.849 119.128 337.209 118.776C336.579 118.413 336.094 117.875 335.753 117.16C335.113 117.939 334.302 118.52 333.321 118.904C332.35 119.288 331.331 119.48 330.265 119.48C328.537 119.48 327.166 118.989 326.153 118.008C325.139 117.027 324.633 115.752 324.633 114.184C324.633 112.381 325.337 110.995 326.745 110.024C328.163 109.043 330.169 108.552 332.761 108.552H335.129V107.64C335.129 106.637 334.819 105.912 334.201 105.464C333.582 105.005 332.691 104.776 331.529 104.776C330.985 104.776 330.302 104.851 329.481 105C328.67 105.139 327.833 105.357 326.969 105.656L325.961 102.76C327.038 102.355 328.121 102.056 329.209 101.864C330.307 101.672 331.305 101.576 332.201 101.576C334.579 101.576 336.345 102.083 337.497 103.096C338.649 104.099 339.225 105.523 339.225 107.368V114.536ZM331.641 116.424C332.281 116.424 332.926 116.243 333.577 115.88C334.238 115.517 334.755 115.011 335.129 114.36V111.064H333.465C331.897 111.064 330.761 111.315 330.057 111.816C329.363 112.317 329.017 113.027 329.017 113.944C329.017 114.733 329.241 115.347 329.689 115.784C330.137 116.211 330.787 116.424 331.641 116.424ZM378.784 102.056L372.96 119H368L362.144 102.056H366.688L370.544 115.624L374.48 102.056H378.784ZM392.051 102.056V116.008H396.515V119H382.867V116.008H387.827V105.048H383.027V102.056H392.051ZM389.315 93.512C390.094 93.512 390.723 93.752 391.203 94.232C391.694 94.712 391.939 95.3093 391.939 96.024C391.939 96.7387 391.694 97.3413 391.203 97.832C390.723 98.312 390.094 98.552 389.315 98.552C388.537 98.552 387.902 98.312 387.411 97.832C386.921 97.3413 386.675 96.7387 386.675 96.024C386.675 95.3093 386.921 94.712 387.411 94.232C387.902 93.752 388.537 93.512 389.315 93.512ZM414.695 114.536C414.695 115.187 414.791 115.661 414.983 115.96C415.175 116.248 415.484 116.467 415.911 116.616L414.999 119.448C414.092 119.352 413.319 119.128 412.679 118.776C412.049 118.413 411.564 117.875 411.223 117.16C410.583 117.939 409.772 118.52 408.791 118.904C407.82 119.288 406.801 119.48 405.735 119.48C404.007 119.48 402.636 118.989 401.623 118.008C400.609 117.027 400.103 115.752 400.103 114.184C400.103 112.381 400.807 110.995 402.215 110.024C403.633 109.043 405.639 108.552 408.231 108.552H410.599V107.64C410.599 106.637 410.289 105.912 409.671 105.464C409.052 105.005 408.161 104.776 406.999 104.776C406.455 104.776 405.772 104.851 404.951 105C404.14 105.139 403.303 105.357 402.439 105.656L401.431 102.76C402.508 102.355 403.591 102.056 404.679 101.864C405.777 101.672 406.775 101.576 407.671 101.576C410.049 101.576 411.815 102.083 412.967 103.096C414.119 104.099 414.695 105.523 414.695 107.368V114.536ZM407.111 116.424C407.751 116.424 408.396 116.243 409.047 115.88C409.708 115.517 410.225 115.011 410.599 114.36V111.064H408.935C407.367 111.064 406.231 111.315 405.527 111.816C404.833 112.317 404.487 113.027 404.487 113.944C404.487 114.733 404.711 115.347 405.159 115.784C405.607 116.211 406.257 116.424 407.111 116.424ZM432.282 102.056V114.856C432.282 117.107 431.834 118.968 430.938 120.44C430.053 121.912 428.746 123.085 427.018 123.96C425.29 124.835 423.173 125.507 420.666 125.976L419.978 122.744C421.685 122.392 423.136 121.928 424.33 121.352C425.536 120.776 426.458 119.992 427.098 119C427.738 118.008 428.058 116.717 428.058 115.128V105.048H421.626V102.056H432.282ZM429.274 93.512C430.042 93.512 430.672 93.752 431.162 94.232C431.653 94.712 431.898 95.3093 431.898 96.024C431.898 96.7387 431.653 97.3413 431.162 97.832C430.672 98.312 430.042 98.552 429.274 98.552C428.496 98.552 427.861 98.312 427.37 97.832C426.88 97.3413 426.634 96.7387 426.634 96.024C426.634 95.3093 426.88 94.712 427.37 94.232C427.861 93.752 428.496 93.512 429.274 93.512ZM452.43 114.536C452.43 115.187 452.526 115.661 452.718 115.96C452.91 116.248 453.219 116.467 453.646 116.616L452.734 119.448C451.827 119.352 451.054 119.128 450.414 118.776C449.784 118.413 449.299 117.875 448.958 117.16C448.318 117.939 447.507 118.52 446.526 118.904C445.555 119.288 444.536 119.48 443.47 119.48C441.742 119.48 440.371 118.989 439.358 118.008C438.344 117.027 437.838 115.752 437.838 114.184C437.838 112.381 438.542 110.995 439.95 110.024C441.368 109.043 443.374 108.552 445.966 108.552H448.334V107.64C448.334 106.637 448.024 105.912 447.406 105.464C446.787 105.005 445.896 104.776 444.734 104.776C444.19 104.776 443.507 104.851 442.686 105C441.875 105.139 441.038 105.357 440.174 105.656L439.166 102.76C440.243 102.355 441.326 102.056 442.414 101.864C443.512 101.672 444.51 101.576 445.406 101.576C447.784 101.576 449.55 102.083 450.702 103.096C451.854 104.099 452.43 105.523 452.43 107.368V114.536ZM444.846 116.424C445.486 116.424 446.131 116.243 446.782 115.88C447.443 115.517 447.96 115.011 448.334 114.36V111.064H446.67C445.102 111.064 443.966 111.315 443.262 111.816C442.568 112.317 442.222 113.027 442.222 113.944C442.222 114.733 442.446 115.347 442.894 115.784C443.342 116.211 443.992 116.424 444.846 116.424ZM457.937 119V116.072H460.321V104.968H457.937V102.056H463.537L464.321 105.944C464.94 104.504 465.719 103.421 466.657 102.696C467.596 101.96 468.775 101.592 470.193 101.592C470.737 101.592 471.217 101.635 471.633 101.72C472.06 101.805 472.465 101.917 472.849 102.056L471.585 105.608C471.255 105.523 470.94 105.459 470.641 105.416C470.343 105.363 470.007 105.336 469.633 105.336C468.46 105.336 467.436 105.795 466.561 106.712C465.697 107.619 465.025 108.851 464.545 110.408V116.072H467.921V119H457.937ZM469.281 108.664V104.168L469.857 102.056H472.849L472.097 108.664H469.281ZM495.512 119V102.056H499.192L499.496 104.152C500.222 103.299 501.038 102.659 501.944 102.232C502.851 101.795 503.827 101.576 504.872 101.576C506.398 101.576 507.56 102.019 508.36 102.904C509.16 103.779 509.56 105.011 509.56 106.6V119H505.336V108.248C505.336 107.395 505.283 106.712 505.176 106.2C505.07 105.677 504.867 105.304 504.568 105.08C504.27 104.845 503.838 104.728 503.272 104.728C502.814 104.728 502.371 104.829 501.944 105.032C501.528 105.235 501.134 105.507 500.76 105.848C500.398 106.189 500.056 106.568 499.736 106.984V119H495.512ZM521.42 101.576C523.105 101.576 524.534 101.944 525.708 102.68C526.881 103.416 527.772 104.456 528.38 105.8C528.998 107.133 529.308 108.696 529.308 110.488C529.308 112.323 528.998 113.912 528.38 115.256C527.761 116.6 526.865 117.64 525.692 118.376C524.518 119.112 523.089 119.48 521.404 119.48C519.729 119.48 518.3 119.123 517.116 118.408C515.942 117.683 515.046 116.653 514.428 115.32C513.809 113.976 513.5 112.376 513.5 110.52C513.5 108.749 513.809 107.192 514.428 105.848C515.046 104.504 515.948 103.459 517.132 102.712C518.316 101.955 519.745 101.576 521.42 101.576ZM521.42 104.76C520.236 104.76 519.35 105.224 518.764 106.152C518.188 107.08 517.9 108.536 517.9 110.52C517.9 112.525 518.188 113.992 518.764 114.92C519.34 115.837 520.22 116.296 521.404 116.296C522.588 116.296 523.468 115.837 524.044 114.92C524.62 113.992 524.908 112.515 524.908 110.488C524.908 108.515 524.62 107.069 524.044 106.152C523.468 105.224 522.593 104.76 521.42 104.76ZM566.739 118.056C566.109 118.472 565.347 118.813 564.451 119.08C563.555 119.347 562.584 119.48 561.539 119.48C559.469 119.48 557.912 118.947 556.867 117.88C555.821 116.803 555.299 115.373 555.299 113.592V105.048H551.619V102.056H555.299V98.328L559.523 97.816V102.056H565.123L564.691 105.048H559.523V113.576C559.523 114.451 559.736 115.091 560.163 115.496C560.589 115.901 561.277 116.104 562.227 116.104C562.835 116.104 563.389 116.035 563.891 115.896C564.403 115.747 564.867 115.56 565.283 115.336L566.739 118.056ZM574.582 111.816C574.668 112.872 574.908 113.731 575.302 114.392C575.708 115.053 576.225 115.539 576.854 115.848C577.484 116.157 578.182 116.312 578.95 116.312C579.761 116.312 580.524 116.184 581.238 115.928C581.953 115.672 582.657 115.315 583.35 114.856L585.11 117.272C584.321 117.933 583.377 118.467 582.278 118.872C581.19 119.277 579.99 119.48 578.678 119.48C576.844 119.48 575.297 119.101 574.038 118.344C572.79 117.587 571.846 116.536 571.206 115.192C570.566 113.848 570.246 112.301 570.246 110.552C570.246 108.867 570.561 107.347 571.19 105.992C571.82 104.637 572.726 103.565 573.91 102.776C575.094 101.976 576.524 101.576 578.198 101.576C579.756 101.576 581.1 101.917 582.23 102.6C583.361 103.283 584.236 104.264 584.854 105.544C585.473 106.813 585.782 108.344 585.782 110.136C585.782 110.424 585.772 110.717 585.75 111.016C585.74 111.315 585.724 111.581 585.702 111.816H574.582ZM578.214 104.552C577.19 104.552 576.348 104.92 575.686 105.656C575.036 106.381 574.652 107.533 574.534 109.112H581.67C581.649 107.683 581.35 106.568 580.774 105.768C580.209 104.957 579.356 104.552 578.214 104.552ZM601.898 101.576C602.623 101.576 603.242 101.731 603.754 102.04C604.266 102.339 604.66 102.845 604.938 103.56C605.215 104.264 605.354 105.224 605.354 106.44V119H601.674V106.968C601.674 106.2 601.61 105.656 601.482 105.336C601.364 105.016 601.092 104.856 600.666 104.856C600.314 104.856 599.956 104.963 599.594 105.176C599.242 105.379 598.874 105.747 598.49 106.28V119H595.306V106.968C595.306 106.2 595.242 105.656 595.114 105.336C594.996 105.016 594.724 104.856 594.298 104.856C593.935 104.856 593.578 104.963 593.226 105.176C592.874 105.379 592.506 105.747 592.122 106.28V119H588.394V102.056H591.546L591.818 103.816C592.319 103.112 592.847 102.563 593.402 102.168C593.956 101.773 594.623 101.576 595.402 101.576C596.042 101.576 596.607 101.736 597.098 102.056C597.599 102.365 597.956 102.899 598.17 103.656C598.66 103.037 599.21 102.536 599.818 102.152C600.426 101.768 601.119 101.576 601.898 101.576ZM617.469 101.576C618.963 101.576 620.157 101.944 621.053 102.68C621.96 103.405 622.616 104.435 623.021 105.768C623.437 107.101 623.645 108.675 623.645 110.488C623.645 112.227 623.395 113.773 622.893 115.128C622.392 116.483 621.656 117.549 620.685 118.328C619.725 119.096 618.541 119.48 617.133 119.48C615.405 119.48 614.008 118.867 612.941 117.64V125.528L608.717 125.976V102.056H612.429L612.653 104.12C613.325 103.245 614.077 102.605 614.909 102.2C615.741 101.784 616.595 101.576 617.469 101.576ZM616.237 104.744C615.523 104.744 614.893 104.957 614.349 105.384C613.816 105.811 613.347 106.339 612.941 106.968V114.552C613.325 115.128 613.763 115.56 614.253 115.848C614.744 116.136 615.299 116.28 615.917 116.28C616.995 116.28 617.816 115.832 618.381 114.936C618.957 114.029 619.245 112.563 619.245 110.536C619.245 109.107 619.128 107.971 618.893 107.128C618.669 106.275 618.333 105.667 617.885 105.304C617.437 104.931 616.888 104.744 616.237 104.744ZM634.625 101.576C636.31 101.576 637.739 101.944 638.913 102.68C640.086 103.416 640.977 104.456 641.585 105.8C642.203 107.133 642.513 108.696 642.513 110.488C642.513 112.323 642.203 113.912 641.585 115.256C640.966 116.6 640.07 117.64 638.897 118.376C637.723 119.112 636.294 119.48 634.609 119.48C632.934 119.48 631.505 119.123 630.321 118.408C629.147 117.683 628.251 116.653 627.633 115.32C627.014 113.976 626.705 112.376 626.705 110.52C626.705 108.749 627.014 107.192 627.633 105.848C628.251 104.504 629.153 103.459 630.337 102.712C631.521 101.955 632.95 101.576 634.625 101.576ZM634.625 104.76C633.441 104.76 632.555 105.224 631.969 106.152C631.393 107.08 631.105 108.536 631.105 110.52C631.105 112.525 631.393 113.992 631.969 114.92C632.545 115.837 633.425 116.296 634.609 116.296C635.793 116.296 636.673 115.837 637.249 114.92C637.825 113.992 638.113 112.515 638.113 110.488C638.113 108.515 637.825 107.069 637.249 106.152C636.673 105.224 635.798 104.76 634.625 104.76ZM673.384 95.288V114.072C673.384 114.808 673.597 115.331 674.024 115.64C674.461 115.949 675.048 116.104 675.784 116.104C676.242 116.104 676.685 116.056 677.112 115.96C677.538 115.853 677.944 115.725 678.328 115.576L679.368 118.456C678.834 118.723 678.184 118.957 677.416 119.16C676.658 119.373 675.778 119.48 674.776 119.48C672.93 119.48 671.533 118.952 670.584 117.896C669.634 116.84 669.16 115.416 669.16 113.624V98.28H664.088V95.288H673.384ZM693.931 102.056V116.008H698.395V119H684.747V116.008H689.707V105.048H684.907V102.056H693.931ZM691.195 93.512C691.974 93.512 692.603 93.752 693.083 94.232C693.574 94.712 693.819 95.3093 693.819 96.024C693.819 96.7387 693.574 97.3413 693.083 97.832C692.603 98.312 691.974 98.552 691.195 98.552C690.417 98.552 689.782 98.312 689.291 97.832C688.801 97.3413 688.555 96.7387 688.555 96.024C688.555 95.3093 688.801 94.712 689.291 94.232C689.782 93.752 690.417 93.512 691.195 93.512ZM717.663 99.672L718.719 102.968C718.079 103.192 717.359 103.352 716.559 103.448C715.759 103.533 714.841 103.576 713.807 103.576C714.841 104.024 715.625 104.595 716.159 105.288C716.703 105.971 716.975 106.84 716.975 107.896C716.975 108.995 716.692 109.976 716.127 110.84C715.572 111.704 714.777 112.381 713.743 112.872C712.719 113.363 711.497 113.608 710.079 113.608C709.641 113.608 709.252 113.587 708.911 113.544C708.569 113.501 708.239 113.443 707.919 113.368C707.705 113.485 707.54 113.656 707.423 113.88C707.305 114.104 707.247 114.333 707.247 114.568C707.247 114.888 707.369 115.165 707.615 115.4C707.871 115.624 708.415 115.736 709.247 115.736H712.127C713.375 115.736 714.468 115.949 715.407 116.376C716.356 116.792 717.092 117.357 717.615 118.072C718.148 118.787 718.415 119.608 718.415 120.536C718.415 122.243 717.673 123.576 716.191 124.536C714.708 125.496 712.543 125.976 709.695 125.976C707.657 125.976 706.068 125.768 704.927 125.352C703.796 124.936 703.001 124.328 702.543 123.528C702.084 122.739 701.855 121.784 701.855 120.664H705.615C705.615 121.208 705.721 121.656 705.935 122.008C706.159 122.36 706.569 122.621 707.167 122.792C707.775 122.963 708.644 123.048 709.775 123.048C710.905 123.048 711.791 122.957 712.431 122.776C713.081 122.595 713.54 122.333 713.807 121.992C714.073 121.661 714.207 121.272 714.207 120.824C714.207 120.216 713.951 119.741 713.439 119.4C712.927 119.059 712.201 118.888 711.263 118.888H708.463C706.756 118.888 705.513 118.557 704.735 117.896C703.956 117.224 703.567 116.451 703.567 115.576C703.567 114.979 703.727 114.408 704.047 113.864C704.377 113.309 704.847 112.84 705.455 112.456C704.409 111.901 703.652 111.24 703.183 110.472C702.724 109.693 702.495 108.755 702.495 107.656C702.495 106.429 702.804 105.363 703.423 104.456C704.041 103.549 704.9 102.845 705.999 102.344C707.097 101.843 708.361 101.592 709.791 101.592C711.103 101.603 712.217 101.523 713.135 101.352C714.063 101.181 714.879 100.947 715.583 100.648C716.297 100.349 716.991 100.024 717.663 99.672ZM709.871 104.408C708.868 104.408 708.1 104.701 707.567 105.288C707.044 105.875 706.783 106.653 706.783 107.624C706.783 108.627 707.055 109.421 707.599 110.008C708.143 110.595 708.905 110.888 709.887 110.888C710.857 110.888 711.593 110.605 712.095 110.04C712.607 109.464 712.863 108.643 712.863 107.576C712.863 106.509 712.607 105.715 712.095 105.192C711.593 104.669 710.852 104.408 709.871 104.408ZM726.146 102.056V113.8C726.146 114.717 726.328 115.363 726.69 115.736C727.053 116.109 727.581 116.296 728.274 116.296C728.936 116.296 729.581 116.099 730.21 115.704C730.84 115.299 731.352 114.787 731.746 114.168V102.056H735.97V119H732.29L732.066 116.92C731.458 117.752 730.68 118.387 729.73 118.824C728.781 119.261 727.8 119.48 726.786 119.48C725.154 119.48 723.933 119.021 723.122 118.104C722.322 117.176 721.922 115.912 721.922 114.312V102.056H726.146ZM744.39 111.816C744.475 112.872 744.715 113.731 745.11 114.392C745.515 115.053 746.032 115.539 746.662 115.848C747.291 116.157 747.99 116.312 748.758 116.312C749.568 116.312 750.331 116.184 751.046 115.928C751.76 115.672 752.464 115.315 753.158 114.856L754.918 117.272C754.128 117.933 753.184 118.467 752.086 118.872C750.998 119.277 749.798 119.48 748.486 119.48C746.651 119.48 745.104 119.101 743.846 118.344C742.598 117.587 741.654 116.536 741.014 115.192C740.374 113.848 740.054 112.301 740.054 110.552C740.054 108.867 740.368 107.347 740.998 105.992C741.627 104.637 742.534 103.565 743.718 102.776C744.902 101.976 746.331 101.576 748.006 101.576C749.563 101.576 750.907 101.917 752.038 102.6C753.168 103.283 754.043 104.264 754.662 105.544C755.28 106.813 755.59 108.344 755.59 110.136C755.59 110.424 755.579 110.717 755.558 111.016C755.547 111.315 755.531 111.581 755.51 111.816H744.39ZM748.022 104.552C746.998 104.552 746.155 104.92 745.494 105.656C744.843 106.381 744.459 107.533 744.342 109.112H751.478C751.456 107.683 751.158 106.568 750.582 105.768C750.016 104.957 749.163 104.552 748.022 104.552ZM785.565 101.576C787.25 101.576 788.679 101.944 789.853 102.68C791.026 103.416 791.917 104.456 792.525 105.8C793.143 107.133 793.453 108.696 793.453 110.488C793.453 112.323 793.143 113.912 792.525 115.256C791.906 116.6 791.01 117.64 789.837 118.376C788.663 119.112 787.234 119.48 785.549 119.48C783.874 119.48 782.445 119.123 781.261 118.408C780.087 117.683 779.191 116.653 778.573 115.32C777.954 113.976 777.645 112.376 777.645 110.52C777.645 108.749 777.954 107.192 778.573 105.848C779.191 104.504 780.093 103.459 781.277 102.712C782.461 101.955 783.89 101.576 785.565 101.576ZM785.565 104.76C784.381 104.76 783.495 105.224 782.909 106.152C782.333 107.08 782.045 108.536 782.045 110.52C782.045 112.525 782.333 113.992 782.909 114.92C783.485 115.837 784.365 116.296 785.549 116.296C786.733 116.296 787.613 115.837 788.189 114.92C788.765 113.992 789.053 112.515 789.053 110.488C789.053 108.515 788.765 107.069 788.189 106.152C787.613 105.224 786.738 104.76 785.565 104.76ZM822.708 116.36C823.7 116.36 824.494 116.189 825.092 115.848C825.7 115.496 826.004 115.005 826.004 114.376C826.004 113.96 825.902 113.608 825.7 113.32C825.508 113.032 825.124 112.765 824.548 112.52C823.972 112.264 823.108 111.981 821.956 111.672C820.868 111.395 819.913 111.053 819.092 110.648C818.281 110.232 817.646 109.699 817.188 109.048C816.74 108.397 816.516 107.576 816.516 106.584C816.516 105.592 816.793 104.723 817.348 103.976C817.902 103.219 818.702 102.632 819.748 102.216C820.804 101.789 822.073 101.576 823.556 101.576C825.006 101.576 826.276 101.768 827.364 102.152C828.452 102.525 829.385 102.995 830.164 103.56L828.436 106.136C827.753 105.699 827.012 105.347 826.212 105.08C825.422 104.803 824.569 104.664 823.652 104.664C822.66 104.664 821.934 104.808 821.476 105.096C821.028 105.384 820.804 105.784 820.804 106.296C820.804 106.659 820.916 106.968 821.14 107.224C821.374 107.469 821.79 107.709 822.388 107.944C822.996 108.168 823.86 108.44 824.98 108.76C826.078 109.059 827.033 109.411 827.844 109.816C828.665 110.221 829.3 110.76 829.748 111.432C830.196 112.104 830.42 112.984 830.42 114.072C830.42 115.299 830.062 116.312 829.348 117.112C828.633 117.912 827.689 118.509 826.516 118.904C825.353 119.288 824.089 119.48 822.724 119.48C821.124 119.48 819.726 119.251 818.532 118.792C817.337 118.333 816.324 117.741 815.492 117.016L817.684 114.552C818.345 115.075 819.097 115.507 819.94 115.848C820.793 116.189 821.716 116.36 822.708 116.36ZM842.167 101.576C843.853 101.576 845.282 101.944 846.455 102.68C847.629 103.416 848.519 104.456 849.127 105.8C849.746 107.133 850.055 108.696 850.055 110.488C850.055 112.323 849.746 113.912 849.127 115.256C848.509 116.6 847.613 117.64 846.439 118.376C845.266 119.112 843.837 119.48 842.151 119.48C840.477 119.48 839.047 119.123 837.863 118.408C836.69 117.683 835.794 116.653 835.175 115.32C834.557 113.976 834.247 112.376 834.247 110.52C834.247 108.749 834.557 107.192 835.175 105.848C835.794 104.504 836.695 103.459 837.879 102.712C839.063 101.955 840.493 101.576 842.167 101.576ZM842.167 104.76C840.983 104.76 840.098 105.224 839.511 106.152C838.935 107.08 838.647 108.536 838.647 110.52C838.647 112.525 838.935 113.992 839.511 114.92C840.087 115.837 840.967 116.296 842.151 116.296C843.335 116.296 844.215 115.837 844.791 114.92C845.367 113.992 845.655 112.515 845.655 110.488C845.655 108.515 845.367 107.069 844.791 106.152C844.215 105.224 843.341 104.76 842.167 104.76ZM866.043 101.576C866.768 101.576 867.387 101.731 867.899 102.04C868.411 102.339 868.805 102.845 869.083 103.56C869.36 104.264 869.499 105.224 869.499 106.44V119H865.819V106.968C865.819 106.2 865.755 105.656 865.627 105.336C865.509 105.016 865.237 104.856 864.811 104.856C864.459 104.856 864.101 104.963 863.739 105.176C863.387 105.379 863.019 105.747 862.635 106.28V119H859.451V106.968C859.451 106.2 859.387 105.656 859.259 105.336C859.141 105.016 858.869 104.856 858.443 104.856C858.08 104.856 857.723 104.963 857.371 105.176C857.019 105.379 856.651 105.747 856.267 106.28V119H852.539V102.056H855.691L855.963 103.816C856.464 103.112 856.992 102.563 857.547 102.168C858.101 101.773 858.768 101.576 859.547 101.576C860.187 101.576 860.752 101.736 861.243 102.056C861.744 102.365 862.101 102.899 862.315 103.656C862.805 103.037 863.355 102.536 863.963 102.152C864.571 101.768 865.264 101.576 866.043 101.576ZM876.574 116.168C876.574 115.571 876.718 115.021 877.006 114.52C877.305 114.019 877.705 113.619 878.206 113.32C878.708 113.021 879.262 112.872 879.87 112.872C880.489 112.872 881.049 113.021 881.55 113.32C882.052 113.619 882.446 114.019 882.734 114.52C883.033 115.021 883.182 115.571 883.182 116.168C883.182 116.765 883.033 117.32 882.734 117.832C882.446 118.333 882.052 118.733 881.55 119.032C881.049 119.331 880.489 119.48 879.87 119.48C879.262 119.48 878.708 119.331 878.206 119.032C877.705 118.733 877.305 118.333 877.006 117.832C876.718 117.32 876.574 116.765 876.574 116.168Z" fill="#57EB23"/>
<path d="M322.951 160.4V175H319.538V160.4H314.488V157.712H328.151L327.801 160.4H322.951ZM335.959 161.387C337.275 161.387 338.392 161.675 339.309 162.25C340.225 162.825 340.921 163.637 341.396 164.687C341.879 165.729 342.121 166.95 342.121 168.35C342.121 169.783 341.879 171.025 341.396 172.075C340.913 173.125 340.213 173.937 339.296 174.512C338.379 175.088 337.263 175.375 335.946 175.375C334.638 175.375 333.521 175.096 332.596 174.537C331.679 173.971 330.979 173.167 330.496 172.125C330.013 171.075 329.771 169.825 329.771 168.375C329.771 166.992 330.013 165.775 330.496 164.725C330.979 163.675 331.684 162.858 332.609 162.275C333.534 161.683 334.65 161.387 335.959 161.387ZM335.959 163.875C335.034 163.875 334.342 164.237 333.884 164.962C333.434 165.687 333.209 166.825 333.209 168.375C333.209 169.942 333.434 171.087 333.884 171.812C334.334 172.529 335.021 172.887 335.946 172.887C336.871 172.887 337.559 172.529 338.009 171.812C338.459 171.087 338.684 169.933 338.684 168.35C338.684 166.808 338.459 165.679 338.009 164.962C337.559 164.237 336.875 163.875 335.959 163.875ZM371.224 174.262C370.732 174.587 370.136 174.854 369.436 175.063C368.736 175.271 367.978 175.375 367.161 175.375C365.545 175.375 364.328 174.958 363.511 174.125C362.695 173.283 362.286 172.167 362.286 170.775V164.1H359.411V161.762H362.286V158.85L365.586 158.45V161.762H369.961L369.624 164.1H365.586V170.762C365.586 171.446 365.753 171.946 366.086 172.262C366.42 172.579 366.957 172.737 367.699 172.737C368.174 172.737 368.607 172.683 368.999 172.575C369.399 172.458 369.761 172.312 370.086 172.137L371.224 174.262ZM374.594 175V172.712H376.457V164.037H374.594V161.762H378.969L379.582 164.8C380.065 163.675 380.673 162.829 381.407 162.262C382.14 161.687 383.061 161.4 384.169 161.4C384.594 161.4 384.969 161.433 385.294 161.5C385.628 161.567 385.944 161.654 386.244 161.762L385.257 164.537C384.998 164.471 384.753 164.421 384.519 164.387C384.286 164.346 384.023 164.325 383.732 164.325C382.815 164.325 382.015 164.683 381.332 165.4C380.657 166.108 380.132 167.071 379.757 168.287V172.712H382.394V175H374.594ZM383.457 166.925V163.412L383.907 161.762H386.244L385.657 166.925H383.457ZM399.702 171.512C399.702 172.021 399.777 172.392 399.927 172.625C400.077 172.85 400.319 173.021 400.652 173.137L399.939 175.35C399.231 175.275 398.627 175.1 398.127 174.825C397.635 174.542 397.256 174.121 396.989 173.562C396.489 174.171 395.856 174.625 395.089 174.925C394.331 175.225 393.535 175.375 392.702 175.375C391.352 175.375 390.281 174.992 389.489 174.225C388.698 173.458 388.302 172.462 388.302 171.237C388.302 169.829 388.852 168.746 389.952 167.987C391.06 167.221 392.627 166.837 394.652 166.837H396.502V166.125C396.502 165.342 396.26 164.775 395.777 164.425C395.294 164.067 394.598 163.887 393.689 163.887C393.264 163.887 392.731 163.946 392.089 164.062C391.456 164.171 390.802 164.342 390.127 164.575L389.339 162.312C390.181 161.996 391.027 161.762 391.877 161.612C392.735 161.462 393.514 161.387 394.214 161.387C396.073 161.387 397.452 161.783 398.352 162.575C399.252 163.358 399.702 164.471 399.702 165.912V171.512ZM393.777 172.987C394.277 172.987 394.781 172.846 395.289 172.562C395.806 172.279 396.21 171.883 396.502 171.375V168.8H395.202C393.977 168.8 393.089 168.996 392.539 169.387C391.998 169.779 391.727 170.333 391.727 171.05C391.727 171.667 391.902 172.146 392.252 172.487C392.602 172.821 393.11 172.987 393.777 172.987ZM415.797 161.762L411.247 175H407.372L402.797 161.762H406.347L409.36 172.362L412.435 161.762H415.797ZM421.292 169.387C421.359 170.212 421.547 170.883 421.855 171.4C422.172 171.917 422.576 172.296 423.067 172.537C423.559 172.779 424.105 172.9 424.705 172.9C425.338 172.9 425.934 172.8 426.492 172.6C427.051 172.4 427.601 172.121 428.142 171.762L429.517 173.65C428.901 174.167 428.163 174.583 427.305 174.9C426.455 175.217 425.517 175.375 424.492 175.375C423.059 175.375 421.851 175.079 420.867 174.487C419.892 173.896 419.155 173.075 418.655 172.025C418.155 170.975 417.905 169.767 417.905 168.4C417.905 167.083 418.151 165.896 418.642 164.837C419.134 163.779 419.842 162.942 420.767 162.325C421.692 161.7 422.809 161.387 424.117 161.387C425.334 161.387 426.384 161.654 427.267 162.187C428.151 162.721 428.834 163.487 429.317 164.487C429.801 165.479 430.042 166.675 430.042 168.075C430.042 168.3 430.034 168.529 430.017 168.762C430.009 168.996 429.997 169.204 429.98 169.387H421.292ZM424.13 163.712C423.33 163.712 422.672 164 422.155 164.575C421.647 165.142 421.347 166.042 421.255 167.275H426.83C426.813 166.158 426.58 165.287 426.13 164.662C425.688 164.029 425.022 163.712 424.13 163.712ZM439.45 156.475V171.15C439.45 171.725 439.617 172.133 439.95 172.375C440.292 172.617 440.75 172.737 441.325 172.737C441.683 172.737 442.029 172.7 442.363 172.625C442.696 172.542 443.013 172.442 443.313 172.325L444.125 174.575C443.708 174.783 443.2 174.967 442.6 175.125C442.008 175.292 441.321 175.375 440.538 175.375C439.096 175.375 438.004 174.962 437.263 174.137C436.521 173.312 436.15 172.2 436.15 170.8V158.812H432.188V156.475H439.45ZM470.103 161.762V172.662H473.591V175H462.928V172.662H466.803V164.1H463.053V161.762H470.103ZM467.966 155.087C468.574 155.087 469.066 155.275 469.441 155.65C469.824 156.025 470.016 156.492 470.016 157.05C470.016 157.608 469.824 158.079 469.441 158.462C469.066 158.837 468.574 159.025 467.966 159.025C467.357 159.025 466.861 158.837 466.478 158.462C466.095 158.079 465.903 157.608 465.903 157.05C465.903 156.492 466.095 156.025 466.478 155.65C466.861 155.275 467.357 155.087 467.966 155.087ZM477.161 175V161.762H480.036L480.273 163.4C480.84 162.733 481.478 162.233 482.186 161.9C482.894 161.558 483.657 161.387 484.473 161.387C485.665 161.387 486.573 161.733 487.198 162.425C487.823 163.108 488.136 164.071 488.136 165.312V175H484.836V166.6C484.836 165.933 484.794 165.4 484.711 165C484.628 164.592 484.469 164.3 484.236 164.125C484.003 163.942 483.665 163.85 483.223 163.85C482.865 163.85 482.519 163.929 482.186 164.087C481.861 164.246 481.553 164.458 481.261 164.725C480.978 164.992 480.711 165.287 480.461 165.612V175H477.161ZM517.926 174.262C517.435 174.587 516.839 174.854 516.139 175.063C515.439 175.271 514.68 175.375 513.864 175.375C512.247 175.375 511.03 174.958 510.214 174.125C509.397 173.283 508.989 172.167 508.989 170.775V164.1H506.114V161.762H508.989V158.85L512.289 158.45V161.762H516.664L516.326 164.1H512.289V170.762C512.289 171.446 512.455 171.946 512.789 172.262C513.122 172.579 513.66 172.737 514.401 172.737C514.876 172.737 515.31 172.683 515.701 172.575C516.101 172.458 516.464 172.312 516.789 172.137L517.926 174.262ZM528.784 161.762V172.662H532.272V175H521.609V172.662H525.484V164.1H521.734V161.762H528.784ZM526.647 155.087C527.255 155.087 527.747 155.275 528.122 155.65C528.505 156.025 528.697 156.492 528.697 157.05C528.697 157.608 528.505 158.079 528.122 158.462C527.747 158.837 527.255 159.025 526.647 159.025C526.038 159.025 525.542 158.837 525.159 158.462C524.776 158.079 524.584 157.608 524.584 157.05C524.584 156.492 524.776 156.025 525.159 155.65C525.542 155.275 526.038 155.087 526.647 155.087ZM545.254 161.387C545.821 161.387 546.304 161.508 546.704 161.75C547.104 161.983 547.413 162.379 547.629 162.937C547.846 163.487 547.954 164.237 547.954 165.187V175H545.079V165.6C545.079 165 545.029 164.575 544.929 164.325C544.838 164.075 544.625 163.95 544.292 163.95C544.017 163.95 543.738 164.033 543.454 164.2C543.179 164.358 542.892 164.646 542.592 165.062V175H540.104V165.6C540.104 165 540.054 164.575 539.954 164.325C539.863 164.075 539.65 163.95 539.317 163.95C539.033 163.95 538.754 164.033 538.479 164.2C538.204 164.358 537.917 164.646 537.617 165.062V175H534.704V161.762H537.167L537.379 163.137C537.771 162.587 538.183 162.158 538.617 161.85C539.05 161.542 539.571 161.387 540.179 161.387C540.679 161.387 541.121 161.512 541.504 161.762C541.896 162.004 542.175 162.421 542.342 163.012C542.725 162.529 543.154 162.137 543.629 161.837C544.104 161.537 544.646 161.387 545.254 161.387ZM553.325 169.387C553.391 170.212 553.579 170.883 553.887 171.4C554.204 171.917 554.608 172.296 555.1 172.537C555.591 172.779 556.137 172.9 556.737 172.9C557.37 172.9 557.966 172.8 558.525 172.6C559.083 172.4 559.633 172.121 560.175 171.762L561.55 173.65C560.933 174.167 560.195 174.583 559.337 174.9C558.487 175.217 557.55 175.375 556.525 175.375C555.091 175.375 553.883 175.079 552.9 174.487C551.925 173.896 551.187 173.075 550.687 172.025C550.187 170.975 549.937 169.767 549.937 168.4C549.937 167.083 550.183 165.896 550.675 164.837C551.166 163.779 551.875 162.942 552.8 162.325C553.725 161.7 554.841 161.387 556.15 161.387C557.366 161.387 558.416 161.654 559.3 162.187C560.183 162.721 560.866 163.487 561.35 164.487C561.833 165.479 562.075 166.675 562.075 168.075C562.075 168.3 562.066 168.529 562.05 168.762C562.041 168.996 562.029 169.204 562.012 169.387H553.325ZM556.162 163.712C555.362 163.712 554.704 164 554.187 164.575C553.679 165.142 553.379 166.042 553.287 167.275H558.862C558.845 166.158 558.612 165.287 558.162 164.662C557.72 164.029 557.054 163.712 556.162 163.712ZM591.277 174.262C590.786 174.587 590.19 174.854 589.49 175.063C588.79 175.271 588.032 175.375 587.215 175.375C585.598 175.375 584.382 174.958 583.565 174.125C582.748 173.283 582.34 172.167 582.34 170.775V164.1H579.465V161.762H582.34V158.85L585.64 158.45V161.762H590.015L589.677 164.1H585.64V170.762C585.64 171.446 585.807 171.946 586.14 172.262C586.473 172.579 587.011 172.737 587.752 172.737C588.227 172.737 588.661 172.683 589.052 172.575C589.452 172.458 589.815 172.312 590.14 172.137L591.277 174.262ZM597.823 161.762V170.937C597.823 171.654 597.964 172.158 598.248 172.45C598.531 172.742 598.944 172.887 599.485 172.887C600.002 172.887 600.506 172.733 600.998 172.425C601.489 172.108 601.889 171.708 602.198 171.225V161.762H605.498V175H602.623L602.448 173.375C601.973 174.025 601.364 174.521 600.623 174.862C599.881 175.204 599.114 175.375 598.323 175.375C597.048 175.375 596.094 175.017 595.46 174.3C594.835 173.575 594.523 172.587 594.523 171.337V161.762H597.823ZM609.318 175V172.712H611.18V164.037H609.318V161.762H613.693L614.305 164.8C614.789 163.675 615.397 162.829 616.13 162.262C616.864 161.687 617.785 161.4 618.893 161.4C619.318 161.4 619.693 161.433 620.018 161.5C620.351 161.567 620.668 161.654 620.968 161.762L619.98 164.537C619.722 164.471 619.476 164.421 619.243 164.387C619.01 164.346 618.747 164.325 618.455 164.325C617.539 164.325 616.739 164.683 616.055 165.4C615.38 166.108 614.855 167.071 614.48 168.287V172.712H617.118V175H609.318ZM618.18 166.925V163.412L618.63 161.762H620.968L620.38 166.925H618.18ZM623.863 175V161.762H626.738L626.976 163.4C627.542 162.733 628.18 162.233 628.888 161.9C629.597 161.558 630.359 161.387 631.176 161.387C632.367 161.387 633.276 161.733 633.901 162.425C634.526 163.108 634.838 164.071 634.838 165.312V175H631.538V166.6C631.538 165.933 631.497 165.4 631.413 165C631.33 164.592 631.172 164.3 630.938 164.125C630.705 163.942 630.367 163.85 629.926 163.85C629.567 163.85 629.222 163.929 628.888 164.087C628.563 164.246 628.255 164.458 627.963 164.725C627.68 164.992 627.413 165.287 627.163 165.612V175H623.863ZM658.704 161.387C660.02 161.387 661.137 161.675 662.054 162.25C662.97 162.825 663.666 163.637 664.141 164.687C664.625 165.729 664.866 166.95 664.866 168.35C664.866 169.783 664.625 171.025 664.141 172.075C663.658 173.125 662.958 173.937 662.041 174.512C661.125 175.088 660.008 175.375 658.691 175.375C657.383 175.375 656.266 175.096 655.341 174.537C654.425 173.971 653.725 173.167 653.241 172.125C652.758 171.075 652.516 169.825 652.516 168.375C652.516 166.992 652.758 165.775 653.241 164.725C653.725 163.675 654.429 162.858 655.354 162.275C656.279 161.683 657.395 161.387 658.704 161.387ZM658.704 163.875C657.779 163.875 657.087 164.237 656.629 164.962C656.179 165.687 655.954 166.825 655.954 168.375C655.954 169.942 656.179 171.087 656.629 171.812C657.079 172.529 657.766 172.887 658.691 172.887C659.616 172.887 660.304 172.529 660.754 171.812C661.204 171.087 661.429 169.933 661.429 168.35C661.429 166.808 661.204 165.679 660.754 164.962C660.304 164.237 659.62 163.875 658.704 163.875ZM667.874 175V161.762H670.749L670.986 163.4C671.553 162.733 672.191 162.233 672.899 161.9C673.607 161.558 674.37 161.387 675.186 161.387C676.378 161.387 677.286 161.733 677.911 162.425C678.536 163.108 678.849 164.071 678.849 165.312V175H675.549V166.6C675.549 165.933 675.507 165.4 675.424 165C675.341 164.592 675.182 164.3 674.949 164.125C674.716 163.942 674.378 163.85 673.936 163.85C673.578 163.85 673.232 163.929 672.899 164.087C672.574 164.246 672.266 164.458 671.974 164.725C671.691 164.992 671.424 165.287 671.174 165.612V175H667.874ZM708.639 174.262C708.148 174.587 707.552 174.854 706.852 175.063C706.152 175.271 705.394 175.375 704.577 175.375C702.96 175.375 701.744 174.958 700.927 174.125C700.11 173.283 699.702 172.167 699.702 170.775V164.1H696.827V161.762H699.702V158.85L703.002 158.45V161.762H707.377L707.039 164.1H703.002V170.762C703.002 171.446 703.169 171.946 703.502 172.262C703.835 172.579 704.373 172.737 705.114 172.737C705.589 172.737 706.023 172.683 706.414 172.575C706.814 172.458 707.177 172.312 707.502 172.137L708.639 174.262ZM715.185 156.162V163.25C715.735 162.625 716.351 162.158 717.035 161.85C717.726 161.542 718.447 161.387 719.197 161.387C720.414 161.387 721.326 161.733 721.935 162.425C722.551 163.108 722.86 164.071 722.86 165.312V175H719.56V166.05C719.56 165.25 719.435 164.683 719.185 164.35C718.943 164.017 718.526 163.85 717.935 163.85C717.585 163.85 717.243 163.933 716.91 164.1C716.585 164.258 716.276 164.475 715.985 164.75C715.701 165.025 715.435 165.333 715.185 165.675V175H711.885V156.487L715.185 156.162ZM729.367 169.387C729.434 170.212 729.622 170.883 729.93 171.4C730.247 171.917 730.651 172.296 731.142 172.537C731.634 172.779 732.18 172.9 732.78 172.9C733.413 172.9 734.009 172.8 734.567 172.6C735.126 172.4 735.676 172.121 736.217 171.762L737.592 173.65C736.976 174.167 736.238 174.583 735.38 174.9C734.53 175.217 733.592 175.375 732.567 175.375C731.134 175.375 729.926 175.079 728.942 174.487C727.967 173.896 727.23 173.075 726.73 172.025C726.23 170.975 725.98 169.767 725.98 168.4C725.98 167.083 726.226 165.896 726.717 164.837C727.209 163.779 727.917 162.942 728.842 162.325C729.767 161.7 730.884 161.387 732.192 161.387C733.409 161.387 734.459 161.654 735.342 162.187C736.226 162.721 736.909 163.487 737.392 164.487C737.876 165.479 738.117 166.675 738.117 168.075C738.117 168.3 738.109 168.529 738.092 168.762C738.084 168.996 738.072 169.204 738.055 169.387H729.367ZM732.205 163.712C731.405 163.712 730.747 164 730.23 164.575C729.722 165.142 729.422 166.042 729.33 167.275H734.905C734.888 166.158 734.655 165.287 734.205 164.662C733.763 164.029 733.097 163.712 732.205 163.712ZM760.933 172.937C761.708 172.937 762.329 172.804 762.795 172.537C763.27 172.262 763.508 171.879 763.508 171.387C763.508 171.062 763.429 170.787 763.27 170.562C763.12 170.337 762.82 170.129 762.37 169.937C761.92 169.737 761.245 169.517 760.345 169.275C759.495 169.058 758.749 168.792 758.108 168.475C757.474 168.15 756.979 167.733 756.62 167.225C756.27 166.717 756.095 166.075 756.095 165.3C756.095 164.525 756.312 163.846 756.745 163.262C757.179 162.671 757.804 162.212 758.62 161.887C759.445 161.554 760.437 161.387 761.595 161.387C762.729 161.387 763.72 161.537 764.57 161.837C765.42 162.129 766.149 162.496 766.758 162.937L765.408 164.95C764.874 164.608 764.295 164.333 763.67 164.125C763.054 163.908 762.387 163.8 761.67 163.8C760.895 163.8 760.329 163.912 759.97 164.137C759.62 164.362 759.445 164.675 759.445 165.075C759.445 165.358 759.533 165.6 759.708 165.8C759.891 165.992 760.216 166.179 760.683 166.362C761.158 166.537 761.833 166.75 762.708 167C763.566 167.233 764.312 167.508 764.945 167.825C765.587 168.142 766.083 168.562 766.433 169.087C766.783 169.612 766.958 170.3 766.958 171.15C766.958 172.108 766.679 172.9 766.12 173.525C765.562 174.15 764.824 174.617 763.908 174.925C762.999 175.225 762.012 175.375 760.945 175.375C759.695 175.375 758.604 175.196 757.67 174.837C756.737 174.479 755.945 174.017 755.295 173.45L757.008 171.525C757.524 171.933 758.112 172.271 758.77 172.537C759.437 172.804 760.158 172.937 760.933 172.937ZM776.066 161.387C777.382 161.387 778.499 161.675 779.416 162.25C780.332 162.825 781.028 163.637 781.503 164.687C781.986 165.729 782.228 166.95 782.228 168.35C782.228 169.783 781.986 171.025 781.503 172.075C781.02 173.125 780.32 173.937 779.403 174.512C778.486 175.088 777.37 175.375 776.053 175.375C774.745 175.375 773.628 175.096 772.703 174.537C771.786 173.971 771.086 173.167 770.603 172.125C770.12 171.075 769.878 169.825 769.878 168.375C769.878 166.992 770.12 165.775 770.603 164.725C771.086 163.675 771.791 162.858 772.716 162.275C773.641 161.683 774.757 161.387 776.066 161.387ZM776.066 163.875C775.141 163.875 774.449 164.237 773.991 164.962C773.541 165.687 773.316 166.825 773.316 168.375C773.316 169.942 773.541 171.087 773.991 171.812C774.441 172.529 775.128 172.887 776.053 172.887C776.978 172.887 777.666 172.529 778.116 171.812C778.566 171.087 778.791 169.933 778.791 168.35C778.791 166.808 778.566 165.679 778.116 164.962C777.666 164.237 776.982 163.875 776.066 163.875ZM788.536 161.762V170.937C788.536 171.654 788.677 172.158 788.961 172.45C789.244 172.742 789.657 172.887 790.198 172.887C790.715 172.887 791.219 172.733 791.711 172.425C792.202 172.108 792.602 171.708 792.911 171.225V161.762H796.211V175H793.336L793.161 173.375C792.686 174.025 792.077 174.521 791.336 174.862C790.594 175.204 789.827 175.375 789.036 175.375C787.761 175.375 786.807 175.017 786.173 174.3C785.548 173.575 785.236 172.587 785.236 171.337V161.762H788.536ZM799.906 175V161.762H802.781L803.019 163.4C803.585 162.733 804.223 162.233 804.931 161.9C805.639 161.558 806.402 161.387 807.219 161.387C808.41 161.387 809.319 161.733 809.944 162.425C810.569 163.108 810.881 164.071 810.881 165.312V175H807.581V166.6C807.581 165.933 807.539 165.4 807.456 165C807.373 164.592 807.214 164.3 806.981 164.125C806.748 163.942 806.41 163.85 805.969 163.85C805.61 163.85 805.264 163.929 804.931 164.087C804.606 164.246 804.298 164.458 804.006 164.725C803.723 164.992 803.456 165.287 803.206 165.612V175H799.906ZM822.251 156.125L825.551 156.475V175H822.626L822.426 173.438C822.018 174.021 821.505 174.492 820.889 174.85C820.272 175.2 819.555 175.375 818.739 175.375C817.622 175.375 816.697 175.083 815.964 174.5C815.239 173.917 814.697 173.1 814.339 172.05C813.989 170.992 813.814 169.762 813.814 168.362C813.814 167.012 814.022 165.812 814.439 164.762C814.855 163.712 815.455 162.887 816.239 162.287C817.03 161.687 817.968 161.387 819.051 161.387C819.701 161.387 820.293 161.5 820.826 161.725C821.36 161.95 821.835 162.283 822.251 162.725V156.125ZM819.939 163.85C819.105 163.85 818.447 164.212 817.964 164.937C817.489 165.654 817.251 166.8 817.251 168.375C817.251 169.483 817.351 170.371 817.551 171.037C817.751 171.696 818.035 172.171 818.401 172.462C818.768 172.754 819.201 172.9 819.701 172.9C820.251 172.9 820.735 172.737 821.151 172.412C821.576 172.079 821.943 171.667 822.251 171.175V165.15C821.943 164.742 821.597 164.425 821.214 164.2C820.839 163.967 820.414 163.85 819.939 163.85ZM832.147 172.787C832.147 172.321 832.259 171.892 832.484 171.5C832.717 171.108 833.03 170.796 833.422 170.562C833.813 170.329 834.247 170.212 834.722 170.212C835.205 170.212 835.642 170.329 836.034 170.562C836.426 170.796 836.734 171.108 836.959 171.5C837.192 171.892 837.309 172.321 837.309 172.787C837.309 173.254 837.192 173.687 836.959 174.087C836.734 174.479 836.426 174.792 836.034 175.025C835.642 175.258 835.205 175.375 834.722 175.375C834.247 175.375 833.813 175.258 833.422 175.025C833.03 174.792 832.717 174.479 832.484 174.087C832.259 173.687 832.147 173.254 832.147 172.787Z" fill="#57EB23"/>
<mask id="path-4-inside-1_583_334" fill="white">
<path d="M602.062 358.829C596.2 370.409 587.871 380.124 577.671 388.214C571.605 393.025 565.25 397.284 557.734 399.482C555.115 400.244 554.15 400.933 552.575 398.981C551.066 397.11 551.262 394.795 552.401 392.611C552.858 391.726 578.919 369.444 584.694 364.663C586.065 363.531 588.807 362.566 587.03 360.157C585.209 357.69 583.243 359.809 581.755 360.984C575.719 365.744 544.283 396.921 541.976 396.732C536.259 396.261 530.52 396.05 525.42 392.967C519.55 389.426 515.734 380.487 517.2 373.877C517.476 372.644 518.303 372.005 519.384 371.512C532.356 365.577 562.051 356.384 563.327 356.109C564.916 355.76 566.055 354.955 565.714 353.25C565.33 351.32 563.705 351.153 562.145 351.552C558.967 352.358 529.838 361.492 518.97 366.622C517.098 367.507 515.8 367.108 514.363 365.468C506.121 356.036 504.576 345.095 507.115 333.341C508.008 329.227 510.38 325.606 512.361 321.877C513.181 320.332 514.385 320.107 515.879 320.295C520.349 320.854 569.168 326.702 569.429 324.627C569.69 322.508 567.869 321.964 566.302 321.739C559.903 320.803 526.53 317.103 516.315 315.601C514.399 315.318 513.696 314.23 513.413 312.713C510.271 295.989 515.263 280.064 529.374 269.202C531.05 267.911 532.116 268.477 533.429 269.739C540.467 276.494 568.05 296.019 574.478 299.262C575.85 299.951 577.054 299.944 577.809 298.442C578.534 297.005 577.605 296.033 576.524 295.431C573.173 293.559 539.828 269.325 536.469 266.322C534.96 264.972 534.51 263.659 535.308 261.627C536.687 258.152 537.34 254.35 539.233 251.121C545.879 239.803 553.417 235.703 565.236 236.806C566.904 236.959 567.405 238.018 567.804 239.331C569.755 245.789 592.42 286.615 595.758 289.024C596.911 289.859 598.594 290.221 599.552 288.872C600.394 287.682 599.755 286.245 598.58 285.425C588.169 278.206 573.746 242.458 572.94 240.064C572.07 237.467 572.541 235.711 575.146 234.274C581.32 230.864 586.725 231.125 592.71 236.175C637.358 262.498 607.591 347.852 602.04 358.829H602.062Z"/>
<path d="M575.01 401.649C580.147 403.172 584.521 404.457 588.889 405.763C601.622 409.579 614.347 413.41 627.08 417.233C631.563 418.583 636.098 419.78 640.509 421.318C643.36 422.312 645.674 422.015 648.105 420.201C656.361 414.027 664.704 407.975 673.048 401.917C673.838 401.344 674.622 400.176 675.703 400.662C676.835 401.17 676.211 402.505 676.363 403.47C677.074 407.917 675.006 412.118 675.159 416.537C675.202 417.727 674.042 418.452 673.2 419.178C663.609 427.442 653.989 435.662 644.426 443.956C642.758 445.399 641.263 445.682 639.079 444.971C619.418 438.543 599.706 432.252 580.016 425.933C579.573 425.788 579.109 425.693 578.659 425.577C574.967 424.591 574.568 424.075 575.141 420.288C575.38 418.677 575.366 417.125 575.104 415.536C574.785 413.577 574.531 411.545 575.264 409.68C576.236 407.199 576.497 404.812 575.01 401.641V401.649Z"/>
<path d="M643.607 458.851C637.636 459.185 632.927 456.471 628.03 454.81C612.076 449.397 596.267 443.549 580.372 437.97C576.918 436.758 573.443 435.641 570.244 433.856C567.719 432.441 567.03 430.736 568.016 428.574C569.177 426.034 571.049 425.265 573.748 426.136C594.236 432.76 614.739 439.348 635.22 445.994C645.043 449.179 642.859 449.658 650.971 442.707C659.517 435.379 668.056 428.059 676.603 420.73C677.727 419.765 678.707 418.503 680.412 419.969C682.798 422.022 683.633 424.083 682.501 426.049C682.044 426.847 681.384 427.551 680.724 428.211C671.357 437.549 661.592 446.458 651.95 455.506C649.433 457.871 646.726 459.489 643.621 458.865L643.607 458.851Z"/>
<path d="M629.321 379.758C610.132 378.554 594.207 383.582 593.743 390.982C593.285 398.383 608.456 405.363 627.638 406.567C646.821 407.772 662.753 402.744 663.21 395.343C663.674 387.942 648.504 380.963 629.321 379.758ZM627.732 396.54C619.571 396.025 613.092 393.333 613.273 390.518C613.447 387.703 620.209 385.838 628.371 386.346C636.54 386.861 643.019 389.553 642.837 392.375C642.663 395.183 635.902 397.048 627.732 396.54Z"/>
<path d="M672.496 400.749L645.566 419.722C644.891 420.194 644.028 420.339 643.237 420.106L579.501 401.394C577.303 400.749 576.889 397.868 578.819 396.649L591.922 388.414C591.936 388.545 591.951 388.676 591.973 388.806C591.276 389.815 590.877 390.888 590.804 392.013C590.304 399.98 606.635 407.489 627.276 408.781C647.924 410.079 665.067 404.667 665.561 396.7C665.619 395.815 665.466 394.93 665.118 394.066L671.735 396.098C673.846 396.744 674.296 399.486 672.496 400.749Z"/>
<path d="M624.091 298.904C618.127 299.796 617.235 335.631 622.915 336.886C626.282 337.626 631.135 326.054 636.054 327.411C637.578 327.831 638.804 329.399 639.232 329.965C640.567 331.742 641.169 333.97 641.111 336.19L638.006 376.559C639.674 376.465 642.083 376.516 644.869 377.256C647.227 377.88 649.084 378.801 650.39 379.585C651.5 363.159 652.61 346.732 653.72 330.306C653.59 328.92 653.227 326.837 652.073 324.661C648.852 318.595 642.83 318.167 636.671 313.959C627.072 307.407 627.072 298.461 624.091 298.904Z"/>
</mask>
<path d="M602.062 358.829C596.2 370.409 587.871 380.124 577.671 388.214C571.605 393.025 565.25 397.284 557.734 399.482C555.115 400.244 554.15 400.933 552.575 398.981C551.066 397.11 551.262 394.795 552.401 392.611C552.858 391.726 578.919 369.444 584.694 364.663C586.065 363.531 588.807 362.566 587.03 360.157C585.209 357.69 583.243 359.809 581.755 360.984C575.719 365.744 544.283 396.921 541.976 396.732C536.259 396.261 530.52 396.05 525.42 392.967C519.55 389.426 515.734 380.487 517.2 373.877C517.476 372.644 518.303 372.005 519.384 371.512C532.356 365.577 562.051 356.384 563.327 356.109C564.916 355.76 566.055 354.955 565.714 353.25C565.33 351.32 563.705 351.153 562.145 351.552C558.967 352.358 529.838 361.492 518.97 366.622C517.098 367.507 515.8 367.108 514.363 365.468C506.121 356.036 504.576 345.095 507.115 333.341C508.008 329.227 510.38 325.606 512.361 321.877C513.181 320.332 514.385 320.107 515.879 320.295C520.349 320.854 569.168 326.702 569.429 324.627C569.69 322.508 567.869 321.964 566.302 321.739C559.903 320.803 526.53 317.103 516.315 315.601C514.399 315.318 513.696 314.23 513.413 312.713C510.271 295.989 515.263 280.064 529.374 269.202C531.05 267.911 532.116 268.477 533.429 269.739C540.467 276.494 568.05 296.019 574.478 299.262C575.85 299.951 577.054 299.944 577.809 298.442C578.534 297.005 577.605 296.033 576.524 295.431C573.173 293.559 539.828 269.325 536.469 266.322C534.96 264.972 534.51 263.659 535.308 261.627C536.687 258.152 537.34 254.35 539.233 251.121C545.879 239.803 553.417 235.703 565.236 236.806C566.904 236.959 567.405 238.018 567.804 239.331C569.755 245.789 592.42 286.615 595.758 289.024C596.911 289.859 598.594 290.221 599.552 288.872C600.394 287.682 599.755 286.245 598.58 285.425C588.169 278.206 573.746 242.458 572.94 240.064C572.07 237.467 572.541 235.711 575.146 234.274C581.32 230.864 586.725 231.125 592.71 236.175C637.358 262.498 607.591 347.852 602.04 358.829H602.062Z" fill="#2B3A19"/>
<path d="M575.01 401.649C580.147 403.172 584.521 404.457 588.889 405.763C601.622 409.579 614.347 413.41 627.08 417.233C631.563 418.583 636.098 419.78 640.509 421.318C643.36 422.312 645.674 422.015 648.105 420.201C656.361 414.027 664.704 407.975 673.048 401.917C673.838 401.344 674.622 400.176 675.703 400.662C676.835 401.17 676.211 402.505 676.363 403.47C677.074 407.917 675.006 412.118 675.159 416.537C675.202 417.727 674.042 418.452 673.2 419.178C663.609 427.442 653.989 435.662 644.426 443.956C642.758 445.399 641.263 445.682 639.079 444.971C619.418 438.543 599.706 432.252 580.016 425.933C579.573 425.788 579.109 425.693 578.659 425.577C574.967 424.591 574.568 424.075 575.141 420.288C575.38 418.677 575.366 417.125 575.104 415.536C574.785 413.577 574.531 411.545 575.264 409.68C576.236 407.199 576.497 404.812 575.01 401.641V401.649Z" fill="#2B3A19"/>
<path d="M643.607 458.851C637.636 459.185 632.927 456.471 628.03 454.81C612.076 449.397 596.267 443.549 580.372 437.97C576.918 436.758 573.443 435.641 570.244 433.856C567.719 432.441 567.03 430.736 568.016 428.574C569.177 426.034 571.049 425.265 573.748 426.136C594.236 432.76 614.739 439.348 635.22 445.994C645.043 449.179 642.859 449.658 650.971 442.707C659.517 435.379 668.056 428.059 676.603 420.73C677.727 419.765 678.707 418.503 680.412 419.969C682.798 422.022 683.633 424.083 682.501 426.049C682.044 426.847 681.384 427.551 680.724 428.211C671.357 437.549 661.592 446.458 651.95 455.506C649.433 457.871 646.726 459.489 643.621 458.865L643.607 458.851Z" fill="#2B3A19"/>
<path d="M629.321 379.758C610.132 378.554 594.207 383.582 593.743 390.982C593.285 398.383 608.456 405.363 627.638 406.567C646.821 407.772 662.753 402.744 663.21 395.343C663.674 387.942 648.504 380.963 629.321 379.758ZM627.732 396.54C619.571 396.025 613.092 393.333 613.273 390.518C613.447 387.703 620.209 385.838 628.371 386.346C636.54 386.861 643.019 389.553 642.837 392.375C642.663 395.183 635.902 397.048 627.732 396.54Z" fill="#57EB23"/>
<path d="M672.496 400.749L645.566 419.722C644.891 420.194 644.028 420.339 643.237 420.106L579.501 401.394C577.303 400.749 576.889 397.868 578.819 396.649L591.922 388.414C591.936 388.545 591.951 388.676 591.973 388.806C591.276 389.815 590.877 390.888 590.804 392.013C590.304 399.98 606.635 407.489 627.276 408.781C647.924 410.079 665.067 404.667 665.561 396.7C665.619 395.815 665.466 394.93 665.118 394.066L671.735 396.098C673.846 396.744 674.296 399.486 672.496 400.749Z" fill="#2B3A19"/>
<path d="M624.091 298.904C618.127 299.796 617.235 335.631 622.915 336.886C626.282 337.626 631.135 326.054 636.054 327.411C637.578 327.831 638.804 329.399 639.232 329.965C640.567 331.742 641.169 333.97 641.111 336.19L638.006 376.559C639.674 376.465 642.083 376.516 644.869 377.256C647.227 377.88 649.084 378.801 650.39 379.585C651.5 363.159 652.61 346.732 653.72 330.306C653.59 328.92 653.227 326.837 652.073 324.661C648.852 318.595 642.83 318.167 636.671 313.959C627.072 307.407 627.072 298.461 624.091 298.904Z" fill="#2B3A19"/>
<path d="M602.062 358.829C596.2 370.409 587.871 380.124 577.671 388.214C571.605 393.025 565.25 397.284 557.734 399.482C555.115 400.244 554.15 400.933 552.575 398.981C551.066 397.11 551.262 394.795 552.401 392.611C552.858 391.726 578.919 369.444 584.694 364.663C586.065 363.531 588.807 362.566 587.03 360.157C585.209 357.69 583.243 359.809 581.755 360.984C575.719 365.744 544.283 396.921 541.976 396.732C536.259 396.261 530.52 396.05 525.42 392.967C519.55 389.426 515.734 380.487 517.2 373.877C517.476 372.644 518.303 372.005 519.384 371.512C532.356 365.577 562.051 356.384 563.327 356.109C564.916 355.76 566.055 354.955 565.714 353.25C565.33 351.32 563.705 351.153 562.145 351.552C558.967 352.358 529.838 361.492 518.97 366.622C517.098 367.507 515.8 367.108 514.363 365.468C506.121 356.036 504.576 345.095 507.115 333.341C508.008 329.227 510.38 325.606 512.361 321.877C513.181 320.332 514.385 320.107 515.879 320.295C520.349 320.854 569.168 326.702 569.429 324.627C569.69 322.508 567.869 321.964 566.302 321.739C559.903 320.803 526.53 317.103 516.315 315.601C514.399 315.318 513.696 314.23 513.413 312.713C510.271 295.989 515.263 280.064 529.374 269.202C531.05 267.911 532.116 268.477 533.429 269.739C540.467 276.494 568.05 296.019 574.478 299.262C575.85 299.951 577.054 299.944 577.809 298.442C578.534 297.005 577.605 296.033 576.524 295.431C573.173 293.559 539.828 269.325 536.469 266.322C534.96 264.972 534.51 263.659 535.308 261.627C536.687 258.152 537.34 254.35 539.233 251.121C545.879 239.803 553.417 235.703 565.236 236.806C566.904 236.959 567.405 238.018 567.804 239.331C569.755 245.789 592.42 286.615 595.758 289.024C596.911 289.859 598.594 290.221 599.552 288.872C600.394 287.682 599.755 286.245 598.58 285.425C588.169 278.206 573.746 242.458 572.94 240.064C572.07 237.467 572.541 235.711 575.146 234.274C581.32 230.864 586.725 231.125 592.71 236.175C637.358 262.498 607.591 347.852 602.04 358.829H602.062Z" stroke="#57EB23" stroke-width="4" mask="url(#path-4-inside-1_583_334)"/>
<path d="M575.01 401.649C580.147 403.172 584.521 404.457 588.889 405.763C601.622 409.579 614.347 413.41 627.08 417.233C631.563 418.583 636.098 419.78 640.509 421.318C643.36 422.312 645.674 422.015 648.105 420.201C656.361 414.027 664.704 407.975 673.048 401.917C673.838 401.344 674.622 400.176 675.703 400.662C676.835 401.17 676.211 402.505 676.363 403.47C677.074 407.917 675.006 412.118 675.159 416.537C675.202 417.727 674.042 418.452 673.2 419.178C663.609 427.442 653.989 435.662 644.426 443.956C642.758 445.399 641.263 445.682 639.079 444.971C619.418 438.543 599.706 432.252 580.016 425.933C579.573 425.788 579.109 425.693 578.659 425.577C574.967 424.591 574.568 424.075 575.141 420.288C575.38 418.677 575.366 417.125 575.104 415.536C574.785 413.577 574.531 411.545 575.264 409.68C576.236 407.199 576.497 404.812 575.01 401.641V401.649Z" stroke="#57EB23" stroke-width="4" mask="url(#path-4-inside-1_583_334)"/>
<path d="M643.607 458.851C637.636 459.185 632.927 456.471 628.03 454.81C612.076 449.397 596.267 443.549 580.372 437.97C576.918 436.758 573.443 435.641 570.244 433.856C567.719 432.441 567.03 430.736 568.016 428.574C569.177 426.034 571.049 425.265 573.748 426.136C594.236 432.76 614.739 439.348 635.22 445.994C645.043 449.179 642.859 449.658 650.971 442.707C659.517 435.379 668.056 428.059 676.603 420.73C677.727 419.765 678.707 418.503 680.412 419.969C682.798 422.022 683.633 424.083 682.501 426.049C682.044 426.847 681.384 427.551 680.724 428.211C671.357 437.549 661.592 446.458 651.95 455.506C649.433 457.871 646.726 459.489 643.621 458.865L643.607 458.851Z" stroke="#57EB23" stroke-width="4" mask="url(#path-4-inside-1_583_334)"/>
<path d="M629.321 379.758C610.132 378.554 594.207 383.582 593.743 390.982C593.285 398.383 608.456 405.363 627.638 406.567C646.821 407.772 662.753 402.744 663.21 395.343C663.674 387.942 648.504 380.963 629.321 379.758ZM627.732 396.54C619.571 396.025 613.092 393.333 613.273 390.518C613.447 387.703 620.209 385.838 628.371 386.346C636.54 386.861 643.019 389.553 642.837 392.375C642.663 395.183 635.902 397.048 627.732 396.54Z" stroke="#57EB23" stroke-width="4" mask="url(#path-4-inside-1_583_334)"/>
<path d="M672.496 400.749L645.566 419.722C644.891 420.194 644.028 420.339 643.237 420.106L579.501 401.394C577.303 400.749 576.889 397.868 578.819 396.649L591.922 388.414C591.936 388.545 591.951 388.676 591.973 388.806C591.276 389.815 590.877 390.888 590.804 392.013C590.304 399.98 606.635 407.489 627.276 408.781C647.924 410.079 665.067 404.667 665.561 396.7C665.619 395.815 665.466 394.93 665.118 394.066L671.735 396.098C673.846 396.744 674.296 399.486 672.496 400.749Z" stroke="#57EB23" stroke-width="4" mask="url(#path-4-inside-1_583_334)"/>
<path d="M624.091 298.904C618.127 299.796 617.235 335.631 622.915 336.886C626.282 337.626 631.135 326.054 636.054 327.411C637.578 327.831 638.804 329.399 639.232 329.965C640.567 331.742 641.169 333.97 641.111 336.19L638.006 376.559C639.674 376.465 642.083 376.516 644.869 377.256C647.227 377.88 649.084 378.801 650.39 379.585C651.5 363.159 652.61 346.732 653.72 330.306C653.59 328.92 653.227 326.837 652.073 324.661C648.852 318.595 642.83 318.167 636.671 313.959C627.072 307.407 627.072 298.461 624.091 298.904Z" stroke="#57EB23" stroke-width="4" mask="url(#path-4-inside-1_583_334)"/>
<path d="M474.79 333.51C471.675 314.093 472.89 303.152 486.863 283.445M446.404 344.152C443.568 312.083 446.417 294.511 465.628 264.437" stroke="#57EB23" stroke-width="4" stroke-linecap="round"/>
<path d="M449.88 236.034C415.845 280.487 410.105 307.078 416.612 356.526" stroke="#57EB23" stroke-width="4" stroke-linecap="round"/>
</g>
<defs>
<filter id="filter0_i_583_334" x="0" y="0" width="1158" height="539" filterUnits="userSpaceOnUse" color-interpolation-filters="sRGB">
<feFlood flood-opacity="0" result="BackgroundImageFix"/>
<feBlend mode="normal" in="SourceGraphic" in2="BackgroundImageFix" result="shape"/>
<feColorMatrix in="SourceAlpha" type="matrix" values="0 0 0 0 0 0 0 0 0 0 0 0 0 0 0 0 0 0 127 0" result="hardAlpha"/>
<feOffset dy="4"/>
<feGaussianBlur stdDeviation="61"/>
<feComposite in2="hardAlpha" operator="arithmetic" k2="-1" k3="1"/>
<feColorMatrix type="matrix" values="0 0 0 0 0 0 0 0 0 0 0 0 0 0 0 0 0 0 0.5 0"/>
<feBlend mode="normal" in2="shape" result="effect1_innerShadow_583_334"/>
</filter>
<clipPath id="clip0_583_334">
<rect width="1158" height="535" fill="white"/>
</clipPath>
</defs>
</svg>
