<svg width="844" height="390" viewBox="0 0 844 390" fill="none" xmlns="http://www.w3.org/2000/svg">
<g clip-path="url(#clip0_662_246)">
<rect width="844" height="390" fill="white"/>
<g filter="url(#filter0_i_662_246)">
<path fill-rule="evenodd" clip-rule="evenodd" d="M597.063 0H0V535H1158V262.13C1158 261.926 1158 261.722 1158 261.518V0H597.063Z" fill="#121212"/>
</g>
<path d="M247.265 87.07C247.265 86.5253 247.16 86.0852 246.951 85.7495C246.749 85.4075 246.451 85.1573 246.058 84.999C245.666 84.8407 245.194 84.7615 244.643 84.7615H243.284V89.521H244.719C245.238 89.521 245.685 89.4418 246.058 89.2835C246.438 89.1188 246.733 88.856 246.942 88.495C247.157 88.134 247.265 87.659 247.265 87.07ZM249.963 87.051C249.963 88.0707 249.744 88.9067 249.307 89.559C248.877 90.205 248.272 90.6832 247.493 90.9935C246.714 91.2975 245.815 91.4495 244.795 91.4495H243.284V96H240.681V82.8615H244.548C246.252 82.8615 247.578 83.2067 248.528 83.897C249.485 84.5873 249.963 85.6387 249.963 87.051ZM259.772 93.3495C259.772 93.7358 259.829 94.0177 259.943 94.195C260.057 94.366 260.241 94.4958 260.494 94.5845L259.953 96.266C259.414 96.209 258.955 96.076 258.575 95.867C258.201 95.6517 257.913 95.3318 257.711 94.9075C257.331 95.3698 256.849 95.715 256.267 95.943C255.69 96.171 255.085 96.285 254.452 96.285C253.426 96.285 252.612 95.9937 252.011 95.411C251.409 94.8283 251.108 94.0715 251.108 93.1405C251.108 92.0702 251.526 91.2468 252.362 90.6705C253.204 90.0878 254.395 89.7965 255.934 89.7965H257.34V89.255C257.34 88.6597 257.156 88.229 256.789 87.963C256.422 87.6907 255.893 87.5545 255.203 87.5545C254.88 87.5545 254.474 87.5988 253.987 87.6875C253.505 87.7698 253.008 87.8997 252.495 88.077L251.897 86.3575C252.536 86.1168 253.179 85.9395 253.825 85.8255C254.477 85.7115 255.07 85.6545 255.602 85.6545C257.014 85.6545 258.062 85.9553 258.746 86.557C259.43 87.1523 259.772 87.9978 259.772 89.0935V93.3495ZM255.269 94.4705C255.649 94.4705 256.032 94.3628 256.419 94.1475C256.811 93.9322 257.118 93.6313 257.34 93.245V91.288H256.352C255.421 91.288 254.747 91.4368 254.329 91.7345C253.917 92.0322 253.711 92.4533 253.711 92.998C253.711 93.4667 253.844 93.8308 254.11 94.0905C254.376 94.3438 254.762 94.4705 255.269 94.4705ZM262.912 96V94.2615H264.328V87.6685H262.912V85.9395H266.237L266.703 88.248C267.07 87.393 267.532 86.7502 268.09 86.3195C268.647 85.8825 269.347 85.664 270.189 85.664C270.512 85.664 270.797 85.6893 271.044 85.74C271.297 85.7907 271.538 85.8572 271.766 85.9395L271.016 88.0485C270.819 87.9978 270.632 87.9598 270.455 87.9345C270.278 87.9028 270.078 87.887 269.857 87.887C269.16 87.887 268.552 88.1593 268.033 88.704C267.52 89.2423 267.121 89.9738 266.836 90.8985V94.2615H268.84V96H262.912ZM269.648 89.863V87.1935L269.99 85.9395H271.766L271.32 89.863H269.648ZM281.917 93.3495C281.917 93.7358 281.974 94.0177 282.088 94.195C282.202 94.366 282.386 94.4958 282.639 94.5845L282.098 96.266C281.559 96.209 281.1 96.076 280.72 95.867C280.347 95.6517 280.058 95.3318 279.856 94.9075C279.476 95.3698 278.994 95.715 278.412 95.943C277.835 96.171 277.231 96.285 276.597 96.285C275.571 96.285 274.757 95.9937 274.156 95.411C273.554 94.8283 273.253 94.0715 273.253 93.1405C273.253 92.0702 273.671 91.2468 274.507 90.6705C275.35 90.0878 276.54 89.7965 278.079 89.7965H279.485V89.255C279.485 88.6597 279.302 88.229 278.934 87.963C278.567 87.6907 278.038 87.5545 277.348 87.5545C277.025 87.5545 276.619 87.5988 276.132 87.6875C275.65 87.7698 275.153 87.8997 274.64 88.077L274.042 86.3575C274.681 86.1168 275.324 85.9395 275.97 85.8255C276.623 85.7115 277.215 85.6545 277.747 85.6545C279.159 85.6545 280.207 85.9553 280.891 86.557C281.575 87.1523 281.917 87.9978 281.917 89.0935V93.3495ZM277.414 94.4705C277.794 94.4705 278.177 94.3628 278.564 94.1475C278.956 93.9322 279.264 93.6313 279.485 93.245V91.288H278.497C277.566 91.288 276.892 91.4368 276.474 91.7345C276.062 92.0322 275.856 92.4533 275.856 92.998C275.856 93.4667 275.989 93.8308 276.255 94.0905C276.521 94.3438 276.908 94.4705 277.414 94.4705ZM305.145 85.9395L301.687 96H298.742L295.265 85.9395H297.963L300.253 93.9955L302.59 85.9395H305.145ZM312.893 85.9395V94.2235H315.543V96H307.44V94.2235H310.385V87.716H307.535V85.9395H312.893ZM311.268 80.8665C311.731 80.8665 312.104 81.009 312.389 81.294C312.681 81.579 312.826 81.9337 312.826 82.358C312.826 82.7823 312.681 83.1402 312.389 83.4315C312.104 83.7165 311.731 83.859 311.268 83.859C310.806 83.859 310.429 83.7165 310.138 83.4315C309.847 83.1402 309.701 82.7823 309.701 82.358C309.701 81.9337 309.847 81.579 310.138 81.294C310.429 81.009 310.806 80.8665 311.268 80.8665ZM326.208 93.3495C326.208 93.7358 326.265 94.0177 326.379 94.195C326.493 94.366 326.676 94.4958 326.93 94.5845L326.388 96.266C325.85 96.209 325.391 96.076 325.011 95.867C324.637 95.6517 324.349 95.3318 324.146 94.9075C323.766 95.3698 323.285 95.715 322.702 95.943C322.126 96.171 321.521 96.285 320.888 96.285C319.862 96.285 319.048 95.9937 318.446 95.411C317.844 94.8283 317.544 94.0715 317.544 93.1405C317.544 92.0702 317.962 91.2468 318.798 90.6705C319.64 90.0878 320.831 89.7965 322.37 89.7965H323.776V89.255C323.776 88.6597 323.592 88.229 323.225 87.963C322.857 87.6907 322.328 87.5545 321.638 87.5545C321.315 87.5545 320.91 87.5988 320.422 87.6875C319.941 87.7698 319.444 87.8997 318.931 88.077L318.332 86.3575C318.972 86.1168 319.615 85.9395 320.261 85.8255C320.913 85.7115 321.505 85.6545 322.037 85.6545C323.449 85.6545 324.498 85.9553 325.182 86.557C325.866 87.1523 326.208 87.9978 326.208 89.0935V93.3495ZM321.705 94.4705C322.085 94.4705 322.468 94.3628 322.854 94.1475C323.247 93.9322 323.554 93.6313 323.776 93.245V91.288H322.788C321.857 91.288 321.182 91.4368 320.764 91.7345C320.352 92.0322 320.147 92.4533 320.147 92.998C320.147 93.4667 320.28 93.8308 320.546 94.0905C320.812 94.3438 321.198 94.4705 321.705 94.4705ZM336.52 85.9395V93.5395C336.52 94.8758 336.254 95.981 335.722 96.855C335.196 97.729 334.421 98.4257 333.395 98.945C332.369 99.4643 331.111 99.8633 329.623 100.142L329.215 98.223C330.228 98.014 331.089 97.7385 331.799 97.3965C332.514 97.0545 333.062 96.589 333.442 96C333.822 95.411 334.012 94.6447 334.012 93.701V87.716H330.193V85.9395H336.52ZM334.734 80.8665C335.19 80.8665 335.564 81.009 335.855 81.294C336.146 81.579 336.292 81.9337 336.292 82.358C336.292 82.7823 336.146 83.1402 335.855 83.4315C335.564 83.7165 335.19 83.859 334.734 83.859C334.272 83.859 333.895 83.7165 333.604 83.4315C333.312 83.1402 333.167 82.7823 333.167 82.358C333.167 81.9337 333.312 81.579 333.604 81.294C333.895 81.009 334.272 80.8665 334.734 80.8665ZM348.353 93.3495C348.353 93.7358 348.41 94.0177 348.524 94.195C348.638 94.366 348.821 94.4958 349.075 94.5845L348.533 96.266C347.995 96.209 347.536 96.076 347.156 95.867C346.782 95.6517 346.494 95.3318 346.291 94.9075C345.911 95.3698 345.43 95.715 344.847 95.943C344.271 96.171 343.666 96.285 343.033 96.285C342.007 96.285 341.193 95.9937 340.591 95.411C339.989 94.8283 339.689 94.0715 339.689 93.1405C339.689 92.0702 340.107 91.2468 340.943 90.6705C341.785 90.0878 342.976 89.7965 344.515 89.7965H345.921V89.255C345.921 88.6597 345.737 88.229 345.37 87.963C345.002 87.6907 344.473 87.5545 343.783 87.5545C343.46 87.5545 343.055 87.5988 342.567 87.6875C342.086 87.7698 341.589 87.8997 341.076 88.077L340.477 86.3575C341.117 86.1168 341.76 85.9395 342.406 85.8255C343.058 85.7115 343.65 85.6545 344.182 85.6545C345.594 85.6545 346.643 85.9553 347.327 86.557C348.011 87.1523 348.353 87.9978 348.353 89.0935V93.3495ZM343.85 94.4705C344.23 94.4705 344.613 94.3628 344.999 94.1475C345.392 93.9322 345.699 93.6313 345.921 93.245V91.288H344.933C344.002 91.288 343.327 91.4368 342.909 91.7345C342.497 92.0322 342.292 92.4533 342.292 92.998C342.292 93.4667 342.425 93.8308 342.691 94.0905C342.957 94.3438 343.343 94.4705 343.85 94.4705ZM351.493 96V94.2615H352.908V87.6685H351.493V85.9395H354.818L355.283 88.248C355.651 87.393 356.113 86.7502 356.67 86.3195C357.228 85.8825 357.927 85.664 358.77 85.664C359.093 85.664 359.378 85.6893 359.625 85.74C359.878 85.7907 360.119 85.8572 360.347 85.9395L359.596 88.0485C359.4 87.9978 359.213 87.9598 359.036 87.9345C358.858 87.9028 358.659 87.887 358.437 87.887C357.741 87.887 357.133 88.1593 356.613 88.704C356.1 89.2423 355.701 89.9738 355.416 90.8985V94.2615H357.421V96H351.493ZM358.228 89.863V87.1935L358.57 85.9395H360.347L359.9 89.863H358.228ZM373.543 96V85.9395H375.728L375.908 87.184C376.339 86.6773 376.824 86.2973 377.362 86.044C377.9 85.7843 378.48 85.6545 379.1 85.6545C380.006 85.6545 380.696 85.9173 381.171 86.443C381.646 86.9623 381.884 87.6938 381.884 88.6375V96H379.376V89.616C379.376 89.1093 379.344 88.704 379.281 88.4C379.218 88.0897 379.097 87.868 378.92 87.735C378.743 87.5957 378.486 87.526 378.15 87.526C377.878 87.526 377.615 87.5862 377.362 87.7065C377.115 87.8268 376.881 87.9883 376.659 88.191C376.444 88.3937 376.241 88.6185 376.051 88.8655V96H373.543ZM388.795 85.6545C389.796 85.6545 390.645 85.873 391.341 86.31C392.038 86.747 392.567 87.3645 392.928 88.1625C393.295 88.9542 393.479 89.882 393.479 90.946C393.479 92.0353 393.295 92.979 392.928 93.777C392.561 94.575 392.029 95.1925 391.332 95.6295C390.635 96.0665 389.787 96.285 388.786 96.285C387.792 96.285 386.943 96.0728 386.24 95.6485C385.543 95.2178 385.011 94.6067 384.644 93.815C384.277 93.017 384.093 92.067 384.093 90.965C384.093 89.9137 384.277 88.989 384.644 88.191C385.011 87.393 385.546 86.7723 386.249 86.329C386.952 85.8793 387.801 85.6545 388.795 85.6545ZM388.795 87.545C388.092 87.545 387.567 87.8205 387.218 88.3715C386.876 88.9225 386.705 89.787 386.705 90.965C386.705 92.1557 386.876 93.0265 387.218 93.5775C387.56 94.1222 388.083 94.3945 388.786 94.3945C389.489 94.3945 390.011 94.1222 390.353 93.5775C390.695 93.0265 390.866 92.1493 390.866 90.946C390.866 89.7743 390.695 88.9162 390.353 88.3715C390.011 87.8205 389.492 87.545 388.795 87.545ZM415.444 95.4395C415.07 95.6865 414.617 95.8892 414.085 96.0475C413.553 96.2058 412.977 96.285 412.356 96.285C411.127 96.285 410.203 95.9683 409.582 95.335C408.961 94.6953 408.651 93.8467 408.651 92.789V87.716H406.466V85.9395H408.651V83.726L411.159 83.422V85.9395H414.484L414.228 87.716H411.159V92.7795C411.159 93.2988 411.286 93.6788 411.539 93.9195C411.792 94.1602 412.201 94.2805 412.765 94.2805C413.126 94.2805 413.455 94.2393 413.753 94.157C414.057 94.0683 414.332 93.9575 414.579 93.8245L415.444 95.4395ZM419.971 91.7345C420.021 92.3615 420.164 92.8713 420.398 93.264C420.639 93.6567 420.946 93.9448 421.32 94.1285C421.693 94.3122 422.108 94.404 422.564 94.404C423.046 94.404 423.498 94.328 423.923 94.176C424.347 94.024 424.765 93.8118 425.177 93.5395L426.222 94.974C425.753 95.3667 425.193 95.6833 424.54 95.924C423.894 96.1647 423.182 96.285 422.403 96.285C421.313 96.285 420.395 96.0602 419.648 95.6105C418.907 95.1608 418.346 94.537 417.966 93.739C417.586 92.941 417.396 92.0227 417.396 90.984C417.396 89.9833 417.583 89.0808 417.957 88.2765C418.33 87.4722 418.869 86.8357 419.572 86.367C420.275 85.892 421.123 85.6545 422.118 85.6545C423.042 85.6545 423.84 85.8572 424.512 86.2625C425.183 86.6678 425.702 87.2505 426.07 88.0105C426.437 88.7642 426.621 89.673 426.621 90.737C426.621 90.908 426.614 91.0822 426.602 91.2595C426.595 91.4368 426.586 91.5952 426.573 91.7345H419.971ZM422.127 87.4215C421.519 87.4215 421.019 87.64 420.626 88.077C420.24 88.5077 420.012 89.1917 419.942 90.129H424.179C424.167 89.2803 423.989 88.6185 423.647 88.1435C423.312 87.6622 422.805 87.4215 422.127 87.4215ZM436.059 85.6545C436.49 85.6545 436.857 85.7463 437.161 85.93C437.465 86.1073 437.7 86.4082 437.864 86.8325C438.029 87.2505 438.111 87.8205 438.111 88.5425V96H435.926V88.856C435.926 88.4 435.888 88.077 435.812 87.887C435.743 87.697 435.581 87.602 435.328 87.602C435.119 87.602 434.907 87.6653 434.691 87.792C434.482 87.9123 434.264 88.1308 434.036 88.4475V96H432.145V88.856C432.145 88.4 432.107 88.077 432.031 87.887C431.962 87.697 431.8 87.602 431.547 87.602C431.331 87.602 431.119 87.6653 430.91 87.792C430.701 87.9123 430.483 88.1308 430.255 88.4475V96H428.041V85.9395H429.913L430.074 86.9845C430.372 86.5665 430.685 86.2403 431.015 86.006C431.344 85.7717 431.74 85.6545 432.202 85.6545C432.582 85.6545 432.918 85.7495 433.209 85.9395C433.507 86.1232 433.719 86.4398 433.846 86.8895C434.137 86.5222 434.463 86.2245 434.824 85.9965C435.185 85.7685 435.597 85.6545 436.059 85.6545ZM445.175 85.6545C446.062 85.6545 446.771 85.873 447.303 86.31C447.841 86.7407 448.231 87.3518 448.471 88.1435C448.718 88.9352 448.842 89.8693 448.842 90.946C448.842 91.9783 448.693 92.8967 448.395 93.701C448.098 94.5053 447.661 95.1387 447.084 95.601C446.514 96.057 445.811 96.285 444.975 96.285C443.949 96.285 443.12 95.9208 442.486 95.1925V99.876L439.978 100.142V85.9395H442.182L442.315 87.165C442.714 86.6457 443.161 86.2657 443.655 86.025C444.149 85.778 444.656 85.6545 445.175 85.6545ZM444.443 87.5355C444.019 87.5355 443.645 87.6622 443.322 87.9155C443.006 88.1688 442.727 88.4823 442.486 88.856V93.359C442.714 93.701 442.974 93.9575 443.265 94.1285C443.557 94.2995 443.886 94.385 444.253 94.385C444.893 94.385 445.381 94.119 445.716 93.587C446.058 93.0487 446.229 92.1778 446.229 90.9745C446.229 90.1258 446.16 89.4513 446.02 88.951C445.887 88.4443 445.688 88.0833 445.422 87.868C445.156 87.6463 444.83 87.5355 444.443 87.5355ZM455.231 85.6545C456.232 85.6545 457.08 85.873 457.777 86.31C458.474 86.747 459.002 87.3645 459.363 88.1625C459.731 88.9542 459.914 89.882 459.914 90.946C459.914 92.0353 459.731 92.979 459.363 93.777C458.996 94.575 458.464 95.1925 457.767 95.6295C457.071 96.0665 456.222 96.285 455.221 96.285C454.227 96.285 453.378 96.0728 452.675 95.6485C451.979 95.2178 451.447 94.6067 451.079 93.815C450.712 93.017 450.528 92.067 450.528 90.965C450.528 89.9137 450.712 88.989 451.079 88.191C451.447 87.393 451.982 86.7723 452.685 86.329C453.388 85.8793 454.237 85.6545 455.231 85.6545ZM455.231 87.545C454.528 87.545 454.002 87.8205 453.654 88.3715C453.312 88.9225 453.141 89.787 453.141 90.965C453.141 92.1557 453.312 93.0265 453.654 93.5775C453.996 94.1222 454.518 94.3945 455.221 94.3945C455.924 94.3945 456.447 94.1222 456.789 93.5775C457.131 93.0265 457.302 92.1493 457.302 90.946C457.302 89.7743 457.131 88.9162 456.789 88.3715C456.447 87.8205 455.928 87.545 455.231 87.545ZM477.984 81.921V93.074C477.984 93.511 478.111 93.8213 478.364 94.005C478.624 94.1887 478.972 94.2805 479.409 94.2805C479.681 94.2805 479.944 94.252 480.198 94.195C480.451 94.1317 480.692 94.0557 480.92 93.967L481.537 95.677C481.22 95.8353 480.834 95.9747 480.378 96.095C479.928 96.2217 479.406 96.285 478.811 96.285C477.715 96.285 476.885 95.9715 476.322 95.3445C475.758 94.7175 475.476 93.872 475.476 92.808V83.6975H472.465V81.921H477.984ZM490.054 85.9395V94.2235H492.705V96H484.601V94.2235H487.546V87.716H484.696V85.9395H490.054ZM488.43 80.8665C488.892 80.8665 489.266 81.009 489.551 81.294C489.842 81.579 489.988 81.9337 489.988 82.358C489.988 82.7823 489.842 83.1402 489.551 83.4315C489.266 83.7165 488.892 83.859 488.43 83.859C487.967 83.859 487.591 83.7165 487.299 83.4315C487.008 83.1402 486.862 82.7823 486.862 82.358C486.862 81.9337 487.008 81.579 487.299 81.294C487.591 81.009 487.967 80.8665 488.43 80.8665ZM504.015 84.524L504.642 86.481C504.262 86.614 503.834 86.709 503.359 86.766C502.884 86.8167 502.34 86.842 501.725 86.842C502.34 87.108 502.805 87.4468 503.122 87.8585C503.445 88.2638 503.606 88.78 503.606 89.407C503.606 90.0593 503.438 90.642 503.103 91.155C502.773 91.668 502.302 92.0702 501.687 92.3615C501.079 92.6528 500.354 92.7985 499.512 92.7985C499.252 92.7985 499.021 92.7858 498.818 92.7605C498.616 92.7352 498.419 92.7003 498.229 92.656C498.103 92.7257 498.004 92.827 497.935 92.96C497.865 93.093 497.83 93.2292 497.83 93.3685C497.83 93.5585 497.903 93.7232 498.049 93.8625C498.201 93.9955 498.524 94.062 499.018 94.062H500.728C501.469 94.062 502.118 94.1887 502.675 94.442C503.239 94.689 503.676 95.0247 503.986 95.449C504.303 95.8733 504.461 96.361 504.461 96.912C504.461 97.9253 504.021 98.717 503.141 99.287C502.26 99.857 500.975 100.142 499.284 100.142C498.074 100.142 497.13 100.019 496.453 99.7715C495.781 99.5245 495.31 99.1635 495.037 98.6885C494.765 98.2198 494.629 97.653 494.629 96.988H496.861C496.861 97.311 496.925 97.577 497.051 97.786C497.184 97.995 497.428 98.1502 497.783 98.2515C498.144 98.3528 498.66 98.4035 499.331 98.4035C500.003 98.4035 500.528 98.3497 500.908 98.242C501.295 98.1343 501.567 97.9792 501.725 97.7765C501.884 97.5802 501.963 97.349 501.963 97.083C501.963 96.722 501.811 96.4402 501.507 96.2375C501.203 96.0348 500.772 95.9335 500.215 95.9335H498.552C497.539 95.9335 496.801 95.7372 496.339 95.3445C495.876 94.9455 495.645 94.4863 495.645 93.967C495.645 93.6123 495.74 93.2735 495.93 92.9505C496.127 92.6212 496.405 92.3425 496.766 92.1145C496.146 91.7852 495.696 91.3925 495.417 90.9365C495.145 90.4742 495.009 89.9168 495.009 89.2645C495.009 88.5362 495.192 87.9028 495.56 87.3645C495.927 86.8262 496.437 86.4082 497.089 86.1105C497.742 85.8128 498.492 85.664 499.341 85.664C500.12 85.6703 500.782 85.6228 501.326 85.5215C501.877 85.4202 502.362 85.2808 502.78 85.1035C503.204 84.9262 503.616 84.733 504.015 84.524ZM499.388 87.336C498.793 87.336 498.337 87.5102 498.02 87.8585C497.71 88.2068 497.555 88.6692 497.555 89.2455C497.555 89.8408 497.716 90.3127 498.039 90.661C498.362 91.0093 498.815 91.1835 499.398 91.1835C499.974 91.1835 500.411 91.0157 500.709 90.68C501.013 90.338 501.165 89.8503 501.165 89.217C501.165 88.5837 501.013 88.1118 500.709 87.8015C500.411 87.4912 499.971 87.336 499.388 87.336ZM508.922 85.9395V92.9125C508.922 93.4572 509.03 93.8403 509.245 94.062C509.46 94.2837 509.774 94.3945 510.185 94.3945C510.578 94.3945 510.961 94.2773 511.335 94.043C511.709 93.8023 512.013 93.4983 512.247 93.131V85.9395H514.755V96H512.57L512.437 94.765C512.076 95.259 511.614 95.6358 511.05 95.8955C510.486 96.1552 509.904 96.285 509.302 96.285C508.333 96.285 507.608 96.0127 507.126 95.468C506.651 94.917 506.414 94.1665 506.414 93.2165V85.9395H508.922ZM519.624 91.7345C519.675 92.3615 519.817 92.8713 520.051 93.264C520.292 93.6567 520.599 93.9448 520.973 94.1285C521.347 94.3122 521.761 94.404 522.217 94.404C522.699 94.404 523.152 94.328 523.576 94.176C524 94.024 524.418 93.8118 524.83 93.5395L525.875 94.974C525.406 95.3667 524.846 95.6833 524.193 95.924C523.547 96.1647 522.835 96.285 522.056 96.285C520.967 96.285 520.048 96.0602 519.301 95.6105C518.56 95.1608 517.999 94.537 517.619 93.739C517.239 92.941 517.049 92.0227 517.049 90.984C517.049 89.9833 517.236 89.0808 517.61 88.2765C517.984 87.4722 518.522 86.8357 519.225 86.367C519.928 85.892 520.777 85.6545 521.771 85.6545C522.696 85.6545 523.494 85.8572 524.165 86.2625C524.836 86.6678 525.356 87.2505 525.723 88.0105C526.09 88.7642 526.274 89.673 526.274 90.737C526.274 90.908 526.268 91.0822 526.255 91.2595C526.249 91.4368 526.239 91.5952 526.226 91.7345H519.624ZM521.78 87.4215C521.172 87.4215 520.672 87.64 520.279 88.077C519.893 88.5077 519.665 89.1917 519.595 90.129H523.832C523.82 89.2803 523.642 88.6185 523.3 88.1435C522.965 87.6622 522.458 87.4215 521.78 87.4215ZM543.812 85.6545C544.812 85.6545 545.661 85.873 546.358 86.31C547.054 86.747 547.583 87.3645 547.944 88.1625C548.311 88.9542 548.495 89.882 548.495 90.946C548.495 92.0353 548.311 92.979 547.944 93.777C547.577 94.575 547.045 95.1925 546.348 95.6295C545.651 96.0665 544.803 96.285 543.802 96.285C542.808 96.285 541.959 96.0728 541.256 95.6485C540.559 95.2178 540.027 94.6067 539.66 93.815C539.293 93.017 539.109 92.067 539.109 90.965C539.109 89.9137 539.293 88.989 539.66 88.191C540.027 87.393 540.563 86.7723 541.266 86.329C541.969 85.8793 542.817 85.6545 543.812 85.6545ZM543.812 87.545C543.109 87.545 542.583 87.8205 542.235 88.3715C541.893 88.9225 541.722 89.787 541.722 90.965C541.722 92.1557 541.893 93.0265 542.235 93.5775C542.577 94.1222 543.099 94.3945 543.802 94.3945C544.505 94.3945 545.028 94.1222 545.37 93.5775C545.712 93.0265 545.883 92.1493 545.883 90.946C545.883 89.7743 545.712 88.9162 545.37 88.3715C545.028 87.8205 544.508 87.545 543.812 87.545ZM565.605 94.4325C566.194 94.4325 566.666 94.3312 567.021 94.1285C567.382 93.9195 567.562 93.6282 567.562 93.2545C567.562 93.0075 567.502 92.7985 567.382 92.6275C567.268 92.4565 567.04 92.2982 566.698 92.1525C566.356 92.0005 565.843 91.8327 565.159 91.649C564.513 91.4843 563.946 91.2817 563.458 91.041C562.977 90.794 562.6 90.4773 562.328 90.091C562.062 89.7047 561.929 89.217 561.929 88.628C561.929 88.039 562.093 87.5228 562.423 87.0795C562.752 86.6298 563.227 86.2815 563.848 86.0345C564.475 85.7812 565.228 85.6545 566.109 85.6545C566.97 85.6545 567.724 85.7685 568.37 85.9965C569.016 86.2182 569.57 86.4968 570.032 86.8325L569.006 88.362C568.601 88.1023 568.161 87.8933 567.686 87.735C567.217 87.5703 566.71 87.488 566.166 87.488C565.577 87.488 565.146 87.5735 564.874 87.7445C564.608 87.9155 564.475 88.153 564.475 88.457C564.475 88.6723 564.541 88.856 564.674 89.008C564.814 89.1537 565.061 89.2962 565.415 89.4355C565.776 89.5685 566.289 89.73 566.954 89.92C567.607 90.0973 568.173 90.3063 568.655 90.547C569.142 90.7877 569.519 91.1075 569.785 91.5065C570.051 91.9055 570.184 92.428 570.184 93.074C570.184 93.8023 569.972 94.404 569.548 94.879C569.123 95.354 568.563 95.7087 567.866 95.943C567.176 96.171 566.425 96.285 565.615 96.285C564.665 96.285 563.835 96.1488 563.126 95.8765C562.416 95.6042 561.815 95.2527 561.321 94.822L562.622 93.359C563.015 93.6693 563.461 93.9258 563.962 94.1285C564.468 94.3312 565.016 94.4325 565.605 94.4325ZM577.029 85.6545C578.03 85.6545 578.879 85.873 579.575 86.31C580.272 86.747 580.801 87.3645 581.162 88.1625C581.529 88.9542 581.713 89.882 581.713 90.946C581.713 92.0353 581.529 92.979 581.162 93.777C580.794 94.575 580.262 95.1925 579.566 95.6295C578.869 96.0665 578.02 96.285 577.02 96.285C576.025 96.285 575.177 96.0728 574.474 95.6485C573.777 95.2178 573.245 94.6067 572.878 93.815C572.51 93.017 572.327 92.067 572.327 90.965C572.327 89.9137 572.51 88.989 572.878 88.191C573.245 87.393 573.78 86.7723 574.483 86.329C575.186 85.8793 576.035 85.6545 577.029 85.6545ZM577.029 87.545C576.326 87.545 575.801 87.8205 575.452 88.3715C575.11 88.9225 574.939 89.787 574.939 90.965C574.939 92.1557 575.11 93.0265 575.452 93.5775C575.794 94.1222 576.317 94.3945 577.02 94.3945C577.723 94.3945 578.245 94.1222 578.587 93.5775C578.929 93.0265 579.1 92.1493 579.1 90.946C579.1 89.7743 578.929 88.9162 578.587 88.3715C578.245 87.8205 577.726 87.545 577.029 87.545ZM591.075 85.6545C591.506 85.6545 591.873 85.7463 592.177 85.93C592.481 86.1073 592.716 86.4082 592.88 86.8325C593.045 87.2505 593.127 87.8205 593.127 88.5425V96H590.942V88.856C590.942 88.4 590.904 88.077 590.828 87.887C590.759 87.697 590.597 87.602 590.344 87.602C590.135 87.602 589.923 87.6653 589.707 87.792C589.498 87.9123 589.28 88.1308 589.052 88.4475V96H587.161V88.856C587.161 88.4 587.123 88.077 587.047 87.887C586.978 87.697 586.816 87.602 586.563 87.602C586.348 87.602 586.135 87.6653 585.926 87.792C585.717 87.9123 585.499 88.1308 585.271 88.4475V96H583.057V85.9395H584.929L585.09 86.9845C585.388 86.5665 585.702 86.2403 586.031 86.006C586.36 85.7717 586.756 85.6545 587.218 85.6545C587.598 85.6545 587.934 85.7495 588.225 85.9395C588.523 86.1232 588.735 86.4398 588.862 86.8895C589.153 86.5222 589.479 86.2245 589.84 85.9965C590.201 85.7685 590.613 85.6545 591.075 85.6545ZM597.198 94.3185C597.198 93.9638 597.284 93.6377 597.455 93.34C597.632 93.0423 597.87 92.8048 598.167 92.6275C598.465 92.4502 598.794 92.3615 599.155 92.3615C599.523 92.3615 599.855 92.4502 600.153 92.6275C600.451 92.8048 600.685 93.0423 600.856 93.34C601.033 93.6377 601.122 93.9638 601.122 94.3185C601.122 94.6732 601.033 95.0025 600.856 95.3065C600.685 95.6042 600.451 95.8417 600.153 96.019C599.855 96.1963 599.523 96.285 599.155 96.285C598.794 96.285 598.465 96.1963 598.167 96.019C597.87 95.8417 597.632 95.6042 597.455 95.3065C597.284 95.0025 597.198 94.6732 597.198 94.3185Z" fill="#57EB23"/>
<mask id="path-3-inside-1_662_246" fill="white">
<path d="M443.01 261.982C438.62 270.654 432.382 277.93 424.742 283.989C420.2 287.591 415.44 290.781 409.811 292.427C407.849 292.998 407.127 293.514 405.947 292.052C404.817 290.65 404.964 288.917 405.817 287.281C406.159 286.619 425.677 269.932 430.002 266.351C431.029 265.503 433.083 264.781 431.752 262.977C430.388 261.129 428.915 262.716 427.802 263.596C423.281 267.161 399.737 290.509 398.009 290.368C393.727 290.015 389.429 289.857 385.609 287.548C381.214 284.896 378.355 278.202 379.453 273.252C379.659 272.328 380.279 271.85 381.089 271.48C390.804 267.036 413.044 260.151 414 259.945C415.19 259.684 416.043 259.081 415.788 257.804C415.5 256.359 414.283 256.234 413.114 256.532C410.734 257.136 388.918 263.977 380.779 267.818C379.377 268.481 378.404 268.182 377.328 266.954C371.156 259.89 369.998 251.697 371.9 242.894C372.569 239.813 374.345 237.102 375.829 234.309C376.443 233.152 377.345 232.983 378.464 233.124C381.811 233.543 418.374 237.922 418.57 236.368C418.765 234.782 417.402 234.374 416.228 234.206C411.435 233.505 386.441 230.734 378.79 229.609C377.356 229.397 376.829 228.582 376.617 227.446C374.264 214.922 378.002 202.995 388.571 194.861C389.826 193.893 390.625 194.317 391.608 195.263C396.879 200.321 417.537 214.943 422.352 217.372C423.379 217.888 424.281 217.883 424.846 216.758C425.389 215.682 424.694 214.954 423.884 214.503C421.374 213.101 396.401 194.953 393.885 192.703C392.755 191.693 392.418 190.709 393.015 189.188C394.048 186.585 394.537 183.738 395.955 181.32C400.932 172.844 406.578 169.773 415.429 170.599C416.679 170.714 417.054 171.507 417.353 172.49C418.814 177.326 435.789 207.901 438.288 209.705C439.152 210.33 440.413 210.602 441.13 209.591C441.761 208.7 441.282 207.624 440.402 207.01C432.605 201.604 421.803 174.832 421.2 173.039C420.548 171.094 420.901 169.779 422.852 168.703C427.476 166.149 431.524 166.345 436.006 170.127C469.445 189.84 447.151 253.761 442.994 261.982H443.01Z"/>
<path d="M422.75 294.05C426.597 295.191 429.873 296.152 433.144 297.131C442.68 299.989 452.211 302.858 461.747 305.721C465.105 306.732 468.501 307.628 471.805 308.78C473.94 309.525 475.673 309.302 477.494 307.943C483.677 303.319 489.926 298.788 496.175 294.251C496.767 293.821 497.354 292.947 498.163 293.311C499.011 293.691 498.544 294.691 498.658 295.413C499.19 298.744 497.642 301.89 497.756 305.199C497.788 306.091 496.919 306.634 496.289 307.177C489.105 313.366 481.9 319.523 474.739 325.733C473.489 326.814 472.37 327.026 470.734 326.494C456.009 321.68 441.246 316.969 426.499 312.236C426.168 312.127 425.82 312.057 425.483 311.97C422.717 311.231 422.418 310.845 422.848 308.009C423.027 306.802 423.016 305.64 422.82 304.45C422.581 302.983 422.391 301.461 422.94 300.065C423.668 298.206 423.864 296.419 422.75 294.044V294.05Z"/>
<path d="M474.125 336.888C469.653 337.138 466.127 335.106 462.459 333.862C450.51 329.808 438.67 325.429 426.765 321.25C424.179 320.343 421.576 319.506 419.18 318.169C417.289 317.11 416.773 315.833 417.512 314.214C418.381 312.312 419.783 311.736 421.804 312.388C437.149 317.349 452.504 322.283 467.844 327.26C475.201 329.645 473.565 330.004 479.64 324.798C486.041 319.311 492.436 313.828 498.837 308.34C499.679 307.617 500.413 306.672 501.69 307.769C503.477 309.307 504.102 310.85 503.255 312.323C502.912 312.921 502.418 313.448 501.923 313.942C494.909 320.935 487.595 327.608 480.374 334.383C478.488 336.155 476.461 337.367 474.136 336.899L474.125 336.888Z"/>
<path d="M463.426 277.656C449.054 276.754 437.127 280.519 436.779 286.062C436.437 291.604 447.799 296.831 462.165 297.733C476.532 298.635 488.464 294.87 488.806 289.327C489.154 283.785 477.792 278.558 463.426 277.656ZM462.236 290.224C456.123 289.838 451.271 287.822 451.407 285.714C451.537 283.606 456.601 282.209 462.714 282.59C468.832 282.975 473.685 284.991 473.549 287.105C473.418 289.208 468.354 290.604 462.236 290.224Z"/>
<path d="M495.762 293.376L475.592 307.585C475.087 307.938 474.44 308.047 473.848 307.873L426.113 293.859C424.467 293.376 424.157 291.219 425.603 290.306L435.416 284.139C435.427 284.236 435.437 284.334 435.454 284.432C434.932 285.187 434.633 285.991 434.579 286.834C434.204 292.8 446.435 298.424 461.894 299.391C477.358 300.363 490.198 296.31 490.567 290.344C490.611 289.681 490.497 289.018 490.236 288.371L495.191 289.893C496.772 290.376 497.109 292.43 495.762 293.376Z"/>
<path d="M459.508 217.104C455.042 217.772 454.374 244.609 458.628 245.549C461.149 246.103 464.784 237.437 468.468 238.453C469.609 238.768 470.528 239.942 470.848 240.366C471.848 241.697 472.299 243.365 472.256 245.028L469.93 275.26C471.18 275.19 472.984 275.228 475.07 275.782C476.836 276.249 478.227 276.939 479.205 277.526C480.037 265.224 480.868 252.923 481.699 240.621C481.602 239.583 481.33 238.024 480.466 236.394C478.053 231.851 473.543 231.53 468.93 228.379C461.742 223.472 461.742 216.773 459.508 217.104Z"/>
</mask>
<path d="M443.01 261.982C438.62 270.654 432.382 277.93 424.742 283.989C420.2 287.591 415.44 290.781 409.811 292.427C407.849 292.998 407.127 293.514 405.947 292.052C404.817 290.65 404.964 288.917 405.817 287.281C406.159 286.619 425.677 269.932 430.002 266.351C431.029 265.503 433.083 264.781 431.752 262.977C430.388 261.129 428.915 262.716 427.802 263.596C423.281 267.161 399.737 290.509 398.009 290.368C393.727 290.015 389.429 289.857 385.609 287.548C381.214 284.896 378.355 278.202 379.453 273.252C379.659 272.328 380.279 271.85 381.089 271.48C390.804 267.036 413.044 260.151 414 259.945C415.19 259.684 416.043 259.081 415.788 257.804C415.5 256.359 414.283 256.234 413.114 256.532C410.734 257.136 388.918 263.977 380.779 267.818C379.377 268.481 378.404 268.182 377.328 266.954C371.156 259.89 369.998 251.697 371.9 242.894C372.569 239.813 374.345 237.102 375.829 234.309C376.443 233.152 377.345 232.983 378.464 233.124C381.811 233.543 418.374 237.922 418.57 236.368C418.765 234.782 417.402 234.374 416.228 234.206C411.435 233.505 386.441 230.734 378.79 229.609C377.356 229.397 376.829 228.582 376.617 227.446C374.264 214.922 378.002 202.995 388.571 194.861C389.826 193.893 390.625 194.317 391.608 195.263C396.879 200.321 417.537 214.943 422.352 217.372C423.379 217.888 424.281 217.883 424.846 216.758C425.389 215.682 424.694 214.954 423.884 214.503C421.374 213.101 396.401 194.953 393.885 192.703C392.755 191.693 392.418 190.709 393.015 189.188C394.048 186.585 394.537 183.738 395.955 181.32C400.932 172.844 406.578 169.773 415.429 170.599C416.679 170.714 417.054 171.507 417.353 172.49C418.814 177.326 435.789 207.901 438.288 209.705C439.152 210.33 440.413 210.602 441.13 209.591C441.761 208.7 441.282 207.624 440.402 207.01C432.605 201.604 421.803 174.832 421.2 173.039C420.548 171.094 420.901 169.779 422.852 168.703C427.476 166.149 431.524 166.345 436.006 170.127C469.445 189.84 447.151 253.761 442.994 261.982H443.01Z" fill="#2B3A19"/>
<path d="M422.75 294.05C426.597 295.191 429.873 296.152 433.144 297.131C442.68 299.989 452.211 302.858 461.747 305.721C465.105 306.732 468.501 307.628 471.805 308.78C473.94 309.525 475.673 309.302 477.494 307.943C483.677 303.319 489.926 298.788 496.175 294.251C496.767 293.821 497.354 292.947 498.163 293.311C499.011 293.691 498.544 294.691 498.658 295.413C499.19 298.744 497.642 301.89 497.756 305.199C497.788 306.091 496.919 306.634 496.289 307.177C489.105 313.366 481.9 319.523 474.739 325.733C473.489 326.814 472.37 327.026 470.734 326.494C456.009 321.68 441.246 316.969 426.499 312.236C426.168 312.127 425.82 312.057 425.483 311.97C422.717 311.231 422.418 310.845 422.848 308.009C423.027 306.802 423.016 305.64 422.82 304.45C422.581 302.983 422.391 301.461 422.94 300.065C423.668 298.206 423.864 296.419 422.75 294.044V294.05Z" fill="#2B3A19"/>
<path d="M474.125 336.888C469.653 337.138 466.127 335.106 462.459 333.862C450.51 329.808 438.67 325.429 426.765 321.25C424.179 320.343 421.576 319.506 419.18 318.169C417.289 317.11 416.773 315.833 417.512 314.214C418.381 312.312 419.783 311.736 421.804 312.388C437.149 317.349 452.504 322.283 467.844 327.26C475.201 329.645 473.565 330.004 479.64 324.798C486.041 319.311 492.436 313.828 498.837 308.34C499.679 307.617 500.413 306.672 501.69 307.769C503.477 309.307 504.102 310.85 503.255 312.323C502.912 312.921 502.418 313.448 501.923 313.942C494.909 320.935 487.595 327.608 480.374 334.383C478.488 336.155 476.461 337.367 474.136 336.899L474.125 336.888Z" fill="#2B3A19"/>
<path d="M463.426 277.656C449.054 276.754 437.127 280.519 436.779 286.062C436.437 291.604 447.799 296.831 462.165 297.733C476.532 298.635 488.464 294.87 488.806 289.327C489.154 283.785 477.792 278.558 463.426 277.656ZM462.236 290.224C456.123 289.838 451.271 287.822 451.407 285.714C451.537 283.606 456.601 282.209 462.714 282.59C468.832 282.975 473.685 284.991 473.549 287.105C473.418 289.208 468.354 290.604 462.236 290.224Z" fill="#57EB23"/>
<path d="M495.762 293.376L475.592 307.585C475.087 307.938 474.44 308.047 473.848 307.873L426.113 293.859C424.467 293.376 424.157 291.219 425.603 290.306L435.416 284.139C435.427 284.236 435.437 284.334 435.454 284.432C434.932 285.187 434.633 285.991 434.579 286.834C434.204 292.8 446.435 298.424 461.894 299.391C477.358 300.363 490.198 296.31 490.567 290.344C490.611 289.681 490.497 289.018 490.236 288.371L495.191 289.893C496.772 290.376 497.109 292.43 495.762 293.376Z" fill="#2B3A19"/>
<path d="M459.508 217.104C455.042 217.772 454.374 244.609 458.628 245.549C461.149 246.103 464.784 237.437 468.468 238.453C469.609 238.768 470.528 239.942 470.848 240.366C471.848 241.697 472.299 243.365 472.256 245.028L469.93 275.26C471.18 275.19 472.984 275.228 475.07 275.782C476.836 276.249 478.227 276.939 479.205 277.526C480.037 265.224 480.868 252.923 481.699 240.621C481.602 239.583 481.33 238.024 480.466 236.394C478.053 231.851 473.543 231.53 468.93 228.379C461.742 223.472 461.742 216.773 459.508 217.104Z" fill="#2B3A19"/>
<path d="M443.01 261.982C438.62 270.654 432.382 277.93 424.742 283.989C420.2 287.591 415.44 290.781 409.811 292.427C407.849 292.998 407.127 293.514 405.947 292.052C404.817 290.65 404.964 288.917 405.817 287.281C406.159 286.619 425.677 269.932 430.002 266.351C431.029 265.503 433.083 264.781 431.752 262.977C430.388 261.129 428.915 262.716 427.802 263.596C423.281 267.161 399.737 290.509 398.009 290.368C393.727 290.015 389.429 289.857 385.609 287.548C381.214 284.896 378.355 278.202 379.453 273.252C379.659 272.328 380.279 271.85 381.089 271.48C390.804 267.036 413.044 260.151 414 259.945C415.19 259.684 416.043 259.081 415.788 257.804C415.5 256.359 414.283 256.234 413.114 256.532C410.734 257.136 388.918 263.977 380.779 267.818C379.377 268.481 378.404 268.182 377.328 266.954C371.156 259.89 369.998 251.697 371.9 242.894C372.569 239.813 374.345 237.102 375.829 234.309C376.443 233.152 377.345 232.983 378.464 233.124C381.811 233.543 418.374 237.922 418.57 236.368C418.765 234.782 417.402 234.374 416.228 234.206C411.435 233.505 386.441 230.734 378.79 229.609C377.356 229.397 376.829 228.582 376.617 227.446C374.264 214.922 378.002 202.995 388.571 194.861C389.826 193.893 390.625 194.317 391.608 195.263C396.879 200.321 417.537 214.943 422.352 217.372C423.379 217.888 424.281 217.883 424.846 216.758C425.389 215.682 424.694 214.954 423.884 214.503C421.374 213.101 396.401 194.953 393.885 192.703C392.755 191.693 392.418 190.709 393.015 189.188C394.048 186.585 394.537 183.738 395.955 181.32C400.932 172.844 406.578 169.773 415.429 170.599C416.679 170.714 417.054 171.507 417.353 172.49C418.814 177.326 435.789 207.901 438.288 209.705C439.152 210.33 440.413 210.602 441.13 209.591C441.761 208.7 441.282 207.624 440.402 207.01C432.605 201.604 421.803 174.832 421.2 173.039C420.548 171.094 420.901 169.779 422.852 168.703C427.476 166.149 431.524 166.345 436.006 170.127C469.445 189.84 447.151 253.761 442.994 261.982H443.01Z" stroke="#57EB23" stroke-width="4" mask="url(#path-3-inside-1_662_246)"/>
<path d="M422.75 294.05C426.597 295.191 429.873 296.152 433.144 297.131C442.68 299.989 452.211 302.858 461.747 305.721C465.105 306.732 468.501 307.628 471.805 308.78C473.94 309.525 475.673 309.302 477.494 307.943C483.677 303.319 489.926 298.788 496.175 294.251C496.767 293.821 497.354 292.947 498.163 293.311C499.011 293.691 498.544 294.691 498.658 295.413C499.19 298.744 497.642 301.89 497.756 305.199C497.788 306.091 496.919 306.634 496.289 307.177C489.105 313.366 481.9 319.523 474.739 325.733C473.489 326.814 472.37 327.026 470.734 326.494C456.009 321.68 441.246 316.969 426.499 312.236C426.168 312.127 425.82 312.057 425.483 311.97C422.717 311.231 422.418 310.845 422.848 308.009C423.027 306.802 423.016 305.64 422.82 304.45C422.581 302.983 422.391 301.461 422.94 300.065C423.668 298.206 423.864 296.419 422.75 294.044V294.05Z" stroke="#57EB23" stroke-width="4" mask="url(#path-3-inside-1_662_246)"/>
<path d="M474.125 336.888C469.653 337.138 466.127 335.106 462.459 333.862C450.51 329.808 438.67 325.429 426.765 321.25C424.179 320.343 421.576 319.506 419.18 318.169C417.289 317.11 416.773 315.833 417.512 314.214C418.381 312.312 419.783 311.736 421.804 312.388C437.149 317.349 452.504 322.283 467.844 327.26C475.201 329.645 473.565 330.004 479.64 324.798C486.041 319.311 492.436 313.828 498.837 308.34C499.679 307.617 500.413 306.672 501.69 307.769C503.477 309.307 504.102 310.85 503.255 312.323C502.912 312.921 502.418 313.448 501.923 313.942C494.909 320.935 487.595 327.608 480.374 334.383C478.488 336.155 476.461 337.367 474.136 336.899L474.125 336.888Z" stroke="#57EB23" stroke-width="4" mask="url(#path-3-inside-1_662_246)"/>
<path d="M463.426 277.656C449.054 276.754 437.127 280.519 436.779 286.062C436.437 291.604 447.799 296.831 462.165 297.733C476.532 298.635 488.464 294.87 488.806 289.327C489.154 283.785 477.792 278.558 463.426 277.656ZM462.236 290.224C456.123 289.838 451.271 287.822 451.407 285.714C451.537 283.606 456.601 282.209 462.714 282.59C468.832 282.975 473.685 284.991 473.549 287.105C473.418 289.208 468.354 290.604 462.236 290.224Z" stroke="#57EB23" stroke-width="4" mask="url(#path-3-inside-1_662_246)"/>
<path d="M495.762 293.376L475.592 307.585C475.087 307.938 474.44 308.047 473.848 307.873L426.113 293.859C424.467 293.376 424.157 291.219 425.603 290.306L435.416 284.139C435.427 284.236 435.437 284.334 435.454 284.432C434.932 285.187 434.633 285.991 434.579 286.834C434.204 292.8 446.435 298.424 461.894 299.391C477.358 300.363 490.198 296.31 490.567 290.344C490.611 289.681 490.497 289.018 490.236 288.371L495.191 289.893C496.772 290.376 497.109 292.43 495.762 293.376Z" stroke="#57EB23" stroke-width="4" mask="url(#path-3-inside-1_662_246)"/>
<path d="M459.508 217.104C455.042 217.772 454.374 244.609 458.628 245.549C461.149 246.103 464.784 237.437 468.468 238.453C469.609 238.768 470.528 239.942 470.848 240.366C471.848 241.697 472.299 243.365 472.256 245.028L469.93 275.26C471.18 275.19 472.984 275.228 475.07 275.782C476.836 276.249 478.227 276.939 479.205 277.526C480.037 265.224 480.868 252.923 481.699 240.621C481.602 239.583 481.33 238.024 480.466 236.394C478.053 231.851 473.543 231.53 468.93 228.379C461.742 223.472 461.742 216.773 459.508 217.104Z" stroke="#57EB23" stroke-width="4" mask="url(#path-3-inside-1_662_246)"/>
<path d="M349.739 240.464C347.61 227.197 348.44 219.72 357.989 206.254M330.342 247.736C328.405 225.823 330.351 213.815 343.478 193.266" stroke="#57EB23" stroke-width="4" stroke-linecap="round"/>
<path d="M332.717 173.857C309.46 204.233 305.538 222.403 309.985 256.191" stroke="#57EB23" stroke-width="4" stroke-linecap="round"/>
</g>
<defs>
<filter id="filter0_i_662_246" x="0" y="0" width="1158" height="539" filterUnits="userSpaceOnUse" color-interpolation-filters="sRGB">
<feFlood flood-opacity="0" result="BackgroundImageFix"/>
<feBlend mode="normal" in="SourceGraphic" in2="BackgroundImageFix" result="shape"/>
<feColorMatrix in="SourceAlpha" type="matrix" values="0 0 0 0 0 0 0 0 0 0 0 0 0 0 0 0 0 0 127 0" result="hardAlpha"/>
<feOffset dy="4"/>
<feGaussianBlur stdDeviation="61"/>
<feComposite in2="hardAlpha" operator="arithmetic" k2="-1" k3="1"/>
<feColorMatrix type="matrix" values="0 0 0 0 0 0 0 0 0 0 0 0 0 0 0 0 0 0 0.5 0"/>
<feBlend mode="normal" in2="shape" result="effect1_innerShadow_662_246"/>
</filter>
<clipPath id="clip0_662_246">
<rect width="844" height="390" fill="white"/>
</clipPath>
</defs>
</svg>
