<svg width="1158" height="535" viewBox="0 0 1158 535" fill="none" xmlns="http://www.w3.org/2000/svg">
<g clip-path="url(#clip0_754_310)">
<rect width="1158" height="535" fill="white"/>
<g filter="url(#filter0_i_754_310)">
<path fill-rule="evenodd" clip-rule="evenodd" d="M597.063 0H0V535H1158V262.13C1158 261.926 1158 261.722 1158 261.518V0H597.063Z" fill="#121212"/>
</g>
<mask id="path-2-inside-1_754_310" fill="white">
<path d="M611.289 349.002C604.863 361.693 595.735 372.341 584.554 381.207C577.907 386.479 570.941 391.147 562.703 393.556C559.832 394.391 558.774 395.147 557.049 393.008C555.395 390.956 555.61 388.42 556.858 386.026C557.359 385.056 585.922 360.636 592.252 355.395C593.755 354.155 596.76 353.097 594.812 350.457C592.816 347.754 590.661 350.076 589.031 351.364C582.415 356.58 547.96 390.749 545.431 390.543C539.165 390.026 532.875 389.795 527.285 386.416C520.852 382.535 516.669 372.738 518.276 365.494C518.578 364.142 519.484 363.443 520.669 362.902C534.887 356.397 567.434 346.322 568.834 346.02C570.575 345.638 571.823 344.756 571.45 342.887C571.028 340.772 569.247 340.589 567.537 341.026C564.054 341.909 532.128 351.92 520.216 357.542C518.164 358.513 516.741 358.075 515.166 356.278C506.133 345.941 504.439 333.949 507.222 321.067C508.2 316.558 510.801 312.591 512.972 308.503C513.87 306.809 515.19 306.563 516.828 306.77C521.727 307.382 575.235 313.791 575.521 311.517C575.807 309.195 573.811 308.599 572.094 308.352C565.08 307.326 528.502 303.271 517.305 301.625C515.206 301.315 514.435 300.122 514.125 298.46C510.681 280.131 516.152 262.677 531.619 250.773C533.456 249.357 534.625 249.977 536.064 251.361C543.777 258.764 574.01 280.163 581.056 283.717C582.558 284.473 583.878 284.465 584.705 282.819C585.501 281.244 584.483 280.179 583.298 279.519C579.624 277.467 543.077 250.908 539.396 247.616C537.742 246.137 537.249 244.697 538.123 242.471C539.634 238.662 540.35 234.495 542.425 230.957C549.709 218.552 557.971 214.059 570.925 215.268C572.754 215.435 573.302 216.596 573.74 218.035C575.879 225.112 600.721 269.857 604.378 272.497C605.643 273.412 607.488 273.809 608.537 272.33C609.46 271.026 608.76 269.452 607.472 268.553C596.061 260.641 580.252 221.462 579.37 218.838C578.416 215.991 578.932 214.067 581.787 212.492C588.554 208.755 594.478 209.041 601.039 214.576C649.974 243.425 617.348 336.971 611.265 349.002H611.289Z"/>
<path d="M581.638 395.931C587.268 397.601 592.063 399.008 596.85 400.44C610.806 404.622 624.753 408.821 638.709 413.012C643.623 414.491 648.593 415.803 653.428 417.488C656.553 418.578 659.089 418.252 661.753 416.264C670.802 409.497 679.947 402.865 689.092 396.225C689.959 395.597 690.817 394.317 692.002 394.849C693.243 395.406 692.559 396.869 692.726 397.927C693.505 402.801 691.239 407.405 691.406 412.248C691.454 413.552 690.181 414.347 689.259 415.143C678.746 424.2 668.202 433.209 657.722 442.298C655.893 443.881 654.255 444.191 651.861 443.412C630.312 436.366 608.706 429.472 587.125 422.546C586.64 422.387 586.131 422.283 585.638 422.156C581.59 421.075 581.153 420.51 581.781 416.359C582.044 414.594 582.028 412.892 581.742 411.151C581.392 409.004 581.113 406.777 581.917 404.734C582.982 402.014 583.268 399.398 581.638 395.923V395.931Z"/>
<path d="M656.823 458.623C650.279 458.989 645.118 456.015 639.751 454.194C622.264 448.262 604.937 441.853 587.515 435.738C583.73 434.41 579.921 433.185 576.414 431.229C573.647 429.678 572.891 427.81 573.973 425.44C575.245 422.657 577.297 421.814 580.255 422.768C602.711 430.028 625.183 437.249 647.631 444.533C658.398 448.023 656.004 448.548 664.894 440.93C674.262 432.899 683.621 424.876 692.988 416.844C694.221 415.787 695.294 414.403 697.163 416.009C699.779 418.26 700.694 420.518 699.453 422.673C698.952 423.548 698.229 424.319 697.505 425.043C687.239 435.277 676.536 445.041 665.968 454.957C663.209 457.55 660.243 459.323 656.839 458.639L656.823 458.623Z"/>
<path d="M641.166 371.939C620.133 370.619 602.679 376.13 602.17 384.241C601.669 392.352 618.296 400.002 639.321 401.322C660.346 402.642 677.808 397.131 678.309 389.02C678.818 380.909 662.191 373.259 641.166 371.939ZM639.424 390.332C630.478 389.768 623.377 386.817 623.576 383.732C623.767 380.647 631.178 378.603 640.124 379.16C649.078 379.724 656.179 382.674 655.98 385.768C655.789 388.845 648.378 390.889 639.424 390.332Z"/>
<path d="M688.488 394.945L658.97 415.739C658.231 416.256 657.285 416.415 656.418 416.16L586.561 395.652C584.151 394.945 583.698 391.788 585.813 390.452L600.174 381.426C600.19 381.57 600.206 381.713 600.23 381.856C599.466 382.961 599.029 384.138 598.95 385.371C598.401 394.102 616.301 402.332 638.924 403.747C661.555 405.171 680.345 399.239 680.886 390.508C680.949 389.537 680.782 388.567 680.401 387.621L687.653 389.848C689.967 390.555 690.46 393.561 688.488 394.945Z"/>
<path d="M635.433 283.325C628.896 284.303 627.918 323.577 634.144 324.953C637.834 325.764 643.154 313.081 648.545 314.568C650.215 315.029 651.559 316.747 652.028 317.367C653.491 319.315 654.151 321.756 654.088 324.19L650.684 368.434C652.513 368.33 655.153 368.386 658.207 369.197C660.791 369.881 662.827 370.891 664.258 371.75C665.475 353.747 666.691 335.744 667.908 317.741C667.765 316.222 667.367 313.94 666.103 311.554C662.572 304.906 655.972 304.437 649.221 299.825C638.701 292.645 638.701 282.84 635.433 283.325Z"/>
</mask>
<path d="M611.289 349.002C604.863 361.693 595.735 372.341 584.554 381.207C577.907 386.479 570.941 391.147 562.703 393.556C559.832 394.391 558.774 395.147 557.049 393.008C555.395 390.956 555.61 388.42 556.858 386.026C557.359 385.056 585.922 360.636 592.252 355.395C593.755 354.155 596.76 353.097 594.812 350.457C592.816 347.754 590.661 350.076 589.031 351.364C582.415 356.58 547.96 390.749 545.431 390.543C539.165 390.026 532.875 389.795 527.285 386.416C520.852 382.535 516.669 372.738 518.276 365.494C518.578 364.142 519.484 363.443 520.669 362.902C534.887 356.397 567.434 346.322 568.834 346.02C570.575 345.638 571.823 344.756 571.45 342.887C571.028 340.772 569.247 340.589 567.537 341.026C564.054 341.909 532.128 351.92 520.216 357.542C518.164 358.513 516.741 358.075 515.166 356.278C506.133 345.941 504.439 333.949 507.222 321.067C508.2 316.558 510.801 312.591 512.972 308.503C513.87 306.809 515.19 306.563 516.828 306.77C521.727 307.382 575.235 313.791 575.521 311.517C575.807 309.195 573.811 308.599 572.094 308.352C565.08 307.326 528.502 303.271 517.305 301.625C515.206 301.315 514.435 300.122 514.125 298.46C510.681 280.131 516.152 262.677 531.619 250.773C533.456 249.357 534.625 249.977 536.064 251.361C543.777 258.764 574.01 280.163 581.056 283.717C582.558 284.473 583.878 284.465 584.705 282.819C585.501 281.244 584.483 280.179 583.298 279.519C579.624 277.467 543.077 250.908 539.396 247.616C537.742 246.137 537.249 244.697 538.123 242.471C539.634 238.662 540.35 234.495 542.425 230.957C549.709 218.552 557.971 214.059 570.925 215.268C572.754 215.435 573.302 216.596 573.74 218.035C575.879 225.112 600.721 269.857 604.378 272.497C605.643 273.412 607.488 273.809 608.537 272.33C609.46 271.026 608.76 269.452 607.472 268.553C596.061 260.641 580.252 221.462 579.37 218.838C578.416 215.991 578.932 214.067 581.787 212.492C588.554 208.755 594.478 209.041 601.039 214.576C649.974 243.425 617.348 336.971 611.265 349.002H611.289Z" fill="#2B3A19"/>
<path d="M581.638 395.931C587.268 397.601 592.063 399.008 596.85 400.44C610.806 404.622 624.753 408.821 638.709 413.012C643.623 414.491 648.593 415.803 653.428 417.488C656.553 418.578 659.089 418.252 661.753 416.264C670.802 409.497 679.947 402.865 689.092 396.225C689.959 395.597 690.817 394.317 692.002 394.849C693.243 395.406 692.559 396.869 692.726 397.927C693.505 402.801 691.239 407.405 691.406 412.248C691.454 413.552 690.181 414.347 689.259 415.143C678.746 424.2 668.202 433.209 657.722 442.298C655.893 443.881 654.255 444.191 651.861 443.412C630.312 436.366 608.706 429.472 587.125 422.546C586.64 422.387 586.131 422.283 585.638 422.156C581.59 421.075 581.153 420.51 581.781 416.359C582.044 414.594 582.028 412.892 581.742 411.151C581.392 409.004 581.113 406.777 581.917 404.734C582.982 402.014 583.268 399.398 581.638 395.923V395.931Z" fill="#2B3A19"/>
<path d="M656.823 458.623C650.279 458.989 645.118 456.015 639.751 454.194C622.264 448.262 604.937 441.853 587.515 435.738C583.73 434.41 579.921 433.185 576.414 431.229C573.647 429.678 572.891 427.81 573.973 425.44C575.245 422.657 577.297 421.814 580.255 422.768C602.711 430.028 625.183 437.249 647.631 444.533C658.398 448.023 656.004 448.548 664.894 440.93C674.262 432.899 683.621 424.876 692.988 416.844C694.221 415.787 695.294 414.403 697.163 416.009C699.779 418.26 700.694 420.518 699.453 422.673C698.952 423.548 698.229 424.319 697.505 425.043C687.239 435.277 676.536 445.041 665.968 454.957C663.209 457.55 660.243 459.323 656.839 458.639L656.823 458.623Z" fill="#2B3A19"/>
<path d="M641.166 371.939C620.133 370.619 602.679 376.13 602.17 384.241C601.669 392.352 618.296 400.002 639.321 401.322C660.346 402.642 677.808 397.131 678.309 389.02C678.818 380.909 662.191 373.259 641.166 371.939ZM639.424 390.332C630.478 389.768 623.377 386.817 623.576 383.732C623.767 380.647 631.178 378.603 640.124 379.16C649.078 379.724 656.179 382.674 655.98 385.768C655.789 388.845 648.378 390.889 639.424 390.332Z" fill="#57EB23"/>
<path d="M688.488 394.945L658.97 415.739C658.231 416.256 657.285 416.415 656.418 416.16L586.561 395.652C584.151 394.945 583.698 391.788 585.813 390.452L600.174 381.426C600.19 381.57 600.206 381.713 600.23 381.856C599.466 382.961 599.029 384.138 598.95 385.371C598.401 394.102 616.301 402.332 638.924 403.747C661.555 405.171 680.345 399.239 680.886 390.508C680.949 389.537 680.782 388.567 680.401 387.621L687.653 389.848C689.967 390.555 690.46 393.561 688.488 394.945Z" fill="#2B3A19"/>
<path d="M635.433 283.325C628.896 284.303 627.918 323.577 634.144 324.953C637.834 325.764 643.154 313.081 648.545 314.568C650.215 315.029 651.559 316.747 652.028 317.367C653.491 319.315 654.151 321.756 654.088 324.19L650.684 368.434C652.513 368.33 655.153 368.386 658.207 369.197C660.791 369.881 662.827 370.891 664.258 371.75C665.475 353.747 666.691 335.744 667.908 317.741C667.765 316.222 667.367 313.94 666.103 311.554C662.572 304.906 655.972 304.437 649.221 299.825C638.701 292.645 638.701 282.84 635.433 283.325Z" fill="#2B3A19"/>
<path d="M611.289 349.002C604.863 361.693 595.735 372.341 584.554 381.207C577.907 386.479 570.941 391.147 562.703 393.556C559.832 394.391 558.774 395.147 557.049 393.008C555.395 390.956 555.61 388.42 556.858 386.026C557.359 385.056 585.922 360.636 592.252 355.395C593.755 354.155 596.76 353.097 594.812 350.457C592.816 347.754 590.661 350.076 589.031 351.364C582.415 356.58 547.96 390.749 545.431 390.543C539.165 390.026 532.875 389.795 527.285 386.416C520.852 382.535 516.669 372.738 518.276 365.494C518.578 364.142 519.484 363.443 520.669 362.902C534.887 356.397 567.434 346.322 568.834 346.02C570.575 345.638 571.823 344.756 571.45 342.887C571.028 340.772 569.247 340.589 567.537 341.026C564.054 341.909 532.128 351.92 520.216 357.542C518.164 358.513 516.741 358.075 515.166 356.278C506.133 345.941 504.439 333.949 507.222 321.067C508.2 316.558 510.801 312.591 512.972 308.503C513.87 306.809 515.19 306.563 516.828 306.77C521.727 307.382 575.235 313.791 575.521 311.517C575.807 309.195 573.811 308.599 572.094 308.352C565.08 307.326 528.502 303.271 517.305 301.625C515.206 301.315 514.435 300.122 514.125 298.46C510.681 280.131 516.152 262.677 531.619 250.773C533.456 249.357 534.625 249.977 536.064 251.361C543.777 258.764 574.01 280.163 581.056 283.717C582.558 284.473 583.878 284.465 584.705 282.819C585.501 281.244 584.483 280.179 583.298 279.519C579.624 277.467 543.077 250.908 539.396 247.616C537.742 246.137 537.249 244.697 538.123 242.471C539.634 238.662 540.35 234.495 542.425 230.957C549.709 218.552 557.971 214.059 570.925 215.268C572.754 215.435 573.302 216.596 573.74 218.035C575.879 225.112 600.721 269.857 604.378 272.497C605.643 273.412 607.488 273.809 608.537 272.33C609.46 271.026 608.76 269.452 607.472 268.553C596.061 260.641 580.252 221.462 579.37 218.838C578.416 215.991 578.932 214.067 581.787 212.492C588.554 208.755 594.478 209.041 601.039 214.576C649.974 243.425 617.348 336.971 611.265 349.002H611.289Z" stroke="#57EB23" stroke-width="4" mask="url(#path-2-inside-1_754_310)"/>
<path d="M581.638 395.931C587.268 397.601 592.063 399.008 596.85 400.44C610.806 404.622 624.753 408.821 638.709 413.012C643.623 414.491 648.593 415.803 653.428 417.488C656.553 418.578 659.089 418.252 661.753 416.264C670.802 409.497 679.947 402.865 689.092 396.225C689.959 395.597 690.817 394.317 692.002 394.849C693.243 395.406 692.559 396.869 692.726 397.927C693.505 402.801 691.239 407.405 691.406 412.248C691.454 413.552 690.181 414.347 689.259 415.143C678.746 424.2 668.202 433.209 657.722 442.298C655.893 443.881 654.255 444.191 651.861 443.412C630.312 436.366 608.706 429.472 587.125 422.546C586.64 422.387 586.131 422.283 585.638 422.156C581.59 421.075 581.153 420.51 581.781 416.359C582.044 414.594 582.028 412.892 581.742 411.151C581.392 409.004 581.113 406.777 581.917 404.734C582.982 402.014 583.268 399.398 581.638 395.923V395.931Z" stroke="#57EB23" stroke-width="4" mask="url(#path-2-inside-1_754_310)"/>
<path d="M656.823 458.623C650.279 458.989 645.118 456.015 639.751 454.194C622.264 448.262 604.937 441.853 587.515 435.738C583.73 434.41 579.921 433.185 576.414 431.229C573.647 429.678 572.891 427.81 573.973 425.44C575.245 422.657 577.297 421.814 580.255 422.768C602.711 430.028 625.183 437.249 647.631 444.533C658.398 448.023 656.004 448.548 664.894 440.93C674.262 432.899 683.621 424.876 692.988 416.844C694.221 415.787 695.294 414.403 697.163 416.009C699.779 418.26 700.694 420.518 699.453 422.673C698.952 423.548 698.229 424.319 697.505 425.043C687.239 435.277 676.536 445.041 665.968 454.957C663.209 457.55 660.243 459.323 656.839 458.639L656.823 458.623Z" stroke="#57EB23" stroke-width="4" mask="url(#path-2-inside-1_754_310)"/>
<path d="M641.166 371.939C620.133 370.619 602.679 376.13 602.17 384.241C601.669 392.352 618.296 400.002 639.321 401.322C660.346 402.642 677.808 397.131 678.309 389.02C678.818 380.909 662.191 373.259 641.166 371.939ZM639.424 390.332C630.478 389.768 623.377 386.817 623.576 383.732C623.767 380.647 631.178 378.603 640.124 379.16C649.078 379.724 656.179 382.674 655.98 385.768C655.789 388.845 648.378 390.889 639.424 390.332Z" stroke="#57EB23" stroke-width="4" mask="url(#path-2-inside-1_754_310)"/>
<path d="M688.488 394.945L658.97 415.739C658.231 416.256 657.285 416.415 656.418 416.16L586.561 395.652C584.151 394.945 583.698 391.788 585.813 390.452L600.174 381.426C600.19 381.57 600.206 381.713 600.23 381.856C599.466 382.961 599.029 384.138 598.95 385.371C598.401 394.102 616.301 402.332 638.924 403.747C661.555 405.171 680.345 399.239 680.886 390.508C680.949 389.537 680.782 388.567 680.401 387.621L687.653 389.848C689.967 390.555 690.46 393.561 688.488 394.945Z" stroke="#57EB23" stroke-width="4" mask="url(#path-2-inside-1_754_310)"/>
<path d="M635.433 283.325C628.896 284.303 627.918 323.577 634.144 324.953C637.834 325.764 643.154 313.081 648.545 314.568C650.215 315.029 651.559 316.747 652.028 317.367C653.491 319.315 654.151 321.756 654.088 324.19L650.684 368.434C652.513 368.33 655.153 368.386 658.207 369.197C660.791 369.881 662.827 370.891 664.258 371.75C665.475 353.747 666.691 335.744 667.908 317.741C667.765 316.222 667.367 313.94 666.103 311.554C662.572 304.906 655.972 304.437 649.221 299.825C638.701 292.645 638.701 282.84 635.433 283.325Z" stroke="#57EB23" stroke-width="4" mask="url(#path-2-inside-1_754_310)"/>
<path d="M474.79 317.51C471.675 298.093 472.89 287.152 486.863 267.445M446.405 328.152C443.569 296.083 446.417 278.511 465.628 248.437" stroke="#57EB23" stroke-width="4" stroke-linecap="round"/>
<path d="M449.88 220.034C415.845 264.487 410.105 291.078 416.612 340.526" stroke="#57EB23" stroke-width="4" stroke-linecap="round"/>
</g>
<defs>
<filter id="filter0_i_754_310" x="0" y="0" width="1158" height="539" filterUnits="userSpaceOnUse" color-interpolation-filters="sRGB">
<feFlood flood-opacity="0" result="BackgroundImageFix"/>
<feBlend mode="normal" in="SourceGraphic" in2="BackgroundImageFix" result="shape"/>
<feColorMatrix in="SourceAlpha" type="matrix" values="0 0 0 0 0 0 0 0 0 0 0 0 0 0 0 0 0 0 127 0" result="hardAlpha"/>
<feOffset dy="4"/>
<feGaussianBlur stdDeviation="61"/>
<feComposite in2="hardAlpha" operator="arithmetic" k2="-1" k3="1"/>
<feColorMatrix type="matrix" values="0 0 0 0 0 0 0 0 0 0 0 0 0 0 0 0 0 0 0.5 0"/>
<feBlend mode="normal" in2="shape" result="effect1_innerShadow_754_310"/>
</filter>
<clipPath id="clip0_754_310">
<rect width="1158" height="535" fill="white"/>
</clipPath>
</defs>
</svg>
