<svg width="1158" height="535" viewBox="0 0 1158 535" fill="none" xmlns="http://www.w3.org/2000/svg">
<g clip-path="url(#clip0_578_51)">
<rect width="1158" height="535" fill="white"/>
<g filter="url(#filter0_i_578_51)">
<path fill-rule="evenodd" clip-rule="evenodd" d="M597.063 0H0V535H1158V262.13C1158 261.926 1158 261.722 1158 261.518V0H597.063Z" fill="#121212"/>
</g>
<path d="M281.206 138.96C281.206 138.043 281.03 137.301 280.678 136.736C280.337 136.16 279.836 135.739 279.174 135.472C278.513 135.205 277.718 135.072 276.79 135.072H274.502V143.088H276.918C277.793 143.088 278.545 142.955 279.174 142.688C279.814 142.411 280.31 141.968 280.662 141.36C281.025 140.752 281.206 139.952 281.206 138.96ZM285.75 138.928C285.75 140.645 285.382 142.053 284.646 143.152C283.921 144.24 282.902 145.045 281.59 145.568C280.278 146.08 278.764 146.336 277.046 146.336H274.502V154H270.118V131.872H276.63C279.5 131.872 281.734 132.453 283.334 133.616C284.945 134.779 285.75 136.549 285.75 138.928ZM302.49 149.536C302.49 150.187 302.586 150.661 302.778 150.96C302.97 151.248 303.279 151.467 303.706 151.616L302.794 154.448C301.887 154.352 301.114 154.128 300.474 153.776C299.844 153.413 299.359 152.875 299.018 152.16C298.378 152.939 297.567 153.52 296.586 153.904C295.615 154.288 294.596 154.48 293.53 154.48C291.802 154.48 290.431 153.989 289.418 153.008C288.404 152.027 287.898 150.752 287.898 149.184C287.898 147.381 288.602 145.995 290.01 145.024C291.428 144.043 293.434 143.552 296.026 143.552H298.394V142.64C298.394 141.637 298.084 140.912 297.466 140.464C296.847 140.005 295.956 139.776 294.794 139.776C294.25 139.776 293.567 139.851 292.746 140C291.935 140.139 291.098 140.357 290.234 140.656L289.226 137.76C290.303 137.355 291.386 137.056 292.474 136.864C293.572 136.672 294.57 136.576 295.466 136.576C297.844 136.576 299.61 137.083 300.762 138.096C301.914 139.099 302.49 140.523 302.49 142.368V149.536ZM294.906 151.424C295.546 151.424 296.191 151.243 296.842 150.88C297.503 150.517 298.02 150.011 298.394 149.36V146.064H296.73C295.162 146.064 294.026 146.315 293.322 146.816C292.628 147.317 292.282 148.027 292.282 148.944C292.282 149.733 292.506 150.347 292.954 150.784C293.402 151.211 294.052 151.424 294.906 151.424ZM307.997 154V151.072H310.381V139.968H307.997V137.056H313.597L314.381 140.944C315 139.504 315.779 138.421 316.717 137.696C317.656 136.96 318.835 136.592 320.253 136.592C320.797 136.592 321.277 136.635 321.693 136.72C322.12 136.805 322.525 136.917 322.909 137.056L321.645 140.608C321.315 140.523 321 140.459 320.701 140.416C320.403 140.363 320.067 140.336 319.693 140.336C318.52 140.336 317.496 140.795 316.621 141.712C315.757 142.619 315.085 143.851 314.605 145.408V151.072H317.981V154H307.997ZM319.341 143.664V139.168L319.917 137.056H322.909L322.157 143.664H319.341ZM340.225 149.536C340.225 150.187 340.321 150.661 340.513 150.96C340.705 151.248 341.014 151.467 341.441 151.616L340.529 154.448C339.622 154.352 338.849 154.128 338.209 153.776C337.579 153.413 337.094 152.875 336.753 152.16C336.113 152.939 335.302 153.52 334.321 153.904C333.35 154.288 332.331 154.48 331.265 154.48C329.537 154.48 328.166 153.989 327.153 153.008C326.139 152.027 325.633 150.752 325.633 149.184C325.633 147.381 326.337 145.995 327.745 145.024C329.163 144.043 331.169 143.552 333.761 143.552H336.129V142.64C336.129 141.637 335.819 140.912 335.201 140.464C334.582 140.005 333.691 139.776 332.529 139.776C331.985 139.776 331.302 139.851 330.481 140C329.67 140.139 328.833 140.357 327.969 140.656L326.961 137.76C328.038 137.355 329.121 137.056 330.209 136.864C331.307 136.672 332.305 136.576 333.201 136.576C335.579 136.576 337.345 137.083 338.497 138.096C339.649 139.099 340.225 140.523 340.225 142.368V149.536ZM332.641 151.424C333.281 151.424 333.926 151.243 334.577 150.88C335.238 150.517 335.755 150.011 336.129 149.36V146.064H334.465C332.897 146.064 331.761 146.315 331.057 146.816C330.363 147.317 330.017 148.027 330.017 148.944C330.017 149.733 330.241 150.347 330.689 150.784C331.137 151.211 331.787 151.424 332.641 151.424ZM379.784 137.056L373.96 154H369L363.144 137.056H367.688L371.544 150.624L375.48 137.056H379.784ZM393.051 137.056V151.008H397.515V154H383.867V151.008H388.827V140.048H384.027V137.056H393.051ZM390.315 128.512C391.094 128.512 391.723 128.752 392.203 129.232C392.694 129.712 392.939 130.309 392.939 131.024C392.939 131.739 392.694 132.341 392.203 132.832C391.723 133.312 391.094 133.552 390.315 133.552C389.537 133.552 388.902 133.312 388.411 132.832C387.921 132.341 387.675 131.739 387.675 131.024C387.675 130.309 387.921 129.712 388.411 129.232C388.902 128.752 389.537 128.512 390.315 128.512ZM415.695 149.536C415.695 150.187 415.791 150.661 415.983 150.96C416.175 151.248 416.484 151.467 416.911 151.616L415.999 154.448C415.092 154.352 414.319 154.128 413.679 153.776C413.049 153.413 412.564 152.875 412.223 152.16C411.583 152.939 410.772 153.52 409.791 153.904C408.82 154.288 407.801 154.48 406.735 154.48C405.007 154.48 403.636 153.989 402.623 153.008C401.609 152.027 401.103 150.752 401.103 149.184C401.103 147.381 401.807 145.995 403.215 145.024C404.633 144.043 406.639 143.552 409.231 143.552H411.599V142.64C411.599 141.637 411.289 140.912 410.671 140.464C410.052 140.005 409.161 139.776 407.999 139.776C407.455 139.776 406.772 139.851 405.951 140C405.14 140.139 404.303 140.357 403.439 140.656L402.431 137.76C403.508 137.355 404.591 137.056 405.679 136.864C406.777 136.672 407.775 136.576 408.671 136.576C411.049 136.576 412.815 137.083 413.967 138.096C415.119 139.099 415.695 140.523 415.695 142.368V149.536ZM408.111 151.424C408.751 151.424 409.396 151.243 410.047 150.88C410.708 150.517 411.225 150.011 411.599 149.36V146.064H409.935C408.367 146.064 407.231 146.315 406.527 146.816C405.833 147.317 405.487 148.027 405.487 148.944C405.487 149.733 405.711 150.347 406.159 150.784C406.607 151.211 407.257 151.424 408.111 151.424ZM433.282 137.056V149.856C433.282 152.107 432.834 153.968 431.938 155.44C431.053 156.912 429.746 158.085 428.018 158.96C426.29 159.835 424.173 160.507 421.666 160.976L420.978 157.744C422.685 157.392 424.136 156.928 425.33 156.352C426.536 155.776 427.458 154.992 428.098 154C428.738 153.008 429.058 151.717 429.058 150.128V140.048H422.626V137.056H433.282ZM430.274 128.512C431.042 128.512 431.672 128.752 432.162 129.232C432.653 129.712 432.898 130.309 432.898 131.024C432.898 131.739 432.653 132.341 432.162 132.832C431.672 133.312 431.042 133.552 430.274 133.552C429.496 133.552 428.861 133.312 428.37 132.832C427.88 132.341 427.634 131.739 427.634 131.024C427.634 130.309 427.88 129.712 428.37 129.232C428.861 128.752 429.496 128.512 430.274 128.512ZM453.43 149.536C453.43 150.187 453.526 150.661 453.718 150.96C453.91 151.248 454.219 151.467 454.646 151.616L453.734 154.448C452.827 154.352 452.054 154.128 451.414 153.776C450.784 153.413 450.299 152.875 449.958 152.16C449.318 152.939 448.507 153.52 447.526 153.904C446.555 154.288 445.536 154.48 444.47 154.48C442.742 154.48 441.371 153.989 440.358 153.008C439.344 152.027 438.838 150.752 438.838 149.184C438.838 147.381 439.542 145.995 440.95 145.024C442.368 144.043 444.374 143.552 446.966 143.552H449.334V142.64C449.334 141.637 449.024 140.912 448.406 140.464C447.787 140.005 446.896 139.776 445.734 139.776C445.19 139.776 444.507 139.851 443.686 140C442.875 140.139 442.038 140.357 441.174 140.656L440.166 137.76C441.243 137.355 442.326 137.056 443.414 136.864C444.512 136.672 445.51 136.576 446.406 136.576C448.784 136.576 450.55 137.083 451.702 138.096C452.854 139.099 453.43 140.523 453.43 142.368V149.536ZM445.846 151.424C446.486 151.424 447.131 151.243 447.782 150.88C448.443 150.517 448.96 150.011 449.334 149.36V146.064H447.67C446.102 146.064 444.966 146.315 444.262 146.816C443.568 147.317 443.222 148.027 443.222 148.944C443.222 149.733 443.446 150.347 443.894 150.784C444.342 151.211 444.992 151.424 445.846 151.424ZM458.937 154V151.072H461.321V139.968H458.937V137.056H464.537L465.321 140.944C465.94 139.504 466.719 138.421 467.657 137.696C468.596 136.96 469.775 136.592 471.193 136.592C471.737 136.592 472.217 136.635 472.633 136.72C473.06 136.805 473.465 136.917 473.849 137.056L472.585 140.608C472.255 140.523 471.94 140.459 471.641 140.416C471.343 140.363 471.007 140.336 470.633 140.336C469.46 140.336 468.436 140.795 467.561 141.712C466.697 142.619 466.025 143.851 465.545 145.408V151.072H468.921V154H458.937ZM470.281 143.664V139.168L470.857 137.056H473.849L473.097 143.664H470.281ZM496.512 154V137.056H500.192L500.496 139.152C501.222 138.299 502.038 137.659 502.944 137.232C503.851 136.795 504.827 136.576 505.872 136.576C507.398 136.576 508.56 137.019 509.36 137.904C510.16 138.779 510.56 140.011 510.56 141.6V154H506.336V143.248C506.336 142.395 506.283 141.712 506.176 141.2C506.07 140.677 505.867 140.304 505.568 140.08C505.27 139.845 504.838 139.728 504.272 139.728C503.814 139.728 503.371 139.829 502.944 140.032C502.528 140.235 502.134 140.507 501.76 140.848C501.398 141.189 501.056 141.568 500.736 141.984V154H496.512ZM522.42 136.576C524.105 136.576 525.534 136.944 526.708 137.68C527.881 138.416 528.772 139.456 529.38 140.8C529.998 142.133 530.308 143.696 530.308 145.488C530.308 147.323 529.998 148.912 529.38 150.256C528.761 151.6 527.865 152.64 526.692 153.376C525.518 154.112 524.089 154.48 522.404 154.48C520.729 154.48 519.3 154.123 518.116 153.408C516.942 152.683 516.046 151.653 515.428 150.32C514.809 148.976 514.5 147.376 514.5 145.52C514.5 143.749 514.809 142.192 515.428 140.848C516.046 139.504 516.948 138.459 518.132 137.712C519.316 136.955 520.745 136.576 522.42 136.576ZM522.42 139.76C521.236 139.76 520.35 140.224 519.764 141.152C519.188 142.08 518.9 143.536 518.9 145.52C518.9 147.525 519.188 148.992 519.764 149.92C520.34 150.837 521.22 151.296 522.404 151.296C523.588 151.296 524.468 150.837 525.044 149.92C525.62 148.992 525.908 147.515 525.908 145.488C525.908 143.515 525.62 142.069 525.044 141.152C524.468 140.224 523.593 139.76 522.42 139.76ZM567.739 153.056C567.109 153.472 566.347 153.813 565.451 154.08C564.555 154.347 563.584 154.48 562.539 154.48C560.469 154.48 558.912 153.947 557.867 152.88C556.821 151.803 556.299 150.373 556.299 148.592V140.048H552.619V137.056H556.299V133.328L560.523 132.816V137.056H566.123L565.691 140.048H560.523V148.576C560.523 149.451 560.736 150.091 561.163 150.496C561.589 150.901 562.277 151.104 563.227 151.104C563.835 151.104 564.389 151.035 564.891 150.896C565.403 150.747 565.867 150.56 566.283 150.336L567.739 153.056ZM575.582 146.816C575.668 147.872 575.908 148.731 576.302 149.392C576.708 150.053 577.225 150.539 577.854 150.848C578.484 151.157 579.182 151.312 579.95 151.312C580.761 151.312 581.524 151.184 582.238 150.928C582.953 150.672 583.657 150.315 584.35 149.856L586.11 152.272C585.321 152.933 584.377 153.467 583.278 153.872C582.19 154.277 580.99 154.48 579.678 154.48C577.844 154.48 576.297 154.101 575.038 153.344C573.79 152.587 572.846 151.536 572.206 150.192C571.566 148.848 571.246 147.301 571.246 145.552C571.246 143.867 571.561 142.347 572.19 140.992C572.82 139.637 573.726 138.565 574.91 137.776C576.094 136.976 577.524 136.576 579.198 136.576C580.756 136.576 582.1 136.917 583.23 137.6C584.361 138.283 585.236 139.264 585.854 140.544C586.473 141.813 586.782 143.344 586.782 145.136C586.782 145.424 586.772 145.717 586.75 146.016C586.74 146.315 586.724 146.581 586.702 146.816H575.582ZM579.214 139.552C578.19 139.552 577.348 139.92 576.686 140.656C576.036 141.381 575.652 142.533 575.534 144.112H582.67C582.649 142.683 582.35 141.568 581.774 140.768C581.209 139.957 580.356 139.552 579.214 139.552ZM602.898 136.576C603.623 136.576 604.242 136.731 604.754 137.04C605.266 137.339 605.66 137.845 605.938 138.56C606.215 139.264 606.354 140.224 606.354 141.44V154H602.674V141.968C602.674 141.2 602.61 140.656 602.482 140.336C602.364 140.016 602.092 139.856 601.666 139.856C601.314 139.856 600.956 139.963 600.594 140.176C600.242 140.379 599.874 140.747 599.49 141.28V154H596.306V141.968C596.306 141.2 596.242 140.656 596.114 140.336C595.996 140.016 595.724 139.856 595.298 139.856C594.935 139.856 594.578 139.963 594.226 140.176C593.874 140.379 593.506 140.747 593.122 141.28V154H589.394V137.056H592.546L592.818 138.816C593.319 138.112 593.847 137.563 594.402 137.168C594.956 136.773 595.623 136.576 596.402 136.576C597.042 136.576 597.607 136.736 598.098 137.056C598.599 137.365 598.956 137.899 599.17 138.656C599.66 138.037 600.21 137.536 600.818 137.152C601.426 136.768 602.119 136.576 602.898 136.576ZM618.469 136.576C619.963 136.576 621.157 136.944 622.053 137.68C622.96 138.405 623.616 139.435 624.021 140.768C624.437 142.101 624.645 143.675 624.645 145.488C624.645 147.227 624.395 148.773 623.893 150.128C623.392 151.483 622.656 152.549 621.685 153.328C620.725 154.096 619.541 154.48 618.133 154.48C616.405 154.48 615.008 153.867 613.941 152.64V160.528L609.717 160.976V137.056H613.429L613.653 139.12C614.325 138.245 615.077 137.605 615.909 137.2C616.741 136.784 617.595 136.576 618.469 136.576ZM617.237 139.744C616.523 139.744 615.893 139.957 615.349 140.384C614.816 140.811 614.347 141.339 613.941 141.968V149.552C614.325 150.128 614.763 150.56 615.253 150.848C615.744 151.136 616.299 151.28 616.917 151.28C617.995 151.28 618.816 150.832 619.381 149.936C619.957 149.029 620.245 147.563 620.245 145.536C620.245 144.107 620.128 142.971 619.893 142.128C619.669 141.275 619.333 140.667 618.885 140.304C618.437 139.931 617.888 139.744 617.237 139.744ZM635.625 136.576C637.31 136.576 638.739 136.944 639.913 137.68C641.086 138.416 641.977 139.456 642.585 140.8C643.203 142.133 643.513 143.696 643.513 145.488C643.513 147.323 643.203 148.912 642.585 150.256C641.966 151.6 641.07 152.64 639.897 153.376C638.723 154.112 637.294 154.48 635.609 154.48C633.934 154.48 632.505 154.123 631.321 153.408C630.147 152.683 629.251 151.653 628.633 150.32C628.014 148.976 627.705 147.376 627.705 145.52C627.705 143.749 628.014 142.192 628.633 140.848C629.251 139.504 630.153 138.459 631.337 137.712C632.521 136.955 633.95 136.576 635.625 136.576ZM635.625 139.76C634.441 139.76 633.555 140.224 632.969 141.152C632.393 142.08 632.105 143.536 632.105 145.52C632.105 147.525 632.393 148.992 632.969 149.92C633.545 150.837 634.425 151.296 635.609 151.296C636.793 151.296 637.673 150.837 638.249 149.92C638.825 148.992 639.113 147.515 639.113 145.488C639.113 143.515 638.825 142.069 638.249 141.152C637.673 140.224 636.798 139.76 635.625 139.76ZM674.384 130.288V149.072C674.384 149.808 674.597 150.331 675.024 150.64C675.461 150.949 676.048 151.104 676.784 151.104C677.242 151.104 677.685 151.056 678.112 150.96C678.538 150.853 678.944 150.725 679.328 150.576L680.368 153.456C679.834 153.723 679.184 153.957 678.416 154.16C677.658 154.373 676.778 154.48 675.776 154.48C673.93 154.48 672.533 153.952 671.584 152.896C670.634 151.84 670.16 150.416 670.16 148.624V133.28H665.088V130.288H674.384ZM694.931 137.056V151.008H699.395V154H685.747V151.008H690.707V140.048H685.907V137.056H694.931ZM692.195 128.512C692.974 128.512 693.603 128.752 694.083 129.232C694.574 129.712 694.819 130.309 694.819 131.024C694.819 131.739 694.574 132.341 694.083 132.832C693.603 133.312 692.974 133.552 692.195 133.552C691.417 133.552 690.782 133.312 690.291 132.832C689.801 132.341 689.555 131.739 689.555 131.024C689.555 130.309 689.801 129.712 690.291 129.232C690.782 128.752 691.417 128.512 692.195 128.512ZM718.663 134.672L719.719 137.968C719.079 138.192 718.359 138.352 717.559 138.448C716.759 138.533 715.841 138.576 714.807 138.576C715.841 139.024 716.625 139.595 717.159 140.288C717.703 140.971 717.975 141.84 717.975 142.896C717.975 143.995 717.692 144.976 717.127 145.84C716.572 146.704 715.777 147.381 714.743 147.872C713.719 148.363 712.497 148.608 711.079 148.608C710.641 148.608 710.252 148.587 709.911 148.544C709.569 148.501 709.239 148.443 708.919 148.368C708.705 148.485 708.54 148.656 708.423 148.88C708.305 149.104 708.247 149.333 708.247 149.568C708.247 149.888 708.369 150.165 708.615 150.4C708.871 150.624 709.415 150.736 710.247 150.736H713.127C714.375 150.736 715.468 150.949 716.407 151.376C717.356 151.792 718.092 152.357 718.615 153.072C719.148 153.787 719.415 154.608 719.415 155.536C719.415 157.243 718.673 158.576 717.191 159.536C715.708 160.496 713.543 160.976 710.695 160.976C708.657 160.976 707.068 160.768 705.927 160.352C704.796 159.936 704.001 159.328 703.543 158.528C703.084 157.739 702.855 156.784 702.855 155.664H706.615C706.615 156.208 706.721 156.656 706.935 157.008C707.159 157.36 707.569 157.621 708.167 157.792C708.775 157.963 709.644 158.048 710.775 158.048C711.905 158.048 712.791 157.957 713.431 157.776C714.081 157.595 714.54 157.333 714.807 156.992C715.073 156.661 715.207 156.272 715.207 155.824C715.207 155.216 714.951 154.741 714.439 154.4C713.927 154.059 713.201 153.888 712.263 153.888H709.463C707.756 153.888 706.513 153.557 705.735 152.896C704.956 152.224 704.567 151.451 704.567 150.576C704.567 149.979 704.727 149.408 705.047 148.864C705.377 148.309 705.847 147.84 706.455 147.456C705.409 146.901 704.652 146.24 704.183 145.472C703.724 144.693 703.495 143.755 703.495 142.656C703.495 141.429 703.804 140.363 704.423 139.456C705.041 138.549 705.9 137.845 706.999 137.344C708.097 136.843 709.361 136.592 710.791 136.592C712.103 136.603 713.217 136.523 714.135 136.352C715.063 136.181 715.879 135.947 716.583 135.648C717.297 135.349 717.991 135.024 718.663 134.672ZM710.871 139.408C709.868 139.408 709.1 139.701 708.567 140.288C708.044 140.875 707.783 141.653 707.783 142.624C707.783 143.627 708.055 144.421 708.599 145.008C709.143 145.595 709.905 145.888 710.887 145.888C711.857 145.888 712.593 145.605 713.095 145.04C713.607 144.464 713.863 143.643 713.863 142.576C713.863 141.509 713.607 140.715 713.095 140.192C712.593 139.669 711.852 139.408 710.871 139.408ZM727.146 137.056V148.8C727.146 149.717 727.328 150.363 727.69 150.736C728.053 151.109 728.581 151.296 729.274 151.296C729.936 151.296 730.581 151.099 731.21 150.704C731.84 150.299 732.352 149.787 732.746 149.168V137.056H736.97V154H733.29L733.066 151.92C732.458 152.752 731.68 153.387 730.73 153.824C729.781 154.261 728.8 154.48 727.786 154.48C726.154 154.48 724.933 154.021 724.122 153.104C723.322 152.176 722.922 150.912 722.922 149.312V137.056H727.146ZM745.39 146.816C745.475 147.872 745.715 148.731 746.11 149.392C746.515 150.053 747.032 150.539 747.662 150.848C748.291 151.157 748.99 151.312 749.758 151.312C750.568 151.312 751.331 151.184 752.046 150.928C752.76 150.672 753.464 150.315 754.158 149.856L755.918 152.272C755.128 152.933 754.184 153.467 753.086 153.872C751.998 154.277 750.798 154.48 749.486 154.48C747.651 154.48 746.104 154.101 744.846 153.344C743.598 152.587 742.654 151.536 742.014 150.192C741.374 148.848 741.054 147.301 741.054 145.552C741.054 143.867 741.368 142.347 741.998 140.992C742.627 139.637 743.534 138.565 744.718 137.776C745.902 136.976 747.331 136.576 749.006 136.576C750.563 136.576 751.907 136.917 753.038 137.6C754.168 138.283 755.043 139.264 755.662 140.544C756.28 141.813 756.59 143.344 756.59 145.136C756.59 145.424 756.579 145.717 756.558 146.016C756.547 146.315 756.531 146.581 756.51 146.816H745.39ZM749.022 139.552C747.998 139.552 747.155 139.92 746.494 140.656C745.843 141.381 745.459 142.533 745.342 144.112H752.478C752.456 142.683 752.158 141.568 751.582 140.768C751.016 139.957 750.163 139.552 749.022 139.552ZM786.565 136.576C788.25 136.576 789.679 136.944 790.853 137.68C792.026 138.416 792.917 139.456 793.525 140.8C794.143 142.133 794.453 143.696 794.453 145.488C794.453 147.323 794.143 148.912 793.525 150.256C792.906 151.6 792.01 152.64 790.837 153.376C789.663 154.112 788.234 154.48 786.549 154.48C784.874 154.48 783.445 154.123 782.261 153.408C781.087 152.683 780.191 151.653 779.573 150.32C778.954 148.976 778.645 147.376 778.645 145.52C778.645 143.749 778.954 142.192 779.573 140.848C780.191 139.504 781.093 138.459 782.277 137.712C783.461 136.955 784.89 136.576 786.565 136.576ZM786.565 139.76C785.381 139.76 784.495 140.224 783.909 141.152C783.333 142.08 783.045 143.536 783.045 145.52C783.045 147.525 783.333 148.992 783.909 149.92C784.485 150.837 785.365 151.296 786.549 151.296C787.733 151.296 788.613 150.837 789.189 149.92C789.765 148.992 790.053 147.515 790.053 145.488C790.053 143.515 789.765 142.069 789.189 141.152C788.613 140.224 787.738 139.76 786.565 139.76ZM823.708 151.36C824.7 151.36 825.494 151.189 826.092 150.848C826.7 150.496 827.004 150.005 827.004 149.376C827.004 148.96 826.902 148.608 826.7 148.32C826.508 148.032 826.124 147.765 825.548 147.52C824.972 147.264 824.108 146.981 822.956 146.672C821.868 146.395 820.913 146.053 820.092 145.648C819.281 145.232 818.646 144.699 818.188 144.048C817.74 143.397 817.516 142.576 817.516 141.584C817.516 140.592 817.793 139.723 818.348 138.976C818.902 138.219 819.702 137.632 820.748 137.216C821.804 136.789 823.073 136.576 824.556 136.576C826.006 136.576 827.276 136.768 828.364 137.152C829.452 137.525 830.385 137.995 831.164 138.56L829.436 141.136C828.753 140.699 828.012 140.347 827.212 140.08C826.422 139.803 825.569 139.664 824.652 139.664C823.66 139.664 822.934 139.808 822.476 140.096C822.028 140.384 821.804 140.784 821.804 141.296C821.804 141.659 821.916 141.968 822.14 142.224C822.374 142.469 822.79 142.709 823.388 142.944C823.996 143.168 824.86 143.44 825.98 143.76C827.078 144.059 828.033 144.411 828.844 144.816C829.665 145.221 830.3 145.76 830.748 146.432C831.196 147.104 831.42 147.984 831.42 149.072C831.42 150.299 831.062 151.312 830.348 152.112C829.633 152.912 828.689 153.509 827.516 153.904C826.353 154.288 825.089 154.48 823.724 154.48C822.124 154.48 820.726 154.251 819.532 153.792C818.337 153.333 817.324 152.741 816.492 152.016L818.684 149.552C819.345 150.075 820.097 150.507 820.94 150.848C821.793 151.189 822.716 151.36 823.708 151.36ZM843.167 136.576C844.853 136.576 846.282 136.944 847.455 137.68C848.629 138.416 849.519 139.456 850.127 140.8C850.746 142.133 851.055 143.696 851.055 145.488C851.055 147.323 850.746 148.912 850.127 150.256C849.509 151.6 848.613 152.64 847.439 153.376C846.266 154.112 844.837 154.48 843.151 154.48C841.477 154.48 840.047 154.123 838.863 153.408C837.69 152.683 836.794 151.653 836.175 150.32C835.557 148.976 835.247 147.376 835.247 145.52C835.247 143.749 835.557 142.192 836.175 140.848C836.794 139.504 837.695 138.459 838.879 137.712C840.063 136.955 841.493 136.576 843.167 136.576ZM843.167 139.76C841.983 139.76 841.098 140.224 840.511 141.152C839.935 142.08 839.647 143.536 839.647 145.52C839.647 147.525 839.935 148.992 840.511 149.92C841.087 150.837 841.967 151.296 843.151 151.296C844.335 151.296 845.215 150.837 845.791 149.92C846.367 148.992 846.655 147.515 846.655 145.488C846.655 143.515 846.367 142.069 845.791 141.152C845.215 140.224 844.341 139.76 843.167 139.76ZM867.043 136.576C867.768 136.576 868.387 136.731 868.899 137.04C869.411 137.339 869.805 137.845 870.083 138.56C870.36 139.264 870.499 140.224 870.499 141.44V154H866.819V141.968C866.819 141.2 866.755 140.656 866.627 140.336C866.509 140.016 866.237 139.856 865.811 139.856C865.459 139.856 865.101 139.963 864.739 140.176C864.387 140.379 864.019 140.747 863.635 141.28V154H860.451V141.968C860.451 141.2 860.387 140.656 860.259 140.336C860.141 140.016 859.869 139.856 859.443 139.856C859.08 139.856 858.723 139.963 858.371 140.176C858.019 140.379 857.651 140.747 857.267 141.28V154H853.539V137.056H856.691L856.963 138.816C857.464 138.112 857.992 137.563 858.547 137.168C859.101 136.773 859.768 136.576 860.547 136.576C861.187 136.576 861.752 136.736 862.243 137.056C862.744 137.365 863.101 137.899 863.315 138.656C863.805 138.037 864.355 137.536 864.963 137.152C865.571 136.768 866.264 136.576 867.043 136.576ZM877.574 151.168C877.574 150.571 877.718 150.021 878.006 149.52C878.305 149.019 878.705 148.619 879.206 148.32C879.708 148.021 880.262 147.872 880.87 147.872C881.489 147.872 882.049 148.021 882.55 148.32C883.052 148.619 883.446 149.019 883.734 149.52C884.033 150.021 884.182 150.571 884.182 151.168C884.182 151.765 884.033 152.32 883.734 152.832C883.446 153.333 883.052 153.733 882.55 154.032C882.049 154.331 881.489 154.48 880.87 154.48C880.262 154.48 879.708 154.331 879.206 154.032C878.705 153.733 878.305 153.333 878.006 152.832C877.718 152.32 877.574 151.765 877.574 151.168Z" fill="#57EB23"/>
<path d="M447 356.372V301.621C447 296.311 451.122 292.001 456.2 292.001H489.191C490.409 291.996 491.613 291.744 492.731 291.259C493.848 290.774 494.857 290.067 495.696 289.179L523.296 257.84C529.092 251.772 539 256.073 539 264.648V393.354C539 401.994 528.972 406.258 523.213 400.07L495.705 368.906C494.864 367.993 493.845 367.264 492.712 366.765C491.578 366.265 490.355 366.005 489.118 366.002H456.2C451.122 366.002 447 361.691 447 356.372Z" fill="#2B3A19" stroke="#57EB23" stroke-width="2" stroke-linecap="round" stroke-linejoin="round"/>
<path d="M571 305V356.5M593.5 288V370" stroke="#57EB23" stroke-width="4" stroke-linecap="round"/>
<path d="M620 270V395" stroke="#57EB23" stroke-width="4" stroke-linecap="round"/>
</g>
<defs>
<filter id="filter0_i_578_51" x="0" y="0" width="1158" height="539" filterUnits="userSpaceOnUse" color-interpolation-filters="sRGB">
<feFlood flood-opacity="0" result="BackgroundImageFix"/>
<feBlend mode="normal" in="SourceGraphic" in2="BackgroundImageFix" result="shape"/>
<feColorMatrix in="SourceAlpha" type="matrix" values="0 0 0 0 0 0 0 0 0 0 0 0 0 0 0 0 0 0 127 0" result="hardAlpha"/>
<feOffset dy="4"/>
<feGaussianBlur stdDeviation="61"/>
<feComposite in2="hardAlpha" operator="arithmetic" k2="-1" k3="1"/>
<feColorMatrix type="matrix" values="0 0 0 0 0 0 0 0 0 0 0 0 0 0 0 0 0 0 0.5 0"/>
<feBlend mode="normal" in2="shape" result="effect1_innerShadow_578_51"/>
</filter>
<clipPath id="clip0_578_51">
<rect width="1158" height="535" fill="white"/>
</clipPath>
</defs>
</svg>
