<svg width="775" height="140" viewBox="0 0 775 140" fill="none" xmlns="http://www.w3.org/2000/svg">
<path d="M21.5093 3H752.569C762.514 3 771.078 12.0156 771.078 23.7876V116.212C771.078 127.984 762.514 137 752.569 137H21.5093C11.5639 137 3 127.984 3 116.212V23.7876C3 12.0156 11.5639 3 21.5093 3Z" fill="#2B3C12" fill-opacity="0.76" stroke="#57EB23" stroke-width="6"/>
<path d="M85.0474 1V135M183.94 1V135M283.311 1V135M382.203 1V135M481.574 1V135M580.467 1V135M675.538 1V135" stroke="#57EB23" stroke-width="0.2"/>
<path d="M773.989 35.7852L0.0615717 35.9179M773.995 72.3935L0.0673115 72.5262M774 107.587L0.0728295 107.72" stroke="#57EB23" stroke-width="0.2"/>
<path d="M26.7161 43.7885L29.6065 53.7039C29.6065 53.7039 28.2725 49.557 25.6362 54.3158C23 59.0747 32.4968 71.4689 32.4968 71.4689L35.8 83.0369L40.7549 88.4077L36.7529 90.337L36.2129 94.1917L23 97.91C45.7097 122.698 63.8774 123.525 87 99.3423L72.7707 95.9117L69.6581 90.337L67.4347 92.4811L68.8323 87.1683L74.2 80.9712L77.0903 71.8821C77.0903 71.8821 87.8258 61.1404 84.332 53.4579C83.5201 51.6726 80.3936 54.117 80.3936 54.117L83.4427 42.7376C83.4427 35.8763 79.2265 30.3752 76.328 27.2998C60.5655 10.5756 36.7529 24.2981 36.7529 24.2981C36.7529 24.2981 28.9395 28.7796 26.7161 43.7885Z" stroke="#57EB23" stroke-width="3"/>
<g style="mix-blend-mode:luminosity">
<path d="M45.4686 99.1775L42.374 85.5612L68.3687 84.6328L65.8931 99.1775H45.4686Z" fill="#E7D5BF" stroke="black"/>
<path d="M26.5918 99.1775L38.9702 95.1545L55.3717 102.581L71.1542 96.0829L86.0083 99.1775C76.7245 111.246 52.5865 131.671 26.5918 99.1775Z" fill="#124D1E" stroke="black" stroke-width="0.6"/>
<path d="M52.14 102.835L51.1184 98.7488H55.4294H59.7783L59.0124 102.834L55.4368 104.209L52.14 102.835Z" fill="#18341F" stroke="black"/>
<path d="M42.993 89.8936H39.8984L43.9214 92.6787L42.993 89.8936Z" fill="#091B0D" stroke="black" stroke-width="0.6"/>
<path d="M53.2052 99.487L43.3025 92.3694L39.5889 90.2031L38.3511 94.5356L53.2052 104.748V99.487Z" fill="#02310C" stroke="black"/>
<path d="M67.4401 90.5122H70.5347L66.5117 93.2974L67.4401 90.5122Z" fill="#091B0D" stroke="black" stroke-width="0.6"/>
<path d="M57.2284 99.7965L67.1311 92.6789L70.8447 90.5127L72.0825 94.8451L57.2284 105.057V99.7965Z" fill="#02310C" stroke="black"/>
<path d="M36.7913 80.6581L30.406 53.3935C30.319 53.0199 30.2789 52.6368 30.2872 52.2536C30.58 38.3807 43.1987 27.6409 56.9361 28.6226C69.8987 29.5497 80.382 40.6658 79.7577 53.7302C79.7397 54.0916 79.6803 54.4501 79.5781 54.7992C77.2812 62.6512 74.9856 70.5032 72.6887 78.3552C72.5008 78.9988 72.1707 79.5987 71.7232 80.1141L62.8628 90.3071C61.9084 91.4047 60.4858 92.0414 58.9858 92.0414H52.1571C51.0466 92.0414 49.9679 91.6923 49.0895 91.0502L38.6297 83.4013C37.6973 82.7196 37.0468 81.7488 36.7927 80.6594L36.7913 80.6581Z" fill="#FFE8D4"/>
<path d="M50.4206 48.1536C46.085 48.11 41.7494 48.0663 37.4138 48.0227L34.168 50.5532L51.3833 49.9956L50.4206 48.1536Z" fill="#460000"/>
<path d="M60.2483 48.1536C64.5839 48.11 68.9195 48.0663 73.2551 48.0227L76.5009 50.5532L59.2856 49.9956L60.2483 48.1536Z" fill="#460000"/>
<path opacity="0.82" d="M50.7431 56.9041C51.0166 56.6996 51.3936 56.3464 51.3853 55.9169C51.3757 55.4425 50.9019 55.133 50.3356 54.6939C49.7928 54.274 49.0691 53.6618 48.2611 52.811H41.1065L35.3979 55.9169C37.275 56.8509 39.1534 57.7862 41.0305 58.7202C42.3564 58.3057 43.8564 57.9089 45.5166 57.5858C47.4254 57.2136 49.1851 57.0091 50.7431 56.9041Z" fill="white"/>
<path d="M41.1641 52.8101C40.8409 54.9547 42.6019 56.7558 44.4748 56.7586C46.3491 56.7599 48.1156 54.9575 47.7924 52.8101H41.1641Z" fill="#42210B"/>
<path opacity="0.82" d="M59.6507 57.1018C59.38 56.9123 59.0001 56.5824 58.9808 56.1515C58.9587 55.677 59.3841 55.3416 59.891 54.8712C60.3744 54.4227 61.0181 53.7709 61.7239 52.8765C63.9738 52.7429 66.2238 52.6107 68.4724 52.4771L74.0608 55.2585C72.3508 56.296 70.6409 57.3336 68.931 58.3698C67.6506 58.0031 66.1644 57.6622 64.4987 57.425C62.6962 57.1686 61.0609 57.0896 59.6479 57.0991L59.6507 57.1018Z" fill="white"/>
<path d="M68.9794 52.4486C69.4421 54.5701 67.8026 56.4721 65.9352 56.5839C64.0651 56.6971 62.1825 55.001 62.3648 52.8386C64.5692 52.7077 66.775 52.5782 68.9794 52.4473V52.4486Z" fill="#42210B"/>
<path opacity="0.35" d="M34.0044 68.7704L49.0457 91.0203L38.3345 83.186C37.5914 82.642 37.072 81.8689 36.869 80.999L34.0044 68.769V68.7704Z" fill="#C59B6D"/>
<path opacity="0.35" d="M76.3699 65.7568L62.457 90.769L72.3989 79.3312L76.3699 65.7568Z" fill="#C59B6D"/>
<path d="M36.7417 82.2556L30.3888 54.876C30.3022 54.5008 30.2623 54.1161 30.2706 53.7313C30.5619 39.7998 43.1166 29.0147 56.7843 30.0006C69.6811 30.9316 80.1112 42.0946 79.4901 55.2142C79.4722 55.577 79.4132 55.9371 79.3115 56.2876C77.0262 64.1727 74.7423 72.0579 72.457 79.9431C72.2701 80.5893 71.9417 81.1918 71.4964 81.7093L62.681 91.9454C61.7314 93.0476 60.316 93.687 58.8236 93.687H52.0296C50.9247 93.687 49.8515 93.3364 48.9775 92.6916L38.5707 85.0104C37.6431 84.3258 36.9959 83.351 36.743 82.257L36.7417 82.2556Z" fill="#FFE8D4"/>
<path d="M58.7952 93.687H52.0501C50.9205 93.687 49.8059 93.322 48.9109 92.6615L38.5791 85.0201C37.6268 84.316 36.9597 83.3082 36.6991 82.1833L30.392 54.9501C30.3033 54.5647 30.2624 54.167 30.2706 53.7707C30.4097 47.1016 33.463 40.6818 38.6487 36.1591C43.6761 31.7752 50.2834 29.5295 56.7842 29.9993C69.9182 30.9486 80.104 42.2793 79.4901 55.2565C79.4724 55.631 79.411 56.0028 79.3073 56.3623L72.5022 79.8899C72.3085 80.5599 71.9756 81.1728 71.5145 81.7094L62.7612 91.892C61.7816 93.0319 60.3355 93.687 58.7952 93.687ZM55.0788 30.2799C49.2301 30.2799 43.4101 32.467 38.8874 36.4124C33.7741 40.8725 30.7631 47.2011 30.6253 53.7775C30.6171 54.1466 30.6553 54.517 30.7385 54.8765L37.0456 82.1084C37.2885 83.1557 37.9092 84.094 38.796 84.749L49.1278 92.3905C49.96 93.006 50.9982 93.3451 52.0501 93.3451H58.7952C60.229 93.3451 61.5742 92.7364 62.4869 91.6755L71.2402 81.4942C71.67 80.9944 71.9797 80.4238 72.1598 79.8L78.9649 56.2711C79.0617 55.9374 79.119 55.5901 79.1354 55.2415C79.7398 42.4468 69.7013 31.2768 56.7583 30.3412C56.2003 30.3003 55.6396 30.2812 55.0816 30.2812L55.0788 30.2799Z" fill="black"/>
<path d="M50.3307 48.1194C45.9951 48.0758 41.6595 48.0322 37.3239 47.9885L34.0781 50.5191L51.2934 49.9614L50.3307 48.1194Z" fill="#460000"/>
<path d="M33.5532 50.707L37.2604 47.8179L50.4439 47.9501L51.5807 50.1234L33.5546 50.707H33.5532ZM37.3874 48.1601L34.6029 50.3307L51.0075 49.8003L50.2174 48.2896L37.3861 48.1601H37.3874Z" fill="black"/>
<path d="M60.1575 48.1194C64.4931 48.0758 68.8287 48.0322 73.1643 47.9885L76.4101 50.5191L59.1948 49.9614L60.1575 48.1194Z" fill="#460000"/>
<path d="M76.9352 50.707L58.9092 50.1234L60.0459 47.9501L73.2295 47.8179L76.9366 50.707H76.9352ZM59.481 49.8003L75.8855 50.3307L73.101 48.1601L60.2697 48.2896L59.4796 49.8003H59.481Z" fill="black"/>
<path d="M50.6075 56.817C51.3782 55.8517 50.852 55.6376 49.9487 55.0868C49.1172 54.5455 48.3479 53.9088 47.6932 53.1835L48.1683 53.3839C45.7899 53.1835 43.4087 52.7513 41.0137 53.1548L41.2126 53.1044C39.4585 54.3615 37.6021 55.4931 35.6864 56.513L35.6615 55.2382C36.5897 55.7276 37.4944 56.2566 38.3825 56.8116C39.2679 57.3747 40.1449 57.9541 40.9709 58.6249L40.9046 58.7463C38.83 58.2009 36.877 57.4101 34.9502 56.5266L33.7251 55.9512C35.9751 54.6083 38.3632 53.418 40.8162 52.4486L40.9557 52.3913C41.5717 52.4622 42.1877 52.5249 42.8037 52.5522C44.6974 52.6967 46.5565 52.2086 48.4349 52.1609L48.6448 52.3695C49.2981 53.0185 49.9376 53.6729 50.6241 54.2974C51.2346 54.8182 52.0757 55.6935 51.3506 56.4789C51.16 56.6902 50.9307 56.8238 50.6973 56.9247L50.6075 56.817Z" fill="black"/>
<path opacity="0.82" d="M50.6518 56.8713C50.9253 56.6668 51.3023 56.3137 51.294 55.8842C51.2844 55.4097 50.8106 55.1002 50.2443 54.6612C49.7015 54.2413 48.9778 53.6291 48.1698 52.7783H41.0151L35.3066 55.8842C37.1837 56.8182 39.0621 57.7535 40.9392 58.6874C42.2651 58.273 43.7651 57.8762 45.4253 57.5531C47.3341 57.1808 49.0938 56.9763 50.6518 56.8713Z" fill="white"/>
<path d="M41.0737 52.7764C40.7505 54.921 42.5115 56.7221 44.3845 56.7249C46.2587 56.7262 48.0253 54.9238 47.7021 52.7764H41.0737Z" fill="#42210B"/>
<path d="M44.3861 56.8955H44.3834C43.4345 56.8955 42.4953 56.4633 41.8102 55.712C41.0685 54.8994 40.7342 53.8196 40.8958 52.752L40.9179 52.6047H47.8585L47.8806 52.752C48.0422 53.8209 47.7065 54.9008 46.9621 55.7134C46.2742 56.4646 45.3364 56.8955 44.3861 56.8955ZM41.2329 52.947C41.1362 53.8673 41.4414 54.7862 42.0823 55.487C42.6997 56.1633 43.5381 56.5519 44.3834 56.5532H44.3861C45.2314 56.5532 46.0712 56.166 46.69 55.4898C47.3322 54.789 47.6375 53.8686 47.5422 52.947H41.2342H41.2329Z" fill="black"/>
<path d="M59.5546 57.1232C58.0022 56.5205 58.487 55.3834 59.4552 54.4972C60.0988 53.8332 60.6941 53.1433 61.3046 52.4561L61.5007 52.2353C62.7839 52.1725 64.0767 52.373 65.3612 52.3866C66.5794 52.3961 67.7838 52.2393 68.9813 52.0239C71.1084 52.7179 73.1829 53.5605 75.1871 54.5231L76.4301 55.1489C75.1429 55.8593 73.7658 56.5996 72.4205 57.1954C71.455 57.6249 70.4799 58.038 69.4482 58.3639L69.3736 58.2466C70.9371 56.8423 72.6595 55.6629 74.4509 54.5531L74.5089 55.8265C72.531 54.9212 70.6028 53.9014 68.77 52.7506L68.9716 52.7888C66.5545 52.5284 64.2065 53.0983 61.846 53.4392L62.3074 53.2101C61.7024 53.9736 60.9759 54.654 60.1817 55.243C59.3198 55.8429 58.8019 56.0924 59.6375 57.0086L59.556 57.1204L59.5546 57.1232Z" fill="black"/>
<path opacity="0.82" d="M59.5594 57.0691C59.2887 56.8796 58.9088 56.5496 58.8895 56.1188C58.8674 55.6443 59.2928 55.3089 59.7997 54.8385C60.2831 54.39 60.9268 53.7382 61.6326 52.8438C63.8825 52.7102 66.1325 52.578 68.3811 52.4443L73.9695 55.2257C72.2595 56.2633 70.5496 57.3009 68.8397 58.3371C67.5593 57.9703 66.0731 57.6295 64.4074 57.3922C62.6049 57.1359 60.9696 57.0568 59.5566 57.0664L59.5594 57.0691Z" fill="white"/>
<path d="M68.8866 52.4159C69.3493 54.5374 67.7098 56.4394 65.8424 56.5512C63.9723 56.6644 62.0897 54.9683 62.272 52.8059C64.4764 52.675 66.6822 52.5454 68.8866 52.4146V52.4159Z" fill="#42210B"/>
<path d="M65.664 56.728C64.7773 56.728 63.8892 56.3585 63.2027 55.6958C62.4058 54.9282 62.0011 53.8702 62.0922 52.7931L62.1047 52.6458L69.0314 52.2368L69.0632 52.3813C69.2938 53.4366 69.0314 54.5342 68.3436 55.3891C67.7082 56.1799 66.8008 56.6652 65.8533 56.7225C65.7897 56.7266 65.7262 56.728 65.664 56.728ZM62.4431 52.9676C62.4072 53.8934 62.7732 54.7933 63.461 55.4559C64.124 56.0953 64.99 56.4321 65.8325 56.3817C66.6764 56.3312 67.4872 55.8935 68.059 55.1818C68.6516 54.4442 68.896 53.5089 68.74 52.5954L62.4431 52.9676Z" fill="black"/>
<path d="M53.3514 54.3922C53.8059 55.9725 53.8501 57.6249 53.6774 59.2447C53.6263 61.9388 53.2617 64.7312 51.9716 67.1635L51.9385 67.1512C52.7161 64.0208 53.8197 60.8685 53.4827 57.6249L53.3169 54.3963L53.3528 54.3909L53.3514 54.3922Z" fill="black"/>
<path d="M54.2747 72.5535C53.6504 72.5535 53.1144 72.2113 52.9225 72.0885C51.9584 71.4709 51.5205 70.631 51.5026 70.5956C50.9625 69.6834 50.2982 69.1558 49.765 68.7318C49.1849 68.2709 48.7264 67.9055 48.8065 67.292C48.87 66.8066 49.2678 66.3553 49.9874 65.9545L50.1697 66.249C49.5523 66.5939 49.2126 66.9593 49.1642 67.3342C49.1103 67.7433 49.4128 68.0051 49.9971 68.4686C50.5523 68.9104 51.2443 69.4598 51.823 70.4361C51.8313 70.4524 52.2443 71.2391 53.1241 71.8036C53.3327 71.9372 53.8879 72.2944 54.4832 72.1935C55.1061 72.0885 55.9003 71.2105 56.4818 70.5697C56.7346 70.2902 56.9542 70.0488 57.142 69.8811C57.8478 69.2499 58.4652 68.9145 58.9624 68.6431C59.7207 68.2314 60.0343 68.0596 59.8616 67.2906C59.7511 66.7943 59.1517 66.3526 58.0812 65.9776L58.2056 65.6572C59.4169 66.0813 60.0729 66.5925 60.2138 67.2197C60.4403 68.2341 59.9238 68.515 59.142 68.9404C58.6627 69.2008 58.0647 69.5267 57.3906 70.1293C57.2166 70.2847 56.9929 70.5315 56.7567 70.7919C56.1061 71.5091 55.2967 72.4035 54.5481 72.5289C54.457 72.5439 54.3658 72.5507 54.2774 72.5507L54.2747 72.5535Z" fill="black"/>
<path opacity="0.35" d="M33.9175 70.1693L48.9588 92.4192L38.2475 84.5849C37.5045 84.0409 36.9851 83.2678 36.7821 82.398L33.9175 70.168V70.1693Z" fill="#C59B6D"/>
<path opacity="0.35" d="M75.7962 67.6921L61.8848 92.7043L71.8266 81.2665L75.7962 67.6921Z" fill="#C59B6D"/>
<path d="M55.0102 57.9497C55.2049 59.1182 55.2422 60.2689 55.3279 61.4387C55.6966 63.3571 56.5046 65.1432 57.0557 67.0275L57.0226 67.0411C55.8707 65.3722 55.4826 63.398 55.2118 61.4551C54.9453 60.3371 54.7008 59.0323 55.0102 57.9497Z" fill="black"/>
<path d="M30.8586 55.377C29.3296 53.0278 26.7329 53.5023 26.5589 53.7586C26.3918 54.0054 26.3089 54.2931 26.2992 54.5862C26.2357 56.4909 26.3766 58.9274 27.1128 61.6488C28.6749 67.4175 32.6804 69.9589 34.6141 71.8527C33.661 66.3254 32.0022 60.7053 30.8586 55.3784V55.377Z" fill="#FFE5D1"/>
<path d="M30.7663 55.3433C29.2373 52.9941 26.6407 53.4686 26.4666 53.7249C26.2995 53.9717 26.2166 54.2594 26.207 54.5525C26.1434 56.4572 26.2843 58.8937 27.0205 61.6151C28.5826 67.3838 32.5881 69.9252 34.5218 71.8191C33.5688 66.2917 31.9099 60.6716 30.7663 55.3447V55.3433Z" fill="#FFE5D1"/>
<path d="M34.7927 72.3293L34.3922 71.938C34.051 71.604 33.6366 71.2413 33.196 70.8582C31.0635 68.9971 28.1436 66.4502 26.8467 61.6577C26.2224 59.3494 25.9461 56.958 26.0276 54.5474C26.0387 54.2106 26.1381 53.8943 26.3163 53.6325C26.453 53.4308 27.0152 53.3285 27.5165 53.3339C28.1685 53.3394 29.8038 53.5385 30.9212 55.2523L30.9447 55.3082C31.395 57.4038 31.935 59.5921 32.4599 61.7095C33.2775 65.0158 34.1228 68.4326 34.7016 71.7908L34.7941 72.3293H34.7927ZM27.4806 53.6762C27.0041 53.6762 26.6712 53.7743 26.6077 53.8289C26.4751 54.0266 26.395 54.2829 26.3867 54.5583C26.3066 56.9361 26.5787 59.2962 27.1947 61.5732C28.4654 66.2661 31.3397 68.7748 33.4391 70.6059C33.7237 70.8541 33.9985 71.094 34.2513 71.3245C33.6781 68.1463 32.8797 64.9177 32.1063 61.7886C31.5842 59.6794 31.0455 57.4992 30.5952 55.4077C29.79 54.1888 28.721 53.8111 27.9641 53.7089C27.7914 53.6857 27.6284 53.6762 27.4806 53.6762Z" fill="black"/>
<path d="M32.4389 68.0478C29.1406 65.0073 28.095 62.5 27.4555 60.2449C26.979 58.5624 26.4293 55.1429 27.3174 54.8648C27.8657 54.6957 28.6447 55.6583 29.8878 57.503C30.3629 58.2079 30.693 58.8214 30.9126 59.2264C31.3215 59.9844 31.693 60.7725 32.0176 61.5688L31.682 61.6915C31.3615 60.9061 30.9955 60.129 30.5922 59.3818C30.3767 58.981 30.0494 58.377 29.5839 57.6857C29.1475 57.0381 27.827 55.0693 27.4293 55.1879C27.0715 55.2997 27.0978 57.668 27.8022 60.1549C28.4279 62.3636 29.4527 64.8192 32.6875 67.8024L32.4361 68.0478H32.4389Z" fill="black"/>
<path d="M28.0222 59.123C27.8385 58.4495 27.8109 57.7678 27.9407 57.0997C28.0278 56.6498 28.1714 56.0649 28.3164 55.7717L28.6438 55.9149C28.5139 56.1794 28.3758 56.752 28.2957 57.1611C28.1755 57.7801 28.2018 58.4113 28.3717 59.0372L28.0222 59.123Z" fill="black"/>
<path d="M32.4751 64.7621C32.4571 64.7525 30.7099 63.6427 30.6188 61.8621C30.5801 61.0958 30.8688 60.6691 31.0607 60.3882L31.1201 60.2996L31.4268 60.4795L31.3632 60.5736C31.1864 60.834 30.9447 61.1899 30.9779 61.8457C31.0594 63.4355 32.6353 64.4567 32.6519 64.4649L32.4737 64.7621H32.4751Z" fill="black"/>
<path opacity="0.35" d="M32.5378 68.1459C30.6055 66.4007 29.5116 64.6459 28.9135 63.4966C28.7118 63.1107 28.0668 61.8305 27.6055 60.0266C27.1898 58.3987 26.6994 55.4646 27.3486 55.2464C27.995 55.0297 29.5544 57.5752 30.1207 58.4996C30.6428 59.3517 30.8638 59.8752 31.0999 60.3906C30.9936 60.5283 30.8886 60.666 30.7823 60.8037C30.6704 61.1214 30.3776 62.0415 30.7823 62.399C30.9853 63.8933 32.3168 64.7032 32.5364 64.8327V68.1459H32.5378Z" fill="#C59B6D"/>
<path d="M78.4827 56.0394C80.0117 53.6902 82.6084 54.1646 82.7824 54.421C82.9495 54.6677 83.0324 54.9554 83.0421 55.2486C83.1056 57.1533 82.9647 59.5897 82.2285 62.3112C80.6664 68.0798 76.6609 70.6213 74.7272 72.5151C75.6803 66.9877 77.3391 61.3677 78.4827 56.0407V56.0394Z" fill="#FFE5D1"/>
<path d="M78.575 56.0062C80.104 53.657 82.7007 54.1314 82.8747 54.3878C83.0418 54.6345 83.1247 54.9222 83.1344 55.2154C83.1979 57.1201 83.057 59.5565 82.3208 62.278C80.7587 68.0466 76.7532 70.5881 74.8195 72.4819C75.7726 66.9545 77.4314 61.3345 78.575 56.0075V56.0062Z" fill="#FFE5D1"/>
<path d="M74.5491 72.9917L74.9496 72.6004C75.2908 72.2663 75.7052 71.9036 76.1458 71.5205C78.2783 69.6594 81.1982 67.1125 82.4951 62.3201C83.1194 60.0118 83.3957 57.6203 83.3142 55.2098C83.3031 54.873 83.2037 54.5567 83.0255 54.2949C82.8888 54.0931 82.3266 53.9908 81.8253 53.9963C81.1733 54.0018 79.538 54.2008 78.4206 55.9147L78.3971 55.9706C77.9468 58.0662 77.4068 60.2545 76.8819 62.3719C76.0643 65.6782 75.219 69.095 74.6402 72.4531L74.5477 72.9917H74.5491ZM81.8612 54.3385C82.3377 54.3385 82.6705 54.4367 82.7341 54.4912C82.8667 54.6889 82.9468 54.9453 82.9551 55.2207C83.0352 57.5985 82.7631 59.9586 82.1471 62.2355C80.8764 66.9285 78.0021 69.4372 75.9027 71.2683C75.6181 71.5164 75.3433 71.7564 75.0905 71.9868C75.6637 68.8087 76.462 65.58 77.2355 62.451C77.7576 60.3417 78.2963 58.1616 78.7466 56.0701C79.5518 54.8512 80.6208 54.4735 81.3777 54.3712C81.5504 54.3481 81.7134 54.3385 81.8612 54.3385Z" fill="black"/>
<path d="M76.9024 68.7106C80.2007 65.6702 81.2463 63.1628 81.8858 60.9077C82.3623 59.2252 82.912 55.8057 82.0239 55.5276C81.4756 55.3585 80.6966 56.3211 79.4535 58.1658C78.9784 58.8707 78.6483 59.4843 78.4287 59.8892C78.0198 60.6473 77.6483 61.4354 77.3237 62.2316L77.6593 62.3543C77.9798 61.569 78.3458 60.7918 78.7491 60.0447C78.9646 59.6438 79.2919 59.0398 79.7574 58.3485C80.1938 57.7009 81.5143 55.7321 81.9121 55.8507C82.2698 55.9625 82.2435 58.3308 81.5391 60.8177C80.9134 63.0265 79.8886 65.482 76.6538 68.4652L76.9052 68.7106H76.9024Z" fill="black"/>
<path d="M81.3196 59.7854C81.5033 59.1119 81.5309 58.4301 81.4011 57.7621C81.314 57.3121 81.1704 56.7272 81.0254 56.4341L80.698 56.5772C80.8279 56.8417 80.966 57.4144 81.0461 57.8234C81.1663 58.4424 81.14 59.0737 80.9701 59.6995L81.3196 59.7854Z" fill="black"/>
<path d="M76.8667 65.4247C76.8847 65.4151 78.6319 64.3053 78.723 62.5247C78.7617 61.7584 78.473 61.3317 78.2811 61.0508L78.2217 60.9622L77.915 61.1421L77.9786 61.2362C78.1554 61.4966 78.3971 61.8525 78.3639 62.5083C78.2824 64.0981 76.7065 65.1193 76.6899 65.1275L76.8681 65.4247H76.8667Z" fill="black"/>
<path opacity="0.35" d="M76.804 68.8087C78.7363 67.0635 79.8302 65.3088 80.4283 64.1594C80.6299 63.7736 81.275 62.4933 81.7363 60.6895C82.152 59.0615 82.6424 56.1274 81.9932 55.9093C81.3468 55.6925 79.7874 58.238 79.2211 59.1624C78.699 60.0146 78.478 60.538 78.2418 61.0534C78.3482 61.1911 78.4532 61.3288 78.5595 61.4665C78.6714 61.7842 78.9642 62.7044 78.5595 63.0619C78.3565 64.5562 77.025 65.3661 76.8054 65.4956V68.8087H76.804Z" fill="#C59B6D"/>
<path d="M62.6592 77.7984L60.023 79.5115C59.7954 79.6597 59.5248 79.7395 59.2493 79.7395H50.7949C50.2901 79.7395 49.8018 79.5799 49.4026 79.2868L47.3801 77.7984H62.6592Z" fill="white"/>
<path d="M46.685 77.5949H63.2871L60.0785 79.6809C59.8129 79.8535 59.5044 79.9431 59.1828 79.9431H50.7283C50.179 79.9431 49.6379 79.7672 49.204 79.4481L46.685 77.5949ZM61.8981 78.0036H47.942L49.468 79.1256C49.8259 79.3894 50.2746 79.5344 50.7283 79.5344H59.1828C59.417 79.5344 59.643 79.4676 59.836 79.3422L61.8997 78.002L61.8981 78.0036Z" fill="black"/>
<path opacity="0.35" d="M50.9417 80.0708C51.9153 80.2697 53.0457 80.4909 54.0193 80.6897H55.1591C56.2375 80.4909 57.1592 80.2697 58.2368 80.0708H50.9409H50.9417Z" fill="#C5806D"/>
<path d="M28.7578 44.6175L32.4713 60.4947L34.0187 44.6175L39.5889 38.4283C53.7892 38.4283 60.8549 37.2464 73.3202 37.8093L78.8905 45.5459L79.5094 59.2567L83.223 44.6175C83.223 44.6175 83.0714 39.9782 81.9851 37.285C80.2376 32.9525 77.6527 30.4769 77.6527 30.4769C63.0846 12.2887 37.7322 23.2653 32.4713 32.2389C32.4713 32.2389 30.9127 35.0936 29.9957 38.4283C29.3547 40.7591 28.7578 44.6175 28.7578 44.6175Z" fill="#5F3232" stroke="black" stroke-linecap="round"/>
</g>
<path d="M144.83 41.19V44.98H149.73V46.97H144.83V50.99H150.78V53H142.09V39.17H150.71L150.43 41.19H144.83ZM148 34.28L149.03 36.31L144.45 37.95L143.81 36.59L148 34.28ZM173.404 50.21C173.404 50.6167 173.464 50.9133 173.584 51.1C173.704 51.28 173.898 51.4167 174.164 51.51L173.594 53.28C173.028 53.22 172.544 53.08 172.144 52.86C171.751 52.6333 171.448 52.2967 171.234 51.85C170.834 52.3367 170.328 52.7 169.714 52.94C169.108 53.18 168.471 53.3 167.804 53.3C166.724 53.3 165.868 52.9933 165.234 52.38C164.601 51.7667 164.284 50.97 164.284 49.99C164.284 48.8633 164.724 47.9967 165.604 47.39C166.491 46.7767 167.744 46.47 169.364 46.47H170.844V45.9C170.844 45.2733 170.651 44.82 170.264 44.54C169.878 44.2533 169.321 44.11 168.594 44.11C168.254 44.11 167.828 44.1567 167.314 44.25C166.808 44.3367 166.284 44.4733 165.744 44.66L165.114 42.85C165.788 42.5967 166.464 42.41 167.144 42.29C167.831 42.17 168.454 42.11 169.014 42.11C170.501 42.11 171.604 42.4267 172.324 43.06C173.044 43.6867 173.404 44.5767 173.404 45.73V50.21ZM168.664 51.39C169.064 51.39 169.468 51.2767 169.874 51.05C170.288 50.8233 170.611 50.5067 170.844 50.1V48.04H169.804C168.824 48.04 168.114 48.1967 167.674 48.51C167.241 48.8233 167.024 49.2667 167.024 49.84C167.024 50.3333 167.164 50.7167 167.444 50.99C167.724 51.2567 168.131 51.39 168.664 51.39ZM181.667 38.18V49.92C181.667 50.38 181.8 50.7067 182.067 50.9C182.34 51.0933 182.707 51.19 183.167 51.19C183.453 51.19 183.73 51.16 183.997 51.1C184.263 51.0333 184.517 50.9533 184.757 50.86L185.407 52.66C185.073 52.8267 184.667 52.9733 184.187 53.1C183.713 53.2333 183.163 53.3 182.537 53.3C181.383 53.3 180.51 52.97 179.917 52.31C179.323 51.65 179.027 50.76 179.027 49.64V40.05H175.857V38.18H181.667ZM197.429 40.92L198.089 42.98C197.689 43.12 197.239 43.22 196.739 43.28C196.239 43.3333 195.665 43.36 195.019 43.36C195.665 43.64 196.155 43.9967 196.489 44.43C196.829 44.8567 196.999 45.4 196.999 46.06C196.999 46.7467 196.822 47.36 196.469 47.9C196.122 48.44 195.625 48.8633 194.979 49.17C194.339 49.4767 193.575 49.63 192.689 49.63C192.415 49.63 192.172 49.6167 191.959 49.59C191.745 49.5633 191.539 49.5267 191.339 49.48C191.205 49.5533 191.102 49.66 191.029 49.8C190.955 49.94 190.919 50.0833 190.919 50.23C190.919 50.43 190.995 50.6033 191.149 50.75C191.309 50.89 191.649 50.96 192.169 50.96H193.969C194.749 50.96 195.432 51.0933 196.019 51.36C196.612 51.62 197.072 51.9733 197.399 52.42C197.732 52.8667 197.899 53.38 197.899 53.96C197.899 55.0267 197.435 55.86 196.509 56.46C195.582 57.06 194.229 57.36 192.449 57.36C191.175 57.36 190.182 57.23 189.469 56.97C188.762 56.71 188.265 56.33 187.979 55.83C187.692 55.3367 187.549 54.74 187.549 54.04H189.899C189.899 54.38 189.965 54.66 190.099 54.88C190.239 55.1 190.495 55.2633 190.869 55.37C191.249 55.4767 191.792 55.53 192.499 55.53C193.205 55.53 193.759 55.4733 194.159 55.36C194.565 55.2467 194.852 55.0833 195.019 54.87C195.185 54.6633 195.269 54.42 195.269 54.14C195.269 53.76 195.109 53.4633 194.789 53.25C194.469 53.0367 194.015 52.93 193.429 52.93H191.679C190.612 52.93 189.835 52.7233 189.349 52.31C188.862 51.89 188.619 51.4067 188.619 50.86C188.619 50.4867 188.719 50.13 188.919 49.79C189.125 49.4433 189.419 49.15 189.799 48.91C189.145 48.5633 188.672 48.15 188.379 47.67C188.092 47.1833 187.949 46.5967 187.949 45.91C187.949 45.1433 188.142 44.4767 188.529 43.91C188.915 43.3433 189.452 42.9033 190.139 42.59C190.825 42.2767 191.615 42.12 192.509 42.12C193.329 42.1267 194.025 42.0767 194.599 41.97C195.179 41.8633 195.689 41.7167 196.129 41.53C196.575 41.3433 197.009 41.14 197.429 40.92ZM192.559 43.88C191.932 43.88 191.452 44.0633 191.119 44.43C190.792 44.7967 190.629 45.2833 190.629 45.89C190.629 46.5167 190.799 47.0133 191.139 47.38C191.479 47.7467 191.955 47.93 192.569 47.93C193.175 47.93 193.635 47.7533 193.949 47.4C194.269 47.04 194.429 46.5267 194.429 45.86C194.429 45.1933 194.269 44.6967 193.949 44.37C193.635 44.0433 193.172 43.88 192.559 43.88ZM202.611 42.41V49.75C202.611 50.3233 202.724 50.7267 202.951 50.96C203.178 51.1933 203.508 51.31 203.941 51.31C204.354 51.31 204.758 51.1867 205.151 50.94C205.544 50.6867 205.864 50.3667 206.111 49.98V42.41H208.751V53H206.451L206.311 51.7C205.931 52.22 205.444 52.6167 204.851 52.89C204.258 53.1633 203.644 53.3 203.011 53.3C201.991 53.3 201.228 53.0133 200.721 52.44C200.221 51.86 199.971 51.07 199.971 50.07V42.41H202.611ZM213.893 48.51C213.946 49.17 214.096 49.7067 214.343 50.12C214.596 50.5333 214.92 50.8367 215.313 51.03C215.706 51.2233 216.143 51.32 216.623 51.32C217.13 51.32 217.606 51.24 218.053 51.08C218.5 50.92 218.94 50.6967 219.373 50.41L220.473 51.92C219.98 52.3333 219.39 52.6667 218.703 52.92C218.023 53.1733 217.273 53.3 216.453 53.3C215.306 53.3 214.34 53.0633 213.553 52.59C212.773 52.1167 212.183 51.46 211.783 50.62C211.383 49.78 211.183 48.8133 211.183 47.72C211.183 46.6667 211.38 45.7167 211.773 44.87C212.166 44.0233 212.733 43.3533 213.473 42.86C214.213 42.36 215.106 42.11 216.153 42.11C217.126 42.11 217.966 42.3233 218.673 42.75C219.38 43.1767 219.926 43.79 220.313 44.59C220.7 45.3833 220.893 46.34 220.893 47.46C220.893 47.64 220.886 47.8233 220.873 48.01C220.866 48.1967 220.856 48.3633 220.843 48.51H213.893ZM216.163 43.97C215.523 43.97 214.996 44.2 214.583 44.66C214.176 45.1133 213.936 45.8333 213.863 46.82H218.323C218.31 45.9267 218.123 45.23 217.763 44.73C217.41 44.2233 216.876 43.97 216.163 43.97ZM217.763 36.57L218.833 38.62L214.303 40.43L213.563 39.07L217.763 36.57ZM230.845 42.11C231.299 42.11 231.685 42.2067 232.005 42.4C232.325 42.5867 232.572 42.9033 232.745 43.35C232.919 43.79 233.005 44.39 233.005 45.15V53H230.705V45.48C230.705 45 230.665 44.66 230.585 44.46C230.512 44.26 230.342 44.16 230.075 44.16C229.855 44.16 229.632 44.2267 229.405 44.36C229.185 44.4867 228.955 44.7167 228.715 45.05V53H226.725V45.48C226.725 45 226.685 44.66 226.605 44.46C226.532 44.26 226.362 44.16 226.095 44.16C225.869 44.16 225.645 44.2267 225.425 44.36C225.205 44.4867 224.975 44.7167 224.735 45.05V53H222.405V42.41H224.375L224.545 43.51C224.859 43.07 225.189 42.7267 225.535 42.48C225.882 42.2333 226.299 42.11 226.785 42.11C227.185 42.11 227.539 42.21 227.845 42.41C228.159 42.6033 228.382 42.9367 228.515 43.41C228.822 43.0233 229.165 42.71 229.545 42.47C229.925 42.23 230.359 42.11 230.845 42.11ZM250.28 42.11C250.84 42.11 251.35 42.2167 251.81 42.43C252.27 42.6433 252.666 42.9567 253 43.37L253.14 42.41H255.44V57.36L252.8 57.08V51.96C252.466 52.3867 252.066 52.7167 251.6 52.95C251.133 53.1833 250.596 53.3 249.99 53.3C249.07 53.3 248.323 53.07 247.75 52.61C247.183 52.1433 246.766 51.49 246.5 50.65C246.24 49.81 246.11 48.8233 246.11 47.69C246.11 46.61 246.27 45.65 246.59 44.81C246.91 43.97 247.38 43.31 248 42.83C248.626 42.35 249.386 42.11 250.28 42.11ZM250.96 44.08C250.28 44.08 249.76 44.37 249.4 44.95C249.04 45.5233 248.86 46.44 248.86 47.7C248.86 48.5867 248.933 49.2933 249.08 49.82C249.233 50.3467 249.45 50.7233 249.73 50.95C250.016 51.1767 250.36 51.29 250.76 51.29C251.206 51.29 251.596 51.1633 251.93 50.91C252.263 50.6567 252.553 50.3333 252.8 49.94V45.12C252.566 44.7933 252.296 44.54 251.99 44.36C251.69 44.1733 251.346 44.08 250.96 44.08ZM260.972 42.41V49.75C260.972 50.3233 261.085 50.7267 261.312 50.96C261.539 51.1933 261.869 51.31 262.302 51.31C262.715 51.31 263.119 51.1867 263.512 50.94C263.905 50.6867 264.225 50.3667 264.472 49.98V42.41H267.112V53H264.812L264.672 51.7C264.292 52.22 263.805 52.6167 263.212 52.89C262.619 53.1633 262.005 53.3 261.372 53.3C260.352 53.3 259.589 53.0133 259.082 52.44C258.582 51.86 258.332 51.07 258.332 50.07V42.41H260.972ZM272.254 48.51C272.307 49.17 272.457 49.7067 272.704 50.12C272.957 50.5333 273.281 50.8367 273.674 51.03C274.067 51.2233 274.504 51.32 274.984 51.32C275.491 51.32 275.967 51.24 276.414 51.08C276.861 50.92 277.301 50.6967 277.734 50.41L278.834 51.92C278.341 52.3333 277.751 52.6667 277.064 52.92C276.384 53.1733 275.634 53.3 274.814 53.3C273.667 53.3 272.701 53.0633 271.914 52.59C271.134 52.1167 270.544 51.46 270.144 50.62C269.744 49.78 269.544 48.8133 269.544 47.72C269.544 46.6667 269.741 45.7167 270.134 44.87C270.527 44.0233 271.094 43.3533 271.834 42.86C272.574 42.36 273.467 42.11 274.514 42.11C275.487 42.11 276.327 42.3233 277.034 42.75C277.741 43.1767 278.287 43.79 278.674 44.59C279.061 45.3833 279.254 46.34 279.254 47.46C279.254 47.64 279.247 47.8233 279.234 48.01C279.227 48.1967 279.217 48.3633 279.204 48.51H272.254ZM274.524 43.97C273.884 43.97 273.357 44.2 272.944 44.66C272.537 45.1133 272.297 45.8333 272.224 46.82H276.684C276.671 45.9267 276.484 45.23 276.124 44.73C275.771 44.2233 275.237 43.97 274.524 43.97ZM302.488 52.41C302.095 52.67 301.618 52.8833 301.058 53.05C300.498 53.2167 299.892 53.3 299.238 53.3C297.945 53.3 296.972 52.9667 296.318 52.3C295.665 51.6267 295.338 50.7333 295.338 49.62V44.28H293.038V42.41H295.338V40.08L297.978 39.76V42.41H301.478L301.208 44.28H297.978V49.61C297.978 50.1567 298.112 50.5567 298.378 50.81C298.645 51.0633 299.075 51.19 299.668 51.19C300.048 51.19 300.395 51.1467 300.708 51.06C301.028 50.9667 301.318 50.85 301.578 50.71L302.488 52.41ZM307.271 48.51C307.324 49.17 307.474 49.7067 307.721 50.12C307.974 50.5333 308.297 50.8367 308.691 51.03C309.084 51.2233 309.521 51.32 310.001 51.32C310.507 51.32 310.984 51.24 311.431 51.08C311.877 50.92 312.317 50.6967 312.751 50.41L313.851 51.92C313.357 52.3333 312.767 52.6667 312.081 52.92C311.401 53.1733 310.651 53.3 309.831 53.3C308.684 53.3 307.717 53.0633 306.931 52.59C306.151 52.1167 305.561 51.46 305.161 50.62C304.761 49.78 304.561 48.8133 304.561 47.72C304.561 46.6667 304.757 45.7167 305.151 44.87C305.544 44.0233 306.111 43.3533 306.851 42.86C307.591 42.36 308.484 42.11 309.531 42.11C310.504 42.11 311.344 42.3233 312.051 42.75C312.757 43.1767 313.304 43.79 313.691 44.59C314.077 45.3833 314.271 46.34 314.271 47.46C314.271 47.64 314.264 47.8233 314.251 48.01C314.244 48.1967 314.234 48.3633 314.221 48.51H307.271ZM309.541 43.97C308.901 43.97 308.374 44.2 307.961 44.66C307.554 45.1133 307.314 45.8333 307.241 46.82H311.701C311.687 45.9267 311.501 45.23 311.141 44.73C310.787 44.2233 310.254 43.97 309.541 43.97ZM324.223 42.11C324.676 42.11 325.063 42.2067 325.383 42.4C325.703 42.5867 325.949 42.9033 326.123 43.35C326.296 43.79 326.383 44.39 326.383 45.15V53H324.083V45.48C324.083 45 324.043 44.66 323.963 44.46C323.889 44.26 323.719 44.16 323.453 44.16C323.233 44.16 323.009 44.2267 322.783 44.36C322.563 44.4867 322.333 44.7167 322.093 45.05V53H320.103V45.48C320.103 45 320.063 44.66 319.983 44.46C319.909 44.26 319.739 44.16 319.473 44.16C319.246 44.16 319.023 44.2267 318.803 44.36C318.583 44.4867 318.353 44.7167 318.113 45.05V53H315.783V42.41H317.753L317.923 43.51C318.236 43.07 318.566 42.7267 318.913 42.48C319.259 42.2333 319.676 42.11 320.163 42.11C320.563 42.11 320.916 42.21 321.223 42.41C321.536 42.6033 321.759 42.9367 321.893 43.41C322.199 43.0233 322.543 42.71 322.923 42.47C323.303 42.23 323.736 42.11 324.223 42.11ZM348.487 50.21C348.487 50.6167 348.547 50.9133 348.667 51.1C348.787 51.28 348.981 51.4167 349.247 51.51L348.677 53.28C348.111 53.22 347.627 53.08 347.227 52.86C346.834 52.6333 346.531 52.2967 346.317 51.85C345.917 52.3367 345.411 52.7 344.797 52.94C344.191 53.18 343.554 53.3 342.887 53.3C341.807 53.3 340.951 52.9933 340.317 52.38C339.684 51.7667 339.367 50.97 339.367 49.99C339.367 48.8633 339.807 47.9967 340.687 47.39C341.574 46.7767 342.827 46.47 344.447 46.47H345.927V45.9C345.927 45.2733 345.734 44.82 345.347 44.54C344.961 44.2533 344.404 44.11 343.677 44.11C343.337 44.11 342.911 44.1567 342.397 44.25C341.891 44.3367 341.367 44.4733 340.827 44.66L340.197 42.85C340.871 42.5967 341.547 42.41 342.227 42.29C342.914 42.17 343.537 42.11 344.097 42.11C345.584 42.11 346.687 42.4267 347.407 43.06C348.127 43.6867 348.487 44.5767 348.487 45.73V50.21ZM343.747 51.39C344.147 51.39 344.551 51.2767 344.957 51.05C345.371 50.8233 345.694 50.5067 345.927 50.1V48.04H344.887C343.907 48.04 343.197 48.1967 342.757 48.51C342.324 48.8233 342.107 49.2667 342.107 49.84C342.107 50.3333 342.247 50.7167 342.527 50.99C342.807 51.2567 343.214 51.39 343.747 51.39ZM357.039 51.18C357.506 51.18 357.943 51.0933 358.349 50.92C358.763 50.7467 359.159 50.5267 359.539 50.26L360.739 51.95C360.273 52.3433 359.709 52.6667 359.049 52.92C358.389 53.1733 357.683 53.3 356.929 53.3C355.823 53.3 354.873 53.07 354.079 52.61C353.293 52.1433 352.686 51.4967 352.259 50.67C351.839 49.8367 351.629 48.87 351.629 47.77C351.629 46.6833 351.843 45.7133 352.269 44.86C352.703 44 353.316 43.3267 354.109 42.84C354.909 42.3533 355.863 42.11 356.969 42.11C357.729 42.11 358.416 42.22 359.029 42.44C359.649 42.6533 360.216 42.9733 360.729 43.4L359.559 45.02C359.166 44.7467 358.759 44.54 358.339 44.4C357.926 44.2533 357.496 44.18 357.049 44.18C356.269 44.18 355.633 44.4633 355.139 45.03C354.653 45.59 354.409 46.5033 354.409 47.77C354.409 48.6033 354.523 49.27 354.749 49.77C354.983 50.27 355.296 50.63 355.689 50.85C356.089 51.07 356.539 51.18 357.039 51.18ZM365.632 48.51C365.685 49.17 365.835 49.7067 366.082 50.12C366.335 50.5333 366.658 50.8367 367.052 51.03C367.445 51.2233 367.882 51.32 368.362 51.32C368.868 51.32 369.345 51.24 369.792 51.08C370.238 50.92 370.678 50.6967 371.112 50.41L372.212 51.92C371.718 52.3333 371.128 52.6667 370.442 52.92C369.762 53.1733 369.012 53.3 368.192 53.3C367.045 53.3 366.078 53.0633 365.292 52.59C364.512 52.1167 363.922 51.46 363.522 50.62C363.122 49.78 362.922 48.8133 362.922 47.72C362.922 46.6667 363.118 45.7167 363.512 44.87C363.905 44.0233 364.472 43.3533 365.212 42.86C365.952 42.36 366.845 42.11 367.892 42.11C368.865 42.11 369.705 42.3233 370.412 42.75C371.118 43.1767 371.665 43.79 372.052 44.59C372.438 45.3833 372.632 46.34 372.632 47.46C372.632 47.64 372.625 47.8233 372.612 48.01C372.605 48.1967 372.595 48.3633 372.582 48.51H365.632ZM367.902 43.97C367.262 43.97 366.735 44.2 366.322 44.66C365.915 45.1133 365.675 45.8333 365.602 46.82H370.062C370.048 45.9267 369.862 45.23 369.502 44.73C369.148 44.2233 368.615 43.97 367.902 43.97ZM379.084 51.35C379.704 51.35 380.2 51.2433 380.574 51.03C380.954 50.81 381.144 50.5033 381.144 50.11C381.144 49.85 381.08 49.63 380.954 49.45C380.834 49.27 380.594 49.1033 380.234 48.95C379.874 48.79 379.334 48.6133 378.614 48.42C377.934 48.2467 377.337 48.0333 376.824 47.78C376.317 47.52 375.92 47.1867 375.634 46.78C375.354 46.3733 375.214 45.86 375.214 45.24C375.214 44.62 375.387 44.0767 375.734 43.61C376.08 43.1367 376.58 42.77 377.234 42.51C377.894 42.2433 378.687 42.11 379.614 42.11C380.52 42.11 381.314 42.23 381.994 42.47C382.674 42.7033 383.257 42.9967 383.744 43.35L382.664 44.96C382.237 44.6867 381.774 44.4667 381.274 44.3C380.78 44.1267 380.247 44.04 379.674 44.04C379.054 44.04 378.6 44.13 378.314 44.31C378.034 44.49 377.894 44.74 377.894 45.06C377.894 45.2867 377.964 45.48 378.104 45.64C378.25 45.7933 378.51 45.9433 378.884 46.09C379.264 46.23 379.804 46.4 380.504 46.6C381.19 46.7867 381.787 47.0067 382.294 47.26C382.807 47.5133 383.204 47.85 383.484 48.27C383.764 48.69 383.904 49.24 383.904 49.92C383.904 50.6867 383.68 51.32 383.234 51.82C382.787 52.32 382.197 52.6933 381.464 52.94C380.737 53.18 379.947 53.3 379.094 53.3C378.094 53.3 377.22 53.1567 376.474 52.87C375.727 52.5833 375.094 52.2133 374.574 51.76L375.944 50.22C376.357 50.5467 376.827 50.8167 377.354 51.03C377.887 51.2433 378.464 51.35 379.084 51.35ZM390.756 51.35C391.376 51.35 391.873 51.2433 392.246 51.03C392.626 50.81 392.816 50.5033 392.816 50.11C392.816 49.85 392.753 49.63 392.626 49.45C392.506 49.27 392.266 49.1033 391.906 48.95C391.546 48.79 391.006 48.6133 390.286 48.42C389.606 48.2467 389.009 48.0333 388.496 47.78C387.989 47.52 387.593 47.1867 387.306 46.78C387.026 46.3733 386.886 45.86 386.886 45.24C386.886 44.62 387.059 44.0767 387.406 43.61C387.753 43.1367 388.253 42.77 388.906 42.51C389.566 42.2433 390.359 42.11 391.286 42.11C392.193 42.11 392.986 42.23 393.666 42.47C394.346 42.7033 394.929 42.9967 395.416 43.35L394.336 44.96C393.909 44.6867 393.446 44.4667 392.946 44.3C392.453 44.1267 391.919 44.04 391.346 44.04C390.726 44.04 390.273 44.13 389.986 44.31C389.706 44.49 389.566 44.74 389.566 45.06C389.566 45.2867 389.636 45.48 389.776 45.64C389.923 45.7933 390.183 45.9433 390.556 46.09C390.936 46.23 391.476 46.4 392.176 46.6C392.863 46.7867 393.459 47.0067 393.966 47.26C394.479 47.5133 394.876 47.85 395.156 48.27C395.436 48.69 395.576 49.24 395.576 49.92C395.576 50.6867 395.353 51.32 394.906 51.82C394.459 52.32 393.869 52.6933 393.136 52.94C392.409 53.18 391.619 53.3 390.766 53.3C389.766 53.3 388.893 53.1567 388.146 52.87C387.399 52.5833 386.766 52.2133 386.246 51.76L387.616 50.22C388.029 50.5467 388.499 50.8167 389.026 51.03C389.559 51.2433 390.136 51.35 390.756 51.35ZM402.798 42.11C403.851 42.11 404.745 42.34 405.478 42.8C406.211 43.26 406.768 43.91 407.148 44.75C407.535 45.5833 407.728 46.56 407.728 47.68C407.728 48.8267 407.535 49.82 407.148 50.66C406.761 51.5 406.201 52.15 405.468 52.61C404.735 53.07 403.841 53.3 402.788 53.3C401.741 53.3 400.848 53.0767 400.108 52.63C399.375 52.1767 398.815 51.5333 398.428 50.7C398.041 49.86 397.848 48.86 397.848 47.7C397.848 46.5933 398.041 45.62 398.428 44.78C398.815 43.94 399.378 43.2867 400.118 42.82C400.858 42.3467 401.751 42.11 402.798 42.11ZM402.798 44.1C402.058 44.1 401.505 44.39 401.138 44.97C400.778 45.55 400.598 46.46 400.598 47.7C400.598 48.9533 400.778 49.87 401.138 50.45C401.498 51.0233 402.048 51.31 402.788 51.31C403.528 51.31 404.078 51.0233 404.438 50.45C404.798 49.87 404.978 48.9467 404.978 47.68C404.978 46.4467 404.798 45.5433 404.438 44.97C404.078 44.39 403.531 44.1 402.798 44.1ZM430.193 50.21C430.193 50.6167 430.253 50.9133 430.373 51.1C430.493 51.28 430.686 51.4167 430.953 51.51L430.383 53.28C429.816 53.22 429.333 53.08 428.933 52.86C428.539 52.6333 428.236 52.2967 428.023 51.85C427.623 52.3367 427.116 52.7 426.503 52.94C425.896 53.18 425.259 53.3 424.593 53.3C423.513 53.3 422.656 52.9933 422.023 52.38C421.389 51.7667 421.073 50.97 421.073 49.99C421.073 48.8633 421.513 47.9967 422.393 47.39C423.279 46.7767 424.533 46.47 426.153 46.47H427.633V45.9C427.633 45.2733 427.439 44.82 427.053 44.54C426.666 44.2533 426.109 44.11 425.383 44.11C425.043 44.11 424.616 44.1567 424.103 44.25C423.596 44.3367 423.073 44.4733 422.533 44.66L421.903 42.85C422.576 42.5967 423.253 42.41 423.933 42.29C424.619 42.17 425.243 42.11 425.803 42.11C427.289 42.11 428.393 42.4267 429.113 43.06C429.833 43.6867 430.193 44.5767 430.193 45.73V50.21ZM425.453 51.39C425.853 51.39 426.256 51.2767 426.663 51.05C427.076 50.8233 427.399 50.5067 427.633 50.1V48.04H426.593C425.613 48.04 424.903 48.1967 424.463 48.51C424.029 48.8233 423.813 49.2667 423.813 49.84C423.813 50.3333 423.953 50.7167 424.233 50.99C424.513 51.2567 424.919 51.39 425.453 51.39ZM454.677 42.41L451.037 53H447.937L444.277 42.41H447.117L449.527 50.89L451.987 42.41H454.677ZM462.849 42.41V51.13H465.639V53H457.109V51.13H460.209V44.28H457.209V42.41H462.849ZM461.139 37.07C461.626 37.07 462.019 37.22 462.319 37.52C462.626 37.82 462.779 38.1933 462.779 38.64C462.779 39.0867 462.626 39.4633 462.319 39.77C462.019 40.07 461.626 40.22 461.139 40.22C460.652 40.22 460.256 40.07 459.949 39.77C459.642 39.4633 459.489 39.0867 459.489 38.64C459.489 38.1933 459.642 37.82 459.949 37.52C460.256 37.22 460.652 37.07 461.139 37.07ZM476.881 50.21C476.881 50.6167 476.941 50.9133 477.061 51.1C477.181 51.28 477.375 51.4167 477.641 51.51L477.071 53.28C476.505 53.22 476.021 53.08 475.621 52.86C475.228 52.6333 474.925 52.2967 474.711 51.85C474.311 52.3367 473.805 52.7 473.191 52.94C472.585 53.18 471.948 53.3 471.281 53.3C470.201 53.3 469.345 52.9933 468.711 52.38C468.078 51.7667 467.761 50.97 467.761 49.99C467.761 48.8633 468.201 47.9967 469.081 47.39C469.968 46.7767 471.221 46.47 472.841 46.47H474.321V45.9C474.321 45.2733 474.128 44.82 473.741 44.54C473.355 44.2533 472.798 44.11 472.071 44.11C471.731 44.11 471.305 44.1567 470.791 44.25C470.285 44.3367 469.761 44.4733 469.221 44.66L468.591 42.85C469.265 42.5967 469.941 42.41 470.621 42.29C471.308 42.17 471.931 42.11 472.491 42.11C473.978 42.11 475.081 42.4267 475.801 43.06C476.521 43.6867 476.881 44.5767 476.881 45.73V50.21ZM472.141 51.39C472.541 51.39 472.945 51.2767 473.351 51.05C473.765 50.8233 474.088 50.5067 474.321 50.1V48.04H473.281C472.301 48.04 471.591 48.1967 471.151 48.51C470.718 48.8233 470.501 49.2667 470.501 49.84C470.501 50.3333 470.641 50.7167 470.921 50.99C471.201 51.2567 471.608 51.39 472.141 51.39ZM489.233 40.92L489.893 42.98C489.493 43.12 489.043 43.22 488.543 43.28C488.043 43.3333 487.47 43.36 486.823 43.36C487.47 43.64 487.96 43.9967 488.293 44.43C488.633 44.8567 488.803 45.4 488.803 46.06C488.803 46.7467 488.627 47.36 488.273 47.9C487.927 48.44 487.43 48.8633 486.783 49.17C486.143 49.4767 485.38 49.63 484.493 49.63C484.22 49.63 483.977 49.6167 483.763 49.59C483.55 49.5633 483.343 49.5267 483.143 49.48C483.01 49.5533 482.907 49.66 482.833 49.8C482.76 49.94 482.723 50.0833 482.723 50.23C482.723 50.43 482.8 50.6033 482.953 50.75C483.113 50.89 483.453 50.96 483.973 50.96H485.773C486.553 50.96 487.237 51.0933 487.823 51.36C488.417 51.62 488.877 51.9733 489.203 52.42C489.537 52.8667 489.703 53.38 489.703 53.96C489.703 55.0267 489.24 55.86 488.313 56.46C487.387 57.06 486.033 57.36 484.253 57.36C482.98 57.36 481.987 57.23 481.273 56.97C480.567 56.71 480.07 56.33 479.783 55.83C479.497 55.3367 479.353 54.74 479.353 54.04H481.703C481.703 54.38 481.77 54.66 481.903 54.88C482.043 55.1 482.3 55.2633 482.673 55.37C483.053 55.4767 483.597 55.53 484.303 55.53C485.01 55.53 485.563 55.4733 485.963 55.36C486.37 55.2467 486.657 55.0833 486.823 54.87C486.99 54.6633 487.073 54.42 487.073 54.14C487.073 53.76 486.913 53.4633 486.593 53.25C486.273 53.0367 485.82 52.93 485.233 52.93H483.483C482.417 52.93 481.64 52.7233 481.153 52.31C480.667 51.89 480.423 51.4067 480.423 50.86C480.423 50.4867 480.523 50.13 480.723 49.79C480.93 49.4433 481.223 49.15 481.603 48.91C480.95 48.5633 480.477 48.15 480.183 47.67C479.897 47.1833 479.753 46.5967 479.753 45.91C479.753 45.1433 479.947 44.4767 480.333 43.91C480.72 43.3433 481.257 42.9033 481.943 42.59C482.63 42.2767 483.42 42.12 484.313 42.12C485.133 42.1267 485.83 42.0767 486.403 41.97C486.983 41.8633 487.493 41.7167 487.933 41.53C488.38 41.3433 488.813 41.14 489.233 40.92ZM484.363 43.88C483.737 43.88 483.257 44.0633 482.923 44.43C482.597 44.7967 482.433 45.2833 482.433 45.89C482.433 46.5167 482.603 47.0133 482.943 47.38C483.283 47.7467 483.76 47.93 484.373 47.93C484.98 47.93 485.44 47.7533 485.753 47.4C486.073 47.04 486.233 46.5267 486.233 45.86C486.233 45.1933 486.073 44.6967 485.753 44.37C485.44 44.0433 484.977 43.88 484.363 43.88ZM494.026 48.51C494.079 49.17 494.229 49.7067 494.476 50.12C494.729 50.5333 495.052 50.8367 495.446 51.03C495.839 51.2233 496.276 51.32 496.756 51.32C497.262 51.32 497.739 51.24 498.186 51.08C498.632 50.92 499.072 50.6967 499.506 50.41L500.606 51.92C500.112 52.3333 499.522 52.6667 498.836 52.92C498.156 53.1733 497.406 53.3 496.586 53.3C495.439 53.3 494.472 53.0633 493.686 52.59C492.906 52.1167 492.316 51.46 491.916 50.62C491.516 49.78 491.316 48.8133 491.316 47.72C491.316 46.6667 491.512 45.7167 491.906 44.87C492.299 44.0233 492.866 43.3533 493.606 42.86C494.346 42.36 495.239 42.11 496.286 42.11C497.259 42.11 498.099 42.3233 498.806 42.75C499.512 43.1767 500.059 43.79 500.446 44.59C500.832 45.3833 501.026 46.34 501.026 47.46C501.026 47.64 501.019 47.8233 501.006 48.01C500.999 48.1967 500.989 48.3633 500.976 48.51H494.026ZM496.296 43.97C495.656 43.97 495.129 44.2 494.716 44.66C494.309 45.1133 494.069 45.8333 493.996 46.82H498.456C498.442 45.9267 498.256 45.23 497.896 44.73C497.542 44.2233 497.009 43.97 496.296 43.97ZM510.978 42.11C511.431 42.11 511.818 42.2067 512.138 42.4C512.458 42.5867 512.704 42.9033 512.878 43.35C513.051 43.79 513.138 44.39 513.138 45.15V53H510.838V45.48C510.838 45 510.798 44.66 510.718 44.46C510.644 44.26 510.474 44.16 510.208 44.16C509.988 44.16 509.764 44.2267 509.538 44.36C509.318 44.4867 509.088 44.7167 508.848 45.05V53H506.858V45.48C506.858 45 506.818 44.66 506.738 44.46C506.664 44.26 506.494 44.16 506.228 44.16C506.001 44.16 505.778 44.2267 505.558 44.36C505.338 44.4867 505.108 44.7167 504.868 45.05V53H502.538V42.41H504.508L504.678 43.51C504.991 43.07 505.321 42.7267 505.668 42.48C506.014 42.2333 506.431 42.11 506.918 42.11C507.318 42.11 507.671 42.21 507.978 42.41C508.291 42.6033 508.514 42.9367 508.648 43.41C508.954 43.0233 509.298 42.71 509.678 42.47C510.058 42.23 510.491 42.11 510.978 42.11ZM526.792 53V42.41H529.092L529.282 43.72C529.736 43.1867 530.246 42.7867 530.812 42.52C531.379 42.2467 531.989 42.11 532.642 42.11C533.596 42.11 534.322 42.3867 534.822 42.94C535.322 43.4867 535.572 44.2567 535.572 45.25V53H532.932V46.28C532.932 45.7467 532.899 45.32 532.832 45C532.766 44.6733 532.639 44.44 532.452 44.3C532.266 44.1533 531.996 44.08 531.642 44.08C531.356 44.08 531.079 44.1433 530.812 44.27C530.552 44.3967 530.306 44.5667 530.072 44.78C529.846 44.9933 529.632 45.23 529.432 45.49V53H526.792ZM542.864 42.11C543.918 42.11 544.811 42.34 545.544 42.8C546.278 43.26 546.834 43.91 547.214 44.75C547.601 45.5833 547.794 46.56 547.794 47.68C547.794 48.8267 547.601 49.82 547.214 50.66C546.828 51.5 546.268 52.15 545.534 52.61C544.801 53.07 543.908 53.3 542.854 53.3C541.808 53.3 540.914 53.0767 540.174 52.63C539.441 52.1767 538.881 51.5333 538.494 50.7C538.108 49.86 537.914 48.86 537.914 47.7C537.914 46.5933 538.108 45.62 538.494 44.78C538.881 43.94 539.444 43.2867 540.184 42.82C540.924 42.3467 541.818 42.11 542.864 42.11ZM542.864 44.1C542.124 44.1 541.571 44.39 541.204 44.97C540.844 45.55 540.664 46.46 540.664 47.7C540.664 48.9533 540.844 49.87 541.204 50.45C541.564 51.0233 542.114 51.31 542.854 51.31C543.594 51.31 544.144 51.0233 544.504 50.45C544.864 49.87 545.044 48.9467 545.044 47.68C545.044 46.4467 544.864 45.5433 544.504 44.97C544.144 44.39 543.598 44.1 542.864 44.1ZM570.949 52.41C570.555 52.67 570.079 52.8833 569.519 53.05C568.959 53.2167 568.352 53.3 567.699 53.3C566.405 53.3 565.432 52.9667 564.779 52.3C564.125 51.6267 563.799 50.7333 563.799 49.62V44.28H561.499V42.41H563.799V40.08L566.439 39.76V42.41H569.939L569.669 44.28H566.439V49.61C566.439 50.1567 566.572 50.5567 566.839 50.81C567.105 51.0633 567.535 51.19 568.129 51.19C568.509 51.19 568.855 51.1467 569.169 51.06C569.489 50.9667 569.779 50.85 570.039 50.71L570.949 52.41ZM575.731 48.51C575.784 49.17 575.934 49.7067 576.181 50.12C576.434 50.5333 576.758 50.8367 577.151 51.03C577.544 51.2233 577.981 51.32 578.461 51.32C578.968 51.32 579.444 51.24 579.891 51.08C580.338 50.92 580.778 50.6967 581.211 50.41L582.311 51.92C581.818 52.3333 581.228 52.6667 580.541 52.92C579.861 53.1733 579.111 53.3 578.291 53.3C577.144 53.3 576.178 53.0633 575.391 52.59C574.611 52.1167 574.021 51.46 573.621 50.62C573.221 49.78 573.021 48.8133 573.021 47.72C573.021 46.6667 573.218 45.7167 573.611 44.87C574.004 44.0233 574.571 43.3533 575.311 42.86C576.051 42.36 576.944 42.11 577.991 42.11C578.964 42.11 579.804 42.3233 580.511 42.75C581.218 43.1767 581.764 43.79 582.151 44.59C582.538 45.3833 582.731 46.34 582.731 47.46C582.731 47.64 582.724 47.8233 582.711 48.01C582.704 48.1967 582.694 48.3633 582.681 48.51H575.731ZM578.001 43.97C577.361 43.97 576.834 44.2 576.421 44.66C576.014 45.1133 575.774 45.8333 575.701 46.82H580.161C580.148 45.9267 579.961 45.23 579.601 44.73C579.248 44.2233 578.714 43.97 578.001 43.97ZM592.683 42.11C593.136 42.11 593.523 42.2067 593.843 42.4C594.163 42.5867 594.41 42.9033 594.583 43.35C594.756 43.79 594.843 44.39 594.843 45.15V53H592.543V45.48C592.543 45 592.503 44.66 592.423 44.46C592.35 44.26 592.18 44.16 591.913 44.16C591.693 44.16 591.47 44.2267 591.243 44.36C591.023 44.4867 590.793 44.7167 590.553 45.05V53H588.563V45.48C588.563 45 588.523 44.66 588.443 44.46C588.37 44.26 588.2 44.16 587.933 44.16C587.706 44.16 587.483 44.2267 587.263 44.36C587.043 44.4867 586.813 44.7167 586.573 45.05V53H584.243V42.41H586.213L586.383 43.51C586.696 43.07 587.026 42.7267 587.373 42.48C587.72 42.2333 588.136 42.11 588.623 42.11C589.023 42.11 589.376 42.21 589.683 42.41C589.996 42.6033 590.22 42.9367 590.353 43.41C590.66 43.0233 591.003 42.71 591.383 42.47C591.763 42.23 592.196 42.11 592.683 42.11ZM602.295 42.11C603.229 42.11 603.975 42.34 604.535 42.8C605.102 43.2533 605.512 43.8967 605.765 44.73C606.025 45.5633 606.155 46.5467 606.155 47.68C606.155 48.7667 605.999 49.7333 605.685 50.58C605.372 51.4267 604.912 52.0933 604.305 52.58C603.705 53.06 602.965 53.3 602.085 53.3C601.005 53.3 600.132 52.9167 599.465 52.15V57.08L596.825 57.36V42.41H599.145L599.285 43.7C599.705 43.1533 600.175 42.7533 600.695 42.5C601.215 42.24 601.749 42.11 602.295 42.11ZM601.525 44.09C601.079 44.09 600.685 44.2233 600.345 44.49C600.012 44.7567 599.719 45.0867 599.465 45.48V50.22C599.705 50.58 599.979 50.85 600.285 51.03C600.592 51.21 600.939 51.3 601.325 51.3C601.999 51.3 602.512 51.02 602.865 50.46C603.225 49.8933 603.405 48.9767 603.405 47.71C603.405 46.8167 603.332 46.1067 603.185 45.58C603.045 45.0467 602.835 44.6667 602.555 44.44C602.275 44.2067 601.932 44.09 601.525 44.09ZM612.898 42.11C613.951 42.11 614.844 42.34 615.578 42.8C616.311 43.26 616.868 43.91 617.248 44.75C617.634 45.5833 617.828 46.56 617.828 47.68C617.828 48.8267 617.634 49.82 617.248 50.66C616.861 51.5 616.301 52.15 615.568 52.61C614.834 53.07 613.941 53.3 612.888 53.3C611.841 53.3 610.948 53.0767 610.208 52.63C609.474 52.1767 608.914 51.5333 608.528 50.7C608.141 49.86 607.948 48.86 607.948 47.7C607.948 46.5933 608.141 45.62 608.528 44.78C608.914 43.94 609.478 43.2867 610.218 42.82C610.958 42.3467 611.851 42.11 612.898 42.11ZM612.898 44.1C612.158 44.1 611.604 44.39 611.238 44.97C610.878 45.55 610.698 46.46 610.698 47.7C610.698 48.9533 610.878 49.87 611.238 50.45C611.598 51.0233 612.148 51.31 612.888 51.31C613.628 51.31 614.178 51.0233 614.538 50.45C614.898 49.87 615.078 48.9467 615.078 47.68C615.078 46.4467 614.898 45.5433 614.538 44.97C614.178 44.39 613.631 44.1 612.898 44.1ZM634.092 48.51C634.145 49.17 634.295 49.7067 634.542 50.12C634.795 50.5333 635.119 50.8367 635.512 51.03C635.905 51.2233 636.342 51.32 636.822 51.32C637.329 51.32 637.805 51.24 638.252 51.08C638.699 50.92 639.139 50.6967 639.572 50.41L640.672 51.92C640.179 52.3333 639.589 52.6667 638.902 52.92C638.222 53.1733 637.472 53.3 636.652 53.3C635.505 53.3 634.539 53.0633 633.752 52.59C632.972 52.1167 632.382 51.46 631.982 50.62C631.582 49.78 631.382 48.8133 631.382 47.72C631.382 46.6667 631.579 45.7167 631.972 44.87C632.365 44.0233 632.932 43.3533 633.672 42.86C634.412 42.36 635.305 42.11 636.352 42.11C637.325 42.11 638.165 42.3233 638.872 42.75C639.579 43.1767 640.125 43.79 640.512 44.59C640.899 45.3833 641.092 46.34 641.092 47.46C641.092 47.64 641.085 47.8233 641.072 48.01C641.065 48.1967 641.055 48.3633 641.042 48.51H634.092ZM636.362 43.97C635.722 43.97 635.195 44.2 634.782 44.66C634.375 45.1133 634.135 45.8333 634.062 46.82H638.522C638.509 45.9267 638.322 45.23 637.962 44.73C637.609 44.2233 637.075 43.97 636.362 43.97ZM655.186 53V42.41H657.486L657.676 43.72C658.13 43.1867 658.64 42.7867 659.206 42.52C659.773 42.2467 660.383 42.11 661.036 42.11C661.99 42.11 662.716 42.3867 663.216 42.94C663.716 43.4867 663.966 44.2567 663.966 45.25V53H661.326V46.28C661.326 45.7467 661.293 45.32 661.226 45C661.16 44.6733 661.033 44.44 660.846 44.3C660.66 44.1533 660.39 44.08 660.036 44.08C659.75 44.08 659.473 44.1433 659.206 44.27C658.946 44.3967 658.7 44.5667 658.466 44.78C658.24 44.9933 658.026 45.23 657.826 45.49V53H655.186ZM675.308 50.21C675.308 50.6167 675.368 50.9133 675.488 51.1C675.608 51.28 675.802 51.4167 676.068 51.51L675.498 53.28C674.932 53.22 674.448 53.08 674.048 52.86C673.655 52.6333 673.352 52.2967 673.138 51.85C672.738 52.3367 672.232 52.7 671.618 52.94C671.012 53.18 670.375 53.3 669.708 53.3C668.628 53.3 667.772 52.9933 667.138 52.38C666.505 51.7667 666.188 50.97 666.188 49.99C666.188 48.8633 666.628 47.9967 667.508 47.39C668.395 46.7767 669.648 46.47 671.268 46.47H672.748V45.9C672.748 45.2733 672.555 44.82 672.168 44.54C671.782 44.2533 671.225 44.11 670.498 44.11C670.158 44.11 669.732 44.1567 669.218 44.25C668.712 44.3367 668.188 44.4733 667.648 44.66L667.018 42.85C667.692 42.5967 668.368 42.41 669.048 42.29C669.735 42.17 670.358 42.11 670.918 42.11C672.405 42.11 673.508 42.4267 674.228 43.06C674.948 43.6867 675.308 44.5767 675.308 45.73V50.21ZM670.568 51.39C670.968 51.39 671.372 51.2767 671.778 51.05C672.192 50.8233 672.515 50.5067 672.748 50.1V48.04H671.708C670.728 48.04 670.018 48.1967 669.578 48.51C669.145 48.8233 668.928 49.2667 668.928 49.84C668.928 50.3333 669.068 50.7167 669.348 50.99C669.628 51.2567 670.035 51.39 670.568 51.39ZM672.238 40.14C671.865 40.14 671.548 40.0633 671.288 39.91C671.035 39.7567 670.802 39.6033 670.588 39.45C670.382 39.2967 670.165 39.22 669.938 39.22C669.698 39.22 669.502 39.2967 669.348 39.45C669.195 39.5967 669.038 39.8167 668.878 40.11L667.468 39.42C667.715 38.84 668.042 38.3433 668.448 37.93C668.855 37.51 669.338 37.3 669.898 37.3C670.298 37.3 670.625 37.3767 670.878 37.53C671.138 37.6833 671.368 37.8367 671.568 37.99C671.768 38.1433 671.985 38.22 672.218 38.22C672.432 38.22 672.615 38.15 672.768 38.01C672.928 37.8633 673.095 37.6433 673.268 37.35L674.678 38.05C674.418 38.6767 674.078 39.1833 673.658 39.57C673.245 39.95 672.772 40.14 672.238 40.14ZM682.931 42.11C683.984 42.11 684.877 42.34 685.611 42.8C686.344 43.26 686.901 43.91 687.281 44.75C687.667 45.5833 687.861 46.56 687.861 47.68C687.861 48.8267 687.667 49.82 687.281 50.66C686.894 51.5 686.334 52.15 685.601 52.61C684.867 53.07 683.974 53.3 682.921 53.3C681.874 53.3 680.981 53.0767 680.241 52.63C679.507 52.1767 678.947 51.5333 678.561 50.7C678.174 49.86 677.981 48.86 677.981 47.7C677.981 46.5933 678.174 45.62 678.561 44.78C678.947 43.94 679.511 43.2867 680.251 42.82C680.991 42.3467 681.884 42.11 682.931 42.11ZM682.931 44.1C682.191 44.1 681.637 44.39 681.271 44.97C680.911 45.55 680.731 46.46 680.731 47.7C680.731 48.9533 680.911 49.87 681.271 50.45C681.631 51.0233 682.181 51.31 682.921 51.31C683.661 51.31 684.211 51.0233 684.571 50.45C684.931 49.87 685.111 48.9467 685.111 47.68C685.111 46.4467 684.931 45.5433 684.571 44.97C684.211 44.39 683.664 44.1 682.931 44.1ZM708.445 37.9C709.152 37.9 709.778 37.9567 710.325 38.07C710.872 38.1833 711.368 38.3367 711.815 38.53L711.055 40.31C710.702 40.1633 710.332 40.0567 709.945 39.99C709.558 39.9233 709.172 39.89 708.785 39.89C708.118 39.89 707.632 40.0167 707.325 40.27C707.025 40.5167 706.875 40.9133 706.875 41.46V43.13H710.375L710.085 45.02H706.875V53H704.245V45.02H701.915V43.13H704.245V41.4C704.245 40.7133 704.412 40.11 704.745 39.59C705.078 39.0633 705.558 38.65 706.185 38.35C706.818 38.05 707.572 37.9 708.445 37.9ZM721.997 50.21C721.997 50.6167 722.057 50.9133 722.177 51.1C722.297 51.28 722.491 51.4167 722.757 51.51L722.187 53.28C721.621 53.22 721.137 53.08 720.737 52.86C720.344 52.6333 720.041 52.2967 719.827 51.85C719.427 52.3367 718.921 52.7 718.307 52.94C717.701 53.18 717.064 53.3 716.397 53.3C715.317 53.3 714.461 52.9933 713.827 52.38C713.194 51.7667 712.877 50.97 712.877 49.99C712.877 48.8633 713.317 47.9967 714.197 47.39C715.084 46.7767 716.337 46.47 717.957 46.47H719.437V45.9C719.437 45.2733 719.244 44.82 718.857 44.54C718.471 44.2533 717.914 44.11 717.187 44.11C716.847 44.11 716.421 44.1567 715.907 44.25C715.401 44.3367 714.877 44.4733 714.337 44.66L713.707 42.85C714.381 42.5967 715.057 42.41 715.737 42.29C716.424 42.17 717.047 42.11 717.607 42.11C719.094 42.11 720.197 42.4267 720.917 43.06C721.637 43.6867 721.997 44.5767 721.997 45.73V50.21ZM717.257 51.39C717.657 51.39 718.061 51.2767 718.467 51.05C718.881 50.8233 719.204 50.5067 719.437 50.1V48.04H718.397C717.417 48.04 716.707 48.1967 716.267 48.51C715.834 48.8233 715.617 49.2667 715.617 49.84C715.617 50.3333 715.757 50.7167 716.037 50.99C716.317 51.2567 716.724 51.39 717.257 51.39ZM728.409 50.95H733.919L733.649 53H725.259V51.11L730.729 44.47H725.709V42.41H733.829V44.31L728.409 50.95ZM147.08 82.11C148.013 82.11 148.76 82.34 149.32 82.8C149.887 83.2533 150.297 83.8967 150.55 84.73C150.81 85.5633 150.94 86.5467 150.94 87.68C150.94 88.7667 150.783 89.7333 150.47 90.58C150.157 91.4267 149.697 92.0933 149.09 92.58C148.49 93.06 147.75 93.3 146.87 93.3C145.79 93.3 144.917 92.9167 144.25 92.15V97.08L141.61 97.36V82.41H143.93L144.07 83.7C144.49 83.1533 144.96 82.7533 145.48 82.5C146 82.24 146.533 82.11 147.08 82.11ZM146.31 84.09C145.863 84.09 145.47 84.2233 145.13 84.49C144.797 84.7567 144.503 85.0867 144.25 85.48V90.22C144.49 90.58 144.763 90.85 145.07 91.03C145.377 91.21 145.723 91.3 146.11 91.3C146.783 91.3 147.297 91.02 147.65 90.46C148.01 89.8933 148.19 88.9767 148.19 87.71C148.19 86.8167 148.117 86.1067 147.97 85.58C147.83 85.0467 147.62 84.6667 147.34 84.44C147.06 84.2067 146.717 84.09 146.31 84.09ZM161.732 90.21C161.732 90.6167 161.792 90.9133 161.912 91.1C162.032 91.28 162.226 91.4167 162.492 91.51L161.922 93.28C161.356 93.22 160.872 93.08 160.472 92.86C160.079 92.6333 159.776 92.2967 159.562 91.85C159.162 92.3367 158.656 92.7 158.042 92.94C157.436 93.18 156.799 93.3 156.132 93.3C155.052 93.3 154.196 92.9933 153.562 92.38C152.929 91.7667 152.612 90.97 152.612 89.99C152.612 88.8633 153.052 87.9967 153.932 87.39C154.819 86.7767 156.072 86.47 157.692 86.47H159.172V85.9C159.172 85.2733 158.979 84.82 158.592 84.54C158.206 84.2533 157.649 84.11 156.922 84.11C156.582 84.11 156.156 84.1567 155.642 84.25C155.136 84.3367 154.612 84.4733 154.072 84.66L153.442 82.85C154.116 82.5967 154.792 82.41 155.472 82.29C156.159 82.17 156.782 82.11 157.342 82.11C158.829 82.11 159.932 82.4267 160.652 83.06C161.372 83.6867 161.732 84.5767 161.732 85.73V90.21ZM156.992 91.39C157.392 91.39 157.796 91.2767 158.202 91.05C158.616 90.8233 158.939 90.5067 159.172 90.1V88.04H158.132C157.152 88.04 156.442 88.1967 156.002 88.51C155.569 88.8233 155.352 89.2667 155.352 89.84C155.352 90.3333 155.492 90.7167 155.772 90.99C156.052 91.2567 156.459 91.39 156.992 91.39ZM165.054 93V91.17H166.544V84.23H165.054V82.41H168.554L169.044 84.84C169.431 83.94 169.918 83.2633 170.504 82.81C171.091 82.35 171.828 82.12 172.714 82.12C173.054 82.12 173.354 82.1467 173.614 82.2C173.881 82.2533 174.134 82.3233 174.374 82.41L173.584 84.63C173.378 84.5767 173.181 84.5367 172.994 84.51C172.808 84.4767 172.598 84.46 172.364 84.46C171.631 84.46 170.991 84.7467 170.444 85.32C169.904 85.8867 169.484 86.6567 169.184 87.63V91.17H171.294V93H165.054ZM172.144 86.54V83.73L172.504 82.41H174.374L173.904 86.54H172.144ZM185.767 92.41C185.373 92.67 184.897 92.8833 184.337 93.05C183.777 93.2167 183.17 93.3 182.517 93.3C181.223 93.3 180.25 92.9667 179.597 92.3C178.943 91.6267 178.617 90.7333 178.617 89.62V84.28H176.317V82.41H178.617V80.08L181.257 79.76V82.41H184.757L184.487 84.28H181.257V89.61C181.257 90.1567 181.39 90.5567 181.657 90.81C181.923 91.0633 182.353 91.19 182.947 91.19C183.327 91.19 183.673 91.1467 183.987 91.06C184.307 90.9667 184.597 90.85 184.857 90.71L185.767 92.41ZM190.549 88.51C190.602 89.17 190.752 89.7067 190.999 90.12C191.252 90.5333 191.575 90.8367 191.969 91.03C192.362 91.2233 192.799 91.32 193.279 91.32C193.785 91.32 194.262 91.24 194.709 91.08C195.155 90.92 195.595 90.6967 196.029 90.41L197.129 91.92C196.635 92.3333 196.045 92.6667 195.359 92.92C194.679 93.1733 193.929 93.3 193.109 93.3C191.962 93.3 190.995 93.0633 190.209 92.59C189.429 92.1167 188.839 91.46 188.439 90.62C188.039 89.78 187.839 88.8133 187.839 87.72C187.839 86.6667 188.035 85.7167 188.429 84.87C188.822 84.0233 189.389 83.3533 190.129 82.86C190.869 82.36 191.762 82.11 192.809 82.11C193.782 82.11 194.622 82.3233 195.329 82.75C196.035 83.1767 196.582 83.79 196.969 84.59C197.355 85.3833 197.549 86.34 197.549 87.46C197.549 87.64 197.542 87.8233 197.529 88.01C197.522 88.1967 197.512 88.3633 197.499 88.51H190.549ZM192.819 83.97C192.179 83.97 191.652 84.2 191.239 84.66C190.832 85.1133 190.592 85.8333 190.519 86.82H194.979C194.965 85.9267 194.779 85.23 194.419 84.73C194.065 84.2233 193.532 83.97 192.819 83.97ZM217.783 77.9L220.423 78.18V93H218.083L217.923 91.75C217.596 92.2167 217.186 92.5933 216.693 92.88C216.2 93.16 215.626 93.3 214.973 93.3C214.08 93.3 213.34 93.0667 212.753 92.6C212.173 92.1333 211.74 91.48 211.453 90.64C211.173 89.7933 211.033 88.81 211.033 87.69C211.033 86.61 211.2 85.65 211.533 84.81C211.866 83.97 212.346 83.31 212.973 82.83C213.606 82.35 214.356 82.11 215.223 82.11C215.743 82.11 216.216 82.2 216.643 82.38C217.07 82.56 217.45 82.8267 217.783 83.18V77.9ZM215.933 84.08C215.266 84.08 214.74 84.37 214.353 84.95C213.973 85.5233 213.783 86.44 213.783 87.7C213.783 88.5867 213.863 89.2967 214.023 89.83C214.183 90.3567 214.41 90.7367 214.703 90.97C214.996 91.2033 215.343 91.32 215.743 91.32C216.183 91.32 216.57 91.19 216.903 90.93C217.243 90.6633 217.536 90.3333 217.783 89.94V85.12C217.536 84.7933 217.26 84.54 216.953 84.36C216.653 84.1733 216.313 84.08 215.933 84.08ZM227.715 82.11C228.769 82.11 229.662 82.34 230.395 82.8C231.129 83.26 231.685 83.91 232.065 84.75C232.452 85.5833 232.645 86.56 232.645 87.68C232.645 88.8267 232.452 89.82 232.065 90.66C231.679 91.5 231.119 92.15 230.385 92.61C229.652 93.07 228.759 93.3 227.705 93.3C226.659 93.3 225.765 93.0767 225.025 92.63C224.292 92.1767 223.732 91.5333 223.345 90.7C222.959 89.86 222.765 88.86 222.765 87.7C222.765 86.5933 222.959 85.62 223.345 84.78C223.732 83.94 224.295 83.2867 225.035 82.82C225.775 82.3467 226.669 82.11 227.715 82.11ZM227.715 84.1C226.975 84.1 226.422 84.39 226.055 84.97C225.695 85.55 225.515 86.46 225.515 87.7C225.515 88.9533 225.695 89.87 226.055 90.45C226.415 91.0233 226.965 91.31 227.705 91.31C228.445 91.31 228.995 91.0233 229.355 90.45C229.715 89.87 229.895 88.9467 229.895 87.68C229.895 86.4467 229.715 85.5433 229.355 84.97C228.995 84.39 228.449 84.1 227.715 84.1ZM239.018 91.35C239.638 91.35 240.134 91.2433 240.508 91.03C240.888 90.81 241.078 90.5033 241.078 90.11C241.078 89.85 241.014 89.63 240.888 89.45C240.768 89.27 240.528 89.1033 240.168 88.95C239.808 88.79 239.268 88.6133 238.548 88.42C237.868 88.2467 237.271 88.0333 236.758 87.78C236.251 87.52 235.854 87.1867 235.568 86.78C235.288 86.3733 235.148 85.86 235.148 85.24C235.148 84.62 235.321 84.0767 235.668 83.61C236.014 83.1367 236.514 82.77 237.168 82.51C237.828 82.2433 238.621 82.11 239.548 82.11C240.454 82.11 241.248 82.23 241.928 82.47C242.608 82.7033 243.191 82.9967 243.678 83.35L242.598 84.96C242.171 84.6867 241.708 84.4667 241.208 84.3C240.714 84.1267 240.181 84.04 239.608 84.04C238.988 84.04 238.534 84.13 238.248 84.31C237.968 84.49 237.828 84.74 237.828 85.06C237.828 85.2867 237.898 85.48 238.038 85.64C238.184 85.7933 238.444 85.9433 238.818 86.09C239.198 86.23 239.738 86.4 240.438 86.6C241.124 86.7867 241.721 87.0067 242.228 87.26C242.741 87.5133 243.138 87.85 243.418 88.27C243.698 88.69 243.838 89.24 243.838 89.92C243.838 90.6867 243.614 91.32 243.168 91.82C242.721 92.32 242.131 92.6933 241.398 92.94C240.671 93.18 239.881 93.3 239.028 93.3C238.028 93.3 237.154 93.1567 236.408 92.87C235.661 92.5833 235.028 92.2133 234.508 91.76L235.878 90.22C236.291 90.5467 236.761 90.8167 237.288 91.03C237.821 91.2433 238.398 91.35 239.018 91.35ZM264.902 77.9C265.609 77.9 266.235 77.9567 266.782 78.07C267.329 78.1833 267.825 78.3367 268.272 78.53L267.512 80.31C267.159 80.1633 266.789 80.0567 266.402 79.99C266.015 79.9233 265.629 79.89 265.242 79.89C264.575 79.89 264.089 80.0167 263.782 80.27C263.482 80.5167 263.332 80.9133 263.332 81.46V83.13H266.832L266.542 85.02H263.332V93H260.702V85.02H258.372V83.13H260.702V81.4C260.702 80.7133 260.869 80.11 261.202 79.59C261.535 79.0633 262.015 78.65 262.642 78.35C263.275 78.05 264.029 77.9 264.902 77.9ZM272.644 82.41V89.75C272.644 90.3233 272.757 90.7267 272.984 90.96C273.211 91.1933 273.541 91.31 273.974 91.31C274.387 91.31 274.791 91.1867 275.184 90.94C275.577 90.6867 275.897 90.3667 276.144 89.98V82.41H278.784V93H276.484L276.344 91.7C275.964 92.22 275.477 92.6167 274.884 92.89C274.291 93.1633 273.677 93.3 273.044 93.3C272.024 93.3 271.261 93.0133 270.754 92.44C270.254 91.86 270.004 91.07 270.004 90.07V82.41H272.644ZM281.676 93V82.41H283.976L284.166 83.72C284.62 83.1867 285.13 82.7867 285.696 82.52C286.263 82.2467 286.873 82.11 287.526 82.11C288.48 82.11 289.206 82.3867 289.706 82.94C290.206 83.4867 290.456 84.2567 290.456 85.25V93H287.816V86.28C287.816 85.7467 287.783 85.32 287.716 85C287.65 84.6733 287.523 84.44 287.336 84.3C287.15 84.1533 286.88 84.08 286.526 84.08C286.24 84.08 285.963 84.1433 285.696 84.27C285.436 84.3967 285.19 84.5667 284.956 84.78C284.73 84.9933 284.516 85.23 284.316 85.49V93H281.676ZM298.678 91.18C299.145 91.18 299.582 91.0933 299.988 90.92C300.402 90.7467 300.798 90.5267 301.178 90.26L302.378 91.95C301.912 92.3433 301.348 92.6667 300.688 92.92C300.028 93.1733 299.322 93.3 298.568 93.3C297.462 93.3 296.512 93.07 295.718 92.61C294.932 92.1433 294.325 91.4967 293.898 90.67C293.478 89.8367 293.268 88.87 293.268 87.77C293.268 86.6833 293.482 85.7133 293.908 84.86C294.342 84 294.955 83.3267 295.748 82.84C296.548 82.3533 297.502 82.11 298.608 82.11C299.368 82.11 300.055 82.22 300.668 82.44C301.288 82.6533 301.855 82.9733 302.368 83.4L301.198 85.02C300.805 84.7467 300.398 84.54 299.978 84.4C299.565 84.2533 299.135 84.18 298.688 84.18C297.908 84.18 297.272 84.4633 296.778 85.03C296.292 85.59 296.048 86.5033 296.048 87.77C296.048 88.6033 296.162 89.27 296.388 89.77C296.622 90.27 296.935 90.63 297.328 90.85C297.728 91.07 298.178 91.18 298.678 91.18ZM311.111 82.41V91.13H313.901V93H305.371V91.13H308.471V84.28H305.471V82.41H311.111ZM309.401 77.07C309.887 77.07 310.281 77.22 310.581 77.52C310.887 77.82 311.041 78.1933 311.041 78.64C311.041 79.0867 310.887 79.4633 310.581 79.77C310.281 80.07 309.887 80.22 309.401 80.22C308.914 80.22 308.517 80.07 308.211 79.77C307.904 79.4633 307.751 79.0867 307.751 78.64C307.751 78.1933 307.904 77.82 308.211 77.52C308.517 77.22 308.914 77.07 309.401 77.07ZM321.093 82.11C322.146 82.11 323.039 82.34 323.773 82.8C324.506 83.26 325.063 83.91 325.443 84.75C325.829 85.5833 326.023 86.56 326.023 87.68C326.023 88.8267 325.829 89.82 325.443 90.66C325.056 91.5 324.496 92.15 323.763 92.61C323.029 93.07 322.136 93.3 321.083 93.3C320.036 93.3 319.143 93.0767 318.403 92.63C317.669 92.1767 317.109 91.5333 316.723 90.7C316.336 89.86 316.143 88.86 316.143 87.7C316.143 86.5933 316.336 85.62 316.723 84.78C317.109 83.94 317.673 83.2867 318.413 82.82C319.153 82.3467 320.046 82.11 321.093 82.11ZM321.093 84.1C320.353 84.1 319.799 84.39 319.433 84.97C319.073 85.55 318.893 86.46 318.893 87.7C318.893 88.9533 319.073 89.87 319.433 90.45C319.793 91.0233 320.343 91.31 321.083 91.31C321.823 91.31 322.373 91.0233 322.733 90.45C323.093 89.87 323.273 88.9467 323.273 87.68C323.273 86.4467 323.093 85.5433 322.733 84.97C322.373 84.39 321.826 84.1 321.093 84.1ZM328.365 93V82.41H330.665L330.855 83.72C331.308 83.1867 331.818 82.7867 332.385 82.52C332.952 82.2467 333.562 82.11 334.215 82.11C335.168 82.11 335.895 82.3867 336.395 82.94C336.895 83.4867 337.145 84.2567 337.145 85.25V93H334.505V86.28C334.505 85.7467 334.472 85.32 334.405 85C334.338 84.6733 334.212 84.44 334.025 84.3C333.838 84.1533 333.568 84.08 333.215 84.08C332.928 84.08 332.652 84.1433 332.385 84.27C332.125 84.3967 331.878 84.5667 331.645 84.78C331.418 84.9933 331.205 85.23 331.005 85.49V93H328.365ZM348.487 90.21C348.487 90.6167 348.547 90.9133 348.667 91.1C348.787 91.28 348.981 91.4167 349.247 91.51L348.677 93.28C348.111 93.22 347.627 93.08 347.227 92.86C346.834 92.6333 346.531 92.2967 346.317 91.85C345.917 92.3367 345.411 92.7 344.797 92.94C344.191 93.18 343.554 93.3 342.887 93.3C341.807 93.3 340.951 92.9933 340.317 92.38C339.684 91.7667 339.367 90.97 339.367 89.99C339.367 88.8633 339.807 87.9967 340.687 87.39C341.574 86.7767 342.827 86.47 344.447 86.47H345.927V85.9C345.927 85.2733 345.734 84.82 345.347 84.54C344.961 84.2533 344.404 84.11 343.677 84.11C343.337 84.11 342.911 84.1567 342.397 84.25C341.891 84.3367 341.367 84.4733 340.827 84.66L340.197 82.85C340.871 82.5967 341.547 82.41 342.227 82.29C342.914 82.17 343.537 82.11 344.097 82.11C345.584 82.11 346.687 82.4267 347.407 83.06C348.127 83.6867 348.487 84.5767 348.487 85.73V90.21ZM343.747 91.39C344.147 91.39 344.551 91.2767 344.957 91.05C345.371 90.8233 345.694 90.5067 345.927 90.1V88.04H344.887C343.907 88.04 343.197 88.1967 342.757 88.51C342.324 88.8233 342.107 89.2667 342.107 89.84C342.107 90.3333 342.247 90.7167 342.527 90.99C342.807 91.2567 343.214 91.39 343.747 91.39ZM345.847 76.57L346.917 78.62L342.387 80.43L341.647 79.07L345.847 76.57ZM351.809 93V91.17H353.299V84.23H351.809V82.41H355.309L355.799 84.84C356.186 83.94 356.673 83.2633 357.259 82.81C357.846 82.35 358.583 82.12 359.469 82.12C359.809 82.12 360.109 82.1467 360.369 82.2C360.636 82.2533 360.889 82.3233 361.129 82.41L360.339 84.63C360.133 84.5767 359.936 84.5367 359.749 84.51C359.563 84.4767 359.353 84.46 359.119 84.46C358.386 84.46 357.746 84.7467 357.199 85.32C356.659 85.8867 356.239 86.6567 355.939 87.63V91.17H358.049V93H351.809ZM358.899 86.54V83.73L359.259 82.41H361.129L360.659 86.54H358.899ZM369.472 82.41V91.13H372.262V93H363.732V91.13H366.832V84.28H363.832V82.41H369.472ZM367.762 77.07C368.248 77.07 368.642 77.22 368.942 77.52C369.248 77.82 369.402 78.1933 369.402 78.64C369.402 79.0867 369.248 79.4633 368.942 79.77C368.642 80.07 368.248 80.22 367.762 80.22C367.275 80.22 366.878 80.07 366.572 79.77C366.265 79.4633 366.112 79.0867 366.112 78.64C366.112 78.1933 366.265 77.82 366.572 77.52C366.878 77.22 367.275 77.07 367.762 77.07ZM379.454 82.11C380.507 82.11 381.4 82.34 382.134 82.8C382.867 83.26 383.424 83.91 383.804 84.75C384.19 85.5833 384.384 86.56 384.384 87.68C384.384 88.8267 384.19 89.82 383.804 90.66C383.417 91.5 382.857 92.15 382.124 92.61C381.39 93.07 380.497 93.3 379.444 93.3C378.397 93.3 377.504 93.0767 376.764 92.63C376.03 92.1767 375.47 91.5333 375.084 90.7C374.697 89.86 374.504 88.86 374.504 87.7C374.504 86.5933 374.697 85.62 375.084 84.78C375.47 83.94 376.034 83.2867 376.774 82.82C377.514 82.3467 378.407 82.11 379.454 82.11ZM379.454 84.1C378.714 84.1 378.16 84.39 377.794 84.97C377.434 85.55 377.254 86.46 377.254 87.7C377.254 88.9533 377.434 89.87 377.794 90.45C378.154 91.0233 378.704 91.31 379.444 91.31C380.184 91.31 380.734 91.0233 381.094 90.45C381.454 89.87 381.634 88.9467 381.634 87.68C381.634 86.4467 381.454 85.5433 381.094 84.97C380.734 84.39 380.187 84.1 379.454 84.1ZM390.756 91.35C391.376 91.35 391.873 91.2433 392.246 91.03C392.626 90.81 392.816 90.5033 392.816 90.11C392.816 89.85 392.753 89.63 392.626 89.45C392.506 89.27 392.266 89.1033 391.906 88.95C391.546 88.79 391.006 88.6133 390.286 88.42C389.606 88.2467 389.009 88.0333 388.496 87.78C387.989 87.52 387.593 87.1867 387.306 86.78C387.026 86.3733 386.886 85.86 386.886 85.24C386.886 84.62 387.059 84.0767 387.406 83.61C387.753 83.1367 388.253 82.77 388.906 82.51C389.566 82.2433 390.359 82.11 391.286 82.11C392.193 82.11 392.986 82.23 393.666 82.47C394.346 82.7033 394.929 82.9967 395.416 83.35L394.336 84.96C393.909 84.6867 393.446 84.4667 392.946 84.3C392.453 84.1267 391.919 84.04 391.346 84.04C390.726 84.04 390.273 84.13 389.986 84.31C389.706 84.49 389.566 84.74 389.566 85.06C389.566 85.2867 389.636 85.48 389.776 85.64C389.923 85.7933 390.183 85.9433 390.556 86.09C390.936 86.23 391.476 86.4 392.176 86.6C392.863 86.7867 393.459 87.0067 393.966 87.26C394.479 87.5133 394.876 87.85 395.156 88.27C395.436 88.69 395.576 89.24 395.576 89.92C395.576 90.6867 395.353 91.32 394.906 91.82C394.459 92.32 393.869 92.6933 393.136 92.94C392.409 93.18 391.619 93.3 390.766 93.3C389.766 93.3 388.893 93.1567 388.146 92.87C387.399 92.5833 386.766 92.2133 386.246 91.76L387.616 90.22C388.029 90.5467 388.499 90.8167 389.026 91.03C389.559 91.2433 390.136 91.35 390.756 91.35ZM416.21 77.9L418.85 78.18V93H416.51L416.35 91.75C416.024 92.2167 415.614 92.5933 415.12 92.88C414.627 93.16 414.054 93.3 413.4 93.3C412.507 93.3 411.767 93.0667 411.18 92.6C410.6 92.1333 410.167 91.48 409.88 90.64C409.6 89.7933 409.46 88.81 409.46 87.69C409.46 86.61 409.627 85.65 409.96 84.81C410.294 83.97 410.774 83.31 411.4 82.83C412.034 82.35 412.784 82.11 413.65 82.11C414.17 82.11 414.644 82.2 415.07 82.38C415.497 82.56 415.877 82.8267 416.21 83.18V77.9ZM414.36 84.08C413.694 84.08 413.167 84.37 412.78 84.95C412.4 85.5233 412.21 86.44 412.21 87.7C412.21 88.5867 412.29 89.2967 412.45 89.83C412.61 90.3567 412.837 90.7367 413.13 90.97C413.424 91.2033 413.77 91.32 414.17 91.32C414.61 91.32 414.997 91.19 415.33 90.93C415.67 90.6633 415.964 90.3333 416.21 89.94V85.12C415.964 84.7933 415.687 84.54 415.38 84.36C415.08 84.1733 414.74 84.08 414.36 84.08ZM430.193 90.21C430.193 90.6167 430.253 90.9133 430.373 91.1C430.493 91.28 430.686 91.4167 430.953 91.51L430.383 93.28C429.816 93.22 429.333 93.08 428.933 92.86C428.539 92.6333 428.236 92.2967 428.023 91.85C427.623 92.3367 427.116 92.7 426.503 92.94C425.896 93.18 425.259 93.3 424.593 93.3C423.513 93.3 422.656 92.9933 422.023 92.38C421.389 91.7667 421.073 90.97 421.073 89.99C421.073 88.8633 421.513 87.9967 422.393 87.39C423.279 86.7767 424.533 86.47 426.153 86.47H427.633V85.9C427.633 85.2733 427.439 84.82 427.053 84.54C426.666 84.2533 426.109 84.11 425.383 84.11C425.043 84.11 424.616 84.1567 424.103 84.25C423.596 84.3367 423.073 84.4733 422.533 84.66L421.903 82.85C422.576 82.5967 423.253 82.41 423.933 82.29C424.619 82.17 425.243 82.11 425.803 82.11C427.289 82.11 428.393 82.4267 429.113 83.06C429.833 83.6867 430.193 84.5767 430.193 85.73V90.21ZM425.453 91.39C425.853 91.39 426.256 91.2767 426.663 91.05C427.076 90.8233 427.399 90.5067 427.633 90.1V88.04H426.593C425.613 88.04 424.903 88.1967 424.463 88.51C424.029 88.8233 423.813 89.2667 423.813 89.84C423.813 90.3333 423.953 90.7167 424.233 90.99C424.513 91.2567 424.919 91.39 425.453 91.39ZM451.717 89.83H447.167L446.307 93H443.477L447.807 79.17H451.167L455.487 93H452.577L451.717 89.83ZM447.657 87.78H451.207L449.437 81.22L447.657 87.78ZM462.849 82.41V91.13H465.639V93H457.109V91.13H460.209V84.28H457.209V82.41H462.849ZM461.139 77.07C461.626 77.07 462.019 77.22 462.319 77.52C462.626 77.82 462.779 78.1933 462.779 78.64C462.779 79.0867 462.626 79.4633 462.319 79.77C462.019 80.07 461.626 80.22 461.139 80.22C460.652 80.22 460.256 80.07 459.949 79.77C459.642 79.4633 459.489 79.0867 459.489 78.64C459.489 78.1933 459.642 77.82 459.949 77.52C460.256 77.22 460.652 77.07 461.139 77.07ZM472.831 82.11C473.885 82.11 474.778 82.34 475.511 82.8C476.245 83.26 476.801 83.91 477.181 84.75C477.568 85.5833 477.761 86.56 477.761 87.68C477.761 88.8267 477.568 89.82 477.181 90.66C476.795 91.5 476.235 92.15 475.501 92.61C474.768 93.07 473.875 93.3 472.821 93.3C471.775 93.3 470.881 93.0767 470.141 92.63C469.408 92.1767 468.848 91.5333 468.461 90.7C468.075 89.86 467.881 88.86 467.881 87.7C467.881 86.5933 468.075 85.62 468.461 84.78C468.848 83.94 469.411 83.2867 470.151 82.82C470.891 82.3467 471.785 82.11 472.831 82.11ZM472.831 84.1C472.091 84.1 471.538 84.39 471.171 84.97C470.811 85.55 470.631 86.46 470.631 87.7C470.631 88.9533 470.811 89.87 471.171 90.45C471.531 91.0233 472.081 91.31 472.821 91.31C473.561 91.31 474.111 91.0233 474.471 90.45C474.831 89.87 475.011 88.9467 475.011 87.68C475.011 86.4467 474.831 85.5433 474.471 84.97C474.111 84.39 473.565 84.1 472.831 84.1ZM480.103 93V82.41H482.403L482.593 83.72C483.047 83.1867 483.557 82.7867 484.123 82.52C484.69 82.2467 485.3 82.11 485.953 82.11C486.907 82.11 487.633 82.3867 488.133 82.94C488.633 83.4867 488.883 84.2567 488.883 85.25V93H486.243V86.28C486.243 85.7467 486.21 85.32 486.143 85C486.077 84.6733 485.95 84.44 485.763 84.3C485.577 84.1533 485.307 84.08 484.953 84.08C484.667 84.08 484.39 84.1433 484.123 84.27C483.863 84.3967 483.617 84.5667 483.383 84.78C483.157 84.9933 482.943 85.23 482.743 85.49V93H480.103ZM494.096 91.23C494.096 90.8567 494.186 90.5133 494.366 90.2C494.552 89.8867 494.802 89.6367 495.116 89.45C495.429 89.2633 495.776 89.17 496.156 89.17C496.542 89.17 496.892 89.2633 497.206 89.45C497.519 89.6367 497.766 89.8867 497.946 90.2C498.132 90.5133 498.226 90.8567 498.226 91.23C498.226 91.6033 498.132 91.95 497.946 92.27C497.766 92.5833 497.519 92.8333 497.206 93.02C496.892 93.2067 496.542 93.3 496.156 93.3C495.776 93.3 495.429 93.2067 495.116 93.02C494.802 92.8333 494.552 92.5833 494.366 92.27C494.186 91.95 494.096 91.6033 494.096 91.23Z" fill="#FBFFFD"/>
<path d="M718 107.5C717.172 107.5 716.5 108.172 716.5 109C716.5 109.828 717.172 110.5 718 110.5V107.5ZM750.282 110.061C750.868 109.475 750.868 108.525 750.282 107.939L740.736 98.3934C740.15 97.8076 739.201 97.8076 738.615 98.3934C738.029 98.9792 738.029 99.9289 738.615 100.515L747.1 109L738.615 117.485C738.029 118.071 738.029 119.021 738.615 119.607C739.201 120.192 740.15 120.192 740.736 119.607L750.282 110.061ZM718 110.5H749.221V107.5H718V110.5Z" fill="#57EB23"/>
</svg>
