<svg width="775" height="140" viewBox="0 0 775 140" fill="none" xmlns="http://www.w3.org/2000/svg">
<path d="M21.5093 3H752.569C762.514 3 771.078 12.0156 771.078 23.7876V116.212C771.078 127.984 762.514 137 752.569 137H21.5093C11.5639 137 3 127.984 3 116.212V23.7876C3 12.0156 11.5639 3 21.5093 3Z" fill="#2B3C12" fill-opacity="0.76" stroke="#57EB23" stroke-width="6"/>
<path d="M85.0474 1V135M183.94 1V135M283.311 1V135M382.203 1V135M481.574 1V135M580.467 1V135M675.538 1V135" stroke="#57EB23" stroke-width="0.2"/>
<path d="M773.989 35.7852L0.0615717 35.9179M773.995 72.3935L0.0673115 72.5262M774 107.587L0.0728295 107.72" stroke="#57EB23" stroke-width="0.2"/>
<path d="M26.7161 43.7885L29.6065 53.7039C29.6065 53.7039 28.2725 49.557 25.6362 54.3158C23 59.0747 32.4968 71.4689 32.4968 71.4689L35.8 83.0369L40.7549 88.4077L36.7529 90.337L36.2129 94.1917L23 97.91C45.7097 122.698 63.8774 123.525 87 99.3423L72.7707 95.9117L69.6581 90.337L67.4347 92.4811L68.8323 87.1683L74.2 80.9712L77.0903 71.8821C77.0903 71.8821 87.8258 61.1404 84.332 53.4579C83.5201 51.6726 80.3936 54.117 80.3936 54.117L83.4427 42.7376C83.4427 35.8763 79.2265 30.3752 76.328 27.2998C60.5655 10.5756 36.7529 24.2981 36.7529 24.2981C36.7529 24.2981 28.9395 28.7796 26.7161 43.7885Z" stroke="#57EB23" stroke-width="3"/>
<g style="mix-blend-mode:luminosity">
<path d="M45.4686 99.1775L42.374 85.5612L68.3687 84.6328L65.8931 99.1775H45.4686Z" fill="#E7D5BF" stroke="black"/>
<path d="M26.5918 99.1773L38.9702 95.1543L55.3717 102.581L71.1542 96.0827L86.0083 99.1773C76.7245 111.246 52.5865 131.671 26.5918 99.1773Z" fill="#124D1E" stroke="black" stroke-width="0.6"/>
<path d="M52.14 102.835L51.1184 98.749H55.4294H59.7783L59.0124 102.834L55.4368 104.209L52.14 102.835Z" fill="#18341F" stroke="black"/>
<path d="M42.993 89.8936H39.8984L43.9214 92.6787L42.993 89.8936Z" fill="#091B0D" stroke="black" stroke-width="0.6"/>
<path d="M53.2052 99.487L43.3025 92.3694L39.5889 90.2031L38.3511 94.5356L53.2052 104.748V99.487Z" fill="#02310C" stroke="black"/>
<path d="M67.4401 90.5122H70.5347L66.5117 93.2974L67.4401 90.5122Z" fill="#091B0D" stroke="black" stroke-width="0.6"/>
<path d="M57.2284 99.796L67.1311 92.6784L70.8447 90.5122L72.0825 94.8447L57.2284 105.057V99.796Z" fill="#02310C" stroke="black"/>
<path d="M36.7913 80.6578L30.406 53.3932C30.319 53.0197 30.2789 52.6365 30.2872 52.2534C30.58 38.3805 43.1987 27.6407 56.9361 28.6224C69.8987 29.5495 80.382 40.6656 79.7577 53.73C79.7397 54.0913 79.6803 54.4499 79.5781 54.7989C77.2812 62.6509 74.9856 70.503 72.6887 78.355C72.5008 78.9985 72.1707 79.5984 71.7232 80.1138L62.8628 90.3068C61.9084 91.4044 60.4858 92.0411 58.9858 92.0411H52.1571C51.0466 92.0411 49.9679 91.6921 49.0895 91.0499L38.6297 83.4011C37.6973 82.7193 37.0468 81.7486 36.7927 80.6592L36.7913 80.6578Z" fill="#FFE8D4"/>
<path d="M50.4206 48.1538C46.085 48.1102 41.7494 48.0666 37.4138 48.0229L34.168 50.5535L51.3833 49.9958L50.4206 48.1538Z" fill="#460000"/>
<path d="M60.2483 48.1538C64.5839 48.1102 68.9195 48.0666 73.2551 48.0229L76.5009 50.5535L59.2856 49.9958L60.2483 48.1538Z" fill="#460000"/>
<path opacity="0.82" d="M50.7431 56.9041C51.0166 56.6996 51.3936 56.3464 51.3853 55.9169C51.3757 55.4425 50.9019 55.133 50.3356 54.6939C49.7928 54.274 49.0691 53.6618 48.2611 52.811H41.1065L35.3979 55.9169C37.275 56.8509 39.1534 57.7862 41.0305 58.7202C42.3564 58.3057 43.8564 57.9089 45.5166 57.5858C47.4254 57.2136 49.1851 57.0091 50.7431 56.9041Z" fill="white"/>
<path d="M41.1641 52.8096C40.8409 54.9543 42.6019 56.7554 44.4748 56.7581C46.3491 56.7594 48.1156 54.957 47.7924 52.8096H41.1641Z" fill="#42210B"/>
<path opacity="0.82" d="M59.6507 57.1018C59.38 56.9123 59.0001 56.5824 58.9808 56.1515C58.9587 55.677 59.3841 55.3416 59.891 54.8712C60.3744 54.4227 61.0181 53.7709 61.7239 52.8765C63.9738 52.7429 66.2238 52.6107 68.4724 52.4771L74.0608 55.2585C72.3508 56.296 70.6409 57.3336 68.931 58.3698C67.6506 58.0031 66.1644 57.6622 64.4987 57.425C62.6962 57.1686 61.0609 57.0896 59.6479 57.0991L59.6507 57.1018Z" fill="white"/>
<path d="M68.9794 52.4486C69.4421 54.5701 67.8026 56.4721 65.9352 56.5839C64.0651 56.6971 62.1825 55.001 62.3648 52.8386C64.5692 52.7077 66.775 52.5782 68.9794 52.4473V52.4486Z" fill="#42210B"/>
<path opacity="0.35" d="M34.0044 68.7704L49.0457 91.0203L38.3345 83.186C37.5914 82.642 37.072 81.8689 36.869 80.999L34.0044 68.769V68.7704Z" fill="#C59B6D"/>
<path opacity="0.35" d="M76.3699 65.7568L62.457 90.769L72.3989 79.3312L76.3699 65.7568Z" fill="#C59B6D"/>
<path d="M36.7417 82.2556L30.3888 54.876C30.3022 54.5008 30.2623 54.1161 30.2706 53.7313C30.5619 39.7998 43.1166 29.0147 56.7843 30.0006C69.6811 30.9316 80.1112 42.0946 79.4901 55.2142C79.4722 55.577 79.4132 55.9371 79.3115 56.2876C77.0262 64.1727 74.7423 72.0579 72.457 79.9431C72.2701 80.5893 71.9417 81.1918 71.4964 81.7093L62.681 91.9454C61.7314 93.0476 60.316 93.687 58.8236 93.687H52.0296C50.9247 93.687 49.8515 93.3364 48.9775 92.6916L38.5707 85.0104C37.6431 84.3258 36.9959 83.351 36.743 82.257L36.7417 82.2556Z" fill="#FFE8D4"/>
<path d="M58.7952 93.687H52.0501C50.9205 93.687 49.8059 93.322 48.9109 92.6615L38.5791 85.0201C37.6268 84.316 36.9597 83.3082 36.6991 82.1833L30.392 54.9501C30.3033 54.5647 30.2624 54.167 30.2706 53.7707C30.4097 47.1016 33.463 40.6818 38.6487 36.1591C43.6761 31.7752 50.2834 29.5295 56.7842 29.9993C69.9182 30.9486 80.104 42.2793 79.4901 55.2565C79.4724 55.631 79.411 56.0028 79.3073 56.3623L72.5022 79.8899C72.3085 80.5599 71.9756 81.1728 71.5145 81.7094L62.7612 91.892C61.7816 93.0319 60.3355 93.687 58.7952 93.687ZM55.0788 30.2799C49.2301 30.2799 43.4101 32.467 38.8874 36.4124C33.7741 40.8725 30.7631 47.2011 30.6253 53.7775C30.6171 54.1466 30.6553 54.517 30.7385 54.8765L37.0456 82.1084C37.2885 83.1557 37.9092 84.094 38.796 84.749L49.1278 92.3905C49.96 93.006 50.9982 93.3451 52.0501 93.3451H58.7952C60.229 93.3451 61.5742 92.7364 62.4869 91.6755L71.2402 81.4942C71.67 80.9944 71.9797 80.4238 72.1598 79.8L78.9649 56.2711C79.0617 55.9374 79.119 55.5901 79.1354 55.2415C79.7398 42.4468 69.7013 31.2768 56.7583 30.3412C56.2003 30.3003 55.6396 30.2812 55.0816 30.2812L55.0788 30.2799Z" fill="black"/>
<path d="M50.3307 48.1197C45.9951 48.076 41.6595 48.0324 37.3239 47.9888L34.0781 50.5193L51.2934 49.9617L50.3307 48.1197Z" fill="#460000"/>
<path d="M33.5532 50.707L37.2604 47.8179L50.4439 47.9501L51.5807 50.1234L33.5546 50.707H33.5532ZM37.3874 48.1601L34.6029 50.3307L51.0075 49.8003L50.2174 48.2896L37.3861 48.1601H37.3874Z" fill="black"/>
<path d="M60.1575 48.1197C64.4931 48.076 68.8287 48.0324 73.1643 47.9888L76.4101 50.5193L59.1948 49.9617L60.1575 48.1197Z" fill="#460000"/>
<path d="M76.9352 50.707L58.9092 50.1234L60.0459 47.9501L73.2295 47.8179L76.9366 50.707H76.9352ZM59.481 49.8003L75.8855 50.3307L73.101 48.1601L60.2697 48.2896L59.4796 49.8003H59.481Z" fill="black"/>
<path d="M50.6075 56.8173C51.3782 55.8519 50.852 55.6379 49.9487 55.0871C49.1172 54.5458 48.3479 53.9091 47.6932 53.1837L48.1683 53.3841C45.7899 53.1837 43.4087 52.7515 41.0137 53.1551L41.2126 53.1046C39.4585 54.3617 37.6021 55.4934 35.6864 56.5132L35.6615 55.2384C36.5897 55.7279 37.4944 56.2569 38.3825 56.8118C39.2679 57.3749 40.1449 57.9544 40.9709 58.6252L40.9046 58.7465C38.83 58.2011 36.877 57.4104 34.9502 56.5268L33.7251 55.9515C35.9751 54.6085 38.3632 53.4182 40.8162 52.4488L40.9557 52.3916C41.5717 52.4625 42.1877 52.5252 42.8037 52.5524C44.6974 52.697 46.5565 52.2089 48.4349 52.1611L48.6448 52.3697C49.2981 53.0187 49.9376 53.6732 50.6241 54.2976C51.2346 54.8185 52.0757 55.6938 51.3506 56.4791C51.16 56.6905 50.9307 56.8241 50.6973 56.925L50.6075 56.8173Z" fill="black"/>
<path opacity="0.82" d="M50.6518 56.8713C50.9253 56.6668 51.3023 56.3137 51.294 55.8842C51.2844 55.4097 50.8106 55.1002 50.2443 54.6612C49.7015 54.2413 48.9778 53.6291 48.1698 52.7783H41.0151L35.3066 55.8842C37.1837 56.8182 39.0621 57.7535 40.9392 58.6874C42.2651 58.273 43.7651 57.8762 45.4253 57.5531C47.3341 57.1808 49.0938 56.9763 50.6518 56.8713Z" fill="white"/>
<path d="M41.0737 52.7764C40.7505 54.921 42.5115 56.7221 44.3845 56.7249C46.2587 56.7262 48.0253 54.9238 47.7021 52.7764H41.0737Z" fill="#42210B"/>
<path d="M44.3861 56.8957H44.3834C43.4345 56.8957 42.4953 56.4635 41.8102 55.7122C41.0685 54.8996 40.7342 53.8198 40.8958 52.7522L40.9179 52.605H47.8585L47.8806 52.7522C48.0422 53.8212 47.7065 54.901 46.9621 55.7136C46.2742 56.4649 45.3364 56.8957 44.3861 56.8957ZM41.2329 52.9472C41.1362 53.8675 41.4414 54.7865 42.0823 55.4873C42.6997 56.1635 43.5381 56.5521 44.3834 56.5535H44.3861C45.2314 56.5535 46.0712 56.1663 46.69 55.49C47.3322 54.7892 47.6375 53.8689 47.5422 52.9472H41.2342H41.2329Z" fill="black"/>
<path d="M59.5546 57.1232C58.0022 56.5205 58.487 55.3834 59.4552 54.4972C60.0988 53.8332 60.6941 53.1433 61.3046 52.4561L61.5007 52.2353C62.7839 52.1725 64.0767 52.373 65.3612 52.3866C66.5794 52.3961 67.7838 52.2393 68.9813 52.0239C71.1084 52.7179 73.1829 53.5605 75.1871 54.5231L76.4301 55.1489C75.1429 55.8593 73.7658 56.5996 72.4205 57.1954C71.455 57.6249 70.4799 58.038 69.4482 58.3639L69.3736 58.2466C70.9371 56.8423 72.6595 55.6629 74.4509 54.5531L74.5089 55.8265C72.531 54.9212 70.6028 53.9014 68.77 52.7506L68.9716 52.7888C66.5545 52.5284 64.2065 53.0983 61.846 53.4392L62.3074 53.2101C61.7024 53.9736 60.9759 54.654 60.1817 55.243C59.3198 55.8429 58.8019 56.0924 59.6375 57.0086L59.556 57.1204L59.5546 57.1232Z" fill="black"/>
<path opacity="0.82" d="M59.5594 57.0691C59.2887 56.8796 58.9088 56.5496 58.8895 56.1188C58.8674 55.6443 59.2928 55.3089 59.7997 54.8385C60.2831 54.39 60.9268 53.7382 61.6326 52.8438C63.8825 52.7102 66.1325 52.578 68.3811 52.4443L73.9695 55.2257C72.2595 56.2633 70.5496 57.3009 68.8397 58.3371C67.5593 57.9703 66.0731 57.6295 64.4074 57.3922C62.6049 57.1359 60.9696 57.0568 59.5566 57.0664L59.5594 57.0691Z" fill="white"/>
<path d="M68.8866 52.4159C69.3493 54.5374 67.7098 56.4394 65.8424 56.5512C63.9723 56.6644 62.0897 54.9683 62.272 52.8059C64.4764 52.675 66.6822 52.5454 68.8866 52.4146V52.4159Z" fill="#42210B"/>
<path d="M65.664 56.728C64.7773 56.728 63.8892 56.3585 63.2027 55.6958C62.4058 54.9282 62.0011 53.8702 62.0922 52.7931L62.1047 52.6458L69.0314 52.2368L69.0632 52.3813C69.2938 53.4366 69.0314 54.5342 68.3436 55.3891C67.7082 56.1799 66.8008 56.6652 65.8533 56.7225C65.7897 56.7266 65.7262 56.728 65.664 56.728ZM62.4431 52.9676C62.4072 53.8934 62.7732 54.7933 63.461 55.4559C64.124 56.0953 64.99 56.4321 65.8325 56.3817C66.6764 56.3312 67.4872 55.8935 68.059 55.1818C68.6516 54.4442 68.896 53.5089 68.74 52.5954L62.4431 52.9676Z" fill="black"/>
<path d="M53.3514 54.392C53.8059 55.9722 53.8501 57.6247 53.6774 59.2444C53.6263 61.9386 53.2617 64.7309 51.9716 67.1633L51.9385 67.151C52.7161 64.0206 53.8197 60.8683 53.4827 57.6247L53.3169 54.3961L53.3528 54.3906L53.3514 54.392Z" fill="black"/>
<path d="M54.2747 72.5535C53.6504 72.5535 53.1144 72.2113 52.9225 72.0885C51.9584 71.4709 51.5205 70.631 51.5026 70.5956C50.9625 69.6834 50.2982 69.1558 49.765 68.7318C49.1849 68.2709 48.7264 67.9055 48.8065 67.292C48.87 66.8066 49.2678 66.3553 49.9874 65.9545L50.1697 66.249C49.5523 66.5939 49.2126 66.9593 49.1642 67.3342C49.1103 67.7433 49.4128 68.0051 49.9971 68.4686C50.5523 68.9104 51.2443 69.4598 51.823 70.4361C51.8313 70.4524 52.2443 71.2391 53.1241 71.8036C53.3327 71.9372 53.8879 72.2944 54.4832 72.1935C55.1061 72.0885 55.9003 71.2105 56.4818 70.5697C56.7346 70.2902 56.9542 70.0488 57.142 69.8811C57.8478 69.2499 58.4652 68.9145 58.9624 68.6431C59.7207 68.2314 60.0343 68.0596 59.8616 67.2906C59.7511 66.7943 59.1517 66.3526 58.0812 65.9776L58.2056 65.6572C59.4169 66.0813 60.0729 66.5925 60.2138 67.2197C60.4403 68.2341 59.9238 68.515 59.142 68.9404C58.6627 69.2008 58.0647 69.5267 57.3906 70.1293C57.2166 70.2847 56.9929 70.5315 56.7567 70.7919C56.1061 71.5091 55.2967 72.4035 54.5481 72.5289C54.457 72.5439 54.3658 72.5507 54.2774 72.5507L54.2747 72.5535Z" fill="black"/>
<path opacity="0.35" d="M33.9175 70.1693L48.9588 92.4192L38.2475 84.5849C37.5045 84.0409 36.9851 83.2678 36.7821 82.398L33.9175 70.168V70.1693Z" fill="#C59B6D"/>
<path opacity="0.35" d="M75.7962 67.6924L61.8848 92.7046L71.8266 81.2667L75.7962 67.6924Z" fill="#C59B6D"/>
<path d="M55.0102 57.9497C55.2049 59.1182 55.2422 60.2689 55.3279 61.4387C55.6966 63.3571 56.5046 65.1432 57.0557 67.0275L57.0226 67.0411C55.8707 65.3722 55.4826 63.398 55.2118 61.4551C54.9453 60.3371 54.7008 59.0323 55.0102 57.9497Z" fill="black"/>
<path d="M30.8586 55.3775C29.3296 53.0283 26.7329 53.5028 26.5589 53.7591C26.3918 54.0059 26.3089 54.2936 26.2992 54.5867C26.2357 56.4914 26.3766 58.9279 27.1128 61.6493C28.6749 67.418 32.6804 69.9594 34.6141 71.8532C33.661 66.3259 32.0022 60.7058 30.8586 55.3789V55.3775Z" fill="#FFE5D1"/>
<path d="M30.7663 55.3433C29.2373 52.9941 26.6407 53.4686 26.4666 53.7249C26.2995 53.9717 26.2166 54.2594 26.207 54.5525C26.1434 56.4572 26.2843 58.8937 27.0205 61.6151C28.5826 67.3838 32.5881 69.9252 34.5218 71.8191C33.5688 66.2917 31.9099 60.6716 30.7663 55.3447V55.3433Z" fill="#FFE5D1"/>
<path d="M34.7927 72.3296L34.3922 71.9383C34.051 71.6042 33.6366 71.2415 33.196 70.8584C31.0635 68.9973 28.1436 66.4504 26.8467 61.658C26.2224 59.3497 25.9461 56.9582 26.0276 54.5476C26.0387 54.2109 26.1381 53.8946 26.3163 53.6328C26.453 53.431 27.0152 53.3287 27.5165 53.3342C28.1685 53.3396 29.8038 53.5387 30.9212 55.2525L30.9447 55.3084C31.395 57.404 31.935 59.5924 32.4599 61.7098C33.2775 65.0161 34.1228 68.4329 34.7016 71.791L34.7941 72.3296H34.7927ZM27.4806 53.6764C27.0041 53.6764 26.6712 53.7746 26.6077 53.8291C26.4751 54.0268 26.395 54.2831 26.3867 54.5586C26.3066 56.9364 26.5787 59.2965 27.1947 61.5734C28.4654 66.2664 31.3397 68.7751 33.4391 70.6062C33.7237 70.8543 33.9985 71.0943 34.2513 71.3247C33.6781 68.1465 32.8797 64.9179 32.1063 61.7888C31.5842 59.6796 31.0455 57.4995 30.5952 55.408C29.79 54.1891 28.721 53.8114 27.9641 53.7091C27.7914 53.686 27.6284 53.6764 27.4806 53.6764Z" fill="black"/>
<path d="M32.4389 68.0483C29.1406 65.0078 28.095 62.5005 27.4555 60.2454C26.979 58.5629 26.4293 55.1434 27.3174 54.8652C27.8657 54.6962 28.6447 55.6588 29.8878 57.5035C30.3629 58.2084 30.693 58.8219 30.9126 59.2269C31.3215 59.9849 31.693 60.773 32.0176 61.5692L31.682 61.692C31.3615 60.9066 30.9955 60.1295 30.5922 59.3823C30.3767 58.9814 30.0494 58.3774 29.5839 57.6862C29.1475 57.0386 27.827 55.0698 27.4293 55.1884C27.0715 55.3002 27.0978 57.6685 27.8022 60.1554C28.4279 62.3641 29.4527 64.8197 32.6875 67.8029L32.4361 68.0483H32.4389Z" fill="black"/>
<path d="M28.0222 59.1233C27.8385 58.4498 27.8109 57.768 27.9407 57.1C28.0278 56.65 28.1714 56.0651 28.3164 55.772L28.6438 55.9151C28.5139 56.1796 28.3758 56.7523 28.2957 57.1613C28.1755 57.7803 28.2018 58.4116 28.3717 59.0374L28.0222 59.1233Z" fill="black"/>
<path d="M32.4751 64.7623C32.4571 64.7528 30.7099 63.6429 30.6188 61.8623C30.5801 61.0961 30.8688 60.6693 31.0607 60.3884L31.1201 60.2998L31.4268 60.4798L31.3632 60.5739C31.1864 60.8343 30.9447 61.1901 30.9779 61.8459C31.0594 63.4357 32.6353 64.4569 32.6519 64.4651L32.4737 64.7623H32.4751Z" fill="black"/>
<path opacity="0.35" d="M32.5378 68.1464C30.6055 66.4012 29.5116 64.6464 28.9135 63.4971C28.7118 63.1112 28.0668 61.8309 27.6055 60.0271C27.1898 58.3992 26.6994 55.4651 27.3486 55.2469C27.995 55.0301 29.5544 57.5757 30.1207 58.5001C30.6428 59.3522 30.8638 59.8757 31.0999 60.3911C30.9936 60.5288 30.8886 60.6665 30.7823 60.8042C30.6704 61.1219 30.3776 62.042 30.7823 62.3995C30.9853 63.8938 32.3168 64.7037 32.5364 64.8332V68.1464H32.5378Z" fill="#C59B6D"/>
<path d="M78.4827 56.0396C80.0117 53.6904 82.6084 54.1649 82.7824 54.4212C82.9495 54.668 83.0324 54.9557 83.0421 55.2488C83.1056 57.1535 82.9647 59.59 82.2285 62.3114C80.6664 68.0801 76.6609 70.6215 74.7272 72.5153C75.6803 66.988 77.3391 61.3679 78.4827 56.041V56.0396Z" fill="#FFE5D1"/>
<path d="M78.575 56.0059C80.104 53.6567 82.7007 54.1312 82.8747 54.3875C83.0418 54.6343 83.1247 54.922 83.1344 55.2151C83.1979 57.1198 83.057 59.5563 82.3208 62.2777C80.7587 68.0464 76.7532 70.5878 74.8195 72.4816C75.7726 66.9543 77.4314 61.3342 78.575 56.0073V56.0059Z" fill="#FFE5D1"/>
<path d="M74.5491 72.9917L74.9496 72.6004C75.2908 72.2663 75.7052 71.9036 76.1458 71.5205C78.2783 69.6594 81.1982 67.1125 82.4951 62.3201C83.1194 60.0118 83.3957 57.6203 83.3142 55.2098C83.3031 54.873 83.2037 54.5567 83.0255 54.2949C82.8888 54.0931 82.3266 53.9908 81.8253 53.9963C81.1733 54.0018 79.538 54.2008 78.4206 55.9147L78.3971 55.9706C77.9468 58.0662 77.4068 60.2545 76.8819 62.3719C76.0643 65.6782 75.219 69.095 74.6402 72.4531L74.5477 72.9917H74.5491ZM81.8612 54.3385C82.3377 54.3385 82.6705 54.4367 82.7341 54.4912C82.8667 54.6889 82.9468 54.9453 82.9551 55.2207C83.0352 57.5985 82.7631 59.9586 82.1471 62.2355C80.8764 66.9285 78.0021 69.4372 75.9027 71.2683C75.6181 71.5164 75.3433 71.7564 75.0905 71.9868C75.6637 68.8087 76.462 65.58 77.2355 62.451C77.7576 60.3417 78.2963 58.1616 78.7466 56.0701C79.5518 54.8512 80.6208 54.4735 81.3777 54.3712C81.5504 54.3481 81.7134 54.3385 81.8612 54.3385Z" fill="black"/>
<path d="M76.9024 68.7109C80.2007 65.6704 81.2463 63.1631 81.8858 60.9079C82.3623 59.2255 82.912 55.806 82.0239 55.5278C81.4756 55.3588 80.6966 56.3214 79.4535 58.1661C78.9784 58.871 78.6483 59.4845 78.4287 59.8895C78.0198 60.6475 77.6483 61.4356 77.3237 62.2318L77.6593 62.3546C77.9798 61.5692 78.3458 60.7921 78.7491 60.0449C78.9646 59.644 79.2919 59.04 79.7574 58.3488C80.1938 57.7012 81.5143 55.7324 81.9121 55.851C82.2698 55.9628 82.2435 58.3311 81.5391 60.818C80.9134 63.0267 79.8886 65.4823 76.6538 68.4655L76.9052 68.7109H76.9024Z" fill="black"/>
<path d="M81.3196 59.7854C81.5033 59.1119 81.5309 58.4301 81.4011 57.7621C81.314 57.3121 81.1704 56.7272 81.0254 56.4341L80.698 56.5772C80.8279 56.8417 80.966 57.4144 81.0461 57.8234C81.1663 58.4424 81.14 59.0737 80.9701 59.6995L81.3196 59.7854Z" fill="black"/>
<path d="M76.8667 65.4249C76.8847 65.4154 78.6319 64.3055 78.723 62.5249C78.7617 61.7586 78.473 61.3319 78.2811 61.051L78.2217 60.9624L77.915 61.1424L77.9786 61.2365C78.1554 61.4969 78.3971 61.8527 78.3639 62.5085C78.2824 64.0983 76.7065 65.1195 76.6899 65.1277L76.8681 65.4249H76.8667Z" fill="black"/>
<path opacity="0.35" d="M76.804 68.809C78.7363 67.0638 79.8302 65.309 80.4283 64.1597C80.6299 63.7738 81.275 62.4935 81.7363 60.6897C82.152 59.0618 82.6424 56.1277 81.9932 55.9095C81.3468 55.6927 79.7874 58.2383 79.2211 59.1627C78.699 60.0148 78.478 60.5383 78.2418 61.0537C78.3482 61.1914 78.4532 61.3291 78.5595 61.4668C78.6714 61.7845 78.9642 62.7046 78.5595 63.0621C78.3565 64.5564 77.025 65.3663 76.8054 65.4958V68.809H76.804Z" fill="#C59B6D"/>
<path d="M62.6592 77.7986L60.023 79.5118C59.7954 79.66 59.5248 79.7397 59.2493 79.7397H50.7949C50.2901 79.7397 49.8018 79.5802 49.4026 79.287L47.3801 77.7986H62.6592Z" fill="white"/>
<path d="M46.685 77.5952H63.2871L60.0785 79.6812C59.8129 79.8538 59.5044 79.9434 59.1828 79.9434H50.7283C50.179 79.9434 49.6379 79.7675 49.204 79.4483L46.685 77.5952ZM61.8981 78.0039H47.942L49.468 79.1259C49.8259 79.3897 50.2746 79.5346 50.7283 79.5346H59.1828C59.417 79.5346 59.643 79.4679 59.836 79.3425L61.8997 78.0023L61.8981 78.0039Z" fill="black"/>
<path opacity="0.35" d="M50.9417 80.0708C51.9153 80.2697 53.0457 80.4909 54.0193 80.6897H55.1591C56.2375 80.4909 57.1592 80.2697 58.2368 80.0708H50.9409H50.9417Z" fill="#C5806D"/>
<path d="M28.7578 44.6175L32.4713 60.4947L34.0187 44.6175L39.5889 38.4283C53.7892 38.4283 60.8549 37.2464 73.3202 37.8093L78.8905 45.5459L79.5094 59.2567L83.223 44.6175C83.223 44.6175 83.0714 39.9782 81.9851 37.285C80.2376 32.9525 77.6527 30.4769 77.6527 30.4769C63.0846 12.2887 37.7322 23.2653 32.4713 32.2389C32.4713 32.2389 30.9127 35.0936 29.9957 38.4283C29.3547 40.7591 28.7578 44.6175 28.7578 44.6175Z" fill="#5F3232" stroke="black" stroke-linecap="round"/>
</g>
<path d="M144.83 41.19V44.98H149.73V46.97H144.83V50.99H150.78V53H142.09V39.17H150.71L150.43 41.19H144.83ZM157.312 51.35C157.932 51.35 158.429 51.2433 158.802 51.03C159.182 50.81 159.372 50.5033 159.372 50.11C159.372 49.85 159.309 49.63 159.182 49.45C159.062 49.27 158.822 49.1033 158.462 48.95C158.102 48.79 157.562 48.6133 156.842 48.42C156.162 48.2467 155.566 48.0333 155.052 47.78C154.546 47.52 154.149 47.1867 153.862 46.78C153.582 46.3733 153.442 45.86 153.442 45.24C153.442 44.62 153.616 44.0767 153.962 43.61C154.309 43.1367 154.809 42.77 155.462 42.51C156.122 42.2433 156.916 42.11 157.842 42.11C158.749 42.11 159.542 42.23 160.222 42.47C160.902 42.7033 161.486 42.9967 161.972 43.35L160.892 44.96C160.466 44.6867 160.002 44.4667 159.502 44.3C159.009 44.1267 158.476 44.04 157.902 44.04C157.282 44.04 156.829 44.13 156.542 44.31C156.262 44.49 156.122 44.74 156.122 45.06C156.122 45.2867 156.192 45.48 156.332 45.64C156.479 45.7933 156.739 45.9433 157.112 46.09C157.492 46.23 158.032 46.4 158.732 46.6C159.419 46.7867 160.016 47.0067 160.522 47.26C161.036 47.5133 161.432 47.85 161.712 48.27C161.992 48.69 162.132 49.24 162.132 49.92C162.132 50.6867 161.909 51.32 161.462 51.82C161.016 52.32 160.426 52.6933 159.692 52.94C158.966 53.18 158.176 53.3 157.322 53.3C156.322 53.3 155.449 53.1567 154.702 52.87C153.956 52.5833 153.322 52.2133 152.802 51.76L154.172 50.22C154.586 50.5467 155.056 50.8167 155.582 51.03C156.116 51.2433 156.692 51.35 157.312 51.35ZM168.984 51.35C169.604 51.35 170.101 51.2433 170.474 51.03C170.854 50.81 171.044 50.5033 171.044 50.11C171.044 49.85 170.981 49.63 170.854 49.45C170.734 49.27 170.494 49.1033 170.134 48.95C169.774 48.79 169.234 48.6133 168.514 48.42C167.834 48.2467 167.238 48.0333 166.724 47.78C166.218 47.52 165.821 47.1867 165.534 46.78C165.254 46.3733 165.114 45.86 165.114 45.24C165.114 44.62 165.288 44.0767 165.634 43.61C165.981 43.1367 166.481 42.77 167.134 42.51C167.794 42.2433 168.588 42.11 169.514 42.11C170.421 42.11 171.214 42.23 171.894 42.47C172.574 42.7033 173.158 42.9967 173.644 43.35L172.564 44.96C172.138 44.6867 171.674 44.4667 171.174 44.3C170.681 44.1267 170.148 44.04 169.574 44.04C168.954 44.04 168.501 44.13 168.214 44.31C167.934 44.49 167.794 44.74 167.794 45.06C167.794 45.2867 167.864 45.48 168.004 45.64C168.151 45.7933 168.411 45.9433 168.784 46.09C169.164 46.23 169.704 46.4 170.404 46.6C171.091 46.7867 171.688 47.0067 172.194 47.26C172.708 47.5133 173.104 47.85 173.384 48.27C173.664 48.69 173.804 49.24 173.804 49.92C173.804 50.6867 173.581 51.32 173.134 51.82C172.688 52.32 172.098 52.6933 171.364 52.94C170.638 53.18 169.848 53.3 168.994 53.3C167.994 53.3 167.121 53.1567 166.374 52.87C165.628 52.5833 164.994 52.2133 164.474 51.76L165.844 50.22C166.258 50.5467 166.728 50.8167 167.254 51.03C167.788 51.2433 168.364 51.35 168.984 51.35ZM185.077 50.21C185.077 50.6167 185.137 50.9133 185.257 51.1C185.377 51.28 185.57 51.4167 185.837 51.51L185.267 53.28C184.7 53.22 184.217 53.08 183.817 52.86C183.423 52.6333 183.12 52.2967 182.907 51.85C182.507 52.3367 182 52.7 181.387 52.94C180.78 53.18 180.143 53.3 179.477 53.3C178.397 53.3 177.54 52.9933 176.907 52.38C176.273 51.7667 175.957 50.97 175.957 49.99C175.957 48.8633 176.397 47.9967 177.277 47.39C178.163 46.7767 179.417 46.47 181.037 46.47H182.517V45.9C182.517 45.2733 182.323 44.82 181.937 44.54C181.55 44.2533 180.993 44.11 180.267 44.11C179.927 44.11 179.5 44.1567 178.987 44.25C178.48 44.3367 177.957 44.4733 177.417 44.66L176.787 42.85C177.46 42.5967 178.137 42.41 178.817 42.29C179.503 42.17 180.127 42.11 180.687 42.11C182.173 42.11 183.277 42.4267 183.997 43.06C184.717 43.6867 185.077 44.5767 185.077 45.73V50.21ZM180.337 51.39C180.737 51.39 181.14 51.2767 181.547 51.05C181.96 50.8233 182.283 50.5067 182.517 50.1V48.04H181.477C180.497 48.04 179.787 48.1967 179.347 48.51C178.913 48.8233 178.697 49.2667 178.697 49.84C178.697 50.3333 178.837 50.7167 179.117 50.99C179.397 51.2567 179.803 51.39 180.337 51.39ZM205.441 42.11C206.374 42.11 207.121 42.34 207.681 42.8C208.248 43.2533 208.658 43.8967 208.911 44.73C209.171 45.5633 209.301 46.5467 209.301 47.68C209.301 48.7667 209.144 49.7333 208.831 50.58C208.518 51.4267 208.058 52.0933 207.451 52.58C206.851 53.06 206.111 53.3 205.231 53.3C204.151 53.3 203.278 52.9167 202.611 52.15V57.08L199.971 57.36V42.41H202.291L202.431 43.7C202.851 43.1533 203.321 42.7533 203.841 42.5C204.361 42.24 204.894 42.11 205.441 42.11ZM204.671 44.09C204.224 44.09 203.831 44.2233 203.491 44.49C203.158 44.7567 202.864 45.0867 202.611 45.48V50.22C202.851 50.58 203.124 50.85 203.431 51.03C203.738 51.21 204.084 51.3 204.471 51.3C205.144 51.3 205.658 51.02 206.011 50.46C206.371 49.8933 206.551 48.9767 206.551 47.71C206.551 46.8167 206.478 46.1067 206.331 45.58C206.191 45.0467 205.981 44.6667 205.701 44.44C205.421 44.2067 205.078 44.09 204.671 44.09ZM213.893 48.51C213.946 49.17 214.096 49.7067 214.343 50.12C214.596 50.5333 214.92 50.8367 215.313 51.03C215.706 51.2233 216.143 51.32 216.623 51.32C217.13 51.32 217.606 51.24 218.053 51.08C218.5 50.92 218.94 50.6967 219.373 50.41L220.473 51.92C219.98 52.3333 219.39 52.6667 218.703 52.92C218.023 53.1733 217.273 53.3 216.453 53.3C215.306 53.3 214.34 53.0633 213.553 52.59C212.773 52.1167 212.183 51.46 211.783 50.62C211.383 49.78 211.183 48.8133 211.183 47.72C211.183 46.6667 211.38 45.7167 211.773 44.87C212.166 44.0233 212.733 43.3533 213.473 42.86C214.213 42.36 215.106 42.11 216.153 42.11C217.126 42.11 217.966 42.3233 218.673 42.75C219.38 43.1767 219.926 43.79 220.313 44.59C220.7 45.3833 220.893 46.34 220.893 47.46C220.893 47.64 220.886 47.8233 220.873 48.01C220.866 48.1967 220.856 48.3633 220.843 48.51H213.893ZM216.163 43.97C215.523 43.97 214.996 44.2 214.583 44.66C214.176 45.1133 213.936 45.8333 213.863 46.82H218.323C218.31 45.9267 218.123 45.23 217.763 44.73C217.41 44.2233 216.876 43.97 216.163 43.97ZM227.345 51.35C227.965 51.35 228.462 51.2433 228.835 51.03C229.215 50.81 229.405 50.5033 229.405 50.11C229.405 49.85 229.342 49.63 229.215 49.45C229.095 49.27 228.855 49.1033 228.495 48.95C228.135 48.79 227.595 48.6133 226.875 48.42C226.195 48.2467 225.599 48.0333 225.085 47.78C224.579 47.52 224.182 47.1867 223.895 46.78C223.615 46.3733 223.475 45.86 223.475 45.24C223.475 44.62 223.649 44.0767 223.995 43.61C224.342 43.1367 224.842 42.77 225.495 42.51C226.155 42.2433 226.949 42.11 227.875 42.11C228.782 42.11 229.575 42.23 230.255 42.47C230.935 42.7033 231.519 42.9967 232.005 43.35L230.925 44.96C230.499 44.6867 230.035 44.4667 229.535 44.3C229.042 44.1267 228.509 44.04 227.935 44.04C227.315 44.04 226.862 44.13 226.575 44.31C226.295 44.49 226.155 44.74 226.155 45.06C226.155 45.2867 226.225 45.48 226.365 45.64C226.512 45.7933 226.772 45.9433 227.145 46.09C227.525 46.23 228.065 46.4 228.765 46.6C229.452 46.7867 230.049 47.0067 230.555 47.26C231.069 47.5133 231.465 47.85 231.745 48.27C232.025 48.69 232.165 49.24 232.165 49.92C232.165 50.6867 231.942 51.32 231.495 51.82C231.049 52.32 230.459 52.6933 229.725 52.94C228.999 53.18 228.209 53.3 227.355 53.3C226.355 53.3 225.482 53.1567 224.735 52.87C223.989 52.5833 223.355 52.2133 222.835 51.76L224.205 50.22C224.619 50.5467 225.089 50.8167 225.615 51.03C226.149 51.2433 226.725 51.35 227.345 51.35ZM239.018 51.35C239.638 51.35 240.134 51.2433 240.508 51.03C240.888 50.81 241.078 50.5033 241.078 50.11C241.078 49.85 241.014 49.63 240.888 49.45C240.768 49.27 240.528 49.1033 240.168 48.95C239.808 48.79 239.268 48.6133 238.548 48.42C237.868 48.2467 237.271 48.0333 236.758 47.78C236.251 47.52 235.854 47.1867 235.568 46.78C235.288 46.3733 235.148 45.86 235.148 45.24C235.148 44.62 235.321 44.0767 235.668 43.61C236.014 43.1367 236.514 42.77 237.168 42.51C237.828 42.2433 238.621 42.11 239.548 42.11C240.454 42.11 241.248 42.23 241.928 42.47C242.608 42.7033 243.191 42.9967 243.678 43.35L242.598 44.96C242.171 44.6867 241.708 44.4667 241.208 44.3C240.714 44.1267 240.181 44.04 239.608 44.04C238.988 44.04 238.534 44.13 238.248 44.31C237.968 44.49 237.828 44.74 237.828 45.06C237.828 45.2867 237.898 45.48 238.038 45.64C238.184 45.7933 238.444 45.9433 238.818 46.09C239.198 46.23 239.738 46.4 240.438 46.6C241.124 46.7867 241.721 47.0067 242.228 47.26C242.741 47.5133 243.138 47.85 243.418 48.27C243.698 48.69 243.838 49.24 243.838 49.92C243.838 50.6867 243.614 51.32 243.168 51.82C242.721 52.32 242.131 52.6933 241.398 52.94C240.671 53.18 239.881 53.3 239.028 53.3C238.028 53.3 237.154 53.1567 236.408 52.87C235.661 52.5833 235.028 52.2133 234.508 51.76L235.878 50.22C236.291 50.5467 236.761 50.8167 237.288 51.03C237.821 51.2433 238.398 51.35 239.018 51.35ZM251.06 42.11C252.113 42.11 253.006 42.34 253.74 42.8C254.473 43.26 255.03 43.91 255.41 44.75C255.796 45.5833 255.99 46.56 255.99 47.68C255.99 48.8267 255.796 49.82 255.41 50.66C255.023 51.5 254.463 52.15 253.73 52.61C252.996 53.07 252.103 53.3 251.05 53.3C250.003 53.3 249.11 53.0767 248.37 52.63C247.636 52.1767 247.076 51.5333 246.69 50.7C246.303 49.86 246.11 48.86 246.11 47.7C246.11 46.5933 246.303 45.62 246.69 44.78C247.076 43.94 247.64 43.2867 248.38 42.82C249.12 42.3467 250.013 42.11 251.06 42.11ZM251.06 44.1C250.32 44.1 249.766 44.39 249.4 44.97C249.04 45.55 248.86 46.46 248.86 47.7C248.86 48.9533 249.04 49.87 249.4 50.45C249.76 51.0233 250.31 51.31 251.05 51.31C251.79 51.31 252.34 51.0233 252.7 50.45C253.06 49.87 253.24 48.9467 253.24 47.68C253.24 46.4467 253.06 45.5433 252.7 44.97C252.34 44.39 251.793 44.1 251.06 44.1ZM266.782 50.21C266.782 50.6167 266.842 50.9133 266.962 51.1C267.082 51.28 267.275 51.4167 267.542 51.51L266.972 53.28C266.405 53.22 265.922 53.08 265.522 52.86C265.129 52.6333 264.825 52.2967 264.612 51.85C264.212 52.3367 263.705 52.7 263.092 52.94C262.485 53.18 261.849 53.3 261.182 53.3C260.102 53.3 259.245 52.9933 258.612 52.38C257.979 51.7667 257.662 50.97 257.662 49.99C257.662 48.8633 258.102 47.9967 258.982 47.39C259.869 46.7767 261.122 46.47 262.742 46.47H264.222V45.9C264.222 45.2733 264.029 44.82 263.642 44.54C263.255 44.2533 262.699 44.11 261.972 44.11C261.632 44.11 261.205 44.1567 260.692 44.25C260.185 44.3367 259.662 44.4733 259.122 44.66L258.492 42.85C259.165 42.5967 259.842 42.41 260.522 42.29C261.209 42.17 261.832 42.11 262.392 42.11C263.879 42.11 264.982 42.4267 265.702 43.06C266.422 43.6867 266.782 44.5767 266.782 45.73V50.21ZM262.042 51.39C262.442 51.39 262.845 51.2767 263.252 51.05C263.665 50.8233 263.989 50.5067 264.222 50.1V48.04H263.182C262.202 48.04 261.492 48.1967 261.052 48.51C260.619 48.8233 260.402 49.2667 260.402 49.84C260.402 50.3333 260.542 50.7167 260.822 50.99C261.102 51.2567 261.509 51.39 262.042 51.39ZM287.006 51.18C287.473 51.18 287.91 51.0933 288.316 50.92C288.73 50.7467 289.126 50.5267 289.506 50.26L290.706 51.95C290.24 52.3433 289.676 52.6667 289.016 52.92C288.356 53.1733 287.65 53.3 286.896 53.3C285.79 53.3 284.84 53.07 284.046 52.61C283.26 52.1433 282.653 51.4967 282.226 50.67C281.806 49.8367 281.596 48.87 281.596 47.77C281.596 46.6833 281.81 45.7133 282.236 44.86C282.67 44 283.283 43.3267 284.076 42.84C284.876 42.3533 285.83 42.11 286.936 42.11C287.696 42.11 288.383 42.22 288.996 42.44C289.616 42.6533 290.183 42.9733 290.696 43.4L289.526 45.02C289.133 44.7467 288.726 44.54 288.306 44.4C287.893 44.2533 287.463 44.18 287.016 44.18C286.236 44.18 285.6 44.4633 285.106 45.03C284.62 45.59 284.376 46.5033 284.376 47.77C284.376 48.6033 284.49 49.27 284.716 49.77C284.95 50.27 285.263 50.63 285.656 50.85C286.056 51.07 286.506 51.18 287.006 51.18ZM295.598 48.51C295.652 49.17 295.802 49.7067 296.048 50.12C296.302 50.5333 296.625 50.8367 297.018 51.03C297.412 51.2233 297.848 51.32 298.328 51.32C298.835 51.32 299.312 51.24 299.758 51.08C300.205 50.92 300.645 50.6967 301.078 50.41L302.178 51.92C301.685 52.3333 301.095 52.6667 300.408 52.92C299.728 53.1733 298.978 53.3 298.158 53.3C297.012 53.3 296.045 53.0633 295.258 52.59C294.478 52.1167 293.888 51.46 293.488 50.62C293.088 49.78 292.888 48.8133 292.888 47.72C292.888 46.6667 293.085 45.7167 293.478 44.87C293.872 44.0233 294.438 43.3533 295.178 42.86C295.918 42.36 296.812 42.11 297.858 42.11C298.832 42.11 299.672 42.3233 300.378 42.75C301.085 43.1767 301.632 43.79 302.018 44.59C302.405 45.3833 302.598 46.34 302.598 47.46C302.598 47.64 302.592 47.8233 302.578 48.01C302.572 48.1967 302.562 48.3633 302.548 48.51H295.598ZM297.868 43.97C297.228 43.97 296.702 44.2 296.288 44.66C295.882 45.1133 295.642 45.8333 295.568 46.82H300.028C300.015 45.9267 299.828 45.23 299.468 44.73C299.115 44.2233 298.582 43.97 297.868 43.97ZM305.121 53V51.17H306.611V44.23H305.121V42.41H308.621L309.111 44.84C309.497 43.94 309.984 43.2633 310.571 42.81C311.157 42.35 311.894 42.12 312.781 42.12C313.121 42.12 313.421 42.1467 313.681 42.2C313.947 42.2533 314.201 42.3233 314.441 42.41L313.651 44.63C313.444 44.5767 313.247 44.5367 313.061 44.51C312.874 44.4767 312.664 44.46 312.431 44.46C311.697 44.46 311.057 44.7467 310.511 45.32C309.971 45.8867 309.551 46.6567 309.251 47.63V51.17H311.361V53H305.121ZM312.211 46.54V43.73L312.571 42.41H314.441L313.971 46.54H312.211ZM325.833 52.41C325.439 52.67 324.963 52.8833 324.403 53.05C323.843 53.2167 323.236 53.3 322.583 53.3C321.289 53.3 320.316 52.9667 319.663 52.3C319.009 51.6267 318.683 50.7333 318.683 49.62V44.28H316.383V42.41H318.683V40.08L321.323 39.76V42.41H324.823L324.553 44.28H321.323V49.61C321.323 50.1567 321.456 50.5567 321.723 50.81C321.989 51.0633 322.419 51.19 323.013 51.19C323.393 51.19 323.739 51.1467 324.053 51.06C324.373 50.9667 324.663 50.85 324.923 50.71L325.833 52.41ZM336.815 50.21C336.815 50.6167 336.875 50.9133 336.995 51.1C337.115 51.28 337.308 51.4167 337.575 51.51L337.005 53.28C336.438 53.22 335.955 53.08 335.555 52.86C335.162 52.6333 334.858 52.2967 334.645 51.85C334.245 52.3367 333.738 52.7 333.125 52.94C332.518 53.18 331.882 53.3 331.215 53.3C330.135 53.3 329.278 52.9933 328.645 52.38C328.012 51.7667 327.695 50.97 327.695 49.99C327.695 48.8633 328.135 47.9967 329.015 47.39C329.902 46.7767 331.155 46.47 332.775 46.47H334.255V45.9C334.255 45.2733 334.062 44.82 333.675 44.54C333.288 44.2533 332.732 44.11 332.005 44.11C331.665 44.11 331.238 44.1567 330.725 44.25C330.218 44.3367 329.695 44.4733 329.155 44.66L328.525 42.85C329.198 42.5967 329.875 42.41 330.555 42.29C331.242 42.17 331.865 42.11 332.425 42.11C333.912 42.11 335.015 42.4267 335.735 43.06C336.455 43.6867 336.815 44.5767 336.815 45.73V50.21ZM332.075 51.39C332.475 51.39 332.878 51.2767 333.285 51.05C333.698 50.8233 334.022 50.5067 334.255 50.1V48.04H333.215C332.235 48.04 331.525 48.1967 331.085 48.51C330.652 48.8233 330.435 49.2667 330.435 49.84C330.435 50.3333 330.575 50.7167 330.855 50.99C331.135 51.2567 331.542 51.39 332.075 51.39ZM347.567 42.11C348.021 42.11 348.407 42.2067 348.727 42.4C349.047 42.5867 349.294 42.9033 349.467 43.35C349.641 43.79 349.727 44.39 349.727 45.15V53H347.427V45.48C347.427 45 347.387 44.66 347.307 44.46C347.234 44.26 347.064 44.16 346.797 44.16C346.577 44.16 346.354 44.2267 346.127 44.36C345.907 44.4867 345.677 44.7167 345.437 45.05V53H343.447V45.48C343.447 45 343.407 44.66 343.327 44.46C343.254 44.26 343.084 44.16 342.817 44.16C342.591 44.16 342.367 44.2267 342.147 44.36C341.927 44.4867 341.697 44.7167 341.457 45.05V53H339.127V42.41H341.097L341.267 43.51C341.581 43.07 341.911 42.7267 342.257 42.48C342.604 42.2333 343.021 42.11 343.507 42.11C343.907 42.11 344.261 42.21 344.567 42.41C344.881 42.6033 345.104 42.9367 345.237 43.41C345.544 43.0233 345.887 42.71 346.267 42.47C346.647 42.23 347.081 42.11 347.567 42.11ZM353.959 48.51C354.013 49.17 354.163 49.7067 354.409 50.12C354.663 50.5333 354.986 50.8367 355.379 51.03C355.773 51.2233 356.209 51.32 356.689 51.32C357.196 51.32 357.673 51.24 358.119 51.08C358.566 50.92 359.006 50.6967 359.439 50.41L360.539 51.92C360.046 52.3333 359.456 52.6667 358.769 52.92C358.089 53.1733 357.339 53.3 356.519 53.3C355.373 53.3 354.406 53.0633 353.619 52.59C352.839 52.1167 352.249 51.46 351.849 50.62C351.449 49.78 351.249 48.8133 351.249 47.72C351.249 46.6667 351.446 45.7167 351.839 44.87C352.233 44.0233 352.799 43.3533 353.539 42.86C354.279 42.36 355.173 42.11 356.219 42.11C357.193 42.11 358.033 42.3233 358.739 42.75C359.446 43.1767 359.993 43.79 360.379 44.59C360.766 45.3833 360.959 46.34 360.959 47.46C360.959 47.64 360.953 47.8233 360.939 48.01C360.933 48.1967 360.923 48.3633 360.909 48.51H353.959ZM356.229 43.97C355.589 43.97 355.063 44.2 354.649 44.66C354.243 45.1133 354.003 45.8333 353.929 46.82H358.389C358.376 45.9267 358.189 45.23 357.829 44.73C357.476 44.2233 356.943 43.97 356.229 43.97ZM363.382 53V42.41H365.682L365.872 43.72C366.325 43.1867 366.835 42.7867 367.402 42.52C367.968 42.2467 368.578 42.11 369.232 42.11C370.185 42.11 370.912 42.3867 371.412 42.94C371.912 43.4867 372.162 44.2567 372.162 45.25V53H369.522V46.28C369.522 45.7467 369.488 45.32 369.422 45C369.355 44.6733 369.228 44.44 369.042 44.3C368.855 44.1533 368.585 44.08 368.232 44.08C367.945 44.08 367.668 44.1433 367.402 44.27C367.142 44.3967 366.895 44.5667 366.662 44.78C366.435 44.9933 366.222 45.23 366.022 45.49V53H363.382ZM384.194 52.41C383.8 52.67 383.324 52.8833 382.764 53.05C382.204 53.2167 381.597 53.3 380.944 53.3C379.65 53.3 378.677 52.9667 378.024 52.3C377.37 51.6267 377.044 50.7333 377.044 49.62V44.28H374.744V42.41H377.044V40.08L379.684 39.76V42.41H383.184L382.914 44.28H379.684V49.61C379.684 50.1567 379.817 50.5567 380.084 50.81C380.35 51.0633 380.78 51.19 381.374 51.19C381.754 51.19 382.1 51.1467 382.414 51.06C382.734 50.9667 383.024 50.85 383.284 50.71L384.194 52.41ZM388.976 48.51C389.029 49.17 389.179 49.7067 389.426 50.12C389.679 50.5333 390.003 50.8367 390.396 51.03C390.789 51.2233 391.226 51.32 391.706 51.32C392.213 51.32 392.689 51.24 393.136 51.08C393.583 50.92 394.023 50.6967 394.456 50.41L395.556 51.92C395.063 52.3333 394.473 52.6667 393.786 52.92C393.106 53.1733 392.356 53.3 391.536 53.3C390.389 53.3 389.423 53.0633 388.636 52.59C387.856 52.1167 387.266 51.46 386.866 50.62C386.466 49.78 386.266 48.8133 386.266 47.72C386.266 46.6667 386.463 45.7167 386.856 44.87C387.249 44.0233 387.816 43.3533 388.556 42.86C389.296 42.36 390.189 42.11 391.236 42.11C392.209 42.11 393.049 42.3233 393.756 42.75C394.463 43.1767 395.009 43.79 395.396 44.59C395.783 45.3833 395.976 46.34 395.976 47.46C395.976 47.64 395.969 47.8233 395.956 48.01C395.949 48.1967 395.939 48.3633 395.926 48.51H388.976ZM391.246 43.97C390.606 43.97 390.079 44.2 389.666 44.66C389.259 45.1133 389.019 45.8333 388.946 46.82H393.406C393.393 45.9267 393.206 45.23 392.846 44.73C392.493 44.2233 391.959 43.97 391.246 43.97ZM412.32 48.51C412.374 49.17 412.524 49.7067 412.77 50.12C413.024 50.5333 413.347 50.8367 413.74 51.03C414.134 51.2233 414.57 51.32 415.05 51.32C415.557 51.32 416.034 51.24 416.48 51.08C416.927 50.92 417.367 50.6967 417.8 50.41L418.9 51.92C418.407 52.3333 417.817 52.6667 417.13 52.92C416.45 53.1733 415.7 53.3 414.88 53.3C413.734 53.3 412.767 53.0633 411.98 52.59C411.2 52.1167 410.61 51.46 410.21 50.62C409.81 49.78 409.61 48.8133 409.61 47.72C409.61 46.6667 409.807 45.7167 410.2 44.87C410.594 44.0233 411.16 43.3533 411.9 42.86C412.64 42.36 413.534 42.11 414.58 42.11C415.554 42.11 416.394 42.3233 417.1 42.75C417.807 43.1767 418.354 43.79 418.74 44.59C419.127 45.3833 419.32 46.34 419.32 47.46C419.32 47.64 419.314 47.8233 419.3 48.01C419.294 48.1967 419.284 48.3633 419.27 48.51H412.32ZM414.59 43.97C413.95 43.97 413.424 44.2 413.01 44.66C412.604 45.1133 412.364 45.8333 412.29 46.82H416.75C416.737 45.9267 416.55 45.23 416.19 44.73C415.837 44.2233 415.304 43.97 414.59 43.97ZM425.773 51.35C426.393 51.35 426.889 51.2433 427.263 51.03C427.643 50.81 427.833 50.5033 427.833 50.11C427.833 49.85 427.769 49.63 427.643 49.45C427.523 49.27 427.283 49.1033 426.923 48.95C426.563 48.79 426.023 48.6133 425.303 48.42C424.623 48.2467 424.026 48.0333 423.513 47.78C423.006 47.52 422.609 47.1867 422.323 46.78C422.043 46.3733 421.903 45.86 421.903 45.24C421.903 44.62 422.076 44.0767 422.423 43.61C422.769 43.1367 423.269 42.77 423.923 42.51C424.583 42.2433 425.376 42.11 426.303 42.11C427.209 42.11 428.003 42.23 428.683 42.47C429.363 42.7033 429.946 42.9967 430.433 43.35L429.353 44.96C428.926 44.6867 428.463 44.4667 427.963 44.3C427.469 44.1267 426.936 44.04 426.363 44.04C425.743 44.04 425.289 44.13 425.003 44.31C424.723 44.49 424.583 44.74 424.583 45.06C424.583 45.2867 424.653 45.48 424.793 45.64C424.939 45.7933 425.199 45.9433 425.573 46.09C425.953 46.23 426.493 46.4 427.193 46.6C427.879 46.7867 428.476 47.0067 428.983 47.26C429.496 47.5133 429.893 47.85 430.173 48.27C430.453 48.69 430.593 49.24 430.593 49.92C430.593 50.6867 430.369 51.32 429.923 51.82C429.476 52.32 428.886 52.6933 428.153 52.94C427.426 53.18 426.636 53.3 425.783 53.3C424.783 53.3 423.909 53.1567 423.163 52.87C422.416 52.5833 421.783 52.2133 421.263 51.76L422.633 50.22C423.046 50.5467 423.516 50.8167 424.043 51.03C424.576 51.2433 425.153 51.35 425.773 51.35ZM442.555 52.41C442.161 52.67 441.685 52.8833 441.125 53.05C440.565 53.2167 439.958 53.3 439.305 53.3C438.011 53.3 437.038 52.9667 436.385 52.3C435.731 51.6267 435.405 50.7333 435.405 49.62V44.28H433.105V42.41H435.405V40.08L438.045 39.76V42.41H441.545L441.275 44.28H438.045V49.61C438.045 50.1567 438.178 50.5567 438.445 50.81C438.711 51.0633 439.141 51.19 439.735 51.19C440.115 51.19 440.461 51.1467 440.775 51.06C441.095 50.9667 441.385 50.85 441.645 50.71L442.555 52.41ZM453.537 50.21C453.537 50.6167 453.597 50.9133 453.717 51.1C453.837 51.28 454.03 51.4167 454.297 51.51L453.727 53.28C453.16 53.22 452.677 53.08 452.277 52.86C451.884 52.6333 451.58 52.2967 451.367 51.85C450.967 52.3367 450.46 52.7 449.847 52.94C449.24 53.18 448.604 53.3 447.937 53.3C446.857 53.3 446 52.9933 445.367 52.38C444.734 51.7667 444.417 50.97 444.417 49.99C444.417 48.8633 444.857 47.9967 445.737 47.39C446.624 46.7767 447.877 46.47 449.497 46.47H450.977V45.9C450.977 45.2733 450.784 44.82 450.397 44.54C450.01 44.2533 449.454 44.11 448.727 44.11C448.387 44.11 447.96 44.1567 447.447 44.25C446.94 44.3367 446.417 44.4733 445.877 44.66L445.247 42.85C445.92 42.5967 446.597 42.41 447.277 42.29C447.964 42.17 448.587 42.11 449.147 42.11C450.634 42.11 451.737 42.4267 452.457 43.06C453.177 43.6867 453.537 44.5767 453.537 45.73V50.21ZM448.797 51.39C449.197 51.39 449.6 51.2767 450.007 51.05C450.42 50.8233 450.744 50.5067 450.977 50.1V48.04H449.937C448.957 48.04 448.247 48.1967 447.807 48.51C447.374 48.8233 447.157 49.2667 447.157 49.84C447.157 50.3333 447.297 50.7167 447.577 50.99C447.857 51.2567 448.264 51.39 448.797 51.39ZM450.897 36.57L451.967 38.62L447.437 40.43L446.697 39.07L450.897 36.57ZM470.681 48.51C470.735 49.17 470.885 49.7067 471.131 50.12C471.385 50.5333 471.708 50.8367 472.101 51.03C472.495 51.2233 472.931 51.32 473.411 51.32C473.918 51.32 474.395 51.24 474.841 51.08C475.288 50.92 475.728 50.6967 476.161 50.41L477.261 51.92C476.768 52.3333 476.178 52.6667 475.491 52.92C474.811 53.1733 474.061 53.3 473.241 53.3C472.095 53.3 471.128 53.0633 470.341 52.59C469.561 52.1167 468.971 51.46 468.571 50.62C468.171 49.78 467.971 48.8133 467.971 47.72C467.971 46.6667 468.168 45.7167 468.561 44.87C468.955 44.0233 469.521 43.3533 470.261 42.86C471.001 42.36 471.895 42.11 472.941 42.11C473.915 42.11 474.755 42.3233 475.461 42.75C476.168 43.1767 476.715 43.79 477.101 44.59C477.488 45.3833 477.681 46.34 477.681 47.46C477.681 47.64 477.675 47.8233 477.661 48.01C477.655 48.1967 477.645 48.3633 477.631 48.51H470.681ZM472.951 43.97C472.311 43.97 471.785 44.2 471.371 44.66C470.965 45.1133 470.725 45.8333 470.651 46.82H475.111C475.098 45.9267 474.911 45.23 474.551 44.73C474.198 44.2233 473.665 43.97 472.951 43.97ZM480.103 53V42.41H482.403L482.593 43.72C483.047 43.1867 483.557 42.7867 484.123 42.52C484.69 42.2467 485.3 42.11 485.953 42.11C486.907 42.11 487.633 42.3867 488.133 42.94C488.633 43.4867 488.883 44.2567 488.883 45.25V53H486.243V46.28C486.243 45.7467 486.21 45.32 486.143 45C486.077 44.6733 485.95 44.44 485.763 44.3C485.577 44.1533 485.307 44.08 484.953 44.08C484.667 44.08 484.39 44.1433 484.123 44.27C483.863 44.3967 483.617 44.5667 483.383 44.78C483.157 44.9933 482.943 45.23 482.743 45.49V53H480.103ZM501.366 42.41L497.726 53H494.626L490.966 42.41H493.806L496.216 50.89L498.676 42.41H501.366ZM507.848 42.11C508.901 42.11 509.794 42.34 510.528 42.8C511.261 43.26 511.818 43.91 512.198 44.75C512.584 45.5833 512.778 46.56 512.778 47.68C512.778 48.8267 512.584 49.82 512.198 50.66C511.811 51.5 511.251 52.15 510.518 52.61C509.784 53.07 508.891 53.3 507.838 53.3C506.791 53.3 505.898 53.0767 505.158 52.63C504.424 52.1767 503.864 51.5333 503.478 50.7C503.091 49.86 502.898 48.86 502.898 47.7C502.898 46.5933 503.091 45.62 503.478 44.78C503.864 43.94 504.428 43.2867 505.168 42.82C505.908 42.3467 506.801 42.11 507.848 42.11ZM507.848 44.1C507.108 44.1 506.554 44.39 506.188 44.97C505.828 45.55 505.648 46.46 505.648 47.7C505.648 48.9533 505.828 49.87 506.188 50.45C506.548 51.0233 507.098 51.31 507.838 51.31C508.578 51.31 509.128 51.0233 509.488 50.45C509.848 49.87 510.028 48.9467 510.028 47.68C510.028 46.4467 509.848 45.5433 509.488 44.97C509.128 44.39 508.581 44.1 507.848 44.1ZM520.16 38.18V49.92C520.16 50.38 520.293 50.7067 520.56 50.9C520.833 51.0933 521.2 51.19 521.66 51.19C521.947 51.19 522.223 51.16 522.49 51.1C522.757 51.0333 523.01 50.9533 523.25 50.86L523.9 52.66C523.567 52.8267 523.16 52.9733 522.68 53.1C522.207 53.2333 521.657 53.3 521.03 53.3C519.877 53.3 519.003 52.97 518.41 52.31C517.817 51.65 517.52 50.76 517.52 49.64V40.05H514.35V38.18H520.16ZM536.382 42.41L532.742 53H529.642L525.982 42.41H528.822L531.232 50.89L533.692 42.41H536.382ZM544.554 42.41V51.13H547.344V53H538.814V51.13H541.914V44.28H538.914V42.41H544.554ZM542.844 37.07C543.331 37.07 543.724 37.22 544.024 37.52C544.331 37.82 544.484 38.1933 544.484 38.64C544.484 39.0867 544.331 39.4633 544.024 39.77C543.724 40.07 543.331 40.22 542.844 40.22C542.358 40.22 541.961 40.07 541.654 39.77C541.348 39.4633 541.194 39.0867 541.194 38.64C541.194 38.1933 541.348 37.82 541.654 37.52C541.961 37.22 542.358 37.07 542.844 37.07ZM556.277 37.9L558.917 38.18V53H556.577L556.417 51.75C556.09 52.2167 555.68 52.5933 555.187 52.88C554.693 53.16 554.12 53.3 553.467 53.3C552.573 53.3 551.833 53.0667 551.247 52.6C550.667 52.1333 550.233 51.48 549.947 50.64C549.667 49.7933 549.527 48.81 549.527 47.69C549.527 46.61 549.693 45.65 550.027 44.81C550.36 43.97 550.84 43.31 551.467 42.83C552.1 42.35 552.85 42.11 553.717 42.11C554.237 42.11 554.71 42.2 555.137 42.38C555.563 42.56 555.943 42.8267 556.277 43.18V37.9ZM554.427 44.08C553.76 44.08 553.233 44.37 552.847 44.95C552.467 45.5233 552.277 46.44 552.277 47.7C552.277 48.5867 552.357 49.2967 552.517 49.83C552.677 50.3567 552.903 50.7367 553.197 50.97C553.49 51.2033 553.837 51.32 554.237 51.32C554.677 51.32 555.063 51.19 555.397 50.93C555.737 50.6633 556.03 50.3333 556.277 49.94V45.12C556.03 44.7933 555.753 44.54 555.447 44.36C555.147 44.1733 554.807 44.08 554.427 44.08ZM570.259 50.21C570.259 50.6167 570.319 50.9133 570.439 51.1C570.559 51.28 570.752 51.4167 571.019 51.51L570.449 53.28C569.882 53.22 569.399 53.08 568.999 52.86C568.605 52.6333 568.302 52.2967 568.089 51.85C567.689 52.3367 567.182 52.7 566.569 52.94C565.962 53.18 565.325 53.3 564.659 53.3C563.579 53.3 562.722 52.9933 562.089 52.38C561.455 51.7667 561.139 50.97 561.139 49.99C561.139 48.8633 561.579 47.9967 562.459 47.39C563.345 46.7767 564.599 46.47 566.219 46.47H567.699V45.9C567.699 45.2733 567.505 44.82 567.119 44.54C566.732 44.2533 566.175 44.11 565.449 44.11C565.109 44.11 564.682 44.1567 564.169 44.25C563.662 44.3367 563.139 44.4733 562.599 44.66L561.969 42.85C562.642 42.5967 563.319 42.41 563.999 42.29C564.685 42.17 565.309 42.11 565.869 42.11C567.355 42.11 568.459 42.4267 569.179 43.06C569.899 43.6867 570.259 44.5767 570.259 45.73V50.21ZM565.519 51.39C565.919 51.39 566.322 51.2767 566.729 51.05C567.142 50.8233 567.465 50.5067 567.699 50.1V48.04H566.659C565.679 48.04 564.969 48.1967 564.529 48.51C564.095 48.8233 563.879 49.2667 563.879 49.84C563.879 50.3333 564.019 50.7167 564.299 50.99C564.579 51.2567 564.985 51.39 565.519 51.39ZM590.483 51.18C590.95 51.18 591.386 51.0933 591.793 50.92C592.206 50.7467 592.603 50.5267 592.983 50.26L594.183 51.95C593.716 52.3433 593.153 52.6667 592.493 52.92C591.833 53.1733 591.126 53.3 590.373 53.3C589.266 53.3 588.316 53.07 587.523 52.61C586.736 52.1433 586.13 51.4967 585.703 50.67C585.283 49.8367 585.073 48.87 585.073 47.77C585.073 46.6833 585.286 45.7133 585.713 44.86C586.146 44 586.76 43.3267 587.553 42.84C588.353 42.3533 589.306 42.11 590.413 42.11C591.173 42.11 591.86 42.22 592.473 42.44C593.093 42.6533 593.66 42.9733 594.173 43.4L593.003 45.02C592.61 44.7467 592.203 44.54 591.783 44.4C591.37 44.2533 590.94 44.18 590.493 44.18C589.713 44.18 589.076 44.4633 588.583 45.03C588.096 45.59 587.853 46.5033 587.853 47.77C587.853 48.6033 587.966 49.27 588.193 49.77C588.426 50.27 588.74 50.63 589.133 50.85C589.533 51.07 589.983 51.18 590.483 51.18ZM601.225 42.11C602.279 42.11 603.172 42.34 603.905 42.8C604.639 43.26 605.195 43.91 605.575 44.75C605.962 45.5833 606.155 46.56 606.155 47.68C606.155 48.8267 605.962 49.82 605.575 50.66C605.189 51.5 604.629 52.15 603.895 52.61C603.162 53.07 602.269 53.3 601.215 53.3C600.169 53.3 599.275 53.0767 598.535 52.63C597.802 52.1767 597.242 51.5333 596.855 50.7C596.469 49.86 596.275 48.86 596.275 47.7C596.275 46.5933 596.469 45.62 596.855 44.78C597.242 43.94 597.805 43.2867 598.545 42.82C599.285 42.3467 600.179 42.11 601.225 42.11ZM601.225 44.1C600.485 44.1 599.932 44.39 599.565 44.97C599.205 45.55 599.025 46.46 599.025 47.7C599.025 48.9533 599.205 49.87 599.565 50.45C599.925 51.0233 600.475 51.31 601.215 51.31C601.955 51.31 602.505 51.0233 602.865 50.45C603.225 49.87 603.405 48.9467 603.405 47.68C603.405 46.4467 603.225 45.5433 602.865 44.97C602.505 44.39 601.959 44.1 601.225 44.1ZM616.028 42.11C616.481 42.11 616.868 42.2067 617.188 42.4C617.508 42.5867 617.754 42.9033 617.928 43.35C618.101 43.79 618.188 44.39 618.188 45.15V53H615.888V45.48C615.888 45 615.848 44.66 615.768 44.46C615.694 44.26 615.524 44.16 615.258 44.16C615.038 44.16 614.814 44.2267 614.588 44.36C614.368 44.4867 614.138 44.7167 613.898 45.05V53H611.908V45.48C611.908 45 611.868 44.66 611.788 44.46C611.714 44.26 611.544 44.16 611.278 44.16C611.051 44.16 610.828 44.2267 610.608 44.36C610.388 44.4867 610.158 44.7167 609.918 45.05V53H607.588V42.41H609.558L609.728 43.51C610.041 43.07 610.371 42.7267 610.718 42.48C611.064 42.2333 611.481 42.11 611.968 42.11C612.368 42.11 612.721 42.21 613.028 42.41C613.341 42.6033 613.564 42.9367 613.698 43.41C614.004 43.0233 614.348 42.71 614.728 42.47C615.108 42.23 615.541 42.11 616.028 42.11ZM640.292 50.21C640.292 50.6167 640.352 50.9133 640.472 51.1C640.592 51.28 640.785 51.4167 641.052 51.51L640.482 53.28C639.915 53.22 639.432 53.08 639.032 52.86C638.639 52.6333 638.335 52.2967 638.122 51.85C637.722 52.3367 637.215 52.7 636.602 52.94C635.995 53.18 635.359 53.3 634.692 53.3C633.612 53.3 632.755 52.9933 632.122 52.38C631.489 51.7667 631.172 50.97 631.172 49.99C631.172 48.8633 631.612 47.9967 632.492 47.39C633.379 46.7767 634.632 46.47 636.252 46.47H637.732V45.9C637.732 45.2733 637.539 44.82 637.152 44.54C636.765 44.2533 636.209 44.11 635.482 44.11C635.142 44.11 634.715 44.1567 634.202 44.25C633.695 44.3367 633.172 44.4733 632.632 44.66L632.002 42.85C632.675 42.5967 633.352 42.41 634.032 42.29C634.719 42.17 635.342 42.11 635.902 42.11C637.389 42.11 638.492 42.4267 639.212 43.06C639.932 43.6867 640.292 44.5767 640.292 45.73V50.21ZM635.552 51.39C635.952 51.39 636.355 51.2767 636.762 51.05C637.175 50.8233 637.499 50.5067 637.732 50.1V48.04H636.692C635.712 48.04 635.002 48.1967 634.562 48.51C634.129 48.8233 633.912 49.2667 633.912 49.84C633.912 50.3333 634.052 50.7167 634.332 50.99C634.612 51.2567 635.019 51.39 635.552 51.39ZM655.186 53V42.41H657.486L657.676 43.72C658.13 43.1867 658.64 42.7867 659.206 42.52C659.773 42.2467 660.383 42.11 661.036 42.11C661.99 42.11 662.716 42.3867 663.216 42.94C663.716 43.4867 663.966 44.2567 663.966 45.25V53H661.326V46.28C661.326 45.7467 661.293 45.32 661.226 45C661.16 44.6733 661.033 44.44 660.846 44.3C660.66 44.1533 660.39 44.08 660.036 44.08C659.75 44.08 659.473 44.1433 659.206 44.27C658.946 44.3967 658.7 44.5667 658.466 44.78C658.24 44.9933 658.026 45.23 657.826 45.49V53H655.186ZM671.258 42.11C672.312 42.11 673.205 42.34 673.938 42.8C674.672 43.26 675.228 43.91 675.608 44.75C675.995 45.5833 676.188 46.56 676.188 47.68C676.188 48.8267 675.995 49.82 675.608 50.66C675.222 51.5 674.662 52.15 673.928 52.61C673.195 53.07 672.302 53.3 671.248 53.3C670.202 53.3 669.308 53.0767 668.568 52.63C667.835 52.1767 667.275 51.5333 666.888 50.7C666.502 49.86 666.308 48.86 666.308 47.7C666.308 46.5933 666.502 45.62 666.888 44.78C667.275 43.94 667.838 43.2867 668.578 42.82C669.318 42.3467 670.212 42.11 671.258 42.11ZM671.258 44.1C670.518 44.1 669.965 44.39 669.598 44.97C669.238 45.55 669.058 46.46 669.058 47.7C669.058 48.9533 669.238 49.87 669.598 50.45C669.958 51.0233 670.508 51.31 671.248 51.31C671.988 51.31 672.538 51.0233 672.898 50.45C673.258 49.87 673.438 48.9467 673.438 47.68C673.438 46.4467 673.258 45.5433 672.898 44.97C672.538 44.39 671.992 44.1 671.258 44.1ZM682.561 51.35C683.181 51.35 683.677 51.2433 684.051 51.03C684.431 50.81 684.621 50.5033 684.621 50.11C684.621 49.85 684.557 49.63 684.431 49.45C684.311 49.27 684.071 49.1033 683.711 48.95C683.351 48.79 682.811 48.6133 682.091 48.42C681.411 48.2467 680.814 48.0333 680.301 47.78C679.794 47.52 679.397 47.1867 679.111 46.78C678.831 46.3733 678.691 45.86 678.691 45.24C678.691 44.62 678.864 44.0767 679.211 43.61C679.557 43.1367 680.057 42.77 680.711 42.51C681.371 42.2433 682.164 42.11 683.091 42.11C683.997 42.11 684.791 42.23 685.471 42.47C686.151 42.7033 686.734 42.9967 687.221 43.35L686.141 44.96C685.714 44.6867 685.251 44.4667 684.751 44.3C684.257 44.1267 683.724 44.04 683.151 44.04C682.531 44.04 682.077 44.13 681.791 44.31C681.511 44.49 681.371 44.74 681.371 45.06C681.371 45.2867 681.441 45.48 681.581 45.64C681.727 45.7933 681.987 45.9433 682.361 46.09C682.741 46.23 683.281 46.4 683.981 46.6C684.667 46.7867 685.264 47.0067 685.771 47.26C686.284 47.5133 686.681 47.85 686.961 48.27C687.241 48.69 687.381 49.24 687.381 49.92C687.381 50.6867 687.157 51.32 686.711 51.82C686.264 52.32 685.674 52.6933 684.941 52.94C684.214 53.18 683.424 53.3 682.571 53.3C681.571 53.3 680.697 53.1567 679.951 52.87C679.204 52.5833 678.571 52.2133 678.051 51.76L679.421 50.22C679.834 50.5467 680.304 50.8167 680.831 51.03C681.364 51.2433 681.941 51.35 682.561 51.35ZM694.233 51.35C694.853 51.35 695.35 51.2433 695.723 51.03C696.103 50.81 696.293 50.5033 696.293 50.11C696.293 49.85 696.23 49.63 696.103 49.45C695.983 49.27 695.743 49.1033 695.383 48.95C695.023 48.79 694.483 48.6133 693.763 48.42C693.083 48.2467 692.486 48.0333 691.973 47.78C691.466 47.52 691.07 47.1867 690.783 46.78C690.503 46.3733 690.363 45.86 690.363 45.24C690.363 44.62 690.536 44.0767 690.883 43.61C691.23 43.1367 691.73 42.77 692.383 42.51C693.043 42.2433 693.836 42.11 694.763 42.11C695.67 42.11 696.463 42.23 697.143 42.47C697.823 42.7033 698.406 42.9967 698.893 43.35L697.813 44.96C697.386 44.6867 696.923 44.4667 696.423 44.3C695.93 44.1267 695.396 44.04 694.823 44.04C694.203 44.04 693.75 44.13 693.463 44.31C693.183 44.49 693.043 44.74 693.043 45.06C693.043 45.2867 693.113 45.48 693.253 45.64C693.4 45.7933 693.66 45.9433 694.033 46.09C694.413 46.23 694.953 46.4 695.653 46.6C696.34 46.7867 696.936 47.0067 697.443 47.26C697.956 47.5133 698.353 47.85 698.633 48.27C698.913 48.69 699.053 49.24 699.053 49.92C699.053 50.6867 698.83 51.32 698.383 51.82C697.936 52.32 697.346 52.6933 696.613 52.94C695.886 53.18 695.096 53.3 694.243 53.3C693.243 53.3 692.37 53.1567 691.623 52.87C690.876 52.5833 690.243 52.2133 689.723 51.76L691.093 50.22C691.506 50.5467 691.976 50.8167 692.503 51.03C693.036 51.2433 693.613 51.35 694.233 51.35ZM710.325 50.21C710.325 50.6167 710.385 50.9133 710.505 51.1C710.625 51.28 710.818 51.4167 711.085 51.51L710.515 53.28C709.948 53.22 709.465 53.08 709.065 52.86C708.672 52.6333 708.368 52.2967 708.155 51.85C707.755 52.3367 707.248 52.7 706.635 52.94C706.028 53.18 705.392 53.3 704.725 53.3C703.645 53.3 702.788 52.9933 702.155 52.38C701.522 51.7667 701.205 50.97 701.205 49.99C701.205 48.8633 701.645 47.9967 702.525 47.39C703.412 46.7767 704.665 46.47 706.285 46.47H707.765V45.9C707.765 45.2733 707.572 44.82 707.185 44.54C706.798 44.2533 706.242 44.11 705.515 44.11C705.175 44.11 704.748 44.1567 704.235 44.25C703.728 44.3367 703.205 44.4733 702.665 44.66L702.035 42.85C702.708 42.5967 703.385 42.41 704.065 42.29C704.752 42.17 705.375 42.11 705.935 42.11C707.422 42.11 708.525 42.4267 709.245 43.06C709.965 43.6867 710.325 44.5767 710.325 45.73V50.21ZM705.585 51.39C705.985 51.39 706.388 51.2767 706.795 51.05C707.208 50.8233 707.532 50.5067 707.765 50.1V48.04H706.725C705.745 48.04 705.035 48.1967 704.595 48.51C704.162 48.8233 703.945 49.2667 703.945 49.84C703.945 50.3333 704.085 50.7167 704.365 50.99C704.645 51.2567 705.052 51.39 705.585 51.39ZM143.86 88.51C143.913 89.17 144.063 89.7067 144.31 90.12C144.563 90.5333 144.887 90.8367 145.28 91.03C145.673 91.2233 146.11 91.32 146.59 91.32C147.097 91.32 147.573 91.24 148.02 91.08C148.467 90.92 148.907 90.6967 149.34 90.41L150.44 91.92C149.947 92.3333 149.357 92.6667 148.67 92.92C147.99 93.1733 147.24 93.3 146.42 93.3C145.273 93.3 144.307 93.0633 143.52 92.59C142.74 92.1167 142.15 91.46 141.75 90.62C141.35 89.78 141.15 88.8133 141.15 87.72C141.15 86.6667 141.347 85.7167 141.74 84.87C142.133 84.0233 142.7 83.3533 143.44 82.86C144.18 82.36 145.073 82.11 146.12 82.11C147.093 82.11 147.933 82.3233 148.64 82.75C149.347 83.1767 149.893 83.79 150.28 84.59C150.667 85.3833 150.86 86.34 150.86 87.46C150.86 87.64 150.853 87.8233 150.84 88.01C150.833 88.1967 150.823 88.3633 150.81 88.51H143.86ZM146.13 83.97C145.49 83.97 144.963 84.2 144.55 84.66C144.143 85.1133 143.903 85.8333 143.83 86.82H148.29C148.277 85.9267 148.09 85.23 147.73 84.73C147.377 84.2233 146.843 83.97 146.13 83.97ZM160.812 82.11C161.266 82.11 161.652 82.2067 161.972 82.4C162.292 82.5867 162.539 82.9033 162.712 83.35C162.886 83.79 162.972 84.39 162.972 85.15V93H160.672V85.48C160.672 85 160.632 84.66 160.552 84.46C160.479 84.26 160.309 84.16 160.042 84.16C159.822 84.16 159.599 84.2267 159.372 84.36C159.152 84.4867 158.922 84.7167 158.682 85.05V93H156.692V85.48C156.692 85 156.652 84.66 156.572 84.46C156.499 84.26 156.329 84.16 156.062 84.16C155.836 84.16 155.612 84.2267 155.392 84.36C155.172 84.4867 154.942 84.7167 154.702 85.05V93H152.372V82.41H154.342L154.512 83.51C154.826 83.07 155.156 82.7267 155.502 82.48C155.849 82.2333 156.266 82.11 156.752 82.11C157.152 82.11 157.506 82.21 157.812 82.41C158.126 82.6033 158.349 82.9367 158.482 83.41C158.789 83.0233 159.132 82.71 159.512 82.47C159.892 82.23 160.326 82.11 160.812 82.11ZM170.424 82.11C171.358 82.11 172.104 82.34 172.664 82.8C173.231 83.2533 173.641 83.8967 173.894 84.73C174.154 85.5633 174.284 86.5467 174.284 87.68C174.284 88.7667 174.128 89.7333 173.814 90.58C173.501 91.4267 173.041 92.0933 172.434 92.58C171.834 93.06 171.094 93.3 170.214 93.3C169.134 93.3 168.261 92.9167 167.594 92.15V97.08L164.954 97.36V82.41H167.274L167.414 83.7C167.834 83.1533 168.304 82.7533 168.824 82.5C169.344 82.24 169.878 82.11 170.424 82.11ZM169.654 84.09C169.208 84.09 168.814 84.2233 168.474 84.49C168.141 84.7567 167.848 85.0867 167.594 85.48V90.22C167.834 90.58 168.108 90.85 168.414 91.03C168.721 91.21 169.068 91.3 169.454 91.3C170.128 91.3 170.641 91.02 170.994 90.46C171.354 89.8933 171.534 88.9767 171.534 87.71C171.534 86.8167 171.461 86.1067 171.314 85.58C171.174 85.0467 170.964 84.6667 170.684 84.44C170.404 84.2067 170.061 84.09 169.654 84.09ZM176.727 93V91.17H178.217V84.23H176.727V82.41H180.227L180.717 84.84C181.103 83.94 181.59 83.2633 182.177 82.81C182.763 82.35 183.5 82.12 184.387 82.12C184.727 82.12 185.027 82.1467 185.287 82.2C185.553 82.2533 185.807 82.3233 186.047 82.41L185.257 84.63C185.05 84.5767 184.853 84.5367 184.667 84.51C184.48 84.4767 184.27 84.46 184.037 84.46C183.303 84.46 182.663 84.7467 182.117 85.32C181.577 85.8867 181.157 86.6567 180.857 87.63V91.17H182.967V93H176.727ZM183.817 86.54V83.73L184.177 82.41H186.047L185.577 86.54H183.817ZM190.549 88.51C190.602 89.17 190.752 89.7067 190.999 90.12C191.252 90.5333 191.575 90.8367 191.969 91.03C192.362 91.2233 192.799 91.32 193.279 91.32C193.785 91.32 194.262 91.24 194.709 91.08C195.155 90.92 195.595 90.6967 196.029 90.41L197.129 91.92C196.635 92.3333 196.045 92.6667 195.359 92.92C194.679 93.1733 193.929 93.3 193.109 93.3C191.962 93.3 190.995 93.0633 190.209 92.59C189.429 92.1167 188.839 91.46 188.439 90.62C188.039 89.78 187.839 88.8133 187.839 87.72C187.839 86.6667 188.035 85.7167 188.429 84.87C188.822 84.0233 189.389 83.3533 190.129 82.86C190.869 82.36 191.762 82.11 192.809 82.11C193.782 82.11 194.622 82.3233 195.329 82.75C196.035 83.1767 196.582 83.79 196.969 84.59C197.355 85.3833 197.549 86.34 197.549 87.46C197.549 87.64 197.542 87.8233 197.529 88.01C197.522 88.1967 197.512 88.3633 197.499 88.51H190.549ZM192.819 83.97C192.179 83.97 191.652 84.2 191.239 84.66C190.832 85.1133 190.592 85.8333 190.519 86.82H194.979C194.965 85.9267 194.779 85.23 194.419 84.73C194.065 84.2233 193.532 83.97 192.819 83.97ZM204.001 91.35C204.621 91.35 205.118 91.2433 205.491 91.03C205.871 90.81 206.061 90.5033 206.061 90.11C206.061 89.85 205.998 89.63 205.871 89.45C205.751 89.27 205.511 89.1033 205.151 88.95C204.791 88.79 204.251 88.6133 203.531 88.42C202.851 88.2467 202.254 88.0333 201.741 87.78C201.234 87.52 200.838 87.1867 200.551 86.78C200.271 86.3733 200.131 85.86 200.131 85.24C200.131 84.62 200.304 84.0767 200.651 83.61C200.998 83.1367 201.498 82.77 202.151 82.51C202.811 82.2433 203.604 82.11 204.531 82.11C205.438 82.11 206.231 82.23 206.911 82.47C207.591 82.7033 208.174 82.9967 208.661 83.35L207.581 84.96C207.154 84.6867 206.691 84.4667 206.191 84.3C205.698 84.1267 205.164 84.04 204.591 84.04C203.971 84.04 203.518 84.13 203.231 84.31C202.951 84.49 202.811 84.74 202.811 85.06C202.811 85.2867 202.881 85.48 203.021 85.64C203.168 85.7933 203.428 85.9433 203.801 86.09C204.181 86.23 204.721 86.4 205.421 86.6C206.108 86.7867 206.704 87.0067 207.211 87.26C207.724 87.5133 208.121 87.85 208.401 88.27C208.681 88.69 208.821 89.24 208.821 89.92C208.821 90.6867 208.598 91.32 208.151 91.82C207.704 92.32 207.114 92.6933 206.381 92.94C205.654 93.18 204.864 93.3 204.011 93.3C203.011 93.3 202.138 93.1567 201.391 92.87C200.644 92.5833 200.011 92.2133 199.491 91.76L200.861 90.22C201.274 90.5467 201.744 90.8167 202.271 91.03C202.804 91.2433 203.381 91.35 204.001 91.35ZM220.093 90.21C220.093 90.6167 220.153 90.9133 220.273 91.1C220.393 91.28 220.586 91.4167 220.853 91.51L220.283 93.28C219.716 93.22 219.233 93.08 218.833 92.86C218.44 92.6333 218.136 92.2967 217.923 91.85C217.523 92.3367 217.016 92.7 216.403 92.94C215.796 93.18 215.16 93.3 214.493 93.3C213.413 93.3 212.556 92.9933 211.923 92.38C211.29 91.7667 210.973 90.97 210.973 89.99C210.973 88.8633 211.413 87.9967 212.293 87.39C213.18 86.7767 214.433 86.47 216.053 86.47H217.533V85.9C217.533 85.2733 217.34 84.82 216.953 84.54C216.566 84.2533 216.01 84.11 215.283 84.11C214.943 84.11 214.516 84.1567 214.003 84.25C213.496 84.3367 212.973 84.4733 212.433 84.66L211.803 82.85C212.476 82.5967 213.153 82.41 213.833 82.29C214.52 82.17 215.143 82.11 215.703 82.11C217.19 82.11 218.293 82.4267 219.013 83.06C219.733 83.6867 220.093 84.5767 220.093 85.73V90.21ZM215.353 91.39C215.753 91.39 216.156 91.2767 216.563 91.05C216.976 90.8233 217.3 90.5067 217.533 90.1V88.04H216.493C215.513 88.04 214.803 88.1967 214.363 88.51C213.93 88.8233 213.713 89.2667 213.713 89.84C213.713 90.3333 213.853 90.7167 214.133 90.99C214.413 91.2567 214.82 91.39 215.353 91.39ZM225.635 91.23C225.635 90.8567 225.725 90.5133 225.905 90.2C226.092 89.8867 226.342 89.6367 226.655 89.45C226.969 89.2633 227.315 89.17 227.695 89.17C228.082 89.17 228.432 89.2633 228.745 89.45C229.059 89.6367 229.305 89.8867 229.485 90.2C229.672 90.5133 229.765 90.8567 229.765 91.23C229.765 91.6033 229.672 91.95 229.485 92.27C229.305 92.5833 229.059 92.8333 228.745 93.02C228.432 93.2067 228.082 93.3 227.695 93.3C227.315 93.3 226.969 93.2067 226.655 93.02C226.342 92.8333 226.092 92.5833 225.905 92.27C225.725 91.95 225.635 91.6033 225.635 91.23Z" fill="#FBFFFD"/>
</svg>
