<svg width="32" height="117" viewBox="0 0 32 117" fill="none" xmlns="http://www.w3.org/2000/svg">
<g clip-path="url(#clip0_78_1331)">
<path d="M16.3305 -0.000309372L9.54696 17.488L16.3069 25.1884L23.0467 17.5471L16.3305 -0.000309372Z" fill="black" stroke="#1A1A1A" stroke-width="0.05" stroke-miterlimit="10"/>
<path d="M16.3451 35.1795L9.56135 28.4462L16.3086 21.659L22.7216 28.412L16.3451 35.1795Z" fill="black" stroke="#1A1A1A" stroke-width="0.05" stroke-miterlimit="10"/>
<path d="M14.5239 56.4248L9.77861 68.8299L16.1634 76.3663L23.26 69.0924L19.2406 56.5222C18.6476 56.6399 15.0447 56.5304 14.486 56.351L14.5239 56.4248Z" fill="black" stroke="#1A1A1A" stroke-width="0.05" stroke-miterlimit="10"/>
<path d="M14.0435 76.2886C14.0435 76.2886 7.80598 87.9679 1.07215 90.4892C1.07215 90.4892 17.1387 100.889 16.4896 118.369C16.4896 118.369 19.5957 97.6718 31.0809 91.1297C31.0809 91.1297 20.3614 84.6047 19.5406 76.4518L14.1174 76.2507L14.0435 76.2886Z" fill="black" stroke="#1A1A1A" stroke-width="0.05" stroke-miterlimit="10"/>
<path d="M10.5092 75.5847C15.0224 73.8294 19.6652 73.9648 24.0302 76.1064C19.517 77.8617 14.9481 77.6885 10.5092 75.5847Z" fill="#1A1A1A"/>
</g>
<defs>
<clipPath id="clip0_78_1331">
<rect width="32" height="117" fill="white"/>
</clipPath>
</defs>
</svg>
