<svg width="775" height="140" viewBox="0 0 775 140" fill="none" xmlns="http://www.w3.org/2000/svg">
<path d="M21.5093 3H752.569C762.514 3 771.078 12.0156 771.078 23.7876V116.212C771.078 127.984 762.514 137 752.569 137H21.5093C11.5639 137 3 127.984 3 116.212V23.7876C3 12.0156 11.5639 3 21.5093 3Z" fill="#2B3C12" fill-opacity="0.76" stroke="#57EB23" stroke-width="6"/>
<path d="M85.0474 1V135M183.94 1V135M283.311 1V135M382.203 1V135M481.574 1V135M580.467 1V135M675.538 1V135" stroke="#57EB23" stroke-width="0.2"/>
<path d="M773.989 35.7852L0.0615717 35.9179M773.995 72.3935L0.0673115 72.5262M774 107.587L0.0728295 107.72" stroke="#57EB23" stroke-width="0.2"/>
<path d="M26.7161 43.7885L29.6065 53.7039C29.6065 53.7039 28.2725 49.557 25.6362 54.3158C23 59.0747 32.4968 71.4689 32.4968 71.4689L35.8 83.0369L40.7549 88.4077L36.7529 90.337L36.2129 94.1917L23 97.91C45.7097 122.698 63.8774 123.525 87 99.3423L72.7707 95.9117L69.6581 90.337L67.4347 92.4811L68.8323 87.1683L74.2 80.9712L77.0903 71.8821C77.0903 71.8821 87.8258 61.1404 84.332 53.4579C83.5201 51.6726 80.3936 54.117 80.3936 54.117L83.4427 42.7376C83.4427 35.8763 79.2265 30.3752 76.328 27.2998C60.5655 10.5756 36.7529 24.2981 36.7529 24.2981C36.7529 24.2981 28.9395 28.7796 26.7161 43.7885Z" stroke="#57EB23" stroke-width="3"/>
<g style="mix-blend-mode:luminosity">
<path d="M45.4686 99.1775L42.374 85.5612L68.3687 84.6328L65.8931 99.1775H45.4686Z" fill="#E7D5BF" stroke="black"/>
<path d="M26.5918 99.1775L38.9702 95.1545L55.3717 102.581L71.1542 96.0829L86.0083 99.1775C76.7245 111.246 52.5865 131.671 26.5918 99.1775Z" fill="#124D1E" stroke="black" stroke-width="0.6"/>
<path d="M52.14 102.835L51.1184 98.7488H55.4294H59.7783L59.0124 102.834L55.4368 104.209L52.14 102.835Z" fill="#18341F" stroke="black"/>
<path d="M42.993 89.8936H39.8984L43.9214 92.6787L42.993 89.8936Z" fill="#091B0D" stroke="black" stroke-width="0.6"/>
<path d="M53.2052 99.487L43.3025 92.3694L39.5889 90.2031L38.3511 94.5356L53.2052 104.748V99.487Z" fill="#02310C" stroke="black"/>
<path d="M67.4401 90.5122H70.5347L66.5117 93.2974L67.4401 90.5122Z" fill="#091B0D" stroke="black" stroke-width="0.6"/>
<path d="M57.2284 99.7965L67.1311 92.6789L70.8447 90.5127L72.0825 94.8451L57.2284 105.057V99.7965Z" fill="#02310C" stroke="black"/>
<path d="M36.7913 80.6581L30.406 53.3935C30.319 53.0199 30.2789 52.6368 30.2872 52.2536C30.58 38.3807 43.1987 27.6409 56.9361 28.6226C69.8987 29.5497 80.382 40.6658 79.7577 53.7302C79.7397 54.0916 79.6803 54.4501 79.5781 54.7992C77.2812 62.6512 74.9856 70.5032 72.6887 78.3552C72.5008 78.9988 72.1707 79.5987 71.7232 80.1141L62.8628 90.3071C61.9084 91.4047 60.4858 92.0414 58.9858 92.0414H52.1571C51.0466 92.0414 49.9679 91.6923 49.0895 91.0502L38.6297 83.4013C37.6973 82.7196 37.0468 81.7488 36.7927 80.6594L36.7913 80.6581Z" fill="#FFE8D4"/>
<path d="M50.4206 48.1536C46.085 48.11 41.7494 48.0663 37.4138 48.0227L34.168 50.5532L51.3833 49.9956L50.4206 48.1536Z" fill="#460000"/>
<path d="M60.2483 48.1536C64.5839 48.11 68.9195 48.0663 73.2551 48.0227L76.5009 50.5532L59.2856 49.9956L60.2483 48.1536Z" fill="#460000"/>
<path opacity="0.82" d="M50.7431 56.9041C51.0166 56.6996 51.3936 56.3464 51.3853 55.9169C51.3757 55.4425 50.9019 55.133 50.3356 54.6939C49.7928 54.274 49.0691 53.6618 48.2611 52.811H41.1065L35.3979 55.9169C37.275 56.8509 39.1534 57.7862 41.0305 58.7202C42.3564 58.3057 43.8564 57.9089 45.5166 57.5858C47.4254 57.2136 49.1851 57.0091 50.7431 56.9041Z" fill="white"/>
<path d="M41.1641 52.8101C40.8409 54.9547 42.6019 56.7558 44.4748 56.7586C46.3491 56.7599 48.1156 54.9575 47.7924 52.8101H41.1641Z" fill="#42210B"/>
<path opacity="0.82" d="M59.6507 57.1018C59.38 56.9123 59.0001 56.5824 58.9808 56.1515C58.9587 55.677 59.3841 55.3416 59.891 54.8712C60.3744 54.4227 61.0181 53.7709 61.7239 52.8765C63.9738 52.7429 66.2238 52.6107 68.4724 52.4771L74.0608 55.2585C72.3508 56.296 70.6409 57.3336 68.931 58.3698C67.6506 58.0031 66.1644 57.6622 64.4987 57.425C62.6962 57.1686 61.0609 57.0896 59.6479 57.0991L59.6507 57.1018Z" fill="white"/>
<path d="M68.9794 52.4486C69.4421 54.5701 67.8026 56.4721 65.9352 56.5839C64.0651 56.6971 62.1825 55.001 62.3648 52.8386C64.5692 52.7077 66.775 52.5782 68.9794 52.4473V52.4486Z" fill="#42210B"/>
<path opacity="0.35" d="M34.0044 68.7704L49.0457 91.0203L38.3345 83.186C37.5914 82.642 37.072 81.8689 36.869 80.999L34.0044 68.769V68.7704Z" fill="#C59B6D"/>
<path opacity="0.35" d="M76.3699 65.7568L62.457 90.769L72.3989 79.3312L76.3699 65.7568Z" fill="#C59B6D"/>
<path d="M36.7417 82.2556L30.3888 54.876C30.3022 54.5008 30.2623 54.1161 30.2706 53.7313C30.5619 39.7998 43.1166 29.0147 56.7843 30.0006C69.6811 30.9316 80.1112 42.0946 79.4901 55.2142C79.4722 55.577 79.4132 55.9371 79.3115 56.2876C77.0262 64.1727 74.7423 72.0579 72.457 79.9431C72.2701 80.5893 71.9417 81.1918 71.4964 81.7093L62.681 91.9454C61.7314 93.0476 60.316 93.687 58.8236 93.687H52.0296C50.9247 93.687 49.8515 93.3364 48.9775 92.6916L38.5707 85.0104C37.6431 84.3258 36.9959 83.351 36.743 82.257L36.7417 82.2556Z" fill="#FFE8D4"/>
<path d="M58.7952 93.687H52.0501C50.9205 93.687 49.8059 93.322 48.9109 92.6615L38.5791 85.0201C37.6268 84.316 36.9597 83.3082 36.6991 82.1833L30.392 54.9501C30.3033 54.5647 30.2624 54.167 30.2706 53.7707C30.4097 47.1016 33.463 40.6818 38.6487 36.1591C43.6761 31.7752 50.2834 29.5295 56.7842 29.9993C69.9182 30.9486 80.104 42.2793 79.4901 55.2565C79.4724 55.631 79.411 56.0028 79.3073 56.3623L72.5022 79.8899C72.3085 80.5599 71.9756 81.1728 71.5145 81.7094L62.7612 91.892C61.7816 93.0319 60.3355 93.687 58.7952 93.687ZM55.0788 30.2799C49.2301 30.2799 43.4101 32.467 38.8874 36.4124C33.7741 40.8725 30.7631 47.2011 30.6253 53.7775C30.6171 54.1466 30.6553 54.517 30.7385 54.8765L37.0456 82.1084C37.2885 83.1557 37.9092 84.094 38.796 84.749L49.1278 92.3905C49.96 93.006 50.9982 93.3451 52.0501 93.3451H58.7952C60.229 93.3451 61.5742 92.7364 62.4869 91.6755L71.2402 81.4942C71.67 80.9944 71.9797 80.4238 72.1598 79.8L78.9649 56.2711C79.0617 55.9374 79.119 55.5901 79.1354 55.2415C79.7398 42.4468 69.7013 31.2768 56.7583 30.3412C56.2003 30.3003 55.6396 30.2812 55.0816 30.2812L55.0788 30.2799Z" fill="black"/>
<path d="M50.3307 48.1194C45.9951 48.0758 41.6595 48.0322 37.3239 47.9885L34.0781 50.5191L51.2934 49.9614L50.3307 48.1194Z" fill="#460000"/>
<path d="M33.5532 50.707L37.2604 47.8179L50.4439 47.9501L51.5807 50.1234L33.5546 50.707H33.5532ZM37.3874 48.1601L34.6029 50.3307L51.0075 49.8003L50.2174 48.2896L37.3861 48.1601H37.3874Z" fill="black"/>
<path d="M60.1575 48.1194C64.4931 48.0758 68.8287 48.0322 73.1643 47.9885L76.4101 50.5191L59.1948 49.9614L60.1575 48.1194Z" fill="#460000"/>
<path d="M76.9352 50.707L58.9092 50.1234L60.0459 47.9501L73.2295 47.8179L76.9366 50.707H76.9352ZM59.481 49.8003L75.8855 50.3307L73.101 48.1601L60.2697 48.2896L59.4796 49.8003H59.481Z" fill="black"/>
<path d="M50.6075 56.817C51.3782 55.8517 50.852 55.6376 49.9487 55.0868C49.1172 54.5455 48.3479 53.9088 47.6932 53.1835L48.1683 53.3839C45.7899 53.1835 43.4087 52.7513 41.0137 53.1548L41.2126 53.1044C39.4585 54.3615 37.6021 55.4931 35.6864 56.513L35.6615 55.2382C36.5897 55.7276 37.4944 56.2566 38.3825 56.8116C39.2679 57.3747 40.1449 57.9541 40.9709 58.6249L40.9046 58.7463C38.83 58.2009 36.877 57.4101 34.9502 56.5266L33.7251 55.9512C35.9751 54.6083 38.3632 53.418 40.8162 52.4486L40.9557 52.3913C41.5717 52.4622 42.1877 52.5249 42.8037 52.5522C44.6974 52.6967 46.5565 52.2086 48.4349 52.1609L48.6448 52.3695C49.2981 53.0185 49.9376 53.6729 50.6241 54.2974C51.2346 54.8182 52.0757 55.6935 51.3506 56.4789C51.16 56.6902 50.9307 56.8238 50.6973 56.9247L50.6075 56.817Z" fill="black"/>
<path opacity="0.82" d="M50.6518 56.8713C50.9253 56.6668 51.3023 56.3137 51.294 55.8842C51.2844 55.4097 50.8106 55.1002 50.2443 54.6612C49.7015 54.2413 48.9778 53.6291 48.1698 52.7783H41.0151L35.3066 55.8842C37.1837 56.8182 39.0621 57.7535 40.9392 58.6874C42.2651 58.273 43.7651 57.8762 45.4253 57.5531C47.3341 57.1808 49.0938 56.9763 50.6518 56.8713Z" fill="white"/>
<path d="M41.0737 52.7764C40.7505 54.921 42.5115 56.7221 44.3845 56.7249C46.2587 56.7262 48.0253 54.9238 47.7021 52.7764H41.0737Z" fill="#42210B"/>
<path d="M44.3861 56.8955H44.3834C43.4345 56.8955 42.4953 56.4633 41.8102 55.712C41.0685 54.8994 40.7342 53.8196 40.8958 52.752L40.9179 52.6047H47.8585L47.8806 52.752C48.0422 53.8209 47.7065 54.9008 46.9621 55.7134C46.2742 56.4646 45.3364 56.8955 44.3861 56.8955ZM41.2329 52.947C41.1362 53.8673 41.4414 54.7862 42.0823 55.487C42.6997 56.1633 43.5381 56.5519 44.3834 56.5532H44.3861C45.2314 56.5532 46.0712 56.166 46.69 55.4898C47.3322 54.789 47.6375 53.8686 47.5422 52.947H41.2342H41.2329Z" fill="black"/>
<path d="M59.5546 57.1232C58.0022 56.5205 58.487 55.3834 59.4552 54.4972C60.0988 53.8332 60.6941 53.1433 61.3046 52.4561L61.5007 52.2353C62.7839 52.1725 64.0767 52.373 65.3612 52.3866C66.5794 52.3961 67.7838 52.2393 68.9813 52.0239C71.1084 52.7179 73.1829 53.5605 75.1871 54.5231L76.4301 55.1489C75.1429 55.8593 73.7658 56.5996 72.4205 57.1954C71.455 57.6249 70.4799 58.038 69.4482 58.3639L69.3736 58.2466C70.9371 56.8423 72.6595 55.6629 74.4509 54.5531L74.5089 55.8265C72.531 54.9212 70.6028 53.9014 68.77 52.7506L68.9716 52.7888C66.5545 52.5284 64.2065 53.0983 61.846 53.4392L62.3074 53.2101C61.7024 53.9736 60.9759 54.654 60.1817 55.243C59.3198 55.8429 58.8019 56.0924 59.6375 57.0086L59.556 57.1204L59.5546 57.1232Z" fill="black"/>
<path opacity="0.82" d="M59.5594 57.0691C59.2887 56.8796 58.9088 56.5496 58.8895 56.1188C58.8674 55.6443 59.2928 55.3089 59.7997 54.8385C60.2831 54.39 60.9268 53.7382 61.6326 52.8438C63.8825 52.7102 66.1325 52.578 68.3811 52.4443L73.9695 55.2257C72.2595 56.2633 70.5496 57.3009 68.8397 58.3371C67.5593 57.9703 66.0731 57.6295 64.4074 57.3922C62.6049 57.1359 60.9696 57.0568 59.5566 57.0664L59.5594 57.0691Z" fill="white"/>
<path d="M68.8866 52.4159C69.3493 54.5374 67.7098 56.4394 65.8424 56.5512C63.9723 56.6644 62.0897 54.9683 62.272 52.8059C64.4764 52.675 66.6822 52.5454 68.8866 52.4146V52.4159Z" fill="#42210B"/>
<path d="M65.664 56.728C64.7773 56.728 63.8892 56.3585 63.2027 55.6958C62.4058 54.9282 62.0011 53.8702 62.0922 52.7931L62.1047 52.6458L69.0314 52.2368L69.0632 52.3813C69.2938 53.4366 69.0314 54.5342 68.3436 55.3891C67.7082 56.1799 66.8008 56.6652 65.8533 56.7225C65.7897 56.7266 65.7262 56.728 65.664 56.728ZM62.4431 52.9676C62.4072 53.8934 62.7732 54.7933 63.461 55.4559C64.124 56.0953 64.99 56.4321 65.8325 56.3817C66.6764 56.3312 67.4872 55.8935 68.059 55.1818C68.6516 54.4442 68.896 53.5089 68.74 52.5954L62.4431 52.9676Z" fill="black"/>
<path d="M53.3514 54.3922C53.8059 55.9725 53.8501 57.6249 53.6774 59.2447C53.6263 61.9388 53.2617 64.7312 51.9716 67.1635L51.9385 67.1512C52.7161 64.0208 53.8197 60.8685 53.4827 57.6249L53.3169 54.3963L53.3528 54.3909L53.3514 54.3922Z" fill="black"/>
<path d="M54.2747 72.5535C53.6504 72.5535 53.1144 72.2113 52.9225 72.0885C51.9584 71.4709 51.5205 70.631 51.5026 70.5956C50.9625 69.6834 50.2982 69.1558 49.765 68.7318C49.1849 68.2709 48.7264 67.9055 48.8065 67.292C48.87 66.8066 49.2678 66.3553 49.9874 65.9545L50.1697 66.249C49.5523 66.5939 49.2126 66.9593 49.1642 67.3342C49.1103 67.7433 49.4128 68.0051 49.9971 68.4686C50.5523 68.9104 51.2443 69.4598 51.823 70.4361C51.8313 70.4524 52.2443 71.2391 53.1241 71.8036C53.3327 71.9372 53.8879 72.2944 54.4832 72.1935C55.1061 72.0885 55.9003 71.2105 56.4818 70.5697C56.7346 70.2902 56.9542 70.0488 57.142 69.8811C57.8478 69.2499 58.4652 68.9145 58.9624 68.6431C59.7207 68.2314 60.0343 68.0596 59.8616 67.2906C59.7511 66.7943 59.1517 66.3526 58.0812 65.9776L58.2056 65.6572C59.4169 66.0813 60.0729 66.5925 60.2138 67.2197C60.4403 68.2341 59.9238 68.515 59.142 68.9404C58.6627 69.2008 58.0647 69.5267 57.3906 70.1293C57.2166 70.2847 56.9929 70.5315 56.7567 70.7919C56.1061 71.5091 55.2967 72.4035 54.5481 72.5289C54.457 72.5439 54.3658 72.5507 54.2774 72.5507L54.2747 72.5535Z" fill="black"/>
<path opacity="0.35" d="M33.9175 70.1693L48.9588 92.4192L38.2475 84.5849C37.5045 84.0409 36.9851 83.2678 36.7821 82.398L33.9175 70.168V70.1693Z" fill="#C59B6D"/>
<path opacity="0.35" d="M75.7962 67.6921L61.8848 92.7043L71.8266 81.2665L75.7962 67.6921Z" fill="#C59B6D"/>
<path d="M55.0102 57.9497C55.2049 59.1182 55.2422 60.2689 55.3279 61.4387C55.6966 63.3571 56.5046 65.1432 57.0557 67.0275L57.0226 67.0411C55.8707 65.3722 55.4826 63.398 55.2118 61.4551C54.9453 60.3371 54.7008 59.0323 55.0102 57.9497Z" fill="black"/>
<path d="M30.8586 55.377C29.3296 53.0278 26.7329 53.5023 26.5589 53.7586C26.3918 54.0054 26.3089 54.2931 26.2992 54.5862C26.2357 56.4909 26.3766 58.9274 27.1128 61.6488C28.6749 67.4175 32.6804 69.9589 34.6141 71.8527C33.661 66.3254 32.0022 60.7053 30.8586 55.3784V55.377Z" fill="#FFE5D1"/>
<path d="M30.7663 55.3433C29.2373 52.9941 26.6407 53.4686 26.4666 53.7249C26.2995 53.9717 26.2166 54.2594 26.207 54.5525C26.1434 56.4572 26.2843 58.8937 27.0205 61.6151C28.5826 67.3838 32.5881 69.9252 34.5218 71.8191C33.5688 66.2917 31.9099 60.6716 30.7663 55.3447V55.3433Z" fill="#FFE5D1"/>
<path d="M34.7927 72.3293L34.3922 71.938C34.051 71.604 33.6366 71.2413 33.196 70.8582C31.0635 68.9971 28.1436 66.4502 26.8467 61.6577C26.2224 59.3494 25.9461 56.958 26.0276 54.5474C26.0387 54.2106 26.1381 53.8943 26.3163 53.6325C26.453 53.4308 27.0152 53.3285 27.5165 53.3339C28.1685 53.3394 29.8038 53.5385 30.9212 55.2523L30.9447 55.3082C31.395 57.4038 31.935 59.5921 32.4599 61.7095C33.2775 65.0158 34.1228 68.4326 34.7016 71.7908L34.7941 72.3293H34.7927ZM27.4806 53.6762C27.0041 53.6762 26.6712 53.7743 26.6077 53.8289C26.4751 54.0266 26.395 54.2829 26.3867 54.5583C26.3066 56.9361 26.5787 59.2962 27.1947 61.5732C28.4654 66.2661 31.3397 68.7748 33.4391 70.6059C33.7237 70.8541 33.9985 71.094 34.2513 71.3245C33.6781 68.1463 32.8797 64.9177 32.1063 61.7886C31.5842 59.6794 31.0455 57.4992 30.5952 55.4077C29.79 54.1888 28.721 53.8111 27.9641 53.7089C27.7914 53.6857 27.6284 53.6762 27.4806 53.6762Z" fill="black"/>
<path d="M32.4389 68.0478C29.1406 65.0073 28.095 62.5 27.4555 60.2449C26.979 58.5624 26.4293 55.1429 27.3174 54.8648C27.8657 54.6957 28.6447 55.6583 29.8878 57.503C30.3629 58.2079 30.693 58.8214 30.9126 59.2264C31.3215 59.9844 31.693 60.7725 32.0176 61.5688L31.682 61.6915C31.3615 60.9061 30.9955 60.129 30.5922 59.3818C30.3767 58.981 30.0494 58.377 29.5839 57.6857C29.1475 57.0381 27.827 55.0693 27.4293 55.1879C27.0715 55.2997 27.0978 57.668 27.8022 60.1549C28.4279 62.3636 29.4527 64.8192 32.6875 67.8024L32.4361 68.0478H32.4389Z" fill="black"/>
<path d="M28.0222 59.123C27.8385 58.4495 27.8109 57.7678 27.9407 57.0997C28.0278 56.6498 28.1714 56.0649 28.3164 55.7717L28.6438 55.9149C28.5139 56.1794 28.3758 56.752 28.2957 57.1611C28.1755 57.7801 28.2018 58.4113 28.3717 59.0372L28.0222 59.123Z" fill="black"/>
<path d="M32.4751 64.7621C32.4571 64.7525 30.7099 63.6427 30.6188 61.8621C30.5801 61.0958 30.8688 60.6691 31.0607 60.3882L31.1201 60.2996L31.4268 60.4795L31.3632 60.5736C31.1864 60.834 30.9447 61.1899 30.9779 61.8457C31.0594 63.4355 32.6353 64.4567 32.6519 64.4649L32.4737 64.7621H32.4751Z" fill="black"/>
<path opacity="0.35" d="M32.5378 68.1459C30.6055 66.4007 29.5116 64.6459 28.9135 63.4966C28.7118 63.1107 28.0668 61.8305 27.6055 60.0266C27.1898 58.3987 26.6994 55.4646 27.3486 55.2464C27.995 55.0297 29.5544 57.5752 30.1207 58.4996C30.6428 59.3517 30.8638 59.8752 31.0999 60.3906C30.9936 60.5283 30.8886 60.666 30.7823 60.8037C30.6704 61.1214 30.3776 62.0415 30.7823 62.399C30.9853 63.8933 32.3168 64.7032 32.5364 64.8327V68.1459H32.5378Z" fill="#C59B6D"/>
<path d="M78.4827 56.0394C80.0117 53.6902 82.6084 54.1646 82.7824 54.421C82.9495 54.6677 83.0324 54.9554 83.0421 55.2486C83.1056 57.1533 82.9647 59.5897 82.2285 62.3112C80.6664 68.0798 76.6609 70.6213 74.7272 72.5151C75.6803 66.9877 77.3391 61.3677 78.4827 56.0407V56.0394Z" fill="#FFE5D1"/>
<path d="M78.575 56.0062C80.104 53.657 82.7007 54.1314 82.8747 54.3878C83.0418 54.6345 83.1247 54.9222 83.1344 55.2154C83.1979 57.1201 83.057 59.5565 82.3208 62.278C80.7587 68.0466 76.7532 70.5881 74.8195 72.4819C75.7726 66.9545 77.4314 61.3345 78.575 56.0075V56.0062Z" fill="#FFE5D1"/>
<path d="M74.5491 72.9917L74.9496 72.6004C75.2908 72.2663 75.7052 71.9036 76.1458 71.5205C78.2783 69.6594 81.1982 67.1125 82.4951 62.3201C83.1194 60.0118 83.3957 57.6203 83.3142 55.2098C83.3031 54.873 83.2037 54.5567 83.0255 54.2949C82.8888 54.0931 82.3266 53.9908 81.8253 53.9963C81.1733 54.0018 79.538 54.2008 78.4206 55.9147L78.3971 55.9706C77.9468 58.0662 77.4068 60.2545 76.8819 62.3719C76.0643 65.6782 75.219 69.095 74.6402 72.4531L74.5477 72.9917H74.5491ZM81.8612 54.3385C82.3377 54.3385 82.6705 54.4367 82.7341 54.4912C82.8667 54.6889 82.9468 54.9453 82.9551 55.2207C83.0352 57.5985 82.7631 59.9586 82.1471 62.2355C80.8764 66.9285 78.0021 69.4372 75.9027 71.2683C75.6181 71.5164 75.3433 71.7564 75.0905 71.9868C75.6637 68.8087 76.462 65.58 77.2355 62.451C77.7576 60.3417 78.2963 58.1616 78.7466 56.0701C79.5518 54.8512 80.6208 54.4735 81.3777 54.3712C81.5504 54.3481 81.7134 54.3385 81.8612 54.3385Z" fill="black"/>
<path d="M76.9024 68.7106C80.2007 65.6702 81.2463 63.1628 81.8858 60.9077C82.3623 59.2252 82.912 55.8057 82.0239 55.5276C81.4756 55.3585 80.6966 56.3211 79.4535 58.1658C78.9784 58.8707 78.6483 59.4843 78.4287 59.8892C78.0198 60.6473 77.6483 61.4354 77.3237 62.2316L77.6593 62.3543C77.9798 61.569 78.3458 60.7918 78.7491 60.0447C78.9646 59.6438 79.2919 59.0398 79.7574 58.3485C80.1938 57.7009 81.5143 55.7321 81.9121 55.8507C82.2698 55.9625 82.2435 58.3308 81.5391 60.8177C80.9134 63.0265 79.8886 65.482 76.6538 68.4652L76.9052 68.7106H76.9024Z" fill="black"/>
<path d="M81.3196 59.7854C81.5033 59.1119 81.5309 58.4301 81.4011 57.7621C81.314 57.3121 81.1704 56.7272 81.0254 56.4341L80.698 56.5772C80.8279 56.8417 80.966 57.4144 81.0461 57.8234C81.1663 58.4424 81.14 59.0737 80.9701 59.6995L81.3196 59.7854Z" fill="black"/>
<path d="M76.8667 65.4247C76.8847 65.4151 78.6319 64.3053 78.723 62.5247C78.7617 61.7584 78.473 61.3317 78.2811 61.0508L78.2217 60.9622L77.915 61.1421L77.9786 61.2362C78.1554 61.4966 78.3971 61.8525 78.3639 62.5083C78.2824 64.0981 76.7065 65.1193 76.6899 65.1275L76.8681 65.4247H76.8667Z" fill="black"/>
<path opacity="0.35" d="M76.804 68.8087C78.7363 67.0635 79.8302 65.3088 80.4283 64.1594C80.6299 63.7736 81.275 62.4933 81.7363 60.6895C82.152 59.0615 82.6424 56.1274 81.9932 55.9093C81.3468 55.6925 79.7874 58.238 79.2211 59.1624C78.699 60.0146 78.478 60.538 78.2418 61.0534C78.3482 61.1911 78.4532 61.3288 78.5595 61.4665C78.6714 61.7842 78.9642 62.7044 78.5595 63.0619C78.3565 64.5562 77.025 65.3661 76.8054 65.4956V68.8087H76.804Z" fill="#C59B6D"/>
<path d="M62.6592 77.7984L60.023 79.5115C59.7954 79.6597 59.5248 79.7395 59.2493 79.7395H50.7949C50.2901 79.7395 49.8018 79.5799 49.4026 79.2868L47.3801 77.7984H62.6592Z" fill="white"/>
<path d="M46.685 77.5949H63.2871L60.0785 79.6809C59.8129 79.8535 59.5044 79.9431 59.1828 79.9431H50.7283C50.179 79.9431 49.6379 79.7672 49.204 79.4481L46.685 77.5949ZM61.8981 78.0036H47.942L49.468 79.1256C49.8259 79.3894 50.2746 79.5344 50.7283 79.5344H59.1828C59.417 79.5344 59.643 79.4676 59.836 79.3422L61.8997 78.002L61.8981 78.0036Z" fill="black"/>
<path opacity="0.35" d="M50.9417 80.0708C51.9153 80.2697 53.0457 80.4909 54.0193 80.6897H55.1591C56.2375 80.4909 57.1592 80.2697 58.2368 80.0708H50.9409H50.9417Z" fill="#C5806D"/>
<path d="M28.7578 44.6175L32.4713 60.4947L34.0187 44.6175L39.5889 38.4283C53.7892 38.4283 60.8549 37.2464 73.3202 37.8093L78.8905 45.5459L79.5094 59.2567L83.223 44.6175C83.223 44.6175 83.0714 39.9782 81.9851 37.285C80.2376 32.9525 77.6527 30.4769 77.6527 30.4769C63.0846 12.2887 37.7322 23.2653 32.4713 32.2389C32.4713 32.2389 30.9127 35.0936 29.9957 38.4283C29.3547 40.7591 28.7578 44.6175 28.7578 44.6175Z" fill="#5F3232" stroke="black" stroke-linecap="round"/>
</g>
<path d="M144.83 41.19V44.98H149.73V46.97H144.83V50.99H150.78V53H142.09V39.17H150.71L150.43 41.19H144.83ZM157.312 51.35C157.932 51.35 158.429 51.2433 158.802 51.03C159.182 50.81 159.372 50.5033 159.372 50.11C159.372 49.85 159.309 49.63 159.182 49.45C159.062 49.27 158.822 49.1033 158.462 48.95C158.102 48.79 157.562 48.6133 156.842 48.42C156.162 48.2467 155.566 48.0333 155.052 47.78C154.546 47.52 154.149 47.1867 153.862 46.78C153.582 46.3733 153.442 45.86 153.442 45.24C153.442 44.62 153.616 44.0767 153.962 43.61C154.309 43.1367 154.809 42.77 155.462 42.51C156.122 42.2433 156.916 42.11 157.842 42.11C158.749 42.11 159.542 42.23 160.222 42.47C160.902 42.7033 161.486 42.9967 161.972 43.35L160.892 44.96C160.466 44.6867 160.002 44.4667 159.502 44.3C159.009 44.1267 158.476 44.04 157.902 44.04C157.282 44.04 156.829 44.13 156.542 44.31C156.262 44.49 156.122 44.74 156.122 45.06C156.122 45.2867 156.192 45.48 156.332 45.64C156.479 45.7933 156.739 45.9433 157.112 46.09C157.492 46.23 158.032 46.4 158.732 46.6C159.419 46.7867 160.016 47.0067 160.522 47.26C161.036 47.5133 161.432 47.85 161.712 48.27C161.992 48.69 162.132 49.24 162.132 49.92C162.132 50.6867 161.909 51.32 161.462 51.82C161.016 52.32 160.426 52.6933 159.692 52.94C158.966 53.18 158.176 53.3 157.322 53.3C156.322 53.3 155.449 53.1567 154.702 52.87C153.956 52.5833 153.322 52.2133 152.802 51.76L154.172 50.22C154.586 50.5467 155.056 50.8167 155.582 51.03C156.116 51.2433 156.692 51.35 157.312 51.35ZM168.984 51.35C169.604 51.35 170.101 51.2433 170.474 51.03C170.854 50.81 171.044 50.5033 171.044 50.11C171.044 49.85 170.981 49.63 170.854 49.45C170.734 49.27 170.494 49.1033 170.134 48.95C169.774 48.79 169.234 48.6133 168.514 48.42C167.834 48.2467 167.238 48.0333 166.724 47.78C166.218 47.52 165.821 47.1867 165.534 46.78C165.254 46.3733 165.114 45.86 165.114 45.24C165.114 44.62 165.288 44.0767 165.634 43.61C165.981 43.1367 166.481 42.77 167.134 42.51C167.794 42.2433 168.588 42.11 169.514 42.11C170.421 42.11 171.214 42.23 171.894 42.47C172.574 42.7033 173.158 42.9967 173.644 43.35L172.564 44.96C172.138 44.6867 171.674 44.4667 171.174 44.3C170.681 44.1267 170.148 44.04 169.574 44.04C168.954 44.04 168.501 44.13 168.214 44.31C167.934 44.49 167.794 44.74 167.794 45.06C167.794 45.2867 167.864 45.48 168.004 45.64C168.151 45.7933 168.411 45.9433 168.784 46.09C169.164 46.23 169.704 46.4 170.404 46.6C171.091 46.7867 171.688 47.0067 172.194 47.26C172.708 47.5133 173.104 47.85 173.384 48.27C173.664 48.69 173.804 49.24 173.804 49.92C173.804 50.6867 173.581 51.32 173.134 51.82C172.688 52.32 172.098 52.6933 171.364 52.94C170.638 53.18 169.848 53.3 168.994 53.3C167.994 53.3 167.121 53.1567 166.374 52.87C165.628 52.5833 164.994 52.2133 164.474 51.76L165.844 50.22C166.258 50.5467 166.728 50.8167 167.254 51.03C167.788 51.2433 168.364 51.35 168.984 51.35ZM178.877 48.51C178.93 49.17 179.08 49.7067 179.327 50.12C179.58 50.5333 179.903 50.8367 180.297 51.03C180.69 51.2233 181.127 51.32 181.607 51.32C182.113 51.32 182.59 51.24 183.037 51.08C183.483 50.92 183.923 50.6967 184.357 50.41L185.457 51.92C184.963 52.3333 184.373 52.6667 183.687 52.92C183.007 53.1733 182.257 53.3 181.437 53.3C180.29 53.3 179.323 53.0633 178.537 52.59C177.757 52.1167 177.167 51.46 176.767 50.62C176.367 49.78 176.167 48.8133 176.167 47.72C176.167 46.6667 176.363 45.7167 176.757 44.87C177.15 44.0233 177.717 43.3533 178.457 42.86C179.197 42.36 180.09 42.11 181.137 42.11C182.11 42.11 182.95 42.3233 183.657 42.75C184.363 43.1767 184.91 43.79 185.297 44.59C185.683 45.3833 185.877 46.34 185.877 47.46C185.877 47.64 185.87 47.8233 185.857 48.01C185.85 48.1967 185.84 48.3633 185.827 48.51H178.877ZM181.147 43.97C180.507 43.97 179.98 44.2 179.567 44.66C179.16 45.1133 178.92 45.8333 178.847 46.82H183.307C183.293 45.9267 183.107 45.23 182.747 44.73C182.393 44.2233 181.86 43.97 181.147 43.97ZM202.611 37.93V43.6C203.051 43.1 203.544 42.7267 204.091 42.48C204.644 42.2333 205.221 42.11 205.821 42.11C206.794 42.11 207.524 42.3867 208.011 42.94C208.504 43.4867 208.751 44.2567 208.751 45.25V53H206.111V45.84C206.111 45.2 206.011 44.7467 205.811 44.48C205.618 44.2133 205.284 44.08 204.811 44.08C204.531 44.08 204.258 44.1467 203.991 44.28C203.731 44.4067 203.484 44.58 203.251 44.8C203.024 45.02 202.811 45.2667 202.611 45.54V53H199.971V38.19L202.611 37.93ZM216.043 42.11C217.096 42.11 217.99 42.34 218.723 42.8C219.456 43.26 220.013 43.91 220.393 44.75C220.78 45.5833 220.973 46.56 220.973 47.68C220.973 48.8267 220.78 49.82 220.393 50.66C220.006 51.5 219.446 52.15 218.713 52.61C217.98 53.07 217.086 53.3 216.033 53.3C214.986 53.3 214.093 53.0767 213.353 52.63C212.62 52.1767 212.06 51.5333 211.673 50.7C211.286 49.86 211.093 48.86 211.093 47.7C211.093 46.5933 211.286 45.62 211.673 44.78C212.06 43.94 212.623 43.2867 213.363 42.82C214.103 42.3467 214.996 42.11 216.043 42.11ZM216.043 44.1C215.303 44.1 214.75 44.39 214.383 44.97C214.023 45.55 213.843 46.46 213.843 47.7C213.843 48.9533 214.023 49.87 214.383 50.45C214.743 51.0233 215.293 51.31 216.033 51.31C216.773 51.31 217.323 51.0233 217.683 50.45C218.043 49.87 218.223 48.9467 218.223 47.68C218.223 46.4467 218.043 45.5433 217.683 44.97C217.323 44.39 216.776 44.1 216.043 44.1ZM223.415 53V51.17H224.905V44.23H223.415V42.41H226.915L227.405 44.84C227.792 43.94 228.279 43.2633 228.865 42.81C229.452 42.35 230.189 42.12 231.075 42.12C231.415 42.12 231.715 42.1467 231.975 42.2C232.242 42.2533 232.495 42.3233 232.735 42.41L231.945 44.63C231.739 44.5767 231.542 44.5367 231.355 44.51C231.169 44.4767 230.959 44.46 230.725 44.46C229.992 44.46 229.352 44.7467 228.805 45.32C228.265 45.8867 227.845 46.6567 227.545 47.63V51.17H229.655V53H223.415ZM230.505 46.54V43.73L230.865 42.41H232.735L232.265 46.54H230.505ZM243.438 50.21C243.438 50.6167 243.498 50.9133 243.618 51.1C243.738 51.28 243.931 51.4167 244.198 51.51L243.628 53.28C243.061 53.22 242.578 53.08 242.178 52.86C241.784 52.6333 241.481 52.2967 241.268 51.85C240.868 52.3367 240.361 52.7 239.748 52.94C239.141 53.18 238.504 53.3 237.838 53.3C236.758 53.3 235.901 52.9933 235.268 52.38C234.634 51.7667 234.318 50.97 234.318 49.99C234.318 48.8633 234.758 47.9967 235.638 47.39C236.524 46.7767 237.778 46.47 239.398 46.47H240.878V45.9C240.878 45.2733 240.684 44.82 240.298 44.54C239.911 44.2533 239.354 44.11 238.628 44.11C238.288 44.11 237.861 44.1567 237.348 44.25C236.841 44.3367 236.318 44.4733 235.778 44.66L235.148 42.85C235.821 42.5967 236.498 42.41 237.178 42.29C237.864 42.17 238.488 42.11 239.048 42.11C240.534 42.11 241.638 42.4267 242.358 43.06C243.078 43.6867 243.438 44.5767 243.438 45.73V50.21ZM238.698 51.39C239.098 51.39 239.501 51.2767 239.908 51.05C240.321 50.8233 240.644 50.5067 240.878 50.1V48.04H239.838C238.858 48.04 238.148 48.1967 237.708 48.51C237.274 48.8233 237.058 49.2667 237.058 49.84C237.058 50.3333 237.198 50.7167 237.478 50.99C237.758 51.2567 238.164 51.39 238.698 51.39ZM240.798 36.57L241.868 38.62L237.338 40.43L236.598 39.07L240.798 36.57ZM246.76 53V51.17H248.25V44.23H246.76V42.41H250.26L250.75 44.84C251.136 43.94 251.623 43.2633 252.21 42.81C252.796 42.35 253.533 42.12 254.42 42.12C254.76 42.12 255.06 42.1467 255.32 42.2C255.586 42.2533 255.84 42.3233 256.08 42.41L255.29 44.63C255.083 44.5767 254.886 44.5367 254.7 44.51C254.513 44.4767 254.303 44.46 254.07 44.46C253.336 44.46 252.696 44.7467 252.15 45.32C251.61 45.8867 251.19 46.6567 250.89 47.63V51.17H253V53H246.76ZM253.85 46.54V43.73L254.21 42.41H256.08L255.61 46.54H253.85ZM264.422 42.41V51.13H267.212V53H258.682V51.13H261.782V44.28H258.782V42.41H264.422ZM262.712 37.07C263.199 37.07 263.592 37.22 263.892 37.52C264.199 37.82 264.352 38.1933 264.352 38.64C264.352 39.0867 264.199 39.4633 263.892 39.77C263.592 40.07 263.199 40.22 262.712 40.22C262.225 40.22 261.829 40.07 261.522 39.77C261.215 39.4633 261.062 39.0867 261.062 38.64C261.062 38.1933 261.215 37.82 261.522 37.52C261.829 37.22 262.225 37.07 262.712 37.07ZM274.404 42.11C275.457 42.11 276.351 42.34 277.084 42.8C277.817 43.26 278.374 43.91 278.754 44.75C279.141 45.5833 279.334 46.56 279.334 47.68C279.334 48.8267 279.141 49.82 278.754 50.66C278.367 51.5 277.807 52.15 277.074 52.61C276.341 53.07 275.447 53.3 274.394 53.3C273.347 53.3 272.454 53.0767 271.714 52.63C270.981 52.1767 270.421 51.5333 270.034 50.7C269.647 49.86 269.454 48.86 269.454 47.7C269.454 46.5933 269.647 45.62 270.034 44.78C270.421 43.94 270.984 43.2867 271.724 42.82C272.464 42.3467 273.357 42.11 274.404 42.11ZM274.404 44.1C273.664 44.1 273.111 44.39 272.744 44.97C272.384 45.55 272.204 46.46 272.204 47.7C272.204 48.9533 272.384 49.87 272.744 50.45C273.104 51.0233 273.654 51.31 274.394 51.31C275.134 51.31 275.684 51.0233 276.044 50.45C276.404 49.87 276.584 48.9467 276.584 47.68C276.584 46.4467 276.404 45.5433 276.044 44.97C275.684 44.39 275.137 44.1 274.404 44.1ZM295.598 48.51C295.652 49.17 295.802 49.7067 296.048 50.12C296.302 50.5333 296.625 50.8367 297.018 51.03C297.412 51.2233 297.848 51.32 298.328 51.32C298.835 51.32 299.312 51.24 299.758 51.08C300.205 50.92 300.645 50.6967 301.078 50.41L302.178 51.92C301.685 52.3333 301.095 52.6667 300.408 52.92C299.728 53.1733 298.978 53.3 298.158 53.3C297.012 53.3 296.045 53.0633 295.258 52.59C294.478 52.1167 293.888 51.46 293.488 50.62C293.088 49.78 292.888 48.8133 292.888 47.72C292.888 46.6667 293.085 45.7167 293.478 44.87C293.872 44.0233 294.438 43.3533 295.178 42.86C295.918 42.36 296.812 42.11 297.858 42.11C298.832 42.11 299.672 42.3233 300.378 42.75C301.085 43.1767 301.632 43.79 302.018 44.59C302.405 45.3833 302.598 46.34 302.598 47.46C302.598 47.64 302.592 47.8233 302.578 48.01C302.572 48.1967 302.562 48.3633 302.548 48.51H295.598ZM297.868 43.97C297.228 43.97 296.702 44.2 296.288 44.66C295.882 45.1133 295.642 45.8333 295.568 46.82H300.028C300.015 45.9267 299.828 45.23 299.468 44.73C299.115 44.2233 298.582 43.97 297.868 43.97ZM299.468 36.57L300.538 38.62L296.008 40.43L295.268 39.07L299.468 36.57ZM322.833 37.9L325.473 38.18V53H323.133L322.973 51.75C322.646 52.2167 322.236 52.5933 321.743 52.88C321.249 53.16 320.676 53.3 320.023 53.3C319.129 53.3 318.389 53.0667 317.803 52.6C317.223 52.1333 316.789 51.48 316.503 50.64C316.223 49.7933 316.083 48.81 316.083 47.69C316.083 46.61 316.249 45.65 316.583 44.81C316.916 43.97 317.396 43.31 318.023 42.83C318.656 42.35 319.406 42.11 320.273 42.11C320.793 42.11 321.266 42.2 321.693 42.38C322.119 42.56 322.499 42.8267 322.833 43.18V37.9ZM320.983 44.08C320.316 44.08 319.789 44.37 319.403 44.95C319.023 45.5233 318.833 46.44 318.833 47.7C318.833 48.5867 318.913 49.2967 319.073 49.83C319.233 50.3567 319.459 50.7367 319.753 50.97C320.046 51.2033 320.393 51.32 320.793 51.32C321.233 51.32 321.619 51.19 321.953 50.93C322.293 50.6633 322.586 50.3333 322.833 49.94V45.12C322.586 44.7933 322.309 44.54 322.003 44.36C321.703 44.1733 321.363 44.08 320.983 44.08ZM334.455 42.41V51.13H337.245V53H328.715V51.13H331.815V44.28H328.815V42.41H334.455ZM332.745 37.07C333.232 37.07 333.625 37.22 333.925 37.52C334.232 37.82 334.385 38.1933 334.385 38.64C334.385 39.0867 334.232 39.4633 333.925 39.77C333.625 40.07 333.232 40.22 332.745 40.22C332.258 40.22 331.862 40.07 331.555 39.77C331.248 39.4633 331.095 39.0867 331.095 38.64C331.095 38.1933 331.248 37.82 331.555 37.52C331.862 37.22 332.258 37.07 332.745 37.07ZM349.167 40.92L349.827 42.98C349.427 43.12 348.977 43.22 348.477 43.28C347.977 43.3333 347.404 43.36 346.757 43.36C347.404 43.64 347.894 43.9967 348.227 44.43C348.567 44.8567 348.737 45.4 348.737 46.06C348.737 46.7467 348.561 47.36 348.207 47.9C347.861 48.44 347.364 48.8633 346.717 49.17C346.077 49.4767 345.314 49.63 344.427 49.63C344.154 49.63 343.911 49.6167 343.697 49.59C343.484 49.5633 343.277 49.5267 343.077 49.48C342.944 49.5533 342.841 49.66 342.767 49.8C342.694 49.94 342.657 50.0833 342.657 50.23C342.657 50.43 342.734 50.6033 342.887 50.75C343.047 50.89 343.387 50.96 343.907 50.96H345.707C346.487 50.96 347.171 51.0933 347.757 51.36C348.351 51.62 348.811 51.9733 349.137 52.42C349.471 52.8667 349.637 53.38 349.637 53.96C349.637 55.0267 349.174 55.86 348.247 56.46C347.321 57.06 345.967 57.36 344.187 57.36C342.914 57.36 341.921 57.23 341.207 56.97C340.501 56.71 340.004 56.33 339.717 55.83C339.431 55.3367 339.287 54.74 339.287 54.04H341.637C341.637 54.38 341.704 54.66 341.837 54.88C341.977 55.1 342.234 55.2633 342.607 55.37C342.987 55.4767 343.531 55.53 344.237 55.53C344.944 55.53 345.497 55.4733 345.897 55.36C346.304 55.2467 346.591 55.0833 346.757 54.87C346.924 54.6633 347.007 54.42 347.007 54.14C347.007 53.76 346.847 53.4633 346.527 53.25C346.207 53.0367 345.754 52.93 345.167 52.93H343.417C342.351 52.93 341.574 52.7233 341.087 52.31C340.601 51.89 340.357 51.4067 340.357 50.86C340.357 50.4867 340.457 50.13 340.657 49.79C340.864 49.4433 341.157 49.15 341.537 48.91C340.884 48.5633 340.411 48.15 340.117 47.67C339.831 47.1833 339.687 46.5967 339.687 45.91C339.687 45.1433 339.881 44.4767 340.267 43.91C340.654 43.3433 341.191 42.9033 341.877 42.59C342.564 42.2767 343.354 42.12 344.247 42.12C345.067 42.1267 345.764 42.0767 346.337 41.97C346.917 41.8633 347.427 41.7167 347.867 41.53C348.314 41.3433 348.747 41.14 349.167 40.92ZM344.297 43.88C343.671 43.88 343.191 44.0633 342.857 44.43C342.531 44.7967 342.367 45.2833 342.367 45.89C342.367 46.5167 342.537 47.0133 342.877 47.38C343.217 47.7467 343.694 47.93 344.307 47.93C344.914 47.93 345.374 47.7533 345.687 47.4C346.007 47.04 346.167 46.5267 346.167 45.86C346.167 45.1933 346.007 44.6967 345.687 44.37C345.374 44.0433 344.911 43.88 344.297 43.88ZM357.799 42.41V51.13H360.589V53H352.059V51.13H355.159V44.28H352.159V42.41H357.799ZM356.089 37.07C356.576 37.07 356.969 37.22 357.269 37.52C357.576 37.82 357.729 38.1933 357.729 38.64C357.729 39.0867 357.576 39.4633 357.269 39.77C356.969 40.07 356.576 40.22 356.089 40.22C355.603 40.22 355.206 40.07 354.899 39.77C354.593 39.4633 354.439 39.0867 354.439 38.64C354.439 38.1933 354.593 37.82 354.899 37.52C355.206 37.22 355.603 37.07 356.089 37.07ZM372.522 52.41C372.128 52.67 371.652 52.8833 371.092 53.05C370.532 53.2167 369.925 53.3 369.272 53.3C367.978 53.3 367.005 52.9667 366.352 52.3C365.698 51.6267 365.372 50.7333 365.372 49.62V44.28H363.072V42.41H365.372V40.08L368.012 39.76V42.41H371.512L371.242 44.28H368.012V49.61C368.012 50.1567 368.145 50.5567 368.412 50.81C368.678 51.0633 369.108 51.19 369.702 51.19C370.082 51.19 370.428 51.1467 370.742 51.06C371.062 50.9667 371.352 50.85 371.612 50.71L372.522 52.41ZM383.504 50.21C383.504 50.6167 383.564 50.9133 383.684 51.1C383.804 51.28 383.997 51.4167 384.264 51.51L383.694 53.28C383.127 53.22 382.644 53.08 382.244 52.86C381.85 52.6333 381.547 52.2967 381.334 51.85C380.934 52.3367 380.427 52.7 379.814 52.94C379.207 53.18 378.57 53.3 377.904 53.3C376.824 53.3 375.967 52.9933 375.334 52.38C374.7 51.7667 374.384 50.97 374.384 49.99C374.384 48.8633 374.824 47.9967 375.704 47.39C376.59 46.7767 377.844 46.47 379.464 46.47H380.944V45.9C380.944 45.2733 380.75 44.82 380.364 44.54C379.977 44.2533 379.42 44.11 378.694 44.11C378.354 44.11 377.927 44.1567 377.414 44.25C376.907 44.3367 376.384 44.4733 375.844 44.66L375.214 42.85C375.887 42.5967 376.564 42.41 377.244 42.29C377.93 42.17 378.554 42.11 379.114 42.11C380.6 42.11 381.704 42.4267 382.424 43.06C383.144 43.6867 383.504 44.5767 383.504 45.73V50.21ZM378.764 51.39C379.164 51.39 379.567 51.2767 379.974 51.05C380.387 50.8233 380.71 50.5067 380.944 50.1V48.04H379.904C378.924 48.04 378.214 48.1967 377.774 48.51C377.34 48.8233 377.124 49.2667 377.124 49.84C377.124 50.3333 377.264 50.7167 377.544 50.99C377.824 51.2567 378.23 51.39 378.764 51.39ZM391.766 38.18V49.92C391.766 50.38 391.899 50.7067 392.166 50.9C392.439 51.0933 392.806 51.19 393.266 51.19C393.553 51.19 393.829 51.16 394.096 51.1C394.363 51.0333 394.616 50.9533 394.856 50.86L395.506 52.66C395.173 52.8267 394.766 52.9733 394.286 53.1C393.813 53.2333 393.263 53.3 392.636 53.3C391.483 53.3 390.609 52.97 390.016 52.31C389.423 51.65 389.126 50.76 389.126 49.64V40.05H385.956V38.18H391.766ZM402.788 49.17C403.355 49.17 403.825 49.36 404.198 49.74C404.578 50.12 404.768 50.5867 404.768 51.14C404.768 51.48 404.711 51.8233 404.598 52.17C404.485 52.51 404.311 52.9467 404.078 53.48L402.568 56.9H400.668L401.668 52.76C401.401 52.58 401.195 52.3467 401.048 52.06C400.901 51.7733 400.828 51.4633 400.828 51.13C400.828 50.5767 401.015 50.1133 401.388 49.74C401.761 49.36 402.228 49.17 402.788 49.17ZM421.743 53V42.41H424.043L424.233 43.72C424.686 43.1867 425.196 42.7867 425.763 42.52C426.329 42.2467 426.939 42.11 427.593 42.11C428.546 42.11 429.273 42.3867 429.773 42.94C430.273 43.4867 430.523 44.2567 430.523 45.25V53H427.883V46.28C427.883 45.7467 427.849 45.32 427.783 45C427.716 44.6733 427.589 44.44 427.403 44.3C427.216 44.1533 426.946 44.08 426.593 44.08C426.306 44.08 426.029 44.1433 425.763 44.27C425.503 44.3967 425.256 44.5667 425.023 44.78C424.796 44.9933 424.583 45.23 424.383 45.49V53H421.743ZM441.865 50.21C441.865 50.6167 441.925 50.9133 442.045 51.1C442.165 51.28 442.358 51.4167 442.625 51.51L442.055 53.28C441.488 53.22 441.005 53.08 440.605 52.86C440.211 52.6333 439.908 52.2967 439.695 51.85C439.295 52.3367 438.788 52.7 438.175 52.94C437.568 53.18 436.931 53.3 436.265 53.3C435.185 53.3 434.328 52.9933 433.695 52.38C433.061 51.7667 432.745 50.97 432.745 49.99C432.745 48.8633 433.185 47.9967 434.065 47.39C434.951 46.7767 436.205 46.47 437.825 46.47H439.305V45.9C439.305 45.2733 439.111 44.82 438.725 44.54C438.338 44.2533 437.781 44.11 437.055 44.11C436.715 44.11 436.288 44.1567 435.775 44.25C435.268 44.3367 434.745 44.4733 434.205 44.66L433.575 42.85C434.248 42.5967 434.925 42.41 435.605 42.29C436.291 42.17 436.915 42.11 437.475 42.11C438.961 42.11 440.065 42.4267 440.785 43.06C441.505 43.6867 441.865 44.5767 441.865 45.73V50.21ZM437.125 51.39C437.525 51.39 437.928 51.2767 438.335 51.05C438.748 50.8233 439.071 50.5067 439.305 50.1V48.04H438.265C437.285 48.04 436.575 48.1967 436.135 48.51C435.701 48.8233 435.485 49.2667 435.485 49.84C435.485 50.3333 435.625 50.7167 435.905 50.99C436.185 51.2567 436.591 51.39 437.125 51.39ZM438.795 40.14C438.421 40.14 438.105 40.0633 437.845 39.91C437.591 39.7567 437.358 39.6033 437.145 39.45C436.938 39.2967 436.721 39.22 436.495 39.22C436.255 39.22 436.058 39.2967 435.905 39.45C435.751 39.5967 435.595 39.8167 435.435 40.11L434.025 39.42C434.271 38.84 434.598 38.3433 435.005 37.93C435.411 37.51 435.895 37.3 436.455 37.3C436.855 37.3 437.181 37.3767 437.435 37.53C437.695 37.6833 437.925 37.8367 438.125 37.99C438.325 38.1433 438.541 38.22 438.775 38.22C438.988 38.22 439.171 38.15 439.325 38.01C439.485 37.8633 439.651 37.6433 439.825 37.35L441.235 38.05C440.975 38.6767 440.635 39.1833 440.215 39.57C439.801 39.95 439.328 40.14 438.795 40.14ZM449.487 42.11C450.54 42.11 451.434 42.34 452.167 42.8C452.9 43.26 453.457 43.91 453.837 44.75C454.224 45.5833 454.417 46.56 454.417 47.68C454.417 48.8267 454.224 49.82 453.837 50.66C453.45 51.5 452.89 52.15 452.157 52.61C451.424 53.07 450.53 53.3 449.477 53.3C448.43 53.3 447.537 53.0767 446.797 52.63C446.064 52.1767 445.504 51.5333 445.117 50.7C444.73 49.86 444.537 48.86 444.537 47.7C444.537 46.5933 444.73 45.62 445.117 44.78C445.504 43.94 446.067 43.2867 446.807 42.82C447.547 42.3467 448.44 42.11 449.487 42.11ZM449.487 44.1C448.747 44.1 448.194 44.39 447.827 44.97C447.467 45.55 447.287 46.46 447.287 47.7C447.287 48.9533 447.467 49.87 447.827 50.45C448.187 51.0233 448.737 51.31 449.477 51.31C450.217 51.31 450.767 51.0233 451.127 50.45C451.487 49.87 451.667 48.9467 451.667 47.68C451.667 46.4467 451.487 45.5433 451.127 44.97C450.767 44.39 450.22 44.1 449.487 44.1ZM473.901 42.11C474.835 42.11 475.581 42.34 476.141 42.8C476.708 43.2533 477.118 43.8967 477.371 44.73C477.631 45.5633 477.761 46.5467 477.761 47.68C477.761 48.7667 477.605 49.7333 477.291 50.58C476.978 51.4267 476.518 52.0933 475.911 52.58C475.311 53.06 474.571 53.3 473.691 53.3C472.611 53.3 471.738 52.9167 471.071 52.15V57.08L468.431 57.36V42.41H470.751L470.891 43.7C471.311 43.1533 471.781 42.7533 472.301 42.5C472.821 42.24 473.355 42.11 473.901 42.11ZM473.131 44.09C472.685 44.09 472.291 44.2233 471.951 44.49C471.618 44.7567 471.325 45.0867 471.071 45.48V50.22C471.311 50.58 471.585 50.85 471.891 51.03C472.198 51.21 472.545 51.3 472.931 51.3C473.605 51.3 474.118 51.02 474.471 50.46C474.831 49.8933 475.011 48.9767 475.011 47.71C475.011 46.8167 474.938 46.1067 474.791 45.58C474.651 45.0467 474.441 44.6667 474.161 44.44C473.881 44.2067 473.538 44.09 473.131 44.09ZM482.353 48.51C482.407 49.17 482.557 49.7067 482.803 50.12C483.057 50.5333 483.38 50.8367 483.773 51.03C484.167 51.2233 484.603 51.32 485.083 51.32C485.59 51.32 486.067 51.24 486.513 51.08C486.96 50.92 487.4 50.6967 487.833 50.41L488.933 51.92C488.44 52.3333 487.85 52.6667 487.163 52.92C486.483 53.1733 485.733 53.3 484.913 53.3C483.767 53.3 482.8 53.0633 482.013 52.59C481.233 52.1167 480.643 51.46 480.243 50.62C479.843 49.78 479.643 48.8133 479.643 47.72C479.643 46.6667 479.84 45.7167 480.233 44.87C480.627 44.0233 481.193 43.3533 481.933 42.86C482.673 42.36 483.567 42.11 484.613 42.11C485.587 42.11 486.427 42.3233 487.133 42.75C487.84 43.1767 488.387 43.79 488.773 44.59C489.16 45.3833 489.353 46.34 489.353 47.46C489.353 47.64 489.347 47.8233 489.333 48.01C489.327 48.1967 489.317 48.3633 489.303 48.51H482.353ZM484.623 43.97C483.983 43.97 483.457 44.2 483.043 44.66C482.637 45.1133 482.397 45.8333 482.323 46.82H486.783C486.77 45.9267 486.583 45.23 486.223 44.73C485.87 44.2233 485.337 43.97 484.623 43.97ZM491.876 53V51.17H493.366V44.23H491.876V42.41H495.376L495.866 44.84C496.252 43.94 496.739 43.2633 497.326 42.81C497.912 42.35 498.649 42.12 499.536 42.12C499.876 42.12 500.176 42.1467 500.436 42.2C500.702 42.2533 500.956 42.3233 501.196 42.41L500.406 44.63C500.199 44.5767 500.002 44.5367 499.816 44.51C499.629 44.4767 499.419 44.46 499.186 44.46C498.452 44.46 497.812 44.7467 497.266 45.32C496.726 45.8867 496.306 46.6567 496.006 47.63V51.17H498.116V53H491.876ZM498.966 46.54V43.73L499.326 42.41H501.196L500.726 46.54H498.966ZM512.588 52.41C512.194 52.67 511.718 52.8833 511.158 53.05C510.598 53.2167 509.991 53.3 509.338 53.3C508.044 53.3 507.071 52.9667 506.418 52.3C505.764 51.6267 505.438 50.7333 505.438 49.62V44.28H503.138V42.41H505.438V40.08L508.078 39.76V42.41H511.578L511.308 44.28H508.078V49.61C508.078 50.1567 508.211 50.5567 508.478 50.81C508.744 51.0633 509.174 51.19 509.768 51.19C510.148 51.19 510.494 51.1467 510.808 51.06C511.128 50.9667 511.418 50.85 511.678 50.71L512.588 52.41ZM517.37 48.51C517.423 49.17 517.573 49.7067 517.82 50.12C518.073 50.5333 518.397 50.8367 518.79 51.03C519.183 51.2233 519.62 51.32 520.1 51.32C520.607 51.32 521.083 51.24 521.53 51.08C521.977 50.92 522.417 50.6967 522.85 50.41L523.95 51.92C523.457 52.3333 522.867 52.6667 522.18 52.92C521.5 53.1733 520.75 53.3 519.93 53.3C518.783 53.3 517.817 53.0633 517.03 52.59C516.25 52.1167 515.66 51.46 515.26 50.62C514.86 49.78 514.66 48.8133 514.66 47.72C514.66 46.6667 514.857 45.7167 515.25 44.87C515.643 44.0233 516.21 43.3533 516.95 42.86C517.69 42.36 518.583 42.11 519.63 42.11C520.603 42.11 521.443 42.3233 522.15 42.75C522.857 43.1767 523.403 43.79 523.79 44.59C524.177 45.3833 524.37 46.34 524.37 47.46C524.37 47.64 524.363 47.8233 524.35 48.01C524.343 48.1967 524.333 48.3633 524.32 48.51H517.37ZM519.64 43.97C519 43.97 518.473 44.2 518.06 44.66C517.653 45.1133 517.413 45.8333 517.34 46.82H521.8C521.787 45.9267 521.6 45.23 521.24 44.73C520.887 44.2233 520.353 43.97 519.64 43.97ZM526.792 53V42.41H529.092L529.282 43.72C529.736 43.1867 530.246 42.7867 530.812 42.52C531.379 42.2467 531.989 42.11 532.642 42.11C533.596 42.11 534.322 42.3867 534.822 42.94C535.322 43.4867 535.572 44.2567 535.572 45.25V53H532.932V46.28C532.932 45.7467 532.899 45.32 532.832 45C532.766 44.6733 532.639 44.44 532.452 44.3C532.266 44.1533 531.996 44.08 531.642 44.08C531.356 44.08 531.079 44.1433 530.812 44.27C530.552 44.3967 530.306 44.5667 530.072 44.78C529.846 44.9933 529.632 45.23 529.432 45.49V53H526.792ZM543.794 51.18C544.261 51.18 544.698 51.0933 545.104 50.92C545.518 50.7467 545.914 50.5267 546.294 50.26L547.494 51.95C547.028 52.3433 546.464 52.6667 545.804 52.92C545.144 53.1733 544.438 53.3 543.684 53.3C542.578 53.3 541.628 53.07 540.834 52.61C540.048 52.1433 539.441 51.4967 539.014 50.67C538.594 49.8367 538.384 48.87 538.384 47.77C538.384 46.6833 538.598 45.7133 539.024 44.86C539.458 44 540.071 43.3267 540.864 42.84C541.664 42.3533 542.618 42.11 543.724 42.11C544.484 42.11 545.171 42.22 545.784 42.44C546.404 42.6533 546.971 42.9733 547.484 43.4L546.314 45.02C545.921 44.7467 545.514 44.54 545.094 44.4C544.681 44.2533 544.251 44.18 543.804 44.18C543.024 44.18 542.388 44.4633 541.894 45.03C541.408 45.59 541.164 46.5033 541.164 47.77C541.164 48.6033 541.278 49.27 541.504 49.77C541.738 50.27 542.051 50.63 542.444 50.85C542.844 51.07 543.294 51.18 543.794 51.18ZM552.387 48.51C552.44 49.17 552.59 49.7067 552.837 50.12C553.09 50.5333 553.413 50.8367 553.807 51.03C554.2 51.2233 554.637 51.32 555.117 51.32C555.623 51.32 556.1 51.24 556.547 51.08C556.993 50.92 557.433 50.6967 557.867 50.41L558.967 51.92C558.473 52.3333 557.883 52.6667 557.197 52.92C556.517 53.1733 555.767 53.3 554.947 53.3C553.8 53.3 552.833 53.0633 552.047 52.59C551.267 52.1167 550.677 51.46 550.277 50.62C549.877 49.78 549.677 48.8133 549.677 47.72C549.677 46.6667 549.873 45.7167 550.267 44.87C550.66 44.0233 551.227 43.3533 551.967 42.86C552.707 42.36 553.6 42.11 554.647 42.11C555.62 42.11 556.46 42.3233 557.167 42.75C557.873 43.1767 558.42 43.79 558.807 44.59C559.193 45.3833 559.387 46.34 559.387 47.46C559.387 47.64 559.38 47.8233 559.367 48.01C559.36 48.1967 559.35 48.3633 559.337 48.51H552.387ZM554.657 43.97C554.017 43.97 553.49 44.2 553.077 44.66C552.67 45.1133 552.43 45.8333 552.357 46.82H556.817C556.803 45.9267 556.617 45.23 556.257 44.73C555.903 44.2233 555.37 43.97 554.657 43.97ZM581.931 50.21C581.931 50.6167 581.991 50.9133 582.111 51.1C582.231 51.28 582.424 51.4167 582.691 51.51L582.121 53.28C581.554 53.22 581.071 53.08 580.671 52.86C580.278 52.6333 579.974 52.2967 579.761 51.85C579.361 52.3367 578.854 52.7 578.241 52.94C577.634 53.18 576.998 53.3 576.331 53.3C575.251 53.3 574.394 52.9933 573.761 52.38C573.128 51.7667 572.811 50.97 572.811 49.99C572.811 48.8633 573.251 47.9967 574.131 47.39C575.018 46.7767 576.271 46.47 577.891 46.47H579.371V45.9C579.371 45.2733 579.178 44.82 578.791 44.54C578.404 44.2533 577.848 44.11 577.121 44.11C576.781 44.11 576.354 44.1567 575.841 44.25C575.334 44.3367 574.811 44.4733 574.271 44.66L573.641 42.85C574.314 42.5967 574.991 42.41 575.671 42.29C576.358 42.17 576.981 42.11 577.541 42.11C579.028 42.11 580.131 42.4267 580.851 43.06C581.571 43.6867 581.931 44.5767 581.931 45.73V50.21ZM577.191 51.39C577.591 51.39 577.994 51.2767 578.401 51.05C578.814 50.8233 579.138 50.5067 579.371 50.1V48.04H578.331C577.351 48.04 576.641 48.1967 576.201 48.51C575.768 48.8233 575.551 49.2667 575.551 49.84C575.551 50.3333 575.691 50.7167 575.971 50.99C576.251 51.2567 576.658 51.39 577.191 51.39ZM599.075 48.51C599.129 49.17 599.279 49.7067 599.525 50.12C599.779 50.5333 600.102 50.8367 600.495 51.03C600.889 51.2233 601.325 51.32 601.805 51.32C602.312 51.32 602.789 51.24 603.235 51.08C603.682 50.92 604.122 50.6967 604.555 50.41L605.655 51.92C605.162 52.3333 604.572 52.6667 603.885 52.92C603.205 53.1733 602.455 53.3 601.635 53.3C600.489 53.3 599.522 53.0633 598.735 52.59C597.955 52.1167 597.365 51.46 596.965 50.62C596.565 49.78 596.365 48.8133 596.365 47.72C596.365 46.6667 596.562 45.7167 596.955 44.87C597.349 44.0233 597.915 43.3533 598.655 42.86C599.395 42.36 600.289 42.11 601.335 42.11C602.309 42.11 603.149 42.3233 603.855 42.75C604.562 43.1767 605.109 43.79 605.495 44.59C605.882 45.3833 606.075 46.34 606.075 47.46C606.075 47.64 606.069 47.8233 606.055 48.01C606.049 48.1967 606.039 48.3633 606.025 48.51H599.075ZM601.345 43.97C600.705 43.97 600.179 44.2 599.765 44.66C599.359 45.1133 599.119 45.8333 599.045 46.82H603.505C603.492 45.9267 603.305 45.23 602.945 44.73C602.592 44.2233 602.059 43.97 601.345 43.97ZM612.528 51.35C613.148 51.35 613.644 51.2433 614.018 51.03C614.398 50.81 614.588 50.5033 614.588 50.11C614.588 49.85 614.524 49.63 614.398 49.45C614.278 49.27 614.038 49.1033 613.678 48.95C613.318 48.79 612.778 48.6133 612.058 48.42C611.378 48.2467 610.781 48.0333 610.268 47.78C609.761 47.52 609.364 47.1867 609.078 46.78C608.798 46.3733 608.658 45.86 608.658 45.24C608.658 44.62 608.831 44.0767 609.178 43.61C609.524 43.1367 610.024 42.77 610.678 42.51C611.338 42.2433 612.131 42.11 613.058 42.11C613.964 42.11 614.758 42.23 615.438 42.47C616.118 42.7033 616.701 42.9967 617.188 43.35L616.108 44.96C615.681 44.6867 615.218 44.4667 614.718 44.3C614.224 44.1267 613.691 44.04 613.118 44.04C612.498 44.04 612.044 44.13 611.758 44.31C611.478 44.49 611.338 44.74 611.338 45.06C611.338 45.2867 611.408 45.48 611.548 45.64C611.694 45.7933 611.954 45.9433 612.328 46.09C612.708 46.23 613.248 46.4 613.948 46.6C614.634 46.7867 615.231 47.0067 615.738 47.26C616.251 47.5133 616.648 47.85 616.928 48.27C617.208 48.69 617.348 49.24 617.348 49.92C617.348 50.6867 617.124 51.32 616.678 51.82C616.231 52.32 615.641 52.6933 614.908 52.94C614.181 53.18 613.391 53.3 612.538 53.3C611.538 53.3 610.664 53.1567 609.918 52.87C609.171 52.5833 608.538 52.2133 608.018 51.76L609.388 50.22C609.801 50.5467 610.271 50.8167 610.798 51.03C611.331 51.2433 611.908 51.35 612.528 51.35ZM624.2 51.35C624.82 51.35 625.316 51.2433 625.69 51.03C626.07 50.81 626.26 50.5033 626.26 50.11C626.26 49.85 626.196 49.63 626.07 49.45C625.95 49.27 625.71 49.1033 625.35 48.95C624.99 48.79 624.45 48.6133 623.73 48.42C623.05 48.2467 622.453 48.0333 621.94 47.78C621.433 47.52 621.036 47.1867 620.75 46.78C620.47 46.3733 620.33 45.86 620.33 45.24C620.33 44.62 620.503 44.0767 620.85 43.61C621.196 43.1367 621.696 42.77 622.35 42.51C623.01 42.2433 623.803 42.11 624.73 42.11C625.636 42.11 626.43 42.23 627.11 42.47C627.79 42.7033 628.373 42.9967 628.86 43.35L627.78 44.96C627.353 44.6867 626.89 44.4667 626.39 44.3C625.896 44.1267 625.363 44.04 624.79 44.04C624.17 44.04 623.716 44.13 623.43 44.31C623.15 44.49 623.01 44.74 623.01 45.06C623.01 45.2867 623.08 45.48 623.22 45.64C623.366 45.7933 623.626 45.9433 624 46.09C624.38 46.23 624.92 46.4 625.62 46.6C626.306 46.7867 626.903 47.0067 627.41 47.26C627.923 47.5133 628.32 47.85 628.6 48.27C628.88 48.69 629.02 49.24 629.02 49.92C629.02 50.6867 628.796 51.32 628.35 51.82C627.903 52.32 627.313 52.6933 626.58 52.94C625.853 53.18 625.063 53.3 624.21 53.3C623.21 53.3 622.336 53.1567 621.59 52.87C620.843 52.5833 620.21 52.2133 619.69 51.76L621.06 50.22C621.473 50.5467 621.943 50.8167 622.47 51.03C623.003 51.2433 623.58 51.35 624.2 51.35ZM640.292 50.21C640.292 50.6167 640.352 50.9133 640.472 51.1C640.592 51.28 640.785 51.4167 641.052 51.51L640.482 53.28C639.915 53.22 639.432 53.08 639.032 52.86C638.639 52.6333 638.335 52.2967 638.122 51.85C637.722 52.3367 637.215 52.7 636.602 52.94C635.995 53.18 635.359 53.3 634.692 53.3C633.612 53.3 632.755 52.9933 632.122 52.38C631.489 51.7667 631.172 50.97 631.172 49.99C631.172 48.8633 631.612 47.9967 632.492 47.39C633.379 46.7767 634.632 46.47 636.252 46.47H637.732V45.9C637.732 45.2733 637.539 44.82 637.152 44.54C636.765 44.2533 636.209 44.11 635.482 44.11C635.142 44.11 634.715 44.1567 634.202 44.25C633.695 44.3367 633.172 44.4733 632.632 44.66L632.002 42.85C632.675 42.5967 633.352 42.41 634.032 42.29C634.719 42.17 635.342 42.11 635.902 42.11C637.389 42.11 638.492 42.4267 639.212 43.06C639.932 43.6867 640.292 44.5767 640.292 45.73V50.21ZM635.552 51.39C635.952 51.39 636.355 51.2767 636.762 51.05C637.175 50.8233 637.499 50.5067 637.732 50.1V48.04H636.692C635.712 48.04 635.002 48.1967 634.562 48.51C634.129 48.8233 633.912 49.2667 633.912 49.84C633.912 50.3333 634.052 50.7167 634.332 50.99C634.612 51.2567 635.019 51.39 635.552 51.39ZM657.436 48.51C657.49 49.17 657.64 49.7067 657.886 50.12C658.14 50.5333 658.463 50.8367 658.856 51.03C659.25 51.2233 659.686 51.32 660.166 51.32C660.673 51.32 661.15 51.24 661.596 51.08C662.043 50.92 662.483 50.6967 662.916 50.41L664.016 51.92C663.523 52.3333 662.933 52.6667 662.246 52.92C661.566 53.1733 660.816 53.3 659.996 53.3C658.85 53.3 657.883 53.0633 657.096 52.59C656.316 52.1167 655.726 51.46 655.326 50.62C654.926 49.78 654.726 48.8133 654.726 47.72C654.726 46.6667 654.923 45.7167 655.316 44.87C655.71 44.0233 656.276 43.3533 657.016 42.86C657.756 42.36 658.65 42.11 659.696 42.11C660.67 42.11 661.51 42.3233 662.216 42.75C662.923 43.1767 663.47 43.79 663.856 44.59C664.243 45.3833 664.436 46.34 664.436 47.46C664.436 47.64 664.43 47.8233 664.416 48.01C664.41 48.1967 664.4 48.3633 664.386 48.51H657.436ZM659.706 43.97C659.066 43.97 658.54 44.2 658.126 44.66C657.72 45.1133 657.48 45.8333 657.406 46.82H661.866C661.853 45.9267 661.666 45.23 661.306 44.73C660.953 44.2233 660.42 43.97 659.706 43.97ZM661.306 36.57L662.376 38.62L657.846 40.43L657.106 39.07L661.306 36.57ZM672.328 42.11C673.262 42.11 674.008 42.34 674.568 42.8C675.135 43.2533 675.545 43.8967 675.798 44.73C676.058 45.5633 676.188 46.5467 676.188 47.68C676.188 48.7667 676.032 49.7333 675.718 50.58C675.405 51.4267 674.945 52.0933 674.338 52.58C673.738 53.06 672.998 53.3 672.118 53.3C671.038 53.3 670.165 52.9167 669.498 52.15V57.08L666.858 57.36V42.41H669.178L669.318 43.7C669.738 43.1533 670.208 42.7533 670.728 42.5C671.248 42.24 671.782 42.11 672.328 42.11ZM671.558 44.09C671.112 44.09 670.718 44.2233 670.378 44.49C670.045 44.7567 669.752 45.0867 669.498 45.48V50.22C669.738 50.58 670.012 50.85 670.318 51.03C670.625 51.21 670.972 51.3 671.358 51.3C672.032 51.3 672.545 51.02 672.898 50.46C673.258 49.8933 673.438 48.9767 673.438 47.71C673.438 46.8167 673.365 46.1067 673.218 45.58C673.078 45.0467 672.868 44.6667 672.588 44.44C672.308 44.2067 671.965 44.09 671.558 44.09ZM682.931 42.11C683.984 42.11 684.877 42.34 685.611 42.8C686.344 43.26 686.901 43.91 687.281 44.75C687.667 45.5833 687.861 46.56 687.861 47.68C687.861 48.8267 687.667 49.82 687.281 50.66C686.894 51.5 686.334 52.15 685.601 52.61C684.867 53.07 683.974 53.3 682.921 53.3C681.874 53.3 680.981 53.0767 680.241 52.63C679.507 52.1767 678.947 51.5333 678.561 50.7C678.174 49.86 677.981 48.86 677.981 47.7C677.981 46.5933 678.174 45.62 678.561 44.78C678.947 43.94 679.511 43.2867 680.251 42.82C680.991 42.3467 681.884 42.11 682.931 42.11ZM682.931 44.1C682.191 44.1 681.637 44.39 681.271 44.97C680.911 45.55 680.731 46.46 680.731 47.7C680.731 48.9533 680.911 49.87 681.271 50.45C681.631 51.0233 682.181 51.31 682.921 51.31C683.661 51.31 684.211 51.0233 684.571 50.45C684.931 49.87 685.111 48.9467 685.111 47.68C685.111 46.4467 684.931 45.5433 684.571 44.97C684.211 44.39 683.664 44.1 682.931 44.1ZM695.533 51.18C696 51.18 696.436 51.0933 696.843 50.92C697.256 50.7467 697.653 50.5267 698.033 50.26L699.233 51.95C698.766 52.3433 698.203 52.6667 697.543 52.92C696.883 53.1733 696.176 53.3 695.423 53.3C694.316 53.3 693.366 53.07 692.573 52.61C691.786 52.1433 691.18 51.4967 690.753 50.67C690.333 49.8367 690.123 48.87 690.123 47.77C690.123 46.6833 690.336 45.7133 690.763 44.86C691.196 44 691.81 43.3267 692.603 42.84C693.403 42.3533 694.356 42.11 695.463 42.11C696.223 42.11 696.91 42.22 697.523 42.44C698.143 42.6533 698.71 42.9733 699.223 43.4L698.053 45.02C697.66 44.7467 697.253 44.54 696.833 44.4C696.42 44.2533 695.99 44.18 695.543 44.18C694.763 44.18 694.126 44.4633 693.633 45.03C693.146 45.59 692.903 46.5033 692.903 47.77C692.903 48.6033 693.016 49.27 693.243 49.77C693.476 50.27 693.79 50.63 694.183 50.85C694.583 51.07 695.033 51.18 695.533 51.18ZM710.325 50.21C710.325 50.6167 710.385 50.9133 710.505 51.1C710.625 51.28 710.818 51.4167 711.085 51.51L710.515 53.28C709.948 53.22 709.465 53.08 709.065 52.86C708.672 52.6333 708.368 52.2967 708.155 51.85C707.755 52.3367 707.248 52.7 706.635 52.94C706.028 53.18 705.392 53.3 704.725 53.3C703.645 53.3 702.788 52.9933 702.155 52.38C701.522 51.7667 701.205 50.97 701.205 49.99C701.205 48.8633 701.645 47.9967 702.525 47.39C703.412 46.7767 704.665 46.47 706.285 46.47H707.765V45.9C707.765 45.2733 707.572 44.82 707.185 44.54C706.798 44.2533 706.242 44.11 705.515 44.11C705.175 44.11 704.748 44.1567 704.235 44.25C703.728 44.3367 703.205 44.4733 702.665 44.66L702.035 42.85C702.708 42.5967 703.385 42.41 704.065 42.29C704.752 42.17 705.375 42.11 705.935 42.11C707.422 42.11 708.525 42.4267 709.245 43.06C709.965 43.6867 710.325 44.5767 710.325 45.73V50.21ZM705.585 51.39C705.985 51.39 706.388 51.2767 706.795 51.05C707.208 50.8233 707.532 50.5067 707.765 50.1V48.04H706.725C705.745 48.04 705.035 48.1967 704.595 48.51C704.162 48.8233 703.945 49.2667 703.945 49.84C703.945 50.3333 704.085 50.7167 704.365 50.99C704.645 51.2567 705.052 51.39 705.585 51.39ZM715.867 51.23C715.867 50.8567 715.957 50.5133 716.137 50.2C716.324 49.8867 716.574 49.6367 716.887 49.45C717.201 49.2633 717.547 49.17 717.927 49.17C718.314 49.17 718.664 49.2633 718.977 49.45C719.291 49.6367 719.537 49.8867 719.717 50.2C719.904 50.5133 719.997 50.8567 719.997 51.23C719.997 51.6033 719.904 51.95 719.717 52.27C719.537 52.5833 719.291 52.8333 718.977 53.02C718.664 53.2067 718.314 53.3 717.927 53.3C717.547 53.3 717.201 53.2067 716.887 53.02C716.574 52.8333 716.324 52.5833 716.137 52.27C715.957 51.95 715.867 51.6033 715.867 51.23Z" fill="#FBFFFD"/>
</svg>
