<?xml version="1.0" encoding="UTF-8"?>
<svg id="Camada_2" data-name="Camada 2" xmlns="http://www.w3.org/2000/svg" viewBox="0 0 870.43 615.39">
  <defs>
    <style>
      .cls-1 {
        fill: #979797;
      }

      .cls-2 {
        fill: #666;
      }

      .cls-3 {
        fill: #333;
      }

      .cls-4 {
        fill: #b1b1b1;
      }

      .cls-5, .cls-6 {
        fill: #1a1a1a;
      }

      .cls-7 {
        fill: gray;
      }

      .cls-8 {
        fill: #2e0035;
      }

      .cls-9 {
        fill: #3a3a3a;
      }

      .cls-10 {
        fill: #4d4d4d;
      }

      .cls-11 {
        font-size: 40.19px;
      }

      .cls-11, .cls-12, .cls-13, .cls-14, .cls-15 {
        fill: #cacaca;
        font-family: NimbusSan-Reg, 'Nimbus Sans';
      }

      .cls-12 {
        font-size: 29.67px;
      }

      .cls-13 {
        font-size: 26.79px;
      }

      .cls-14 {
        font-size: 28.27px;
      }

      .cls-15 {
        font-size: 53.58px;
      }

      .cls-6 {
        opacity: .36;
      }
    </style>
  </defs>
  <g id="Camada_1-2" data-name="Camada 1">
    <g>
      <g>
        <path d="m736.88,87.55c13.14.07,26.28.15,39.42.22,2.35,1.23,6.22,3.64,7.2,6.95,1.52,5.15-5,8.97-7.2,10.15h-39.42v-17.33Z"/>
        <path class="cls-3" d="m784.96,68.32h16.6c2.5,4.38,6.83,13.36,7.02,25.4.27,16.89-7.77,28.78-10.66,32.68l-12.96-1.48"/>
        <ellipse cx="784.96" cy="96.61" rx="9.49" ry="28.3"/>
      </g>
      <polygon points="66.66 106.34 0 615.39 870.43 615.39 763.26 106.34 66.66 106.34"/>
      <path class="cls-5" d="m99.86,106.34h643.93l39.36,205.42c.9,4.69-2.84,9.01-7.72,8.92l-681.2.33c-4.39-.08-7.82-3.74-7.53-8.03l13.16-206.63Z"/>
      <path class="cls-7" d="m745.75,43.85h5.14s.95-5.11,23.34-3.73l7.88-5.67h5.25v3.18c-2.17,1.94-5.33,4.31-9.54,6.22-7.18,3.25-13.73,3.48-17.42,3.32l-.14,5.58-14.52.42v-9.32Z"/>
      <g>
        <path class="cls-3" d="m106.84,12.56V0h643.77v52.75h14.38c1.51,2.86,3.62,7.8,4.07,14.25.64,9.18-2.47,16.18-4.07,19.24h-11.32l-3.81,20.09H109.71l-2.87-59.53V12.56Z"/>
        <rect id="regua_maior" data-name="regua maior" x="133.64" y="52.75" width="589.43" height="13.4"/>
        <path class="cls-1" d="m137.86,52.75h585.21v-14.45h-120.15c-1.57-6.55-6.73-11.46-12.85-12.34-7.5-1.07-15.22,4.09-17.38,12.34h-275.23c-.93-6.87-6.63-12.08-13.3-12.34-7.06-.27-13.39,5.06-14.38,12.34h-131.92v14.45Z"/>
        <path class="cls-1" d="m137.86,17.87c-.48.12-7.48,2.01-9.58,9.31-2.13,7.41,1.52,17.83,9.58,21.81v-31.12Z"/>
      </g>
      <g>
        <path class="cls-5" d="m763.26,320.68H93.45l-13.4,227.73h26.26l26.26,26.79h603.9l25.45-26.93,28.13.13-26.79-227.73Zm-13.4,187.55c-1.07,15.54-11.25,24.92-13.4,26.79h-80.38c2.14,6.83.8,11.52,0,13.4-3.88,9.78-17.41,16.08-33.22,13.4H227.41c-6.83-1.74-17.01-5.22-26.79-13.4-3.35-2.81-6.16-5.76-8.44-8.44h-56.13c-16.08,0-29.2-13.13-29.2-29.2v-56.13c1.21-5.89,4.42-16.75,13.4-26.79,4.69-5.22,9.51-8.84,13.4-11.12v-33.36c-1.34-.8-12.32-8.44-13.4-22.51-.8-10.58,4.42-20.76,13.4-26.79,200.94,3.08,401.88-3.08,602.83,0,3.21,3.75,11.92,23.84,13.4,40.19,1.88,22.1-10.98,37.37-13.4,40.19v61.35c1.61,1.47,14.74,13.53,13.4,32.42Z"/>
        <g>
          <path class="cls-5" d="m105,113.44h643.93l39.36,205.42c.9,4.69-2.84,9.01-7.72,8.92l-681.2.33c-4.39-.08-7.82-3.74-7.53-8.03l13.16-206.63Z"/>
          <path class="cls-10" d="m180.31,106.34h509.34c-21.88,4.21-38.54,21.65-41.3,42.36-3.34,25.05,14.21,50.68,41.3,56.48-25.05,22.52-108.66,91.93-235.28,98.44-150.71,7.74-252.64-79.28-274.06-98.44,27.09-5.8,44.64-31.43,41.3-56.48-2.76-20.71-19.41-38.15-41.3-42.36Z"/>
          <g>
            <polygon class="cls-5" points="257.57 217.97 257.22 217.4 318.01 180.43 318.36 181.01 257.57 217.97"/>
            <polygon class="cls-5" points="247.28 208.13 246.93 207.55 307.73 170.59 308.08 171.17 247.28 208.13"/>
            <polygon class="cls-5" points="273.38 229.98 272.99 229.45 328.47 189.09 328.86 189.63 273.38 229.98"/>
            <polygon class="cls-5" points="291.35 238.73 290.91 238.22 338.9 196.64 339.35 197.15 291.35 238.73"/>
            <polygon class="cls-5" points="309.75 248.36 309.28 247.89 351.99 204.55 352.46 205.02 309.75 248.36"/>
            <rect class="cls-5" x="319.92" y="232.11" width="54.56" height=".67" transform="translate(-47.61 369.2) rotate(-52.91)"/>
            <polygon class="cls-5" points="349.58 260.3 349.01 259.97 374.56 215.41 375.14 215.74 349.58 260.3"/>
            <polygon class="cls-5" points="366.16 264.07 365.55 263.79 385.24 219.2 385.85 219.48 366.16 264.07"/>
            <polygon class="cls-5" points="381.25 267.26 380.62 267.03 397.01 222.28 397.64 222.52 381.25 267.26"/>
            <polygon class="cls-5" points="399.73 269.8 399.08 269.67 408.23 224.87 408.88 225 399.73 269.8"/>
            <rect class="cls-5" x="395.63" y="248.68" width="45.46" height=".67" transform="translate(145.2 652.03) rotate(-86.63)"/>
            <rect class="cls-5" x="407.96" y="250.18" width="47.3" height=".67" transform="translate(164.38 671.98) rotate(-87.75)"/>
            <polygon class="cls-5" points="447.65 273.87 445.26 226.73 445.93 226.69 448.32 273.83 447.65 273.87"/>
            <polygon class="cls-5" points="465.05 274.89 455.06 225.5 455.71 225.37 465.71 274.76 465.05 274.89"/>
            <polygon class="cls-5" points="486.66 274.28 466.05 224.26 466.68 224 487.29 274.02 486.66 274.28"/>
            <polygon class="cls-5" points="506.03 272.48 477.7 221.9 478.28 221.57 506.6 272.15 506.03 272.48"/>
            <rect class="cls-5" x="505.98" y="212.93" width=".68" height="59.66" transform="translate(-52.18 300.78) rotate(-31.55)"/>
            <polygon class="cls-5" points="538.04 262.96 500.39 213.87 500.91 213.47 538.56 262.55 538.04 262.96"/>
            <polygon class="cls-5" points="554.95 257.79 510.95 209.29 511.44 208.84 555.45 257.34 554.95 257.79"/>
            <polygon class="cls-5" points="571.03 248.57 521.58 203.03 522.03 202.54 571.48 248.08 571.03 248.57"/>
            <polygon class="cls-5" points="582.14 241.47 532.69 195.94 533.13 195.44 582.58 240.97 582.14 241.47"/>
            <polygon class="cls-5" points="593.3 232.83 543.83 187.3 544.28 186.81 593.74 232.34 593.3 232.83"/>
            <polygon class="cls-5" points="602.35 224.59 552.9 179.06 553.34 178.56 602.8 224.1 602.35 224.59"/>
            <polygon class="cls-5" points="613.43 213.33 561.59 170.53 562.01 170.02 613.85 212.82 613.43 213.33"/>
            <g>
              <polygon class="cls-2" points="613.32 212.67 626.52 219.33 622.85 221.2 613.32 212.67"/>
              <polyline class="cls-5" points="613.32 212.67 614.17 217.69 622.59 225.02 626.42 223.52 626.52 219.33 622.85 221.2"/>
            </g>
            <g>
              <polygon class="cls-2" points="601.59 223.07 614.79 229.74 611.12 231.61 601.59 223.07"/>
              <polyline class="cls-5" points="601.59 223.07 602.44 228.1 610.86 235.42 614.69 233.93 614.79 229.74 611.12 231.61"/>
            </g>
            <g>
              <polygon class="cls-2" points="593.13 232.01 606.33 238.68 602.66 240.55 593.13 232.01"/>
              <polyline class="cls-5" points="593.13 232.01 593.99 237.04 602.4 244.36 606.23 242.87 606.33 238.68 602.66 240.55"/>
            </g>
            <g>
              <polygon class="cls-2" points="581.7 240.24 594.9 246.9 591.23 248.78 581.7 240.24"/>
              <polyline class="cls-5" points="581.7 240.24 582.56 245.27 590.97 252.59 594.81 251.1 594.9 246.9 591.23 248.78"/>
            </g>
            <g>
              <polygon class="cls-2" points="570.5 247.43 583.7 254.1 580.04 255.97 570.5 247.43"/>
              <polyline class="cls-5" points="570.5 247.43 571.36 252.46 579.77 259.78 583.61 258.29 583.7 254.1 580.04 255.97"/>
            </g>
            <g>
              <polygon class="cls-2" points="554.35 256.21 567.55 262.88 563.88 264.75 554.35 256.21"/>
              <polyline class="cls-5" points="554.35 256.21 555.21 261.24 563.62 268.57 567.46 267.07 567.55 262.88 563.88 264.75"/>
            </g>
            <g>
              <polygon class="cls-2" points="537.82 262.01 551.01 268.67 547.35 270.55 537.82 262.01"/>
              <polyline class="cls-5" points="537.82 262.01 538.67 267.04 547.08 274.36 550.92 272.87 551.01 268.67 547.35 270.55"/>
            </g>
            <g>
              <polygon class="cls-2" points="521.7 267.42 534.49 274.85 530.72 276.5 521.7 267.42"/>
              <polyline class="cls-5" points="521.7 267.42 522.26 272.49 530.23 280.29 534.15 279.03 534.49 274.85 530.72 276.5"/>
            </g>
            <g>
              <polygon class="cls-2" points="505.71 270.99 518.38 278.6 514.58 280.2 505.71 270.99"/>
              <polyline class="cls-5" points="505.71 270.99 506.19 276.06 514.04 283.99 517.98 282.78 518.38 278.6 514.58 280.2"/>
            </g>
            <g>
              <polygon class="cls-2" points="486.55 273.12 499.22 280.74 495.42 282.34 486.55 273.12"/>
              <polyline class="cls-5" points="486.55 273.12 487.03 278.2 494.88 286.12 498.82 284.92 499.22 280.74 495.42 282.34"/>
            </g>
            <g>
              <polygon class="cls-2" points="447.77 273.05 458.85 282.84 454.83 283.73 447.77 273.05"/>
              <polyline class="cls-5" points="447.77 273.05 447.32 278.13 453.6 287.35 457.69 286.88 458.85 282.84 454.83 283.73"/>
            </g>
            <g>
              <polygon class="cls-2" points="430.47 272.8 441.55 282.59 437.53 283.48 430.47 272.8"/>
              <polyline class="cls-5" points="430.47 272.8 430.02 277.88 436.31 287.1 440.4 286.62 441.55 282.59 437.53 283.48"/>
            </g>
            <g>
              <polygon class="cls-2" points="416.78 271 427.86 280.79 423.84 281.68 416.78 271"/>
              <polyline class="cls-5" points="416.78 271 416.34 276.08 422.62 285.3 426.71 284.83 427.86 280.79 423.84 281.68"/>
            </g>
            <g>
              <polygon class="cls-2" points="399.08 269.19 410.16 278.98 406.14 279.86 399.08 269.19"/>
              <polyline class="cls-5" points="399.08 269.19 398.63 274.27 404.92 283.49 409.01 283.01 410.16 278.98 406.14 279.86"/>
            </g>
            <g>
              <polygon class="cls-2" points="380.63 266.6 391.71 276.4 387.69 277.28 380.63 266.6"/>
              <polyline class="cls-5" points="380.63 266.6 380.18 271.68 386.46 280.9 390.55 280.43 391.71 276.4 387.69 277.28"/>
            </g>
            <g>
              <polygon class="cls-2" points="349.38 258.94 356.37 271.97 352.29 271.4 349.38 258.94"/>
              <polyline class="cls-5" points="349.38 258.94 347.2 263.55 349.89 274.37 353.89 275.35 356.37 271.97 352.29 271.4"/>
            </g>
            <g>
              <polygon class="cls-2" points="309.69 247.33 315.13 261.08 311.14 260.05 309.69 247.33"/>
              <polyline class="cls-5" points="309.69 247.33 306.99 251.66 308.41 262.72 312.27 264.15 315.13 261.08 311.14 260.05"/>
            </g>
            <g>
              <polygon class="cls-2" points="291.1 237.86 296.54 251.61 292.55 250.57 291.1 237.86"/>
              <polyline class="cls-5" points="291.1 237.86 288.4 242.18 289.82 253.25 293.68 254.68 296.54 251.61 292.55 250.57"/>
            </g>
            <g>
              <polygon class="cls-2" points="257.65 216.85 260.25 231.41 256.55 229.6 257.65 216.85"/>
              <polyline class="cls-5" points="257.65 216.85 254.14 220.56 253.35 231.68 256.85 233.85 260.25 231.41 256.55 229.6"/>
            </g>
            <g>
              <polygon class="cls-2" points="273.95 228.36 275.12 243.1 271.62 240.94 273.95 228.36"/>
              <polyline class="cls-5" points="273.95 228.36 270.1 231.71 268.22 242.7 271.49 245.2 275.12 243.1 271.62 240.94"/>
            </g>
            <g>
              <polygon class="cls-2" points="249.44 206.04 248.16 220.77 245.06 218.07 249.44 206.04"/>
              <polyline class="cls-5" points="249.44 206.04 245.09 208.71 241.42 219.24 244.24 222.24 248.16 220.77 245.06 218.07"/>
            </g>
            <g>
              <polygon class="cls-2" points="330.89 253.25 336.33 267 332.35 265.96 330.89 253.25"/>
              <polyline class="cls-5" points="330.89 253.25 328.19 257.58 329.62 268.64 333.48 270.07 336.33 267 332.35 265.96"/>
            </g>
            <g>
              <polygon class="cls-2" points="365.86 263 374.33 275.11 370.22 275.03 365.86 263"/>
              <polyline class="cls-5" points="365.86 263 364.23 267.83 368.18 278.26 372.27 278.76 374.33 275.11 370.22 275.03"/>
            </g>
            <g>
              <polygon class="cls-2" points="465.08 273.86 476.67 283.03 472.7 284.13 465.08 273.86"/>
              <polyline class="cls-5" points="465.08 273.86 464.91 278.96 471.68 287.82 475.74 287.12 476.67 283.03 472.7 284.13"/>
            </g>
          </g>
          <path class="cls-7" d="m347.48,142h75.62l-.37-35.67h25.38l-.16,35.67h70.64l43.22,28.3c-9.24,9.93-52.13,53.89-120.57,56.59-76.72,3.04-126.05-48.11-133.96-56.59,13.4-9.43,26.79-18.86,40.19-28.3Z"/>
        </g>
      </g>
      <path class="cls-1" d="m364.86,142.48c1.86,3.04,22.81,36.03,63.8,38.9,30.25,2.12,59.56-13,75.59-38.9h-139.39Z"/>
      <path class="cls-2" d="m385,142.48c2.11,2.95,17.47,23.67,45.14,25.66,32.97,2.38,52.8-24.03,53.98-25.66"/>
      <g>
        <ellipse class="cls-9" cx="123.66" cy="85.66" rx="14.95" ry="19.51"/>
        <path class="cls-5" d="m119.63,66.15h602.22c1.38.55,11.21,4.28,14.01,13.4,2.92,9.5,0,26.79-13.51,26.79H119.63c11.01-5.61,16.28-17.24,13.38-26.79-2.79-9.19-13.38-13.4-13.38-13.4Z"/>
      </g>
      <path class="cls-6" d="m111.64,36.31l-.65-.18c.16,2.03.62,3.57,1.03,4.61.98,2.51,2.15,3.56,2.63,6.06.25,1.28.2,2.38.12,3.11.34-.09.68-.17,1.02-.26.09-1.18.09-2.57-.13-4.09-.63-4.39-2.7-7.55-4.03-9.25Z"/>
      <g>
        <path class="cls-2" d="m452.52,74.24h6.29c-.29.27-2.79,2.71-2.36,6.29.31,2.51,1.88,4.06,2.36,4.49h78.35c7.5,5.35,11.12,11.03,9.67,13.69-1.41,2.61-7.46,1.98-9,1.8v7.18l-65.11-8.55.67,17.98c-.17.21-2.03,2.42-5.01,2.22-2.5-.17-3.96-1.92-4.2-2.22.07-5.99.15-11.98.22-17.98-6.33,1.5-12.85-1.41-15.84-6.95-3.22-5.97-1.6-13.64,3.94-17.96Z"/>
        <path id="regua_menor" data-name="regua menor" class="cls-2" d="m332.54,84.46c30,0,60,.02,90,.02.62,1.05,1.63,2.4,1.81,5.17.23,3.71-1.18,4.59-1.81,5.64h-14.61v20.06c-.82,1.37-2.32,2.11-3.78,1.87-1.66-.27-2.49-1.68-2.59-1.87-.31-6.69-.62-13.38-.93-20.06h-67.82c-2.41-1.42-3.72-4.05-3.3-6.56.45-2.69,2.67-4.07,3.02-4.29Z"/>
      </g>
      <g>
        <g>
          <rect class="cls-4" x="148.39" y="61.62" width=".41" height="4.53"/>
          <rect class="cls-4" x="145.76" y="61.62" width=".41" height="4.53"/>
          <rect class="cls-4" x="151.24" y="59.45" width=".8" height="6.7"/>
        </g>
        <g>
          <rect class="cls-4" x="156.66" y="61.62" width=".41" height="4.53"/>
          <rect class="cls-4" x="154.04" y="61.62" width=".41" height="4.53"/>
          <rect class="cls-4" x="159.51" y="59.45" width=".8" height="6.7"/>
        </g>
        <g>
          <rect class="cls-4" x="165.29" y="61.62" width=".41" height="4.53"/>
          <rect class="cls-4" x="162.67" y="61.62" width=".41" height="4.53"/>
          <rect class="cls-4" x="168.14" y="59.45" width=".8" height="6.7"/>
        </g>
        <g>
          <rect class="cls-4" x="174" y="61.62" width=".41" height="4.53"/>
          <rect class="cls-4" x="171.37" y="61.62" width=".41" height="4.53"/>
          <rect class="cls-4" x="176.85" y="59.45" width=".8" height="6.7"/>
        </g>
        <g>
          <rect class="cls-4" x="182.64" y="61.62" width=".41" height="4.53"/>
          <rect class="cls-4" x="180.01" y="61.62" width=".41" height="4.53"/>
          <rect class="cls-4" x="185.47" y="59.45" width=".8" height="6.7"/>
        </g>
        <g>
          <rect class="cls-4" x="191.41" y="61.62" width=".41" height="4.53"/>
          <rect class="cls-4" x="188.78" y="61.62" width=".41" height="4.53"/>
          <rect class="cls-4" x="194.25" y="59.45" width=".8" height="6.7"/>
        </g>
        <g>
          <rect class="cls-4" x="200.26" y="61.62" width=".41" height="4.53"/>
          <rect class="cls-4" x="197.63" y="61.62" width=".41" height="4.53"/>
          <rect class="cls-4" x="203.1" y="59.45" width=".8" height="6.7"/>
        </g>
        <g>
          <rect class="cls-4" x="208.75" y="61.62" width=".41" height="4.53"/>
          <rect class="cls-4" x="206.12" y="61.62" width=".41" height="4.53"/>
          <rect class="cls-4" x="211.59" y="59.45" width=".8" height="6.7"/>
        </g>
        <g>
          <rect class="cls-4" x="216.88" y="61.62" width=".41" height="4.53"/>
          <rect class="cls-4" x="214.25" y="61.62" width=".41" height="4.53"/>
          <rect class="cls-4" x="219.72" y="59.45" width=".8" height="6.7"/>
        </g>
        <g>
          <rect class="cls-4" x="225.29" y="61.62" width=".41" height="4.53"/>
          <rect class="cls-4" x="222.67" y="61.62" width=".41" height="4.53"/>
          <rect class="cls-4" x="228.13" y="59.45" width=".8" height="6.7"/>
        </g>
        <g>
          <rect class="cls-4" x="233.85" y="61.62" width=".41" height="4.53"/>
          <rect class="cls-4" x="231.23" y="61.62" width=".41" height="4.53"/>
          <rect class="cls-4" x="236.7" y="59.45" width=".8" height="6.7"/>
        </g>
        <g>
          <rect class="cls-4" x="242.7" y="61.62" width=".41" height="4.53"/>
          <rect class="cls-4" x="240.07" y="61.62" width=".41" height="4.53"/>
          <rect class="cls-4" x="245.55" y="59.45" width=".8" height="6.7"/>
        </g>
        <g>
          <rect class="cls-4" x="252.31" y="61.62" width=".41" height="4.53"/>
          <rect class="cls-4" x="249.69" y="61.62" width=".41" height="4.53"/>
          <rect class="cls-4" x="255.16" y="59.45" width=".8" height="6.7"/>
        </g>
      </g>
      <g>
        <g>
          <rect class="cls-4" x="261.72" y="61.5" width=".41" height="4.54"/>
          <rect class="cls-4" x="259.09" y="61.5" width=".41" height="4.54"/>
          <rect class="cls-4" x="264.56" y="59.35" width=".8" height="6.7"/>
        </g>
        <g>
          <rect class="cls-4" x="269.99" y="61.5" width=".41" height="4.54"/>
          <rect class="cls-4" x="267.36" y="61.5" width=".41" height="4.54"/>
          <rect class="cls-4" x="272.83" y="59.35" width=".8" height="6.7"/>
        </g>
        <g>
          <rect class="cls-4" x="278.62" y="61.5" width=".41" height="4.54"/>
          <rect class="cls-4" x="276" y="61.5" width=".41" height="4.54"/>
          <rect class="cls-4" x="281.46" y="59.35" width=".8" height="6.7"/>
        </g>
        <g>
          <rect class="cls-4" x="287.33" y="61.5" width=".41" height="4.54"/>
          <rect class="cls-4" x="284.7" y="61.5" width=".41" height="4.54"/>
          <rect class="cls-4" x="290.17" y="59.35" width=".8" height="6.7"/>
        </g>
        <g>
          <rect class="cls-4" x="295.96" y="61.5" width=".41" height="4.54"/>
          <rect class="cls-4" x="293.33" y="61.5" width=".41" height="4.54"/>
          <rect class="cls-4" x="298.8" y="59.35" width=".8" height="6.7"/>
        </g>
        <g>
          <rect class="cls-4" x="304.74" y="61.5" width=".41" height="4.54"/>
          <rect class="cls-4" x="302.11" y="61.5" width=".41" height="4.54"/>
          <rect class="cls-4" x="307.58" y="59.35" width=".8" height="6.7"/>
        </g>
        <g>
          <rect class="cls-4" x="313.58" y="61.5" width=".41" height="4.54"/>
          <rect class="cls-4" x="310.96" y="61.5" width=".41" height="4.54"/>
          <rect class="cls-4" x="316.43" y="59.35" width=".8" height="6.7"/>
        </g>
        <g>
          <rect class="cls-4" x="322.07" y="61.5" width=".41" height="4.54"/>
          <rect class="cls-4" x="319.45" y="61.5" width=".41" height="4.54"/>
          <rect class="cls-4" x="324.92" y="59.35" width=".8" height="6.7"/>
        </g>
        <g>
          <rect class="cls-4" x="330.2" y="61.5" width=".41" height="4.54"/>
          <rect class="cls-4" x="327.57" y="61.5" width=".41" height="4.54"/>
          <rect class="cls-4" x="333.05" y="59.35" width=".8" height="6.7"/>
        </g>
        <g>
          <rect class="cls-4" x="338.62" y="61.5" width=".41" height="4.54"/>
          <rect class="cls-4" x="335.99" y="61.5" width=".41" height="4.54"/>
          <rect class="cls-4" x="341.46" y="59.35" width=".8" height="6.7"/>
        </g>
        <g>
          <rect class="cls-4" x="347.18" y="61.5" width=".41" height="4.54"/>
          <rect class="cls-4" x="344.55" y="61.5" width=".41" height="4.54"/>
          <rect class="cls-4" x="350.02" y="59.35" width=".8" height="6.7"/>
        </g>
        <g>
          <rect class="cls-4" x="356.03" y="61.5" width=".41" height="4.54"/>
          <rect class="cls-4" x="353.4" y="61.5" width=".41" height="4.54"/>
          <rect class="cls-4" x="358.87" y="59.35" width=".8" height="6.7"/>
        </g>
        <g>
          <rect class="cls-4" x="365.64" y="61.5" width=".41" height="4.54"/>
          <rect class="cls-4" x="363.01" y="61.5" width=".41" height="4.54"/>
          <rect class="cls-4" x="368.48" y="59.35" width=".8" height="6.7"/>
        </g>
      </g>
      <g>
        <g>
          <rect class="cls-4" x="375.43" y="61.56" width=".41" height="4.54"/>
          <rect class="cls-4" x="372.8" y="61.56" width=".41" height="4.54"/>
          <rect class="cls-4" x="378.27" y="59.4" width=".8" height="6.7"/>
        </g>
        <g>
          <rect class="cls-4" x="383.7" y="61.56" width=".41" height="4.54"/>
          <rect class="cls-4" x="381.07" y="61.56" width=".41" height="4.54"/>
          <rect class="cls-4" x="386.55" y="59.4" width=".8" height="6.7"/>
        </g>
        <g>
          <rect class="cls-4" x="392.34" y="61.56" width=".41" height="4.54"/>
          <rect class="cls-4" x="389.71" y="61.56" width=".41" height="4.54"/>
          <rect class="cls-4" x="395.17" y="59.4" width=".8" height="6.7"/>
        </g>
        <g>
          <rect class="cls-4" x="401.04" y="61.56" width=".41" height="4.54"/>
          <rect class="cls-4" x="398.41" y="61.56" width=".41" height="4.54"/>
          <rect class="cls-4" x="403.88" y="59.4" width=".8" height="6.7"/>
        </g>
        <g>
          <rect class="cls-4" x="409.67" y="61.56" width=".41" height="4.54"/>
          <rect class="cls-4" x="407.05" y="61.56" width=".41" height="4.54"/>
          <rect class="cls-4" x="412.52" y="59.4" width=".8" height="6.7"/>
        </g>
        <g>
          <rect class="cls-4" x="418.45" y="61.56" width=".41" height="4.54"/>
          <rect class="cls-4" x="415.82" y="61.56" width=".41" height="4.54"/>
          <rect class="cls-4" x="421.29" y="59.4" width=".8" height="6.7"/>
        </g>
        <g>
          <rect class="cls-4" x="427.3" y="61.56" width=".41" height="4.54"/>
          <rect class="cls-4" x="424.67" y="61.56" width=".41" height="4.54"/>
          <rect class="cls-4" x="430.14" y="59.4" width=".8" height="6.7"/>
        </g>
        <g>
          <rect class="cls-4" x="435.78" y="61.56" width=".41" height="4.54"/>
          <rect class="cls-4" x="433.16" y="61.56" width=".41" height="4.54"/>
          <rect class="cls-4" x="438.63" y="59.4" width=".8" height="6.7"/>
        </g>
        <g>
          <rect class="cls-4" x="443.91" y="61.56" width=".41" height="4.54"/>
          <rect class="cls-4" x="441.29" y="61.56" width=".41" height="4.54"/>
          <rect class="cls-4" x="446.76" y="59.4" width=".8" height="6.7"/>
        </g>
        <g>
          <rect class="cls-4" x="452.34" y="61.56" width=".39" height="4.54"/>
          <rect class="cls-4" x="449.71" y="61.56" width=".39" height="4.54"/>
          <rect class="cls-4" x="455.16" y="59.4" width=".81" height="6.7"/>
        </g>
        <g>
          <rect class="cls-4" x="460.89" y="61.56" width=".39" height="4.54"/>
          <rect class="cls-4" x="458.28" y="61.56" width=".39" height="4.54"/>
          <rect class="cls-4" x="463.73" y="59.4" width=".81" height="6.7"/>
        </g>
        <g>
          <rect class="cls-4" x="469.75" y="61.56" width=".39" height="4.54"/>
          <rect class="cls-4" x="467.12" y="61.56" width=".39" height="4.54"/>
          <rect class="cls-4" x="472.58" y="59.4" width=".81" height="6.7"/>
        </g>
        <g>
          <rect class="cls-4" x="479.35" y="61.56" width=".39" height="4.54"/>
          <rect class="cls-4" x="476.74" y="61.56" width=".39" height="4.54"/>
          <rect class="cls-4" x="482.19" y="59.4" width=".81" height="6.7"/>
        </g>
      </g>
      <g>
        <g>
          <rect class="cls-4" x="488.76" y="61.45" width=".39" height="4.54"/>
          <rect class="cls-4" x="486.14" y="61.45" width=".39" height="4.54"/>
          <rect class="cls-4" x="491.6" y="59.29" width=".81" height="6.7"/>
        </g>
        <g>
          <rect class="cls-4" x="497.04" y="61.45" width=".39" height="4.54"/>
          <rect class="cls-4" x="494.41" y="61.45" width=".39" height="4.54"/>
          <rect class="cls-4" x="499.86" y="59.29" width=".81" height="6.7"/>
        </g>
        <g>
          <rect class="cls-4" x="505.66" y="61.45" width=".39" height="4.54"/>
          <rect class="cls-4" x="503.04" y="61.45" width=".39" height="4.54"/>
          <rect class="cls-4" x="508.5" y="59.29" width=".81" height="6.7"/>
        </g>
        <g>
          <rect class="cls-4" x="514.37" y="61.45" width=".39" height="4.54"/>
          <rect class="cls-4" x="511.74" y="61.45" width=".39" height="4.54"/>
          <rect class="cls-4" x="517.2" y="59.29" width=".81" height="6.7"/>
        </g>
        <g>
          <rect class="cls-4" x="523.01" y="61.45" width=".39" height="4.54"/>
          <rect class="cls-4" x="520.38" y="61.45" width=".39" height="4.54"/>
          <rect class="cls-4" x="525.83" y="59.29" width=".81" height="6.7"/>
        </g>
        <g>
          <rect class="cls-4" x="531.79" y="61.45" width=".39" height="4.54"/>
          <rect class="cls-4" x="529.16" y="61.45" width=".39" height="4.54"/>
          <rect class="cls-4" x="534.61" y="59.29" width=".81" height="6.7"/>
        </g>
        <g>
          <rect class="cls-4" x="540.63" y="61.45" width=".39" height="4.54"/>
          <rect class="cls-4" x="538" y="61.45" width=".39" height="4.54"/>
          <rect class="cls-4" x="543.45" y="59.29" width=".81" height="6.7"/>
        </g>
        <g>
          <rect class="cls-4" x="549.12" y="61.45" width=".39" height="4.54"/>
          <rect class="cls-4" x="546.49" y="61.45" width=".39" height="4.54"/>
          <rect class="cls-4" x="551.94" y="59.29" width=".81" height="6.7"/>
        </g>
        <g>
          <rect class="cls-4" x="557.24" y="61.45" width=".39" height="4.54"/>
          <rect class="cls-4" x="554.61" y="61.45" width=".39" height="4.54"/>
          <rect class="cls-4" x="560.08" y="59.29" width=".81" height="6.7"/>
        </g>
        <g>
          <rect class="cls-4" x="565.67" y="61.45" width=".39" height="4.54"/>
          <rect class="cls-4" x="563.04" y="61.45" width=".39" height="4.54"/>
          <rect class="cls-4" x="568.49" y="59.29" width=".81" height="6.7"/>
        </g>
        <g>
          <rect class="cls-4" x="574.22" y="61.45" width=".39" height="4.54"/>
          <rect class="cls-4" x="571.59" y="61.45" width=".39" height="4.54"/>
          <rect class="cls-4" x="577.05" y="59.29" width=".81" height="6.7"/>
        </g>
        <g>
          <rect class="cls-4" x="583.07" y="61.45" width=".39" height="4.54"/>
          <rect class="cls-4" x="580.45" y="61.45" width=".39" height="4.54"/>
          <rect class="cls-4" x="585.91" y="59.29" width=".81" height="6.7"/>
        </g>
        <g>
          <rect class="cls-4" x="592.68" y="61.45" width=".39" height="4.54"/>
          <rect class="cls-4" x="590.05" y="61.45" width=".39" height="4.54"/>
          <rect class="cls-4" x="595.51" y="59.29" width=".81" height="6.7"/>
        </g>
      </g>
      <g>
        <g>
          <rect class="cls-4" x="601.04" y="61.45" width=".39" height="4.54"/>
          <rect class="cls-4" x="598.43" y="61.45" width=".39" height="4.54"/>
          <rect class="cls-4" x="603.88" y="59.29" width=".81" height="6.7"/>
        </g>
        <g>
          <rect class="cls-4" x="609.32" y="61.45" width=".39" height="4.54"/>
          <rect class="cls-4" x="606.69" y="61.45" width=".39" height="4.54"/>
          <rect class="cls-4" x="612.15" y="59.29" width=".81" height="6.7"/>
        </g>
        <g>
          <rect class="cls-4" x="617.96" y="61.45" width=".39" height="4.54"/>
          <rect class="cls-4" x="615.33" y="61.45" width=".39" height="4.54"/>
          <rect class="cls-4" x="620.78" y="59.29" width=".81" height="6.7"/>
        </g>
        <g>
          <rect class="cls-4" x="626.66" y="61.45" width=".39" height="4.54"/>
          <rect class="cls-4" x="624.03" y="61.45" width=".39" height="4.54"/>
          <rect class="cls-4" x="629.48" y="59.29" width=".81" height="6.7"/>
        </g>
        <g>
          <rect class="cls-4" x="635.29" y="61.45" width=".39" height="4.54"/>
          <rect class="cls-4" x="632.66" y="61.45" width=".39" height="4.54"/>
          <rect class="cls-4" x="638.12" y="59.29" width=".81" height="6.7"/>
        </g>
        <g>
          <rect class="cls-4" x="644.07" y="61.45" width=".39" height="4.54"/>
          <rect class="cls-4" x="641.44" y="61.45" width=".39" height="4.54"/>
          <rect class="cls-4" x="646.9" y="59.29" width=".81" height="6.7"/>
        </g>
        <g>
          <rect class="cls-4" x="652.91" y="61.45" width=".39" height="4.54"/>
          <rect class="cls-4" x="650.28" y="61.45" width=".39" height="4.54"/>
          <rect class="cls-4" x="655.74" y="59.29" width=".81" height="6.7"/>
        </g>
        <g>
          <rect class="cls-4" x="661.4" y="61.45" width=".39" height="4.54"/>
          <rect class="cls-4" x="658.77" y="61.45" width=".39" height="4.54"/>
          <rect class="cls-4" x="664.23" y="59.29" width=".81" height="6.7"/>
        </g>
        <g>
          <rect class="cls-4" x="669.53" y="61.45" width=".39" height="4.54"/>
          <rect class="cls-4" x="666.91" y="61.45" width=".39" height="4.54"/>
          <rect class="cls-4" x="672.37" y="59.29" width=".81" height="6.7"/>
        </g>
        <g>
          <rect class="cls-4" x="677.95" y="61.45" width=".39" height="4.54"/>
          <rect class="cls-4" x="675.32" y="61.45" width=".39" height="4.54"/>
          <rect class="cls-4" x="680.78" y="59.29" width=".81" height="6.7"/>
        </g>
        <g>
          <rect class="cls-4" x="686.51" y="61.45" width=".39" height="4.54"/>
          <rect class="cls-4" x="683.88" y="61.45" width=".39" height="4.54"/>
          <rect class="cls-4" x="689.33" y="59.29" width=".81" height="6.7"/>
        </g>
        <g>
          <rect class="cls-4" x="695.35" y="61.45" width=".39" height="4.54"/>
          <rect class="cls-4" x="692.74" y="61.45" width=".39" height="4.54"/>
          <rect class="cls-4" x="698.19" y="59.29" width=".81" height="6.7"/>
        </g>
        <g>
          <rect class="cls-4" x="704.97" y="61.45" width=".39" height="4.54"/>
          <rect class="cls-4" x="702.34" y="61.45" width=".39" height="4.54"/>
          <rect class="cls-4" x="707.79" y="59.29" width=".81" height="6.7"/>
        </g>
      </g>
      <g>
        <path class="cls-5" d="m113.69,72.83v26.82c1.16.56,2.94,1.23,5.18,1.43,3.68.33,6.56-.79,7.92-1.43v-26.82c-1.71-.52-4.27-1.09-7.39-.97-2.31.09-4.25.52-5.7.97Z"/>
        <path id="rodinha_1" data-name="rodinha 1" class="cls-5" d="m53.71,80.76c-1.01-4.06-1.91-5.35-1.58-11.94.21-4.06.84-7.62,1.58-10.56h-15.09c-1.24,3.62-2.35,7.79-3.06,12.45-2.21,14.52.54,26.77,3.06,34.47h13.99l.72-13.43h60.63v-10.95l-60.25-.03Z"/>
      </g>
      <g>
        <polygon id="alavanca_lateral" data-name="alavanca lateral" class="cls-7" points="120.24 39.22 80.05 25.82 53.26 106.2 31.7 119.59 31.7 133.15 55.87 140.3 93.45 52.54 120.24 49.14 120.24 39.22"/>
        <g>
          <circle id="parafuso_alavanca_2" data-name="parafuso alavanca 2" class="cls-2" cx="84.28" cy="35.11" r="4.86"/>
          <path class="cls-10" d="m82.26,31.87c1.84,2.31,2.69,3.85,3.67,6.62-1.84-2.31-2.69-3.85-3.67-6.62h0Z"/>
        </g>
        <g>
          <path id="mecanismo_alavanca" data-name="mecanismo alavanca" class="cls-7" d="m123.6,25.53c-1.37-.63-2.78-1.26-4.25-1.88-1.12-.47-2.23-.92-3.32-1.35-1.95,1.63-3.04,3.32-3.67,4.59-4.11,8.35,2.22,17.78,2.73,18.51.38,2.05.9,6.5-1.04,11.5-1.2,3.09-2.9,5.28-4.15,6.63,1.93,1.04,3.87,2.07,5.8,3.11,2.01-1.13,5.46-3.46,8.08-7.67,4.92-7.9,3.04-16.25,2.59-18.03-.93-5.14-1.87-10.29-2.8-15.43Z"/>
          <g>
            <circle id="parafuso_alavanca" data-name="parafuso alavanca" class="cls-10" cx="118.26" cy="30.26" r="4.56"/>
            <path class="cls-3" d="m116.69,26.94c1.84,2.31,2.69,3.85,3.67,6.62-1.84-2.31-2.69-3.85-3.67-6.62h0Z"/>
          </g>
        </g>
      </g>
    </g>
    <g>
      <circle class="cls-8" cx="149.21" cy="360.86" r="18.55"/>
      <path class="cls-4" d="m149.21,381.1c-11.15,0-20.23-9.08-20.23-20.23s9.07-20.24,20.23-20.24,20.23,9.08,20.23,20.24-9.07,20.23-20.23,20.23Zm0-37.11c-9.31,0-16.88,7.57-16.88,16.89s7.57,16.88,16.88,16.88,16.88-7.57,16.88-16.88-7.57-16.89-16.88-16.89Z"/>
    </g>
    <g>
      <circle class="cls-8" cx="135.53" cy="468.29" r="18.55"/>
      <path class="cls-4" d="m135.53,488.51c-11.15,0-20.23-9.08-20.23-20.23s9.07-20.23,20.23-20.23,20.23,9.08,20.23,20.23-9.07,20.23-20.23,20.23Zm0-37.1c-9.31,0-16.88,7.57-16.88,16.88s7.57,16.88,16.88,16.88,16.88-7.57,16.88-16.88-7.57-16.88-16.88-16.88Z"/>
    </g>
    <g>
      <circle class="cls-8" cx="719.66" cy="508.69" r="21.85"/>
      <path class="cls-4" d="m719.66,532.22c-12.98,0-23.53-10.56-23.53-23.52s10.56-23.53,23.53-23.53,23.52,10.56,23.52,23.53-10.56,23.52-23.52,23.52Zm0-43.71c-11.13,0-20.19,9.05-20.19,20.19s9.05,20.17,20.19,20.17,20.17-9.05,20.17-20.17-9.05-20.19-20.17-20.19Z"/>
    </g>
    <g>
      <circle class="cls-8" cx="138.83" cy="514.04" r="21.85"/>
      <path class="cls-4" d="m138.83,537.57c-12.97,0-23.53-10.56-23.53-23.53s10.56-23.52,23.53-23.52,23.53,10.56,23.53,23.52-10.56,23.53-23.53,23.53Zm0-43.71c-11.13,0-20.18,9.05-20.18,20.17s9.05,20.19,20.18,20.19,20.18-9.05,20.18-20.19-9.05-20.17-20.18-20.17Z"/>
    </g>
    <g>
      <circle class="cls-8" cx="720.45" cy="358.34" r="19.76"/>
      <path class="cls-4" d="m720.48,379.76c-6.92,0-13.72-3.34-17.84-9.51-6.57-9.82-3.91-23.17,5.91-29.72,4.75-3.19,10.49-4.3,16.08-3.21,5.61,1.11,10.47,4.34,13.63,9.11,3.19,4.75,4.33,10.47,3.21,16.08-1.11,5.61-4.34,10.47-9.11,13.64-3.65,2.45-7.78,3.61-11.88,3.61Zm-.05-39.5c-3.45,0-6.93.98-10.02,3.04-8.28,5.55-10.52,16.8-5,25.09,5.56,8.28,16.81,10.5,25.09,4.98,8.29-5.56,10.52-16.81,4.98-25.09h0c-3.48-5.21-9.22-8.02-15.06-8.02Z"/>
    </g>
    <g id="espaco">
      <rect class="cls-1" x="221.48" y="533.36" width="418.1" height="21.15" rx="9.92" ry="9.92"/>
      <path class="cls-1" d="m629.65,556.19H231.4c-6.4,0-11.6-5.21-11.6-11.6v-1.31c0-6.4,5.2-11.59,11.6-11.59h398.25c6.4,0,11.59,5.19,11.59,11.59v1.31c0,6.4-5.19,11.6-11.59,11.6Zm-398.25-21.15c-4.55,0-8.25,3.7-8.25,8.24v1.31c0,4.55,3.7,8.25,8.25,8.25h398.25c4.54,0,8.24-3.7,8.24-8.25v-1.31c0-4.54-3.7-8.24-8.24-8.24H231.4Z"/>
    </g>
    <g id="_2" data-name="2">
      <g>
        <circle class="cls-2" cx="203.63" cy="360.86" r="18.55"/>
        <path class="cls-4" d="m203.63,381.1c-11.15,0-20.23-9.08-20.23-20.23s9.07-20.24,20.23-20.24,20.23,9.08,20.23,20.24-9.07,20.23-20.23,20.23Zm0-37.11c-9.31,0-16.88,7.57-16.88,16.89s7.57,16.88,16.88,16.88,16.88-7.57,16.88-16.88-7.57-16.89-16.88-16.89Z"/>
      </g>
      <text class="cls-12" transform="translate(195.26 369.52)"><tspan x="0" y="0">2</tspan></text>
    </g>
    <g id="a">
      <g>
        <circle class="cls-2" cx="167.88" cy="411.38" r="18.55"/>
        <path class="cls-4" d="m167.88,431.61c-11.15,0-20.23-9.08-20.23-20.23s9.07-20.23,20.23-20.23,20.23,9.08,20.23,20.23-9.07,20.23-20.23,20.23Zm0-37.1c-9.31,0-16.88,7.57-16.88,16.88s7.57,16.88,16.88,16.88,16.88-7.57,16.88-16.88-7.57-16.88-16.88-16.88Z"/>
      </g>
      <text class="cls-14" transform="translate(159.22 419.63)"><tspan x="0" y="0">A</tspan></text>
    </g>
    <g id="q">
      <g>
        <circle class="cls-2" cx="177.7" cy="459.01" r="18.55"/>
        <path class="cls-4" d="m177.7,479.24c-11.15,0-20.23-9.08-20.23-20.23s9.07-20.23,20.23-20.23,20.23,9.08,20.23,20.23-9.07,20.23-20.23,20.23Zm0-37.1c-9.31,0-16.88,7.57-16.88,16.88s7.57,16.88,16.88,16.88,16.88-7.57,16.88-16.88-7.57-16.88-16.88-16.88Z"/>
      </g>
      <text class="cls-14" transform="translate(167.38 467.26)"><tspan x="0" y="0">Q</tspan></text>
    </g>
    <g id="w">
      <g>
        <circle class="cls-2" cx="204.19" cy="504.73" r="18.55"/>
        <path class="cls-4" d="m204.19,524.96c-11.15,0-20.23-9.08-20.23-20.24s9.07-20.23,20.23-20.23,20.23,9.08,20.23,20.23-9.07,20.24-20.23,20.24Zm0-37.11c-9.31,0-16.88,7.57-16.88,16.88s7.57,16.89,16.88,16.89,16.88-7.57,16.88-16.89-7.57-16.88-16.88-16.88Z"/>
      </g>
      <text class="cls-14" transform="translate(192.02 514.73)"><tspan x="0" y="0">W</tspan></text>
    </g>
    <g id="x">
      <g>
        <circle class="cls-2" cx="255.38" cy="504.73" r="18.55"/>
        <path class="cls-4" d="m255.38,524.96c-11.15,0-20.23-9.08-20.23-20.24s9.07-20.23,20.23-20.23,20.23,9.08,20.23,20.23-9.08,20.24-20.23,20.24Zm0-37.11c-9.31,0-16.88,7.57-16.88,16.88s7.57,16.89,16.88,16.89,16.88-7.57,16.88-16.89-7.57-16.88-16.88-16.88Z"/>
      </g>
      <text class="cls-14" transform="translate(247.05 512.97)"><tspan x="0" y="0">X</tspan></text>
    </g>
    <g id="b">
      <g>
        <circle class="cls-2" cx="408.96" cy="503.75" r="18.55"/>
        <path class="cls-4" d="m408.96,523.98c-11.15,0-20.23-9.08-20.23-20.23s9.07-20.23,20.23-20.23,20.23,9.08,20.23,20.23-9.07,20.23-20.23,20.23Zm0-37.1c-9.31,0-16.88,7.57-16.88,16.88s7.57,16.88,16.88,16.88,16.88-7.57,16.88-16.88-7.57-16.88-16.88-16.88Z"/>
      </g>
      <text class="cls-14" transform="translate(399.86 512)"><tspan x="0" y="0">B</tspan></text>
    </g>
    <g id="v">
      <g>
        <circle class="cls-2" cx="357.77" cy="503.75" r="18.55"/>
        <path class="cls-4" d="m357.77,523.98c-11.15,0-20.23-9.08-20.23-20.23s9.07-20.23,20.23-20.23,20.23,9.08,20.23,20.23-9.07,20.23-20.23,20.23Zm0-37.1c-9.31,0-16.88,7.57-16.88,16.88s7.57,16.88,16.88,16.88,16.88-7.57,16.88-16.88-7.57-16.88-16.88-16.88Z"/>
      </g>
      <text class="cls-14" transform="translate(349.44 512)"><tspan x="0" y="0">V</tspan></text>
    </g>
    <g id="_" data-name=",">
      <g>
        <circle class="cls-2" cx="511.35" cy="503.52" r="18.55"/>
        <path class="cls-4" d="m511.35,523.74c-11.15,0-20.23-9.08-20.23-20.23s9.08-20.23,20.23-20.23,20.23,9.08,20.23,20.23-9.08,20.23-20.23,20.23Zm0-37.1c-9.3,0-16.88,7.57-16.88,16.88s7.57,16.88,16.88,16.88,16.88-7.57,16.88-16.88-7.57-16.88-16.88-16.88Z"/>
      </g>
      <text class="cls-15" transform="translate(504.97 503.52)"><tspan x="0" y="0">,</tspan></text>
    </g>
    <g id=":">
      <g>
        <circle class="cls-2" cx="613.73" cy="503.52" r="18.55"/>
        <path class="cls-4" d="m613.73,523.74c-11.15,0-20.23-9.08-20.23-20.23s9.08-20.23,20.23-20.23,20.23,9.08,20.23,20.23-9.08,20.23-20.23,20.23Zm0-37.1c-9.3,0-16.88,7.57-16.88,16.88s7.57,16.88,16.88,16.88,16.88-7.57,16.88-16.88-7.57-16.88-16.88-16.88Z"/>
      </g>
      <text class="cls-14" transform="translate(610.41 510.8)"><tspan x="0" y="0">:</tspan></text>
    </g>
    <g id="_-2" data-name="?">
      <g>
        <circle class="cls-2" cx="664.93" cy="504.72" r="18.55"/>
        <path class="cls-4" d="m664.92,524.95c-11.15,0-20.23-9.08-20.23-20.23s9.08-20.23,20.23-20.23,20.23,9.08,20.23,20.23-9.08,20.23-20.23,20.23Zm0-37.1c-9.3,0-16.88,7.57-16.88,16.88s7.57,16.88,16.88,16.88,16.88-7.57,16.88-16.88-7.57-16.88-16.88-16.88Z"/>
      </g>
      <text class="cls-14" transform="translate(657.97 512.97)"><tspan x="0" y="0">?</tspan></text>
    </g>
    <g id="_-3" data-name=";">
      <g>
        <circle class="cls-2" cx="562.54" cy="503.52" r="18.55"/>
        <path class="cls-4" d="m562.54,523.74c-11.15,0-20.23-9.08-20.23-20.23s9.08-20.23,20.23-20.23,20.23,9.08,20.23,20.23-9.08,20.23-20.23,20.23Zm0-37.1c-9.3,0-16.88,7.57-16.88,16.88s7.57,16.88,16.88,16.88,16.88-7.57,16.88-16.88-7.57-16.88-16.88-16.88Z"/>
      </g>
      <text class="cls-14" transform="translate(559.18 510.8)"><tspan x="0" y="0">;</tspan></text>
    </g>
    <g id="N">
      <g>
        <circle class="cls-2" cx="460.15" cy="503.38" r="18.55"/>
        <path class="cls-4" d="m460.16,523.61c-11.16,0-20.23-9.08-20.23-20.24s9.07-20.23,20.23-20.23,20.23,9.08,20.23,20.23-9.08,20.24-20.23,20.24Zm0-37.11c-9.31,0-16.88,7.57-16.88,16.88s7.57,16.89,16.88,16.89,16.88-7.57,16.88-16.89-7.57-16.88-16.88-16.88Z"/>
      </g>
      <text class="cls-14" transform="translate(450.52 511.64)"><tspan x="0" y="0">N</tspan></text>
    </g>
    <g id="c">
      <g>
        <circle class="cls-2" cx="306.57" cy="503.96" r="18.55"/>
        <path class="cls-4" d="m306.58,524.19c-11.15,0-20.23-9.08-20.23-20.23s9.07-20.23,20.23-20.23,20.23,9.08,20.23,20.23-9.07,20.23-20.23,20.23Zm0-37.1c-9.31,0-16.88,7.57-16.88,16.88s7.57,16.88,16.88,16.88,16.88-7.57,16.88-16.88-7.57-16.88-16.88-16.88Z"/>
      </g>
      <text class="cls-14" transform="translate(296.95 512.2)"><tspan x="0" y="0">C</tspan></text>
    </g>
    <g id="s">
      <g>
        <circle class="cls-2" cx="228.72" cy="459.01" r="18.55"/>
        <path class="cls-4" d="m228.72,479.24c-11.15,0-20.23-9.08-20.23-20.23s9.07-20.23,20.23-20.23,20.23,9.08,20.23,20.23-9.07,20.23-20.23,20.23Zm0-37.1c-9.31,0-16.88,7.57-16.88,16.88s7.57,16.88,16.88,16.88,16.88-7.57,16.88-16.88-7.57-16.88-16.88-16.88Z"/>
      </g>
      <text class="cls-14" transform="translate(219.62 467.26)"><tspan x="0" y="0">S</tspan></text>
    </g>
    <g id="D">
      <g>
        <circle class="cls-2" cx="279.75" cy="459.01" r="18.55"/>
        <path class="cls-4" d="m279.75,479.24c-11.15,0-20.23-9.08-20.23-20.23s9.07-20.23,20.23-20.23,20.23,9.08,20.23,20.23-9.07,20.23-20.23,20.23Zm0-37.1c-9.31,0-16.88,7.57-16.88,16.88s7.57,16.88,16.88,16.88,16.88-7.57,16.88-16.88-7.57-16.88-16.88-16.88Z"/>
      </g>
      <text class="cls-14" transform="translate(270.35 467.26)"><tspan x="0" y="0">D</tspan></text>
    </g>
    <g id="F">
      <g>
        <circle class="cls-2" cx="330.78" cy="459.01" r="18.55"/>
        <path class="cls-4" d="m330.78,479.24c-11.15,0-20.23-9.08-20.23-20.23s9.07-20.23,20.23-20.23,20.23,9.08,20.23,20.23-9.07,20.23-20.23,20.23Zm0-37.1c-9.31,0-16.88,7.57-16.88,16.88s7.57,16.88,16.88,16.88,16.88-7.57,16.88-16.88-7.57-16.88-16.88-16.88Z"/>
      </g>
      <text class="cls-14" transform="translate(323.02 467.26)"><tspan x="0" y="0">F</tspan></text>
    </g>
    <g id="G">
      <g>
        <circle class="cls-2" cx="381.8" cy="459.01" r="18.55"/>
        <path class="cls-4" d="m381.8,479.24c-11.15,0-20.23-9.08-20.23-20.23s9.07-20.23,20.23-20.23,20.23,9.08,20.23,20.23-9.07,20.23-20.23,20.23Zm0-37.1c-9.31,0-16.88,7.57-16.88,16.88s7.57,16.88,16.88,16.88,16.88-7.57,16.88-16.88-7.57-16.88-16.88-16.88Z"/>
      </g>
      <text class="cls-14" transform="translate(371.68 467.27)"><tspan x="0" y="0">G</tspan></text>
    </g>
    <g id="H">
      <g>
        <circle class="cls-2" cx="432.83" cy="459.01" r="18.55"/>
        <path class="cls-4" d="m432.83,479.24c-11.15,0-20.23-9.08-20.23-20.23s9.07-20.23,20.23-20.23,20.23,9.08,20.23,20.23-9.07,20.23-20.23,20.23Zm0-37.1c-9.31,0-16.88,7.57-16.88,16.88s7.57,16.88,16.88,16.88,16.88-7.57,16.88-16.88-7.57-16.88-16.88-16.88Z"/>
      </g>
      <text class="cls-14" transform="translate(423.24 467.27)"><tspan x="0" y="0">H</tspan></text>
    </g>
    <g id="K">
      <g>
        <circle class="cls-2" cx="534.88" cy="459.01" r="18.55"/>
        <path class="cls-4" d="m534.89,479.24c-11.15,0-20.23-9.08-20.23-20.23s9.08-20.23,20.23-20.23,20.23,9.08,20.23,20.23-9.08,20.23-20.23,20.23Zm0-37.1c-9.3,0-16.88,7.57-16.88,16.88s7.57,16.88,16.88,16.88,16.88-7.57,16.88-16.88-7.57-16.88-16.88-16.88Z"/>
      </g>
      <text class="cls-14" transform="translate(525.75 467.26)"><tspan x="0" y="0">K</tspan></text>
    </g>
    <g id="j">
      <g>
        <circle class="cls-2" cx="483.86" cy="459.01" r="18.55"/>
        <path class="cls-4" d="m483.85,479.24c-11.15,0-20.23-9.08-20.23-20.23s9.08-20.23,20.23-20.23,20.23,9.08,20.23,20.23-9.08,20.23-20.23,20.23Zm0-37.1c-9.3,0-16.88,7.57-16.88,16.88s7.57,16.88,16.88,16.88,16.88-7.57,16.88-16.88-7.57-16.88-16.88-16.88Z"/>
      </g>
      <text class="cls-14" transform="translate(477.07 467.26)"><tspan x="0" y="0">J</tspan></text>
    </g>
    <g id="l">
      <g>
        <circle class="cls-2" cx="585.91" cy="459.01" r="18.55"/>
        <path class="cls-4" d="m585.91,479.24c-11.15,0-20.23-9.08-20.23-20.23s9.08-20.23,20.23-20.23,20.23,9.08,20.23,20.23-9.08,20.23-20.23,20.23Zm0-37.1c-9.3,0-16.88,7.57-16.88,16.88s7.57,16.88,16.88,16.88,16.88-7.57,16.88-16.88-7.57-16.88-16.88-16.88Z"/>
      </g>
      <text class="cls-14" transform="translate(578.27 467.26)"><tspan x="0" y="0">L</tspan></text>
    </g>
    <g id="M">
      <g>
        <circle class="cls-2" cx="636.94" cy="459.01" r="18.55"/>
        <path class="cls-4" d="m636.94,479.24c-11.15,0-20.23-9.08-20.23-20.23s9.08-20.23,20.23-20.23,20.23,9.08,20.23,20.23-9.08,20.23-20.23,20.23Zm0-37.1c-9.3,0-16.88,7.57-16.88,16.88s7.57,16.88,16.88,16.88,16.88-7.57,16.88-16.88-7.57-16.88-16.88-16.88Z"/>
      </g>
      <text class="cls-14" transform="translate(625.59 467.26)"><tspan x="0" y="0">M</tspan></text>
    </g>
    <g id="_-4" data-name="%">
      <g>
        <circle class="cls-2" cx="687.96" cy="459.01" r="18.55"/>
        <path class="cls-4" d="m687.96,479.24c-11.15,0-20.23-9.08-20.23-20.23s9.08-20.23,20.23-20.23,20.23,9.08,20.23,20.23-9.08,20.23-20.23,20.23Zm0-37.1c-9.3,0-16.88,7.57-16.88,16.88s7.57,16.88,16.88,16.88,16.88-7.57,16.88-16.88-7.57-16.88-16.88-16.88Z"/>
      </g>
      <text class="cls-13" transform="translate(678.69 466.83)"><tspan x="0" y="0">%</tspan></text>
    </g>
    <g id="Z">
      <g>
        <circle class="cls-2" cx="219.07" cy="411.38" r="18.55"/>
        <path class="cls-4" d="m219.08,431.61c-11.15,0-20.23-9.08-20.23-20.23s9.07-20.23,20.23-20.23,20.23,9.08,20.23,20.23-9.07,20.23-20.23,20.23Zm0-37.1c-9.31,0-16.88,7.57-16.88,16.88s7.57,16.88,16.88,16.88,16.88-7.57,16.88-16.88-7.57-16.88-16.88-16.88Z"/>
      </g>
      <text class="cls-14" transform="translate(210.69 419.7)"><tspan x="0" y="0">Z</tspan></text>
    </g>
    <g id="E">
      <g>
        <circle class="cls-2" cx="270.26" cy="411.38" r="18.55"/>
        <path class="cls-4" d="m270.26,431.61c-11.15,0-20.23-9.08-20.23-20.23s9.07-20.23,20.23-20.23,20.23,9.08,20.23,20.23-9.08,20.23-20.23,20.23Zm0-37.1c-9.31,0-16.88,7.57-16.88,16.88s7.57,16.88,16.88,16.88,16.88-7.57,16.88-16.88-7.57-16.88-16.88-16.88Z"/>
      </g>
      <text class="cls-14" transform="translate(261.77 419.63)"><tspan x="0" y="0">E</tspan></text>
    </g>
    <g id="R">
      <g>
        <circle class="cls-2" cx="321.45" cy="411.38" r="18.55"/>
        <path class="cls-4" d="m321.45,431.61c-11.15,0-20.23-9.08-20.23-20.23s9.07-20.23,20.23-20.23,20.23,9.08,20.23,20.23-9.07,20.23-20.23,20.23Zm0-37.1c-9.31,0-16.88,7.57-16.88,16.88s7.57,16.88,16.88,16.88,16.88-7.57,16.88-16.88-7.57-16.88-16.88-16.88Z"/>
      </g>
      <text class="cls-14" transform="translate(312.39 419.63)"><tspan x="0" y="0">R</tspan></text>
    </g>
    <g id="T">
      <g>
        <circle class="cls-2" cx="372.64" cy="411.38" r="18.55"/>
        <path class="cls-4" d="m372.64,431.61c-11.15,0-20.23-9.08-20.23-20.23s9.07-20.23,20.23-20.23,20.23,9.08,20.23,20.23-9.07,20.23-20.23,20.23Zm0-37.1c-9.31,0-16.88,7.57-16.88,16.88s7.57,16.88,16.88,16.88,16.88-7.57,16.88-16.88-7.57-16.88-16.88-16.88Z"/>
      </g>
      <text class="cls-14" transform="translate(365.13 419.63)"><tspan x="0" y="0">T</tspan></text>
    </g>
    <g id="U">
      <g>
        <circle class="cls-2" cx="475.02" cy="411.38" r="18.55"/>
        <path class="cls-4" d="m475.02,431.61c-11.15,0-20.23-9.08-20.23-20.23s9.08-20.23,20.23-20.23,20.23,9.08,20.23,20.23-9.08,20.23-20.23,20.23Zm0-37.1c-9.3,0-16.88,7.57-16.88,16.88s7.57,16.88,16.88,16.88,16.88-7.57,16.88-16.88-7.57-16.88-16.88-16.88Z"/>
      </g>
      <text class="cls-14" transform="translate(465.41 419.63)"><tspan x="0" y="0">U</tspan></text>
    </g>
    <g id="I">
      <g>
        <circle class="cls-2" cx="526.21" cy="411.38" r="18.55"/>
        <path class="cls-4" d="m526.21,431.61c-11.15,0-20.23-9.08-20.23-20.23s9.08-20.23,20.23-20.23,20.23,9.08,20.23,20.23-9.08,20.23-20.23,20.23Zm0-37.1c-9.3,0-16.88,7.57-16.88,16.88s7.57,16.88,16.88,16.88,16.88-7.57,16.88-16.88-7.57-16.88-16.88-16.88Z"/>
      </g>
      <text class="cls-14" transform="translate(522.64 419.63)"><tspan x="0" y="0">I</tspan></text>
    </g>
    <g id="O">
      <g>
        <circle class="cls-2" cx="577.4" cy="411.38" r="18.55"/>
        <path class="cls-4" d="m577.4,431.61c-11.15,0-20.23-9.08-20.23-20.23s9.08-20.23,20.23-20.23,20.23,9.08,20.23,20.23-9.08,20.23-20.23,20.23Zm0-37.1c-9.3,0-16.88,7.57-16.88,16.88s7.57,16.88,16.88,16.88,16.88-7.57,16.88-16.88-7.57-16.88-16.88-16.88Z"/>
      </g>
      <text class="cls-14" transform="translate(566.84 419.64)"><tspan x="0" y="0">O</tspan></text>
    </g>
    <g id="P">
      <g>
        <circle class="cls-2" cx="628.59" cy="411.38" r="18.55"/>
        <path class="cls-4" d="m628.59,431.61c-11.16,0-20.24-9.08-20.24-20.23s9.08-20.23,20.24-20.23,20.23,9.08,20.23,20.23-9.08,20.23-20.23,20.23Zm0-37.1c-9.31,0-16.89,7.57-16.89,16.88s7.57,16.88,16.89,16.88,16.88-7.57,16.88-16.88-7.57-16.88-16.88-16.88Z"/>
      </g>
      <text class="cls-14" transform="translate(620.25 419.63)"><tspan x="0" y="0">P</tspan></text>
    </g>
    <g id="_-5" data-name="">
      <g>
        <circle class="cls-2" cx="679.78" cy="411.38" r="18.55"/>
        <path class="cls-4" d="m679.77,431.61c-11.15,0-20.23-9.08-20.23-20.23s9.08-20.23,20.23-20.23,20.23,9.08,20.23,20.23-9.08,20.23-20.23,20.23Zm0-37.1c-9.3,0-16.88,7.57-16.88,16.88s7.57,16.88,16.88,16.88,16.88-7.57,16.88-16.88-7.57-16.88-16.88-16.88Z"/>
      </g>
      <text class="cls-11" transform="translate(669.73 433.27)"><tspan x="0" y="0"></tspan></text>
    </g>
    <g id="Y">
      <g>
        <circle class="cls-2" cx="423.83" cy="411.38" r="18.55"/>
        <path class="cls-4" d="m423.83,431.61c-11.15,0-20.23-9.08-20.23-20.23s9.07-20.23,20.23-20.23,20.23,9.08,20.23,20.23-9.07,20.23-20.23,20.23Zm0-37.1c-9.31,0-16.88,7.57-16.88,16.88s7.57,16.88,16.88,16.88,16.88-7.57,16.88-16.88-7.57-16.88-16.88-16.88Z"/>
      </g>
      <text class="cls-14" transform="translate(415.56 419.63)"><tspan x="0" y="0">Y</tspan></text>
    </g>
    <g id="_3" data-name="3">
      <g>
        <circle class="cls-2" cx="254.88" cy="360.86" r="18.55"/>
        <path class="cls-4" d="m254.87,381.1c-11.15,0-20.23-9.08-20.23-20.23s9.07-20.24,20.23-20.24,20.23,9.08,20.23,20.24-9.07,20.23-20.23,20.23Zm0-37.11c-9.31,0-16.88,7.57-16.88,16.89s7.57,16.88,16.88,16.88,16.88-7.57,16.88-16.88-7.57-16.89-16.88-16.89Z"/>
      </g>
      <text class="cls-12" transform="translate(246.51 369.51)"><tspan x="0" y="0">3</tspan></text>
    </g>
    <g id="_-6" data-name="$">
      <g>
        <circle class="cls-2" cx="306.12" cy="360.86" r="18.55"/>
        <path class="cls-4" d="m306.12,381.1c-11.15,0-20.23-9.08-20.23-20.23s9.07-20.24,20.23-20.24,20.23,9.08,20.23,20.24-9.07,20.23-20.23,20.23Zm0-37.11c-9.31,0-16.88,7.57-16.88,16.89s7.57,16.88,16.88,16.88,16.88-7.57,16.88-16.88-7.57-16.89-16.88-16.89Z"/>
      </g>
      <text class="cls-12" transform="translate(297.81 369.51)"><tspan x="0" y="0">4</tspan></text>
    </g>
    <g id="_5" data-name="5">
      <g>
        <circle class="cls-2" cx="357.36" cy="360.86" r="18.55"/>
        <path class="cls-4" d="m357.36,381.1c-11.15,0-20.23-9.08-20.23-20.23s9.07-20.24,20.23-20.24,20.23,9.08,20.23,20.24-9.07,20.23-20.23,20.23Zm0-37.11c-9.31,0-16.88,7.57-16.88,16.89s7.57,16.88,16.88,16.88,16.88-7.57,16.88-16.88-7.57-16.89-16.88-16.89Z"/>
      </g>
      <text class="cls-12" transform="translate(349.06 369.52)"><tspan x="0" y="0">5</tspan></text>
    </g>
    <g id="_6" data-name="6">
      <g>
        <circle class="cls-2" cx="408.61" cy="360.86" r="18.55"/>
        <path class="cls-4" d="m408.6,381.1c-11.15,0-20.23-9.08-20.23-20.23s9.07-20.24,20.23-20.24,20.23,9.08,20.23,20.24-9.08,20.23-20.23,20.23Zm0-37.11c-9.31,0-16.88,7.57-16.88,16.89s7.57,16.88,16.88,16.88,16.88-7.57,16.88-16.88-7.57-16.89-16.88-16.89Z"/>
      </g>
      <text class="cls-12" transform="translate(400.3 369.52)"><tspan x="0" y="0">6</tspan></text>
    </g>
    <g id="_7" data-name="7">
      <g>
        <circle class="cls-2" cx="459.85" cy="360.86" r="18.55"/>
        <path class="cls-4" d="m459.85,381.1c-11.15,0-20.22-9.08-20.22-20.23s9.07-20.24,20.22-20.24,20.23,9.08,20.23,20.24-9.08,20.23-20.23,20.23Zm0-37.11c-9.3,0-16.87,7.57-16.87,16.89s7.57,16.88,16.87,16.88,16.88-7.57,16.88-16.88-7.57-16.89-16.88-16.89Z"/>
      </g>
      <text class="cls-12" transform="translate(451.54 369.51)"><tspan x="0" y="0">7</tspan></text>
    </g>
    <g id="_8" data-name="8">
      <g>
        <circle class="cls-2" cx="511.09" cy="360.86" r="18.55"/>
        <path class="cls-4" d="m511.09,381.1c-11.15,0-20.23-9.08-20.23-20.23s9.08-20.24,20.23-20.24,20.23,9.08,20.23,20.24-9.08,20.23-20.23,20.23Zm0-37.11c-9.3,0-16.88,7.57-16.88,16.89s7.57,16.88,16.88,16.88,16.88-7.57,16.88-16.88-7.57-16.89-16.88-16.89Z"/>
      </g>
      <text class="cls-12" transform="translate(502.79 369.51)"><tspan x="0" y="0">8</tspan></text>
    </g>
    <g id="_-7" data-name="&amp;amp;">
      <g>
        <circle class="cls-2" cx="613.58" cy="360.86" r="18.55"/>
        <path class="cls-4" d="m613.59,381.1c-11.16,0-20.24-9.08-20.24-20.23s9.08-20.24,20.24-20.24,20.23,9.08,20.23,20.24-9.08,20.23-20.23,20.23Zm0-37.11c-9.31,0-16.89,7.57-16.89,16.89s7.57,16.88,16.89,16.88,16.88-7.57,16.88-16.88-7.57-16.89-16.88-16.89Z"/>
      </g>
      <text class="cls-12" transform="translate(605.17 369.51)"><tspan x="0" y="0">&amp;</tspan></text>
    </g>
    <g id="_-8" data-name=")">
      <g>
        <circle class="cls-2" cx="664.83" cy="360.86" r="18.55"/>
        <path class="cls-4" d="m664.83,381.1c-11.15,0-20.23-9.08-20.23-20.23s9.08-20.24,20.23-20.24,20.23,9.08,20.23,20.24-9.08,20.23-20.23,20.23Zm0-37.11c-9.3,0-16.88,7.57-16.88,16.89s7.57,16.88,16.88,16.88,16.88-7.57,16.88-16.88-7.57-16.89-16.88-16.89Z"/>
      </g>
      <text class="cls-13" transform="translate(660.66 368.69)"><tspan x="0" y="0">)</tspan></text>
    </g>
    <g id="_9" data-name="9">
      <g>
        <circle class="cls-2" cx="562.34" cy="360.86" r="18.55"/>
        <path class="cls-4" d="m562.33,381.1c-11.15,0-20.23-9.08-20.23-20.23s9.08-20.24,20.23-20.24,20.24,9.08,20.24,20.24-9.08,20.23-20.24,20.23Zm0-37.11c-9.3,0-16.88,7.57-16.88,16.89s7.57,16.88,16.88,16.88,16.89-7.57,16.89-16.88-7.57-16.89-16.89-16.89Z"/>
      </g>
      <text class="cls-12" transform="translate(554.04 369.52)"><tspan x="0" y="0">9</tspan></text>
    </g>
  </g>
</svg>