<svg width="652" height="308" viewBox="0 0 652 308" fill="none" xmlns="http://www.w3.org/2000/svg">
<g clip-path="url(#clip0_376_1379)">
<path opacity="0.36" d="M628.941 0H23.0593C10.324 0 0 10.3364 0 23.0871V284.913C0 297.664 10.324 308 23.0593 308H628.941C641.676 308 652 297.664 652 284.913V23.0871C652 10.3364 641.676 0 628.941 0Z" fill="url(#paint0_radial_376_1379)"/>
<path d="M265.9 30.6062V36.1304L262.124 38.8506L214.556 39.0877L214.027 44.9467L213.79 47.3042H83.7799L82.916 48.4481H71.5466V50.164H81.6063L80.4498 51.7124H22.2373L32.0462 47.639L46.7317 47.1368L58.1151 41.8498H188.487L205.583 30.6062H265.9Z" fill="#0000FF"/>
<path d="M247.257 40.3291L239.413 44.3327H223.85L231.764 40.3291H247.257Z" fill="#0000FF"/>
<path d="M261.483 40.3291L254.781 44.3327H241.447L249.71 40.3291H261.483Z" fill="#0000FF"/>
<path d="M229.59 40.3291L221.829 44.3327H206.461L214.263 40.3291H229.59Z" fill="#0000FF"/>
<path d="M213.511 48.8247H74.0547V49.6617H213.511V48.8247Z" fill="#0000FF"/>
<path d="M254.53 47.3877H254.391L216.576 47.318V46.481L254.265 46.5507L276.6 30.8989H370.453V31.7359H276.879L254.53 47.3877Z" fill="#0000FF"/>
<path d="M392.245 46.5229L392.134 46.4532L369.27 30.9409L369.743 30.2434L392.496 45.686L433.055 45.6023V46.4532L392.245 46.5229Z" fill="#0000FF"/>
<path d="M370.83 50.1359H277.297L264.729 39.8687L265.259 39.2271L277.59 49.2989H370.83V50.1359Z" fill="#0000FF"/>
<path d="M371.094 50.0384L370.551 49.3967L382.352 39.1714L382.909 39.8131L371.094 50.0384Z" fill="#0000FF"/>
<path d="M385.042 29.769V35.2932L388.818 38.0274L436.386 38.2506L436.915 44.1095L437.152 46.481H567.162L568.026 47.611H579.409V49.3268H569.335L570.492 50.8753H628.704L618.895 46.8019L604.21 46.2997L592.827 41.0127H462.454L445.358 29.769H385.042Z" fill="#0000FF"/>
<path d="M389.458 39.4922L396.174 43.4958H409.494L401.232 39.4922H389.458Z" fill="#0000FF"/>
<path d="M403.684 39.4922L411.542 43.4958H427.091L419.191 39.4922H403.684Z" fill="#0000FF"/>
<path d="M421.352 39.4922L429.112 43.4958H444.494L436.678 39.4922H421.352Z" fill="#0000FF"/>
<path d="M437.514 48.9084L576.678 48.9084V48.0017L437.514 48.0017V48.9084Z" fill="#0000FF"/>
<path d="M370.83 30.9687H276.461L277.924 28.5693H369.102L370.83 30.9687Z" fill="#3F3FFF"/>
<path d="M276.906 49.6755H371.275L369.798 52.0749H278.634L276.906 49.6755Z" fill="#3F3FFF"/>
<path d="M185.101 287.521H22.46V51.7122H24.1459V285.847H184.572L201.082 274.116H626.711L627.854 50.8752L629.54 50.8892L628.383 275.804H201.612L185.101 287.521Z" fill="#004EFF"/>
<path d="M629.539 287.521H201.068V281.007H629.539V287.521ZM202.74 285.833H627.853V282.695H202.74V285.833Z" fill="#0000FF"/>
<path d="M629.568 281.858H365.772V286.685H629.568V281.858Z" fill="#0000FF"/>
</g>
<defs>
<radialGradient id="paint0_radial_376_1379" cx="0" cy="0" r="1" gradientUnits="userSpaceOnUse" gradientTransform="translate(326.007 154.007) scale(292.512 292.864)">
<stop offset="0.45" stop-color="#00FFFF"/>
<stop offset="0.61" stop-color="#00FBFF"/>
<stop offset="0.75" stop-color="#00F0FF"/>
<stop offset="0.89" stop-color="#00DEFF"/>
<stop offset="1" stop-color="#00CAFF"/>
</radialGradient>
<clipPath id="clip0_376_1379">
<rect width="652" height="308" fill="white"/>
</clipPath>
</defs>
</svg>
