<svg width="405" height="219" viewBox="0 0 405 219" fill="none" xmlns="http://www.w3.org/2000/svg">
<g clip-path="url(#clip0_312_1107)">
<path d="M17.2524 71.292C29.9086 66.7518 42.5649 62.7684 55.1782 58.2282L104.516 53.8165C100.269 55.9581 95.335 58.0997 89.7577 60.0272C87.6554 60.7553 82.2068 62.5971 70.7089 64.9528C67.7916 65.5525 58.1814 67.5228 44.0236 69.3217C36.9446 70.2212 27.8922 70.6067 17.2095 71.292H17.2524Z" fill="#42210B" stroke="black" stroke-width="0.05" stroke-miterlimit="10"/>
<path d="M396.554 73.1338L360.516 59.9844H330.141C337.691 63.7536 347.859 67.9511 360.301 70.7352C374.759 73.9904 387.33 73.6478 396.597 73.1338H396.554Z" fill="#42210B" stroke="black" stroke-width="0.05" stroke-miterlimit="10"/>
<path d="M82.0352 211.909C82.0352 212.381 82.2497 216.064 80.8768 217.563C78.8175 219.833 75.4711 219.277 75.0421 219.234C54.2343 219.405 25.2751 218.334 4.03835 218.463C2.96578 218.463 1.97902 217.906 1.5071 216.921C-0.595128 212.552 4.51027 205.999 4.63898 205.827C5.28252 205.87 5.84025 210.025 6.48379 210.068C32.6543 212.124 82.0352 211.909 82.0352 211.909Z" fill="#603813" stroke="black" stroke-width="0.1" stroke-miterlimit="10"/>
<path d="M88.1272 204.928C88.1272 205.399 87.5695 207.583 85.8105 209.768C84.3947 211.567 80.8338 211.61 80.4048 211.567C59.5112 211.738 28.6214 210.582 7.38464 210.71C6.6982 210.71 6.01176 210.453 5.62564 209.896C2.57956 205.527 7.89947 198.717 8.02818 198.503C8.67172 198.546 8.3285 202.187 8.97204 202.229C35.1426 204.328 61.9567 202.829 88.1272 204.928Z" fill="#603813" stroke="black" stroke-width="0.1" stroke-miterlimit="10"/>
<path d="M329.926 210.839C329.926 211.31 329.755 214.993 330.999 216.492C332.887 218.763 336.018 218.206 336.447 218.163C355.839 218.334 382.868 217.263 402.646 217.392C403.633 217.392 404.577 216.835 405.006 215.85C406.979 211.481 402.217 204.928 402.088 204.756C401.488 204.799 400.973 208.954 400.372 208.997C375.961 211.053 329.926 210.839 329.926 210.839Z" fill="#603813" stroke="black" stroke-width="0.15" stroke-miterlimit="10"/>
<path d="M324.22 203.857C324.22 204.328 324.735 206.513 326.365 208.697C327.695 210.496 330.999 210.539 331.428 210.496C350.906 210.667 379.736 209.511 399.514 209.639C400.158 209.639 400.801 209.382 401.144 208.826C403.976 204.457 398.742 197.646 398.613 197.432C398.013 197.475 397.97 201.116 397.369 201.159C372.957 203.257 348.589 201.758 324.177 203.857H324.22Z" fill="#603813" stroke="black" stroke-width="0.15" stroke-miterlimit="10"/>
<path d="M17.2524 71.8488C17.3811 76.1748 17.5527 82.514 17.6385 90.2237C17.853 110.826 17.9388 121.32 16.0511 130.186C14.6353 136.868 11.6751 146.591 4.72485 157.727C5.96903 171.733 7.47062 187.709 8.71479 201.844C8.80059 202.658 9.44413 203.3 10.3022 203.343C36.344 204.885 62.1285 203.215 88.1703 204.842C88.5993 204.071 89.9722 202.272 92.6751 201.501C95.6782 200.645 98.3811 200.388 99.2392 200.516C169.299 199.531 241.161 200.602 311.221 199.617C312.465 199.445 317.913 199.274 320.273 199.617C322.032 199.874 323.362 201.887 324.263 202.958C349.533 202.272 372.142 201.844 397.412 201.201L404.233 158.241C402.303 155.671 399.428 151.431 397.197 145.734C392.564 134.127 393.722 124.832 395.267 99.1328C395.61 93.6503 396.125 84.8269 396.64 73.6906C390.462 73.6906 382.053 73.3051 372.185 71.8488C360.473 70.0927 340.652 65.8951 316.069 53.3025C277.37 33.4713 280.459 19.2083 253.388 8.71443C217.95 -5.03464 184.015 3.48892 178.523 4.94521C135.32 16.3814 126.525 51.8034 84.3949 62.0403C67.3197 66.195 47.0268 68.9362 47.0268 68.9362C34.8424 70.6067 24.6316 71.4205 17.424 71.8488H17.2524Z" fill="#603813" stroke="black" stroke-width="0.25" stroke-miterlimit="10"/>
<path d="M125.281 99.9895L125.71 120.806C125.71 120.806 128.627 122.99 130.901 120.549L130.172 100.032C130.172 99.4326 127.126 97.548 125.281 100.032V99.9895Z" fill="#666666" stroke="#1A1A1A" stroke-width="0.08" stroke-miterlimit="10"/>
<path d="M127.726 101.617C129.077 101.617 130.172 100.965 130.172 100.161C130.172 99.3565 129.077 98.7045 127.726 98.7045C126.376 98.7045 125.281 99.3565 125.281 100.161C125.281 100.965 126.376 101.617 127.726 101.617Z" fill="#1A1A1A"/>
<path d="M125.281 106.543C125.281 106.543 127.855 108.641 130.386 106.543" stroke="#1A1A1A" stroke-width="0.05" stroke-miterlimit="10"/>
<path d="M125.538 112.411C125.538 112.411 127.855 114.424 130.515 112.368" stroke="#1A1A1A" stroke-width="0.05" stroke-miterlimit="10"/>
<path d="M17.2524 71.806C24.7604 115.623 32.3112 159.483 39.8192 203.3L88.1704 204.928C82.593 158.798 76.3721 111.383 70.7948 65.2527C61.0988 67.4371 50.2016 69.3646 38.2318 70.5639C30.8525 71.292 23.8165 71.6775 17.2524 71.806Z" fill="#42210B" stroke="black" stroke-width="0.05" stroke-miterlimit="10"/>
<path d="M210.657 187.024C254.302 187.024 289.684 151.701 289.684 108.127C289.684 64.554 254.302 29.2308 210.657 29.2308C167.012 29.2308 131.631 64.554 131.631 108.127C131.631 151.701 167.012 187.024 210.657 187.024Z" fill="#2B140A" stroke="#2B140A" stroke-width="0.75" stroke-miterlimit="10"/>
<path d="M347.001 66.9659L326.065 202.315L373.944 201.373L396.554 74.5472C389.432 74.5472 381.195 74.076 372.099 72.7054C362.489 71.2491 354.08 69.1504 347.001 66.9231V66.9659Z" fill="#42210B" stroke="black" stroke-width="0.05" stroke-miterlimit="10"/>
<path d="M210.803 187.324C254.447 187.324 289.828 152.001 289.828 108.429C289.828 64.8561 254.447 29.5336 210.803 29.5336C167.159 29.5336 131.778 64.8561 131.778 108.429C131.778 152.001 167.159 187.324 210.803 187.324Z" fill="#391E00" stroke="#2B140A" stroke-width="0.75" stroke-miterlimit="10"/>
<path d="M151.813 159.055C156.446 163.938 176.353 183.897 207.843 185.353C244.18 187.024 267.734 162.867 271.552 158.798C236.973 159.697 186.349 158.155 151.813 159.055Z" fill="#2B140A"/>
<path d="M239.561 122.019L241.061 137.547L221.364 172.993L218.372 171.317L237.701 136.47L235.502 119.745L239.561 122.019Z" fill="#004497"/>
<path d="M206.504 103L236.647 119.887L238.845 136.612L218.083 173.99L179 152.095L186.321 139.027L187.268 137.336L191.178 136.079L190.118 132.248L190.654 131.292L194.447 130.244L193.731 125.8L206.504 103Z" fill="url(#paint0_linear_312_1107)" stroke="black" stroke-width="0.25" stroke-miterlimit="10"/>
<path opacity="0.84" d="M210.302 114.598L190.188 150.502L215.94 164.93L227.924 143.539L216.85 137.335L232.381 135.583L210.302 114.598Z" fill="url(#paint1_radial_312_1107)" stroke="#007CBC" stroke-width="0.5" stroke-miterlimit="10"/>
<path d="M234.472 130.699C232.033 128.785 228.57 125.331 226.266 123.203C224.002 121.032 220.36 117.784 218.305 115.441C220.745 117.356 224.207 120.809 226.511 122.938C228.776 125.108 232.418 128.356 234.472 130.699Z" fill="#00EFFF"/>
<path d="M234.472 130.699L218.317 115.448" stroke="#0091FF" stroke-width="0.05" stroke-miterlimit="10"/>
<path d="M234.7 128.25C232.955 126.966 230.695 124.557 229.104 123.054C227.571 121.534 225.078 119.284 223.747 117.604C225.468 118.875 227.789 121.318 229.343 122.801C230.899 124.365 233.346 126.525 234.7 128.25Z" fill="#00DFFF"/>
<path d="M234.7 128.25L223.747 117.604" stroke="#0091FF" stroke-width="0.03" stroke-miterlimit="10"/>
<path d="M194.882 130.504C194.682 130.199 194.54 129.733 194.508 129.36L194.311 128.187C194.241 127.794 194.067 126.81 194.003 126.436L194.076 125.817L194.346 126.371C194.41 126.745 194.59 127.747 194.654 128.121L194.85 129.295C194.941 129.651 194.975 130.137 194.889 130.492L194.882 130.504Z" fill="#00E9FF"/>
<path d="M190.828 131.615C191.084 131.388 191.462 131.23 191.798 131.176L192.812 130.891C193.15 130.806 194.011 130.564 194.336 130.472L194.882 130.504L194.421 130.809C194.096 130.901 193.222 131.137 192.897 131.228L191.883 131.514C191.563 131.624 191.158 131.687 190.821 131.627L190.828 131.615Z" fill="#00E9FF"/>
<path d="M191.661 136.253C191.427 136.009 191.244 135.617 191.172 135.286L190.854 134.271C190.75 133.939 190.483 133.064 190.379 132.732L190.386 132.173L190.711 132.629C190.81 132.941 191.082 133.835 191.186 134.167L191.504 135.182C191.634 135.497 191.702 135.922 191.661 136.253Z" fill="#00E9FF"/>
<path d="M187.37 137.586C187.633 137.346 188.057 137.165 188.406 137.087L189.491 136.761C189.843 136.652 190.775 136.369 191.119 136.272L191.71 136.281L191.216 136.616C190.872 136.713 189.94 136.996 189.589 137.105L188.504 137.432C188.177 137.555 187.726 137.64 187.363 137.598L187.37 137.586Z" fill="#00E9FF"/>
<path d="M130.25 187.327C130.664 187.327 131 152.003 131 108.43C131 64.8568 130.664 29.5336 130.25 29.5336C129.836 29.5336 129.5 64.8568 129.5 108.43C129.5 152.003 129.836 187.327 130.25 187.327Z" fill="black" stroke="#2B140A" stroke-width="0.75" stroke-miterlimit="10"/>
<path d="M130.25 187.327C130.664 187.327 131 152.003 131 108.43C131 64.8568 130.664 29.5336 130.25 29.5336C129.836 29.5336 129.5 64.8568 129.5 108.43C129.5 152.003 129.836 187.327 130.25 187.327Z" fill="black" stroke="#2B140A" stroke-width="0.75" stroke-miterlimit="10"/>
<path d="M130.248 53.991C130.529 53.991 130.759 78.1054 130.759 107.788C130.759 137.471 130.53 161.585 130.248 161.585C129.965 161.585 129.736 137.471 129.736 107.788C129.736 78.1054 129.965 53.991 130.248 53.991ZM130.248 52.9202C129.96 52.9202 129.726 77.4629 129.726 107.788C129.726 138.113 129.959 162.656 130.248 162.656C130.536 162.656 130.769 138.113 130.769 107.788C130.769 77.4629 130.536 52.9202 130.248 52.9202Z" fill="#42210B"/>
<path d="M130.249 48.7012C130.249 48.8154 130.248 48.8725 130.245 48.8725H130.242C130.242 48.8725 130.24 48.8725 130.234 48.8725C130.229 48.8582 130.224 48.8511 130.219 48.8511C130.209 48.8511 130.203 48.8582 130.201 48.8725C130.198 48.8868 130.196 48.8939 130.195 48.8939C130.191 48.8939 130.19 48.8297 130.19 48.7012C130.19 48.5727 130.191 48.5084 130.193 48.5084C130.196 48.5084 130.199 48.5013 130.202 48.487C130.206 48.4727 130.209 48.3657 130.209 48.1658C130.209 47.9516 130.21 47.5019 130.21 46.8166V36.7511C130.21 36.2942 130.209 36.0229 130.209 35.9372C130.209 35.8516 130.208 35.8088 130.206 35.8088C130.206 35.8088 130.201 35.8444 130.193 35.9158C130.191 35.9301 130.19 35.9372 130.19 35.9372C130.188 35.9372 130.187 35.8873 130.187 35.7873C130.187 35.6731 130.188 35.6089 130.19 35.5946C130.196 35.5232 130.203 35.3233 130.209 34.9949C130.216 34.6523 130.221 34.2525 130.225 33.7956C130.226 33.6672 130.227 33.6029 130.228 33.6029C130.229 33.6029 130.23 33.6743 130.23 33.8171V34.224C130.229 34.3382 130.229 34.4667 130.229 34.6095V47.4162C130.229 47.9302 130.23 48.23 130.23 48.3157C130.23 48.4014 130.232 48.4513 130.235 48.4656L130.24 48.487L130.243 48.5084H130.246C130.248 48.5084 130.249 48.5727 130.249 48.7012Z" fill="black"/>
<path d="M130.617 59.6664C130.617 59.7806 130.615 59.8378 130.612 59.8378H130.61C130.61 59.8378 130.607 59.8378 130.602 59.8378C130.597 59.8235 130.592 59.8163 130.586 59.8163C130.577 59.8163 130.571 59.8235 130.568 59.8378C130.566 59.852 130.564 59.8592 130.562 59.8592C130.559 59.8592 130.557 59.7949 130.557 59.6664C130.557 59.5379 130.558 59.4737 130.56 59.4737C130.563 59.4737 130.567 59.4665 130.57 59.4523C130.574 59.438 130.576 59.3309 130.577 59.131C130.577 58.9169 130.577 58.4671 130.577 57.7818V47.7163C130.577 47.2594 130.577 46.9882 130.577 46.9025C130.577 46.8168 130.576 46.774 130.574 46.774C130.573 46.774 130.569 46.8097 130.561 46.8811C130.559 46.8954 130.558 46.9025 130.557 46.9025C130.556 46.9025 130.555 46.8525 130.555 46.7526C130.555 46.6384 130.556 46.5741 130.557 46.5598C130.564 46.4884 130.57 46.2886 130.577 45.9602C130.583 45.6175 130.589 45.2178 130.593 44.7609C130.594 44.6324 130.595 44.5681 130.596 44.5681C130.597 44.5681 130.597 44.6395 130.597 44.7823V45.1892C130.597 45.3034 130.597 45.4319 130.597 45.5747V58.3815C130.597 58.8955 130.597 59.1953 130.598 59.2809C130.598 59.3666 130.6 59.4166 130.603 59.4309L130.607 59.4523L130.611 59.4737H130.614C130.616 59.4737 130.617 59.5379 130.617 59.6664Z" fill="black"/>
<path d="M130.847 77.9339C130.847 77.9768 130.847 78.091 130.846 78.2766C130.846 78.7477 130.845 79.9114 130.843 81.7674L130.843 82.0244C130.829 81.953 130.813 81.9173 130.795 81.9173C130.785 81.9173 130.776 81.9316 130.768 81.9601C130.76 81.9887 130.756 82.003 130.757 82.003C130.753 82.003 130.752 81.9316 130.752 81.7888C130.752 81.6746 130.755 81.3177 130.762 80.718C130.779 79.2617 130.791 78.0767 130.798 77.163C130.811 75.5782 130.817 73.715 130.817 71.5734C130.817 70.1314 130.814 69.0392 130.809 68.2967C130.804 67.7256 130.798 67.4401 130.79 67.4401C130.782 67.4401 130.776 67.69 130.772 68.1897C130.768 68.5751 130.767 68.9606 130.767 69.3461C130.767 69.5888 130.768 69.7173 130.772 69.7316C130.782 69.7744 130.786 70.2099 130.786 71.038C130.786 71.8232 130.782 72.2159 130.775 72.2159C130.769 72.2159 130.765 72.0517 130.762 71.7233C130.76 71.3949 130.758 70.9452 130.758 70.3741C130.758 69.3176 130.762 68.4681 130.769 67.8256C130.776 67.1831 130.785 66.8619 130.796 66.8619C130.808 66.8619 130.818 67.2474 130.825 68.0183C130.834 68.9178 130.838 70.0885 130.838 71.5306C130.838 73.1153 130.833 74.5788 130.823 75.9208C130.813 77.2486 130.796 78.6978 130.773 80.2683C130.782 80.2397 130.793 80.2255 130.806 80.2255C130.818 80.2255 130.825 80.2112 130.828 80.1826C130.831 80.1398 130.833 80.047 130.836 79.9042C130.838 79.7757 130.839 79.2974 130.841 78.4693C130.842 77.8982 130.843 77.6127 130.845 77.6127C130.846 77.6127 130.847 77.7198 130.847 77.9339Z" fill="black"/>
<path d="M130.93 107.778C130.93 109.081 130.925 110.196 130.915 111.123C130.903 112.144 130.889 112.654 130.872 112.654C130.858 112.654 130.848 112.308 130.841 111.617C130.837 111.178 130.835 110.675 130.835 110.11C130.835 109.623 130.836 109.238 130.839 108.955C130.842 108.657 130.846 108.508 130.851 108.508C130.855 108.508 130.858 108.626 130.861 108.861C130.863 109.097 130.865 109.395 130.865 109.756C130.865 110.306 130.861 110.738 130.854 111.052C130.851 111.178 130.85 111.303 130.85 111.429C130.85 111.633 130.852 111.822 130.856 111.994C130.86 112.151 130.864 112.23 130.868 112.23C130.88 112.23 130.889 111.822 130.896 111.005C130.903 110.188 130.907 109.12 130.907 107.801C130.907 105.147 130.895 103.82 130.873 103.82C130.87 103.82 130.869 103.828 130.868 103.843H130.866C130.864 103.843 130.863 103.773 130.863 103.631C130.863 103.521 130.865 103.435 130.869 103.372C130.879 103.215 130.887 102.815 130.893 102.171C130.898 101.511 130.901 100.671 130.901 99.6502C130.901 98.6451 130.899 97.8441 130.894 97.2473C130.889 96.6348 130.882 96.3286 130.874 96.3286C130.868 96.3286 130.862 96.4699 130.858 96.7526C130.853 97.0196 130.851 97.3337 130.851 97.6949C130.851 97.8362 130.852 97.9305 130.854 97.9776C130.864 98.2289 130.869 98.6608 130.869 99.2733C130.869 100.074 130.865 100.475 130.857 100.475C130.852 100.475 130.848 100.318 130.845 100.004C130.842 99.6894 130.84 99.2733 130.84 98.755C130.84 97.9069 130.844 97.2002 130.851 96.6348C130.858 96.0537 130.867 95.7632 130.88 95.7632C130.894 95.7632 130.905 96.1479 130.912 96.9175C130.92 97.687 130.923 98.5822 130.923 99.6031C130.923 101.017 130.917 102.061 130.904 102.736C130.9 102.972 130.893 103.168 130.883 103.325V103.49C130.895 103.537 130.905 103.828 130.913 104.362C130.924 105.147 130.93 106.286 130.93 107.778Z" fill="black"/>
<path d="M130.846 140.019C130.846 140.176 130.846 140.255 130.844 140.255C130.843 140.255 130.842 140.168 130.842 139.996C130.841 139.807 130.841 139.312 130.84 138.511C130.84 138.386 130.839 138.292 130.838 138.229C130.836 138.119 130.832 138.064 130.826 138.064C130.825 138.064 130.823 138.072 130.822 138.087L130.822 141.786C130.823 141.974 130.824 142.092 130.825 142.139C130.827 142.186 130.831 142.21 130.838 142.21C130.841 142.21 130.843 142.241 130.844 142.304C130.844 142.336 130.844 142.383 130.844 142.445C130.844 142.555 130.841 142.61 130.835 142.61C130.829 142.61 130.813 142.626 130.785 142.658C130.784 142.673 130.782 142.681 130.78 142.681C130.777 142.681 130.776 142.603 130.776 142.445C130.776 142.288 130.778 142.218 130.782 142.233C130.787 142.249 130.792 142.218 130.796 142.139C130.798 142.108 130.799 142.029 130.799 141.904C130.8 141.762 130.8 141.464 130.8 141.008V138.158C130.797 138.142 130.794 138.134 130.79 138.134H130.781C130.779 138.134 130.776 138.142 130.774 138.158C130.771 138.158 130.77 138.158 130.769 138.158L130.741 138.087C130.739 138.072 130.738 138.009 130.738 137.899C130.738 137.82 130.749 136.195 130.771 133.022C130.778 132.002 130.793 129.756 130.816 126.285C130.817 126.128 130.818 126.049 130.819 126.049C130.821 126.049 130.822 126.199 130.822 126.497V137.569H130.824C130.829 137.569 130.833 137.538 130.836 137.475C130.839 137.412 130.84 137.255 130.84 137.004C130.84 136.014 130.84 135.677 130.84 135.991C130.84 135.425 130.841 135.143 130.842 135.143C130.845 135.143 130.846 135.363 130.846 135.802V136.862L130.846 138.558C130.846 139.14 130.846 139.509 130.846 139.666C130.846 139.807 130.846 139.925 130.846 140.019ZM130.801 129.512C130.8 129.764 130.797 130.243 130.792 130.949C130.785 131.907 130.776 133.337 130.762 135.237L130.746 137.522C130.752 137.569 130.764 137.593 130.782 137.593C130.788 137.593 130.794 137.585 130.8 137.569V135.896C130.8 135.111 130.8 134.051 130.801 132.716C130.801 131.146 130.801 130.078 130.801 129.512Z" fill="black"/>
<path d="M130.632 167.346C130.632 169.173 130.626 170.573 130.612 171.544C130.604 172.129 130.594 172.422 130.581 172.422C130.569 172.422 130.559 172.072 130.553 171.372C130.55 170.987 130.548 170.53 130.548 170.002C130.548 169.559 130.55 169.202 130.552 168.931C130.555 168.645 130.559 168.502 130.563 168.502C130.567 168.502 130.569 168.61 130.572 168.824C130.574 169.038 130.575 169.302 130.575 169.616C130.575 170.144 130.572 170.544 130.565 170.815C130.562 170.93 130.561 171.058 130.561 171.201C130.561 171.429 130.563 171.636 130.567 171.822C130.571 171.993 130.575 172.079 130.58 172.079C130.59 172.079 130.597 171.736 130.602 171.051C130.608 170.109 130.611 168.838 130.611 167.239C130.611 166.068 130.609 165.162 130.604 164.519C130.599 163.877 130.591 163.555 130.582 163.555C130.574 163.555 130.566 163.848 130.557 164.433C130.558 161.221 130.559 159.194 130.559 158.351C130.559 157.866 130.56 157.573 130.562 157.473C130.564 157.359 130.569 157.302 130.578 157.302C130.579 157.302 130.582 157.302 130.585 157.302C130.588 157.316 130.591 157.323 130.593 157.323H130.599C130.609 157.323 130.614 157.309 130.616 157.28C130.617 157.238 130.618 157.116 130.619 156.916C130.619 156.588 130.62 156.424 130.622 156.424C130.623 156.424 130.624 156.502 130.624 156.659C130.624 156.759 130.624 156.838 130.623 156.895L130.623 157.388C130.622 158.187 130.621 158.687 130.619 158.887C130.617 159.072 130.612 159.165 130.604 159.165L130.565 159.144C130.564 159.629 130.564 161.093 130.563 163.534C130.571 163.163 130.579 162.977 130.587 162.977C130.601 162.977 130.612 163.37 130.62 164.155C130.628 164.926 130.632 165.99 130.632 167.346Z" fill="black"/>
<path d="M130.302 177.497C130.302 178.882 130.298 180.067 130.29 181.052C130.282 182.037 130.272 182.53 130.261 182.53C130.247 182.53 130.236 181.923 130.227 180.71C130.219 179.496 130.214 177.918 130.214 175.977C130.214 174.192 130.218 172.564 130.225 171.094C130.233 169.623 130.243 168.552 130.255 167.881C130.265 167.325 130.277 167.046 130.289 167.046C130.292 167.046 130.293 167.103 130.293 167.217C130.293 167.317 130.292 167.374 130.29 167.389C130.278 167.503 130.267 167.967 130.258 168.781C130.246 169.837 130.238 171.636 130.236 174.178C130.244 173.435 130.252 173.064 130.261 173.064C130.269 173.064 130.276 173.278 130.283 173.706C130.296 174.52 130.302 175.784 130.302 177.497ZM130.281 177.561C130.281 174.906 130.273 173.578 130.258 173.578C130.251 173.578 130.245 173.899 130.241 174.542C130.238 175.17 130.236 176.055 130.236 177.197C130.236 178.839 130.238 180.167 130.244 181.181C130.248 181.823 130.253 182.144 130.259 182.144C130.274 182.144 130.281 180.617 130.281 177.561Z" fill="black"/>
<path d="M129.964 158.394C129.964 158.48 129.957 159.815 129.941 162.399C129.932 163.855 129.926 164.997 129.923 165.825C129.919 166.639 129.918 167.453 129.918 168.267C129.918 168.681 129.919 169.495 129.921 170.708C129.921 171.136 129.922 171.501 129.922 171.8C129.922 172.814 129.918 173.321 129.911 173.321C129.902 173.321 129.898 172.543 129.898 170.987C129.898 169.545 129.904 167.646 129.917 165.29C129.925 163.805 129.935 162.077 129.948 160.107H129.917C129.901 160.107 129.892 160.114 129.89 160.129C129.887 160.143 129.884 160.193 129.883 160.279C129.882 160.364 129.881 160.486 129.881 160.643C129.88 160.785 129.879 161.285 129.878 162.142C129.877 162.313 129.876 162.399 129.875 162.399C129.874 162.399 129.873 162.313 129.873 162.142C129.873 161.97 129.873 161.692 129.874 161.307C129.876 160.436 129.877 159.693 129.877 159.079C129.877 158.637 129.878 158.33 129.88 158.158C129.881 158.158 129.883 158.173 129.888 158.201C129.898 158.258 129.906 158.287 129.91 158.287L129.952 158.244C129.954 158.244 129.955 158.237 129.956 158.223C129.957 158.223 129.958 158.223 129.958 158.223C129.962 158.223 129.964 158.28 129.964 158.394Z" fill="black"/>
<path d="M129.748 143.51C129.748 144.938 129.743 146.087 129.732 146.958C129.724 147.543 129.715 147.836 129.703 147.836C129.691 147.836 129.681 147.551 129.673 146.979C129.661 146.208 129.656 145.123 129.656 143.724C129.656 141.597 129.667 140.248 129.689 139.677V139.569C129.68 139.327 129.674 138.92 129.669 138.349C129.664 137.763 129.662 137.071 129.662 136.271C129.662 135.158 129.666 134.251 129.673 133.552C129.68 132.838 129.69 132.481 129.701 132.481C129.711 132.481 129.72 132.738 129.726 133.252C129.736 133.994 129.741 134.951 129.741 136.122C129.741 136.964 129.738 137.721 129.733 138.392C129.729 139.048 129.723 139.448 129.716 139.591L129.716 139.677C129.738 140.133 129.748 141.411 129.748 143.51ZM129.72 136.164C129.72 134.894 129.718 133.958 129.714 133.359C129.711 133.002 129.707 132.823 129.701 132.823C129.689 132.823 129.682 133.944 129.682 136.186C129.682 138.37 129.689 139.462 129.703 139.462C129.709 139.462 129.713 139.227 129.716 138.756C129.719 138.142 129.72 137.278 129.72 136.164ZM129.728 143.724C129.728 141.126 129.719 139.826 129.703 139.826C129.695 139.826 129.688 140.162 129.684 140.833C129.679 141.49 129.677 142.404 129.677 143.574C129.677 144.788 129.679 145.744 129.684 146.444C129.689 147.144 129.695 147.493 129.704 147.493C129.711 147.493 129.716 147.279 129.72 146.851C129.725 146.166 129.728 145.123 129.728 143.724Z" fill="black"/>
<path d="M129.663 102.59C129.663 104.648 129.658 106.516 129.649 108.197C129.64 109.862 129.628 111.016 129.614 111.66C129.603 112.131 129.592 112.367 129.581 112.367C129.578 112.367 129.576 112.312 129.576 112.202C129.576 112.107 129.577 112.045 129.579 112.013C129.604 111.668 129.621 110.348 129.631 108.056C129.634 107.129 129.637 105.951 129.638 104.522C129.63 105.339 129.621 105.747 129.611 105.747C129.601 105.747 129.592 105.433 129.584 104.805C129.572 103.894 129.566 102.551 129.566 100.776C129.566 99.2686 129.57 97.9886 129.579 96.9364C129.588 95.8684 129.599 95.3344 129.611 95.3344C129.626 95.3344 129.639 96.0098 129.648 97.3604C129.658 98.711 129.663 100.454 129.663 102.59ZM129.639 101.035C129.639 99.245 129.636 97.8315 129.63 96.795C129.625 96.0883 129.62 95.7349 129.612 95.7349C129.597 95.7349 129.589 97.4311 129.589 100.823C129.589 103.729 129.598 105.182 129.615 105.182C129.622 105.182 129.628 104.82 129.633 104.098C129.637 103.36 129.639 102.339 129.639 101.035Z" fill="black"/>
<path d="M129.712 80.1826C129.712 80.2968 129.711 80.3539 129.708 80.3539H129.705C129.705 80.3539 129.703 80.3539 129.697 80.3539C129.692 80.3397 129.687 80.3325 129.682 80.3325C129.672 80.3325 129.666 80.3397 129.664 80.3539C129.661 80.3682 129.659 80.3753 129.658 80.3753C129.654 80.3753 129.653 80.3111 129.653 80.1826C129.653 80.0541 129.654 79.9899 129.656 79.9899C129.659 79.9899 129.662 79.9827 129.665 79.9684C129.669 79.9542 129.672 79.8471 129.672 79.6472C129.672 79.433 129.673 78.9833 129.673 78.298V68.2325C129.673 67.7756 129.672 67.5043 129.672 67.4187C129.672 67.333 129.671 67.2902 129.669 67.2902C129.669 67.2902 129.664 67.3259 129.656 67.3972C129.654 67.4115 129.653 67.4187 129.653 67.4187C129.651 67.4187 129.65 67.3687 129.65 67.2688C129.65 67.1545 129.651 67.0903 129.653 67.076C129.659 67.0046 129.666 66.8047 129.672 66.4764C129.679 66.1337 129.684 65.7339 129.688 65.2771C129.689 65.1486 129.69 65.0843 129.691 65.0843C129.692 65.0843 129.692 65.1557 129.692 65.2985V65.7054C129.692 65.8196 129.692 65.9481 129.692 66.0909V78.8976C129.692 79.4116 129.692 79.7114 129.693 79.7971C129.693 79.8828 129.695 79.9327 129.698 79.947L129.703 79.9684L129.706 79.9899H129.709C129.711 79.9899 129.712 80.0541 129.712 80.1826Z" fill="black"/>
<path d="M129.931 58.3384C129.931 58.4526 129.929 58.5097 129.926 58.5097H129.924C129.924 58.5097 129.921 58.5097 129.916 58.5097C129.911 58.4954 129.906 58.4883 129.9 58.4883C129.891 58.4883 129.885 58.4954 129.882 58.5097C129.88 58.524 129.878 58.5311 129.876 58.5311C129.873 58.5311 129.871 58.4669 129.871 58.3384C129.871 58.2099 129.872 58.1456 129.874 58.1456C129.877 58.1456 129.88 58.1385 129.884 58.1242C129.888 58.1099 129.89 58.0029 129.891 57.803C129.891 57.5888 129.891 57.1391 129.891 56.4538V46.3883C129.891 45.9314 129.891 45.6601 129.891 45.5744C129.89 45.4888 129.89 45.446 129.888 45.446C129.887 45.446 129.883 45.4816 129.875 45.553C129.873 45.5673 129.872 45.5744 129.871 45.5744C129.87 45.5744 129.869 45.5245 129.869 45.4245C129.869 45.3103 129.87 45.2461 129.871 45.2318C129.878 45.1604 129.884 44.9605 129.891 44.6321C129.897 44.2895 129.902 43.8897 129.906 43.4328C129.908 43.3044 129.909 43.2401 129.909 43.2401C129.911 43.2401 129.911 43.3115 129.911 43.4543V43.8612C129.911 43.9754 129.911 44.1039 129.911 44.2467V57.0534C129.911 57.5674 129.911 57.8672 129.912 57.9529C129.912 58.0386 129.914 58.0885 129.917 58.1028L129.921 58.1242L129.925 58.1456H129.928C129.93 58.1456 129.931 58.2099 129.931 58.3384Z" fill="black"/>
<path d="M130.327 44.8249C130.327 44.8677 130.327 44.9819 130.327 45.1675C130.326 45.6387 130.325 46.8023 130.324 48.6584L130.323 48.9153C130.309 48.844 130.293 48.8083 130.276 48.8083C130.266 48.8083 130.257 48.8225 130.248 48.8511C130.24 48.8797 130.236 48.8939 130.237 48.8939C130.234 48.8939 130.232 48.8225 130.232 48.6798C130.232 48.5655 130.235 48.2086 130.243 47.609C130.26 46.1527 130.272 44.9677 130.279 44.0539C130.291 42.4691 130.298 40.6059 130.298 38.4643C130.298 37.0223 130.295 35.9301 130.289 35.1877C130.285 34.6166 130.279 34.331 130.271 34.331C130.263 34.331 130.257 34.5809 130.252 35.0806C130.249 35.4661 130.247 35.8516 130.247 36.2371C130.247 36.4798 130.249 36.6083 130.253 36.6226C130.262 36.6654 130.267 37.1009 130.267 37.9289C130.267 38.7142 130.263 39.1068 130.255 39.1068C130.25 39.1068 130.246 38.9426 130.243 38.6142C130.24 38.2859 130.238 37.8361 130.238 37.265C130.238 36.2085 130.242 35.359 130.249 34.7165C130.256 34.0741 130.265 33.7528 130.277 33.7528C130.288 33.7528 130.298 34.1383 130.306 34.9093C130.314 35.8088 130.319 36.9795 130.319 38.4215C130.319 40.0063 130.314 41.4697 130.304 42.8118C130.294 44.1396 130.277 45.5887 130.253 47.1592C130.262 47.1307 130.273 47.1164 130.287 47.1164C130.298 47.1164 130.305 47.1021 130.308 47.0736C130.311 47.0307 130.314 46.9379 130.316 46.7952C130.318 46.6667 130.32 46.1884 130.321 45.3603C130.322 44.7892 130.323 44.5036 130.325 44.5036C130.327 44.5036 130.327 44.6107 130.327 44.8249Z" fill="black"/>
<path d="M129.984 58.3384C129.984 58.4526 129.982 58.5097 129.979 58.5097H129.977C129.977 58.5097 129.974 58.5097 129.969 58.5097C129.964 58.4954 129.959 58.4883 129.953 58.4883C129.944 58.4883 129.938 58.4954 129.935 58.5097C129.933 58.524 129.931 58.5311 129.929 58.5311C129.926 58.5311 129.924 58.4669 129.924 58.3384C129.924 58.2099 129.925 58.1456 129.927 58.1456C129.93 58.1456 129.933 58.1385 129.937 58.1242C129.941 58.1099 129.943 58.0029 129.943 57.803C129.944 57.5888 129.944 57.1391 129.944 56.4538V46.3883C129.944 45.9314 129.944 45.6601 129.944 45.5744C129.943 45.4888 129.942 45.446 129.941 45.446C129.94 45.446 129.936 45.4816 129.928 45.553C129.926 45.5673 129.925 45.5744 129.924 45.5744C129.923 45.5744 129.922 45.5245 129.922 45.4245C129.922 45.3103 129.923 45.2461 129.924 45.2318C129.931 45.1604 129.937 44.9605 129.944 44.6321C129.95 44.2895 129.955 43.8897 129.959 43.4328C129.961 43.3044 129.962 43.2401 129.962 43.2401C129.964 43.2401 129.964 43.3115 129.964 43.4543V43.8612C129.964 43.9754 129.964 44.1039 129.964 44.2467V57.0534C129.964 57.5674 129.964 57.8672 129.964 57.9529C129.965 58.0386 129.967 58.0885 129.97 58.1028L129.974 58.1242L129.978 58.1456H129.981C129.983 58.1456 129.984 58.2099 129.984 58.3384Z" fill="black"/>
<path d="M129.792 73.1582C129.792 74.4288 129.791 75.6281 129.787 76.756C129.783 77.8839 129.779 78.7906 129.772 79.4759C129.766 80.2183 129.757 80.5895 129.747 80.5895C129.733 80.5895 129.721 79.8614 129.712 78.4051C129.703 76.9488 129.698 75.0856 129.698 72.8155C129.698 70.1885 129.705 68.1183 129.718 66.6049C129.725 65.6911 129.735 65.2342 129.746 65.2342C129.759 65.2342 129.77 65.8696 129.778 67.1403C129.788 68.7108 129.792 70.7167 129.792 73.1582ZM129.77 72.3872C129.77 70.2599 129.768 68.5037 129.764 67.1188C129.76 66.0623 129.754 65.5341 129.746 65.5341C129.729 65.5341 129.72 67.9255 129.72 72.7084C129.72 77.7198 129.729 80.2254 129.747 80.2254C129.756 80.2254 129.762 79.4973 129.765 78.041C129.769 76.7132 129.77 74.8286 129.77 72.3872Z" fill="black"/>
<path d="M130.248 111.3C130.229 111.3 130.214 109.715 130.214 107.745C130.214 105.775 130.229 104.19 130.248 104.19C130.266 104.19 130.281 105.775 130.281 107.745C130.281 109.715 130.266 111.3 130.248 111.3Z" fill="black"/>
<path d="M130.248 105.389C130.26 105.389 130.27 106.46 130.27 107.745C130.27 109.03 130.26 110.101 130.248 110.101C130.235 110.101 130.225 109.03 130.225 107.745C130.225 106.46 130.235 105.389 130.248 105.389ZM130.248 103.033C130.223 103.033 130.203 105.132 130.203 107.745C130.203 110.358 130.223 112.456 130.248 112.456C130.273 112.456 130.292 110.358 130.292 107.745C130.292 105.132 130.273 103.033 130.248 103.033Z" fill="black"/>
<path d="M130.038 120.594L130.139 119.138L130.158 113.57L130.104 112.328L130.038 120.594Z" fill="black" stroke="#1A1A1A" stroke-width="0.05" stroke-miterlimit="10"/>
<path d="M130.206 110.786L130.192 116.054L130.142 114.598L130.157 109.458L130.206 110.786Z" fill="black" stroke="#1A1A1A" stroke-width="0.05" stroke-miterlimit="10"/>
<path d="M130.598 87.9993C130.598 87.9993 130.66 85.9434 130.691 88.5989C130.691 88.5989 130.696 81.3175 130.782 76.6917C130.782 76.6917 130.7 82.5168 130.638 78.6191C130.638 78.6191 130.629 83.8018 130.592 86.5858L130.598 87.9993H130.598Z" fill="black" stroke="black" stroke-width="0.05" stroke-miterlimit="10"/>
<path d="M130.548 85.9434L130.469 92.5395L130.507 92.7965L130.495 96.6514L130.587 92.5395L130.615 86.5002L130.548 85.9434Z" fill="black" stroke="black" stroke-width="0.05" stroke-miterlimit="10"/>
<path d="M130.291 104.018L130.456 91.383L130.533 91.2974L130.492 98.1505L130.304 106.374C130.303 105.989 130.293 104.275 130.291 104.018H130.291Z" fill="black" stroke="#1A1A1A" stroke-width="0.05" stroke-miterlimit="10"/>
<path d="M130.627 90.612C130.608 88.6846 130.595 86.3716 130.588 83.7161C130.606 85.6435 130.619 87.9564 130.627 90.612Z" fill="#1A1A1A"/>
<path d="M130.124 87.9564L130.141 97.4223L130.19 98.9642L130.198 93.7387L130.124 87.9564Z" fill="black" stroke="#1A1A1A" stroke-width="0.05" stroke-miterlimit="10"/>
<path d="M130.216 103.333L130.17 102.219L130.18 97.4222L130.225 98.6215L130.216 103.333Z" fill="black" stroke="#1A1A1A" stroke-width="0.05" stroke-miterlimit="10"/>
<path d="M130.268 112.842L130.284 119.524L130.331 120.851L130.339 115.712L130.288 111.514C130.286 111.771 130.271 112.713 130.268 112.842Z" fill="black" stroke="#1A1A1A" stroke-width="0.05" stroke-miterlimit="10"/>
<path d="M130.318 121.708C130.318 121.708 130.325 128.476 130.305 131.559C130.305 131.559 130.398 131.302 130.445 138.927C130.445 138.927 130.4 129.247 130.428 123.079C130.428 123.079 130.367 123.421 130.341 120.209L130.318 121.708H130.318Z" fill="black" stroke="#1A1A1A" stroke-width="0.05" stroke-miterlimit="10"/>
<path d="M130.301 122.436C130.315 120.337 130.333 119.095 130.357 118.71C130.344 120.809 130.324 122.051 130.301 122.436Z" fill="#1A1A1A"/>
</g>
<defs>
<linearGradient id="paint0_linear_312_1107" x1="203.091" y1="107.337" x2="213.512" y2="170.577" gradientUnits="userSpaceOnUse">
<stop stop-color="#4D607A"/>
<stop offset="0.17" stop-color="#455E7B"/>
<stop offset="0.41" stop-color="#305B7F"/>
<stop offset="0.72" stop-color="#0E5785"/>
<stop offset="0.82" stop-color="#005588"/>
</linearGradient>
<radialGradient id="paint1_radial_312_1107" cx="0" cy="0" r="1" gradientUnits="userSpaceOnUse" gradientTransform="translate(213.118 139.77) rotate(29.2585) scale(17.908 17.9008)">
<stop offset="0.45" stop-color="#00FFFF"/>
<stop offset="0.61" stop-color="#00FBFF"/>
<stop offset="0.75" stop-color="#00F0FF"/>
<stop offset="0.89" stop-color="#00DEFF"/>
<stop offset="1" stop-color="#00CAFF"/>
</radialGradient>
<clipPath id="clip0_312_1107">
<rect width="405" height="219" fill="white"/>
</clipPath>
</defs>
</svg>
