<svg width="784" height="424" viewBox="0 0 784 424" fill="none" xmlns="http://www.w3.org/2000/svg">
<g clip-path="url(#clip0_77_1180)">
<path d="M31.8915 136.994C56.3915 128.203 80.8915 120.491 105.308 111.701L200.817 103.16C192.595 107.306 183.044 111.452 172.247 115.184C168.178 116.594 157.63 120.16 135.373 124.721C129.725 125.881 111.122 129.696 83.7152 133.179C70.0119 134.92 52.4881 135.667 31.8085 136.994H31.8915Z" fill="#42210B" stroke="black" stroke-width="0.05" stroke-miterlimit="10"/>
<path d="M766.144 140.559L696.381 115.101H637.581C652.198 122.399 671.881 130.525 695.966 135.916C723.954 142.218 748.288 141.554 766.227 140.559H766.144Z" fill="#42210B" stroke="black" stroke-width="0.05" stroke-miterlimit="10"/>
<path d="M157.298 409.239C157.298 410.151 157.714 417.283 155.056 420.185C151.069 424.58 144.591 423.502 143.761 423.419C103.481 423.751 47.422 421.678 6.31182 421.927C4.23554 421.927 2.32537 420.849 1.41182 418.941C-2.65768 410.483 7.22537 397.795 7.47453 397.463C8.72029 397.546 9.79995 405.59 11.0457 405.673C61.7067 409.654 157.298 409.239 157.298 409.239Z" fill="#603813" stroke="black" stroke-width="0.1" stroke-miterlimit="10"/>
<path d="M169.091 395.722C169.091 396.634 168.012 400.863 164.607 405.093C161.866 408.576 154.973 408.658 154.142 408.576C113.697 408.907 53.8999 406.668 12.7897 406.917C11.4609 406.917 10.1321 406.419 9.38465 405.341C3.48804 396.883 13.7863 383.698 14.0355 383.283C15.2813 383.366 14.6169 390.415 15.8626 390.498C66.5236 394.561 118.43 391.659 169.091 395.722Z" fill="#603813" stroke="black" stroke-width="0.1" stroke-miterlimit="10"/>
<path d="M637.166 407.166C637.166 408.078 636.834 415.21 639.242 418.112C642.897 422.507 648.959 421.429 649.79 421.346C687.329 421.678 739.651 419.605 777.937 419.853C779.847 419.853 781.675 418.775 782.505 416.868C786.325 408.41 777.107 395.722 776.858 395.39C775.695 395.473 774.698 403.517 773.536 403.6C726.28 407.58 637.166 407.166 637.166 407.166Z" fill="#603813" stroke="black" stroke-width="0.15" stroke-miterlimit="10"/>
<path d="M626.12 393.649C626.12 394.561 627.117 398.79 630.273 403.019C632.848 406.502 639.242 406.585 640.073 406.502C677.778 406.834 733.588 404.595 771.875 404.844C773.12 404.844 774.366 404.346 775.031 403.268C780.512 394.81 770.38 381.625 770.131 381.21C768.968 381.293 768.885 388.342 767.722 388.425C720.466 392.488 673.293 389.585 626.037 393.649H626.12Z" fill="#603813" stroke="black" stroke-width="0.15" stroke-miterlimit="10"/>
<path d="M31.8915 138.071C32.1406 146.447 32.4728 158.72 32.6389 173.647C33.0542 213.534 33.2203 233.851 29.566 251.016C26.8254 263.953 21.0949 282.777 7.64062 304.338C10.0491 331.455 12.9559 362.386 15.3644 389.751C15.5305 391.327 16.7762 392.571 18.4372 392.654C68.8491 395.639 118.763 392.405 169.175 395.556C170.005 394.064 172.663 390.581 177.895 389.088C183.708 387.429 188.941 386.932 190.602 387.181C326.224 385.273 465.334 387.347 600.956 385.439C603.364 385.108 613.912 384.776 618.48 385.439C621.885 385.937 624.459 389.834 626.203 391.907C675.12 390.581 718.888 389.751 767.805 388.508L781.01 305.333C777.273 300.357 771.708 292.148 767.39 281.119C758.42 258.646 760.663 240.651 763.652 190.895C764.317 180.281 765.313 163.198 766.31 141.637C754.351 141.637 738.073 140.891 718.971 138.071C696.298 134.671 657.929 126.545 610.341 102.164C535.429 63.7698 541.408 36.1555 489.003 15.8386C420.403 -10.7806 354.71 5.72169 344.08 8.54117C260.447 30.6824 243.422 99.2621 161.866 119.081C128.812 127.125 89.5288 132.432 89.5288 132.432C65.9423 135.667 46.1762 137.242 32.2237 138.071H31.8915Z" fill="#603813" stroke="black" stroke-width="0.25" stroke-miterlimit="10"/>
<path d="M31.8915 137.989L75.5762 392.571L169.175 395.722C158.378 306.411 146.336 214.612 135.539 125.301C116.769 129.53 95.6745 133.262 72.5033 135.584C58.2186 136.993 44.5983 137.74 31.8915 137.989Z" fill="#42210B" stroke="black" stroke-width="0.05" stroke-miterlimit="10"/>
<path d="M670.22 128.618L629.692 390.664L722.376 388.839L766.144 143.296C752.358 143.296 736.412 142.384 718.805 139.73C700.202 136.911 683.924 132.847 670.22 128.535V128.618Z" fill="#42210B" stroke="black" stroke-width="0.05" stroke-miterlimit="10"/>
<path d="M405.827 355.206C488.022 355.206 554.654 288.674 554.654 206.603C554.654 124.532 488.022 58 405.827 58C323.632 58 257 124.532 257 206.603C257 288.674 323.632 355.206 405.827 355.206Z" fill="#391E00" stroke="#2B140A" stroke-width="0.75" stroke-miterlimit="10"/>
<path d="M294.732 301.961C303.458 311.158 340.947 348.752 400.252 351.495C468.687 354.641 513.044 309.141 520.235 301.477C455.113 303.171 359.773 300.267 294.732 301.961Z" fill="#2B140A"/>
<path d="M294.416 359.318C321.8 359.318 344 290.93 344 206.568C344 122.207 321.8 53.8188 294.416 53.8188C267.031 53.8188 244.831 122.207 244.831 206.568C244.831 290.93 267.031 359.318 294.416 359.318Z" fill="#E4E4D9" stroke="#2B140A" stroke-width="0.75" stroke-miterlimit="10"/>
<path d="M294.254 101.169C312.882 101.169 328.064 147.856 328.064 205.324C328.064 262.792 312.909 309.479 294.254 309.479C275.599 309.479 260.444 262.792 260.444 205.324C260.444 147.856 275.599 101.169 294.254 101.169ZM294.254 99.0961C275.223 99.0961 259.771 146.613 259.771 205.324C259.771 264.036 275.196 311.552 294.254 311.552C313.313 311.552 328.737 264.036 328.737 205.324C328.737 146.613 313.313 99.0961 294.254 99.0961Z" fill="#42210B"/>
<path d="M240.847 190.812L241.117 231.114C241.117 231.114 242.947 235.343 244.374 230.617L243.916 190.895C243.916 189.734 242.005 186.085 240.847 190.895V190.812Z" fill="#666666" stroke="#1A1A1A" stroke-width="0.08" stroke-miterlimit="10"/>
<path d="M242.382 193.963C243.229 193.963 243.916 192.701 243.916 191.144C243.916 189.587 243.229 188.324 242.382 188.324C241.534 188.324 240.847 189.587 240.847 191.144C240.847 192.701 241.534 193.963 242.382 193.963Z" fill="#1A1A1A"/>
<path d="M240.847 203.5C240.847 203.5 242.463 207.563 244.051 203.5" stroke="#1A1A1A" stroke-width="0.05" stroke-miterlimit="10"/>
<path d="M241.009 214.861C241.009 214.861 242.463 218.758 244.132 214.778" stroke="#1A1A1A" stroke-width="0.05" stroke-miterlimit="10"/>
<path d="M305.998 87.4686C305.998 87.6873 305.697 87.7966 305.096 87.7966H304.604C304.604 87.7966 304.085 87.7966 303.046 87.7966C302.007 87.7693 300.955 87.7556 299.889 87.7556C298.003 87.7556 296.8 87.7693 296.281 87.7966C295.762 87.8239 295.352 87.8376 295.051 87.8376C294.395 87.8376 294.067 87.7146 294.067 87.4686C294.067 87.2226 294.258 87.0996 294.641 87.0996C295.242 87.0996 295.885 87.0859 296.568 87.0586C297.415 87.0313 297.866 86.8263 297.921 86.4436C298.003 86.0336 298.044 85.1726 298.044 83.8606V64.5906C298.044 63.7159 298.017 63.1966 297.962 63.0326C297.907 62.8686 297.716 62.7866 297.388 62.7866C297.251 62.7866 296.363 62.8549 294.723 62.9916C294.395 63.0189 294.176 63.0326 294.067 63.0326C293.739 63.0326 293.575 62.9369 293.575 62.7456C293.575 62.5269 293.739 62.4039 294.067 62.3766C295.352 62.2399 296.65 61.8573 297.962 61.2286C299.274 60.5726 300.326 59.8073 301.119 58.9326C301.42 58.6866 301.625 58.5636 301.734 58.5636C301.953 58.5636 302.062 58.7003 302.062 58.9736V59.7526C302.035 59.9713 302.021 60.2173 302.021 60.4906V85.0086C302.021 85.9926 302.062 86.5666 302.144 86.7306C302.253 86.8946 302.595 86.9903 303.169 87.0176L304.112 87.0586L304.809 87.0996H305.424C305.807 87.0996 305.998 87.2226 305.998 87.4686Z" fill="black"/>
<path d="M330.306 108.698C330.306 108.916 330.005 109.026 329.404 109.026H328.912C328.912 109.026 328.392 109.026 327.354 109.026C326.315 108.998 325.263 108.985 324.197 108.985C322.311 108.985 321.108 108.998 320.589 109.026C320.069 109.053 319.659 109.067 319.359 109.067C318.703 109.067 318.375 108.944 318.375 108.698C318.375 108.452 318.566 108.329 318.949 108.329C319.55 108.329 320.192 108.315 320.876 108.288C321.723 108.26 322.174 108.055 322.229 107.673C322.311 107.263 322.352 106.402 322.352 105.09V85.8196C322.352 84.945 322.324 84.4256 322.27 84.2616C322.215 84.0976 322.024 84.0156 321.696 84.0156C321.559 84.0156 320.671 84.084 319.031 84.2206C318.703 84.248 318.484 84.2616 318.375 84.2616C318.047 84.2616 317.883 84.166 317.883 83.9746C317.883 83.756 318.047 83.633 318.375 83.6056C319.659 83.469 320.958 83.0863 322.27 82.4576C323.582 81.8016 324.634 81.0363 325.427 80.1616C325.727 79.9156 325.932 79.7926 326.042 79.7926C326.26 79.7926 326.37 79.9293 326.37 80.2026V80.9816C326.342 81.2003 326.329 81.4463 326.329 81.7196V106.238C326.329 107.222 326.37 107.796 326.452 107.96C326.561 108.124 326.903 108.219 327.477 108.247L328.42 108.288L329.117 108.329H329.732C330.114 108.329 330.306 108.452 330.306 108.698Z" fill="black"/>
<path d="M347.442 144.149C347.442 144.231 347.415 144.45 347.36 144.805C347.224 145.707 347.005 147.935 346.704 151.488L346.663 151.98C343.848 151.844 340.636 151.775 337.028 151.775C335.088 151.775 333.27 151.803 331.575 151.857C329.881 151.912 329.143 151.939 329.361 151.939C328.623 151.939 328.254 151.803 328.254 151.529C328.254 151.311 328.965 150.627 330.386 149.479C333.803 146.691 336.236 144.423 337.684 142.673C340.199 139.639 341.456 136.072 341.456 131.972C341.456 129.212 340.882 127.121 339.734 125.699C338.86 124.606 337.63 124.059 336.044 124.059C334.486 124.059 333.256 124.538 332.354 125.494C331.644 126.232 331.288 126.97 331.288 127.708C331.288 128.173 331.657 128.419 332.395 128.446C334.309 128.528 335.265 129.362 335.265 130.947C335.265 132.451 334.473 133.202 332.887 133.202C331.876 133.202 331.07 132.888 330.468 132.259C329.867 131.631 329.566 130.77 329.566 129.676C329.566 127.654 330.277 126.027 331.698 124.797C333.12 123.567 334.992 122.952 337.315 122.952C339.639 122.952 341.566 123.69 343.096 125.166C344.873 126.888 345.761 129.13 345.761 131.89C345.761 134.924 344.75 137.726 342.727 140.295C340.705 142.837 337.302 145.612 332.518 148.618C334.322 148.564 336.591 148.536 339.324 148.536C341.593 148.536 343.028 148.509 343.629 148.454C344.231 148.372 344.764 148.195 345.228 147.921C345.611 147.675 345.939 146.76 346.212 145.174C346.404 144.081 346.677 143.534 347.032 143.534C347.306 143.534 347.442 143.739 347.442 144.149Z" fill="black"/>
<path d="M351.751 202.739C351.751 205.008 350.835 206.949 349.004 208.561C346.981 210.338 344.398 211.226 341.255 211.226C338.686 211.226 336.8 210.625 335.597 209.422C334.832 208.657 334.449 207.782 334.449 206.798C334.449 205.951 334.709 205.281 335.228 204.789C335.775 204.27 336.499 204.01 337.401 204.01C338.112 204.01 338.699 204.215 339.164 204.625C339.629 205.035 339.861 205.555 339.861 206.183C339.861 207.14 339.219 207.892 337.934 208.438C337.415 208.657 337.155 208.876 337.155 209.094C337.155 209.45 337.51 209.778 338.221 210.078C338.932 210.352 339.711 210.488 340.558 210.488C342.635 210.488 344.316 209.778 345.601 208.356C346.913 206.935 347.569 205.076 347.569 202.78C347.569 198.161 345.492 195.851 341.337 195.851C340.927 195.851 340.626 195.865 340.435 195.892H340.148C339.793 195.892 339.615 195.769 339.615 195.523C339.615 195.332 339.943 195.182 340.599 195.072C342.512 194.799 343.988 194.102 345.027 192.981C346.066 191.833 346.585 190.371 346.585 188.594C346.585 186.845 346.134 185.451 345.232 184.412C344.33 183.346 343.114 182.813 341.583 182.813C340.462 182.813 339.478 183.059 338.631 183.551C337.811 184.016 337.401 184.563 337.401 185.191C337.401 185.437 337.592 185.601 337.975 185.683C339.779 186.121 340.681 186.872 340.681 187.938C340.681 189.332 339.957 190.029 338.508 190.029C337.579 190.029 336.827 189.756 336.253 189.209C335.706 188.663 335.433 187.938 335.433 187.036C335.433 185.56 336.062 184.33 337.319 183.346C338.604 182.335 340.38 181.829 342.649 181.829C345.246 181.829 347.227 182.499 348.594 183.838C349.961 185.178 350.644 186.736 350.644 188.512C350.644 190.972 349.482 192.79 347.159 193.965C346.339 194.375 345.013 194.717 343.182 194.99V195.277C345.451 195.359 347.282 195.865 348.676 196.794C350.726 198.161 351.751 200.143 351.751 202.739Z" fill="black"/>
<path d="M347.018 264.77C347.018 265.043 346.881 265.18 346.608 265.18C346.362 265.18 346.198 265.03 346.116 264.729C346.061 264.401 345.966 263.54 345.829 262.146C345.774 261.927 345.665 261.763 345.501 261.654C345.173 261.463 344.449 261.367 343.328 261.367C343.027 261.367 342.74 261.381 342.467 261.408L342.508 267.845C342.645 268.173 342.863 268.378 343.164 268.46C343.492 268.542 344.271 268.583 345.501 268.583C346.102 268.583 346.458 268.638 346.567 268.747C346.594 268.802 346.608 268.884 346.608 268.993C346.608 269.184 346.061 269.28 344.968 269.28C343.875 269.28 340.813 269.307 335.784 269.362C335.511 269.389 335.21 269.403 334.882 269.403C334.335 269.403 334.062 269.266 334.062 268.993C334.062 268.72 334.458 268.597 335.251 268.624C336.18 268.651 337.028 268.597 337.793 268.46C338.121 268.405 338.326 268.269 338.408 268.05C338.49 267.804 338.531 267.285 338.531 266.492V261.531C337.984 261.504 337.356 261.49 336.645 261.49H334.964C334.581 261.49 334.158 261.504 333.693 261.531C333.283 261.531 333.023 261.531 332.914 261.531L327.707 261.408C327.324 261.381 327.133 261.271 327.133 261.08C327.133 260.943 329.142 258.114 333.16 252.593C334.417 250.816 337.192 246.908 341.483 240.867C341.674 240.594 341.866 240.457 342.057 240.457C342.33 240.457 342.467 240.717 342.467 241.236V260.506H342.877C343.806 260.506 344.531 260.451 345.05 260.342C345.597 260.233 345.87 259.959 345.87 259.522C345.843 257.8 345.829 257.212 345.829 257.759C345.856 256.775 346.007 256.283 346.28 256.283C346.663 256.283 346.854 256.666 346.854 257.431V259.276L346.895 262.228C346.922 263.239 346.95 263.882 346.977 264.155C347.004 264.401 347.018 264.606 347.018 264.77ZM338.777 246.484C338.504 246.921 337.93 247.755 337.055 248.985C335.852 250.652 334.035 253.14 331.602 256.447L328.691 260.424C329.702 260.506 331.875 260.547 335.21 260.547C336.385 260.547 337.492 260.533 338.531 260.506V257.595C338.531 256.228 338.572 254.383 338.654 252.06C338.736 249.327 338.777 247.468 338.777 246.484Z" fill="black"/>
<path d="M332.636 317.274C332.636 320.773 331.297 323.451 328.618 325.31C327.006 326.431 324.915 326.991 322.345 326.991C319.776 326.991 317.89 326.321 316.687 324.982C316.031 324.244 315.703 323.369 315.703 322.358C315.703 321.511 315.977 320.827 316.523 320.308C317.07 319.761 317.781 319.488 318.655 319.488C319.366 319.488 319.954 319.693 320.418 320.103C320.91 320.513 321.156 321.019 321.156 321.62C321.156 322.631 320.487 323.397 319.147 323.916C318.546 324.135 318.245 324.381 318.245 324.654C318.245 325.091 318.642 325.488 319.434 325.843C320.254 326.171 321.156 326.335 322.14 326.335C324.054 326.335 325.489 325.679 326.445 324.367C327.757 322.563 328.413 320.13 328.413 317.069C328.413 314.828 327.894 313.092 326.855 311.862C325.817 310.632 324.341 310.017 322.427 310.017C320.951 310.017 319.325 310.577 317.548 311.698C317.712 305.548 317.835 301.667 317.917 300.054C317.945 299.125 318.15 298.564 318.532 298.373C318.915 298.154 319.954 298.045 321.648 298.045C321.922 298.045 322.386 298.045 323.042 298.045C323.698 298.072 324.218 298.086 324.6 298.086H325.994C327.88 298.086 328.974 298.059 329.274 298.004C329.602 297.922 329.807 297.69 329.889 297.307C329.999 296.678 330.19 296.364 330.463 296.364C330.737 296.364 330.873 296.514 330.873 296.815C330.873 297.006 330.86 297.157 330.832 297.266L330.75 298.209C330.614 299.74 330.327 300.696 329.889 301.079C329.479 301.434 328.454 301.612 326.814 301.612L318.983 301.571C318.874 302.5 318.778 305.302 318.696 309.976C320.254 309.265 321.881 308.91 323.575 308.91C326.391 308.91 328.605 309.662 330.217 311.165C331.83 312.641 332.636 314.677 332.636 317.274Z" fill="black"/>
<path d="M311.26 336.926C311.26 339.578 310.454 341.846 308.841 343.732C307.229 345.618 305.302 346.561 303.06 346.561C300.245 346.561 297.963 345.4 296.213 343.076C294.464 340.753 293.589 337.733 293.589 334.015C293.589 330.599 294.327 327.483 295.803 324.667C297.307 321.852 299.302 319.802 301.789 318.517C303.867 317.451 306.135 316.918 308.595 316.918C309.169 316.918 309.456 317.028 309.456 317.246C309.456 317.438 309.265 317.547 308.882 317.574C306.422 317.793 304.249 318.681 302.363 320.239C299.903 322.262 298.455 325.706 298.017 330.571C299.521 329.15 301.215 328.439 303.101 328.439C304.632 328.439 306.067 328.849 307.406 329.669C309.976 331.227 311.26 333.646 311.26 336.926ZM307.037 337.049C307.037 331.965 305.466 329.423 302.322 329.423C300.901 329.423 299.808 330.038 299.042 331.268C298.277 332.471 297.894 334.166 297.894 336.352C297.894 339.496 298.455 342.038 299.575 343.978C300.286 345.208 301.325 345.823 302.691 345.823C305.589 345.823 307.037 342.899 307.037 337.049Z" fill="black"/>
<path d="M289.936 300.156C289.936 300.32 288.351 302.875 285.18 307.823C283.403 310.611 282.187 312.797 281.531 314.383C280.875 315.941 280.547 317.499 280.547 319.057C280.547 319.849 280.738 321.407 281.121 323.731C281.258 324.551 281.326 325.248 281.326 325.822C281.326 327.762 280.602 328.733 279.153 328.733C277.431 328.733 276.57 327.243 276.57 324.264C276.57 321.503 277.841 317.868 280.383 313.358C281.996 310.515 284.087 307.208 286.656 303.436H280.424C277.199 303.436 275.34 303.449 274.848 303.477C274.247 303.504 273.823 303.6 273.577 303.764C273.358 303.928 273.194 304.16 273.085 304.461C273.003 304.734 272.784 305.691 272.429 307.331C272.32 307.659 272.156 307.823 271.937 307.823C271.664 307.823 271.527 307.659 271.527 307.331C271.527 307.003 271.595 306.47 271.732 305.732C272.033 304.064 272.224 302.643 272.306 301.468C272.361 300.62 272.538 300.033 272.839 299.705C273.03 299.705 273.591 299.732 274.52 299.787C276.597 299.896 278.101 299.951 279.03 299.951L287.517 299.869C287.736 299.869 287.968 299.855 288.214 299.828C288.433 299.828 288.569 299.828 288.624 299.828C289.499 299.828 289.936 299.937 289.936 300.156Z" fill="black"/>
<path d="M274.857 271.11C274.857 273.843 273.722 276.043 271.454 277.711C269.923 278.831 268.023 279.392 265.755 279.392C263.322 279.392 261.272 278.845 259.605 277.752C257.336 276.276 256.202 274.198 256.202 271.52C256.202 267.447 258.402 264.864 262.803 263.771V263.566C261.135 263.101 259.823 262.322 258.867 261.229C257.937 260.108 257.473 258.782 257.473 257.252C257.473 255.12 258.197 253.384 259.646 252.045C261.122 250.678 263.021 249.995 265.345 249.995C267.395 249.995 269.076 250.487 270.388 251.471C272.301 252.892 273.258 254.723 273.258 256.965C273.258 258.577 272.779 260.026 271.823 261.311C270.866 262.568 269.677 263.333 268.256 263.607L268.297 263.771C272.67 264.645 274.857 267.092 274.857 271.11ZM269.199 257.047C269.199 254.614 268.761 252.824 267.887 251.676C267.367 250.992 266.534 250.651 265.386 250.651C262.816 250.651 261.532 252.796 261.532 257.088C261.532 261.27 262.912 263.361 265.673 263.361C266.903 263.361 267.764 262.91 268.256 262.008C268.884 260.832 269.199 259.179 269.199 257.047ZM270.675 271.52C270.675 266.545 269.007 264.058 265.673 264.058C264.005 264.058 262.707 264.7 261.778 265.985C260.848 267.242 260.384 268.991 260.384 271.233C260.384 273.556 260.862 275.387 261.819 276.727C262.803 278.066 264.142 278.736 265.837 278.736C267.285 278.736 268.351 278.326 269.035 277.506C270.128 276.194 270.675 274.198 270.675 271.52Z" fill="black"/>
<path d="M268.076 193.628C268.076 197.209 267.243 200.462 265.575 203.386C263.935 206.284 261.776 208.293 259.097 209.413C257.129 210.233 255.161 210.643 253.193 210.643C252.483 210.643 252.127 210.548 252.127 210.356C252.127 210.192 252.319 210.083 252.701 210.028C257.321 209.427 260.491 207.131 262.213 203.14C262.897 201.528 263.375 199.478 263.648 196.99C262.145 198.412 260.45 199.122 258.564 199.122C256.76 199.122 255.12 198.576 253.644 197.482C251.485 195.897 250.405 193.56 250.405 190.471C250.405 187.847 251.198 185.62 252.783 183.788C254.396 181.93 256.337 181 258.605 181C261.393 181 263.662 182.176 265.411 184.526C267.188 186.877 268.076 189.911 268.076 193.628ZM263.771 190.922C263.771 187.806 263.197 185.346 262.049 183.542C261.257 182.312 260.177 181.697 258.81 181.697C255.995 181.697 254.587 184.649 254.587 190.553C254.587 195.61 256.159 198.138 259.302 198.138C260.696 198.138 261.79 197.51 262.582 196.252C263.375 194.968 263.771 193.191 263.771 190.922Z" fill="black"/>
<path d="M270.492 148.419C270.492 148.638 270.192 148.747 269.59 148.747H269.098C269.098 148.747 268.579 148.747 267.54 148.747C266.502 148.72 265.449 148.706 264.383 148.706C262.497 148.706 261.295 148.72 260.775 148.747C260.256 148.774 259.846 148.788 259.545 148.788C258.889 148.788 258.561 148.665 258.561 148.419C258.561 148.173 258.753 148.05 259.135 148.05C259.737 148.05 260.379 148.036 261.062 148.009C261.91 147.982 262.361 147.777 262.415 147.394C262.497 146.984 262.538 146.123 262.538 144.811V125.541C262.538 124.666 262.511 124.147 262.456 123.983C262.402 123.819 262.21 123.737 261.882 123.737C261.746 123.737 260.857 123.805 259.217 123.942C258.889 123.969 258.671 123.983 258.561 123.983C258.233 123.983 258.069 123.887 258.069 123.696C258.069 123.477 258.233 123.354 258.561 123.327C259.846 123.19 261.144 122.808 262.456 122.179C263.768 121.523 264.821 120.758 265.613 119.883C265.914 119.637 266.119 119.514 266.228 119.514C266.447 119.514 266.556 119.651 266.556 119.924V120.703C266.529 120.922 266.515 121.168 266.515 121.441V145.959C266.515 146.943 266.556 147.517 266.638 147.681C266.748 147.845 267.089 147.941 267.663 147.968L268.606 148.009L269.303 148.05H269.918C270.301 148.05 270.492 148.173 270.492 148.419Z" fill="black"/>
<path d="M284.948 106.127C284.948 106.346 284.647 106.455 284.046 106.455H283.554C283.554 106.455 283.034 106.455 281.996 106.455C280.957 106.428 279.905 106.414 278.839 106.414C276.953 106.414 275.75 106.428 275.231 106.455C274.711 106.482 274.301 106.496 274.001 106.496C273.345 106.496 273.017 106.373 273.017 106.127C273.017 105.881 273.208 105.758 273.591 105.758C274.192 105.758 274.834 105.744 275.518 105.717C276.365 105.69 276.816 105.485 276.871 105.102C276.953 104.692 276.994 103.831 276.994 102.519V83.2489C276.994 82.3743 276.966 81.8549 276.912 81.6909C276.857 81.5269 276.666 81.4449 276.338 81.4449C276.201 81.4449 275.313 81.5133 273.673 81.6499C273.345 81.6773 273.126 81.6909 273.017 81.6909C272.689 81.6909 272.525 81.5953 272.525 81.4039C272.525 81.1853 272.689 81.0623 273.017 81.0349C274.301 80.8983 275.6 80.5156 276.912 79.8869C278.224 79.2309 279.276 78.4656 280.069 77.5909C280.369 77.3449 280.574 77.2219 280.684 77.2219C280.902 77.2219 281.012 77.3586 281.012 77.6319V78.4109C280.984 78.6296 280.971 78.8756 280.971 79.1489V103.667C280.971 104.651 281.012 105.225 281.094 105.389C281.203 105.553 281.545 105.649 282.119 105.676L283.062 105.717L283.759 105.758H284.374C284.756 105.758 284.948 105.881 284.948 106.127Z" fill="black"/>
<path d="M313.094 80.0476C313.094 80.1296 313.067 80.3483 313.012 80.7036C312.876 81.6056 312.657 83.8333 312.356 87.3866L312.315 87.8786C309.5 87.7419 306.288 87.6736 302.68 87.6736C300.74 87.6736 298.922 87.7009 297.227 87.7556C295.533 87.8103 294.795 87.8376 295.013 87.8376C294.275 87.8376 293.906 87.7009 293.906 87.4276C293.906 87.2089 294.617 86.5256 296.038 85.3776C299.455 82.5896 301.888 80.3209 303.336 78.5716C305.851 75.5376 307.108 71.9706 307.108 67.8706C307.108 65.1099 306.534 63.0189 305.386 61.5976C304.512 60.5043 303.282 59.9576 301.696 59.9576C300.138 59.9576 298.908 60.4359 298.006 61.3926C297.296 62.1306 296.94 62.8686 296.94 63.6066C296.94 64.0713 297.309 64.3173 298.047 64.3446C299.961 64.4266 300.917 65.2603 300.917 66.8456C300.917 68.3489 300.125 69.1006 298.539 69.1006C297.528 69.1006 296.722 68.7863 296.12 68.1576C295.519 67.5289 295.218 66.6679 295.218 65.5746C295.218 63.5519 295.929 61.9256 297.35 60.6956C298.772 59.4656 300.644 58.8506 302.967 58.8506C305.291 58.8506 307.218 59.5886 308.748 61.0646C310.525 62.7866 311.413 65.0279 311.413 67.7886C311.413 70.8226 310.402 73.6243 308.379 76.1936C306.357 78.7356 302.954 81.5099 298.17 84.5166C299.974 84.4619 302.243 84.4346 304.976 84.4346C307.245 84.4346 308.68 84.4073 309.281 84.3526C309.883 84.2706 310.416 84.0929 310.88 83.8196C311.263 83.5736 311.591 82.6579 311.864 81.0726C312.056 79.9793 312.329 79.4326 312.684 79.4326C312.958 79.4326 313.094 79.6376 313.094 80.0476Z" fill="black"/>
<path d="M288.447 106.127C288.447 106.346 288.146 106.455 287.545 106.455H287.053C287.053 106.455 286.534 106.455 285.495 106.455C284.456 106.428 283.404 106.414 282.338 106.414C280.452 106.414 279.249 106.428 278.73 106.455C278.211 106.482 277.801 106.496 277.5 106.496C276.844 106.496 276.516 106.373 276.516 106.127C276.516 105.881 276.707 105.758 277.09 105.758C277.691 105.758 278.334 105.744 279.017 105.717C279.864 105.69 280.315 105.485 280.37 105.102C280.452 104.692 280.493 103.831 280.493 102.519V83.2489C280.493 82.3743 280.466 81.8549 280.411 81.6909C280.356 81.5269 280.165 81.4449 279.837 81.4449C279.7 81.4449 278.812 81.5133 277.172 81.6499C276.844 81.6773 276.625 81.6909 276.516 81.6909C276.188 81.6909 276.024 81.5953 276.024 81.4039C276.024 81.1853 276.188 81.0623 276.516 81.0349C277.801 80.8983 279.099 80.5156 280.411 79.8869C281.723 79.2309 282.775 78.4656 283.568 77.5909C283.869 77.3449 284.074 77.2219 284.183 77.2219C284.402 77.2219 284.511 77.3586 284.511 77.6319V78.4109C284.484 78.6296 284.47 78.8756 284.47 79.1489V103.667C284.47 104.651 284.511 105.225 284.593 105.389C284.702 105.553 285.044 105.649 285.618 105.676L286.561 105.717L287.258 105.758H287.873C288.256 105.758 288.447 105.881 288.447 106.127Z" fill="black"/>
<path d="M277.874 134.971C277.874 137.404 277.505 139.7 276.767 141.859C276.057 144.018 275.073 145.754 273.815 147.066C272.476 148.487 270.768 149.198 268.69 149.198C265.848 149.198 263.497 147.804 261.638 145.016C259.807 142.228 258.891 138.661 258.891 134.315C258.891 129.286 260.19 125.322 262.786 122.425C264.344 120.676 266.258 119.801 268.526 119.801C271.205 119.801 273.337 121.017 274.922 123.45C276.89 126.457 277.874 130.297 277.874 134.971ZM273.446 133.495C273.446 129.422 272.995 126.06 272.093 123.409C271.41 121.386 270.207 120.375 268.485 120.375C265.041 120.375 263.319 124.953 263.319 134.11C263.319 143.704 265.137 148.501 268.772 148.501C270.467 148.501 271.683 147.107 272.421 144.319C273.105 141.777 273.446 138.169 273.446 133.495Z" fill="black"/>
<path d="M294.254 212.124C293.016 212.124 292.02 209.056 292.02 205.241C292.02 201.427 293.016 198.359 294.254 198.359C295.493 198.359 296.489 201.427 296.489 205.241C296.489 209.056 295.493 212.124 294.254 212.124Z" fill="black"/>
<path d="M294.254 200.68C295.062 200.68 295.735 202.754 295.735 205.241C295.735 207.729 295.062 209.802 294.254 209.802C293.447 209.802 292.774 207.729 292.774 205.241C292.774 202.754 293.447 200.68 294.254 200.68ZM294.254 196.12C292.612 196.12 291.293 200.183 291.293 205.241C291.293 210.3 292.612 214.363 294.254 214.363C295.896 214.363 297.215 210.3 297.215 205.241C297.215 200.183 295.896 196.12 294.254 196.12Z" fill="black"/>
<path d="M285.686 163.478L287.093 183.86L290.666 186.961L291.197 175.704L285.686 163.478Z" fill="black" stroke="#1A1A1A" stroke-width="0.05" stroke-miterlimit="10"/>
<path d="M292.665 196.262L289.282 194.069L289.955 183.613L293.256 186.036L292.665 196.262Z" fill="black" stroke="#1A1A1A" stroke-width="0.05" stroke-miterlimit="10"/>
<path d="M308.827 272.465C308.827 272.465 310.427 284.887 308.895 291.493C308.895 291.493 313.483 291.489 316.814 308.195C316.814 308.195 312.771 292.487 314.907 279.217C314.907 279.217 311.607 278.018 309.69 270.933L308.814 272.392L308.827 272.465Z" fill="black" stroke="black" stroke-width="0.05" stroke-miterlimit="10"/>
<path d="M309.864 262.166L305.359 247.134L305.366 254.665L302.902 252.829L305.922 270.9L309.863 275.746L309.864 262.166Z" fill="black" stroke="black" stroke-width="0.05" stroke-miterlimit="10"/>
<path d="M297.313 212.456L306.039 244.215L306.47 259.905L301.972 252.405L295.912 215.45C296.125 215.095 297.186 212.951 297.337 212.417L297.313 212.456Z" fill="black" stroke="#1A1A1A" stroke-width="0.05" stroke-miterlimit="10"/>
<path d="M307.328 278.74C308.441 274.621 309.819 271.665 311.462 269.871C310.349 273.989 308.971 276.945 307.328 278.74Z" fill="#1A1A1A"/>
<path d="M284.638 240.871L289.877 231.353L289.705 221.12L286.455 222.939L284.638 240.871Z" fill="black" stroke="#1A1A1A" stroke-width="0.05" stroke-miterlimit="10"/>
<path d="M291.702 213.257L292.075 222.745L288.995 223.889L288.721 214.614L291.702 213.257Z" fill="black" stroke="#1A1A1A" stroke-width="0.05" stroke-miterlimit="10"/>
<path d="M296.187 197.005L299.789 189.733L299.543 179.885L296.298 181.621L294.966 194.163C295.144 194.415 296.07 196.615 296.182 197.087L296.187 197.005Z" fill="black" stroke="#1A1A1A" stroke-width="0.05" stroke-miterlimit="10"/>
<path d="M300.348 181.776C300.348 181.776 304.204 175.966 306.452 177.868C306.452 177.868 304.207 160.027 307.697 146.242C307.697 146.242 302.95 161.194 298.691 159.766C298.691 159.766 300.268 171.335 298.935 178.423L300.321 181.763L300.348 181.776Z" fill="black" stroke="#1A1A1A" stroke-width="0.05" stroke-miterlimit="10"/>
<path d="M301.142 184.417C299.624 183.195 298.43 180.365 297.69 176.072C299.209 177.294 300.376 180.111 301.142 184.417Z" fill="#1A1A1A"/>
</g>
<defs>
<clipPath id="clip0_77_1180">
<rect width="784" height="424" fill="white"/>
</clipPath>
</defs>
</svg>
