<svg width="285" height="161" viewBox="0 0 285 161" fill="none" xmlns="http://www.w3.org/2000/svg">
<g filter="url(#filter0_i_754_309)">
<path d="M5.67366 4.49019C8.41503 0.320842 89.2435 0.00864135 142.834 0.000155C196.684 -0.0083726 278.008 0.320961 280.661 4.49019C283.314 8.65939 285.029 50.1847 285 79.5378C284.971 108.391 283.635 148.492 280.661 153.303C277.687 158.113 196.744 161.015 142.834 161C89.1834 160.985 9.01093 158.521 5.67366 153.303C2.33639 148.084 0.0381385 108.423 0.000368854 79.5378C-0.0380542 50.1527 2.93229 8.65951 5.67366 4.49019Z" fill="white"/>
</g>
<g filter="url(#filter1_i_754_309)">
<path d="M5.67366 4.49019C8.41503 0.320842 89.2435 0.00864135 142.834 0.000155C196.684 -0.0083726 278.008 0.320961 280.661 4.49019C283.314 8.65939 285.029 50.1847 285 79.5378C284.971 108.391 283.635 148.492 280.661 153.303C277.687 158.113 196.744 161.015 142.834 161C89.1834 160.985 9.01093 158.521 5.67366 153.303C2.33639 148.084 0.0381385 108.423 0.000368854 79.5378C-0.0380542 50.1527 2.93229 8.65951 5.67366 4.49019Z" fill="#121212"/>
</g>
<rect x="76" y="62" width="136" height="38" fill="#57EB23"/>
<defs>
<filter id="filter0_i_754_309" x="0" y="0" width="285" height="165" filterUnits="userSpaceOnUse" color-interpolation-filters="sRGB">
<feFlood flood-opacity="0" result="BackgroundImageFix"/>
<feBlend mode="normal" in="SourceGraphic" in2="BackgroundImageFix" result="shape"/>
<feColorMatrix in="SourceAlpha" type="matrix" values="0 0 0 0 0 0 0 0 0 0 0 0 0 0 0 0 0 0 127 0" result="hardAlpha"/>
<feOffset dy="4"/>
<feGaussianBlur stdDeviation="61"/>
<feComposite in2="hardAlpha" operator="arithmetic" k2="-1" k3="1"/>
<feColorMatrix type="matrix" values="0 0 0 0 0 0 0 0 0 0 0 0 0 0 0 0 0 0 0.5 0"/>
<feBlend mode="normal" in2="shape" result="effect1_innerShadow_754_309"/>
</filter>
<filter id="filter1_i_754_309" x="0" y="0" width="285" height="165" filterUnits="userSpaceOnUse" color-interpolation-filters="sRGB">
<feFlood flood-opacity="0" result="BackgroundImageFix"/>
<feBlend mode="normal" in="SourceGraphic" in2="BackgroundImageFix" result="shape"/>
<feColorMatrix in="SourceAlpha" type="matrix" values="0 0 0 0 0 0 0 0 0 0 0 0 0 0 0 0 0 0 127 0" result="hardAlpha"/>
<feOffset dy="4"/>
<feGaussianBlur stdDeviation="61"/>
<feComposite in2="hardAlpha" operator="arithmetic" k2="-1" k3="1"/>
<feColorMatrix type="matrix" values="0 0 0 0 0 0 0 0 0 0 0 0 0 0 0 0 0 0 0.5 0"/>
<feBlend mode="normal" in2="shape" result="effect1_innerShadow_754_309"/>
</filter>
</defs>
</svg>
