<svg width="1056" height="580" viewBox="0 0 1056 580" fill="none" xmlns="http://www.w3.org/2000/svg">
<g filter="url(#filter0_i_730_206)">
<path d="M21.0055 16.1557C31.1548 1.15439 330.404 0.0310917 528.81 0.000557693C728.18 -0.0301247 1029.26 1.15482 1039.09 16.1557C1048.91 31.1566 1055.26 180.565 1055.15 286.178C1055.04 389.991 1050.1 534.276 1039.09 551.585C1028.08 568.893 728.402 579.332 528.81 579.28C330.181 579.228 33.361 570.362 21.0055 551.585C8.64995 532.808 0.141199 390.108 0.0013656 286.178C-0.140887 180.45 10.8562 31.157 21.0055 16.1557Z" fill="white"/>
</g>
<g filter="url(#filter1_i_730_206)">
<path d="M21.0055 16.1557C31.1548 1.15439 330.404 0.0310917 528.81 0.000557693C728.18 -0.0301247 1029.26 1.15482 1039.09 16.1557C1048.91 31.1566 1055.26 180.565 1055.15 286.178C1055.04 389.991 1050.1 534.276 1039.09 551.585C1028.08 568.893 728.402 579.332 528.81 579.28C330.181 579.228 33.361 570.362 21.0055 551.585C8.64995 532.808 0.141199 390.108 0.0013656 286.178C-0.140887 180.45 10.8562 31.157 21.0055 16.1557Z" fill="#121212"/>
</g>
<rect x="193" y="197" width="670" height="185" fill="#57EB23"/>
<defs>
<filter id="filter0_i_730_206" x="0" y="0" width="1055.15" height="583.28" filterUnits="userSpaceOnUse" color-interpolation-filters="sRGB">
<feFlood flood-opacity="0" result="BackgroundImageFix"/>
<feBlend mode="normal" in="SourceGraphic" in2="BackgroundImageFix" result="shape"/>
<feColorMatrix in="SourceAlpha" type="matrix" values="0 0 0 0 0 0 0 0 0 0 0 0 0 0 0 0 0 0 127 0" result="hardAlpha"/>
<feOffset dy="4"/>
<feGaussianBlur stdDeviation="61"/>
<feComposite in2="hardAlpha" operator="arithmetic" k2="-1" k3="1"/>
<feColorMatrix type="matrix" values="0 0 0 0 0 0 0 0 0 0 0 0 0 0 0 0 0 0 0.5 0"/>
<feBlend mode="normal" in2="shape" result="effect1_innerShadow_730_206"/>
</filter>
<filter id="filter1_i_730_206" x="0" y="0" width="1055.15" height="583.28" filterUnits="userSpaceOnUse" color-interpolation-filters="sRGB">
<feFlood flood-opacity="0" result="BackgroundImageFix"/>
<feBlend mode="normal" in="SourceGraphic" in2="BackgroundImageFix" result="shape"/>
<feColorMatrix in="SourceAlpha" type="matrix" values="0 0 0 0 0 0 0 0 0 0 0 0 0 0 0 0 0 0 127 0" result="hardAlpha"/>
<feOffset dy="4"/>
<feGaussianBlur stdDeviation="61"/>
<feComposite in2="hardAlpha" operator="arithmetic" k2="-1" k3="1"/>
<feColorMatrix type="matrix" values="0 0 0 0 0 0 0 0 0 0 0 0 0 0 0 0 0 0 0.5 0"/>
<feBlend mode="normal" in2="shape" result="effect1_innerShadow_730_206"/>
</filter>
</defs>
</svg>
