<svg width="1056" height="580" viewBox="0 0 1056 580" fill="none" xmlns="http://www.w3.org/2000/svg">
<g filter="url(#filter0_i_513_247)">
<path d="M21.0055 16.1557C31.1548 1.15439 330.404 0.0310917 528.81 0.000557693C728.18 -0.0301247 1029.26 1.15482 1039.09 16.1557C1048.91 31.1566 1055.26 180.565 1055.15 286.178C1055.04 389.991 1050.1 534.276 1039.09 551.585C1028.08 568.893 728.402 579.332 528.81 579.28C330.181 579.228 33.361 570.362 21.0055 551.585C8.64995 532.808 0.141199 390.108 0.0013656 286.178C-0.140887 180.45 10.8562 31.157 21.0055 16.1557Z" fill="white"/>
</g>
<g filter="url(#filter1_i_513_247)">
<path d="M21.0055 16.1557C31.1548 1.15439 330.404 0.0310917 528.81 0.000557693C728.18 -0.0301247 1029.26 1.15482 1039.09 16.1557C1048.91 31.1566 1055.26 180.565 1055.15 286.178C1055.04 389.991 1050.1 534.276 1039.09 551.585C1028.08 568.893 728.402 579.332 528.81 579.28C330.181 579.228 33.361 570.362 21.0055 551.585C8.64995 532.808 0.141199 390.108 0.0013656 286.178C-0.140887 180.45 10.8562 31.157 21.0055 16.1557Z" fill="#121212"/>
</g>
<path d="M220.241 139.77L225.641 119.106H230.681L223.085 144H217.217L209.657 119.106H214.895L220.241 139.77ZM241.435 124.398C243.331 124.398 244.939 124.812 246.259 125.64C247.579 126.468 248.581 127.638 249.265 129.15C249.961 130.65 250.309 132.408 250.309 134.424C250.309 136.488 249.961 138.276 249.265 139.788C248.569 141.3 247.561 142.47 246.241 143.298C244.921 144.126 243.313 144.54 241.417 144.54C239.533 144.54 237.925 144.138 236.593 143.334C235.273 142.518 234.265 141.36 233.569 139.86C232.873 138.348 232.525 136.548 232.525 134.46C232.525 132.468 232.873 130.716 233.569 129.204C234.265 127.692 235.279 126.516 236.611 125.676C237.943 124.824 239.551 124.398 241.435 124.398ZM241.435 127.98C240.103 127.98 239.107 128.502 238.447 129.546C237.799 130.59 237.475 132.228 237.475 134.46C237.475 136.716 237.799 138.366 238.447 139.41C239.095 140.442 240.085 140.958 241.417 140.958C242.749 140.958 243.739 140.442 244.387 139.41C245.035 138.366 245.359 136.704 245.359 134.424C245.359 132.204 245.035 130.578 244.387 129.546C243.739 128.502 242.755 127.98 241.435 127.98ZM264.375 140.724C265.215 140.724 266.001 140.568 266.733 140.256C267.477 139.944 268.191 139.548 268.875 139.068L271.035 142.11C270.195 142.818 269.181 143.4 267.993 143.856C266.805 144.312 265.533 144.54 264.177 144.54C262.185 144.54 260.475 144.126 259.047 143.298C257.631 142.458 256.539 141.294 255.771 139.806C255.015 138.306 254.637 136.566 254.637 134.586C254.637 132.63 255.021 130.884 255.789 129.348C256.569 127.8 257.673 126.588 259.101 125.712C260.541 124.836 262.257 124.398 264.249 124.398C265.617 124.398 266.853 124.596 267.957 124.992C269.073 125.376 270.093 125.952 271.017 126.72L268.911 129.636C268.203 129.144 267.471 128.772 266.715 128.52C265.971 128.256 265.197 128.124 264.393 128.124C262.989 128.124 261.843 128.634 260.955 129.654C260.079 130.662 259.641 132.306 259.641 134.586C259.641 136.086 259.845 137.286 260.253 138.186C260.673 139.086 261.237 139.734 261.945 140.13C262.665 140.526 263.475 140.724 264.375 140.724ZM280.097 135.918C280.193 137.106 280.463 138.072 280.907 138.816C281.363 139.56 281.945 140.106 282.653 140.454C283.361 140.802 284.147 140.976 285.011 140.976C285.923 140.976 286.781 140.832 287.585 140.544C288.389 140.256 289.181 139.854 289.961 139.338L291.941 142.056C291.053 142.8 289.991 143.4 288.755 143.856C287.531 144.312 286.181 144.54 284.705 144.54C282.641 144.54 280.901 144.114 279.485 143.262C278.081 142.41 277.019 141.228 276.299 139.716C275.579 138.204 275.219 136.464 275.219 134.496C275.219 132.6 275.573 130.89 276.281 129.366C276.989 127.842 278.009 126.636 279.341 125.748C280.673 124.848 282.281 124.398 284.165 124.398C285.917 124.398 287.429 124.782 288.701 125.55C289.973 126.318 290.957 127.422 291.653 128.862C292.349 130.29 292.697 132.012 292.697 134.028C292.697 134.352 292.685 134.682 292.661 135.018C292.649 135.354 292.631 135.654 292.607 135.918H280.097ZM284.183 127.746C283.031 127.746 282.083 128.16 281.339 128.988C280.607 129.804 280.175 131.1 280.043 132.876H288.071C288.047 131.268 287.711 130.014 287.063 129.114C286.427 128.202 285.467 127.746 284.183 127.746ZM279.593 121.77L277.721 119.736L282.761 114.966H285.731L290.735 119.736L288.935 121.77L284.255 118.422L279.593 121.77ZM325.833 141.03C326.949 141.03 327.843 140.838 328.515 140.454C329.199 140.058 329.541 139.506 329.541 138.798C329.541 138.33 329.427 137.934 329.199 137.61C328.983 137.286 328.551 136.986 327.903 136.71C327.255 136.422 326.283 136.104 324.987 135.756C323.763 135.444 322.689 135.06 321.765 134.604C320.853 134.136 320.139 133.536 319.623 132.804C319.119 132.072 318.867 131.148 318.867 130.032C318.867 128.916 319.179 127.938 319.803 127.098C320.427 126.246 321.327 125.586 322.503 125.118C323.691 124.638 325.119 124.398 326.787 124.398C328.419 124.398 329.847 124.614 331.071 125.046C332.295 125.466 333.345 125.994 334.221 126.63L332.277 129.528C331.509 129.036 330.675 128.64 329.775 128.34C328.887 128.028 327.927 127.872 326.895 127.872C325.779 127.872 324.963 128.034 324.447 128.358C323.943 128.682 323.691 129.132 323.691 129.708C323.691 130.116 323.817 130.464 324.069 130.752C324.333 131.028 324.801 131.298 325.473 131.562C326.157 131.814 327.129 132.12 328.389 132.48C329.625 132.816 330.699 133.212 331.611 133.668C332.535 134.124 333.249 134.73 333.753 135.486C334.257 136.242 334.509 137.232 334.509 138.456C334.509 139.836 334.107 140.976 333.303 141.876C332.499 142.776 331.437 143.448 330.117 143.892C328.809 144.324 327.387 144.54 325.851 144.54C324.051 144.54 322.479 144.282 321.135 143.766C319.791 143.25 318.651 142.584 317.715 141.768L320.181 138.996C320.925 139.584 321.771 140.07 322.719 140.454C323.679 140.838 324.717 141.03 325.833 141.03ZM343.895 135.918C343.991 137.106 344.261 138.072 344.705 138.816C345.161 139.56 345.743 140.106 346.451 140.454C347.159 140.802 347.945 140.976 348.809 140.976C349.721 140.976 350.579 140.832 351.383 140.544C352.187 140.256 352.979 139.854 353.759 139.338L355.739 142.056C354.851 142.8 353.789 143.4 352.553 143.856C351.329 144.312 349.979 144.54 348.503 144.54C346.439 144.54 344.699 144.114 343.283 143.262C341.879 142.41 340.817 141.228 340.097 139.716C339.377 138.204 339.017 136.464 339.017 134.496C339.017 132.6 339.371 130.89 340.079 129.366C340.787 127.842 341.807 126.636 343.139 125.748C344.471 124.848 346.079 124.398 347.963 124.398C349.715 124.398 351.227 124.782 352.499 125.55C353.771 126.318 354.755 127.422 355.451 128.862C356.147 130.29 356.495 132.012 356.495 134.028C356.495 134.352 356.483 134.682 356.459 135.018C356.447 135.354 356.429 135.654 356.405 135.918H343.895ZM347.981 127.746C346.829 127.746 345.881 128.16 345.137 128.988C344.405 129.804 343.973 131.1 343.841 132.876H351.869C351.845 131.268 351.509 130.014 350.861 129.114C350.225 128.202 349.265 127.746 347.981 127.746ZM361.291 144V140.706H363.973V128.214H361.291V124.938H367.591L368.473 129.312C369.169 127.692 370.045 126.474 371.101 125.658C372.157 124.83 373.483 124.416 375.079 124.416C375.691 124.416 376.231 124.464 376.699 124.56C377.179 124.656 377.635 124.782 378.067 124.938L376.645 128.934C376.273 128.838 375.919 128.766 375.583 128.718C375.247 128.658 374.869 128.628 374.449 128.628C373.129 128.628 371.977 129.144 370.993 130.176C370.021 131.196 369.265 132.582 368.725 134.334V140.706H372.523V144H361.291ZM374.053 132.372V127.314L374.701 124.938H378.067L377.221 132.372H374.053ZM397.586 138.978C397.586 139.71 397.694 140.244 397.91 140.58C398.126 140.904 398.474 141.15 398.954 141.318L397.928 144.504C396.908 144.396 396.038 144.144 395.318 143.748C394.61 143.34 394.064 142.734 393.68 141.93C392.96 142.806 392.048 143.46 390.944 143.892C389.852 144.324 388.706 144.54 387.506 144.54C385.562 144.54 384.02 143.988 382.88 142.884C381.74 141.78 381.17 140.346 381.17 138.582C381.17 136.554 381.962 134.994 383.546 133.902C385.142 132.798 387.398 132.246 390.314 132.246H392.978V131.22C392.978 130.092 392.63 129.276 391.934 128.772C391.238 128.256 390.236 127.998 388.928 127.998C388.316 127.998 387.548 128.082 386.624 128.25C385.712 128.406 384.77 128.652 383.798 128.988L382.664 125.73C383.876 125.274 385.094 124.938 386.318 124.722C387.554 124.506 388.676 124.398 389.684 124.398C392.36 124.398 394.346 124.968 395.642 126.108C396.938 127.236 397.586 128.838 397.586 130.914V138.978ZM389.054 141.102C389.774 141.102 390.5 140.898 391.232 140.49C391.976 140.082 392.558 139.512 392.978 138.78V135.072H391.106C389.342 135.072 388.064 135.354 387.272 135.918C386.492 136.482 386.102 137.28 386.102 138.312C386.102 139.2 386.354 139.89 386.858 140.382C387.362 140.862 388.094 141.102 389.054 141.102ZM392.834 114.426L394.76 118.116L386.606 121.374L385.274 118.926L392.834 114.426ZM434.502 140.724C435.342 140.724 436.128 140.568 436.86 140.256C437.604 139.944 438.318 139.548 439.002 139.068L441.162 142.11C440.322 142.818 439.308 143.4 438.12 143.856C436.932 144.312 435.66 144.54 434.304 144.54C432.312 144.54 430.602 144.126 429.174 143.298C427.758 142.458 426.666 141.294 425.898 139.806C425.142 138.306 424.764 136.566 424.764 134.586C424.764 132.63 425.148 130.884 425.916 129.348C426.696 127.8 427.8 126.588 429.228 125.712C430.668 124.836 432.384 124.398 434.376 124.398C435.744 124.398 436.98 124.596 438.084 124.992C439.2 125.376 440.22 125.952 441.144 126.72L439.038 129.636C438.33 129.144 437.598 128.772 436.842 128.52C436.098 128.256 435.324 128.124 434.52 128.124C433.116 128.124 431.97 128.634 431.082 129.654C430.206 130.662 429.768 132.306 429.768 134.586C429.768 136.086 429.972 137.286 430.38 138.186C430.8 139.086 431.364 139.734 432.072 140.13C432.792 140.526 433.602 140.724 434.502 140.724ZM454.094 124.398C455.99 124.398 457.598 124.812 458.918 125.64C460.238 126.468 461.24 127.638 461.924 129.15C462.62 130.65 462.968 132.408 462.968 134.424C462.968 136.488 462.62 138.276 461.924 139.788C461.228 141.3 460.22 142.47 458.9 143.298C457.58 144.126 455.972 144.54 454.076 144.54C452.192 144.54 450.584 144.138 449.252 143.334C447.932 142.518 446.924 141.36 446.228 139.86C445.532 138.348 445.184 136.548 445.184 134.46C445.184 132.468 445.532 130.716 446.228 129.204C446.924 127.692 447.938 126.516 449.27 125.676C450.602 124.824 452.21 124.398 454.094 124.398ZM454.094 127.98C452.762 127.98 451.766 128.502 451.106 129.546C450.458 130.59 450.134 132.228 450.134 134.46C450.134 136.716 450.458 138.366 451.106 139.41C451.754 140.442 452.744 140.958 454.076 140.958C455.408 140.958 456.398 140.442 457.046 139.41C457.694 138.366 458.018 136.704 458.018 134.424C458.018 132.204 457.694 130.578 457.046 129.546C456.398 128.502 455.414 127.98 454.094 127.98ZM467.44 144V124.938H471.58L471.922 127.296C472.738 126.336 473.656 125.616 474.676 125.136C475.696 124.644 476.794 124.398 477.97 124.398C479.686 124.398 480.994 124.896 481.894 125.892C482.794 126.876 483.244 128.262 483.244 130.05V144H478.492V131.904C478.492 130.944 478.432 130.176 478.312 129.6C478.192 129.012 477.964 128.592 477.628 128.34C477.292 128.076 476.806 127.944 476.17 127.944C475.654 127.944 475.156 128.058 474.676 128.286C474.208 128.514 473.764 128.82 473.344 129.204C472.936 129.588 472.552 130.014 472.192 130.482V144H467.44ZM505.968 124.938L499.416 144H493.836L487.248 124.938H492.36L496.698 140.202L501.126 124.938H505.968ZM517.892 124.398C519.788 124.398 521.396 124.812 522.716 125.64C524.036 126.468 525.038 127.638 525.722 129.15C526.418 130.65 526.766 132.408 526.766 134.424C526.766 136.488 526.418 138.276 525.722 139.788C525.026 141.3 524.018 142.47 522.698 143.298C521.378 144.126 519.77 144.54 517.874 144.54C515.99 144.54 514.382 144.138 513.05 143.334C511.73 142.518 510.722 141.36 510.026 139.86C509.33 138.348 508.982 136.548 508.982 134.46C508.982 132.468 509.33 130.716 510.026 129.204C510.722 127.692 511.736 126.516 513.068 125.676C514.4 124.824 516.008 124.398 517.892 124.398ZM517.892 127.98C516.56 127.98 515.564 128.502 514.904 129.546C514.256 130.59 513.932 132.228 513.932 134.46C513.932 136.716 514.256 138.366 514.904 139.41C515.552 140.442 516.542 140.958 517.874 140.958C519.206 140.958 520.196 140.442 520.844 139.41C521.492 138.366 521.816 136.704 521.816 134.424C521.816 132.204 521.492 130.578 520.844 129.546C520.196 128.502 519.212 127.98 517.892 127.98ZM540.832 140.724C541.672 140.724 542.458 140.568 543.19 140.256C543.934 139.944 544.648 139.548 545.332 139.068L547.492 142.11C546.652 142.818 545.638 143.4 544.45 143.856C543.262 144.312 541.99 144.54 540.634 144.54C538.642 144.54 536.932 144.126 535.504 143.298C534.088 142.458 532.996 141.294 532.228 139.806C531.472 138.306 531.094 136.566 531.094 134.586C531.094 132.63 531.478 130.884 532.246 129.348C533.026 127.8 534.13 126.588 535.558 125.712C536.998 124.836 538.714 124.398 540.706 124.398C542.074 124.398 543.31 124.596 544.414 124.992C545.53 125.376 546.55 125.952 547.474 126.72L545.368 129.636C544.66 129.144 543.928 128.772 543.172 128.52C542.428 128.256 541.654 128.124 540.85 128.124C539.446 128.124 538.3 128.634 537.412 129.654C536.536 130.662 536.098 132.306 536.098 134.586C536.098 136.086 536.302 137.286 536.71 138.186C537.13 139.086 537.694 139.734 538.402 140.13C539.122 140.526 539.932 140.724 540.832 140.724ZM567.714 138.978C567.714 139.71 567.822 140.244 568.038 140.58C568.254 140.904 568.602 141.15 569.082 141.318L568.056 144.504C567.036 144.396 566.166 144.144 565.446 143.748C564.738 143.34 564.192 142.734 563.808 141.93C563.088 142.806 562.176 143.46 561.072 143.892C559.98 144.324 558.834 144.54 557.634 144.54C555.69 144.54 554.148 143.988 553.008 142.884C551.868 141.78 551.298 140.346 551.298 138.582C551.298 136.554 552.09 134.994 553.674 133.902C555.27 132.798 557.526 132.246 560.442 132.246H563.106V131.22C563.106 130.092 562.758 129.276 562.062 128.772C561.366 128.256 560.364 127.998 559.056 127.998C558.444 127.998 557.676 128.082 556.752 128.25C555.84 128.406 554.898 128.652 553.926 128.988L552.792 125.73C554.004 125.274 555.222 124.938 556.446 124.722C557.682 124.506 558.804 124.398 559.812 124.398C562.488 124.398 564.474 124.968 565.77 126.108C567.066 127.236 567.714 128.838 567.714 130.914V138.978ZM559.182 141.102C559.902 141.102 560.628 140.898 561.36 140.49C562.104 140.082 562.686 139.512 563.106 138.78V135.072H561.234C559.47 135.072 558.192 135.354 557.4 135.918C556.62 136.482 556.23 137.28 556.23 138.312C556.23 139.2 556.482 139.89 556.986 140.382C557.49 140.862 558.222 141.102 559.182 141.102ZM584.822 116.82L589.574 117.324V144H585.362L585.074 141.75C584.486 142.59 583.748 143.268 582.86 143.784C581.972 144.288 580.94 144.54 579.764 144.54C578.156 144.54 576.824 144.12 575.768 143.28C574.724 142.44 573.944 141.264 573.428 139.752C572.924 138.228 572.672 136.458 572.672 134.442C572.672 132.498 572.972 130.77 573.572 129.258C574.172 127.746 575.036 126.558 576.164 125.694C577.304 124.83 578.654 124.398 580.214 124.398C581.15 124.398 582.002 124.56 582.77 124.884C583.538 125.208 584.222 125.688 584.822 126.324V116.82ZM581.492 127.944C580.292 127.944 579.344 128.466 578.648 129.51C577.964 130.542 577.622 132.192 577.622 134.46C577.622 136.056 577.766 137.334 578.054 138.294C578.342 139.242 578.75 139.926 579.278 140.346C579.806 140.766 580.43 140.976 581.15 140.976C581.942 140.976 582.638 140.742 583.238 140.274C583.85 139.794 584.378 139.2 584.822 138.492V129.816C584.378 129.228 583.88 128.772 583.328 128.448C582.788 128.112 582.176 127.944 581.492 127.944ZM602.956 124.398C604.852 124.398 606.46 124.812 607.78 125.64C609.1 126.468 610.102 127.638 610.786 129.15C611.482 130.65 611.83 132.408 611.83 134.424C611.83 136.488 611.482 138.276 610.786 139.788C610.09 141.3 609.082 142.47 607.762 143.298C606.442 144.126 604.834 144.54 602.938 144.54C601.054 144.54 599.446 144.138 598.114 143.334C596.794 142.518 595.786 141.36 595.09 139.86C594.394 138.348 594.046 136.548 594.046 134.46C594.046 132.468 594.394 130.716 595.09 129.204C595.786 127.692 596.8 126.516 598.132 125.676C599.464 124.824 601.072 124.398 602.956 124.398ZM602.956 127.98C601.624 127.98 600.628 128.502 599.968 129.546C599.32 130.59 598.996 132.228 598.996 134.46C598.996 136.716 599.32 138.366 599.968 139.41C600.616 140.442 601.606 140.958 602.938 140.958C604.27 140.958 605.26 140.442 605.908 139.41C606.556 138.366 606.88 136.704 606.88 134.424C606.88 132.204 606.556 130.578 605.908 129.546C605.26 128.502 604.276 127.98 602.956 127.98ZM647.414 124.398C649.094 124.398 650.438 124.812 651.446 125.64C652.466 126.456 653.204 127.614 653.66 129.114C654.128 130.614 654.362 132.384 654.362 134.424C654.362 136.38 654.08 138.12 653.516 139.644C652.952 141.168 652.124 142.368 651.032 143.244C649.952 144.108 648.62 144.54 647.036 144.54C645.092 144.54 643.52 143.85 642.32 142.47V151.344L637.568 151.848V124.938H641.744L641.996 127.26C642.752 126.276 643.598 125.556 644.534 125.1C645.47 124.632 646.43 124.398 647.414 124.398ZM646.028 127.962C645.224 127.962 644.516 128.202 643.904 128.682C643.304 129.162 642.776 129.756 642.32 130.464V138.996C642.752 139.644 643.244 140.13 643.796 140.454C644.348 140.778 644.972 140.94 645.668 140.94C646.88 140.94 647.804 140.436 648.44 139.428C649.088 138.408 649.412 136.758 649.412 134.478C649.412 132.87 649.28 131.592 649.016 130.644C648.764 129.684 648.386 129 647.882 128.592C647.378 128.172 646.76 127.962 646.028 127.962ZM674.044 138.978C674.044 139.71 674.152 140.244 674.368 140.58C674.584 140.904 674.932 141.15 675.412 141.318L674.386 144.504C673.366 144.396 672.496 144.144 671.776 143.748C671.068 143.34 670.522 142.734 670.138 141.93C669.418 142.806 668.506 143.46 667.402 143.892C666.31 144.324 665.164 144.54 663.964 144.54C662.02 144.54 660.478 143.988 659.338 142.884C658.198 141.78 657.628 140.346 657.628 138.582C657.628 136.554 658.42 134.994 660.004 133.902C661.6 132.798 663.856 132.246 666.772 132.246H669.436V131.22C669.436 130.092 669.088 129.276 668.392 128.772C667.696 128.256 666.694 127.998 665.386 127.998C664.774 127.998 664.006 128.082 663.082 128.25C662.17 128.406 661.228 128.652 660.256 128.988L659.122 125.73C660.334 125.274 661.552 124.938 662.776 124.722C664.012 124.506 665.134 124.398 666.142 124.398C668.818 124.398 670.804 124.968 672.1 126.108C673.396 127.236 674.044 128.838 674.044 130.914V138.978ZM665.512 141.102C666.232 141.102 666.958 140.898 667.69 140.49C668.434 140.082 669.016 139.512 669.436 138.78V135.072H667.564C665.8 135.072 664.522 135.354 663.73 135.918C662.95 136.482 662.56 137.28 662.56 138.312C662.56 139.2 662.812 139.89 663.316 140.382C663.82 140.862 664.552 141.102 665.512 141.102ZM680.28 144V140.706H682.962V128.214H680.28V124.938H686.58L687.462 129.312C688.158 127.692 689.034 126.474 690.09 125.658C691.146 124.83 692.472 124.416 694.068 124.416C694.68 124.416 695.22 124.464 695.688 124.56C696.168 124.656 696.624 124.782 697.056 124.938L695.634 128.934C695.262 128.838 694.908 128.766 694.572 128.718C694.236 128.658 693.858 128.628 693.438 128.628C692.118 128.628 690.966 129.144 689.982 130.176C689.01 131.196 688.254 132.582 687.714 134.334V140.706H691.512V144H680.28ZM693.042 132.372V127.314L693.69 124.938H697.056L696.21 132.372H693.042ZM716.576 138.978C716.576 139.71 716.684 140.244 716.9 140.58C717.116 140.904 717.464 141.15 717.944 141.318L716.918 144.504C715.898 144.396 715.028 144.144 714.308 143.748C713.6 143.34 713.054 142.734 712.67 141.93C711.95 142.806 711.038 143.46 709.934 143.892C708.842 144.324 707.696 144.54 706.496 144.54C704.552 144.54 703.01 143.988 701.87 142.884C700.73 141.78 700.16 140.346 700.16 138.582C700.16 136.554 700.952 134.994 702.536 133.902C704.132 132.798 706.388 132.246 709.304 132.246H711.968V131.22C711.968 130.092 711.62 129.276 710.924 128.772C710.228 128.256 709.226 127.998 707.918 127.998C707.306 127.998 706.538 128.082 705.614 128.25C704.702 128.406 703.76 128.652 702.788 128.988L701.654 125.73C702.866 125.274 704.084 124.938 705.308 124.722C706.544 124.506 707.666 124.398 708.674 124.398C711.35 124.398 713.336 124.968 714.632 126.108C715.928 127.236 716.576 128.838 716.576 130.914V138.978ZM708.044 141.102C708.764 141.102 709.49 140.898 710.222 140.49C710.966 140.082 711.548 139.512 711.968 138.78V135.072H710.096C708.332 135.072 707.054 135.354 706.262 135.918C705.482 136.482 705.092 137.28 705.092 138.312C705.092 139.2 705.344 139.89 705.848 140.382C706.352 140.862 707.084 141.102 708.044 141.102ZM743.897 144V124.938H748.037L748.379 127.296C749.195 126.336 750.113 125.616 751.133 125.136C752.153 124.644 753.251 124.398 754.427 124.398C756.143 124.398 757.451 124.896 758.351 125.892C759.251 126.876 759.701 128.262 759.701 130.05V144H754.949V131.904C754.949 130.944 754.889 130.176 754.769 129.6C754.649 129.012 754.421 128.592 754.085 128.34C753.749 128.076 753.263 127.944 752.627 127.944C752.111 127.944 751.613 128.058 751.133 128.286C750.665 128.514 750.221 128.82 749.801 129.204C749.393 129.588 749.009 130.014 748.649 130.482V144H743.897ZM773.083 124.398C774.979 124.398 776.587 124.812 777.907 125.64C779.227 126.468 780.229 127.638 780.913 129.15C781.609 130.65 781.957 132.408 781.957 134.424C781.957 136.488 781.609 138.276 780.913 139.788C780.217 141.3 779.209 142.47 777.889 143.298C776.569 144.126 774.961 144.54 773.065 144.54C771.181 144.54 769.573 144.138 768.241 143.334C766.921 142.518 765.913 141.36 765.217 139.86C764.521 138.348 764.173 136.548 764.173 134.46C764.173 132.468 764.521 130.716 765.217 129.204C765.913 127.692 766.927 126.516 768.259 125.676C769.591 124.824 771.199 124.398 773.083 124.398ZM773.083 127.98C771.751 127.98 770.755 128.502 770.095 129.546C769.447 130.59 769.123 132.228 769.123 134.46C769.123 136.716 769.447 138.366 770.095 139.41C770.743 140.442 771.733 140.958 773.065 140.958C774.397 140.958 775.387 140.442 776.035 139.41C776.683 138.366 777.007 136.704 777.007 134.424C777.007 132.204 776.683 130.578 776.035 129.546C775.387 128.502 774.403 127.98 773.083 127.98ZM803.691 124.938L797.139 144H791.559L784.971 124.938H790.083L794.421 140.202L798.849 124.938H803.691ZM822.905 138.978C822.905 139.71 823.013 140.244 823.229 140.58C823.445 140.904 823.793 141.15 824.273 141.318L823.247 144.504C822.227 144.396 821.357 144.144 820.637 143.748C819.929 143.34 819.383 142.734 818.999 141.93C818.279 142.806 817.367 143.46 816.263 143.892C815.171 144.324 814.025 144.54 812.825 144.54C810.881 144.54 809.339 143.988 808.199 142.884C807.059 141.78 806.489 140.346 806.489 138.582C806.489 136.554 807.281 134.994 808.865 133.902C810.461 132.798 812.717 132.246 815.633 132.246H818.297V131.22C818.297 130.092 817.949 129.276 817.253 128.772C816.557 128.256 815.555 127.998 814.247 127.998C813.635 127.998 812.867 128.082 811.943 128.25C811.031 128.406 810.089 128.652 809.117 128.988L807.983 125.73C809.195 125.274 810.413 124.938 811.637 124.722C812.873 124.506 813.995 124.398 815.003 124.398C817.679 124.398 819.665 124.968 820.961 126.108C822.257 127.236 822.905 128.838 822.905 130.914V138.978ZM814.373 141.102C815.093 141.102 815.819 140.898 816.551 140.49C817.295 140.082 817.877 139.512 818.297 138.78V135.072H816.425C814.661 135.072 813.383 135.354 812.591 135.918C811.811 136.482 811.421 137.28 811.421 138.312C811.421 139.2 811.673 139.89 812.177 140.382C812.681 140.862 813.413 141.102 814.373 141.102ZM836.215 141.03C837.331 141.03 838.225 140.838 838.897 140.454C839.581 140.058 839.923 139.506 839.923 138.798C839.923 138.33 839.809 137.934 839.581 137.61C839.365 137.286 838.933 136.986 838.285 136.71C837.637 136.422 836.665 136.104 835.369 135.756C834.145 135.444 833.071 135.06 832.147 134.604C831.235 134.136 830.521 133.536 830.005 132.804C829.501 132.072 829.249 131.148 829.249 130.032C829.249 128.916 829.561 127.938 830.185 127.098C830.809 126.246 831.709 125.586 832.885 125.118C834.073 124.638 835.501 124.398 837.169 124.398C838.801 124.398 840.229 124.614 841.453 125.046C842.677 125.466 843.727 125.994 844.603 126.63L842.659 129.528C841.891 129.036 841.057 128.64 840.157 128.34C839.269 128.028 838.309 127.872 837.277 127.872C836.161 127.872 835.345 128.034 834.829 128.358C834.325 128.682 834.073 129.132 834.073 129.708C834.073 130.116 834.199 130.464 834.451 130.752C834.715 131.028 835.183 131.298 835.855 131.562C836.539 131.814 837.511 132.12 838.771 132.48C840.007 132.816 841.081 133.212 841.993 133.668C842.917 134.124 843.631 134.73 844.135 135.486C844.639 136.242 844.891 137.232 844.891 138.456C844.891 139.836 844.489 140.976 843.685 141.876C842.881 142.776 841.819 143.448 840.499 143.892C839.191 144.324 837.769 144.54 836.233 144.54C834.433 144.54 832.861 144.282 831.517 143.766C830.173 143.25 829.033 142.584 828.097 141.768L830.563 138.996C831.307 139.584 832.153 140.07 833.101 140.454C834.061 140.838 835.099 141.03 836.215 141.03ZM364.192 187.398C365.008 187.398 365.704 187.572 366.28 187.92C366.856 188.256 367.3 188.826 367.612 189.63C367.924 190.422 368.08 191.502 368.08 192.87V207H363.94V193.464C363.94 192.6 363.868 191.988 363.724 191.628C363.592 191.268 363.286 191.088 362.806 191.088C362.41 191.088 362.008 191.208 361.6 191.448C361.204 191.676 360.79 192.09 360.358 192.69V207H356.776V193.464C356.776 192.6 356.704 191.988 356.56 191.628C356.428 191.268 356.122 191.088 355.642 191.088C355.234 191.088 354.832 191.208 354.436 191.448C354.04 191.676 353.626 192.09 353.194 192.69V207H349V187.938H352.546L352.852 189.918C353.416 189.126 354.01 188.508 354.634 188.064C355.258 187.62 356.008 187.398 356.884 187.398C357.604 187.398 358.24 187.578 358.792 187.938C359.356 188.286 359.758 188.886 359.998 189.738C360.55 189.042 361.168 188.478 361.852 188.046C362.536 187.614 363.316 187.398 364.192 187.398ZM382.865 187.938V203.634H387.887V207H372.533V203.634H378.113V191.304H372.713V187.938H382.865ZM379.787 178.326C380.663 178.326 381.371 178.596 381.911 179.136C382.463 179.676 382.739 180.348 382.739 181.152C382.739 181.956 382.463 182.634 381.911 183.186C381.371 183.726 380.663 183.996 379.787 183.996C378.911 183.996 378.197 183.726 377.645 183.186C377.093 182.634 376.817 181.956 376.817 181.152C376.817 180.348 377.093 179.676 377.645 179.136C378.197 178.596 378.911 178.326 379.787 178.326ZM400.423 204.03C401.539 204.03 402.433 203.838 403.105 203.454C403.789 203.058 404.131 202.506 404.131 201.798C404.131 201.33 404.017 200.934 403.789 200.61C403.573 200.286 403.141 199.986 402.493 199.71C401.845 199.422 400.873 199.104 399.577 198.756C398.353 198.444 397.279 198.06 396.355 197.604C395.443 197.136 394.729 196.536 394.213 195.804C393.709 195.072 393.457 194.148 393.457 193.032C393.457 191.916 393.769 190.938 394.393 190.098C395.017 189.246 395.917 188.586 397.093 188.118C398.281 187.638 399.709 187.398 401.377 187.398C403.009 187.398 404.437 187.614 405.661 188.046C406.885 188.466 407.935 188.994 408.811 189.63L406.867 192.528C406.099 192.036 405.265 191.64 404.365 191.34C403.477 191.028 402.517 190.872 401.485 190.872C400.369 190.872 399.553 191.034 399.037 191.358C398.533 191.682 398.281 192.132 398.281 192.708C398.281 193.116 398.407 193.464 398.659 193.752C398.923 194.028 399.391 194.298 400.063 194.562C400.747 194.814 401.719 195.12 402.979 195.48C404.215 195.816 405.289 196.212 406.201 196.668C407.125 197.124 407.839 197.73 408.343 198.486C408.847 199.242 409.099 200.232 409.099 201.456C409.099 202.836 408.697 203.976 407.893 204.876C407.089 205.776 406.027 206.448 404.707 206.892C403.399 207.324 401.977 207.54 400.441 207.54C398.641 207.54 397.069 207.282 395.725 206.766C394.381 206.25 393.241 205.584 392.305 204.768L394.771 201.996C395.515 202.584 396.361 203.07 397.309 203.454C398.269 203.838 399.307 204.03 400.423 204.03ZM421.689 204.03C422.805 204.03 423.699 203.838 424.371 203.454C425.055 203.058 425.397 202.506 425.397 201.798C425.397 201.33 425.283 200.934 425.055 200.61C424.839 200.286 424.407 199.986 423.759 199.71C423.111 199.422 422.139 199.104 420.843 198.756C419.619 198.444 418.545 198.06 417.621 197.604C416.709 197.136 415.995 196.536 415.479 195.804C414.975 195.072 414.723 194.148 414.723 193.032C414.723 191.916 415.035 190.938 415.659 190.098C416.283 189.246 417.183 188.586 418.359 188.118C419.547 187.638 420.975 187.398 422.643 187.398C424.275 187.398 425.703 187.614 426.927 188.046C428.151 188.466 429.201 188.994 430.077 189.63L428.133 192.528C427.365 192.036 426.531 191.64 425.631 191.34C424.743 191.028 423.783 190.872 422.751 190.872C421.635 190.872 420.819 191.034 420.303 191.358C419.799 191.682 419.547 192.132 419.547 192.708C419.547 193.116 419.673 193.464 419.925 193.752C420.189 194.028 420.657 194.298 421.329 194.562C422.013 194.814 422.985 195.12 424.245 195.48C425.481 195.816 426.555 196.212 427.467 196.668C428.391 197.124 429.105 197.73 429.609 198.486C430.113 199.242 430.365 200.232 430.365 201.456C430.365 202.836 429.963 203.976 429.159 204.876C428.355 205.776 427.293 206.448 425.973 206.892C424.665 207.324 423.243 207.54 421.707 207.54C419.907 207.54 418.335 207.282 416.991 206.766C415.647 206.25 414.507 205.584 413.571 204.768L416.037 201.996C416.781 202.584 417.627 203.07 418.575 203.454C419.535 203.838 420.573 204.03 421.689 204.03ZM443.621 187.398C445.517 187.398 447.125 187.812 448.445 188.64C449.765 189.468 450.767 190.638 451.451 192.15C452.147 193.65 452.495 195.408 452.495 197.424C452.495 199.488 452.147 201.276 451.451 202.788C450.755 204.3 449.747 205.47 448.427 206.298C447.107 207.126 445.499 207.54 443.603 207.54C441.719 207.54 440.111 207.138 438.779 206.334C437.459 205.518 436.451 204.36 435.755 202.86C435.059 201.348 434.711 199.548 434.711 197.46C434.711 195.468 435.059 193.716 435.755 192.204C436.451 190.692 437.465 189.516 438.797 188.676C440.129 187.824 441.737 187.398 443.621 187.398ZM443.621 190.98C442.289 190.98 441.293 191.502 440.633 192.546C439.985 193.59 439.661 195.228 439.661 197.46C439.661 199.716 439.985 201.366 440.633 202.41C441.281 203.442 442.271 203.958 443.603 203.958C444.935 203.958 445.925 203.442 446.573 202.41C447.221 201.366 447.545 199.704 447.545 197.424C447.545 195.204 447.221 193.578 446.573 192.546C445.925 191.502 444.941 190.98 443.621 190.98ZM445.655 183.852C444.983 183.852 444.413 183.714 443.945 183.438C443.489 183.162 443.069 182.886 442.685 182.61C442.313 182.334 441.923 182.196 441.515 182.196C441.083 182.196 440.729 182.334 440.453 182.61C440.177 182.874 439.895 183.27 439.607 183.798L437.069 182.556C437.513 181.512 438.101 180.618 438.833 179.874C439.565 179.118 440.435 178.74 441.443 178.74C442.163 178.74 442.751 178.878 443.207 179.154C443.675 179.43 444.089 179.706 444.449 179.982C444.809 180.258 445.199 180.396 445.619 180.396C446.003 180.396 446.333 180.27 446.609 180.018C446.897 179.754 447.197 179.358 447.509 178.83L450.047 180.09C449.579 181.218 448.967 182.13 448.211 182.826C447.467 183.51 446.615 183.852 445.655 183.852ZM461.017 198.918C461.113 200.106 461.383 201.072 461.827 201.816C462.283 202.56 462.865 203.106 463.573 203.454C464.281 203.802 465.067 203.976 465.931 203.976C466.843 203.976 467.701 203.832 468.505 203.544C469.309 203.256 470.101 202.854 470.881 202.338L472.861 205.056C471.973 205.8 470.911 206.4 469.675 206.856C468.451 207.312 467.101 207.54 465.625 207.54C463.561 207.54 461.821 207.114 460.405 206.262C459.001 205.41 457.939 204.228 457.219 202.716C456.499 201.204 456.139 199.464 456.139 197.496C456.139 195.6 456.493 193.89 457.201 192.366C457.909 190.842 458.929 189.636 460.261 188.748C461.593 187.848 463.201 187.398 465.085 187.398C466.837 187.398 468.349 187.782 469.621 188.55C470.893 189.318 471.877 190.422 472.573 191.862C473.269 193.29 473.617 195.012 473.617 197.028C473.617 197.352 473.605 197.682 473.581 198.018C473.569 198.354 473.551 198.654 473.527 198.918H461.017ZM465.103 190.746C463.951 190.746 463.003 191.16 462.259 191.988C461.527 192.804 461.095 194.1 460.963 195.876H468.991C468.967 194.268 468.631 193.014 467.983 192.114C467.347 191.202 466.387 190.746 465.103 190.746ZM485.487 204.03C486.603 204.03 487.497 203.838 488.169 203.454C488.853 203.058 489.195 202.506 489.195 201.798C489.195 201.33 489.081 200.934 488.853 200.61C488.637 200.286 488.205 199.986 487.557 199.71C486.909 199.422 485.937 199.104 484.641 198.756C483.417 198.444 482.343 198.06 481.419 197.604C480.507 197.136 479.793 196.536 479.277 195.804C478.773 195.072 478.521 194.148 478.521 193.032C478.521 191.916 478.833 190.938 479.457 190.098C480.081 189.246 480.981 188.586 482.157 188.118C483.345 187.638 484.773 187.398 486.441 187.398C488.073 187.398 489.501 187.614 490.725 188.046C491.949 188.466 492.999 188.994 493.875 189.63L491.931 192.528C491.163 192.036 490.329 191.64 489.429 191.34C488.541 191.028 487.581 190.872 486.549 190.872C485.433 190.872 484.617 191.034 484.101 191.358C483.597 191.682 483.345 192.132 483.345 192.708C483.345 193.116 483.471 193.464 483.723 193.752C483.987 194.028 484.455 194.298 485.127 194.562C485.811 194.814 486.783 195.12 488.043 195.48C489.279 195.816 490.353 196.212 491.265 196.668C492.189 197.124 492.903 197.73 493.407 198.486C493.911 199.242 494.163 200.232 494.163 201.456C494.163 202.836 493.761 203.976 492.957 204.876C492.153 205.776 491.091 206.448 489.771 206.892C488.463 207.324 487.041 207.54 485.505 207.54C483.705 207.54 482.133 207.282 480.789 206.766C479.445 206.25 478.305 205.584 477.369 204.768L479.835 201.996C480.579 202.584 481.425 203.07 482.373 203.454C483.333 203.838 484.371 204.03 485.487 204.03ZM524.815 198.918C524.911 200.106 525.181 201.072 525.625 201.816C526.081 202.56 526.663 203.106 527.371 203.454C528.079 203.802 528.865 203.976 529.729 203.976C530.641 203.976 531.499 203.832 532.303 203.544C533.107 203.256 533.899 202.854 534.679 202.338L536.659 205.056C535.771 205.8 534.709 206.4 533.473 206.856C532.249 207.312 530.899 207.54 529.423 207.54C527.359 207.54 525.619 207.114 524.203 206.262C522.799 205.41 521.737 204.228 521.017 202.716C520.297 201.204 519.937 199.464 519.937 197.496C519.937 195.6 520.291 193.89 520.999 192.366C521.707 190.842 522.727 189.636 524.059 188.748C525.391 187.848 526.999 187.398 528.883 187.398C530.635 187.398 532.147 187.782 533.419 188.55C534.691 189.318 535.675 190.422 536.371 191.862C537.067 193.29 537.415 195.012 537.415 197.028C537.415 197.352 537.403 197.682 537.379 198.018C537.367 198.354 537.349 198.654 537.325 198.918H524.815ZM528.901 190.746C527.749 190.746 526.801 191.16 526.057 191.988C525.325 192.804 524.893 194.1 524.761 195.876H532.789C532.765 194.268 532.429 193.014 531.781 192.114C531.145 191.202 530.185 190.746 528.901 190.746ZM555.585 187.398C556.401 187.398 557.097 187.572 557.673 187.92C558.249 188.256 558.693 188.826 559.005 189.63C559.317 190.422 559.473 191.502 559.473 192.87V207H555.333V193.464C555.333 192.6 555.261 191.988 555.117 191.628C554.985 191.268 554.679 191.088 554.199 191.088C553.803 191.088 553.401 191.208 552.993 191.448C552.597 191.676 552.183 192.09 551.751 192.69V207H548.169V193.464C548.169 192.6 548.097 191.988 547.953 191.628C547.821 191.268 547.515 191.088 547.035 191.088C546.627 191.088 546.225 191.208 545.829 191.448C545.433 191.676 545.019 192.09 544.587 192.69V207H540.393V187.938H543.939L544.245 189.918C544.809 189.126 545.403 188.508 546.027 188.064C546.651 187.62 547.401 187.398 548.277 187.398C548.997 187.398 549.633 187.578 550.185 187.938C550.749 188.286 551.151 188.886 551.391 189.738C551.943 189.042 552.561 188.478 553.245 188.046C553.929 187.614 554.709 187.398 555.585 187.398ZM589.315 190.08C589.951 189.24 590.701 188.586 591.565 188.118C592.441 187.638 593.383 187.398 594.391 187.398C596.059 187.398 597.409 187.812 598.441 188.64C599.485 189.456 600.247 190.614 600.727 192.114C601.219 193.614 601.465 195.384 601.465 197.424C601.465 199.38 601.177 201.12 600.601 202.644C600.025 204.168 599.167 205.368 598.027 206.244C596.899 207.108 595.513 207.54 593.869 207.54C591.805 207.54 590.179 206.754 588.991 205.182L588.775 207H584.563V180.324L589.315 179.82V190.08ZM592.645 203.994C593.857 203.994 594.805 203.478 595.489 202.446C596.173 201.414 596.515 199.758 596.515 197.478C596.515 195.87 596.371 194.592 596.083 193.644C595.807 192.684 595.405 192 594.877 191.592C594.361 191.172 593.737 190.962 593.005 190.962C592.213 190.962 591.511 191.202 590.899 191.682C590.299 192.162 589.771 192.756 589.315 193.464V201.996C589.723 202.632 590.203 203.124 590.755 203.472C591.307 203.82 591.937 203.994 592.645 203.994ZM606.009 207V203.706H608.691V191.214H606.009V187.938H612.309L613.191 192.312C613.887 190.692 614.763 189.474 615.819 188.658C616.875 187.83 618.201 187.416 619.797 187.416C620.409 187.416 620.949 187.464 621.417 187.56C621.897 187.656 622.353 187.782 622.785 187.938L621.363 191.934C620.991 191.838 620.637 191.766 620.301 191.718C619.965 191.658 619.587 191.628 619.167 191.628C617.847 191.628 616.695 192.144 615.711 193.176C614.739 194.196 613.983 195.582 613.443 197.334V203.706H617.241V207H606.009ZM618.771 195.372V190.314L619.419 187.938H622.785L621.939 195.372H618.771ZM631.145 198.918C631.241 200.106 631.511 201.072 631.955 201.816C632.411 202.56 632.993 203.106 633.701 203.454C634.409 203.802 635.195 203.976 636.059 203.976C636.971 203.976 637.829 203.832 638.633 203.544C639.437 203.256 640.229 202.854 641.009 202.338L642.989 205.056C642.101 205.8 641.039 206.4 639.803 206.856C638.579 207.312 637.229 207.54 635.753 207.54C633.689 207.54 631.949 207.114 630.533 206.262C629.129 205.41 628.067 204.228 627.347 202.716C626.627 201.204 626.267 199.464 626.267 197.496C626.267 195.6 626.621 193.89 627.329 192.366C628.037 190.842 629.057 189.636 630.389 188.748C631.721 187.848 633.329 187.398 635.213 187.398C636.965 187.398 638.477 187.782 639.749 188.55C641.021 189.318 642.005 190.422 642.701 191.862C643.397 193.29 643.745 195.012 643.745 197.028C643.745 197.352 643.733 197.682 643.709 198.018C643.697 198.354 643.679 198.654 643.655 198.918H631.145ZM635.231 190.746C634.079 190.746 633.131 191.16 632.387 191.988C631.655 192.804 631.223 194.1 631.091 195.876H639.119C639.095 194.268 638.759 193.014 638.111 192.114C637.475 191.202 636.515 190.746 635.231 190.746ZM665.623 187.938L659.071 207H653.491L646.903 187.938H652.015L656.353 203.202L660.781 187.938H665.623ZM673.677 198.918C673.773 200.106 674.043 201.072 674.487 201.816C674.943 202.56 675.525 203.106 676.233 203.454C676.941 203.802 677.727 203.976 678.591 203.976C679.503 203.976 680.361 203.832 681.165 203.544C681.969 203.256 682.761 202.854 683.541 202.338L685.521 205.056C684.633 205.8 683.571 206.4 682.335 206.856C681.111 207.312 679.761 207.54 678.285 207.54C676.221 207.54 674.481 207.114 673.065 206.262C671.661 205.41 670.599 204.228 669.879 202.716C669.159 201.204 668.799 199.464 668.799 197.496C668.799 195.6 669.153 193.89 669.861 192.366C670.569 190.842 671.589 189.636 672.921 188.748C674.253 187.848 675.861 187.398 677.745 187.398C679.497 187.398 681.009 187.782 682.281 188.55C683.553 189.318 684.537 190.422 685.233 191.862C685.929 193.29 686.277 195.012 686.277 197.028C686.277 197.352 686.265 197.682 686.241 198.018C686.229 198.354 686.211 198.654 686.187 198.918H673.677ZM677.763 190.746C676.611 190.746 675.663 191.16 674.919 191.988C674.187 192.804 673.755 194.1 673.623 195.876H681.651C681.627 194.268 681.291 193.014 680.643 192.114C680.007 191.202 679.047 190.746 677.763 190.746ZM695.069 203.814C695.069 203.142 695.231 202.524 695.555 201.96C695.891 201.396 696.341 200.946 696.905 200.61C697.469 200.274 698.093 200.106 698.777 200.106C699.473 200.106 700.103 200.274 700.667 200.61C701.231 200.946 701.675 201.396 701.999 201.96C702.335 202.524 702.503 203.142 702.503 203.814C702.503 204.486 702.335 205.11 701.999 205.686C701.675 206.25 701.231 206.7 700.667 207.036C700.103 207.372 699.473 207.54 698.777 207.54C698.093 207.54 697.469 207.372 696.905 207.036C696.341 206.7 695.891 206.25 695.555 205.686C695.231 205.11 695.069 204.486 695.069 203.814Z" fill="#57EB23"/>
<defs>
<filter id="filter0_i_513_247" x="0" y="0" width="1055.15" height="583.28" filterUnits="userSpaceOnUse" color-interpolation-filters="sRGB">
<feFlood flood-opacity="0" result="BackgroundImageFix"/>
<feBlend mode="normal" in="SourceGraphic" in2="BackgroundImageFix" result="shape"/>
<feColorMatrix in="SourceAlpha" type="matrix" values="0 0 0 0 0 0 0 0 0 0 0 0 0 0 0 0 0 0 127 0" result="hardAlpha"/>
<feOffset dy="4"/>
<feGaussianBlur stdDeviation="61"/>
<feComposite in2="hardAlpha" operator="arithmetic" k2="-1" k3="1"/>
<feColorMatrix type="matrix" values="0 0 0 0 0 0 0 0 0 0 0 0 0 0 0 0 0 0 0.5 0"/>
<feBlend mode="normal" in2="shape" result="effect1_innerShadow_513_247"/>
</filter>
<filter id="filter1_i_513_247" x="0" y="0" width="1055.15" height="583.28" filterUnits="userSpaceOnUse" color-interpolation-filters="sRGB">
<feFlood flood-opacity="0" result="BackgroundImageFix"/>
<feBlend mode="normal" in="SourceGraphic" in2="BackgroundImageFix" result="shape"/>
<feColorMatrix in="SourceAlpha" type="matrix" values="0 0 0 0 0 0 0 0 0 0 0 0 0 0 0 0 0 0 127 0" result="hardAlpha"/>
<feOffset dy="4"/>
<feGaussianBlur stdDeviation="61"/>
<feComposite in2="hardAlpha" operator="arithmetic" k2="-1" k3="1"/>
<feColorMatrix type="matrix" values="0 0 0 0 0 0 0 0 0 0 0 0 0 0 0 0 0 0 0.5 0"/>
<feBlend mode="normal" in2="shape" result="effect1_innerShadow_513_247"/>
</filter>
</defs>
</svg>
