<svg width="1158" height="535" viewBox="0 0 1158 535" fill="none" xmlns="http://www.w3.org/2000/svg">
<g clip-path="url(#clip0_545_399)">
<rect width="1158" height="535" fill="white"/>
<g filter="url(#filter0_i_545_399)">
<path fill-rule="evenodd" clip-rule="evenodd" d="M597.063 0H0V535H1158V262.13C1158 261.926 1158 261.722 1158 261.518V0H597.063Z" fill="#121212"/>
</g>
<path d="M270.241 133.77L275.641 113.106H280.681L273.085 138H267.217L259.657 113.106H264.895L270.241 133.77Z" fill="#57EB23"/>
<path d="M291.435 118.398C293.331 118.398 294.939 118.812 296.259 119.64C297.579 120.468 298.581 121.638 299.265 123.15C299.961 124.65 300.309 126.408 300.309 128.424C300.309 130.488 299.961 132.276 299.265 133.788C298.569 135.3 297.561 136.47 296.241 137.298C294.921 138.126 293.313 138.54 291.417 138.54C289.533 138.54 287.925 138.138 286.593 137.334C285.273 136.518 284.265 135.36 283.569 133.86C282.873 132.348 282.525 130.548 282.525 128.46C282.525 126.468 282.873 124.716 283.569 123.204C284.265 121.692 285.279 120.516 286.611 119.676C287.943 118.824 289.551 118.398 291.435 118.398ZM291.435 121.98C290.103 121.98 289.107 122.502 288.447 123.546C287.799 124.59 287.475 126.228 287.475 128.46C287.475 130.716 287.799 132.366 288.447 133.41C289.095 134.442 290.085 134.958 291.417 134.958C292.749 134.958 293.739 134.442 294.387 133.41C295.035 132.366 295.359 130.704 295.359 128.424C295.359 126.204 295.035 124.578 294.387 123.546C293.739 122.502 292.755 121.98 291.435 121.98Z" fill="#57EB23"/>
<path d="M314.375 134.724C315.215 134.724 316.001 134.568 316.733 134.256C317.477 133.944 318.191 133.548 318.875 133.068L321.035 136.11C320.195 136.818 319.181 137.4 317.993 137.856C316.805 138.312 315.533 138.54 314.177 138.54C312.185 138.54 310.475 138.126 309.047 137.298C307.631 136.458 306.539 135.294 305.771 133.806C305.015 132.306 304.637 130.566 304.637 128.586C304.637 126.63 305.021 124.884 305.789 123.348C306.569 121.8 307.673 120.588 309.101 119.712C310.541 118.836 312.257 118.398 314.249 118.398C315.617 118.398 316.853 118.596 317.957 118.992C319.073 119.376 320.093 119.952 321.017 120.72L318.911 123.636C318.203 123.144 317.471 122.772 316.715 122.52C315.971 122.256 315.197 122.124 314.393 122.124C312.989 122.124 311.843 122.634 310.955 123.654C310.079 124.662 309.641 126.306 309.641 128.586C309.641 130.086 309.845 131.286 310.253 132.186C310.673 133.086 311.237 133.734 311.945 134.13C312.665 134.526 313.475 134.724 314.375 134.724Z" fill="#57EB23"/>
<path d="M330.097 129.918C330.193 131.106 330.463 132.072 330.907 132.816C331.363 133.56 331.945 134.106 332.653 134.454C333.361 134.802 334.147 134.976 335.011 134.976C335.923 134.976 336.781 134.832 337.585 134.544C338.389 134.256 339.181 133.854 339.961 133.338L341.941 136.056C341.053 136.8 339.991 137.4 338.755 137.856C337.531 138.312 336.181 138.54 334.705 138.54C332.641 138.54 330.901 138.114 329.485 137.262C328.081 136.41 327.019 135.228 326.299 133.716C325.579 132.204 325.219 130.464 325.219 128.496C325.219 126.6 325.573 124.89 326.281 123.366C326.989 121.842 328.009 120.636 329.341 119.748C330.673 118.848 332.281 118.398 334.165 118.398C335.917 118.398 337.429 118.782 338.701 119.55C339.973 120.318 340.957 121.422 341.653 122.862C342.349 124.29 342.697 126.012 342.697 128.028C342.697 128.352 342.685 128.682 342.661 129.018C342.649 129.354 342.631 129.654 342.607 129.918H330.097ZM334.183 121.746C333.031 121.746 332.083 122.16 331.339 122.988C330.607 123.804 330.175 125.1 330.043 126.876H338.071C338.047 125.268 337.711 124.014 337.063 123.114C336.427 122.202 335.467 121.746 334.183 121.746ZM329.593 115.77L327.721 113.736L332.761 108.966H335.731L340.735 113.736L338.935 115.77L334.255 112.422L329.593 115.77Z" fill="#57EB23"/>
<path d="M375.833 135.03C376.949 135.03 377.843 134.838 378.515 134.454C379.199 134.058 379.541 133.506 379.541 132.798C379.541 132.33 379.427 131.934 379.199 131.61C378.983 131.286 378.551 130.986 377.903 130.71C377.255 130.422 376.283 130.104 374.987 129.756C373.763 129.444 372.689 129.06 371.765 128.604C370.853 128.136 370.139 127.536 369.623 126.804C369.119 126.072 368.867 125.148 368.867 124.032C368.867 122.916 369.179 121.938 369.803 121.098C370.427 120.246 371.327 119.586 372.503 119.118C373.691 118.638 375.119 118.398 376.787 118.398C378.419 118.398 379.847 118.614 381.071 119.046C382.295 119.466 383.345 119.994 384.221 120.63L382.277 123.528C381.509 123.036 380.675 122.64 379.775 122.34C378.887 122.028 377.927 121.872 376.895 121.872C375.779 121.872 374.963 122.034 374.447 122.358C373.943 122.682 373.691 123.132 373.691 123.708C373.691 124.116 373.817 124.464 374.069 124.752C374.333 125.028 374.801 125.298 375.473 125.562C376.157 125.814 377.129 126.12 378.389 126.48C379.625 126.816 380.699 127.212 381.611 127.668C382.535 128.124 383.249 128.73 383.753 129.486C384.257 130.242 384.509 131.232 384.509 132.456C384.509 133.836 384.107 134.976 383.303 135.876C382.499 136.776 381.437 137.448 380.117 137.892C378.809 138.324 377.387 138.54 375.851 138.54C374.051 138.54 372.479 138.282 371.135 137.766C369.791 137.25 368.651 136.584 367.715 135.768L370.181 132.996C370.925 133.584 371.771 134.07 372.719 134.454C373.679 134.838 374.717 135.03 375.833 135.03Z" fill="#57EB23"/>
<path d="M393.895 129.918C393.991 131.106 394.261 132.072 394.705 132.816C395.161 133.56 395.743 134.106 396.451 134.454C397.159 134.802 397.945 134.976 398.809 134.976C399.721 134.976 400.579 134.832 401.383 134.544C402.187 134.256 402.979 133.854 403.759 133.338L405.739 136.056C404.851 136.8 403.789 137.4 402.553 137.856C401.329 138.312 399.979 138.54 398.503 138.54C396.439 138.54 394.699 138.114 393.283 137.262C391.879 136.41 390.817 135.228 390.097 133.716C389.377 132.204 389.017 130.464 389.017 128.496C389.017 126.6 389.371 124.89 390.079 123.366C390.787 121.842 391.807 120.636 393.139 119.748C394.471 118.848 396.079 118.398 397.963 118.398C399.715 118.398 401.227 118.782 402.499 119.55C403.771 120.318 404.755 121.422 405.451 122.862C406.147 124.29 406.495 126.012 406.495 128.028C406.495 128.352 406.483 128.682 406.459 129.018C406.447 129.354 406.429 129.654 406.405 129.918H393.895ZM397.981 121.746C396.829 121.746 395.881 122.16 395.137 122.988C394.405 123.804 393.973 125.1 393.841 126.876H401.869C401.845 125.268 401.509 124.014 400.861 123.114C400.225 122.202 399.265 121.746 397.981 121.746Z" fill="#57EB23"/>
<path d="M411.291 138V134.706H413.973V122.214H411.291V118.938H417.591L418.473 123.312C419.169 121.692 420.045 120.474 421.101 119.658C422.157 118.83 423.483 118.416 425.079 118.416C425.691 118.416 426.231 118.464 426.699 118.56C427.179 118.656 427.635 118.782 428.067 118.938L426.645 122.934C426.273 122.838 425.919 122.766 425.583 122.718C425.247 122.658 424.869 122.628 424.449 122.628C423.129 122.628 421.977 123.144 420.993 124.176C420.021 125.196 419.265 126.582 418.725 128.334V134.706H422.523V138H411.291ZM424.053 126.372V121.314L424.701 118.938H428.067L427.221 126.372H424.053Z" fill="#57EB23"/>
<path d="M447.586 132.978C447.586 133.71 447.694 134.244 447.91 134.58C448.126 134.904 448.474 135.15 448.954 135.318L447.928 138.504C446.908 138.396 446.038 138.144 445.318 137.748C444.61 137.34 444.064 136.734 443.68 135.93C442.96 136.806 442.048 137.46 440.944 137.892C439.852 138.324 438.706 138.54 437.506 138.54C435.562 138.54 434.02 137.988 432.88 136.884C431.74 135.78 431.17 134.346 431.17 132.582C431.17 130.554 431.962 128.994 433.546 127.902C435.142 126.798 437.398 126.246 440.314 126.246H442.978V125.22C442.978 124.092 442.63 123.276 441.934 122.772C441.238 122.256 440.236 121.998 438.928 121.998C438.316 121.998 437.548 122.082 436.624 122.25C435.712 122.406 434.77 122.652 433.798 122.988L432.664 119.73C433.876 119.274 435.094 118.938 436.318 118.722C437.554 118.506 438.676 118.398 439.684 118.398C442.36 118.398 444.346 118.968 445.642 120.108C446.938 121.236 447.586 122.838 447.586 124.914V132.978ZM439.054 135.102C439.774 135.102 440.5 134.898 441.232 134.49C441.976 134.082 442.558 133.512 442.978 132.78V129.072H441.106C439.342 129.072 438.064 129.354 437.272 129.918C436.492 130.482 436.102 131.28 436.102 132.312C436.102 133.2 436.354 133.89 436.858 134.382C437.362 134.862 438.094 135.102 439.054 135.102ZM442.834 108.426L444.76 112.116L436.606 115.374L435.274 112.926L442.834 108.426Z" fill="#57EB23"/>
<path d="M484.502 134.724C485.342 134.724 486.128 134.568 486.86 134.256C487.604 133.944 488.318 133.548 489.002 133.068L491.162 136.11C490.322 136.818 489.308 137.4 488.12 137.856C486.932 138.312 485.66 138.54 484.304 138.54C482.312 138.54 480.602 138.126 479.174 137.298C477.758 136.458 476.666 135.294 475.898 133.806C475.142 132.306 474.764 130.566 474.764 128.586C474.764 126.63 475.148 124.884 475.916 123.348C476.696 121.8 477.8 120.588 479.228 119.712C480.668 118.836 482.384 118.398 484.376 118.398C485.744 118.398 486.98 118.596 488.084 118.992C489.2 119.376 490.22 119.952 491.144 120.72L489.038 123.636C488.33 123.144 487.598 122.772 486.842 122.52C486.098 122.256 485.324 122.124 484.52 122.124C483.116 122.124 481.97 122.634 481.082 123.654C480.206 124.662 479.768 126.306 479.768 128.586C479.768 130.086 479.972 131.286 480.38 132.186C480.8 133.086 481.364 133.734 482.072 134.13C482.792 134.526 483.602 134.724 484.502 134.724Z" fill="#57EB23"/>
<path d="M504.094 118.398C505.99 118.398 507.598 118.812 508.918 119.64C510.238 120.468 511.24 121.638 511.924 123.15C512.62 124.65 512.968 126.408 512.968 128.424C512.968 130.488 512.62 132.276 511.924 133.788C511.228 135.3 510.22 136.47 508.9 137.298C507.58 138.126 505.972 138.54 504.076 138.54C502.192 138.54 500.584 138.138 499.252 137.334C497.932 136.518 496.924 135.36 496.228 133.86C495.532 132.348 495.184 130.548 495.184 128.46C495.184 126.468 495.532 124.716 496.228 123.204C496.924 121.692 497.938 120.516 499.27 119.676C500.602 118.824 502.21 118.398 504.094 118.398ZM504.094 121.98C502.762 121.98 501.766 122.502 501.106 123.546C500.458 124.59 500.134 126.228 500.134 128.46C500.134 130.716 500.458 132.366 501.106 133.41C501.754 134.442 502.744 134.958 504.076 134.958C505.408 134.958 506.398 134.442 507.046 133.41C507.694 132.366 508.018 130.704 508.018 128.424C508.018 126.204 507.694 124.578 507.046 123.546C506.398 122.502 505.414 121.98 504.094 121.98Z" fill="#57EB23"/>
<path d="M517.44 138V118.938H521.58L521.922 121.296C522.738 120.336 523.656 119.616 524.676 119.136C525.696 118.644 526.794 118.398 527.97 118.398C529.686 118.398 530.994 118.896 531.894 119.892C532.794 120.876 533.244 122.262 533.244 124.05V138H528.492V125.904C528.492 124.944 528.432 124.176 528.312 123.6C528.192 123.012 527.964 122.592 527.628 122.34C527.292 122.076 526.806 121.944 526.17 121.944C525.654 121.944 525.156 122.058 524.676 122.286C524.208 122.514 523.764 122.82 523.344 123.204C522.936 123.588 522.552 124.014 522.192 124.482V138H517.44Z" fill="#57EB23"/>
<path d="M555.968 118.938L549.416 138H543.836L537.248 118.938H542.36L546.698 134.202L551.126 118.938H555.968Z" fill="#57EB23"/>
<path d="M567.892 118.398C569.788 118.398 571.396 118.812 572.716 119.64C574.036 120.468 575.038 121.638 575.722 123.15C576.418 124.65 576.766 126.408 576.766 128.424C576.766 130.488 576.418 132.276 575.722 133.788C575.026 135.3 574.018 136.47 572.698 137.298C571.378 138.126 569.77 138.54 567.874 138.54C565.99 138.54 564.382 138.138 563.05 137.334C561.73 136.518 560.722 135.36 560.026 133.86C559.33 132.348 558.982 130.548 558.982 128.46C558.982 126.468 559.33 124.716 560.026 123.204C560.722 121.692 561.736 120.516 563.068 119.676C564.4 118.824 566.008 118.398 567.892 118.398ZM567.892 121.98C566.56 121.98 565.564 122.502 564.904 123.546C564.256 124.59 563.932 126.228 563.932 128.46C563.932 130.716 564.256 132.366 564.904 133.41C565.552 134.442 566.542 134.958 567.874 134.958C569.206 134.958 570.196 134.442 570.844 133.41C571.492 132.366 571.816 130.704 571.816 128.424C571.816 126.204 571.492 124.578 570.844 123.546C570.196 122.502 569.212 121.98 567.892 121.98Z" fill="#57EB23"/>
<path d="M590.832 134.724C591.672 134.724 592.458 134.568 593.19 134.256C593.934 133.944 594.648 133.548 595.332 133.068L597.492 136.11C596.652 136.818 595.638 137.4 594.45 137.856C593.262 138.312 591.99 138.54 590.634 138.54C588.642 138.54 586.932 138.126 585.504 137.298C584.088 136.458 582.996 135.294 582.228 133.806C581.472 132.306 581.094 130.566 581.094 128.586C581.094 126.63 581.478 124.884 582.246 123.348C583.026 121.8 584.13 120.588 585.558 119.712C586.998 118.836 588.714 118.398 590.706 118.398C592.074 118.398 593.31 118.596 594.414 118.992C595.53 119.376 596.55 119.952 597.474 120.72L595.368 123.636C594.66 123.144 593.928 122.772 593.172 122.52C592.428 122.256 591.654 122.124 590.85 122.124C589.446 122.124 588.3 122.634 587.412 123.654C586.536 124.662 586.098 126.306 586.098 128.586C586.098 130.086 586.302 131.286 586.71 132.186C587.13 133.086 587.694 133.734 588.402 134.13C589.122 134.526 589.932 134.724 590.832 134.724Z" fill="#57EB23"/>
<path d="M617.714 132.978C617.714 133.71 617.822 134.244 618.038 134.58C618.254 134.904 618.602 135.15 619.082 135.318L618.056 138.504C617.036 138.396 616.166 138.144 615.446 137.748C614.738 137.34 614.192 136.734 613.808 135.93C613.088 136.806 612.176 137.46 611.072 137.892C609.98 138.324 608.834 138.54 607.634 138.54C605.69 138.54 604.148 137.988 603.008 136.884C601.868 135.78 601.298 134.346 601.298 132.582C601.298 130.554 602.09 128.994 603.674 127.902C605.27 126.798 607.526 126.246 610.442 126.246H613.106V125.22C613.106 124.092 612.758 123.276 612.062 122.772C611.366 122.256 610.364 121.998 609.056 121.998C608.444 121.998 607.676 122.082 606.752 122.25C605.84 122.406 604.898 122.652 603.926 122.988L602.792 119.73C604.004 119.274 605.222 118.938 606.446 118.722C607.682 118.506 608.804 118.398 609.812 118.398C612.488 118.398 614.474 118.968 615.77 120.108C617.066 121.236 617.714 122.838 617.714 124.914V132.978ZM609.182 135.102C609.902 135.102 610.628 134.898 611.36 134.49C612.104 134.082 612.686 133.512 613.106 132.78V129.072H611.234C609.47 129.072 608.192 129.354 607.4 129.918C606.62 130.482 606.23 131.28 606.23 132.312C606.23 133.2 606.482 133.89 606.986 134.382C607.49 134.862 608.222 135.102 609.182 135.102Z" fill="#57EB23"/>
<path d="M634.822 110.82L639.574 111.324V138H635.362L635.074 135.75C634.486 136.59 633.748 137.268 632.86 137.784C631.972 138.288 630.94 138.54 629.764 138.54C628.156 138.54 626.824 138.12 625.768 137.28C624.724 136.44 623.944 135.264 623.428 133.752C622.924 132.228 622.672 130.458 622.672 128.442C622.672 126.498 622.972 124.77 623.572 123.258C624.172 121.746 625.036 120.558 626.164 119.694C627.304 118.83 628.654 118.398 630.214 118.398C631.15 118.398 632.002 118.56 632.77 118.884C633.538 119.208 634.222 119.688 634.822 120.324V110.82ZM631.492 121.944C630.292 121.944 629.344 122.466 628.648 123.51C627.964 124.542 627.622 126.192 627.622 128.46C627.622 130.056 627.766 131.334 628.054 132.294C628.342 133.242 628.75 133.926 629.278 134.346C629.806 134.766 630.43 134.976 631.15 134.976C631.942 134.976 632.638 134.742 633.238 134.274C633.85 133.794 634.378 133.2 634.822 132.492V123.816C634.378 123.228 633.88 122.772 633.328 122.448C632.788 122.112 632.176 121.944 631.492 121.944Z" fill="#57EB23"/>
<path d="M652.956 118.398C654.852 118.398 656.46 118.812 657.78 119.64C659.1 120.468 660.102 121.638 660.786 123.15C661.482 124.65 661.83 126.408 661.83 128.424C661.83 130.488 661.482 132.276 660.786 133.788C660.09 135.3 659.082 136.47 657.762 137.298C656.442 138.126 654.834 138.54 652.938 138.54C651.054 138.54 649.446 138.138 648.114 137.334C646.794 136.518 645.786 135.36 645.09 133.86C644.394 132.348 644.046 130.548 644.046 128.46C644.046 126.468 644.394 124.716 645.09 123.204C645.786 121.692 646.8 120.516 648.132 119.676C649.464 118.824 651.072 118.398 652.956 118.398ZM652.956 121.98C651.624 121.98 650.628 122.502 649.968 123.546C649.32 124.59 648.996 126.228 648.996 128.46C648.996 130.716 649.32 132.366 649.968 133.41C650.616 134.442 651.606 134.958 652.938 134.958C654.27 134.958 655.26 134.442 655.908 133.41C656.556 132.366 656.88 130.704 656.88 128.424C656.88 126.204 656.556 124.578 655.908 123.546C655.26 122.502 654.276 121.98 652.956 121.98Z" fill="#57EB23"/>
<path d="M697.414 118.398C699.094 118.398 700.438 118.812 701.446 119.64C702.466 120.456 703.204 121.614 703.66 123.114C704.128 124.614 704.362 126.384 704.362 128.424C704.362 130.38 704.08 132.12 703.516 133.644C702.952 135.168 702.124 136.368 701.032 137.244C699.952 138.108 698.62 138.54 697.036 138.54C695.092 138.54 693.52 137.85 692.32 136.47V145.344L687.568 145.848V118.938H691.744L691.996 121.26C692.752 120.276 693.598 119.556 694.534 119.1C695.47 118.632 696.43 118.398 697.414 118.398ZM696.028 121.962C695.224 121.962 694.516 122.202 693.904 122.682C693.304 123.162 692.776 123.756 692.32 124.464V132.996C692.752 133.644 693.244 134.13 693.796 134.454C694.348 134.778 694.972 134.94 695.668 134.94C696.88 134.94 697.804 134.436 698.44 133.428C699.088 132.408 699.412 130.758 699.412 128.478C699.412 126.87 699.28 125.592 699.016 124.644C698.764 123.684 698.386 123 697.882 122.592C697.378 122.172 696.76 121.962 696.028 121.962Z" fill="#57EB23"/>
<path d="M724.044 132.978C724.044 133.71 724.152 134.244 724.368 134.58C724.584 134.904 724.932 135.15 725.412 135.318L724.386 138.504C723.366 138.396 722.496 138.144 721.776 137.748C721.068 137.34 720.522 136.734 720.138 135.93C719.418 136.806 718.506 137.46 717.402 137.892C716.31 138.324 715.164 138.54 713.964 138.54C712.02 138.54 710.478 137.988 709.338 136.884C708.198 135.78 707.628 134.346 707.628 132.582C707.628 130.554 708.42 128.994 710.004 127.902C711.6 126.798 713.856 126.246 716.772 126.246H719.436V125.22C719.436 124.092 719.088 123.276 718.392 122.772C717.696 122.256 716.694 121.998 715.386 121.998C714.774 121.998 714.006 122.082 713.082 122.25C712.17 122.406 711.228 122.652 710.256 122.988L709.122 119.73C710.334 119.274 711.552 118.938 712.776 118.722C714.012 118.506 715.134 118.398 716.142 118.398C718.818 118.398 720.804 118.968 722.1 120.108C723.396 121.236 724.044 122.838 724.044 124.914V132.978ZM715.512 135.102C716.232 135.102 716.958 134.898 717.69 134.49C718.434 134.082 719.016 133.512 719.436 132.78V129.072H717.564C715.8 129.072 714.522 129.354 713.73 129.918C712.95 130.482 712.56 131.28 712.56 132.312C712.56 133.2 712.812 133.89 713.316 134.382C713.82 134.862 714.552 135.102 715.512 135.102Z" fill="#57EB23"/>
<path d="M730.28 138V134.706H732.962V122.214H730.28V118.938H736.58L737.462 123.312C738.158 121.692 739.034 120.474 740.09 119.658C741.146 118.83 742.472 118.416 744.068 118.416C744.68 118.416 745.22 118.464 745.688 118.56C746.168 118.656 746.624 118.782 747.056 118.938L745.634 122.934C745.262 122.838 744.908 122.766 744.572 122.718C744.236 122.658 743.858 122.628 743.438 122.628C742.118 122.628 740.966 123.144 739.982 124.176C739.01 125.196 738.254 126.582 737.714 128.334V134.706H741.512V138H730.28ZM743.042 126.372V121.314L743.69 118.938H747.056L746.21 126.372H743.042Z" fill="#57EB23"/>
<path d="M766.576 132.978C766.576 133.71 766.684 134.244 766.9 134.58C767.116 134.904 767.464 135.15 767.944 135.318L766.918 138.504C765.898 138.396 765.028 138.144 764.308 137.748C763.6 137.34 763.054 136.734 762.67 135.93C761.95 136.806 761.038 137.46 759.934 137.892C758.842 138.324 757.696 138.54 756.496 138.54C754.552 138.54 753.01 137.988 751.87 136.884C750.73 135.78 750.16 134.346 750.16 132.582C750.16 130.554 750.952 128.994 752.536 127.902C754.132 126.798 756.388 126.246 759.304 126.246H761.968V125.22C761.968 124.092 761.62 123.276 760.924 122.772C760.228 122.256 759.226 121.998 757.918 121.998C757.306 121.998 756.538 122.082 755.614 122.25C754.702 122.406 753.76 122.652 752.788 122.988L751.654 119.73C752.866 119.274 754.084 118.938 755.308 118.722C756.544 118.506 757.666 118.398 758.674 118.398C761.35 118.398 763.336 118.968 764.632 120.108C765.928 121.236 766.576 122.838 766.576 124.914V132.978ZM758.044 135.102C758.764 135.102 759.49 134.898 760.222 134.49C760.966 134.082 761.548 133.512 761.968 132.78V129.072H760.096C758.332 129.072 757.054 129.354 756.262 129.918C755.482 130.482 755.092 131.28 755.092 132.312C755.092 133.2 755.344 133.89 755.848 134.382C756.352 134.862 757.084 135.102 758.044 135.102Z" fill="#57EB23"/>
<path d="M793.897 138V118.938H798.037L798.379 121.296C799.195 120.336 800.113 119.616 801.133 119.136C802.153 118.644 803.251 118.398 804.427 118.398C806.143 118.398 807.451 118.896 808.351 119.892C809.251 120.876 809.701 122.262 809.701 124.05V138H804.949V125.904C804.949 124.944 804.889 124.176 804.769 123.6C804.649 123.012 804.421 122.592 804.085 122.34C803.749 122.076 803.263 121.944 802.627 121.944C802.111 121.944 801.613 122.058 801.133 122.286C800.665 122.514 800.221 122.82 799.801 123.204C799.393 123.588 799.009 124.014 798.649 124.482V138H793.897Z" fill="#57EB23"/>
<path d="M823.083 118.398C824.979 118.398 826.587 118.812 827.907 119.64C829.227 120.468 830.229 121.638 830.913 123.15C831.609 124.65 831.957 126.408 831.957 128.424C831.957 130.488 831.609 132.276 830.913 133.788C830.217 135.3 829.209 136.47 827.889 137.298C826.569 138.126 824.961 138.54 823.065 138.54C821.181 138.54 819.573 138.138 818.241 137.334C816.921 136.518 815.913 135.36 815.217 133.86C814.521 132.348 814.173 130.548 814.173 128.46C814.173 126.468 814.521 124.716 815.217 123.204C815.913 121.692 816.927 120.516 818.259 119.676C819.591 118.824 821.199 118.398 823.083 118.398ZM823.083 121.98C821.751 121.98 820.755 122.502 820.095 123.546C819.447 124.59 819.123 126.228 819.123 128.46C819.123 130.716 819.447 132.366 820.095 133.41C820.743 134.442 821.733 134.958 823.065 134.958C824.397 134.958 825.387 134.442 826.035 133.41C826.683 132.366 827.007 130.704 827.007 128.424C827.007 126.204 826.683 124.578 826.035 123.546C825.387 122.502 824.403 121.98 823.083 121.98Z" fill="#57EB23"/>
<path d="M853.691 118.938L847.139 138H841.559L834.971 118.938H840.083L844.421 134.202L848.849 118.938H853.691Z" fill="#57EB23"/>
<path d="M872.905 132.978C872.905 133.71 873.013 134.244 873.229 134.58C873.445 134.904 873.793 135.15 874.273 135.318L873.247 138.504C872.227 138.396 871.357 138.144 870.637 137.748C869.929 137.34 869.383 136.734 868.999 135.93C868.279 136.806 867.367 137.46 866.263 137.892C865.171 138.324 864.025 138.54 862.825 138.54C860.881 138.54 859.339 137.988 858.199 136.884C857.059 135.78 856.489 134.346 856.489 132.582C856.489 130.554 857.281 128.994 858.865 127.902C860.461 126.798 862.717 126.246 865.633 126.246H868.297V125.22C868.297 124.092 867.949 123.276 867.253 122.772C866.557 122.256 865.555 121.998 864.247 121.998C863.635 121.998 862.867 122.082 861.943 122.25C861.031 122.406 860.089 122.652 859.117 122.988L857.983 119.73C859.195 119.274 860.413 118.938 861.637 118.722C862.873 118.506 863.995 118.398 865.003 118.398C867.679 118.398 869.665 118.968 870.961 120.108C872.257 121.236 872.905 122.838 872.905 124.914V132.978ZM864.373 135.102C865.093 135.102 865.819 134.898 866.551 134.49C867.295 134.082 867.877 133.512 868.297 132.78V129.072H866.425C864.661 129.072 863.383 129.354 862.591 129.918C861.811 130.482 861.421 131.28 861.421 132.312C861.421 133.2 861.673 133.89 862.177 134.382C862.681 134.862 863.413 135.102 864.373 135.102Z" fill="#57EB23"/>
<path d="M886.215 135.03C887.331 135.03 888.225 134.838 888.897 134.454C889.581 134.058 889.923 133.506 889.923 132.798C889.923 132.33 889.809 131.934 889.581 131.61C889.365 131.286 888.933 130.986 888.285 130.71C887.637 130.422 886.665 130.104 885.369 129.756C884.145 129.444 883.071 129.06 882.147 128.604C881.235 128.136 880.521 127.536 880.005 126.804C879.501 126.072 879.249 125.148 879.249 124.032C879.249 122.916 879.561 121.938 880.185 121.098C880.809 120.246 881.709 119.586 882.885 119.118C884.073 118.638 885.501 118.398 887.169 118.398C888.801 118.398 890.229 118.614 891.453 119.046C892.677 119.466 893.727 119.994 894.603 120.63L892.659 123.528C891.891 123.036 891.057 122.64 890.157 122.34C889.269 122.028 888.309 121.872 887.277 121.872C886.161 121.872 885.345 122.034 884.829 122.358C884.325 122.682 884.073 123.132 884.073 123.708C884.073 124.116 884.199 124.464 884.451 124.752C884.715 125.028 885.183 125.298 885.855 125.562C886.539 125.814 887.511 126.12 888.771 126.48C890.007 126.816 891.081 127.212 891.993 127.668C892.917 128.124 893.631 128.73 894.135 129.486C894.639 130.242 894.891 131.232 894.891 132.456C894.891 133.836 894.489 134.976 893.685 135.876C892.881 136.776 891.819 137.448 890.499 137.892C889.191 138.324 887.769 138.54 886.233 138.54C884.433 138.54 882.861 138.282 881.517 137.766C880.173 137.25 879.033 136.584 878.097 135.768L880.563 132.996C881.307 133.584 882.153 134.07 883.101 134.454C884.061 134.838 885.099 135.03 886.215 135.03Z" fill="#57EB23"/>
<path d="M414.192 181.398C415.008 181.398 415.704 181.572 416.28 181.92C416.856 182.256 417.3 182.826 417.612 183.63C417.924 184.422 418.08 185.502 418.08 186.87V201H413.94V187.464C413.94 186.6 413.868 185.988 413.724 185.628C413.592 185.268 413.286 185.088 412.806 185.088C412.41 185.088 412.008 185.208 411.6 185.448C411.204 185.676 410.79 186.09 410.358 186.69V201H406.776V187.464C406.776 186.6 406.704 185.988 406.56 185.628C406.428 185.268 406.122 185.088 405.642 185.088C405.234 185.088 404.832 185.208 404.436 185.448C404.04 185.676 403.626 186.09 403.194 186.69V201H399V181.938H402.546L402.852 183.918C403.416 183.126 404.01 182.508 404.634 182.064C405.258 181.62 406.008 181.398 406.884 181.398C407.604 181.398 408.24 181.578 408.792 181.938C409.356 182.286 409.758 182.886 409.998 183.738C410.55 183.042 411.168 182.478 411.852 182.046C412.536 181.614 413.316 181.398 414.192 181.398Z" fill="#57EB23"/>
<path d="M432.865 181.938V197.634H437.887V201H422.533V197.634H428.113V185.304H422.713V181.938H432.865ZM429.787 172.326C430.663 172.326 431.372 172.596 431.911 173.136C432.464 173.676 432.739 174.348 432.739 175.152C432.739 175.956 432.464 176.634 431.911 177.186C431.372 177.726 430.663 177.996 429.787 177.996C428.911 177.996 428.197 177.726 427.645 177.186C427.093 176.634 426.817 175.956 426.817 175.152C426.817 174.348 427.093 173.676 427.645 173.136C428.197 172.596 428.911 172.326 429.787 172.326Z" fill="#57EB23"/>
<path d="M450.423 198.03C451.539 198.03 452.433 197.838 453.105 197.454C453.789 197.058 454.131 196.506 454.131 195.798C454.131 195.33 454.017 194.934 453.789 194.61C453.573 194.286 453.141 193.986 452.493 193.71C451.845 193.422 450.873 193.104 449.577 192.756C448.353 192.444 447.279 192.06 446.355 191.604C445.443 191.136 444.729 190.536 444.213 189.804C443.709 189.072 443.457 188.148 443.457 187.032C443.457 185.916 443.769 184.938 444.393 184.098C445.017 183.246 445.917 182.586 447.093 182.118C448.281 181.638 449.709 181.398 451.377 181.398C453.009 181.398 454.437 181.614 455.661 182.046C456.885 182.466 457.935 182.994 458.811 183.63L456.867 186.528C456.099 186.036 455.265 185.64 454.365 185.34C453.477 185.028 452.517 184.872 451.485 184.872C450.369 184.872 449.553 185.034 449.037 185.358C448.533 185.682 448.281 186.132 448.281 186.708C448.281 187.116 448.407 187.464 448.659 187.752C448.923 188.028 449.391 188.298 450.063 188.562C450.747 188.814 451.719 189.12 452.979 189.48C454.215 189.816 455.289 190.212 456.201 190.668C457.125 191.124 457.839 191.73 458.343 192.486C458.847 193.242 459.099 194.232 459.099 195.456C459.099 196.836 458.697 197.976 457.893 198.876C457.089 199.776 456.027 200.448 454.707 200.892C453.399 201.324 451.977 201.54 450.441 201.54C448.641 201.54 447.069 201.282 445.725 200.766C444.381 200.25 443.241 199.584 442.305 198.768L444.771 195.996C445.515 196.584 446.361 197.07 447.309 197.454C448.269 197.838 449.307 198.03 450.423 198.03Z" fill="#57EB23"/>
<path d="M471.689 198.03C472.805 198.03 473.699 197.838 474.371 197.454C475.055 197.058 475.397 196.506 475.397 195.798C475.397 195.33 475.283 194.934 475.055 194.61C474.839 194.286 474.407 193.986 473.759 193.71C473.111 193.422 472.139 193.104 470.843 192.756C469.619 192.444 468.545 192.06 467.621 191.604C466.709 191.136 465.995 190.536 465.479 189.804C464.975 189.072 464.723 188.148 464.723 187.032C464.723 185.916 465.035 184.938 465.659 184.098C466.283 183.246 467.183 182.586 468.359 182.118C469.547 181.638 470.975 181.398 472.643 181.398C474.275 181.398 475.703 181.614 476.927 182.046C478.151 182.466 479.201 182.994 480.077 183.63L478.133 186.528C477.365 186.036 476.531 185.64 475.631 185.34C474.743 185.028 473.783 184.872 472.751 184.872C471.635 184.872 470.819 185.034 470.303 185.358C469.799 185.682 469.547 186.132 469.547 186.708C469.547 187.116 469.673 187.464 469.925 187.752C470.189 188.028 470.657 188.298 471.329 188.562C472.013 188.814 472.985 189.12 474.245 189.48C475.481 189.816 476.555 190.212 477.467 190.668C478.391 191.124 479.105 191.73 479.609 192.486C480.113 193.242 480.365 194.232 480.365 195.456C480.365 196.836 479.963 197.976 479.159 198.876C478.355 199.776 477.293 200.448 475.973 200.892C474.665 201.324 473.243 201.54 471.707 201.54C469.907 201.54 468.335 201.282 466.991 200.766C465.647 200.25 464.507 199.584 463.571 198.768L466.037 195.996C466.781 196.584 467.627 197.07 468.575 197.454C469.535 197.838 470.573 198.03 471.689 198.03Z" fill="#57EB23"/>
<path d="M493.621 181.398C495.517 181.398 497.125 181.812 498.445 182.64C499.765 183.468 500.767 184.638 501.451 186.15C502.147 187.65 502.495 189.408 502.495 191.424C502.495 193.488 502.147 195.276 501.451 196.788C500.755 198.3 499.747 199.47 498.427 200.298C497.107 201.126 495.499 201.54 493.603 201.54C491.719 201.54 490.111 201.138 488.779 200.334C487.459 199.518 486.451 198.36 485.755 196.86C485.059 195.348 484.711 193.548 484.711 191.46C484.711 189.468 485.059 187.716 485.755 186.204C486.451 184.692 487.465 183.516 488.797 182.676C490.129 181.824 491.737 181.398 493.621 181.398ZM493.621 184.98C492.289 184.98 491.293 185.502 490.633 186.546C489.985 187.59 489.661 189.228 489.661 191.46C489.661 193.716 489.985 195.366 490.633 196.41C491.281 197.442 492.271 197.958 493.603 197.958C494.935 197.958 495.925 197.442 496.573 196.41C497.221 195.366 497.545 193.704 497.545 191.424C497.545 189.204 497.221 187.578 496.573 186.546C495.925 185.502 494.941 184.98 493.621 184.98ZM495.655 177.852C494.983 177.852 494.413 177.714 493.945 177.438C493.489 177.162 493.069 176.886 492.685 176.61C492.313 176.334 491.923 176.196 491.515 176.196C491.083 176.196 490.729 176.334 490.453 176.61C490.177 176.874 489.895 177.27 489.607 177.798L487.069 176.556C487.513 175.512 488.101 174.618 488.833 173.874C489.565 173.118 490.435 172.74 491.443 172.74C492.163 172.74 492.751 172.878 493.207 173.154C493.675 173.43 494.089 173.706 494.449 173.982C494.809 174.258 495.199 174.396 495.619 174.396C496.003 174.396 496.333 174.27 496.609 174.018C496.897 173.754 497.197 173.358 497.509 172.83L500.047 174.09C499.579 175.218 498.967 176.13 498.211 176.826C497.467 177.51 496.615 177.852 495.655 177.852Z" fill="#57EB23"/>
<path d="M511.017 192.918C511.113 194.106 511.383 195.072 511.827 195.816C512.283 196.56 512.865 197.106 513.573 197.454C514.281 197.802 515.067 197.976 515.931 197.976C516.843 197.976 517.701 197.832 518.505 197.544C519.309 197.256 520.101 196.854 520.881 196.338L522.861 199.056C521.973 199.8 520.911 200.4 519.675 200.856C518.451 201.312 517.101 201.54 515.625 201.54C513.561 201.54 511.821 201.114 510.405 200.262C509.001 199.41 507.939 198.228 507.219 196.716C506.499 195.204 506.139 193.464 506.139 191.496C506.139 189.6 506.493 187.89 507.201 186.366C507.909 184.842 508.929 183.636 510.261 182.748C511.593 181.848 513.201 181.398 515.085 181.398C516.837 181.398 518.349 181.782 519.621 182.55C520.893 183.318 521.877 184.422 522.573 185.862C523.269 187.29 523.617 189.012 523.617 191.028C523.617 191.352 523.605 191.682 523.581 192.018C523.569 192.354 523.551 192.654 523.527 192.918H511.017ZM515.103 184.746C513.951 184.746 513.003 185.16 512.259 185.988C511.527 186.804 511.095 188.1 510.963 189.876H518.991C518.967 188.268 518.631 187.014 517.983 186.114C517.347 185.202 516.387 184.746 515.103 184.746Z" fill="#57EB23"/>
<path d="M535.487 198.03C536.603 198.03 537.497 197.838 538.169 197.454C538.853 197.058 539.195 196.506 539.195 195.798C539.195 195.33 539.081 194.934 538.853 194.61C538.637 194.286 538.205 193.986 537.557 193.71C536.909 193.422 535.937 193.104 534.641 192.756C533.417 192.444 532.343 192.06 531.419 191.604C530.507 191.136 529.793 190.536 529.277 189.804C528.773 189.072 528.521 188.148 528.521 187.032C528.521 185.916 528.833 184.938 529.457 184.098C530.081 183.246 530.981 182.586 532.157 182.118C533.345 181.638 534.773 181.398 536.441 181.398C538.073 181.398 539.501 181.614 540.725 182.046C541.949 182.466 542.999 182.994 543.875 183.63L541.931 186.528C541.163 186.036 540.329 185.64 539.429 185.34C538.541 185.028 537.581 184.872 536.549 184.872C535.433 184.872 534.617 185.034 534.101 185.358C533.597 185.682 533.345 186.132 533.345 186.708C533.345 187.116 533.471 187.464 533.723 187.752C533.987 188.028 534.455 188.298 535.127 188.562C535.811 188.814 536.783 189.12 538.043 189.48C539.279 189.816 540.353 190.212 541.265 190.668C542.189 191.124 542.903 191.73 543.407 192.486C543.911 193.242 544.163 194.232 544.163 195.456C544.163 196.836 543.761 197.976 542.957 198.876C542.153 199.776 541.091 200.448 539.771 200.892C538.463 201.324 537.041 201.54 535.505 201.54C533.705 201.54 532.133 201.282 530.789 200.766C529.445 200.25 528.305 199.584 527.369 198.768L529.835 195.996C530.579 196.584 531.425 197.07 532.373 197.454C533.333 197.838 534.371 198.03 535.487 198.03Z" fill="#57EB23"/>
<path d="M574.815 192.918C574.911 194.106 575.181 195.072 575.625 195.816C576.081 196.56 576.663 197.106 577.371 197.454C578.079 197.802 578.865 197.976 579.729 197.976C580.641 197.976 581.499 197.832 582.303 197.544C583.107 197.256 583.899 196.854 584.679 196.338L586.659 199.056C585.771 199.8 584.709 200.4 583.473 200.856C582.249 201.312 580.899 201.54 579.423 201.54C577.359 201.54 575.619 201.114 574.203 200.262C572.799 199.41 571.737 198.228 571.017 196.716C570.297 195.204 569.937 193.464 569.937 191.496C569.937 189.6 570.291 187.89 570.999 186.366C571.707 184.842 572.727 183.636 574.059 182.748C575.391 181.848 576.999 181.398 578.883 181.398C580.635 181.398 582.147 181.782 583.419 182.55C584.691 183.318 585.675 184.422 586.371 185.862C587.067 187.29 587.415 189.012 587.415 191.028C587.415 191.352 587.403 191.682 587.379 192.018C587.367 192.354 587.349 192.654 587.325 192.918H574.815ZM578.901 184.746C577.749 184.746 576.801 185.16 576.057 185.988C575.325 186.804 574.893 188.1 574.761 189.876H582.789C582.765 188.268 582.429 187.014 581.781 186.114C581.145 185.202 580.185 184.746 578.901 184.746Z" fill="#57EB23"/>
<path d="M605.585 181.398C606.401 181.398 607.097 181.572 607.673 181.92C608.249 182.256 608.693 182.826 609.005 183.63C609.317 184.422 609.473 185.502 609.473 186.87V201H605.333V187.464C605.333 186.6 605.261 185.988 605.117 185.628C604.985 185.268 604.679 185.088 604.199 185.088C603.803 185.088 603.401 185.208 602.993 185.448C602.597 185.676 602.183 186.09 601.751 186.69V201H598.169V187.464C598.169 186.6 598.097 185.988 597.953 185.628C597.821 185.268 597.515 185.088 597.035 185.088C596.627 185.088 596.225 185.208 595.829 185.448C595.433 185.676 595.019 186.09 594.587 186.69V201H590.393V181.938H593.939L594.245 183.918C594.809 183.126 595.403 182.508 596.027 182.064C596.651 181.62 597.401 181.398 598.277 181.398C598.997 181.398 599.633 181.578 600.185 181.938C600.749 182.286 601.151 182.886 601.391 183.738C601.943 183.042 602.561 182.478 603.245 182.046C603.929 181.614 604.709 181.398 605.585 181.398Z" fill="#57EB23"/>
<path d="M639.315 184.08C639.951 183.24 640.701 182.586 641.565 182.118C642.441 181.638 643.383 181.398 644.391 181.398C646.059 181.398 647.409 181.812 648.441 182.64C649.485 183.456 650.247 184.614 650.727 186.114C651.219 187.614 651.465 189.384 651.465 191.424C651.465 193.38 651.177 195.12 650.601 196.644C650.025 198.168 649.167 199.368 648.027 200.244C646.899 201.108 645.513 201.54 643.869 201.54C641.805 201.54 640.179 200.754 638.991 199.182L638.775 201H634.563V174.324L639.315 173.82V184.08ZM642.645 197.994C643.857 197.994 644.805 197.478 645.489 196.446C646.173 195.414 646.515 193.758 646.515 191.478C646.515 189.87 646.371 188.592 646.083 187.644C645.807 186.684 645.405 186 644.877 185.592C644.361 185.172 643.737 184.962 643.005 184.962C642.213 184.962 641.511 185.202 640.899 185.682C640.299 186.162 639.771 186.756 639.315 187.464V195.996C639.723 196.632 640.203 197.124 640.755 197.472C641.307 197.82 641.937 197.994 642.645 197.994Z" fill="#57EB23"/>
<path d="M656.009 201V197.706H658.691V185.214H656.009V181.938H662.309L663.191 186.312C663.887 184.692 664.763 183.474 665.819 182.658C666.875 181.83 668.201 181.416 669.797 181.416C670.409 181.416 670.949 181.464 671.417 181.56C671.897 181.656 672.353 181.782 672.785 181.938L671.363 185.934C670.991 185.838 670.637 185.766 670.301 185.718C669.965 185.658 669.587 185.628 669.167 185.628C667.847 185.628 666.695 186.144 665.711 187.176C664.739 188.196 663.983 189.582 663.443 191.334V197.706H667.241V201H656.009ZM668.771 189.372V184.314L669.419 181.938H672.785L671.939 189.372H668.771Z" fill="#57EB23"/>
<path d="M681.145 192.918C681.241 194.106 681.511 195.072 681.955 195.816C682.411 196.56 682.993 197.106 683.701 197.454C684.409 197.802 685.195 197.976 686.059 197.976C686.971 197.976 687.829 197.832 688.633 197.544C689.437 197.256 690.229 196.854 691.009 196.338L692.989 199.056C692.101 199.8 691.039 200.4 689.803 200.856C688.579 201.312 687.229 201.54 685.753 201.54C683.689 201.54 681.949 201.114 680.533 200.262C679.129 199.41 678.067 198.228 677.347 196.716C676.627 195.204 676.267 193.464 676.267 191.496C676.267 189.6 676.621 187.89 677.329 186.366C678.037 184.842 679.057 183.636 680.389 182.748C681.721 181.848 683.329 181.398 685.213 181.398C686.965 181.398 688.477 181.782 689.749 182.55C691.021 183.318 692.005 184.422 692.701 185.862C693.397 187.29 693.745 189.012 693.745 191.028C693.745 191.352 693.733 191.682 693.709 192.018C693.697 192.354 693.679 192.654 693.655 192.918H681.145ZM685.231 184.746C684.079 184.746 683.131 185.16 682.387 185.988C681.655 186.804 681.223 188.1 681.091 189.876H689.119C689.095 188.268 688.759 187.014 688.111 186.114C687.475 185.202 686.515 184.746 685.231 184.746Z" fill="#57EB23"/>
<path d="M715.623 181.938L709.071 201H703.491L696.903 181.938H702.015L706.353 197.202L710.781 181.938H715.623Z" fill="#57EB23"/>
<path d="M723.677 192.918C723.773 194.106 724.043 195.072 724.487 195.816C724.943 196.56 725.525 197.106 726.233 197.454C726.941 197.802 727.727 197.976 728.591 197.976C729.503 197.976 730.361 197.832 731.165 197.544C731.969 197.256 732.761 196.854 733.541 196.338L735.521 199.056C734.633 199.8 733.571 200.4 732.335 200.856C731.111 201.312 729.761 201.54 728.285 201.54C726.221 201.54 724.481 201.114 723.065 200.262C721.661 199.41 720.599 198.228 719.879 196.716C719.159 195.204 718.799 193.464 718.799 191.496C718.799 189.6 719.153 187.89 719.861 186.366C720.569 184.842 721.589 183.636 722.921 182.748C724.253 181.848 725.861 181.398 727.745 181.398C729.497 181.398 731.009 181.782 732.281 182.55C733.553 183.318 734.537 184.422 735.233 185.862C735.929 187.29 736.277 189.012 736.277 191.028C736.277 191.352 736.265 191.682 736.241 192.018C736.229 192.354 736.211 192.654 736.187 192.918H723.677ZM727.763 184.746C726.611 184.746 725.663 185.16 724.919 185.988C724.187 186.804 723.755 188.1 723.623 189.876H731.651C731.627 188.268 731.291 187.014 730.643 186.114C730.007 185.202 729.047 184.746 727.763 184.746Z" fill="#57EB23"/>
<path d="M745.069 197.814C745.069 197.142 745.231 196.524 745.555 195.96C745.891 195.396 746.341 194.946 746.905 194.61C747.469 194.274 748.093 194.106 748.777 194.106C749.473 194.106 750.103 194.274 750.667 194.61C751.231 194.946 751.675 195.396 751.999 195.96C752.335 196.524 752.503 197.142 752.503 197.814C752.503 198.486 752.335 199.11 751.999 199.686C751.675 200.25 751.231 200.7 750.667 201.036C750.103 201.372 749.473 201.54 748.777 201.54C748.093 201.54 747.469 201.372 746.905 201.036C746.341 200.7 745.891 200.25 745.555 199.686C745.231 199.11 745.069 198.486 745.069 197.814Z" fill="#57EB23"/>
</g>
<defs>
<filter id="filter0_i_545_399" x="0" y="0" width="1158" height="539" filterUnits="userSpaceOnUse" color-interpolation-filters="sRGB">
<feFlood flood-opacity="0" result="BackgroundImageFix"/>
<feBlend mode="normal" in="SourceGraphic" in2="BackgroundImageFix" result="shape"/>
<feColorMatrix in="SourceAlpha" type="matrix" values="0 0 0 0 0 0 0 0 0 0 0 0 0 0 0 0 0 0 127 0" result="hardAlpha"/>
<feOffset dy="4"/>
<feGaussianBlur stdDeviation="61"/>
<feComposite in2="hardAlpha" operator="arithmetic" k2="-1" k3="1"/>
<feColorMatrix type="matrix" values="0 0 0 0 0 0 0 0 0 0 0 0 0 0 0 0 0 0 0.5 0"/>
<feBlend mode="normal" in2="shape" result="effect1_innerShadow_545_399"/>
</filter>
<clipPath id="clip0_545_399">
<rect width="1158" height="535" fill="white"/>
</clipPath>
</defs>
</svg>
