<?xml version="1.0" encoding="UTF-8"?>
<svg id="Camada_2" data-name="Camada 2" xmlns="http://www.w3.org/2000/svg" viewBox="0 0 524.75 330.97">
  <defs>
    <style>
      .cls-1 {
        fill: #fff;
        stroke: #000;
        stroke-miterlimit: 10;
        stroke-width: 2px;
      }

      .cls-2 {
        font-family: SpecialElite-Regular, 'Special Elite';
        font-size: 14px;
      }

      .cls-3 {
        fill-rule: evenodd;
      }
    </style>
  </defs>
  <g id="Camada_1-2" data-name="Camada 1">
    <g>
      <path class="cls-1" d="m498.29,329.97H1.28c17.36-69.48,26.34-149.56,16.51-237.91C14.25,60.23,8.54,29.84,1.28,1h497.01c9.05,28.98,16.28,59.99,20.69,92.89,12.03,89.71-.14,169.6-20.69,236.08Z"/>
      <g>
        <line class="cls-1" x1="363.4" y1="43.35" x2="384.38" y2="43.35"/>
        <line class="cls-1" x1="393.12" y1="43.35" x2="414.39" y2="43.35"/>
        <line class="cls-1" x1="424.61" y1="43.35" x2="444.69" y2="43.35"/>
        <line class="cls-1" x1="453.06" y1="43.35" x2="475.28" y2="43.35"/>
        <text class="cls-2" transform="translate(418.8 67.03)"><tspan x="0" y="0">Company</tspan></text>
      </g>
      <g>
        <g>
          <path class="cls-3" d="m81.63,267.68c.67,1.44,1.05,3.05,1.05,4.75,0,3.74-1.84,7.06-4.66,9.09h2.46c2.34-2.32,3.79-5.54,3.79-9.09,0-1.85-.39-3.6-1.09-5.18l-1.55.44Zm-1.44-4.63c-2.29-2.13-5.35-3.43-8.72-3.43-7.07,0-12.8,5.73-12.8,12.8,0,3.56,1.45,6.77,3.79,9.09h2.46c-2.82-2.04-4.66-5.35-4.66-9.09,0-6.19,5.02-11.21,11.21-11.21,3.19,0,6.07,1.33,8.11,3.47l.61-1.64Z"/>
          <path d="m77.04,279.21h-11.08v-13h11.08v13Zm-9.87-1.21h8.66v-10.58h-8.66v10.58Z"/>
          <path class="cls-3" d="m65.96,271.69c-1.4,1.41-2.27,3.35-2.27,5.49,0,4.3,3.49,7.79,7.79,7.79s7.79-3.49,7.79-7.79c0-2.12-.85-4.04-2.22-5.45v2.6c.44.85.69,1.82.69,2.85,0,3.45-2.8,6.25-6.25,6.25s-6.25-2.8-6.25-6.25c0-1.06.26-2.06.73-2.93v-2.56Z"/>
          <path class="cls-3" d="m70.2,252.96l-1.31-.56c-.46,1.21-.71,2.53-.71,3.9,0,6.11,4.95,11.06,11.06,11.06,1.83,0,3.56-.45,5.09-1.24l-.71-1.24c-1.31.67-2.8,1.05-4.37,1.05-5.32,0-9.63-4.31-9.63-9.63,0-1.17.21-2.3.59-3.33Z"/>
        </g>
        <g>
          <path d="m126.67,277.79h-24.14l12.07-20.91,12.07,20.91Zm-21.52-1.51h18.9l-9.45-16.37-9.45,16.37Z"/>
          <path d="m123.54,274.13h-17.89l8.94-15.49,8.94,15.49Zm-16.53-.78h15.18l-7.59-13.15-7.59,13.15Z"/>
          <path class="cls-3" d="m110.81,263.81h-6.51s-1.75,0-1.75,0l.87,1.52,10.26,17.92.87,1.52.88-1.51,7.23-12.41-.86-1.54-7.24,12.43-9.39-16.4h6.49s-.85-1.52-.85-1.52Z"/>
          <path class="cls-3" d="m127.03,267.06c0,2.28-1.85,4.13-4.13,4.13-.37,0-.73-.05-1.07-.14l.98,1.65s.06,0,.1,0c3.11,0,5.64-2.52,5.64-5.64s-2.52-5.64-5.64-5.64c-2.16,0-4.03,1.21-4.98,3l.98,1.65c.44-1.8,2.07-3.14,4.01-3.14,2.28,0,4.13,1.85,4.13,4.13Z"/>
        </g>
        <g>
          <path d="m153.25,279.26c-4.78,0-8.68-3.89-8.68-8.68s3.89-8.68,8.68-8.68,8.68,3.89,8.68,8.68-3.89,8.68-8.68,8.68Zm0-16.02c-4.05,0-7.35,3.3-7.35,7.35s3.3,7.35,7.35,7.35,7.35-3.3,7.35-7.35-3.3-7.35-7.35-7.35Z"/>
          <path d="m157.17,278.49c-3.08,0-5.97-1.2-8.15-3.38-2.18-2.18-3.38-5.07-3.38-8.15s1.2-5.97,3.38-8.15c2.18-2.18,5.07-3.38,8.15-3.38s5.97,1.2,8.15,3.38c2.18,2.18,3.38,5.07,3.38,8.15s-1.2,5.97-3.38,8.15c-2.18,2.18-5.07,3.38-8.15,3.38Zm0-21.72c-2.72,0-5.28,1.06-7.21,2.99-1.93,1.93-2.99,4.49-2.99,7.21s1.06,5.28,2.99,7.21c1.93,1.93,4.49,2.99,7.21,2.99s5.28-1.06,7.21-2.99,2.99-4.49,2.99-7.21-1.06-5.28-2.99-7.21-4.49-2.99-7.21-2.99Z"/>
          <path d="m157.11,285.71l2.67-2.53-2.53-2.67-2.67,2.53,2.53,2.67Zm.13-21.33l-.51,18.72.9.02.51-18.72-.9-.02Z"/>
        </g>
      </g>
    </g>
  </g>
</svg>