<svg width="405" height="219" viewBox="0 0 405 219" fill="none" xmlns="http://www.w3.org/2000/svg">
<g clip-path="url(#clip0_312_553)">
<path d="M17.2524 71.292C29.9086 66.7518 42.5649 62.7684 55.1782 58.2282L104.516 53.8165C100.269 55.9581 95.335 58.0997 89.7577 60.0272C87.6554 60.7553 82.2068 62.5971 70.7089 64.9528C67.7916 65.5525 58.1814 67.5228 44.0236 69.3217C36.9446 70.2212 27.8922 70.6067 17.2095 71.292H17.2524Z" fill="#42210B" stroke="black" stroke-width="0.05" stroke-miterlimit="10"/>
<path d="M396.554 73.1337L360.516 59.9843H330.141C337.691 63.7535 347.859 67.9511 360.301 70.7351C374.759 73.9904 387.33 73.6477 396.597 73.1337H396.554Z" fill="#42210B" stroke="black" stroke-width="0.05" stroke-miterlimit="10"/>
<path d="M82.0352 211.909C82.0352 212.381 82.2497 216.064 80.8768 217.563C78.8175 219.833 75.4711 219.277 75.0421 219.234C54.2343 219.405 25.2751 218.334 4.03835 218.463C2.96578 218.463 1.97902 217.906 1.5071 216.921C-0.595128 212.552 4.51027 205.999 4.63898 205.827C5.28252 205.87 5.84025 210.025 6.48379 210.068C32.6543 212.124 82.0352 211.909 82.0352 211.909Z" fill="#603813" stroke="black" stroke-width="0.1" stroke-miterlimit="10"/>
<path d="M88.1272 204.928C88.1272 205.399 87.5695 207.583 85.8105 209.768C84.3947 211.567 80.8338 211.61 80.4048 211.567C59.5112 211.738 28.6214 210.582 7.38464 210.71C6.6982 210.71 6.01176 210.453 5.62564 209.896C2.57956 205.527 7.89947 198.717 8.02818 198.503C8.67172 198.546 8.3285 202.187 8.97204 202.229C35.1426 204.328 61.9567 202.829 88.1272 204.928Z" fill="#603813" stroke="black" stroke-width="0.1" stroke-miterlimit="10"/>
<path d="M329.926 210.839C329.926 211.31 329.755 214.993 330.999 216.492C332.887 218.763 336.018 218.206 336.447 218.163C355.839 218.334 382.868 217.263 402.646 217.392C403.633 217.392 404.577 216.835 405.006 215.85C406.979 211.481 402.217 204.928 402.088 204.756C401.488 204.799 400.973 208.954 400.372 208.997C375.961 211.053 329.926 210.839 329.926 210.839Z" fill="#603813" stroke="black" stroke-width="0.15" stroke-miterlimit="10"/>
<path d="M324.22 203.857C324.22 204.328 324.735 206.513 326.365 208.697C327.695 210.496 330.999 210.539 331.428 210.496C350.906 210.667 379.736 209.511 399.514 209.639C400.158 209.639 400.801 209.382 401.144 208.826C403.976 204.457 398.742 197.646 398.613 197.432C398.013 197.475 397.97 201.116 397.369 201.159C372.957 203.257 348.589 201.758 324.177 203.857H324.22Z" fill="#603813" stroke="black" stroke-width="0.15" stroke-miterlimit="10"/>
<path d="M17.2524 71.8488C17.3811 76.1748 17.5527 82.514 17.6385 90.2237C17.853 110.826 17.9388 121.32 16.0511 130.186C14.6353 136.868 11.6751 146.591 4.72485 157.727C5.96903 171.733 7.47062 187.709 8.71479 201.844C8.80059 202.658 9.44413 203.3 10.3022 203.343C36.344 204.885 62.1285 203.215 88.1703 204.842C88.5993 204.071 89.9722 202.272 92.6751 201.501C95.6782 200.645 98.3811 200.388 99.2392 200.516C169.299 199.531 241.161 200.602 311.221 199.617C312.465 199.445 317.913 199.274 320.273 199.617C322.032 199.874 323.362 201.887 324.263 202.958C349.533 202.272 372.142 201.844 397.412 201.201L404.233 158.241C402.303 155.671 399.428 151.431 397.197 145.734C392.564 134.127 393.722 124.832 395.267 99.1328C395.61 93.6503 396.125 84.8269 396.64 73.6906C390.462 73.6906 382.053 73.3051 372.185 71.8488C360.473 70.0927 340.652 65.8951 316.069 53.3025C277.37 33.4713 280.459 19.2083 253.388 8.71443C217.95 -5.03464 184.015 3.48892 178.523 4.94521C135.32 16.3814 126.525 51.8034 84.3949 62.0403C67.3197 66.195 47.0268 68.9362 47.0268 68.9362C34.8424 70.6067 24.6316 71.4205 17.424 71.8488H17.2524Z" fill="#603813" stroke="black" stroke-width="0.25" stroke-miterlimit="10"/>
<path d="M125.281 99.9894L125.71 120.806C125.71 120.806 128.627 122.99 130.901 120.549L130.172 100.032C130.172 99.4326 127.126 97.548 125.281 100.032V99.9894Z" fill="#666666" stroke="#1A1A1A" stroke-width="0.08" stroke-miterlimit="10"/>
<path d="M127.726 101.617C129.077 101.617 130.172 100.965 130.172 100.161C130.172 99.3565 129.077 98.7045 127.726 98.7045C126.376 98.7045 125.281 99.3565 125.281 100.161C125.281 100.965 126.376 101.617 127.726 101.617Z" fill="#1A1A1A"/>
<path d="M125.281 106.543C125.281 106.543 127.855 108.641 130.386 106.543" stroke="#1A1A1A" stroke-width="0.05" stroke-miterlimit="10"/>
<path d="M125.538 112.411C125.538 112.411 127.855 114.424 130.515 112.368" stroke="#1A1A1A" stroke-width="0.05" stroke-miterlimit="10"/>
<path d="M17.2524 71.8059C24.7604 115.623 32.3112 159.483 39.8192 203.3L88.1704 204.928C82.593 158.798 76.3721 111.383 70.7948 65.2527C61.0988 67.4371 50.2016 69.3645 38.2318 70.5638C30.8525 71.292 23.8165 71.6775 17.2524 71.8059Z" fill="#42210B" stroke="black" stroke-width="0.05" stroke-miterlimit="10"/>
<path d="M210.657 187.024C254.302 187.024 289.684 151.701 289.684 108.127C289.684 64.554 254.302 29.2308 210.657 29.2308C167.012 29.2308 131.631 64.554 131.631 108.127C131.631 151.701 167.012 187.024 210.657 187.024Z" fill="#2B140A" stroke="#2B140A" stroke-width="0.75" stroke-miterlimit="10"/>
<path d="M347.001 66.9659L326.065 202.315L373.944 201.373L396.554 74.5472C389.432 74.5472 381.195 74.076 372.099 72.7054C362.489 71.2491 354.08 69.1504 347.001 66.9231V66.9659Z" fill="#42210B" stroke="black" stroke-width="0.05" stroke-miterlimit="10"/>
<path d="M210.803 187.324C254.447 187.324 289.828 152.001 289.828 108.429C289.828 64.8561 254.447 29.5336 210.803 29.5336C167.159 29.5336 131.778 64.8561 131.778 108.429C131.778 152.001 167.159 187.324 210.803 187.324Z" fill="#391E00" stroke="#2B140A" stroke-width="0.75" stroke-miterlimit="10"/>
<path d="M151.813 159.055C156.446 163.938 176.353 183.897 207.843 185.353C244.18 187.024 267.734 162.867 271.552 158.798C236.973 159.697 186.349 158.155 151.813 159.055Z" fill="#2B140A"/>
<path d="M239.557 122.019L241.057 137.547L221.36 172.993L218.368 171.317L237.697 136.47L235.498 119.745L239.557 122.019Z" fill="#004497"/>
<path d="M206.5 103L236.643 119.887L238.842 136.612L218.079 173.99L178.996 152.095L186.317 139.027L187.264 137.336L191.174 136.079L190.114 132.248L190.65 131.292L194.443 130.244L193.727 125.8L206.5 103Z" fill="url(#paint0_linear_312_553)" stroke="black" stroke-width="0.25" stroke-miterlimit="10"/>
<path opacity="0.84" d="M210.298 114.598L190.184 150.502L215.937 164.93L227.92 143.539L216.846 137.335L232.377 135.583L210.298 114.598Z" fill="url(#paint1_radial_312_553)" stroke="#007CBC" stroke-width="0.5" stroke-miterlimit="10"/>
<path d="M234.469 130.699C232.029 128.785 228.566 125.331 226.262 123.203C223.998 121.032 220.356 117.784 218.301 115.441C220.741 117.356 224.203 120.809 226.507 122.938C228.772 125.108 232.414 128.356 234.469 130.699Z" fill="#00EFFF"/>
<path d="M234.469 130.699L218.313 115.448" stroke="#0091FF" stroke-width="0.05" stroke-miterlimit="10"/>
<path d="M234.696 128.25C232.951 126.966 230.691 124.557 229.1 123.054C227.567 121.534 225.074 119.284 223.743 117.604C225.464 118.875 227.785 121.318 229.339 122.801C230.895 124.365 233.343 126.525 234.696 128.25Z" fill="#00DFFF"/>
<path d="M234.696 128.25L223.743 117.604" stroke="#0091FF" stroke-width="0.03" stroke-miterlimit="10"/>
<path d="M194.878 130.504C194.678 130.199 194.537 129.733 194.504 129.36L194.307 128.187C194.237 127.794 194.063 126.81 193.999 126.436L194.072 125.817L194.342 126.371C194.406 126.745 194.586 127.747 194.65 128.121L194.847 129.295C194.937 129.651 194.971 130.137 194.885 130.492L194.878 130.504Z" fill="#00E9FF"/>
<path d="M190.824 131.615C191.08 131.388 191.458 131.23 191.794 131.176L192.808 130.891C193.146 130.806 194.007 130.564 194.332 130.472L194.878 130.504L194.417 130.809C194.092 130.901 193.218 131.137 192.893 131.228L191.879 131.514C191.56 131.625 191.154 131.687 190.817 131.627L190.824 131.615Z" fill="#00E9FF"/>
<path d="M191.657 136.253C191.423 136.009 191.24 135.617 191.168 135.286L190.85 134.271C190.746 133.939 190.479 133.065 190.375 132.732L190.382 132.173L190.707 132.629C190.806 132.942 191.078 133.835 191.182 134.167L191.5 135.183C191.63 135.497 191.698 135.922 191.657 136.253Z" fill="#00E9FF"/>
<path d="M187.366 137.586C187.629 137.346 188.053 137.165 188.402 137.087L189.488 136.761C189.839 136.652 190.771 136.369 191.115 136.272L191.706 136.281L191.212 136.616C190.868 136.713 189.936 136.996 189.585 137.105L188.5 137.432C188.173 137.555 187.722 137.64 187.359 137.598L187.366 137.586Z" fill="#00E9FF"/>
<path d="M188.389 187.327C219.654 187.327 245 152.003 245 108.43C245 64.8568 219.654 29.5336 188.389 29.5336C157.123 29.5336 131.778 64.8568 131.778 108.43C131.778 152.003 157.123 187.327 188.389 187.327Z" fill="#A8A8A1" stroke="#2B140A" stroke-width="0.75" stroke-miterlimit="10"/>
<path d="M188.389 187.327C219.654 187.327 245 152.003 245 108.43C245 64.8568 219.654 29.5336 188.389 29.5336C157.123 29.5336 131.778 64.8568 131.778 108.43C131.778 152.003 157.123 187.327 188.389 187.327Z" fill="#A8A8A1" stroke="#2B140A" stroke-width="0.75" stroke-miterlimit="10"/>
<path d="M188.205 53.991C209.472 53.991 226.806 78.1054 226.806 107.788C226.806 137.471 209.503 161.585 188.205 161.585C166.906 161.585 149.603 137.471 149.603 107.788C149.603 78.1054 166.906 53.991 188.205 53.991ZM188.205 52.9202C166.476 52.9202 148.835 77.4629 148.835 107.788C148.835 138.113 166.445 162.656 188.205 162.656C209.964 162.656 227.574 138.113 227.574 107.788C227.574 77.4629 209.964 52.9202 188.205 52.9202Z" fill="#42210B"/>
<path d="M188.312 48.7012C188.312 48.8154 188.199 48.8725 187.974 48.8725H187.79C187.79 48.8725 187.595 48.8725 187.206 48.8725C186.816 48.8582 186.422 48.8511 186.022 48.8511C185.316 48.8511 184.865 48.8582 184.67 48.8725C184.476 48.8868 184.322 48.8939 184.209 48.8939C183.963 48.8939 183.84 48.8297 183.84 48.7012C183.84 48.5727 183.912 48.5084 184.055 48.5084C184.281 48.5084 184.522 48.5013 184.778 48.487C185.095 48.4727 185.264 48.3657 185.285 48.1658C185.316 47.9516 185.331 47.5019 185.331 46.8166V36.7511C185.331 36.2942 185.321 36.0229 185.3 35.9372C185.28 35.8516 185.208 35.8088 185.085 35.8088C185.034 35.8088 184.701 35.8444 184.086 35.9158C183.963 35.9301 183.881 35.9372 183.84 35.9372C183.717 35.9372 183.656 35.8873 183.656 35.7873C183.656 35.6731 183.717 35.6089 183.84 35.5946C184.322 35.5232 184.808 35.3233 185.3 34.9949C185.792 34.6523 186.186 34.2525 186.483 33.7956C186.596 33.6672 186.673 33.6029 186.714 33.6029C186.796 33.6029 186.837 33.6743 186.837 33.8171V34.224C186.827 34.3382 186.821 34.4667 186.821 34.6095V47.4162C186.821 47.9302 186.837 48.23 186.868 48.3157C186.909 48.4014 187.037 48.4513 187.252 48.4656L187.605 48.487L187.866 48.5084H188.097C188.24 48.5084 188.312 48.5727 188.312 48.7012Z" fill="black"/>
<path d="M216.064 59.6664C216.064 59.7806 215.952 59.8378 215.726 59.8378H215.542C215.542 59.8378 215.347 59.8378 214.958 59.8378C214.569 59.8235 214.174 59.8163 213.775 59.8163C213.068 59.8163 212.617 59.8235 212.423 59.8378C212.228 59.852 212.074 59.8592 211.962 59.8592C211.716 59.8592 211.593 59.7949 211.593 59.6664C211.593 59.5379 211.664 59.4737 211.808 59.4737C212.033 59.4737 212.274 59.4665 212.53 59.4523C212.848 59.438 213.017 59.3309 213.037 59.131C213.068 58.9169 213.083 58.4671 213.083 57.7818V47.7163C213.083 47.2594 213.073 46.9882 213.053 46.9025C213.032 46.8168 212.96 46.774 212.837 46.774C212.786 46.774 212.453 46.8097 211.839 46.8811C211.716 46.8954 211.634 46.9025 211.593 46.9025C211.47 46.9025 211.408 46.8525 211.408 46.7526C211.408 46.6384 211.47 46.5741 211.593 46.5598C212.074 46.4884 212.561 46.2886 213.053 45.9602C213.544 45.6175 213.939 45.2178 214.236 44.7609C214.349 44.6324 214.425 44.5681 214.466 44.5681C214.548 44.5681 214.589 44.6395 214.589 44.7823V45.1892C214.579 45.3034 214.574 45.4319 214.574 45.5747V58.3815C214.574 58.8955 214.589 59.1953 214.62 59.2809C214.661 59.3666 214.789 59.4166 215.004 59.4309L215.358 59.4523L215.619 59.4737H215.849C215.993 59.4737 216.064 59.5379 216.064 59.6664Z" fill="black"/>
<path d="M233.428 77.9339C233.428 77.9768 233.418 78.091 233.398 78.2766C233.346 78.7477 233.264 79.9114 233.152 81.7674L233.136 82.0244C232.081 81.953 230.877 81.9173 229.525 81.9173C228.798 81.9173 228.117 81.9316 227.481 81.9601C226.846 81.9887 226.57 82.003 226.652 82.003C226.375 82.003 226.237 81.9316 226.237 81.7888C226.237 81.6746 226.503 81.3177 227.036 80.718C228.316 79.2617 229.228 78.0767 229.771 77.163C230.714 75.5782 231.185 73.715 231.185 71.5734C231.185 70.1314 230.97 69.0392 230.539 68.2967C230.212 67.7256 229.751 67.4401 229.156 67.4401C228.572 67.4401 228.111 67.69 227.773 68.1897C227.507 68.5751 227.374 68.9606 227.374 69.3461C227.374 69.5888 227.512 69.7173 227.789 69.7316C228.506 69.7744 228.864 70.2099 228.864 71.038C228.864 71.8232 228.567 72.2159 227.973 72.2159C227.594 72.2159 227.292 72.0517 227.066 71.7233C226.841 71.3949 226.728 70.9452 226.728 70.3741C226.728 69.3176 226.995 68.4681 227.527 67.8256C228.06 67.1831 228.762 66.8619 229.633 66.8619C230.504 66.8619 231.226 67.2474 231.799 68.0183C232.465 68.9178 232.798 70.0885 232.798 71.5306C232.798 73.1153 232.419 74.5788 231.661 75.9208C230.903 77.2486 229.628 78.6978 227.835 80.2683C228.511 80.2397 229.361 80.2255 230.386 80.2255C231.236 80.2255 231.774 80.2112 231.999 80.1826C232.225 80.1398 232.424 80.047 232.599 79.9042C232.742 79.7757 232.865 79.2974 232.967 78.4693C233.039 77.8982 233.141 77.6127 233.275 77.6127C233.377 77.6127 233.428 77.7198 233.428 77.9339Z" fill="black"/>
<path d="M239.674 107.778C239.674 109.081 239.296 110.196 238.541 111.123C237.707 112.144 236.642 112.654 235.347 112.654C234.287 112.654 233.51 112.308 233.014 111.617C232.698 111.178 232.541 110.675 232.541 110.11C232.541 109.623 232.648 109.238 232.862 108.955C233.087 108.657 233.386 108.508 233.758 108.508C234.051 108.508 234.293 108.626 234.484 108.861C234.676 109.097 234.772 109.395 234.772 109.756C234.772 110.306 234.507 110.738 233.977 111.052C233.763 111.178 233.656 111.303 233.656 111.429C233.656 111.633 233.803 111.822 234.096 111.994C234.389 112.151 234.71 112.23 235.059 112.23C235.916 112.23 236.609 111.822 237.138 111.005C237.679 110.188 237.95 109.12 237.95 107.801C237.95 105.147 237.093 103.82 235.38 103.82C235.211 103.82 235.087 103.828 235.008 103.843H234.89C234.744 103.843 234.67 103.773 234.67 103.631C234.67 103.521 234.806 103.435 235.076 103.372C235.865 103.215 236.473 102.815 236.902 102.171C237.33 101.511 237.544 100.671 237.544 99.6502C237.544 98.6451 237.358 97.8441 236.986 97.2473C236.614 96.6348 236.113 96.3286 235.482 96.3286C235.02 96.3286 234.614 96.4699 234.265 96.7526C233.927 97.0196 233.758 97.3337 233.758 97.6949C233.758 97.8362 233.836 97.9305 233.994 97.9776C234.738 98.2289 235.11 98.6608 235.11 99.2733C235.11 100.074 234.811 100.475 234.214 100.475C233.831 100.475 233.521 100.318 233.284 100.004C233.059 99.6894 232.946 99.2733 232.946 98.755C232.946 97.9069 233.205 97.2002 233.724 96.6348C234.253 96.0537 234.986 95.7632 235.921 95.7632C236.992 95.7632 237.809 96.1479 238.372 96.9175C238.936 97.687 239.217 98.5822 239.217 99.6031C239.217 101.017 238.738 102.061 237.781 102.736C237.443 102.972 236.896 103.168 236.141 103.325V103.49C237.076 103.537 237.831 103.828 238.406 104.362C239.251 105.147 239.674 106.286 239.674 107.778Z" fill="black"/>
<path d="M233.403 140.019C233.403 140.176 233.346 140.255 233.234 140.255C233.132 140.255 233.065 140.168 233.031 139.996C233.008 139.807 232.969 139.312 232.913 138.511C232.89 138.386 232.845 138.292 232.777 138.229C232.642 138.119 232.343 138.064 231.881 138.064C231.757 138.064 231.639 138.072 231.526 138.087L231.543 141.786C231.6 141.974 231.69 142.092 231.814 142.139C231.949 142.186 232.27 142.21 232.777 142.21C233.025 142.21 233.172 142.241 233.217 142.304C233.228 142.336 233.234 142.383 233.234 142.445C233.234 142.555 233.008 142.61 232.558 142.61C232.107 142.61 230.845 142.626 228.771 142.658C228.659 142.673 228.535 142.681 228.399 142.681C228.174 142.681 228.061 142.603 228.061 142.445C228.061 142.288 228.225 142.218 228.551 142.233C228.935 142.249 229.284 142.218 229.599 142.139C229.735 142.108 229.819 142.029 229.853 141.904C229.887 141.762 229.904 141.464 229.904 141.008V138.158C229.678 138.142 229.419 138.134 229.126 138.134H228.433C228.275 138.134 228.101 138.142 227.909 138.158C227.74 138.158 227.633 138.158 227.588 138.158L225.441 138.087C225.283 138.072 225.205 138.009 225.205 137.899C225.205 137.82 226.033 136.195 227.689 133.022C228.208 132.002 229.352 129.756 231.121 126.285C231.2 126.128 231.279 126.049 231.357 126.049C231.47 126.049 231.526 126.199 231.526 126.497V137.569H231.696C232.079 137.569 232.377 137.538 232.591 137.475C232.817 137.412 232.929 137.255 232.929 137.004C232.918 136.014 232.913 135.677 232.913 135.991C232.924 135.425 232.986 135.143 233.098 135.143C233.256 135.143 233.335 135.363 233.335 135.802V136.862L233.352 138.558C233.363 139.14 233.375 139.509 233.386 139.666C233.397 139.807 233.403 139.925 233.403 140.019ZM230.005 129.512C229.892 129.764 229.656 130.243 229.295 130.949C228.799 131.907 228.05 133.337 227.047 135.237L225.847 137.522C226.264 137.569 227.16 137.593 228.535 137.593C229.019 137.593 229.476 137.585 229.904 137.569V135.896C229.904 135.111 229.921 134.051 229.954 132.716C229.988 131.146 230.005 130.078 230.005 129.512Z" fill="black"/>
<path d="M217.247 167.346C217.247 169.173 216.745 170.573 215.741 171.544C215.137 172.129 214.353 172.422 213.39 172.422C212.427 172.422 211.721 172.072 211.27 171.372C211.024 170.987 210.901 170.53 210.901 170.002C210.901 169.559 211.003 169.202 211.208 168.931C211.413 168.645 211.68 168.502 212.007 168.502C212.274 168.502 212.494 168.61 212.668 168.824C212.853 169.038 212.945 169.302 212.945 169.616C212.945 170.144 212.694 170.544 212.192 170.815C211.966 170.93 211.854 171.058 211.854 171.201C211.854 171.429 212.002 171.636 212.299 171.822C212.607 171.993 212.945 172.079 213.314 172.079C214.031 172.079 214.568 171.736 214.927 171.051C215.419 170.109 215.665 168.838 215.665 167.239C215.665 166.068 215.47 165.162 215.081 164.519C214.691 163.877 214.138 163.555 213.421 163.555C212.868 163.555 212.258 163.848 211.592 164.433C211.654 161.221 211.7 159.194 211.731 158.351C211.741 157.866 211.818 157.573 211.961 157.473C212.105 157.359 212.494 157.302 213.129 157.302C213.232 157.302 213.406 157.302 213.652 157.302C213.897 157.316 214.092 157.323 214.236 157.323H214.758C215.465 157.323 215.875 157.309 215.987 157.28C216.11 157.238 216.187 157.116 216.218 156.916C216.259 156.588 216.331 156.424 216.433 156.424C216.535 156.424 216.587 156.502 216.587 156.659C216.587 156.759 216.582 156.838 216.571 156.895L216.541 157.388C216.489 158.187 216.382 158.687 216.218 158.887C216.064 159.072 215.68 159.165 215.065 159.165L212.13 159.144C212.089 159.629 212.053 161.093 212.023 163.534C212.607 163.163 213.216 162.977 213.851 162.977C214.907 162.977 215.736 163.37 216.341 164.155C216.945 164.926 217.247 165.99 217.247 167.346Z" fill="black"/>
<path d="M192.307 177.497C192.307 178.882 192.005 180.067 191.401 181.052C190.796 182.037 190.074 182.53 189.234 182.53C188.179 182.53 187.323 181.923 186.668 180.71C186.012 179.496 185.684 177.918 185.684 175.977C185.684 174.192 185.961 172.564 186.514 171.094C187.078 169.623 187.825 168.552 188.758 167.881C189.536 167.325 190.387 167.046 191.309 167.046C191.524 167.046 191.631 167.103 191.631 167.217C191.631 167.317 191.56 167.374 191.416 167.389C190.494 167.503 189.68 167.967 188.973 168.781C188.051 169.837 187.508 171.636 187.344 174.178C187.907 173.435 188.543 173.064 189.249 173.064C189.823 173.064 190.361 173.278 190.863 173.706C191.826 174.52 192.307 175.784 192.307 177.497ZM190.725 177.561C190.725 174.906 190.136 173.578 188.957 173.578C188.425 173.578 188.015 173.899 187.728 174.542C187.441 175.17 187.298 176.055 187.298 177.197C187.298 178.839 187.508 180.167 187.928 181.181C188.194 181.823 188.583 182.144 189.096 182.144C190.182 182.144 190.725 180.617 190.725 177.561Z" fill="black"/>
<path d="M166.829 158.394C166.829 158.48 166.235 159.815 165.047 162.399C164.381 163.855 163.925 164.997 163.679 165.825C163.433 166.639 163.31 167.453 163.31 168.267C163.31 168.681 163.382 169.495 163.526 170.708C163.577 171.136 163.602 171.501 163.602 171.8C163.602 172.814 163.331 173.321 162.788 173.321C162.143 173.321 161.82 172.543 161.82 170.987C161.82 169.545 162.296 167.646 163.249 165.29C163.853 163.805 164.637 162.077 165.6 160.107H163.264C162.055 160.107 161.359 160.114 161.174 160.129C160.949 160.143 160.79 160.193 160.698 160.279C160.616 160.364 160.555 160.486 160.514 160.643C160.483 160.785 160.401 161.285 160.268 162.142C160.227 162.313 160.165 162.399 160.083 162.399C159.981 162.399 159.93 162.313 159.93 162.142C159.93 161.97 159.955 161.692 160.007 161.307C160.119 160.436 160.191 159.693 160.222 159.079C160.242 158.637 160.309 158.33 160.421 158.158C160.493 158.158 160.703 158.173 161.051 158.201C161.83 158.258 162.394 158.287 162.742 158.287L165.923 158.244C166.005 158.244 166.092 158.237 166.184 158.223C166.266 158.223 166.317 158.223 166.338 158.223C166.665 158.223 166.829 158.28 166.829 158.394Z" fill="black"/>
<path d="M150.525 143.51C150.525 144.938 150.1 146.087 149.249 146.958C148.676 147.543 147.964 147.836 147.113 147.836C146.202 147.836 145.433 147.551 144.808 146.979C143.958 146.208 143.533 145.123 143.533 143.724C143.533 141.597 144.358 140.248 146.007 139.677V139.569C145.382 139.327 144.89 138.92 144.532 138.349C144.183 137.763 144.009 137.071 144.009 136.271C144.009 135.158 144.281 134.251 144.824 133.552C145.377 132.838 146.089 132.481 146.96 132.481C147.728 132.481 148.358 132.738 148.85 133.252C149.567 133.994 149.925 134.951 149.925 136.122C149.925 136.964 149.746 137.721 149.388 138.392C149.029 139.048 148.583 139.448 148.051 139.591L148.066 139.677C149.705 140.133 150.525 141.411 150.525 143.51ZM148.404 136.164C148.404 134.894 148.24 133.958 147.912 133.359C147.718 133.002 147.405 132.823 146.975 132.823C146.012 132.823 145.531 133.944 145.531 136.186C145.531 138.37 146.048 139.462 147.083 139.462C147.544 139.462 147.866 139.227 148.051 138.756C148.286 138.142 148.404 137.278 148.404 136.164ZM148.957 143.724C148.957 141.126 148.332 139.826 147.083 139.826C146.458 139.826 145.971 140.162 145.623 140.833C145.274 141.49 145.1 142.404 145.1 143.574C145.1 144.788 145.28 145.744 145.638 146.444C146.007 147.144 146.509 147.493 147.144 147.493C147.687 147.493 148.087 147.279 148.343 146.851C148.752 146.166 148.957 145.123 148.957 143.724Z" fill="black"/>
<path d="M144.051 102.59C144.051 104.648 143.707 106.516 143.02 108.197C142.344 109.862 141.453 111.016 140.349 111.66C139.538 112.131 138.726 112.367 137.915 112.367C137.622 112.367 137.475 112.312 137.475 112.202C137.475 112.107 137.554 112.045 137.712 112.013C139.616 111.668 140.924 110.348 141.634 108.056C141.915 107.129 142.112 105.951 142.225 104.522C141.605 105.339 140.907 105.747 140.129 105.747C139.385 105.747 138.709 105.433 138.101 104.805C137.211 103.894 136.765 102.551 136.765 100.776C136.765 99.2686 137.092 97.9886 137.746 96.9364C138.411 95.8684 139.211 95.3344 140.146 95.3344C141.295 95.3344 142.231 96.0098 142.952 97.3604C143.685 98.711 144.051 100.454 144.051 102.59ZM142.276 101.035C142.276 99.245 142.039 97.8315 141.566 96.795C141.239 96.0883 140.794 95.7349 140.231 95.7349C139.07 95.7349 138.49 97.4311 138.49 100.823C138.49 103.729 139.137 105.182 140.433 105.182C141.008 105.182 141.459 104.82 141.786 104.098C142.112 103.36 142.276 102.339 142.276 101.035Z" fill="black"/>
<path d="M147.774 80.1826C147.774 80.2968 147.661 80.3539 147.436 80.3539H147.252C147.252 80.3539 147.057 80.3539 146.668 80.3539C146.278 80.3397 145.884 80.3325 145.484 80.3325C144.778 80.3325 144.327 80.3397 144.132 80.3539C143.937 80.3682 143.784 80.3753 143.671 80.3753C143.425 80.3753 143.302 80.3111 143.302 80.1826C143.302 80.0541 143.374 79.9899 143.517 79.9899C143.743 79.9899 143.984 79.9827 144.24 79.9684C144.557 79.9542 144.726 79.8471 144.747 79.6472C144.778 79.433 144.793 78.9833 144.793 78.298V68.2325C144.793 67.7756 144.783 67.5043 144.762 67.4187C144.742 67.333 144.67 67.2902 144.547 67.2902C144.496 67.2902 144.163 67.3259 143.548 67.3972C143.425 67.4115 143.343 67.4187 143.302 67.4187C143.179 67.4187 143.118 67.3687 143.118 67.2688C143.118 67.1545 143.179 67.0903 143.302 67.076C143.784 67.0046 144.27 66.8047 144.762 66.4764C145.254 66.1337 145.648 65.7339 145.945 65.2771C146.058 65.1486 146.135 65.0843 146.176 65.0843C146.258 65.0843 146.299 65.1557 146.299 65.2985V65.7054C146.289 65.8196 146.283 65.9481 146.283 66.0909V78.8976C146.283 79.4116 146.299 79.7114 146.33 79.7971C146.371 79.8828 146.499 79.9327 146.714 79.947L147.067 79.9684L147.328 79.9899H147.559C147.702 79.9899 147.774 80.0541 147.774 80.1826Z" fill="black"/>
<path d="M164.278 58.3384C164.278 58.4526 164.166 58.5097 163.94 58.5097H163.756C163.756 58.5097 163.561 58.5097 163.172 58.5097C162.783 58.4954 162.388 58.4883 161.989 58.4883C161.282 58.4883 160.831 58.4954 160.636 58.5097C160.442 58.524 160.288 58.5311 160.175 58.5311C159.929 58.5311 159.807 58.4669 159.807 58.3384C159.807 58.2099 159.878 58.1456 160.022 58.1456C160.247 58.1456 160.488 58.1385 160.744 58.1242C161.061 58.1099 161.231 58.0029 161.251 57.803C161.282 57.5888 161.297 57.1391 161.297 56.4538V46.3883C161.297 45.9314 161.287 45.6601 161.266 45.5744C161.246 45.4888 161.174 45.446 161.051 45.446C161 45.446 160.667 45.4816 160.052 45.553C159.929 45.5673 159.848 45.5744 159.807 45.5744C159.684 45.5744 159.622 45.5245 159.622 45.4245C159.622 45.3103 159.684 45.2461 159.807 45.2318C160.288 45.1604 160.775 44.9605 161.266 44.6321C161.758 44.2895 162.153 43.8897 162.45 43.4328C162.562 43.3044 162.639 43.2401 162.68 43.2401C162.762 43.2401 162.803 43.3115 162.803 43.4543V43.8612C162.793 43.9754 162.788 44.1039 162.788 44.2467V57.0534C162.788 57.5674 162.803 57.8672 162.834 57.9529C162.875 58.0386 163.003 58.0885 163.218 58.1028L163.571 58.1242L163.833 58.1456H164.063C164.207 58.1456 164.278 58.2099 164.278 58.3384Z" fill="black"/>
<path d="M194.212 44.8249C194.212 44.8677 194.202 44.9819 194.182 45.1675C194.13 45.6387 194.048 46.8023 193.936 48.6584L193.92 48.9153C192.865 48.844 191.661 48.8083 190.309 48.8083C189.582 48.8083 188.901 48.8225 188.265 48.8511C187.63 48.8797 187.354 48.8939 187.436 48.8939C187.159 48.8939 187.021 48.8225 187.021 48.6798C187.021 48.5655 187.287 48.2086 187.82 47.609C189.1 46.1527 190.012 44.9677 190.555 44.0539C191.498 42.4691 191.969 40.6059 191.969 38.4643C191.969 37.0223 191.754 35.9301 191.323 35.1877C190.996 34.6166 190.535 34.331 189.94 34.331C189.356 34.331 188.895 34.5809 188.557 35.0806C188.291 35.4661 188.158 35.8516 188.158 36.2371C188.158 36.4798 188.296 36.6083 188.573 36.6226C189.29 36.6654 189.648 37.1009 189.648 37.9289C189.648 38.7142 189.351 39.1068 188.757 39.1068C188.378 39.1068 188.076 38.9426 187.851 38.6142C187.625 38.2859 187.512 37.8361 187.512 37.265C187.512 36.2085 187.779 35.359 188.312 34.7165C188.844 34.0741 189.546 33.7528 190.417 33.7528C191.288 33.7528 192.01 34.1383 192.583 34.9093C193.249 35.8088 193.582 36.9795 193.582 38.4215C193.582 40.0063 193.203 41.4697 192.445 42.8118C191.687 44.1396 190.412 45.5887 188.619 47.1592C189.295 47.1307 190.145 47.1164 191.17 47.1164C192.02 47.1164 192.558 47.1021 192.783 47.0736C193.009 47.0307 193.208 46.9379 193.383 46.7952C193.526 46.6667 193.649 46.1884 193.751 45.3603C193.823 44.7892 193.926 44.5036 194.059 44.5036C194.161 44.5036 194.212 44.6107 194.212 44.8249Z" fill="black"/>
<path d="M168.274 58.3384C168.274 58.4526 168.161 58.5097 167.936 58.5097H167.751C167.751 58.5097 167.557 58.5097 167.167 58.5097C166.778 58.4954 166.384 58.4883 165.984 58.4883C165.277 58.4883 164.826 58.4954 164.632 58.5097C164.437 58.524 164.284 58.5311 164.171 58.5311C163.925 58.5311 163.802 58.4669 163.802 58.3384C163.802 58.2099 163.874 58.1456 164.017 58.1456C164.243 58.1456 164.483 58.1385 164.739 58.1242C165.057 58.1099 165.226 58.0029 165.247 57.803C165.277 57.5888 165.293 57.1391 165.293 56.4538V46.3883C165.293 45.9314 165.282 45.6601 165.262 45.5744C165.241 45.4888 165.17 45.446 165.047 45.446C164.996 45.446 164.663 45.4816 164.048 45.553C163.925 45.5673 163.843 45.5744 163.802 45.5744C163.679 45.5744 163.618 45.5245 163.618 45.4245C163.618 45.3103 163.679 45.2461 163.802 45.2318C164.284 45.1604 164.77 44.9605 165.262 44.6321C165.754 44.2895 166.148 43.8897 166.445 43.4328C166.558 43.3044 166.635 43.2401 166.676 43.2401C166.758 43.2401 166.799 43.3115 166.799 43.4543V43.8612C166.788 43.9754 166.783 44.1039 166.783 44.2467V57.0534C166.783 57.5674 166.799 57.8672 166.829 57.9529C166.87 58.0386 166.998 58.0885 167.213 58.1028L167.567 58.1242L167.828 58.1456H168.059C168.202 58.1456 168.274 58.2099 168.274 58.3384Z" fill="black"/>
<path d="M153.844 73.1582C153.844 74.4288 153.706 75.6281 153.429 76.756C153.163 77.8839 152.794 78.7906 152.323 79.4759C151.821 80.2183 151.181 80.5895 150.402 80.5895C149.337 80.5895 148.456 79.8614 147.759 78.4051C147.073 76.9488 146.729 75.0856 146.729 72.8155C146.729 70.1885 147.216 68.1183 148.189 66.6049C148.773 65.6911 149.49 65.2342 150.341 65.2342C151.345 65.2342 152.144 65.8696 152.738 67.1403C153.475 68.7108 153.844 70.7167 153.844 73.1582ZM152.185 72.3872C152.185 70.2599 152.016 68.5037 151.677 67.1188C151.421 66.0623 150.971 65.5341 150.325 65.5341C149.034 65.5341 148.389 67.9255 148.389 72.7084C148.389 77.7198 149.07 80.2254 150.433 80.2254C151.068 80.2254 151.524 79.4973 151.8 78.041C152.057 76.7132 152.185 74.8286 152.185 72.3872Z" fill="black"/>
<path d="M188.204 111.3C186.79 111.3 185.653 109.715 185.653 107.745C185.653 105.775 186.79 104.19 188.204 104.19C189.618 104.19 190.755 105.775 190.755 107.745C190.755 109.715 189.618 111.3 188.204 111.3Z" fill="black"/>
<path d="M188.205 105.389C189.127 105.389 189.895 106.46 189.895 107.745C189.895 109.03 189.127 110.101 188.205 110.101C187.283 110.101 186.514 109.03 186.514 107.745C186.514 106.46 187.283 105.389 188.205 105.389ZM188.205 103.033C186.33 103.033 184.824 105.132 184.824 107.745C184.824 110.358 186.33 112.456 188.205 112.456C190.079 112.456 191.585 110.358 191.585 107.745C191.585 105.132 190.079 103.033 188.205 103.033Z" fill="black"/>
<path d="M172.407 120.594L180.029 119.138L181.474 113.57L177.356 112.328L172.407 120.594Z" fill="black" stroke="#1A1A1A" stroke-width="0.05" stroke-miterlimit="10"/>
<path d="M185.1 110.786L183.994 116.054L180.214 114.598L181.381 109.458L185.1 110.786Z" fill="black" stroke="#1A1A1A" stroke-width="0.05" stroke-miterlimit="10"/>
<path d="M214.635 87.9993C214.635 87.9993 219.368 85.9434 221.673 88.5989C221.673 88.5989 222.042 81.3175 228.527 76.6917C228.527 76.6917 222.38 82.5168 217.678 78.6191C217.678 78.6191 216.971 83.8018 214.174 86.5858L214.666 87.9993H214.635Z" fill="black" stroke="black" stroke-width="0.05" stroke-miterlimit="10"/>
<path d="M210.886 85.9434L204.954 92.5395L207.751 92.7965L206.86 96.6514L213.806 92.5395L215.926 86.5002L210.886 85.9434Z" fill="black" stroke="black" stroke-width="0.05" stroke-miterlimit="10"/>
<path d="M191.462 104.018L203.909 91.383L209.749 91.2974L206.614 98.1505L192.476 106.374C192.384 105.989 191.647 104.275 191.493 104.018H191.462Z" fill="black" stroke="#1A1A1A" stroke-width="0.05" stroke-miterlimit="10"/>
<path d="M216.817 90.612C215.403 88.6846 214.389 86.3716 213.867 83.7161C215.28 85.6435 216.264 87.9564 216.817 90.612Z" fill="#1A1A1A"/>
<path d="M178.862 87.9564L180.183 97.4223L183.841 98.9642L184.455 93.7387L178.862 87.9564Z" fill="black" stroke="#1A1A1A" stroke-width="0.05" stroke-miterlimit="10"/>
<path d="M185.808 103.333L182.365 102.219L183.134 97.4222L186.484 98.6215L185.808 103.333Z" fill="black" stroke="#1A1A1A" stroke-width="0.05" stroke-miterlimit="10"/>
<path d="M189.772 112.842L190.94 119.524L194.474 120.851L195.12 115.712L191.278 111.514C191.124 111.771 189.987 112.713 189.772 112.842Z" fill="black" stroke="#1A1A1A" stroke-width="0.05" stroke-miterlimit="10"/>
<path d="M193.491 121.708C193.491 121.708 194.044 128.476 192.508 131.559C192.508 131.559 199.576 131.302 203.08 138.927C203.08 138.927 199.699 129.247 201.82 123.079C201.82 123.079 197.179 123.421 195.212 120.209L193.522 121.708H193.491Z" fill="black" stroke="#1A1A1A" stroke-width="0.05" stroke-miterlimit="10"/>
<path d="M192.262 122.436C193.276 120.337 194.69 119.095 196.472 118.71C195.458 120.809 194.014 122.051 192.262 122.436Z" fill="#1A1A1A"/>
</g>
<defs>
<linearGradient id="paint0_linear_312_553" x1="203.087" y1="107.337" x2="213.508" y2="170.577" gradientUnits="userSpaceOnUse">
<stop stop-color="#4D607A"/>
<stop offset="0.17" stop-color="#455E7B"/>
<stop offset="0.41" stop-color="#305B7F"/>
<stop offset="0.72" stop-color="#0E5785"/>
<stop offset="0.82" stop-color="#005588"/>
</linearGradient>
<radialGradient id="paint1_radial_312_553" cx="0" cy="0" r="1" gradientUnits="userSpaceOnUse" gradientTransform="translate(213.114 139.77) rotate(29.2585) scale(17.908 17.9008)">
<stop offset="0.45" stop-color="#00FFFF"/>
<stop offset="0.61" stop-color="#00FBFF"/>
<stop offset="0.75" stop-color="#00F0FF"/>
<stop offset="0.89" stop-color="#00DEFF"/>
<stop offset="1" stop-color="#00CAFF"/>
</radialGradient>
<clipPath id="clip0_312_553">
<rect width="405" height="219" fill="white"/>
</clipPath>
</defs>
</svg>
