<svg width="784" height="424" viewBox="0 0 784 424" fill="none" xmlns="http://www.w3.org/2000/svg">
<g clip-path="url(#clip0_77_1117)">
<path d="M31.8915 136.994C56.3915 128.203 80.8915 120.491 105.308 111.701L200.817 103.16C192.595 107.306 183.044 111.452 172.247 115.184C168.178 116.594 157.63 120.16 135.373 124.721C129.725 125.881 111.122 129.696 83.7152 133.179C70.0119 134.92 52.4881 135.667 31.8085 136.994H31.8915Z" fill="#42210B" stroke="black" stroke-width="0.05" stroke-miterlimit="10"/>
<path d="M766.144 140.559L696.381 115.101H637.581C652.198 122.399 671.881 130.525 695.966 135.916C723.954 142.218 748.288 141.555 766.227 140.559H766.144Z" fill="#42210B" stroke="black" stroke-width="0.05" stroke-miterlimit="10"/>
<path d="M157.298 409.239C157.298 410.151 157.714 417.283 155.056 420.185C151.069 424.58 144.591 423.502 143.761 423.419C103.481 423.751 47.422 421.678 6.31182 421.927C4.23554 421.927 2.32537 420.849 1.41182 418.941C-2.65768 410.483 7.22537 397.795 7.47453 397.463C8.72029 397.546 9.79995 405.59 11.0457 405.673C61.7067 409.654 157.298 409.239 157.298 409.239Z" fill="#603813" stroke="black" stroke-width="0.1" stroke-miterlimit="10"/>
<path d="M169.091 395.722C169.091 396.634 168.012 400.863 164.607 405.093C161.866 408.576 154.973 408.658 154.142 408.576C113.697 408.907 53.8999 406.668 12.7897 406.917C11.4609 406.917 10.1321 406.419 9.38465 405.341C3.48804 396.883 13.7863 383.698 14.0355 383.283C15.2813 383.366 14.6169 390.415 15.8626 390.498C66.5236 394.561 118.43 391.659 169.091 395.722Z" fill="#603813" stroke="black" stroke-width="0.1" stroke-miterlimit="10"/>
<path d="M637.166 407.166C637.166 408.078 636.834 415.21 639.242 418.112C642.897 422.507 648.959 421.429 649.79 421.346C687.329 421.678 739.651 419.605 777.937 419.853C779.847 419.853 781.675 418.775 782.505 416.868C786.325 408.41 777.107 395.722 776.858 395.39C775.695 395.473 774.698 403.517 773.536 403.6C726.28 407.58 637.166 407.166 637.166 407.166Z" fill="#603813" stroke="black" stroke-width="0.15" stroke-miterlimit="10"/>
<path d="M626.12 393.649C626.12 394.561 627.117 398.79 630.273 403.019C632.848 406.502 639.242 406.585 640.073 406.502C677.778 406.834 733.588 404.595 771.875 404.844C773.12 404.844 774.366 404.346 775.031 403.268C780.512 394.81 770.38 381.625 770.131 381.21C768.968 381.293 768.885 388.342 767.722 388.425C720.466 392.488 673.293 389.586 626.037 393.649H626.12Z" fill="#603813" stroke="black" stroke-width="0.15" stroke-miterlimit="10"/>
<path d="M31.8915 138.071C32.1406 146.447 32.4728 158.72 32.6389 173.647C33.0542 213.534 33.2203 233.851 29.566 251.016C26.8254 263.953 21.0949 282.777 7.64062 304.338C10.0491 331.455 12.9559 362.386 15.3644 389.751C15.5305 391.327 16.7762 392.571 18.4372 392.654C68.8491 395.639 118.763 392.405 169.175 395.556C170.005 394.064 172.663 390.581 177.895 389.088C183.708 387.429 188.941 386.932 190.602 387.181C326.224 385.273 465.334 387.347 600.956 385.439C603.364 385.108 613.912 384.776 618.48 385.439C621.885 385.937 624.459 389.834 626.203 391.907C675.12 390.581 718.888 389.751 767.805 388.508L781.01 305.333C777.273 300.357 771.708 292.148 767.39 281.119C758.42 258.646 760.663 240.651 763.652 190.895C764.317 180.281 765.313 163.198 766.31 141.637C754.351 141.637 738.073 140.891 718.971 138.071C696.298 134.671 657.929 126.545 610.341 102.164C535.429 63.7698 541.408 36.1555 489.003 15.8386C420.403 -10.7806 354.71 5.72169 344.08 8.54117C260.447 30.6824 243.422 99.2621 161.866 119.081C128.812 127.125 89.5288 132.432 89.5288 132.432C65.9423 135.667 46.1762 137.242 32.2237 138.071H31.8915Z" fill="#603813" stroke="black" stroke-width="0.25" stroke-miterlimit="10"/>
<path d="M31.8915 137.989L75.5762 392.571L169.175 395.722C158.378 306.411 146.336 214.612 135.539 125.301C116.769 129.53 95.6745 133.262 72.5033 135.584C58.2186 136.993 44.5983 137.74 31.8915 137.989Z" fill="#42210B" stroke="black" stroke-width="0.05" stroke-miterlimit="10"/>
<path d="M670.22 128.618L629.692 390.664L722.376 388.839L766.144 143.296C752.358 143.296 736.412 142.384 718.805 139.73C700.202 136.911 683.924 132.847 670.22 128.535V128.618Z" fill="#42210B" stroke="black" stroke-width="0.05" stroke-miterlimit="10"/>
<path d="M405.827 355.206C488.022 355.206 554.654 288.674 554.654 206.603C554.654 124.532 488.022 58 405.827 58C323.632 58 257 124.532 257 206.603C257 288.674 323.632 355.206 405.827 355.206Z" fill="#391E00" stroke="#2B140A" stroke-width="0.75" stroke-miterlimit="10"/>
<path d="M294.732 301.961C303.458 311.158 340.947 348.752 400.252 351.495C468.687 354.641 513.044 309.141 520.235 301.477C455.113 303.171 359.773 300.267 294.732 301.961Z" fill="#2B140A"/>
<path d="M329.21 359.318C374.381 359.318 411 290.93 411 206.568C411 122.207 374.381 53.8188 329.21 53.8188C284.038 53.8188 247.419 122.207 247.419 206.568C247.419 290.93 284.038 359.318 329.21 359.318Z" fill="#E4E4D9" stroke="#2B140A" stroke-width="0.75" stroke-miterlimit="10"/>
<path d="M328.943 101.169C359.67 101.169 384.713 147.856 384.713 205.324C384.713 262.792 359.714 309.479 328.943 309.479C298.172 309.479 273.173 262.792 273.173 205.324C273.173 147.856 298.172 101.169 328.943 101.169ZM328.943 99.0961C297.55 99.0961 272.063 146.613 272.063 205.324C272.063 264.036 297.506 311.552 328.943 311.552C360.38 311.552 385.823 264.036 385.823 205.324C385.823 146.613 360.38 99.0961 328.943 99.0961Z" fill="#42210B"/>
<path d="M240.847 190.812L241.291 231.114C241.291 231.114 244.311 235.343 246.664 230.617L245.909 190.895C245.909 189.734 242.757 186.085 240.847 190.895V190.812Z" fill="#666666" stroke="#1A1A1A" stroke-width="0.08" stroke-miterlimit="10"/>
<path d="M243.378 193.963C244.776 193.963 245.909 192.701 245.909 191.144C245.909 189.587 244.776 188.324 243.378 188.324C241.981 188.324 240.847 189.587 240.847 191.144C240.847 192.701 241.981 193.963 243.378 193.963Z" fill="#1A1A1A"/>
<path d="M240.847 203.5C240.847 203.5 243.512 207.563 246.131 203.5" stroke="#1A1A1A" stroke-width="0.05" stroke-miterlimit="10"/>
<path d="M241.114 214.861C241.114 214.861 243.512 218.758 246.265 214.778" stroke="#1A1A1A" stroke-width="0.05" stroke-miterlimit="10"/>
<path d="M337.05 87.4686C337.05 87.6873 336.75 87.7966 336.148 87.7966H335.656C335.656 87.7966 335.137 87.7966 334.098 87.7966C333.06 87.7693 332.007 87.7556 330.941 87.7556C329.055 87.7556 327.853 87.7693 327.333 87.7966C326.814 87.8239 326.404 87.8376 326.103 87.8376C325.447 87.8376 325.119 87.7146 325.119 87.4686C325.119 87.2226 325.311 87.0996 325.693 87.0996C326.295 87.0996 326.937 87.0859 327.62 87.0586C328.468 87.0313 328.919 86.8263 328.973 86.4436C329.055 86.0336 329.096 85.1726 329.096 83.8606V64.5906C329.096 63.7159 329.069 63.1966 329.014 63.0326C328.96 62.8686 328.768 62.7866 328.44 62.7866C328.304 62.7866 327.415 62.8549 325.775 62.9916C325.447 63.0189 325.229 63.0326 325.119 63.0326C324.791 63.0326 324.627 62.9369 324.627 62.7456C324.627 62.5269 324.791 62.4039 325.119 62.3766C326.404 62.2399 327.702 61.8573 329.014 61.2286C330.326 60.5726 331.379 59.8073 332.171 58.9326C332.472 58.6866 332.677 58.5636 332.786 58.5636C333.005 58.5636 333.114 58.7003 333.114 58.9736V59.7526C333.087 59.9713 333.073 60.2173 333.073 60.4906V85.0086C333.073 85.9926 333.114 86.5666 333.196 86.7306C333.306 86.8946 333.647 86.9903 334.221 87.0176L335.164 87.0586L335.861 87.0996H336.476C336.859 87.0996 337.05 87.2226 337.05 87.4686Z" fill="black"/>
<path d="M377.146 108.698C377.146 108.916 376.846 109.026 376.244 109.026H375.752C375.752 109.026 375.233 109.026 374.194 109.026C373.156 108.998 372.103 108.985 371.037 108.985C369.151 108.985 367.949 108.998 367.429 109.026C366.91 109.053 366.5 109.067 366.199 109.067C365.543 109.067 365.215 108.944 365.215 108.698C365.215 108.452 365.407 108.329 365.789 108.329C366.391 108.329 367.033 108.315 367.716 108.288C368.564 108.26 369.015 108.055 369.069 107.673C369.151 107.263 369.192 106.402 369.192 105.09V85.8196C369.192 84.945 369.165 84.4256 369.11 84.2616C369.056 84.0976 368.864 84.0156 368.536 84.0156C368.4 84.0156 367.511 84.084 365.871 84.2206C365.543 84.248 365.325 84.2616 365.215 84.2616C364.887 84.2616 364.723 84.166 364.723 83.9746C364.723 83.756 364.887 83.633 365.215 83.6056C366.5 83.469 367.798 83.0863 369.11 82.4576C370.422 81.8016 371.475 81.0363 372.267 80.1616C372.568 79.9156 372.773 79.7926 372.882 79.7926C373.101 79.7926 373.21 79.9293 373.21 80.2026V80.9816C373.183 81.2003 373.169 81.4463 373.169 81.7196V106.238C373.169 107.222 373.21 107.796 373.292 107.96C373.402 108.124 373.743 108.219 374.317 108.247L375.26 108.288L375.957 108.329H376.572C376.955 108.329 377.146 108.452 377.146 108.698Z" fill="black"/>
<path d="M403.55 144.149C403.55 144.231 403.522 144.45 403.468 144.805C403.331 145.707 403.112 147.935 402.812 151.488L402.771 151.98C399.955 151.844 396.744 151.775 393.136 151.775C391.195 151.775 389.377 151.803 387.683 151.857C385.988 151.912 385.25 151.939 385.469 151.939C384.731 151.939 384.362 151.803 384.362 151.529C384.362 151.311 385.072 150.627 386.494 149.479C389.91 146.691 392.343 144.423 393.792 142.673C396.306 139.639 397.564 136.072 397.564 131.972C397.564 129.212 396.99 127.121 395.842 125.699C394.967 124.606 393.737 124.059 392.152 124.059C390.594 124.059 389.364 124.538 388.462 125.494C387.751 126.232 387.396 126.97 387.396 127.708C387.396 128.173 387.765 128.419 388.503 128.446C390.416 128.528 391.373 129.362 391.373 130.947C391.373 132.451 390.58 133.202 388.995 133.202C387.983 133.202 387.177 132.888 386.576 132.259C385.974 131.631 385.674 130.77 385.674 129.676C385.674 127.654 386.384 126.027 387.806 124.797C389.227 123.567 391.099 122.952 393.423 122.952C395.746 122.952 397.673 123.69 399.204 125.166C400.98 126.888 401.869 129.13 401.869 131.89C401.869 134.924 400.857 137.726 398.835 140.295C396.812 142.837 393.409 145.612 388.626 148.618C390.43 148.564 392.698 148.536 395.432 148.536C397.7 148.536 399.135 148.509 399.737 148.454C400.338 148.372 400.871 148.195 401.336 147.921C401.718 147.675 402.046 146.76 402.32 145.174C402.511 144.081 402.784 143.534 403.14 143.534C403.413 143.534 403.55 143.739 403.55 144.149Z" fill="black"/>
<path d="M411.163 202.739C411.163 205.008 410.247 206.949 408.416 208.561C406.393 210.338 403.81 211.226 400.667 211.226C398.098 211.226 396.212 210.625 395.009 209.422C394.244 208.657 393.861 207.782 393.861 206.798C393.861 205.951 394.121 205.281 394.64 204.789C395.187 204.27 395.911 204.01 396.813 204.01C397.524 204.01 398.111 204.215 398.576 204.625C399.041 205.035 399.273 205.555 399.273 206.183C399.273 207.14 398.631 207.892 397.346 208.438C396.827 208.657 396.567 208.876 396.567 209.094C396.567 209.45 396.922 209.778 397.633 210.078C398.344 210.352 399.123 210.488 399.97 210.488C402.047 210.488 403.728 209.778 405.013 208.356C406.325 206.935 406.981 205.076 406.981 202.78C406.981 198.161 404.904 195.851 400.749 195.851C400.339 195.851 400.038 195.865 399.847 195.892H399.56C399.205 195.892 399.027 195.769 399.027 195.523C399.027 195.332 399.355 195.182 400.011 195.072C401.924 194.799 403.4 194.102 404.439 192.981C405.478 191.833 405.997 190.371 405.997 188.594C405.997 186.845 405.546 185.451 404.644 184.412C403.742 183.346 402.526 182.813 400.995 182.813C399.874 182.813 398.89 183.059 398.043 183.551C397.223 184.016 396.813 184.563 396.813 185.191C396.813 185.437 397.004 185.601 397.387 185.683C399.191 186.121 400.093 186.872 400.093 187.938C400.093 189.332 399.369 190.029 397.92 190.029C396.991 190.029 396.239 189.756 395.665 189.209C395.118 188.663 394.845 187.938 394.845 187.036C394.845 185.56 395.474 184.33 396.731 183.346C398.016 182.335 399.792 181.829 402.061 181.829C404.658 181.829 406.639 182.499 408.006 183.838C409.373 185.178 410.056 186.736 410.056 188.512C410.056 190.972 408.894 192.79 406.571 193.965C405.751 194.375 404.425 194.717 402.594 194.99V195.277C404.863 195.359 406.694 195.865 408.088 196.794C410.138 198.161 411.163 200.143 411.163 202.739Z" fill="black"/>
<path d="M402.583 264.77C402.583 265.043 402.447 265.18 402.173 265.18C401.927 265.18 401.763 265.03 401.681 264.729C401.627 264.401 401.531 263.54 401.394 262.146C401.34 261.927 401.23 261.763 401.066 261.654C400.738 261.463 400.014 261.367 398.893 261.367C398.593 261.367 398.306 261.381 398.032 261.408L398.073 267.845C398.21 268.173 398.429 268.378 398.729 268.46C399.057 268.542 399.836 268.583 401.066 268.583C401.668 268.583 402.023 268.638 402.132 268.747C402.16 268.802 402.173 268.884 402.173 268.993C402.173 269.184 401.627 269.28 400.533 269.28C399.44 269.28 396.379 269.307 391.349 269.362C391.076 269.389 390.775 269.403 390.447 269.403C389.901 269.403 389.627 269.266 389.627 268.993C389.627 268.72 390.024 268.597 390.816 268.624C391.746 268.651 392.593 268.597 393.358 268.46C393.686 268.405 393.891 268.269 393.973 268.05C394.055 267.804 394.096 267.285 394.096 266.492V261.531C393.55 261.504 392.921 261.49 392.21 261.49H390.529C390.147 261.49 389.723 261.504 389.258 261.531C388.848 261.531 388.589 261.531 388.479 261.531L383.272 261.408C382.89 261.381 382.698 261.271 382.698 261.08C382.698 260.943 384.707 258.114 388.725 252.593C389.983 250.816 392.757 246.908 397.048 240.867C397.24 240.594 397.431 240.457 397.622 240.457C397.896 240.457 398.032 240.717 398.032 241.236V260.506H398.442C399.372 260.506 400.096 260.451 400.615 260.342C401.162 260.233 401.435 259.959 401.435 259.522C401.408 257.8 401.394 257.212 401.394 257.759C401.422 256.775 401.572 256.283 401.845 256.283C402.228 256.283 402.419 256.666 402.419 257.431V259.276L402.46 262.228C402.488 263.239 402.515 263.882 402.542 264.155C402.57 264.401 402.583 264.606 402.583 264.77ZM394.342 246.484C394.069 246.921 393.495 247.755 392.62 248.985C391.418 250.652 389.6 253.14 387.167 256.447L384.256 260.424C385.268 260.506 387.441 260.547 390.775 260.547C391.951 260.547 393.058 260.533 394.096 260.506V257.595C394.096 256.228 394.137 254.383 394.219 252.06C394.301 249.327 394.342 247.468 394.342 246.484Z" fill="black"/>
<path d="M379.739 317.274C379.739 320.773 378.4 323.451 375.721 325.31C374.109 326.431 372.018 326.991 369.448 326.991C366.879 326.991 364.993 326.321 363.79 324.982C363.134 324.244 362.806 323.369 362.806 322.358C362.806 321.511 363.08 320.827 363.626 320.308C364.173 319.761 364.884 319.488 365.758 319.488C366.469 319.488 367.057 319.693 367.521 320.103C368.013 320.513 368.259 321.019 368.259 321.62C368.259 322.631 367.59 323.397 366.25 323.916C365.649 324.135 365.348 324.381 365.348 324.654C365.348 325.091 365.745 325.488 366.537 325.843C367.357 326.171 368.259 326.335 369.243 326.335C371.157 326.335 372.592 325.679 373.548 324.367C374.86 322.563 375.516 320.13 375.516 317.069C375.516 314.828 374.997 313.092 373.958 311.862C372.92 310.632 371.444 310.017 369.53 310.017C368.054 310.017 366.428 310.577 364.651 311.698C364.815 305.548 364.938 301.667 365.02 300.054C365.048 299.125 365.253 298.564 365.635 298.373C366.018 298.154 367.057 298.045 368.751 298.045C369.025 298.045 369.489 298.045 370.145 298.045C370.801 298.072 371.321 298.086 371.703 298.086H373.097C374.983 298.086 376.077 298.059 376.377 298.004C376.705 297.922 376.91 297.69 376.992 297.307C377.102 296.678 377.293 296.364 377.566 296.364C377.84 296.364 377.976 296.514 377.976 296.815C377.976 297.006 377.963 297.157 377.935 297.266L377.853 298.209C377.717 299.74 377.43 300.696 376.992 301.079C376.582 301.434 375.557 301.612 373.917 301.612L366.086 301.571C365.977 302.5 365.881 305.302 365.799 309.976C367.357 309.265 368.984 308.91 370.678 308.91C373.494 308.91 375.708 309.662 377.32 311.165C378.933 312.641 379.739 314.677 379.739 317.274Z" fill="black"/>
<path d="M344.026 336.926C344.026 339.578 343.22 341.846 341.607 343.732C339.994 345.618 338.067 346.561 335.826 346.561C333.011 346.561 330.728 345.4 328.979 343.076C327.23 340.753 326.355 337.733 326.355 334.015C326.355 330.599 327.093 327.483 328.569 324.667C330.072 321.852 332.068 319.802 334.555 318.517C336.632 317.451 338.901 316.918 341.361 316.918C341.935 316.918 342.222 317.028 342.222 317.246C342.222 317.438 342.031 317.547 341.648 317.574C339.188 317.793 337.015 318.681 335.129 320.239C332.669 322.262 331.22 325.706 330.783 330.571C332.286 329.15 333.981 328.439 335.867 328.439C337.398 328.439 338.833 328.849 340.172 329.669C342.741 331.227 344.026 333.646 344.026 336.926ZM339.803 337.049C339.803 331.965 338.231 329.423 335.088 329.423C333.667 329.423 332.573 330.038 331.808 331.268C331.043 332.471 330.66 334.166 330.66 336.352C330.66 339.496 331.22 342.038 332.341 343.978C333.052 345.208 334.09 345.823 335.457 345.823C338.354 345.823 339.803 342.899 339.803 337.049Z" fill="black"/>
<path d="M307.892 300.156C307.892 300.32 306.307 302.875 303.136 307.823C301.36 310.611 300.143 312.797 299.487 314.383C298.831 315.941 298.503 317.499 298.503 319.057C298.503 319.849 298.695 321.407 299.077 323.731C299.214 324.551 299.282 325.248 299.282 325.822C299.282 327.762 298.558 328.733 297.109 328.733C295.387 328.733 294.526 327.243 294.526 324.264C294.526 321.503 295.797 317.868 298.339 313.358C299.952 310.515 302.043 307.208 304.612 303.436H298.38C295.155 303.436 293.296 303.449 292.804 303.477C292.203 303.504 291.779 303.6 291.533 303.764C291.315 303.928 291.151 304.16 291.041 304.461C290.959 304.734 290.741 305.691 290.385 307.331C290.276 307.659 290.112 307.823 289.893 307.823C289.62 307.823 289.483 307.659 289.483 307.331C289.483 307.003 289.552 306.47 289.688 305.732C289.989 304.064 290.18 302.643 290.262 301.468C290.317 300.62 290.495 300.033 290.795 299.705C290.987 299.705 291.547 299.732 292.476 299.787C294.554 299.896 296.057 299.951 296.986 299.951L305.473 299.869C305.692 299.869 305.924 299.855 306.17 299.828C306.389 299.828 306.526 299.828 306.58 299.828C307.455 299.828 307.892 299.937 307.892 300.156Z" fill="black"/>
<path d="M283.791 271.11C283.791 273.843 282.657 276.043 280.388 277.711C278.858 278.831 276.958 279.392 274.689 279.392C272.257 279.392 270.207 278.845 268.539 277.752C266.271 276.276 265.136 274.198 265.136 271.52C265.136 267.447 267.337 264.864 271.737 263.771V263.566C270.07 263.101 268.758 262.322 267.801 261.229C266.872 260.108 266.407 258.782 266.407 257.252C266.407 255.12 267.132 253.384 268.58 252.045C270.056 250.678 271.956 249.995 274.279 249.995C276.329 249.995 278.01 250.487 279.322 251.471C281.236 252.892 282.192 254.723 282.192 256.965C282.192 258.577 281.714 260.026 280.757 261.311C279.801 262.568 278.612 263.333 277.19 263.607L277.231 263.771C281.605 264.645 283.791 267.092 283.791 271.11ZM278.133 257.047C278.133 254.614 277.696 252.824 276.821 251.676C276.302 250.992 275.468 250.651 274.32 250.651C271.751 250.651 270.466 252.796 270.466 257.088C270.466 261.27 271.847 263.361 274.607 263.361C275.837 263.361 276.698 262.91 277.19 262.008C277.819 260.832 278.133 259.179 278.133 257.047ZM279.609 271.52C279.609 266.545 277.942 264.058 274.607 264.058C272.94 264.058 271.642 264.7 270.712 265.985C269.783 267.242 269.318 268.991 269.318 271.233C269.318 273.556 269.797 275.387 270.753 276.727C271.737 278.066 273.077 278.736 274.771 278.736C276.22 278.736 277.286 278.326 277.969 277.506C279.063 276.194 279.609 274.198 279.609 271.52Z" fill="black"/>
<path d="M273.059 193.628C273.059 197.209 272.226 200.462 270.558 203.386C268.918 206.284 266.759 208.293 264.08 209.413C262.112 210.233 260.144 210.643 258.176 210.643C257.466 210.643 257.11 210.548 257.11 210.356C257.11 210.192 257.302 210.083 257.684 210.028C262.304 209.427 265.474 207.131 267.196 203.14C267.88 201.528 268.358 199.478 268.631 196.99C267.128 198.412 265.433 199.122 263.547 199.122C261.743 199.122 260.103 198.576 258.627 197.482C256.468 195.897 255.388 193.56 255.388 190.471C255.388 187.847 256.181 185.62 257.766 183.788C259.379 181.93 261.32 181 263.588 181C266.376 181 268.645 182.176 270.394 184.526C272.171 186.877 273.059 189.911 273.059 193.628ZM268.754 190.922C268.754 187.806 268.18 185.346 267.032 183.542C266.24 182.312 265.16 181.697 263.793 181.697C260.978 181.697 259.57 184.649 259.57 190.553C259.57 195.61 261.142 198.138 264.285 198.138C265.679 198.138 266.773 197.51 267.565 196.252C268.358 194.968 268.754 193.191 268.754 190.922Z" fill="black"/>
<path d="M278.483 148.419C278.483 148.638 278.182 148.747 277.581 148.747H277.089C277.089 148.747 276.569 148.747 275.531 148.747C274.492 148.72 273.44 148.706 272.374 148.706C270.488 148.706 269.285 148.72 268.766 148.747C268.246 148.774 267.836 148.788 267.536 148.788C266.88 148.788 266.552 148.665 266.552 148.419C266.552 148.173 266.743 148.05 267.126 148.05C267.727 148.05 268.369 148.036 269.053 148.009C269.9 147.982 270.351 147.777 270.406 147.394C270.488 146.984 270.529 146.123 270.529 144.811V125.541C270.529 124.666 270.501 124.147 270.447 123.983C270.392 123.819 270.201 123.737 269.873 123.737C269.736 123.737 268.848 123.805 267.208 123.942C266.88 123.969 266.661 123.983 266.552 123.983C266.224 123.983 266.06 123.887 266.06 123.696C266.06 123.477 266.224 123.354 266.552 123.327C267.836 123.19 269.135 122.808 270.447 122.179C271.759 121.523 272.811 120.758 273.604 119.883C273.904 119.637 274.109 119.514 274.219 119.514C274.437 119.514 274.547 119.651 274.547 119.924V120.703C274.519 120.922 274.506 121.168 274.506 121.441V145.959C274.506 146.943 274.547 147.517 274.629 147.681C274.738 147.845 275.08 147.941 275.654 147.968L276.597 148.009L277.294 148.05H277.909C278.291 148.05 278.483 148.173 278.483 148.419Z" fill="black"/>
<path d="M302.327 106.127C302.327 106.346 302.026 106.455 301.425 106.455H300.933C300.933 106.455 300.414 106.455 299.375 106.455C298.336 106.428 297.284 106.414 296.218 106.414C294.332 106.414 293.129 106.428 292.61 106.455C292.091 106.482 291.681 106.496 291.38 106.496C290.724 106.496 290.396 106.373 290.396 106.127C290.396 105.881 290.587 105.758 290.97 105.758C291.571 105.758 292.214 105.744 292.897 105.717C293.744 105.69 294.195 105.485 294.25 105.102C294.332 104.692 294.373 103.831 294.373 102.519V83.2489C294.373 82.3743 294.346 81.8549 294.291 81.6909C294.236 81.5269 294.045 81.4449 293.717 81.4449C293.58 81.4449 292.692 81.5133 291.052 81.6499C290.724 81.6773 290.505 81.6909 290.396 81.6909C290.068 81.6909 289.904 81.5953 289.904 81.4039C289.904 81.1853 290.068 81.0623 290.396 81.0349C291.681 80.8983 292.979 80.5156 294.291 79.8869C295.603 79.2309 296.655 78.4656 297.448 77.5909C297.749 77.3449 297.954 77.2219 298.063 77.2219C298.282 77.2219 298.391 77.3586 298.391 77.6319V78.4109C298.364 78.6296 298.35 78.8756 298.35 79.1489V103.667C298.35 104.651 298.391 105.225 298.473 105.389C298.582 105.553 298.924 105.649 299.498 105.676L300.441 105.717L301.138 105.758H301.753C302.136 105.758 302.327 105.881 302.327 106.127Z" fill="black"/>
<path d="M346.892 80.0476C346.892 80.1296 346.864 80.3483 346.81 80.7036C346.673 81.6056 346.454 83.8333 346.154 87.3866L346.113 87.8786C343.297 87.7419 340.086 87.6736 336.478 87.6736C334.537 87.6736 332.719 87.7009 331.025 87.7556C329.33 87.8103 328.592 87.8376 328.811 87.8376C328.073 87.8376 327.704 87.7009 327.704 87.4276C327.704 87.2089 328.414 86.5256 329.836 85.3776C333.252 82.5896 335.685 80.3209 337.134 78.5716C339.648 75.5376 340.906 71.9706 340.906 67.8706C340.906 65.1099 340.332 63.0189 339.184 61.5976C338.309 60.5043 337.079 59.9576 335.494 59.9576C333.936 59.9576 332.706 60.4359 331.804 61.3926C331.093 62.1306 330.738 62.8686 330.738 63.6066C330.738 64.0713 331.107 64.3173 331.845 64.3446C333.758 64.4266 334.715 65.2603 334.715 66.8456C334.715 68.3489 333.922 69.1006 332.337 69.1006C331.325 69.1006 330.519 68.7863 329.918 68.1576C329.316 67.5289 329.016 66.6679 329.016 65.5746C329.016 63.5519 329.726 61.9256 331.148 60.6956C332.569 59.4656 334.441 58.8506 336.765 58.8506C339.088 58.8506 341.015 59.5886 342.546 61.0646C344.322 62.7866 345.211 65.0279 345.211 67.7886C345.211 70.8226 344.199 73.6243 342.177 76.1936C340.154 78.7356 336.751 81.5099 331.968 84.5166C333.772 84.4619 336.04 84.4346 338.774 84.4346C341.042 84.4346 342.477 84.4073 343.079 84.3526C343.68 84.2706 344.213 84.0929 344.678 83.8196C345.06 83.5736 345.388 82.6579 345.662 81.0726C345.853 79.9793 346.126 79.4326 346.482 79.4326C346.755 79.4326 346.892 79.6376 346.892 80.0476Z" fill="black"/>
<path d="M308.1 106.127C308.1 106.346 307.799 106.455 307.198 106.455H306.706C306.706 106.455 306.186 106.455 305.148 106.455C304.109 106.428 303.057 106.414 301.991 106.414C300.105 106.414 298.902 106.428 298.383 106.455C297.863 106.482 297.453 106.496 297.153 106.496C296.497 106.496 296.169 106.373 296.169 106.127C296.169 105.881 296.36 105.758 296.743 105.758C297.344 105.758 297.986 105.744 298.67 105.717C299.517 105.69 299.968 105.485 300.023 105.102C300.105 104.692 300.146 103.831 300.146 102.519V83.2489C300.146 82.3743 300.118 81.8549 300.064 81.6909C300.009 81.5269 299.818 81.4449 299.49 81.4449C299.353 81.4449 298.465 81.5133 296.825 81.6499C296.497 81.6773 296.278 81.6909 296.169 81.6909C295.841 81.6909 295.677 81.5953 295.677 81.4039C295.677 81.1853 295.841 81.0623 296.169 81.0349C297.453 80.8983 298.752 80.5156 300.064 79.8869C301.376 79.2309 302.428 78.4656 303.221 77.5909C303.521 77.3449 303.726 77.2219 303.836 77.2219C304.054 77.2219 304.164 77.3586 304.164 77.6319V78.4109C304.136 78.6296 304.123 78.8756 304.123 79.1489V103.667C304.123 104.651 304.164 105.225 304.246 105.389C304.355 105.553 304.697 105.649 305.271 105.676L306.214 105.717L306.911 105.758H307.526C307.908 105.758 308.1 105.881 308.1 106.127Z" fill="black"/>
<path d="M288.662 134.971C288.662 137.404 288.293 139.7 287.555 141.859C286.844 144.018 285.86 145.754 284.603 147.066C283.264 148.487 281.555 149.198 279.478 149.198C276.635 149.198 274.285 147.804 272.426 145.016C270.595 142.228 269.679 138.661 269.679 134.315C269.679 129.286 270.977 125.322 273.574 122.425C275.132 120.676 277.045 119.801 279.314 119.801C281.993 119.801 284.125 121.017 285.71 123.45C287.678 126.457 288.662 130.297 288.662 134.971ZM284.234 133.495C284.234 129.422 283.783 126.06 282.881 123.409C282.198 121.386 280.995 120.375 279.273 120.375C275.829 120.375 274.107 124.953 274.107 134.11C274.107 143.704 275.925 148.501 279.56 148.501C281.255 148.501 282.471 147.107 283.209 144.319C283.892 141.777 284.234 138.169 284.234 133.495Z" fill="black"/>
<path d="M328.943 212.124C326.901 212.124 325.258 209.056 325.258 205.241C325.258 201.427 326.901 198.359 328.943 198.359C330.986 198.359 332.629 201.427 332.629 205.241C332.629 209.056 330.986 212.124 328.943 212.124Z" fill="black"/>
<path d="M328.943 200.68C330.275 200.68 331.385 202.754 331.385 205.241C331.385 207.729 330.275 209.802 328.943 209.802C327.611 209.802 326.501 207.729 326.501 205.241C326.501 202.754 327.611 200.68 328.943 200.68ZM328.943 196.12C326.235 196.12 324.059 200.183 324.059 205.241C324.059 210.3 326.235 214.363 328.943 214.363C331.652 214.363 333.828 210.3 333.828 205.241C333.828 200.183 331.652 196.12 328.943 196.12Z" fill="black"/>
<path d="M314.809 163.478L317.13 183.86L323.024 186.961L323.9 175.704L314.809 163.478Z" fill="black" stroke="#1A1A1A" stroke-width="0.05" stroke-miterlimit="10"/>
<path d="M326.322 196.262L320.742 194.069L321.851 183.613L327.296 186.036L326.322 196.262Z" fill="black" stroke="#1A1A1A" stroke-width="0.05" stroke-miterlimit="10"/>
<path d="M352.981 272.465C352.981 272.465 355.62 284.887 353.094 291.493C353.094 291.493 360.661 291.489 366.156 308.195C366.156 308.195 359.487 292.487 363.01 279.217C363.01 279.217 357.567 278.018 354.404 270.933L352.96 272.392L352.981 272.465Z" fill="black" stroke="black" stroke-width="0.05" stroke-miterlimit="10"/>
<path d="M354.692 262.166L347.26 247.134L347.272 254.665L343.208 252.829L348.19 270.9L354.69 275.746L354.692 262.166Z" fill="black" stroke="black" stroke-width="0.05" stroke-miterlimit="10"/>
<path d="M333.989 212.456L348.383 244.215L349.093 259.905L341.674 252.405L331.678 215.45C332.029 215.095 333.779 212.951 334.028 212.417L333.989 212.456Z" fill="black" stroke="#1A1A1A" stroke-width="0.05" stroke-miterlimit="10"/>
<path d="M350.508 278.74C352.344 274.621 354.618 271.665 357.329 269.871C355.493 273.989 353.219 276.945 350.508 278.74Z" fill="#1A1A1A"/>
<path d="M313.081 240.871L321.722 231.353L321.438 221.12L316.078 222.939L313.081 240.871Z" fill="black" stroke="#1A1A1A" stroke-width="0.05" stroke-miterlimit="10"/>
<path d="M324.734 213.257L325.348 222.745L320.268 223.889L319.816 214.614L324.734 213.257Z" fill="black" stroke="#1A1A1A" stroke-width="0.05" stroke-miterlimit="10"/>
<path d="M332.131 197.005L338.073 189.733L337.667 179.885L332.314 181.621L330.117 194.163C330.411 194.415 331.938 196.615 332.124 197.087L332.131 197.005Z" fill="black" stroke="#1A1A1A" stroke-width="0.05" stroke-miterlimit="10"/>
<path d="M338.995 181.776C338.995 181.776 345.356 175.966 349.063 177.868C349.063 177.868 345.36 160.027 351.117 146.242C351.117 146.242 343.288 161.194 336.262 159.766C336.262 159.766 338.862 171.335 336.664 178.423L338.951 181.763L338.995 181.776Z" fill="black" stroke="#1A1A1A" stroke-width="0.05" stroke-miterlimit="10"/>
<path d="M340.305 184.417C337.8 183.195 335.831 180.365 334.611 176.072C337.116 177.294 339.041 180.111 340.305 184.417Z" fill="#1A1A1A"/>
</g>
<defs>
<clipPath id="clip0_77_1117">
<rect width="784" height="424" fill="white"/>
</clipPath>
</defs>
</svg>
