<svg width="311" height="302" viewBox="0 0 311 302" fill="none" xmlns="http://www.w3.org/2000/svg">
<rect x="125" width="186" height="302" fill="#6D472A"/>
<circle cx="218" cy="99" r="75" fill="#3E3E3E"/>
<ellipse cx="218" cy="99" rx="57" ry="58" fill="#262424"/>
<circle cx="75" cy="99" r="75" fill="#FFE9D5"/>
<path d="M139 83C139 83 142.215 81 144.5 81C146.785 81 150 83 150 83V126C150 126 146.785 128 144.5 128C142.215 128 139 126 139 126V83Z" fill="#707070"/>
<path d="M62.4883 106.922C61.9609 106.922 61.4727 106.883 60.9648 106.844L59.832 108.973C59.5977 109.422 59.1875 109.637 58.6602 109.578C58.1719 109.48 57.8203 109.109 57.7617 108.602L57.4102 106.238C56.4336 105.965 55.4961 105.594 54.5586 105.203L52.8008 106.785C52.4297 107.137 51.9609 107.195 51.4727 106.941C51.043 106.688 50.8672 106.238 50.9648 105.711L51.4531 103.387C50.6523 102.82 49.832 102.176 49.1094 101.453L46.9414 102.352C46.4531 102.566 46.0039 102.449 45.6328 102.02C45.3008 101.648 45.2617 101.16 45.5352 100.711L46.8047 98.6797C46.2383 97.8789 45.75 96.9805 45.3008 96.043L42.918 96.1602C42.4102 96.1992 41.9805 95.9062 41.8047 95.4375C41.668 94.9297 41.8047 94.4609 42.1953 94.168L44.0703 92.6836C43.8164 91.7266 43.6211 90.7305 43.5625 89.6758L41.2773 88.9531C40.7695 88.7969 40.4961 88.4258 40.4961 87.8984C40.4961 87.3711 40.7695 87 41.2773 86.8242L43.5625 86.1016C43.6211 85.0664 43.8164 84.0898 44.0703 83.1133L42.1953 81.6289C41.8047 81.3164 41.6484 80.8672 41.8047 80.3789C41.9805 79.9102 42.4102 79.6172 42.918 79.6562L45.3008 79.7344C45.75 78.7969 46.2383 77.9375 46.8047 77.0977L45.5352 75.0664C45.2617 74.6562 45.3008 74.168 45.6328 73.7969C46.0039 73.3672 46.4531 73.2695 46.9414 73.4648L49.1094 74.3438C49.832 73.6406 50.6523 72.9766 51.4531 72.4102L50.9648 70.1055C50.8477 69.5586 51.043 69.1094 51.4727 68.875C51.9609 68.6211 52.4297 68.6602 52.8008 69.0312L54.5586 70.5938C55.4961 70.1641 56.4336 69.8516 57.4102 69.5586L57.7617 67.2148C57.8203 66.707 58.1719 66.3359 58.6602 66.2383C59.1875 66.1797 59.6172 66.3945 59.832 66.8242L60.9648 68.9531C61.4922 68.9141 61.9609 68.8945 62.4883 68.8945C62.9961 68.8945 63.4844 68.9141 64.0117 68.9531L65.125 66.8242C65.3398 66.3945 65.7695 66.1797 66.2969 66.2383C66.7852 66.3359 67.1367 66.707 67.2148 67.2148L67.5469 69.5586C68.5234 69.8516 69.4805 70.1836 70.3984 70.5938L72.1562 69.0312C72.5273 68.6602 72.9961 68.6016 73.4844 68.875C73.9141 69.1094 74.1094 69.5586 73.9922 70.1055L73.5039 72.4102C74.3242 72.9766 75.125 73.6406 75.8477 74.3438L78.0156 73.4648C78.5039 73.2695 78.9727 73.3672 79.3438 73.7969C79.6562 74.168 79.6953 74.6562 79.4219 75.0664L78.1523 77.0977C78.7383 77.9375 79.207 78.7969 79.6562 79.7344L82.0586 79.6562C82.5664 79.6172 82.9766 79.9102 83.1523 80.3789C83.3086 80.8672 83.1523 81.3164 82.7617 81.6289L80.8867 83.1133C81.1406 84.0898 81.3359 85.0664 81.4336 86.1211L83.6797 86.8242C84.1875 87 84.4805 87.3711 84.4805 87.8984C84.4805 88.4258 84.1875 88.7969 83.6797 88.9531L81.4336 89.6758C81.3359 90.7305 81.1406 91.7266 80.8867 92.6836L82.7617 94.168C83.1719 94.4805 83.3086 94.9492 83.1523 95.4375C82.9766 95.9062 82.5664 96.1992 82.0586 96.1602L79.6562 96.043C79.207 96.9805 78.7383 97.8789 78.1523 98.6797L79.4219 100.711C79.6953 101.16 79.6758 101.648 79.3438 102.02C78.9727 102.449 78.5039 102.566 78.0156 102.352L75.8477 101.453C75.125 102.176 74.3242 102.82 73.5039 103.387L73.9922 105.711C74.0898 106.238 73.9141 106.688 73.4844 106.941C72.9961 107.195 72.5273 107.137 72.1562 106.785L70.3984 105.203C69.4805 105.594 68.5234 105.965 67.5469 106.238L67.2148 108.602C67.1367 109.109 66.8047 109.48 66.3164 109.578C65.7695 109.637 65.3594 109.422 65.125 108.973L64.0117 106.844C63.4844 106.883 62.9961 106.922 62.4883 106.922ZM62.4492 82.8203C64.8125 82.8203 66.8047 84.4219 67.3906 86.6289H78.2891C77.6641 78.3086 71.0039 71.8438 62.4883 71.8438C59.9492 71.8438 57.5664 72.4297 55.457 73.4648L61.043 83.0156C61.4922 82.8789 61.9609 82.8203 62.4492 82.8203ZM46.6289 87.918C46.6289 93.2891 49.1484 98.0156 53.1133 100.926L58.8359 91.5703C57.8984 90.6328 57.332 89.3633 57.332 87.9375C57.332 86.5117 57.8984 85.2227 58.8359 84.3047L53.25 74.7734C49.207 77.6836 46.6289 82.4688 46.6289 87.918ZM62.4492 90.3008C63.7773 90.3008 64.793 89.2656 64.793 87.9375C64.793 86.6094 63.7773 85.5742 62.4492 85.5742C61.1016 85.5742 60.0859 86.6094 60.0859 87.9375C60.0859 89.2656 61.1016 90.3008 62.4492 90.3008ZM62.4883 103.973C71.0234 103.973 77.7031 97.4688 78.3086 89.1484H67.4102C66.8633 91.3945 64.8516 93.0547 62.4492 93.0547C61.9609 93.0547 61.4922 92.9766 61.0625 92.8594L55.3008 102.273C57.4492 103.367 59.8906 103.973 62.4883 103.973Z" fill="black"/>
<path d="M78.5674 130.199C78.2246 130.199 77.9072 130.174 77.5771 130.148L76.8408 131.532C76.6885 131.824 76.4219 131.964 76.0791 131.926C75.7617 131.862 75.5332 131.621 75.4951 131.291L75.2666 129.755C74.6318 129.577 74.0225 129.336 73.4131 129.082L72.2705 130.11C72.0293 130.339 71.7246 130.377 71.4072 130.212C71.1279 130.047 71.0137 129.755 71.0771 129.412L71.3945 127.901C70.874 127.533 70.3408 127.114 69.8711 126.645L68.4619 127.229C68.1445 127.368 67.8525 127.292 67.6113 127.013C67.3955 126.771 67.3701 126.454 67.5479 126.162L68.373 124.842C68.0049 124.321 67.6875 123.737 67.3955 123.128L65.8467 123.204C65.5166 123.229 65.2373 123.039 65.123 122.734C65.0342 122.404 65.123 122.1 65.377 121.909L66.5957 120.944C66.4307 120.322 66.3037 119.675 66.2656 118.989L64.7803 118.52C64.4502 118.418 64.2725 118.177 64.2725 117.834C64.2725 117.491 64.4502 117.25 64.7803 117.136L66.2656 116.666C66.3037 115.993 66.4307 115.358 66.5957 114.724L65.377 113.759C65.123 113.556 65.0215 113.264 65.123 112.946C65.2373 112.642 65.5166 112.451 65.8467 112.477L67.3955 112.527C67.6875 111.918 68.0049 111.359 68.373 110.813L67.5479 109.493C67.3701 109.227 67.3955 108.909 67.6113 108.668C67.8525 108.389 68.1445 108.325 68.4619 108.452L69.8711 109.023C70.3408 108.566 70.874 108.135 71.3945 107.767L71.0771 106.269C71.001 105.913 71.1279 105.621 71.4072 105.469C71.7246 105.304 72.0293 105.329 72.2705 105.57L73.4131 106.586C74.0225 106.307 74.6318 106.104 75.2666 105.913L75.4951 104.39C75.5332 104.06 75.7617 103.818 76.0791 103.755C76.4219 103.717 76.7012 103.856 76.8408 104.136L77.5771 105.52C77.9199 105.494 78.2246 105.481 78.5674 105.481C78.8975 105.481 79.2148 105.494 79.5576 105.52L80.2812 104.136C80.4209 103.856 80.7002 103.717 81.043 103.755C81.3604 103.818 81.5889 104.06 81.6396 104.39L81.8555 105.913C82.4902 106.104 83.1123 106.319 83.709 106.586L84.8516 105.57C85.0928 105.329 85.3975 105.291 85.7148 105.469C85.9941 105.621 86.1211 105.913 86.0449 106.269L85.7275 107.767C86.2607 108.135 86.7812 108.566 87.251 109.023L88.6602 108.452C88.9775 108.325 89.2822 108.389 89.5234 108.668C89.7266 108.909 89.752 109.227 89.5742 109.493L88.749 110.813C89.1299 111.359 89.4346 111.918 89.7266 112.527L91.2881 112.477C91.6182 112.451 91.8848 112.642 91.999 112.946C92.1006 113.264 91.999 113.556 91.7451 113.759L90.5264 114.724C90.6914 115.358 90.8184 115.993 90.8818 116.679L92.3418 117.136C92.6719 117.25 92.8623 117.491 92.8623 117.834C92.8623 118.177 92.6719 118.418 92.3418 118.52L90.8818 118.989C90.8184 119.675 90.6914 120.322 90.5264 120.944L91.7451 121.909C92.0117 122.112 92.1006 122.417 91.999 122.734C91.8848 123.039 91.6182 123.229 91.2881 123.204L89.7266 123.128C89.4346 123.737 89.1299 124.321 88.749 124.842L89.5742 126.162C89.752 126.454 89.7393 126.771 89.5234 127.013C89.2822 127.292 88.9775 127.368 88.6602 127.229L87.251 126.645C86.7812 127.114 86.2607 127.533 85.7275 127.901L86.0449 129.412C86.1084 129.755 85.9941 130.047 85.7148 130.212C85.3975 130.377 85.0928 130.339 84.8516 130.11L83.709 129.082C83.1123 129.336 82.4902 129.577 81.8555 129.755L81.6396 131.291C81.5889 131.621 81.373 131.862 81.0557 131.926C80.7002 131.964 80.4336 131.824 80.2812 131.532L79.5576 130.148C79.2148 130.174 78.8975 130.199 78.5674 130.199ZM78.542 114.533C80.0781 114.533 81.373 115.574 81.7539 117.009H88.8379C88.4316 111.601 84.1025 107.398 78.5674 107.398C76.917 107.398 75.3682 107.779 73.9971 108.452L77.6279 114.66C77.9199 114.571 78.2246 114.533 78.542 114.533ZM68.2588 117.847C68.2588 121.338 69.8965 124.41 72.4736 126.302L76.1934 120.221C75.584 119.611 75.2158 118.786 75.2158 117.859C75.2158 116.933 75.584 116.095 76.1934 115.498L72.5625 109.303C69.9346 111.194 68.2588 114.305 68.2588 117.847ZM78.542 119.396C79.4053 119.396 80.0654 118.723 80.0654 117.859C80.0654 116.996 79.4053 116.323 78.542 116.323C77.666 116.323 77.0059 116.996 77.0059 117.859C77.0059 118.723 77.666 119.396 78.542 119.396ZM78.5674 128.282C84.1152 128.282 88.457 124.055 88.8506 118.646H81.7666C81.4111 120.106 80.1035 121.186 78.542 121.186C78.2246 121.186 77.9199 121.135 77.6406 121.059L73.8955 127.178C75.292 127.889 76.8789 128.282 78.5674 128.282Z" fill="black"/>
<path d="M95.5674 105.199C95.2246 105.199 94.9072 105.174 94.5771 105.148L93.8408 106.532C93.6885 106.824 93.4219 106.964 93.0791 106.926C92.7617 106.862 92.5332 106.621 92.4951 106.291L92.2666 104.755C91.6318 104.577 91.0225 104.336 90.4131 104.082L89.2705 105.11C89.0293 105.339 88.7246 105.377 88.4072 105.212C88.1279 105.047 88.0137 104.755 88.0771 104.412L88.3945 102.901C87.874 102.533 87.3408 102.114 86.8711 101.645L85.4619 102.229C85.1445 102.368 84.8525 102.292 84.6113 102.013C84.3955 101.771 84.3701 101.454 84.5479 101.162L85.373 99.8418C85.0049 99.3213 84.6875 98.7373 84.3955 98.1279L82.8467 98.2041C82.5166 98.2295 82.2373 98.0391 82.123 97.7344C82.0342 97.4043 82.123 97.0996 82.377 96.9092L83.5957 95.9443C83.4307 95.3223 83.3037 94.6748 83.2656 93.9893L81.7803 93.5195C81.4502 93.418 81.2725 93.1768 81.2725 92.834C81.2725 92.4912 81.4502 92.25 81.7803 92.1357L83.2656 91.666C83.3037 90.9932 83.4307 90.3584 83.5957 89.7236L82.377 88.7588C82.123 88.5557 82.0215 88.2637 82.123 87.9463C82.2373 87.6416 82.5166 87.4512 82.8467 87.4766L84.3955 87.5273C84.6875 86.918 85.0049 86.3594 85.373 85.8135L84.5479 84.4932C84.3701 84.2266 84.3955 83.9092 84.6113 83.668C84.8525 83.3887 85.1445 83.3252 85.4619 83.4521L86.8711 84.0234C87.3408 83.5664 87.874 83.1348 88.3945 82.7666L88.0771 81.2686C88.001 80.9131 88.1279 80.6211 88.4072 80.4688C88.7246 80.3037 89.0293 80.3291 89.2705 80.5703L90.4131 81.5859C91.0225 81.3066 91.6318 81.1035 92.2666 80.9131L92.4951 79.3896C92.5332 79.0596 92.7617 78.8184 93.0791 78.7549C93.4219 78.7168 93.7012 78.8564 93.8408 79.1357L94.5771 80.5195C94.9199 80.4941 95.2246 80.4814 95.5674 80.4814C95.8975 80.4814 96.2148 80.4941 96.5576 80.5195L97.2812 79.1357C97.4209 78.8564 97.7002 78.7168 98.043 78.7549C98.3604 78.8184 98.5889 79.0596 98.6396 79.3896L98.8555 80.9131C99.4902 81.1035 100.112 81.3193 100.709 81.5859L101.852 80.5703C102.093 80.3291 102.397 80.291 102.715 80.4688C102.994 80.6211 103.121 80.9131 103.045 81.2686L102.728 82.7666C103.261 83.1348 103.781 83.5664 104.251 84.0234L105.66 83.4521C105.978 83.3252 106.282 83.3887 106.523 83.668C106.727 83.9092 106.752 84.2266 106.574 84.4932L105.749 85.8135C106.13 86.3594 106.435 86.918 106.727 87.5273L108.288 87.4766C108.618 87.4512 108.885 87.6416 108.999 87.9463C109.101 88.2637 108.999 88.5557 108.745 88.7588L107.526 89.7236C107.691 90.3584 107.818 90.9932 107.882 91.6787L109.342 92.1357C109.672 92.25 109.862 92.4912 109.862 92.834C109.862 93.1768 109.672 93.418 109.342 93.5195L107.882 93.9893C107.818 94.6748 107.691 95.3223 107.526 95.9443L108.745 96.9092C109.012 97.1123 109.101 97.417 108.999 97.7344C108.885 98.0391 108.618 98.2295 108.288 98.2041L106.727 98.1279C106.435 98.7373 106.13 99.3213 105.749 99.8418L106.574 101.162C106.752 101.454 106.739 101.771 106.523 102.013C106.282 102.292 105.978 102.368 105.66 102.229L104.251 101.645C103.781 102.114 103.261 102.533 102.728 102.901L103.045 104.412C103.108 104.755 102.994 105.047 102.715 105.212C102.397 105.377 102.093 105.339 101.852 105.11L100.709 104.082C100.112 104.336 99.4902 104.577 98.8555 104.755L98.6396 106.291C98.5889 106.621 98.373 106.862 98.0557 106.926C97.7002 106.964 97.4336 106.824 97.2812 106.532L96.5576 105.148C96.2148 105.174 95.8975 105.199 95.5674 105.199ZM95.542 89.5332C97.0781 89.5332 98.373 90.5742 98.7539 92.0088H105.838C105.432 86.6006 101.103 82.3984 95.5674 82.3984C93.917 82.3984 92.3682 82.7793 90.9971 83.4521L94.6279 89.6602C94.9199 89.5713 95.2246 89.5332 95.542 89.5332ZM85.2588 92.8467C85.2588 96.3379 86.8965 99.4102 89.4736 101.302L93.1934 95.2207C92.584 94.6113 92.2158 93.7861 92.2158 92.8594C92.2158 91.9326 92.584 91.0947 93.1934 90.498L89.5625 84.3027C86.9346 86.1943 85.2588 89.3047 85.2588 92.8467ZM95.542 94.3955C96.4053 94.3955 97.0654 93.7227 97.0654 92.8594C97.0654 91.9961 96.4053 91.3232 95.542 91.3232C94.666 91.3232 94.0059 91.9961 94.0059 92.8594C94.0059 93.7227 94.666 94.3955 95.542 94.3955ZM95.5674 103.282C101.115 103.282 105.457 99.0547 105.851 93.6465H98.7666C98.4111 95.1064 97.1035 96.1855 95.542 96.1855C95.2246 96.1855 94.9199 96.1348 94.6406 96.0586L90.8955 102.178C92.292 102.889 93.8789 103.282 95.5674 103.282Z" fill="black"/>
</svg>
