<svg width="775" height="140" viewBox="0 0 775 140" fill="none" xmlns="http://www.w3.org/2000/svg">
<path d="M21.5093 3H752.569C762.514 3 771.078 12.0156 771.078 23.7876V116.212C771.078 127.984 762.514 137 752.569 137H21.5093C11.5639 137 3 127.984 3 116.212V23.7876C3 12.0156 11.5639 3 21.5093 3Z" fill="#2B3C12" fill-opacity="0.76" stroke="#57EB23" stroke-width="6"/>
<path d="M85.0474 1V135M183.94 1V135M283.311 1V135M382.203 1V135M481.574 1V135M580.467 1V135M675.538 1V135" stroke="#57EB23" stroke-width="0.2"/>
<path d="M773.989 35.7852L0.0615717 35.9179M773.995 72.3935L0.0673115 72.5262M774 107.587L0.0728295 107.72" stroke="#57EB23" stroke-width="0.2"/>
<path d="M26.7161 43.7885L29.6065 53.7039C29.6065 53.7039 28.2725 49.557 25.6362 54.3158C23 59.0747 32.4968 71.4689 32.4968 71.4689L35.8 83.0369L40.7549 88.4077L36.7529 90.337L36.2129 94.1917L23 97.91C45.7097 122.698 63.8774 123.525 87 99.3423L72.7707 95.9117L69.6581 90.337L67.4347 92.4811L68.8323 87.1683L74.2 80.9712L77.0903 71.8821C77.0903 71.8821 87.8258 61.1404 84.332 53.4579C83.5201 51.6726 80.3936 54.117 80.3936 54.117L83.4427 42.7376C83.4427 35.8763 79.2265 30.3752 76.328 27.2998C60.5655 10.5756 36.7529 24.2981 36.7529 24.2981C36.7529 24.2981 28.9395 28.7796 26.7161 43.7885Z" stroke="#57EB23" stroke-width="3"/>
<g style="mix-blend-mode:luminosity">
<path d="M45.4686 99.1775L42.374 85.5612L68.3687 84.6328L65.8931 99.1775H45.4686Z" fill="#E7D5BF" stroke="black"/>
<path d="M26.5918 99.1775L38.9702 95.1545L55.3717 102.581L71.1542 96.0829L86.0083 99.1775C76.7245 111.246 52.5865 131.671 26.5918 99.1775Z" fill="#124D1E" stroke="black" stroke-width="0.6"/>
<path d="M52.14 102.835L51.1184 98.7488H55.4294H59.7783L59.0124 102.834L55.4368 104.209L52.14 102.835Z" fill="#18341F" stroke="black"/>
<path d="M42.993 89.8936H39.8984L43.9214 92.6787L42.993 89.8936Z" fill="#091B0D" stroke="black" stroke-width="0.6"/>
<path d="M53.2052 99.487L43.3025 92.3694L39.5889 90.2031L38.3511 94.5356L53.2052 104.748V99.487Z" fill="#02310C" stroke="black"/>
<path d="M67.4401 90.5122H70.5347L66.5117 93.2974L67.4401 90.5122Z" fill="#091B0D" stroke="black" stroke-width="0.6"/>
<path d="M57.2284 99.7965L67.1311 92.6789L70.8447 90.5127L72.0825 94.8451L57.2284 105.057V99.7965Z" fill="#02310C" stroke="black"/>
<path d="M36.7913 80.6581L30.406 53.3935C30.319 53.0199 30.2789 52.6368 30.2872 52.2536C30.58 38.3807 43.1987 27.6409 56.9361 28.6226C69.8987 29.5497 80.382 40.6658 79.7577 53.7302C79.7397 54.0916 79.6803 54.4501 79.5781 54.7992C77.2812 62.6512 74.9856 70.5032 72.6887 78.3552C72.5008 78.9988 72.1707 79.5987 71.7232 80.1141L62.8628 90.3071C61.9084 91.4047 60.4858 92.0414 58.9858 92.0414H52.1571C51.0466 92.0414 49.9679 91.6923 49.0895 91.0502L38.6297 83.4013C37.6973 82.7196 37.0468 81.7488 36.7927 80.6594L36.7913 80.6581Z" fill="#FFE8D4"/>
<path d="M50.4206 48.1536C46.085 48.11 41.7494 48.0663 37.4138 48.0227L34.168 50.5532L51.3833 49.9956L50.4206 48.1536Z" fill="#460000"/>
<path d="M60.2483 48.1536C64.5839 48.11 68.9195 48.0663 73.2551 48.0227L76.5009 50.5532L59.2856 49.9956L60.2483 48.1536Z" fill="#460000"/>
<path opacity="0.82" d="M50.7431 56.9041C51.0166 56.6996 51.3936 56.3464 51.3853 55.9169C51.3757 55.4425 50.9019 55.133 50.3356 54.6939C49.7928 54.274 49.0691 53.6618 48.2611 52.811H41.1065L35.3979 55.9169C37.275 56.8509 39.1534 57.7862 41.0305 58.7202C42.3564 58.3057 43.8564 57.9089 45.5166 57.5858C47.4254 57.2136 49.1851 57.0091 50.7431 56.9041Z" fill="white"/>
<path d="M41.1641 52.8101C40.8409 54.9547 42.6019 56.7558 44.4748 56.7586C46.3491 56.7599 48.1156 54.9575 47.7924 52.8101H41.1641Z" fill="#42210B"/>
<path opacity="0.82" d="M59.6507 57.1018C59.38 56.9123 59.0001 56.5824 58.9808 56.1515C58.9587 55.677 59.3841 55.3416 59.891 54.8712C60.3744 54.4227 61.0181 53.7709 61.7239 52.8765C63.9738 52.7429 66.2238 52.6107 68.4724 52.4771L74.0608 55.2585C72.3508 56.296 70.6409 57.3336 68.931 58.3698C67.6506 58.0031 66.1644 57.6622 64.4987 57.425C62.6962 57.1686 61.0609 57.0896 59.6479 57.0991L59.6507 57.1018Z" fill="white"/>
<path d="M68.9794 52.4486C69.4421 54.5701 67.8026 56.4721 65.9352 56.5839C64.0651 56.6971 62.1825 55.001 62.3648 52.8386C64.5692 52.7077 66.775 52.5782 68.9794 52.4473V52.4486Z" fill="#42210B"/>
<path opacity="0.35" d="M34.0044 68.7704L49.0457 91.0203L38.3345 83.186C37.5914 82.642 37.072 81.8689 36.869 80.999L34.0044 68.769V68.7704Z" fill="#C59B6D"/>
<path opacity="0.35" d="M76.3699 65.7568L62.457 90.769L72.3989 79.3312L76.3699 65.7568Z" fill="#C59B6D"/>
<path d="M36.7417 82.2556L30.3888 54.876C30.3022 54.5008 30.2623 54.1161 30.2706 53.7313C30.5619 39.7998 43.1166 29.0147 56.7843 30.0006C69.6811 30.9316 80.1112 42.0946 79.4901 55.2142C79.4722 55.577 79.4132 55.9371 79.3115 56.2876C77.0262 64.1727 74.7423 72.0579 72.457 79.9431C72.2701 80.5893 71.9417 81.1918 71.4964 81.7093L62.681 91.9454C61.7314 93.0476 60.316 93.687 58.8236 93.687H52.0296C50.9247 93.687 49.8515 93.3364 48.9775 92.6916L38.5707 85.0104C37.6431 84.3258 36.9959 83.351 36.743 82.257L36.7417 82.2556Z" fill="#FFE8D4"/>
<path d="M58.7952 93.687H52.0501C50.9205 93.687 49.8059 93.322 48.9109 92.6615L38.5791 85.0201C37.6268 84.316 36.9597 83.3082 36.6991 82.1833L30.392 54.9501C30.3033 54.5647 30.2624 54.167 30.2706 53.7707C30.4097 47.1016 33.463 40.6818 38.6487 36.1591C43.6761 31.7752 50.2834 29.5295 56.7842 29.9993C69.9182 30.9486 80.104 42.2793 79.4901 55.2565C79.4724 55.631 79.411 56.0028 79.3073 56.3623L72.5022 79.8899C72.3085 80.5599 71.9756 81.1728 71.5145 81.7094L62.7612 91.892C61.7816 93.0319 60.3355 93.687 58.7952 93.687ZM55.0788 30.2799C49.2301 30.2799 43.4101 32.467 38.8874 36.4124C33.7741 40.8725 30.7631 47.2011 30.6253 53.7775C30.6171 54.1466 30.6553 54.517 30.7385 54.8765L37.0456 82.1084C37.2885 83.1557 37.9092 84.094 38.796 84.749L49.1278 92.3905C49.96 93.006 50.9982 93.3451 52.0501 93.3451H58.7952C60.229 93.3451 61.5742 92.7364 62.4869 91.6755L71.2402 81.4942C71.67 80.9944 71.9797 80.4238 72.1598 79.8L78.9649 56.2711C79.0617 55.9374 79.119 55.5901 79.1354 55.2415C79.7398 42.4468 69.7013 31.2768 56.7583 30.3412C56.2003 30.3003 55.6396 30.2812 55.0816 30.2812L55.0788 30.2799Z" fill="black"/>
<path d="M50.3307 48.1194C45.9951 48.0758 41.6595 48.0322 37.3239 47.9885L34.0781 50.5191L51.2934 49.9614L50.3307 48.1194Z" fill="#460000"/>
<path d="M33.5532 50.707L37.2604 47.8179L50.4439 47.9501L51.5807 50.1234L33.5546 50.707H33.5532ZM37.3874 48.1601L34.6029 50.3307L51.0075 49.8003L50.2174 48.2896L37.3861 48.1601H37.3874Z" fill="black"/>
<path d="M60.1575 48.1194C64.4931 48.0758 68.8287 48.0322 73.1643 47.9885L76.4101 50.5191L59.1948 49.9614L60.1575 48.1194Z" fill="#460000"/>
<path d="M76.9352 50.707L58.9092 50.1234L60.0459 47.9501L73.2295 47.8179L76.9366 50.707H76.9352ZM59.481 49.8003L75.8855 50.3307L73.101 48.1601L60.2697 48.2896L59.4796 49.8003H59.481Z" fill="black"/>
<path d="M50.6075 56.817C51.3782 55.8517 50.852 55.6376 49.9487 55.0868C49.1172 54.5455 48.3479 53.9088 47.6932 53.1835L48.1683 53.3839C45.7899 53.1835 43.4087 52.7513 41.0137 53.1548L41.2126 53.1044C39.4585 54.3615 37.6021 55.4931 35.6864 56.513L35.6615 55.2382C36.5897 55.7276 37.4944 56.2566 38.3825 56.8116C39.2679 57.3747 40.1449 57.9541 40.9709 58.6249L40.9046 58.7463C38.83 58.2009 36.877 57.4101 34.9502 56.5266L33.7251 55.9512C35.9751 54.6083 38.3632 53.418 40.8162 52.4486L40.9557 52.3913C41.5717 52.4622 42.1877 52.5249 42.8037 52.5522C44.6974 52.6967 46.5565 52.2086 48.4349 52.1609L48.6448 52.3695C49.2981 53.0185 49.9376 53.6729 50.6241 54.2974C51.2346 54.8182 52.0757 55.6935 51.3506 56.4789C51.16 56.6902 50.9307 56.8238 50.6973 56.9247L50.6075 56.817Z" fill="black"/>
<path opacity="0.82" d="M50.6518 56.8713C50.9253 56.6668 51.3023 56.3137 51.294 55.8842C51.2844 55.4097 50.8106 55.1002 50.2443 54.6612C49.7015 54.2413 48.9778 53.6291 48.1698 52.7783H41.0151L35.3066 55.8842C37.1837 56.8182 39.0621 57.7535 40.9392 58.6874C42.2651 58.273 43.7651 57.8762 45.4253 57.5531C47.3341 57.1808 49.0938 56.9763 50.6518 56.8713Z" fill="white"/>
<path d="M41.0737 52.7764C40.7505 54.921 42.5115 56.7221 44.3845 56.7249C46.2587 56.7262 48.0253 54.9238 47.7021 52.7764H41.0737Z" fill="#42210B"/>
<path d="M44.3861 56.8955H44.3834C43.4345 56.8955 42.4953 56.4633 41.8102 55.712C41.0685 54.8994 40.7342 53.8196 40.8958 52.752L40.9179 52.6047H47.8585L47.8806 52.752C48.0422 53.8209 47.7065 54.9008 46.9621 55.7134C46.2742 56.4646 45.3364 56.8955 44.3861 56.8955ZM41.2329 52.947C41.1362 53.8673 41.4414 54.7862 42.0823 55.487C42.6997 56.1633 43.5381 56.5519 44.3834 56.5532H44.3861C45.2314 56.5532 46.0712 56.166 46.69 55.4898C47.3322 54.789 47.6375 53.8686 47.5422 52.947H41.2342H41.2329Z" fill="black"/>
<path d="M59.5546 57.1232C58.0022 56.5205 58.487 55.3834 59.4552 54.4972C60.0988 53.8332 60.6941 53.1433 61.3046 52.4561L61.5007 52.2353C62.7839 52.1725 64.0767 52.373 65.3612 52.3866C66.5794 52.3961 67.7838 52.2393 68.9813 52.0239C71.1084 52.7179 73.1829 53.5605 75.1871 54.5231L76.4301 55.1489C75.1429 55.8593 73.7658 56.5996 72.4205 57.1954C71.455 57.6249 70.4799 58.038 69.4482 58.3639L69.3736 58.2466C70.9371 56.8423 72.6595 55.6629 74.4509 54.5531L74.5089 55.8265C72.531 54.9212 70.6028 53.9014 68.77 52.7506L68.9716 52.7888C66.5545 52.5284 64.2065 53.0983 61.846 53.4392L62.3074 53.2101C61.7024 53.9736 60.9759 54.654 60.1817 55.243C59.3198 55.8429 58.8019 56.0924 59.6375 57.0086L59.556 57.1204L59.5546 57.1232Z" fill="black"/>
<path opacity="0.82" d="M59.5594 57.0691C59.2887 56.8796 58.9088 56.5496 58.8895 56.1188C58.8674 55.6443 59.2928 55.3089 59.7997 54.8385C60.2831 54.39 60.9268 53.7382 61.6326 52.8438C63.8825 52.7102 66.1325 52.578 68.3811 52.4443L73.9695 55.2257C72.2595 56.2633 70.5496 57.3009 68.8397 58.3371C67.5593 57.9703 66.0731 57.6295 64.4074 57.3922C62.6049 57.1359 60.9696 57.0568 59.5566 57.0664L59.5594 57.0691Z" fill="white"/>
<path d="M68.8866 52.4159C69.3493 54.5374 67.7098 56.4394 65.8424 56.5512C63.9723 56.6644 62.0897 54.9683 62.272 52.8059C64.4764 52.675 66.6822 52.5454 68.8866 52.4146V52.4159Z" fill="#42210B"/>
<path d="M65.664 56.728C64.7773 56.728 63.8892 56.3585 63.2027 55.6958C62.4058 54.9282 62.0011 53.8702 62.0922 52.7931L62.1047 52.6458L69.0314 52.2368L69.0632 52.3813C69.2938 53.4366 69.0314 54.5342 68.3436 55.3891C67.7082 56.1799 66.8008 56.6652 65.8533 56.7225C65.7897 56.7266 65.7262 56.728 65.664 56.728ZM62.4431 52.9676C62.4072 53.8934 62.7732 54.7933 63.461 55.4559C64.124 56.0953 64.99 56.4321 65.8325 56.3817C66.6764 56.3312 67.4872 55.8935 68.059 55.1818C68.6516 54.4442 68.896 53.5089 68.74 52.5954L62.4431 52.9676Z" fill="black"/>
<path d="M53.3514 54.3922C53.8059 55.9725 53.8501 57.6249 53.6774 59.2447C53.6263 61.9388 53.2617 64.7312 51.9716 67.1635L51.9385 67.1512C52.7161 64.0208 53.8197 60.8685 53.4827 57.6249L53.3169 54.3963L53.3528 54.3909L53.3514 54.3922Z" fill="black"/>
<path d="M54.2747 72.5535C53.6504 72.5535 53.1144 72.2113 52.9225 72.0885C51.9584 71.4709 51.5205 70.631 51.5026 70.5956C50.9625 69.6834 50.2982 69.1558 49.765 68.7318C49.1849 68.2709 48.7264 67.9055 48.8065 67.292C48.87 66.8066 49.2678 66.3553 49.9874 65.9545L50.1697 66.249C49.5523 66.5939 49.2126 66.9593 49.1642 67.3342C49.1103 67.7433 49.4128 68.0051 49.9971 68.4686C50.5523 68.9104 51.2443 69.4598 51.823 70.4361C51.8313 70.4524 52.2443 71.2391 53.1241 71.8036C53.3327 71.9372 53.8879 72.2944 54.4832 72.1935C55.1061 72.0885 55.9003 71.2105 56.4818 70.5697C56.7346 70.2902 56.9542 70.0488 57.142 69.8811C57.8478 69.2499 58.4652 68.9145 58.9624 68.6431C59.7207 68.2314 60.0343 68.0596 59.8616 67.2906C59.7511 66.7943 59.1517 66.3526 58.0812 65.9776L58.2056 65.6572C59.4169 66.0813 60.0729 66.5925 60.2138 67.2197C60.4403 68.2341 59.9238 68.515 59.142 68.9404C58.6627 69.2008 58.0647 69.5267 57.3906 70.1293C57.2166 70.2847 56.9929 70.5315 56.7567 70.7919C56.1061 71.5091 55.2967 72.4035 54.5481 72.5289C54.457 72.5439 54.3658 72.5507 54.2774 72.5507L54.2747 72.5535Z" fill="black"/>
<path opacity="0.35" d="M33.9175 70.1693L48.9588 92.4192L38.2475 84.5849C37.5045 84.0409 36.9851 83.2678 36.7821 82.398L33.9175 70.168V70.1693Z" fill="#C59B6D"/>
<path opacity="0.35" d="M75.7962 67.6921L61.8848 92.7043L71.8266 81.2665L75.7962 67.6921Z" fill="#C59B6D"/>
<path d="M55.0102 57.9497C55.2049 59.1182 55.2422 60.2689 55.3279 61.4387C55.6966 63.3571 56.5046 65.1432 57.0557 67.0275L57.0226 67.0411C55.8707 65.3722 55.4826 63.398 55.2118 61.4551C54.9453 60.3371 54.7008 59.0323 55.0102 57.9497Z" fill="black"/>
<path d="M30.8586 55.377C29.3296 53.0278 26.7329 53.5023 26.5589 53.7586C26.3918 54.0054 26.3089 54.2931 26.2992 54.5862C26.2357 56.4909 26.3766 58.9274 27.1128 61.6488C28.6749 67.4175 32.6804 69.9589 34.6141 71.8527C33.661 66.3254 32.0022 60.7053 30.8586 55.3784V55.377Z" fill="#FFE5D1"/>
<path d="M30.7663 55.3433C29.2373 52.9941 26.6407 53.4686 26.4666 53.7249C26.2995 53.9717 26.2166 54.2594 26.207 54.5525C26.1434 56.4572 26.2843 58.8937 27.0205 61.6151C28.5826 67.3838 32.5881 69.9252 34.5218 71.8191C33.5688 66.2917 31.9099 60.6716 30.7663 55.3447V55.3433Z" fill="#FFE5D1"/>
<path d="M34.7927 72.3293L34.3922 71.938C34.051 71.604 33.6366 71.2413 33.196 70.8582C31.0635 68.9971 28.1436 66.4502 26.8467 61.6577C26.2224 59.3494 25.9461 56.958 26.0276 54.5474C26.0387 54.2106 26.1381 53.8943 26.3163 53.6325C26.453 53.4308 27.0152 53.3285 27.5165 53.3339C28.1685 53.3394 29.8038 53.5385 30.9212 55.2523L30.9447 55.3082C31.395 57.4038 31.935 59.5921 32.4599 61.7095C33.2775 65.0158 34.1228 68.4326 34.7016 71.7908L34.7941 72.3293H34.7927ZM27.4806 53.6762C27.0041 53.6762 26.6712 53.7743 26.6077 53.8289C26.4751 54.0266 26.395 54.2829 26.3867 54.5583C26.3066 56.9361 26.5787 59.2962 27.1947 61.5732C28.4654 66.2661 31.3397 68.7748 33.4391 70.6059C33.7237 70.8541 33.9985 71.094 34.2513 71.3245C33.6781 68.1463 32.8797 64.9177 32.1063 61.7886C31.5842 59.6794 31.0455 57.4992 30.5952 55.4077C29.79 54.1888 28.721 53.8111 27.9641 53.7089C27.7914 53.6857 27.6284 53.6762 27.4806 53.6762Z" fill="black"/>
<path d="M32.4389 68.0478C29.1406 65.0073 28.095 62.5 27.4555 60.2449C26.979 58.5624 26.4293 55.1429 27.3174 54.8648C27.8657 54.6957 28.6447 55.6583 29.8878 57.503C30.3629 58.2079 30.693 58.8214 30.9126 59.2264C31.3215 59.9844 31.693 60.7725 32.0176 61.5688L31.682 61.6915C31.3615 60.9061 30.9955 60.129 30.5922 59.3818C30.3767 58.981 30.0494 58.377 29.5839 57.6857C29.1475 57.0381 27.827 55.0693 27.4293 55.1879C27.0715 55.2997 27.0978 57.668 27.8022 60.1549C28.4279 62.3636 29.4527 64.8192 32.6875 67.8024L32.4361 68.0478H32.4389Z" fill="black"/>
<path d="M28.0222 59.123C27.8385 58.4495 27.8109 57.7678 27.9407 57.0997C28.0278 56.6498 28.1714 56.0649 28.3164 55.7717L28.6438 55.9149C28.5139 56.1794 28.3758 56.752 28.2957 57.1611C28.1755 57.7801 28.2018 58.4113 28.3717 59.0372L28.0222 59.123Z" fill="black"/>
<path d="M32.4751 64.7621C32.4571 64.7525 30.7099 63.6427 30.6188 61.8621C30.5801 61.0958 30.8688 60.6691 31.0607 60.3882L31.1201 60.2996L31.4268 60.4795L31.3632 60.5736C31.1864 60.834 30.9447 61.1899 30.9779 61.8457C31.0594 63.4355 32.6353 64.4567 32.6519 64.4649L32.4737 64.7621H32.4751Z" fill="black"/>
<path opacity="0.35" d="M32.5378 68.1459C30.6055 66.4007 29.5116 64.6459 28.9135 63.4966C28.7118 63.1107 28.0668 61.8305 27.6055 60.0266C27.1898 58.3987 26.6994 55.4646 27.3486 55.2464C27.995 55.0297 29.5544 57.5752 30.1207 58.4996C30.6428 59.3517 30.8638 59.8752 31.0999 60.3906C30.9936 60.5283 30.8886 60.666 30.7823 60.8037C30.6704 61.1214 30.3776 62.0415 30.7823 62.399C30.9853 63.8933 32.3168 64.7032 32.5364 64.8327V68.1459H32.5378Z" fill="#C59B6D"/>
<path d="M78.4827 56.0394C80.0117 53.6902 82.6084 54.1646 82.7824 54.421C82.9495 54.6677 83.0324 54.9554 83.0421 55.2486C83.1056 57.1533 82.9647 59.5897 82.2285 62.3112C80.6664 68.0798 76.6609 70.6213 74.7272 72.5151C75.6803 66.9877 77.3391 61.3677 78.4827 56.0407V56.0394Z" fill="#FFE5D1"/>
<path d="M78.575 56.0062C80.104 53.657 82.7007 54.1314 82.8747 54.3878C83.0418 54.6345 83.1247 54.9222 83.1344 55.2154C83.1979 57.1201 83.057 59.5565 82.3208 62.278C80.7587 68.0466 76.7532 70.5881 74.8195 72.4819C75.7726 66.9545 77.4314 61.3345 78.575 56.0075V56.0062Z" fill="#FFE5D1"/>
<path d="M74.5491 72.9917L74.9496 72.6004C75.2908 72.2663 75.7052 71.9036 76.1458 71.5205C78.2783 69.6594 81.1982 67.1125 82.4951 62.3201C83.1194 60.0118 83.3957 57.6203 83.3142 55.2098C83.3031 54.873 83.2037 54.5567 83.0255 54.2949C82.8888 54.0931 82.3266 53.9908 81.8253 53.9963C81.1733 54.0018 79.538 54.2008 78.4206 55.9147L78.3971 55.9706C77.9468 58.0662 77.4068 60.2545 76.8819 62.3719C76.0643 65.6782 75.219 69.095 74.6402 72.4531L74.5477 72.9917H74.5491ZM81.8612 54.3385C82.3377 54.3385 82.6705 54.4367 82.7341 54.4912C82.8667 54.6889 82.9468 54.9453 82.9551 55.2207C83.0352 57.5985 82.7631 59.9586 82.1471 62.2355C80.8764 66.9285 78.0021 69.4372 75.9027 71.2683C75.6181 71.5164 75.3433 71.7564 75.0905 71.9868C75.6637 68.8087 76.462 65.58 77.2355 62.451C77.7576 60.3417 78.2963 58.1616 78.7466 56.0701C79.5518 54.8512 80.6208 54.4735 81.3777 54.3712C81.5504 54.3481 81.7134 54.3385 81.8612 54.3385Z" fill="black"/>
<path d="M76.9024 68.7106C80.2007 65.6702 81.2463 63.1628 81.8858 60.9077C82.3623 59.2252 82.912 55.8057 82.0239 55.5276C81.4756 55.3585 80.6966 56.3211 79.4535 58.1658C78.9784 58.8707 78.6483 59.4843 78.4287 59.8892C78.0198 60.6473 77.6483 61.4354 77.3237 62.2316L77.6593 62.3543C77.9798 61.569 78.3458 60.7918 78.7491 60.0447C78.9646 59.6438 79.2919 59.0398 79.7574 58.3485C80.1938 57.7009 81.5143 55.7321 81.9121 55.8507C82.2698 55.9625 82.2435 58.3308 81.5391 60.8177C80.9134 63.0265 79.8886 65.482 76.6538 68.4652L76.9052 68.7106H76.9024Z" fill="black"/>
<path d="M81.3196 59.7854C81.5033 59.1119 81.5309 58.4301 81.4011 57.7621C81.314 57.3121 81.1704 56.7272 81.0254 56.4341L80.698 56.5772C80.8279 56.8417 80.966 57.4144 81.0461 57.8234C81.1663 58.4424 81.14 59.0737 80.9701 59.6995L81.3196 59.7854Z" fill="black"/>
<path d="M76.8667 65.4247C76.8847 65.4151 78.6319 64.3053 78.723 62.5247C78.7617 61.7584 78.473 61.3317 78.2811 61.0508L78.2217 60.9622L77.915 61.1421L77.9786 61.2362C78.1554 61.4966 78.3971 61.8525 78.3639 62.5083C78.2824 64.0981 76.7065 65.1193 76.6899 65.1275L76.8681 65.4247H76.8667Z" fill="black"/>
<path opacity="0.35" d="M76.804 68.8087C78.7363 67.0635 79.8302 65.3088 80.4283 64.1594C80.6299 63.7736 81.275 62.4933 81.7363 60.6895C82.152 59.0615 82.6424 56.1274 81.9932 55.9093C81.3468 55.6925 79.7874 58.238 79.2211 59.1624C78.699 60.0146 78.478 60.538 78.2418 61.0534C78.3482 61.1911 78.4532 61.3288 78.5595 61.4665C78.6714 61.7842 78.9642 62.7044 78.5595 63.0619C78.3565 64.5562 77.025 65.3661 76.8054 65.4956V68.8087H76.804Z" fill="#C59B6D"/>
<path d="M62.6592 77.7984L60.023 79.5115C59.7954 79.6597 59.5248 79.7395 59.2493 79.7395H50.7949C50.2901 79.7395 49.8018 79.5799 49.4026 79.2868L47.3801 77.7984H62.6592Z" fill="white"/>
<path d="M46.685 77.5949H63.2871L60.0785 79.6809C59.8129 79.8535 59.5044 79.9431 59.1828 79.9431H50.7283C50.179 79.9431 49.6379 79.7672 49.204 79.4481L46.685 77.5949ZM61.8981 78.0036H47.942L49.468 79.1256C49.8259 79.3894 50.2746 79.5344 50.7283 79.5344H59.1828C59.417 79.5344 59.643 79.4676 59.836 79.3422L61.8997 78.002L61.8981 78.0036Z" fill="black"/>
<path opacity="0.35" d="M50.9417 80.0708C51.9153 80.2697 53.0457 80.4909 54.0193 80.6897H55.1591C56.2375 80.4909 57.1592 80.2697 58.2368 80.0708H50.9409H50.9417Z" fill="#C5806D"/>
<path d="M28.7578 44.6175L32.4713 60.4947L34.0187 44.6175L39.5889 38.4283C53.7892 38.4283 60.8549 37.2464 73.3202 37.8093L78.8905 45.5459L79.5094 59.2567L83.223 44.6175C83.223 44.6175 83.0714 39.9782 81.9851 37.285C80.2376 32.9525 77.6527 30.4769 77.6527 30.4769C63.0846 12.2887 37.7322 23.2653 32.4713 32.2389C32.4713 32.2389 30.9127 35.0936 29.9957 38.4283C29.3547 40.7591 28.7578 44.6175 28.7578 44.6175Z" fill="#5F3232" stroke="black" stroke-linecap="round"/>
</g>
<path d="M147.3 53L143.23 41.51C143.263 41.7633 143.303 42.09 143.35 42.49C143.397 42.89 143.44 43.3433 143.48 43.85C143.527 44.3567 143.563 44.8933 143.59 45.46C143.623 46.0267 143.64 46.6 143.64 47.18V53H141.26V39.17H144.74L148.77 50.64C148.717 50.3 148.657 49.85 148.59 49.29C148.53 48.73 148.477 48.0867 148.43 47.36C148.383 46.6333 148.36 45.86 148.36 45.04V39.17H150.74V53H147.3ZM161.732 50.21C161.732 50.6167 161.792 50.9133 161.912 51.1C162.032 51.28 162.226 51.4167 162.492 51.51L161.922 53.28C161.356 53.22 160.872 53.08 160.472 52.86C160.079 52.6333 159.776 52.2967 159.562 51.85C159.162 52.3367 158.656 52.7 158.042 52.94C157.436 53.18 156.799 53.3 156.132 53.3C155.052 53.3 154.196 52.9933 153.562 52.38C152.929 51.7667 152.612 50.97 152.612 49.99C152.612 48.8633 153.052 47.9967 153.932 47.39C154.819 46.7767 156.072 46.47 157.692 46.47H159.172V45.9C159.172 45.2733 158.979 44.82 158.592 44.54C158.206 44.2533 157.649 44.11 156.922 44.11C156.582 44.11 156.156 44.1567 155.642 44.25C155.136 44.3367 154.612 44.4733 154.072 44.66L153.442 42.85C154.116 42.5967 154.792 42.41 155.472 42.29C156.159 42.17 156.782 42.11 157.342 42.11C158.829 42.11 159.932 42.4267 160.652 43.06C161.372 43.6867 161.732 44.5767 161.732 45.73V50.21ZM156.992 51.39C157.392 51.39 157.796 51.2767 158.202 51.05C158.616 50.8233 158.939 50.5067 159.172 50.1V48.04H158.132C157.152 48.04 156.442 48.1967 156.002 48.51C155.569 48.8233 155.352 49.2667 155.352 49.84C155.352 50.3333 155.492 50.7167 155.772 50.99C156.052 51.2567 156.459 51.39 156.992 51.39ZM158.662 40.14C158.289 40.14 157.972 40.0633 157.712 39.91C157.459 39.7567 157.226 39.6033 157.012 39.45C156.806 39.2967 156.589 39.22 156.362 39.22C156.122 39.22 155.926 39.2967 155.772 39.45C155.619 39.5967 155.462 39.8167 155.302 40.11L153.892 39.42C154.139 38.84 154.466 38.3433 154.872 37.93C155.279 37.51 155.762 37.3 156.322 37.3C156.722 37.3 157.049 37.3767 157.302 37.53C157.562 37.6833 157.792 37.8367 157.992 37.99C158.192 38.1433 158.409 38.22 158.642 38.22C158.856 38.22 159.039 38.15 159.192 38.01C159.352 37.8633 159.519 37.6433 159.692 37.35L161.102 38.05C160.842 38.6767 160.502 39.1833 160.082 39.57C159.669 39.95 159.196 40.14 158.662 40.14ZM169.354 42.11C170.408 42.11 171.301 42.34 172.034 42.8C172.768 43.26 173.324 43.91 173.704 44.75C174.091 45.5833 174.284 46.56 174.284 47.68C174.284 48.8267 174.091 49.82 173.704 50.66C173.318 51.5 172.758 52.15 172.024 52.61C171.291 53.07 170.398 53.3 169.344 53.3C168.298 53.3 167.404 53.0767 166.664 52.63C165.931 52.1767 165.371 51.5333 164.984 50.7C164.598 49.86 164.404 48.86 164.404 47.7C164.404 46.5933 164.598 45.62 164.984 44.78C165.371 43.94 165.934 43.2867 166.674 42.82C167.414 42.3467 168.308 42.11 169.354 42.11ZM169.354 44.1C168.614 44.1 168.061 44.39 167.694 44.97C167.334 45.55 167.154 46.46 167.154 47.7C167.154 48.9533 167.334 49.87 167.694 50.45C168.054 51.0233 168.604 51.31 169.344 51.31C170.084 51.31 170.634 51.0233 170.994 50.45C171.354 49.87 171.534 48.9467 171.534 47.68C171.534 46.4467 171.354 45.5433 170.994 44.97C170.634 44.39 170.088 44.1 169.354 44.1ZM190.549 48.51C190.602 49.17 190.752 49.7067 190.999 50.12C191.252 50.5333 191.575 50.8367 191.969 51.03C192.362 51.2233 192.799 51.32 193.279 51.32C193.785 51.32 194.262 51.24 194.709 51.08C195.155 50.92 195.595 50.6967 196.029 50.41L197.129 51.92C196.635 52.3333 196.045 52.6667 195.359 52.92C194.679 53.1733 193.929 53.3 193.109 53.3C191.962 53.3 190.995 53.0633 190.209 52.59C189.429 52.1167 188.839 51.46 188.439 50.62C188.039 49.78 187.839 48.8133 187.839 47.72C187.839 46.6667 188.035 45.7167 188.429 44.87C188.822 44.0233 189.389 43.3533 190.129 42.86C190.869 42.36 191.762 42.11 192.809 42.11C193.782 42.11 194.622 42.3233 195.329 42.75C196.035 43.1767 196.582 43.79 196.969 44.59C197.355 45.3833 197.549 46.34 197.549 47.46C197.549 47.64 197.542 47.8233 197.529 48.01C197.522 48.1967 197.512 48.3633 197.499 48.51H190.549ZM192.819 43.97C192.179 43.97 191.652 44.2 191.239 44.66C190.832 45.1133 190.592 45.8333 190.519 46.82H194.979C194.965 45.9267 194.779 45.23 194.419 44.73C194.065 44.2233 193.532 43.97 192.819 43.97ZM194.419 36.57L195.489 38.62L190.959 40.43L190.219 39.07L194.419 36.57ZM214.283 42.41V49.75C214.283 50.3233 214.396 50.7267 214.623 50.96C214.85 51.1933 215.18 51.31 215.613 51.31C216.026 51.31 216.43 51.1867 216.823 50.94C217.216 50.6867 217.536 50.3667 217.783 49.98V42.41H220.423V53H218.123L217.983 51.7C217.603 52.22 217.116 52.6167 216.523 52.89C215.93 53.1633 215.316 53.3 214.683 53.3C213.663 53.3 212.9 53.0133 212.393 52.44C211.893 51.86 211.643 51.07 211.643 50.07V42.41H214.283ZM230.845 42.11C231.299 42.11 231.685 42.2067 232.005 42.4C232.325 42.5867 232.572 42.9033 232.745 43.35C232.919 43.79 233.005 44.39 233.005 45.15V53H230.705V45.48C230.705 45 230.665 44.66 230.585 44.46C230.512 44.26 230.342 44.16 230.075 44.16C229.855 44.16 229.632 44.2267 229.405 44.36C229.185 44.4867 228.955 44.7167 228.715 45.05V53H226.725V45.48C226.725 45 226.685 44.66 226.605 44.46C226.532 44.26 226.362 44.16 226.095 44.16C225.869 44.16 225.645 44.2267 225.425 44.36C225.205 44.4867 224.975 44.7167 224.735 45.05V53H222.405V42.41H224.375L224.545 43.51C224.859 43.07 225.189 42.7267 225.535 42.48C225.882 42.2333 226.299 42.11 226.785 42.11C227.185 42.11 227.539 42.21 227.845 42.41C228.159 42.6033 228.382 42.9367 228.515 43.41C228.822 43.0233 229.165 42.71 229.545 42.47C229.925 42.23 230.359 42.11 230.845 42.11ZM243.438 50.21C243.438 50.6167 243.498 50.9133 243.618 51.1C243.738 51.28 243.931 51.4167 244.198 51.51L243.628 53.28C243.061 53.22 242.578 53.08 242.178 52.86C241.784 52.6333 241.481 52.2967 241.268 51.85C240.868 52.3367 240.361 52.7 239.748 52.94C239.141 53.18 238.504 53.3 237.838 53.3C236.758 53.3 235.901 52.9933 235.268 52.38C234.634 51.7667 234.318 50.97 234.318 49.99C234.318 48.8633 234.758 47.9967 235.638 47.39C236.524 46.7767 237.778 46.47 239.398 46.47H240.878V45.9C240.878 45.2733 240.684 44.82 240.298 44.54C239.911 44.2533 239.354 44.11 238.628 44.11C238.288 44.11 237.861 44.1567 237.348 44.25C236.841 44.3367 236.318 44.4733 235.778 44.66L235.148 42.85C235.821 42.5967 236.498 42.41 237.178 42.29C237.864 42.17 238.488 42.11 239.048 42.11C240.534 42.11 241.638 42.4267 242.358 43.06C243.078 43.6867 243.438 44.5767 243.438 45.73V50.21ZM238.698 51.39C239.098 51.39 239.501 51.2767 239.908 51.05C240.321 50.8233 240.644 50.5067 240.878 50.1V48.04H239.838C238.858 48.04 238.148 48.1967 237.708 48.51C237.274 48.8233 237.058 49.2667 237.058 49.84C237.058 50.3333 237.198 50.7167 237.478 50.99C237.758 51.2567 238.164 51.39 238.698 51.39ZM265.862 42.11C266.315 42.11 266.702 42.2067 267.022 42.4C267.342 42.5867 267.589 42.9033 267.762 43.35C267.935 43.79 268.022 44.39 268.022 45.15V53H265.722V45.48C265.722 45 265.682 44.66 265.602 44.46C265.529 44.26 265.359 44.16 265.092 44.16C264.872 44.16 264.649 44.2267 264.422 44.36C264.202 44.4867 263.972 44.7167 263.732 45.05V53H261.742V45.48C261.742 45 261.702 44.66 261.622 44.46C261.549 44.26 261.379 44.16 261.112 44.16C260.885 44.16 260.662 44.2267 260.442 44.36C260.222 44.4867 259.992 44.7167 259.752 45.05V53H257.422V42.41H259.392L259.562 43.51C259.875 43.07 260.205 42.7267 260.552 42.48C260.899 42.2333 261.315 42.11 261.802 42.11C262.202 42.11 262.555 42.21 262.862 42.41C263.175 42.6033 263.399 42.9367 263.532 43.41C263.839 43.0233 264.182 42.71 264.562 42.47C264.942 42.23 265.375 42.11 265.862 42.11ZM276.094 42.41V51.13H278.884V53H270.354V51.13H273.454V44.28H270.454V42.41H276.094ZM274.384 37.07C274.871 37.07 275.264 37.22 275.564 37.52C275.871 37.82 276.024 38.1933 276.024 38.64C276.024 39.0867 275.871 39.4633 275.564 39.77C275.264 40.07 274.871 40.22 274.384 40.22C273.897 40.22 273.501 40.07 273.194 39.77C272.887 39.4633 272.734 39.0867 272.734 38.64C272.734 38.1933 272.887 37.82 273.194 37.52C273.501 37.22 273.897 37.07 274.384 37.07ZM285.706 51.35C286.326 51.35 286.823 51.2433 287.196 51.03C287.576 50.81 287.766 50.5033 287.766 50.11C287.766 49.85 287.703 49.63 287.576 49.45C287.456 49.27 287.216 49.1033 286.856 48.95C286.496 48.79 285.956 48.6133 285.236 48.42C284.556 48.2467 283.96 48.0333 283.446 47.78C282.94 47.52 282.543 47.1867 282.256 46.78C281.976 46.3733 281.836 45.86 281.836 45.24C281.836 44.62 282.01 44.0767 282.356 43.61C282.703 43.1367 283.203 42.77 283.856 42.51C284.516 42.2433 285.31 42.11 286.236 42.11C287.143 42.11 287.936 42.23 288.616 42.47C289.296 42.7033 289.88 42.9967 290.366 43.35L289.286 44.96C288.86 44.6867 288.396 44.4667 287.896 44.3C287.403 44.1267 286.87 44.04 286.296 44.04C285.676 44.04 285.223 44.13 284.936 44.31C284.656 44.49 284.516 44.74 284.516 45.06C284.516 45.2867 284.586 45.48 284.726 45.64C284.873 45.7933 285.133 45.9433 285.506 46.09C285.886 46.23 286.426 46.4 287.126 46.6C287.813 46.7867 288.41 47.0067 288.916 47.26C289.43 47.5133 289.826 47.85 290.106 48.27C290.386 48.69 290.526 49.24 290.526 49.92C290.526 50.6867 290.303 51.32 289.856 51.82C289.41 52.32 288.82 52.6933 288.086 52.94C287.36 53.18 286.57 53.3 285.716 53.3C284.716 53.3 283.843 53.1567 283.096 52.87C282.35 52.5833 281.716 52.2133 281.196 51.76L282.566 50.22C282.98 50.5467 283.45 50.8167 283.976 51.03C284.51 51.2433 285.086 51.35 285.706 51.35ZM297.378 51.35C297.998 51.35 298.495 51.2433 298.868 51.03C299.248 50.81 299.438 50.5033 299.438 50.11C299.438 49.85 299.375 49.63 299.248 49.45C299.128 49.27 298.888 49.1033 298.528 48.95C298.168 48.79 297.628 48.6133 296.908 48.42C296.228 48.2467 295.632 48.0333 295.118 47.78C294.612 47.52 294.215 47.1867 293.928 46.78C293.648 46.3733 293.508 45.86 293.508 45.24C293.508 44.62 293.682 44.0767 294.028 43.61C294.375 43.1367 294.875 42.77 295.528 42.51C296.188 42.2433 296.982 42.11 297.908 42.11C298.815 42.11 299.608 42.23 300.288 42.47C300.968 42.7033 301.552 42.9967 302.038 43.35L300.958 44.96C300.532 44.6867 300.068 44.4667 299.568 44.3C299.075 44.1267 298.542 44.04 297.968 44.04C297.348 44.04 296.895 44.13 296.608 44.31C296.328 44.49 296.188 44.74 296.188 45.06C296.188 45.2867 296.258 45.48 296.398 45.64C296.545 45.7933 296.805 45.9433 297.178 46.09C297.558 46.23 298.098 46.4 298.798 46.6C299.485 46.7867 300.082 47.0067 300.588 47.26C301.102 47.5133 301.498 47.85 301.778 48.27C302.058 48.69 302.198 49.24 302.198 49.92C302.198 50.6867 301.975 51.32 301.528 51.82C301.082 52.32 300.492 52.6933 299.758 52.94C299.032 53.18 298.242 53.3 297.388 53.3C296.388 53.3 295.515 53.1567 294.768 52.87C294.022 52.5833 293.388 52.2133 292.868 51.76L294.238 50.22C294.652 50.5467 295.122 50.8167 295.648 51.03C296.182 51.2433 296.758 51.35 297.378 51.35ZM313.471 50.21C313.471 50.6167 313.531 50.9133 313.651 51.1C313.771 51.28 313.964 51.4167 314.231 51.51L313.661 53.28C313.094 53.22 312.611 53.08 312.211 52.86C311.817 52.6333 311.514 52.2967 311.301 51.85C310.901 52.3367 310.394 52.7 309.781 52.94C309.174 53.18 308.537 53.3 307.871 53.3C306.791 53.3 305.934 52.9933 305.301 52.38C304.667 51.7667 304.351 50.97 304.351 49.99C304.351 48.8633 304.791 47.9967 305.671 47.39C306.557 46.7767 307.811 46.47 309.431 46.47H310.911V45.9C310.911 45.2733 310.717 44.82 310.331 44.54C309.944 44.2533 309.387 44.11 308.661 44.11C308.321 44.11 307.894 44.1567 307.381 44.25C306.874 44.3367 306.351 44.4733 305.811 44.66L305.181 42.85C305.854 42.5967 306.531 42.41 307.211 42.29C307.897 42.17 308.521 42.11 309.081 42.11C310.567 42.11 311.671 42.4267 312.391 43.06C313.111 43.6867 313.471 44.5767 313.471 45.73V50.21ZM308.731 51.39C309.131 51.39 309.534 51.2767 309.941 51.05C310.354 50.8233 310.677 50.5067 310.911 50.1V48.04H309.871C308.891 48.04 308.181 48.1967 307.741 48.51C307.307 48.8233 307.091 49.2667 307.091 49.84C307.091 50.3333 307.231 50.7167 307.511 50.99C307.791 51.2567 308.197 51.39 308.731 51.39ZM310.401 40.14C310.027 40.14 309.711 40.0633 309.451 39.91C309.197 39.7567 308.964 39.6033 308.751 39.45C308.544 39.2967 308.327 39.22 308.101 39.22C307.861 39.22 307.664 39.2967 307.511 39.45C307.357 39.5967 307.201 39.8167 307.041 40.11L305.631 39.42C305.877 38.84 306.204 38.3433 306.611 37.93C307.017 37.51 307.501 37.3 308.061 37.3C308.461 37.3 308.787 37.3767 309.041 37.53C309.301 37.6833 309.531 37.8367 309.731 37.99C309.931 38.1433 310.147 38.22 310.381 38.22C310.594 38.22 310.777 38.15 310.931 38.01C311.091 37.8633 311.257 37.6433 311.431 37.35L312.841 38.05C312.581 38.6767 312.241 39.1833 311.821 39.57C311.407 39.95 310.934 40.14 310.401 40.14ZM321.093 42.11C322.146 42.11 323.039 42.34 323.773 42.8C324.506 43.26 325.063 43.91 325.443 44.75C325.829 45.5833 326.023 46.56 326.023 47.68C326.023 48.8267 325.829 49.82 325.443 50.66C325.056 51.5 324.496 52.15 323.763 52.61C323.029 53.07 322.136 53.3 321.083 53.3C320.036 53.3 319.143 53.0767 318.403 52.63C317.669 52.1767 317.109 51.5333 316.723 50.7C316.336 49.86 316.143 48.86 316.143 47.7C316.143 46.5933 316.336 45.62 316.723 44.78C317.109 43.94 317.673 43.2867 318.413 42.82C319.153 42.3467 320.046 42.11 321.093 42.11ZM321.093 44.1C320.353 44.1 319.799 44.39 319.433 44.97C319.073 45.55 318.893 46.46 318.893 47.7C318.893 48.9533 319.073 49.87 319.433 50.45C319.793 51.0233 320.343 51.31 321.083 51.31C321.823 51.31 322.373 51.0233 322.733 50.45C323.093 49.87 323.273 48.9467 323.273 47.68C323.273 46.4467 323.093 45.5433 322.733 44.97C322.373 44.39 321.826 44.1 321.093 44.1ZM346.177 37.9L348.817 38.18V53H346.477L346.317 51.75C345.991 52.2167 345.581 52.5933 345.087 52.88C344.594 53.16 344.021 53.3 343.367 53.3C342.474 53.3 341.734 53.0667 341.147 52.6C340.567 52.1333 340.134 51.48 339.847 50.64C339.567 49.7933 339.427 48.81 339.427 47.69C339.427 46.61 339.594 45.65 339.927 44.81C340.261 43.97 340.741 43.31 341.367 42.83C342.001 42.35 342.751 42.11 343.617 42.11C344.137 42.11 344.611 42.2 345.037 42.38C345.464 42.56 345.844 42.8267 346.177 43.18V37.9ZM344.327 44.08C343.661 44.08 343.134 44.37 342.747 44.95C342.367 45.5233 342.177 46.44 342.177 47.7C342.177 48.5867 342.257 49.2967 342.417 49.83C342.577 50.3567 342.804 50.7367 343.097 50.97C343.391 51.2033 343.737 51.32 344.137 51.32C344.577 51.32 344.964 51.19 345.297 50.93C345.637 50.6633 345.931 50.3333 346.177 49.94V45.12C345.931 44.7933 345.654 44.54 345.347 44.36C345.047 44.1733 344.707 44.08 344.327 44.08ZM353.959 48.51C354.013 49.17 354.163 49.7067 354.409 50.12C354.663 50.5333 354.986 50.8367 355.379 51.03C355.773 51.2233 356.209 51.32 356.689 51.32C357.196 51.32 357.673 51.24 358.119 51.08C358.566 50.92 359.006 50.6967 359.439 50.41L360.539 51.92C360.046 52.3333 359.456 52.6667 358.769 52.92C358.089 53.1733 357.339 53.3 356.519 53.3C355.373 53.3 354.406 53.0633 353.619 52.59C352.839 52.1167 352.249 51.46 351.849 50.62C351.449 49.78 351.249 48.8133 351.249 47.72C351.249 46.6667 351.446 45.7167 351.839 44.87C352.233 44.0233 352.799 43.3533 353.539 42.86C354.279 42.36 355.173 42.11 356.219 42.11C357.193 42.11 358.033 42.3233 358.739 42.75C359.446 43.1767 359.993 43.79 360.379 44.59C360.766 45.3833 360.959 46.34 360.959 47.46C360.959 47.64 360.953 47.8233 360.939 48.01C360.933 48.1967 360.923 48.3633 360.909 48.51H353.959ZM356.229 43.97C355.589 43.97 355.063 44.2 354.649 44.66C354.243 45.1133 354.003 45.8333 353.929 46.82H358.389C358.376 45.9267 358.189 45.23 357.829 44.73C357.476 44.2233 356.943 43.97 356.229 43.97ZM380.384 51.18C380.85 51.18 381.287 51.0933 381.694 50.92C382.107 50.7467 382.504 50.5267 382.884 50.26L384.084 51.95C383.617 52.3433 383.054 52.6667 382.394 52.92C381.734 53.1733 381.027 53.3 380.274 53.3C379.167 53.3 378.217 53.07 377.424 52.61C376.637 52.1433 376.03 51.4967 375.604 50.67C375.184 49.8367 374.974 48.87 374.974 47.77C374.974 46.6833 375.187 45.7133 375.614 44.86C376.047 44 376.66 43.3267 377.454 42.84C378.254 42.3533 379.207 42.11 380.314 42.11C381.074 42.11 381.76 42.22 382.374 42.44C382.994 42.6533 383.56 42.9733 384.074 43.4L382.904 45.02C382.51 44.7467 382.104 44.54 381.684 44.4C381.27 44.2533 380.84 44.18 380.394 44.18C379.614 44.18 378.977 44.4633 378.484 45.03C377.997 45.59 377.754 46.5033 377.754 47.77C377.754 48.6033 377.867 49.27 378.094 49.77C378.327 50.27 378.64 50.63 379.034 50.85C379.434 51.07 379.884 51.18 380.384 51.18ZM391.126 42.11C392.179 42.11 393.073 42.34 393.806 42.8C394.539 43.26 395.096 43.91 395.476 44.75C395.863 45.5833 396.056 46.56 396.056 47.68C396.056 48.8267 395.863 49.82 395.476 50.66C395.089 51.5 394.529 52.15 393.796 52.61C393.063 53.07 392.169 53.3 391.116 53.3C390.069 53.3 389.176 53.0767 388.436 52.63C387.703 52.1767 387.143 51.5333 386.756 50.7C386.369 49.86 386.176 48.86 386.176 47.7C386.176 46.5933 386.369 45.62 386.756 44.78C387.143 43.94 387.706 43.2867 388.446 42.82C389.186 42.3467 390.079 42.11 391.126 42.11ZM391.126 44.1C390.386 44.1 389.833 44.39 389.466 44.97C389.106 45.55 388.926 46.46 388.926 47.7C388.926 48.9533 389.106 49.87 389.466 50.45C389.826 51.0233 390.376 51.31 391.116 51.31C391.856 51.31 392.406 51.0233 392.766 50.45C393.126 49.87 393.306 48.9467 393.306 47.68C393.306 46.4467 393.126 45.5433 392.766 44.97C392.406 44.39 391.859 44.1 391.126 44.1ZM398.498 53V51.17H399.988V44.23H398.498V42.41H401.998L402.488 44.84C402.875 43.94 403.361 43.2633 403.948 42.81C404.535 42.35 405.271 42.12 406.158 42.12C406.498 42.12 406.798 42.1467 407.058 42.2C407.325 42.2533 407.578 42.3233 407.818 42.41L407.028 44.63C406.821 44.5767 406.625 44.5367 406.438 44.51C406.251 44.4767 406.041 44.46 405.808 44.46C405.075 44.46 404.435 44.7467 403.888 45.32C403.348 45.8867 402.928 46.6567 402.628 47.63V51.17H404.738V53H398.498ZM405.588 46.54V43.73L405.948 42.41H407.818L407.348 46.54H405.588ZM410.17 53V51.17H411.66V44.23H410.17V42.41H413.67L414.16 44.84C414.547 43.94 415.034 43.2633 415.62 42.81C416.207 42.35 416.944 42.12 417.83 42.12C418.17 42.12 418.47 42.1467 418.73 42.2C418.997 42.2533 419.25 42.3233 419.49 42.41L418.7 44.63C418.494 44.5767 418.297 44.5367 418.11 44.51C417.924 44.4767 417.714 44.46 417.48 44.46C416.747 44.46 416.107 44.7467 415.56 45.32C415.02 45.8867 414.6 46.6567 414.3 47.63V51.17H416.41V53H410.17ZM417.26 46.54V43.73L417.62 42.41H419.49L419.02 46.54H417.26ZM423.993 48.51C424.046 49.17 424.196 49.7067 424.443 50.12C424.696 50.5333 425.019 50.8367 425.413 51.03C425.806 51.2233 426.243 51.32 426.723 51.32C427.229 51.32 427.706 51.24 428.153 51.08C428.599 50.92 429.039 50.6967 429.473 50.41L430.573 51.92C430.079 52.3333 429.489 52.6667 428.803 52.92C428.123 53.1733 427.373 53.3 426.553 53.3C425.406 53.3 424.439 53.0633 423.653 52.59C422.873 52.1167 422.283 51.46 421.883 50.62C421.483 49.78 421.283 48.8133 421.283 47.72C421.283 46.6667 421.479 45.7167 421.873 44.87C422.266 44.0233 422.833 43.3533 423.573 42.86C424.313 42.36 425.206 42.11 426.253 42.11C427.226 42.11 428.066 42.3233 428.773 42.75C429.479 43.1767 430.026 43.79 430.413 44.59C430.799 45.3833 430.993 46.34 430.993 47.46C430.993 47.64 430.986 47.8233 430.973 48.01C430.966 48.1967 430.956 48.3633 430.943 48.51H423.993ZM426.263 43.97C425.623 43.97 425.096 44.2 424.683 44.66C424.276 45.1133 424.036 45.8333 423.963 46.82H428.423C428.409 45.9267 428.223 45.23 427.863 44.73C427.509 44.2233 426.976 43.97 426.263 43.97ZM438.745 51.18C439.211 51.18 439.648 51.0933 440.055 50.92C440.468 50.7467 440.865 50.5267 441.245 50.26L442.445 51.95C441.978 52.3433 441.415 52.6667 440.755 52.92C440.095 53.1733 439.388 53.3 438.635 53.3C437.528 53.3 436.578 53.07 435.785 52.61C434.998 52.1433 434.391 51.4967 433.965 50.67C433.545 49.8367 433.335 48.87 433.335 47.77C433.335 46.6833 433.548 45.7133 433.975 44.86C434.408 44 435.021 43.3267 435.815 42.84C436.615 42.3533 437.568 42.11 438.675 42.11C439.435 42.11 440.121 42.22 440.735 42.44C441.355 42.6533 441.921 42.9733 442.435 43.4L441.265 45.02C440.871 44.7467 440.465 44.54 440.045 44.4C439.631 44.2533 439.201 44.18 438.755 44.18C437.975 44.18 437.338 44.4633 436.845 45.03C436.358 45.59 436.115 46.5033 436.115 47.77C436.115 48.6033 436.228 49.27 436.455 49.77C436.688 50.27 437.001 50.63 437.395 50.85C437.795 51.07 438.245 51.18 438.745 51.18ZM439.125 55.87C439.125 55.57 438.968 55.37 438.655 55.27C438.348 55.1767 437.901 55.13 437.315 55.13L437.565 52.68H439.105V54.02C439.791 54.0933 440.295 54.3 440.615 54.64C440.941 54.9867 441.105 55.4033 441.105 55.89C441.105 56.3433 440.985 56.7333 440.745 57.06C440.505 57.3867 440.175 57.6367 439.755 57.81C439.335 57.99 438.855 58.08 438.315 58.08C437.861 58.08 437.438 58.0233 437.045 57.91C436.651 57.7967 436.321 57.6633 436.055 57.51L436.725 56.23C436.911 56.33 437.118 56.41 437.345 56.47C437.578 56.53 437.805 56.56 438.025 56.56C438.358 56.56 438.625 56.5067 438.825 56.4C439.025 56.3 439.125 56.1233 439.125 55.87ZM453.537 50.21C453.537 50.6167 453.597 50.9133 453.717 51.1C453.837 51.28 454.03 51.4167 454.297 51.51L453.727 53.28C453.16 53.22 452.677 53.08 452.277 52.86C451.884 52.6333 451.58 52.2967 451.367 51.85C450.967 52.3367 450.46 52.7 449.847 52.94C449.24 53.18 448.604 53.3 447.937 53.3C446.857 53.3 446 52.9933 445.367 52.38C444.734 51.7667 444.417 50.97 444.417 49.99C444.417 48.8633 444.857 47.9967 445.737 47.39C446.624 46.7767 447.877 46.47 449.497 46.47H450.977V45.9C450.977 45.2733 450.784 44.82 450.397 44.54C450.01 44.2533 449.454 44.11 448.727 44.11C448.387 44.11 447.96 44.1567 447.447 44.25C446.94 44.3367 446.417 44.4733 445.877 44.66L445.247 42.85C445.92 42.5967 446.597 42.41 447.277 42.29C447.964 42.17 448.587 42.11 449.147 42.11C450.634 42.11 451.737 42.4267 452.457 43.06C453.177 43.6867 453.537 44.5767 453.537 45.73V50.21ZM448.797 51.39C449.197 51.39 449.6 51.2767 450.007 51.05C450.42 50.8233 450.744 50.5067 450.977 50.1V48.04H449.937C448.957 48.04 448.247 48.1967 447.807 48.51C447.374 48.8233 447.157 49.2667 447.157 49.84C447.157 50.3333 447.297 50.7167 447.577 50.99C447.857 51.2567 448.264 51.39 448.797 51.39ZM450.467 40.14C450.094 40.14 449.777 40.0633 449.517 39.91C449.264 39.7567 449.03 39.6033 448.817 39.45C448.61 39.2967 448.394 39.22 448.167 39.22C447.927 39.22 447.73 39.2967 447.577 39.45C447.424 39.5967 447.267 39.8167 447.107 40.11L445.697 39.42C445.944 38.84 446.27 38.3433 446.677 37.93C447.084 37.51 447.567 37.3 448.127 37.3C448.527 37.3 448.854 37.3767 449.107 37.53C449.367 37.6833 449.597 37.8367 449.797 37.99C449.997 38.1433 450.214 38.22 450.447 38.22C450.66 38.22 450.844 38.15 450.997 38.01C451.157 37.8633 451.324 37.6433 451.497 37.35L452.907 38.05C452.647 38.6767 452.307 39.1833 451.887 39.57C451.474 39.95 451 40.14 450.467 40.14ZM461.159 42.11C462.212 42.11 463.106 42.34 463.839 42.8C464.572 43.26 465.129 43.91 465.509 44.75C465.896 45.5833 466.089 46.56 466.089 47.68C466.089 48.8267 465.896 49.82 465.509 50.66C465.122 51.5 464.562 52.15 463.829 52.61C463.096 53.07 462.202 53.3 461.149 53.3C460.102 53.3 459.209 53.0767 458.469 52.63C457.736 52.1767 457.176 51.5333 456.789 50.7C456.402 49.86 456.209 48.86 456.209 47.7C456.209 46.5933 456.402 45.62 456.789 44.78C457.176 43.94 457.739 43.2867 458.479 42.82C459.219 42.3467 460.112 42.11 461.159 42.11ZM461.159 44.1C460.419 44.1 459.866 44.39 459.499 44.97C459.139 45.55 458.959 46.46 458.959 47.7C458.959 48.9533 459.139 49.87 459.499 50.45C459.859 51.0233 460.409 51.31 461.149 51.31C461.889 51.31 462.439 51.0233 462.799 50.45C463.159 49.87 463.339 48.9467 463.339 47.68C463.339 46.4467 463.159 45.5433 462.799 44.97C462.439 44.39 461.892 44.1 461.159 44.1ZM470.751 51.23C470.751 50.8567 470.841 50.5133 471.021 50.2C471.208 49.8867 471.458 49.6367 471.771 49.45C472.085 49.2633 472.431 49.17 472.811 49.17C473.198 49.17 473.548 49.2633 473.861 49.45C474.175 49.6367 474.421 49.8867 474.601 50.2C474.788 50.5133 474.881 50.8567 474.881 51.23C474.881 51.6033 474.788 51.95 474.601 52.27C474.421 52.5833 474.175 52.8333 473.861 53.02C473.548 53.2067 473.198 53.3 472.811 53.3C472.431 53.3 472.085 53.2067 471.771 53.02C471.458 52.8333 471.208 52.5833 471.021 52.27C470.841 51.95 470.751 51.6033 470.751 51.23ZM501.546 46.08C501.546 47.52 501.342 48.7833 500.936 49.87C500.536 50.95 499.936 51.7933 499.136 52.4C498.336 53 497.346 53.3 496.166 53.3C494.992 53.3 494.002 53.0067 493.196 52.42C492.396 51.8267 491.792 50.9933 491.386 49.92C490.986 48.84 490.786 47.5633 490.786 46.09C490.786 44.65 490.986 43.39 491.386 42.31C491.792 41.2233 492.396 40.38 493.196 39.78C494.002 39.1733 494.992 38.87 496.166 38.87C497.346 38.87 498.336 39.1633 499.136 39.75C499.936 40.3367 500.536 41.17 500.936 42.25C501.342 43.33 501.546 44.6067 501.546 46.08ZM498.726 46.08C498.726 44.3333 498.526 43.04 498.126 42.2C497.732 41.3533 497.079 40.93 496.166 40.93C495.252 40.93 494.596 41.3533 494.196 42.2C493.802 43.0467 493.606 44.3433 493.606 46.09C493.606 47.8433 493.809 49.14 494.216 49.98C494.622 50.8133 495.272 51.23 496.166 51.23C497.092 51.23 497.749 50.8067 498.136 49.96C498.529 49.1133 498.726 47.82 498.726 46.08ZM521.21 42.41V51.13H524V53H515.47V51.13H518.57V44.28H515.57V42.41H521.21ZM519.5 37.07C519.987 37.07 520.38 37.22 520.68 37.52C520.987 37.82 521.14 38.1933 521.14 38.64C521.14 39.0867 520.987 39.4633 520.68 39.77C520.38 40.07 519.987 40.22 519.5 40.22C519.013 40.22 518.617 40.07 518.31 39.77C518.003 39.4633 517.85 39.0867 517.85 38.64C517.85 38.1933 518.003 37.82 518.31 37.52C518.617 37.22 519.013 37.07 519.5 37.07ZM526.792 53V42.41H529.092L529.282 43.72C529.736 43.1867 530.246 42.7867 530.812 42.52C531.379 42.2467 531.989 42.11 532.642 42.11C533.596 42.11 534.322 42.3867 534.822 42.94C535.322 43.4867 535.572 44.2567 535.572 45.25V53H532.932V46.28C532.932 45.7467 532.899 45.32 532.832 45C532.766 44.6733 532.639 44.44 532.452 44.3C532.266 44.1533 531.996 44.08 531.642 44.08C531.356 44.08 531.079 44.1433 530.812 44.27C530.552 44.3967 530.306 44.5667 530.072 44.78C529.846 44.9933 529.632 45.23 529.432 45.49V53H526.792ZM545.034 37.9C545.741 37.9 546.368 37.9567 546.914 38.07C547.461 38.1833 547.958 38.3367 548.404 38.53L547.644 40.31C547.291 40.1633 546.921 40.0567 546.534 39.99C546.148 39.9233 545.761 39.89 545.374 39.89C544.708 39.89 544.221 40.0167 543.914 40.27C543.614 40.5167 543.464 40.9133 543.464 41.46V43.13H546.964L546.674 45.02H543.464V53H540.834V45.02H538.504V43.13H540.834V41.4C540.834 40.7133 541.001 40.11 541.334 39.59C541.668 39.0633 542.148 38.65 542.774 38.35C543.408 38.05 544.161 37.9 545.034 37.9ZM550.237 53V51.17H551.727V44.23H550.237V42.41H553.737L554.227 44.84C554.613 43.94 555.1 43.2633 555.687 42.81C556.273 42.35 557.01 42.12 557.897 42.12C558.237 42.12 558.537 42.1467 558.797 42.2C559.063 42.2533 559.317 42.3233 559.557 42.41L558.767 44.63C558.56 44.5767 558.363 44.5367 558.177 44.51C557.99 44.4767 557.78 44.46 557.547 44.46C556.813 44.46 556.173 44.7467 555.627 45.32C555.087 45.8867 554.667 46.6567 554.367 47.63V51.17H556.477V53H550.237ZM557.327 46.54V43.73L557.687 42.41H559.557L559.087 46.54H557.327ZM570.259 50.21C570.259 50.6167 570.319 50.9133 570.439 51.1C570.559 51.28 570.752 51.4167 571.019 51.51L570.449 53.28C569.882 53.22 569.399 53.08 568.999 52.86C568.605 52.6333 568.302 52.2967 568.089 51.85C567.689 52.3367 567.182 52.7 566.569 52.94C565.962 53.18 565.325 53.3 564.659 53.3C563.579 53.3 562.722 52.9933 562.089 52.38C561.455 51.7667 561.139 50.97 561.139 49.99C561.139 48.8633 561.579 47.9967 562.459 47.39C563.345 46.7767 564.599 46.47 566.219 46.47H567.699V45.9C567.699 45.2733 567.505 44.82 567.119 44.54C566.732 44.2533 566.175 44.11 565.449 44.11C565.109 44.11 564.682 44.1567 564.169 44.25C563.662 44.3367 563.139 44.4733 562.599 44.66L561.969 42.85C562.642 42.5967 563.319 42.41 563.999 42.29C564.685 42.17 565.309 42.11 565.869 42.11C567.355 42.11 568.459 42.4267 569.179 43.06C569.899 43.6867 570.259 44.5767 570.259 45.73V50.21ZM565.519 51.39C565.919 51.39 566.322 51.2767 566.729 51.05C567.142 50.8233 567.465 50.5067 567.699 50.1V48.04H566.659C565.679 48.04 564.969 48.1967 564.529 48.51C564.095 48.8233 563.879 49.2667 563.879 49.84C563.879 50.3333 564.019 50.7167 564.299 50.99C564.579 51.2567 564.985 51.39 565.519 51.39ZM582.621 52.41C582.228 52.67 581.751 52.8833 581.191 53.05C580.631 53.2167 580.024 53.3 579.371 53.3C578.078 53.3 577.104 52.9667 576.451 52.3C575.798 51.6267 575.471 50.7333 575.471 49.62V44.28H573.171V42.41H575.471V40.08L578.111 39.76V42.41H581.611L581.341 44.28H578.111V49.61C578.111 50.1567 578.244 50.5567 578.511 50.81C578.778 51.0633 579.208 51.19 579.801 51.19C580.181 51.19 580.528 51.1467 580.841 51.06C581.161 50.9667 581.451 50.85 581.711 50.71L582.621 52.41ZM589.553 42.11C590.606 42.11 591.5 42.34 592.233 42.8C592.966 43.26 593.523 43.91 593.903 44.75C594.29 45.5833 594.483 46.56 594.483 47.68C594.483 48.8267 594.29 49.82 593.903 50.66C593.516 51.5 592.956 52.15 592.223 52.61C591.49 53.07 590.596 53.3 589.543 53.3C588.496 53.3 587.603 53.0767 586.863 52.63C586.13 52.1767 585.57 51.5333 585.183 50.7C584.796 49.86 584.603 48.86 584.603 47.7C584.603 46.5933 584.796 45.62 585.183 44.78C585.57 43.94 586.133 43.2867 586.873 42.82C587.613 42.3467 588.506 42.11 589.553 42.11ZM589.553 44.1C588.813 44.1 588.26 44.39 587.893 44.97C587.533 45.55 587.353 46.46 587.353 47.7C587.353 48.9533 587.533 49.87 587.893 50.45C588.253 51.0233 588.803 51.31 589.543 51.31C590.283 51.31 590.833 51.0233 591.193 50.45C591.553 49.87 591.733 48.9467 591.733 47.68C591.733 46.4467 591.553 45.5433 591.193 44.97C590.833 44.39 590.286 44.1 589.553 44.1ZM596.925 53V51.17H598.415V44.23H596.925V42.41H600.425L600.915 44.84C601.302 43.94 601.789 43.2633 602.375 42.81C602.962 42.35 603.699 42.12 604.585 42.12C604.925 42.12 605.225 42.1467 605.485 42.2C605.752 42.2533 606.005 42.3233 606.245 42.41L605.455 44.63C605.249 44.5767 605.052 44.5367 604.865 44.51C604.679 44.4767 604.469 44.46 604.235 44.46C603.502 44.46 602.862 44.7467 602.315 45.32C601.775 45.8867 601.355 46.6567 601.055 47.63V51.17H603.165V53H596.925ZM604.015 46.54V43.73L604.375 42.41H606.245L605.775 46.54H604.015ZM626.31 37.9L628.95 38.18V53H626.61L626.45 51.75C626.123 52.2167 625.713 52.5933 625.22 52.88C624.726 53.16 624.153 53.3 623.5 53.3C622.606 53.3 621.866 53.0667 621.28 52.6C620.7 52.1333 620.266 51.48 619.98 50.64C619.7 49.7933 619.56 48.81 619.56 47.69C619.56 46.61 619.726 45.65 620.06 44.81C620.393 43.97 620.873 43.31 621.5 42.83C622.133 42.35 622.883 42.11 623.75 42.11C624.27 42.11 624.743 42.2 625.17 42.38C625.596 42.56 625.976 42.8267 626.31 43.18V37.9ZM624.46 44.08C623.793 44.08 623.266 44.37 622.88 44.95C622.5 45.5233 622.31 46.44 622.31 47.7C622.31 48.5867 622.39 49.2967 622.55 49.83C622.71 50.3567 622.936 50.7367 623.23 50.97C623.523 51.2033 623.87 51.32 624.27 51.32C624.71 51.32 625.096 51.19 625.43 50.93C625.77 50.6633 626.063 50.3333 626.31 49.94V45.12C626.063 44.7933 625.786 44.54 625.48 44.36C625.18 44.1733 624.84 44.08 624.46 44.08ZM636.242 42.11C637.295 42.11 638.189 42.34 638.922 42.8C639.655 43.26 640.212 43.91 640.592 44.75C640.979 45.5833 641.172 46.56 641.172 47.68C641.172 48.8267 640.979 49.82 640.592 50.66C640.205 51.5 639.645 52.15 638.912 52.61C638.179 53.07 637.285 53.3 636.232 53.3C635.185 53.3 634.292 53.0767 633.552 52.63C632.819 52.1767 632.259 51.5333 631.872 50.7C631.485 49.86 631.292 48.86 631.292 47.7C631.292 46.5933 631.485 45.62 631.872 44.78C632.259 43.94 632.822 43.2867 633.562 42.82C634.302 42.3467 635.195 42.11 636.242 42.11ZM636.242 44.1C635.502 44.1 634.949 44.39 634.582 44.97C634.222 45.55 634.042 46.46 634.042 47.7C634.042 48.9533 634.222 49.87 634.582 50.45C634.942 51.0233 635.492 51.31 636.232 51.31C636.972 51.31 637.522 51.0233 637.882 50.45C638.242 49.87 638.422 48.9467 638.422 47.68C638.422 46.4467 638.242 45.5433 637.882 44.97C637.522 44.39 636.975 44.1 636.242 44.1ZM664.326 52.41C663.933 52.67 663.456 52.8833 662.896 53.05C662.336 53.2167 661.73 53.3 661.076 53.3C659.783 53.3 658.81 52.9667 658.156 52.3C657.503 51.6267 657.176 50.7333 657.176 49.62V44.28H654.876V42.41H657.176V40.08L659.816 39.76V42.41H663.316L663.046 44.28H659.816V49.61C659.816 50.1567 659.95 50.5567 660.216 50.81C660.483 51.0633 660.913 51.19 661.506 51.19C661.886 51.19 662.233 51.1467 662.546 51.06C662.866 50.9667 663.156 50.85 663.416 50.71L664.326 52.41ZM669.108 48.51C669.162 49.17 669.312 49.7067 669.558 50.12C669.812 50.5333 670.135 50.8367 670.528 51.03C670.922 51.2233 671.358 51.32 671.838 51.32C672.345 51.32 672.822 51.24 673.268 51.08C673.715 50.92 674.155 50.6967 674.588 50.41L675.688 51.92C675.195 52.3333 674.605 52.6667 673.918 52.92C673.238 53.1733 672.488 53.3 671.668 53.3C670.522 53.3 669.555 53.0633 668.768 52.59C667.988 52.1167 667.398 51.46 666.998 50.62C666.598 49.78 666.398 48.8133 666.398 47.72C666.398 46.6667 666.595 45.7167 666.988 44.87C667.382 44.0233 667.948 43.3533 668.688 42.86C669.428 42.36 670.322 42.11 671.368 42.11C672.342 42.11 673.182 42.3233 673.888 42.75C674.595 43.1767 675.142 43.79 675.528 44.59C675.915 45.3833 676.108 46.34 676.108 47.46C676.108 47.64 676.102 47.8233 676.088 48.01C676.082 48.1967 676.072 48.3633 676.058 48.51H669.108ZM671.378 43.97C670.738 43.97 670.212 44.2 669.798 44.66C669.392 45.1133 669.152 45.8333 669.078 46.82H673.538C673.525 45.9267 673.338 45.23 672.978 44.73C672.625 44.2233 672.092 43.97 671.378 43.97ZM686.061 42.11C686.514 42.11 686.901 42.2067 687.221 42.4C687.541 42.5867 687.787 42.9033 687.961 43.35C688.134 43.79 688.221 44.39 688.221 45.15V53H685.921V45.48C685.921 45 685.881 44.66 685.801 44.46C685.727 44.26 685.557 44.16 685.291 44.16C685.071 44.16 684.847 44.2267 684.621 44.36C684.401 44.4867 684.171 44.7167 683.931 45.05V53H681.941V45.48C681.941 45 681.901 44.66 681.821 44.46C681.747 44.26 681.577 44.16 681.311 44.16C681.084 44.16 680.861 44.2267 680.641 44.36C680.421 44.4867 680.191 44.7167 679.951 45.05V53H677.621V42.41H679.591L679.761 43.51C680.074 43.07 680.404 42.7267 680.751 42.48C681.097 42.2333 681.514 42.11 682.001 42.11C682.401 42.11 682.754 42.21 683.061 42.41C683.374 42.6033 683.597 42.9367 683.731 43.41C684.037 43.0233 684.381 42.71 684.761 42.47C685.141 42.23 685.574 42.11 686.061 42.11ZM695.673 42.11C696.606 42.11 697.353 42.34 697.913 42.8C698.48 43.2533 698.89 43.8967 699.143 44.73C699.403 45.5633 699.533 46.5467 699.533 47.68C699.533 48.7667 699.376 49.7333 699.063 50.58C698.75 51.4267 698.29 52.0933 697.683 52.58C697.083 53.06 696.343 53.3 695.463 53.3C694.383 53.3 693.51 52.9167 692.843 52.15V57.08L690.203 57.36V42.41H692.523L692.663 43.7C693.083 43.1533 693.553 42.7533 694.073 42.5C694.593 42.24 695.126 42.11 695.673 42.11ZM694.903 44.09C694.456 44.09 694.063 44.2233 693.723 44.49C693.39 44.7567 693.096 45.0867 692.843 45.48V50.22C693.083 50.58 693.356 50.85 693.663 51.03C693.97 51.21 694.316 51.3 694.703 51.3C695.376 51.3 695.89 51.02 696.243 50.46C696.603 49.8933 696.783 48.9767 696.783 47.71C696.783 46.8167 696.71 46.1067 696.563 45.58C696.423 45.0467 696.213 44.6667 695.933 44.44C695.653 44.2067 695.31 44.09 694.903 44.09ZM706.275 42.11C707.328 42.11 708.222 42.34 708.955 42.8C709.688 43.26 710.245 43.91 710.625 44.75C711.012 45.5833 711.205 46.56 711.205 47.68C711.205 48.8267 711.012 49.82 710.625 50.66C710.238 51.5 709.678 52.15 708.945 52.61C708.212 53.07 707.318 53.3 706.265 53.3C705.218 53.3 704.325 53.0767 703.585 52.63C702.852 52.1767 702.292 51.5333 701.905 50.7C701.518 49.86 701.325 48.86 701.325 47.7C701.325 46.5933 701.518 45.62 701.905 44.78C702.292 43.94 702.855 43.2867 703.595 42.82C704.335 42.3467 705.228 42.11 706.275 42.11ZM706.275 44.1C705.535 44.1 704.982 44.39 704.615 44.97C704.255 45.55 704.075 46.46 704.075 47.7C704.075 48.9533 704.255 49.87 704.615 50.45C704.975 51.0233 705.525 51.31 706.265 51.31C707.005 51.31 707.555 51.0233 707.915 50.45C708.275 49.87 708.455 48.9467 708.455 47.68C708.455 46.4467 708.275 45.5433 707.915 44.97C707.555 44.39 707.008 44.1 706.275 44.1ZM141.61 93V82.41H143.91L144.1 83.72C144.553 83.1867 145.063 82.7867 145.63 82.52C146.197 82.2467 146.807 82.11 147.46 82.11C148.413 82.11 149.14 82.3867 149.64 82.94C150.14 83.4867 150.39 84.2567 150.39 85.25V93H147.75V86.28C147.75 85.7467 147.717 85.32 147.65 85C147.583 84.6733 147.457 84.44 147.27 84.3C147.083 84.1533 146.813 84.08 146.46 84.08C146.173 84.08 145.897 84.1433 145.63 84.27C145.37 84.3967 145.123 84.5667 144.89 84.78C144.663 84.9933 144.45 85.23 144.25 85.49V93H141.61ZM161.732 90.21C161.732 90.6167 161.792 90.9133 161.912 91.1C162.032 91.28 162.226 91.4167 162.492 91.51L161.922 93.28C161.356 93.22 160.872 93.08 160.472 92.86C160.079 92.6333 159.776 92.2967 159.562 91.85C159.162 92.3367 158.656 92.7 158.042 92.94C157.436 93.18 156.799 93.3 156.132 93.3C155.052 93.3 154.196 92.9933 153.562 92.38C152.929 91.7667 152.612 90.97 152.612 89.99C152.612 88.8633 153.052 87.9967 153.932 87.39C154.819 86.7767 156.072 86.47 157.692 86.47H159.172V85.9C159.172 85.2733 158.979 84.82 158.592 84.54C158.206 84.2533 157.649 84.11 156.922 84.11C156.582 84.11 156.156 84.1567 155.642 84.25C155.136 84.3367 154.612 84.4733 154.072 84.66L153.442 82.85C154.116 82.5967 154.792 82.41 155.472 82.29C156.159 82.17 156.782 82.11 157.342 82.11C158.829 82.11 159.932 82.4267 160.652 83.06C161.372 83.6867 161.732 84.5767 161.732 85.73V90.21ZM156.992 91.39C157.392 91.39 157.796 91.2767 158.202 91.05C158.616 90.8233 158.939 90.5067 159.172 90.1V88.04H158.132C157.152 88.04 156.442 88.1967 156.002 88.51C155.569 88.8233 155.352 89.2667 155.352 89.84C155.352 90.3333 155.492 90.7167 155.772 90.99C156.052 91.2567 156.459 91.39 156.992 91.39ZM158.662 80.14C158.289 80.14 157.972 80.0633 157.712 79.91C157.459 79.7567 157.226 79.6033 157.012 79.45C156.806 79.2967 156.589 79.22 156.362 79.22C156.122 79.22 155.926 79.2967 155.772 79.45C155.619 79.5967 155.462 79.8167 155.302 80.11L153.892 79.42C154.139 78.84 154.466 78.3433 154.872 77.93C155.279 77.51 155.762 77.3 156.322 77.3C156.722 77.3 157.049 77.3767 157.302 77.53C157.562 77.6833 157.792 77.8367 157.992 77.99C158.192 78.1433 158.409 78.22 158.642 78.22C158.856 78.22 159.039 78.15 159.192 78.01C159.352 77.8633 159.519 77.6433 159.692 77.35L161.102 78.05C160.842 78.6767 160.502 79.1833 160.082 79.57C159.669 79.95 159.196 80.14 158.662 80.14ZM169.354 82.11C170.408 82.11 171.301 82.34 172.034 82.8C172.768 83.26 173.324 83.91 173.704 84.75C174.091 85.5833 174.284 86.56 174.284 87.68C174.284 88.8267 174.091 89.82 173.704 90.66C173.318 91.5 172.758 92.15 172.024 92.61C171.291 93.07 170.398 93.3 169.344 93.3C168.298 93.3 167.404 93.0767 166.664 92.63C165.931 92.1767 165.371 91.5333 164.984 90.7C164.598 89.86 164.404 88.86 164.404 87.7C164.404 86.5933 164.598 85.62 164.984 84.78C165.371 83.94 165.934 83.2867 166.674 82.82C167.414 82.3467 168.308 82.11 169.354 82.11ZM169.354 84.1C168.614 84.1 168.061 84.39 167.694 84.97C167.334 85.55 167.154 86.46 167.154 87.7C167.154 88.9533 167.334 89.87 167.694 90.45C168.054 91.0233 168.604 91.31 169.344 91.31C170.084 91.31 170.634 91.0233 170.994 90.45C171.354 89.87 171.534 88.9467 171.534 87.68C171.534 86.4467 171.354 85.5433 170.994 84.97C170.634 84.39 170.088 84.1 169.354 84.1ZM194.869 77.9C195.575 77.9 196.202 77.9567 196.749 78.07C197.295 78.1833 197.792 78.3367 198.239 78.53L197.479 80.31C197.125 80.1633 196.755 80.0567 196.369 79.99C195.982 79.9233 195.595 79.89 195.209 79.89C194.542 79.89 194.055 80.0167 193.749 80.27C193.449 80.5167 193.299 80.9133 193.299 81.46V83.13H196.799L196.509 85.02H193.299V93H190.669V85.02H188.339V83.13H190.669V81.4C190.669 80.7133 190.835 80.11 191.169 79.59C191.502 79.0633 191.982 78.65 192.609 78.35C193.242 78.05 193.995 77.9 194.869 77.9ZM208.421 90.21C208.421 90.6167 208.481 90.9133 208.601 91.1C208.721 91.28 208.914 91.4167 209.181 91.51L208.611 93.28C208.044 93.22 207.561 93.08 207.161 92.86C206.768 92.6333 206.464 92.2967 206.251 91.85C205.851 92.3367 205.344 92.7 204.731 92.94C204.124 93.18 203.488 93.3 202.821 93.3C201.741 93.3 200.884 92.9933 200.251 92.38C199.618 91.7667 199.301 90.97 199.301 89.99C199.301 88.8633 199.741 87.9967 200.621 87.39C201.508 86.7767 202.761 86.47 204.381 86.47H205.861V85.9C205.861 85.2733 205.668 84.82 205.281 84.54C204.894 84.2533 204.338 84.11 203.611 84.11C203.271 84.11 202.844 84.1567 202.331 84.25C201.824 84.3367 201.301 84.4733 200.761 84.66L200.131 82.85C200.804 82.5967 201.481 82.41 202.161 82.29C202.848 82.17 203.471 82.11 204.031 82.11C205.518 82.11 206.621 82.4267 207.341 83.06C208.061 83.6867 208.421 84.5767 208.421 85.73V90.21ZM203.681 91.39C204.081 91.39 204.484 91.2767 204.891 91.05C205.304 90.8233 205.628 90.5067 205.861 90.1V88.04H204.821C203.841 88.04 203.131 88.1967 202.691 88.51C202.258 88.8233 202.041 89.2667 202.041 89.84C202.041 90.3333 202.181 90.7167 202.461 90.99C202.741 91.2567 203.148 91.39 203.681 91.39ZM214.833 90.95H220.343L220.073 93H211.683V91.11L217.153 84.47H212.133V82.41H220.253V84.31L214.833 90.95ZM240.458 82.11C241.391 82.11 242.138 82.34 242.698 82.8C243.264 83.2533 243.674 83.8967 243.928 84.73C244.188 85.5633 244.318 86.5467 244.318 87.68C244.318 88.7667 244.161 89.7333 243.848 90.58C243.534 91.4267 243.074 92.0933 242.468 92.58C241.868 93.06 241.128 93.3 240.248 93.3C239.168 93.3 238.294 92.9167 237.628 92.15V97.08L234.988 97.36V82.41H237.308L237.448 83.7C237.868 83.1533 238.338 82.7533 238.858 82.5C239.378 82.24 239.911 82.11 240.458 82.11ZM239.688 84.09C239.241 84.09 238.848 84.2233 238.508 84.49C238.174 84.7567 237.881 85.0867 237.628 85.48V90.22C237.868 90.58 238.141 90.85 238.448 91.03C238.754 91.21 239.101 91.3 239.488 91.3C240.161 91.3 240.674 91.02 241.028 90.46C241.388 89.8933 241.568 88.9767 241.568 87.71C241.568 86.8167 241.494 86.1067 241.348 85.58C241.208 85.0467 240.998 84.6667 240.718 84.44C240.438 84.2067 240.094 84.09 239.688 84.09ZM255.11 90.21C255.11 90.6167 255.17 90.9133 255.29 91.1C255.41 91.28 255.603 91.4167 255.87 91.51L255.3 93.28C254.733 93.22 254.25 93.08 253.85 92.86C253.456 92.6333 253.153 92.2967 252.94 91.85C252.54 92.3367 252.033 92.7 251.42 92.94C250.813 93.18 250.176 93.3 249.51 93.3C248.43 93.3 247.573 92.9933 246.94 92.38C246.306 91.7667 245.99 90.97 245.99 89.99C245.99 88.8633 246.43 87.9967 247.31 87.39C248.196 86.7767 249.45 86.47 251.07 86.47H252.55V85.9C252.55 85.2733 252.356 84.82 251.97 84.54C251.583 84.2533 251.026 84.11 250.3 84.11C249.96 84.11 249.533 84.1567 249.02 84.25C248.513 84.3367 247.99 84.4733 247.45 84.66L246.82 82.85C247.493 82.5967 248.17 82.41 248.85 82.29C249.536 82.17 250.16 82.11 250.72 82.11C252.206 82.11 253.31 82.4267 254.03 83.06C254.75 83.6867 255.11 84.5767 255.11 85.73V90.21ZM250.37 91.39C250.77 91.39 251.173 91.2767 251.58 91.05C251.993 90.8233 252.316 90.5067 252.55 90.1V88.04H251.51C250.53 88.04 249.82 88.1967 249.38 88.51C248.946 88.8233 248.73 89.2667 248.73 89.84C248.73 90.3333 248.87 90.7167 249.15 90.99C249.43 91.2567 249.836 91.39 250.37 91.39ZM258.432 93V91.17H259.922V84.23H258.432V82.41H261.932L262.422 84.84C262.809 83.94 263.295 83.2633 263.882 82.81C264.469 82.35 265.205 82.12 266.092 82.12C266.432 82.12 266.732 82.1467 266.992 82.2C267.259 82.2533 267.512 82.3233 267.752 82.41L266.962 84.63C266.755 84.5767 266.559 84.5367 266.372 84.51C266.185 84.4767 265.975 84.46 265.742 84.46C265.009 84.46 264.369 84.7467 263.822 85.32C263.282 85.8867 262.862 86.6567 262.562 87.63V91.17H264.672V93H258.432ZM265.522 86.54V83.73L265.882 82.41H267.752L267.282 86.54H265.522ZM279.144 92.41C278.751 92.67 278.274 92.8833 277.714 93.05C277.154 93.2167 276.547 93.3 275.894 93.3C274.601 93.3 273.627 92.9667 272.974 92.3C272.321 91.6267 271.994 90.7333 271.994 89.62V84.28H269.694V82.41H271.994V80.08L274.634 79.76V82.41H278.134L277.864 84.28H274.634V89.61C274.634 90.1567 274.767 90.5567 275.034 90.81C275.301 91.0633 275.731 91.19 276.324 91.19C276.704 91.19 277.051 91.1467 277.364 91.06C277.684 90.9667 277.974 90.85 278.234 90.71L279.144 92.41ZM283.926 88.51C283.98 89.17 284.13 89.7067 284.376 90.12C284.63 90.5333 284.953 90.8367 285.346 91.03C285.74 91.2233 286.176 91.32 286.656 91.32C287.163 91.32 287.64 91.24 288.086 91.08C288.533 90.92 288.973 90.6967 289.406 90.41L290.506 91.92C290.013 92.3333 289.423 92.6667 288.736 92.92C288.056 93.1733 287.306 93.3 286.486 93.3C285.34 93.3 284.373 93.0633 283.586 92.59C282.806 92.1167 282.216 91.46 281.816 90.62C281.416 89.78 281.216 88.8133 281.216 87.72C281.216 86.6667 281.413 85.7167 281.806 84.87C282.2 84.0233 282.766 83.3533 283.506 82.86C284.246 82.36 285.14 82.11 286.186 82.11C287.16 82.11 288 82.3233 288.706 82.75C289.413 83.1767 289.96 83.79 290.346 84.59C290.733 85.3833 290.926 86.34 290.926 87.46C290.926 87.64 290.92 87.8233 290.906 88.01C290.9 88.1967 290.89 88.3633 290.876 88.51H283.926ZM286.196 83.97C285.556 83.97 285.03 84.2 284.616 84.66C284.21 85.1133 283.97 85.8333 283.896 86.82H288.356C288.343 85.9267 288.156 85.23 287.796 84.73C287.443 84.2233 286.91 83.97 286.196 83.97ZM311.161 77.9L313.801 78.18V93H311.461L311.301 91.75C310.974 92.2167 310.564 92.5933 310.071 92.88C309.577 93.16 309.004 93.3 308.351 93.3C307.457 93.3 306.717 93.0667 306.131 92.6C305.551 92.1333 305.117 91.48 304.831 90.64C304.551 89.7933 304.411 88.81 304.411 87.69C304.411 86.61 304.577 85.65 304.911 84.81C305.244 83.97 305.724 83.31 306.351 82.83C306.984 82.35 307.734 82.11 308.601 82.11C309.121 82.11 309.594 82.2 310.021 82.38C310.447 82.56 310.827 82.8267 311.161 83.18V77.9ZM309.311 84.08C308.644 84.08 308.117 84.37 307.731 84.95C307.351 85.5233 307.161 86.44 307.161 87.7C307.161 88.5867 307.241 89.2967 307.401 89.83C307.561 90.3567 307.787 90.7367 308.081 90.97C308.374 91.2033 308.721 91.32 309.121 91.32C309.561 91.32 309.947 91.19 310.281 90.93C310.621 90.6633 310.914 90.3333 311.161 89.94V85.12C310.914 84.7933 310.637 84.54 310.331 84.36C310.031 84.1733 309.691 84.08 309.311 84.08ZM325.143 90.21C325.143 90.6167 325.203 90.9133 325.323 91.1C325.443 91.28 325.636 91.4167 325.903 91.51L325.333 93.28C324.766 93.22 324.283 93.08 323.883 92.86C323.489 92.6333 323.186 92.2967 322.973 91.85C322.573 92.3367 322.066 92.7 321.453 92.94C320.846 93.18 320.209 93.3 319.543 93.3C318.463 93.3 317.606 92.9933 316.973 92.38C316.339 91.7667 316.023 90.97 316.023 89.99C316.023 88.8633 316.463 87.9967 317.343 87.39C318.229 86.7767 319.483 86.47 321.103 86.47H322.583V85.9C322.583 85.2733 322.389 84.82 322.003 84.54C321.616 84.2533 321.059 84.11 320.333 84.11C319.993 84.11 319.566 84.1567 319.053 84.25C318.546 84.3367 318.023 84.4733 317.483 84.66L316.853 82.85C317.526 82.5967 318.203 82.41 318.883 82.29C319.569 82.17 320.193 82.11 320.753 82.11C322.239 82.11 323.343 82.4267 324.063 83.06C324.783 83.6867 325.143 84.5767 325.143 85.73V90.21ZM320.403 91.39C320.803 91.39 321.206 91.2767 321.613 91.05C322.026 90.8233 322.349 90.5067 322.583 90.1V88.04H321.543C320.563 88.04 319.853 88.1967 319.413 88.51C318.979 88.8233 318.763 89.2667 318.763 89.84C318.763 90.3333 318.903 90.7167 319.183 90.99C319.463 91.2567 319.869 91.39 320.403 91.39ZM342.287 88.51C342.341 89.17 342.491 89.7067 342.737 90.12C342.991 90.5333 343.314 90.8367 343.707 91.03C344.101 91.2233 344.537 91.32 345.017 91.32C345.524 91.32 346.001 91.24 346.447 91.08C346.894 90.92 347.334 90.6967 347.767 90.41L348.867 91.92C348.374 92.3333 347.784 92.6667 347.097 92.92C346.417 93.1733 345.667 93.3 344.847 93.3C343.701 93.3 342.734 93.0633 341.947 92.59C341.167 92.1167 340.577 91.46 340.177 90.62C339.777 89.78 339.577 88.8133 339.577 87.72C339.577 86.6667 339.774 85.7167 340.167 84.87C340.561 84.0233 341.127 83.3533 341.867 82.86C342.607 82.36 343.501 82.11 344.547 82.11C345.521 82.11 346.361 82.3233 347.067 82.75C347.774 83.1767 348.321 83.79 348.707 84.59C349.094 85.3833 349.287 86.34 349.287 87.46C349.287 87.64 349.281 87.8233 349.267 88.01C349.261 88.1967 349.251 88.3633 349.237 88.51H342.287ZM344.557 83.97C343.917 83.97 343.391 84.2 342.977 84.66C342.571 85.1133 342.331 85.8333 342.257 86.82H346.717C346.704 85.9267 346.517 85.23 346.157 84.73C345.804 84.2233 345.271 83.97 344.557 83.97ZM355.329 82.11C355.889 82.11 356.399 82.2167 356.859 82.43C357.319 82.6433 357.716 82.9567 358.049 83.37L358.189 82.41H360.489V97.36L357.849 97.08V91.96C357.516 92.3867 357.116 92.7167 356.649 92.95C356.183 93.1833 355.646 93.3 355.039 93.3C354.119 93.3 353.373 93.07 352.799 92.61C352.233 92.1433 351.816 91.49 351.549 90.65C351.289 89.81 351.159 88.8233 351.159 87.69C351.159 86.61 351.319 85.65 351.639 84.81C351.959 83.97 352.429 83.31 353.049 82.83C353.676 82.35 354.436 82.11 355.329 82.11ZM356.009 84.08C355.329 84.08 354.809 84.37 354.449 84.95C354.089 85.5233 353.909 86.44 353.909 87.7C353.909 88.5867 353.983 89.2933 354.129 89.82C354.283 90.3467 354.499 90.7233 354.779 90.95C355.066 91.1767 355.409 91.29 355.809 91.29C356.256 91.29 356.646 91.1633 356.979 90.91C357.313 90.6567 357.603 90.3333 357.849 89.94V85.12C357.616 84.7933 357.346 84.54 357.039 84.36C356.739 84.1733 356.396 84.08 356.009 84.08ZM366.022 82.41V89.75C366.022 90.3233 366.135 90.7267 366.362 90.96C366.588 91.1933 366.918 91.31 367.352 91.31C367.765 91.31 368.168 91.1867 368.562 90.94C368.955 90.6867 369.275 90.3667 369.522 89.98V82.41H372.162V93H369.862L369.722 91.7C369.342 92.22 368.855 92.6167 368.262 92.89C367.668 93.1633 367.055 93.3 366.422 93.3C365.402 93.3 364.638 93.0133 364.132 92.44C363.632 91.86 363.382 91.07 363.382 90.07V82.41H366.022ZM381.144 82.41V91.13H383.934V93H375.404V91.13H378.504V84.28H375.504V82.41H381.144ZM379.434 77.07C379.92 77.07 380.314 77.22 380.614 77.52C380.92 77.82 381.074 78.1933 381.074 78.64C381.074 79.0867 380.92 79.4633 380.614 79.77C380.314 80.07 379.92 80.22 379.434 80.22C378.947 80.22 378.55 80.07 378.244 79.77C377.937 79.4633 377.784 79.0867 377.784 78.64C377.784 78.1933 377.937 77.82 378.244 77.52C378.55 77.22 378.947 77.07 379.434 77.07ZM392.196 82.11C393.129 82.11 393.876 82.34 394.436 82.8C395.003 83.2533 395.413 83.8967 395.666 84.73C395.926 85.5633 396.056 86.5467 396.056 87.68C396.056 88.7667 395.899 89.7333 395.586 90.58C395.273 91.4267 394.813 92.0933 394.206 92.58C393.606 93.06 392.866 93.3 391.986 93.3C390.906 93.3 390.033 92.9167 389.366 92.15V97.08L386.726 97.36V82.41H389.046L389.186 83.7C389.606 83.1533 390.076 82.7533 390.596 82.5C391.116 82.24 391.649 82.11 392.196 82.11ZM391.426 84.09C390.979 84.09 390.586 84.2233 390.246 84.49C389.913 84.7567 389.619 85.0867 389.366 85.48V90.22C389.606 90.58 389.879 90.85 390.186 91.03C390.493 91.21 390.839 91.3 391.226 91.3C391.899 91.3 392.413 91.02 392.766 90.46C393.126 89.8933 393.306 88.9767 393.306 87.71C393.306 86.8167 393.233 86.1067 393.086 85.58C392.946 85.0467 392.736 84.6667 392.456 84.44C392.176 84.2067 391.833 84.09 391.426 84.09ZM400.648 88.51C400.701 89.17 400.851 89.7067 401.098 90.12C401.351 90.5333 401.675 90.8367 402.068 91.03C402.461 91.2233 402.898 91.32 403.378 91.32C403.885 91.32 404.361 91.24 404.808 91.08C405.255 90.92 405.695 90.6967 406.128 90.41L407.228 91.92C406.735 92.3333 406.145 92.6667 405.458 92.92C404.778 93.1733 404.028 93.3 403.208 93.3C402.061 93.3 401.095 93.0633 400.308 92.59C399.528 92.1167 398.938 91.46 398.538 90.62C398.138 89.78 397.938 88.8133 397.938 87.72C397.938 86.6667 398.135 85.7167 398.528 84.87C398.921 84.0233 399.488 83.3533 400.228 82.86C400.968 82.36 401.861 82.11 402.908 82.11C403.881 82.11 404.721 82.3233 405.428 82.75C406.135 83.1767 406.681 83.79 407.068 84.59C407.455 85.3833 407.648 86.34 407.648 87.46C407.648 87.64 407.641 87.8233 407.628 88.01C407.621 88.1967 407.611 88.3633 407.598 88.51H400.648ZM402.918 83.97C402.278 83.97 401.751 84.2 401.338 84.66C400.931 85.1133 400.691 85.8333 400.618 86.82H405.078C405.065 85.9267 404.878 85.23 404.518 84.73C404.165 84.2233 403.631 83.97 402.918 83.97ZM427.883 77.9L430.523 78.18V93H428.183L428.023 91.75C427.696 92.2167 427.286 92.5933 426.793 92.88C426.299 93.16 425.726 93.3 425.073 93.3C424.179 93.3 423.439 93.0667 422.853 92.6C422.273 92.1333 421.839 91.48 421.553 90.64C421.273 89.7933 421.133 88.81 421.133 87.69C421.133 86.61 421.299 85.65 421.633 84.81C421.966 83.97 422.446 83.31 423.073 82.83C423.706 82.35 424.456 82.11 425.323 82.11C425.843 82.11 426.316 82.2 426.743 82.38C427.169 82.56 427.549 82.8267 427.883 83.18V77.9ZM426.033 84.08C425.366 84.08 424.839 84.37 424.453 84.95C424.073 85.5233 423.883 86.44 423.883 87.7C423.883 88.5867 423.963 89.2967 424.123 89.83C424.283 90.3567 424.509 90.7367 424.803 90.97C425.096 91.2033 425.443 91.32 425.843 91.32C426.283 91.32 426.669 91.19 427.003 90.93C427.343 90.6633 427.636 90.3333 427.883 89.94V85.12C427.636 84.7933 427.359 84.54 427.053 84.36C426.753 84.1733 426.413 84.08 426.033 84.08ZM435.665 88.51C435.718 89.17 435.868 89.7067 436.115 90.12C436.368 90.5333 436.691 90.8367 437.085 91.03C437.478 91.2233 437.915 91.32 438.395 91.32C438.901 91.32 439.378 91.24 439.825 91.08C440.271 90.92 440.711 90.6967 441.145 90.41L442.245 91.92C441.751 92.3333 441.161 92.6667 440.475 92.92C439.795 93.1733 439.045 93.3 438.225 93.3C437.078 93.3 436.111 93.0633 435.325 92.59C434.545 92.1167 433.955 91.46 433.555 90.62C433.155 89.78 432.955 88.8133 432.955 87.72C432.955 86.6667 433.151 85.7167 433.545 84.87C433.938 84.0233 434.505 83.3533 435.245 82.86C435.985 82.36 436.878 82.11 437.925 82.11C438.898 82.11 439.738 82.3233 440.445 82.75C441.151 83.1767 441.698 83.79 442.085 84.59C442.471 85.3833 442.665 86.34 442.665 87.46C442.665 87.64 442.658 87.8233 442.645 88.01C442.638 88.1967 442.628 88.3633 442.615 88.51H435.665ZM437.935 83.97C437.295 83.97 436.768 84.2 436.355 84.66C435.948 85.1133 435.708 85.8333 435.635 86.82H440.095C440.081 85.9267 439.895 85.23 439.535 84.73C439.181 84.2233 438.648 83.97 437.935 83.97ZM464.289 82.11C464.742 82.11 465.129 82.2067 465.449 82.4C465.769 82.5867 466.016 82.9033 466.189 83.35C466.362 83.79 466.449 84.39 466.449 85.15V93H464.149V85.48C464.149 85 464.109 84.66 464.029 84.46C463.956 84.26 463.786 84.16 463.519 84.16C463.299 84.16 463.076 84.2267 462.849 84.36C462.629 84.4867 462.399 84.7167 462.159 85.05V93H460.169V85.48C460.169 85 460.129 84.66 460.049 84.46C459.976 84.26 459.806 84.16 459.539 84.16C459.312 84.16 459.089 84.2267 458.869 84.36C458.649 84.4867 458.419 84.7167 458.179 85.05V93H455.849V82.41H457.819L457.989 83.51C458.302 83.07 458.632 82.7267 458.979 82.48C459.326 82.2333 459.742 82.11 460.229 82.11C460.629 82.11 460.982 82.21 461.289 82.41C461.602 82.6033 461.826 82.9367 461.959 83.41C462.266 83.0233 462.609 82.71 462.989 82.47C463.369 82.23 463.802 82.11 464.289 82.11ZM472.831 82.11C473.885 82.11 474.778 82.34 475.511 82.8C476.245 83.26 476.801 83.91 477.181 84.75C477.568 85.5833 477.761 86.56 477.761 87.68C477.761 88.8267 477.568 89.82 477.181 90.66C476.795 91.5 476.235 92.15 475.501 92.61C474.768 93.07 473.875 93.3 472.821 93.3C471.775 93.3 470.881 93.0767 470.141 92.63C469.408 92.1767 468.848 91.5333 468.461 90.7C468.075 89.86 467.881 88.86 467.881 87.7C467.881 86.5933 468.075 85.62 468.461 84.78C468.848 83.94 469.411 83.2867 470.151 82.82C470.891 82.3467 471.785 82.11 472.831 82.11ZM472.831 84.1C472.091 84.1 471.538 84.39 471.171 84.97C470.811 85.55 470.631 86.46 470.631 87.7C470.631 88.9533 470.811 89.87 471.171 90.45C471.531 91.0233 472.081 91.31 472.821 91.31C473.561 91.31 474.111 91.0233 474.471 90.45C474.831 89.87 475.011 88.9467 475.011 87.68C475.011 86.4467 474.831 85.5433 474.471 84.97C474.111 84.39 473.565 84.1 472.831 84.1ZM480.103 93V82.41H482.403L482.593 83.72C483.047 83.1867 483.557 82.7867 484.123 82.52C484.69 82.2467 485.3 82.11 485.953 82.11C486.907 82.11 487.633 82.3867 488.133 82.94C488.633 83.4867 488.883 84.2567 488.883 85.25V93H486.243V86.28C486.243 85.7467 486.21 85.32 486.143 85C486.077 84.6733 485.95 84.44 485.763 84.3C485.577 84.1533 485.307 84.08 484.953 84.08C484.667 84.08 484.39 84.1433 484.123 84.27C483.863 84.3967 483.617 84.5667 483.383 84.78C483.157 84.9933 482.943 85.23 482.743 85.49V93H480.103ZM497.866 82.41V91.13H500.656V93H492.126V91.13H495.226V84.28H492.226V82.41H497.866ZM496.156 77.07C496.642 77.07 497.036 77.22 497.336 77.52C497.642 77.82 497.796 78.1933 497.796 78.64C497.796 79.0867 497.642 79.4633 497.336 79.77C497.036 80.07 496.642 80.22 496.156 80.22C495.669 80.22 495.272 80.07 494.966 79.77C494.659 79.4633 494.506 79.0867 494.506 78.64C494.506 78.1933 494.659 77.82 494.966 77.52C495.272 77.22 495.669 77.07 496.156 77.07ZM512.588 92.41C512.194 92.67 511.718 92.8833 511.158 93.05C510.598 93.2167 509.991 93.3 509.338 93.3C508.044 93.3 507.071 92.9667 506.418 92.3C505.764 91.6267 505.438 90.7333 505.438 89.62V84.28H503.138V82.41H505.438V80.08L508.078 79.76V82.41H511.578L511.308 84.28H508.078V89.61C508.078 90.1567 508.211 90.5567 508.478 90.81C508.744 91.0633 509.174 91.19 509.768 91.19C510.148 91.19 510.494 91.1467 510.808 91.06C511.128 90.9667 511.418 90.85 511.678 90.71L512.588 92.41ZM519.52 82.11C520.573 82.11 521.467 82.34 522.2 82.8C522.933 83.26 523.49 83.91 523.87 84.75C524.257 85.5833 524.45 86.56 524.45 87.68C524.45 88.8267 524.257 89.82 523.87 90.66C523.483 91.5 522.923 92.15 522.19 92.61C521.457 93.07 520.563 93.3 519.51 93.3C518.463 93.3 517.57 93.0767 516.83 92.63C516.097 92.1767 515.537 91.5333 515.15 90.7C514.763 89.86 514.57 88.86 514.57 87.7C514.57 86.5933 514.763 85.62 515.15 84.78C515.537 83.94 516.1 83.2867 516.84 82.82C517.58 82.3467 518.473 82.11 519.52 82.11ZM519.52 84.1C518.78 84.1 518.227 84.39 517.86 84.97C517.5 85.55 517.32 86.46 517.32 87.7C517.32 88.9533 517.5 89.87 517.86 90.45C518.22 91.0233 518.77 91.31 519.51 91.31C520.25 91.31 520.8 91.0233 521.16 90.45C521.52 89.87 521.7 88.9467 521.7 87.68C521.7 86.4467 521.52 85.5433 521.16 84.97C520.8 84.39 520.253 84.1 519.52 84.1ZM526.892 93V91.17H528.382V84.23H526.892V82.41H530.392L530.882 84.84C531.269 83.94 531.756 83.2633 532.342 82.81C532.929 82.35 533.666 82.12 534.552 82.12C534.892 82.12 535.192 82.1467 535.452 82.2C535.719 82.2533 535.972 82.3233 536.212 82.41L535.422 84.63C535.216 84.5767 535.019 84.5367 534.832 84.51C534.646 84.4767 534.436 84.46 534.202 84.46C533.469 84.46 532.829 84.7467 532.282 85.32C531.742 85.8867 531.322 86.6567 531.022 87.63V91.17H533.132V93H526.892ZM533.982 86.54V83.73L534.342 82.41H536.212L535.742 86.54H533.982ZM546.914 90.21C546.914 90.6167 546.974 90.9133 547.094 91.1C547.214 91.28 547.408 91.4167 547.674 91.51L547.104 93.28C546.538 93.22 546.054 93.08 545.654 92.86C545.261 92.6333 544.958 92.2967 544.744 91.85C544.344 92.3367 543.838 92.7 543.224 92.94C542.618 93.18 541.981 93.3 541.314 93.3C540.234 93.3 539.378 92.9933 538.744 92.38C538.111 91.7667 537.794 90.97 537.794 89.99C537.794 88.8633 538.234 87.9967 539.114 87.39C540.001 86.7767 541.254 86.47 542.874 86.47H544.354V85.9C544.354 85.2733 544.161 84.82 543.774 84.54C543.388 84.2533 542.831 84.11 542.104 84.11C541.764 84.11 541.338 84.1567 540.824 84.25C540.318 84.3367 539.794 84.4733 539.254 84.66L538.624 82.85C539.298 82.5967 539.974 82.41 540.654 82.29C541.341 82.17 541.964 82.11 542.524 82.11C544.011 82.11 545.114 82.4267 545.834 83.06C546.554 83.6867 546.914 84.5767 546.914 85.73V90.21ZM542.174 91.39C542.574 91.39 542.978 91.2767 543.384 91.05C543.798 90.8233 544.121 90.5067 544.354 90.1V88.04H543.314C542.334 88.04 541.624 88.1967 541.184 88.51C540.751 88.8233 540.534 89.2667 540.534 89.84C540.534 90.3333 540.674 90.7167 540.954 90.99C541.234 91.2567 541.641 91.39 542.174 91.39ZM557.667 82.11C558.12 82.11 558.507 82.2067 558.827 82.4C559.147 82.5867 559.393 82.9033 559.567 83.35C559.74 83.79 559.827 84.39 559.827 85.15V93H557.527V85.48C557.527 85 557.487 84.66 557.407 84.46C557.333 84.26 557.163 84.16 556.897 84.16C556.677 84.16 556.453 84.2267 556.227 84.36C556.007 84.4867 555.777 84.7167 555.537 85.05V93H553.547V85.48C553.547 85 553.507 84.66 553.427 84.46C553.353 84.26 553.183 84.16 552.917 84.16C552.69 84.16 552.467 84.2267 552.247 84.36C552.027 84.4867 551.797 84.7167 551.557 85.05V93H549.227V82.41H551.197L551.367 83.51C551.68 83.07 552.01 82.7267 552.357 82.48C552.703 82.2333 553.12 82.11 553.607 82.11C554.007 82.11 554.36 82.21 554.667 82.41C554.98 82.6033 555.203 82.9367 555.337 83.41C555.643 83.0233 555.987 82.71 556.367 82.47C556.747 82.23 557.18 82.11 557.667 82.11ZM564.059 88.51C564.112 89.17 564.262 89.7067 564.509 90.12C564.762 90.5333 565.085 90.8367 565.479 91.03C565.872 91.2233 566.309 91.32 566.789 91.32C567.295 91.32 567.772 91.24 568.219 91.08C568.665 90.92 569.105 90.6967 569.539 90.41L570.639 91.92C570.145 92.3333 569.555 92.6667 568.869 92.92C568.189 93.1733 567.439 93.3 566.619 93.3C565.472 93.3 564.505 93.0633 563.719 92.59C562.939 92.1167 562.349 91.46 561.949 90.62C561.549 89.78 561.349 88.8133 561.349 87.72C561.349 86.6667 561.545 85.7167 561.939 84.87C562.332 84.0233 562.899 83.3533 563.639 82.86C564.379 82.36 565.272 82.11 566.319 82.11C567.292 82.11 568.132 82.3233 568.839 82.75C569.545 83.1767 570.092 83.79 570.479 84.59C570.865 85.3833 571.059 86.34 571.059 87.46C571.059 87.64 571.052 87.8233 571.039 88.01C571.032 88.1967 571.022 88.3633 571.009 88.51H564.059ZM566.329 83.97C565.689 83.97 565.162 84.2 564.749 84.66C564.342 85.1133 564.102 85.8333 564.029 86.82H568.489C568.475 85.9267 568.289 85.23 567.929 84.73C567.575 84.2233 567.042 83.97 566.329 83.97ZM573.481 93V82.41H575.781L575.971 83.72C576.424 83.1867 576.934 82.7867 577.501 82.52C578.068 82.2467 578.678 82.11 579.331 82.11C580.284 82.11 581.011 82.3867 581.511 82.94C582.011 83.4867 582.261 84.2567 582.261 85.25V93H579.621V86.28C579.621 85.7467 579.588 85.32 579.521 85C579.454 84.6733 579.328 84.44 579.141 84.3C578.954 84.1533 578.684 84.08 578.331 84.08C578.044 84.08 577.768 84.1433 577.501 84.27C577.241 84.3967 576.994 84.5667 576.761 84.78C576.534 84.9933 576.321 85.23 576.121 85.49V93H573.481ZM594.293 92.41C593.9 92.67 593.423 92.8833 592.863 93.05C592.303 93.2167 591.696 93.3 591.043 93.3C589.75 93.3 588.776 92.9667 588.123 92.3C587.47 91.6267 587.143 90.7333 587.143 89.62V84.28H584.843V82.41H587.143V80.08L589.783 79.76V82.41H593.283L593.013 84.28H589.783V89.61C589.783 90.1567 589.916 90.5567 590.183 90.81C590.45 91.0633 590.88 91.19 591.473 91.19C591.853 91.19 592.2 91.1467 592.513 91.06C592.833 90.9667 593.123 90.85 593.383 90.71L594.293 92.41ZM601.225 82.11C602.279 82.11 603.172 82.34 603.905 82.8C604.639 83.26 605.195 83.91 605.575 84.75C605.962 85.5833 606.155 86.56 606.155 87.68C606.155 88.8267 605.962 89.82 605.575 90.66C605.189 91.5 604.629 92.15 603.895 92.61C603.162 93.07 602.269 93.3 601.215 93.3C600.169 93.3 599.275 93.0767 598.535 92.63C597.802 92.1767 597.242 91.5333 596.855 90.7C596.469 89.86 596.275 88.86 596.275 87.7C596.275 86.5933 596.469 85.62 596.855 84.78C597.242 83.94 597.805 83.2867 598.545 82.82C599.285 82.3467 600.179 82.11 601.225 82.11ZM601.225 84.1C600.485 84.1 599.932 84.39 599.565 84.97C599.205 85.55 599.025 86.46 599.025 87.7C599.025 88.9533 599.205 89.87 599.565 90.45C599.925 91.0233 600.475 91.31 601.215 91.31C601.955 91.31 602.505 91.0233 602.865 90.45C603.225 89.87 603.405 88.9467 603.405 87.68C603.405 86.4467 603.225 85.5433 602.865 84.97C602.505 84.39 601.959 84.1 601.225 84.1ZM612.828 78.87C613.781 78.87 614.581 79.0233 615.228 79.33C615.874 79.63 616.364 80.03 616.698 80.53C617.031 81.0233 617.198 81.5533 617.198 82.12C617.198 82.7667 617.074 83.2933 616.828 83.7C616.581 84.1067 616.274 84.45 615.908 84.73C615.548 85.0033 615.184 85.2667 614.818 85.52C614.451 85.7667 614.144 86.05 613.898 86.37C613.651 86.6833 613.528 87.09 613.528 87.59V88.1H611.058V87.49C611.058 86.8167 611.171 86.2633 611.398 85.83C611.631 85.3967 611.914 85.0367 612.248 84.75C612.588 84.4633 612.924 84.2067 613.258 83.98C613.598 83.7533 613.881 83.5167 614.108 83.27C614.341 83.0167 614.458 82.7033 614.458 82.33C614.458 81.8967 614.281 81.5633 613.928 81.33C613.574 81.09 613.128 80.97 612.588 80.97C612.128 80.97 611.668 81.0767 611.208 81.29C610.754 81.5033 610.338 81.8333 609.958 82.28L608.248 80.96C608.821 80.28 609.488 79.7633 610.248 79.41C611.008 79.05 611.868 78.87 612.828 78.87ZM612.338 90.01C612.798 90.01 613.188 90.1733 613.508 90.5C613.828 90.82 613.988 91.2033 613.988 91.65C613.988 92.1033 613.828 92.4933 613.508 92.82C613.188 93.14 612.798 93.3 612.338 93.3C611.878 93.3 611.488 93.14 611.168 92.82C610.854 92.4933 610.698 92.1033 610.698 91.65C610.698 91.2033 610.854 90.82 611.168 90.5C611.488 90.1733 611.878 90.01 612.338 90.01Z" fill="#FBFFFD"/>
<path d="M718 107.5C717.172 107.5 716.5 108.172 716.5 109C716.5 109.828 717.172 110.5 718 110.5V107.5ZM750.282 110.061C750.868 109.475 750.868 108.525 750.282 107.939L740.736 98.3934C740.15 97.8076 739.201 97.8076 738.615 98.3934C738.029 98.9792 738.029 99.9289 738.615 100.515L747.1 109L738.615 117.485C738.029 118.071 738.029 119.021 738.615 119.607C739.201 120.192 740.15 120.192 740.736 119.607L750.282 110.061ZM718 110.5H749.221V107.5H718V110.5Z" fill="#57EB23"/>
</svg>
