<svg width="405" height="219" viewBox="0 0 405 219" fill="none" xmlns="http://www.w3.org/2000/svg">
<g clip-path="url(#clip0_312_500)">
<path d="M17.2524 71.292C29.9086 66.7518 42.5649 62.7684 55.1782 58.2282L104.516 53.8165C100.269 55.9581 95.335 58.0997 89.7577 60.0272C87.6554 60.7553 82.2068 62.5971 70.7089 64.9528C67.7916 65.5525 58.1814 67.5228 44.0236 69.3217C36.9446 70.2212 27.8922 70.6067 17.2095 71.292H17.2524Z" fill="#42210B" stroke="black" stroke-width="0.05" stroke-miterlimit="10"/>
<path d="M396.554 73.1337L360.516 59.9843H330.141C337.691 63.7535 347.859 67.9511 360.301 70.7351C374.759 73.9904 387.33 73.6477 396.597 73.1337H396.554Z" fill="#42210B" stroke="black" stroke-width="0.05" stroke-miterlimit="10"/>
<path d="M82.0352 211.909C82.0352 212.381 82.2497 216.064 80.8768 217.563C78.8175 219.833 75.4711 219.277 75.0421 219.234C54.2343 219.405 25.2751 218.334 4.03835 218.463C2.96578 218.463 1.97902 217.906 1.5071 216.921C-0.595128 212.552 4.51027 205.999 4.63898 205.827C5.28252 205.87 5.84025 210.025 6.48379 210.068C32.6543 212.124 82.0352 211.909 82.0352 211.909Z" fill="#603813" stroke="black" stroke-width="0.1" stroke-miterlimit="10"/>
<path d="M88.1272 204.928C88.1272 205.399 87.5695 207.583 85.8105 209.768C84.3947 211.567 80.8338 211.61 80.4048 211.567C59.5112 211.738 28.6214 210.582 7.38464 210.71C6.6982 210.71 6.01176 210.453 5.62564 209.896C2.57956 205.527 7.89947 198.717 8.02818 198.503C8.67172 198.546 8.3285 202.187 8.97204 202.229C35.1426 204.328 61.9567 202.829 88.1272 204.928Z" fill="#603813" stroke="black" stroke-width="0.1" stroke-miterlimit="10"/>
<path d="M329.926 210.839C329.926 211.31 329.755 214.993 330.999 216.492C332.887 218.763 336.018 218.206 336.447 218.163C355.839 218.334 382.868 217.263 402.646 217.392C403.633 217.392 404.577 216.835 405.006 215.85C406.979 211.481 402.217 204.928 402.088 204.756C401.488 204.799 400.973 208.954 400.372 208.997C375.961 211.053 329.926 210.839 329.926 210.839Z" fill="#603813" stroke="black" stroke-width="0.15" stroke-miterlimit="10"/>
<path d="M324.22 203.857C324.22 204.328 324.735 206.513 326.365 208.697C327.695 210.496 330.999 210.539 331.428 210.496C350.906 210.667 379.736 209.511 399.514 209.639C400.158 209.639 400.801 209.382 401.144 208.826C403.976 204.457 398.742 197.646 398.613 197.432C398.013 197.475 397.97 201.116 397.369 201.159C372.957 203.257 348.589 201.758 324.177 203.857H324.22Z" fill="#603813" stroke="black" stroke-width="0.15" stroke-miterlimit="10"/>
<path d="M17.2524 71.8488C17.3811 76.1748 17.5527 82.514 17.6385 90.2237C17.853 110.826 17.9388 121.32 16.0511 130.186C14.6353 136.868 11.6751 146.591 4.72485 157.727C5.96903 171.733 7.47062 187.709 8.71479 201.844C8.80059 202.658 9.44413 203.3 10.3022 203.343C36.344 204.885 62.1285 203.215 88.1703 204.842C88.5993 204.071 89.9722 202.272 92.6751 201.501C95.6782 200.645 98.3811 200.388 99.2392 200.516C169.299 199.531 241.161 200.602 311.221 199.617C312.465 199.445 317.913 199.274 320.273 199.617C322.032 199.874 323.362 201.887 324.263 202.958C349.533 202.272 372.142 201.844 397.412 201.201L404.233 158.241C402.303 155.671 399.428 151.431 397.197 145.734C392.564 134.127 393.722 124.832 395.267 99.1328C395.61 93.6503 396.125 84.8269 396.64 73.6906C390.462 73.6906 382.053 73.3051 372.185 71.8488C360.473 70.0927 340.652 65.8951 316.069 53.3025C277.37 33.4713 280.459 19.2083 253.388 8.71443C217.95 -5.03464 184.015 3.48892 178.523 4.94521C135.32 16.3814 126.525 51.8034 84.3949 62.0403C67.3197 66.195 47.0268 68.9362 47.0268 68.9362C34.8424 70.6067 24.6316 71.4205 17.424 71.8488H17.2524Z" fill="#603813" stroke="black" stroke-width="0.25" stroke-miterlimit="10"/>
<path d="M125.281 99.9894L125.71 120.806C125.71 120.806 128.627 122.99 130.901 120.549L130.172 100.032C130.172 99.4326 127.126 97.548 125.281 100.032V99.9894Z" fill="#666666" stroke="#1A1A1A" stroke-width="0.08" stroke-miterlimit="10"/>
<path d="M127.726 101.617C129.077 101.617 130.172 100.965 130.172 100.161C130.172 99.3565 129.077 98.7045 127.726 98.7045C126.376 98.7045 125.281 99.3565 125.281 100.161C125.281 100.965 126.376 101.617 127.726 101.617Z" fill="#1A1A1A"/>
<path d="M125.281 106.543C125.281 106.543 127.855 108.641 130.386 106.543" stroke="#1A1A1A" stroke-width="0.05" stroke-miterlimit="10"/>
<path d="M125.538 112.411C125.538 112.411 127.855 114.424 130.515 112.368" stroke="#1A1A1A" stroke-width="0.05" stroke-miterlimit="10"/>
<path d="M17.2524 71.806C24.7604 115.623 32.3112 159.483 39.8192 203.3L88.1704 204.928C82.593 158.798 76.3721 111.383 70.7948 65.2527C61.0988 67.4371 50.2016 69.3646 38.2318 70.5639C30.8525 71.292 23.8165 71.6775 17.2524 71.806Z" fill="#42210B" stroke="black" stroke-width="0.05" stroke-miterlimit="10"/>
<path d="M210.657 187.024C254.302 187.024 289.684 151.701 289.684 108.127C289.684 64.554 254.302 29.2308 210.657 29.2308C167.012 29.2308 131.631 64.554 131.631 108.127C131.631 151.701 167.012 187.024 210.657 187.024Z" fill="#2B140A" stroke="#2B140A" stroke-width="0.75" stroke-miterlimit="10"/>
<path d="M347.001 66.9659L326.065 202.315L373.944 201.373L396.554 74.5472C389.432 74.5472 381.195 74.076 372.099 72.7054C362.489 71.2491 354.08 69.1504 347.001 66.9231V66.9659Z" fill="#42210B" stroke="black" stroke-width="0.05" stroke-miterlimit="10"/>
<path d="M210.803 187.324C254.447 187.324 289.828 152.001 289.828 108.429C289.828 64.8561 254.447 29.5336 210.803 29.5336C167.159 29.5336 131.778 64.8561 131.778 108.429C131.778 152.001 167.159 187.324 210.803 187.324Z" fill="#391E00" stroke="#2B140A" stroke-width="0.75" stroke-miterlimit="10"/>
<path d="M151.813 159.055C156.446 163.938 176.353 183.897 207.843 185.353C244.18 187.024 267.734 162.867 271.552 158.798C236.973 159.697 186.349 158.155 151.813 159.055Z" fill="#2B140A"/>
<path d="M195.889 187.327C231.296 187.327 260 152.003 260 108.43C260 64.8568 231.296 29.5336 195.889 29.5336C160.481 29.5336 131.778 64.8568 131.778 108.43C131.778 152.003 160.481 187.327 195.889 187.327Z" fill="#BBBBB2" stroke="#2B140A" stroke-width="0.75" stroke-miterlimit="10"/>
<path d="M195.889 187.327C231.296 187.327 260 152.003 260 108.43C260 64.8568 231.296 29.5336 195.889 29.5336C160.481 29.5336 131.778 64.8568 131.778 108.43C131.778 152.003 160.481 187.327 195.889 187.327Z" fill="#BBBBB2" stroke="#2B140A" stroke-width="0.75" stroke-miterlimit="10"/>
<path d="M195.68 53.991C219.765 53.991 239.395 78.1054 239.395 107.788C239.395 137.471 219.8 161.585 195.68 161.585C171.56 161.585 151.965 137.471 151.965 107.788C151.965 78.1054 171.56 53.991 195.68 53.991ZM195.68 52.9202C171.073 52.9202 151.095 77.4629 151.095 107.788C151.095 138.113 171.038 162.656 195.68 162.656C220.322 162.656 240.266 138.113 240.266 107.788C240.266 77.4629 220.322 52.9202 195.68 52.9202Z" fill="#42210B"/>
<path d="M195.802 48.7012C195.802 48.8154 195.674 48.8725 195.419 48.8725H195.21C195.21 48.8725 194.99 48.8725 194.549 48.8725C194.108 48.8582 193.661 48.8511 193.209 48.8511C192.408 48.8511 191.898 48.8582 191.677 48.8725C191.457 48.8868 191.283 48.8939 191.155 48.8939C190.877 48.8939 190.738 48.8297 190.738 48.7012C190.738 48.5727 190.819 48.5084 190.981 48.5084C191.236 48.5084 191.509 48.5013 191.799 48.487C192.159 48.4727 192.35 48.3657 192.373 48.1658C192.408 47.9516 192.426 47.5019 192.426 46.8166V36.7511C192.426 36.2942 192.414 36.0229 192.391 35.9372C192.368 35.8516 192.286 35.8088 192.147 35.8088C192.089 35.8088 191.712 35.8444 191.016 35.9158C190.877 35.9301 190.784 35.9372 190.738 35.9372C190.598 35.9372 190.529 35.8873 190.529 35.7873C190.529 35.6731 190.598 35.6089 190.738 35.5946C191.283 35.5232 191.834 35.3233 192.391 34.9949C192.948 34.6523 193.394 34.2525 193.731 33.7956C193.858 33.6672 193.945 33.6029 193.992 33.6029C194.085 33.6029 194.131 33.6743 194.131 33.8171V34.224C194.12 34.3382 194.114 34.4667 194.114 34.6095V47.4162C194.114 47.9302 194.131 48.23 194.166 48.3157C194.212 48.4014 194.357 48.4513 194.601 48.4656L195.001 48.487L195.297 48.5084H195.558C195.721 48.5084 195.802 48.5727 195.802 48.7012Z" fill="black"/>
<path d="M227.231 59.6664C227.231 59.7806 227.103 59.8378 226.848 59.8378H226.639C226.639 59.8378 226.419 59.8378 225.978 59.8378C225.537 59.8235 225.09 59.8163 224.638 59.8163C223.837 59.8163 223.327 59.8235 223.107 59.8378C222.886 59.852 222.712 59.8592 222.584 59.8592C222.306 59.8592 222.167 59.7949 222.167 59.6664C222.167 59.5379 222.248 59.4737 222.41 59.4737C222.666 59.4737 222.938 59.4665 223.228 59.4523C223.588 59.438 223.779 59.3309 223.803 59.131C223.837 58.9169 223.855 58.4671 223.855 57.7818V47.7163C223.855 47.2594 223.843 46.9882 223.82 46.9025C223.797 46.8168 223.716 46.774 223.576 46.774C223.518 46.774 223.141 46.8097 222.445 46.8811C222.306 46.8954 222.213 46.9025 222.167 46.9025C222.028 46.9025 221.958 46.8525 221.958 46.7526C221.958 46.6384 222.028 46.5741 222.167 46.5598C222.712 46.4884 223.263 46.2886 223.82 45.9602C224.377 45.6175 224.824 45.2178 225.16 44.7609C225.288 44.6324 225.375 44.5681 225.421 44.5681C225.514 44.5681 225.56 44.6395 225.56 44.7823V45.1892C225.549 45.3034 225.543 45.4319 225.543 45.5747V58.3815C225.543 58.8955 225.56 59.1953 225.595 59.2809C225.641 59.3666 225.787 59.4166 226.03 59.4309L226.43 59.4523L226.726 59.4737H226.987C227.15 59.4737 227.231 59.5379 227.231 59.6664Z" fill="black"/>
<path d="M246.895 77.9339C246.895 77.9768 246.884 78.091 246.86 78.2766C246.802 78.7477 246.71 79.9114 246.582 81.7674L246.565 82.0244C245.37 81.953 244.006 81.9173 242.475 81.9173C241.651 81.9173 240.88 81.9316 240.16 81.9601C239.441 81.9887 239.128 82.003 239.221 82.003C238.907 82.003 238.751 81.9316 238.751 81.7888C238.751 81.6746 239.052 81.3177 239.656 80.718C241.106 79.2617 242.138 78.0767 242.753 77.163C243.821 75.5782 244.354 73.715 244.354 71.5734C244.354 70.1314 244.111 69.0392 243.623 68.2967C243.252 67.7256 242.73 67.4401 242.057 67.4401C241.396 67.4401 240.874 67.69 240.491 68.1897C240.189 68.5751 240.039 68.9606 240.039 69.3461C240.039 69.5888 240.195 69.7173 240.508 69.7316C241.321 69.7744 241.727 70.2099 241.727 71.038C241.727 71.8232 241.39 72.2159 240.717 72.2159C240.288 72.2159 239.946 72.0517 239.69 71.7233C239.435 71.3949 239.308 70.9452 239.308 70.3741C239.308 69.3176 239.609 68.4681 240.213 67.8256C240.816 67.1831 241.611 66.8619 242.597 66.8619C243.583 66.8619 244.401 67.2474 245.05 68.0183C245.805 68.9178 246.182 70.0885 246.182 71.5306C246.182 73.1153 245.752 74.5788 244.894 75.9208C244.035 77.2486 242.591 78.6978 240.561 80.2683C241.326 80.2397 242.289 80.2255 243.449 80.2255C244.412 80.2255 245.021 80.2112 245.277 80.1826C245.532 80.1398 245.758 80.047 245.955 79.9042C246.118 79.7757 246.257 79.2974 246.373 78.4693C246.454 77.8982 246.57 77.6127 246.721 77.6127C246.837 77.6127 246.895 77.7198 246.895 77.9339Z" fill="black"/>
<path d="M253.968 107.778C253.968 109.081 253.541 110.196 252.685 111.123C251.741 112.144 250.535 112.654 249.067 112.654C247.868 112.654 246.987 112.308 246.426 111.617C246.068 111.178 245.89 110.675 245.89 110.11C245.89 109.623 246.011 109.238 246.253 108.955C246.509 108.657 246.847 108.508 247.268 108.508C247.6 108.508 247.874 108.626 248.091 108.861C248.308 109.097 248.417 109.395 248.417 109.756C248.417 110.306 248.117 110.738 247.517 111.052C247.274 111.178 247.153 111.303 247.153 111.429C247.153 111.633 247.319 111.822 247.651 111.994C247.983 112.151 248.346 112.23 248.742 112.23C249.712 112.23 250.497 111.822 251.097 111.005C251.709 110.188 252.015 109.12 252.015 107.801C252.015 105.147 251.046 103.82 249.106 103.82C248.914 103.82 248.774 103.828 248.685 103.843H248.551C248.385 103.843 248.302 103.773 248.302 103.631C248.302 103.521 248.455 103.435 248.761 103.372C249.655 103.215 250.344 102.815 250.829 102.171C251.314 101.511 251.556 100.671 251.556 99.6502C251.556 98.6451 251.345 97.8441 250.924 97.2473C250.503 96.6348 249.935 96.3286 249.221 96.3286C248.697 96.3286 248.238 96.4699 247.842 96.7526C247.459 97.0196 247.268 97.3337 247.268 97.6949C247.268 97.8362 247.357 97.9305 247.536 97.9776C248.378 98.2289 248.799 98.6608 248.799 99.2733C248.799 100.074 248.461 100.475 247.785 100.475C247.351 100.475 247 100.318 246.732 100.004C246.477 99.6894 246.349 99.2733 246.349 98.755C246.349 97.9069 246.643 97.2002 247.23 96.6348C247.83 96.0537 248.659 95.7632 249.718 95.7632C250.931 95.7632 251.856 96.1479 252.494 96.9175C253.132 97.687 253.451 98.5822 253.451 99.6031C253.451 101.017 252.909 102.061 251.824 102.736C251.441 102.972 250.822 103.168 249.967 103.325V103.49C251.026 103.537 251.881 103.828 252.532 104.362C253.489 105.147 253.968 106.286 253.968 107.778Z" fill="black"/>
<path d="M246.866 140.019C246.866 140.176 246.802 140.255 246.675 140.255C246.56 140.255 246.483 140.168 246.445 139.996C246.42 139.807 246.375 139.312 246.311 138.511C246.286 138.386 246.234 138.292 246.158 138.229C246.005 138.119 245.667 138.064 245.143 138.064C245.003 138.064 244.869 138.072 244.741 138.087L244.761 141.786C244.824 141.974 244.926 142.092 245.067 142.139C245.22 142.186 245.584 142.21 246.158 142.21C246.439 142.21 246.605 142.241 246.656 142.304C246.668 142.336 246.675 142.383 246.675 142.445C246.675 142.555 246.42 142.61 245.909 142.61C245.399 142.61 243.969 142.626 241.621 142.658C241.493 142.673 241.353 142.681 241.2 142.681C240.945 142.681 240.817 142.603 240.817 142.445C240.817 142.288 241.002 142.218 241.372 142.233C241.806 142.249 242.202 142.218 242.559 142.139C242.712 142.108 242.808 142.029 242.846 141.904C242.884 141.762 242.904 141.464 242.904 141.008V138.158C242.648 138.142 242.355 138.134 242.023 138.134H241.238C241.06 138.134 240.862 138.142 240.645 138.158C240.453 138.158 240.332 138.158 240.281 138.158L237.85 138.087C237.671 138.072 237.582 138.009 237.582 137.899C237.582 137.82 238.52 136.195 240.396 133.022C240.983 132.002 242.278 129.756 244.282 126.285C244.371 126.128 244.461 126.049 244.55 126.049C244.678 126.049 244.741 126.199 244.741 126.497V137.569H244.933C245.367 137.569 245.705 137.538 245.947 137.475C246.203 137.412 246.33 137.255 246.33 137.004C246.317 136.014 246.311 135.677 246.311 135.991C246.324 135.425 246.394 135.143 246.522 135.143C246.7 135.143 246.79 135.363 246.79 135.802V136.862L246.809 138.558C246.822 139.14 246.834 139.509 246.847 139.666C246.86 139.807 246.866 139.925 246.866 140.019ZM243.019 129.512C242.891 129.764 242.623 130.243 242.215 130.949C241.653 131.907 240.804 133.337 239.669 135.237L238.309 137.522C238.782 137.569 239.796 137.593 241.353 137.593C241.902 137.593 242.419 137.585 242.904 137.569V135.896C242.904 135.111 242.923 134.051 242.961 132.716C242.999 131.146 243.019 130.078 243.019 129.512Z" fill="black"/>
<path d="M228.571 167.346C228.571 169.173 228.002 170.573 226.865 171.544C226.181 172.129 225.293 172.422 224.203 172.422C223.112 172.422 222.311 172.072 221.801 171.372C221.523 170.987 221.383 170.53 221.383 170.002C221.383 169.559 221.499 169.202 221.731 168.931C221.963 168.645 222.265 168.502 222.636 168.502C222.938 168.502 223.187 168.61 223.385 168.824C223.593 169.038 223.698 169.302 223.698 169.616C223.698 170.144 223.414 170.544 222.845 170.815C222.59 170.93 222.462 171.058 222.462 171.201C222.462 171.429 222.63 171.636 222.967 171.822C223.315 171.993 223.698 172.079 224.116 172.079C224.928 172.079 225.537 171.736 225.943 171.051C226.5 170.109 226.778 168.838 226.778 167.239C226.778 166.068 226.558 165.162 226.117 164.519C225.676 163.877 225.049 163.555 224.237 163.555C223.611 163.555 222.921 163.848 222.166 164.433C222.236 161.221 222.288 159.194 222.323 158.351C222.335 157.866 222.422 157.573 222.584 157.473C222.747 157.359 223.187 157.302 223.907 157.302C224.023 157.302 224.22 157.302 224.498 157.302C224.777 157.316 224.997 157.323 225.16 157.323H225.751C226.552 157.323 227.016 157.309 227.144 157.28C227.283 157.238 227.37 157.116 227.405 156.916C227.451 156.588 227.532 156.424 227.648 156.424C227.764 156.424 227.822 156.502 227.822 156.659C227.822 156.759 227.816 156.838 227.805 156.895L227.77 157.388C227.712 158.187 227.59 158.687 227.405 158.887C227.231 159.072 226.796 159.165 226.099 159.165L222.776 159.144C222.729 159.629 222.689 161.093 222.654 163.534C223.315 163.163 224.005 162.977 224.725 162.977C225.92 162.977 226.859 163.37 227.544 164.155C228.228 164.926 228.571 165.99 228.571 167.346Z" fill="black"/>
<path d="M200.326 177.497C200.326 178.882 199.984 180.067 199.3 181.052C198.615 182.037 197.797 182.53 196.846 182.53C195.651 182.53 194.682 181.923 193.94 180.71C193.197 179.496 192.826 177.918 192.826 175.977C192.826 174.192 193.139 172.564 193.766 171.094C194.404 169.623 195.251 168.552 196.306 167.881C197.188 167.325 198.151 167.046 199.195 167.046C199.439 167.046 199.561 167.103 199.561 167.217C199.561 167.317 199.479 167.374 199.317 167.389C198.273 167.503 197.351 167.967 196.55 168.781C195.506 169.837 194.891 171.636 194.705 174.178C195.343 173.435 196.063 173.064 196.863 173.064C197.513 173.064 198.122 173.278 198.691 173.706C199.781 174.52 200.326 175.784 200.326 177.497ZM198.534 177.561C198.534 174.906 197.867 173.578 196.533 173.578C195.929 173.578 195.465 173.899 195.14 174.542C194.816 175.17 194.653 176.055 194.653 177.197C194.653 178.839 194.891 180.167 195.367 181.181C195.668 181.823 196.109 182.144 196.689 182.144C197.919 182.144 198.534 180.617 198.534 177.561Z" fill="black"/>
<path d="M171.473 158.394C171.473 158.48 170.8 159.815 169.454 162.399C168.7 163.855 168.184 164.997 167.905 165.825C167.627 166.639 167.488 167.453 167.488 168.267C167.488 168.681 167.569 169.495 167.731 170.708C167.789 171.136 167.818 171.501 167.818 171.8C167.818 172.814 167.511 173.321 166.896 173.321C166.165 173.321 165.8 172.543 165.8 170.987C165.8 169.545 166.339 167.646 167.418 165.29C168.103 163.805 168.99 162.077 170.081 160.107H167.436C166.067 160.107 165.278 160.114 165.069 160.129C164.814 160.143 164.634 160.193 164.529 160.279C164.437 160.364 164.367 160.486 164.321 160.643C164.286 160.785 164.193 161.285 164.042 162.142C163.996 162.313 163.926 162.399 163.833 162.399C163.717 162.399 163.659 162.313 163.659 162.142C163.659 161.97 163.688 161.692 163.746 161.307C163.874 160.436 163.955 159.693 163.99 159.079C164.013 158.637 164.089 158.33 164.216 158.158C164.297 158.158 164.535 158.173 164.93 158.201C165.811 158.258 166.449 158.287 166.844 158.287L170.446 158.244C170.539 158.244 170.638 158.237 170.742 158.223C170.835 158.223 170.893 158.223 170.916 158.223C171.287 158.223 171.473 158.28 171.473 158.394Z" fill="black"/>
<path d="M153.008 143.51C153.008 144.938 152.527 146.087 151.564 146.958C150.914 147.543 150.108 147.836 149.145 147.836C148.112 147.836 147.242 147.551 146.535 146.979C145.572 146.208 145.09 145.123 145.09 143.724C145.09 141.597 146.024 140.248 147.892 139.677V139.569C147.184 139.327 146.627 138.92 146.221 138.349C145.827 137.763 145.63 137.071 145.63 136.271C145.63 135.158 145.937 134.251 146.552 133.552C147.178 132.838 147.985 132.481 148.971 132.481C149.841 132.481 150.555 132.738 151.111 133.252C151.924 133.994 152.33 134.951 152.33 136.122C152.33 136.964 152.127 137.721 151.721 138.392C151.314 139.048 150.81 139.448 150.207 139.591L150.224 139.677C152.08 140.133 153.008 141.411 153.008 143.51ZM150.607 136.164C150.607 134.894 150.421 133.958 150.05 133.359C149.829 133.002 149.476 132.823 148.988 132.823C147.898 132.823 147.352 133.944 147.352 136.186C147.352 138.37 147.938 139.462 149.11 139.462C149.632 139.462 149.998 139.227 150.207 138.756C150.473 138.142 150.607 137.278 150.607 136.164ZM151.233 143.724C151.233 141.126 150.526 139.826 149.11 139.826C148.402 139.826 147.851 140.162 147.457 140.833C147.062 141.49 146.865 142.404 146.865 143.574C146.865 144.788 147.068 145.744 147.474 146.444C147.892 147.144 148.46 147.493 149.18 147.493C149.795 147.493 150.247 147.279 150.537 146.851C151.001 146.166 151.233 145.123 151.233 143.724Z" fill="black"/>
<path d="M145.677 102.59C145.677 104.648 145.287 106.516 144.509 108.197C143.743 109.862 142.735 111.016 141.484 111.66C140.565 112.131 139.647 112.367 138.728 112.367C138.396 112.367 138.23 112.312 138.23 112.202C138.23 112.107 138.319 112.045 138.498 112.013C140.655 111.668 142.135 110.348 142.939 108.056C143.258 107.129 143.482 105.951 143.609 104.522C142.907 105.339 142.116 105.747 141.235 105.747C140.393 105.747 139.627 105.433 138.938 104.805C137.93 103.894 137.426 102.551 137.426 100.776C137.426 99.2686 137.796 97.9886 138.536 96.9364C139.289 95.8684 140.195 95.3344 141.255 95.3344C142.556 95.3344 143.616 96.0098 144.432 97.3604C145.262 98.711 145.677 100.454 145.677 102.59ZM143.667 101.035C143.667 99.245 143.399 97.8315 142.863 96.795C142.492 96.0883 141.988 95.7349 141.35 95.7349C140.036 95.7349 139.379 97.4311 139.379 100.823C139.379 103.729 140.112 105.182 141.58 105.182C142.231 105.182 142.741 104.82 143.111 104.098C143.482 103.36 143.667 102.339 143.667 101.035Z" fill="black"/>
<path d="M149.893 80.1826C149.893 80.2968 149.766 80.3539 149.51 80.3539H149.301C149.301 80.3539 149.081 80.3539 148.64 80.3539C148.199 80.3397 147.753 80.3325 147.3 80.3325C146.5 80.3325 145.989 80.3397 145.769 80.3539C145.548 80.3682 145.374 80.3753 145.247 80.3753C144.968 80.3753 144.829 80.3111 144.829 80.1826C144.829 80.0541 144.91 79.9899 145.073 79.9899C145.328 79.9899 145.6 79.9827 145.891 79.9684C146.25 79.9542 146.442 79.8471 146.465 79.6472C146.5 79.433 146.517 78.9833 146.517 78.298V68.2325C146.517 67.7756 146.505 67.5043 146.482 67.4187C146.459 67.333 146.378 67.2902 146.239 67.2902C146.181 67.2902 145.804 67.3259 145.107 67.3972C144.968 67.4115 144.875 67.4187 144.829 67.4187C144.69 67.4187 144.62 67.3687 144.62 67.2688C144.62 67.1545 144.69 67.0903 144.829 67.076C145.374 67.0046 145.925 66.8047 146.482 66.4764C147.039 66.1337 147.486 65.7339 147.822 65.2771C147.95 65.1486 148.037 65.0843 148.083 65.0843C148.176 65.0843 148.222 65.1557 148.222 65.2985V65.7054C148.211 65.8196 148.205 65.9481 148.205 66.0909V78.8976C148.205 79.4116 148.222 79.7114 148.257 79.7971C148.304 79.8828 148.449 79.9327 148.692 79.947L149.093 79.9684L149.388 79.9899H149.649C149.812 79.9899 149.893 80.0541 149.893 80.1826Z" fill="black"/>
<path d="M168.584 58.3384C168.584 58.4526 168.456 58.5097 168.201 58.5097H167.992C167.992 58.5097 167.772 58.5097 167.331 58.5097C166.89 58.4954 166.443 58.4883 165.991 58.4883C165.19 58.4883 164.68 58.4954 164.459 58.5097C164.239 58.524 164.065 58.5311 163.937 58.5311C163.659 58.5311 163.52 58.4669 163.52 58.3384C163.52 58.2099 163.601 58.1456 163.763 58.1456C164.019 58.1456 164.291 58.1385 164.581 58.1242C164.941 58.1099 165.132 58.0029 165.156 57.803C165.19 57.5888 165.208 57.1391 165.208 56.4538V46.3883C165.208 45.9314 165.196 45.6601 165.173 45.5744C165.15 45.4888 165.069 45.446 164.929 45.446C164.871 45.446 164.494 45.4816 163.798 45.553C163.659 45.5673 163.566 45.5744 163.52 45.5744C163.381 45.5744 163.311 45.5245 163.311 45.4245C163.311 45.3103 163.381 45.2461 163.52 45.2318C164.065 45.1604 164.616 44.9605 165.173 44.6321C165.73 44.2895 166.177 43.8897 166.513 43.4328C166.641 43.3044 166.728 43.2401 166.774 43.2401C166.867 43.2401 166.913 43.3115 166.913 43.4543V43.8612C166.902 43.9754 166.896 44.1039 166.896 44.2467V57.0534C166.896 57.5674 166.913 57.8672 166.948 57.9529C166.994 58.0386 167.139 58.0885 167.383 58.1028L167.783 58.1242L168.079 58.1456H168.34C168.503 58.1456 168.584 58.2099 168.584 58.3384Z" fill="black"/>
<path d="M202.484 44.8249C202.484 44.8677 202.472 44.9819 202.449 45.1675C202.391 45.6387 202.298 46.8023 202.17 48.6584L202.153 48.9153C200.958 48.844 199.595 48.8083 198.063 48.8083C197.24 48.8083 196.468 48.8225 195.749 48.8511C195.03 48.8797 194.716 48.8939 194.809 48.8939C194.496 48.8939 194.339 48.8225 194.339 48.6798C194.339 48.5655 194.641 48.2086 195.244 47.609C196.694 46.1527 197.727 44.9677 198.342 44.0539C199.409 42.4691 199.943 40.6059 199.943 38.4643C199.943 37.0223 199.699 35.9301 199.212 35.1877C198.841 34.6166 198.319 34.331 197.646 34.331C196.985 34.331 196.462 34.5809 196.08 35.0806C195.778 35.4661 195.627 35.8516 195.627 36.2371C195.627 36.4798 195.784 36.6083 196.097 36.6226C196.909 36.6654 197.315 37.1009 197.315 37.9289C197.315 38.7142 196.979 39.1068 196.306 39.1068C195.877 39.1068 195.534 38.9426 195.279 38.6142C195.024 38.2859 194.896 37.8361 194.896 37.265C194.896 36.2085 195.198 35.359 195.801 34.7165C196.404 34.0741 197.199 33.7528 198.185 33.7528C199.171 33.7528 199.989 34.1383 200.639 34.9093C201.393 35.8088 201.77 36.9795 201.77 38.4215C201.77 40.0063 201.341 41.4697 200.482 42.8118C199.624 44.1396 198.18 45.5887 196.149 47.1592C196.915 47.1307 197.878 47.1164 199.038 47.1164C200.001 47.1164 200.61 47.1021 200.865 47.0736C201.121 47.0307 201.347 46.9379 201.544 46.7952C201.706 46.6667 201.846 46.1884 201.962 45.3603C202.043 44.7892 202.159 44.5036 202.31 44.5036C202.426 44.5036 202.484 44.6107 202.484 44.8249Z" fill="black"/>
<path d="M173.109 58.3384C173.109 58.4526 172.981 58.5097 172.726 58.5097H172.517C172.517 58.5097 172.297 58.5097 171.856 58.5097C171.415 58.4954 170.968 58.4883 170.516 58.4883C169.715 58.4883 169.205 58.4954 168.984 58.5097C168.764 58.524 168.59 58.5311 168.462 58.5311C168.184 58.5311 168.045 58.4669 168.045 58.3384C168.045 58.2099 168.126 58.1456 168.288 58.1456C168.543 58.1456 168.816 58.1385 169.106 58.1242C169.466 58.1099 169.657 58.0029 169.68 57.803C169.715 57.5888 169.733 57.1391 169.733 56.4538V46.3883C169.733 45.9314 169.721 45.6601 169.698 45.5744C169.675 45.4888 169.593 45.446 169.454 45.446C169.396 45.446 169.019 45.4816 168.323 45.553C168.184 45.5673 168.091 45.5744 168.045 45.5744C167.905 45.5744 167.836 45.5245 167.836 45.4245C167.836 45.3103 167.905 45.2461 168.045 45.2318C168.59 45.1604 169.141 44.9605 169.698 44.6321C170.255 44.2895 170.701 43.8897 171.038 43.4328C171.165 43.3044 171.252 43.2401 171.299 43.2401C171.392 43.2401 171.438 43.3115 171.438 43.4543V43.8612C171.426 43.9754 171.421 44.1039 171.421 44.2467V57.0534C171.421 57.5674 171.438 57.8672 171.473 57.9529C171.519 58.0386 171.664 58.0885 171.908 58.1028L172.308 58.1242L172.604 58.1456H172.865C173.028 58.1456 173.109 58.2099 173.109 58.3384Z" fill="black"/>
<path d="M156.767 73.1582C156.767 74.4288 156.611 75.6281 156.298 76.756C155.996 77.8839 155.578 78.7906 155.045 79.4759C154.476 80.2183 153.751 80.5895 152.869 80.5895C151.663 80.5895 150.665 79.8614 149.876 78.4051C149.099 76.9488 148.71 75.0856 148.71 72.8155C148.71 70.1885 149.261 68.1183 150.363 66.6049C151.025 65.6911 151.837 65.2342 152.8 65.2342C153.937 65.2342 154.842 65.8696 155.515 67.1403C156.35 68.7108 156.767 70.7167 156.767 73.1582ZM154.888 72.3872C154.888 70.2599 154.697 68.5037 154.314 67.1188C154.024 66.0623 153.513 65.5341 152.782 65.5341C151.32 65.5341 150.59 67.9255 150.59 72.7084C150.59 77.7198 151.361 80.2254 152.904 80.2254C153.623 80.2254 154.14 79.4973 154.453 78.041C154.743 76.7132 154.888 74.8286 154.888 72.3872Z" fill="black"/>
<path d="M195.68 111.3C194.079 111.3 192.791 109.715 192.791 107.745C192.791 105.775 194.079 104.19 195.68 104.19C197.281 104.19 198.569 105.775 198.569 107.745C198.569 109.715 197.281 111.3 195.68 111.3Z" fill="black"/>
<path d="M195.68 105.389C196.725 105.389 197.595 106.46 197.595 107.745C197.595 109.03 196.725 110.101 195.68 110.101C194.636 110.101 193.766 109.03 193.766 107.745C193.766 106.46 194.636 105.389 195.68 105.389ZM195.68 103.033C193.557 103.033 191.852 105.132 191.852 107.745C191.852 110.358 193.557 112.456 195.68 112.456C197.803 112.456 199.509 110.358 199.509 107.745C199.509 105.132 197.803 103.033 195.68 103.033Z" fill="black"/>
<path d="M177.79 120.594L186.422 119.138L188.058 113.57L183.394 112.328L177.79 120.594Z" fill="black" stroke="#1A1A1A" stroke-width="0.05" stroke-miterlimit="10"/>
<path d="M192.165 110.786L190.912 116.054L186.631 114.598L187.953 109.458L192.165 110.786Z" fill="black" stroke="#1A1A1A" stroke-width="0.05" stroke-miterlimit="10"/>
<path d="M225.613 87.9993C225.613 87.9993 230.973 85.9434 233.583 88.5989C233.583 88.5989 234.001 81.3175 241.345 76.6917C241.345 76.6917 234.384 82.5168 229.058 78.6191C229.058 78.6191 228.258 83.8018 225.091 86.5858L225.647 87.9993H225.613Z" fill="black" stroke="black" stroke-width="0.05" stroke-miterlimit="10"/>
<path d="M221.366 85.9434L214.649 92.5395L217.816 92.7965L216.807 96.6514L224.673 92.5395L227.074 86.5002L221.366 85.9434Z" fill="black" stroke="black" stroke-width="0.05" stroke-miterlimit="10"/>
<path d="M199.369 104.018L213.465 91.383L220.078 91.2974L216.528 98.1505L200.518 106.374C200.414 105.989 199.578 104.275 199.404 104.018H199.369Z" fill="black" stroke="#1A1A1A" stroke-width="0.05" stroke-miterlimit="10"/>
<path d="M228.083 90.612C226.482 88.6846 225.334 86.3716 224.742 83.7161C226.343 85.6435 227.457 87.9564 228.083 90.612Z" fill="#1A1A1A"/>
<path d="M185.1 87.9564L186.596 97.4223L190.738 98.9642L191.434 93.7387L185.1 87.9564Z" fill="black" stroke="#1A1A1A" stroke-width="0.05" stroke-miterlimit="10"/>
<path d="M192.966 103.333L189.067 102.219L189.938 97.4222L193.731 98.6215L192.966 103.333Z" fill="black" stroke="#1A1A1A" stroke-width="0.05" stroke-miterlimit="10"/>
<path d="M197.455 112.842L198.778 119.524L202.781 120.851L203.511 115.712L199.161 111.514C198.987 111.771 197.699 112.713 197.455 112.842Z" fill="black" stroke="#1A1A1A" stroke-width="0.05" stroke-miterlimit="10"/>
<path d="M201.667 121.708C201.667 121.708 202.293 128.476 200.553 131.559C200.553 131.559 208.558 131.302 212.526 138.927C212.526 138.927 208.698 129.247 211.099 123.079C211.099 123.079 205.844 123.421 203.616 120.209L201.702 121.708H201.667Z" fill="black" stroke="#1A1A1A" stroke-width="0.05" stroke-miterlimit="10"/>
<path d="M200.275 122.436C201.423 120.337 203.025 119.095 205.043 118.71C203.895 120.809 202.259 122.051 200.275 122.436Z" fill="#1A1A1A"/>
</g>
<defs>
<clipPath id="clip0_312_500">
<rect width="405" height="219" fill="white"/>
</clipPath>
</defs>
</svg>
