<svg width="784" height="424" viewBox="0 0 784 424" fill="none" xmlns="http://www.w3.org/2000/svg">
<g clip-path="url(#clip0_77_1054)">
<path d="M31.8915 136.994C56.3915 128.203 80.8915 120.491 105.308 111.701L200.817 103.16C192.595 107.306 183.044 111.452 172.247 115.184C168.178 116.594 157.63 120.16 135.373 124.721C129.725 125.881 111.122 129.696 83.7152 133.179C70.0119 134.92 52.4881 135.667 31.8085 136.994H31.8915Z" fill="#42210B" stroke="black" stroke-width="0.05" stroke-miterlimit="10"/>
<path d="M766.144 140.559L696.381 115.101H637.581C652.198 122.399 671.881 130.525 695.966 135.916C723.954 142.218 748.288 141.554 766.227 140.559H766.144Z" fill="#42210B" stroke="black" stroke-width="0.05" stroke-miterlimit="10"/>
<path d="M157.298 409.239C157.298 410.151 157.714 417.283 155.056 420.185C151.069 424.58 144.591 423.502 143.761 423.419C103.481 423.751 47.422 421.678 6.31182 421.927C4.23554 421.927 2.32537 420.849 1.41182 418.941C-2.65768 410.483 7.22537 397.795 7.47453 397.463C8.72029 397.546 9.79995 405.59 11.0457 405.673C61.7067 409.654 157.298 409.239 157.298 409.239Z" fill="#603813" stroke="black" stroke-width="0.1" stroke-miterlimit="10"/>
<path d="M169.091 395.722C169.091 396.634 168.012 400.863 164.607 405.093C161.866 408.576 154.973 408.658 154.142 408.576C113.697 408.907 53.8999 406.668 12.7897 406.917C11.4609 406.917 10.1321 406.419 9.38465 405.341C3.48804 396.883 13.7863 383.698 14.0355 383.283C15.2813 383.366 14.6169 390.415 15.8626 390.498C66.5236 394.561 118.43 391.659 169.091 395.722Z" fill="#603813" stroke="black" stroke-width="0.1" stroke-miterlimit="10"/>
<path d="M637.166 407.166C637.166 408.078 636.834 415.21 639.242 418.112C642.897 422.507 648.959 421.429 649.79 421.346C687.329 421.678 739.651 419.605 777.937 419.853C779.847 419.853 781.675 418.775 782.505 416.868C786.325 408.41 777.107 395.722 776.858 395.39C775.695 395.473 774.698 403.517 773.536 403.6C726.28 407.58 637.166 407.166 637.166 407.166Z" fill="#603813" stroke="black" stroke-width="0.15" stroke-miterlimit="10"/>
<path d="M626.12 393.649C626.12 394.561 627.117 398.79 630.273 403.019C632.848 406.502 639.242 406.585 640.073 406.502C677.778 406.834 733.588 404.595 771.875 404.844C773.12 404.844 774.366 404.346 775.031 403.268C780.512 394.81 770.38 381.625 770.131 381.21C768.968 381.293 768.885 388.342 767.722 388.425C720.466 392.488 673.293 389.586 626.037 393.649H626.12Z" fill="#603813" stroke="black" stroke-width="0.15" stroke-miterlimit="10"/>
<path d="M31.8915 138.071C32.1406 146.447 32.4728 158.72 32.6389 173.647C33.0542 213.534 33.2203 233.851 29.566 251.016C26.8254 263.953 21.0949 282.777 7.64062 304.338C10.0491 331.455 12.9559 362.386 15.3644 389.751C15.5305 391.327 16.7762 392.571 18.4372 392.654C68.8491 395.639 118.763 392.405 169.175 395.556C170.005 394.064 172.663 390.581 177.895 389.088C183.708 387.429 188.941 386.932 190.602 387.181C326.224 385.273 465.334 387.347 600.956 385.439C603.364 385.108 613.912 384.776 618.48 385.439C621.885 385.937 624.459 389.834 626.203 391.907C675.12 390.581 718.888 389.751 767.805 388.508L781.01 305.333C777.273 300.357 771.708 292.148 767.39 281.119C758.42 258.646 760.663 240.651 763.652 190.895C764.317 180.281 765.313 163.198 766.31 141.637C754.351 141.637 738.073 140.891 718.971 138.071C696.298 134.671 657.929 126.545 610.341 102.164C535.429 63.7698 541.408 36.1555 489.003 15.8386C420.403 -10.7806 354.71 5.72169 344.08 8.54117C260.447 30.6824 243.422 99.2621 161.866 119.081C128.812 127.125 89.5288 132.432 89.5288 132.432C65.9423 135.667 46.1762 137.242 32.2237 138.071H31.8915Z" fill="#603813" stroke="black" stroke-width="0.25" stroke-miterlimit="10"/>
<path d="M31.8915 137.989L75.5762 392.571L169.175 395.722C158.378 306.411 146.336 214.612 135.539 125.301C116.769 129.53 95.6745 133.262 72.5033 135.584C58.2186 136.993 44.5983 137.74 31.8915 137.989Z" fill="#42210B" stroke="black" stroke-width="0.05" stroke-miterlimit="10"/>
<path d="M670.22 128.618L629.692 390.664L722.376 388.839L766.144 143.296C752.358 143.296 736.412 142.384 718.805 139.73C700.202 136.911 683.924 132.847 670.22 128.535V128.618Z" fill="#42210B" stroke="black" stroke-width="0.05" stroke-miterlimit="10"/>
<path d="M405.827 355.206C488.022 355.206 554.654 288.674 554.654 206.603C554.654 124.532 488.022 58 405.827 58C323.632 58 257 124.532 257 206.603C257 288.674 323.632 355.206 405.827 355.206Z" fill="#391E00" stroke="#2B140A" stroke-width="0.75" stroke-miterlimit="10"/>
<path d="M294.732 301.961C303.458 311.158 340.947 348.752 400.252 351.495C468.687 354.641 513.044 309.141 520.235 301.477C455.113 303.171 359.773 300.267 294.732 301.961Z" fill="#2B140A"/>
<path d="M355.175 359.318C413.621 359.318 461 290.93 461 206.568C461 122.207 413.621 53.8188 355.175 53.8188C296.73 53.8188 249.35 122.207 249.35 206.568C249.35 290.93 296.73 359.318 355.175 359.318Z" fill="#E4E4D9" stroke="#2B140A" stroke-width="0.75" stroke-miterlimit="10"/>
<path d="M354.83 101.169C394.586 101.169 426.989 147.856 426.989 205.324C426.989 262.792 394.644 309.479 354.83 309.479C315.017 309.479 282.672 262.792 282.672 205.324C282.672 147.856 315.017 101.169 354.83 101.169ZM354.83 99.0961C314.212 99.0961 281.235 146.613 281.235 205.324C281.235 264.036 314.155 311.552 354.83 311.552C395.506 311.552 428.425 264.036 428.425 205.324C428.425 146.613 395.506 99.0961 354.83 99.0961Z" fill="#42210B"/>
<path d="M240.847 190.812L241.422 231.114C241.422 231.114 245.329 235.343 248.374 230.617L247.397 190.895C247.397 189.734 243.318 186.085 240.847 190.895V190.812Z" fill="#666666" stroke="#1A1A1A" stroke-width="0.08" stroke-miterlimit="10"/>
<path d="M244.122 193.963C245.931 193.963 247.397 192.701 247.397 191.144C247.397 189.587 245.931 188.324 244.122 188.324C242.314 188.324 240.847 189.587 240.847 191.144C240.847 192.701 242.314 193.963 244.122 193.963Z" fill="#1A1A1A"/>
<path d="M240.847 203.5C240.847 203.5 244.294 207.563 247.684 203.5" stroke="#1A1A1A" stroke-width="0.05" stroke-miterlimit="10"/>
<path d="M241.192 214.861C241.192 214.861 244.294 218.758 247.856 214.778" stroke="#1A1A1A" stroke-width="0.05" stroke-miterlimit="10"/>
<path d="M360.224 87.4686C360.224 87.6873 359.923 87.7966 359.322 87.7966H358.83C358.83 87.7966 358.31 87.7966 357.272 87.7966C356.233 87.7693 355.181 87.7556 354.115 87.7556C352.229 87.7556 351.026 87.7693 350.507 87.7966C349.987 87.8239 349.577 87.8376 349.277 87.8376C348.621 87.8376 348.293 87.7146 348.293 87.4686C348.293 87.2226 348.484 87.0996 348.867 87.0996C349.468 87.0996 350.11 87.0859 350.794 87.0586C351.641 87.0313 352.092 86.8263 352.147 86.4436C352.229 86.0336 352.27 85.1726 352.27 83.8606V64.5906C352.27 63.7159 352.242 63.1966 352.188 63.0326C352.133 62.8686 351.942 62.7866 351.614 62.7866C351.477 62.7866 350.589 62.8549 348.949 62.9916C348.621 63.0189 348.402 63.0326 348.293 63.0326C347.965 63.0326 347.801 62.9369 347.801 62.7456C347.801 62.5269 347.965 62.4039 348.293 62.3766C349.577 62.2399 350.876 61.8573 352.188 61.2286C353.5 60.5726 354.552 59.8073 355.345 58.9326C355.645 58.6866 355.85 58.5636 355.96 58.5636C356.178 58.5636 356.288 58.7003 356.288 58.9736V59.7526C356.26 59.9713 356.247 60.2173 356.247 60.4906V85.0086C356.247 85.9926 356.288 86.5666 356.37 86.7306C356.479 86.8946 356.821 86.9903 357.395 87.0176L358.338 87.0586L359.035 87.0996H359.65C360.032 87.0996 360.224 87.2226 360.224 87.4686Z" fill="black"/>
<path d="M412.102 108.698C412.102 108.916 411.801 109.026 411.2 109.026H410.708C410.708 109.026 410.189 109.026 409.15 109.026C408.111 108.998 407.059 108.985 405.993 108.985C404.107 108.985 402.904 108.998 402.385 109.026C401.866 109.053 401.456 109.067 401.155 109.067C400.499 109.067 400.171 108.944 400.171 108.698C400.171 108.452 400.362 108.329 400.745 108.329C401.346 108.329 401.989 108.315 402.672 108.288C403.519 108.26 403.97 108.055 404.025 107.673C404.107 107.263 404.148 106.402 404.148 105.09V85.8196C404.148 84.945 404.121 84.4256 404.066 84.2616C404.011 84.0976 403.82 84.0156 403.492 84.0156C403.355 84.0156 402.467 84.084 400.827 84.2206C400.499 84.248 400.28 84.2616 400.171 84.2616C399.843 84.2616 399.679 84.166 399.679 83.9746C399.679 83.756 399.843 83.633 400.171 83.6056C401.456 83.469 402.754 83.0863 404.066 82.4576C405.378 81.8016 406.43 81.0363 407.223 80.1616C407.524 79.9156 407.729 79.7926 407.838 79.7926C408.057 79.7926 408.166 79.9293 408.166 80.2026V80.9816C408.139 81.2003 408.125 81.4463 408.125 81.7196V106.238C408.125 107.222 408.166 107.796 408.248 107.96C408.357 108.124 408.699 108.219 409.273 108.247L410.216 108.288L410.913 108.329H411.528C411.911 108.329 412.102 108.452 412.102 108.698Z" fill="black"/>
<path d="M445.421 144.149C445.421 144.231 445.394 144.45 445.339 144.805C445.202 145.707 444.984 147.935 444.683 151.488L444.642 151.98C441.827 151.844 438.615 151.775 435.007 151.775C433.066 151.775 431.249 151.803 429.554 151.857C427.859 151.912 427.121 151.939 427.34 151.939C426.602 151.939 426.233 151.803 426.233 151.529C426.233 151.311 426.944 150.627 428.365 149.479C431.782 146.691 434.214 144.423 435.663 142.673C438.178 139.639 439.435 136.072 439.435 131.972C439.435 129.212 438.861 127.121 437.713 125.699C436.838 124.606 435.608 124.059 434.023 124.059C432.465 124.059 431.235 124.538 430.333 125.494C429.622 126.232 429.267 126.97 429.267 127.708C429.267 128.173 429.636 128.419 430.374 128.446C432.287 128.528 433.244 129.362 433.244 130.947C433.244 132.451 432.451 133.202 430.866 133.202C429.855 133.202 429.048 132.888 428.447 132.259C427.846 131.631 427.545 130.77 427.545 129.676C427.545 127.654 428.256 126.027 429.677 124.797C431.098 123.567 432.971 122.952 435.294 122.952C437.617 122.952 439.544 123.69 441.075 125.166C442.852 126.888 443.74 129.13 443.74 131.89C443.74 134.924 442.729 137.726 440.706 140.295C438.683 142.837 435.28 145.612 430.497 148.618C432.301 148.564 434.57 148.536 437.303 148.536C439.572 148.536 441.007 148.509 441.608 148.454C442.209 148.372 442.742 148.195 443.207 147.921C443.59 147.675 443.918 146.76 444.191 145.174C444.382 144.081 444.656 143.534 445.011 143.534C445.284 143.534 445.421 143.739 445.421 144.149Z" fill="black"/>
<path d="M455.5 202.739C455.5 205.008 454.584 206.949 452.753 208.561C450.73 210.338 448.147 211.226 445.004 211.226C442.435 211.226 440.549 210.625 439.346 209.422C438.581 208.657 438.198 207.782 438.198 206.798C438.198 205.951 438.458 205.281 438.977 204.789C439.524 204.27 440.248 204.01 441.15 204.01C441.861 204.01 442.448 204.215 442.913 204.625C443.378 205.035 443.61 205.555 443.61 206.183C443.61 207.14 442.968 207.892 441.683 208.438C441.164 208.657 440.904 208.876 440.904 209.094C440.904 209.45 441.259 209.778 441.97 210.078C442.681 210.352 443.46 210.488 444.307 210.488C446.384 210.488 448.065 209.778 449.35 208.356C450.662 206.935 451.318 205.076 451.318 202.78C451.318 198.161 449.241 195.851 445.086 195.851C444.676 195.851 444.375 195.865 444.184 195.892H443.897C443.542 195.892 443.364 195.769 443.364 195.523C443.364 195.332 443.692 195.182 444.348 195.072C446.261 194.799 447.737 194.102 448.776 192.981C449.815 191.833 450.334 190.371 450.334 188.594C450.334 186.845 449.883 185.451 448.981 184.412C448.079 183.346 446.863 182.813 445.332 182.813C444.211 182.813 443.227 183.059 442.38 183.551C441.56 184.016 441.15 184.563 441.15 185.191C441.15 185.437 441.341 185.601 441.724 185.683C443.528 186.121 444.43 186.872 444.43 187.938C444.43 189.332 443.706 190.029 442.257 190.029C441.328 190.029 440.576 189.756 440.002 189.209C439.455 188.663 439.182 187.938 439.182 187.036C439.182 185.56 439.811 184.33 441.068 183.346C442.353 182.335 444.129 181.829 446.398 181.829C448.995 181.829 450.976 182.499 452.343 183.838C453.71 185.178 454.393 186.736 454.393 188.512C454.393 190.972 453.231 192.79 450.908 193.965C450.088 194.375 448.762 194.717 446.931 194.99V195.277C449.2 195.359 451.031 195.865 452.425 196.794C454.475 198.161 455.5 200.143 455.5 202.739Z" fill="black"/>
<path d="M444.05 264.77C444.05 265.043 443.913 265.18 443.64 265.18C443.394 265.18 443.23 265.03 443.148 264.729C443.093 264.401 442.998 263.54 442.861 262.146C442.806 261.927 442.697 261.763 442.533 261.654C442.205 261.463 441.481 261.367 440.36 261.367C440.059 261.367 439.772 261.381 439.499 261.408L439.54 267.845C439.677 268.173 439.895 268.378 440.196 268.46C440.524 268.542 441.303 268.583 442.533 268.583C443.134 268.583 443.49 268.638 443.599 268.747C443.626 268.802 443.64 268.884 443.64 268.993C443.64 269.184 443.093 269.28 442 269.28C440.907 269.28 437.845 269.307 432.816 269.362C432.543 269.389 432.242 269.403 431.914 269.403C431.367 269.403 431.094 269.266 431.094 268.993C431.094 268.72 431.49 268.597 432.283 268.624C433.212 268.651 434.06 268.597 434.825 268.46C435.153 268.405 435.358 268.269 435.44 268.05C435.522 267.804 435.563 267.285 435.563 266.492V261.531C435.016 261.504 434.388 261.49 433.677 261.49H431.996C431.613 261.49 431.19 261.504 430.725 261.531C430.315 261.531 430.055 261.531 429.946 261.531L424.739 261.408C424.356 261.381 424.165 261.271 424.165 261.08C424.165 260.943 426.174 258.114 430.192 252.593C431.449 250.816 434.224 246.908 438.515 240.867C438.706 240.594 438.898 240.457 439.089 240.457C439.362 240.457 439.499 240.717 439.499 241.236V260.506H439.909C440.838 260.506 441.563 260.451 442.082 260.342C442.629 260.233 442.902 259.959 442.902 259.522C442.875 257.8 442.861 257.212 442.861 257.759C442.888 256.775 443.039 256.283 443.312 256.283C443.695 256.283 443.886 256.666 443.886 257.431V259.276L443.927 262.228C443.954 263.239 443.982 263.882 444.009 264.155C444.036 264.401 444.05 264.606 444.05 264.77ZM435.809 246.484C435.536 246.921 434.962 247.755 434.087 248.985C432.884 250.652 431.067 253.14 428.634 256.447L425.723 260.424C426.734 260.506 428.907 260.547 432.242 260.547C433.417 260.547 434.524 260.533 435.563 260.506V257.595C435.563 256.228 435.604 254.383 435.686 252.06C435.768 249.327 435.809 247.468 435.809 246.484Z" fill="black"/>
<path d="M414.891 317.274C414.891 320.773 413.551 323.451 410.873 325.31C409.26 326.431 407.169 326.991 404.6 326.991C402.03 326.991 400.144 326.321 398.942 324.982C398.286 324.244 397.958 323.369 397.958 322.358C397.958 321.511 398.231 320.827 398.778 320.308C399.324 319.761 400.035 319.488 400.91 319.488C401.62 319.488 402.208 319.693 402.673 320.103C403.165 320.513 403.411 321.019 403.411 321.62C403.411 322.631 402.741 323.397 401.402 323.916C400.8 324.135 400.5 324.381 400.5 324.654C400.5 325.091 400.896 325.488 401.689 325.843C402.509 326.171 403.411 326.335 404.395 326.335C406.308 326.335 407.743 325.679 408.7 324.367C410.012 322.563 410.668 320.13 410.668 317.069C410.668 314.828 410.148 313.092 409.11 311.862C408.071 310.632 406.595 310.017 404.682 310.017C403.206 310.017 401.579 310.577 399.803 311.698C399.967 305.548 400.09 301.667 400.172 300.054C400.199 299.125 400.404 298.564 400.787 298.373C401.169 298.154 402.208 298.045 403.903 298.045C404.176 298.045 404.641 298.045 405.297 298.045C405.953 298.072 406.472 298.086 406.855 298.086H408.249C410.135 298.086 411.228 298.059 411.529 298.004C411.857 297.922 412.062 297.69 412.144 297.307C412.253 296.678 412.444 296.364 412.718 296.364C412.991 296.364 413.128 296.514 413.128 296.815C413.128 297.006 413.114 297.157 413.087 297.266L413.005 298.209C412.868 299.74 412.581 300.696 412.144 301.079C411.734 301.434 410.709 301.612 409.069 301.612L401.238 301.571C401.128 302.5 401.033 305.302 400.951 309.976C402.509 309.265 404.135 308.91 405.83 308.91C408.645 308.91 410.859 309.662 412.472 311.165C414.084 312.641 414.891 314.677 414.891 317.274Z" fill="black"/>
<path d="M368.478 336.926C368.478 339.578 367.672 341.846 366.059 343.732C364.446 345.618 362.519 346.561 360.278 346.561C357.463 346.561 355.18 345.4 353.431 343.076C351.682 340.753 350.807 337.733 350.807 334.015C350.807 330.599 351.545 327.483 353.021 324.667C354.524 321.852 356.52 319.802 359.007 318.517C361.084 317.451 363.353 316.918 365.813 316.918C366.387 316.918 366.674 317.028 366.674 317.246C366.674 317.438 366.483 317.547 366.1 317.574C363.64 317.793 361.467 318.681 359.581 320.239C357.121 322.262 355.672 325.706 355.235 330.571C356.738 329.15 358.433 328.439 360.319 328.439C361.85 328.439 363.285 328.849 364.624 329.669C367.193 331.227 368.478 333.646 368.478 336.926ZM364.255 337.049C364.255 331.965 362.683 329.423 359.54 329.423C358.119 329.423 357.025 330.038 356.26 331.268C355.495 332.471 355.112 334.166 355.112 336.352C355.112 339.496 355.672 342.038 356.793 343.978C357.504 345.208 358.542 345.823 359.909 345.823C362.806 345.823 364.255 342.899 364.255 337.049Z" fill="black"/>
<path d="M321.293 300.156C321.293 300.32 319.707 302.875 316.537 307.823C314.76 310.611 313.544 312.797 312.888 314.383C312.232 315.941 311.904 317.499 311.904 319.057C311.904 319.849 312.095 321.407 312.478 323.731C312.614 324.551 312.683 325.248 312.683 325.822C312.683 327.762 311.958 328.733 310.51 328.733C308.788 328.733 307.927 327.243 307.927 324.264C307.927 321.503 309.198 317.868 311.74 313.358C313.352 310.515 315.443 307.208 318.013 303.436H311.781C308.555 303.436 306.697 303.449 306.205 303.477C305.603 303.504 305.18 303.6 304.934 303.764C304.715 303.928 304.551 304.16 304.442 304.461C304.36 304.734 304.141 305.691 303.786 307.331C303.676 307.659 303.512 307.823 303.294 307.823C303.02 307.823 302.884 307.659 302.884 307.331C302.884 307.003 302.952 306.47 303.089 305.732C303.389 304.064 303.581 302.643 303.663 301.468C303.717 300.62 303.895 300.033 304.196 299.705C304.387 299.705 304.947 299.732 305.877 299.787C307.954 299.896 309.457 299.951 310.387 299.951L318.874 299.869C319.092 299.869 319.325 299.855 319.571 299.828C319.789 299.828 319.926 299.828 319.981 299.828C320.855 299.828 321.293 299.937 321.293 300.156Z" fill="black"/>
<path d="M290.459 271.11C290.459 273.843 289.325 276.043 287.056 277.711C285.525 278.831 283.626 279.392 281.357 279.392C278.924 279.392 276.874 278.845 275.207 277.752C272.938 276.276 271.804 274.198 271.804 271.52C271.804 267.447 274.004 264.864 278.405 263.771V263.566C276.738 263.101 275.426 262.322 274.469 261.229C273.54 260.108 273.075 258.782 273.075 257.252C273.075 255.12 273.799 253.384 275.248 252.045C276.724 250.678 278.624 249.995 280.947 249.995C282.997 249.995 284.678 250.487 285.99 251.471C287.903 252.892 288.86 254.723 288.86 256.965C288.86 258.577 288.382 260.026 287.425 261.311C286.468 262.568 285.279 263.333 283.858 263.607L283.899 263.771C288.272 264.645 290.459 267.092 290.459 271.11ZM284.801 257.047C284.801 254.614 284.364 252.824 283.489 251.676C282.97 250.992 282.136 250.651 280.988 250.651C278.419 250.651 277.134 252.796 277.134 257.088C277.134 261.27 278.514 263.361 281.275 263.361C282.505 263.361 283.366 262.91 283.858 262.008C284.487 260.832 284.801 259.179 284.801 257.047ZM286.277 271.52C286.277 266.545 284.61 264.058 281.275 264.058C279.608 264.058 278.309 264.7 277.38 265.985C276.451 267.242 275.986 268.991 275.986 271.233C275.986 273.556 276.464 275.387 277.421 276.727C278.405 278.066 279.744 278.736 281.439 278.736C282.888 278.736 283.954 278.326 284.637 277.506C285.73 276.194 286.277 274.198 286.277 271.52Z" fill="black"/>
<path d="M276.778 193.628C276.778 197.209 275.944 200.462 274.277 203.386C272.637 206.284 270.478 208.293 267.799 209.413C265.831 210.233 263.863 210.643 261.895 210.643C261.184 210.643 260.829 210.548 260.829 210.356C260.829 210.192 261.02 210.083 261.403 210.028C266.022 209.427 269.193 207.131 270.915 203.14C271.598 201.528 272.077 199.478 272.35 196.99C270.847 198.412 269.152 199.122 267.266 199.122C265.462 199.122 263.822 198.576 262.346 197.482C260.187 195.897 259.107 193.56 259.107 190.471C259.107 187.847 259.9 185.62 261.485 183.788C263.098 181.93 265.038 181 267.307 181C270.095 181 272.364 182.176 274.113 184.526C275.89 186.877 276.778 189.911 276.778 193.628ZM272.473 190.922C272.473 187.806 271.899 185.346 270.751 183.542C269.958 182.312 268.879 181.697 267.512 181.697C264.697 181.697 263.289 184.649 263.289 190.553C263.289 195.61 264.861 198.138 268.004 198.138C269.398 198.138 270.491 197.51 271.284 196.252C272.077 194.968 272.473 193.191 272.473 190.922Z" fill="black"/>
<path d="M284.446 148.419C284.446 148.638 284.145 148.747 283.544 148.747H283.052C283.052 148.747 282.532 148.747 281.494 148.747C280.455 148.72 279.403 148.706 278.337 148.706C276.451 148.706 275.248 148.72 274.729 148.747C274.209 148.774 273.799 148.788 273.499 148.788C272.843 148.788 272.515 148.665 272.515 148.419C272.515 148.173 272.706 148.05 273.089 148.05C273.69 148.05 274.332 148.036 275.016 148.009C275.863 147.982 276.314 147.777 276.369 147.394C276.451 146.984 276.492 146.123 276.492 144.811V125.541C276.492 124.666 276.464 124.147 276.41 123.983C276.355 123.819 276.164 123.737 275.836 123.737C275.699 123.737 274.811 123.805 273.171 123.942C272.843 123.969 272.624 123.983 272.515 123.983C272.187 123.983 272.023 123.887 272.023 123.696C272.023 123.477 272.187 123.354 272.515 123.327C273.799 123.19 275.098 122.808 276.41 122.179C277.722 121.523 278.774 120.758 279.567 119.883C279.867 119.637 280.072 119.514 280.182 119.514C280.4 119.514 280.51 119.651 280.51 119.924V120.703C280.482 120.922 280.469 121.168 280.469 121.441V145.959C280.469 146.943 280.51 147.517 280.592 147.681C280.701 147.845 281.043 147.941 281.617 147.968L282.56 148.009L283.257 148.05H283.872C284.254 148.05 284.446 148.173 284.446 148.419Z" fill="black"/>
<path d="M315.297 106.127C315.297 106.346 314.996 106.455 314.395 106.455H313.903C313.903 106.455 313.384 106.455 312.345 106.455C311.306 106.428 310.254 106.414 309.188 106.414C307.302 106.414 306.099 106.428 305.58 106.455C305.061 106.482 304.651 106.496 304.35 106.496C303.694 106.496 303.366 106.373 303.366 106.127C303.366 105.881 303.557 105.758 303.94 105.758C304.541 105.758 305.184 105.744 305.867 105.717C306.714 105.69 307.165 105.485 307.22 105.102C307.302 104.692 307.343 103.831 307.343 102.519V83.2489C307.343 82.3743 307.316 81.8549 307.261 81.6909C307.206 81.5269 307.015 81.4449 306.687 81.4449C306.55 81.4449 305.662 81.5133 304.022 81.6499C303.694 81.6773 303.475 81.6909 303.366 81.6909C303.038 81.6909 302.874 81.5953 302.874 81.4039C302.874 81.1853 303.038 81.0623 303.366 81.0349C304.651 80.8983 305.949 80.5156 307.261 79.8869C308.573 79.2309 309.625 78.4656 310.418 77.5909C310.719 77.3449 310.924 77.2219 311.033 77.2219C311.252 77.2219 311.361 77.3586 311.361 77.6319V78.4109C311.334 78.6296 311.32 78.8756 311.32 79.1489V103.667C311.32 104.651 311.361 105.225 311.443 105.389C311.552 105.553 311.894 105.649 312.468 105.676L313.411 105.717L314.108 105.758H314.723C315.106 105.758 315.297 105.881 315.297 106.127Z" fill="black"/>
<path d="M372.114 80.0476C372.114 80.1296 372.086 80.3483 372.032 80.7036C371.895 81.6056 371.676 83.8333 371.376 87.3866L371.335 87.8786C368.519 87.7419 365.308 87.6736 361.7 87.6736C359.759 87.6736 357.941 87.7009 356.247 87.7556C354.552 87.8103 353.814 87.8376 354.033 87.8376C353.295 87.8376 352.926 87.7009 352.926 87.4276C352.926 87.2089 353.636 86.5256 355.058 85.3776C358.474 82.5896 360.907 80.3209 362.356 78.5716C364.87 75.5376 366.128 71.9706 366.128 67.8706C366.128 65.1099 365.554 63.0189 364.406 61.5976C363.531 60.5043 362.301 59.9576 360.716 59.9576C359.158 59.9576 357.928 60.4359 357.026 61.3926C356.315 62.1306 355.96 62.8686 355.96 63.6066C355.96 64.0713 356.329 64.3173 357.067 64.3446C358.98 64.4266 359.937 65.2603 359.937 66.8456C359.937 68.3489 359.144 69.1006 357.559 69.1006C356.547 69.1006 355.741 68.7863 355.14 68.1576C354.538 67.5289 354.238 66.6679 354.238 65.5746C354.238 63.5519 354.948 61.9256 356.37 60.6956C357.791 59.4656 359.663 58.8506 361.987 58.8506C364.31 58.8506 366.237 59.5886 367.768 61.0646C369.544 62.7866 370.433 65.0279 370.433 67.7886C370.433 70.8226 369.421 73.6243 367.399 76.1936C365.376 78.7356 361.973 81.5099 357.19 84.5166C358.994 84.4619 361.262 84.4346 363.996 84.4346C366.264 84.4346 367.699 84.4073 368.301 84.3526C368.902 84.2706 369.435 84.0929 369.9 83.8196C370.282 83.5736 370.61 82.6579 370.884 81.0726C371.075 79.9793 371.348 79.4326 371.704 79.4326C371.977 79.4326 372.114 79.6376 372.114 80.0476Z" fill="black"/>
<path d="M322.766 106.127C322.766 106.346 322.465 106.455 321.864 106.455H321.372C321.372 106.455 320.852 106.455 319.814 106.455C318.775 106.428 317.723 106.414 316.657 106.414C314.771 106.414 313.568 106.428 313.049 106.455C312.529 106.482 312.119 106.496 311.819 106.496C311.163 106.496 310.835 106.373 310.835 106.127C310.835 105.881 311.026 105.758 311.409 105.758C312.01 105.758 312.652 105.744 313.336 105.717C314.183 105.69 314.634 105.485 314.689 105.102C314.771 104.692 314.812 103.831 314.812 102.519V83.2489C314.812 82.3743 314.784 81.8549 314.73 81.6909C314.675 81.5269 314.484 81.4449 314.156 81.4449C314.019 81.4449 313.131 81.5133 311.491 81.6499C311.163 81.6773 310.944 81.6909 310.835 81.6909C310.507 81.6909 310.343 81.5953 310.343 81.4039C310.343 81.1853 310.507 81.0623 310.835 81.0349C312.119 80.8983 313.418 80.5156 314.73 79.8869C316.042 79.2309 317.094 78.4656 317.887 77.5909C318.187 77.3449 318.392 77.2219 318.502 77.2219C318.72 77.2219 318.83 77.3586 318.83 77.6319V78.4109C318.802 78.6296 318.789 78.8756 318.789 79.1489V103.667C318.789 104.651 318.83 105.225 318.912 105.389C319.021 105.553 319.363 105.649 319.937 105.676L320.88 105.717L321.577 105.758H322.192C322.574 105.758 322.766 105.881 322.766 106.127Z" fill="black"/>
<path d="M296.713 134.971C296.713 137.404 296.344 139.7 295.606 141.859C294.895 144.018 293.911 145.754 292.654 147.066C291.314 148.487 289.606 149.198 287.529 149.198C284.686 149.198 282.335 147.804 280.477 145.016C278.645 142.228 277.73 138.661 277.73 134.315C277.73 129.286 279.028 125.322 281.625 122.425C283.183 120.676 285.096 119.801 287.365 119.801C290.043 119.801 292.175 121.017 293.761 123.45C295.729 126.457 296.713 130.297 296.713 134.971ZM292.285 133.495C292.285 129.422 291.834 126.06 290.932 123.409C290.248 121.386 289.046 120.375 287.324 120.375C283.88 120.375 282.158 124.953 282.158 134.11C282.158 143.704 283.975 148.501 287.611 148.501C289.305 148.501 290.522 147.107 291.26 144.319C291.943 141.777 292.285 138.169 292.285 133.495Z" fill="black"/>
<path d="M354.83 212.124C352.188 212.124 350.062 209.056 350.062 205.241C350.062 201.427 352.188 198.359 354.83 198.359C357.473 198.359 359.599 201.427 359.599 205.241C359.599 209.056 357.473 212.124 354.83 212.124Z" fill="black"/>
<path d="M354.83 200.68C356.554 200.68 357.99 202.754 357.99 205.241C357.99 207.729 356.554 209.802 354.83 209.802C353.107 209.802 351.671 207.729 351.671 205.241C351.671 202.754 353.107 200.68 354.83 200.68ZM354.83 196.12C351.326 196.12 348.511 200.183 348.511 205.241C348.511 210.3 351.326 214.363 354.83 214.363C358.335 214.363 361.15 210.3 361.15 205.241C361.15 200.183 358.335 196.12 354.83 196.12Z" fill="black"/>
<path d="M336.543 163.478L339.546 183.86L347.172 186.961L348.306 175.704L336.543 163.478Z" fill="black" stroke="#1A1A1A" stroke-width="0.05" stroke-miterlimit="10"/>
<path d="M351.439 196.262L344.219 194.069L345.654 183.613L352.7 186.036L351.439 196.262Z" fill="black" stroke="#1A1A1A" stroke-width="0.05" stroke-miterlimit="10"/>
<path d="M385.932 272.465C385.932 272.465 389.347 284.887 386.077 291.493C386.077 291.493 395.869 291.489 402.978 308.195C402.978 308.195 394.349 292.487 398.908 279.217C398.908 279.217 391.865 278.018 387.774 270.933L385.905 272.392L385.932 272.465Z" fill="black" stroke="black" stroke-width="0.05" stroke-miterlimit="10"/>
<path d="M388.146 262.166L378.53 247.134L378.545 254.665L373.287 252.829L379.733 270.9L388.143 275.746L388.146 262.166Z" fill="black" stroke="black" stroke-width="0.05" stroke-miterlimit="10"/>
<path d="M361.359 212.456L379.983 244.215L380.902 259.905L371.303 252.405L358.368 215.45C358.823 215.095 361.087 212.951 361.409 212.417L361.359 212.456Z" fill="black" stroke="#1A1A1A" stroke-width="0.05" stroke-miterlimit="10"/>
<path d="M382.733 278.74C385.108 274.621 388.05 271.665 391.557 269.871C389.182 273.989 386.24 276.945 382.733 278.74Z" fill="#1A1A1A"/>
<path d="M334.306 240.871L345.488 231.353L345.12 221.12L338.185 222.939L334.306 240.871Z" fill="black" stroke="#1A1A1A" stroke-width="0.05" stroke-miterlimit="10"/>
<path d="M349.384 213.257L350.179 222.745L343.606 223.889L343.021 214.614L349.384 213.257Z" fill="black" stroke="#1A1A1A" stroke-width="0.05" stroke-miterlimit="10"/>
<path d="M358.954 197.005L366.643 189.733L366.118 179.885L359.192 181.621L356.35 194.163C356.73 194.415 358.705 196.615 358.946 197.087L358.954 197.005Z" fill="black" stroke="#1A1A1A" stroke-width="0.05" stroke-miterlimit="10"/>
<path d="M367.835 181.776C367.835 181.776 376.066 175.966 380.863 177.868C380.863 177.868 376.071 160.027 383.52 146.242C383.52 146.242 373.39 161.194 364.3 159.766C364.3 159.766 367.664 171.335 364.82 178.423L367.779 181.763L367.835 181.776Z" fill="black" stroke="#1A1A1A" stroke-width="0.05" stroke-miterlimit="10"/>
<path d="M369.532 184.417C366.29 183.195 363.742 180.365 362.163 176.072C365.405 177.294 367.896 180.111 369.532 184.417Z" fill="#1A1A1A"/>
</g>
<defs>
<clipPath id="clip0_77_1054">
<rect width="784" height="424" fill="white"/>
</clipPath>
</defs>
</svg>
