<svg width="1056" height="580" viewBox="0 0 1056 580" fill="none" xmlns="http://www.w3.org/2000/svg">
<g filter="url(#filter0_i_513_234)">
<path d="M21.0055 16.1557C31.1548 1.15439 330.404 0.0310917 528.81 0.000557693C728.18 -0.0301247 1029.26 1.15482 1039.09 16.1557C1048.91 31.1566 1055.26 180.565 1055.15 286.178C1055.04 389.991 1050.1 534.276 1039.09 551.585C1028.08 568.893 728.402 579.332 528.81 579.28C330.181 579.228 33.361 570.362 21.0055 551.585C8.64995 532.808 0.141199 390.108 0.0013656 286.178C-0.140887 180.45 10.8562 31.157 21.0055 16.1557Z" fill="white"/>
</g>
<g filter="url(#filter1_i_513_234)">
<path d="M21.0055 16.1557C31.1548 1.15439 330.404 0.0310917 528.81 0.000557693C728.18 -0.0301247 1029.26 1.15482 1039.09 16.1557C1048.91 31.1566 1055.26 180.565 1055.15 286.178C1055.04 389.991 1050.1 534.276 1039.09 551.585C1028.08 568.893 728.402 579.332 528.81 579.28C330.181 579.228 33.361 570.362 21.0055 551.585C8.64995 532.808 0.141199 390.108 0.0013656 286.178C-0.140887 180.45 10.8562 31.157 21.0055 16.1557Z" fill="#121212"/>
</g>
<path d="M347.886 153.34L349.446 181H344.566L344.046 168.26C344.006 167.193 343.979 166.207 343.966 165.3C343.966 164.38 343.972 163.513 343.986 162.7C343.999 161.873 344.019 161.08 344.046 160.32C344.086 159.56 344.132 158.813 344.186 158.08L340.526 176.2H336.086L332.166 158.08C332.219 158.787 332.266 159.527 332.306 160.3C332.346 161.073 332.372 161.88 332.386 162.72C332.412 163.56 332.426 164.447 332.426 165.38C332.439 166.313 332.426 167.287 332.386 168.3L332.006 181H327.206L328.766 153.34H334.846L338.406 171.6L341.806 153.34H347.886ZM365.39 159.82V177.26H370.97V181H353.91V177.26H360.11V163.56H354.11V159.82H365.39ZM361.97 149.14C362.943 149.14 363.73 149.44 364.33 150.04C364.943 150.64 365.25 151.387 365.25 152.28C365.25 153.173 364.943 153.927 364.33 154.54C363.73 155.14 362.943 155.44 361.97 155.44C360.997 155.44 360.203 155.14 359.59 154.54C358.977 153.927 358.67 153.173 358.67 152.28C358.67 151.387 358.977 150.64 359.59 150.04C360.203 149.44 360.997 149.14 361.97 149.14ZM384.934 177.7C386.174 177.7 387.168 177.487 387.914 177.06C388.674 176.62 389.054 176.007 389.054 175.22C389.054 174.7 388.928 174.26 388.674 173.9C388.434 173.54 387.954 173.207 387.234 172.9C386.514 172.58 385.434 172.227 383.994 171.84C382.634 171.493 381.441 171.067 380.414 170.56C379.401 170.04 378.608 169.373 378.034 168.56C377.474 167.747 377.194 166.72 377.194 165.48C377.194 164.24 377.541 163.153 378.234 162.22C378.928 161.273 379.928 160.54 381.234 160.02C382.554 159.487 384.141 159.22 385.994 159.22C387.808 159.22 389.394 159.46 390.754 159.94C392.114 160.407 393.281 160.993 394.254 161.7L392.094 164.92C391.241 164.373 390.314 163.933 389.314 163.6C388.328 163.253 387.261 163.08 386.114 163.08C384.874 163.08 383.968 163.26 383.394 163.62C382.834 163.98 382.554 164.48 382.554 165.12C382.554 165.573 382.694 165.96 382.974 166.28C383.268 166.587 383.788 166.887 384.534 167.18C385.294 167.46 386.374 167.8 387.774 168.2C389.148 168.573 390.341 169.013 391.354 169.52C392.381 170.027 393.174 170.7 393.734 171.54C394.294 172.38 394.574 173.48 394.574 174.84C394.574 176.373 394.128 177.64 393.234 178.64C392.341 179.64 391.161 180.387 389.694 180.88C388.241 181.36 386.661 181.6 384.954 181.6C382.954 181.6 381.208 181.313 379.714 180.74C378.221 180.167 376.954 179.427 375.914 178.52L378.654 175.44C379.481 176.093 380.421 176.633 381.474 177.06C382.541 177.487 383.694 177.7 384.934 177.7ZM408.599 177.7C409.839 177.7 410.832 177.487 411.579 177.06C412.339 176.62 412.719 176.007 412.719 175.22C412.719 174.7 412.592 174.26 412.339 173.9C412.099 173.54 411.619 173.207 410.899 172.9C410.179 172.58 409.099 172.227 407.659 171.84C406.299 171.493 405.105 171.067 404.079 170.56C403.065 170.04 402.272 169.373 401.699 168.56C401.139 167.747 400.859 166.72 400.859 165.48C400.859 164.24 401.205 163.153 401.899 162.22C402.592 161.273 403.592 160.54 404.899 160.02C406.219 159.487 407.805 159.22 409.659 159.22C411.472 159.22 413.059 159.46 414.419 159.94C415.779 160.407 416.945 160.993 417.919 161.7L415.759 164.92C414.905 164.373 413.979 163.933 412.979 163.6C411.992 163.253 410.925 163.08 409.779 163.08C408.539 163.08 407.632 163.26 407.059 163.62C406.499 163.98 406.219 164.48 406.219 165.12C406.219 165.573 406.359 165.96 406.639 166.28C406.932 166.587 407.452 166.887 408.199 167.18C408.959 167.46 410.039 167.8 411.439 168.2C412.812 168.573 414.005 169.013 415.019 169.52C416.045 170.027 416.839 170.7 417.399 171.54C417.959 172.38 418.239 173.48 418.239 174.84C418.239 176.373 417.792 177.64 416.899 178.64C416.005 179.64 414.825 180.387 413.359 180.88C411.905 181.36 410.325 181.6 408.619 181.6C406.619 181.6 404.872 181.313 403.379 180.74C401.885 180.167 400.619 179.427 399.579 178.52L402.319 175.44C403.145 176.093 404.085 176.633 405.139 177.06C406.205 177.487 407.359 177.7 408.599 177.7ZM441.103 175.42C441.103 176.233 441.223 176.827 441.463 177.2C441.703 177.56 442.09 177.833 442.623 178.02L441.483 181.56C440.35 181.44 439.383 181.16 438.583 180.72C437.797 180.267 437.19 179.593 436.763 178.7C435.963 179.673 434.95 180.4 433.723 180.88C432.51 181.36 431.237 181.6 429.903 181.6C427.743 181.6 426.03 180.987 424.763 179.76C423.497 178.533 422.863 176.94 422.863 174.98C422.863 172.727 423.743 170.993 425.503 169.78C427.277 168.553 429.783 167.94 433.023 167.94H435.983V166.8C435.983 165.547 435.597 164.64 434.823 164.08C434.05 163.507 432.937 163.22 431.483 163.22C430.803 163.22 429.95 163.313 428.923 163.5C427.91 163.673 426.863 163.947 425.783 164.32L424.523 160.7C425.87 160.193 427.223 159.82 428.583 159.58C429.957 159.34 431.203 159.22 432.323 159.22C435.297 159.22 437.503 159.853 438.943 161.12C440.383 162.373 441.103 164.153 441.103 166.46V175.42ZM431.623 177.78C432.423 177.78 433.23 177.553 434.043 177.1C434.87 176.647 435.517 176.013 435.983 175.2V171.08H433.903C431.943 171.08 430.523 171.393 429.643 172.02C428.777 172.647 428.343 173.533 428.343 174.68C428.343 175.667 428.623 176.433 429.183 176.98C429.743 177.513 430.557 177.78 431.623 177.78ZM434.963 155.28C434.217 155.28 433.583 155.127 433.063 154.82C432.557 154.513 432.09 154.207 431.663 153.9C431.25 153.593 430.817 153.44 430.363 153.44C429.883 153.44 429.49 153.593 429.183 153.9C428.877 154.193 428.563 154.633 428.243 155.22L425.423 153.84C425.917 152.68 426.57 151.687 427.383 150.86C428.197 150.02 429.163 149.6 430.283 149.6C431.083 149.6 431.737 149.753 432.243 150.06C432.763 150.367 433.223 150.673 433.623 150.98C434.023 151.287 434.457 151.44 434.923 151.44C435.35 151.44 435.717 151.3 436.023 151.02C436.343 150.727 436.677 150.287 437.023 149.7L439.843 151.1C439.323 152.353 438.643 153.367 437.803 154.14C436.977 154.9 436.03 155.28 434.963 155.28ZM456.668 159.22C458.774 159.22 460.561 159.68 462.028 160.6C463.494 161.52 464.608 162.82 465.368 164.5C466.141 166.167 466.528 168.12 466.528 170.36C466.528 172.653 466.141 174.64 465.368 176.32C464.594 178 463.474 179.3 462.008 180.22C460.541 181.14 458.754 181.6 456.648 181.6C454.554 181.6 452.768 181.153 451.288 180.26C449.821 179.353 448.701 178.067 447.928 176.4C447.154 174.72 446.768 172.72 446.768 170.4C446.768 168.187 447.154 166.24 447.928 164.56C448.701 162.88 449.828 161.573 451.308 160.64C452.788 159.693 454.574 159.22 456.668 159.22ZM456.668 163.2C455.188 163.2 454.081 163.78 453.348 164.94C452.628 166.1 452.268 167.92 452.268 170.4C452.268 172.907 452.628 174.74 453.348 175.9C454.068 177.047 455.168 177.62 456.648 177.62C458.128 177.62 459.228 177.047 459.948 175.9C460.668 174.74 461.028 172.893 461.028 170.36C461.028 167.893 460.668 166.087 459.948 164.94C459.228 163.78 458.134 163.2 456.668 163.2ZM506.296 152.74C508.216 152.74 509.843 152.993 511.176 153.5C512.51 153.993 513.743 154.707 514.876 155.64L512.096 158.94C511.31 158.273 510.443 157.767 509.496 157.42C508.563 157.073 507.563 156.9 506.496 156.9C505.216 156.9 504.036 157.24 502.956 157.92C501.89 158.6 501.03 159.693 500.376 161.2C499.736 162.693 499.416 164.667 499.416 167.12C499.416 169.533 499.723 171.487 500.336 172.98C500.963 174.473 501.81 175.567 502.876 176.26C503.956 176.94 505.176 177.28 506.536 177.28C507.976 177.28 509.17 177.027 510.116 176.52C511.063 176.013 511.916 175.46 512.676 174.86L515.256 178.12C514.283 179.08 513.063 179.9 511.596 180.58C510.143 181.26 508.376 181.6 506.296 181.6C503.883 181.6 501.73 181.047 499.836 179.94C497.943 178.833 496.456 177.207 495.376 175.06C494.296 172.913 493.756 170.267 493.756 167.12C493.756 164.027 494.31 161.413 495.416 159.28C496.536 157.133 498.043 155.507 499.936 154.4C501.843 153.293 503.963 152.74 506.296 152.74ZM527.661 159.22C529.767 159.22 531.554 159.68 533.021 160.6C534.487 161.52 535.601 162.82 536.361 164.5C537.134 166.167 537.521 168.12 537.521 170.36C537.521 172.653 537.134 174.64 536.361 176.32C535.587 178 534.467 179.3 533.001 180.22C531.534 181.14 529.747 181.6 527.641 181.6C525.547 181.6 523.761 181.153 522.281 180.26C520.814 179.353 519.694 178.067 518.921 176.4C518.147 174.72 517.761 172.72 517.761 170.4C517.761 168.187 518.147 166.24 518.921 164.56C519.694 162.88 520.821 161.573 522.301 160.64C523.781 159.693 525.567 159.22 527.661 159.22ZM527.661 163.2C526.181 163.2 525.074 163.78 524.341 164.94C523.621 166.1 523.261 167.92 523.261 170.4C523.261 172.907 523.621 174.74 524.341 175.9C525.061 177.047 526.161 177.62 527.641 177.62C529.121 177.62 530.221 177.047 530.941 175.9C531.661 174.74 532.021 172.893 532.021 170.36C532.021 167.893 531.661 166.087 530.941 164.94C530.221 163.78 529.127 163.2 527.661 163.2ZM542.525 181V159.82H547.125L547.505 162.44C548.412 161.373 549.432 160.573 550.565 160.04C551.698 159.493 552.918 159.22 554.225 159.22C556.132 159.22 557.585 159.773 558.585 160.88C559.585 161.973 560.085 163.513 560.085 165.5V181H554.805V167.56C554.805 166.493 554.738 165.64 554.605 165C554.472 164.347 554.218 163.88 553.845 163.6C553.472 163.307 552.932 163.16 552.225 163.16C551.652 163.16 551.098 163.287 550.565 163.54C550.045 163.793 549.552 164.133 549.085 164.56C548.632 164.987 548.205 165.46 547.805 165.98V181H542.525ZM576.849 177.36C577.783 177.36 578.656 177.187 579.469 176.84C580.296 176.493 581.089 176.053 581.849 175.52L584.249 178.9C583.316 179.687 582.189 180.333 580.869 180.84C579.549 181.347 578.136 181.6 576.629 181.6C574.416 181.6 572.516 181.14 570.929 180.22C569.356 179.287 568.143 177.993 567.289 176.34C566.449 174.673 566.029 172.74 566.029 170.54C566.029 168.367 566.456 166.427 567.309 164.72C568.176 163 569.403 161.653 570.989 160.68C572.589 159.707 574.496 159.22 576.709 159.22C578.229 159.22 579.603 159.44 580.829 159.88C582.069 160.307 583.203 160.947 584.229 161.8L581.889 165.04C581.103 164.493 580.289 164.08 579.449 163.8C578.623 163.507 577.763 163.36 576.869 163.36C575.309 163.36 574.036 163.927 573.049 165.06C572.076 166.18 571.589 168.007 571.589 170.54C571.589 172.207 571.816 173.54 572.269 174.54C572.736 175.54 573.363 176.26 574.149 176.7C574.949 177.14 575.849 177.36 576.849 177.36ZM599.934 151.36V174.84C599.934 175.76 600.2 176.413 600.734 176.8C601.28 177.187 602.014 177.38 602.934 177.38C603.507 177.38 604.06 177.32 604.594 177.2C605.127 177.067 605.634 176.907 606.114 176.72L607.414 180.32C606.747 180.653 605.934 180.947 604.974 181.2C604.027 181.467 602.927 181.6 601.674 181.6C599.367 181.6 597.62 180.94 596.434 179.62C595.247 178.3 594.654 176.52 594.654 174.28V155.1H588.314V151.36H599.934ZM618.798 159.82V174.5C618.798 175.647 619.025 176.453 619.478 176.92C619.932 177.387 620.592 177.62 621.458 177.62C622.285 177.62 623.092 177.373 623.878 176.88C624.665 176.373 625.305 175.733 625.798 174.96V159.82H631.078V181H626.478L626.198 178.4C625.438 179.44 624.465 180.233 623.278 180.78C622.092 181.327 620.865 181.6 619.598 181.6C617.558 181.6 616.032 181.027 615.018 179.88C614.018 178.72 613.518 177.14 613.518 175.14V159.82H618.798ZM649.363 159.82V177.26H654.943V181H637.883V177.26H644.083V163.56H638.083V159.82H649.363ZM649.103 148.14L651.243 152.24L642.183 155.86L640.703 153.14L649.103 148.14ZM673.127 150.8L678.407 151.36V181H673.727L673.407 178.5C672.754 179.433 671.934 180.187 670.947 180.76C669.96 181.32 668.814 181.6 667.507 181.6C665.72 181.6 664.24 181.133 663.067 180.2C661.907 179.267 661.04 177.96 660.467 176.28C659.907 174.587 659.627 172.62 659.627 170.38C659.627 168.22 659.96 166.3 660.627 164.62C661.294 162.94 662.254 161.62 663.507 160.66C664.774 159.7 666.274 159.22 668.007 159.22C669.047 159.22 669.994 159.4 670.847 159.76C671.7 160.12 672.46 160.653 673.127 161.36V150.8ZM669.427 163.16C668.094 163.16 667.04 163.74 666.267 164.9C665.507 166.047 665.127 167.88 665.127 170.4C665.127 172.173 665.287 173.593 665.607 174.66C665.927 175.713 666.38 176.473 666.967 176.94C667.554 177.407 668.247 177.64 669.047 177.64C669.927 177.64 670.7 177.38 671.367 176.86C672.047 176.327 672.634 175.667 673.127 174.88V165.24C672.634 164.587 672.08 164.08 671.467 163.72C670.867 163.347 670.187 163.16 669.427 163.16ZM701.411 175.42C701.411 176.233 701.531 176.827 701.771 177.2C702.011 177.56 702.398 177.833 702.931 178.02L701.791 181.56C700.658 181.44 699.691 181.16 698.891 180.72C698.105 180.267 697.498 179.593 697.071 178.7C696.271 179.673 695.258 180.4 694.031 180.88C692.818 181.36 691.545 181.6 690.211 181.6C688.051 181.6 686.338 180.987 685.071 179.76C683.805 178.533 683.171 176.94 683.171 174.98C683.171 172.727 684.051 170.993 685.811 169.78C687.585 168.553 690.091 167.94 693.331 167.94H696.291V166.8C696.291 165.547 695.905 164.64 695.131 164.08C694.358 163.507 693.245 163.22 691.791 163.22C691.111 163.22 690.258 163.313 689.231 163.5C688.218 163.673 687.171 163.947 686.091 164.32L684.831 160.7C686.178 160.193 687.531 159.82 688.891 159.58C690.265 159.34 691.511 159.22 692.631 159.22C695.605 159.22 697.811 159.853 699.251 161.12C700.691 162.373 701.411 164.153 701.411 166.46V175.42ZM691.931 177.78C692.731 177.78 693.538 177.553 694.351 177.1C695.178 176.647 695.825 176.013 696.291 175.2V171.08H694.211C692.251 171.08 690.831 171.393 689.951 172.02C689.085 172.647 688.651 173.533 688.651 174.68C688.651 175.667 688.931 176.433 689.491 176.98C690.051 177.513 690.865 177.78 691.931 177.78ZM719.756 153.34L719.116 171.2H714.756L714.076 153.34H719.756ZM716.936 175.02C717.869 175.02 718.649 175.347 719.276 176C719.916 176.64 720.236 177.407 720.236 178.3C720.236 179.207 719.916 179.987 719.276 180.64C718.649 181.28 717.869 181.6 716.936 181.6C716.029 181.6 715.256 181.28 714.616 180.64C713.976 179.987 713.656 179.207 713.656 178.3C713.656 177.407 713.976 176.64 714.616 176C715.256 175.347 716.029 175.02 716.936 175.02Z" fill="#57EB23"/>
<defs>
<filter id="filter0_i_513_234" x="0" y="0" width="1055.15" height="583.28" filterUnits="userSpaceOnUse" color-interpolation-filters="sRGB">
<feFlood flood-opacity="0" result="BackgroundImageFix"/>
<feBlend mode="normal" in="SourceGraphic" in2="BackgroundImageFix" result="shape"/>
<feColorMatrix in="SourceAlpha" type="matrix" values="0 0 0 0 0 0 0 0 0 0 0 0 0 0 0 0 0 0 127 0" result="hardAlpha"/>
<feOffset dy="4"/>
<feGaussianBlur stdDeviation="61"/>
<feComposite in2="hardAlpha" operator="arithmetic" k2="-1" k3="1"/>
<feColorMatrix type="matrix" values="0 0 0 0 0 0 0 0 0 0 0 0 0 0 0 0 0 0 0.5 0"/>
<feBlend mode="normal" in2="shape" result="effect1_innerShadow_513_234"/>
</filter>
<filter id="filter1_i_513_234" x="0" y="0" width="1055.15" height="583.28" filterUnits="userSpaceOnUse" color-interpolation-filters="sRGB">
<feFlood flood-opacity="0" result="BackgroundImageFix"/>
<feBlend mode="normal" in="SourceGraphic" in2="BackgroundImageFix" result="shape"/>
<feColorMatrix in="SourceAlpha" type="matrix" values="0 0 0 0 0 0 0 0 0 0 0 0 0 0 0 0 0 0 127 0" result="hardAlpha"/>
<feOffset dy="4"/>
<feGaussianBlur stdDeviation="61"/>
<feComposite in2="hardAlpha" operator="arithmetic" k2="-1" k3="1"/>
<feColorMatrix type="matrix" values="0 0 0 0 0 0 0 0 0 0 0 0 0 0 0 0 0 0 0.5 0"/>
<feBlend mode="normal" in2="shape" result="effect1_innerShadow_513_234"/>
</filter>
</defs>
</svg>
