<?xml version="1.0" encoding="UTF-8"?>
<svg id="Camada_2" data-name="Camada 2" xmlns="http://www.w3.org/2000/svg" xmlns:xlink="http://www.w3.org/1999/xlink" viewBox="0 0 193.94 91.5">
  <defs>
    <style>
      .cls-1, .cls-2 {
        fill: blue;
      }

      .cls-3 {
        fill: #3f3fff;
      }

      .cls-2, .cls-4, .cls-5, .cls-6, .cls-7 {
        stroke-miterlimit: 10;
      }

      .cls-2, .cls-4, .cls-5, .cls-7 {
        stroke: blue;
      }

      .cls-8 {
        fill: url(#Gradiente_sem_nome_31);
        opacity: .36;
      }

      .cls-4 {
        fill: #0ef;
        stroke-width: .75px;
      }

      .cls-5 {
        stroke-width: .25px;
      }

      .cls-5, .cls-6, .cls-7 {
        fill: none;
      }

      .cls-6 {
        stroke: #004eff;
      }

      .cls-6, .cls-7 {
        stroke-width: .5px;
      }
    </style>
    <radialGradient id="Gradiente_sem_nome_31" data-name="Gradiente sem nome 31" cx="96.97" cy="45.75" fx="96.97" fy="45.75" r="87.01" gradientUnits="userSpaceOnUse">
      <stop offset=".45" stop-color="aqua"/>
      <stop offset=".61" stop-color="#00fbff"/>
      <stop offset=".75" stop-color="#00f0ff"/>
      <stop offset=".89" stop-color="#00deff"/>
      <stop offset="1" stop-color="#00caff"/>
    </radialGradient>
  </defs>
  <g id="Monitor">
    <g>
      <rect class="cls-8" width="193.94" height="91.5" rx="6.86" ry="6.86"/>
      <polygon class="cls-1" points="79.09 9.09 79.09 10.73 77.97 11.54 63.82 11.61 63.66 13.35 63.59 14.06 24.92 14.06 24.66 14.39 21.28 14.39 21.28 14.9 24.27 14.9 23.93 15.36 6.62 15.36 9.53 14.15 13.9 14 17.29 12.43 56.07 12.43 61.15 9.09 79.09 9.09"/>
      <polygon class="cls-1" points="73.55 11.98 71.21 13.17 66.58 13.17 68.94 11.98 73.55 11.98"/>
      <polygon class="cls-1" points="77.78 11.98 75.78 13.17 71.82 13.17 74.28 11.98 77.78 11.98"/>
      <polygon class="cls-1" points="68.29 11.98 65.98 13.17 61.41 13.17 63.73 11.98 68.29 11.98"/>
      <rect class="cls-1" x="22.03" y="14.51" width="41.48" height=".25"/>
      <polyline class="cls-5" points="110.19 9.3 82.32 9.3 75.67 13.95 64.42 13.93"/>
      <polyline class="cls-5" points="128.81 13.67 116.71 13.7 109.91 9.09"/>
      <polyline class="cls-5" points="110.3 14.77 82.53 14.77 78.82 11.75"/>
      <line class="cls-5" x1="110.3" y1="14.77" x2="113.81" y2="11.73"/>
      <polygon class="cls-1" points="114.53 8.85 114.53 10.49 115.65 11.3 129.8 11.37 129.96 13.11 130.03 13.81 168.7 13.81 168.96 14.15 172.34 14.15 172.34 14.66 169.35 14.66 169.69 15.12 187.01 15.12 184.09 13.91 179.72 13.76 176.34 12.19 137.56 12.19 132.47 8.85 114.53 8.85"/>
      <polygon class="cls-1" points="115.84 11.73 117.84 12.92 121.8 12.92 119.35 11.73 115.84 11.73"/>
      <polygon class="cls-1" points="120.07 11.73 122.41 12.92 127.04 12.92 124.69 11.73 120.07 11.73"/>
      <polygon class="cls-1" points="125.33 11.73 127.64 12.92 132.21 12.92 129.89 11.73 125.33 11.73"/>
      <rect class="cls-1" x="130.14" y="14.26" width="41.4" height=".27" transform="translate(301.67 28.79) rotate(-180)"/>
      <polygon class="cls-3" points="110.3 9.2 82.23 9.2 82.67 8.49 109.79 8.49 110.3 9.2"/>
      <polygon class="cls-3" points="82.37 14.76 110.43 14.76 110 15.47 82.88 15.47 82.37 14.76"/>
      <polyline class="cls-6" points="6.93 15.36 6.93 85.17 54.98 85.17 59.89 81.69 186.66 81.69 187.01 15.12"/>
      <rect class="cls-7" x="60.06" y="83.74" width="126.95" height="1.43"/>
      <rect class="cls-1" x="108.8" y="83.74" width="78.47" height="1.43"/>
      <g>
        <path class="cls-2" d="m27.67,25.7l-1.12-1.42-7.27-.08c-.6,0-1.09.48-1.1,1.07l.05,4.56,1.37,1.21.03,5.75,1.76,1.98h10.65c1.05,0,1.9-.85,1.9-1.9v-9.4s-.78-1.76-.78-1.76h-5.47Z"/>
        <path class="cls-4" d="m33.14,25.95h-11.88c-.92,0-1.67.75-1.66,1.68l.04,3.56.03,5.65,1.75,1.94h10.55c.91,0,1.93-.65,1.96-1.55v-9.55l-.78-1.73Z"/>
      </g>
      <g>
        <path class="cls-2" d="m27.67,44.36l-1.12-1.42-7.27-.08c-.6,0-1.09.48-1.1,1.07l.05,4.56,1.37,1.21.03,5.75,1.76,1.98h10.65c1.05,0,1.9-.85,1.9-1.9v-9.4s-.78-1.76-.78-1.76h-5.47Z"/>
        <path class="cls-4" d="m33.14,44.6h-11.88c-.92,0-1.67.75-1.66,1.68l.04,3.56.03,5.65,1.75,1.94h10.55c.91,0,1.93-.65,1.96-1.55v-9.55l-.78-1.73Z"/>
      </g>
      <g>
        <path class="cls-2" d="m27.67,63.01l-1.12-1.42-7.27-.08c-.6,0-1.09.48-1.1,1.07l.05,4.56,1.37,1.21.03,5.75,1.76,1.98h10.65c1.05,0,1.9-.85,1.9-1.9v-9.4s-.78-1.76-.78-1.76h-5.47Z"/>
        <path class="cls-4" d="m33.14,63.26h-11.88c-.92,0-1.67.75-1.66,1.68l.04,3.56.03,5.65,1.75,1.94h10.55c.91,0,1.93-.65,1.96-1.55v-9.55l-.78-1.73Z"/>
      </g>
    </g>
  </g>
</svg>