<svg width="775" height="140" viewBox="0 0 775 140" fill="none" xmlns="http://www.w3.org/2000/svg">
<path d="M21.5093 3H752.569C762.514 3 771.078 12.0156 771.078 23.7876V116.212C771.078 127.984 762.514 137 752.569 137H21.5093C11.5639 137 3 127.984 3 116.212V23.7876C3 12.0156 11.5639 3 21.5093 3Z" fill="#2B3C12" fill-opacity="0.76" stroke="#57EB23" stroke-width="6"/>
<path d="M85.0474 1V135M183.94 1V135M283.311 1V135M382.203 1V135M481.574 1V135M580.467 1V135M675.538 1V135" stroke="#57EB23" stroke-width="0.2"/>
<path d="M773.989 35.7852L0.0615717 35.9179M773.995 72.3935L0.0673115 72.5262M774 107.587L0.0728295 107.72" stroke="#57EB23" stroke-width="0.2"/>
<path d="M26.7161 43.7885L29.6065 53.7039C29.6065 53.7039 28.2725 49.557 25.6362 54.3158C23 59.0747 32.4968 71.4689 32.4968 71.4689L35.8 83.0369L40.7549 88.4077L36.7529 90.337L36.2129 94.1917L23 97.91C45.7097 122.698 63.8774 123.525 87 99.3423L72.7707 95.9117L69.6581 90.337L67.4347 92.4811L68.8323 87.1683L74.2 80.9712L77.0903 71.8821C77.0903 71.8821 87.8258 61.1404 84.332 53.4579C83.5201 51.6726 80.3936 54.117 80.3936 54.117L83.4427 42.7376C83.4427 35.8763 79.2265 30.3752 76.328 27.2998C60.5655 10.5756 36.7529 24.2981 36.7529 24.2981C36.7529 24.2981 28.9395 28.7796 26.7161 43.7885Z" stroke="#57EB23" stroke-width="3"/>
<g style="mix-blend-mode:luminosity">
<path d="M45.4686 99.1775L42.374 85.5612L68.3687 84.6328L65.8931 99.1775H45.4686Z" fill="#E7D5BF" stroke="black"/>
<path d="M26.5918 99.1775L38.9702 95.1545L55.3717 102.581L71.1542 96.0829L86.0083 99.1775C76.7245 111.246 52.5865 131.671 26.5918 99.1775Z" fill="#124D1E" stroke="black" stroke-width="0.6"/>
<path d="M52.14 102.835L51.1184 98.7488H55.4294H59.7783L59.0124 102.834L55.4368 104.209L52.14 102.835Z" fill="#18341F" stroke="black"/>
<path d="M42.993 89.8936H39.8984L43.9214 92.6787L42.993 89.8936Z" fill="#091B0D" stroke="black" stroke-width="0.6"/>
<path d="M53.2052 99.487L43.3025 92.3694L39.5889 90.2031L38.3511 94.5356L53.2052 104.748V99.487Z" fill="#02310C" stroke="black"/>
<path d="M67.4401 90.5122H70.5347L66.5117 93.2974L67.4401 90.5122Z" fill="#091B0D" stroke="black" stroke-width="0.6"/>
<path d="M57.2284 99.7965L67.1311 92.6789L70.8447 90.5127L72.0825 94.8451L57.2284 105.057V99.7965Z" fill="#02310C" stroke="black"/>
<path d="M36.7913 80.6581L30.406 53.3935C30.319 53.0199 30.2789 52.6368 30.2872 52.2536C30.58 38.3807 43.1987 27.6409 56.9361 28.6226C69.8987 29.5497 80.382 40.6658 79.7577 53.7302C79.7397 54.0916 79.6803 54.4501 79.5781 54.7992C77.2812 62.6512 74.9856 70.5032 72.6887 78.3552C72.5008 78.9988 72.1707 79.5987 71.7232 80.1141L62.8628 90.3071C61.9084 91.4047 60.4858 92.0414 58.9858 92.0414H52.1571C51.0466 92.0414 49.9679 91.6923 49.0895 91.0502L38.6297 83.4013C37.6973 82.7196 37.0468 81.7488 36.7927 80.6594L36.7913 80.6581Z" fill="#FFE8D4"/>
<path d="M50.4206 48.1536C46.085 48.11 41.7494 48.0663 37.4138 48.0227L34.168 50.5532L51.3833 49.9956L50.4206 48.1536Z" fill="#460000"/>
<path d="M60.2483 48.1536C64.5839 48.11 68.9195 48.0663 73.2551 48.0227L76.5009 50.5532L59.2856 49.9956L60.2483 48.1536Z" fill="#460000"/>
<path opacity="0.82" d="M50.7431 56.9041C51.0166 56.6996 51.3936 56.3464 51.3853 55.9169C51.3757 55.4425 50.9019 55.133 50.3356 54.6939C49.7928 54.274 49.0691 53.6618 48.2611 52.811H41.1065L35.3979 55.9169C37.275 56.8509 39.1534 57.7862 41.0305 58.7202C42.3564 58.3057 43.8564 57.9089 45.5166 57.5858C47.4254 57.2136 49.1851 57.0091 50.7431 56.9041Z" fill="white"/>
<path d="M41.1641 52.8101C40.8409 54.9547 42.6019 56.7558 44.4748 56.7586C46.3491 56.7599 48.1156 54.9575 47.7924 52.8101H41.1641Z" fill="#42210B"/>
<path opacity="0.82" d="M59.6507 57.1018C59.38 56.9123 59.0001 56.5824 58.9808 56.1515C58.9587 55.677 59.3841 55.3416 59.891 54.8712C60.3744 54.4227 61.0181 53.7709 61.7239 52.8765C63.9738 52.7429 66.2238 52.6107 68.4724 52.4771L74.0608 55.2585C72.3508 56.296 70.6409 57.3336 68.931 58.3698C67.6506 58.0031 66.1644 57.6622 64.4987 57.425C62.6962 57.1686 61.0609 57.0896 59.6479 57.0991L59.6507 57.1018Z" fill="white"/>
<path d="M68.9794 52.4486C69.4421 54.5701 67.8026 56.4721 65.9352 56.5839C64.0651 56.6971 62.1825 55.001 62.3648 52.8386C64.5692 52.7077 66.775 52.5782 68.9794 52.4473V52.4486Z" fill="#42210B"/>
<path opacity="0.35" d="M34.0044 68.7704L49.0457 91.0203L38.3345 83.186C37.5914 82.642 37.072 81.8689 36.869 80.999L34.0044 68.769V68.7704Z" fill="#C59B6D"/>
<path opacity="0.35" d="M76.3699 65.7568L62.457 90.769L72.3989 79.3312L76.3699 65.7568Z" fill="#C59B6D"/>
<path d="M36.7417 82.2556L30.3888 54.876C30.3022 54.5008 30.2623 54.1161 30.2706 53.7313C30.5619 39.7998 43.1166 29.0147 56.7843 30.0006C69.6811 30.9316 80.1112 42.0946 79.4901 55.2142C79.4722 55.577 79.4132 55.9371 79.3115 56.2876C77.0262 64.1727 74.7423 72.0579 72.457 79.9431C72.2701 80.5893 71.9417 81.1918 71.4964 81.7093L62.681 91.9454C61.7314 93.0476 60.316 93.687 58.8236 93.687H52.0296C50.9247 93.687 49.8515 93.3364 48.9775 92.6916L38.5707 85.0104C37.6431 84.3258 36.9959 83.351 36.743 82.257L36.7417 82.2556Z" fill="#FFE8D4"/>
<path d="M58.7952 93.687H52.0501C50.9205 93.687 49.8059 93.322 48.9109 92.6615L38.5791 85.0201C37.6268 84.316 36.9597 83.3082 36.6991 82.1833L30.392 54.9501C30.3033 54.5647 30.2624 54.167 30.2706 53.7707C30.4097 47.1016 33.463 40.6818 38.6487 36.1591C43.6761 31.7752 50.2834 29.5295 56.7842 29.9993C69.9182 30.9486 80.104 42.2793 79.4901 55.2565C79.4724 55.631 79.411 56.0028 79.3073 56.3623L72.5022 79.8899C72.3085 80.5599 71.9756 81.1728 71.5145 81.7094L62.7612 91.892C61.7816 93.0319 60.3355 93.687 58.7952 93.687ZM55.0788 30.2799C49.2301 30.2799 43.4101 32.467 38.8874 36.4124C33.7741 40.8725 30.7631 47.2011 30.6253 53.7775C30.6171 54.1466 30.6553 54.517 30.7385 54.8765L37.0456 82.1084C37.2885 83.1557 37.9092 84.094 38.796 84.749L49.1278 92.3905C49.96 93.006 50.9982 93.3451 52.0501 93.3451H58.7952C60.229 93.3451 61.5742 92.7364 62.4869 91.6755L71.2402 81.4942C71.67 80.9944 71.9797 80.4238 72.1598 79.8L78.9649 56.2711C79.0617 55.9374 79.119 55.5901 79.1354 55.2415C79.7398 42.4468 69.7013 31.2768 56.7583 30.3412C56.2003 30.3003 55.6396 30.2812 55.0816 30.2812L55.0788 30.2799Z" fill="black"/>
<path d="M50.3307 48.1194C45.9951 48.0758 41.6595 48.0322 37.3239 47.9885L34.0781 50.5191L51.2934 49.9614L50.3307 48.1194Z" fill="#460000"/>
<path d="M33.5532 50.707L37.2604 47.8179L50.4439 47.9501L51.5807 50.1234L33.5546 50.707H33.5532ZM37.3874 48.1601L34.6029 50.3307L51.0075 49.8003L50.2174 48.2896L37.3861 48.1601H37.3874Z" fill="black"/>
<path d="M60.1575 48.1194C64.4931 48.0758 68.8287 48.0322 73.1643 47.9885L76.4101 50.5191L59.1948 49.9614L60.1575 48.1194Z" fill="#460000"/>
<path d="M76.9352 50.707L58.9092 50.1234L60.0459 47.9501L73.2295 47.8179L76.9366 50.707H76.9352ZM59.481 49.8003L75.8855 50.3307L73.101 48.1601L60.2697 48.2896L59.4796 49.8003H59.481Z" fill="black"/>
<path d="M50.6075 56.817C51.3782 55.8517 50.852 55.6376 49.9487 55.0868C49.1172 54.5455 48.3479 53.9088 47.6932 53.1835L48.1683 53.3839C45.7899 53.1835 43.4087 52.7513 41.0137 53.1548L41.2126 53.1044C39.4585 54.3615 37.6021 55.4931 35.6864 56.513L35.6615 55.2382C36.5897 55.7276 37.4944 56.2566 38.3825 56.8116C39.2679 57.3747 40.1449 57.9541 40.9709 58.6249L40.9046 58.7463C38.83 58.2009 36.877 57.4101 34.9502 56.5266L33.7251 55.9512C35.9751 54.6083 38.3632 53.418 40.8162 52.4486L40.9557 52.3913C41.5717 52.4622 42.1877 52.5249 42.8037 52.5522C44.6974 52.6967 46.5565 52.2086 48.4349 52.1609L48.6448 52.3695C49.2981 53.0185 49.9376 53.6729 50.6241 54.2974C51.2346 54.8182 52.0757 55.6935 51.3506 56.4789C51.16 56.6902 50.9307 56.8238 50.6973 56.9247L50.6075 56.817Z" fill="black"/>
<path opacity="0.82" d="M50.6518 56.8713C50.9253 56.6668 51.3023 56.3137 51.294 55.8842C51.2844 55.4097 50.8106 55.1002 50.2443 54.6612C49.7015 54.2413 48.9778 53.6291 48.1698 52.7783H41.0151L35.3066 55.8842C37.1837 56.8182 39.0621 57.7535 40.9392 58.6874C42.2651 58.273 43.7651 57.8762 45.4253 57.5531C47.3341 57.1808 49.0938 56.9763 50.6518 56.8713Z" fill="white"/>
<path d="M41.0737 52.7764C40.7505 54.921 42.5115 56.7221 44.3845 56.7249C46.2587 56.7262 48.0253 54.9238 47.7021 52.7764H41.0737Z" fill="#42210B"/>
<path d="M44.3861 56.8955H44.3834C43.4345 56.8955 42.4953 56.4633 41.8102 55.712C41.0685 54.8994 40.7342 53.8196 40.8958 52.752L40.9179 52.6047H47.8585L47.8806 52.752C48.0422 53.8209 47.7065 54.9008 46.9621 55.7134C46.2742 56.4646 45.3364 56.8955 44.3861 56.8955ZM41.2329 52.947C41.1362 53.8673 41.4414 54.7862 42.0823 55.487C42.6997 56.1633 43.5381 56.5519 44.3834 56.5532H44.3861C45.2314 56.5532 46.0712 56.166 46.69 55.4898C47.3322 54.789 47.6375 53.8686 47.5422 52.947H41.2342H41.2329Z" fill="black"/>
<path d="M59.5546 57.1232C58.0022 56.5205 58.487 55.3834 59.4552 54.4972C60.0988 53.8332 60.6941 53.1433 61.3046 52.4561L61.5007 52.2353C62.7839 52.1725 64.0767 52.373 65.3612 52.3866C66.5794 52.3961 67.7838 52.2393 68.9813 52.0239C71.1084 52.7179 73.1829 53.5605 75.1871 54.5231L76.4301 55.1489C75.1429 55.8593 73.7658 56.5996 72.4205 57.1954C71.455 57.6249 70.4799 58.038 69.4482 58.3639L69.3736 58.2466C70.9371 56.8423 72.6595 55.6629 74.4509 54.5531L74.5089 55.8265C72.531 54.9212 70.6028 53.9014 68.77 52.7506L68.9716 52.7888C66.5545 52.5284 64.2065 53.0983 61.846 53.4392L62.3074 53.2101C61.7024 53.9736 60.9759 54.654 60.1817 55.243C59.3198 55.8429 58.8019 56.0924 59.6375 57.0086L59.556 57.1204L59.5546 57.1232Z" fill="black"/>
<path opacity="0.82" d="M59.5594 57.0691C59.2887 56.8796 58.9088 56.5496 58.8895 56.1188C58.8674 55.6443 59.2928 55.3089 59.7997 54.8385C60.2831 54.39 60.9268 53.7382 61.6326 52.8438C63.8825 52.7102 66.1325 52.578 68.3811 52.4443L73.9695 55.2257C72.2595 56.2633 70.5496 57.3009 68.8397 58.3371C67.5593 57.9703 66.0731 57.6295 64.4074 57.3922C62.6049 57.1359 60.9696 57.0568 59.5566 57.0664L59.5594 57.0691Z" fill="white"/>
<path d="M68.8866 52.4159C69.3493 54.5374 67.7098 56.4394 65.8424 56.5512C63.9723 56.6644 62.0897 54.9683 62.272 52.8059C64.4764 52.675 66.6822 52.5454 68.8866 52.4146V52.4159Z" fill="#42210B"/>
<path d="M65.664 56.728C64.7773 56.728 63.8892 56.3585 63.2027 55.6958C62.4058 54.9282 62.0011 53.8702 62.0922 52.7931L62.1047 52.6458L69.0314 52.2368L69.0632 52.3813C69.2938 53.4366 69.0314 54.5342 68.3436 55.3891C67.7082 56.1799 66.8008 56.6652 65.8533 56.7225C65.7897 56.7266 65.7262 56.728 65.664 56.728ZM62.4431 52.9676C62.4072 53.8934 62.7732 54.7933 63.461 55.4559C64.124 56.0953 64.99 56.4321 65.8325 56.3817C66.6764 56.3312 67.4872 55.8935 68.059 55.1818C68.6516 54.4442 68.896 53.5089 68.74 52.5954L62.4431 52.9676Z" fill="black"/>
<path d="M53.3514 54.3922C53.8059 55.9725 53.8501 57.6249 53.6774 59.2447C53.6263 61.9388 53.2617 64.7312 51.9716 67.1635L51.9385 67.1512C52.7161 64.0208 53.8197 60.8685 53.4827 57.6249L53.3169 54.3963L53.3528 54.3909L53.3514 54.3922Z" fill="black"/>
<path d="M54.2747 72.5535C53.6504 72.5535 53.1144 72.2113 52.9225 72.0885C51.9584 71.4709 51.5205 70.631 51.5026 70.5956C50.9625 69.6834 50.2982 69.1558 49.765 68.7318C49.1849 68.2709 48.7264 67.9055 48.8065 67.292C48.87 66.8066 49.2678 66.3553 49.9874 65.9545L50.1697 66.249C49.5523 66.5939 49.2126 66.9593 49.1642 67.3342C49.1103 67.7433 49.4128 68.0051 49.9971 68.4686C50.5523 68.9104 51.2443 69.4598 51.823 70.4361C51.8313 70.4524 52.2443 71.2391 53.1241 71.8036C53.3327 71.9372 53.8879 72.2944 54.4832 72.1935C55.1061 72.0885 55.9003 71.2105 56.4818 70.5697C56.7346 70.2902 56.9542 70.0488 57.142 69.8811C57.8478 69.2499 58.4652 68.9145 58.9624 68.6431C59.7207 68.2314 60.0343 68.0596 59.8616 67.2906C59.7511 66.7943 59.1517 66.3526 58.0812 65.9776L58.2056 65.6572C59.4169 66.0813 60.0729 66.5925 60.2138 67.2197C60.4403 68.2341 59.9238 68.515 59.142 68.9404C58.6627 69.2008 58.0647 69.5267 57.3906 70.1293C57.2166 70.2847 56.9929 70.5315 56.7567 70.7919C56.1061 71.5091 55.2967 72.4035 54.5481 72.5289C54.457 72.5439 54.3658 72.5507 54.2774 72.5507L54.2747 72.5535Z" fill="black"/>
<path opacity="0.35" d="M33.9175 70.1693L48.9588 92.4192L38.2475 84.5849C37.5045 84.0409 36.9851 83.2678 36.7821 82.398L33.9175 70.168V70.1693Z" fill="#C59B6D"/>
<path opacity="0.35" d="M75.7962 67.6921L61.8848 92.7043L71.8266 81.2665L75.7962 67.6921Z" fill="#C59B6D"/>
<path d="M55.0102 57.9497C55.2049 59.1182 55.2422 60.2689 55.3279 61.4387C55.6966 63.3571 56.5046 65.1432 57.0557 67.0275L57.0226 67.0411C55.8707 65.3722 55.4826 63.398 55.2118 61.4551C54.9453 60.3371 54.7008 59.0323 55.0102 57.9497Z" fill="black"/>
<path d="M30.8586 55.377C29.3296 53.0278 26.7329 53.5023 26.5589 53.7586C26.3918 54.0054 26.3089 54.2931 26.2992 54.5862C26.2357 56.4909 26.3766 58.9274 27.1128 61.6488C28.6749 67.4175 32.6804 69.9589 34.6141 71.8527C33.661 66.3254 32.0022 60.7053 30.8586 55.3784V55.377Z" fill="#FFE5D1"/>
<path d="M30.7663 55.3433C29.2373 52.9941 26.6407 53.4686 26.4666 53.7249C26.2995 53.9717 26.2166 54.2594 26.207 54.5525C26.1434 56.4572 26.2843 58.8937 27.0205 61.6151C28.5826 67.3838 32.5881 69.9252 34.5218 71.8191C33.5688 66.2917 31.9099 60.6716 30.7663 55.3447V55.3433Z" fill="#FFE5D1"/>
<path d="M34.7927 72.3293L34.3922 71.938C34.051 71.604 33.6366 71.2413 33.196 70.8582C31.0635 68.9971 28.1436 66.4502 26.8467 61.6577C26.2224 59.3494 25.9461 56.958 26.0276 54.5474C26.0387 54.2106 26.1381 53.8943 26.3163 53.6325C26.453 53.4308 27.0152 53.3285 27.5165 53.3339C28.1685 53.3394 29.8038 53.5385 30.9212 55.2523L30.9447 55.3082C31.395 57.4038 31.935 59.5921 32.4599 61.7095C33.2775 65.0158 34.1228 68.4326 34.7016 71.7908L34.7941 72.3293H34.7927ZM27.4806 53.6762C27.0041 53.6762 26.6712 53.7743 26.6077 53.8289C26.4751 54.0266 26.395 54.2829 26.3867 54.5583C26.3066 56.9361 26.5787 59.2962 27.1947 61.5732C28.4654 66.2661 31.3397 68.7748 33.4391 70.6059C33.7237 70.8541 33.9985 71.094 34.2513 71.3245C33.6781 68.1463 32.8797 64.9177 32.1063 61.7886C31.5842 59.6794 31.0455 57.4992 30.5952 55.4077C29.79 54.1888 28.721 53.8111 27.9641 53.7089C27.7914 53.6857 27.6284 53.6762 27.4806 53.6762Z" fill="black"/>
<path d="M32.4389 68.0478C29.1406 65.0073 28.095 62.5 27.4555 60.2449C26.979 58.5624 26.4293 55.1429 27.3174 54.8648C27.8657 54.6957 28.6447 55.6583 29.8878 57.503C30.3629 58.2079 30.693 58.8214 30.9126 59.2264C31.3215 59.9844 31.693 60.7725 32.0176 61.5688L31.682 61.6915C31.3615 60.9061 30.9955 60.129 30.5922 59.3818C30.3767 58.981 30.0494 58.377 29.5839 57.6857C29.1475 57.0381 27.827 55.0693 27.4293 55.1879C27.0715 55.2997 27.0978 57.668 27.8022 60.1549C28.4279 62.3636 29.4527 64.8192 32.6875 67.8024L32.4361 68.0478H32.4389Z" fill="black"/>
<path d="M28.0222 59.123C27.8385 58.4495 27.8109 57.7678 27.9407 57.0997C28.0278 56.6498 28.1714 56.0649 28.3164 55.7717L28.6438 55.9149C28.5139 56.1794 28.3758 56.752 28.2957 57.1611C28.1755 57.7801 28.2018 58.4113 28.3717 59.0372L28.0222 59.123Z" fill="black"/>
<path d="M32.4751 64.7621C32.4571 64.7525 30.7099 63.6427 30.6188 61.8621C30.5801 61.0958 30.8688 60.6691 31.0607 60.3882L31.1201 60.2996L31.4268 60.4795L31.3632 60.5736C31.1864 60.834 30.9447 61.1899 30.9779 61.8457C31.0594 63.4355 32.6353 64.4567 32.6519 64.4649L32.4737 64.7621H32.4751Z" fill="black"/>
<path opacity="0.35" d="M32.5378 68.1459C30.6055 66.4007 29.5116 64.6459 28.9135 63.4966C28.7118 63.1107 28.0668 61.8305 27.6055 60.0266C27.1898 58.3987 26.6994 55.4646 27.3486 55.2464C27.995 55.0297 29.5544 57.5752 30.1207 58.4996C30.6428 59.3517 30.8638 59.8752 31.0999 60.3906C30.9936 60.5283 30.8886 60.666 30.7823 60.8037C30.6704 61.1214 30.3776 62.0415 30.7823 62.399C30.9853 63.8933 32.3168 64.7032 32.5364 64.8327V68.1459H32.5378Z" fill="#C59B6D"/>
<path d="M78.4827 56.0394C80.0117 53.6902 82.6084 54.1646 82.7824 54.421C82.9495 54.6677 83.0324 54.9554 83.0421 55.2486C83.1056 57.1533 82.9647 59.5897 82.2285 62.3112C80.6664 68.0798 76.6609 70.6213 74.7272 72.5151C75.6803 66.9877 77.3391 61.3677 78.4827 56.0407V56.0394Z" fill="#FFE5D1"/>
<path d="M78.575 56.0062C80.104 53.657 82.7007 54.1314 82.8747 54.3878C83.0418 54.6345 83.1247 54.9222 83.1344 55.2154C83.1979 57.1201 83.057 59.5565 82.3208 62.278C80.7587 68.0466 76.7532 70.5881 74.8195 72.4819C75.7726 66.9545 77.4314 61.3345 78.575 56.0075V56.0062Z" fill="#FFE5D1"/>
<path d="M74.5491 72.9917L74.9496 72.6004C75.2908 72.2663 75.7052 71.9036 76.1458 71.5205C78.2783 69.6594 81.1982 67.1125 82.4951 62.3201C83.1194 60.0118 83.3957 57.6203 83.3142 55.2098C83.3031 54.873 83.2037 54.5567 83.0255 54.2949C82.8888 54.0931 82.3266 53.9908 81.8253 53.9963C81.1733 54.0018 79.538 54.2008 78.4206 55.9147L78.3971 55.9706C77.9468 58.0662 77.4068 60.2545 76.8819 62.3719C76.0643 65.6782 75.219 69.095 74.6402 72.4531L74.5477 72.9917H74.5491ZM81.8612 54.3385C82.3377 54.3385 82.6705 54.4367 82.7341 54.4912C82.8667 54.6889 82.9468 54.9453 82.9551 55.2207C83.0352 57.5985 82.7631 59.9586 82.1471 62.2355C80.8764 66.9285 78.0021 69.4372 75.9027 71.2683C75.6181 71.5164 75.3433 71.7564 75.0905 71.9868C75.6637 68.8087 76.462 65.58 77.2355 62.451C77.7576 60.3417 78.2963 58.1616 78.7466 56.0701C79.5518 54.8512 80.6208 54.4735 81.3777 54.3712C81.5504 54.3481 81.7134 54.3385 81.8612 54.3385Z" fill="black"/>
<path d="M76.9024 68.7106C80.2007 65.6702 81.2463 63.1628 81.8858 60.9077C82.3623 59.2252 82.912 55.8057 82.0239 55.5276C81.4756 55.3585 80.6966 56.3211 79.4535 58.1658C78.9784 58.8707 78.6483 59.4843 78.4287 59.8892C78.0198 60.6473 77.6483 61.4354 77.3237 62.2316L77.6593 62.3543C77.9798 61.569 78.3458 60.7918 78.7491 60.0447C78.9646 59.6438 79.2919 59.0398 79.7574 58.3485C80.1938 57.7009 81.5143 55.7321 81.9121 55.8507C82.2698 55.9625 82.2435 58.3308 81.5391 60.8177C80.9134 63.0265 79.8886 65.482 76.6538 68.4652L76.9052 68.7106H76.9024Z" fill="black"/>
<path d="M81.3196 59.7854C81.5033 59.1119 81.5309 58.4301 81.4011 57.7621C81.314 57.3121 81.1704 56.7272 81.0254 56.4341L80.698 56.5772C80.8279 56.8417 80.966 57.4144 81.0461 57.8234C81.1663 58.4424 81.14 59.0737 80.9701 59.6995L81.3196 59.7854Z" fill="black"/>
<path d="M76.8667 65.4247C76.8847 65.4151 78.6319 64.3053 78.723 62.5247C78.7617 61.7584 78.473 61.3317 78.2811 61.0508L78.2217 60.9622L77.915 61.1421L77.9786 61.2362C78.1554 61.4966 78.3971 61.8525 78.3639 62.5083C78.2824 64.0981 76.7065 65.1193 76.6899 65.1275L76.8681 65.4247H76.8667Z" fill="black"/>
<path opacity="0.35" d="M76.804 68.8087C78.7363 67.0635 79.8302 65.3088 80.4283 64.1594C80.6299 63.7736 81.275 62.4933 81.7363 60.6895C82.152 59.0615 82.6424 56.1274 81.9932 55.9093C81.3468 55.6925 79.7874 58.238 79.2211 59.1624C78.699 60.0146 78.478 60.538 78.2418 61.0534C78.3482 61.1911 78.4532 61.3288 78.5595 61.4665C78.6714 61.7842 78.9642 62.7044 78.5595 63.0619C78.3565 64.5562 77.025 65.3661 76.8054 65.4956V68.8087H76.804Z" fill="#C59B6D"/>
<path d="M62.6592 77.7984L60.023 79.5115C59.7954 79.6597 59.5248 79.7395 59.2493 79.7395H50.7949C50.2901 79.7395 49.8018 79.5799 49.4026 79.2868L47.3801 77.7984H62.6592Z" fill="white"/>
<path d="M46.685 77.5949H63.2871L60.0785 79.6809C59.8129 79.8535 59.5044 79.9431 59.1828 79.9431H50.7283C50.179 79.9431 49.6379 79.7672 49.204 79.4481L46.685 77.5949ZM61.8981 78.0036H47.942L49.468 79.1256C49.8259 79.3894 50.2746 79.5344 50.7283 79.5344H59.1828C59.417 79.5344 59.643 79.4676 59.836 79.3422L61.8997 78.002L61.8981 78.0036Z" fill="black"/>
<path opacity="0.35" d="M50.9417 80.0708C51.9153 80.2697 53.0457 80.4909 54.0193 80.6897H55.1591C56.2375 80.4909 57.1592 80.2697 58.2368 80.0708H50.9409H50.9417Z" fill="#C5806D"/>
<path d="M28.7578 44.6175L32.4713 60.4947L34.0187 44.6175L39.5889 38.4283C53.7892 38.4283 60.8549 37.2464 73.3202 37.8093L78.8905 45.5459L79.5094 59.2567L83.223 44.6175C83.223 44.6175 83.0714 39.9782 81.9851 37.285C80.2376 32.9525 77.6527 30.4769 77.6527 30.4769C63.0846 12.2887 37.7322 23.2653 32.4713 32.2389C32.4713 32.2389 30.9127 35.0936 29.9957 38.4283C29.3547 40.7591 28.7578 44.6175 28.7578 44.6175Z" fill="#5F3232" stroke="black" stroke-linecap="round"/>
</g>
<path d="M144.83 41.19V44.98H149.73V46.97H144.83V50.99H150.78V53H142.09V39.17H150.71L150.43 41.19H144.83ZM157.312 51.35C157.932 51.35 158.429 51.2433 158.802 51.03C159.182 50.81 159.372 50.5033 159.372 50.11C159.372 49.85 159.309 49.63 159.182 49.45C159.062 49.27 158.822 49.1033 158.462 48.95C158.102 48.79 157.562 48.6133 156.842 48.42C156.162 48.2467 155.566 48.0333 155.052 47.78C154.546 47.52 154.149 47.1867 153.862 46.78C153.582 46.3733 153.442 45.86 153.442 45.24C153.442 44.62 153.616 44.0767 153.962 43.61C154.309 43.1367 154.809 42.77 155.462 42.51C156.122 42.2433 156.916 42.11 157.842 42.11C158.749 42.11 159.542 42.23 160.222 42.47C160.902 42.7033 161.486 42.9967 161.972 43.35L160.892 44.96C160.466 44.6867 160.002 44.4667 159.502 44.3C159.009 44.1267 158.476 44.04 157.902 44.04C157.282 44.04 156.829 44.13 156.542 44.31C156.262 44.49 156.122 44.74 156.122 45.06C156.122 45.2867 156.192 45.48 156.332 45.64C156.479 45.7933 156.739 45.9433 157.112 46.09C157.492 46.23 158.032 46.4 158.732 46.6C159.419 46.7867 160.016 47.0067 160.522 47.26C161.036 47.5133 161.432 47.85 161.712 48.27C161.992 48.69 162.132 49.24 162.132 49.92C162.132 50.6867 161.909 51.32 161.462 51.82C161.016 52.32 160.426 52.6933 159.692 52.94C158.966 53.18 158.176 53.3 157.322 53.3C156.322 53.3 155.449 53.1567 154.702 52.87C153.956 52.5833 153.322 52.2133 152.802 51.76L154.172 50.22C154.586 50.5467 155.056 50.8167 155.582 51.03C156.116 51.2433 156.692 51.35 157.312 51.35ZM168.984 51.35C169.604 51.35 170.101 51.2433 170.474 51.03C170.854 50.81 171.044 50.5033 171.044 50.11C171.044 49.85 170.981 49.63 170.854 49.45C170.734 49.27 170.494 49.1033 170.134 48.95C169.774 48.79 169.234 48.6133 168.514 48.42C167.834 48.2467 167.238 48.0333 166.724 47.78C166.218 47.52 165.821 47.1867 165.534 46.78C165.254 46.3733 165.114 45.86 165.114 45.24C165.114 44.62 165.288 44.0767 165.634 43.61C165.981 43.1367 166.481 42.77 167.134 42.51C167.794 42.2433 168.588 42.11 169.514 42.11C170.421 42.11 171.214 42.23 171.894 42.47C172.574 42.7033 173.158 42.9967 173.644 43.35L172.564 44.96C172.138 44.6867 171.674 44.4667 171.174 44.3C170.681 44.1267 170.148 44.04 169.574 44.04C168.954 44.04 168.501 44.13 168.214 44.31C167.934 44.49 167.794 44.74 167.794 45.06C167.794 45.2867 167.864 45.48 168.004 45.64C168.151 45.7933 168.411 45.9433 168.784 46.09C169.164 46.23 169.704 46.4 170.404 46.6C171.091 46.7867 171.688 47.0067 172.194 47.26C172.708 47.5133 173.104 47.85 173.384 48.27C173.664 48.69 173.804 49.24 173.804 49.92C173.804 50.6867 173.581 51.32 173.134 51.82C172.688 52.32 172.098 52.6933 171.364 52.94C170.638 53.18 169.848 53.3 168.994 53.3C167.994 53.3 167.121 53.1567 166.374 52.87C165.628 52.5833 164.994 52.2133 164.474 51.76L165.844 50.22C166.258 50.5467 166.728 50.8167 167.254 51.03C167.788 51.2433 168.364 51.35 168.984 51.35ZM185.077 50.21C185.077 50.6167 185.137 50.9133 185.257 51.1C185.377 51.28 185.57 51.4167 185.837 51.51L185.267 53.28C184.7 53.22 184.217 53.08 183.817 52.86C183.423 52.6333 183.12 52.2967 182.907 51.85C182.507 52.3367 182 52.7 181.387 52.94C180.78 53.18 180.143 53.3 179.477 53.3C178.397 53.3 177.54 52.9933 176.907 52.38C176.273 51.7667 175.957 50.97 175.957 49.99C175.957 48.8633 176.397 47.9967 177.277 47.39C178.163 46.7767 179.417 46.47 181.037 46.47H182.517V45.9C182.517 45.2733 182.323 44.82 181.937 44.54C181.55 44.2533 180.993 44.11 180.267 44.11C179.927 44.11 179.5 44.1567 178.987 44.25C178.48 44.3367 177.957 44.4733 177.417 44.66L176.787 42.85C177.46 42.5967 178.137 42.41 178.817 42.29C179.503 42.17 180.127 42.11 180.687 42.11C182.173 42.11 183.277 42.4267 183.997 43.06C184.717 43.6867 185.077 44.5767 185.077 45.73V50.21ZM180.337 51.39C180.737 51.39 181.14 51.2767 181.547 51.05C181.96 50.8233 182.283 50.5067 182.517 50.1V48.04H181.477C180.497 48.04 179.787 48.1967 179.347 48.51C178.913 48.8233 178.697 49.2667 178.697 49.84C178.697 50.3333 178.837 50.7167 179.117 50.99C179.397 51.2567 179.803 51.39 180.337 51.39ZM202.221 48.51C202.274 49.17 202.424 49.7067 202.671 50.12C202.924 50.5333 203.248 50.8367 203.641 51.03C204.034 51.2233 204.471 51.32 204.951 51.32C205.458 51.32 205.934 51.24 206.381 51.08C206.828 50.92 207.268 50.6967 207.701 50.41L208.801 51.92C208.308 52.3333 207.718 52.6667 207.031 52.92C206.351 53.1733 205.601 53.3 204.781 53.3C203.634 53.3 202.668 53.0633 201.881 52.59C201.101 52.1167 200.511 51.46 200.111 50.62C199.711 49.78 199.511 48.8133 199.511 47.72C199.511 46.6667 199.708 45.7167 200.101 44.87C200.494 44.0233 201.061 43.3533 201.801 42.86C202.541 42.36 203.434 42.11 204.481 42.11C205.454 42.11 206.294 42.3233 207.001 42.75C207.708 43.1767 208.254 43.79 208.641 44.59C209.028 45.3833 209.221 46.34 209.221 47.46C209.221 47.64 209.214 47.8233 209.201 48.01C209.194 48.1967 209.184 48.3633 209.171 48.51H202.221ZM204.491 43.97C203.851 43.97 203.324 44.2 202.911 44.66C202.504 45.1133 202.264 45.8333 202.191 46.82H206.651C206.638 45.9267 206.451 45.23 206.091 44.73C205.738 44.2233 205.204 43.97 204.491 43.97ZM206.091 36.57L207.161 38.62L202.631 40.43L201.891 39.07L206.091 36.57ZM231.765 50.21C231.765 50.6167 231.825 50.9133 231.945 51.1C232.065 51.28 232.259 51.4167 232.525 51.51L231.955 53.28C231.389 53.22 230.905 53.08 230.505 52.86C230.112 52.6333 229.809 52.2967 229.595 51.85C229.195 52.3367 228.689 52.7 228.075 52.94C227.469 53.18 226.832 53.3 226.165 53.3C225.085 53.3 224.229 52.9933 223.595 52.38C222.962 51.7667 222.645 50.97 222.645 49.99C222.645 48.8633 223.085 47.9967 223.965 47.39C224.852 46.7767 226.105 46.47 227.725 46.47H229.205V45.9C229.205 45.2733 229.012 44.82 228.625 44.54C228.239 44.2533 227.682 44.11 226.955 44.11C226.615 44.11 226.189 44.1567 225.675 44.25C225.169 44.3367 224.645 44.4733 224.105 44.66L223.475 42.85C224.149 42.5967 224.825 42.41 225.505 42.29C226.192 42.17 226.815 42.11 227.375 42.11C228.862 42.11 229.965 42.4267 230.685 43.06C231.405 43.6867 231.765 44.5767 231.765 45.73V50.21ZM227.025 51.39C227.425 51.39 227.829 51.2767 228.235 51.05C228.649 50.8233 228.972 50.5067 229.205 50.1V48.04H228.165C227.185 48.04 226.475 48.1967 226.035 48.51C225.602 48.8233 225.385 49.2667 225.385 49.84C225.385 50.3333 225.525 50.7167 225.805 50.99C226.085 51.2567 226.492 51.39 227.025 51.39ZM252.13 42.11C253.063 42.11 253.81 42.34 254.37 42.8C254.936 43.2533 255.346 43.8967 255.6 44.73C255.86 45.5633 255.99 46.5467 255.99 47.68C255.99 48.7667 255.833 49.7333 255.52 50.58C255.206 51.4267 254.746 52.0933 254.14 52.58C253.54 53.06 252.8 53.3 251.92 53.3C250.84 53.3 249.966 52.9167 249.3 52.15V57.08L246.66 57.36V42.41H248.98L249.12 43.7C249.54 43.1533 250.01 42.7533 250.53 42.5C251.05 42.24 251.583 42.11 252.13 42.11ZM251.36 44.09C250.913 44.09 250.52 44.2233 250.18 44.49C249.846 44.7567 249.553 45.0867 249.3 45.48V50.22C249.54 50.58 249.813 50.85 250.12 51.03C250.426 51.21 250.773 51.3 251.16 51.3C251.833 51.3 252.346 51.02 252.7 50.46C253.06 49.8933 253.24 48.9767 253.24 47.71C253.24 46.8167 253.166 46.1067 253.02 45.58C252.88 45.0467 252.67 44.6667 252.39 44.44C252.11 44.2067 251.766 44.09 251.36 44.09ZM258.432 53V51.17H259.922V44.23H258.432V42.41H261.932L262.422 44.84C262.809 43.94 263.295 43.2633 263.882 42.81C264.469 42.35 265.205 42.12 266.092 42.12C266.432 42.12 266.732 42.1467 266.992 42.2C267.259 42.2533 267.512 42.3233 267.752 42.41L266.962 44.63C266.755 44.5767 266.559 44.5367 266.372 44.51C266.185 44.4767 265.975 44.46 265.742 44.46C265.009 44.46 264.369 44.7467 263.822 45.32C263.282 45.8867 262.862 46.6567 262.562 47.63V51.17H264.672V53H258.432ZM265.522 46.54V43.73L265.882 42.41H267.752L267.282 46.54H265.522ZM276.094 42.41V51.13H278.884V53H270.354V51.13H273.454V44.28H270.454V42.41H276.094ZM274.384 37.07C274.871 37.07 275.264 37.22 275.564 37.52C275.871 37.82 276.024 38.1933 276.024 38.64C276.024 39.0867 275.871 39.4633 275.564 39.77C275.264 40.07 274.871 40.22 274.384 40.22C273.897 40.22 273.501 40.07 273.194 39.77C272.887 39.4633 272.734 39.0867 272.734 38.64C272.734 38.1933 272.887 37.82 273.194 37.52C273.501 37.22 273.897 37.07 274.384 37.07ZM289.206 42.11C289.66 42.11 290.046 42.2067 290.366 42.4C290.686 42.5867 290.933 42.9033 291.106 43.35C291.28 43.79 291.366 44.39 291.366 45.15V53H289.066V45.48C289.066 45 289.026 44.66 288.946 44.46C288.873 44.26 288.703 44.16 288.436 44.16C288.216 44.16 287.993 44.2267 287.766 44.36C287.546 44.4867 287.316 44.7167 287.076 45.05V53H285.086V45.48C285.086 45 285.046 44.66 284.966 44.46C284.893 44.26 284.723 44.16 284.456 44.16C284.23 44.16 284.006 44.2267 283.786 44.36C283.566 44.4867 283.336 44.7167 283.096 45.05V53H280.766V42.41H282.736L282.906 43.51C283.22 43.07 283.55 42.7267 283.896 42.48C284.243 42.2333 284.66 42.11 285.146 42.11C285.546 42.11 285.9 42.21 286.206 42.41C286.52 42.6033 286.743 42.9367 286.876 43.41C287.183 43.0233 287.526 42.71 287.906 42.47C288.286 42.23 288.72 42.11 289.206 42.11ZM295.598 48.51C295.652 49.17 295.802 49.7067 296.048 50.12C296.302 50.5333 296.625 50.8367 297.018 51.03C297.412 51.2233 297.848 51.32 298.328 51.32C298.835 51.32 299.312 51.24 299.758 51.08C300.205 50.92 300.645 50.6967 301.078 50.41L302.178 51.92C301.685 52.3333 301.095 52.6667 300.408 52.92C299.728 53.1733 298.978 53.3 298.158 53.3C297.012 53.3 296.045 53.0633 295.258 52.59C294.478 52.1167 293.888 51.46 293.488 50.62C293.088 49.78 292.888 48.8133 292.888 47.72C292.888 46.6667 293.085 45.7167 293.478 44.87C293.872 44.0233 294.438 43.3533 295.178 42.86C295.918 42.36 296.812 42.11 297.858 42.11C298.832 42.11 299.672 42.3233 300.378 42.75C301.085 43.1767 301.632 43.79 302.018 44.59C302.405 45.3833 302.598 46.34 302.598 47.46C302.598 47.64 302.592 47.8233 302.578 48.01C302.572 48.1967 302.562 48.3633 302.548 48.51H295.598ZM297.868 43.97C297.228 43.97 296.702 44.2 296.288 44.66C295.882 45.1133 295.642 45.8333 295.568 46.82H300.028C300.015 45.9267 299.828 45.23 299.468 44.73C299.115 44.2233 298.582 43.97 297.868 43.97ZM311.111 42.41V51.13H313.901V53H305.371V51.13H308.471V44.28H305.471V42.41H311.111ZM309.401 37.07C309.887 37.07 310.281 37.22 310.581 37.52C310.887 37.82 311.041 38.1933 311.041 38.64C311.041 39.0867 310.887 39.4633 310.581 39.77C310.281 40.07 309.887 40.22 309.401 40.22C308.914 40.22 308.517 40.07 308.211 39.77C307.904 39.4633 307.751 39.0867 307.751 38.64C307.751 38.1933 307.904 37.82 308.211 37.52C308.517 37.22 308.914 37.07 309.401 37.07ZM316.793 53V51.17H318.283V44.23H316.793V42.41H320.293L320.783 44.84C321.169 43.94 321.656 43.2633 322.243 42.81C322.829 42.35 323.566 42.12 324.453 42.12C324.793 42.12 325.093 42.1467 325.353 42.2C325.619 42.2533 325.873 42.3233 326.113 42.41L325.323 44.63C325.116 44.5767 324.919 44.5367 324.733 44.51C324.546 44.4767 324.336 44.46 324.103 44.46C323.369 44.46 322.729 44.7467 322.183 45.32C321.643 45.8867 321.223 46.6567 320.923 47.63V51.17H323.033V53H316.793ZM323.883 46.54V43.73L324.243 42.41H326.113L325.643 46.54H323.883ZM336.815 50.21C336.815 50.6167 336.875 50.9133 336.995 51.1C337.115 51.28 337.308 51.4167 337.575 51.51L337.005 53.28C336.438 53.22 335.955 53.08 335.555 52.86C335.162 52.6333 334.858 52.2967 334.645 51.85C334.245 52.3367 333.738 52.7 333.125 52.94C332.518 53.18 331.882 53.3 331.215 53.3C330.135 53.3 329.278 52.9933 328.645 52.38C328.012 51.7667 327.695 50.97 327.695 49.99C327.695 48.8633 328.135 47.9967 329.015 47.39C329.902 46.7767 331.155 46.47 332.775 46.47H334.255V45.9C334.255 45.2733 334.062 44.82 333.675 44.54C333.288 44.2533 332.732 44.11 332.005 44.11C331.665 44.11 331.238 44.1567 330.725 44.25C330.218 44.3367 329.695 44.4733 329.155 44.66L328.525 42.85C329.198 42.5967 329.875 42.41 330.555 42.29C331.242 42.17 331.865 42.11 332.425 42.11C333.912 42.11 335.015 42.4267 335.735 43.06C336.455 43.6867 336.815 44.5767 336.815 45.73V50.21ZM332.075 51.39C332.475 51.39 332.878 51.2767 333.285 51.05C333.698 50.8233 334.022 50.5067 334.255 50.1V48.04H333.215C332.235 48.04 331.525 48.1967 331.085 48.51C330.652 48.8233 330.435 49.2667 330.435 49.84C330.435 50.3333 330.575 50.7167 330.855 50.99C331.135 51.2567 331.542 51.39 332.075 51.39ZM361.299 42.41L357.659 53H354.559L350.899 42.41H353.739L356.149 50.89L358.609 42.41H361.299ZM365.632 48.51C365.685 49.17 365.835 49.7067 366.082 50.12C366.335 50.5333 366.658 50.8367 367.052 51.03C367.445 51.2233 367.882 51.32 368.362 51.32C368.868 51.32 369.345 51.24 369.792 51.08C370.238 50.92 370.678 50.6967 371.112 50.41L372.212 51.92C371.718 52.3333 371.128 52.6667 370.442 52.92C369.762 53.1733 369.012 53.3 368.192 53.3C367.045 53.3 366.078 53.0633 365.292 52.59C364.512 52.1167 363.922 51.46 363.522 50.62C363.122 49.78 362.922 48.8133 362.922 47.72C362.922 46.6667 363.118 45.7167 363.512 44.87C363.905 44.0233 364.472 43.3533 365.212 42.86C365.952 42.36 366.845 42.11 367.892 42.11C368.865 42.11 369.705 42.3233 370.412 42.75C371.118 43.1767 371.665 43.79 372.052 44.59C372.438 45.3833 372.632 46.34 372.632 47.46C372.632 47.64 372.625 47.8233 372.612 48.01C372.605 48.1967 372.595 48.3633 372.582 48.51H365.632ZM367.902 43.97C367.262 43.97 366.735 44.2 366.322 44.66C365.915 45.1133 365.675 45.8333 365.602 46.82H370.062C370.048 45.9267 369.862 45.23 369.502 44.73C369.148 44.2233 368.615 43.97 367.902 43.97ZM378.244 50.95H383.754L383.484 53H375.094V51.11L380.564 44.47H375.544V42.41H383.664V44.31L378.244 50.95ZM402.018 42.11C402.578 42.11 403.088 42.2167 403.548 42.43C404.008 42.6433 404.405 42.9567 404.738 43.37L404.878 42.41H407.178V57.36L404.538 57.08V51.96C404.205 52.3867 403.805 52.7167 403.338 52.95C402.871 53.1833 402.335 53.3 401.728 53.3C400.808 53.3 400.061 53.07 399.488 52.61C398.921 52.1433 398.505 51.49 398.238 50.65C397.978 49.81 397.848 48.8233 397.848 47.69C397.848 46.61 398.008 45.65 398.328 44.81C398.648 43.97 399.118 43.31 399.738 42.83C400.365 42.35 401.125 42.11 402.018 42.11ZM402.698 44.08C402.018 44.08 401.498 44.37 401.138 44.95C400.778 45.5233 400.598 46.44 400.598 47.7C400.598 48.5867 400.671 49.2933 400.818 49.82C400.971 50.3467 401.188 50.7233 401.468 50.95C401.755 51.1767 402.098 51.29 402.498 51.29C402.945 51.29 403.335 51.1633 403.668 50.91C404.001 50.6567 404.291 50.3333 404.538 49.94V45.12C404.305 44.7933 404.035 44.54 403.728 44.36C403.428 44.1733 403.085 44.08 402.698 44.08ZM412.71 42.41V49.75C412.71 50.3233 412.824 50.7267 413.05 50.96C413.277 51.1933 413.607 51.31 414.04 51.31C414.454 51.31 414.857 51.1867 415.25 50.94C415.644 50.6867 415.964 50.3667 416.21 49.98V42.41H418.85V53H416.55L416.41 51.7C416.03 52.22 415.544 52.6167 414.95 52.89C414.357 53.1633 413.744 53.3 413.11 53.3C412.09 53.3 411.327 53.0133 410.82 52.44C410.32 51.86 410.07 51.07 410.07 50.07V42.41H412.71ZM423.993 48.51C424.046 49.17 424.196 49.7067 424.443 50.12C424.696 50.5333 425.019 50.8367 425.413 51.03C425.806 51.2233 426.243 51.32 426.723 51.32C427.229 51.32 427.706 51.24 428.153 51.08C428.599 50.92 429.039 50.6967 429.473 50.41L430.573 51.92C430.079 52.3333 429.489 52.6667 428.803 52.92C428.123 53.1733 427.373 53.3 426.553 53.3C425.406 53.3 424.439 53.0633 423.653 52.59C422.873 52.1167 422.283 51.46 421.883 50.62C421.483 49.78 421.283 48.8133 421.283 47.72C421.283 46.6667 421.479 45.7167 421.873 44.87C422.266 44.0233 422.833 43.3533 423.573 42.86C424.313 42.36 425.206 42.11 426.253 42.11C427.226 42.11 428.066 42.3233 428.773 42.75C429.479 43.1767 430.026 43.79 430.413 44.59C430.799 45.3833 430.993 46.34 430.993 47.46C430.993 47.64 430.986 47.8233 430.973 48.01C430.966 48.1967 430.956 48.3633 430.943 48.51H423.993ZM426.263 43.97C425.623 43.97 425.096 44.2 424.683 44.66C424.276 45.1133 424.036 45.8333 423.963 46.82H428.423C428.409 45.9267 428.223 45.23 427.863 44.73C427.509 44.2233 426.976 43.97 426.263 43.97ZM447.337 48.51C447.39 49.17 447.54 49.7067 447.787 50.12C448.04 50.5333 448.364 50.8367 448.757 51.03C449.15 51.2233 449.587 51.32 450.067 51.32C450.574 51.32 451.05 51.24 451.497 51.08C451.944 50.92 452.384 50.6967 452.817 50.41L453.917 51.92C453.424 52.3333 452.834 52.6667 452.147 52.92C451.467 53.1733 450.717 53.3 449.897 53.3C448.75 53.3 447.784 53.0633 446.997 52.59C446.217 52.1167 445.627 51.46 445.227 50.62C444.827 49.78 444.627 48.8133 444.627 47.72C444.627 46.6667 444.824 45.7167 445.217 44.87C445.61 44.0233 446.177 43.3533 446.917 42.86C447.657 42.36 448.55 42.11 449.597 42.11C450.57 42.11 451.41 42.3233 452.117 42.75C452.824 43.1767 453.37 43.79 453.757 44.59C454.144 45.3833 454.337 46.34 454.337 47.46C454.337 47.64 454.33 47.8233 454.317 48.01C454.31 48.1967 454.3 48.3633 454.287 48.51H447.337ZM449.607 43.97C448.967 43.97 448.44 44.2 448.027 44.66C447.62 45.1133 447.38 45.8333 447.307 46.82H451.767C451.754 45.9267 451.567 45.23 451.207 44.73C450.854 44.2233 450.32 43.97 449.607 43.97ZM460.789 51.35C461.409 51.35 461.906 51.2433 462.279 51.03C462.659 50.81 462.849 50.5033 462.849 50.11C462.849 49.85 462.786 49.63 462.659 49.45C462.539 49.27 462.299 49.1033 461.939 48.95C461.579 48.79 461.039 48.6133 460.319 48.42C459.639 48.2467 459.042 48.0333 458.529 47.78C458.022 47.52 457.626 47.1867 457.339 46.78C457.059 46.3733 456.919 45.86 456.919 45.24C456.919 44.62 457.092 44.0767 457.439 43.61C457.786 43.1367 458.286 42.77 458.939 42.51C459.599 42.2433 460.392 42.11 461.319 42.11C462.226 42.11 463.019 42.23 463.699 42.47C464.379 42.7033 464.962 42.9967 465.449 43.35L464.369 44.96C463.942 44.6867 463.479 44.4667 462.979 44.3C462.486 44.1267 461.952 44.04 461.379 44.04C460.759 44.04 460.306 44.13 460.019 44.31C459.739 44.49 459.599 44.74 459.599 45.06C459.599 45.2867 459.669 45.48 459.809 45.64C459.956 45.7933 460.216 45.9433 460.589 46.09C460.969 46.23 461.509 46.4 462.209 46.6C462.896 46.7867 463.492 47.0067 463.999 47.26C464.512 47.5133 464.909 47.85 465.189 48.27C465.469 48.69 465.609 49.24 465.609 49.92C465.609 50.6867 465.386 51.32 464.939 51.82C464.492 52.32 463.902 52.6933 463.169 52.94C462.442 53.18 461.652 53.3 460.799 53.3C459.799 53.3 458.926 53.1567 458.179 52.87C457.432 52.5833 456.799 52.2133 456.279 51.76L457.649 50.22C458.062 50.5467 458.532 50.8167 459.059 51.03C459.592 51.2433 460.169 51.35 460.789 51.35ZM472.461 51.35C473.081 51.35 473.578 51.2433 473.951 51.03C474.331 50.81 474.521 50.5033 474.521 50.11C474.521 49.85 474.458 49.63 474.331 49.45C474.211 49.27 473.971 49.1033 473.611 48.95C473.251 48.79 472.711 48.6133 471.991 48.42C471.311 48.2467 470.715 48.0333 470.201 47.78C469.695 47.52 469.298 47.1867 469.011 46.78C468.731 46.3733 468.591 45.86 468.591 45.24C468.591 44.62 468.765 44.0767 469.111 43.61C469.458 43.1367 469.958 42.77 470.611 42.51C471.271 42.2433 472.065 42.11 472.991 42.11C473.898 42.11 474.691 42.23 475.371 42.47C476.051 42.7033 476.635 42.9967 477.121 43.35L476.041 44.96C475.615 44.6867 475.151 44.4667 474.651 44.3C474.158 44.1267 473.625 44.04 473.051 44.04C472.431 44.04 471.978 44.13 471.691 44.31C471.411 44.49 471.271 44.74 471.271 45.06C471.271 45.2867 471.341 45.48 471.481 45.64C471.628 45.7933 471.888 45.9433 472.261 46.09C472.641 46.23 473.181 46.4 473.881 46.6C474.568 46.7867 475.165 47.0067 475.671 47.26C476.185 47.5133 476.581 47.85 476.861 48.27C477.141 48.69 477.281 49.24 477.281 49.92C477.281 50.6867 477.058 51.32 476.611 51.82C476.165 52.32 475.575 52.6933 474.841 52.94C474.115 53.18 473.325 53.3 472.471 53.3C471.471 53.3 470.598 53.1567 469.851 52.87C469.105 52.5833 468.471 52.2133 467.951 51.76L469.321 50.22C469.735 50.5467 470.205 50.8167 470.731 51.03C471.265 51.2433 471.841 51.35 472.461 51.35ZM482.353 48.51C482.407 49.17 482.557 49.7067 482.803 50.12C483.057 50.5333 483.38 50.8367 483.773 51.03C484.167 51.2233 484.603 51.32 485.083 51.32C485.59 51.32 486.067 51.24 486.513 51.08C486.96 50.92 487.4 50.6967 487.833 50.41L488.933 51.92C488.44 52.3333 487.85 52.6667 487.163 52.92C486.483 53.1733 485.733 53.3 484.913 53.3C483.767 53.3 482.8 53.0633 482.013 52.59C481.233 52.1167 480.643 51.46 480.243 50.62C479.843 49.78 479.643 48.8133 479.643 47.72C479.643 46.6667 479.84 45.7167 480.233 44.87C480.627 44.0233 481.193 43.3533 481.933 42.86C482.673 42.36 483.567 42.11 484.613 42.11C485.587 42.11 486.427 42.3233 487.133 42.75C487.84 43.1767 488.387 43.79 488.773 44.59C489.16 45.3833 489.353 46.34 489.353 47.46C489.353 47.64 489.347 47.8233 489.333 48.01C489.327 48.1967 489.317 48.3633 489.303 48.51H482.353ZM484.623 43.97C483.983 43.97 483.457 44.2 483.043 44.66C482.637 45.1133 482.397 45.8333 482.323 46.82H486.783C486.77 45.9267 486.583 45.23 486.223 44.73C485.87 44.2233 485.337 43.97 484.623 43.97ZM512.588 52.41C512.194 52.67 511.718 52.8833 511.158 53.05C510.598 53.2167 509.991 53.3 509.338 53.3C508.044 53.3 507.071 52.9667 506.418 52.3C505.764 51.6267 505.438 50.7333 505.438 49.62V44.28H503.138V42.41H505.438V40.08L508.078 39.76V42.41H511.578L511.308 44.28H508.078V49.61C508.078 50.1567 508.211 50.5567 508.478 50.81C508.744 51.0633 509.174 51.19 509.768 51.19C510.148 51.19 510.494 51.1467 510.808 51.06C511.128 50.9667 511.418 50.85 511.678 50.71L512.588 52.41ZM521.21 42.41V51.13H524V53H515.47V51.13H518.57V44.28H515.57V42.41H521.21ZM519.5 37.07C519.987 37.07 520.38 37.22 520.68 37.52C520.987 37.82 521.14 38.1933 521.14 38.64C521.14 39.0867 520.987 39.4633 520.68 39.77C520.38 40.07 519.987 40.22 519.5 40.22C519.013 40.22 518.617 40.07 518.31 39.77C518.003 39.4633 517.85 39.0867 517.85 38.64C517.85 38.1933 518.003 37.82 518.31 37.52C518.617 37.22 519.013 37.07 519.5 37.07ZM532.262 42.11C533.196 42.11 533.942 42.34 534.502 42.8C535.069 43.2533 535.479 43.8967 535.732 44.73C535.992 45.5633 536.122 46.5467 536.122 47.68C536.122 48.7667 535.966 49.7333 535.652 50.58C535.339 51.4267 534.879 52.0933 534.272 52.58C533.672 53.06 532.932 53.3 532.052 53.3C530.972 53.3 530.099 52.9167 529.432 52.15V57.08L526.792 57.36V42.41H529.112L529.252 43.7C529.672 43.1533 530.142 42.7533 530.662 42.5C531.182 42.24 531.716 42.11 532.262 42.11ZM531.492 44.09C531.046 44.09 530.652 44.2233 530.312 44.49C529.979 44.7567 529.686 45.0867 529.432 45.48V50.22C529.672 50.58 529.946 50.85 530.252 51.03C530.559 51.21 530.906 51.3 531.292 51.3C531.966 51.3 532.479 51.02 532.832 50.46C533.192 49.8933 533.372 48.9767 533.372 47.71C533.372 46.8167 533.299 46.1067 533.152 45.58C533.012 45.0467 532.802 44.6667 532.522 44.44C532.242 44.2067 531.899 44.09 531.492 44.09ZM542.864 42.11C543.918 42.11 544.811 42.34 545.544 42.8C546.278 43.26 546.834 43.91 547.214 44.75C547.601 45.5833 547.794 46.56 547.794 47.68C547.794 48.8267 547.601 49.82 547.214 50.66C546.828 51.5 546.268 52.15 545.534 52.61C544.801 53.07 543.908 53.3 542.854 53.3C541.808 53.3 540.914 53.0767 540.174 52.63C539.441 52.1767 538.881 51.5333 538.494 50.7C538.108 49.86 537.914 48.86 537.914 47.7C537.914 46.5933 538.108 45.62 538.494 44.78C538.881 43.94 539.444 43.2867 540.184 42.82C540.924 42.3467 541.818 42.11 542.864 42.11ZM542.864 44.1C542.124 44.1 541.571 44.39 541.204 44.97C540.844 45.55 540.664 46.46 540.664 47.7C540.664 48.9533 540.844 49.87 541.204 50.45C541.564 51.0233 542.114 51.31 542.854 51.31C543.594 51.31 544.144 51.0233 544.504 50.45C544.864 49.87 545.044 48.9467 545.044 47.68C545.044 46.4467 544.864 45.5433 544.504 44.97C544.144 44.39 543.598 44.1 542.864 44.1ZM567.949 37.9L570.589 38.18V53H568.249L568.089 51.75C567.762 52.2167 567.352 52.5933 566.859 52.88C566.365 53.16 565.792 53.3 565.139 53.3C564.245 53.3 563.505 53.0667 562.919 52.6C562.339 52.1333 561.905 51.48 561.619 50.64C561.339 49.7933 561.199 48.81 561.199 47.69C561.199 46.61 561.365 45.65 561.699 44.81C562.032 43.97 562.512 43.31 563.139 42.83C563.772 42.35 564.522 42.11 565.389 42.11C565.909 42.11 566.382 42.2 566.809 42.38C567.235 42.56 567.615 42.8267 567.949 43.18V37.9ZM566.099 44.08C565.432 44.08 564.905 44.37 564.519 44.95C564.139 45.5233 563.949 46.44 563.949 47.7C563.949 48.5867 564.029 49.2967 564.189 49.83C564.349 50.3567 564.575 50.7367 564.869 50.97C565.162 51.2033 565.509 51.32 565.909 51.32C566.349 51.32 566.735 51.19 567.069 50.93C567.409 50.6633 567.702 50.3333 567.949 49.94V45.12C567.702 44.7933 567.425 44.54 567.119 44.36C566.819 44.1733 566.479 44.08 566.099 44.08ZM575.731 48.51C575.784 49.17 575.934 49.7067 576.181 50.12C576.434 50.5333 576.758 50.8367 577.151 51.03C577.544 51.2233 577.981 51.32 578.461 51.32C578.968 51.32 579.444 51.24 579.891 51.08C580.338 50.92 580.778 50.6967 581.211 50.41L582.311 51.92C581.818 52.3333 581.228 52.6667 580.541 52.92C579.861 53.1733 579.111 53.3 578.291 53.3C577.144 53.3 576.178 53.0633 575.391 52.59C574.611 52.1167 574.021 51.46 573.621 50.62C573.221 49.78 573.021 48.8133 573.021 47.72C573.021 46.6667 573.218 45.7167 573.611 44.87C574.004 44.0233 574.571 43.3533 575.311 42.86C576.051 42.36 576.944 42.11 577.991 42.11C578.964 42.11 579.804 42.3233 580.511 42.75C581.218 43.1767 581.764 43.79 582.151 44.59C582.538 45.3833 582.731 46.34 582.731 47.46C582.731 47.64 582.724 47.8233 582.711 48.01C582.704 48.1967 582.694 48.3633 582.681 48.51H575.731ZM578.001 43.97C577.361 43.97 576.834 44.2 576.421 44.66C576.014 45.1133 575.774 45.8333 575.701 46.82H580.161C580.148 45.9267 579.961 45.23 579.601 44.73C579.248 44.2233 578.714 43.97 578.001 43.97ZM601.225 42.11C602.279 42.11 603.172 42.34 603.905 42.8C604.639 43.26 605.195 43.91 605.575 44.75C605.962 45.5833 606.155 46.56 606.155 47.68C606.155 48.8267 605.962 49.82 605.575 50.66C605.189 51.5 604.629 52.15 603.895 52.61C603.162 53.07 602.269 53.3 601.215 53.3C600.169 53.3 599.275 53.0767 598.535 52.63C597.802 52.1767 597.242 51.5333 596.855 50.7C596.469 49.86 596.275 48.86 596.275 47.7C596.275 46.5933 596.469 45.62 596.855 44.78C597.242 43.94 597.805 43.2867 598.545 42.82C599.285 42.3467 600.179 42.11 601.225 42.11ZM601.225 44.1C600.485 44.1 599.932 44.39 599.565 44.97C599.205 45.55 599.025 46.46 599.025 47.7C599.025 48.9533 599.205 49.87 599.565 50.45C599.925 51.0233 600.475 51.31 601.215 51.31C601.955 51.31 602.505 51.0233 602.865 50.45C603.225 49.87 603.405 48.9467 603.405 47.68C603.405 46.4467 603.225 45.5433 602.865 44.97C602.505 44.39 601.959 44.1 601.225 44.1ZM613.828 51.18C614.294 51.18 614.731 51.0933 615.138 50.92C615.551 50.7467 615.948 50.5267 616.328 50.26L617.528 51.95C617.061 52.3433 616.498 52.6667 615.838 52.92C615.178 53.1733 614.471 53.3 613.718 53.3C612.611 53.3 611.661 53.07 610.868 52.61C610.081 52.1433 609.474 51.4967 609.048 50.67C608.628 49.8367 608.418 48.87 608.418 47.77C608.418 46.6833 608.631 45.7133 609.058 44.86C609.491 44 610.104 43.3267 610.898 42.84C611.698 42.3533 612.651 42.11 613.758 42.11C614.518 42.11 615.204 42.22 615.818 42.44C616.438 42.6533 617.004 42.9733 617.518 43.4L616.348 45.02C615.954 44.7467 615.548 44.54 615.128 44.4C614.714 44.2533 614.284 44.18 613.838 44.18C613.058 44.18 612.421 44.4633 611.928 45.03C611.441 45.59 611.198 46.5033 611.198 47.77C611.198 48.6033 611.311 49.27 611.538 49.77C611.771 50.27 612.084 50.63 612.478 50.85C612.878 51.07 613.328 51.18 613.828 51.18ZM624.57 42.11C625.623 42.11 626.516 42.34 627.25 42.8C627.983 43.26 628.54 43.91 628.92 44.75C629.306 45.5833 629.5 46.56 629.5 47.68C629.5 48.8267 629.306 49.82 628.92 50.66C628.533 51.5 627.973 52.15 627.24 52.61C626.506 53.07 625.613 53.3 624.56 53.3C623.513 53.3 622.62 53.0767 621.88 52.63C621.146 52.1767 620.586 51.5333 620.2 50.7C619.813 49.86 619.62 48.86 619.62 47.7C619.62 46.5933 619.813 45.62 620.2 44.78C620.586 43.94 621.15 43.2867 621.89 42.82C622.63 42.3467 623.523 42.11 624.57 42.11ZM624.57 44.1C623.83 44.1 623.276 44.39 622.91 44.97C622.55 45.55 622.37 46.46 622.37 47.7C622.37 48.9533 622.55 49.87 622.91 50.45C623.27 51.0233 623.82 51.31 624.56 51.31C625.3 51.31 625.85 51.0233 626.21 50.45C626.57 49.87 626.75 48.9467 626.75 47.68C626.75 46.4467 626.57 45.5433 626.21 44.97C625.85 44.39 625.303 44.1 624.57 44.1ZM631.942 53V51.17H633.432V44.23H631.942V42.41H635.442L635.932 44.84C636.319 43.94 636.805 43.2633 637.392 42.81C637.979 42.35 638.715 42.12 639.602 42.12C639.942 42.12 640.242 42.1467 640.502 42.2C640.769 42.2533 641.022 42.3233 641.262 42.41L640.472 44.63C640.265 44.5767 640.069 44.5367 639.882 44.51C639.695 44.4767 639.485 44.46 639.252 44.46C638.519 44.46 637.879 44.7467 637.332 45.32C636.792 45.8867 636.372 46.6567 636.072 47.63V51.17H638.182V53H631.942ZM639.032 46.54V43.73L639.392 42.41H641.262L640.792 46.54H639.032ZM643.614 53V51.17H645.104V44.23H643.614V42.41H647.114L647.604 44.84C647.991 43.94 648.477 43.2633 649.064 42.81C649.651 42.35 650.387 42.12 651.274 42.12C651.614 42.12 651.914 42.1467 652.174 42.2C652.441 42.2533 652.694 42.3233 652.934 42.41L652.144 44.63C651.937 44.5767 651.741 44.5367 651.554 44.51C651.367 44.4767 651.157 44.46 650.924 44.46C650.191 44.46 649.551 44.7467 649.004 45.32C648.464 45.8867 648.044 46.6567 647.744 47.63V51.17H649.854V53H643.614ZM650.704 46.54V43.73L651.064 42.41H652.934L652.464 46.54H650.704ZM657.436 48.51C657.49 49.17 657.64 49.7067 657.886 50.12C658.14 50.5333 658.463 50.8367 658.856 51.03C659.25 51.2233 659.686 51.32 660.166 51.32C660.673 51.32 661.15 51.24 661.596 51.08C662.043 50.92 662.483 50.6967 662.916 50.41L664.016 51.92C663.523 52.3333 662.933 52.6667 662.246 52.92C661.566 53.1733 660.816 53.3 659.996 53.3C658.85 53.3 657.883 53.0633 657.096 52.59C656.316 52.1167 655.726 51.46 655.326 50.62C654.926 49.78 654.726 48.8133 654.726 47.72C654.726 46.6667 654.923 45.7167 655.316 44.87C655.71 44.0233 656.276 43.3533 657.016 42.86C657.756 42.36 658.65 42.11 659.696 42.11C660.67 42.11 661.51 42.3233 662.216 42.75C662.923 43.1767 663.47 43.79 663.856 44.59C664.243 45.3833 664.436 46.34 664.436 47.46C664.436 47.64 664.43 47.8233 664.416 48.01C664.41 48.1967 664.4 48.3633 664.386 48.51H657.436ZM659.706 43.97C659.066 43.97 658.54 44.2 658.126 44.66C657.72 45.1133 657.48 45.8333 657.406 46.82H661.866C661.853 45.9267 661.666 45.23 661.306 44.73C660.953 44.2233 660.42 43.97 659.706 43.97ZM657.156 40.65L656.116 39.52L658.916 36.87H660.566L663.346 39.52L662.346 40.65L659.746 38.79L657.156 40.65ZM666.858 53V42.41H669.158L669.348 43.72C669.802 43.1867 670.312 42.7867 670.878 42.52C671.445 42.2467 672.055 42.11 672.708 42.11C673.662 42.11 674.388 42.3867 674.888 42.94C675.388 43.4867 675.638 44.2567 675.638 45.25V53H672.998V46.28C672.998 45.7467 672.965 45.32 672.898 45C672.832 44.6733 672.705 44.44 672.518 44.3C672.332 44.1533 672.062 44.08 671.708 44.08C671.422 44.08 671.145 44.1433 670.878 44.27C670.618 44.3967 670.372 44.5667 670.138 44.78C669.912 44.9933 669.698 45.23 669.498 45.49V53H666.858ZM683.861 51.18C684.327 51.18 684.764 51.0933 685.171 50.92C685.584 50.7467 685.981 50.5267 686.361 50.26L687.561 51.95C687.094 52.3433 686.531 52.6667 685.871 52.92C685.211 53.1733 684.504 53.3 683.751 53.3C682.644 53.3 681.694 53.07 680.901 52.61C680.114 52.1433 679.507 51.4967 679.081 50.67C678.661 49.8367 678.451 48.87 678.451 47.77C678.451 46.6833 678.664 45.7133 679.091 44.86C679.524 44 680.137 43.3267 680.931 42.84C681.731 42.3533 682.684 42.11 683.791 42.11C684.551 42.11 685.237 42.22 685.851 42.44C686.471 42.6533 687.037 42.9733 687.551 43.4L686.381 45.02C685.987 44.7467 685.581 44.54 685.161 44.4C684.747 44.2533 684.317 44.18 683.871 44.18C683.091 44.18 682.454 44.4633 681.961 45.03C681.474 45.59 681.231 46.5033 681.231 47.77C681.231 48.6033 681.344 49.27 681.571 49.77C681.804 50.27 682.117 50.63 682.511 50.85C682.911 51.07 683.361 51.18 683.861 51.18ZM696.293 42.41V51.13H699.083V53H690.553V51.13H693.653V44.28H690.653V42.41H696.293ZM694.583 37.07C695.07 37.07 695.463 37.22 695.763 37.52C696.07 37.82 696.223 38.1933 696.223 38.64C696.223 39.0867 696.07 39.4633 695.763 39.77C695.463 40.07 695.07 40.22 694.583 40.22C694.096 40.22 693.7 40.07 693.393 39.77C693.086 39.4633 692.933 39.0867 692.933 38.64C692.933 38.1933 693.086 37.82 693.393 37.52C693.7 37.22 694.096 37.07 694.583 37.07ZM710.325 50.21C710.325 50.6167 710.385 50.9133 710.505 51.1C710.625 51.28 710.818 51.4167 711.085 51.51L710.515 53.28C709.948 53.22 709.465 53.08 709.065 52.86C708.672 52.6333 708.368 52.2967 708.155 51.85C707.755 52.3367 707.248 52.7 706.635 52.94C706.028 53.18 705.392 53.3 704.725 53.3C703.645 53.3 702.788 52.9933 702.155 52.38C701.522 51.7667 701.205 50.97 701.205 49.99C701.205 48.8633 701.645 47.9967 702.525 47.39C703.412 46.7767 704.665 46.47 706.285 46.47H707.765V45.9C707.765 45.2733 707.572 44.82 707.185 44.54C706.798 44.2533 706.242 44.11 705.515 44.11C705.175 44.11 704.748 44.1567 704.235 44.25C703.728 44.3367 703.205 44.4733 702.665 44.66L702.035 42.85C702.708 42.5967 703.385 42.41 704.065 42.29C704.752 42.17 705.375 42.11 705.935 42.11C707.422 42.11 708.525 42.4267 709.245 43.06C709.965 43.6867 710.325 44.5767 710.325 45.73V50.21ZM705.585 51.39C705.985 51.39 706.388 51.2767 706.795 51.05C707.208 50.8233 707.532 50.5067 707.765 50.1V48.04H706.725C705.745 48.04 705.035 48.1967 704.595 48.51C704.162 48.8233 703.945 49.2667 703.945 49.84C703.945 50.3333 704.085 50.7167 704.365 50.99C704.645 51.2567 705.052 51.39 705.585 51.39ZM150.06 90.21C150.06 90.6167 150.12 90.9133 150.24 91.1C150.36 91.28 150.553 91.4167 150.82 91.51L150.25 93.28C149.683 93.22 149.2 93.08 148.8 92.86C148.407 92.6333 148.103 92.2967 147.89 91.85C147.49 92.3367 146.983 92.7 146.37 92.94C145.763 93.18 145.127 93.3 144.46 93.3C143.38 93.3 142.523 92.9933 141.89 92.38C141.257 91.7667 140.94 90.97 140.94 89.99C140.94 88.8633 141.38 87.9967 142.26 87.39C143.147 86.7767 144.4 86.47 146.02 86.47H147.5V85.9C147.5 85.2733 147.307 84.82 146.92 84.54C146.533 84.2533 145.977 84.11 145.25 84.11C144.91 84.11 144.483 84.1567 143.97 84.25C143.463 84.3367 142.94 84.4733 142.4 84.66L141.77 82.85C142.443 82.5967 143.12 82.41 143.8 82.29C144.487 82.17 145.11 82.11 145.67 82.11C147.157 82.11 148.26 82.4267 148.98 83.06C149.7 83.6867 150.06 84.5767 150.06 85.73V90.21ZM145.32 91.39C145.72 91.39 146.123 91.2767 146.53 91.05C146.943 90.8233 147.267 90.5067 147.5 90.1V88.04H146.46C145.48 88.04 144.77 88.1967 144.33 88.51C143.897 88.8233 143.68 89.2667 143.68 89.84C143.68 90.3333 143.82 90.7167 144.1 90.99C144.38 91.2567 144.787 91.39 145.32 91.39ZM158.752 82.11C159.686 82.11 160.432 82.34 160.992 82.8C161.559 83.2533 161.969 83.8967 162.222 84.73C162.482 85.5633 162.612 86.5467 162.612 87.68C162.612 88.7667 162.456 89.7333 162.142 90.58C161.829 91.4267 161.369 92.0933 160.762 92.58C160.162 93.06 159.422 93.3 158.542 93.3C157.462 93.3 156.589 92.9167 155.922 92.15V97.08L153.282 97.36V82.41H155.602L155.742 83.7C156.162 83.1533 156.632 82.7533 157.152 82.5C157.672 82.24 158.206 82.11 158.752 82.11ZM157.982 84.09C157.536 84.09 157.142 84.2233 156.802 84.49C156.469 84.7567 156.176 85.0867 155.922 85.48V90.22C156.162 90.58 156.436 90.85 156.742 91.03C157.049 91.21 157.396 91.3 157.782 91.3C158.456 91.3 158.969 91.02 159.322 90.46C159.682 89.8933 159.862 88.9767 159.862 87.71C159.862 86.8167 159.789 86.1067 159.642 85.58C159.502 85.0467 159.292 84.6667 159.012 84.44C158.732 84.2067 158.389 84.09 157.982 84.09ZM173.404 90.21C173.404 90.6167 173.464 90.9133 173.584 91.1C173.704 91.28 173.898 91.4167 174.164 91.51L173.594 93.28C173.028 93.22 172.544 93.08 172.144 92.86C171.751 92.6333 171.448 92.2967 171.234 91.85C170.834 92.3367 170.328 92.7 169.714 92.94C169.108 93.18 168.471 93.3 167.804 93.3C166.724 93.3 165.868 92.9933 165.234 92.38C164.601 91.7667 164.284 90.97 164.284 89.99C164.284 88.8633 164.724 87.9967 165.604 87.39C166.491 86.7767 167.744 86.47 169.364 86.47H170.844V85.9C170.844 85.2733 170.651 84.82 170.264 84.54C169.878 84.2533 169.321 84.11 168.594 84.11C168.254 84.11 167.828 84.1567 167.314 84.25C166.808 84.3367 166.284 84.4733 165.744 84.66L165.114 82.85C165.788 82.5967 166.464 82.41 167.144 82.29C167.831 82.17 168.454 82.11 169.014 82.11C170.501 82.11 171.604 82.4267 172.324 83.06C173.044 83.6867 173.404 84.5767 173.404 85.73V90.21ZM168.664 91.39C169.064 91.39 169.468 91.2767 169.874 91.05C170.288 90.8233 170.611 90.5067 170.844 90.1V88.04H169.804C168.824 88.04 168.114 88.1967 167.674 88.51C167.241 88.8233 167.024 89.2667 167.024 89.84C167.024 90.3333 167.164 90.7167 167.444 90.99C167.724 91.2567 168.131 91.39 168.664 91.39ZM176.727 93V91.17H178.217V84.23H176.727V82.41H180.227L180.717 84.84C181.103 83.94 181.59 83.2633 182.177 82.81C182.763 82.35 183.5 82.12 184.387 82.12C184.727 82.12 185.027 82.1467 185.287 82.2C185.553 82.2533 185.807 82.3233 186.047 82.41L185.257 84.63C185.05 84.5767 184.853 84.5367 184.667 84.51C184.48 84.4767 184.27 84.46 184.037 84.46C183.303 84.46 182.663 84.7467 182.117 85.32C181.577 85.8867 181.157 86.6567 180.857 87.63V91.17H182.967V93H176.727ZM183.817 86.54V83.73L184.177 82.41H186.047L185.577 86.54H183.817ZM190.549 88.51C190.602 89.17 190.752 89.7067 190.999 90.12C191.252 90.5333 191.575 90.8367 191.969 91.03C192.362 91.2233 192.799 91.32 193.279 91.32C193.785 91.32 194.262 91.24 194.709 91.08C195.155 90.92 195.595 90.6967 196.029 90.41L197.129 91.92C196.635 92.3333 196.045 92.6667 195.359 92.92C194.679 93.1733 193.929 93.3 193.109 93.3C191.962 93.3 190.995 93.0633 190.209 92.59C189.429 92.1167 188.839 91.46 188.439 90.62C188.039 89.78 187.839 88.8133 187.839 87.72C187.839 86.6667 188.035 85.7167 188.429 84.87C188.822 84.0233 189.389 83.3533 190.129 82.86C190.869 82.36 191.762 82.11 192.809 82.11C193.782 82.11 194.622 82.3233 195.329 82.75C196.035 83.1767 196.582 83.79 196.969 84.59C197.355 85.3833 197.549 86.34 197.549 87.46C197.549 87.64 197.542 87.8233 197.529 88.01C197.522 88.1967 197.512 88.3633 197.499 88.51H190.549ZM192.819 83.97C192.179 83.97 191.652 84.2 191.239 84.66C190.832 85.1133 190.592 85.8333 190.519 86.82H194.979C194.965 85.9267 194.779 85.23 194.419 84.73C194.065 84.2233 193.532 83.97 192.819 83.97ZM205.301 91.18C205.768 91.18 206.204 91.0933 206.611 90.92C207.024 90.7467 207.421 90.5267 207.801 90.26L209.001 91.95C208.534 92.3433 207.971 92.6667 207.311 92.92C206.651 93.1733 205.944 93.3 205.191 93.3C204.084 93.3 203.134 93.07 202.341 92.61C201.554 92.1433 200.948 91.4967 200.521 90.67C200.101 89.8367 199.891 88.87 199.891 87.77C199.891 86.6833 200.104 85.7133 200.531 84.86C200.964 84 201.578 83.3267 202.371 82.84C203.171 82.3533 204.124 82.11 205.231 82.11C205.991 82.11 206.678 82.22 207.291 82.44C207.911 82.6533 208.478 82.9733 208.991 83.4L207.821 85.02C207.428 84.7467 207.021 84.54 206.601 84.4C206.188 84.2533 205.758 84.18 205.311 84.18C204.531 84.18 203.894 84.4633 203.401 85.03C202.914 85.59 202.671 86.5033 202.671 87.77C202.671 88.6033 202.784 89.27 203.011 89.77C203.244 90.27 203.558 90.63 203.951 90.85C204.351 91.07 204.801 91.18 205.301 91.18ZM213.893 88.51C213.946 89.17 214.096 89.7067 214.343 90.12C214.596 90.5333 214.92 90.8367 215.313 91.03C215.706 91.2233 216.143 91.32 216.623 91.32C217.13 91.32 217.606 91.24 218.053 91.08C218.5 90.92 218.94 90.6967 219.373 90.41L220.473 91.92C219.98 92.3333 219.39 92.6667 218.703 92.92C218.023 93.1733 217.273 93.3 216.453 93.3C215.306 93.3 214.34 93.0633 213.553 92.59C212.773 92.1167 212.183 91.46 211.783 90.62C211.383 89.78 211.183 88.8133 211.183 87.72C211.183 86.6667 211.38 85.7167 211.773 84.87C212.166 84.0233 212.733 83.3533 213.473 82.86C214.213 82.36 215.106 82.11 216.153 82.11C217.126 82.11 217.966 82.3233 218.673 82.75C219.38 83.1767 219.926 83.79 220.313 84.59C220.7 85.3833 220.893 86.34 220.893 87.46C220.893 87.64 220.886 87.8233 220.873 88.01C220.866 88.1967 220.856 88.3633 220.843 88.51H213.893ZM216.163 83.97C215.523 83.97 214.996 84.2 214.583 84.66C214.176 85.1133 213.936 85.8333 213.863 86.82H218.323C218.31 85.9267 218.123 85.23 217.763 84.73C217.41 84.2233 216.876 83.97 216.163 83.97ZM237.238 88.51C237.291 89.17 237.441 89.7067 237.688 90.12C237.941 90.5333 238.264 90.8367 238.658 91.03C239.051 91.2233 239.488 91.32 239.968 91.32C240.474 91.32 240.951 91.24 241.398 91.08C241.844 90.92 242.284 90.6967 242.718 90.41L243.818 91.92C243.324 92.3333 242.734 92.6667 242.048 92.92C241.368 93.1733 240.618 93.3 239.798 93.3C238.651 93.3 237.684 93.0633 236.898 92.59C236.118 92.1167 235.528 91.46 235.128 90.62C234.728 89.78 234.528 88.8133 234.528 87.72C234.528 86.6667 234.724 85.7167 235.118 84.87C235.511 84.0233 236.078 83.3533 236.818 82.86C237.558 82.36 238.451 82.11 239.498 82.11C240.471 82.11 241.311 82.3233 242.018 82.75C242.724 83.1767 243.271 83.79 243.658 84.59C244.044 85.3833 244.238 86.34 244.238 87.46C244.238 87.64 244.231 87.8233 244.218 88.01C244.211 88.1967 244.201 88.3633 244.188 88.51H237.238ZM239.508 83.97C238.868 83.97 238.341 84.2 237.928 84.66C237.521 85.1133 237.281 85.8333 237.208 86.82H241.668C241.654 85.9267 241.468 85.23 241.108 84.73C240.754 84.2233 240.221 83.97 239.508 83.97ZM254.19 82.11C254.643 82.11 255.03 82.2067 255.35 82.4C255.67 82.5867 255.916 82.9033 256.09 83.35C256.263 83.79 256.35 84.39 256.35 85.15V93H254.05V85.48C254.05 85 254.01 84.66 253.93 84.46C253.856 84.26 253.686 84.16 253.42 84.16C253.2 84.16 252.976 84.2267 252.75 84.36C252.53 84.4867 252.3 84.7167 252.06 85.05V93H250.07V85.48C250.07 85 250.03 84.66 249.95 84.46C249.876 84.26 249.706 84.16 249.44 84.16C249.213 84.16 248.99 84.2267 248.77 84.36C248.55 84.4867 248.32 84.7167 248.08 85.05V93H245.75V82.41H247.72L247.89 83.51C248.203 83.07 248.533 82.7267 248.88 82.48C249.226 82.2333 249.643 82.11 250.13 82.11C250.53 82.11 250.883 82.21 251.19 82.41C251.503 82.6033 251.726 82.9367 251.86 83.41C252.166 83.0233 252.51 82.71 252.89 82.47C253.27 82.23 253.703 82.11 254.19 82.11ZM278.454 90.21C278.454 90.6167 278.514 90.9133 278.634 91.1C278.754 91.28 278.947 91.4167 279.214 91.51L278.644 93.28C278.077 93.22 277.594 93.08 277.194 92.86C276.801 92.6333 276.497 92.2967 276.284 91.85C275.884 92.3367 275.377 92.7 274.764 92.94C274.157 93.18 273.521 93.3 272.854 93.3C271.774 93.3 270.917 92.9933 270.284 92.38C269.651 91.7667 269.334 90.97 269.334 89.99C269.334 88.8633 269.774 87.9967 270.654 87.39C271.541 86.7767 272.794 86.47 274.414 86.47H275.894V85.9C275.894 85.2733 275.701 84.82 275.314 84.54C274.927 84.2533 274.371 84.11 273.644 84.11C273.304 84.11 272.877 84.1567 272.364 84.25C271.857 84.3367 271.334 84.4733 270.794 84.66L270.164 82.85C270.837 82.5967 271.514 82.41 272.194 82.29C272.881 82.17 273.504 82.11 274.064 82.11C275.551 82.11 276.654 82.4267 277.374 83.06C278.094 83.6867 278.454 84.5767 278.454 85.73V90.21ZM273.714 91.39C274.114 91.39 274.517 91.2767 274.924 91.05C275.337 90.8233 275.661 90.5067 275.894 90.1V88.04H274.854C273.874 88.04 273.164 88.1967 272.724 88.51C272.291 88.8233 272.074 89.2667 272.074 89.84C272.074 90.3333 272.214 90.7167 272.494 90.99C272.774 91.2567 273.181 91.39 273.714 91.39ZM281.676 93V82.41H283.976L284.166 83.72C284.62 83.1867 285.13 82.7867 285.696 82.52C286.263 82.2467 286.873 82.11 287.526 82.11C288.48 82.11 289.206 82.3867 289.706 82.94C290.206 83.4867 290.456 84.2567 290.456 85.25V93H287.816V86.28C287.816 85.7467 287.783 85.32 287.716 85C287.65 84.6733 287.523 84.44 287.336 84.3C287.15 84.1533 286.88 84.08 286.526 84.08C286.24 84.08 285.963 84.1433 285.696 84.27C285.436 84.3967 285.19 84.5667 284.956 84.78C284.73 84.9933 284.516 85.23 284.316 85.49V93H281.676ZM297.748 82.11C298.802 82.11 299.695 82.34 300.428 82.8C301.162 83.26 301.718 83.91 302.098 84.75C302.485 85.5833 302.678 86.56 302.678 87.68C302.678 88.8267 302.485 89.82 302.098 90.66C301.712 91.5 301.152 92.15 300.418 92.61C299.685 93.07 298.792 93.3 297.738 93.3C296.692 93.3 295.798 93.0767 295.058 92.63C294.325 92.1767 293.765 91.5333 293.378 90.7C292.992 89.86 292.798 88.86 292.798 87.7C292.798 86.5933 292.992 85.62 293.378 84.78C293.765 83.94 294.328 83.2867 295.068 82.82C295.808 82.3467 296.702 82.11 297.748 82.11ZM297.748 84.1C297.008 84.1 296.455 84.39 296.088 84.97C295.728 85.55 295.548 86.46 295.548 87.7C295.548 88.9533 295.728 89.87 296.088 90.45C296.448 91.0233 296.998 91.31 297.738 91.31C298.478 91.31 299.028 91.0233 299.388 90.45C299.748 89.87 299.928 88.9467 299.928 87.68C299.928 86.4467 299.748 85.5433 299.388 84.97C299.028 84.39 298.482 84.1 297.748 84.1ZM309.051 91.35C309.671 91.35 310.167 91.2433 310.541 91.03C310.921 90.81 311.111 90.5033 311.111 90.11C311.111 89.85 311.047 89.63 310.921 89.45C310.801 89.27 310.561 89.1033 310.201 88.95C309.841 88.79 309.301 88.6133 308.581 88.42C307.901 88.2467 307.304 88.0333 306.791 87.78C306.284 87.52 305.887 87.1867 305.601 86.78C305.321 86.3733 305.181 85.86 305.181 85.24C305.181 84.62 305.354 84.0767 305.701 83.61C306.047 83.1367 306.547 82.77 307.201 82.51C307.861 82.2433 308.654 82.11 309.581 82.11C310.487 82.11 311.281 82.23 311.961 82.47C312.641 82.7033 313.224 82.9967 313.711 83.35L312.631 84.96C312.204 84.6867 311.741 84.4667 311.241 84.3C310.747 84.1267 310.214 84.04 309.641 84.04C309.021 84.04 308.567 84.13 308.281 84.31C308.001 84.49 307.861 84.74 307.861 85.06C307.861 85.2867 307.931 85.48 308.071 85.64C308.217 85.7933 308.477 85.9433 308.851 86.09C309.231 86.23 309.771 86.4 310.471 86.6C311.157 86.7867 311.754 87.0067 312.261 87.26C312.774 87.5133 313.171 87.85 313.451 88.27C313.731 88.69 313.871 89.24 313.871 89.92C313.871 90.6867 313.647 91.32 313.201 91.82C312.754 92.32 312.164 92.6933 311.431 92.94C310.704 93.18 309.914 93.3 309.061 93.3C308.061 93.3 307.187 93.1567 306.441 92.87C305.694 92.5833 305.061 92.2133 304.541 91.76L305.911 90.22C306.324 90.5467 306.794 90.8167 307.321 91.03C307.854 91.2433 308.431 91.35 309.051 91.35ZM319.013 91.23C319.013 90.8567 319.103 90.5133 319.283 90.2C319.469 89.8867 319.719 89.6367 320.033 89.45C320.346 89.2633 320.693 89.17 321.073 89.17C321.459 89.17 321.809 89.2633 322.123 89.45C322.436 89.6367 322.683 89.8867 322.863 90.2C323.049 90.5133 323.143 90.8567 323.143 91.23C323.143 91.6033 323.049 91.95 322.863 92.27C322.683 92.5833 322.436 92.8333 322.123 93.02C321.809 93.2067 321.459 93.3 321.073 93.3C320.693 93.3 320.346 93.2067 320.033 93.02C319.719 92.8333 319.469 92.5833 319.283 92.27C319.103 91.95 319.013 91.6033 319.013 91.23Z" fill="#FBFFFD"/>
</svg>
