<svg width="405" height="219" viewBox="0 0 405 219" fill="none" xmlns="http://www.w3.org/2000/svg">
<g clip-path="url(#clip0_312_1041)">
<path d="M17.2524 71.292C29.9086 66.7518 42.5649 62.7684 55.1782 58.2282L104.516 53.8165C100.269 55.9581 95.335 58.0997 89.7577 60.0272C87.6554 60.7553 82.2068 62.5971 70.7089 64.9528C67.7916 65.5525 58.1814 67.5228 44.0236 69.3217C36.9446 70.2212 27.8922 70.6067 17.2095 71.292H17.2524Z" fill="#42210B" stroke="black" stroke-width="0.05" stroke-miterlimit="10"/>
<path d="M396.554 73.1337L360.516 59.9843H330.141C337.691 63.7535 347.859 67.9511 360.301 70.7351C374.759 73.9904 387.33 73.6477 396.597 73.1337H396.554Z" fill="#42210B" stroke="black" stroke-width="0.05" stroke-miterlimit="10"/>
<path d="M82.0352 211.909C82.0352 212.381 82.2497 216.064 80.8768 217.563C78.8175 219.833 75.4711 219.277 75.0421 219.234C54.2343 219.405 25.2751 218.334 4.03835 218.463C2.96578 218.463 1.97902 217.906 1.5071 216.921C-0.595128 212.552 4.51027 205.999 4.63898 205.827C5.28252 205.87 5.84025 210.025 6.48379 210.068C32.6543 212.124 82.0352 211.909 82.0352 211.909Z" fill="#603813" stroke="black" stroke-width="0.1" stroke-miterlimit="10"/>
<path d="M88.1272 204.928C88.1272 205.399 87.5695 207.583 85.8105 209.768C84.3947 211.567 80.8338 211.61 80.4048 211.567C59.5112 211.738 28.6214 210.582 7.38464 210.71C6.6982 210.71 6.01176 210.453 5.62564 209.896C2.57956 205.527 7.89947 198.717 8.02818 198.503C8.67172 198.546 8.3285 202.187 8.97204 202.229C35.1426 204.328 61.9567 202.829 88.1272 204.928Z" fill="#603813" stroke="black" stroke-width="0.1" stroke-miterlimit="10"/>
<path d="M329.926 210.839C329.926 211.31 329.755 214.993 330.999 216.492C332.887 218.763 336.018 218.206 336.447 218.163C355.839 218.334 382.868 217.263 402.646 217.392C403.633 217.392 404.577 216.835 405.006 215.85C406.979 211.481 402.217 204.928 402.088 204.756C401.488 204.799 400.973 208.954 400.372 208.997C375.961 211.053 329.926 210.839 329.926 210.839Z" fill="#603813" stroke="black" stroke-width="0.15" stroke-miterlimit="10"/>
<path d="M324.22 203.857C324.22 204.328 324.735 206.513 326.365 208.697C327.695 210.496 330.999 210.539 331.428 210.496C350.906 210.667 379.736 209.511 399.514 209.639C400.158 209.639 400.801 209.382 401.144 208.826C403.976 204.457 398.742 197.646 398.613 197.432C398.013 197.475 397.97 201.116 397.369 201.159C372.957 203.257 348.589 201.758 324.177 203.857H324.22Z" fill="#603813" stroke="black" stroke-width="0.15" stroke-miterlimit="10"/>
<path d="M17.2524 71.8488C17.3811 76.1748 17.5527 82.514 17.6385 90.2237C17.853 110.826 17.9388 121.32 16.0511 130.186C14.6353 136.868 11.6751 146.591 4.72485 157.727C5.96903 171.733 7.47062 187.709 8.71479 201.844C8.80059 202.658 9.44413 203.3 10.3022 203.343C36.344 204.885 62.1285 203.215 88.1703 204.842C88.5993 204.071 89.9722 202.272 92.6751 201.501C95.6782 200.645 98.3811 200.388 99.2392 200.516C169.299 199.531 241.161 200.602 311.221 199.617C312.465 199.445 317.913 199.274 320.273 199.617C322.032 199.874 323.362 201.887 324.263 202.958C349.533 202.272 372.142 201.844 397.412 201.201L404.233 158.241C402.303 155.671 399.428 151.431 397.197 145.734C392.564 134.127 393.722 124.832 395.267 99.1328C395.61 93.6503 396.125 84.8269 396.64 73.6906C390.462 73.6906 382.053 73.3051 372.185 71.8488C360.473 70.0927 340.652 65.8951 316.069 53.3025C277.37 33.4713 280.459 19.2083 253.388 8.71443C217.95 -5.03464 184.015 3.48892 178.523 4.94521C135.32 16.3814 126.525 51.8034 84.3949 62.0403C67.3197 66.195 47.0268 68.9362 47.0268 68.9362C34.8424 70.6067 24.6316 71.4205 17.424 71.8488H17.2524Z" fill="#603813" stroke="black" stroke-width="0.25" stroke-miterlimit="10"/>
<path d="M125.281 99.9894L125.71 120.806C125.71 120.806 128.627 122.99 130.901 120.549L130.172 100.032C130.172 99.4326 127.126 97.548 125.281 100.032V99.9894Z" fill="#666666" stroke="#1A1A1A" stroke-width="0.08" stroke-miterlimit="10"/>
<path d="M127.726 101.617C129.077 101.617 130.172 100.965 130.172 100.161C130.172 99.3565 129.077 98.7045 127.726 98.7045C126.376 98.7045 125.281 99.3565 125.281 100.161C125.281 100.965 126.376 101.617 127.726 101.617Z" fill="#1A1A1A"/>
<path d="M125.281 106.543C125.281 106.543 127.855 108.641 130.386 106.543" stroke="#1A1A1A" stroke-width="0.05" stroke-miterlimit="10"/>
<path d="M125.538 112.411C125.538 112.411 127.855 114.424 130.515 112.368" stroke="#1A1A1A" stroke-width="0.05" stroke-miterlimit="10"/>
<path d="M17.2524 71.806C24.7604 115.623 32.3112 159.483 39.8192 203.3L88.1704 204.928C82.593 158.798 76.3721 111.383 70.7948 65.2527C61.0988 67.4371 50.2016 69.3646 38.2318 70.5639C30.8525 71.292 23.8165 71.6775 17.2524 71.806Z" fill="#42210B" stroke="black" stroke-width="0.05" stroke-miterlimit="10"/>
<path d="M210.657 187.024C254.302 187.024 289.684 151.701 289.684 108.127C289.684 64.554 254.302 29.2308 210.657 29.2308C167.012 29.2308 131.631 64.554 131.631 108.127C131.631 151.701 167.012 187.024 210.657 187.024Z" fill="#2B140A" stroke="#2B140A" stroke-width="0.75" stroke-miterlimit="10"/>
<path d="M347.001 66.9659L326.065 202.315L373.944 201.373L396.554 74.5472C389.432 74.5472 381.195 74.076 372.099 72.7054C362.489 71.2491 354.08 69.1504 347.001 66.9231V66.9659Z" fill="#42210B" stroke="black" stroke-width="0.05" stroke-miterlimit="10"/>
<path d="M210.803 187.324C254.447 187.324 289.828 152.001 289.828 108.429C289.828 64.8561 254.447 29.5336 210.803 29.5336C167.159 29.5336 131.778 64.8561 131.778 108.429C131.778 152.001 167.159 187.324 210.803 187.324Z" fill="#391E00" stroke="#2B140A" stroke-width="0.75" stroke-miterlimit="10"/>
<path d="M151.813 159.055C156.446 163.938 176.353 183.897 207.843 185.353C244.18 187.024 267.734 162.867 271.552 158.798C236.973 159.697 186.349 158.155 151.813 159.055Z" fill="#2B140A"/>
<path d="M239.561 122.019L241.061 137.547L221.364 172.993L218.372 171.317L237.701 136.47L235.502 119.745L239.561 122.019Z" fill="#004497"/>
<path d="M206.504 103L236.647 119.887L238.845 136.612L218.083 173.99L179 152.095L186.321 139.027L187.268 137.336L191.178 136.079L190.118 132.248L190.654 131.292L194.447 130.244L193.731 125.8L206.504 103Z" fill="url(#paint0_linear_312_1041)" stroke="black" stroke-width="0.25" stroke-miterlimit="10"/>
<path opacity="0.84" d="M210.302 114.598L190.188 150.502L215.94 164.93L227.924 143.539L216.85 137.335L232.381 135.583L210.302 114.598Z" fill="url(#paint1_radial_312_1041)" stroke="#007CBC" stroke-width="0.5" stroke-miterlimit="10"/>
<path d="M234.472 130.699C232.033 128.785 228.57 125.331 226.266 123.203C224.002 121.032 220.36 117.784 218.305 115.441C220.745 117.356 224.207 120.809 226.511 122.938C228.776 125.108 232.418 128.356 234.472 130.699Z" fill="#00EFFF"/>
<path d="M234.472 130.699L218.317 115.448" stroke="#0091FF" stroke-width="0.05" stroke-miterlimit="10"/>
<path d="M234.7 128.25C232.955 126.966 230.695 124.557 229.104 123.054C227.571 121.534 225.078 119.284 223.747 117.604C225.468 118.875 227.789 121.318 229.343 122.801C230.899 124.365 233.346 126.525 234.7 128.25Z" fill="#00DFFF"/>
<path d="M234.7 128.25L223.747 117.604" stroke="#0091FF" stroke-width="0.03" stroke-miterlimit="10"/>
<path d="M194.882 130.504C194.682 130.199 194.54 129.733 194.508 129.36L194.311 128.187C194.241 127.794 194.067 126.81 194.003 126.436L194.076 125.817L194.346 126.371C194.41 126.745 194.59 127.747 194.654 128.121L194.85 129.295C194.941 129.651 194.975 130.137 194.889 130.492L194.882 130.504Z" fill="#00E9FF"/>
<path d="M190.828 131.615C191.084 131.388 191.462 131.23 191.798 131.176L192.812 130.891C193.15 130.806 194.011 130.564 194.336 130.472L194.882 130.504L194.421 130.809C194.096 130.901 193.222 131.137 192.897 131.228L191.883 131.514C191.563 131.625 191.158 131.687 190.821 131.627L190.828 131.615Z" fill="#00E9FF"/>
<path d="M191.661 136.253C191.427 136.009 191.244 135.617 191.172 135.286L190.854 134.271C190.75 133.939 190.483 133.064 190.379 132.732L190.386 132.173L190.711 132.629C190.81 132.941 191.082 133.835 191.186 134.167L191.504 135.182C191.634 135.497 191.702 135.922 191.661 136.253Z" fill="#00E9FF"/>
<path d="M187.37 137.586C187.633 137.346 188.057 137.165 188.406 137.087L189.491 136.761C189.843 136.652 190.775 136.369 191.119 136.272L191.71 136.281L191.216 136.616C190.872 136.713 189.94 136.996 189.589 137.105L188.504 137.432C188.177 137.555 187.726 137.64 187.363 137.598L187.37 137.586Z" fill="#00E9FF"/>
<path d="M144 187.327C152.008 187.327 158.5 152.003 158.5 108.43C158.5 64.8568 152.008 29.5336 144 29.5336C135.992 29.5336 129.5 64.8568 129.5 108.43C129.5 152.003 135.992 187.327 144 187.327Z" fill="#69695A" stroke="#2B140A" stroke-width="0.75" stroke-miterlimit="10"/>
<path d="M144 187.327C152.008 187.327 158.5 152.003 158.5 108.43C158.5 64.8568 152.008 29.5336 144 29.5336C135.992 29.5336 129.5 64.8568 129.5 108.43C129.5 152.003 135.992 187.327 144 187.327Z" fill="#69695A" stroke="#2B140A" stroke-width="0.75" stroke-miterlimit="10"/>
<path d="M143.953 53.991C149.4 53.991 153.84 78.1054 153.84 107.788C153.84 137.471 149.408 161.585 143.953 161.585C138.498 161.585 134.066 137.471 134.066 107.788C134.066 78.1054 138.498 53.991 143.953 53.991ZM143.953 52.9202C138.387 52.9202 133.869 77.4629 133.869 107.788C133.869 138.113 138.379 162.656 143.953 162.656C149.526 162.656 154.037 138.113 154.037 107.788C154.037 77.4629 149.526 52.9202 143.953 52.9202Z" fill="#42210B"/>
<path d="M143.98 48.7012C143.98 48.8154 143.951 48.8725 143.894 48.8725H143.846C143.846 48.8725 143.797 48.8725 143.697 48.8725C143.597 48.8582 143.496 48.8511 143.394 48.8511C143.213 48.8511 143.097 48.8582 143.047 48.8725C142.998 48.8868 142.958 48.8939 142.929 48.8939C142.866 48.8939 142.835 48.8297 142.835 48.7012C142.835 48.5727 142.853 48.5084 142.89 48.5084C142.948 48.5084 143.009 48.5013 143.075 48.487C143.156 48.4727 143.2 48.3657 143.205 48.1658C143.213 47.9516 143.217 47.5019 143.217 46.8166V36.7511C143.217 36.2942 143.214 36.0229 143.209 35.9372C143.203 35.8516 143.185 35.8088 143.154 35.8088C143.141 35.8088 143.055 35.8444 142.898 35.9158C142.866 35.9301 142.845 35.9372 142.835 35.9372C142.803 35.9372 142.788 35.8873 142.788 35.7873C142.788 35.6731 142.803 35.6089 142.835 35.5946C142.958 35.5232 143.083 35.3233 143.209 34.9949C143.335 34.6523 143.436 34.2525 143.512 33.7956C143.541 33.6672 143.56 33.6029 143.571 33.6029C143.592 33.6029 143.602 33.6743 143.602 33.8171V34.224C143.6 34.3382 143.598 34.4667 143.598 34.6095V47.4162C143.598 47.9302 143.602 48.23 143.61 48.3157C143.621 48.4014 143.653 48.4513 143.709 48.4656L143.799 48.487L143.866 48.5084H143.925C143.962 48.5084 143.98 48.5727 143.98 48.7012Z" fill="black"/>
<path d="M151.089 59.6664C151.089 59.7806 151.06 59.8378 151.002 59.8378H150.955C150.955 59.8378 150.905 59.8378 150.805 59.8378C150.705 59.8235 150.604 59.8163 150.502 59.8163C150.321 59.8163 150.206 59.8235 150.156 59.8378C150.106 59.852 150.066 59.8592 150.038 59.8592C149.975 59.8592 149.943 59.7949 149.943 59.6664C149.943 59.5379 149.962 59.4737 149.998 59.4737C150.056 59.4737 150.118 59.4665 150.183 59.4523C150.265 59.438 150.308 59.3309 150.313 59.131C150.321 58.9169 150.325 58.4671 150.325 57.7818V47.7163C150.325 47.2594 150.322 46.9882 150.317 46.9025C150.312 46.8168 150.293 46.774 150.262 46.774C150.249 46.774 150.164 46.8097 150.006 46.8811C149.975 46.8954 149.954 46.9025 149.943 46.9025C149.912 46.9025 149.896 46.8525 149.896 46.7526C149.896 46.6384 149.912 46.5741 149.943 46.5598C150.066 46.4884 150.191 46.2886 150.317 45.9602C150.443 45.6175 150.544 45.2178 150.62 44.7609C150.649 44.6324 150.669 44.5681 150.679 44.5681C150.7 44.5681 150.711 44.6395 150.711 44.7823V45.1892C150.708 45.3034 150.707 45.4319 150.707 45.5747V58.3815C150.707 58.8955 150.711 59.1953 150.719 59.2809C150.729 59.3666 150.762 59.4166 150.817 59.4309L150.907 59.4523L150.974 59.4737H151.033C151.07 59.4737 151.089 59.5379 151.089 59.6664Z" fill="black"/>
<path d="M155.536 77.9339C155.536 77.9768 155.533 78.091 155.528 78.2766C155.515 78.7477 155.494 79.9114 155.465 81.7674L155.461 82.0244C155.191 81.953 154.883 81.9173 154.536 81.9173C154.35 81.9173 154.175 81.9316 154.013 81.9601C153.85 81.9887 153.779 82.003 153.8 82.003C153.729 82.003 153.694 81.9316 153.694 81.7888C153.694 81.6746 153.762 81.3177 153.899 80.718C154.227 79.2617 154.46 78.0767 154.599 77.163C154.841 75.5782 154.961 73.715 154.961 71.5734C154.961 70.1314 154.906 69.0392 154.796 68.2967C154.712 67.7256 154.594 67.4401 154.442 67.4401C154.292 67.4401 154.174 67.69 154.088 68.1897C154.019 68.5751 153.985 68.9606 153.985 69.3461C153.985 69.5888 154.021 69.7173 154.091 69.7316C154.275 69.7744 154.367 70.2099 154.367 71.038C154.367 71.8232 154.291 72.2159 154.139 72.2159C154.042 72.2159 153.964 72.0517 153.906 71.7233C153.849 71.3949 153.82 70.9452 153.82 70.3741C153.82 69.3176 153.888 68.4681 154.025 67.8256C154.161 67.1831 154.341 66.8619 154.564 66.8619C154.787 66.8619 154.972 67.2474 155.119 68.0183C155.289 68.9178 155.375 70.0885 155.375 71.5306C155.375 73.1153 155.278 74.5788 155.083 75.9208C154.889 77.2486 154.562 78.6978 154.103 80.2683C154.276 80.2397 154.494 80.2255 154.757 80.2255C154.974 80.2255 155.112 80.2112 155.17 80.1826C155.228 80.1398 155.279 80.047 155.323 79.9042C155.36 79.7757 155.392 79.2974 155.418 78.4693C155.436 77.8982 155.462 77.6127 155.497 77.6127C155.523 77.6127 155.536 77.7198 155.536 77.9339Z" fill="black"/>
<path d="M157.136 107.778C157.136 109.081 157.039 110.196 156.846 111.123C156.632 112.144 156.359 112.654 156.027 112.654C155.756 112.654 155.557 112.308 155.43 111.617C155.349 111.178 155.309 110.675 155.309 110.11C155.309 109.623 155.336 109.238 155.391 108.955C155.449 108.657 155.525 108.508 155.62 108.508C155.695 108.508 155.757 108.626 155.806 108.861C155.856 109.097 155.88 109.395 155.88 109.756C155.88 110.306 155.812 110.738 155.677 111.052C155.622 111.178 155.594 111.303 155.594 111.429C155.594 111.633 155.632 111.822 155.707 111.994C155.782 112.151 155.864 112.23 155.954 112.23C156.173 112.23 156.351 111.822 156.486 111.005C156.625 110.188 156.694 109.12 156.694 107.801C156.694 105.147 156.475 103.82 156.036 103.82C155.993 103.82 155.961 103.828 155.941 103.843H155.91C155.873 103.843 155.854 103.773 155.854 103.631C155.854 103.521 155.889 103.435 155.958 103.372C156.16 103.215 156.316 102.815 156.426 102.171C156.535 101.511 156.59 100.671 156.59 99.6502C156.59 98.6451 156.542 97.8441 156.447 97.2473C156.352 96.6348 156.224 96.3286 156.062 96.3286C155.944 96.3286 155.84 96.4699 155.75 96.7526C155.664 97.0196 155.62 97.3337 155.62 97.6949C155.62 97.8362 155.641 97.9305 155.681 97.9776C155.871 98.2289 155.967 98.6608 155.967 99.2733C155.967 100.074 155.89 100.475 155.737 100.475C155.639 100.475 155.56 100.318 155.499 100.004C155.441 99.6894 155.412 99.2733 155.412 98.755C155.412 97.9069 155.479 97.2002 155.612 96.6348C155.747 96.0537 155.935 95.7632 156.174 95.7632C156.449 95.7632 156.658 96.1479 156.802 96.9175C156.947 97.687 157.019 98.5822 157.019 99.6031C157.019 101.017 156.896 102.061 156.651 102.736C156.564 102.972 156.424 103.168 156.231 103.325V103.49C156.47 103.537 156.664 103.828 156.811 104.362C157.027 105.147 157.136 106.286 157.136 107.778Z" fill="black"/>
<path d="M155.529 140.019C155.529 140.176 155.515 140.255 155.486 140.255C155.46 140.255 155.443 140.168 155.434 139.996C155.428 139.807 155.418 139.312 155.404 138.511C155.398 138.386 155.387 138.292 155.369 138.229C155.335 138.119 155.258 138.064 155.14 138.064C155.108 138.064 155.078 138.072 155.049 138.087L155.053 141.786C155.068 141.974 155.091 142.092 155.122 142.139C155.157 142.186 155.239 142.21 155.369 142.21C155.433 142.21 155.47 142.241 155.482 142.304C155.485 142.336 155.486 142.383 155.486 142.445C155.486 142.555 155.428 142.61 155.313 142.61C155.197 142.61 154.874 142.626 154.343 142.658C154.314 142.673 154.283 142.681 154.248 142.681C154.19 142.681 154.161 142.603 154.161 142.445C154.161 142.288 154.203 142.218 154.287 142.233C154.385 142.249 154.474 142.218 154.555 142.139C154.59 142.108 154.612 142.029 154.62 141.904C154.629 141.762 154.633 141.464 154.633 141.008V138.158C154.575 138.142 154.509 138.134 154.434 138.134H154.257C154.216 138.134 154.171 138.142 154.122 138.158C154.079 138.158 154.052 138.158 154.04 138.158L153.49 138.087C153.45 138.072 153.43 138.009 153.43 137.899C153.43 137.82 153.642 136.195 154.066 133.022C154.199 132.002 154.492 129.756 154.945 126.285C154.965 126.128 154.985 126.049 155.006 126.049C155.034 126.049 155.049 126.199 155.049 126.497V137.569H155.092C155.19 137.569 155.267 137.538 155.322 137.475C155.379 137.412 155.408 137.255 155.408 137.004C155.405 136.014 155.404 135.677 155.404 135.991C155.407 135.425 155.423 135.143 155.451 135.143C155.492 135.143 155.512 135.363 155.512 135.802V136.862L155.516 138.558C155.519 139.14 155.522 139.509 155.525 139.666C155.528 139.807 155.529 139.925 155.529 140.019ZM154.659 129.512C154.63 129.764 154.57 130.243 154.477 130.949C154.35 131.907 154.158 133.337 153.902 135.237L153.594 137.522C153.701 137.569 153.93 137.593 154.283 137.593C154.407 137.593 154.524 137.585 154.633 137.569V135.896C154.633 135.111 154.638 134.051 154.646 132.716C154.655 131.146 154.659 130.078 154.659 129.512Z" fill="black"/>
<path d="M151.392 167.346C151.392 169.173 151.263 170.573 151.006 171.544C150.851 172.129 150.65 172.422 150.404 172.422C150.157 172.422 149.976 172.072 149.86 171.372C149.797 170.987 149.766 170.53 149.766 170.002C149.766 169.559 149.792 169.202 149.845 168.931C149.897 168.645 149.965 168.502 150.049 168.502C150.118 168.502 150.174 168.61 150.219 168.824C150.266 169.038 150.289 169.302 150.289 169.616C150.289 170.144 150.225 170.544 150.097 170.815C150.039 170.93 150.01 171.058 150.01 171.201C150.01 171.429 150.048 171.636 150.124 171.822C150.203 171.993 150.289 172.079 150.384 172.079C150.568 172.079 150.705 171.736 150.797 171.051C150.923 170.109 150.986 168.838 150.986 167.239C150.986 166.068 150.936 165.162 150.837 164.519C150.737 163.877 150.595 163.555 150.411 163.555C150.27 163.555 150.114 163.848 149.943 164.433C149.959 161.221 149.971 159.194 149.978 158.351C149.981 157.866 150.001 157.573 150.038 157.473C150.074 157.359 150.174 157.302 150.337 157.302C150.363 157.302 150.408 157.302 150.47 157.302C150.533 157.316 150.583 157.323 150.62 157.323H150.754C150.935 157.323 151.04 157.309 151.069 157.28C151.1 157.238 151.12 157.116 151.128 156.916C151.138 156.588 151.157 156.424 151.183 156.424C151.209 156.424 151.222 156.502 151.222 156.659C151.222 156.759 151.221 156.838 151.218 156.895L151.21 157.388C151.197 158.187 151.17 158.687 151.128 158.887C151.088 159.072 150.99 159.165 150.833 159.165L150.081 159.144C150.07 159.629 150.061 161.093 150.053 163.534C150.203 163.163 150.359 162.977 150.522 162.977C150.792 162.977 151.004 163.37 151.159 164.155C151.314 164.926 151.392 165.99 151.392 167.346Z" fill="black"/>
<path d="M145.004 177.497C145.004 178.882 144.926 180.067 144.771 181.052C144.616 182.037 144.431 182.53 144.216 182.53C143.946 182.53 143.727 181.923 143.559 180.71C143.391 179.496 143.307 177.918 143.307 175.977C143.307 174.192 143.378 172.564 143.52 171.094C143.664 169.623 143.856 168.552 144.094 167.881C144.294 167.325 144.512 167.046 144.748 167.046C144.803 167.046 144.83 167.103 144.83 167.217C144.83 167.317 144.812 167.374 144.775 167.389C144.539 167.503 144.33 167.967 144.149 168.781C143.913 169.837 143.774 171.636 143.732 174.178C143.877 173.435 144.039 173.064 144.22 173.064C144.367 173.064 144.505 173.278 144.634 173.706C144.88 174.52 145.004 175.784 145.004 177.497ZM144.598 177.561C144.598 174.906 144.447 173.578 144.145 173.578C144.009 173.578 143.904 173.899 143.831 174.542C143.757 175.17 143.72 176.055 143.72 177.197C143.72 178.839 143.774 180.167 143.882 181.181C143.95 181.823 144.05 182.144 144.181 182.144C144.459 182.144 144.598 180.617 144.598 177.561Z" fill="black"/>
<path d="M138.478 158.394C138.478 158.48 138.326 159.815 138.021 162.399C137.851 163.855 137.734 164.997 137.671 165.825C137.608 166.639 137.576 167.453 137.576 168.267C137.576 168.681 137.595 169.495 137.632 170.708C137.645 171.136 137.651 171.501 137.651 171.8C137.651 172.814 137.582 173.321 137.443 173.321C137.277 173.321 137.195 172.543 137.195 170.987C137.195 169.545 137.317 167.646 137.561 165.29C137.715 163.805 137.916 162.077 138.163 160.107H137.565C137.255 160.107 137.077 160.114 137.029 160.129C136.972 160.143 136.931 160.193 136.907 160.279C136.886 160.364 136.871 160.486 136.86 160.643C136.852 160.785 136.831 161.285 136.797 162.142C136.787 162.313 136.771 162.399 136.75 162.399C136.724 162.399 136.711 162.313 136.711 162.142C136.711 161.97 136.717 161.692 136.73 161.307C136.759 160.436 136.777 159.693 136.785 159.079C136.791 158.637 136.808 158.33 136.836 158.158C136.855 158.158 136.909 158.173 136.998 158.201C137.197 158.258 137.342 158.287 137.431 158.287L138.246 158.244C138.267 158.244 138.289 158.237 138.312 158.223C138.333 158.223 138.347 158.223 138.352 158.223C138.436 158.223 138.478 158.28 138.478 158.394Z" fill="black"/>
<path d="M134.302 143.51C134.302 144.938 134.193 146.087 133.975 146.958C133.828 147.543 133.646 147.836 133.428 147.836C133.194 147.836 132.997 147.551 132.837 146.979C132.62 146.208 132.511 145.123 132.511 143.724C132.511 141.597 132.722 140.248 133.144 139.677V139.569C132.984 139.327 132.858 138.92 132.767 138.349C132.677 137.763 132.633 137.071 132.633 136.271C132.633 135.158 132.702 134.251 132.841 133.552C132.983 132.838 133.165 132.481 133.388 132.481C133.585 132.481 133.747 132.738 133.873 133.252C134.056 133.994 134.148 134.951 134.148 136.122C134.148 136.964 134.102 137.721 134.01 138.392C133.918 139.048 133.804 139.448 133.668 139.591L133.672 139.677C134.092 140.133 134.302 141.411 134.302 143.51ZM133.758 136.164C133.758 134.894 133.716 133.958 133.632 133.359C133.583 133.002 133.503 132.823 133.392 132.823C133.146 132.823 133.022 133.944 133.022 136.186C133.022 138.37 133.155 139.462 133.42 139.462C133.538 139.462 133.621 139.227 133.668 138.756C133.728 138.142 133.758 137.278 133.758 136.164ZM133.9 143.724C133.9 141.126 133.74 139.826 133.42 139.826C133.26 139.826 133.135 140.162 133.046 140.833C132.957 141.49 132.912 142.404 132.912 143.574C132.912 144.788 132.958 145.744 133.05 146.444C133.144 147.144 133.273 147.493 133.436 147.493C133.575 147.493 133.677 147.279 133.743 146.851C133.848 146.166 133.9 145.123 133.9 143.724Z" fill="black"/>
<path d="M132.643 102.59C132.643 104.648 132.555 106.516 132.379 108.197C132.206 109.862 131.978 111.016 131.695 111.66C131.487 112.131 131.28 112.367 131.072 112.367C130.997 112.367 130.959 112.312 130.959 112.202C130.959 112.107 130.979 112.045 131.02 112.013C131.508 111.668 131.842 110.348 132.024 108.056C132.096 107.129 132.147 105.951 132.176 104.522C132.017 105.339 131.838 105.747 131.639 105.747C131.448 105.747 131.275 105.433 131.119 104.805C130.891 103.894 130.777 102.551 130.777 100.776C130.777 99.2686 130.861 97.9886 131.028 96.9364C131.199 95.8684 131.404 95.3344 131.643 95.3344C131.938 95.3344 132.177 96.0098 132.362 97.3604C132.55 98.711 132.643 100.454 132.643 102.59ZM132.189 101.035C132.189 99.245 132.128 97.8315 132.007 96.795C131.923 96.0883 131.809 95.7349 131.665 95.7349C131.368 95.7349 131.219 97.4311 131.219 100.823C131.219 103.729 131.385 105.182 131.717 105.182C131.864 105.182 131.98 104.82 132.063 104.098C132.147 103.36 132.189 102.339 132.189 101.035Z" fill="black"/>
<path d="M133.597 80.1826C133.597 80.2968 133.568 80.3539 133.51 80.3539H133.463C133.463 80.3539 133.413 80.3539 133.314 80.3539C133.214 80.3397 133.113 80.3325 133.011 80.3325C132.83 80.3325 132.714 80.3397 132.664 80.3539C132.614 80.3682 132.575 80.3753 132.546 80.3753C132.483 80.3753 132.452 80.3111 132.452 80.1826C132.452 80.0541 132.47 79.9899 132.507 79.9899C132.564 79.9899 132.626 79.9827 132.692 79.9684C132.773 79.9542 132.816 79.8471 132.822 79.6472C132.83 79.433 132.833 78.9833 132.833 78.298V68.2325C132.833 67.7756 132.831 67.5043 132.826 67.4187C132.82 67.333 132.802 67.2902 132.77 67.2902C132.757 67.2902 132.672 67.3259 132.515 67.3972C132.483 67.4115 132.462 67.4187 132.452 67.4187C132.42 67.4187 132.404 67.3687 132.404 67.2688C132.404 67.1545 132.42 67.0903 132.452 67.076C132.575 67.0046 132.7 66.8047 132.826 66.4764C132.952 66.1337 133.053 65.7339 133.129 65.2771C133.158 65.1486 133.177 65.0843 133.188 65.0843C133.209 65.0843 133.219 65.1557 133.219 65.2985V65.7054C133.217 65.8196 133.215 65.9481 133.215 66.0909V78.8976C133.215 79.4116 133.219 79.7114 133.227 79.7971C133.238 79.8828 133.27 79.9327 133.325 79.947L133.416 79.9684L133.483 79.9899H133.542C133.579 79.9899 133.597 80.0541 133.597 80.1826Z" fill="black"/>
<path d="M137.824 58.3384C137.824 58.4526 137.795 58.5097 137.738 58.5097H137.69C137.69 58.5097 137.641 58.5097 137.541 58.5097C137.441 58.4954 137.34 58.4883 137.238 58.4883C137.057 58.4883 136.941 58.4954 136.892 58.5097C136.842 58.524 136.802 58.5311 136.773 58.5311C136.71 58.5311 136.679 58.4669 136.679 58.3384C136.679 58.2099 136.697 58.1456 136.734 58.1456C136.792 58.1456 136.853 58.1385 136.919 58.1242C137 58.1099 137.044 58.0029 137.049 57.803C137.057 57.5888 137.061 57.1391 137.061 56.4538V46.3883C137.061 45.9314 137.058 45.6601 137.053 45.5744C137.048 45.4888 137.029 45.446 136.998 45.446C136.985 45.446 136.899 45.4816 136.742 45.553C136.71 45.5673 136.689 45.5744 136.679 45.5744C136.647 45.5744 136.632 45.5245 136.632 45.4245C136.632 45.3103 136.647 45.2461 136.679 45.2318C136.802 45.1604 136.927 44.9605 137.053 44.6321C137.179 44.2895 137.28 43.8897 137.356 43.4328C137.385 43.3044 137.404 43.2401 137.415 43.2401C137.436 43.2401 137.446 43.3115 137.446 43.4543V43.8612C137.444 43.9754 137.443 44.1039 137.443 44.2467V57.0534C137.443 57.5674 137.446 57.8672 137.454 57.9529C137.465 58.0386 137.498 58.0885 137.553 58.1028L137.643 58.1242L137.71 58.1456H137.769C137.806 58.1456 137.824 58.2099 137.824 58.3384Z" fill="black"/>
<path d="M145.491 44.8249C145.491 44.8677 145.489 44.9819 145.484 45.1675C145.47 45.6387 145.449 46.8023 145.421 48.6584L145.417 48.9153C145.146 48.844 144.838 48.8083 144.492 48.8083C144.305 48.8083 144.131 48.8225 143.968 48.8511C143.806 48.8797 143.735 48.8939 143.756 48.8939C143.685 48.8939 143.649 48.8225 143.649 48.6798C143.649 48.5655 143.718 48.2086 143.854 47.609C144.182 46.1527 144.416 44.9677 144.555 44.0539C144.796 42.4691 144.917 40.6059 144.917 38.4643C144.917 37.0223 144.862 35.9301 144.751 35.1877C144.668 34.6166 144.549 34.331 144.397 34.331C144.248 34.331 144.13 34.5809 144.043 35.0806C143.975 35.4661 143.941 35.8516 143.941 36.2371C143.941 36.4798 143.976 36.6083 144.047 36.6226C144.231 36.6654 144.322 37.1009 144.322 37.9289C144.322 38.7142 144.246 39.1068 144.094 39.1068C143.997 39.1068 143.92 38.9426 143.862 38.6142C143.804 38.2859 143.775 37.8361 143.775 37.265C143.775 36.2085 143.844 35.359 143.98 34.7165C144.116 34.0741 144.296 33.7528 144.519 33.7528C144.742 33.7528 144.927 34.1383 145.074 34.9093C145.245 35.8088 145.33 36.9795 145.33 38.4215C145.33 40.0063 145.233 41.4697 145.039 42.8118C144.845 44.1396 144.518 45.5887 144.059 47.1592C144.232 47.1307 144.45 47.1164 144.712 47.1164C144.93 47.1164 145.068 47.1021 145.125 47.0736C145.183 47.0307 145.234 46.9379 145.279 46.7952C145.316 46.6667 145.347 46.1884 145.373 45.3603C145.392 44.7892 145.418 44.5036 145.452 44.5036C145.478 44.5036 145.491 44.6107 145.491 44.8249Z" fill="black"/>
<path d="M138.848 58.3384C138.848 58.4526 138.819 58.5097 138.761 58.5097H138.714C138.714 58.5097 138.664 58.5097 138.564 58.5097C138.465 58.4954 138.364 58.4883 138.261 58.4883C138.08 58.4883 137.965 58.4954 137.915 58.5097C137.865 58.524 137.826 58.5311 137.797 58.5311C137.734 58.5311 137.702 58.4669 137.702 58.3384C137.702 58.2099 137.721 58.1456 137.757 58.1456C137.815 58.1456 137.877 58.1385 137.942 58.1242C138.024 58.1099 138.067 58.0029 138.072 57.803C138.08 57.5888 138.084 57.1391 138.084 56.4538V46.3883C138.084 45.9314 138.082 45.6601 138.076 45.5744C138.071 45.4888 138.053 45.446 138.021 45.446C138.008 45.446 137.923 45.4816 137.765 45.553C137.734 45.5673 137.713 45.5744 137.702 45.5744C137.671 45.5744 137.655 45.5245 137.655 45.4245C137.655 45.3103 137.671 45.2461 137.702 45.2318C137.826 45.1604 137.95 44.9605 138.076 44.6321C138.202 44.2895 138.303 43.8897 138.379 43.4328C138.408 43.3044 138.428 43.2401 138.438 43.2401C138.459 43.2401 138.47 43.3115 138.47 43.4543V43.8612C138.467 43.9754 138.466 44.1039 138.466 44.2467V57.0534C138.466 57.5674 138.47 57.8672 138.478 57.9529C138.488 58.0386 138.521 58.0885 138.576 58.1028L138.667 58.1242L138.734 58.1456H138.793C138.829 58.1456 138.848 58.2099 138.848 58.3384Z" fill="black"/>
<path d="M135.152 73.1582C135.152 74.4288 135.116 75.6281 135.046 76.756C134.977 77.8839 134.883 78.7906 134.762 79.4759C134.634 80.2183 134.47 80.5895 134.27 80.5895C133.997 80.5895 133.772 79.8614 133.593 78.4051C133.417 76.9488 133.329 75.0856 133.329 72.8155C133.329 70.1885 133.454 68.1183 133.703 66.6049C133.853 65.6911 134.037 65.2342 134.254 65.2342C134.512 65.2342 134.716 65.8696 134.868 67.1403C135.057 68.7108 135.152 70.7167 135.152 73.1582ZM134.727 72.3872C134.727 70.2599 134.683 68.5037 134.597 67.1188C134.531 66.0623 134.416 65.5341 134.25 65.5341C133.92 65.5341 133.755 67.9255 133.755 72.7084C133.755 77.7198 133.929 80.2254 134.278 80.2254C134.441 80.2254 134.557 79.4973 134.628 78.041C134.694 76.7132 134.727 74.8286 134.727 72.3872Z" fill="black"/>
<path d="M143.953 111.3C143.591 111.3 143.299 109.715 143.299 107.745C143.299 105.775 143.591 104.19 143.953 104.19C144.315 104.19 144.606 105.775 144.606 107.745C144.606 109.715 144.315 111.3 143.953 111.3Z" fill="black"/>
<path d="M143.953 105.389C144.189 105.389 144.386 106.46 144.386 107.745C144.386 109.03 144.189 110.101 143.953 110.101C143.717 110.101 143.52 109.03 143.52 107.745C143.52 106.46 143.717 105.389 143.953 105.389ZM143.953 103.033C143.473 103.033 143.087 105.132 143.087 107.745C143.087 110.358 143.473 112.456 143.953 112.456C144.433 112.456 144.819 110.358 144.819 107.745C144.819 105.132 144.433 103.033 143.953 103.033Z" fill="black"/>
<path d="M139.907 120.594L141.859 119.138L142.229 113.57L141.174 112.328L139.907 120.594Z" fill="black" stroke="#1A1A1A" stroke-width="0.05" stroke-miterlimit="10"/>
<path d="M143.157 110.786L142.874 116.054L141.906 114.598L142.205 109.458L143.157 110.786Z" fill="black" stroke="#1A1A1A" stroke-width="0.05" stroke-miterlimit="10"/>
<path d="M150.723 87.9993C150.723 87.9993 151.935 85.9434 152.525 88.5989C152.525 88.5989 152.62 81.3175 154.281 76.6917C154.281 76.6917 152.706 82.5168 151.502 78.6191C151.502 78.6191 151.321 83.8018 150.604 86.5858L150.73 87.9993H150.723Z" fill="black" stroke="black" stroke-width="0.05" stroke-miterlimit="10"/>
<path d="M149.762 85.9434L148.243 92.5395L148.96 92.7965L148.731 96.6514L150.51 92.5395L151.053 86.5002L149.762 85.9434Z" fill="black" stroke="black" stroke-width="0.05" stroke-miterlimit="10"/>
<path d="M144.787 104.018L147.975 91.383L149.471 91.2974L148.668 98.1505L145.047 106.374C145.023 105.989 144.834 104.275 144.795 104.018H144.787Z" fill="black" stroke="#1A1A1A" stroke-width="0.05" stroke-miterlimit="10"/>
<path d="M151.281 90.612C150.919 88.6846 150.659 86.3716 150.526 83.7161C150.888 85.6435 151.14 87.9564 151.281 90.612Z" fill="#1A1A1A"/>
<path d="M141.56 87.9564L141.898 97.4223L142.835 98.9642L142.992 93.7387L141.56 87.9564Z" fill="black" stroke="#1A1A1A" stroke-width="0.05" stroke-miterlimit="10"/>
<path d="M143.339 103.333L142.457 102.219L142.654 97.4222L143.512 98.6215L143.339 103.333Z" fill="black" stroke="#1A1A1A" stroke-width="0.05" stroke-miterlimit="10"/>
<path d="M144.354 112.842L144.653 119.524L145.559 120.851L145.724 115.712L144.74 111.514C144.701 111.771 144.409 112.713 144.354 112.842Z" fill="black" stroke="#1A1A1A" stroke-width="0.05" stroke-miterlimit="10"/>
<path d="M145.307 121.708C145.307 121.708 145.449 128.476 145.055 131.559C145.055 131.559 146.865 131.302 147.763 138.927C147.763 138.927 146.897 129.247 147.44 123.079C147.44 123.079 146.251 123.421 145.748 120.209L145.315 121.708H145.307Z" fill="black" stroke="#1A1A1A" stroke-width="0.05" stroke-miterlimit="10"/>
<path d="M144.992 122.436C145.252 120.337 145.614 119.095 146.07 118.71C145.811 120.809 145.441 122.051 144.992 122.436Z" fill="#1A1A1A"/>
</g>
<defs>
<linearGradient id="paint0_linear_312_1041" x1="203.091" y1="107.337" x2="213.512" y2="170.577" gradientUnits="userSpaceOnUse">
<stop stop-color="#4D607A"/>
<stop offset="0.17" stop-color="#455E7B"/>
<stop offset="0.41" stop-color="#305B7F"/>
<stop offset="0.72" stop-color="#0E5785"/>
<stop offset="0.82" stop-color="#005588"/>
</linearGradient>
<radialGradient id="paint1_radial_312_1041" cx="0" cy="0" r="1" gradientUnits="userSpaceOnUse" gradientTransform="translate(213.118 139.77) rotate(29.2585) scale(17.908 17.9008)">
<stop offset="0.45" stop-color="#00FFFF"/>
<stop offset="0.61" stop-color="#00FBFF"/>
<stop offset="0.75" stop-color="#00F0FF"/>
<stop offset="0.89" stop-color="#00DEFF"/>
<stop offset="1" stop-color="#00CAFF"/>
</radialGradient>
<clipPath id="clip0_312_1041">
<rect width="405" height="219" fill="white"/>
</clipPath>
</defs>
</svg>
