<svg width="538" height="317" viewBox="0 0 538 317" fill="none" xmlns="http://www.w3.org/2000/svg">
<path d="M534 44.0061C345.822 -32.4868 102.259 18.0557 4 52.8885V301.595C217.001 224.684 446.084 275.819 534 311V44.0061Z" fill="#D9D9D9" stroke="black" stroke-width="7"/>
<path d="M93.74 81.12V74.64H86.66V71.82H93.74V67.02C88.94 66.74 85.26 65.06 82.7 61.98C80.18 58.86 78.92 54.48 78.92 48.84V45.84L74.06 46.62L80.42 39.54L86.78 46.62L81.92 45.84V48.84C81.92 53.44 82.94 57.04 84.98 59.64C87.06 62.24 89.98 63.7 93.74 64.02V42L88.88 42.78L95.36 35.7L101.84 42.78L96.98 42V64.02C100.74 63.7 103.64 62.24 105.68 59.64C107.76 57.04 108.8 53.44 108.8 48.84V45.84L103.94 46.62L110.3 39.54L116.66 46.62L111.8 45.84V48.84C111.8 54.48 110.52 58.86 107.96 61.98C105.44 65.06 101.78 66.74 96.98 67.02V71.82H104.06V74.64H96.98V81.12H93.74Z" fill="black"/>
<path d="M172.315 81C170.523 81 170.139 80.616 170.139 78.824V34.152C170.139 32.36 170.523 31.976 172.315 31.976H204.699C206.491 31.976 206.875 32.36 206.875 34.152V78.824C206.875 80.616 206.491 81 204.699 81H172.315ZM172.699 80.104H204.315C205.787 80.104 205.979 79.912 205.979 78.44V34.536C205.979 33 205.787 32.872 204.315 32.872H172.699C171.163 32.872 171.035 33 171.035 34.536V78.44C171.035 79.912 171.163 80.104 172.699 80.104ZM171.995 38.952L173.659 34.472H174.683L176.347 38.952H175.323L175.003 37.928H173.339L172.955 38.952H171.995ZM173.595 37.224H174.747L174.171 35.56L173.595 37.224ZM174.171 44.904C173.915 44.328 173.595 43.688 173.019 43.24C172.443 42.792 172.187 42.28 172.187 41.704C172.187 41 172.507 40.68 173.147 40.68C173.531 40.68 173.787 40.936 174.171 41.448C174.491 40.936 174.875 40.68 175.195 40.68C175.835 40.68 176.155 41 176.155 41.704C176.155 42.28 175.899 42.728 175.387 43.24C174.875 43.752 174.427 44.328 174.171 44.904ZM188.507 62.056C188.187 61.288 187.227 60.008 185.755 58.216C184.283 56.424 183.515 55.08 183.515 54.056C183.515 52.456 184.475 51.496 185.947 51.496C187.355 51.496 188.251 52.84 188.443 53.48H188.571C188.699 52.84 189.659 51.496 191.067 51.496C192.539 51.496 193.499 52.456 193.499 54.056C193.499 55.016 192.731 56.424 191.259 58.216C189.787 59.944 188.891 61.224 188.507 62.056ZM201.819 72.296C201.179 72.296 200.859 71.912 200.859 71.272C200.859 70.696 201.051 70.12 201.627 69.672C202.203 69.224 202.587 68.648 202.843 68.072C203.099 68.648 203.547 69.16 204.059 69.672C204.571 70.184 204.827 70.696 204.827 71.272C204.827 71.912 204.507 72.296 203.867 72.296C203.547 72.296 203.163 72.04 202.843 71.528C202.523 72.04 202.139 72.296 201.819 72.296ZM202.331 78.504L200.667 74.024H201.627L202.011 75.048H203.675L203.995 74.024H205.019L203.355 78.504H202.331ZM202.843 77.416L203.419 75.752H202.267L202.843 77.416Z" fill="black"/>
<path d="M356.107 82.664C353.867 82.664 352.139 80.936 352.139 78.696V40.616C352.139 38.376 353.867 36.648 356.107 36.648H382.923C385.163 36.648 386.891 38.376 386.891 40.616V78.696C386.891 80.936 385.163 82.664 382.923 82.664H356.107ZM356.171 81.704H382.923C384.587 81.704 385.931 80.424 385.931 78.696V40.744C385.931 39.016 384.587 37.608 382.923 37.608H356.171C354.443 37.608 353.099 38.952 353.099 40.68V78.696C353.099 80.424 354.443 81.704 356.171 81.704ZM362.635 53.16C359.371 53.16 356.683 50.472 356.683 47.208C356.683 43.944 359.371 41.256 362.635 41.256C365.963 41.256 368.523 43.944 368.523 47.208C368.523 50.472 365.963 53.16 362.635 53.16ZM376.395 53.16C373.195 53.16 370.507 50.472 370.507 47.208C370.507 43.944 373.195 41.256 376.395 41.256C379.723 41.256 382.347 43.944 382.347 47.208C382.347 50.472 379.723 53.16 376.395 53.16ZM362.635 51.368C364.875 51.368 366.795 49.512 366.795 47.208C366.795 44.968 364.875 43.048 362.635 43.048C360.331 43.048 358.475 44.968 358.475 47.208C358.475 49.512 360.331 51.368 362.635 51.368ZM376.395 51.368C378.699 51.368 380.555 49.512 380.555 47.208C380.555 44.968 378.699 43.048 376.395 43.048C374.091 43.048 372.299 44.968 372.299 47.208C372.299 49.512 374.091 51.368 376.395 51.368ZM362.635 50.344C360.779 50.344 359.499 48.936 359.499 47.208C359.499 45.48 360.779 44.072 362.635 44.072C364.491 44.072 365.771 45.352 365.771 47.208C365.771 49.064 364.363 50.344 362.635 50.344ZM376.395 50.344C374.539 50.344 373.323 48.936 373.323 47.208C373.323 45.48 374.539 44.072 376.395 44.072C378.251 44.072 379.531 45.352 379.531 47.208C379.531 49.064 378.123 50.344 376.395 50.344ZM362.635 49C363.915 49 364.491 48.424 364.491 47.208C364.491 46.056 363.915 45.416 362.699 45.416C361.483 45.416 360.843 46.056 360.843 47.208C360.843 48.424 361.419 49 362.635 49ZM376.459 49C377.675 49 378.315 48.424 378.315 47.208C378.315 46.056 377.739 45.416 376.459 45.416C375.243 45.416 374.603 46.056 374.603 47.208C374.603 48.424 375.179 49 376.459 49ZM362.699 47.976C362.123 47.976 361.803 47.72 361.803 47.208C361.803 46.696 362.123 46.44 362.699 46.44C363.211 46.44 363.531 46.696 363.531 47.208C363.531 47.72 363.211 47.976 362.699 47.976ZM376.459 47.976C375.883 47.976 375.627 47.72 375.627 47.208C375.627 46.696 375.883 46.44 376.459 46.44C377.035 46.44 377.291 46.696 377.291 47.208C377.291 47.72 377.035 47.976 376.459 47.976ZM369.483 65.512C366.091 65.512 363.467 62.888 363.467 59.688C363.467 56.424 366.091 53.736 369.483 53.736C372.683 53.736 375.307 56.424 375.307 59.688C375.307 62.888 372.683 65.512 369.483 65.512ZM369.483 63.72C371.723 63.72 373.579 61.864 373.579 59.688C373.579 57.384 371.723 55.528 369.483 55.528C367.115 55.528 365.323 57.384 365.323 59.688C365.323 61.864 367.115 63.72 369.483 63.72ZM369.483 62.696C367.755 62.696 366.283 61.352 366.283 59.688C366.283 57.96 367.755 56.552 369.483 56.552C371.147 56.552 372.555 57.96 372.555 59.688C372.555 61.352 371.147 62.696 369.483 62.696ZM369.483 61.416C370.635 61.416 371.211 60.84 371.211 59.688C371.211 58.408 370.635 57.832 369.483 57.832C368.203 57.832 367.563 58.344 367.563 59.56C367.563 60.84 368.203 61.416 369.483 61.416ZM369.483 60.456C368.907 60.456 368.587 60.136 368.587 59.624C368.587 59.048 368.907 58.792 369.483 58.792C369.931 58.792 370.187 59.048 370.187 59.624C370.187 60.136 369.931 60.456 369.483 60.456ZM362.635 77.928C359.371 77.928 356.683 75.304 356.683 71.976C356.683 68.712 359.371 66.088 362.635 66.088C365.963 66.088 368.523 68.776 368.523 71.976C368.523 75.24 365.963 77.928 362.635 77.928ZM376.395 77.928C373.195 77.928 370.507 75.304 370.507 71.976C370.507 68.712 373.195 66.088 376.395 66.088C379.723 66.088 382.347 68.776 382.347 71.976C382.347 75.24 379.723 77.928 376.395 77.928ZM362.635 76.136C364.875 76.136 366.795 74.28 366.795 71.976C366.795 69.736 364.875 67.816 362.635 67.816C360.331 67.816 358.475 69.736 358.475 71.976C358.475 74.28 360.331 76.136 362.635 76.136ZM376.395 76.136C378.699 76.136 380.555 74.28 380.555 71.976C380.555 69.736 378.699 67.816 376.395 67.816C374.091 67.816 372.299 69.736 372.299 71.976C372.299 74.28 374.091 76.136 376.395 76.136ZM362.635 75.112C360.779 75.112 359.499 73.704 359.499 71.976C359.499 70.312 360.779 68.904 362.635 68.904C364.491 68.904 365.771 70.12 365.771 71.976C365.771 73.896 364.363 75.112 362.635 75.112ZM376.395 75.112C374.539 75.112 373.323 73.704 373.323 71.976C373.323 70.312 374.539 68.904 376.395 68.904C378.251 68.904 379.531 70.12 379.531 71.976C379.531 73.896 378.123 75.112 376.395 75.112ZM362.635 73.768C363.915 73.768 364.491 73.192 364.491 71.976C364.491 70.824 363.915 70.248 362.699 70.248C361.483 70.248 360.843 70.824 360.843 71.976C360.843 73.192 361.419 73.768 362.635 73.768ZM376.459 73.768C377.675 73.768 378.315 73.192 378.315 71.976C378.315 70.824 377.739 70.248 376.459 70.248C375.243 70.248 374.603 70.824 374.603 71.976C374.603 73.192 375.179 73.768 376.459 73.768ZM362.699 72.808C362.123 72.808 361.803 72.552 361.803 71.976C361.803 71.464 362.123 71.208 362.699 71.208C363.211 71.208 363.531 71.464 363.531 71.976C363.531 72.552 363.211 72.808 362.699 72.808ZM376.459 72.808C375.883 72.808 375.627 72.552 375.627 71.976C375.627 71.464 375.883 71.208 376.459 71.208C377.035 71.208 377.291 71.464 377.291 71.976C377.291 72.552 377.035 72.808 376.459 72.808Z" fill="black"/>
<path d="M268.06 84.072C263.58 84.072 259.164 79.72 259.164 75.496C259.164 70.376 264.092 65.576 268.38 64.104C266.844 64.552 265.372 64.744 263.9 64.744C257.948 64.744 252.764 61.288 252.764 55.784C252.764 50.28 256.732 46.568 261.468 46.568C265.244 46.568 269.596 49 272.22 52.328C270.748 50.216 269.532 46.888 269.532 43.496C269.532 38.44 273.052 34.28 278.492 34.28C283.804 34.28 287.324 38.312 287.324 43.496C287.324 46.632 286.3 49.96 284.636 52.328L284.892 52.008C287.644 48.616 291.484 46.568 295.516 46.568C300.124 46.568 304.22 50.152 304.22 55.72C304.22 61.416 298.652 64.744 293.02 64.744C291.036 64.68 289.5 64.424 288.476 64.104C292.892 65.704 297.82 70.184 297.82 75.624C297.82 79.528 293.596 84.072 288.86 84.072C284.636 84.072 281.5 81.256 279.772 76.904C278.876 74.664 278.492 72.872 278.492 71.4C277.532 79.272 273.756 84.072 268.06 84.072ZM274.908 53.352L276.956 52.584C277.34 51.624 277.468 50.792 277.468 50.152C277.468 49.32 276.956 47.72 276.956 47.08C276.956 45.928 277.468 44.904 278.492 44.904C279.516 44.904 280.028 45.928 280.028 47.08C280.028 47.912 279.388 49.32 279.388 50.152C279.388 50.92 279.58 51.752 279.9 52.584L281.948 53.352C283.676 51.624 284.764 48.552 284.764 45.544C284.764 41.512 282.204 38.888 278.492 38.888C274.78 38.888 272.092 41.512 272.092 45.544C272.092 48.552 273.18 51.688 274.908 53.352ZM265.564 63.208C267.292 63.208 268.764 62.888 270.044 62.184V60.008C269.596 59.368 268.316 58.792 266.204 58.6C264.156 58.408 263.068 57.768 263.068 56.68C263.068 55.72 263.836 55.336 264.604 55.336C265.116 55.336 266.012 55.592 267.164 56.296C268.316 57 269.532 57.32 270.684 57.32H270.94L272.22 55.528C270.94 52.904 267.036 50.024 263.26 50.024C259.676 50.024 257.18 52.968 257.18 56.552C257.18 60.392 260.572 63.208 265.564 63.208ZM291.356 63.208C296.348 63.208 299.804 60.392 299.804 56.552C299.804 52.84 297.18 50.024 293.66 50.024C289.756 50.024 285.852 52.968 284.636 55.528L286.044 57.32H286.3L286.812 57.256C287.836 57.128 288.86 56.936 289.884 56.296C290.908 55.656 291.676 55.336 292.252 55.336C293.276 55.336 293.788 55.784 293.788 56.744C293.788 57.832 292.956 58.408 291.292 58.472C289.628 58.536 288.156 59.048 286.94 60.008L286.812 62.184C288.092 62.888 289.564 63.208 291.356 63.208ZM269.084 79.976C273.372 79.976 276.636 74.216 276.636 70.248V69.608L276.572 69.096L274.524 68.456C273.052 69.352 272.092 70.568 271.708 71.976C271.324 73.448 270.62 74.152 269.596 74.152C268.828 74.152 268.188 73.384 268.188 72.68C268.188 71.784 268.764 71.016 269.852 70.248C270.94 69.48 271.708 68.328 272.092 66.792L270.94 65C267.548 65.64 262.556 69.288 262.556 73.704C262.556 77.032 265.82 79.976 269.084 79.976ZM287.516 79.976C290.844 79.976 294.044 76.968 294.044 73.704C294.044 69.224 289.116 65.768 285.66 65L284.508 66.792C284.828 68.264 285.596 69.352 286.684 70.248C287.772 71.144 288.348 71.976 288.348 72.808C288.348 73.512 287.708 74.152 287.004 74.152C286.108 74.152 285.34 73.448 284.828 71.976C284.316 70.568 283.356 69.416 282.076 68.456L280.028 69.096L279.964 69.608V70.248C279.964 72.616 281.5 76.584 283.804 78.504C284.956 79.464 286.172 79.976 287.516 79.976Z" fill="black"/>
<path d="M456.594 102.92C450.819 102.92 447.024 99.73 447.024 94.78C447.024 91.095 449.774 88.18 453.184 88.18C456.374 88.18 458.354 89.995 458.354 92.91C458.354 95.605 456.319 97.2 454.944 97.2C453.899 97.2 453.074 97.035 452.524 96.65C452.524 99.455 454.229 100.94 457.254 100.94C462.644 100.94 466.494 96.375 466.494 84.99V82.625L464.569 82.735L458.244 83.01C449.224 83.01 442.734 78.665 442.734 70.305C442.734 62.33 449.059 58.15 456.484 58.15H466.494V56.72C466.494 55.675 466.329 54.135 466.054 52.21L469.794 51.33C469.684 52.1 469.519 54.355 469.244 58.15H478.264L477.824 61.12C473.039 60.68 470.124 60.46 469.134 60.46L469.024 66.73V81.8C469.024 92.635 467.649 97.695 463.909 100.665C462.039 102.15 459.619 102.92 456.594 102.92ZM466.494 80.645V60.46H461.544C461.269 62.935 461.104 65.96 461.104 69.59C461.104 73.11 461.324 76.465 461.764 79.71C462.919 80.315 464.459 80.645 466.494 80.645Z" fill="black"/>
<path d="M91.16 223C91.16 219.1 92.3 215.56 93.5 213.88C94.1 213.04 95.42 211.54 97.58 209.38C100.16 206.8 101.12 205.42 101.12 203.74C101.12 203.44 101.06 202.9 101 202.66H100.76C100.64 203.32 99.5 204.82 97.88 205.3C97.1 205.54 95.78 205.72 93.92 205.9C92.96 206.56 91.88 207.64 90.68 209.26C89.48 210.82 88.4 211.6 87.44 211.6C85.34 211.6 84.08 211.18 83.3 209.92L80.6 205.66C81.14 204.64 81.74 203.02 82.46 200.98C83.18 198.88 83.96 197.44 84.62 196.6C85.28 195.76 85.88 194.44 86.36 192.7C87.32 189.22 87.74 188.02 91.1 186.16C91.46 185.02 91.64 183.76 91.64 182.5C91.64 181.24 91.46 179.98 91.16 178.72H92.6C94.7 179.5 96.02 180.94 96.44 182.92H96.8C97.1 182.2 97.28 180.16 97.28 179.02C97.28 178.3 97.22 177.52 97.16 176.98H99.26C101.66 178.3 103.22 181.12 103.22 184.18C110.6 186.28 117.44 193.72 119.72 204.76C120.86 210.28 121.4 216.16 121.4 222.46V223H91.16ZM113.36 218.98H117.32C117.32 209.62 115.94 200.56 112.34 195.46C110.54 192.88 108.74 190.96 106.82 189.76L106.28 190.12C111.26 194.38 113.78 198.94 113.78 211.12C113.78 214.12 113.66 216.76 113.36 218.98ZM92.48 193.36C93.02 193.36 93.56 193.12 93.98 192.76C94.4 192.4 94.88 192.16 95.48 192.16L95.96 192.22V191.68L94.28 191.2C93.8 191.08 93.26 190.96 92.78 190.96C91.46 190.96 90.56 191.5 90.56 192.34V192.76L90.62 193C90.92 193.24 91.52 193.36 92.48 193.36ZM86.48 206.26C86.72 205.18 87.56 203.5 89.18 202.36L88.94 202.06C86.72 202.18 85.28 203.32 84.86 204.94C85.16 205.6 86 206.2 86.48 206.26Z" fill="black"/>
<path d="M179.353 198.2C176.953 198.2 174.753 197.62 172.753 196.46C170.753 195.26 169.153 193.66 167.953 191.66C166.793 189.66 166.213 187.46 166.213 185.06C166.213 182.62 166.793 180.42 167.953 178.46C169.153 176.46 170.753 174.88 172.753 173.72C174.753 172.52 176.953 171.92 179.353 171.92C181.793 171.92 183.993 172.52 185.953 173.72C187.953 174.88 189.533 176.46 190.693 178.46C191.893 180.42 192.493 182.62 192.493 185.06C192.493 187.46 191.893 189.66 190.693 191.66C189.533 193.66 187.953 195.26 185.953 196.46C183.993 197.62 181.793 198.2 179.353 198.2ZM179.353 195.2C181.233 195.2 182.933 194.74 184.453 193.82C185.973 192.9 187.193 191.68 188.113 190.16C189.033 188.6 189.493 186.9 189.493 185.06C189.493 183.18 189.033 181.48 188.113 179.96C187.193 178.44 185.973 177.22 184.453 176.3C182.933 175.38 181.233 174.92 179.353 174.92C177.513 174.92 175.813 175.38 174.253 176.3C172.733 177.22 171.513 178.44 170.593 179.96C169.673 181.48 169.213 183.18 169.213 185.06C169.213 186.9 169.673 188.6 170.593 190.16C171.513 191.68 172.733 192.9 174.253 193.82C175.813 194.74 177.513 195.2 179.353 195.2ZM177.913 206V163.16H180.793V206H177.913ZM180.133 186.32V183.74H203.473V186.32H180.133ZM202.813 191.54V178.46L208.753 185L202.813 191.54Z" fill="black"/>
<path d="M356.494 218C350.542 218 346.702 214.224 346.702 208.336C346.702 202.128 350.414 198.48 357.71 198.48H361.486V191.44H357.71C350.414 191.44 346.702 187.792 346.702 181.584C346.702 175.696 350.542 171.92 356.494 171.92C363.662 171.92 365.966 176.4 365.966 181.776V187.088H373.006V181.776C373.006 176.4 375.31 171.92 382.478 171.92C388.43 171.92 392.27 175.696 392.27 181.584C392.27 187.792 388.558 191.44 381.262 191.44H377.486V198.48H381.262C388.558 198.48 392.27 202.128 392.27 208.336C392.27 214.224 388.43 218 382.478 218C375.31 218 373.006 213.52 373.006 208.144V202.832H365.966V208.144C365.966 213.52 363.662 218 356.494 218ZM377.486 181.648V187.088H381.262C385.806 187.088 387.726 185.232 387.726 181.584C387.726 177.808 385.486 176.336 382.478 176.336C379.15 176.336 377.486 178.384 377.486 181.648ZM357.71 187.088H361.486V181.648C361.486 178.384 359.822 176.336 356.494 176.336C353.486 176.336 351.246 177.808 351.246 181.584C351.246 185.232 353.166 187.088 357.71 187.088ZM365.966 198.48H373.006V191.44H365.966V198.48ZM356.494 213.584C359.822 213.584 361.486 211.536 361.486 208.272V202.832H357.71C353.166 202.832 351.246 204.688 351.246 208.336C351.246 212.112 353.486 213.584 356.494 213.584ZM377.486 208.272C377.486 211.536 379.15 213.584 382.478 213.584C385.486 213.584 387.726 212.112 387.726 208.336C387.726 204.688 385.806 202.832 381.262 202.832H377.486V208.272Z" fill="black"/>
<path d="M279.035 180.92L278.435 179.6L280.175 176.18C280.715 175.16 281.015 174.26 281.315 173.36C278.795 172.52 276.575 171.26 274.595 169.52L272.315 167.48C269.075 164.54 266.675 163.04 264.995 163.04C262.595 163.04 261.275 164.3 261.275 166.64C261.275 168.26 262.175 169.28 263.315 169.28C264.215 169.28 264.515 169.16 265.355 168.56C265.115 170.78 263.735 172.16 261.515 172.16C259.295 172.16 258.035 170.18 258.035 167.84C258.035 163.82 260.735 160.76 265.355 160.76C267.875 160.76 271.295 162.5 275.555 165.92C275.315 165.14 275.195 164.18 275.195 163.04C275.195 160.7 276.935 158.84 279.755 158.84C283.115 158.84 285.395 161.6 285.395 165.44C285.395 166.94 284.915 168.92 283.955 171.32C285.095 171.86 287.375 172.28 288.875 172.28C291.995 172.28 293.435 170.78 293.435 169.04C293.435 168.38 293.135 167.78 292.535 167.36C291.935 166.94 291.635 166.22 291.635 165.32C291.635 163.34 293.135 161.84 295.235 161.84C297.395 161.84 298.955 163.7 298.955 166.04C298.955 167.96 297.455 170.96 294.335 172.94C292.715 173.96 290.795 174.44 288.515 174.44C286.475 174.44 284.615 174.26 282.875 173.84C282.215 175.58 280.955 177.92 279.035 180.92ZM282.275 170.48C282.635 168.86 282.875 167.42 282.875 166.16C282.875 163.7 281.495 161.72 279.515 161.72C277.655 161.72 276.755 162.74 276.755 164.36C276.755 164.96 276.815 165.86 276.995 167C277.955 167.84 278.855 168.5 279.815 169.04L282.275 170.48ZM282.875 208.28C277.115 208.28 269.615 203.96 265.595 197.72C263.615 194.66 262.595 191.36 262.595 187.88C262.595 180.92 265.715 175.4 271.355 175.4C275.555 175.4 277.835 177.86 278.075 183.56H279.035C280.115 179.6 283.115 176.96 287.315 176.96C292.055 176.96 294.875 180.32 294.875 185.6C294.875 188.42 293.255 191.6 288.455 194.72C283.595 197.9 280.715 199.7 280.715 202.64C280.715 204.56 282.635 206.12 284.555 206.12C286.715 206.12 288.035 204.86 288.035 203C288.035 202.22 287.675 201.2 286.955 199.88C287.675 198.44 288.635 197.72 289.835 197.72C291.695 197.72 292.715 198.8 292.715 200.84C292.715 204.8 289.295 208.28 282.875 208.28Z" fill="black"/>
<path d="M189.031 125.72C187.303 125.72 185.779 125.396 184.459 124.748C183.163 124.076 181.975 123.116 180.895 121.868L181.471 121.22C182.407 122.252 183.415 123.02 184.495 123.524C185.575 124.028 186.787 124.28 188.131 124.28C189.691 124.28 190.975 123.788 191.983 122.804C193.015 121.796 193.531 120.308 193.531 118.34C193.531 117.14 193.303 116.12 192.847 115.28C192.391 114.44 191.803 113.816 191.083 113.408C190.363 112.976 189.619 112.76 188.851 112.76C187.843 112.76 187.099 112.796 186.619 112.868C186.139 112.94 185.443 113.084 184.531 113.3L183.595 111.788L193.351 102.68H186.691C185.227 102.68 184.111 102.992 183.343 103.616C182.575 104.24 182.191 105.188 182.191 106.46H181.471V104.12C181.471 102.2 182.491 101.24 184.531 101.24H195.979V102.68L186.331 111.68C187.267 111.44 188.347 111.32 189.571 111.32C190.531 111.32 191.587 111.524 192.739 111.932C193.891 112.316 194.911 113.036 195.799 114.092C196.687 115.124 197.131 116.54 197.131 118.34C197.131 120.26 196.675 121.772 195.763 122.876C194.875 123.98 193.819 124.724 192.595 125.108C191.371 125.516 190.183 125.72 189.031 125.72Z" fill="black"/>
<path d="M94.6306 102.68C93.1666 102.68 92.0506 102.992 91.2826 103.616C90.5146 104.24 90.1306 105.188 90.1306 106.46H89.4106V104.12C89.4106 102.2 90.4306 101.24 92.4706 101.24H105.071V102.68L96.0706 125H92.8306L101.831 102.68H94.6306Z" fill="black"/>
<path d="M179.504 244.6C177.504 244.6 175.854 244.18 174.554 243.34C173.254 242.48 172.604 241.2 172.604 239.5C172.604 238.14 173.034 237.04 173.894 236.2C174.774 235.34 175.944 234.59 177.404 233.95C176.104 233.19 175.104 232.43 174.404 231.67C173.704 230.89 173.354 229.9 173.354 228.7C173.354 226.88 173.914 225.58 175.034 224.8C176.174 224 177.664 223.6 179.504 223.6C181.324 223.6 182.804 223.98 183.944 224.74C185.084 225.5 185.654 226.72 185.654 228.4C185.654 229.5 185.304 230.47 184.604 231.31C183.904 232.13 183.004 232.81 181.904 233.35C182.864 233.93 183.644 234.46 184.244 234.94C184.864 235.42 185.374 236.01 185.774 236.71C186.194 237.41 186.404 238.24 186.404 239.2C186.404 241.04 185.754 242.4 184.454 243.28C183.174 244.16 181.524 244.6 179.504 244.6ZM180.554 232.6C181.274 232.08 181.824 231.51 182.204 230.89C182.604 230.25 182.804 229.42 182.804 228.4C182.804 227.1 182.484 226.18 181.844 225.64C181.204 225.08 180.424 224.8 179.504 224.8C178.604 224.8 177.824 225.06 177.164 225.58C176.524 226.1 176.204 226.94 176.204 228.1C176.204 229.74 177.654 231.24 180.554 232.6ZM179.504 243.4C180.624 243.4 181.574 243.09 182.354 242.47C183.154 241.83 183.554 240.94 183.554 239.8C183.554 239 183.344 238.29 182.924 237.67C182.504 237.05 181.964 236.52 181.304 236.08C180.664 235.62 179.814 235.11 178.754 234.55C177.714 235.07 176.904 235.7 176.324 236.44C175.744 237.16 175.454 238.18 175.454 239.5C175.454 240.78 175.844 241.75 176.624 242.41C177.404 243.07 178.364 243.4 179.504 243.4Z" fill="black"/>
<path d="M98.9034 258.6C96.5434 258.6 94.8034 257.73 93.6834 255.99C92.5634 254.25 92.0034 251.62 92.0034 248.1C92.0034 244.6 92.6134 241.98 93.8334 240.24C95.0734 238.48 96.9634 237.6 99.5034 237.6C101.003 237.6 102.553 237.9 104.153 238.5L104.003 239.1C102.763 238.9 101.463 238.8 100.103 238.8C98.3434 238.8 97.0234 239.48 96.1434 240.84C95.2834 242.18 94.8534 244.05 94.8534 246.45C95.4534 246.03 96.1034 245.7 96.8034 245.46C97.5234 245.22 98.3734 245.1 99.3534 245.1C101.393 245.1 102.903 245.7 103.883 246.9C104.863 248.08 105.353 249.73 105.353 251.85C105.353 253.05 105.113 254.16 104.633 255.18C104.153 256.2 103.423 257.03 102.443 257.67C101.463 258.29 100.283 258.6 98.9034 258.6ZM98.9034 257.4C100.003 257.4 100.873 256.85 101.513 255.75C102.173 254.65 102.503 253.35 102.503 251.85C102.503 248.15 101.153 246.3 98.4534 246.3C97.7334 246.3 97.0934 246.43 96.5334 246.69C95.9734 246.93 95.4134 247.3 94.8534 247.8C94.8534 251.1 95.2134 253.53 95.9334 255.09C96.6534 256.63 97.6434 257.4 98.9034 257.4Z" fill="black"/>
<path d="M281.452 238.9H271.852V237.7L281.752 224.2H284.152V237.7H286.852V238.9H284.152V244H281.452V238.9ZM281.452 237.7V227.08L273.652 237.7H281.452Z" fill="black"/>
<path d="M367.756 250.6C366.336 250.6 365.126 250.34 364.126 249.82C363.126 249.3 362.186 248.51 361.306 247.45L361.876 246.94C362.636 247.78 363.456 248.4 364.336 248.8C365.216 249.2 366.206 249.4 367.306 249.4C368.606 249.4 369.676 248.99 370.516 248.17C371.376 247.33 371.806 246.09 371.806 244.45C371.806 242.91 371.386 241.75 370.546 240.97C369.726 240.19 368.546 239.8 367.006 239.8C366.106 239.8 365.256 239.85 364.456 239.95L363.256 240.1L362.056 238.9L362.356 230.2H373.606V231.4H364.816L364.546 238.75L365.506 238.69C366.646 238.63 367.346 238.6 367.606 238.6C369.526 238.6 371.206 239.04 372.646 239.92C374.086 240.78 374.806 242.29 374.806 244.45C374.806 246.03 374.416 247.28 373.636 248.2C372.876 249.1 371.966 249.72 370.906 250.06C369.846 250.42 368.796 250.6 367.756 250.6Z" fill="black"/>
<path d="M277.774 141.72C275.974 141.72 274.114 141.36 272.194 140.64L272.374 139.92C273.862 140.16 275.422 140.28 277.054 140.28C279.166 140.28 280.738 139.476 281.77 137.868C282.826 136.236 283.354 133.98 283.354 131.1C282.634 131.604 281.842 132 280.978 132.288C280.138 132.576 279.13 132.72 277.954 132.72C275.506 132.72 273.694 132.012 272.518 130.596C271.342 129.156 270.754 127.164 270.754 124.62C270.754 123.18 271.042 121.848 271.618 120.624C272.194 119.4 273.07 118.416 274.246 117.672C275.422 116.904 276.838 116.52 278.494 116.52C281.326 116.52 283.414 117.576 284.758 119.688C286.102 121.776 286.774 124.92 286.774 129.12C286.774 133.32 286.03 136.476 284.542 138.588C283.078 140.676 280.822 141.72 277.774 141.72ZM279.034 131.28C279.898 131.28 280.666 131.136 281.338 130.848C282.01 130.536 282.682 130.08 283.354 129.48C283.354 125.52 282.922 122.616 282.058 120.768C281.194 118.896 280.006 117.96 278.494 117.96C277.174 117.96 276.118 118.62 275.326 119.94C274.558 121.26 274.174 122.82 274.174 124.62C274.174 129.06 275.794 131.28 279.034 131.28Z" fill="black"/>
<path d="M361.931 138.2C363.203 136.976 364.175 136.052 364.847 135.428C367.223 133.148 368.963 131.408 370.067 130.208C371.171 129.008 372.035 127.772 372.659 126.5C373.307 125.228 373.631 123.848 373.631 122.36C373.631 120.632 373.175 119.3 372.263 118.364C371.375 117.428 370.271 116.96 368.951 116.96C367.487 116.96 366.215 117.488 365.135 118.544C364.079 119.6 363.371 121.112 363.011 123.08H362.291C362.291 121.88 362.339 120.932 362.435 120.236C362.531 119.516 362.771 118.904 363.155 118.4C363.827 117.584 364.787 116.9 366.035 116.348C367.307 115.796 368.639 115.52 370.031 115.52C371.927 115.52 373.595 116.024 375.035 117.032C376.499 118.016 377.231 119.792 377.231 122.36C377.231 123.872 376.871 125.288 376.151 126.608C375.455 127.928 374.543 129.164 373.415 130.316C372.311 131.444 370.739 132.908 368.699 134.708C366.587 136.604 365.171 137.888 364.451 138.56H372.551C374.015 138.56 375.131 138.248 375.899 137.624C376.667 137 377.051 136.052 377.051 134.78H377.771V137.12C377.771 139.04 376.751 140 374.711 140H361.931V138.2Z" fill="black"/>
<path d="M460.66 120.84L457.168 123.108L456.52 122.28L462.1 117.24H463.9V141H460.66V120.84Z" fill="black"/>
</svg>
