<svg width="1158" height="535" viewBox="0 0 1158 535" fill="none" xmlns="http://www.w3.org/2000/svg">
<g clip-path="url(#clip0_758_260)">
<rect width="1158" height="535" fill="white"/>
<g filter="url(#filter0_i_758_260)">
<path fill-rule="evenodd" clip-rule="evenodd" d="M597.063 0H0V535H1158V262.13C1158 261.926 1158 261.722 1158 261.518V0H597.063Z" fill="#121212"/>
</g>
<path d="M236.898 167.319L237.444 177H235.736L235.554 172.541C235.54 172.168 235.531 171.822 235.526 171.505C235.526 171.183 235.528 170.88 235.533 170.595C235.538 170.306 235.545 170.028 235.554 169.762C235.568 169.496 235.584 169.235 235.603 168.978L234.322 175.32H232.768L231.396 168.978C231.415 169.225 231.431 169.484 231.445 169.755C231.459 170.026 231.468 170.308 231.473 170.602C231.482 170.896 231.487 171.206 231.487 171.533C231.492 171.86 231.487 172.2 231.473 172.555L231.34 177H229.66L230.206 167.319H232.334L233.58 173.71L234.77 167.319H236.898ZM243.136 169.587V175.691H245.089V177H239.118V175.691H241.288V170.896H239.188V169.587H243.136ZM241.939 165.849C242.28 165.849 242.555 165.954 242.765 166.164C242.98 166.374 243.087 166.635 243.087 166.948C243.087 167.261 242.98 167.524 242.765 167.739C242.555 167.949 242.28 168.054 241.939 168.054C241.599 168.054 241.321 167.949 241.106 167.739C240.892 167.524 240.784 167.261 240.784 166.948C240.784 166.635 240.892 166.374 241.106 166.164C241.321 165.954 241.599 165.849 241.939 165.849ZM247.338 177V175.719H248.381V170.861H247.338V169.587H249.788L250.131 171.288C250.402 170.658 250.742 170.184 251.153 169.867C251.564 169.545 252.079 169.384 252.7 169.384C252.938 169.384 253.148 169.403 253.33 169.44C253.517 169.477 253.694 169.526 253.862 169.587L253.309 171.141C253.164 171.104 253.027 171.076 252.896 171.057C252.765 171.034 252.618 171.022 252.455 171.022C251.942 171.022 251.494 171.223 251.111 171.624C250.733 172.021 250.439 172.56 250.229 173.241V175.719H251.706V177H247.338ZM252.301 172.478V170.511L252.553 169.587H253.862L253.533 172.478H252.301ZM257.237 173.857C257.275 174.319 257.38 174.695 257.552 174.984C257.73 175.273 257.956 175.486 258.231 175.621C258.507 175.756 258.812 175.824 259.148 175.824C259.503 175.824 259.837 175.768 260.149 175.656C260.462 175.544 260.77 175.388 261.073 175.187L261.843 176.244C261.498 176.533 261.085 176.767 260.604 176.944C260.128 177.121 259.603 177.21 259.029 177.21C258.227 177.21 257.55 177.044 256.999 176.713C256.453 176.382 256.04 175.922 255.76 175.334C255.48 174.746 255.34 174.069 255.34 173.304C255.34 172.567 255.478 171.902 255.753 171.309C256.029 170.716 256.425 170.247 256.943 169.902C257.461 169.552 258.087 169.377 258.819 169.377C259.501 169.377 260.089 169.526 260.583 169.825C261.078 170.124 261.461 170.553 261.731 171.113C262.002 171.668 262.137 172.338 262.137 173.122C262.137 173.248 262.133 173.376 262.123 173.507C262.119 173.638 262.112 173.754 262.102 173.857H257.237ZM258.826 170.679C258.378 170.679 258.01 170.84 257.72 171.162C257.436 171.479 257.268 171.983 257.216 172.674H260.338C260.329 172.049 260.198 171.561 259.946 171.211C259.699 170.856 259.326 170.679 258.826 170.679ZM267.585 166.626V174.844C267.585 175.166 267.678 175.395 267.865 175.53C268.056 175.665 268.313 175.733 268.635 175.733C268.836 175.733 269.029 175.712 269.216 175.67C269.403 175.623 269.58 175.567 269.748 175.502L270.203 176.762C269.97 176.879 269.685 176.981 269.349 177.07C269.018 177.163 268.633 177.21 268.194 177.21C267.387 177.21 266.775 176.979 266.36 176.517C265.945 176.055 265.737 175.432 265.737 174.648V167.935H263.518V166.626H267.585ZM275.98 166.626V174.844C275.98 175.166 276.073 175.395 276.26 175.53C276.451 175.665 276.708 175.733 277.03 175.733C277.23 175.733 277.424 175.712 277.611 175.67C277.797 175.623 277.975 175.567 278.143 175.502L278.598 176.762C278.364 176.879 278.08 176.981 277.744 177.07C277.412 177.163 277.027 177.21 276.589 177.21C275.781 177.21 275.17 176.979 274.755 176.517C274.339 176.055 274.132 175.432 274.132 174.648V167.935H271.913V166.626H275.98ZM282.421 173.857C282.458 174.319 282.563 174.695 282.736 174.984C282.913 175.273 283.14 175.486 283.415 175.621C283.69 175.756 283.996 175.824 284.332 175.824C284.687 175.824 285.02 175.768 285.333 175.656C285.646 175.544 285.954 175.388 286.257 175.187L287.027 176.244C286.682 176.533 286.269 176.767 285.788 176.944C285.312 177.121 284.787 177.21 284.213 177.21C283.41 177.21 282.734 177.044 282.183 176.713C281.637 176.382 281.224 175.922 280.944 175.334C280.664 174.746 280.524 174.069 280.524 173.304C280.524 172.567 280.662 171.902 280.937 171.309C281.212 170.716 281.609 170.247 282.127 169.902C282.645 169.552 283.27 169.377 284.003 169.377C284.684 169.377 285.272 169.526 285.767 169.825C286.262 170.124 286.644 170.553 286.915 171.113C287.186 171.668 287.321 172.338 287.321 173.122C287.321 173.248 287.316 173.376 287.307 173.507C287.302 173.638 287.295 173.754 287.286 173.857H282.421ZM284.01 170.679C283.562 170.679 283.193 170.84 282.904 171.162C282.619 171.479 282.451 171.983 282.4 172.674H285.522C285.513 172.049 285.382 171.561 285.13 171.211C284.883 170.856 284.509 170.679 284.01 170.679ZM304.306 174.221C304.306 174.809 304.154 175.327 303.851 175.775C303.552 176.223 303.121 176.575 302.556 176.832C301.991 177.084 301.308 177.21 300.505 177.21C299.665 177.21 298.944 177.086 298.342 176.839C297.74 176.587 297.236 176.265 296.83 175.873L297.838 174.746C298.188 175.059 298.58 175.304 299.014 175.481C299.448 175.658 299.936 175.747 300.477 175.747C300.822 175.747 301.133 175.693 301.408 175.586C301.688 175.479 301.907 175.322 302.066 175.117C302.229 174.907 302.311 174.65 302.311 174.347C302.311 174.081 302.255 173.857 302.143 173.675C302.031 173.493 301.837 173.33 301.562 173.185C301.291 173.04 300.913 172.896 300.428 172.751C299.714 172.532 299.126 172.291 298.664 172.03C298.202 171.764 297.859 171.451 297.635 171.092C297.411 170.728 297.299 170.299 297.299 169.804C297.299 169.249 297.453 168.77 297.761 168.369C298.069 167.963 298.484 167.653 299.007 167.438C299.534 167.219 300.122 167.109 300.771 167.109C301.49 167.109 302.122 167.214 302.668 167.424C303.214 167.629 303.695 167.923 304.11 168.306L303.151 169.391C302.82 169.106 302.46 168.896 302.073 168.761C301.69 168.626 301.301 168.558 300.904 168.558C300.591 168.558 300.311 168.6 300.064 168.684C299.821 168.768 299.63 168.892 299.49 169.055C299.35 169.218 299.28 169.426 299.28 169.678C299.28 169.907 299.343 170.103 299.469 170.266C299.6 170.425 299.821 170.574 300.134 170.714C300.447 170.849 300.876 171.003 301.422 171.176C301.996 171.349 302.498 171.556 302.927 171.799C303.361 172.042 303.699 172.357 303.942 172.744C304.185 173.127 304.306 173.619 304.306 174.221ZM310.293 169.587V175.691H312.246V177H306.275V175.691H308.445V170.896H306.345V169.587H310.293ZM309.096 165.849C309.436 165.849 309.712 165.954 309.922 166.164C310.136 166.374 310.244 166.635 310.244 166.948C310.244 167.261 310.136 167.524 309.922 167.739C309.712 167.949 309.436 168.054 309.096 168.054C308.755 168.054 308.477 167.949 308.263 167.739C308.048 167.524 307.941 167.261 307.941 166.948C307.941 166.635 308.048 166.374 308.263 166.164C308.477 165.954 308.755 165.849 309.096 165.849ZM314.424 177V169.587H316.034L316.167 170.504C316.485 170.131 316.842 169.851 317.238 169.664C317.635 169.473 318.062 169.377 318.519 169.377C319.187 169.377 319.695 169.571 320.045 169.958C320.395 170.341 320.57 170.88 320.57 171.575V177H318.722V172.296C318.722 171.923 318.699 171.624 318.652 171.4C318.606 171.171 318.517 171.008 318.386 170.91C318.256 170.807 318.067 170.756 317.819 170.756C317.619 170.756 317.425 170.8 317.238 170.889C317.056 170.978 316.884 171.097 316.72 171.246C316.562 171.395 316.412 171.561 316.272 171.743V177H314.424ZM324.394 173.857C324.431 174.319 324.536 174.695 324.709 174.984C324.886 175.273 325.112 175.486 325.388 175.621C325.663 175.756 325.969 175.824 326.305 175.824C326.659 175.824 326.993 175.768 327.306 175.656C327.618 175.544 327.926 175.388 328.23 175.187L329 176.244C328.654 176.533 328.241 176.767 327.761 176.944C327.285 177.121 326.76 177.21 326.186 177.21C325.383 177.21 324.706 177.044 324.156 176.713C323.61 176.382 323.197 175.922 322.917 175.334C322.637 174.746 322.497 174.069 322.497 173.304C322.497 172.567 322.634 171.902 322.91 171.309C323.185 170.716 323.582 170.247 324.1 169.902C324.618 169.552 325.243 169.377 325.976 169.377C326.657 169.377 327.245 169.526 327.74 169.825C328.234 170.124 328.617 170.553 328.888 171.113C329.158 171.668 329.294 172.338 329.294 173.122C329.294 173.248 329.289 173.376 329.28 173.507C329.275 173.638 329.268 173.754 329.259 173.857H324.394ZM325.983 170.679C325.535 170.679 325.166 170.84 324.877 171.162C324.592 171.479 324.424 171.983 324.373 172.674H327.495C327.485 172.049 327.355 171.561 327.103 171.211C326.855 170.856 326.482 170.679 325.983 170.679Z" fill="white"/>
<path d="M386.42 177V167.319H388.338V175.446H392.608L392.405 177H386.42ZM396.277 169.587V174.725C396.277 175.126 396.356 175.409 396.515 175.572C396.674 175.735 396.905 175.817 397.208 175.817C397.497 175.817 397.78 175.731 398.055 175.558C398.33 175.381 398.554 175.157 398.727 174.886V169.587H400.575V177H398.965L398.867 176.09C398.601 176.454 398.26 176.732 397.845 176.923C397.43 177.114 397 177.21 396.557 177.21C395.843 177.21 395.309 177.009 394.954 176.608C394.604 176.202 394.429 175.649 394.429 174.949V169.587H396.277ZM407.087 169.587V175.691H409.04V177H403.069V175.691H405.239V170.896H403.139V169.587H407.087ZM406.996 165.499L407.745 166.934L404.574 168.201L404.056 167.249L406.996 165.499ZM414.039 175.845C414.473 175.845 414.821 175.77 415.082 175.621C415.348 175.467 415.481 175.252 415.481 174.977C415.481 174.795 415.437 174.641 415.348 174.515C415.264 174.389 415.096 174.272 414.844 174.165C414.592 174.053 414.214 173.929 413.71 173.794C413.234 173.673 412.816 173.523 412.457 173.346C412.102 173.164 411.825 172.931 411.624 172.646C411.428 172.361 411.33 172.002 411.33 171.568C411.33 171.134 411.451 170.754 411.694 170.427C411.937 170.096 412.287 169.839 412.744 169.657C413.206 169.47 413.761 169.377 414.41 169.377C415.045 169.377 415.6 169.461 416.076 169.629C416.552 169.792 416.96 169.998 417.301 170.245L416.545 171.372C416.246 171.181 415.922 171.027 415.572 170.91C415.227 170.789 414.853 170.728 414.452 170.728C414.018 170.728 413.701 170.791 413.5 170.917C413.304 171.043 413.206 171.218 413.206 171.442C413.206 171.601 413.255 171.736 413.353 171.848C413.456 171.955 413.638 172.06 413.899 172.163C414.165 172.261 414.543 172.38 415.033 172.52C415.514 172.651 415.931 172.805 416.286 172.982C416.645 173.159 416.923 173.395 417.119 173.689C417.315 173.983 417.413 174.368 417.413 174.844C417.413 175.381 417.257 175.824 416.944 176.174C416.631 176.524 416.218 176.785 415.705 176.958C415.196 177.126 414.643 177.21 414.046 177.21C413.346 177.21 412.735 177.11 412.212 176.909C411.689 176.708 411.246 176.449 410.882 176.132L411.841 175.054C412.13 175.283 412.459 175.472 412.828 175.621C413.201 175.77 413.605 175.845 414.039 175.845ZM430.457 168.733V171.582H433.992V172.996H430.457V177H428.539V167.319H434.671L434.468 168.733H430.457ZM439.482 169.377C440.219 169.377 440.844 169.538 441.358 169.86C441.871 170.182 442.261 170.637 442.527 171.225C442.797 171.808 442.933 172.492 442.933 173.276C442.933 174.079 442.797 174.774 442.527 175.362C442.256 175.95 441.864 176.405 441.351 176.727C440.837 177.049 440.212 177.21 439.475 177.21C438.742 177.21 438.117 177.054 437.599 176.741C437.085 176.424 436.693 175.973 436.423 175.39C436.152 174.802 436.017 174.102 436.017 173.29C436.017 172.515 436.152 171.834 436.423 171.246C436.693 170.658 437.088 170.201 437.606 169.874C438.124 169.543 438.749 169.377 439.482 169.377ZM439.482 170.77C438.964 170.77 438.576 170.973 438.32 171.379C438.068 171.785 437.942 172.422 437.942 173.29C437.942 174.167 438.068 174.809 438.32 175.215C438.572 175.616 438.957 175.817 439.475 175.817C439.993 175.817 440.378 175.616 440.63 175.215C440.882 174.809 441.008 174.163 441.008 173.276C441.008 172.413 440.882 171.78 440.63 171.379C440.378 170.973 439.995 170.77 439.482 170.77ZM444.796 177V169.587H446.406L446.539 170.504C446.857 170.131 447.214 169.851 447.61 169.664C448.007 169.473 448.434 169.377 448.891 169.377C449.559 169.377 450.067 169.571 450.417 169.958C450.767 170.341 450.942 170.88 450.942 171.575V177H449.094V172.296C449.094 171.923 449.071 171.624 449.024 171.4C448.978 171.171 448.889 171.008 448.758 170.91C448.628 170.807 448.439 170.756 448.191 170.756C447.991 170.756 447.797 170.8 447.61 170.889C447.428 170.978 447.256 171.097 447.092 171.246C446.934 171.395 446.784 171.561 446.644 171.743V177H444.796ZM459.589 176.587C459.313 176.769 458.98 176.918 458.588 177.035C458.196 177.152 457.771 177.21 457.314 177.21C456.408 177.21 455.727 176.977 455.27 176.51C454.812 176.039 454.584 175.413 454.584 174.634V170.896H452.974V169.587H454.584V167.956L456.432 167.732V169.587H458.882L458.693 170.896H456.432V174.627C456.432 175.01 456.525 175.29 456.712 175.467C456.898 175.644 457.199 175.733 457.615 175.733C457.881 175.733 458.123 175.703 458.343 175.642C458.567 175.577 458.77 175.495 458.952 175.397L459.589 176.587ZM465.848 169.587V175.691H467.801V177H461.83V175.691H464V170.896H461.9V169.587H465.848ZM464.651 165.849C464.992 165.849 465.267 165.954 465.477 166.164C465.692 166.374 465.799 166.635 465.799 166.948C465.799 167.261 465.692 167.524 465.477 167.739C465.267 167.949 464.992 168.054 464.651 168.054C464.311 168.054 464.033 167.949 463.818 167.739C463.604 167.524 463.496 167.261 463.496 166.948C463.496 166.635 463.604 166.374 463.818 166.164C464.033 165.954 464.311 165.849 464.651 165.849ZM469.98 177V169.587H471.59L471.723 170.504C472.04 170.131 472.397 169.851 472.794 169.664C473.19 169.473 473.617 169.377 474.075 169.377C474.742 169.377 475.251 169.571 475.601 169.958C475.951 170.341 476.126 170.88 476.126 171.575V177H474.278V172.296C474.278 171.923 474.254 171.624 474.208 171.4C474.161 171.171 474.072 171.008 473.942 170.91C473.811 170.807 473.622 170.756 473.375 170.756C473.174 170.756 472.98 170.8 472.794 170.889C472.612 170.978 472.439 171.097 472.276 171.246C472.117 171.395 471.968 171.561 471.828 171.743V177H469.98ZM479.949 173.857C479.987 174.319 480.092 174.695 480.264 174.984C480.442 175.273 480.668 175.486 480.943 175.621C481.219 175.756 481.524 175.824 481.86 175.824C482.215 175.824 482.549 175.768 482.861 175.656C483.174 175.544 483.482 175.388 483.785 175.187L484.555 176.244C484.21 176.533 483.797 176.767 483.316 176.944C482.84 177.121 482.315 177.21 481.741 177.21C480.939 177.21 480.262 177.044 479.711 176.713C479.165 176.382 478.752 175.922 478.472 175.334C478.192 174.746 478.052 174.069 478.052 173.304C478.052 172.567 478.19 171.902 478.465 171.309C478.741 170.716 479.137 170.247 479.655 169.902C480.173 169.552 480.799 169.377 481.531 169.377C482.213 169.377 482.801 169.526 483.295 169.825C483.79 170.124 484.173 170.553 484.443 171.113C484.714 171.668 484.849 172.338 484.849 173.122C484.849 173.248 484.845 173.376 484.835 173.507C484.831 173.638 484.824 173.754 484.814 173.857H479.949ZM481.538 170.679C481.09 170.679 480.722 170.84 480.432 171.162C480.148 171.479 479.98 171.983 479.928 172.674H483.05C483.041 172.049 482.91 171.561 482.658 171.211C482.411 170.856 482.038 170.679 481.538 170.679ZM490.297 166.626V174.844C490.297 175.166 490.39 175.395 490.577 175.53C490.768 175.665 491.025 175.733 491.347 175.733C491.548 175.733 491.741 175.712 491.928 175.67C492.115 175.623 492.292 175.567 492.46 175.502L492.915 176.762C492.682 176.879 492.397 176.981 492.061 177.07C491.73 177.163 491.345 177.21 490.906 177.21C490.099 177.21 489.487 176.979 489.072 176.517C488.657 176.055 488.449 175.432 488.449 174.648V167.935H486.23V166.626H490.297ZM498.691 166.626V174.844C498.691 175.166 498.785 175.395 498.971 175.53C499.163 175.665 499.419 175.733 499.741 175.733C499.942 175.733 500.136 175.712 500.322 175.67C500.509 175.623 500.686 175.567 500.854 175.502L501.309 176.762C501.076 176.879 500.791 176.981 500.455 177.07C500.124 177.163 499.739 177.21 499.3 177.21C498.493 177.21 497.882 176.979 497.466 176.517C497.051 176.055 496.843 175.432 496.843 174.648V167.935H494.624V166.626H498.691ZM505.133 173.857C505.17 174.319 505.275 174.695 505.448 174.984C505.625 175.273 505.852 175.486 506.127 175.621C506.402 175.756 506.708 175.824 507.044 175.824C507.399 175.824 507.732 175.768 508.045 175.656C508.358 175.544 508.666 175.388 508.969 175.187L509.739 176.244C509.394 176.533 508.981 176.767 508.5 176.944C508.024 177.121 507.499 177.21 506.925 177.21C506.122 177.21 505.446 177.044 504.895 176.713C504.349 176.382 503.936 175.922 503.656 175.334C503.376 174.746 503.236 174.069 503.236 173.304C503.236 172.567 503.374 171.902 503.649 171.309C503.924 170.716 504.321 170.247 504.839 169.902C505.357 169.552 505.982 169.377 506.715 169.377C507.396 169.377 507.984 169.526 508.479 169.825C508.974 170.124 509.356 170.553 509.627 171.113C509.898 171.668 510.033 172.338 510.033 173.122C510.033 173.248 510.028 173.376 510.019 173.507C510.014 173.638 510.007 173.754 509.998 173.857H505.133ZM506.722 170.679C506.274 170.679 505.905 170.84 505.616 171.162C505.331 171.479 505.163 171.983 505.112 172.674H508.234C508.225 172.049 508.094 171.561 507.842 171.211C507.595 170.856 507.221 170.679 506.722 170.679ZM514.773 175.845C515.207 175.845 515.555 175.77 515.816 175.621C516.082 175.467 516.215 175.252 516.215 174.977C516.215 174.795 516.171 174.641 516.082 174.515C515.998 174.389 515.83 174.272 515.578 174.165C515.326 174.053 514.948 173.929 514.444 173.794C513.968 173.673 513.551 173.523 513.191 173.346C512.837 173.164 512.559 172.931 512.358 172.646C512.162 172.361 512.064 172.002 512.064 171.568C512.064 171.134 512.186 170.754 512.428 170.427C512.671 170.096 513.021 169.839 513.478 169.657C513.94 169.47 514.496 169.377 515.144 169.377C515.779 169.377 516.334 169.461 516.81 169.629C517.286 169.792 517.695 169.998 518.035 170.245L517.279 171.372C516.981 171.181 516.656 171.027 516.306 170.91C515.961 170.789 515.588 170.728 515.186 170.728C514.752 170.728 514.435 170.791 514.234 170.917C514.038 171.043 513.94 171.218 513.94 171.442C513.94 171.601 513.989 171.736 514.087 171.848C514.19 171.955 514.372 172.06 514.633 172.163C514.899 172.261 515.277 172.38 515.767 172.52C516.248 172.651 516.666 172.805 517.02 172.982C517.38 173.159 517.657 173.395 517.853 173.689C518.049 173.983 518.147 174.368 518.147 174.844C518.147 175.381 517.991 175.824 517.678 176.174C517.366 176.524 516.953 176.785 516.439 176.958C515.931 177.126 515.378 177.21 514.78 177.21C514.08 177.21 513.469 177.11 512.946 176.909C512.424 176.708 511.98 176.449 511.616 176.132L512.575 175.054C512.865 175.283 513.194 175.472 513.562 175.621C513.936 175.77 514.339 175.845 514.773 175.845Z" fill="white"/>
<path d="M579.998 175.355L582.098 167.319H584.058L581.104 177H578.822L575.882 167.319H577.919L579.998 175.355ZM589.548 169.587V175.691H591.501V177H585.53V175.691H587.7V170.896H585.6V169.587H589.548ZM588.351 165.849C588.691 165.849 588.967 165.954 589.177 166.164C589.391 166.374 589.499 166.635 589.499 166.948C589.499 167.261 589.391 167.524 589.177 167.739C588.967 167.949 588.691 168.054 588.351 168.054C588.01 168.054 587.732 167.949 587.518 167.739C587.303 167.524 587.196 167.261 587.196 166.948C587.196 166.635 587.303 166.374 587.518 166.164C587.732 165.954 588.01 165.849 588.351 165.849ZM597.41 175.726C597.737 175.726 598.042 175.665 598.327 175.544C598.616 175.423 598.894 175.269 599.16 175.082L600 176.265C599.673 176.54 599.279 176.767 598.817 176.944C598.355 177.121 597.86 177.21 597.333 177.21C596.558 177.21 595.893 177.049 595.338 176.727C594.787 176.4 594.363 175.948 594.064 175.369C593.77 174.786 593.623 174.109 593.623 173.339C593.623 172.578 593.772 171.899 594.071 171.302C594.374 170.7 594.804 170.229 595.359 169.888C595.919 169.547 596.586 169.377 597.361 169.377C597.893 169.377 598.374 169.454 598.803 169.608C599.237 169.757 599.634 169.981 599.993 170.28L599.174 171.414C598.899 171.223 598.614 171.078 598.32 170.98C598.031 170.877 597.73 170.826 597.417 170.826C596.871 170.826 596.425 171.024 596.08 171.421C595.739 171.813 595.569 172.452 595.569 173.339C595.569 173.922 595.648 174.389 595.807 174.739C595.97 175.089 596.19 175.341 596.465 175.495C596.745 175.649 597.06 175.726 597.41 175.726ZM608.472 176.587C608.196 176.769 607.863 176.918 607.471 177.035C607.079 177.152 606.654 177.21 606.197 177.21C605.291 177.21 604.61 176.977 604.153 176.51C603.695 176.039 603.467 175.413 603.467 174.634V170.896H601.857V169.587H603.467V167.956L605.315 167.732V169.587H607.765L607.576 170.896H605.315V174.627C605.315 175.01 605.408 175.29 605.595 175.467C605.781 175.644 606.082 175.733 606.498 175.733C606.764 175.733 607.006 175.703 607.226 175.642C607.45 175.577 607.653 175.495 607.835 175.397L608.472 176.587ZM613.548 169.377C614.285 169.377 614.911 169.538 615.424 169.86C615.937 170.182 616.327 170.637 616.593 171.225C616.864 171.808 616.999 172.492 616.999 173.276C616.999 174.079 616.864 174.774 616.593 175.362C616.322 175.95 615.93 176.405 615.417 176.727C614.904 177.049 614.278 177.21 613.541 177.21C612.808 177.21 612.183 177.054 611.665 176.741C611.152 176.424 610.76 175.973 610.489 175.39C610.218 174.802 610.083 174.102 610.083 173.29C610.083 172.515 610.218 171.834 610.489 171.246C610.76 170.658 611.154 170.201 611.672 169.874C612.19 169.543 612.815 169.377 613.548 169.377ZM613.548 170.77C613.03 170.77 612.643 170.973 612.386 171.379C612.134 171.785 612.008 172.422 612.008 173.29C612.008 174.167 612.134 174.809 612.386 175.215C612.638 175.616 613.023 175.817 613.541 175.817C614.059 175.817 614.444 175.616 614.696 175.215C614.948 174.809 615.074 174.163 615.074 173.276C615.074 172.413 614.948 171.78 614.696 171.379C614.444 170.973 614.061 170.77 613.548 170.77ZM618.933 177V175.719H619.976V170.861H618.933V169.587H621.383L621.726 171.288C621.996 170.658 622.337 170.184 622.748 169.867C623.158 169.545 623.674 169.384 624.295 169.384C624.533 169.384 624.743 169.403 624.925 169.44C625.111 169.477 625.289 169.526 625.457 169.587L624.904 171.141C624.759 171.104 624.621 171.076 624.491 171.057C624.36 171.034 624.213 171.022 624.05 171.022C623.536 171.022 623.088 171.223 622.706 171.624C622.328 172.021 622.034 172.56 621.824 173.241V175.719H623.301V177H618.933ZM623.896 172.478V170.511L624.148 169.587H625.457L625.128 172.478H623.896ZM640.125 177V172.744H637.325V177H635.407V167.319H637.325V171.169H640.125V167.319H642.043V177H640.125ZM645.894 169.587V174.725C645.894 175.126 645.974 175.409 646.132 175.572C646.291 175.735 646.522 175.817 646.825 175.817C647.115 175.817 647.397 175.731 647.672 175.558C647.948 175.381 648.172 175.157 648.344 174.886V169.587H650.192V177H648.582L648.484 176.09C648.218 176.454 647.878 176.732 647.462 176.923C647.047 177.114 646.618 177.21 646.174 177.21C645.46 177.21 644.926 177.009 644.571 176.608C644.221 176.202 644.046 175.649 644.046 174.949V169.587H645.894ZM658.832 168.544L659.294 169.986C659.014 170.084 658.699 170.154 658.349 170.196C657.999 170.233 657.597 170.252 657.145 170.252C657.597 170.448 657.94 170.698 658.174 171.001C658.412 171.3 658.531 171.68 658.531 172.142C658.531 172.623 658.407 173.052 658.16 173.43C657.917 173.808 657.569 174.104 657.117 174.319C656.669 174.534 656.134 174.641 655.514 174.641C655.322 174.641 655.152 174.632 655.003 174.613C654.853 174.594 654.709 174.569 654.569 174.536C654.475 174.587 654.403 174.662 654.352 174.76C654.3 174.858 654.275 174.958 654.275 175.061C654.275 175.201 654.328 175.322 654.436 175.425C654.548 175.523 654.786 175.572 655.15 175.572H656.41C656.956 175.572 657.434 175.665 657.845 175.852C658.26 176.034 658.582 176.281 658.811 176.594C659.044 176.907 659.161 177.266 659.161 177.672C659.161 178.419 658.836 179.002 658.188 179.422C657.539 179.842 656.592 180.052 655.346 180.052C654.454 180.052 653.759 179.961 653.26 179.779C652.765 179.597 652.417 179.331 652.217 178.981C652.016 178.636 651.916 178.218 651.916 177.728H653.561C653.561 177.966 653.607 178.162 653.701 178.316C653.799 178.47 653.978 178.584 654.24 178.659C654.506 178.734 654.886 178.771 655.381 178.771C655.875 178.771 656.263 178.731 656.543 178.652C656.827 178.573 657.028 178.458 657.145 178.309C657.261 178.164 657.32 177.994 657.32 177.798C657.32 177.532 657.208 177.324 656.984 177.175C656.76 177.026 656.442 176.951 656.032 176.951H654.807C654.06 176.951 653.516 176.806 653.176 176.517C652.835 176.223 652.665 175.885 652.665 175.502C652.665 175.241 652.735 174.991 652.875 174.753C653.019 174.51 653.225 174.305 653.491 174.137C653.033 173.894 652.702 173.605 652.497 173.269C652.296 172.928 652.196 172.518 652.196 172.037C652.196 171.5 652.331 171.034 652.602 170.637C652.872 170.24 653.248 169.932 653.729 169.713C654.209 169.494 654.762 169.384 655.388 169.384C655.962 169.389 656.449 169.354 656.851 169.279C657.257 169.204 657.614 169.102 657.922 168.971C658.234 168.84 658.538 168.698 658.832 168.544ZM655.423 170.616C654.984 170.616 654.648 170.744 654.415 171.001C654.186 171.258 654.072 171.598 654.072 172.023C654.072 172.462 654.191 172.809 654.429 173.066C654.667 173.323 655 173.451 655.43 173.451C655.854 173.451 656.176 173.327 656.396 173.08C656.62 172.828 656.732 172.469 656.732 172.002C656.732 171.535 656.62 171.188 656.396 170.959C656.176 170.73 655.852 170.616 655.423 170.616ZM663.915 169.377C664.653 169.377 665.278 169.538 665.791 169.86C666.305 170.182 666.694 170.637 666.96 171.225C667.231 171.808 667.366 172.492 667.366 173.276C667.366 174.079 667.231 174.774 666.96 175.362C666.69 175.95 666.298 176.405 665.784 176.727C665.271 177.049 664.646 177.21 663.908 177.21C663.176 177.21 662.55 177.054 662.032 176.741C661.519 176.424 661.127 175.973 660.856 175.39C660.586 174.802 660.45 174.102 660.45 173.29C660.45 172.515 660.586 171.834 660.856 171.246C661.127 170.658 661.521 170.201 662.039 169.874C662.557 169.543 663.183 169.377 663.915 169.377ZM663.915 170.77C663.397 170.77 663.01 170.973 662.753 171.379C662.501 171.785 662.375 172.422 662.375 173.29C662.375 174.167 662.501 174.809 662.753 175.215C663.005 175.616 663.39 175.817 663.908 175.817C664.426 175.817 664.811 175.616 665.063 175.215C665.315 174.809 665.441 174.163 665.441 173.276C665.441 172.413 665.315 171.78 665.063 171.379C664.811 170.973 664.429 170.77 663.915 170.77ZM682.265 174.781H679.08L678.478 177H676.497L679.528 167.319H681.88L684.904 177H682.867L682.265 174.781ZM679.423 173.346H681.908L680.669 168.754L679.423 173.346ZM686.089 177V175.719H687.132V170.861H686.089V169.587H688.539L688.882 171.288C689.153 170.658 689.493 170.184 689.904 169.867C690.315 169.545 690.83 169.384 691.451 169.384C691.689 169.384 691.899 169.403 692.081 169.44C692.268 169.477 692.445 169.526 692.613 169.587L692.06 171.141C691.915 171.104 691.778 171.076 691.647 171.057C691.516 171.034 691.369 171.022 691.206 171.022C690.693 171.022 690.245 171.223 689.862 171.624C689.484 172.021 689.19 172.56 688.98 173.241V175.719H690.457V177H686.089ZM691.052 172.478V170.511L691.304 169.587H692.613L692.284 172.478H691.052ZM700.328 175.047C700.328 175.332 700.37 175.539 700.454 175.67C700.538 175.796 700.674 175.892 700.86 175.957L700.461 177.196C700.065 177.154 699.726 177.056 699.446 176.902C699.171 176.743 698.959 176.508 698.809 176.195C698.529 176.536 698.175 176.79 697.745 176.958C697.321 177.126 696.875 177.21 696.408 177.21C695.652 177.21 695.053 176.995 694.609 176.566C694.166 176.137 693.944 175.579 693.944 174.893C693.944 174.104 694.252 173.498 694.868 173.073C695.489 172.644 696.366 172.429 697.5 172.429H698.536V172.03C698.536 171.591 698.401 171.274 698.13 171.078C697.86 170.877 697.47 170.777 696.961 170.777C696.723 170.777 696.425 170.81 696.065 170.875C695.711 170.936 695.344 171.031 694.966 171.162L694.525 169.895C694.997 169.718 695.47 169.587 695.946 169.503C696.427 169.419 696.863 169.377 697.255 169.377C698.296 169.377 699.068 169.599 699.572 170.042C700.076 170.481 700.328 171.104 700.328 171.911V175.047ZM697.01 175.873C697.29 175.873 697.573 175.794 697.857 175.635C698.147 175.476 698.373 175.255 698.536 174.97V173.528H697.808C697.122 173.528 696.625 173.638 696.317 173.857C696.014 174.076 695.862 174.387 695.862 174.788C695.862 175.133 695.96 175.402 696.156 175.593C696.352 175.78 696.637 175.873 697.01 175.873ZM704.656 169.587V174.725C704.656 175.126 704.735 175.409 704.894 175.572C705.053 175.735 705.284 175.817 705.587 175.817C705.876 175.817 706.159 175.731 706.434 175.558C706.709 175.381 706.933 175.157 707.106 174.886V169.587H708.954V177H707.344L707.246 176.09C706.98 176.454 706.639 176.732 706.224 176.923C705.809 177.114 705.379 177.21 704.936 177.21C704.222 177.21 703.688 177.009 703.333 176.608C702.983 176.202 702.808 175.649 702.808 174.949V169.587H704.656ZM716.558 169.587V175.187C716.558 176.172 716.362 176.986 715.97 177.63C715.582 178.274 715.011 178.787 714.255 179.17C713.499 179.553 712.572 179.847 711.476 180.052L711.175 178.638C711.921 178.484 712.556 178.281 713.079 178.029C713.606 177.777 714.01 177.434 714.29 177C714.57 176.566 714.71 176.001 714.71 175.306V170.896H711.896V169.587H716.558ZM715.242 165.849C715.578 165.849 715.853 165.954 716.068 166.164C716.282 166.374 716.39 166.635 716.39 166.948C716.39 167.261 716.282 167.524 716.068 167.739C715.853 167.949 715.578 168.054 715.242 168.054C714.901 168.054 714.623 167.949 714.409 167.739C714.194 167.524 714.087 167.261 714.087 166.948C714.087 166.635 714.194 166.374 714.409 166.164C714.623 165.954 714.901 165.849 715.242 165.849ZM722.677 169.377C723.414 169.377 724.04 169.538 724.553 169.86C725.066 170.182 725.456 170.637 725.722 171.225C725.993 171.808 726.128 172.492 726.128 173.276C726.128 174.079 725.993 174.774 725.722 175.362C725.451 175.95 725.059 176.405 724.546 176.727C724.033 177.049 723.407 177.21 722.67 177.21C721.937 177.21 721.312 177.054 720.794 176.741C720.281 176.424 719.889 175.973 719.618 175.39C719.347 174.802 719.212 174.102 719.212 173.29C719.212 172.515 719.347 171.834 719.618 171.246C719.889 170.658 720.283 170.201 720.801 169.874C721.319 169.543 721.944 169.377 722.677 169.377ZM722.677 170.77C722.159 170.77 721.772 170.973 721.515 171.379C721.263 171.785 721.137 172.422 721.137 173.29C721.137 174.167 721.263 174.809 721.515 175.215C721.767 175.616 722.152 175.817 722.67 175.817C723.188 175.817 723.573 175.616 723.825 175.215C724.077 174.809 724.203 174.163 724.203 173.276C724.203 172.413 724.077 171.78 723.825 171.379C723.573 170.973 723.19 170.77 722.677 170.77Z" fill="white"/>
<path d="M776.584 174.781H773.399L772.797 177H770.816L773.847 167.319H776.199L779.223 177H777.186L776.584 174.781ZM773.742 173.346H776.227L774.988 168.754L773.742 173.346ZM780.337 177V169.587H781.947L782.08 170.504C782.398 170.131 782.755 169.851 783.151 169.664C783.548 169.473 783.975 169.377 784.432 169.377C785.1 169.377 785.608 169.571 785.958 169.958C786.308 170.341 786.483 170.88 786.483 171.575V177H784.635V172.296C784.635 171.923 784.612 171.624 784.565 171.4C784.519 171.171 784.43 171.008 784.299 170.91C784.169 170.807 783.98 170.756 783.732 170.756C783.532 170.756 783.338 170.8 783.151 170.889C782.969 170.978 782.797 171.097 782.633 171.246C782.475 171.395 782.325 171.561 782.185 171.743V177H780.337ZM793.03 166.43L794.878 166.626V177H793.24L793.128 176.125C792.899 176.452 792.612 176.715 792.267 176.916C791.922 177.112 791.52 177.21 791.063 177.21C790.438 177.21 789.92 177.047 789.509 176.72C789.103 176.393 788.8 175.936 788.599 175.348C788.403 174.755 788.305 174.067 788.305 173.283C788.305 172.527 788.422 171.855 788.655 171.267C788.888 170.679 789.224 170.217 789.663 169.881C790.106 169.545 790.631 169.377 791.238 169.377C791.602 169.377 791.933 169.44 792.232 169.566C792.531 169.692 792.797 169.879 793.03 170.126V166.43ZM791.735 170.756C791.268 170.756 790.9 170.959 790.629 171.365C790.363 171.766 790.23 172.408 790.23 173.29C790.23 173.911 790.286 174.408 790.398 174.781C790.51 175.15 790.669 175.416 790.874 175.579C791.079 175.742 791.322 175.824 791.602 175.824C791.91 175.824 792.181 175.733 792.414 175.551C792.652 175.364 792.857 175.133 793.03 174.858V171.484C792.857 171.255 792.664 171.078 792.449 170.952C792.239 170.821 792.001 170.756 791.735 170.756ZM797.196 177V175.719H798.239V170.861H797.196V169.587H799.646L799.989 171.288C800.26 170.658 800.601 170.184 801.011 169.867C801.422 169.545 801.938 169.384 802.558 169.384C802.796 169.384 803.006 169.403 803.188 169.44C803.375 169.477 803.552 169.526 803.72 169.587L803.167 171.141C803.023 171.104 802.885 171.076 802.754 171.057C802.624 171.034 802.477 171.022 802.313 171.022C801.8 171.022 801.352 171.223 800.969 171.624C800.591 172.021 800.297 172.56 800.087 173.241V175.719H801.564V177H797.196ZM802.159 172.478V170.511L802.411 169.587H803.72L803.391 172.478H802.159ZM807.096 173.857C807.133 174.319 807.238 174.695 807.411 174.984C807.588 175.273 807.815 175.486 808.09 175.621C808.365 175.756 808.671 175.824 809.007 175.824C809.362 175.824 809.695 175.768 810.008 175.656C810.321 175.544 810.629 175.388 810.932 175.187L811.702 176.244C811.357 176.533 810.944 176.767 810.463 176.944C809.987 177.121 809.462 177.21 808.888 177.21C808.085 177.21 807.409 177.044 806.858 176.713C806.312 176.382 805.899 175.922 805.619 175.334C805.339 174.746 805.199 174.069 805.199 173.304C805.199 172.567 805.337 171.902 805.612 171.309C805.887 170.716 806.284 170.247 806.802 169.902C807.32 169.552 807.945 169.377 808.678 169.377C809.359 169.377 809.947 169.526 810.442 169.825C810.937 170.124 811.319 170.553 811.59 171.113C811.861 171.668 811.996 172.338 811.996 173.122C811.996 173.248 811.991 173.376 811.982 173.507C811.977 173.638 811.97 173.754 811.961 173.857H807.096ZM808.685 170.679C808.237 170.679 807.868 170.84 807.579 171.162C807.294 171.479 807.126 171.983 807.075 172.674H810.197C810.188 172.049 810.057 171.561 809.805 171.211C809.558 170.856 809.184 170.679 808.685 170.679ZM809.805 165.499L810.554 166.934L807.383 168.201L806.865 167.249L809.805 165.499ZM824.76 168.733V171.582H828.295V172.996H824.76V177H822.842V167.319H828.974L828.771 168.733H824.76ZM832.28 173.857C832.317 174.319 832.422 174.695 832.595 174.984C832.772 175.273 832.998 175.486 833.274 175.621C833.549 175.756 833.855 175.824 834.191 175.824C834.545 175.824 834.879 175.768 835.192 175.656C835.504 175.544 835.812 175.388 836.116 175.187L836.886 176.244C836.54 176.533 836.127 176.767 835.647 176.944C835.171 177.121 834.646 177.21 834.072 177.21C833.269 177.21 832.592 177.044 832.042 176.713C831.496 176.382 831.083 175.922 830.803 175.334C830.523 174.746 830.383 174.069 830.383 173.304C830.383 172.567 830.52 171.902 830.796 171.309C831.071 170.716 831.468 170.247 831.986 169.902C832.504 169.552 833.129 169.377 833.862 169.377C834.543 169.377 835.131 169.526 835.626 169.825C836.12 170.124 836.503 170.553 836.774 171.113C837.044 171.668 837.18 172.338 837.18 173.122C837.18 173.248 837.175 173.376 837.166 173.507C837.161 173.638 837.154 173.754 837.145 173.857H832.28ZM833.869 170.679C833.421 170.679 833.052 170.84 832.763 171.162C832.478 171.479 832.31 171.983 832.259 172.674H835.381C835.371 172.049 835.241 171.561 834.989 171.211C834.741 170.856 834.368 170.679 833.869 170.679ZM842.627 166.626V174.844C842.627 175.166 842.72 175.395 842.907 175.53C843.098 175.665 843.355 175.733 843.677 175.733C843.878 175.733 844.071 175.712 844.258 175.67C844.445 175.623 844.622 175.567 844.79 175.502L845.245 176.762C845.012 176.879 844.727 176.981 844.391 177.07C844.06 177.163 843.675 177.21 843.236 177.21C842.429 177.21 841.817 176.979 841.402 176.517C840.987 176.055 840.779 175.432 840.779 174.648V167.935H838.56V166.626H842.627ZM851.757 169.587V175.691H853.71V177H847.739V175.691H849.909V170.896H847.809V169.587H851.757ZM850.56 165.849C850.9 165.849 851.176 165.954 851.386 166.164C851.6 166.374 851.708 166.635 851.708 166.948C851.708 167.261 851.6 167.524 851.386 167.739C851.176 167.949 850.9 168.054 850.56 168.054C850.219 168.054 849.941 167.949 849.727 167.739C849.512 167.524 849.405 167.261 849.405 166.948C849.405 166.635 849.512 166.374 849.727 166.164C849.941 165.954 850.219 165.849 850.56 165.849ZM859.717 169.377C860.371 169.377 860.893 169.538 861.285 169.86C861.682 170.177 861.969 170.628 862.146 171.211C862.328 171.794 862.419 172.483 862.419 173.276C862.419 174.037 862.31 174.713 862.09 175.306C861.871 175.899 861.549 176.365 861.124 176.706C860.704 177.042 860.186 177.21 859.57 177.21C858.814 177.21 858.203 176.942 857.736 176.405V179.856L855.888 180.052V169.587H857.512L857.61 170.49C857.904 170.107 858.233 169.827 858.597 169.65C858.961 169.468 859.335 169.377 859.717 169.377ZM859.178 170.763C858.866 170.763 858.59 170.856 858.352 171.043C858.119 171.23 857.914 171.461 857.736 171.736V175.054C857.904 175.306 858.096 175.495 858.31 175.621C858.525 175.747 858.768 175.81 859.038 175.81C859.51 175.81 859.869 175.614 860.116 175.222C860.368 174.825 860.494 174.184 860.494 173.297C860.494 172.672 860.443 172.175 860.34 171.806C860.242 171.433 860.095 171.167 859.899 171.008C859.703 170.845 859.463 170.763 859.178 170.763ZM865.858 173.857C865.895 174.319 866 174.695 866.173 174.984C866.35 175.273 866.576 175.486 866.852 175.621C867.127 175.756 867.433 175.824 867.769 175.824C868.123 175.824 868.457 175.768 868.77 175.656C869.082 175.544 869.39 175.388 869.694 175.187L870.464 176.244C870.118 176.533 869.705 176.767 869.225 176.944C868.749 177.121 868.224 177.21 867.65 177.21C866.847 177.21 866.17 177.044 865.62 176.713C865.074 176.382 864.661 175.922 864.381 175.334C864.101 174.746 863.961 174.069 863.961 173.304C863.961 172.567 864.098 171.902 864.374 171.309C864.649 170.716 865.046 170.247 865.564 169.902C866.082 169.552 866.707 169.377 867.44 169.377C868.121 169.377 868.709 169.526 869.204 169.825C869.698 170.124 870.081 170.553 870.352 171.113C870.622 171.668 870.758 172.338 870.758 173.122C870.758 173.248 870.753 173.376 870.744 173.507C870.739 173.638 870.732 173.754 870.723 173.857H865.858ZM867.447 170.679C866.999 170.679 866.63 170.84 866.341 171.162C866.056 171.479 865.888 171.983 865.837 172.674H868.959C868.949 172.049 868.819 171.561 868.567 171.211C868.319 170.856 867.946 170.679 867.447 170.679ZM884.957 167.109C885.629 167.109 886.198 167.198 886.665 167.375C887.131 167.548 887.563 167.797 887.96 168.124L886.987 169.279C886.711 169.046 886.408 168.868 886.077 168.747C885.75 168.626 885.4 168.565 885.027 168.565C884.579 168.565 884.166 168.684 883.788 168.922C883.414 169.16 883.113 169.543 882.885 170.07C882.661 170.593 882.549 171.283 882.549 172.142C882.549 172.987 882.656 173.67 882.871 174.193C883.09 174.716 883.386 175.098 883.76 175.341C884.138 175.579 884.565 175.698 885.041 175.698C885.545 175.698 885.962 175.609 886.294 175.432C886.625 175.255 886.924 175.061 887.19 174.851L888.093 175.992C887.752 176.328 887.325 176.615 886.812 176.853C886.303 177.091 885.685 177.21 884.957 177.21C884.112 177.21 883.358 177.016 882.696 176.629C882.033 176.242 881.513 175.672 881.135 174.921C880.757 174.17 880.568 173.243 880.568 172.142C880.568 171.059 880.761 170.145 881.149 169.398C881.541 168.647 882.068 168.077 882.731 167.69C883.398 167.303 884.14 167.109 884.957 167.109ZM891.314 166.451V170.42C891.622 170.07 891.968 169.809 892.35 169.636C892.738 169.463 893.141 169.377 893.561 169.377C894.243 169.377 894.754 169.571 895.094 169.958C895.44 170.341 895.612 170.88 895.612 171.575V177H893.764V171.988C893.764 171.54 893.694 171.223 893.554 171.036C893.419 170.849 893.186 170.756 892.854 170.756C892.658 170.756 892.467 170.803 892.28 170.896C892.098 170.985 891.926 171.106 891.762 171.26C891.604 171.414 891.454 171.587 891.314 171.778V177H889.466V166.633L891.314 166.451ZM902.124 169.587V175.691H904.077V177H898.106V175.691H900.276V170.896H898.176V169.587H902.124ZM900.927 165.849C901.268 165.849 901.543 165.954 901.753 166.164C901.968 166.374 902.075 166.635 902.075 166.948C902.075 167.261 901.968 167.524 901.753 167.739C901.543 167.949 901.268 168.054 900.927 168.054C900.586 168.054 900.309 167.949 900.094 167.739C899.879 167.524 899.772 167.261 899.772 166.948C899.772 166.635 899.879 166.374 900.094 166.164C900.309 165.954 900.586 165.849 900.927 165.849ZM906.255 177V169.587H907.865L907.998 170.504C908.316 170.131 908.673 169.851 909.069 169.664C909.466 169.473 909.893 169.377 910.35 169.377C911.018 169.377 911.526 169.571 911.876 169.958C912.226 170.341 912.401 170.88 912.401 171.575V177H910.553V172.296C910.553 171.923 910.53 171.624 910.483 171.4C910.437 171.171 910.348 171.008 910.217 170.91C910.087 170.807 909.898 170.756 909.65 170.756C909.45 170.756 909.256 170.8 909.069 170.889C908.887 170.978 908.715 171.097 908.551 171.246C908.393 171.395 908.243 171.561 908.103 171.743V177H906.255ZM916.225 173.857C916.262 174.319 916.367 174.695 916.54 174.984C916.717 175.273 916.944 175.486 917.219 175.621C917.494 175.756 917.8 175.824 918.136 175.824C918.491 175.824 918.824 175.768 919.137 175.656C919.45 175.544 919.758 175.388 920.061 175.187L920.831 176.244C920.486 176.533 920.073 176.767 919.592 176.944C919.116 177.121 918.591 177.21 918.017 177.21C917.214 177.21 916.538 177.044 915.987 176.713C915.441 176.382 915.028 175.922 914.748 175.334C914.468 174.746 914.328 174.069 914.328 173.304C914.328 172.567 914.466 171.902 914.741 171.309C915.016 170.716 915.413 170.247 915.931 169.902C916.449 169.552 917.074 169.377 917.807 169.377C918.488 169.377 919.076 169.526 919.571 169.825C920.066 170.124 920.448 170.553 920.719 171.113C920.99 171.668 921.125 172.338 921.125 173.122C921.125 173.248 921.12 173.376 921.111 173.507C921.106 173.638 921.099 173.754 921.09 173.857H916.225ZM917.814 170.679C917.366 170.679 916.997 170.84 916.708 171.162C916.423 171.479 916.255 171.983 916.204 172.674H919.326C919.317 172.049 919.186 171.561 918.934 171.211C918.687 170.856 918.313 170.679 917.814 170.679ZM923.044 177V169.587H924.654L924.787 170.504C925.105 170.131 925.462 169.851 925.858 169.664C926.255 169.473 926.682 169.377 927.139 169.377C927.807 169.377 928.315 169.571 928.665 169.958C929.015 170.341 929.19 170.88 929.19 171.575V177H927.342V172.296C927.342 171.923 927.319 171.624 927.272 171.4C927.226 171.171 927.137 171.008 927.006 170.91C926.876 170.807 926.687 170.756 926.439 170.756C926.239 170.756 926.045 170.8 925.858 170.889C925.676 170.978 925.504 171.097 925.34 171.246C925.182 171.395 925.032 171.561 924.892 171.743V177H923.044Z" fill="white"/>
<path d="M564.865 118.109C565.537 118.109 566.106 118.198 566.573 118.375C567.039 118.548 567.471 118.797 567.868 119.124L566.895 120.279C566.619 120.046 566.316 119.868 565.985 119.747C565.658 119.626 565.308 119.565 564.935 119.565C564.487 119.565 564.074 119.684 563.696 119.922C563.322 120.16 563.021 120.543 562.793 121.07C562.569 121.593 562.457 122.283 562.457 123.142C562.457 123.987 562.564 124.67 562.779 125.193C562.998 125.716 563.294 126.098 563.668 126.341C564.046 126.579 564.473 126.698 564.949 126.698C565.453 126.698 565.87 126.609 566.202 126.432C566.533 126.255 566.832 126.061 567.098 125.851L568.001 126.992C567.66 127.328 567.233 127.615 566.72 127.853C566.211 128.091 565.593 128.21 564.865 128.21C564.02 128.21 563.266 128.016 562.604 127.629C561.941 127.242 561.421 126.672 561.043 125.921C560.665 125.17 560.476 124.243 560.476 123.142C560.476 122.059 560.669 121.145 561.057 120.398C561.449 119.647 561.976 119.077 562.639 118.69C563.306 118.303 564.048 118.109 564.865 118.109ZM572.454 120.377C573.191 120.377 573.817 120.538 574.33 120.86C574.843 121.182 575.233 121.637 575.499 122.225C575.77 122.808 575.905 123.492 575.905 124.276C575.905 125.079 575.77 125.774 575.499 126.362C575.228 126.95 574.836 127.405 574.323 127.727C573.81 128.049 573.184 128.21 572.447 128.21C571.714 128.21 571.089 128.054 570.571 127.741C570.058 127.424 569.666 126.973 569.395 126.39C569.124 125.802 568.989 125.102 568.989 124.29C568.989 123.515 569.124 122.834 569.395 122.246C569.666 121.658 570.06 121.201 570.578 120.874C571.096 120.543 571.721 120.377 572.454 120.377ZM572.454 121.77C571.936 121.77 571.549 121.973 571.292 122.379C571.04 122.785 570.914 123.422 570.914 124.29C570.914 125.167 571.04 125.809 571.292 126.215C571.544 126.616 571.929 126.817 572.447 126.817C572.965 126.817 573.35 126.616 573.602 126.215C573.854 125.809 573.98 125.163 573.98 124.276C573.98 123.413 573.854 122.78 573.602 122.379C573.35 121.973 572.967 121.77 572.454 121.77ZM582.067 117.43L583.915 117.626V128H582.277L582.165 127.125C581.936 127.452 581.649 127.715 581.304 127.916C580.958 128.112 580.557 128.21 580.1 128.21C579.474 128.21 578.956 128.047 578.546 127.72C578.14 127.393 577.836 126.936 577.636 126.348C577.44 125.755 577.342 125.067 577.342 124.283C577.342 123.527 577.458 122.855 577.692 122.267C577.925 121.679 578.261 121.217 578.7 120.881C579.143 120.545 579.668 120.377 580.275 120.377C580.639 120.377 580.97 120.44 581.269 120.566C581.567 120.692 581.833 120.879 582.067 121.126V117.43ZM580.772 121.756C580.305 121.756 579.936 121.959 579.666 122.365C579.4 122.766 579.267 123.408 579.267 124.29C579.267 124.911 579.323 125.408 579.435 125.781C579.547 126.15 579.705 126.416 579.911 126.579C580.116 126.742 580.359 126.824 580.639 126.824C580.947 126.824 581.217 126.733 581.451 126.551C581.689 126.364 581.894 126.133 582.067 125.858V122.484C581.894 122.255 581.7 122.078 581.486 121.952C581.276 121.821 581.038 121.756 580.772 121.756ZM587.738 124.857C587.775 125.319 587.88 125.695 588.053 125.984C588.23 126.273 588.457 126.486 588.732 126.621C589.007 126.756 589.313 126.824 589.649 126.824C590.004 126.824 590.337 126.768 590.65 126.656C590.963 126.544 591.271 126.388 591.574 126.187L592.344 127.244C591.999 127.533 591.586 127.767 591.105 127.944C590.629 128.121 590.104 128.21 589.53 128.21C588.727 128.21 588.051 128.044 587.5 127.713C586.954 127.382 586.541 126.922 586.261 126.334C585.981 125.746 585.841 125.069 585.841 124.304C585.841 123.567 585.979 122.902 586.254 122.309C586.529 121.716 586.926 121.247 587.444 120.902C587.962 120.552 588.587 120.377 589.32 120.377C590.001 120.377 590.589 120.526 591.084 120.825C591.579 121.124 591.961 121.553 592.232 122.113C592.503 122.668 592.638 123.338 592.638 124.122C592.638 124.248 592.633 124.376 592.624 124.507C592.619 124.638 592.612 124.754 592.603 124.857H587.738ZM589.327 121.679C588.879 121.679 588.51 121.84 588.221 122.162C587.936 122.479 587.768 122.983 587.717 123.674H590.839C590.83 123.049 590.699 122.561 590.447 122.211C590.2 121.856 589.826 121.679 589.327 121.679ZM594.628 128V126.719H595.671V121.861H594.628V120.587H597.078L597.421 122.288C597.691 121.658 598.032 121.184 598.443 120.867C598.853 120.545 599.369 120.384 599.99 120.384C600.228 120.384 600.438 120.403 600.62 120.44C600.806 120.477 600.984 120.526 601.152 120.587L600.599 122.141C600.454 122.104 600.316 122.076 600.186 122.057C600.055 122.034 599.908 122.022 599.745 122.022C599.231 122.022 598.783 122.223 598.401 122.624C598.023 123.021 597.729 123.56 597.519 124.241V126.719H598.996V128H594.628ZM599.591 123.478V121.511L599.843 120.587H601.152L600.823 123.478H599.591ZM605.773 126.845C606.207 126.845 606.555 126.77 606.816 126.621C607.082 126.467 607.215 126.252 607.215 125.977C607.215 125.795 607.171 125.641 607.082 125.515C606.998 125.389 606.83 125.272 606.578 125.165C606.326 125.053 605.948 124.929 605.444 124.794C604.968 124.673 604.551 124.523 604.191 124.346C603.837 124.164 603.559 123.931 603.358 123.646C603.162 123.361 603.064 123.002 603.064 122.568C603.064 122.134 603.186 121.754 603.428 121.427C603.671 121.096 604.021 120.839 604.478 120.657C604.94 120.47 605.496 120.377 606.144 120.377C606.779 120.377 607.334 120.461 607.81 120.629C608.286 120.792 608.695 120.998 609.035 121.245L608.279 122.372C607.981 122.181 607.656 122.027 607.306 121.91C606.961 121.789 606.588 121.728 606.186 121.728C605.752 121.728 605.435 121.791 605.234 121.917C605.038 122.043 604.94 122.218 604.94 122.442C604.94 122.601 604.989 122.736 605.087 122.848C605.19 122.955 605.372 123.06 605.633 123.163C605.899 123.261 606.277 123.38 606.767 123.52C607.248 123.651 607.666 123.805 608.02 123.982C608.38 124.159 608.657 124.395 608.853 124.689C609.049 124.983 609.147 125.368 609.147 125.844C609.147 126.381 608.991 126.824 608.678 127.174C608.366 127.524 607.953 127.785 607.439 127.958C606.931 128.126 606.378 128.21 605.78 128.21C605.08 128.21 604.469 128.11 603.946 127.909C603.424 127.708 602.98 127.449 602.616 127.132L603.575 126.054C603.865 126.283 604.194 126.472 604.562 126.621C604.936 126.77 605.339 126.845 605.773 126.845Z" fill="#56E723"/>
<path d="M670.234 243.221C670.234 243.809 670.082 244.327 669.779 244.775C669.48 245.223 669.048 245.575 668.484 245.832C667.919 246.084 667.235 246.21 666.433 246.21C665.593 246.21 664.872 246.086 664.27 245.839C663.668 245.587 663.164 245.265 662.758 244.873L663.766 243.746C664.116 244.059 664.508 244.304 664.942 244.481C665.376 244.658 665.863 244.747 666.405 244.747C666.75 244.747 667.06 244.693 667.336 244.586C667.616 244.479 667.835 244.322 667.994 244.117C668.157 243.907 668.239 243.65 668.239 243.347C668.239 243.081 668.183 242.857 668.071 242.675C667.959 242.493 667.765 242.33 667.49 242.185C667.219 242.04 666.841 241.896 666.356 241.751C665.642 241.532 665.054 241.291 664.592 241.03C664.13 240.764 663.787 240.451 663.563 240.092C663.339 239.728 663.227 239.299 663.227 238.804C663.227 238.249 663.381 237.77 663.689 237.369C663.997 236.963 664.412 236.653 664.935 236.438C665.462 236.219 666.05 236.109 666.699 236.109C667.417 236.109 668.05 236.214 668.596 236.424C669.142 236.629 669.622 236.923 670.038 237.306L669.079 238.391C668.747 238.106 668.388 237.896 668.001 237.761C667.618 237.626 667.228 237.558 666.832 237.558C666.519 237.558 666.239 237.6 665.992 237.684C665.749 237.768 665.558 237.892 665.418 238.055C665.278 238.218 665.208 238.426 665.208 238.678C665.208 238.907 665.271 239.103 665.397 239.266C665.527 239.425 665.749 239.574 666.062 239.714C666.374 239.849 666.804 240.003 667.35 240.176C667.924 240.349 668.425 240.556 668.855 240.799C669.289 241.042 669.627 241.357 669.87 241.744C670.112 242.127 670.234 242.619 670.234 243.221ZM675.037 238.377C675.774 238.377 676.4 238.538 676.913 238.86C677.426 239.182 677.816 239.637 678.082 240.225C678.353 240.808 678.488 241.492 678.488 242.276C678.488 243.079 678.353 243.774 678.082 244.362C677.811 244.95 677.419 245.405 676.906 245.727C676.393 246.049 675.767 246.21 675.03 246.21C674.297 246.21 673.672 246.054 673.154 245.741C672.641 245.424 672.249 244.973 671.978 244.39C671.707 243.802 671.572 243.102 671.572 242.29C671.572 241.515 671.707 240.834 671.978 240.246C672.249 239.658 672.643 239.201 673.161 238.874C673.679 238.543 674.304 238.377 675.037 238.377ZM675.037 239.77C674.519 239.77 674.132 239.973 673.875 240.379C673.623 240.785 673.497 241.422 673.497 242.29C673.497 243.167 673.623 243.809 673.875 244.215C674.127 244.616 674.512 244.817 675.03 244.817C675.548 244.817 675.933 244.616 676.185 244.215C676.437 243.809 676.563 243.163 676.563 242.276C676.563 241.413 676.437 240.78 676.185 240.379C675.933 239.973 675.55 239.77 675.037 239.77ZM682.2 238.587V243.725C682.2 244.126 682.279 244.409 682.438 244.572C682.596 244.735 682.827 244.817 683.131 244.817C683.42 244.817 683.702 244.731 683.978 244.558C684.253 244.381 684.477 244.157 684.65 243.886V238.587H686.498V246H684.888L684.79 245.09C684.524 245.454 684.183 245.732 683.768 245.923C683.352 246.114 682.923 246.21 682.48 246.21C681.766 246.21 681.231 246.009 680.877 245.608C680.527 245.202 680.352 244.649 680.352 243.949V238.587H682.2ZM688.746 246V238.587H690.356L690.489 239.504C690.806 239.131 691.163 238.851 691.56 238.664C691.957 238.473 692.384 238.377 692.841 238.377C693.508 238.377 694.017 238.571 694.367 238.958C694.717 239.341 694.892 239.88 694.892 240.575V246H693.044V241.296C693.044 240.923 693.021 240.624 692.974 240.4C692.927 240.171 692.839 240.008 692.708 239.91C692.577 239.807 692.388 239.756 692.141 239.756C691.94 239.756 691.747 239.8 691.56 239.889C691.378 239.978 691.205 240.097 691.042 240.246C690.883 240.395 690.734 240.561 690.594 240.743V246H688.746ZM701.439 235.43L703.287 235.626V246H701.649L701.537 245.125C701.308 245.452 701.021 245.715 700.676 245.916C700.33 246.112 699.929 246.21 699.472 246.21C698.846 246.21 698.328 246.047 697.918 245.72C697.512 245.393 697.208 244.936 697.008 244.348C696.812 243.755 696.714 243.067 696.714 242.283C696.714 241.527 696.83 240.855 697.064 240.267C697.297 239.679 697.633 239.217 698.072 238.881C698.515 238.545 699.04 238.377 699.647 238.377C700.011 238.377 700.342 238.44 700.641 238.566C700.939 238.692 701.205 238.879 701.439 239.126V235.43ZM700.144 239.756C699.677 239.756 699.308 239.959 699.038 240.365C698.772 240.766 698.639 241.408 698.639 242.29C698.639 242.911 698.695 243.408 698.807 243.781C698.919 244.15 699.077 244.416 699.283 244.579C699.488 244.742 699.731 244.824 700.011 244.824C700.319 244.824 700.589 244.733 700.823 244.551C701.061 244.364 701.266 244.133 701.439 243.858V240.484C701.266 240.255 701.072 240.078 700.858 239.952C700.648 239.821 700.41 239.756 700.144 239.756ZM718.739 241.114C718.739 240.395 718.671 239.814 718.536 239.371C718.405 238.928 718.225 238.589 717.997 238.356C717.768 238.118 717.509 237.957 717.22 237.873C716.93 237.789 716.629 237.747 716.317 237.747H715.603V244.579H716.324C716.65 244.579 716.958 244.528 717.248 244.425C717.542 244.322 717.801 244.145 718.025 243.893C718.249 243.636 718.424 243.284 718.55 242.836C718.676 242.383 718.739 241.809 718.739 241.114ZM720.741 241.114C720.741 241.907 720.654 242.586 720.482 243.151C720.314 243.716 720.08 244.185 719.782 244.558C719.483 244.927 719.138 245.216 718.746 245.426C718.358 245.636 717.943 245.785 717.5 245.874C717.061 245.958 716.615 246 716.163 246H713.685V236.319H715.995C716.597 236.319 717.18 236.384 717.745 236.515C718.309 236.641 718.816 236.874 719.264 237.215C719.716 237.556 720.076 238.041 720.342 238.671C720.608 239.296 720.741 240.111 720.741 241.114ZM723.899 242.857C723.937 243.319 724.042 243.695 724.214 243.984C724.392 244.273 724.618 244.486 724.893 244.621C725.169 244.756 725.474 244.824 725.81 244.824C726.165 244.824 726.499 244.768 726.811 244.656C727.124 244.544 727.432 244.388 727.735 244.187L728.505 245.244C728.16 245.533 727.747 245.767 727.266 245.944C726.79 246.121 726.265 246.21 725.691 246.21C724.889 246.21 724.212 246.044 723.661 245.713C723.115 245.382 722.702 244.922 722.422 244.334C722.142 243.746 722.002 243.069 722.002 242.304C722.002 241.567 722.14 240.902 722.415 240.309C722.691 239.716 723.087 239.247 723.605 238.902C724.123 238.552 724.749 238.377 725.481 238.377C726.163 238.377 726.751 238.526 727.245 238.825C727.74 239.124 728.123 239.553 728.393 240.113C728.664 240.668 728.799 241.338 728.799 242.122C728.799 242.248 728.795 242.376 728.785 242.507C728.781 242.638 728.774 242.754 728.764 242.857H723.899ZM725.488 239.679C725.04 239.679 724.672 239.84 724.382 240.162C724.098 240.479 723.93 240.983 723.878 241.674H727C726.991 241.049 726.86 240.561 726.608 240.211C726.361 239.856 725.988 239.679 725.488 239.679ZM733.54 244.845C733.974 244.845 734.321 244.77 734.583 244.621C734.849 244.467 734.982 244.252 734.982 243.977C734.982 243.795 734.937 243.641 734.849 243.515C734.765 243.389 734.597 243.272 734.345 243.165C734.093 243.053 733.715 242.929 733.211 242.794C732.735 242.673 732.317 242.523 731.958 242.346C731.603 242.164 731.325 241.931 731.125 241.646C730.929 241.361 730.831 241.002 730.831 240.568C730.831 240.134 730.952 239.754 731.195 239.427C731.437 239.096 731.787 238.839 732.245 238.657C732.707 238.47 733.262 238.377 733.911 238.377C734.545 238.377 735.101 238.461 735.577 238.629C736.053 238.792 736.461 238.998 736.802 239.245L736.046 240.372C735.747 240.181 735.423 240.027 735.073 239.91C734.727 239.789 734.354 239.728 733.953 239.728C733.519 239.728 733.201 239.791 733.001 239.917C732.805 240.043 732.707 240.218 732.707 240.442C732.707 240.601 732.756 240.736 732.854 240.848C732.956 240.955 733.138 241.06 733.4 241.163C733.666 241.261 734.044 241.38 734.534 241.52C735.014 241.651 735.432 241.805 735.787 241.982C736.146 242.159 736.424 242.395 736.62 242.689C736.816 242.983 736.914 243.368 736.914 243.844C736.914 244.381 736.757 244.824 736.445 245.174C736.132 245.524 735.719 245.785 735.206 245.958C734.697 246.126 734.144 246.21 733.547 246.21C732.847 246.21 732.235 246.11 731.713 245.909C731.19 245.708 730.747 245.449 730.383 245.132L731.342 244.054C731.631 244.283 731.96 244.472 732.329 244.621C732.702 244.77 733.106 244.845 733.54 244.845ZM743.376 238.587V244.691H745.329V246H739.358V244.691H741.528V239.896H739.428V238.587H743.376ZM742.179 234.849C742.52 234.849 742.795 234.954 743.005 235.164C743.22 235.374 743.327 235.635 743.327 235.948C743.327 236.261 743.22 236.524 743.005 236.739C742.795 236.949 742.52 237.054 742.179 237.054C741.839 237.054 741.561 236.949 741.346 236.739C741.132 236.524 741.024 236.261 741.024 235.948C741.024 235.635 741.132 235.374 741.346 235.164C741.561 234.954 741.839 234.849 742.179 234.849ZM753.899 237.544L754.361 238.986C754.081 239.084 753.766 239.154 753.416 239.196C753.066 239.233 752.665 239.252 752.212 239.252C752.665 239.448 753.008 239.698 753.241 240.001C753.479 240.3 753.598 240.68 753.598 241.142C753.598 241.623 753.474 242.052 753.227 242.43C752.984 242.808 752.637 243.104 752.184 243.319C751.736 243.534 751.202 243.641 750.581 243.641C750.39 243.641 750.219 243.632 750.07 243.613C749.921 243.594 749.776 243.569 749.636 243.536C749.543 243.587 749.47 243.662 749.419 243.76C749.368 243.858 749.342 243.958 749.342 244.061C749.342 244.201 749.396 244.322 749.503 244.425C749.615 244.523 749.853 244.572 750.217 244.572H751.477C752.023 244.572 752.501 244.665 752.912 244.852C753.327 245.034 753.649 245.281 753.878 245.594C754.111 245.907 754.228 246.266 754.228 246.672C754.228 247.419 753.904 248.002 753.255 248.422C752.606 248.842 751.659 249.052 750.413 249.052C749.522 249.052 748.826 248.961 748.327 248.779C747.832 248.597 747.485 248.331 747.284 247.981C747.083 247.636 746.983 247.218 746.983 246.728H748.628C748.628 246.966 748.675 247.162 748.768 247.316C748.866 247.47 749.046 247.584 749.307 247.659C749.573 247.734 749.953 247.771 750.448 247.771C750.943 247.771 751.33 247.731 751.61 247.652C751.895 247.573 752.095 247.458 752.212 247.309C752.329 247.164 752.387 246.994 752.387 246.798C752.387 246.532 752.275 246.324 752.051 246.175C751.827 246.026 751.51 245.951 751.099 245.951H749.874C749.127 245.951 748.584 245.806 748.243 245.517C747.902 245.223 747.732 244.885 747.732 244.502C747.732 244.241 747.802 243.991 747.942 243.753C748.087 243.51 748.292 243.305 748.558 243.137C748.101 242.894 747.769 242.605 747.564 242.269C747.363 241.928 747.263 241.518 747.263 241.037C747.263 240.5 747.398 240.034 747.669 239.637C747.94 239.24 748.315 238.932 748.796 238.713C749.277 238.494 749.83 238.384 750.455 238.384C751.029 238.389 751.517 238.354 751.918 238.279C752.324 238.204 752.681 238.102 752.989 237.971C753.302 237.84 753.605 237.698 753.899 237.544ZM750.49 239.616C750.051 239.616 749.715 239.744 749.482 240.001C749.253 240.258 749.139 240.598 749.139 241.023C749.139 241.462 749.258 241.809 749.496 242.066C749.734 242.323 750.068 242.451 750.497 242.451C750.922 242.451 751.244 242.327 751.463 242.08C751.687 241.828 751.799 241.469 751.799 241.002C751.799 240.535 751.687 240.188 751.463 239.959C751.244 239.73 750.919 239.616 750.49 239.616ZM755.902 246V238.587H757.512L757.645 239.504C757.963 239.131 758.32 238.851 758.716 238.664C759.113 238.473 759.54 238.377 759.997 238.377C760.665 238.377 761.173 238.571 761.523 238.958C761.873 239.341 762.048 239.88 762.048 240.575V246H760.2V241.296C760.2 240.923 760.177 240.624 760.13 240.4C760.084 240.171 759.995 240.008 759.864 239.91C759.734 239.807 759.545 239.756 759.297 239.756C759.097 239.756 758.903 239.8 758.716 239.889C758.534 239.978 758.362 240.097 758.198 240.246C758.04 240.395 757.89 240.561 757.75 240.743V246H755.902Z" fill="#56E723"/>
<path d="M639.04 280.42C639.04 280.019 638.963 279.694 638.809 279.447C638.659 279.195 638.44 279.011 638.151 278.894C637.861 278.777 637.514 278.719 637.108 278.719H636.107V282.226H637.164C637.546 282.226 637.875 282.168 638.151 282.051C638.431 281.93 638.648 281.736 638.802 281.47C638.96 281.204 639.04 280.854 639.04 280.42ZM641.028 280.406C641.028 281.157 640.867 281.773 640.545 282.254C640.227 282.73 639.782 283.082 639.208 283.311C638.634 283.535 637.971 283.647 637.22 283.647H636.107V287H634.189V277.319H637.038C638.293 277.319 639.271 277.573 639.971 278.082C640.675 278.591 641.028 279.365 641.028 280.406ZM644.151 283.857C644.189 284.319 644.294 284.695 644.466 284.984C644.644 285.273 644.87 285.486 645.145 285.621C645.421 285.756 645.726 285.824 646.062 285.824C646.417 285.824 646.751 285.768 647.063 285.656C647.376 285.544 647.684 285.388 647.987 285.187L648.757 286.244C648.412 286.533 647.999 286.767 647.518 286.944C647.042 287.121 646.517 287.21 645.943 287.21C645.141 287.21 644.464 287.044 643.913 286.713C643.367 286.382 642.954 285.922 642.674 285.334C642.394 284.746 642.254 284.069 642.254 283.304C642.254 282.567 642.392 281.902 642.667 281.309C642.943 280.716 643.339 280.247 643.857 279.902C644.375 279.552 645.001 279.377 645.733 279.377C646.415 279.377 647.003 279.526 647.497 279.825C647.992 280.124 648.375 280.553 648.645 281.113C648.916 281.668 649.051 282.338 649.051 283.122C649.051 283.248 649.047 283.376 649.037 283.507C649.033 283.638 649.026 283.754 649.016 283.857H644.151ZM645.74 280.679C645.292 280.679 644.924 280.84 644.634 281.162C644.35 281.479 644.182 281.983 644.13 282.674H647.252C647.243 282.049 647.112 281.561 646.86 281.211C646.613 280.856 646.24 280.679 645.74 280.679ZM655.269 276.43L657.117 276.626V287H655.479L655.367 286.125C655.138 286.452 654.851 286.715 654.506 286.916C654.16 287.112 653.759 287.21 653.302 287.21C652.676 287.21 652.158 287.047 651.748 286.72C651.342 286.393 651.038 285.936 650.838 285.348C650.642 284.755 650.544 284.067 650.544 283.283C650.544 282.527 650.66 281.855 650.894 281.267C651.127 280.679 651.463 280.217 651.902 279.881C652.345 279.545 652.87 279.377 653.477 279.377C653.841 279.377 654.172 279.44 654.471 279.566C654.769 279.692 655.035 279.879 655.269 280.126V276.43ZM653.974 280.756C653.507 280.756 653.138 280.959 652.868 281.365C652.602 281.766 652.469 282.408 652.469 283.29C652.469 283.911 652.525 284.408 652.637 284.781C652.749 285.15 652.907 285.416 653.113 285.579C653.318 285.742 653.561 285.824 653.841 285.824C654.149 285.824 654.419 285.733 654.653 285.551C654.891 285.364 655.096 285.133 655.269 284.858V281.484C655.096 281.255 654.902 281.078 654.688 280.952C654.478 280.821 654.24 280.756 653.974 280.756ZM659.435 287V285.719H660.478V280.861H659.435V279.587H661.885L662.228 281.288C662.499 280.658 662.84 280.184 663.25 279.867C663.661 279.545 664.177 279.384 664.797 279.384C665.035 279.384 665.245 279.403 665.427 279.44C665.614 279.477 665.791 279.526 665.959 279.587L665.406 281.141C665.262 281.104 665.124 281.076 664.993 281.057C664.863 281.034 664.716 281.022 664.552 281.022C664.039 281.022 663.591 281.223 663.208 281.624C662.83 282.021 662.536 282.56 662.326 283.241V285.719H663.803V287H659.435ZM664.398 282.478V280.511L664.65 279.587H665.959L665.63 282.478H664.398ZM670.84 279.377C671.577 279.377 672.202 279.538 672.716 279.86C673.229 280.182 673.619 280.637 673.885 281.225C674.155 281.808 674.291 282.492 674.291 283.276C674.291 284.079 674.155 284.774 673.885 285.362C673.614 285.95 673.222 286.405 672.709 286.727C672.195 287.049 671.57 287.21 670.833 287.21C670.1 287.21 669.475 287.054 668.957 286.741C668.443 286.424 668.051 285.973 667.781 285.39C667.51 284.802 667.375 284.102 667.375 283.29C667.375 282.515 667.51 281.834 667.781 281.246C668.051 280.658 668.446 280.201 668.964 279.874C669.482 279.543 670.107 279.377 670.84 279.377ZM670.84 280.77C670.322 280.77 669.934 280.973 669.678 281.379C669.426 281.785 669.3 282.422 669.3 283.29C669.3 284.167 669.426 284.809 669.678 285.215C669.93 285.616 670.315 285.817 670.833 285.817C671.351 285.817 671.736 285.616 671.988 285.215C672.24 284.809 672.366 284.163 672.366 283.276C672.366 282.413 672.24 281.78 671.988 281.379C671.736 280.973 671.353 280.77 670.84 280.77ZM686.803 278.733V281.386H690.233V282.779H686.803V285.593H690.968V287H684.885V277.319H690.919L690.723 278.733H686.803ZM697.241 276.43L699.089 276.626V287H697.451L697.339 286.125C697.111 286.452 696.824 286.715 696.478 286.916C696.133 287.112 695.732 287.21 695.274 287.21C694.649 287.21 694.131 287.047 693.72 286.72C693.314 286.393 693.011 285.936 692.81 285.348C692.614 284.755 692.516 284.067 692.516 283.283C692.516 282.527 692.633 281.855 692.866 281.267C693.1 280.679 693.436 280.217 693.874 279.881C694.318 279.545 694.843 279.377 695.449 279.377C695.813 279.377 696.145 279.44 696.443 279.566C696.742 279.692 697.008 279.879 697.241 280.126V276.43ZM695.946 280.756C695.48 280.756 695.111 280.959 694.84 281.365C694.574 281.766 694.441 282.408 694.441 283.29C694.441 283.911 694.497 284.408 694.609 284.781C694.721 285.15 694.88 285.416 695.085 285.579C695.291 285.742 695.533 285.824 695.813 285.824C696.121 285.824 696.392 285.733 696.625 285.551C696.863 285.364 697.069 285.133 697.241 284.858V281.484C697.069 281.255 696.875 281.078 696.66 280.952C696.45 280.821 696.212 280.756 695.946 280.756ZM703.186 279.587V284.725C703.186 285.126 703.265 285.409 703.424 285.572C703.583 285.735 703.814 285.817 704.117 285.817C704.406 285.817 704.689 285.731 704.964 285.558C705.239 285.381 705.463 285.157 705.636 284.886V279.587H707.484V287H705.874L705.776 286.09C705.51 286.454 705.169 286.732 704.754 286.923C704.339 287.114 703.909 287.21 703.466 287.21C702.752 287.21 702.218 287.009 701.863 286.608C701.513 286.202 701.338 285.649 701.338 284.949V279.587H703.186ZM715.647 285.047C715.647 285.332 715.689 285.539 715.773 285.67C715.857 285.796 715.993 285.892 716.179 285.957L715.78 287.196C715.384 287.154 715.045 287.056 714.765 286.902C714.49 286.743 714.278 286.508 714.128 286.195C713.848 286.536 713.494 286.79 713.064 286.958C712.64 287.126 712.194 287.21 711.727 287.21C710.971 287.21 710.372 286.995 709.928 286.566C709.485 286.137 709.263 285.579 709.263 284.893C709.263 284.104 709.571 283.498 710.187 283.073C710.808 282.644 711.685 282.429 712.819 282.429H713.855V282.03C713.855 281.591 713.72 281.274 713.449 281.078C713.179 280.877 712.789 280.777 712.28 280.777C712.042 280.777 711.744 280.81 711.384 280.875C711.03 280.936 710.663 281.031 710.285 281.162L709.844 279.895C710.316 279.718 710.789 279.587 711.265 279.503C711.746 279.419 712.182 279.377 712.574 279.377C713.615 279.377 714.387 279.599 714.891 280.042C715.395 280.481 715.647 281.104 715.647 281.911V285.047ZM712.329 285.873C712.609 285.873 712.892 285.794 713.176 285.635C713.466 285.476 713.692 285.255 713.855 284.97V283.528H713.127C712.441 283.528 711.944 283.638 711.636 283.857C711.333 284.076 711.181 284.387 711.181 284.788C711.181 285.133 711.279 285.402 711.475 285.593C711.671 285.78 711.956 285.873 712.329 285.873ZM718.197 287V285.719H719.24V280.861H718.197V279.587H720.647L720.99 281.288C721.261 280.658 721.601 280.184 722.012 279.867C722.423 279.545 722.938 279.384 723.559 279.384C723.797 279.384 724.007 279.403 724.189 279.44C724.376 279.477 724.553 279.526 724.721 279.587L724.168 281.141C724.023 281.104 723.886 281.076 723.755 281.057C723.624 281.034 723.477 281.022 723.314 281.022C722.801 281.022 722.353 281.223 721.97 281.624C721.592 282.021 721.298 282.56 721.088 283.241V285.719H722.565V287H718.197ZM723.16 282.478V280.511L723.412 279.587H724.721L724.392 282.478H723.16ZM730.82 276.43L732.668 276.626V287H731.03L730.918 286.125C730.689 286.452 730.402 286.715 730.057 286.916C729.711 287.112 729.31 287.21 728.853 287.21C728.227 287.21 727.709 287.047 727.299 286.72C726.893 286.393 726.589 285.936 726.389 285.348C726.193 284.755 726.095 284.067 726.095 283.283C726.095 282.527 726.211 281.855 726.445 281.267C726.678 280.679 727.014 280.217 727.453 279.881C727.896 279.545 728.421 279.377 729.028 279.377C729.392 279.377 729.723 279.44 730.022 279.566C730.32 279.692 730.586 279.879 730.82 280.126V276.43ZM729.525 280.756C729.058 280.756 728.689 280.959 728.419 281.365C728.153 281.766 728.02 282.408 728.02 283.29C728.02 283.911 728.076 284.408 728.188 284.781C728.3 285.15 728.458 285.416 728.664 285.579C728.869 285.742 729.112 285.824 729.392 285.824C729.7 285.824 729.97 285.733 730.204 285.551C730.442 285.364 730.647 285.133 730.82 284.858V281.484C730.647 281.255 730.453 281.078 730.239 280.952C730.029 280.821 729.791 280.756 729.525 280.756ZM737.996 279.377C738.733 279.377 739.359 279.538 739.872 279.86C740.385 280.182 740.775 280.637 741.041 281.225C741.312 281.808 741.447 282.492 741.447 283.276C741.447 284.079 741.312 284.774 741.041 285.362C740.77 285.95 740.378 286.405 739.865 286.727C739.352 287.049 738.726 287.21 737.989 287.21C737.256 287.21 736.631 287.054 736.113 286.741C735.6 286.424 735.208 285.973 734.937 285.39C734.666 284.802 734.531 284.102 734.531 283.29C734.531 282.515 734.666 281.834 734.937 281.246C735.208 280.658 735.602 280.201 736.12 279.874C736.638 279.543 737.263 279.377 737.996 279.377ZM737.996 280.77C737.478 280.77 737.091 280.973 736.834 281.379C736.582 281.785 736.456 282.422 736.456 283.29C736.456 284.167 736.582 284.809 736.834 285.215C737.086 285.616 737.471 285.817 737.989 285.817C738.507 285.817 738.892 285.616 739.144 285.215C739.396 284.809 739.522 284.163 739.522 283.276C739.522 282.413 739.396 281.78 739.144 281.379C738.892 280.973 738.509 280.77 737.996 280.77ZM755.59 277.109C756.262 277.109 756.831 277.198 757.298 277.375C757.765 277.548 758.196 277.797 758.593 278.124L757.62 279.279C757.345 279.046 757.041 278.868 756.71 278.747C756.383 278.626 756.033 278.565 755.66 278.565C755.212 278.565 754.799 278.684 754.421 278.922C754.048 279.16 753.747 279.543 753.518 280.07C753.294 280.593 753.182 281.283 753.182 282.142C753.182 282.987 753.289 283.67 753.504 284.193C753.723 284.716 754.02 285.098 754.393 285.341C754.771 285.579 755.198 285.698 755.674 285.698C756.178 285.698 756.596 285.609 756.927 285.432C757.258 285.255 757.557 285.061 757.823 284.851L758.726 285.992C758.385 286.328 757.958 286.615 757.445 286.853C756.936 287.091 756.318 287.21 755.59 287.21C754.745 287.21 753.992 287.016 753.329 286.629C752.666 286.242 752.146 285.672 751.768 284.921C751.39 284.17 751.201 283.243 751.201 282.142C751.201 281.059 751.395 280.145 751.782 279.398C752.174 278.647 752.701 278.077 753.364 277.69C754.031 277.303 754.773 277.109 755.59 277.109ZM761.948 276.451V280.42C762.256 280.07 762.601 279.809 762.984 279.636C763.371 279.463 763.775 279.377 764.195 279.377C764.876 279.377 765.387 279.571 765.728 279.958C766.073 280.341 766.246 280.88 766.246 281.575V287H764.398V281.988C764.398 281.54 764.328 281.223 764.188 281.036C764.052 280.849 763.819 280.756 763.488 280.756C763.292 280.756 763.1 280.803 762.914 280.896C762.732 280.985 762.559 281.106 762.396 281.26C762.237 281.414 762.088 281.587 761.948 281.778V287H760.1V276.633L761.948 276.451ZM772.757 279.587V285.691H774.71V287H768.739V285.691H770.909V280.896H768.809V279.587H772.757ZM771.56 275.849C771.901 275.849 772.176 275.954 772.386 276.164C772.601 276.374 772.708 276.635 772.708 276.948C772.708 277.261 772.601 277.524 772.386 277.739C772.176 277.949 771.901 278.054 771.56 278.054C771.22 278.054 770.942 277.949 770.727 277.739C770.513 277.524 770.405 277.261 770.405 276.948C770.405 276.635 770.513 276.374 770.727 276.164C770.942 275.954 771.22 275.849 771.56 275.849ZM776.889 287V279.587H778.499L778.632 280.504C778.949 280.131 779.306 279.851 779.703 279.664C780.099 279.473 780.526 279.377 780.984 279.377C781.651 279.377 782.16 279.571 782.51 279.958C782.86 280.341 783.035 280.88 783.035 281.575V287H781.187V282.296C781.187 281.923 781.163 281.624 781.117 281.4C781.07 281.171 780.981 281.008 780.851 280.91C780.72 280.807 780.531 280.756 780.284 280.756C780.083 280.756 779.889 280.8 779.703 280.889C779.521 280.978 779.348 281.097 779.185 281.246C779.026 281.395 778.877 281.561 778.737 281.743V287H776.889ZM786.858 283.857C786.896 284.319 787.001 284.695 787.173 284.984C787.351 285.273 787.577 285.486 787.852 285.621C788.128 285.756 788.433 285.824 788.769 285.824C789.124 285.824 789.458 285.768 789.77 285.656C790.083 285.544 790.391 285.388 790.694 285.187L791.464 286.244C791.119 286.533 790.706 286.767 790.225 286.944C789.749 287.121 789.224 287.21 788.65 287.21C787.848 287.21 787.171 287.044 786.62 286.713C786.074 286.382 785.661 285.922 785.381 285.334C785.101 284.746 784.961 284.069 784.961 283.304C784.961 282.567 785.099 281.902 785.374 281.309C785.65 280.716 786.046 280.247 786.564 279.902C787.082 279.552 787.708 279.377 788.44 279.377C789.122 279.377 789.71 279.526 790.204 279.825C790.699 280.124 791.082 280.553 791.352 281.113C791.623 281.668 791.758 282.338 791.758 283.122C791.758 283.248 791.754 283.376 791.744 283.507C791.74 283.638 791.733 283.754 791.723 283.857H786.858ZM788.447 280.679C787.999 280.679 787.631 280.84 787.341 281.162C787.057 281.479 786.889 281.983 786.837 282.674H789.959C789.95 282.049 789.819 281.561 789.567 281.211C789.32 280.856 788.947 280.679 788.447 280.679ZM793.678 287V279.587H795.288L795.421 280.504C795.738 280.131 796.095 279.851 796.492 279.664C796.888 279.473 797.315 279.377 797.773 279.377C798.44 279.377 798.949 279.571 799.299 279.958C799.649 280.341 799.824 280.88 799.824 281.575V287H797.976V282.296C797.976 281.923 797.952 281.624 797.906 281.4C797.859 281.171 797.77 281.008 797.64 280.91C797.509 280.807 797.32 280.756 797.073 280.756C796.872 280.756 796.678 280.8 796.492 280.889C796.31 280.978 796.137 281.097 795.974 281.246C795.815 281.395 795.666 281.561 795.526 281.743V287H793.678Z" fill="white"/>
<path d="M422.752 241.114C422.752 240.395 422.685 239.814 422.549 239.371C422.419 238.928 422.239 238.589 422.01 238.356C421.782 238.118 421.523 237.957 421.233 237.873C420.944 237.789 420.643 237.747 420.33 237.747H419.616V244.579H420.337C420.664 244.579 420.972 244.528 421.261 244.425C421.555 244.322 421.814 244.145 422.038 243.893C422.262 243.636 422.437 243.284 422.563 242.836C422.689 242.383 422.752 241.809 422.752 241.114ZM424.754 241.114C424.754 241.907 424.668 242.586 424.495 243.151C424.327 243.716 424.094 244.185 423.795 244.558C423.497 244.927 423.151 245.216 422.759 245.426C422.372 245.636 421.957 245.785 421.513 245.874C421.075 245.958 420.629 246 420.176 246H417.698V236.319H420.008C420.61 236.319 421.194 236.384 421.758 236.515C422.323 236.641 422.829 236.874 423.277 237.215C423.73 237.556 424.089 238.041 424.355 238.671C424.621 239.296 424.754 240.111 424.754 241.114ZM427.913 242.857C427.95 243.319 428.055 243.695 428.228 243.984C428.405 244.273 428.632 244.486 428.907 244.621C429.182 244.756 429.488 244.824 429.824 244.824C430.179 244.824 430.512 244.768 430.825 244.656C431.138 244.544 431.446 244.388 431.749 244.187L432.519 245.244C432.174 245.533 431.761 245.767 431.28 245.944C430.804 246.121 430.279 246.21 429.705 246.21C428.902 246.21 428.226 246.044 427.675 245.713C427.129 245.382 426.716 244.922 426.436 244.334C426.156 243.746 426.016 243.069 426.016 242.304C426.016 241.567 426.154 240.902 426.429 240.309C426.704 239.716 427.101 239.247 427.619 238.902C428.137 238.552 428.762 238.377 429.495 238.377C430.176 238.377 430.764 238.526 431.259 238.825C431.754 239.124 432.136 239.553 432.407 240.113C432.678 240.668 432.813 241.338 432.813 242.122C432.813 242.248 432.808 242.376 432.799 242.507C432.794 242.638 432.787 242.754 432.778 242.857H427.913ZM429.502 239.679C429.054 239.679 428.685 239.84 428.396 240.162C428.111 240.479 427.943 240.983 427.892 241.674H431.014C431.005 241.049 430.874 240.561 430.622 240.211C430.375 239.856 430.001 239.679 429.502 239.679ZM437.553 244.845C437.987 244.845 438.335 244.77 438.596 244.621C438.862 244.467 438.995 244.252 438.995 243.977C438.995 243.795 438.951 243.641 438.862 243.515C438.778 243.389 438.61 243.272 438.358 243.165C438.106 243.053 437.728 242.929 437.224 242.794C436.748 242.673 436.331 242.523 435.971 242.346C435.617 242.164 435.339 241.931 435.138 241.646C434.942 241.361 434.844 241.002 434.844 240.568C434.844 240.134 434.966 239.754 435.208 239.427C435.451 239.096 435.801 238.839 436.258 238.657C436.72 238.47 437.276 238.377 437.924 238.377C438.559 238.377 439.114 238.461 439.59 238.629C440.066 238.792 440.475 238.998 440.815 239.245L440.059 240.372C439.761 240.181 439.436 240.027 439.086 239.91C438.741 239.789 438.368 239.728 437.966 239.728C437.532 239.728 437.215 239.791 437.014 239.917C436.818 240.043 436.72 240.218 436.72 240.442C436.72 240.601 436.769 240.736 436.867 240.848C436.97 240.955 437.152 241.06 437.413 241.163C437.679 241.261 438.057 241.38 438.547 241.52C439.028 241.651 439.446 241.805 439.8 241.982C440.16 242.159 440.437 242.395 440.633 242.689C440.829 242.983 440.927 243.368 440.927 243.844C440.927 244.381 440.771 244.824 440.458 245.174C440.146 245.524 439.733 245.785 439.219 245.958C438.711 246.126 438.158 246.21 437.56 246.21C436.86 246.21 436.249 246.11 435.726 245.909C435.204 245.708 434.76 245.449 434.396 245.132L435.355 244.054C435.645 244.283 435.974 244.472 436.342 244.621C436.716 244.77 437.119 244.845 437.553 244.845ZM447.39 238.587V244.691H449.343V246H443.372V244.691H445.542V239.896H443.442V238.587H447.39ZM446.193 234.849C446.534 234.849 446.809 234.954 447.019 235.164C447.234 235.374 447.341 235.635 447.341 235.948C447.341 236.261 447.234 236.524 447.019 236.739C446.809 236.949 446.534 237.054 446.193 237.054C445.852 237.054 445.575 236.949 445.36 236.739C445.145 236.524 445.038 236.261 445.038 235.948C445.038 235.635 445.145 235.374 445.36 235.164C445.575 234.954 445.852 234.849 446.193 234.849ZM457.913 237.544L458.375 238.986C458.095 239.084 457.78 239.154 457.43 239.196C457.08 239.233 456.678 239.252 456.226 239.252C456.678 239.448 457.021 239.698 457.255 240.001C457.493 240.3 457.612 240.68 457.612 241.142C457.612 241.623 457.488 242.052 457.241 242.43C456.998 242.808 456.65 243.104 456.198 243.319C455.75 243.534 455.215 243.641 454.595 243.641C454.403 243.641 454.233 243.632 454.084 243.613C453.934 243.594 453.79 243.569 453.65 243.536C453.556 243.587 453.484 243.662 453.433 243.76C453.381 243.858 453.356 243.958 453.356 244.061C453.356 244.201 453.409 244.322 453.517 244.425C453.629 244.523 453.867 244.572 454.231 244.572H455.491C456.037 244.572 456.515 244.665 456.926 244.852C457.341 245.034 457.663 245.281 457.892 245.594C458.125 245.907 458.242 246.266 458.242 246.672C458.242 247.419 457.917 248.002 457.269 248.422C456.62 248.842 455.673 249.052 454.427 249.052C453.535 249.052 452.84 248.961 452.341 248.779C451.846 248.597 451.498 248.331 451.298 247.981C451.097 247.636 450.997 247.218 450.997 246.728H452.642C452.642 246.966 452.688 247.162 452.782 247.316C452.88 247.47 453.059 247.584 453.321 247.659C453.587 247.734 453.967 247.771 454.462 247.771C454.956 247.771 455.344 247.731 455.624 247.652C455.908 247.573 456.109 247.458 456.226 247.309C456.342 247.164 456.401 246.994 456.401 246.798C456.401 246.532 456.289 246.324 456.065 246.175C455.841 246.026 455.523 245.951 455.113 245.951H453.888C453.141 245.951 452.597 245.806 452.257 245.517C451.916 245.223 451.746 244.885 451.746 244.502C451.746 244.241 451.816 243.991 451.956 243.753C452.1 243.51 452.306 243.305 452.572 243.137C452.114 242.894 451.783 242.605 451.578 242.269C451.377 241.928 451.277 241.518 451.277 241.037C451.277 240.5 451.412 240.034 451.683 239.637C451.953 239.24 452.329 238.932 452.81 238.713C453.29 238.494 453.843 238.384 454.469 238.384C455.043 238.389 455.53 238.354 455.932 238.279C456.338 238.204 456.695 238.102 457.003 237.971C457.315 237.84 457.619 237.698 457.913 237.544ZM454.504 239.616C454.065 239.616 453.729 239.744 453.496 240.001C453.267 240.258 453.153 240.598 453.153 241.023C453.153 241.462 453.272 241.809 453.51 242.066C453.748 242.323 454.081 242.451 454.511 242.451C454.935 242.451 455.257 242.327 455.477 242.08C455.701 241.828 455.813 241.469 455.813 241.002C455.813 240.535 455.701 240.188 455.477 239.959C455.257 239.73 454.933 239.616 454.504 239.616ZM459.916 246V238.587H461.526L461.659 239.504C461.976 239.131 462.333 238.851 462.73 238.664C463.127 238.473 463.554 238.377 464.011 238.377C464.678 238.377 465.187 238.571 465.537 238.958C465.887 239.341 466.062 239.88 466.062 240.575V246H464.214V241.296C464.214 240.923 464.191 240.624 464.144 240.4C464.097 240.171 464.009 240.008 463.878 239.91C463.747 239.807 463.558 239.756 463.311 239.756C463.11 239.756 462.917 239.8 462.73 239.889C462.548 239.978 462.375 240.097 462.212 240.246C462.053 240.395 461.904 240.561 461.764 240.743V246H459.916Z" fill="#57EB23"/>
<path d="M390.469 277.319V283.612C390.469 284.116 390.395 284.587 390.245 285.026C390.096 285.465 389.867 285.845 389.559 286.167C389.256 286.489 388.873 286.741 388.411 286.923C387.949 287.105 387.406 287.196 386.78 287.196C386.211 287.196 385.698 287.117 385.24 286.958C384.788 286.799 384.358 286.578 383.952 286.293L384.708 285.096C385.068 285.334 385.401 285.5 385.709 285.593C386.022 285.682 386.346 285.726 386.682 285.726C387.242 285.726 387.695 285.549 388.04 285.194C388.386 284.835 388.558 284.305 388.558 283.605V278.761H385.618V277.319H390.469ZM394.608 279.587V284.725C394.608 285.126 394.687 285.409 394.846 285.572C395.004 285.735 395.235 285.817 395.539 285.817C395.828 285.817 396.11 285.731 396.386 285.558C396.661 285.381 396.885 285.157 397.058 284.886V279.587H398.906V287H397.296L397.198 286.09C396.932 286.454 396.591 286.732 396.176 286.923C395.76 287.114 395.331 287.21 394.888 287.21C394.174 287.21 393.639 287.009 393.285 286.608C392.935 286.202 392.76 285.649 392.76 284.949V279.587H394.608ZM404.682 276.626V284.844C404.682 285.166 404.776 285.395 404.962 285.53C405.154 285.665 405.41 285.733 405.732 285.733C405.933 285.733 406.127 285.712 406.313 285.67C406.5 285.623 406.677 285.567 406.845 285.502L407.3 286.762C407.067 286.879 406.782 286.981 406.446 287.07C406.115 287.163 405.73 287.21 405.291 287.21C404.484 287.21 403.873 286.979 403.457 286.517C403.042 286.055 402.834 285.432 402.834 284.648V277.935H400.615V276.626H404.682ZM413.812 279.587V285.691H415.765V287H409.794V285.691H411.964V280.896H409.864V279.587H413.812ZM412.615 275.849C412.956 275.849 413.231 275.954 413.441 276.164C413.656 276.374 413.763 276.635 413.763 276.948C413.763 277.261 413.656 277.524 413.441 277.739C413.231 277.949 412.956 278.054 412.615 278.054C412.274 278.054 411.997 277.949 411.782 277.739C411.567 277.524 411.46 277.261 411.46 276.948C411.46 276.635 411.567 276.374 411.782 276.164C411.997 275.954 412.274 275.849 412.615 275.849ZM423.858 285.047C423.858 285.332 423.9 285.539 423.984 285.67C424.068 285.796 424.204 285.892 424.39 285.957L423.991 287.196C423.595 287.154 423.256 287.056 422.976 286.902C422.701 286.743 422.489 286.508 422.339 286.195C422.059 286.536 421.705 286.79 421.275 286.958C420.851 287.126 420.405 287.21 419.938 287.21C419.182 287.21 418.583 286.995 418.139 286.566C417.696 286.137 417.474 285.579 417.474 284.893C417.474 284.104 417.782 283.498 418.398 283.073C419.019 282.644 419.896 282.429 421.03 282.429H422.066V282.03C422.066 281.591 421.931 281.274 421.66 281.078C421.39 280.877 421 280.777 420.491 280.777C420.253 280.777 419.955 280.81 419.595 280.875C419.241 280.936 418.874 281.031 418.496 281.162L418.055 279.895C418.527 279.718 419 279.587 419.476 279.503C419.957 279.419 420.393 279.377 420.785 279.377C421.826 279.377 422.598 279.599 423.102 280.042C423.606 280.481 423.858 281.104 423.858 281.911V285.047ZM420.54 285.873C420.82 285.873 421.103 285.794 421.387 285.635C421.677 285.476 421.903 285.255 422.066 284.97V283.528H421.338C420.652 283.528 420.155 283.638 419.847 283.857C419.544 284.076 419.392 284.387 419.392 284.788C419.392 285.133 419.49 285.402 419.686 285.593C419.882 285.78 420.167 285.873 420.54 285.873ZM439.03 276.43L440.878 276.626V287H439.24L439.128 286.125C438.9 286.452 438.613 286.715 438.267 286.916C437.922 287.112 437.521 287.21 437.063 287.21C436.438 287.21 435.92 287.047 435.509 286.72C435.103 286.393 434.8 285.936 434.599 285.348C434.403 284.755 434.305 284.067 434.305 283.283C434.305 282.527 434.422 281.855 434.655 281.267C434.889 280.679 435.225 280.217 435.663 279.881C436.107 279.545 436.632 279.377 437.238 279.377C437.602 279.377 437.934 279.44 438.232 279.566C438.531 279.692 438.797 279.879 439.03 280.126V276.43ZM437.735 280.756C437.269 280.756 436.9 280.959 436.629 281.365C436.363 281.766 436.23 282.408 436.23 283.29C436.23 283.911 436.286 284.408 436.398 284.781C436.51 285.15 436.669 285.416 436.874 285.579C437.08 285.742 437.322 285.824 437.602 285.824C437.91 285.824 438.181 285.733 438.414 285.551C438.652 285.364 438.858 285.133 439.03 284.858V281.484C438.858 281.255 438.664 281.078 438.449 280.952C438.239 280.821 438.001 280.756 437.735 280.756ZM444.702 283.857C444.739 284.319 444.844 284.695 445.017 284.984C445.194 285.273 445.421 285.486 445.696 285.621C445.971 285.756 446.277 285.824 446.613 285.824C446.968 285.824 447.301 285.768 447.614 285.656C447.927 285.544 448.235 285.388 448.538 285.187L449.308 286.244C448.963 286.533 448.55 286.767 448.069 286.944C447.593 287.121 447.068 287.21 446.494 287.21C445.691 287.21 445.015 287.044 444.464 286.713C443.918 286.382 443.505 285.922 443.225 285.334C442.945 284.746 442.805 284.069 442.805 283.304C442.805 282.567 442.943 281.902 443.218 281.309C443.493 280.716 443.89 280.247 444.408 279.902C444.926 279.552 445.551 279.377 446.284 279.377C446.965 279.377 447.553 279.526 448.048 279.825C448.543 280.124 448.925 280.553 449.196 281.113C449.467 281.668 449.602 282.338 449.602 283.122C449.602 283.248 449.597 283.376 449.588 283.507C449.583 283.638 449.576 283.754 449.567 283.857H444.702ZM446.291 280.679C445.843 280.679 445.474 280.84 445.185 281.162C444.9 281.479 444.732 281.983 444.681 282.674H447.803C447.794 282.049 447.663 281.561 447.411 281.211C447.164 280.856 446.79 280.679 446.291 280.679ZM466.335 277.319L466.881 287H465.173L464.991 282.541C464.977 282.168 464.968 281.822 464.963 281.505C464.963 281.183 464.965 280.88 464.97 280.595C464.975 280.306 464.982 280.028 464.991 279.762C465.005 279.496 465.021 279.235 465.04 278.978L463.759 285.32H462.205L460.833 278.978C460.852 279.225 460.868 279.484 460.882 279.755C460.896 280.026 460.905 280.308 460.91 280.602C460.919 280.896 460.924 281.206 460.924 281.533C460.929 281.86 460.924 282.2 460.91 282.555L460.777 287H459.097L459.643 277.319H461.771L463.017 283.71L464.207 277.319H466.335ZM474.226 285.047C474.226 285.332 474.268 285.539 474.352 285.67C474.436 285.796 474.571 285.892 474.758 285.957L474.359 287.196C473.962 287.154 473.624 287.056 473.344 286.902C473.068 286.743 472.856 286.508 472.707 286.195C472.427 286.536 472.072 286.79 471.643 286.958C471.218 287.126 470.772 287.21 470.306 287.21C469.55 287.21 468.95 286.995 468.507 286.566C468.063 286.137 467.842 285.579 467.842 284.893C467.842 284.104 468.15 283.498 468.766 283.073C469.386 282.644 470.264 282.429 471.398 282.429H472.434V282.03C472.434 281.591 472.298 281.274 472.028 281.078C471.757 280.877 471.367 280.777 470.859 280.777C470.621 280.777 470.322 280.81 469.963 280.875C469.608 280.936 469.242 281.031 468.864 281.162L468.423 279.895C468.894 279.718 469.368 279.587 469.844 279.503C470.324 279.419 470.761 279.377 471.153 279.377C472.193 279.377 472.966 279.599 473.47 280.042C473.974 280.481 474.226 281.104 474.226 281.911V285.047ZM470.908 285.873C471.188 285.873 471.47 285.794 471.755 285.635C472.044 285.476 472.27 285.255 472.434 284.97V283.528H471.706C471.02 283.528 470.523 283.638 470.215 283.857C469.911 284.076 469.76 284.387 469.76 284.788C469.76 285.133 469.858 285.402 470.054 285.593C470.25 285.78 470.534 285.873 470.908 285.873ZM483.103 286.587C482.828 286.769 482.494 286.918 482.102 287.035C481.71 287.152 481.285 287.21 480.828 287.21C479.923 287.21 479.241 286.977 478.784 286.51C478.327 286.039 478.098 285.413 478.098 284.634V280.896H476.488V279.587H478.098V277.956L479.946 277.732V279.587H482.396L482.207 280.896H479.946V284.627C479.946 285.01 480.039 285.29 480.226 285.467C480.413 285.644 480.714 285.733 481.129 285.733C481.395 285.733 481.638 285.703 481.857 285.642C482.081 285.577 482.284 285.495 482.466 285.397L483.103 286.587ZM488.18 279.377C488.917 279.377 489.542 279.538 490.056 279.86C490.569 280.182 490.959 280.637 491.225 281.225C491.495 281.808 491.631 282.492 491.631 283.276C491.631 284.079 491.495 284.774 491.225 285.362C490.954 285.95 490.562 286.405 490.049 286.727C489.535 287.049 488.91 287.21 488.173 287.21C487.44 287.21 486.815 287.054 486.297 286.741C485.783 286.424 485.391 285.973 485.121 285.39C484.85 284.802 484.715 284.102 484.715 283.29C484.715 282.515 484.85 281.834 485.121 281.246C485.391 280.658 485.786 280.201 486.304 279.874C486.822 279.543 487.447 279.377 488.18 279.377ZM488.18 280.77C487.662 280.77 487.274 280.973 487.018 281.379C486.766 281.785 486.64 282.422 486.64 283.29C486.64 284.167 486.766 284.809 487.018 285.215C487.27 285.616 487.655 285.817 488.173 285.817C488.691 285.817 489.076 285.616 489.328 285.215C489.58 284.809 489.706 284.163 489.706 283.276C489.706 282.413 489.58 281.78 489.328 281.379C489.076 280.973 488.693 280.77 488.18 280.77ZM496.315 285.845C496.749 285.845 497.097 285.77 497.358 285.621C497.624 285.467 497.757 285.252 497.757 284.977C497.757 284.795 497.713 284.641 497.624 284.515C497.54 284.389 497.372 284.272 497.12 284.165C496.868 284.053 496.49 283.929 495.986 283.794C495.51 283.673 495.093 283.523 494.733 283.346C494.379 283.164 494.101 282.931 493.9 282.646C493.704 282.361 493.606 282.002 493.606 281.568C493.606 281.134 493.728 280.754 493.97 280.427C494.213 280.096 494.563 279.839 495.02 279.657C495.482 279.47 496.038 279.377 496.686 279.377C497.321 279.377 497.876 279.461 498.352 279.629C498.828 279.792 499.237 279.998 499.577 280.245L498.821 281.372C498.523 281.181 498.198 281.027 497.848 280.91C497.503 280.789 497.13 280.728 496.728 280.728C496.294 280.728 495.977 280.791 495.776 280.917C495.58 281.043 495.482 281.218 495.482 281.442C495.482 281.601 495.531 281.736 495.629 281.848C495.732 281.955 495.914 282.06 496.175 282.163C496.441 282.261 496.819 282.38 497.309 282.52C497.79 282.651 498.208 282.805 498.562 282.982C498.922 283.159 499.199 283.395 499.395 283.689C499.591 283.983 499.689 284.368 499.689 284.844C499.689 285.381 499.533 285.824 499.22 286.174C498.908 286.524 498.495 286.785 497.981 286.958C497.473 287.126 496.92 287.21 496.322 287.21C495.622 287.21 495.011 287.11 494.488 286.909C493.966 286.708 493.522 286.449 493.158 286.132L494.117 285.054C494.407 285.283 494.736 285.472 495.104 285.621C495.478 285.77 495.881 285.845 496.315 285.845Z" fill="white"/>
</g>
<defs>
<filter id="filter0_i_758_260" x="0" y="0" width="1158" height="539" filterUnits="userSpaceOnUse" color-interpolation-filters="sRGB">
<feFlood flood-opacity="0" result="BackgroundImageFix"/>
<feBlend mode="normal" in="SourceGraphic" in2="BackgroundImageFix" result="shape"/>
<feColorMatrix in="SourceAlpha" type="matrix" values="0 0 0 0 0 0 0 0 0 0 0 0 0 0 0 0 0 0 127 0" result="hardAlpha"/>
<feOffset dy="4"/>
<feGaussianBlur stdDeviation="61"/>
<feComposite in2="hardAlpha" operator="arithmetic" k2="-1" k3="1"/>
<feColorMatrix type="matrix" values="0 0 0 0 0 0 0 0 0 0 0 0 0 0 0 0 0 0 0.5 0"/>
<feBlend mode="normal" in2="shape" result="effect1_innerShadow_758_260"/>
</filter>
<clipPath id="clip0_758_260">
<rect width="1158" height="535" fill="white"/>
</clipPath>
</defs>
</svg>
