<svg width="20" height="14" viewBox="0 0 20 14" fill="none" xmlns="http://www.w3.org/2000/svg">
<path d="M9.47385 1L2.82769 4.71077H1V9.03077H4.32308L7.20308 12.9631H14.0154V11.1354L19 9.03077V6.15077L15.6769 4.71077L14.0154 1H11.5231H9.47385Z" fill="#D9D9D9" stroke="black"/>
<path d="M10.2492 3.21538L7.25847 4.6L4.2677 4.21231L2.88309 6.53846L9.47386 7.31385L10.2492 4.6H12.1877L11.5785 8.25538L10.9692 8.2989M10.9692 8.2989L6.15078 8.64308L7.64616 11.08L11.5785 10.5815L10.9692 8.2989ZM16.5077 6.53846L17.0615 9.64H12.1877V7.31385H13.7385V5.98461V3.76923L12.1877 3.21538V1.16615L14.4031 2.44" stroke="black"/>
</svg>
