<?xml version="1.0" encoding="UTF-8"?>
<svg id="Camada_2" data-name="Camada 2" xmlns="http://www.w3.org/2000/svg" viewBox="0 0 421.44 24.5">
  <defs>
    <style>
      .cls-1 {
        fill: #979797;
      }
    </style>
  </defs>
  <g id="Camada_1-2" data-name="Camada 1">
    <g id="espaco">
      <rect class="cls-1" x="1.68" y="1.67" width="418.1" height="21.15" rx="9.92" ry="9.92"/>
      <path class="cls-1" d="m409.85,24.5H11.6C5.2,24.5,0,19.3,0,12.9v-1.31C0,5.19,5.2,0,11.6,0h398.25c6.4,0,11.59,5.19,11.59,11.59v1.31c0,6.4-5.19,11.6-11.59,11.6ZM11.6,3.35C7.05,3.35,3.35,7.05,3.35,11.59v1.31c0,4.55,3.7,8.25,8.25,8.25h398.25c4.54,0,8.24-3.7,8.24-8.25v-1.31c0-4.54-3.7-8.24-8.24-8.24H11.6Z"/>
    </g>
  </g>
</svg>