<svg width="1026" height="259" viewBox="0 0 1026 259" fill="none" xmlns="http://www.w3.org/2000/svg">
<path d="M20.2046 258H1010.97C976.359 119.493 1009.25 58.4921 1023.72 1H32.943C14.9019 58.7712 -20.7814 125.453 20.2046 258Z" fill="white" stroke="black" stroke-width="2" stroke-miterlimit="10"/>
<path d="M97 108H138.823" stroke="black" stroke-width="2" stroke-miterlimit="10"/>
<path d="M156.247 108H198.648" stroke="black" stroke-width="2" stroke-miterlimit="10"/>
<path d="M219.021 108H259.05" stroke="black" stroke-width="2" stroke-miterlimit="10"/>
<path d="M275.736 108H320.031" stroke="black" stroke-width="2" stroke-miterlimit="10"/>
<path d="M220.124 140.994C220.124 141.15 220.116 141.309 220.1 141.473C220.093 141.629 220.069 141.784 220.03 141.94C219.999 142.073 219.956 142.197 219.902 142.314C219.855 142.423 219.824 142.544 219.808 142.676C219.793 142.754 219.777 142.84 219.762 142.933C219.746 143.019 219.688 143.061 219.586 143.061L219.493 143.05C219.368 143.05 219.275 143.1 219.213 143.202C219.15 143.295 219.1 143.412 219.061 143.552C219.03 143.684 219.002 143.821 218.979 143.961C218.964 144.101 218.944 144.214 218.921 144.3C218.897 144.385 218.882 144.463 218.874 144.533C218.874 144.596 218.87 144.654 218.862 144.708C218.862 144.755 218.847 144.806 218.816 144.86C218.784 144.915 218.73 144.973 218.652 145.036C218.527 145.129 218.407 145.219 218.29 145.304C218.173 145.39 218.068 145.491 217.975 145.608C217.904 145.694 217.858 145.767 217.834 145.83C217.811 145.892 217.788 145.95 217.764 146.005C217.741 146.06 217.702 146.11 217.648 146.157C217.601 146.196 217.519 146.235 217.402 146.274C217.223 146.336 217.052 146.406 216.888 146.484C216.725 146.562 216.557 146.632 216.386 146.694C216.184 146.772 215.993 146.862 215.814 146.963C215.635 147.056 215.452 147.146 215.265 147.231C215.078 147.317 214.883 147.387 214.681 147.442C214.486 147.504 214.276 147.535 214.05 147.535C213.847 147.535 213.645 147.504 213.442 147.442C213.248 147.379 213.065 147.294 212.894 147.185C212.73 147.169 212.605 147.111 212.52 147.01C212.434 146.908 212.364 146.788 212.309 146.647C212.263 146.538 212.216 146.461 212.169 146.414C212.13 146.367 212.084 146.336 212.029 146.32C211.982 146.297 211.928 146.278 211.866 146.262C211.803 146.246 211.729 146.211 211.644 146.157C211.293 145.931 210.974 145.651 210.686 145.316C210.398 144.973 210.129 144.631 209.88 144.288C209.825 144.21 209.783 144.121 209.751 144.019C209.728 143.91 209.705 143.805 209.681 143.704C209.658 143.595 209.631 143.494 209.6 143.4C209.576 143.299 209.537 143.221 209.483 143.167C209.382 143.065 209.292 143.011 209.214 143.003C209.136 142.995 209.07 142.98 209.016 142.956C208.969 142.925 208.93 142.859 208.899 142.758C208.875 142.649 208.864 142.45 208.864 142.162C208.864 141.983 208.848 141.796 208.817 141.601C208.786 141.407 208.747 141.208 208.7 141.006C208.661 140.795 208.626 140.585 208.595 140.375C208.564 140.157 208.548 139.943 208.548 139.733C208.548 139.507 208.56 139.281 208.583 139.055C208.615 138.829 208.65 138.603 208.689 138.378C208.727 138.152 208.766 137.93 208.805 137.712C208.844 137.486 208.872 137.26 208.887 137.034C208.903 136.824 208.91 136.61 208.91 136.392C208.918 136.174 208.926 135.956 208.934 135.738C208.949 135.52 208.973 135.306 209.004 135.095C209.035 134.885 209.09 134.679 209.167 134.476C209.245 134.258 209.343 134.052 209.459 133.857C209.584 133.663 209.705 133.468 209.822 133.273C209.938 133.079 210.047 132.88 210.149 132.677C210.25 132.475 210.328 132.257 210.382 132.023C210.413 131.875 210.511 131.739 210.674 131.615C210.838 131.482 211.04 131.361 211.282 131.252C211.523 131.136 211.784 131.034 212.064 130.949C212.352 130.855 212.637 130.777 212.917 130.715C213.197 130.645 213.454 130.594 213.688 130.563C213.929 130.524 214.124 130.505 214.272 130.505C214.661 130.505 215.027 130.555 215.37 130.657C215.712 130.75 216.059 130.875 216.409 131.031C216.565 131.101 216.733 131.159 216.912 131.206C217.099 131.245 217.274 131.264 217.437 131.264C217.601 131.264 217.721 131.237 217.799 131.182C217.885 131.12 217.951 131.05 217.998 130.972C218.045 130.886 218.084 130.809 218.115 130.738C218.146 130.661 218.193 130.602 218.255 130.563L218.22 130.575C218.235 130.559 218.263 130.552 218.302 130.552C218.341 130.544 218.383 130.54 218.43 130.54C218.492 130.548 218.566 130.563 218.652 130.587C218.745 130.61 218.839 130.637 218.932 130.668C219.026 130.7 219.111 130.735 219.189 130.774C219.275 130.805 219.337 130.836 219.376 130.867C219.4 130.883 219.439 130.933 219.493 131.019C219.548 131.104 219.602 131.198 219.657 131.299C219.719 131.4 219.769 131.494 219.808 131.579C219.855 131.665 219.878 131.72 219.878 131.743C219.878 131.938 219.906 132.121 219.96 132.292C220.023 132.463 220.054 132.646 220.054 132.841C220.054 133.043 220.023 133.242 219.96 133.437C219.906 133.631 219.878 133.83 219.878 134.032C219.878 134.282 219.882 134.527 219.89 134.768C219.906 135.002 219.914 135.243 219.914 135.492C219.914 135.718 219.902 135.944 219.878 136.17C219.863 136.388 219.832 136.606 219.785 136.824C219.769 136.886 219.754 136.96 219.738 137.046C219.723 137.132 219.699 137.213 219.668 137.291C219.645 137.369 219.61 137.435 219.563 137.49C219.524 137.544 219.47 137.572 219.4 137.572C219.33 137.572 219.267 137.56 219.213 137.537C219.174 137.544 219.139 137.552 219.108 137.56C219.076 137.56 219.041 137.56 219.002 137.56C218.932 137.56 218.89 137.548 218.874 137.525C218.858 137.502 218.851 137.474 218.851 137.443C218.851 137.404 218.843 137.365 218.827 137.326C218.819 137.28 218.781 137.237 218.71 137.198C218.664 137.167 218.601 137.147 218.524 137.139C218.446 137.132 218.368 137.124 218.29 137.116C218.22 137.101 218.158 137.077 218.103 137.046C218.049 137.007 218.021 136.949 218.021 136.871C218.021 136.785 218.037 136.742 218.068 136.742C218.107 136.735 218.15 136.746 218.196 136.777C218.251 136.808 218.309 136.84 218.372 136.871C218.434 136.894 218.492 136.894 218.547 136.871C218.438 136.746 218.341 136.618 218.255 136.485C218.177 136.345 218.095 136.205 218.01 136.065C217.932 135.925 217.85 135.785 217.764 135.644C217.679 135.504 217.581 135.376 217.472 135.259C217.379 135.158 217.301 135.041 217.239 134.908C217.176 134.776 217.114 134.644 217.052 134.511C216.997 134.371 216.935 134.243 216.865 134.126C216.803 134.001 216.721 133.9 216.62 133.822C216.261 133.55 215.864 133.312 215.428 133.11C215 132.899 214.552 132.794 214.085 132.794C213.758 132.794 213.454 132.845 213.174 132.946C212.901 133.04 212.629 133.168 212.356 133.332C212.247 133.394 212.142 133.448 212.041 133.495C211.947 133.542 211.854 133.596 211.76 133.659C211.675 133.713 211.597 133.783 211.527 133.869C211.465 133.947 211.418 134.056 211.387 134.196C211.348 134.336 211.328 134.48 211.328 134.628C211.336 134.776 211.301 134.912 211.223 135.037C211.184 135.099 211.122 135.15 211.036 135.189C210.958 135.228 210.908 135.286 210.884 135.364C210.822 135.543 210.783 135.73 210.768 135.925C210.76 136.119 210.752 136.318 210.744 136.52C210.744 136.723 210.74 136.929 210.733 137.139C210.725 137.342 210.694 137.537 210.639 137.723C210.592 137.879 210.557 138.035 210.534 138.191C210.518 138.346 210.511 138.502 210.511 138.658C210.511 138.954 210.518 139.246 210.534 139.534C210.557 139.814 210.569 140.099 210.569 140.387C210.569 140.737 210.585 141.08 210.616 141.415C210.655 141.749 210.721 142.084 210.814 142.419C210.884 142.668 210.982 142.91 211.106 143.143C211.231 143.369 211.324 143.607 211.387 143.856C211.418 143.988 211.472 144.128 211.55 144.276C211.636 144.424 211.733 144.561 211.842 144.685C211.959 144.81 212.088 144.915 212.228 145C212.368 145.078 212.512 145.117 212.66 145.117C212.769 145.117 212.874 145.106 212.975 145.082C213.077 145.051 213.182 145.036 213.291 145.036C213.407 145.036 213.524 145.047 213.641 145.071C213.758 145.086 213.875 145.094 213.991 145.094C214.202 145.094 214.42 145.067 214.646 145.012C214.879 144.958 215.074 144.849 215.23 144.685C215.339 144.568 215.463 144.487 215.603 144.44C215.744 144.393 215.884 144.354 216.024 144.323C216.172 144.292 216.312 144.253 216.444 144.206C216.577 144.152 216.694 144.058 216.795 143.926C216.857 143.84 216.919 143.708 216.982 143.529C217.052 143.35 217.122 143.163 217.192 142.968C217.262 142.773 217.332 142.598 217.402 142.442C217.48 142.279 217.558 142.178 217.636 142.139C217.706 142.1 217.749 142.002 217.764 141.847C217.788 141.683 217.799 141.492 217.799 141.274V140.737C217.799 140.581 217.803 140.429 217.811 140.282C217.819 140.134 217.834 140.001 217.858 139.884C217.889 139.768 217.932 139.674 217.986 139.604C218.041 139.534 218.115 139.499 218.208 139.499C218.294 139.499 218.36 139.53 218.407 139.592C218.461 139.647 218.527 139.674 218.605 139.674C218.683 139.674 218.757 139.651 218.827 139.604C218.905 139.55 218.987 139.522 219.073 139.522C219.189 139.522 219.294 139.573 219.388 139.674C219.489 139.775 219.579 139.888 219.657 140.013C219.742 140.137 219.808 140.254 219.855 140.363C219.91 140.465 219.949 140.519 219.972 140.527C220.05 140.542 220.093 140.609 220.1 140.725C220.116 140.834 220.124 140.924 220.124 140.994Z" fill="black"/>
<path d="M234.281 142.115C234.281 142.224 234.261 142.33 234.222 142.431C234.191 142.524 234.152 142.606 234.105 142.676C234.066 142.746 234.028 142.805 233.989 142.851C233.957 142.898 233.942 142.925 233.942 142.933C233.942 143.011 233.965 143.093 234.012 143.178C234.066 143.264 234.094 143.357 234.094 143.459C234.094 143.505 234.074 143.537 234.035 143.552C234.004 143.568 233.969 143.575 233.93 143.575C233.86 143.575 233.802 143.568 233.755 143.552C233.763 143.7 233.774 143.844 233.79 143.984C233.813 144.124 233.825 144.268 233.825 144.416C233.825 144.642 233.802 144.79 233.755 144.86C233.716 144.923 233.673 144.962 233.627 144.977C233.58 144.993 233.533 145.012 233.486 145.036C233.447 145.051 233.428 145.121 233.428 145.246C233.428 145.316 233.377 145.405 233.276 145.514C233.183 145.623 233.066 145.732 232.926 145.841C232.793 145.95 232.653 146.044 232.505 146.122C232.365 146.2 232.252 146.239 232.166 146.239C232.143 146.239 232.116 146.231 232.085 146.215C232.085 146.278 232.089 146.344 232.096 146.414C232.104 146.484 232.108 146.55 232.108 146.612C232.108 146.714 232.077 146.784 232.015 146.823C231.952 146.854 231.882 146.885 231.804 146.916C231.688 146.971 231.567 147.052 231.442 147.161C231.318 147.263 231.189 147.368 231.057 147.477C230.924 147.586 230.788 147.679 230.648 147.757C230.516 147.843 230.375 147.886 230.227 147.886C230.103 147.886 229.986 147.854 229.877 147.792C229.776 147.73 229.655 147.699 229.515 147.699C229.39 147.699 229.285 147.714 229.2 147.745C229.114 147.784 229.032 147.823 228.954 147.862C228.884 147.909 228.81 147.948 228.732 147.979C228.654 148.018 228.565 148.037 228.464 148.037C228.261 148.037 228.059 147.983 227.856 147.874C227.654 147.773 227.459 147.691 227.272 147.629C227.163 147.59 227.046 147.559 226.922 147.535C226.797 147.52 226.677 147.5 226.56 147.477C226.443 147.453 226.33 147.414 226.221 147.36C226.12 147.313 226.03 147.243 225.952 147.15C225.789 146.947 225.598 146.78 225.38 146.647C225.162 146.515 224.94 146.39 224.714 146.274C224.488 146.157 224.27 146.036 224.06 145.912C223.85 145.779 223.667 145.608 223.511 145.398C223.394 145.234 223.262 145.059 223.114 144.872C222.966 144.677 222.826 144.475 222.694 144.265C222.569 144.054 222.464 143.84 222.378 143.622C222.292 143.404 222.25 143.19 222.25 142.98C222.25 142.824 222.265 142.672 222.296 142.524C222.328 142.376 222.359 142.228 222.39 142.08C222.429 141.925 222.464 141.773 222.495 141.625C222.526 141.477 222.542 141.325 222.542 141.169V141.041C222.542 141.01 222.53 140.975 222.507 140.936C222.483 140.897 222.456 140.862 222.425 140.831C222.401 140.792 222.374 140.76 222.343 140.737C222.32 140.706 222.304 140.69 222.296 140.69C222.281 140.69 222.273 140.694 222.273 140.702C222.281 140.632 222.3 140.527 222.331 140.387C222.37 140.239 222.413 140.091 222.46 139.943C222.507 139.787 222.553 139.647 222.6 139.522C222.647 139.39 222.69 139.304 222.729 139.265C222.775 139.226 222.818 139.187 222.857 139.149C222.904 139.102 222.927 139.043 222.927 138.973C222.927 138.903 222.923 138.837 222.915 138.775C222.908 138.705 222.904 138.635 222.904 138.564C222.904 138.471 222.915 138.417 222.939 138.401C222.962 138.378 222.993 138.366 223.032 138.366C223.071 138.366 223.11 138.362 223.149 138.354C223.188 138.339 223.227 138.296 223.266 138.226C223.336 138.086 223.402 137.957 223.464 137.84C223.535 137.716 223.608 137.603 223.686 137.502C223.764 137.4 223.854 137.307 223.955 137.221C224.056 137.136 224.181 137.054 224.329 136.976C224.453 136.906 224.574 136.82 224.691 136.719C224.815 136.618 224.94 136.516 225.065 136.415C225.189 136.314 225.314 136.228 225.438 136.158C225.571 136.088 225.711 136.053 225.859 136.053C226.069 136.053 226.272 136.018 226.466 135.948C226.669 135.87 226.871 135.812 227.074 135.773C227.393 135.726 227.708 135.683 228.02 135.644C228.339 135.598 228.662 135.574 228.989 135.574C229.168 135.574 229.386 135.605 229.643 135.668C229.9 135.722 230.161 135.796 230.426 135.89C230.699 135.983 230.952 136.088 231.185 136.205C231.427 136.322 231.617 136.439 231.758 136.555V136.59C231.758 136.699 231.738 136.812 231.699 136.929C231.66 137.038 231.641 137.147 231.641 137.256C231.641 137.272 231.641 137.287 231.641 137.303C231.641 137.319 231.649 137.326 231.664 137.326C231.797 137.326 231.921 137.311 232.038 137.28C232.163 137.241 232.291 137.221 232.423 137.221C232.439 137.354 232.497 137.443 232.599 137.49C232.7 137.537 232.801 137.579 232.902 137.618C232.996 137.665 233.081 137.751 233.159 137.875C233.245 137.992 233.323 138.128 233.393 138.284C233.463 138.432 233.529 138.58 233.591 138.728C233.662 138.876 233.728 138.997 233.79 139.09C233.852 139.184 233.907 139.296 233.954 139.429C234.008 139.553 234.051 139.686 234.082 139.826C234.121 139.966 234.148 140.106 234.164 140.246C234.179 140.379 234.187 140.503 234.187 140.62C234.187 140.776 234.156 140.908 234.094 141.017C234.039 141.119 233.977 141.212 233.907 141.298C233.837 141.376 233.771 141.453 233.708 141.531C233.654 141.601 233.627 141.683 233.627 141.777C233.627 141.831 233.638 141.882 233.662 141.928C233.685 141.975 233.716 142.018 233.755 142.057C233.771 142.049 233.802 142.041 233.848 142.034C233.903 142.026 233.93 142.002 233.93 141.964V141.952C233.93 141.89 233.903 141.831 233.848 141.777C233.802 141.722 233.778 141.656 233.778 141.578C233.778 141.562 233.786 141.539 233.802 141.508C233.817 141.469 233.837 141.45 233.86 141.45C233.907 141.45 233.954 141.481 234 141.543C234.047 141.598 234.09 141.66 234.129 141.73C234.176 141.792 234.211 141.847 234.234 141.893C234.257 141.94 234.269 141.956 234.269 141.94L234.257 141.928C234.265 141.967 234.269 142.002 234.269 142.034C234.277 142.057 234.281 142.084 234.281 142.115ZM233.113 142.209C233.113 142.084 233.066 142.01 232.972 141.987C232.879 141.956 232.774 141.936 232.657 141.928C232.54 141.921 232.423 141.909 232.307 141.893C232.198 141.878 232.124 141.819 232.085 141.718V141.601C232.085 141.43 232.061 141.232 232.015 141.006C231.976 140.772 231.925 140.538 231.863 140.305C231.8 140.063 231.734 139.83 231.664 139.604C231.594 139.37 231.528 139.164 231.466 138.985C231.403 138.806 231.353 138.662 231.314 138.553C231.275 138.444 231.255 138.389 231.255 138.389C231.193 138.405 231.142 138.413 231.104 138.413C230.971 138.413 230.854 138.385 230.753 138.331C230.66 138.276 230.551 138.218 230.426 138.156C230.309 138.093 230.161 138.035 229.982 137.98C229.811 137.926 229.581 137.899 229.293 137.899C228.974 137.899 228.658 137.879 228.347 137.84C228.035 137.794 227.72 137.77 227.401 137.77C226.965 137.77 226.556 137.871 226.174 138.074C225.793 138.269 225.458 138.529 225.17 138.856C224.882 139.176 224.656 139.538 224.492 139.943C224.329 140.348 224.247 140.757 224.247 141.169C224.247 141.341 224.251 141.543 224.259 141.777C224.266 142.002 224.286 142.232 224.317 142.466C224.348 142.692 224.399 142.906 224.469 143.108C224.539 143.303 224.636 143.451 224.761 143.552V143.879C224.792 143.91 224.831 143.93 224.878 143.938C224.932 143.938 224.983 143.938 225.03 143.938C225.084 143.938 225.131 143.945 225.17 143.961C225.209 143.969 225.24 144 225.263 144.054C225.364 144.342 225.497 144.564 225.66 144.72C225.824 144.868 225.999 144.997 226.186 145.106C226.373 145.207 226.56 145.312 226.747 145.421C226.934 145.522 227.105 145.674 227.261 145.877C227.323 145.869 227.389 145.865 227.459 145.865C227.529 145.857 227.595 145.853 227.658 145.853C227.907 145.853 228.148 145.873 228.382 145.912C228.623 145.943 228.865 145.958 229.106 145.958C229.363 145.958 229.593 145.892 229.795 145.76C230.006 145.627 230.185 145.46 230.333 145.257C230.426 145.125 230.512 145.012 230.59 144.919C230.667 144.825 230.745 144.74 230.823 144.662C230.909 144.576 230.998 144.498 231.092 144.428C231.193 144.35 231.31 144.265 231.442 144.171C231.489 144.14 231.543 144.101 231.606 144.054C231.676 144.008 231.742 143.957 231.804 143.902C231.874 143.84 231.933 143.782 231.98 143.727C232.026 143.665 232.05 143.607 232.05 143.552C232.05 143.482 232.038 143.412 232.015 143.342C231.999 143.272 231.991 143.202 231.991 143.132C231.991 143.054 232.003 142.96 232.026 142.851C232.05 142.742 232.085 142.637 232.131 142.536C232.186 142.435 232.248 142.353 232.318 142.291C232.396 142.22 232.49 142.185 232.599 142.185C232.684 142.185 232.77 142.205 232.856 142.244C232.941 142.283 233.019 142.33 233.089 142.384C233.105 142.306 233.113 142.248 233.113 142.209Z" fill="black"/>
<path d="M250.4 146.682C250.4 146.737 250.388 146.823 250.365 146.939C250.349 147.048 250.318 147.157 250.271 147.267C250.232 147.383 250.186 147.485 250.131 147.57C250.077 147.656 250.014 147.699 249.944 147.699C249.859 147.699 249.773 147.679 249.687 147.64C249.602 147.609 249.516 147.594 249.43 147.594C249.158 147.594 248.889 147.617 248.624 147.664C248.36 147.718 248.091 147.745 247.818 147.745C247.686 147.745 247.561 147.726 247.445 147.687C247.328 147.656 247.211 147.621 247.094 147.582C246.985 147.543 246.872 147.504 246.755 147.465C246.639 147.426 246.518 147.399 246.393 147.383C246.207 147.368 246.062 147.294 245.961 147.161C245.868 147.029 245.821 146.873 245.821 146.694C245.821 146.484 245.876 146.309 245.985 146.169C246.101 146.021 246.23 145.869 246.37 145.713C246.51 145.549 246.635 145.355 246.744 145.129C246.861 144.903 246.919 144.599 246.919 144.218C246.919 143.455 246.884 142.699 246.814 141.952C246.752 141.196 246.72 140.437 246.72 139.674V139.324C246.72 139.16 246.713 138.993 246.697 138.821C246.682 138.65 246.643 138.498 246.58 138.366C246.518 138.226 246.428 138.113 246.312 138.027C246.195 137.942 246.031 137.899 245.821 137.899C245.642 138.008 245.471 138.128 245.307 138.261C245.144 138.385 245 138.533 244.875 138.705C244.82 138.783 244.762 138.911 244.7 139.09C244.637 139.269 244.579 139.476 244.525 139.709C244.47 139.943 244.415 140.192 244.361 140.457C244.314 140.721 244.271 140.975 244.232 141.216C244.194 141.457 244.162 141.679 244.139 141.882C244.116 142.084 244.104 142.236 244.104 142.337C244.104 142.633 244.123 142.933 244.162 143.237C244.209 143.533 244.232 143.829 244.232 144.124C244.232 144.28 244.217 144.432 244.186 144.58C244.162 144.72 244.151 144.868 244.151 145.024C244.151 145.086 244.155 145.148 244.162 145.211C244.17 145.273 244.194 145.335 244.232 145.398C244.318 145.444 244.419 145.503 244.536 145.573C244.661 145.643 244.774 145.725 244.875 145.818C244.984 145.904 245.073 145.997 245.144 146.098C245.221 146.2 245.26 146.305 245.26 146.414C245.26 146.64 245.179 146.823 245.015 146.963C244.852 147.103 244.661 147.173 244.443 147.173C244.388 147.173 244.338 147.169 244.291 147.161C244.244 147.154 244.194 147.15 244.139 147.15C244.061 147.15 243.983 147.165 243.905 147.196C243.835 147.22 243.761 147.247 243.684 147.278C243.606 147.317 243.524 147.348 243.438 147.372C243.36 147.403 243.275 147.418 243.181 147.418C242.94 147.418 242.706 147.387 242.48 147.325C242.255 147.263 242.021 147.231 241.78 147.231C241.709 147.231 241.647 147.204 241.593 147.15C241.538 147.087 241.491 147.017 241.453 146.939C241.421 146.862 241.398 146.78 241.382 146.694C241.367 146.608 241.359 146.538 241.359 146.484C241.359 146.344 241.386 146.239 241.441 146.169C241.503 146.091 241.577 146.024 241.663 145.97C241.748 145.915 241.842 145.861 241.943 145.806C242.052 145.744 242.149 145.662 242.235 145.561C242.321 145.46 242.391 145.324 242.445 145.152C242.508 144.973 242.539 144.74 242.539 144.451C242.539 144.335 242.523 144.222 242.492 144.113C242.461 144.004 242.426 143.895 242.387 143.786C242.356 143.677 242.325 143.568 242.294 143.459C242.27 143.35 242.258 143.237 242.258 143.12C242.258 142.917 242.282 142.715 242.329 142.513C242.375 142.31 242.399 142.108 242.399 141.905C242.399 141.757 242.371 141.617 242.317 141.485C242.262 141.352 242.235 141.216 242.235 141.076C242.235 140.975 242.262 140.885 242.317 140.807C242.379 140.729 242.41 140.64 242.41 140.538C242.41 140.507 242.403 140.449 242.387 140.363C242.371 140.278 242.352 140.18 242.329 140.071C242.313 139.954 242.297 139.834 242.282 139.709C242.266 139.585 242.258 139.468 242.258 139.359C242.258 139.219 242.274 139.078 242.305 138.938C242.344 138.798 242.364 138.658 242.364 138.518C242.364 138.432 242.34 138.354 242.294 138.284C242.255 138.206 242.2 138.14 242.13 138.086C242.06 138.023 241.982 137.977 241.896 137.945C241.811 137.914 241.729 137.899 241.651 137.899C241.519 137.899 241.39 137.926 241.266 137.98C241.141 138.027 241.024 138.089 240.915 138.167C240.806 138.245 240.701 138.331 240.6 138.424C240.499 138.518 240.401 138.607 240.308 138.693C240.284 138.763 240.261 138.837 240.238 138.915C240.222 138.993 240.195 139.063 240.156 139.125C240.125 139.172 240.074 139.211 240.004 139.242C239.942 139.273 239.876 139.304 239.806 139.335C239.743 139.367 239.685 139.402 239.63 139.441C239.584 139.472 239.56 139.522 239.56 139.592C239.56 139.655 239.58 139.705 239.619 139.744C239.665 139.783 239.712 139.81 239.759 139.826C239.837 139.997 239.876 140.157 239.876 140.305C239.876 140.437 239.86 140.566 239.829 140.69C239.806 140.815 239.774 140.94 239.735 141.064C239.704 141.181 239.673 141.306 239.642 141.438C239.619 141.562 239.607 141.687 239.607 141.812L239.619 142.98C239.619 143.089 239.63 143.163 239.654 143.202C239.685 143.233 239.716 143.26 239.747 143.283C239.786 143.299 239.821 143.326 239.852 143.365C239.891 143.404 239.922 143.486 239.946 143.61C239.969 143.766 239.989 143.926 240.004 144.089C240.027 144.245 240.039 144.401 240.039 144.557C240.039 144.72 240.024 144.884 239.992 145.047C239.961 145.203 239.946 145.363 239.946 145.526C239.946 145.697 239.969 145.826 240.016 145.912C240.07 145.989 240.137 146.048 240.214 146.087C240.292 146.118 240.374 146.141 240.46 146.157C240.545 146.165 240.627 146.184 240.705 146.215C240.783 146.246 240.845 146.301 240.892 146.379C240.946 146.457 240.974 146.581 240.974 146.753C240.974 146.908 240.931 147.037 240.845 147.138C240.759 147.231 240.643 147.298 240.495 147.337C240.004 147.469 239.494 147.574 238.965 147.652C238.435 147.73 237.917 147.769 237.411 147.769C237.255 147.769 237.123 147.761 237.014 147.745C236.905 147.738 236.815 147.706 236.745 147.652C236.683 147.605 236.636 147.527 236.605 147.418C236.574 147.309 236.558 147.154 236.558 146.951C236.558 146.772 236.628 146.612 236.769 146.472C236.917 146.324 237.072 146.184 237.236 146.052C237.407 145.919 237.563 145.787 237.703 145.655C237.851 145.514 237.925 145.363 237.925 145.199C237.925 145.129 237.921 145.067 237.913 145.012C237.913 144.95 237.913 144.895 237.913 144.849C237.913 144.779 237.921 144.708 237.937 144.638C237.96 144.568 238.003 144.49 238.065 144.405C238.065 144.233 238.046 144.062 238.007 143.891C237.976 143.72 237.941 143.552 237.902 143.389C237.863 143.217 237.824 143.05 237.785 142.886C237.754 142.715 237.738 142.54 237.738 142.361C237.738 141.995 237.769 141.636 237.832 141.286C237.902 140.936 237.937 140.577 237.937 140.211C237.937 140.009 237.929 139.81 237.913 139.616C237.906 139.421 237.894 139.222 237.878 139.02C237.855 138.786 237.828 138.6 237.796 138.459C237.765 138.311 237.715 138.187 237.645 138.086C237.582 137.984 237.489 137.899 237.364 137.829C237.248 137.751 237.08 137.661 236.862 137.56C236.737 137.498 236.625 137.416 236.523 137.315C236.43 137.213 236.383 137.089 236.383 136.941C236.383 136.777 236.418 136.664 236.488 136.602C236.566 136.532 236.652 136.481 236.745 136.45C236.846 136.411 236.944 136.376 237.037 136.345C237.131 136.314 237.197 136.252 237.236 136.158C237.267 136.088 237.294 136.049 237.318 136.041C237.349 136.026 237.403 136.018 237.481 136.018C237.691 136.018 237.894 136.053 238.089 136.123C238.283 136.186 238.47 136.256 238.649 136.333C238.828 136.404 239 136.474 239.163 136.544C239.334 136.606 239.498 136.637 239.654 136.637C239.817 136.637 239.989 136.587 240.168 136.485C240.355 136.376 240.557 136.26 240.775 136.135C240.993 136.01 241.234 135.897 241.499 135.796C241.772 135.687 242.079 135.633 242.422 135.633C242.554 135.633 242.691 135.664 242.831 135.726C242.971 135.788 243.107 135.866 243.24 135.96C243.372 136.053 243.493 136.154 243.602 136.263C243.719 136.372 243.816 136.478 243.894 136.579C244.081 136.4 244.299 136.244 244.548 136.112C244.797 135.979 245.058 135.87 245.33 135.785C245.603 135.699 245.879 135.637 246.16 135.598C246.44 135.559 246.709 135.539 246.966 135.539C247.16 135.539 247.336 135.594 247.491 135.703C247.647 135.804 247.783 135.944 247.9 136.123C248.025 136.295 248.13 136.489 248.216 136.707C248.309 136.925 248.391 137.143 248.461 137.361C248.539 137.579 248.605 137.794 248.659 138.004C248.714 138.206 248.765 138.378 248.811 138.518C248.827 138.557 248.839 138.596 248.846 138.635C248.854 138.673 248.858 138.716 248.858 138.763C248.858 138.872 248.842 138.977 248.811 139.078C248.78 139.18 248.745 139.281 248.706 139.382C248.675 139.476 248.644 139.573 248.613 139.674C248.582 139.775 248.566 139.88 248.566 139.99C248.566 140.099 248.585 140.204 248.624 140.305C248.671 140.406 248.694 140.511 248.694 140.62C248.694 140.737 248.671 140.85 248.624 140.959C248.578 141.06 248.554 141.169 248.554 141.286C248.554 141.442 248.582 141.59 248.636 141.73C248.698 141.87 248.73 142.018 248.73 142.174C248.73 142.291 248.71 142.403 248.671 142.513C248.64 142.614 248.601 142.719 248.554 142.828C248.515 142.937 248.476 143.046 248.437 143.155C248.406 143.256 248.391 143.365 248.391 143.482C248.391 143.521 248.395 143.56 248.402 143.599C248.41 143.63 248.422 143.665 248.437 143.704L248.893 144.849C248.963 145.012 249.08 145.168 249.243 145.316C249.407 145.464 249.574 145.608 249.746 145.748C249.917 145.888 250.069 146.036 250.201 146.192C250.334 146.34 250.4 146.503 250.4 146.682Z" fill="black"/>
<path d="M264.218 141.543C264.218 141.878 264.183 142.205 264.113 142.524C264.043 142.843 263.984 143.167 263.938 143.494C263.922 143.603 263.91 143.704 263.903 143.797C263.903 143.883 263.895 143.969 263.879 144.054C263.864 144.132 263.836 144.214 263.797 144.3C263.759 144.378 263.7 144.459 263.622 144.545C263.521 144.654 263.451 144.771 263.412 144.895C263.373 145.012 263.334 145.137 263.295 145.269C263.248 145.402 263.194 145.503 263.132 145.573C263.077 145.635 263.015 145.69 262.945 145.736C262.882 145.783 262.812 145.83 262.735 145.877C262.664 145.915 262.59 145.978 262.513 146.063C262.466 146.118 262.435 146.172 262.419 146.227C262.411 146.281 262.404 146.336 262.396 146.39C262.388 146.437 262.369 146.484 262.337 146.531C262.314 146.577 262.263 146.616 262.186 146.647C262.061 146.702 261.971 146.764 261.917 146.834C261.862 146.897 261.792 146.971 261.707 147.056C261.621 147.142 261.508 147.224 261.368 147.302C261.236 147.387 261.091 147.461 260.936 147.523C260.788 147.586 260.636 147.636 260.48 147.675C260.324 147.714 260.188 147.734 260.071 147.734C259.923 147.734 259.775 147.718 259.627 147.687C259.487 147.656 259.343 147.64 259.195 147.64C259.11 147.64 259.043 147.652 258.997 147.675C258.958 147.706 258.923 147.738 258.892 147.769C258.86 147.8 258.825 147.827 258.786 147.851C258.755 147.882 258.705 147.897 258.635 147.897C258.502 147.897 258.308 147.843 258.051 147.734C257.794 147.632 257.521 147.516 257.233 147.383C256.953 147.259 256.68 147.146 256.415 147.045C256.151 146.936 255.948 146.881 255.808 146.881C255.683 146.881 255.582 146.928 255.504 147.021C255.434 147.107 255.376 147.216 255.329 147.348C255.282 147.488 255.247 147.636 255.224 147.792C255.208 147.956 255.197 148.108 255.189 148.248C255.189 148.388 255.189 148.505 255.189 148.598C255.197 148.692 255.201 148.738 255.201 148.738C255.201 148.816 255.185 148.867 255.154 148.89C255.13 148.913 255.095 148.925 255.049 148.925C255.018 148.925 254.986 148.921 254.955 148.913C254.924 148.913 254.889 148.91 254.85 148.902C254.85 148.995 254.866 149.096 254.897 149.205C254.936 149.314 254.979 149.427 255.025 149.544C255.08 149.669 255.13 149.79 255.177 149.906C255.224 150.023 255.259 150.132 255.282 150.233C255.337 150.483 255.391 150.662 255.446 150.771C255.508 150.88 255.586 150.954 255.679 150.993C255.773 151.032 255.89 151.047 256.03 151.039C256.17 151.039 256.349 151.051 256.567 151.074C256.668 151.09 256.777 151.109 256.894 151.133C257.011 151.164 257.116 151.207 257.21 151.261C257.303 151.324 257.381 151.398 257.443 151.483C257.506 151.569 257.537 151.674 257.537 151.799C257.537 152.056 257.459 152.239 257.303 152.348C257.155 152.457 256.964 152.511 256.731 152.511C256.411 152.511 256.092 152.488 255.773 152.441C255.461 152.394 255.142 152.371 254.815 152.371C254.472 152.371 254.13 152.39 253.787 152.429C253.452 152.468 253.118 152.488 252.783 152.488C252.697 152.488 252.576 152.472 252.421 152.441C252.273 152.41 252.121 152.363 251.965 152.301C251.817 152.246 251.685 152.176 251.568 152.091C251.459 152.013 251.404 151.923 251.404 151.822C251.404 151.752 251.443 151.682 251.521 151.612C251.607 151.549 251.7 151.495 251.801 151.448C251.911 151.401 252.02 151.362 252.129 151.331C252.238 151.308 252.323 151.296 252.386 151.296C252.526 151.296 252.654 151.273 252.771 151.226C252.896 151.187 253.016 151.144 253.133 151.098C253.25 151.051 253.367 151.004 253.484 150.958C253.6 150.919 253.725 150.899 253.857 150.899C253.927 150.603 253.97 150.307 253.986 150.011C254.009 149.716 254.021 149.42 254.021 149.124C254.021 148.913 254.017 148.703 254.009 148.493C254.009 148.283 254.009 148.072 254.009 147.862C254.009 147.449 254.036 147.041 254.091 146.636C254.153 146.231 254.184 145.818 254.184 145.398C254.184 145.141 254.173 144.884 254.149 144.627C254.134 144.37 254.118 144.113 254.103 143.856C254.079 143.825 254.052 143.723 254.021 143.552C253.99 143.373 253.959 143.178 253.927 142.968C253.904 142.758 253.885 142.559 253.869 142.372C253.853 142.178 253.846 142.049 253.846 141.987C253.846 141.901 253.857 141.827 253.881 141.765C253.912 141.695 253.943 141.636 253.974 141.59C254.005 141.535 254.032 141.489 254.056 141.45C254.087 141.411 254.103 141.376 254.103 141.344C254.103 141.337 254.091 141.309 254.068 141.263C254.044 141.216 254.017 141.158 253.986 141.087C253.962 141.017 253.939 140.94 253.916 140.854C253.892 140.768 253.881 140.683 253.881 140.597C253.881 140.348 253.908 140.099 253.962 139.849C254.025 139.6 254.056 139.351 254.056 139.102C254.056 138.767 253.935 138.475 253.694 138.226C253.577 138.109 253.484 138.019 253.413 137.957C253.343 137.895 253.273 137.852 253.203 137.829C253.133 137.797 253.051 137.778 252.958 137.77C252.864 137.755 252.736 137.735 252.572 137.712C252.487 137.704 252.366 137.681 252.21 137.642C252.062 137.595 251.914 137.54 251.766 137.478C251.619 137.416 251.486 137.342 251.369 137.256C251.26 137.171 251.206 137.077 251.206 136.976C251.206 136.844 251.268 136.731 251.393 136.637C251.517 136.536 251.661 136.458 251.825 136.404C251.996 136.341 252.167 136.298 252.339 136.275C252.51 136.244 252.646 136.228 252.748 136.228C252.857 136.228 252.966 136.24 253.075 136.263C253.184 136.279 253.277 136.326 253.355 136.404C253.441 136.318 253.546 136.263 253.67 136.24C253.795 136.209 253.916 136.193 254.032 136.193C254.367 136.193 254.624 136.244 254.803 136.345C254.983 136.446 255.123 136.559 255.224 136.684C255.333 136.801 255.419 136.91 255.481 137.011C255.551 137.112 255.637 137.163 255.738 137.163C255.8 137.163 255.859 137.151 255.913 137.128C255.975 137.104 256.038 137.077 256.1 137.046C256.263 136.968 256.509 136.875 256.836 136.766C257.163 136.649 257.509 136.54 257.875 136.439C258.241 136.33 258.592 136.24 258.927 136.17C259.261 136.1 259.515 136.065 259.686 136.065C259.772 136.065 259.892 136.088 260.048 136.135C260.212 136.174 260.391 136.228 260.585 136.298C260.78 136.361 260.982 136.439 261.193 136.532C261.403 136.618 261.598 136.707 261.777 136.801C261.956 136.894 262.112 136.988 262.244 137.081C262.376 137.167 262.466 137.245 262.513 137.315C262.598 137.455 262.688 137.576 262.781 137.677C262.882 137.778 263.015 137.856 263.178 137.91C263.225 137.973 263.252 138.039 263.26 138.109C263.276 138.179 263.284 138.253 263.284 138.331V138.553C263.284 138.709 263.311 138.829 263.365 138.915C263.42 139.001 263.478 139.075 263.54 139.137C263.603 139.191 263.661 139.246 263.716 139.3C263.77 139.347 263.797 139.417 263.797 139.511C263.797 139.565 263.782 139.616 263.751 139.662C263.72 139.701 263.704 139.744 263.704 139.791C263.704 139.908 263.731 140.028 263.786 140.153C263.84 140.27 263.899 140.402 263.961 140.55C264.023 140.69 264.082 140.842 264.136 141.006C264.191 141.169 264.218 141.348 264.218 141.543ZM258.868 136.567C258.868 136.528 258.849 136.489 258.81 136.45C258.771 136.411 258.732 136.392 258.693 136.392C258.615 136.392 258.565 136.435 258.541 136.52C258.526 136.598 258.518 136.668 258.518 136.731C258.518 136.715 258.522 136.707 258.53 136.707C258.545 136.707 258.557 136.711 258.565 136.719L258.518 136.742C258.572 136.742 258.642 136.735 258.728 136.719C258.822 136.696 258.868 136.645 258.868 136.567ZM262.84 141.905C262.84 141.672 262.808 141.446 262.746 141.228C262.684 141.002 262.606 140.788 262.513 140.585C262.419 140.375 262.314 140.173 262.197 139.978C262.08 139.783 261.964 139.592 261.847 139.405C261.816 139.359 261.796 139.308 261.788 139.254C261.781 139.191 261.777 139.133 261.777 139.078C261.777 139.016 261.769 138.958 261.753 138.903C261.746 138.841 261.722 138.786 261.683 138.74C261.621 138.67 261.563 138.631 261.508 138.623C261.454 138.607 261.399 138.596 261.345 138.588C261.298 138.58 261.243 138.561 261.181 138.529C261.126 138.498 261.072 138.428 261.017 138.319C260.979 138.249 260.893 138.171 260.76 138.086C260.636 138 260.496 137.918 260.34 137.84C260.192 137.762 260.044 137.7 259.896 137.653C259.756 137.599 259.647 137.572 259.569 137.572C259.413 137.572 259.258 137.607 259.102 137.677C258.954 137.739 258.802 137.77 258.646 137.77C258.537 137.77 258.436 137.751 258.343 137.712C258.257 137.673 258.171 137.634 258.086 137.595C258.008 137.548 257.926 137.505 257.84 137.467C257.755 137.428 257.665 137.408 257.572 137.408H257.513C257.529 137.486 257.537 137.548 257.537 137.595C257.537 137.665 257.521 137.723 257.49 137.77C257.459 137.809 257.416 137.844 257.361 137.875C257.315 137.906 257.26 137.938 257.198 137.969C257.143 137.992 257.093 138.019 257.046 138.051C256.976 138.136 256.937 138.222 256.929 138.308C256.929 138.393 256.89 138.436 256.812 138.436C256.758 138.436 256.715 138.428 256.684 138.413C256.684 138.467 256.668 138.506 256.637 138.529C256.606 138.553 256.571 138.572 256.532 138.588C256.493 138.603 256.454 138.623 256.415 138.646C256.376 138.662 256.353 138.693 256.345 138.74C256.244 138.747 256.151 138.81 256.065 138.927C255.979 139.036 255.905 139.176 255.843 139.347C255.781 139.518 255.726 139.709 255.679 139.919C255.633 140.13 255.594 140.336 255.563 140.538C255.531 140.733 255.508 140.916 255.493 141.087C255.477 141.251 255.469 141.376 255.469 141.461C255.469 141.742 255.485 142.022 255.516 142.302C255.555 142.575 255.574 142.851 255.574 143.132C255.574 143.342 255.567 143.552 255.551 143.762C255.543 143.973 255.531 144.187 255.516 144.405C255.711 144.615 255.897 144.825 256.077 145.036C256.256 145.246 256.443 145.437 256.637 145.608C256.84 145.771 257.062 145.912 257.303 146.028C257.544 146.137 257.825 146.196 258.144 146.204C258.269 146.204 258.393 146.219 258.518 146.25C258.642 146.281 258.767 146.313 258.892 146.344C259.016 146.375 259.137 146.406 259.254 146.437C259.378 146.461 259.503 146.472 259.627 146.472C259.744 146.472 259.869 146.449 260.001 146.402C260.134 146.348 260.262 146.281 260.387 146.204C260.519 146.126 260.644 146.044 260.76 145.958C260.877 145.865 260.975 145.775 261.053 145.69C261.115 145.62 261.189 145.569 261.274 145.538C261.368 145.507 261.446 145.46 261.508 145.398C261.555 145.351 261.586 145.3 261.602 145.246C261.617 145.191 261.629 145.137 261.637 145.082C261.652 145.028 261.672 144.977 261.695 144.93C261.718 144.876 261.765 144.829 261.835 144.79C261.983 144.712 262.077 144.658 262.115 144.627C262.154 144.588 262.174 144.522 262.174 144.428V144.206C262.174 144.128 262.193 144.074 262.232 144.043C262.271 144.004 262.314 143.969 262.361 143.938C262.407 143.899 262.45 143.852 262.489 143.797C262.528 143.735 262.548 143.634 262.548 143.494C262.548 143.392 262.54 143.295 262.524 143.202C262.509 143.1 262.501 142.999 262.501 142.898C262.501 142.797 262.516 142.703 262.548 142.618C262.587 142.532 262.625 142.45 262.664 142.372C262.711 142.294 262.75 142.22 262.781 142.15C262.82 142.073 262.84 141.991 262.84 141.905Z" fill="black"/>
<path d="M278.62 145.187C278.62 145.32 278.597 145.444 278.55 145.561C278.503 145.678 278.46 145.799 278.422 145.923C278.39 146.032 278.367 146.122 278.351 146.192C278.344 146.262 278.328 146.324 278.305 146.379C278.281 146.426 278.242 146.472 278.188 146.519C278.141 146.558 278.063 146.605 277.954 146.659C277.721 146.784 277.472 146.912 277.207 147.045C276.95 147.169 276.689 147.231 276.424 147.231C276.198 147.231 275.984 147.181 275.782 147.08C275.587 146.971 275.404 146.854 275.233 146.729C275.069 146.597 274.917 146.476 274.777 146.367C274.645 146.258 274.532 146.204 274.438 146.204C274.337 146.204 274.248 146.231 274.17 146.285C274.1 146.34 274.026 146.398 273.948 146.461C273.878 146.523 273.796 146.581 273.703 146.636C273.617 146.69 273.508 146.718 273.376 146.718C273.266 146.718 273.154 146.737 273.037 146.776C272.92 146.815 272.803 146.862 272.686 146.916C272.57 146.963 272.449 147.013 272.324 147.068C272.207 147.115 272.098 147.154 271.997 147.185C271.647 147.278 271.292 147.333 270.934 147.348C270.584 147.364 270.23 147.372 269.871 147.372C269.778 147.372 269.634 147.368 269.439 147.36C269.244 147.36 269.046 147.34 268.843 147.302C268.649 147.27 268.474 147.216 268.318 147.138C268.17 147.06 268.096 146.951 268.096 146.811C268.096 146.78 268.1 146.753 268.108 146.729C268.053 146.791 267.991 146.842 267.921 146.881C267.851 146.92 267.773 146.939 267.687 146.939C267.562 146.939 267.411 146.854 267.232 146.682C267.052 146.511 266.881 146.313 266.718 146.087C266.554 145.861 266.414 145.639 266.297 145.421C266.18 145.195 266.122 145.028 266.122 144.919C266.122 144.833 266.145 144.755 266.192 144.685C266.246 144.615 266.274 144.537 266.274 144.451C266.274 144.342 266.258 144.241 266.227 144.148C266.204 144.047 266.192 143.941 266.192 143.832C266.192 143.692 266.219 143.544 266.274 143.389C266.328 143.225 266.394 143.065 266.472 142.91C266.55 142.746 266.632 142.59 266.718 142.442C266.803 142.287 266.881 142.143 266.951 142.01C267.029 141.855 267.138 141.73 267.278 141.636C267.418 141.543 267.566 141.461 267.722 141.391C267.878 141.321 268.034 141.251 268.189 141.181C268.345 141.111 268.481 141.017 268.598 140.901C268.715 141.033 268.867 141.099 269.054 141.099C269.248 141.099 269.439 141.072 269.626 141.017C269.813 140.955 270.004 140.924 270.198 140.924C270.354 140.924 270.502 140.94 270.642 140.971C270.79 141.002 270.942 141.017 271.098 141.017C271.269 141.017 271.394 140.998 271.472 140.959C271.557 140.912 271.662 140.834 271.787 140.725C271.912 140.616 272.067 140.535 272.254 140.48C272.449 140.418 272.647 140.371 272.85 140.34C273.06 140.301 273.266 140.262 273.469 140.223C273.679 140.184 273.866 140.13 274.03 140.06C274.193 139.982 274.326 139.88 274.427 139.756C274.528 139.624 274.579 139.444 274.579 139.219C274.579 138.969 274.505 138.709 274.357 138.436C274.217 138.156 274.034 137.903 273.808 137.677C273.582 137.443 273.333 137.252 273.06 137.104C272.788 136.956 272.527 136.882 272.278 136.882C272.246 136.882 272.215 136.886 272.184 136.894C272.153 136.902 272.126 136.906 272.102 136.906C271.915 136.937 271.705 136.96 271.472 136.976C271.238 136.984 271.02 137.019 270.817 137.081C270.615 137.136 270.444 137.233 270.304 137.373C270.163 137.505 270.093 137.704 270.093 137.969C270.093 138.125 270.105 138.28 270.128 138.436C270.159 138.584 270.175 138.736 270.175 138.892C270.175 139.125 270.117 139.32 270 139.476C269.891 139.631 269.747 139.756 269.568 139.849C269.396 139.943 269.206 140.009 268.995 140.048C268.785 140.079 268.583 140.095 268.388 140.095C268.154 140.095 267.952 140.063 267.781 140.001C267.609 139.939 267.469 139.795 267.36 139.569C267.274 139.405 267.181 139.23 267.08 139.043C266.986 138.849 266.94 138.654 266.94 138.459C266.94 138.249 266.975 138.054 267.045 137.875C267.123 137.688 267.208 137.509 267.302 137.338C267.395 137.159 267.485 136.984 267.57 136.812C267.664 136.633 267.73 136.443 267.769 136.24C267.823 136.209 267.897 136.178 267.991 136.147C268.092 136.115 268.197 136.084 268.306 136.053C268.423 136.022 268.532 135.995 268.633 135.971C268.742 135.94 268.832 135.913 268.902 135.89C269.089 135.835 269.268 135.773 269.439 135.703C269.618 135.625 269.797 135.555 269.976 135.492C270.163 135.43 270.346 135.376 270.525 135.329C270.712 135.282 270.903 135.255 271.098 135.247L271.46 135.236C271.795 135.236 272.137 135.267 272.488 135.329C272.838 135.383 273.181 135.473 273.516 135.598C273.851 135.722 274.166 135.878 274.462 136.065C274.766 136.244 275.034 136.458 275.268 136.707C275.439 136.894 275.579 137.116 275.688 137.373C275.805 137.622 275.895 137.887 275.957 138.167C276.027 138.448 276.074 138.732 276.097 139.02C276.128 139.3 276.144 139.561 276.144 139.803C276.144 140.13 276.132 140.453 276.109 140.772C276.093 141.084 276.085 141.403 276.085 141.73C276.085 142.041 276.101 142.353 276.132 142.664C276.171 142.968 276.214 143.276 276.261 143.587C276.307 143.891 276.346 144.198 276.377 144.51C276.416 144.814 276.436 145.117 276.436 145.421C276.451 145.608 276.475 145.725 276.506 145.771C276.545 145.81 276.584 145.83 276.623 145.83C276.794 145.83 276.93 145.779 277.032 145.678C277.141 145.569 277.238 145.452 277.324 145.328C277.409 145.195 277.503 145.074 277.604 144.965C277.705 144.856 277.834 144.802 277.989 144.802C278.059 144.802 278.13 144.806 278.2 144.814C278.277 144.821 278.348 144.841 278.41 144.872C278.472 144.895 278.523 144.934 278.562 144.989C278.601 145.036 278.62 145.102 278.62 145.187ZM274.777 142.279C274.777 142.232 274.773 142.15 274.766 142.034C274.766 141.917 274.758 141.8 274.742 141.683C274.727 141.559 274.699 141.45 274.66 141.356C274.629 141.263 274.579 141.216 274.509 141.216C274.493 141.216 274.473 141.224 274.45 141.239C274.427 141.247 274.407 141.251 274.392 141.251C274.096 141.415 273.843 141.551 273.632 141.66C273.422 141.761 273.212 141.847 273.002 141.917C272.799 141.979 272.581 142.022 272.348 142.045C272.114 142.069 271.822 142.08 271.472 142.08C271.425 142.08 271.296 142.1 271.086 142.139C270.876 142.178 270.646 142.224 270.397 142.279C270.148 142.326 269.914 142.376 269.696 142.431C269.478 142.477 269.342 142.509 269.287 142.524C269.186 142.563 269.112 142.602 269.065 142.641C269.026 142.68 268.995 142.723 268.972 142.769C268.949 142.816 268.925 142.867 268.902 142.921C268.878 142.968 268.836 143.019 268.773 143.073C268.696 143.135 268.61 143.186 268.516 143.225C268.431 143.264 268.349 143.322 268.271 143.4C268.154 143.517 268.045 143.673 267.944 143.867C267.843 144.054 267.792 144.233 267.792 144.405C267.792 144.615 267.847 144.802 267.956 144.965C268.065 145.129 268.209 145.269 268.388 145.386C268.567 145.503 268.769 145.604 268.995 145.69C269.221 145.775 269.447 145.841 269.673 145.888C269.906 145.935 270.128 145.97 270.339 145.993C270.557 146.017 270.743 146.028 270.899 146.028C271.086 146.028 271.308 146.017 271.565 145.993C271.822 145.962 272.079 145.919 272.336 145.865C272.593 145.803 272.834 145.721 273.06 145.62C273.286 145.518 273.465 145.39 273.597 145.234C273.652 145.172 273.691 145.117 273.714 145.071C273.738 145.016 273.761 144.965 273.784 144.919C273.815 144.864 273.847 144.81 273.878 144.755C273.917 144.701 273.975 144.642 274.053 144.58C274.232 144.432 274.368 144.268 274.462 144.089C274.563 143.91 274.637 143.723 274.684 143.529C274.73 143.334 274.758 143.132 274.766 142.921C274.773 142.711 274.777 142.497 274.777 142.279Z" fill="black"/>
<path d="M293.361 146.928C293.361 147.037 293.334 147.126 293.279 147.196C293.225 147.267 293.155 147.321 293.069 147.36C292.991 147.399 292.902 147.422 292.8 147.43C292.707 147.446 292.617 147.453 292.532 147.453C292.415 147.453 292.298 147.446 292.181 147.43C292.064 147.414 291.948 147.399 291.831 147.383C291.675 147.438 291.488 147.492 291.27 147.547C291.06 147.609 290.869 147.64 290.698 147.64C290.651 147.64 290.604 147.632 290.558 147.617C290.519 147.601 290.48 147.594 290.441 147.594C290.308 147.594 290.172 147.617 290.032 147.664C289.9 147.718 289.767 147.745 289.635 147.745C289.409 147.745 289.191 147.714 288.981 147.652C288.778 147.597 288.564 147.562 288.338 147.547C287.972 147.516 287.688 147.376 287.486 147.126C287.291 146.869 287.186 146.566 287.17 146.215C287.412 146.067 287.665 145.966 287.93 145.912C288.202 145.857 288.475 145.83 288.747 145.83C288.903 145.83 289.055 145.834 289.203 145.841C289.358 145.849 289.514 145.861 289.67 145.877C289.647 145.292 289.596 144.708 289.518 144.124C289.44 143.54 289.401 142.952 289.401 142.361C289.401 142.158 289.405 141.956 289.413 141.753C289.429 141.551 289.456 141.348 289.495 141.146C289.534 140.943 289.584 140.745 289.647 140.55C289.709 140.348 289.74 140.145 289.74 139.943C289.74 139.81 289.721 139.69 289.682 139.581C289.643 139.464 289.592 139.347 289.53 139.23C289.475 139.137 289.44 139.032 289.425 138.915C289.409 138.798 289.39 138.681 289.366 138.564C289.343 138.44 289.308 138.319 289.261 138.202C289.214 138.086 289.137 137.98 289.027 137.887C288.926 137.794 288.782 137.72 288.595 137.665C288.408 137.611 288.163 137.583 287.859 137.583C287.766 137.583 287.626 137.599 287.439 137.63C287.26 137.653 287.073 137.688 286.878 137.735C286.691 137.774 286.512 137.825 286.341 137.887C286.177 137.942 286.065 138 286.002 138.062C285.963 138.101 285.913 138.156 285.85 138.226C285.796 138.296 285.734 138.37 285.663 138.448C285.601 138.518 285.539 138.584 285.477 138.646C285.414 138.701 285.36 138.732 285.313 138.74C285.196 138.763 285.107 138.783 285.044 138.798C284.99 138.814 284.943 138.837 284.904 138.868C284.873 138.899 284.846 138.946 284.822 139.008C284.799 139.063 284.76 139.145 284.706 139.254C284.69 139.285 284.659 139.347 284.612 139.441C284.566 139.526 284.519 139.569 284.472 139.569C284.433 139.569 284.406 139.553 284.39 139.522C284.375 139.491 284.347 139.476 284.309 139.476C284.293 139.476 284.27 139.487 284.238 139.511C284.215 139.526 284.196 139.542 284.18 139.557V139.884C284.126 139.947 284.075 139.982 284.028 139.99C283.989 139.99 283.954 139.993 283.923 140.001C283.9 140.009 283.88 140.028 283.865 140.06C283.857 140.091 283.853 140.165 283.853 140.282C283.853 140.367 283.834 140.445 283.795 140.515C283.756 140.585 283.713 140.655 283.666 140.725C283.627 140.795 283.588 140.869 283.549 140.947C283.51 141.017 283.491 141.099 283.491 141.193C283.491 141.348 283.51 141.5 283.549 141.648C283.596 141.788 283.619 141.936 283.619 142.092C283.619 142.193 283.604 142.279 283.573 142.349C283.542 142.419 283.503 142.485 283.456 142.548C283.417 142.602 283.382 142.657 283.351 142.711C283.32 142.766 283.304 142.832 283.304 142.91C283.304 143.019 283.323 143.12 283.362 143.213C283.409 143.299 283.456 143.389 283.503 143.482C283.549 143.575 283.592 143.673 283.631 143.774C283.678 143.875 283.701 143.984 283.701 144.101C283.701 144.233 283.686 144.37 283.654 144.51C283.623 144.642 283.608 144.779 283.608 144.919C283.608 145.082 283.631 145.211 283.678 145.304C283.732 145.39 283.798 145.456 283.876 145.503C283.962 145.549 284.059 145.585 284.168 145.608C284.277 145.631 284.386 145.666 284.495 145.713C284.612 145.752 284.729 145.81 284.846 145.888C284.963 145.958 285.072 146.067 285.173 146.215L285.243 146.204C285.375 146.204 285.473 146.258 285.535 146.367C285.597 146.476 285.628 146.589 285.628 146.706C285.628 146.815 285.605 146.912 285.558 146.998C285.512 147.076 285.488 147.181 285.488 147.313C285.488 147.407 285.387 147.485 285.185 147.547C284.982 147.609 284.752 147.656 284.495 147.687C284.238 147.726 283.989 147.749 283.748 147.757C283.514 147.773 283.359 147.78 283.281 147.78C283.187 147.78 283.043 147.777 282.848 147.769C282.662 147.769 282.447 147.761 282.206 147.745C281.972 147.738 281.727 147.722 281.47 147.699C281.213 147.675 280.976 147.64 280.758 147.594C280.54 147.555 280.353 147.5 280.197 147.43C280.049 147.368 279.956 147.29 279.917 147.196C279.878 147.103 279.839 147.002 279.8 146.893C279.761 146.776 279.741 146.663 279.741 146.554C279.741 146.437 279.769 146.332 279.823 146.239C279.885 146.145 279.959 146.06 280.045 145.982C280.162 145.873 280.29 145.81 280.431 145.795C280.571 145.771 280.707 145.76 280.839 145.76C280.98 145.752 281.112 145.74 281.237 145.725C281.369 145.701 281.482 145.639 281.575 145.538C281.677 145.437 281.754 145.277 281.809 145.059C281.871 144.841 281.902 144.533 281.902 144.136C281.902 144.035 281.895 143.934 281.879 143.832C281.863 143.723 281.844 143.622 281.821 143.529C281.797 143.427 281.778 143.338 281.762 143.26C281.747 143.182 281.739 143.124 281.739 143.085C281.739 143.038 281.75 142.988 281.774 142.933C281.805 142.879 281.836 142.824 281.867 142.769C281.906 142.707 281.937 142.641 281.961 142.571C281.992 142.501 282.007 142.423 282.007 142.337C282.007 142.205 281.98 142.076 281.926 141.952C281.879 141.827 281.856 141.699 281.856 141.566C281.856 141.457 281.875 141.352 281.914 141.251C281.953 141.15 281.972 141.045 281.972 140.936C281.972 140.85 281.949 140.768 281.902 140.69C281.856 140.612 281.832 140.527 281.832 140.433C281.832 140.348 281.848 140.262 281.879 140.176C281.91 140.083 281.926 139.99 281.926 139.896C281.926 139.694 281.902 139.487 281.856 139.277C281.809 139.059 281.766 138.849 281.727 138.646C281.68 138.405 281.591 138.226 281.458 138.109C281.334 137.984 281.19 137.891 281.026 137.829C280.863 137.766 280.691 137.716 280.512 137.677C280.333 137.638 280.17 137.579 280.022 137.502C279.874 137.416 279.749 137.299 279.648 137.151C279.555 136.995 279.508 136.77 279.508 136.474C279.508 136.271 279.566 136.115 279.683 136.006C279.808 135.897 279.956 135.82 280.127 135.773C280.298 135.718 280.477 135.687 280.664 135.679C280.859 135.672 281.026 135.668 281.166 135.668C281.392 135.668 281.614 135.703 281.832 135.773C282.058 135.835 282.284 135.874 282.51 135.89C282.611 135.897 282.708 135.932 282.802 135.995C282.895 136.049 282.981 136.119 283.059 136.205C283.137 136.283 283.199 136.372 283.246 136.474C283.292 136.575 283.32 136.676 283.327 136.777C283.327 136.824 283.343 136.91 283.374 137.034C283.405 137.151 283.44 137.272 283.479 137.396C283.526 137.521 283.573 137.634 283.619 137.735C283.674 137.829 283.728 137.875 283.783 137.875C283.83 137.836 283.861 137.794 283.876 137.747C283.9 137.692 283.919 137.642 283.935 137.595C283.943 137.548 283.993 137.486 284.087 137.408C284.188 137.33 284.297 137.248 284.414 137.163C284.538 137.077 284.655 136.995 284.764 136.918C284.881 136.84 284.963 136.777 285.009 136.731C285.056 136.676 285.091 136.622 285.114 136.567C285.146 136.505 285.173 136.45 285.196 136.404C285.227 136.349 285.262 136.306 285.301 136.275C285.348 136.244 285.418 136.228 285.512 136.228H285.57C285.656 136.228 285.737 136.193 285.815 136.123C285.893 136.045 285.994 135.96 286.119 135.866C286.244 135.773 286.407 135.691 286.61 135.621C286.812 135.543 287.081 135.504 287.416 135.504C287.704 135.504 287.992 135.512 288.28 135.528C288.568 135.535 288.841 135.574 289.098 135.644C289.362 135.714 289.608 135.823 289.833 135.971C290.067 136.119 290.27 136.326 290.441 136.59C290.573 136.801 290.682 136.956 290.768 137.058C290.854 137.159 290.924 137.256 290.978 137.35C291.033 137.443 291.068 137.556 291.083 137.688C291.107 137.821 291.118 138.019 291.118 138.284C291.118 138.393 291.138 138.494 291.177 138.588C291.216 138.681 291.258 138.779 291.305 138.88C291.36 138.973 291.406 139.075 291.445 139.184C291.484 139.293 291.504 139.417 291.504 139.557C291.504 139.83 291.488 140.102 291.457 140.375C291.426 140.64 291.41 140.908 291.41 141.181C291.41 141.376 291.371 141.566 291.294 141.753C291.223 141.94 291.188 142.131 291.188 142.326C291.188 142.419 291.212 142.509 291.258 142.594C291.305 142.68 291.329 142.777 291.329 142.886C291.329 143.019 291.313 143.155 291.282 143.295C291.251 143.427 291.235 143.56 291.235 143.692C291.235 143.817 291.262 143.926 291.317 144.019C291.379 144.113 291.41 144.218 291.41 144.335C291.41 144.397 291.395 144.448 291.364 144.487C291.34 144.525 291.309 144.564 291.27 144.603C291.239 144.642 291.208 144.685 291.177 144.732C291.153 144.771 291.142 144.821 291.142 144.884C291.142 145 291.169 145.121 291.223 145.246C291.286 145.363 291.364 145.472 291.457 145.573C291.55 145.666 291.656 145.744 291.772 145.806C291.889 145.861 292.006 145.888 292.123 145.888C292.224 145.888 292.31 145.869 292.38 145.83C292.458 145.783 292.539 145.76 292.625 145.76C292.734 145.76 292.831 145.806 292.917 145.9C293.011 145.986 293.088 146.091 293.151 146.215C293.221 146.34 293.271 146.468 293.303 146.601C293.342 146.733 293.361 146.842 293.361 146.928ZM290.838 142.524C290.838 142.446 290.811 142.372 290.756 142.302C290.709 142.224 290.643 142.185 290.558 142.185C290.472 142.185 290.414 142.228 290.382 142.314C290.351 142.392 290.336 142.466 290.336 142.536C290.336 142.622 290.351 142.703 290.382 142.781C290.414 142.859 290.476 142.898 290.569 142.898C290.647 142.898 290.706 142.875 290.745 142.828C290.791 142.773 290.822 142.68 290.838 142.548V142.524ZM291.037 144.767C291.037 144.712 291.013 144.67 290.966 144.638C290.928 144.599 290.885 144.568 290.838 144.545C290.822 144.592 290.795 144.638 290.756 144.685C290.717 144.732 290.678 144.782 290.639 144.837C290.6 144.891 290.562 144.946 290.523 145C290.491 145.055 290.476 145.109 290.476 145.164C290.476 145.226 290.495 145.273 290.534 145.304C290.573 145.335 290.62 145.363 290.674 145.386C290.682 145.339 290.706 145.292 290.745 145.246C290.791 145.199 290.834 145.148 290.873 145.094C290.912 145.039 290.947 144.989 290.978 144.942C291.017 144.888 291.037 144.829 291.037 144.767ZM283.269 142.256C283.269 142.201 283.257 142.135 283.234 142.057C283.218 141.979 283.191 141.905 283.152 141.835C283.121 141.757 283.078 141.695 283.024 141.648C282.977 141.594 282.919 141.566 282.848 141.566C282.763 141.566 282.689 141.594 282.627 141.648C282.564 141.695 282.486 141.718 282.393 141.718H282.346C282.323 141.804 282.311 141.886 282.311 141.964L282.323 142.034L282.335 141.999C282.358 142.084 282.405 142.15 282.475 142.197C282.545 142.244 282.619 142.287 282.697 142.326C282.782 142.357 282.868 142.388 282.954 142.419C283.039 142.45 283.113 142.493 283.176 142.548C283.238 142.477 283.269 142.38 283.269 142.256Z" fill="black"/>
<path d="M308.125 136.579C308.125 136.672 308.102 136.773 308.055 136.882C308.008 136.984 307.946 137.081 307.868 137.174C307.798 137.26 307.716 137.338 307.623 137.408C307.53 137.478 307.44 137.529 307.354 137.56C307.214 137.607 307.039 137.638 306.829 137.653C306.626 137.669 306.428 137.696 306.233 137.735C306.046 137.774 305.883 137.844 305.742 137.945C305.61 138.039 305.544 138.191 305.544 138.401C305.544 138.526 305.536 138.607 305.52 138.646C305.505 138.677 305.466 138.693 305.404 138.693C305.388 138.693 305.365 138.693 305.334 138.693C305.31 138.685 305.283 138.681 305.252 138.681L305.147 138.74C305.038 139.004 304.971 139.281 304.948 139.569C304.933 139.857 304.886 140.137 304.808 140.41C304.66 140.418 304.539 140.488 304.446 140.62C304.36 140.753 304.29 140.908 304.236 141.087C304.189 141.259 304.146 141.434 304.107 141.613C304.076 141.792 304.041 141.932 304.002 142.034C303.761 142.618 303.511 143.19 303.254 143.751C303.005 144.311 302.737 144.872 302.448 145.433C302.425 145.479 302.398 145.557 302.367 145.666C302.336 145.767 302.301 145.873 302.262 145.982C302.223 146.083 302.176 146.172 302.121 146.25C302.075 146.328 302.016 146.367 301.946 146.367C301.853 146.328 301.763 146.281 301.678 146.227C301.592 146.165 301.502 146.13 301.409 146.122C301.378 146.13 301.362 146.149 301.362 146.18C301.362 146.266 301.401 146.336 301.479 146.39C301.565 146.445 301.654 146.499 301.748 146.554C301.849 146.608 301.938 146.663 302.016 146.718C302.102 146.772 302.145 146.838 302.145 146.916C302.145 146.986 302.118 147.06 302.063 147.138C302.016 147.216 301.962 147.298 301.899 147.383C301.837 147.477 301.779 147.574 301.724 147.675C301.67 147.777 301.639 147.889 301.631 148.014C301.615 148.17 301.569 148.31 301.491 148.435C301.421 148.559 301.339 148.68 301.245 148.797C301.16 148.921 301.078 149.05 301 149.182C300.93 149.322 300.883 149.478 300.86 149.649C300.844 149.782 300.813 149.914 300.766 150.046C300.728 150.187 300.673 150.315 300.603 150.432C300.533 150.549 300.447 150.65 300.346 150.736C300.245 150.821 300.124 150.876 299.984 150.899C299.945 151.133 299.848 151.362 299.692 151.588C299.544 151.814 299.361 152.013 299.143 152.184C298.925 152.363 298.691 152.503 298.442 152.605C298.193 152.714 297.948 152.768 297.706 152.768C297.511 152.768 297.321 152.741 297.134 152.686C296.955 152.632 296.779 152.562 296.608 152.476C296.491 152.422 296.398 152.39 296.328 152.383C296.258 152.375 296.195 152.367 296.141 152.359C296.094 152.351 296.04 152.328 295.977 152.289C295.923 152.25 295.849 152.172 295.755 152.056C295.615 151.869 295.463 151.693 295.3 151.53C295.144 151.374 294.985 151.218 294.821 151.063C294.735 150.985 294.673 150.891 294.634 150.782C294.595 150.673 294.56 150.564 294.529 150.455C294.498 150.346 294.455 150.241 294.401 150.14C294.354 150.039 294.272 149.957 294.155 149.895C294.116 149.856 294.097 149.786 294.097 149.684C294.097 149.614 294.124 149.47 294.179 149.252C294.233 149.034 294.303 148.808 294.389 148.575C294.475 148.349 294.568 148.143 294.669 147.956C294.778 147.777 294.879 147.687 294.973 147.687C295.035 147.687 295.094 147.695 295.148 147.71C295.203 147.734 295.261 147.745 295.323 147.745C295.479 147.745 295.631 147.706 295.779 147.629C295.927 147.551 296.083 147.512 296.246 147.512C296.347 147.512 296.421 147.539 296.468 147.594C296.523 147.648 296.561 147.71 296.585 147.78C296.608 147.851 296.628 147.913 296.643 147.967C296.667 148.022 296.706 148.049 296.76 148.049C296.799 148.041 296.834 148.03 296.865 148.014C296.943 147.983 297.005 147.967 297.052 147.967C297.153 147.967 297.247 147.991 297.332 148.037C297.418 148.092 297.496 148.158 297.566 148.236C297.636 148.314 297.698 148.396 297.753 148.481C297.815 148.575 297.87 148.66 297.916 148.738C297.94 148.777 297.975 148.816 298.022 148.855C298.068 148.902 298.115 148.949 298.162 148.995C298.208 149.042 298.247 149.085 298.278 149.124C298.31 149.17 298.325 149.217 298.325 149.264C298.325 149.35 298.302 149.427 298.255 149.497C298.216 149.568 298.197 149.638 298.197 149.708C298.197 149.786 298.228 149.84 298.29 149.871C298.36 149.902 298.426 149.918 298.489 149.918C298.637 149.918 298.781 149.856 298.921 149.731C299.069 149.614 299.209 149.459 299.341 149.264C299.474 149.069 299.595 148.851 299.704 148.61C299.82 148.376 299.922 148.139 300.007 147.897C300.093 147.664 300.159 147.442 300.206 147.231C300.253 147.029 300.276 146.865 300.276 146.741C300.276 146.608 300.245 146.426 300.182 146.192C300.12 145.958 300.038 145.701 299.937 145.421C299.836 145.141 299.723 144.845 299.598 144.533C299.474 144.222 299.349 143.922 299.225 143.634C299.108 143.346 298.999 143.081 298.898 142.84C298.796 142.59 298.715 142.388 298.652 142.232C298.528 141.936 298.415 141.633 298.314 141.321C298.22 141.01 298.111 140.706 297.986 140.41C297.916 140.246 297.815 140.06 297.683 139.849C297.558 139.631 297.43 139.409 297.297 139.184C297.173 138.95 297.06 138.724 296.959 138.506C296.865 138.28 296.818 138.082 296.818 137.91C296.756 137.91 296.686 137.899 296.608 137.875C296.538 137.844 296.468 137.813 296.398 137.782C296.328 137.743 296.258 137.712 296.188 137.688C296.125 137.657 296.067 137.642 296.012 137.642C295.849 137.642 295.682 137.665 295.51 137.712C295.339 137.751 295.168 137.77 294.996 137.77C294.903 137.77 294.794 137.762 294.669 137.747C294.545 137.723 294.424 137.692 294.307 137.653C294.198 137.607 294.101 137.544 294.015 137.467C293.937 137.389 293.898 137.291 293.898 137.174C293.898 137.089 293.91 136.991 293.933 136.882C293.957 136.773 293.988 136.672 294.027 136.579C294.073 136.478 294.128 136.396 294.19 136.333C294.253 136.263 294.323 136.228 294.401 136.228C294.517 136.228 294.63 136.267 294.739 136.345C294.848 136.415 294.965 136.45 295.09 136.45C295.269 136.45 295.444 136.443 295.615 136.427C295.794 136.411 295.974 136.404 296.153 136.404C296.308 136.404 296.46 136.361 296.608 136.275C296.764 136.189 296.908 136.112 297.04 136.041C297.188 135.964 297.399 135.917 297.671 135.901C297.951 135.878 298.232 135.866 298.512 135.866C298.613 135.866 298.773 135.862 298.991 135.855C299.209 135.839 299.427 135.847 299.645 135.878C299.871 135.909 300.066 135.979 300.229 136.088C300.4 136.189 300.486 136.353 300.486 136.579C300.486 136.773 300.443 136.937 300.358 137.069C300.28 137.194 300.179 137.303 300.054 137.396C299.937 137.49 299.805 137.576 299.657 137.653C299.517 137.723 299.384 137.801 299.26 137.887C299.143 137.965 299.042 138.058 298.956 138.167C298.878 138.276 298.839 138.413 298.839 138.576C298.839 138.833 298.913 139.11 299.061 139.405C299.209 139.694 299.373 139.982 299.552 140.27C299.731 140.55 299.898 140.819 300.054 141.076C300.21 141.333 300.299 141.555 300.323 141.742C300.33 141.843 300.358 141.987 300.404 142.174C300.451 142.361 300.513 142.548 300.591 142.734C300.677 142.914 300.774 143.073 300.883 143.213C301 143.346 301.125 143.412 301.257 143.412C301.35 143.412 301.432 143.373 301.502 143.295C301.572 143.217 301.635 143.124 301.689 143.015C301.744 142.906 301.787 142.797 301.818 142.688C301.857 142.571 301.888 142.477 301.911 142.407C301.981 142.189 302.044 141.971 302.098 141.753C302.16 141.535 302.258 141.333 302.39 141.146C302.499 141.006 302.585 140.862 302.647 140.714C302.709 140.558 302.776 140.398 302.846 140.235C302.923 140.04 303.001 139.888 303.079 139.779C303.165 139.67 303.239 139.561 303.301 139.452C303.363 139.343 303.414 139.211 303.453 139.055C303.5 138.899 303.523 138.673 303.523 138.378C303.523 138.198 303.484 138.066 303.406 137.98C303.328 137.895 303.231 137.829 303.114 137.782C303.005 137.735 302.885 137.696 302.752 137.665C302.62 137.634 302.495 137.587 302.378 137.525C302.269 137.455 302.176 137.354 302.098 137.221C302.02 137.089 301.981 136.902 301.981 136.661C301.981 136.458 302.044 136.298 302.168 136.182C302.293 136.057 302.445 135.967 302.624 135.913C302.811 135.851 303.013 135.812 303.231 135.796C303.449 135.781 303.652 135.773 303.838 135.773H304.247C304.59 135.773 304.925 135.749 305.252 135.703C305.587 135.656 305.921 135.633 306.256 135.633C306.358 135.633 306.506 135.66 306.7 135.714C306.895 135.769 307.09 135.831 307.284 135.901C307.479 135.971 307.642 136.041 307.775 136.112C307.915 136.174 307.981 136.217 307.973 136.24C307.973 136.232 307.997 136.263 308.043 136.333C308.098 136.404 308.125 136.485 308.125 136.579ZM298.489 150.233L298.314 150.222H298.243C298.111 150.222 298.006 150.253 297.928 150.315C297.85 150.385 297.811 150.49 297.811 150.631L297.823 150.724C297.893 150.708 297.967 150.693 298.045 150.677C298.123 150.669 298.193 150.654 298.255 150.631C298.325 150.607 298.38 150.572 298.419 150.525C298.465 150.479 298.489 150.412 298.489 150.327V150.233Z" fill="black"/>
</svg>
