<svg width="101" height="60" viewBox="0 0 101 60" fill="none" xmlns="http://www.w3.org/2000/svg">
<g clip-path="url(#clip0_20_132)">
<path d="M6.8 27.12L10.85 23.12H89.77L92.81 27.12V0.119995H6.8V27.12Z" fill="#2D1D00" stroke="black" stroke-width="0.25" stroke-miterlimit="10"/>
<path d="M92.8 41.25L6.8 41.12L12.8 15.12H87.34L92.8 41.25Z" fill="#44210B"/>
<path d="M86.54 9.32996L86.36 15.16L93.08 41.68L96.03 41.12L86.54 9.32996Z" fill="#603813"/>
<path d="M86.54 9.33002L88 9.27002L97.2 40.66L96.03 41.12L86.54 9.33002Z" fill="#8B6239"/>
<path d="M13.13 9.12L13.55 14.95L7.96 41.73L4.99 41.29L13.13 9.12Z" fill="#603813"/>
<path d="M13.13 9.12H11.67L3.8 40.88L4.99 41.29L13.13 9.12Z" fill="#8B6239"/>
<path d="M0.119999 59.62C1.69 58.07 3.26 56.52 4.83 54.97H96.59L100.12 59.62V28.22H0.119999V59.62Z" fill="#603813" stroke="#42210B" stroke-width="0.25" stroke-miterlimit="10"/>
<path d="M35.23 45.95C35.23 45.95 49.37 49.08 65.22 45.95H35.23Z" fill="#42210B"/>
<path d="M67.7 44.65L63.74 40.69C63.62 40.57 63.45 40.5 63.27 40.5H37.14C36.97 40.5 36.8 40.57 36.67 40.69L32.53 44.83C32.11 45.25 32.41 45.96 33 45.95L67.23 45.77C67.81 45.77 68.11 45.06 67.69 44.65H67.7Z" fill="#744417"/>
</g>
<defs>
<clipPath id="clip0_20_132">
<rect width="100.25" height="59.99" fill="white"/>
</clipPath>
</defs>
</svg>
