<svg width="930" height="588" viewBox="0 0 930 588" fill="none" xmlns="http://www.w3.org/2000/svg">
<path d="M46.1492 586.97H927.743C896.95 463.21 881.021 320.57 898.458 163.198C904.737 106.502 914.865 52.3706 927.743 1H46.1492C30.0964 52.6199 17.272 107.856 9.44952 166.458C-11.8892 326.252 9.69774 468.554 46.1492 586.97Z" fill="white" stroke="black" stroke-width="2" stroke-miterlimit="10"/>
<path d="M103 108H140.214" stroke="black" stroke-width="2" stroke-miterlimit="10"/>
<path d="M155.718 108H193.446" stroke="black" stroke-width="2" stroke-miterlimit="10"/>
<path d="M211.574 108H247.192" stroke="black" stroke-width="2" stroke-miterlimit="10"/>
<path d="M262.039 108H301.452" stroke="black" stroke-width="2" stroke-miterlimit="10"/>
<path d="M212.556 137.481C212.556 137.62 212.549 137.763 212.535 137.909C212.528 138.048 212.508 138.187 212.473 138.327C212.445 138.445 212.407 138.556 212.359 138.661C212.317 138.758 212.289 138.866 212.276 138.984C212.262 139.054 212.248 139.13 212.234 139.214C212.22 139.29 212.168 139.329 212.078 139.329L211.995 139.318C211.884 139.318 211.801 139.363 211.745 139.454C211.69 139.537 211.645 139.642 211.61 139.767C211.583 139.885 211.558 140.007 211.538 140.132C211.524 140.257 211.506 140.358 211.486 140.435C211.465 140.511 211.451 140.581 211.444 140.644C211.444 140.699 211.441 140.751 211.434 140.8C211.434 140.842 211.42 140.887 211.392 140.936C211.364 140.985 211.316 141.037 211.247 141.092C211.136 141.176 211.028 141.256 210.924 141.332C210.82 141.409 210.727 141.499 210.644 141.604C210.581 141.68 210.54 141.746 210.519 141.802C210.498 141.858 210.477 141.91 210.457 141.959C210.436 142.007 210.401 142.053 210.353 142.094C210.311 142.129 210.238 142.164 210.134 142.199C209.975 142.254 209.823 142.317 209.677 142.387C209.532 142.456 209.383 142.519 209.23 142.574C209.05 142.644 208.88 142.724 208.721 142.814C208.562 142.898 208.399 142.978 208.233 143.054C208.066 143.131 207.893 143.194 207.713 143.242C207.54 143.298 207.353 143.326 207.152 143.326C206.971 143.326 206.791 143.298 206.611 143.242C206.438 143.187 206.275 143.11 206.123 143.013C205.977 142.999 205.866 142.947 205.79 142.856C205.714 142.766 205.652 142.658 205.603 142.533C205.561 142.435 205.52 142.366 205.478 142.324C205.444 142.282 205.402 142.254 205.354 142.24C205.312 142.22 205.263 142.202 205.208 142.188C205.153 142.174 205.087 142.143 205.011 142.094C204.699 141.893 204.415 141.642 204.158 141.343C203.902 141.037 203.663 140.731 203.441 140.424C203.393 140.355 203.355 140.275 203.327 140.184C203.306 140.087 203.285 139.993 203.265 139.903C203.244 139.805 203.219 139.715 203.192 139.631C203.171 139.541 203.136 139.471 203.088 139.422C202.998 139.332 202.918 139.283 202.849 139.276C202.779 139.269 202.721 139.255 202.672 139.235C202.631 139.207 202.596 139.148 202.568 139.057C202.547 138.96 202.537 138.782 202.537 138.525C202.537 138.365 202.523 138.198 202.495 138.024C202.468 137.85 202.433 137.673 202.391 137.492C202.357 137.304 202.326 137.116 202.298 136.928C202.27 136.733 202.256 136.542 202.256 136.354C202.256 136.152 202.267 135.95 202.288 135.749C202.315 135.547 202.346 135.345 202.381 135.143C202.416 134.942 202.45 134.743 202.485 134.548C202.52 134.347 202.544 134.145 202.558 133.943C202.572 133.755 202.579 133.564 202.579 133.369C202.585 133.174 202.592 132.979 202.599 132.785C202.613 132.59 202.634 132.398 202.662 132.211C202.689 132.023 202.738 131.838 202.807 131.657C202.876 131.463 202.963 131.278 203.067 131.104C203.178 130.93 203.285 130.756 203.389 130.582C203.493 130.408 203.59 130.231 203.68 130.05C203.77 129.869 203.84 129.674 203.888 129.466C203.916 129.333 204.002 129.212 204.148 129.1C204.293 128.982 204.474 128.874 204.688 128.777C204.903 128.672 205.135 128.582 205.385 128.505C205.641 128.422 205.894 128.352 206.143 128.297C206.393 128.234 206.622 128.189 206.829 128.161C207.044 128.126 207.217 128.109 207.349 128.109C207.696 128.109 208.021 128.154 208.326 128.245C208.631 128.328 208.939 128.439 209.251 128.579C209.39 128.641 209.539 128.693 209.698 128.735C209.864 128.77 210.02 128.787 210.166 128.787C210.311 128.787 210.419 128.763 210.488 128.714C210.564 128.659 210.623 128.596 210.665 128.526C210.706 128.45 210.741 128.38 210.768 128.318C210.796 128.248 210.838 128.196 210.893 128.161L210.862 128.172C210.876 128.158 210.9 128.151 210.935 128.151C210.969 128.144 211.008 128.14 211.049 128.14C211.105 128.147 211.17 128.161 211.247 128.182C211.33 128.203 211.413 128.227 211.496 128.255C211.579 128.283 211.655 128.314 211.725 128.349C211.801 128.377 211.856 128.405 211.891 128.432C211.912 128.446 211.946 128.492 211.995 128.568C212.043 128.645 212.092 128.728 212.14 128.819C212.196 128.909 212.241 128.993 212.276 129.069C212.317 129.146 212.338 129.194 212.338 129.215C212.338 129.389 212.362 129.553 212.411 129.706C212.466 129.859 212.494 130.022 212.494 130.196C212.494 130.377 212.466 130.555 212.411 130.729C212.362 130.902 212.338 131.08 212.338 131.261C212.338 131.483 212.341 131.703 212.348 131.918C212.362 132.127 212.369 132.343 212.369 132.565C212.369 132.767 212.359 132.969 212.338 133.171C212.324 133.366 212.296 133.56 212.255 133.755C212.241 133.811 212.227 133.877 212.213 133.954C212.199 134.03 212.179 134.103 212.151 134.173C212.13 134.242 212.099 134.301 212.057 134.35C212.023 134.399 211.974 134.423 211.912 134.423C211.849 134.423 211.794 134.413 211.745 134.392C211.711 134.399 211.68 134.406 211.652 134.413C211.624 134.413 211.593 134.413 211.558 134.413C211.496 134.413 211.458 134.402 211.444 134.381C211.43 134.361 211.423 134.336 211.423 134.308C211.423 134.274 211.416 134.239 211.402 134.204C211.396 134.162 211.361 134.124 211.299 134.089C211.257 134.061 211.202 134.044 211.132 134.037C211.063 134.03 210.994 134.023 210.924 134.016C210.862 134.002 210.807 133.981 210.758 133.954C210.71 133.919 210.685 133.867 210.685 133.797C210.685 133.72 210.699 133.682 210.727 133.682C210.762 133.675 210.8 133.686 210.841 133.713C210.89 133.741 210.942 133.769 210.997 133.797C211.053 133.818 211.105 133.818 211.153 133.797C211.056 133.686 210.969 133.571 210.893 133.453C210.824 133.327 210.751 133.202 210.675 133.077C210.606 132.952 210.533 132.826 210.457 132.701C210.38 132.576 210.294 132.461 210.197 132.357C210.114 132.266 210.044 132.162 209.989 132.044C209.934 131.925 209.878 131.807 209.823 131.689C209.774 131.563 209.719 131.449 209.656 131.344C209.601 131.233 209.528 131.143 209.438 131.073C209.119 130.829 208.766 130.617 208.378 130.436C207.997 130.248 207.599 130.155 207.183 130.155C206.892 130.155 206.622 130.2 206.372 130.29C206.13 130.374 205.887 130.488 205.645 130.635C205.548 130.69 205.454 130.739 205.364 130.781C205.281 130.822 205.198 130.871 205.115 130.927C205.038 130.976 204.969 131.038 204.907 131.115C204.851 131.184 204.81 131.282 204.782 131.407C204.747 131.532 204.73 131.661 204.73 131.793C204.737 131.925 204.706 132.047 204.636 132.158C204.602 132.214 204.546 132.259 204.47 132.294C204.401 132.329 204.356 132.381 204.335 132.451C204.28 132.611 204.245 132.778 204.231 132.952C204.224 133.126 204.217 133.303 204.21 133.484C204.21 133.665 204.207 133.849 204.2 134.037C204.193 134.218 204.165 134.392 204.117 134.559C204.075 134.698 204.044 134.837 204.023 134.976C204.009 135.116 204.002 135.255 204.002 135.394C204.002 135.658 204.009 135.919 204.023 136.177C204.044 136.427 204.054 136.681 204.054 136.938C204.054 137.252 204.068 137.558 204.096 137.857C204.131 138.156 204.19 138.455 204.273 138.754C204.335 138.977 204.422 139.193 204.532 139.402C204.643 139.603 204.726 139.816 204.782 140.038C204.81 140.157 204.858 140.282 204.927 140.414C205.004 140.546 205.09 140.668 205.187 140.779C205.291 140.891 205.406 140.985 205.53 141.061C205.655 141.131 205.783 141.165 205.915 141.165C206.012 141.165 206.105 141.155 206.195 141.134C206.285 141.106 206.379 141.092 206.476 141.092C206.58 141.092 206.684 141.103 206.788 141.124C206.892 141.138 206.996 141.145 207.1 141.145C207.287 141.145 207.481 141.12 207.682 141.071C207.89 141.023 208.063 140.925 208.201 140.779C208.298 140.675 208.409 140.602 208.534 140.56C208.659 140.518 208.783 140.484 208.908 140.456C209.04 140.428 209.164 140.393 209.282 140.351C209.4 140.303 209.504 140.219 209.594 140.101C209.649 140.024 209.705 139.906 209.76 139.746C209.823 139.586 209.885 139.419 209.947 139.245C210.01 139.071 210.072 138.915 210.134 138.775C210.204 138.629 210.273 138.539 210.342 138.504C210.405 138.469 210.443 138.382 210.457 138.243C210.477 138.097 210.488 137.927 210.488 137.732V137.252C210.488 137.112 210.491 136.977 210.498 136.845C210.505 136.712 210.519 136.594 210.54 136.49C210.568 136.385 210.606 136.302 210.654 136.239C210.703 136.177 210.768 136.145 210.852 136.145C210.928 136.145 210.987 136.173 211.028 136.229C211.077 136.277 211.136 136.302 211.205 136.302C211.274 136.302 211.34 136.281 211.402 136.239C211.472 136.191 211.545 136.166 211.621 136.166C211.725 136.166 211.818 136.211 211.901 136.302C211.991 136.392 212.071 136.493 212.14 136.605C212.217 136.716 212.276 136.82 212.317 136.918C212.366 137.008 212.4 137.057 212.421 137.064C212.49 137.078 212.528 137.137 212.535 137.241C212.549 137.339 212.556 137.419 212.556 137.481Z" fill="black"/>
<path d="M225.153 138.483C225.153 138.581 225.136 138.674 225.101 138.765C225.073 138.848 225.039 138.921 224.997 138.984C224.962 139.047 224.928 139.099 224.893 139.141C224.865 139.182 224.851 139.207 224.851 139.214C224.851 139.283 224.872 139.356 224.914 139.433C224.962 139.509 224.987 139.593 224.987 139.683C224.987 139.725 224.969 139.753 224.935 139.767C224.907 139.781 224.876 139.788 224.841 139.788C224.779 139.788 224.727 139.781 224.685 139.767C224.692 139.899 224.702 140.028 224.716 140.153C224.737 140.278 224.748 140.407 224.748 140.539C224.748 140.741 224.727 140.873 224.685 140.936C224.651 140.991 224.612 141.026 224.571 141.04C224.529 141.054 224.488 141.071 224.446 141.092C224.411 141.106 224.394 141.169 224.394 141.28C224.394 141.343 224.349 141.423 224.259 141.52C224.176 141.618 224.072 141.715 223.947 141.813C223.829 141.91 223.705 141.993 223.573 142.063C223.448 142.133 223.348 142.167 223.272 142.167C223.251 142.167 223.227 142.16 223.199 142.146C223.199 142.202 223.202 142.261 223.209 142.324C223.216 142.387 223.22 142.446 223.22 142.501C223.22 142.592 223.192 142.654 223.137 142.689C223.081 142.717 223.019 142.745 222.949 142.773C222.846 142.821 222.738 142.894 222.627 142.992C222.516 143.082 222.402 143.176 222.284 143.274C222.167 143.371 222.045 143.455 221.921 143.524C221.803 143.601 221.678 143.639 221.546 143.639C221.436 143.639 221.332 143.611 221.235 143.555C221.144 143.5 221.037 143.472 220.912 143.472C220.802 143.472 220.708 143.486 220.632 143.514C220.556 143.549 220.483 143.583 220.413 143.618C220.351 143.66 220.285 143.695 220.216 143.722C220.147 143.757 220.067 143.775 219.977 143.775C219.797 143.775 219.617 143.726 219.437 143.629C219.256 143.538 219.083 143.465 218.917 143.409C218.82 143.375 218.716 143.347 218.605 143.326C218.494 143.312 218.387 143.295 218.283 143.274C218.179 143.253 218.078 143.218 217.981 143.169C217.891 143.128 217.812 143.065 217.742 142.981C217.597 142.801 217.427 142.651 217.233 142.533C217.039 142.414 216.842 142.303 216.641 142.199C216.44 142.094 216.246 141.986 216.059 141.875C215.872 141.757 215.709 141.604 215.57 141.416C215.466 141.27 215.348 141.113 215.217 140.946C215.085 140.772 214.96 140.591 214.843 140.404C214.732 140.216 214.638 140.024 214.562 139.829C214.486 139.635 214.448 139.443 214.448 139.255C214.448 139.116 214.462 138.981 214.489 138.848C214.517 138.716 214.545 138.584 214.572 138.452C214.607 138.313 214.638 138.177 214.666 138.045C214.694 137.913 214.708 137.777 214.708 137.638V137.523C214.708 137.495 214.697 137.464 214.676 137.429C214.656 137.394 214.631 137.363 214.604 137.335C214.583 137.3 214.559 137.272 214.531 137.252C214.51 137.224 214.496 137.21 214.489 137.21C214.475 137.21 214.469 137.213 214.469 137.22C214.475 137.158 214.493 137.064 214.52 136.938C214.555 136.806 214.593 136.674 214.635 136.542C214.676 136.403 214.718 136.277 214.76 136.166C214.801 136.048 214.839 135.971 214.874 135.937C214.915 135.902 214.954 135.867 214.988 135.832C215.03 135.79 215.051 135.738 215.051 135.676C215.051 135.613 215.047 135.554 215.04 135.498C215.033 135.436 215.03 135.373 215.03 135.31C215.03 135.227 215.04 135.178 215.061 135.164C215.082 135.143 215.109 135.133 215.144 135.133C215.179 135.133 215.213 135.129 215.248 135.122C215.283 135.109 215.317 135.07 215.352 135.008C215.414 134.882 215.473 134.768 215.529 134.663C215.591 134.552 215.657 134.451 215.726 134.361C215.795 134.27 215.875 134.187 215.965 134.11C216.055 134.034 216.166 133.96 216.298 133.891C216.409 133.828 216.516 133.752 216.62 133.661C216.731 133.571 216.842 133.48 216.953 133.39C217.063 133.299 217.174 133.223 217.285 133.16C217.403 133.098 217.528 133.066 217.659 133.066C217.846 133.066 218.026 133.035 218.2 132.972C218.38 132.903 218.56 132.851 218.74 132.816C219.024 132.774 219.305 132.736 219.582 132.701C219.866 132.659 220.154 132.638 220.445 132.638C220.604 132.638 220.798 132.666 221.027 132.722C221.255 132.771 221.487 132.837 221.723 132.92C221.966 133.004 222.191 133.098 222.399 133.202C222.613 133.306 222.783 133.411 222.908 133.515V133.546C222.908 133.644 222.891 133.745 222.856 133.849C222.821 133.947 222.804 134.044 222.804 134.141C222.804 134.155 222.804 134.169 222.804 134.183C222.804 134.197 222.811 134.204 222.825 134.204C222.943 134.204 223.053 134.19 223.157 134.162C223.268 134.127 223.383 134.11 223.5 134.11C223.514 134.228 223.566 134.308 223.656 134.35C223.746 134.392 223.836 134.43 223.926 134.465C224.01 134.507 224.086 134.583 224.155 134.695C224.231 134.799 224.301 134.921 224.363 135.06C224.425 135.192 224.484 135.324 224.54 135.456C224.602 135.589 224.661 135.696 224.716 135.78C224.772 135.863 224.82 135.964 224.862 136.083C224.91 136.194 224.948 136.312 224.976 136.438C225.011 136.563 225.035 136.688 225.049 136.813C225.063 136.932 225.07 137.043 225.07 137.147C225.07 137.286 225.042 137.405 224.987 137.502C224.938 137.593 224.883 137.676 224.82 137.753C224.758 137.822 224.699 137.892 224.644 137.961C224.595 138.024 224.571 138.097 224.571 138.18C224.571 138.229 224.581 138.274 224.602 138.316C224.623 138.358 224.651 138.396 224.685 138.431C224.699 138.424 224.727 138.417 224.768 138.41C224.817 138.403 224.841 138.382 224.841 138.347V138.337C224.841 138.281 224.817 138.229 224.768 138.18C224.727 138.132 224.706 138.073 224.706 138.003C224.706 137.989 224.713 137.968 224.727 137.94C224.741 137.906 224.758 137.888 224.779 137.888C224.82 137.888 224.862 137.916 224.903 137.972C224.945 138.02 224.983 138.076 225.018 138.139C225.059 138.194 225.09 138.243 225.111 138.285C225.132 138.327 225.142 138.341 225.142 138.327L225.132 138.316C225.139 138.351 225.142 138.382 225.142 138.41C225.149 138.431 225.153 138.455 225.153 138.483ZM224.114 138.567C224.114 138.455 224.072 138.389 223.989 138.368C223.906 138.341 223.812 138.323 223.708 138.316C223.604 138.309 223.5 138.299 223.396 138.285C223.299 138.271 223.234 138.219 223.199 138.128V138.024C223.199 137.871 223.178 137.693 223.137 137.492C223.102 137.283 223.057 137.074 223.001 136.865C222.946 136.65 222.887 136.441 222.825 136.239C222.762 136.03 222.703 135.846 222.648 135.686C222.593 135.526 222.548 135.397 222.513 135.3C222.478 135.202 222.461 135.154 222.461 135.154C222.406 135.168 222.361 135.175 222.326 135.175C222.208 135.175 222.104 135.15 222.014 135.102C221.931 135.053 221.834 135.001 221.723 134.945C221.619 134.889 221.487 134.837 221.328 134.788C221.176 134.74 220.971 134.715 220.715 134.715C220.431 134.715 220.15 134.698 219.873 134.663C219.596 134.621 219.315 134.601 219.031 134.601C218.643 134.601 218.279 134.691 217.94 134.872C217.6 135.046 217.302 135.279 217.046 135.571C216.79 135.857 216.589 136.18 216.443 136.542C216.298 136.904 216.225 137.269 216.225 137.638C216.225 137.791 216.228 137.972 216.235 138.18C216.242 138.382 216.26 138.588 216.287 138.796C216.315 138.998 216.36 139.189 216.422 139.37C216.485 139.544 216.571 139.676 216.682 139.767V140.059C216.71 140.087 216.745 140.104 216.786 140.111C216.835 140.111 216.88 140.111 216.921 140.111C216.97 140.111 217.011 140.118 217.046 140.132C217.081 140.139 217.108 140.167 217.129 140.216C217.219 140.473 217.337 140.671 217.483 140.811C217.628 140.943 217.784 141.058 217.95 141.155C218.117 141.245 218.283 141.339 218.449 141.437C218.615 141.527 218.768 141.663 218.906 141.844C218.962 141.837 219.021 141.833 219.083 141.833C219.146 141.826 219.204 141.823 219.26 141.823C219.482 141.823 219.696 141.84 219.904 141.875C220.119 141.903 220.334 141.917 220.549 141.917C220.777 141.917 220.982 141.858 221.162 141.739C221.349 141.621 221.508 141.472 221.64 141.291C221.723 141.172 221.799 141.071 221.869 140.988C221.938 140.904 222.007 140.828 222.076 140.758C222.153 140.682 222.232 140.612 222.315 140.55C222.406 140.48 222.509 140.404 222.627 140.32C222.669 140.292 222.717 140.257 222.773 140.216C222.835 140.174 222.894 140.129 222.949 140.08C223.012 140.024 223.064 139.972 223.105 139.923C223.147 139.868 223.168 139.816 223.168 139.767C223.168 139.704 223.157 139.642 223.137 139.579C223.123 139.516 223.116 139.454 223.116 139.391C223.116 139.322 223.126 139.238 223.147 139.141C223.168 139.043 223.199 138.949 223.24 138.859C223.289 138.768 223.344 138.695 223.407 138.64C223.476 138.577 223.559 138.546 223.656 138.546C223.732 138.546 223.809 138.563 223.885 138.598C223.961 138.633 224.03 138.674 224.093 138.723C224.107 138.654 224.114 138.601 224.114 138.567Z" fill="black"/>
<path d="M239.496 142.564C239.496 142.613 239.485 142.689 239.464 142.794C239.451 142.891 239.423 142.988 239.381 143.086C239.347 143.19 239.305 143.281 239.257 143.357C239.208 143.434 239.153 143.472 239.09 143.472C239.014 143.472 238.938 143.455 238.862 143.42C238.785 143.392 238.709 143.378 238.633 143.378C238.39 143.378 238.151 143.399 237.916 143.441C237.68 143.489 237.441 143.514 237.199 143.514C237.081 143.514 236.97 143.496 236.866 143.462C236.762 143.434 236.658 143.402 236.554 143.368C236.457 143.333 236.357 143.298 236.253 143.263C236.149 143.228 236.042 143.204 235.931 143.19C235.764 143.176 235.636 143.11 235.546 142.992C235.463 142.874 235.421 142.734 235.421 142.574C235.421 142.387 235.47 142.23 235.567 142.105C235.671 141.973 235.785 141.837 235.91 141.698C236.035 141.552 236.146 141.378 236.243 141.176C236.346 140.974 236.398 140.703 236.398 140.362C236.398 139.68 236.367 139.005 236.305 138.337C236.249 137.662 236.222 136.984 236.222 136.302V135.989C236.222 135.843 236.215 135.693 236.201 135.54C236.187 135.387 236.152 135.251 236.097 135.133C236.042 135.008 235.962 134.907 235.858 134.83C235.754 134.754 235.609 134.715 235.421 134.715C235.262 134.813 235.11 134.921 234.964 135.039C234.819 135.15 234.69 135.282 234.58 135.436C234.531 135.505 234.479 135.62 234.424 135.78C234.368 135.94 234.316 136.124 234.268 136.333C234.219 136.542 234.171 136.765 234.122 137.001C234.081 137.238 234.043 137.464 234.008 137.679C233.973 137.895 233.946 138.093 233.925 138.274C233.904 138.455 233.894 138.591 233.894 138.681C233.894 138.946 233.911 139.214 233.946 139.485C233.987 139.749 234.008 140.014 234.008 140.278C234.008 140.417 233.994 140.553 233.966 140.685C233.946 140.811 233.935 140.943 233.935 141.082C233.935 141.138 233.939 141.193 233.946 141.249C233.953 141.305 233.973 141.36 234.008 141.416C234.084 141.458 234.174 141.51 234.278 141.572C234.389 141.635 234.49 141.708 234.58 141.792C234.677 141.868 234.756 141.952 234.819 142.042C234.888 142.133 234.923 142.226 234.923 142.324C234.923 142.526 234.85 142.689 234.704 142.814C234.559 142.94 234.389 143.002 234.195 143.002C234.147 143.002 234.102 142.999 234.06 142.992C234.018 142.985 233.973 142.981 233.925 142.981C233.856 142.981 233.786 142.995 233.717 143.023C233.655 143.044 233.589 143.068 233.519 143.096C233.45 143.131 233.377 143.159 233.301 143.18C233.232 143.208 233.156 143.221 233.073 143.221C232.858 143.221 232.65 143.194 232.449 143.138C232.248 143.082 232.04 143.054 231.825 143.054C231.763 143.054 231.708 143.03 231.659 142.981C231.611 142.926 231.569 142.863 231.534 142.794C231.507 142.724 231.486 142.651 231.472 142.574C231.458 142.498 231.451 142.435 231.451 142.387C231.451 142.261 231.475 142.167 231.524 142.105C231.579 142.035 231.645 141.976 231.721 141.927C231.798 141.879 231.881 141.83 231.971 141.781C232.068 141.726 232.154 141.652 232.231 141.562C232.307 141.472 232.369 141.35 232.418 141.197C232.473 141.037 232.501 140.828 232.501 140.571C232.501 140.466 232.487 140.365 232.459 140.268C232.432 140.17 232.4 140.073 232.366 139.976C232.338 139.878 232.31 139.781 232.283 139.683C232.262 139.586 232.251 139.485 232.251 139.381C232.251 139.2 232.272 139.019 232.314 138.838C232.355 138.657 232.376 138.476 232.376 138.295C232.376 138.163 232.352 138.038 232.303 137.92C232.255 137.801 232.231 137.679 232.231 137.554C232.231 137.464 232.255 137.384 232.303 137.314C232.359 137.245 232.387 137.165 232.387 137.074C232.387 137.046 232.38 136.994 232.366 136.918C232.352 136.841 232.335 136.754 232.314 136.657C232.3 136.552 232.286 136.444 232.272 136.333C232.258 136.222 232.251 136.117 232.251 136.02C232.251 135.895 232.265 135.77 232.293 135.644C232.328 135.519 232.345 135.394 232.345 135.269C232.345 135.192 232.324 135.122 232.283 135.06C232.248 134.99 232.2 134.931 232.137 134.882C232.075 134.827 232.006 134.785 231.929 134.757C231.853 134.729 231.78 134.715 231.711 134.715C231.593 134.715 231.479 134.74 231.368 134.788C231.257 134.83 231.153 134.886 231.056 134.955C230.959 135.025 230.866 135.102 230.776 135.185C230.686 135.269 230.599 135.349 230.516 135.425C230.495 135.488 230.474 135.554 230.453 135.623C230.44 135.693 230.415 135.756 230.381 135.811C230.353 135.853 230.308 135.888 230.246 135.916C230.19 135.943 230.131 135.971 230.069 135.999C230.013 136.027 229.962 136.058 229.913 136.093C229.871 136.121 229.851 136.166 229.851 136.229C229.851 136.284 229.868 136.33 229.903 136.364C229.944 136.399 229.986 136.424 230.027 136.438C230.097 136.591 230.131 136.733 230.131 136.865C230.131 136.984 230.117 137.099 230.09 137.21C230.069 137.321 230.041 137.432 230.007 137.544C229.979 137.648 229.951 137.76 229.923 137.878C229.903 137.989 229.892 138.1 229.892 138.212L229.903 139.255C229.903 139.353 229.913 139.419 229.934 139.454C229.962 139.482 229.989 139.506 230.017 139.527C230.052 139.541 230.083 139.565 230.11 139.6C230.145 139.635 230.173 139.708 230.194 139.819C230.214 139.958 230.232 140.101 230.246 140.247C230.266 140.386 230.277 140.525 230.277 140.664C230.277 140.811 230.263 140.957 230.235 141.103C230.207 141.242 230.194 141.385 230.194 141.531C230.194 141.684 230.214 141.799 230.256 141.875C230.304 141.945 230.363 141.997 230.433 142.032C230.502 142.06 230.575 142.08 230.651 142.094C230.727 142.101 230.8 142.119 230.869 142.146C230.938 142.174 230.994 142.223 231.035 142.293C231.084 142.362 231.108 142.474 231.108 142.627C231.108 142.766 231.07 142.881 230.994 142.971C230.918 143.054 230.814 143.114 230.682 143.148C230.246 143.267 229.792 143.361 229.321 143.43C228.849 143.5 228.389 143.535 227.938 143.535C227.8 143.535 227.682 143.528 227.585 143.514C227.488 143.507 227.408 143.479 227.346 143.43C227.29 143.388 227.249 143.319 227.221 143.221C227.193 143.124 227.18 142.985 227.18 142.804C227.18 142.644 227.242 142.501 227.367 142.376C227.498 142.244 227.637 142.119 227.782 142C227.935 141.882 228.073 141.764 228.198 141.646C228.33 141.52 228.396 141.385 228.396 141.238C228.396 141.176 228.392 141.12 228.385 141.071C228.385 141.016 228.385 140.967 228.385 140.925C228.385 140.863 228.392 140.8 228.406 140.738C228.427 140.675 228.465 140.605 228.52 140.529C228.52 140.376 228.503 140.223 228.468 140.07C228.441 139.916 228.409 139.767 228.375 139.621C228.34 139.468 228.305 139.318 228.271 139.172C228.243 139.019 228.229 138.862 228.229 138.702C228.229 138.375 228.257 138.055 228.312 137.742C228.375 137.429 228.406 137.109 228.406 136.782C228.406 136.601 228.399 136.424 228.385 136.25C228.378 136.076 228.368 135.898 228.354 135.717C228.333 135.509 228.309 135.342 228.281 135.216C228.254 135.084 228.208 134.973 228.146 134.882C228.091 134.792 228.008 134.715 227.897 134.653C227.793 134.583 227.644 134.503 227.45 134.413C227.339 134.357 227.238 134.284 227.148 134.194C227.065 134.103 227.024 133.992 227.024 133.86C227.024 133.713 227.055 133.613 227.117 133.557C227.186 133.494 227.263 133.449 227.346 133.421C227.436 133.386 227.523 133.355 227.606 133.327C227.689 133.299 227.748 133.244 227.782 133.16C227.81 133.098 227.834 133.063 227.855 133.056C227.883 133.042 227.931 133.035 228.001 133.035C228.188 133.035 228.368 133.066 228.541 133.129C228.714 133.185 228.881 133.247 229.04 133.317C229.199 133.38 229.352 133.442 229.497 133.505C229.65 133.56 229.795 133.588 229.934 133.588C230.079 133.588 230.232 133.543 230.391 133.453C230.557 133.355 230.738 133.251 230.932 133.139C231.126 133.028 231.34 132.927 231.576 132.837C231.818 132.739 232.092 132.691 232.397 132.691C232.515 132.691 232.636 132.719 232.761 132.774C232.885 132.83 233.007 132.899 233.125 132.983C233.242 133.066 233.35 133.157 233.447 133.254C233.551 133.352 233.637 133.446 233.707 133.536C233.873 133.376 234.067 133.237 234.289 133.119C234.51 133 234.742 132.903 234.985 132.826C235.227 132.75 235.473 132.694 235.723 132.659C235.972 132.625 236.211 132.607 236.44 132.607C236.613 132.607 236.769 132.656 236.908 132.753C237.046 132.844 237.168 132.969 237.271 133.129C237.382 133.282 237.476 133.456 237.552 133.651C237.635 133.846 237.708 134.041 237.77 134.235C237.84 134.43 237.899 134.621 237.947 134.809C237.996 134.99 238.041 135.143 238.082 135.269C238.096 135.303 238.106 135.338 238.113 135.373C238.12 135.408 238.124 135.446 238.124 135.488C238.124 135.585 238.11 135.679 238.082 135.77C238.054 135.86 238.023 135.95 237.989 136.041C237.961 136.124 237.933 136.211 237.905 136.302C237.878 136.392 237.864 136.486 237.864 136.584C237.864 136.681 237.881 136.775 237.916 136.865C237.957 136.956 237.978 137.05 237.978 137.147C237.978 137.252 237.957 137.352 237.916 137.45C237.874 137.54 237.854 137.638 237.854 137.742C237.854 137.881 237.878 138.013 237.926 138.139C237.982 138.264 238.009 138.396 238.009 138.535C238.009 138.64 237.992 138.741 237.957 138.838C237.93 138.928 237.895 139.022 237.854 139.12C237.819 139.217 237.784 139.315 237.75 139.412C237.722 139.502 237.708 139.6 237.708 139.704C237.708 139.739 237.711 139.774 237.718 139.809C237.725 139.836 237.736 139.868 237.75 139.903L238.155 140.925C238.217 141.071 238.321 141.211 238.467 141.343C238.612 141.475 238.761 141.604 238.914 141.729C239.066 141.854 239.201 141.986 239.319 142.126C239.437 142.258 239.496 142.404 239.496 142.564Z" fill="black"/>
<path d="M251.791 137.972C251.791 138.271 251.76 138.563 251.697 138.848C251.635 139.134 251.583 139.422 251.542 139.715C251.528 139.812 251.517 139.903 251.51 139.986C251.51 140.063 251.503 140.139 251.49 140.216C251.476 140.285 251.451 140.358 251.417 140.435C251.382 140.504 251.33 140.577 251.261 140.654C251.171 140.751 251.108 140.856 251.074 140.967C251.039 141.071 251.005 141.183 250.97 141.301C250.928 141.419 250.88 141.51 250.824 141.572C250.776 141.628 250.72 141.677 250.658 141.719C250.603 141.76 250.54 141.802 250.471 141.844C250.409 141.879 250.343 141.934 250.274 142.011C250.232 142.06 250.204 142.108 250.19 142.157C250.183 142.206 250.177 142.254 250.17 142.303C250.163 142.345 250.145 142.387 250.118 142.428C250.097 142.47 250.052 142.505 249.983 142.533C249.872 142.581 249.792 142.637 249.743 142.7C249.695 142.755 249.633 142.821 249.556 142.898C249.48 142.974 249.38 143.048 249.255 143.117C249.137 143.194 249.009 143.26 248.87 143.315C248.739 143.371 248.604 143.416 248.465 143.451C248.327 143.486 248.205 143.503 248.101 143.503C247.97 143.503 247.838 143.489 247.706 143.462C247.582 143.434 247.453 143.42 247.322 143.42C247.246 143.42 247.187 143.43 247.145 143.451C247.11 143.479 247.079 143.507 247.052 143.535C247.024 143.562 246.993 143.587 246.958 143.608C246.93 143.635 246.885 143.649 246.823 143.649C246.705 143.649 246.532 143.601 246.303 143.503C246.075 143.413 245.832 143.308 245.576 143.19C245.326 143.079 245.084 142.978 244.848 142.887C244.613 142.79 244.432 142.741 244.308 142.741C244.197 142.741 244.107 142.783 244.038 142.867C243.975 142.943 243.923 143.041 243.882 143.159C243.84 143.284 243.809 143.416 243.788 143.555C243.774 143.702 243.764 143.837 243.757 143.962C243.757 144.088 243.757 144.192 243.757 144.276C243.764 144.359 243.767 144.401 243.767 144.401C243.767 144.47 243.753 144.516 243.726 144.537C243.705 144.557 243.674 144.568 243.632 144.568C243.604 144.568 243.577 144.564 243.549 144.557C243.521 144.557 243.49 144.554 243.456 144.547C243.456 144.63 243.469 144.721 243.497 144.818C243.532 144.916 243.57 145.017 243.611 145.121C243.66 145.232 243.705 145.34 243.747 145.445C243.788 145.549 243.819 145.646 243.84 145.737C243.889 145.959 243.937 146.119 243.986 146.217C244.041 146.314 244.11 146.38 244.193 146.415C244.277 146.45 244.381 146.464 244.505 146.457C244.63 146.457 244.789 146.467 244.983 146.488C245.073 146.502 245.17 146.52 245.274 146.54C245.378 146.568 245.472 146.607 245.555 146.655C245.638 146.711 245.707 146.777 245.763 146.854C245.818 146.93 245.846 147.024 245.846 147.135C245.846 147.365 245.777 147.528 245.638 147.626C245.506 147.723 245.337 147.772 245.129 147.772C244.845 147.772 244.561 147.751 244.277 147.709C243.999 147.668 243.715 147.647 243.424 147.647C243.119 147.647 242.815 147.664 242.51 147.699C242.212 147.734 241.914 147.751 241.616 147.751C241.54 147.751 241.432 147.737 241.294 147.709C241.162 147.682 241.027 147.64 240.888 147.584C240.757 147.535 240.639 147.473 240.535 147.396C240.438 147.327 240.389 147.247 240.389 147.156C240.389 147.094 240.424 147.031 240.493 146.968C240.57 146.913 240.653 146.864 240.743 146.822C240.84 146.78 240.937 146.746 241.034 146.718C241.131 146.697 241.207 146.687 241.263 146.687C241.387 146.687 241.502 146.666 241.605 146.624C241.716 146.589 241.824 146.551 241.928 146.509C242.032 146.467 242.136 146.426 242.239 146.384C242.343 146.349 242.454 146.332 242.572 146.332C242.634 146.067 242.673 145.803 242.686 145.538C242.707 145.274 242.718 145.01 242.718 144.745C242.718 144.557 242.714 144.37 242.707 144.182C242.707 143.994 242.707 143.806 242.707 143.618C242.707 143.249 242.731 142.884 242.78 142.522C242.835 142.16 242.863 141.792 242.863 141.416C242.863 141.186 242.853 140.957 242.832 140.727C242.818 140.497 242.804 140.268 242.79 140.038C242.77 140.01 242.745 139.92 242.718 139.767C242.69 139.607 242.662 139.433 242.634 139.245C242.614 139.057 242.596 138.88 242.582 138.713C242.569 138.539 242.562 138.424 242.562 138.368C242.562 138.292 242.572 138.226 242.593 138.17C242.621 138.107 242.648 138.055 242.676 138.013C242.704 137.965 242.728 137.923 242.749 137.888C242.776 137.853 242.79 137.822 242.79 137.794C242.79 137.787 242.78 137.763 242.759 137.721C242.738 137.679 242.714 137.627 242.686 137.565C242.666 137.502 242.645 137.432 242.624 137.356C242.603 137.279 242.593 137.203 242.593 137.126C242.593 136.904 242.617 136.681 242.666 136.458C242.721 136.236 242.749 136.013 242.749 135.79C242.749 135.491 242.641 135.23 242.427 135.008C242.323 134.903 242.239 134.823 242.177 134.768C242.115 134.712 242.052 134.674 241.99 134.653C241.928 134.625 241.855 134.608 241.772 134.601C241.689 134.587 241.574 134.569 241.429 134.548C241.353 134.541 241.245 134.521 241.107 134.486C240.975 134.444 240.843 134.395 240.712 134.34C240.58 134.284 240.462 134.218 240.358 134.141C240.261 134.065 240.213 133.981 240.213 133.891C240.213 133.773 240.268 133.672 240.379 133.588C240.49 133.498 240.618 133.428 240.764 133.38C240.916 133.324 241.069 133.286 241.221 133.265C241.373 133.237 241.495 133.223 241.585 133.223C241.682 133.223 241.779 133.233 241.876 133.254C241.973 133.268 242.056 133.31 242.125 133.38C242.201 133.303 242.295 133.254 242.406 133.233C242.517 133.206 242.624 133.192 242.728 133.192C243.026 133.192 243.255 133.237 243.414 133.327C243.573 133.418 243.698 133.519 243.788 133.63C243.885 133.734 243.961 133.832 244.017 133.922C244.079 134.013 244.155 134.058 244.245 134.058C244.301 134.058 244.353 134.047 244.401 134.027C244.457 134.006 244.512 133.981 244.568 133.954C244.713 133.884 244.931 133.8 245.222 133.703C245.513 133.599 245.822 133.501 246.147 133.411C246.473 133.313 246.785 133.233 247.083 133.171C247.381 133.108 247.606 133.077 247.758 133.077C247.835 133.077 247.942 133.098 248.081 133.139C248.226 133.174 248.385 133.223 248.559 133.286C248.732 133.341 248.912 133.411 249.099 133.494C249.286 133.571 249.459 133.651 249.619 133.734C249.778 133.818 249.917 133.901 250.034 133.985C250.152 134.061 250.232 134.131 250.274 134.194C250.35 134.319 250.429 134.427 250.513 134.517C250.603 134.608 250.72 134.677 250.866 134.726C250.908 134.782 250.932 134.841 250.939 134.903C250.953 134.966 250.959 135.032 250.959 135.102V135.3C250.959 135.439 250.984 135.547 251.032 135.623C251.081 135.7 251.133 135.766 251.188 135.822C251.244 135.87 251.296 135.919 251.344 135.968C251.393 136.01 251.417 136.072 251.417 136.156C251.417 136.204 251.403 136.25 251.375 136.291C251.348 136.326 251.334 136.364 251.334 136.406C251.334 136.511 251.358 136.618 251.406 136.73C251.455 136.834 251.507 136.952 251.562 137.085C251.618 137.21 251.67 137.346 251.718 137.492C251.767 137.638 251.791 137.798 251.791 137.972ZM247.031 133.526C247.031 133.491 247.013 133.456 246.979 133.421C246.944 133.386 246.91 133.369 246.875 133.369C246.806 133.369 246.761 133.407 246.74 133.484C246.726 133.553 246.719 133.616 246.719 133.672C246.719 133.658 246.722 133.651 246.729 133.651C246.743 133.651 246.754 133.654 246.761 133.661L246.719 133.682C246.768 133.682 246.83 133.675 246.906 133.661C246.989 133.64 247.031 133.595 247.031 133.526ZM250.565 138.295C250.565 138.087 250.537 137.885 250.481 137.69C250.426 137.488 250.357 137.297 250.274 137.116C250.19 136.928 250.097 136.747 249.993 136.573C249.889 136.399 249.785 136.229 249.681 136.062C249.653 136.02 249.636 135.975 249.629 135.926C249.622 135.87 249.619 135.818 249.619 135.77C249.619 135.714 249.612 135.662 249.598 135.613C249.591 135.557 249.57 135.509 249.536 135.467C249.48 135.404 249.428 135.369 249.38 135.363C249.331 135.349 249.283 135.338 249.234 135.331C249.193 135.324 249.144 135.307 249.089 135.279C249.04 135.251 248.992 135.189 248.943 135.091C248.909 135.029 248.832 134.959 248.715 134.882C248.604 134.806 248.479 134.733 248.34 134.663C248.209 134.594 248.077 134.538 247.945 134.496C247.821 134.448 247.724 134.423 247.654 134.423C247.516 134.423 247.377 134.455 247.239 134.517C247.107 134.573 246.972 134.601 246.833 134.601C246.736 134.601 246.646 134.583 246.563 134.548C246.487 134.514 246.411 134.479 246.334 134.444C246.265 134.402 246.192 134.364 246.116 134.329C246.04 134.294 245.96 134.277 245.877 134.277H245.825C245.839 134.347 245.846 134.402 245.846 134.444C245.846 134.507 245.832 134.559 245.804 134.601C245.777 134.635 245.739 134.667 245.69 134.695C245.649 134.722 245.6 134.75 245.545 134.778C245.496 134.799 245.451 134.823 245.409 134.851C245.347 134.928 245.312 135.004 245.306 135.081C245.306 135.157 245.271 135.196 245.202 135.196C245.153 135.196 245.115 135.189 245.087 135.175C245.087 135.223 245.073 135.258 245.046 135.279C245.018 135.3 244.987 135.317 244.952 135.331C244.918 135.345 244.883 135.363 244.848 135.383C244.814 135.397 244.793 135.425 244.786 135.467C244.696 135.474 244.613 135.53 244.536 135.634C244.46 135.731 244.394 135.857 244.339 136.01C244.284 136.163 244.235 136.333 244.193 136.521C244.152 136.709 244.117 136.893 244.09 137.074C244.062 137.248 244.041 137.412 244.027 137.565C244.013 137.711 244.006 137.822 244.006 137.899C244.006 138.149 244.02 138.4 244.048 138.65C244.083 138.894 244.1 139.141 244.1 139.391C244.1 139.579 244.093 139.767 244.079 139.955C244.072 140.143 244.062 140.334 244.048 140.529C244.221 140.717 244.387 140.904 244.547 141.092C244.706 141.28 244.872 141.451 245.046 141.604C245.226 141.75 245.423 141.875 245.638 141.979C245.853 142.077 246.102 142.129 246.386 142.136C246.497 142.136 246.608 142.15 246.719 142.178C246.83 142.206 246.941 142.233 247.052 142.261C247.162 142.289 247.27 142.317 247.374 142.345C247.485 142.366 247.596 142.376 247.706 142.376C247.81 142.376 247.921 142.355 248.039 142.313C248.157 142.265 248.271 142.206 248.382 142.136C248.5 142.066 248.611 141.993 248.715 141.917C248.818 141.833 248.905 141.753 248.974 141.677C249.03 141.614 249.096 141.569 249.172 141.541C249.255 141.513 249.324 141.472 249.38 141.416C249.421 141.374 249.449 141.329 249.463 141.28C249.477 141.232 249.487 141.183 249.494 141.134C249.508 141.085 249.525 141.04 249.546 140.998C249.567 140.95 249.608 140.908 249.671 140.873C249.802 140.804 249.886 140.755 249.92 140.727C249.955 140.692 249.972 140.633 249.972 140.55V140.351C249.972 140.282 249.989 140.233 250.024 140.205C250.059 140.17 250.097 140.139 250.138 140.111C250.18 140.077 250.218 140.035 250.253 139.986C250.287 139.93 250.305 139.84 250.305 139.715C250.305 139.624 250.298 139.537 250.284 139.454C250.27 139.363 250.263 139.273 250.263 139.182C250.263 139.092 250.277 139.008 250.305 138.932C250.339 138.855 250.374 138.782 250.409 138.713C250.45 138.643 250.485 138.577 250.513 138.514C250.547 138.445 250.565 138.372 250.565 138.295Z" fill="black"/>
<path d="M264.606 141.228C264.606 141.346 264.585 141.458 264.544 141.562C264.502 141.666 264.464 141.774 264.429 141.886C264.402 141.983 264.381 142.063 264.367 142.126C264.36 142.188 264.346 142.244 264.325 142.293C264.305 142.334 264.27 142.376 264.221 142.418C264.18 142.453 264.111 142.494 264.014 142.543C263.806 142.654 263.584 142.769 263.348 142.887C263.12 142.999 262.888 143.054 262.652 143.054C262.451 143.054 262.261 143.009 262.08 142.919C261.907 142.821 261.744 142.717 261.592 142.606C261.446 142.487 261.311 142.38 261.187 142.282C261.069 142.185 260.968 142.136 260.885 142.136C260.795 142.136 260.715 142.16 260.646 142.209C260.584 142.258 260.518 142.31 260.449 142.366C260.386 142.421 260.313 142.474 260.23 142.522C260.154 142.571 260.057 142.595 259.939 142.595C259.842 142.595 259.742 142.613 259.638 142.647C259.534 142.682 259.43 142.724 259.326 142.773C259.222 142.814 259.115 142.86 259.004 142.908C258.9 142.95 258.803 142.985 258.713 143.013C258.401 143.096 258.086 143.145 257.767 143.159C257.455 143.173 257.14 143.18 256.821 143.18C256.738 143.18 256.61 143.176 256.437 143.169C256.264 143.169 256.087 143.152 255.907 143.117C255.733 143.089 255.578 143.041 255.439 142.971C255.307 142.901 255.242 142.804 255.242 142.679C255.242 142.651 255.245 142.627 255.252 142.606C255.203 142.661 255.148 142.707 255.086 142.741C255.023 142.776 254.954 142.794 254.878 142.794C254.767 142.794 254.632 142.717 254.472 142.564C254.313 142.411 254.161 142.233 254.015 142.032C253.87 141.83 253.745 141.632 253.641 141.437C253.537 141.235 253.485 141.085 253.485 140.988C253.485 140.911 253.506 140.842 253.547 140.779C253.596 140.717 253.62 140.647 253.62 140.571C253.62 140.473 253.606 140.383 253.579 140.299C253.558 140.209 253.547 140.115 253.547 140.017C253.547 139.892 253.572 139.76 253.62 139.621C253.669 139.475 253.728 139.332 253.797 139.193C253.866 139.047 253.939 138.908 254.015 138.775C254.091 138.636 254.161 138.507 254.223 138.389C254.292 138.25 254.389 138.139 254.514 138.055C254.639 137.972 254.77 137.899 254.909 137.836C255.048 137.773 255.186 137.711 255.325 137.648C255.463 137.586 255.585 137.502 255.688 137.398C255.792 137.516 255.928 137.575 256.094 137.575C256.267 137.575 256.437 137.551 256.603 137.502C256.769 137.446 256.939 137.419 257.112 137.419C257.251 137.419 257.383 137.432 257.507 137.46C257.639 137.488 257.774 137.502 257.913 137.502C258.065 137.502 258.176 137.485 258.245 137.45C258.321 137.408 258.415 137.339 258.526 137.241C258.637 137.144 258.775 137.071 258.942 137.022C259.115 136.966 259.291 136.925 259.472 136.897C259.659 136.862 259.842 136.827 260.022 136.792C260.21 136.758 260.376 136.709 260.521 136.646C260.667 136.577 260.785 136.486 260.875 136.375C260.965 136.257 261.01 136.097 261.01 135.895C261.01 135.672 260.944 135.439 260.812 135.196C260.688 134.945 260.525 134.719 260.324 134.517C260.123 134.308 259.901 134.138 259.659 134.006C259.416 133.874 259.184 133.807 258.962 133.807C258.935 133.807 258.907 133.811 258.879 133.818C258.851 133.825 258.827 133.828 258.806 133.828C258.64 133.856 258.453 133.877 258.245 133.891C258.037 133.898 257.843 133.929 257.663 133.985C257.483 134.034 257.331 134.121 257.206 134.246C257.081 134.364 257.019 134.541 257.019 134.778C257.019 134.917 257.029 135.056 257.05 135.196C257.078 135.328 257.092 135.463 257.092 135.603C257.092 135.811 257.04 135.985 256.936 136.124C256.839 136.264 256.71 136.375 256.551 136.458C256.399 136.542 256.229 136.601 256.042 136.636C255.855 136.664 255.675 136.678 255.501 136.678C255.294 136.678 255.113 136.65 254.961 136.594C254.808 136.538 254.684 136.41 254.587 136.208C254.511 136.062 254.427 135.905 254.337 135.738C254.254 135.564 254.213 135.39 254.213 135.216C254.213 135.029 254.244 134.855 254.306 134.695C254.375 134.528 254.452 134.368 254.535 134.214C254.618 134.054 254.698 133.898 254.774 133.745C254.857 133.585 254.916 133.414 254.951 133.233C254.999 133.206 255.065 133.178 255.148 133.15C255.238 133.122 255.332 133.094 255.429 133.066C255.533 133.039 255.63 133.014 255.72 132.993C255.817 132.966 255.896 132.941 255.959 132.92C256.125 132.872 256.284 132.816 256.437 132.753C256.596 132.684 256.756 132.621 256.915 132.565C257.081 132.51 257.244 132.461 257.403 132.419C257.57 132.378 257.739 132.353 257.913 132.346L258.235 132.336C258.533 132.336 258.838 132.364 259.149 132.419C259.461 132.468 259.766 132.548 260.064 132.659C260.362 132.771 260.643 132.91 260.906 133.077C261.176 133.237 261.415 133.428 261.623 133.651C261.775 133.818 261.9 134.016 261.997 134.246C262.101 134.468 262.181 134.705 262.236 134.955C262.299 135.206 262.34 135.46 262.361 135.717C262.389 135.968 262.403 136.201 262.403 136.417C262.403 136.709 262.392 136.998 262.371 137.283C262.358 137.561 262.351 137.846 262.351 138.139C262.351 138.417 262.364 138.695 262.392 138.974C262.427 139.245 262.465 139.52 262.506 139.798C262.548 140.07 262.583 140.344 262.61 140.623C262.645 140.894 262.662 141.165 262.662 141.437C262.676 141.604 262.697 141.708 262.725 141.75C262.759 141.785 262.794 141.802 262.829 141.802C262.981 141.802 263.102 141.757 263.192 141.666C263.289 141.569 263.376 141.465 263.452 141.353C263.528 141.235 263.612 141.127 263.702 141.03C263.792 140.932 263.906 140.884 264.045 140.884C264.107 140.884 264.169 140.887 264.232 140.894C264.301 140.901 264.363 140.918 264.419 140.946C264.474 140.967 264.519 141.002 264.554 141.051C264.589 141.092 264.606 141.151 264.606 141.228ZM261.187 138.629C261.187 138.588 261.183 138.514 261.176 138.41C261.176 138.306 261.169 138.201 261.155 138.097C261.141 137.986 261.117 137.888 261.083 137.805C261.055 137.721 261.01 137.679 260.947 137.679C260.934 137.679 260.916 137.686 260.896 137.7C260.875 137.707 260.857 137.711 260.844 137.711C260.58 137.857 260.355 137.979 260.168 138.076C259.981 138.167 259.794 138.243 259.607 138.306C259.427 138.361 259.233 138.4 259.025 138.421C258.817 138.441 258.557 138.452 258.245 138.452C258.204 138.452 258.089 138.469 257.902 138.504C257.715 138.539 257.511 138.581 257.289 138.629C257.067 138.671 256.859 138.716 256.665 138.765C256.471 138.807 256.35 138.835 256.302 138.848C256.212 138.883 256.146 138.918 256.104 138.953C256.07 138.988 256.042 139.026 256.021 139.068C256 139.109 255.979 139.155 255.959 139.203C255.938 139.245 255.9 139.29 255.844 139.339C255.775 139.395 255.699 139.44 255.616 139.475C255.539 139.509 255.467 139.562 255.397 139.631C255.294 139.736 255.197 139.875 255.106 140.049C255.016 140.216 254.971 140.376 254.971 140.529C254.971 140.717 255.02 140.884 255.117 141.03C255.214 141.176 255.342 141.301 255.501 141.405C255.661 141.51 255.841 141.6 256.042 141.677C256.243 141.753 256.444 141.813 256.645 141.854C256.853 141.896 257.05 141.927 257.237 141.948C257.431 141.969 257.597 141.979 257.736 141.979C257.902 141.979 258.1 141.969 258.328 141.948C258.557 141.92 258.786 141.882 259.014 141.833C259.243 141.778 259.458 141.705 259.659 141.614C259.86 141.524 260.019 141.409 260.137 141.27C260.185 141.214 260.22 141.165 260.241 141.124C260.262 141.075 260.282 141.03 260.303 140.988C260.331 140.939 260.359 140.891 260.386 140.842C260.421 140.793 260.473 140.741 260.542 140.685C260.702 140.553 260.823 140.407 260.906 140.247C260.996 140.087 261.062 139.92 261.103 139.746C261.145 139.572 261.169 139.391 261.176 139.203C261.183 139.015 261.187 138.824 261.187 138.629Z" fill="black"/>
<path d="M277.722 142.783C277.722 142.881 277.698 142.961 277.65 143.023C277.601 143.086 277.539 143.135 277.462 143.169C277.393 143.204 277.314 143.225 277.223 143.232C277.14 143.246 277.061 143.253 276.984 143.253C276.88 143.253 276.777 143.246 276.673 143.232C276.569 143.218 276.465 143.204 276.361 143.19C276.222 143.239 276.056 143.288 275.862 143.336C275.675 143.392 275.505 143.42 275.353 143.42C275.311 143.42 275.269 143.413 275.228 143.399C275.193 143.385 275.159 143.378 275.124 143.378C275.006 143.378 274.885 143.399 274.76 143.441C274.642 143.489 274.525 143.514 274.407 143.514C274.206 143.514 274.012 143.486 273.825 143.43C273.645 143.382 273.454 143.35 273.253 143.336C272.928 143.308 272.675 143.183 272.494 142.961C272.321 142.731 272.228 142.46 272.214 142.146C272.429 142.014 272.654 141.924 272.889 141.875C273.132 141.826 273.374 141.802 273.617 141.802C273.756 141.802 273.891 141.806 274.022 141.813C274.161 141.819 274.299 141.83 274.438 141.844C274.417 141.322 274.372 140.8 274.303 140.278C274.234 139.756 274.199 139.231 274.199 138.702C274.199 138.521 274.202 138.341 274.209 138.16C274.223 137.979 274.247 137.798 274.282 137.617C274.317 137.436 274.362 137.259 274.417 137.085C274.473 136.904 274.5 136.723 274.5 136.542C274.5 136.424 274.483 136.316 274.448 136.218C274.414 136.114 274.369 136.01 274.313 135.905C274.265 135.822 274.234 135.728 274.22 135.623C274.206 135.519 274.189 135.415 274.168 135.31C274.147 135.199 274.116 135.091 274.074 134.987C274.033 134.882 273.963 134.788 273.866 134.705C273.776 134.621 273.648 134.555 273.482 134.507C273.316 134.458 273.097 134.434 272.827 134.434C272.744 134.434 272.619 134.448 272.453 134.475C272.294 134.496 272.127 134.528 271.954 134.569C271.788 134.604 271.628 134.649 271.476 134.705C271.33 134.754 271.23 134.806 271.175 134.862C271.14 134.896 271.095 134.945 271.039 135.008C270.991 135.07 270.935 135.136 270.873 135.206C270.818 135.269 270.762 135.328 270.707 135.383C270.651 135.432 270.603 135.46 270.561 135.467C270.457 135.488 270.378 135.505 270.322 135.519C270.274 135.533 270.232 135.554 270.198 135.582C270.17 135.61 270.146 135.651 270.125 135.707C270.104 135.756 270.069 135.829 270.021 135.926C270.007 135.954 269.979 136.01 269.938 136.093C269.896 136.17 269.855 136.208 269.813 136.208C269.778 136.208 269.754 136.194 269.74 136.166C269.726 136.138 269.702 136.124 269.667 136.124C269.654 136.124 269.633 136.135 269.605 136.156C269.584 136.17 269.567 136.184 269.553 136.197V136.49C269.505 136.545 269.46 136.577 269.418 136.584C269.383 136.584 269.352 136.587 269.325 136.594C269.304 136.601 269.286 136.618 269.273 136.646C269.266 136.674 269.262 136.74 269.262 136.845C269.262 136.921 269.245 136.991 269.21 137.053C269.176 137.116 269.137 137.179 269.096 137.241C269.061 137.304 269.027 137.37 268.992 137.439C268.957 137.502 268.94 137.575 268.94 137.659C268.94 137.798 268.957 137.933 268.992 138.066C269.033 138.191 269.054 138.323 269.054 138.462C269.054 138.553 269.04 138.629 269.013 138.692C268.985 138.754 268.95 138.814 268.909 138.869C268.874 138.918 268.843 138.967 268.815 139.015C268.788 139.064 268.774 139.123 268.774 139.193C268.774 139.29 268.791 139.381 268.826 139.464C268.867 139.541 268.909 139.621 268.95 139.704C268.992 139.788 269.03 139.875 269.065 139.965C269.106 140.056 269.127 140.153 269.127 140.257C269.127 140.376 269.113 140.497 269.085 140.623C269.058 140.741 269.044 140.863 269.044 140.988C269.044 141.134 269.065 141.249 269.106 141.332C269.155 141.409 269.214 141.468 269.283 141.51C269.359 141.552 269.446 141.583 269.543 141.604C269.64 141.625 269.737 141.656 269.834 141.698C269.938 141.732 270.042 141.785 270.146 141.854C270.25 141.917 270.347 142.014 270.437 142.146L270.499 142.136C270.617 142.136 270.703 142.185 270.759 142.282C270.814 142.38 270.842 142.48 270.842 142.585C270.842 142.682 270.821 142.769 270.78 142.846C270.738 142.915 270.717 143.009 270.717 143.128C270.717 143.211 270.627 143.281 270.447 143.336C270.267 143.392 270.062 143.434 269.834 143.462C269.605 143.496 269.383 143.517 269.169 143.524C268.961 143.538 268.822 143.545 268.753 143.545C268.67 143.545 268.542 143.542 268.368 143.535C268.202 143.535 268.011 143.528 267.797 143.514C267.589 143.507 267.371 143.493 267.142 143.472C266.913 143.451 266.702 143.42 266.508 143.378C266.314 143.343 266.148 143.295 266.009 143.232C265.877 143.176 265.794 143.107 265.76 143.023C265.725 142.94 265.69 142.849 265.656 142.752C265.621 142.647 265.604 142.547 265.604 142.449C265.604 142.345 265.628 142.251 265.676 142.167C265.732 142.084 265.798 142.007 265.874 141.938C265.978 141.84 266.092 141.785 266.217 141.771C266.342 141.75 266.463 141.739 266.581 141.739C266.705 141.732 266.823 141.722 266.934 141.708C267.052 141.687 267.152 141.632 267.235 141.541C267.326 141.451 267.395 141.308 267.443 141.113C267.499 140.918 267.526 140.644 267.526 140.289C267.526 140.198 267.52 140.108 267.506 140.017C267.492 139.92 267.474 139.829 267.454 139.746C267.433 139.656 267.416 139.576 267.402 139.506C267.388 139.436 267.381 139.384 267.381 139.349C267.381 139.308 267.391 139.262 267.412 139.214C267.44 139.165 267.468 139.116 267.495 139.068C267.53 139.012 267.558 138.953 267.578 138.89C267.606 138.828 267.62 138.758 267.62 138.681C267.62 138.563 267.596 138.448 267.547 138.337C267.506 138.226 267.485 138.111 267.485 137.993C267.485 137.895 267.502 137.801 267.537 137.711C267.571 137.62 267.589 137.526 267.589 137.429C267.589 137.352 267.568 137.279 267.526 137.21C267.485 137.14 267.464 137.064 267.464 136.98C267.464 136.904 267.478 136.827 267.506 136.751C267.533 136.667 267.547 136.584 267.547 136.5C267.547 136.319 267.526 136.135 267.485 135.947C267.443 135.752 267.405 135.564 267.371 135.383C267.329 135.168 267.249 135.008 267.132 134.903C267.021 134.792 266.892 134.708 266.747 134.653C266.601 134.597 266.449 134.552 266.29 134.517C266.13 134.482 265.985 134.43 265.853 134.361C265.721 134.284 265.611 134.18 265.521 134.047C265.437 133.908 265.396 133.707 265.396 133.442C265.396 133.261 265.448 133.122 265.552 133.025C265.663 132.927 265.794 132.858 265.947 132.816C266.099 132.767 266.258 132.739 266.425 132.732C266.598 132.725 266.747 132.722 266.872 132.722C267.073 132.722 267.27 132.753 267.464 132.816C267.665 132.872 267.866 132.906 268.067 132.92C268.157 132.927 268.244 132.959 268.327 133.014C268.41 133.063 268.486 133.126 268.555 133.202C268.625 133.272 268.68 133.352 268.722 133.442C268.763 133.533 268.788 133.623 268.794 133.713C268.794 133.755 268.808 133.832 268.836 133.943C268.864 134.047 268.895 134.155 268.93 134.267C268.971 134.378 269.013 134.479 269.054 134.569C269.103 134.653 269.151 134.695 269.2 134.695C269.241 134.66 269.269 134.621 269.283 134.58C269.304 134.531 269.321 134.486 269.335 134.444C269.342 134.402 269.387 134.347 269.47 134.277C269.56 134.207 269.657 134.134 269.761 134.058C269.872 133.981 269.976 133.908 270.073 133.839C270.177 133.769 270.25 133.713 270.291 133.672C270.333 133.623 270.364 133.574 270.385 133.526C270.412 133.47 270.437 133.421 270.457 133.38C270.485 133.331 270.516 133.293 270.551 133.265C270.592 133.237 270.655 133.223 270.738 133.223H270.79C270.866 133.223 270.939 133.192 271.008 133.129C271.078 133.059 271.168 132.983 271.278 132.899C271.389 132.816 271.535 132.743 271.715 132.68C271.895 132.611 272.134 132.576 272.432 132.576C272.688 132.576 272.945 132.583 273.201 132.597C273.458 132.604 273.7 132.638 273.929 132.701C274.164 132.764 274.383 132.861 274.584 132.993C274.791 133.126 274.972 133.31 275.124 133.546C275.242 133.734 275.339 133.874 275.415 133.964C275.491 134.054 275.554 134.141 275.602 134.225C275.651 134.308 275.682 134.409 275.696 134.528C275.716 134.646 275.727 134.823 275.727 135.06C275.727 135.157 275.744 135.248 275.779 135.331C275.813 135.415 275.852 135.502 275.893 135.592C275.942 135.676 275.983 135.766 276.018 135.863C276.052 135.961 276.07 136.072 276.07 136.197C276.07 136.441 276.056 136.685 276.028 136.928C276 137.165 275.987 137.405 275.987 137.648C275.987 137.822 275.952 137.993 275.883 138.16C275.82 138.327 275.789 138.497 275.789 138.671C275.789 138.754 275.81 138.835 275.852 138.911C275.893 138.988 275.914 139.075 275.914 139.172C275.914 139.29 275.9 139.412 275.872 139.537C275.845 139.656 275.831 139.774 275.831 139.892C275.831 140.003 275.855 140.101 275.903 140.184C275.959 140.268 275.987 140.362 275.987 140.466C275.987 140.522 275.973 140.567 275.945 140.602C275.924 140.637 275.897 140.671 275.862 140.706C275.834 140.741 275.806 140.779 275.779 140.821C275.758 140.856 275.748 140.901 275.748 140.957C275.748 141.061 275.772 141.169 275.82 141.28C275.876 141.385 275.945 141.482 276.028 141.572C276.111 141.656 276.205 141.726 276.309 141.781C276.413 141.83 276.517 141.854 276.621 141.854C276.711 141.854 276.787 141.837 276.849 141.802C276.919 141.76 276.991 141.739 277.068 141.739C277.165 141.739 277.251 141.781 277.327 141.865C277.411 141.941 277.48 142.035 277.535 142.146C277.598 142.258 277.643 142.373 277.67 142.491C277.705 142.609 277.722 142.707 277.722 142.783ZM275.477 138.848C275.477 138.779 275.453 138.713 275.405 138.65C275.363 138.581 275.304 138.546 275.228 138.546C275.152 138.546 275.1 138.584 275.072 138.661C275.044 138.73 275.03 138.796 275.03 138.859C275.03 138.935 275.044 139.008 275.072 139.078C275.1 139.148 275.155 139.182 275.238 139.182C275.308 139.182 275.36 139.162 275.394 139.12C275.436 139.071 275.464 138.988 275.477 138.869V138.848ZM275.654 140.852C275.654 140.804 275.633 140.765 275.592 140.738C275.557 140.703 275.519 140.675 275.477 140.654C275.464 140.696 275.439 140.738 275.405 140.779C275.37 140.821 275.335 140.866 275.301 140.915C275.266 140.964 275.231 141.012 275.197 141.061C275.169 141.11 275.155 141.158 275.155 141.207C275.155 141.263 275.172 141.305 275.207 141.332C275.242 141.36 275.283 141.385 275.332 141.405C275.339 141.364 275.36 141.322 275.394 141.28C275.436 141.238 275.474 141.193 275.509 141.145C275.543 141.096 275.574 141.051 275.602 141.009C275.637 140.96 275.654 140.908 275.654 140.852ZM268.742 138.608C268.742 138.56 268.732 138.501 268.711 138.431C268.697 138.361 268.673 138.295 268.639 138.233C268.611 138.163 268.573 138.107 268.524 138.066C268.483 138.017 268.431 137.993 268.368 137.993C268.292 137.993 268.226 138.017 268.171 138.066C268.115 138.107 268.046 138.128 267.963 138.128H267.921C267.901 138.205 267.89 138.278 267.89 138.347L267.901 138.41L267.911 138.379C267.932 138.455 267.973 138.514 268.036 138.556C268.098 138.598 268.164 138.636 268.233 138.671C268.309 138.699 268.386 138.727 268.462 138.754C268.538 138.782 268.604 138.821 268.659 138.869C268.715 138.807 268.742 138.72 268.742 138.608Z" fill="black"/>
<path d="M290.859 133.536C290.859 133.62 290.839 133.71 290.797 133.807C290.756 133.898 290.7 133.985 290.631 134.068C290.568 134.145 290.496 134.214 290.413 134.277C290.329 134.34 290.25 134.385 290.174 134.413C290.049 134.455 289.893 134.482 289.706 134.496C289.526 134.51 289.349 134.535 289.176 134.569C289.009 134.604 288.864 134.667 288.739 134.757C288.621 134.841 288.563 134.976 288.563 135.164C288.563 135.276 288.556 135.349 288.542 135.383C288.528 135.411 288.493 135.425 288.438 135.425C288.424 135.425 288.403 135.425 288.375 135.425C288.355 135.418 288.33 135.415 288.303 135.415L288.209 135.467C288.112 135.703 288.053 135.95 288.033 136.208C288.019 136.465 287.977 136.716 287.908 136.959C287.776 136.966 287.669 137.029 287.586 137.147C287.509 137.266 287.447 137.405 287.399 137.565C287.357 137.718 287.319 137.874 287.284 138.034C287.256 138.194 287.225 138.32 287.191 138.41C286.976 138.932 286.754 139.443 286.525 139.944C286.304 140.445 286.065 140.946 285.808 141.447C285.788 141.489 285.763 141.559 285.736 141.656C285.708 141.746 285.677 141.84 285.642 141.938C285.607 142.028 285.566 142.108 285.517 142.178C285.476 142.247 285.424 142.282 285.361 142.282C285.278 142.247 285.199 142.206 285.122 142.157C285.046 142.101 284.966 142.07 284.883 142.063C284.856 142.07 284.842 142.087 284.842 142.115C284.842 142.192 284.876 142.254 284.946 142.303C285.022 142.352 285.102 142.4 285.185 142.449C285.275 142.498 285.354 142.547 285.424 142.595C285.5 142.644 285.538 142.703 285.538 142.773C285.538 142.835 285.514 142.901 285.465 142.971C285.424 143.041 285.375 143.114 285.32 143.19C285.264 143.274 285.212 143.361 285.164 143.451C285.115 143.542 285.088 143.642 285.081 143.754C285.067 143.893 285.025 144.018 284.956 144.129C284.894 144.241 284.821 144.349 284.738 144.453C284.662 144.564 284.589 144.679 284.52 144.797C284.457 144.923 284.416 145.062 284.395 145.215C284.381 145.333 284.353 145.451 284.312 145.57C284.277 145.695 284.229 145.81 284.166 145.914C284.104 146.019 284.028 146.109 283.938 146.186C283.847 146.262 283.74 146.311 283.615 146.332C283.581 146.54 283.494 146.746 283.356 146.947C283.224 147.149 283.061 147.327 282.867 147.48C282.673 147.64 282.465 147.765 282.243 147.855C282.022 147.953 281.803 148.002 281.589 148.002C281.415 148.002 281.246 147.977 281.079 147.929C280.92 147.88 280.764 147.817 280.612 147.741C280.508 147.692 280.425 147.664 280.362 147.657C280.3 147.65 280.244 147.643 280.196 147.636C280.154 147.629 280.106 147.608 280.05 147.574C280.002 147.539 279.936 147.469 279.853 147.365C279.728 147.198 279.593 147.041 279.448 146.895C279.309 146.756 279.167 146.617 279.021 146.478C278.945 146.408 278.89 146.325 278.855 146.227C278.821 146.13 278.789 146.032 278.762 145.935C278.734 145.838 278.696 145.744 278.647 145.653C278.606 145.563 278.533 145.49 278.429 145.434C278.394 145.399 278.377 145.337 278.377 145.246C278.377 145.184 278.401 145.055 278.45 144.86C278.498 144.665 278.561 144.463 278.637 144.255C278.713 144.053 278.796 143.869 278.886 143.702C278.983 143.542 279.073 143.462 279.157 143.462C279.212 143.462 279.264 143.468 279.312 143.482C279.361 143.503 279.413 143.514 279.468 143.514C279.607 143.514 279.742 143.479 279.874 143.409C280.005 143.34 280.144 143.305 280.289 143.305C280.38 143.305 280.445 143.329 280.487 143.378C280.535 143.427 280.57 143.482 280.591 143.545C280.612 143.608 280.629 143.663 280.643 143.712C280.664 143.761 280.698 143.785 280.747 143.785C280.781 143.778 280.813 143.768 280.84 143.754C280.91 143.726 280.965 143.712 281.007 143.712C281.097 143.712 281.18 143.733 281.256 143.775C281.332 143.823 281.402 143.882 281.464 143.952C281.526 144.022 281.582 144.095 281.63 144.171C281.686 144.255 281.734 144.331 281.776 144.401C281.797 144.436 281.828 144.47 281.869 144.505C281.911 144.547 281.952 144.589 281.994 144.63C282.036 144.672 282.07 144.71 282.098 144.745C282.126 144.787 282.139 144.829 282.139 144.871C282.139 144.947 282.119 145.017 282.077 145.079C282.042 145.142 282.025 145.204 282.025 145.267C282.025 145.337 282.053 145.385 282.108 145.413C282.171 145.441 282.23 145.455 282.285 145.455C282.417 145.455 282.545 145.399 282.67 145.288C282.801 145.184 282.926 145.044 283.044 144.871C283.161 144.697 283.269 144.502 283.366 144.286C283.47 144.077 283.56 143.865 283.636 143.649C283.712 143.441 283.771 143.242 283.813 143.054C283.854 142.874 283.875 142.727 283.875 142.616C283.875 142.498 283.847 142.334 283.792 142.126C283.737 141.917 283.664 141.687 283.574 141.437C283.484 141.186 283.383 140.922 283.272 140.644C283.161 140.365 283.051 140.097 282.94 139.84C282.836 139.582 282.739 139.346 282.649 139.13C282.559 138.908 282.486 138.727 282.43 138.588C282.32 138.323 282.219 138.052 282.129 137.773C282.046 137.495 281.949 137.224 281.838 136.959C281.776 136.813 281.686 136.646 281.568 136.458C281.457 136.264 281.343 136.065 281.225 135.863C281.114 135.655 281.014 135.453 280.923 135.258C280.84 135.056 280.799 134.879 280.799 134.726C280.743 134.726 280.681 134.715 280.612 134.695C280.549 134.667 280.487 134.639 280.425 134.611C280.362 134.576 280.3 134.548 280.238 134.528C280.182 134.5 280.13 134.486 280.082 134.486C279.936 134.486 279.787 134.507 279.635 134.548C279.482 134.583 279.33 134.601 279.177 134.601C279.094 134.601 278.997 134.594 278.886 134.58C278.776 134.559 278.668 134.531 278.564 134.496C278.467 134.455 278.381 134.399 278.304 134.329C278.235 134.26 278.2 134.173 278.2 134.068C278.2 133.992 278.211 133.905 278.232 133.807C278.252 133.71 278.28 133.62 278.315 133.536C278.356 133.446 278.405 133.373 278.46 133.317C278.516 133.254 278.578 133.223 278.647 133.223C278.751 133.223 278.852 133.258 278.949 133.327C279.046 133.39 279.15 133.421 279.261 133.421C279.42 133.421 279.576 133.414 279.728 133.4C279.888 133.386 280.047 133.38 280.206 133.38C280.345 133.38 280.48 133.341 280.612 133.265C280.75 133.188 280.878 133.119 280.996 133.056C281.128 132.986 281.315 132.945 281.557 132.931C281.807 132.91 282.056 132.899 282.306 132.899C282.396 132.899 282.538 132.896 282.732 132.889C282.926 132.875 283.12 132.882 283.314 132.91C283.515 132.938 283.688 133 283.834 133.098C283.986 133.188 284.062 133.334 284.062 133.536C284.062 133.71 284.024 133.856 283.948 133.974C283.879 134.086 283.789 134.183 283.678 134.267C283.574 134.35 283.456 134.427 283.324 134.496C283.2 134.559 283.082 134.628 282.971 134.705C282.867 134.775 282.777 134.858 282.701 134.955C282.631 135.053 282.597 135.175 282.597 135.321C282.597 135.55 282.663 135.797 282.794 136.062C282.926 136.319 283.071 136.577 283.231 136.834C283.39 137.085 283.539 137.325 283.678 137.554C283.816 137.784 283.896 137.982 283.917 138.149C283.924 138.24 283.948 138.368 283.989 138.535C284.031 138.702 284.087 138.869 284.156 139.036C284.232 139.196 284.319 139.339 284.416 139.464C284.52 139.582 284.63 139.642 284.748 139.642C284.831 139.642 284.904 139.607 284.966 139.537C285.029 139.468 285.084 139.384 285.133 139.287C285.181 139.189 285.219 139.092 285.247 138.995C285.282 138.89 285.309 138.807 285.33 138.744C285.393 138.549 285.448 138.354 285.497 138.16C285.552 137.965 285.639 137.784 285.756 137.617C285.853 137.492 285.93 137.363 285.985 137.231C286.04 137.092 286.099 136.949 286.162 136.803C286.231 136.629 286.3 136.493 286.37 136.396C286.446 136.298 286.512 136.201 286.567 136.104C286.622 136.006 286.668 135.888 286.702 135.749C286.744 135.61 286.765 135.408 286.765 135.143C286.765 134.983 286.73 134.865 286.661 134.788C286.591 134.712 286.505 134.653 286.401 134.611C286.304 134.569 286.196 134.535 286.079 134.507C285.961 134.479 285.85 134.437 285.746 134.381C285.649 134.319 285.566 134.228 285.497 134.11C285.427 133.992 285.393 133.825 285.393 133.609C285.393 133.428 285.448 133.286 285.559 133.181C285.67 133.07 285.805 132.99 285.964 132.941C286.131 132.885 286.311 132.851 286.505 132.837C286.699 132.823 286.879 132.816 287.045 132.816H287.409C287.714 132.816 288.012 132.795 288.303 132.753C288.601 132.712 288.899 132.691 289.197 132.691C289.287 132.691 289.418 132.715 289.592 132.764C289.765 132.812 289.938 132.868 290.111 132.931C290.284 132.993 290.43 133.056 290.548 133.119C290.672 133.174 290.731 133.213 290.724 133.233C290.724 133.226 290.745 133.254 290.787 133.317C290.835 133.38 290.859 133.453 290.859 133.536ZM282.285 145.737L282.129 145.726H282.067C281.949 145.726 281.855 145.754 281.786 145.81C281.717 145.872 281.682 145.966 281.682 146.092L281.693 146.175C281.755 146.161 281.821 146.147 281.89 146.133C281.959 146.126 282.022 146.112 282.077 146.092C282.139 146.071 282.188 146.039 282.223 145.998C282.264 145.956 282.285 145.897 282.285 145.82V145.737Z" fill="black"/>
<path fill-rule="evenodd" clip-rule="evenodd" d="M654.726 483.217C655.915 485.782 656.589 488.65 656.589 491.678C656.589 498.34 653.325 504.253 648.323 507.869H652.686C656.837 503.737 659.409 498.001 659.409 491.678C659.409 488.383 658.717 485.265 657.476 482.451L654.726 483.235V483.217ZM652.172 474.97C648.11 471.176 642.682 468.86 636.705 468.86C624.164 468.86 614 479.067 614 491.66C614 498.001 616.572 503.719 620.723 507.851H625.086C620.084 504.218 616.82 498.322 616.82 491.66C616.82 480.634 625.725 471.692 636.705 471.692C642.363 471.692 647.472 474.062 651.09 477.873L652.172 474.952V474.97Z" fill="black"/>
<path d="M646.585 503.755H626.931V480.599H646.585V503.755ZM629.077 501.6H644.439V482.754H629.077V501.6Z" fill="black"/>
<path fill-rule="evenodd" clip-rule="evenodd" d="M626.931 490.36C624.447 492.871 622.904 496.327 622.904 500.139C622.904 507.798 629.095 514.015 636.722 514.015C644.349 514.015 650.54 507.798 650.54 500.139C650.54 496.363 649.032 492.943 646.602 490.431V495.062C647.383 496.576 647.826 498.304 647.826 500.139C647.826 506.284 642.859 511.271 636.74 511.271C630.62 511.271 625.654 506.284 625.654 500.139C625.654 498.251 626.115 496.469 626.949 494.92V490.36H626.931Z" fill="black"/>
<path fill-rule="evenodd" clip-rule="evenodd" d="M634.451 456.998L632.128 456C631.312 458.155 630.868 460.506 630.868 462.947C630.868 473.83 639.648 482.647 650.486 482.647C653.732 482.647 656.801 481.846 659.515 480.438L658.256 478.23C655.932 479.423 653.289 480.1 650.504 480.1C641.067 480.1 633.422 472.423 633.422 462.947C633.422 460.863 633.795 458.85 634.469 457.015L634.451 456.998Z" fill="black"/>
<path d="M734.618 501.225H691.798L713.208 463.98L734.618 501.225ZM696.446 498.536H729.97L713.208 469.377L696.446 498.536Z" fill="black"/>
<path d="M729.066 494.706H697.333L713.191 467.115L729.048 494.706H729.066ZM699.745 493.317H726.672L713.208 469.894L699.745 493.317Z" fill="black"/>
<path fill-rule="evenodd" clip-rule="evenodd" d="M706.486 476.324H694.938H691.834L693.377 479.031L711.576 510.951L713.12 513.658L714.68 510.969L727.505 488.864L725.98 486.12L713.137 508.261L696.481 479.049H707.993L706.486 476.342V476.324Z" fill="black"/>
<path fill-rule="evenodd" clip-rule="evenodd" d="M735.256 482.113C735.256 486.174 731.975 489.469 727.931 489.469C727.274 489.469 726.636 489.38 726.033 489.22L727.771 492.159C727.771 492.159 727.877 492.159 727.948 492.159C733.465 492.159 737.952 487.67 737.952 482.113C737.952 476.555 733.482 472.067 727.948 472.067C724.117 472.067 720.8 474.222 719.115 477.41L720.853 480.349C721.634 477.143 724.525 474.756 727.966 474.756C732.01 474.756 735.292 478.052 735.292 482.113H735.256Z" fill="black"/>
<path d="M781.765 503.844C773.286 503.844 766.369 496.915 766.369 488.383C766.369 479.851 773.269 472.922 781.765 472.922C790.262 472.922 797.162 479.851 797.162 488.383C797.162 496.915 790.262 503.844 781.765 503.844ZM781.765 475.308C774.581 475.308 768.728 481.187 768.728 488.4C768.728 495.614 774.581 501.493 781.765 501.493C788.949 501.493 794.803 495.614 794.803 488.4C794.803 481.187 788.949 475.308 781.765 475.308Z" fill="black"/>
<path d="M788.718 502.472C783.255 502.472 778.129 500.335 774.262 496.452C770.395 492.569 768.267 487.421 768.267 481.935C768.267 476.449 770.395 471.301 774.262 467.418C778.129 463.535 783.255 461.397 788.718 461.397C794.182 461.397 799.308 463.535 803.175 467.418C807.042 471.301 809.17 476.449 809.17 481.935C809.17 487.421 807.042 492.569 803.175 496.452C799.308 500.335 794.182 502.472 788.718 502.472ZM788.718 463.784C783.894 463.784 779.353 465.672 775.929 469.11C772.506 472.548 770.626 477.108 770.626 481.953C770.626 486.798 772.506 491.357 775.929 494.795C779.353 498.233 783.894 500.121 788.718 500.121C793.543 500.121 798.084 498.233 801.508 494.795C804.931 491.357 806.811 486.798 806.811 481.953C806.811 477.108 804.931 472.548 801.508 469.11C798.084 465.672 793.543 463.784 788.718 463.784Z" fill="black"/>
<path d="M788.612 515.333L793.348 510.826L788.86 506.07L784.124 510.577L788.612 515.333ZM788.842 477.339L787.938 510.684L789.534 510.719L790.439 477.375L788.842 477.339Z" fill="black"/>
</svg>
