<svg width="163" height="63" viewBox="0 0 163 63" fill="none" xmlns="http://www.w3.org/2000/svg">
<rect x="0.146484" y="0.994629" width="161.905" height="61.4598" fill="#57EB23"/>
<path d="M33.6495 23.044C34.8015 23.044 35.7775 23.196 36.5775 23.5C37.3775 23.796 38.1175 24.224 38.7975 24.784L37.1295 26.764C36.6575 26.364 36.1375 26.06 35.5695 25.852C35.0095 25.644 34.4095 25.54 33.7695 25.54C33.0015 25.54 32.2935 25.744 31.6455 26.152C31.0055 26.56 30.4895 27.216 30.0975 28.12C29.7135 29.016 29.5215 30.2 29.5215 31.672C29.5215 33.12 29.7055 34.292 30.0735 35.188C30.4495 36.084 30.9575 36.74 31.5975 37.156C32.2455 37.564 32.9775 37.768 33.7935 37.768C34.6575 37.768 35.3735 37.616 35.9415 37.312C36.5095 37.008 37.0215 36.676 37.4775 36.316L39.0255 38.272C38.4415 38.848 37.7095 39.34 36.8295 39.748C35.9575 40.156 34.8975 40.36 33.6495 40.36C32.2015 40.36 30.9095 40.028 29.7735 39.364C28.6375 38.7 27.7455 37.724 27.0975 36.436C26.4495 35.148 26.1255 33.56 26.1255 31.672C26.1255 29.816 26.4575 28.248 27.1215 26.968C27.7935 25.68 28.6975 24.704 29.8335 24.04C30.9775 23.376 32.2495 23.044 33.6495 23.044ZM41.1801 40V37.804H42.9681V29.476H41.1801V27.292H45.3801L45.9681 30.208C46.4321 29.128 47.0161 28.316 47.7201 27.772C48.4241 27.22 49.3081 26.944 50.3721 26.944C50.7801 26.944 51.1401 26.976 51.4521 27.04C51.7721 27.104 52.0761 27.188 52.3641 27.292L51.4161 29.956C51.1681 29.892 50.9321 29.844 50.7081 29.812C50.4841 29.772 50.2321 29.752 49.9521 29.752C49.0721 29.752 48.3041 30.096 47.6481 30.784C47.0001 31.464 46.4961 32.388 46.1361 33.556V37.804H48.6681V40H41.1801ZM49.6881 32.248V28.876L50.1201 27.292H52.3641L51.8001 32.248H49.6881ZM57.8307 34.612C57.8947 35.404 58.0747 36.048 58.3707 36.544C58.6747 37.04 59.0627 37.404 59.5347 37.636C60.0067 37.868 60.5307 37.984 61.1068 37.984C61.7147 37.984 62.2867 37.888 62.8228 37.696C63.3587 37.504 63.8867 37.236 64.4067 36.892L65.7267 38.704C65.1347 39.2 64.4267 39.6 63.6028 39.904C62.7868 40.208 61.8867 40.36 60.9027 40.36C59.5267 40.36 58.3667 40.076 57.4227 39.508C56.4867 38.94 55.7787 38.152 55.2987 37.144C54.8187 36.136 54.5787 34.976 54.5787 33.664C54.5787 32.4 54.8147 31.26 55.2867 30.244C55.7587 29.228 56.4387 28.424 57.3267 27.832C58.2147 27.232 59.2867 26.932 60.5428 26.932C61.7107 26.932 62.7187 27.188 63.5667 27.7C64.4147 28.212 65.0707 28.948 65.5347 29.908C65.9988 30.86 66.2308 32.008 66.2308 33.352C66.2308 33.568 66.2228 33.788 66.2068 34.012C66.1988 34.236 66.1868 34.436 66.1708 34.612H57.8307ZM60.5547 29.164C59.7867 29.164 59.1547 29.44 58.6587 29.992C58.1707 30.536 57.8827 31.4 57.7947 32.584H63.1468C63.1307 31.512 62.9067 30.676 62.4748 30.076C62.0508 29.468 61.4107 29.164 60.5547 29.164ZM62.4748 20.284L63.7588 22.744L58.3227 24.916L57.4347 23.284L62.4748 20.284ZM76.5694 21.88L79.7374 22.216V40H76.9294L76.7374 38.5C76.3454 39.06 75.8534 39.512 75.2614 39.856C74.6694 40.192 73.9814 40.36 73.1974 40.36C72.1254 40.36 71.2374 40.08 70.5334 39.52C69.8374 38.96 69.3174 38.176 68.9734 37.168C68.6374 36.152 68.4694 34.972 68.4694 33.628C68.4694 32.332 68.6694 31.18 69.0694 30.172C69.4694 29.164 70.0454 28.372 70.7974 27.796C71.5574 27.22 72.4574 26.932 73.4974 26.932C74.1214 26.932 74.6894 27.04 75.2014 27.256C75.7134 27.472 76.1694 27.792 76.5694 28.216V21.88ZM74.3494 29.296C73.5494 29.296 72.9174 29.644 72.4534 30.34C71.9974 31.028 71.7694 32.128 71.7694 33.64C71.7694 34.704 71.8654 35.556 72.0574 36.196C72.2494 36.828 72.5214 37.284 72.8734 37.564C73.2254 37.844 73.6414 37.984 74.1214 37.984C74.6494 37.984 75.1134 37.828 75.5134 37.516C75.9214 37.196 76.2734 36.8 76.5694 36.328V30.544C76.2734 30.152 75.9414 29.848 75.5734 29.632C75.2134 29.408 74.8054 29.296 74.3494 29.296ZM90.58 27.292V37.756H93.928V40H83.692V37.756H87.412V29.536H83.812V27.292H90.58ZM88.528 20.884C89.112 20.884 89.584 21.064 89.944 21.424C90.312 21.784 90.496 22.232 90.496 22.768C90.496 23.304 90.312 23.756 89.944 24.124C89.584 24.484 89.112 24.664 88.528 24.664C87.944 24.664 87.468 24.484 87.1 24.124C86.732 23.756 86.548 23.304 86.548 22.768C86.548 22.232 86.732 21.784 87.1 21.424C87.468 21.064 87.944 20.884 88.528 20.884ZM108.311 39.292C107.839 39.604 107.267 39.86 106.595 40.06C105.923 40.26 105.195 40.36 104.411 40.36C102.859 40.36 101.691 39.96 100.907 39.16C100.123 38.352 99.7306 37.28 99.7306 35.944V29.536H96.9706V27.292H99.7306V24.496L102.899 24.112V27.292H107.099L106.775 29.536H102.899V35.932C102.899 36.588 103.059 37.068 103.379 37.372C103.699 37.676 104.215 37.828 104.927 37.828C105.383 37.828 105.799 37.776 106.175 37.672C106.559 37.56 106.907 37.42 107.219 37.252L108.311 39.292ZM116.693 26.932C117.957 26.932 119.029 27.208 119.909 27.76C120.789 28.312 121.457 29.092 121.913 30.1C122.377 31.1 122.609 32.272 122.609 33.616C122.609 34.992 122.377 36.184 121.913 37.192C121.449 38.2 120.777 38.98 119.897 39.532C119.017 40.084 117.945 40.36 116.681 40.36C115.425 40.36 114.353 40.092 113.465 39.556C112.585 39.012 111.913 38.24 111.449 37.24C110.985 36.232 110.753 35.032 110.753 33.64C110.753 32.312 110.985 31.144 111.449 30.136C111.913 29.128 112.589 28.344 113.477 27.784C114.365 27.216 115.437 26.932 116.693 26.932ZM116.693 29.32C115.805 29.32 115.141 29.668 114.701 30.364C114.269 31.06 114.053 32.152 114.053 33.64C114.053 35.144 114.269 36.244 114.701 36.94C115.133 37.628 115.793 37.972 116.681 37.972C117.569 37.972 118.229 37.628 118.661 36.94C119.093 36.244 119.309 35.136 119.309 33.616C119.309 32.136 119.093 31.052 118.661 30.364C118.229 29.668 117.573 29.32 116.693 29.32ZM130.32 38.02C131.064 38.02 131.66 37.892 132.108 37.636C132.564 37.372 132.792 37.004 132.792 36.532C132.792 36.22 132.716 35.956 132.564 35.74C132.42 35.524 132.132 35.324 131.7 35.14C131.268 34.948 130.62 34.736 129.756 34.504C128.94 34.296 128.224 34.04 127.608 33.736C127 33.424 126.524 33.024 126.18 32.536C125.844 32.048 125.676 31.432 125.676 30.688C125.676 29.944 125.884 29.292 126.3 28.732C126.716 28.164 127.316 27.724 128.1 27.412C128.892 27.092 129.844 26.932 130.956 26.932C132.044 26.932 132.996 27.076 133.812 27.364C134.628 27.644 135.328 27.996 135.912 28.42L134.616 30.352C134.104 30.024 133.548 29.76 132.948 29.56C132.356 29.352 131.716 29.248 131.028 29.248C130.284 29.248 129.74 29.356 129.396 29.572C129.06 29.788 128.892 30.088 128.892 30.472C128.892 30.744 128.976 30.976 129.144 31.168C129.32 31.352 129.632 31.532 130.08 31.708C130.536 31.876 131.184 32.08 132.024 32.32C132.848 32.544 133.564 32.808 134.172 33.112C134.788 33.416 135.264 33.82 135.6 34.324C135.936 34.828 136.104 35.488 136.104 36.304C136.104 37.224 135.836 37.984 135.3 38.584C134.764 39.184 134.056 39.632 133.176 39.928C132.304 40.216 131.356 40.36 130.332 40.36C129.132 40.36 128.084 40.188 127.188 39.844C126.292 39.5 125.532 39.056 124.908 38.512L126.552 36.664C127.048 37.056 127.612 37.38 128.244 37.636C128.884 37.892 129.576 38.02 130.32 38.02Z" fill="black"/>
</svg>
