<svg width="775" height="140" viewBox="0 0 775 140" fill="none" xmlns="http://www.w3.org/2000/svg">
<path d="M21.5093 3H752.569C762.514 3 771.078 12.0156 771.078 23.7876V116.212C771.078 127.984 762.514 137 752.569 137H21.5093C11.5639 137 3 127.984 3 116.212V23.7876C3 12.0156 11.5639 3 21.5093 3Z" fill="#2B3C12" fill-opacity="0.76" stroke="#57EB23" stroke-width="6"/>
<path d="M85.0474 1V135M183.94 1V135M283.311 1V135M382.203 1V135M481.574 1V135M580.467 1V135M675.538 1V135" stroke="#57EB23" stroke-width="0.2"/>
<path d="M773.989 35.7852L0.0615717 35.9179M773.995 72.3935L0.0673115 72.5262M774 107.587L0.0728295 107.72" stroke="#57EB23" stroke-width="0.2"/>
<path d="M26.7161 43.7885L29.6065 53.7039C29.6065 53.7039 28.2725 49.557 25.6362 54.3158C23 59.0747 32.4968 71.4689 32.4968 71.4689L35.8 83.0369L40.7549 88.4077L36.7529 90.337L36.2129 94.1917L23 97.91C45.7097 122.698 63.8774 123.525 87 99.3423L72.7707 95.9117L69.6581 90.337L67.4347 92.4811L68.8323 87.1683L74.2 80.9712L77.0903 71.8821C77.0903 71.8821 87.8258 61.1404 84.332 53.4579C83.5201 51.6726 80.3936 54.117 80.3936 54.117L83.4427 42.7376C83.4427 35.8763 79.2265 30.3752 76.328 27.2998C60.5655 10.5756 36.7529 24.2981 36.7529 24.2981C36.7529 24.2981 28.9395 28.7796 26.7161 43.7885Z" stroke="#57EB23" stroke-width="3"/>
<g style="mix-blend-mode:luminosity">
<path d="M45.4686 99.1775L42.374 85.5612L68.3687 84.6328L65.8931 99.1775H45.4686Z" fill="#E7D5BF" stroke="black"/>
<path d="M26.5918 99.1773L38.9702 95.1543L55.3717 102.581L71.1542 96.0827L86.0083 99.1773C76.7245 111.246 52.5865 131.671 26.5918 99.1773Z" fill="#124D1E" stroke="black" stroke-width="0.6"/>
<path d="M52.14 102.835L51.1184 98.749H55.4294H59.7783L59.0124 102.834L55.4368 104.209L52.14 102.835Z" fill="#18341F" stroke="black"/>
<path d="M42.993 89.8936H39.8984L43.9214 92.6787L42.993 89.8936Z" fill="#091B0D" stroke="black" stroke-width="0.6"/>
<path d="M53.2052 99.487L43.3025 92.3694L39.5889 90.2031L38.3511 94.5356L53.2052 104.748V99.487Z" fill="#02310C" stroke="black"/>
<path d="M67.4401 90.5122H70.5347L66.5117 93.2974L67.4401 90.5122Z" fill="#091B0D" stroke="black" stroke-width="0.6"/>
<path d="M57.2284 99.796L67.1311 92.6784L70.8447 90.5122L72.0825 94.8447L57.2284 105.057V99.796Z" fill="#02310C" stroke="black"/>
<path d="M36.7913 80.6578L30.406 53.3932C30.319 53.0197 30.2789 52.6365 30.2872 52.2534C30.58 38.3805 43.1987 27.6407 56.9361 28.6224C69.8987 29.5495 80.382 40.6656 79.7577 53.73C79.7397 54.0913 79.6803 54.4499 79.5781 54.7989C77.2812 62.6509 74.9856 70.503 72.6887 78.355C72.5008 78.9985 72.1707 79.5984 71.7232 80.1138L62.8628 90.3068C61.9084 91.4044 60.4858 92.0411 58.9858 92.0411H52.1571C51.0466 92.0411 49.9679 91.6921 49.0895 91.0499L38.6297 83.4011C37.6973 82.7193 37.0468 81.7486 36.7927 80.6592L36.7913 80.6578Z" fill="#FFE8D4"/>
<path d="M50.4206 48.1538C46.085 48.1102 41.7494 48.0666 37.4138 48.0229L34.168 50.5535L51.3833 49.9958L50.4206 48.1538Z" fill="#460000"/>
<path d="M60.2483 48.1538C64.5839 48.1102 68.9195 48.0666 73.2551 48.0229L76.5009 50.5535L59.2856 49.9958L60.2483 48.1538Z" fill="#460000"/>
<path opacity="0.82" d="M50.7431 56.9041C51.0166 56.6996 51.3936 56.3464 51.3853 55.9169C51.3757 55.4425 50.9019 55.133 50.3356 54.6939C49.7928 54.274 49.0691 53.6618 48.2611 52.811H41.1065L35.3979 55.9169C37.275 56.8509 39.1534 57.7862 41.0305 58.7202C42.3564 58.3057 43.8564 57.9089 45.5166 57.5858C47.4254 57.2136 49.1851 57.0091 50.7431 56.9041Z" fill="white"/>
<path d="M41.1641 52.8096C40.8409 54.9543 42.6019 56.7554 44.4748 56.7581C46.3491 56.7594 48.1156 54.957 47.7924 52.8096H41.1641Z" fill="#42210B"/>
<path opacity="0.82" d="M59.6507 57.1018C59.38 56.9123 59.0001 56.5824 58.9808 56.1515C58.9587 55.677 59.3841 55.3416 59.891 54.8712C60.3744 54.4227 61.0181 53.7709 61.7239 52.8765C63.9738 52.7429 66.2238 52.6107 68.4724 52.4771L74.0608 55.2585C72.3508 56.296 70.6409 57.3336 68.931 58.3698C67.6506 58.0031 66.1644 57.6622 64.4987 57.425C62.6962 57.1686 61.0609 57.0896 59.6479 57.0991L59.6507 57.1018Z" fill="white"/>
<path d="M68.9794 52.4486C69.4421 54.5701 67.8026 56.4721 65.9352 56.5839C64.0651 56.6971 62.1825 55.001 62.3648 52.8386C64.5692 52.7077 66.775 52.5782 68.9794 52.4473V52.4486Z" fill="#42210B"/>
<path opacity="0.35" d="M34.0044 68.7704L49.0457 91.0203L38.3345 83.186C37.5914 82.642 37.072 81.8689 36.869 80.999L34.0044 68.769V68.7704Z" fill="#C59B6D"/>
<path opacity="0.35" d="M76.3699 65.7568L62.457 90.769L72.3989 79.3312L76.3699 65.7568Z" fill="#C59B6D"/>
<path d="M36.7417 82.2556L30.3888 54.876C30.3022 54.5008 30.2623 54.1161 30.2706 53.7313C30.5619 39.7998 43.1166 29.0147 56.7843 30.0006C69.6811 30.9316 80.1112 42.0946 79.4901 55.2142C79.4722 55.577 79.4132 55.9371 79.3115 56.2876C77.0262 64.1727 74.7423 72.0579 72.457 79.9431C72.2701 80.5893 71.9417 81.1918 71.4964 81.7093L62.681 91.9454C61.7314 93.0476 60.316 93.687 58.8236 93.687H52.0296C50.9247 93.687 49.8515 93.3364 48.9775 92.6916L38.5707 85.0104C37.6431 84.3258 36.9959 83.351 36.743 82.257L36.7417 82.2556Z" fill="#FFE8D4"/>
<path d="M58.7952 93.687H52.0501C50.9205 93.687 49.8059 93.322 48.9109 92.6615L38.5791 85.0201C37.6268 84.316 36.9597 83.3082 36.6991 82.1833L30.392 54.9501C30.3033 54.5647 30.2624 54.167 30.2706 53.7707C30.4097 47.1016 33.463 40.6818 38.6487 36.1591C43.6761 31.7752 50.2834 29.5295 56.7842 29.9993C69.9182 30.9486 80.104 42.2793 79.4901 55.2565C79.4724 55.631 79.411 56.0028 79.3073 56.3623L72.5022 79.8899C72.3085 80.5599 71.9756 81.1728 71.5145 81.7094L62.7612 91.892C61.7816 93.0319 60.3355 93.687 58.7952 93.687ZM55.0788 30.2799C49.2301 30.2799 43.4101 32.467 38.8874 36.4124C33.7741 40.8725 30.7631 47.2011 30.6253 53.7775C30.6171 54.1466 30.6553 54.517 30.7385 54.8765L37.0456 82.1084C37.2885 83.1557 37.9092 84.094 38.796 84.749L49.1278 92.3905C49.96 93.006 50.9982 93.3451 52.0501 93.3451H58.7952C60.229 93.3451 61.5742 92.7364 62.4869 91.6755L71.2402 81.4942C71.67 80.9944 71.9797 80.4238 72.1598 79.8L78.9649 56.2711C79.0617 55.9374 79.119 55.5901 79.1354 55.2415C79.7398 42.4468 69.7013 31.2768 56.7583 30.3412C56.2003 30.3003 55.6396 30.2812 55.0816 30.2812L55.0788 30.2799Z" fill="black"/>
<path d="M50.3307 48.1197C45.9951 48.076 41.6595 48.0324 37.3239 47.9888L34.0781 50.5193L51.2934 49.9617L50.3307 48.1197Z" fill="#460000"/>
<path d="M33.5532 50.707L37.2604 47.8179L50.4439 47.9501L51.5807 50.1234L33.5546 50.707H33.5532ZM37.3874 48.1601L34.6029 50.3307L51.0075 49.8003L50.2174 48.2896L37.3861 48.1601H37.3874Z" fill="black"/>
<path d="M60.1575 48.1197C64.4931 48.076 68.8287 48.0324 73.1643 47.9888L76.4101 50.5193L59.1948 49.9617L60.1575 48.1197Z" fill="#460000"/>
<path d="M76.9352 50.707L58.9092 50.1234L60.0459 47.9501L73.2295 47.8179L76.9366 50.707H76.9352ZM59.481 49.8003L75.8855 50.3307L73.101 48.1601L60.2697 48.2896L59.4796 49.8003H59.481Z" fill="black"/>
<path d="M50.6075 56.8173C51.3782 55.8519 50.852 55.6379 49.9487 55.0871C49.1172 54.5458 48.3479 53.9091 47.6932 53.1837L48.1683 53.3841C45.7899 53.1837 43.4087 52.7515 41.0137 53.1551L41.2126 53.1046C39.4585 54.3617 37.6021 55.4934 35.6864 56.5132L35.6615 55.2384C36.5897 55.7279 37.4944 56.2569 38.3825 56.8118C39.2679 57.3749 40.1449 57.9544 40.9709 58.6252L40.9046 58.7465C38.83 58.2011 36.877 57.4104 34.9502 56.5268L33.7251 55.9515C35.9751 54.6085 38.3632 53.4182 40.8162 52.4488L40.9557 52.3916C41.5717 52.4625 42.1877 52.5252 42.8037 52.5524C44.6974 52.697 46.5565 52.2089 48.4349 52.1611L48.6448 52.3697C49.2981 53.0187 49.9376 53.6732 50.6241 54.2976C51.2346 54.8185 52.0757 55.6938 51.3506 56.4791C51.16 56.6905 50.9307 56.8241 50.6973 56.925L50.6075 56.8173Z" fill="black"/>
<path opacity="0.82" d="M50.6518 56.8713C50.9253 56.6668 51.3023 56.3137 51.294 55.8842C51.2844 55.4097 50.8106 55.1002 50.2443 54.6612C49.7015 54.2413 48.9778 53.6291 48.1698 52.7783H41.0151L35.3066 55.8842C37.1837 56.8182 39.0621 57.7535 40.9392 58.6874C42.2651 58.273 43.7651 57.8762 45.4253 57.5531C47.3341 57.1808 49.0938 56.9763 50.6518 56.8713Z" fill="white"/>
<path d="M41.0737 52.7764C40.7505 54.921 42.5115 56.7221 44.3845 56.7249C46.2587 56.7262 48.0253 54.9238 47.7021 52.7764H41.0737Z" fill="#42210B"/>
<path d="M44.3861 56.8957H44.3834C43.4345 56.8957 42.4953 56.4635 41.8102 55.7122C41.0685 54.8996 40.7342 53.8198 40.8958 52.7522L40.9179 52.605H47.8585L47.8806 52.7522C48.0422 53.8212 47.7065 54.901 46.9621 55.7136C46.2742 56.4649 45.3364 56.8957 44.3861 56.8957ZM41.2329 52.9472C41.1362 53.8675 41.4414 54.7865 42.0823 55.4873C42.6997 56.1635 43.5381 56.5521 44.3834 56.5535H44.3861C45.2314 56.5535 46.0712 56.1663 46.69 55.49C47.3322 54.7892 47.6375 53.8689 47.5422 52.9472H41.2342H41.2329Z" fill="black"/>
<path d="M59.5546 57.1232C58.0022 56.5205 58.487 55.3834 59.4552 54.4972C60.0988 53.8332 60.6941 53.1433 61.3046 52.4561L61.5007 52.2353C62.7839 52.1725 64.0767 52.373 65.3612 52.3866C66.5794 52.3961 67.7838 52.2393 68.9813 52.0239C71.1084 52.7179 73.1829 53.5605 75.1871 54.5231L76.4301 55.1489C75.1429 55.8593 73.7658 56.5996 72.4205 57.1954C71.455 57.6249 70.4799 58.038 69.4482 58.3639L69.3736 58.2466C70.9371 56.8423 72.6595 55.6629 74.4509 54.5531L74.5089 55.8265C72.531 54.9212 70.6028 53.9014 68.77 52.7506L68.9716 52.7888C66.5545 52.5284 64.2065 53.0983 61.846 53.4392L62.3074 53.2101C61.7024 53.9736 60.9759 54.654 60.1817 55.243C59.3198 55.8429 58.8019 56.0924 59.6375 57.0086L59.556 57.1204L59.5546 57.1232Z" fill="black"/>
<path opacity="0.82" d="M59.5594 57.0691C59.2887 56.8796 58.9088 56.5496 58.8895 56.1188C58.8674 55.6443 59.2928 55.3089 59.7997 54.8385C60.2831 54.39 60.9268 53.7382 61.6326 52.8438C63.8825 52.7102 66.1325 52.578 68.3811 52.4443L73.9695 55.2257C72.2595 56.2633 70.5496 57.3009 68.8397 58.3371C67.5593 57.9703 66.0731 57.6295 64.4074 57.3922C62.6049 57.1359 60.9696 57.0568 59.5566 57.0664L59.5594 57.0691Z" fill="white"/>
<path d="M68.8866 52.4159C69.3493 54.5374 67.7098 56.4394 65.8424 56.5512C63.9723 56.6644 62.0897 54.9683 62.272 52.8059C64.4764 52.675 66.6822 52.5454 68.8866 52.4146V52.4159Z" fill="#42210B"/>
<path d="M65.664 56.728C64.7773 56.728 63.8892 56.3585 63.2027 55.6958C62.4058 54.9282 62.0011 53.8702 62.0922 52.7931L62.1047 52.6458L69.0314 52.2368L69.0632 52.3813C69.2938 53.4366 69.0314 54.5342 68.3436 55.3891C67.7082 56.1799 66.8008 56.6652 65.8533 56.7225C65.7897 56.7266 65.7262 56.728 65.664 56.728ZM62.4431 52.9676C62.4072 53.8934 62.7732 54.7933 63.461 55.4559C64.124 56.0953 64.99 56.4321 65.8325 56.3817C66.6764 56.3312 67.4872 55.8935 68.059 55.1818C68.6516 54.4442 68.896 53.5089 68.74 52.5954L62.4431 52.9676Z" fill="black"/>
<path d="M53.3514 54.392C53.8059 55.9722 53.8501 57.6247 53.6774 59.2444C53.6263 61.9386 53.2617 64.7309 51.9716 67.1633L51.9385 67.151C52.7161 64.0206 53.8197 60.8683 53.4827 57.6247L53.3169 54.3961L53.3528 54.3906L53.3514 54.392Z" fill="black"/>
<path d="M54.2747 72.5535C53.6504 72.5535 53.1144 72.2113 52.9225 72.0885C51.9584 71.4709 51.5205 70.631 51.5026 70.5956C50.9625 69.6834 50.2982 69.1558 49.765 68.7318C49.1849 68.2709 48.7264 67.9055 48.8065 67.292C48.87 66.8066 49.2678 66.3553 49.9874 65.9545L50.1697 66.249C49.5523 66.5939 49.2126 66.9593 49.1642 67.3342C49.1103 67.7433 49.4128 68.0051 49.9971 68.4686C50.5523 68.9104 51.2443 69.4598 51.823 70.4361C51.8313 70.4524 52.2443 71.2391 53.1241 71.8036C53.3327 71.9372 53.8879 72.2944 54.4832 72.1935C55.1061 72.0885 55.9003 71.2105 56.4818 70.5697C56.7346 70.2902 56.9542 70.0488 57.142 69.8811C57.8478 69.2499 58.4652 68.9145 58.9624 68.6431C59.7207 68.2314 60.0343 68.0596 59.8616 67.2906C59.7511 66.7943 59.1517 66.3526 58.0812 65.9776L58.2056 65.6572C59.4169 66.0813 60.0729 66.5925 60.2138 67.2197C60.4403 68.2341 59.9238 68.515 59.142 68.9404C58.6627 69.2008 58.0647 69.5267 57.3906 70.1293C57.2166 70.2847 56.9929 70.5315 56.7567 70.7919C56.1061 71.5091 55.2967 72.4035 54.5481 72.5289C54.457 72.5439 54.3658 72.5507 54.2774 72.5507L54.2747 72.5535Z" fill="black"/>
<path opacity="0.35" d="M33.9175 70.1693L48.9588 92.4192L38.2475 84.5849C37.5045 84.0409 36.9851 83.2678 36.7821 82.398L33.9175 70.168V70.1693Z" fill="#C59B6D"/>
<path opacity="0.35" d="M75.7962 67.6924L61.8848 92.7046L71.8266 81.2667L75.7962 67.6924Z" fill="#C59B6D"/>
<path d="M55.0102 57.9497C55.2049 59.1182 55.2422 60.2689 55.3279 61.4387C55.6966 63.3571 56.5046 65.1432 57.0557 67.0275L57.0226 67.0411C55.8707 65.3722 55.4826 63.398 55.2118 61.4551C54.9453 60.3371 54.7008 59.0323 55.0102 57.9497Z" fill="black"/>
<path d="M30.8586 55.3775C29.3296 53.0283 26.7329 53.5028 26.5589 53.7591C26.3918 54.0059 26.3089 54.2936 26.2992 54.5867C26.2357 56.4914 26.3766 58.9279 27.1128 61.6493C28.6749 67.418 32.6804 69.9594 34.6141 71.8532C33.661 66.3259 32.0022 60.7058 30.8586 55.3789V55.3775Z" fill="#FFE5D1"/>
<path d="M30.7663 55.3433C29.2373 52.9941 26.6407 53.4686 26.4666 53.7249C26.2995 53.9717 26.2166 54.2594 26.207 54.5525C26.1434 56.4572 26.2843 58.8937 27.0205 61.6151C28.5826 67.3838 32.5881 69.9252 34.5218 71.8191C33.5688 66.2917 31.9099 60.6716 30.7663 55.3447V55.3433Z" fill="#FFE5D1"/>
<path d="M34.7927 72.3296L34.3922 71.9383C34.051 71.6042 33.6366 71.2415 33.196 70.8584C31.0635 68.9973 28.1436 66.4504 26.8467 61.658C26.2224 59.3497 25.9461 56.9582 26.0276 54.5476C26.0387 54.2109 26.1381 53.8946 26.3163 53.6328C26.453 53.431 27.0152 53.3287 27.5165 53.3342C28.1685 53.3396 29.8038 53.5387 30.9212 55.2525L30.9447 55.3084C31.395 57.404 31.935 59.5924 32.4599 61.7098C33.2775 65.0161 34.1228 68.4329 34.7016 71.791L34.7941 72.3296H34.7927ZM27.4806 53.6764C27.0041 53.6764 26.6712 53.7746 26.6077 53.8291C26.4751 54.0268 26.395 54.2831 26.3867 54.5586C26.3066 56.9364 26.5787 59.2965 27.1947 61.5734C28.4654 66.2664 31.3397 68.7751 33.4391 70.6062C33.7237 70.8543 33.9985 71.0943 34.2513 71.3247C33.6781 68.1465 32.8797 64.9179 32.1063 61.7888C31.5842 59.6796 31.0455 57.4995 30.5952 55.408C29.79 54.1891 28.721 53.8114 27.9641 53.7091C27.7914 53.686 27.6284 53.6764 27.4806 53.6764Z" fill="black"/>
<path d="M32.4389 68.0483C29.1406 65.0078 28.095 62.5005 27.4555 60.2454C26.979 58.5629 26.4293 55.1434 27.3174 54.8652C27.8657 54.6962 28.6447 55.6588 29.8878 57.5035C30.3629 58.2084 30.693 58.8219 30.9126 59.2269C31.3215 59.9849 31.693 60.773 32.0176 61.5692L31.682 61.692C31.3615 60.9066 30.9955 60.1295 30.5922 59.3823C30.3767 58.9814 30.0494 58.3774 29.5839 57.6862C29.1475 57.0386 27.827 55.0698 27.4293 55.1884C27.0715 55.3002 27.0978 57.6685 27.8022 60.1554C28.4279 62.3641 29.4527 64.8197 32.6875 67.8029L32.4361 68.0483H32.4389Z" fill="black"/>
<path d="M28.0222 59.1233C27.8385 58.4498 27.8109 57.768 27.9407 57.1C28.0278 56.65 28.1714 56.0651 28.3164 55.772L28.6438 55.9151C28.5139 56.1796 28.3758 56.7523 28.2957 57.1613C28.1755 57.7803 28.2018 58.4116 28.3717 59.0374L28.0222 59.1233Z" fill="black"/>
<path d="M32.4751 64.7623C32.4571 64.7528 30.7099 63.6429 30.6188 61.8623C30.5801 61.0961 30.8688 60.6693 31.0607 60.3884L31.1201 60.2998L31.4268 60.4798L31.3632 60.5739C31.1864 60.8343 30.9447 61.1901 30.9779 61.8459C31.0594 63.4357 32.6353 64.4569 32.6519 64.4651L32.4737 64.7623H32.4751Z" fill="black"/>
<path opacity="0.35" d="M32.5378 68.1464C30.6055 66.4012 29.5116 64.6464 28.9135 63.4971C28.7118 63.1112 28.0668 61.8309 27.6055 60.0271C27.1898 58.3992 26.6994 55.4651 27.3486 55.2469C27.995 55.0301 29.5544 57.5757 30.1207 58.5001C30.6428 59.3522 30.8638 59.8757 31.0999 60.3911C30.9936 60.5288 30.8886 60.6665 30.7823 60.8042C30.6704 61.1219 30.3776 62.042 30.7823 62.3995C30.9853 63.8938 32.3168 64.7037 32.5364 64.8332V68.1464H32.5378Z" fill="#C59B6D"/>
<path d="M78.4827 56.0396C80.0117 53.6904 82.6084 54.1649 82.7824 54.4212C82.9495 54.668 83.0324 54.9557 83.0421 55.2488C83.1056 57.1535 82.9647 59.59 82.2285 62.3114C80.6664 68.0801 76.6609 70.6215 74.7272 72.5153C75.6803 66.988 77.3391 61.3679 78.4827 56.041V56.0396Z" fill="#FFE5D1"/>
<path d="M78.575 56.0059C80.104 53.6567 82.7007 54.1312 82.8747 54.3875C83.0418 54.6343 83.1247 54.922 83.1344 55.2151C83.1979 57.1198 83.057 59.5563 82.3208 62.2777C80.7587 68.0464 76.7532 70.5878 74.8195 72.4816C75.7726 66.9543 77.4314 61.3342 78.575 56.0073V56.0059Z" fill="#FFE5D1"/>
<path d="M74.5491 72.9917L74.9496 72.6004C75.2908 72.2663 75.7052 71.9036 76.1458 71.5205C78.2783 69.6594 81.1982 67.1125 82.4951 62.3201C83.1194 60.0118 83.3957 57.6203 83.3142 55.2098C83.3031 54.873 83.2037 54.5567 83.0255 54.2949C82.8888 54.0931 82.3266 53.9908 81.8253 53.9963C81.1733 54.0018 79.538 54.2008 78.4206 55.9147L78.3971 55.9706C77.9468 58.0662 77.4068 60.2545 76.8819 62.3719C76.0643 65.6782 75.219 69.095 74.6402 72.4531L74.5477 72.9917H74.5491ZM81.8612 54.3385C82.3377 54.3385 82.6705 54.4367 82.7341 54.4912C82.8667 54.6889 82.9468 54.9453 82.9551 55.2207C83.0352 57.5985 82.7631 59.9586 82.1471 62.2355C80.8764 66.9285 78.0021 69.4372 75.9027 71.2683C75.6181 71.5164 75.3433 71.7564 75.0905 71.9868C75.6637 68.8087 76.462 65.58 77.2355 62.451C77.7576 60.3417 78.2963 58.1616 78.7466 56.0701C79.5518 54.8512 80.6208 54.4735 81.3777 54.3712C81.5504 54.3481 81.7134 54.3385 81.8612 54.3385Z" fill="black"/>
<path d="M76.9024 68.7109C80.2007 65.6704 81.2463 63.1631 81.8858 60.9079C82.3623 59.2255 82.912 55.806 82.0239 55.5278C81.4756 55.3588 80.6966 56.3214 79.4535 58.1661C78.9784 58.871 78.6483 59.4845 78.4287 59.8895C78.0198 60.6475 77.6483 61.4356 77.3237 62.2318L77.6593 62.3546C77.9798 61.5692 78.3458 60.7921 78.7491 60.0449C78.9646 59.644 79.2919 59.04 79.7574 58.3488C80.1938 57.7012 81.5143 55.7324 81.9121 55.851C82.2698 55.9628 82.2435 58.3311 81.5391 60.818C80.9134 63.0267 79.8886 65.4823 76.6538 68.4655L76.9052 68.7109H76.9024Z" fill="black"/>
<path d="M81.3196 59.7854C81.5033 59.1119 81.5309 58.4301 81.4011 57.7621C81.314 57.3121 81.1704 56.7272 81.0254 56.4341L80.698 56.5772C80.8279 56.8417 80.966 57.4144 81.0461 57.8234C81.1663 58.4424 81.14 59.0737 80.9701 59.6995L81.3196 59.7854Z" fill="black"/>
<path d="M76.8667 65.4249C76.8847 65.4154 78.6319 64.3055 78.723 62.5249C78.7617 61.7586 78.473 61.3319 78.2811 61.051L78.2217 60.9624L77.915 61.1424L77.9786 61.2365C78.1554 61.4969 78.3971 61.8527 78.3639 62.5085C78.2824 64.0983 76.7065 65.1195 76.6899 65.1277L76.8681 65.4249H76.8667Z" fill="black"/>
<path opacity="0.35" d="M76.804 68.809C78.7363 67.0638 79.8302 65.309 80.4283 64.1597C80.6299 63.7738 81.275 62.4935 81.7363 60.6897C82.152 59.0618 82.6424 56.1277 81.9932 55.9095C81.3468 55.6927 79.7874 58.2383 79.2211 59.1627C78.699 60.0148 78.478 60.5383 78.2418 61.0537C78.3482 61.1914 78.4532 61.3291 78.5595 61.4668C78.6714 61.7845 78.9642 62.7046 78.5595 63.0621C78.3565 64.5564 77.025 65.3663 76.8054 65.4958V68.809H76.804Z" fill="#C59B6D"/>
<path d="M62.6592 77.7986L60.023 79.5118C59.7954 79.66 59.5248 79.7397 59.2493 79.7397H50.7949C50.2901 79.7397 49.8018 79.5802 49.4026 79.287L47.3801 77.7986H62.6592Z" fill="white"/>
<path d="M46.685 77.5952H63.2871L60.0785 79.6812C59.8129 79.8538 59.5044 79.9434 59.1828 79.9434H50.7283C50.179 79.9434 49.6379 79.7675 49.204 79.4483L46.685 77.5952ZM61.8981 78.0039H47.942L49.468 79.1259C49.8259 79.3897 50.2746 79.5346 50.7283 79.5346H59.1828C59.417 79.5346 59.643 79.4679 59.836 79.3425L61.8997 78.0023L61.8981 78.0039Z" fill="black"/>
<path opacity="0.35" d="M50.9417 80.0708C51.9153 80.2697 53.0457 80.4909 54.0193 80.6897H55.1591C56.2375 80.4909 57.1592 80.2697 58.2368 80.0708H50.9409H50.9417Z" fill="#C5806D"/>
<path d="M28.7578 44.6175L32.4713 60.4947L34.0187 44.6175L39.5889 38.4283C53.7892 38.4283 60.8549 37.2464 73.3202 37.8093L78.8905 45.5459L79.5094 59.2567L83.223 44.6175C83.223 44.6175 83.0714 39.9782 81.9851 37.285C80.2376 32.9525 77.6527 30.4769 77.6527 30.4769C63.0846 12.2887 37.7322 23.2653 32.4713 32.2389C32.4713 32.2389 30.9127 35.0936 29.9957 38.4283C29.3547 40.7591 28.7578 44.6175 28.7578 44.6175Z" fill="#5F3232" stroke="black" stroke-linecap="round"/>
</g>
<path d="M147.34 41.32V53H144.61V41.32H140.57V39.17H151.5L151.22 41.32H147.34ZM161.732 50.21C161.732 50.6167 161.792 50.9133 161.912 51.1C162.032 51.28 162.226 51.4167 162.492 51.51L161.922 53.28C161.356 53.22 160.872 53.08 160.472 52.86C160.079 52.6333 159.776 52.2967 159.562 51.85C159.162 52.3367 158.656 52.7 158.042 52.94C157.436 53.18 156.799 53.3 156.132 53.3C155.052 53.3 154.196 52.9933 153.562 52.38C152.929 51.7667 152.612 50.97 152.612 49.99C152.612 48.8633 153.052 47.9967 153.932 47.39C154.819 46.7767 156.072 46.47 157.692 46.47H159.172V45.9C159.172 45.2733 158.979 44.82 158.592 44.54C158.206 44.2533 157.649 44.11 156.922 44.11C156.582 44.11 156.156 44.1567 155.642 44.25C155.136 44.3367 154.612 44.4733 154.072 44.66L153.442 42.85C154.116 42.5967 154.792 42.41 155.472 42.29C156.159 42.17 156.782 42.11 157.342 42.11C158.829 42.11 159.932 42.4267 160.652 43.06C161.372 43.6867 161.732 44.5767 161.732 45.73V50.21ZM156.992 51.39C157.392 51.39 157.796 51.2767 158.202 51.05C158.616 50.8233 158.939 50.5067 159.172 50.1V48.04H158.132C157.152 48.04 156.442 48.1967 156.002 48.51C155.569 48.8233 155.352 49.2667 155.352 49.84C155.352 50.3333 155.492 50.7167 155.772 50.99C156.052 51.2567 156.459 51.39 156.992 51.39ZM169.994 38.18V49.92C169.994 50.38 170.128 50.7067 170.394 50.9C170.668 51.0933 171.034 51.19 171.494 51.19C171.781 51.19 172.058 51.16 172.324 51.1C172.591 51.0333 172.844 50.9533 173.084 50.86L173.734 52.66C173.401 52.8267 172.994 52.9733 172.514 53.1C172.041 53.2333 171.491 53.3 170.864 53.3C169.711 53.3 168.838 52.97 168.244 52.31C167.651 51.65 167.354 50.76 167.354 49.64V40.05H164.184V38.18H169.994ZM186.217 42.41L182.577 53H179.477L175.817 42.41H178.657L181.067 50.89L183.527 42.41H186.217ZM190.549 48.51C190.602 49.17 190.752 49.7067 190.999 50.12C191.252 50.5333 191.575 50.8367 191.969 51.03C192.362 51.2233 192.799 51.32 193.279 51.32C193.785 51.32 194.262 51.24 194.709 51.08C195.155 50.92 195.595 50.6967 196.029 50.41L197.129 51.92C196.635 52.3333 196.045 52.6667 195.359 52.92C194.679 53.1733 193.929 53.3 193.109 53.3C191.962 53.3 190.995 53.0633 190.209 52.59C189.429 52.1167 188.839 51.46 188.439 50.62C188.039 49.78 187.839 48.8133 187.839 47.72C187.839 46.6667 188.035 45.7167 188.429 44.87C188.822 44.0233 189.389 43.3533 190.129 42.86C190.869 42.36 191.762 42.11 192.809 42.11C193.782 42.11 194.622 42.3233 195.329 42.75C196.035 43.1767 196.582 43.79 196.969 44.59C197.355 45.3833 197.549 46.34 197.549 47.46C197.549 47.64 197.542 47.8233 197.529 48.01C197.522 48.1967 197.512 48.3633 197.499 48.51H190.549ZM192.819 43.97C192.179 43.97 191.652 44.2 191.239 44.66C190.832 45.1133 190.592 45.8333 190.519 46.82H194.979C194.965 45.9267 194.779 45.23 194.419 44.73C194.065 44.2233 193.532 43.97 192.819 43.97ZM203.161 50.95H208.671L208.401 53H200.011V51.11L205.481 44.47H200.461V42.41H208.581V44.31L203.161 50.95ZM225.565 48.51C225.619 49.17 225.769 49.7067 226.015 50.12C226.269 50.5333 226.592 50.8367 226.985 51.03C227.379 51.2233 227.815 51.32 228.295 51.32C228.802 51.32 229.279 51.24 229.725 51.08C230.172 50.92 230.612 50.6967 231.045 50.41L232.145 51.92C231.652 52.3333 231.062 52.6667 230.375 52.92C229.695 53.1733 228.945 53.3 228.125 53.3C226.979 53.3 226.012 53.0633 225.225 52.59C224.445 52.1167 223.855 51.46 223.455 50.62C223.055 49.78 222.855 48.8133 222.855 47.72C222.855 46.6667 223.052 45.7167 223.445 44.87C223.839 44.0233 224.405 43.3533 225.145 42.86C225.885 42.36 226.779 42.11 227.825 42.11C228.799 42.11 229.639 42.3233 230.345 42.75C231.052 43.1767 231.599 43.79 231.985 44.59C232.372 45.3833 232.565 46.34 232.565 47.46C232.565 47.64 232.559 47.8233 232.545 48.01C232.539 48.1967 232.529 48.3633 232.515 48.51H225.565ZM227.835 43.97C227.195 43.97 226.669 44.2 226.255 44.66C225.849 45.1133 225.609 45.8333 225.535 46.82H229.995C229.982 45.9267 229.795 45.23 229.435 44.73C229.082 44.2233 228.549 43.97 227.835 43.97ZM237.628 42.41V49.75C237.628 50.3233 237.741 50.7267 237.968 50.96C238.194 51.1933 238.524 51.31 238.958 51.31C239.371 51.31 239.774 51.1867 240.168 50.94C240.561 50.6867 240.881 50.3667 241.128 49.98V42.41H243.768V53H241.468L241.328 51.7C240.948 52.22 240.461 52.6167 239.868 52.89C239.274 53.1633 238.661 53.3 238.028 53.3C237.008 53.3 236.244 53.0133 235.738 52.44C235.238 51.86 234.988 51.07 234.988 50.07V42.41H237.628ZM264.472 37.9L267.112 38.18V53H264.772L264.612 51.75C264.285 52.2167 263.875 52.5933 263.382 52.88C262.889 53.16 262.315 53.3 261.662 53.3C260.769 53.3 260.029 53.0667 259.442 52.6C258.862 52.1333 258.429 51.48 258.142 50.64C257.862 49.7933 257.722 48.81 257.722 47.69C257.722 46.61 257.889 45.65 258.222 44.81C258.555 43.97 259.035 43.31 259.662 42.83C260.295 42.35 261.045 42.11 261.912 42.11C262.432 42.11 262.905 42.2 263.332 42.38C263.759 42.56 264.139 42.8267 264.472 43.18V37.9ZM262.622 44.08C261.955 44.08 261.429 44.37 261.042 44.95C260.662 45.5233 260.472 46.44 260.472 47.7C260.472 48.5867 260.552 49.2967 260.712 49.83C260.872 50.3567 261.099 50.7367 261.392 50.97C261.685 51.2033 262.032 51.32 262.432 51.32C262.872 51.32 263.259 51.19 263.592 50.93C263.932 50.6633 264.225 50.3333 264.472 49.94V45.12C264.225 44.7933 263.949 44.54 263.642 44.36C263.342 44.1733 263.002 44.08 262.622 44.08ZM272.254 48.51C272.307 49.17 272.457 49.7067 272.704 50.12C272.957 50.5333 273.281 50.8367 273.674 51.03C274.067 51.2233 274.504 51.32 274.984 51.32C275.491 51.32 275.967 51.24 276.414 51.08C276.861 50.92 277.301 50.6967 277.734 50.41L278.834 51.92C278.341 52.3333 277.751 52.6667 277.064 52.92C276.384 53.1733 275.634 53.3 274.814 53.3C273.667 53.3 272.701 53.0633 271.914 52.59C271.134 52.1167 270.544 51.46 270.144 50.62C269.744 49.78 269.544 48.8133 269.544 47.72C269.544 46.6667 269.741 45.7167 270.134 44.87C270.527 44.0233 271.094 43.3533 271.834 42.86C272.574 42.36 273.467 42.11 274.514 42.11C275.487 42.11 276.327 42.3233 277.034 42.75C277.741 43.1767 278.287 43.79 278.674 44.59C279.061 45.3833 279.254 46.34 279.254 47.46C279.254 47.64 279.247 47.8233 279.234 48.01C279.227 48.1967 279.217 48.3633 279.204 48.51H272.254ZM274.524 43.97C273.884 43.97 273.357 44.2 272.944 44.66C272.537 45.1133 272.297 45.8333 272.224 46.82H276.684C276.671 45.9267 276.484 45.23 276.124 44.73C275.771 44.2233 275.237 43.97 274.524 43.97ZM291.266 42.41L287.626 53H284.526L280.866 42.41H283.706L286.116 50.89L288.576 42.41H291.266ZM301.798 50.21C301.798 50.6167 301.858 50.9133 301.978 51.1C302.098 51.28 302.292 51.4167 302.558 51.51L301.988 53.28C301.422 53.22 300.938 53.08 300.538 52.86C300.145 52.6333 299.842 52.2967 299.628 51.85C299.228 52.3367 298.722 52.7 298.108 52.94C297.502 53.18 296.865 53.3 296.198 53.3C295.118 53.3 294.262 52.9933 293.628 52.38C292.995 51.7667 292.678 50.97 292.678 49.99C292.678 48.8633 293.118 47.9967 293.998 47.39C294.885 46.7767 296.138 46.47 297.758 46.47H299.238V45.9C299.238 45.2733 299.045 44.82 298.658 44.54C298.272 44.2533 297.715 44.11 296.988 44.11C296.648 44.11 296.222 44.1567 295.708 44.25C295.202 44.3367 294.678 44.4733 294.138 44.66L293.508 42.85C294.182 42.5967 294.858 42.41 295.538 42.29C296.225 42.17 296.848 42.11 297.408 42.11C298.895 42.11 299.998 42.4267 300.718 43.06C301.438 43.6867 301.798 44.5767 301.798 45.73V50.21ZM297.058 51.39C297.458 51.39 297.862 51.2767 298.268 51.05C298.682 50.8233 299.005 50.5067 299.238 50.1V48.04H298.198C297.218 48.04 296.508 48.1967 296.068 48.51C295.635 48.8233 295.418 49.2667 295.418 49.84C295.418 50.3333 295.558 50.7167 295.838 50.99C296.118 51.2567 296.525 51.39 297.058 51.39ZM326.283 42.41L322.643 53H319.543L315.883 42.41H318.723L321.133 50.89L323.593 42.41H326.283ZM330.615 48.51C330.668 49.17 330.818 49.7067 331.065 50.12C331.318 50.5333 331.642 50.8367 332.035 51.03C332.428 51.2233 332.865 51.32 333.345 51.32C333.852 51.32 334.328 51.24 334.775 51.08C335.222 50.92 335.662 50.6967 336.095 50.41L337.195 51.92C336.702 52.3333 336.112 52.6667 335.425 52.92C334.745 53.1733 333.995 53.3 333.175 53.3C332.028 53.3 331.062 53.0633 330.275 52.59C329.495 52.1167 328.905 51.46 328.505 50.62C328.105 49.78 327.905 48.8133 327.905 47.72C327.905 46.6667 328.102 45.7167 328.495 44.87C328.888 44.0233 329.455 43.3533 330.195 42.86C330.935 42.36 331.828 42.11 332.875 42.11C333.848 42.11 334.688 42.3233 335.395 42.75C336.102 43.1767 336.648 43.79 337.035 44.59C337.422 45.3833 337.615 46.34 337.615 47.46C337.615 47.64 337.608 47.8233 337.595 48.01C337.588 48.1967 337.578 48.3633 337.565 48.51H330.615ZM332.885 43.97C332.245 43.97 331.718 44.2 331.305 44.66C330.898 45.1133 330.658 45.8333 330.585 46.82H335.045C335.032 45.9267 334.845 45.23 334.485 44.73C334.132 44.2233 333.598 43.97 332.885 43.97ZM340.137 53V51.17H341.627V44.23H340.137V42.41H343.637L344.127 44.84C344.514 43.94 345.001 43.2633 345.587 42.81C346.174 42.35 346.911 42.12 347.797 42.12C348.137 42.12 348.437 42.1467 348.697 42.2C348.964 42.2533 349.217 42.3233 349.457 42.41L348.667 44.63C348.461 44.5767 348.264 44.5367 348.077 44.51C347.891 44.4767 347.681 44.46 347.447 44.46C346.714 44.46 346.074 44.7467 345.527 45.32C344.987 45.8867 344.567 46.6567 344.267 47.63V51.17H346.377V53H340.137ZM347.227 46.54V43.73L347.587 42.41H349.457L348.987 46.54H347.227ZM371.832 50.21C371.832 50.6167 371.892 50.9133 372.012 51.1C372.132 51.28 372.325 51.4167 372.592 51.51L372.022 53.28C371.455 53.22 370.972 53.08 370.572 52.86C370.178 52.6333 369.875 52.2967 369.662 51.85C369.262 52.3367 368.755 52.7 368.142 52.94C367.535 53.18 366.898 53.3 366.232 53.3C365.152 53.3 364.295 52.9933 363.662 52.38C363.028 51.7667 362.712 50.97 362.712 49.99C362.712 48.8633 363.152 47.9967 364.032 47.39C364.918 46.7767 366.172 46.47 367.792 46.47H369.272V45.9C369.272 45.2733 369.078 44.82 368.692 44.54C368.305 44.2533 367.748 44.11 367.022 44.11C366.682 44.11 366.255 44.1567 365.742 44.25C365.235 44.3367 364.712 44.4733 364.172 44.66L363.542 42.85C364.215 42.5967 364.892 42.41 365.572 42.29C366.258 42.17 366.882 42.11 367.442 42.11C368.928 42.11 370.032 42.4267 370.752 43.06C371.472 43.6867 371.832 44.5767 371.832 45.73V50.21ZM367.092 51.39C367.492 51.39 367.895 51.2767 368.302 51.05C368.715 50.8233 369.038 50.5067 369.272 50.1V48.04H368.232C367.252 48.04 366.542 48.1967 366.102 48.51C365.668 48.8233 365.452 49.2667 365.452 49.84C365.452 50.3333 365.592 50.7167 365.872 50.99C366.152 51.2567 366.558 51.39 367.092 51.39ZM379.084 51.35C379.704 51.35 380.2 51.2433 380.574 51.03C380.954 50.81 381.144 50.5033 381.144 50.11C381.144 49.85 381.08 49.63 380.954 49.45C380.834 49.27 380.594 49.1033 380.234 48.95C379.874 48.79 379.334 48.6133 378.614 48.42C377.934 48.2467 377.337 48.0333 376.824 47.78C376.317 47.52 375.92 47.1867 375.634 46.78C375.354 46.3733 375.214 45.86 375.214 45.24C375.214 44.62 375.387 44.0767 375.734 43.61C376.08 43.1367 376.58 42.77 377.234 42.51C377.894 42.2433 378.687 42.11 379.614 42.11C380.52 42.11 381.314 42.23 381.994 42.47C382.674 42.7033 383.257 42.9967 383.744 43.35L382.664 44.96C382.237 44.6867 381.774 44.4667 381.274 44.3C380.78 44.1267 380.247 44.04 379.674 44.04C379.054 44.04 378.6 44.13 378.314 44.31C378.034 44.49 377.894 44.74 377.894 45.06C377.894 45.2867 377.964 45.48 378.104 45.64C378.25 45.7933 378.51 45.9433 378.884 46.09C379.264 46.23 379.804 46.4 380.504 46.6C381.19 46.7867 381.787 47.0067 382.294 47.26C382.807 47.5133 383.204 47.85 383.484 48.27C383.764 48.69 383.904 49.24 383.904 49.92C383.904 50.6867 383.68 51.32 383.234 51.82C382.787 52.32 382.197 52.6933 381.464 52.94C380.737 53.18 379.947 53.3 379.094 53.3C378.094 53.3 377.22 53.1567 376.474 52.87C375.727 52.5833 375.094 52.2133 374.574 51.76L375.944 50.22C376.357 50.5467 376.827 50.8167 377.354 51.03C377.887 51.2433 378.464 51.35 379.084 51.35ZM403.728 51.18C404.195 51.18 404.631 51.0933 405.038 50.92C405.451 50.7467 405.848 50.5267 406.228 50.26L407.428 51.95C406.961 52.3433 406.398 52.6667 405.738 52.92C405.078 53.1733 404.371 53.3 403.618 53.3C402.511 53.3 401.561 53.07 400.768 52.61C399.981 52.1433 399.375 51.4967 398.948 50.67C398.528 49.8367 398.318 48.87 398.318 47.77C398.318 46.6833 398.531 45.7133 398.958 44.86C399.391 44 400.005 43.3267 400.798 42.84C401.598 42.3533 402.551 42.11 403.658 42.11C404.418 42.11 405.105 42.22 405.718 42.44C406.338 42.6533 406.905 42.9733 407.418 43.4L406.248 45.02C405.855 44.7467 405.448 44.54 405.028 44.4C404.615 44.2533 404.185 44.18 403.738 44.18C402.958 44.18 402.321 44.4633 401.828 45.03C401.341 45.59 401.098 46.5033 401.098 47.77C401.098 48.6033 401.211 49.27 401.438 49.77C401.671 50.27 401.985 50.63 402.378 50.85C402.778 51.07 403.228 51.18 403.728 51.18ZM414.47 42.11C415.524 42.11 416.417 42.34 417.15 42.8C417.884 43.26 418.44 43.91 418.82 44.75C419.207 45.5833 419.4 46.56 419.4 47.68C419.4 48.8267 419.207 49.82 418.82 50.66C418.434 51.5 417.874 52.15 417.14 52.61C416.407 53.07 415.514 53.3 414.46 53.3C413.414 53.3 412.52 53.0767 411.78 52.63C411.047 52.1767 410.487 51.5333 410.1 50.7C409.714 49.86 409.52 48.86 409.52 47.7C409.52 46.5933 409.714 45.62 410.1 44.78C410.487 43.94 411.05 43.2867 411.79 42.82C412.53 42.3467 413.424 42.11 414.47 42.11ZM414.47 44.1C413.73 44.1 413.177 44.39 412.81 44.97C412.45 45.55 412.27 46.46 412.27 47.7C412.27 48.9533 412.45 49.87 412.81 50.45C413.17 51.0233 413.72 51.31 414.46 51.31C415.2 51.31 415.75 51.0233 416.11 50.45C416.47 49.87 416.65 48.9467 416.65 47.68C416.65 46.4467 416.47 45.5433 416.11 44.97C415.75 44.39 415.204 44.1 414.47 44.1ZM427.833 42.41V51.13H430.623V53H422.093V51.13H425.193V44.28H422.193V42.41H427.833ZM426.123 37.07C426.609 37.07 427.003 37.22 427.303 37.52C427.609 37.82 427.763 38.1933 427.763 38.64C427.763 39.0867 427.609 39.4633 427.303 39.77C427.003 40.07 426.609 40.22 426.123 40.22C425.636 40.22 425.239 40.07 424.933 39.77C424.626 39.4633 424.473 39.0867 424.473 38.64C424.473 38.1933 424.626 37.82 424.933 37.52C425.239 37.22 425.636 37.07 426.123 37.07ZM437.445 51.35C438.065 51.35 438.561 51.2433 438.935 51.03C439.315 50.81 439.505 50.5033 439.505 50.11C439.505 49.85 439.441 49.63 439.315 49.45C439.195 49.27 438.955 49.1033 438.595 48.95C438.235 48.79 437.695 48.6133 436.975 48.42C436.295 48.2467 435.698 48.0333 435.185 47.78C434.678 47.52 434.281 47.1867 433.995 46.78C433.715 46.3733 433.575 45.86 433.575 45.24C433.575 44.62 433.748 44.0767 434.095 43.61C434.441 43.1367 434.941 42.77 435.595 42.51C436.255 42.2433 437.048 42.11 437.975 42.11C438.881 42.11 439.675 42.23 440.355 42.47C441.035 42.7033 441.618 42.9967 442.105 43.35L441.025 44.96C440.598 44.6867 440.135 44.4667 439.635 44.3C439.141 44.1267 438.608 44.04 438.035 44.04C437.415 44.04 436.961 44.13 436.675 44.31C436.395 44.49 436.255 44.74 436.255 45.06C436.255 45.2867 436.325 45.48 436.465 45.64C436.611 45.7933 436.871 45.9433 437.245 46.09C437.625 46.23 438.165 46.4 438.865 46.6C439.551 46.7867 440.148 47.0067 440.655 47.26C441.168 47.5133 441.565 47.85 441.845 48.27C442.125 48.69 442.265 49.24 442.265 49.92C442.265 50.6867 442.041 51.32 441.595 51.82C441.148 52.32 440.558 52.6933 439.825 52.94C439.098 53.18 438.308 53.3 437.455 53.3C436.455 53.3 435.581 53.1567 434.835 52.87C434.088 52.5833 433.455 52.2133 432.935 51.76L434.305 50.22C434.718 50.5467 435.188 50.8167 435.715 51.03C436.248 51.2433 436.825 51.35 437.445 51.35ZM453.537 50.21C453.537 50.6167 453.597 50.9133 453.717 51.1C453.837 51.28 454.03 51.4167 454.297 51.51L453.727 53.28C453.16 53.22 452.677 53.08 452.277 52.86C451.884 52.6333 451.58 52.2967 451.367 51.85C450.967 52.3367 450.46 52.7 449.847 52.94C449.24 53.18 448.604 53.3 447.937 53.3C446.857 53.3 446 52.9933 445.367 52.38C444.734 51.7667 444.417 50.97 444.417 49.99C444.417 48.8633 444.857 47.9967 445.737 47.39C446.624 46.7767 447.877 46.47 449.497 46.47H450.977V45.9C450.977 45.2733 450.784 44.82 450.397 44.54C450.01 44.2533 449.454 44.11 448.727 44.11C448.387 44.11 447.96 44.1567 447.447 44.25C446.94 44.3367 446.417 44.4733 445.877 44.66L445.247 42.85C445.92 42.5967 446.597 42.41 447.277 42.29C447.964 42.17 448.587 42.11 449.147 42.11C450.634 42.11 451.737 42.4267 452.457 43.06C453.177 43.6867 453.537 44.5767 453.537 45.73V50.21ZM448.797 51.39C449.197 51.39 449.6 51.2767 450.007 51.05C450.42 50.8233 450.744 50.5067 450.977 50.1V48.04H449.937C448.957 48.04 448.247 48.1967 447.807 48.51C447.374 48.8233 447.157 49.2667 447.157 49.84C447.157 50.3333 447.297 50.7167 447.577 50.99C447.857 51.2567 448.264 51.39 448.797 51.39ZM460.789 51.35C461.409 51.35 461.906 51.2433 462.279 51.03C462.659 50.81 462.849 50.5033 462.849 50.11C462.849 49.85 462.786 49.63 462.659 49.45C462.539 49.27 462.299 49.1033 461.939 48.95C461.579 48.79 461.039 48.6133 460.319 48.42C459.639 48.2467 459.042 48.0333 458.529 47.78C458.022 47.52 457.626 47.1867 457.339 46.78C457.059 46.3733 456.919 45.86 456.919 45.24C456.919 44.62 457.092 44.0767 457.439 43.61C457.786 43.1367 458.286 42.77 458.939 42.51C459.599 42.2433 460.392 42.11 461.319 42.11C462.226 42.11 463.019 42.23 463.699 42.47C464.379 42.7033 464.962 42.9967 465.449 43.35L464.369 44.96C463.942 44.6867 463.479 44.4667 462.979 44.3C462.486 44.1267 461.952 44.04 461.379 44.04C460.759 44.04 460.306 44.13 460.019 44.31C459.739 44.49 459.599 44.74 459.599 45.06C459.599 45.2867 459.669 45.48 459.809 45.64C459.956 45.7933 460.216 45.9433 460.589 46.09C460.969 46.23 461.509 46.4 462.209 46.6C462.896 46.7867 463.492 47.0067 463.999 47.26C464.512 47.5133 464.909 47.85 465.189 48.27C465.469 48.69 465.609 49.24 465.609 49.92C465.609 50.6867 465.386 51.32 464.939 51.82C464.492 52.32 463.902 52.6933 463.169 52.94C462.442 53.18 461.652 53.3 460.799 53.3C459.799 53.3 458.926 53.1567 458.179 52.87C457.432 52.5833 456.799 52.2133 456.279 51.76L457.649 50.22C458.062 50.5467 458.532 50.8167 459.059 51.03C459.592 51.2433 460.169 51.35 460.789 51.35ZM482.353 48.51C482.407 49.17 482.557 49.7067 482.803 50.12C483.057 50.5333 483.38 50.8367 483.773 51.03C484.167 51.2233 484.603 51.32 485.083 51.32C485.59 51.32 486.067 51.24 486.513 51.08C486.96 50.92 487.4 50.6967 487.833 50.41L488.933 51.92C488.44 52.3333 487.85 52.6667 487.163 52.92C486.483 53.1733 485.733 53.3 484.913 53.3C483.767 53.3 482.8 53.0633 482.013 52.59C481.233 52.1167 480.643 51.46 480.243 50.62C479.843 49.78 479.643 48.8133 479.643 47.72C479.643 46.6667 479.84 45.7167 480.233 44.87C480.627 44.0233 481.193 43.3533 481.933 42.86C482.673 42.36 483.567 42.11 484.613 42.11C485.587 42.11 486.427 42.3233 487.133 42.75C487.84 43.1767 488.387 43.79 488.773 44.59C489.16 45.3833 489.353 46.34 489.353 47.46C489.353 47.64 489.347 47.8233 489.333 48.01C489.327 48.1967 489.317 48.3633 489.303 48.51H482.353ZM484.623 43.97C483.983 43.97 483.457 44.2 483.043 44.66C482.637 45.1133 482.397 45.8333 482.323 46.82H486.783C486.77 45.9267 486.583 45.23 486.223 44.73C485.87 44.2233 485.337 43.97 484.623 43.97ZM499.306 42.11C499.759 42.11 500.146 42.2067 500.466 42.4C500.786 42.5867 501.032 42.9033 501.206 43.35C501.379 43.79 501.466 44.39 501.466 45.15V53H499.166V45.48C499.166 45 499.126 44.66 499.046 44.46C498.972 44.26 498.802 44.16 498.536 44.16C498.316 44.16 498.092 44.2267 497.866 44.36C497.646 44.4867 497.416 44.7167 497.176 45.05V53H495.186V45.48C495.186 45 495.146 44.66 495.066 44.46C494.992 44.26 494.822 44.16 494.556 44.16C494.329 44.16 494.106 44.2267 493.886 44.36C493.666 44.4867 493.436 44.7167 493.196 45.05V53H490.866V42.41H492.836L493.006 43.51C493.319 43.07 493.649 42.7267 493.996 42.48C494.342 42.2333 494.759 42.11 495.246 42.11C495.646 42.11 495.999 42.21 496.306 42.41C496.619 42.6033 496.842 42.9367 496.976 43.41C497.282 43.0233 497.626 42.71 498.006 42.47C498.386 42.23 498.819 42.11 499.306 42.11ZM519.52 42.11C520.573 42.11 521.467 42.34 522.2 42.8C522.933 43.26 523.49 43.91 523.87 44.75C524.257 45.5833 524.45 46.56 524.45 47.68C524.45 48.8267 524.257 49.82 523.87 50.66C523.483 51.5 522.923 52.15 522.19 52.61C521.457 53.07 520.563 53.3 519.51 53.3C518.463 53.3 517.57 53.0767 516.83 52.63C516.097 52.1767 515.537 51.5333 515.15 50.7C514.763 49.86 514.57 48.86 514.57 47.7C514.57 46.5933 514.763 45.62 515.15 44.78C515.537 43.94 516.1 43.2867 516.84 42.82C517.58 42.3467 518.473 42.11 519.52 42.11ZM519.52 44.1C518.78 44.1 518.227 44.39 517.86 44.97C517.5 45.55 517.32 46.46 517.32 47.7C517.32 48.9533 517.5 49.87 517.86 50.45C518.22 51.0233 518.77 51.31 519.51 51.31C520.25 51.31 520.8 51.0233 521.16 50.45C521.52 49.87 521.7 48.9467 521.7 47.68C521.7 46.4467 521.52 45.5433 521.16 44.97C520.8 44.39 520.253 44.1 519.52 44.1ZM529.432 42.41V49.75C529.432 50.3233 529.546 50.7267 529.772 50.96C529.999 51.1933 530.329 51.31 530.762 51.31C531.176 51.31 531.579 51.1867 531.972 50.94C532.366 50.6867 532.686 50.3667 532.932 49.98V42.41H535.572V53H533.272L533.132 51.7C532.752 52.22 532.266 52.6167 531.672 52.89C531.079 53.1633 530.466 53.3 529.832 53.3C528.812 53.3 528.049 53.0133 527.542 52.44C527.042 51.86 526.792 51.07 526.792 50.07V42.41H529.432ZM547.604 52.41C547.211 52.67 546.734 52.8833 546.174 53.05C545.614 53.2167 545.008 53.3 544.354 53.3C543.061 53.3 542.088 52.9667 541.434 52.3C540.781 51.6267 540.454 50.7333 540.454 49.62V44.28H538.154V42.41H540.454V40.08L543.094 39.76V42.41H546.594L546.324 44.28H543.094V49.61C543.094 50.1567 543.228 50.5567 543.494 50.81C543.761 51.0633 544.191 51.19 544.784 51.19C545.164 51.19 545.511 51.1467 545.824 51.06C546.144 50.9667 546.434 50.85 546.694 50.71L547.604 52.41ZM550.237 53V51.17H551.727V44.23H550.237V42.41H553.737L554.227 44.84C554.613 43.94 555.1 43.2633 555.687 42.81C556.273 42.35 557.01 42.12 557.897 42.12C558.237 42.12 558.537 42.1467 558.797 42.2C559.063 42.2533 559.317 42.3233 559.557 42.41L558.767 44.63C558.56 44.5767 558.363 44.5367 558.177 44.51C557.99 44.4767 557.78 44.46 557.547 44.46C556.813 44.46 556.173 44.7467 555.627 45.32C555.087 45.8867 554.667 46.6567 554.367 47.63V51.17H556.477V53H550.237ZM557.327 46.54V43.73L557.687 42.41H559.557L559.087 46.54H557.327ZM566.209 42.11C567.262 42.11 568.155 42.34 568.889 42.8C569.622 43.26 570.179 43.91 570.559 44.75C570.945 45.5833 571.139 46.56 571.139 47.68C571.139 48.8267 570.945 49.82 570.559 50.66C570.172 51.5 569.612 52.15 568.879 52.61C568.145 53.07 567.252 53.3 566.199 53.3C565.152 53.3 564.259 53.0767 563.519 52.63C562.785 52.1767 562.225 51.5333 561.839 50.7C561.452 49.86 561.259 48.86 561.259 47.7C561.259 46.5933 561.452 45.62 561.839 44.78C562.225 43.94 562.789 43.2867 563.529 42.82C564.269 42.3467 565.162 42.11 566.209 42.11ZM566.209 44.1C565.469 44.1 564.915 44.39 564.549 44.97C564.189 45.55 564.009 46.46 564.009 47.7C564.009 48.9533 564.189 49.87 564.549 50.45C564.909 51.0233 565.459 51.31 566.199 51.31C566.939 51.31 567.489 51.0233 567.849 50.45C568.209 49.87 568.389 48.9467 568.389 47.68C568.389 46.4467 568.209 45.5433 567.849 44.97C567.489 44.39 566.942 44.1 566.209 44.1ZM590.623 42.11C591.556 42.11 592.303 42.34 592.863 42.8C593.43 43.2533 593.84 43.8967 594.093 44.73C594.353 45.5633 594.483 46.5467 594.483 47.68C594.483 48.7667 594.326 49.7333 594.013 50.58C593.7 51.4267 593.24 52.0933 592.633 52.58C592.033 53.06 591.293 53.3 590.413 53.3C589.333 53.3 588.46 52.9167 587.793 52.15V57.08L585.153 57.36V42.41H587.473L587.613 43.7C588.033 43.1533 588.503 42.7533 589.023 42.5C589.543 42.24 590.076 42.11 590.623 42.11ZM589.853 44.09C589.406 44.09 589.013 44.2233 588.673 44.49C588.34 44.7567 588.046 45.0867 587.793 45.48V50.22C588.033 50.58 588.306 50.85 588.613 51.03C588.92 51.21 589.266 51.3 589.653 51.3C590.326 51.3 590.84 51.02 591.193 50.46C591.553 49.8933 591.733 48.9767 591.733 47.71C591.733 46.8167 591.66 46.1067 591.513 45.58C591.373 45.0467 591.163 44.6667 590.883 44.44C590.603 44.2067 590.26 44.09 589.853 44.09ZM601.225 42.11C602.279 42.11 603.172 42.34 603.905 42.8C604.639 43.26 605.195 43.91 605.575 44.75C605.962 45.5833 606.155 46.56 606.155 47.68C606.155 48.8267 605.962 49.82 605.575 50.66C605.189 51.5 604.629 52.15 603.895 52.61C603.162 53.07 602.269 53.3 601.215 53.3C600.169 53.3 599.275 53.0767 598.535 52.63C597.802 52.1767 597.242 51.5333 596.855 50.7C596.469 49.86 596.275 48.86 596.275 47.7C596.275 46.5933 596.469 45.62 596.855 44.78C597.242 43.94 597.805 43.2867 598.545 42.82C599.285 42.3467 600.179 42.11 601.225 42.11ZM601.225 44.1C600.485 44.1 599.932 44.39 599.565 44.97C599.205 45.55 599.025 46.46 599.025 47.7C599.025 48.9533 599.205 49.87 599.565 50.45C599.925 51.0233 600.475 51.31 601.215 51.31C601.955 51.31 602.505 51.0233 602.865 50.45C603.225 49.87 603.405 48.9467 603.405 47.68C603.405 46.4467 603.225 45.5433 602.865 44.97C602.505 44.39 601.959 44.1 601.225 44.1ZM608.498 53V42.41H610.798L610.988 43.72C611.441 43.1867 611.951 42.7867 612.518 42.52C613.084 42.2467 613.694 42.11 614.348 42.11C615.301 42.11 616.028 42.3867 616.528 42.94C617.028 43.4867 617.278 44.2567 617.278 45.25V53H614.638V46.28C614.638 45.7467 614.604 45.32 614.538 45C614.471 44.6733 614.344 44.44 614.158 44.3C613.971 44.1533 613.701 44.08 613.348 44.08C613.061 44.08 612.784 44.1433 612.518 44.27C612.258 44.3967 612.011 44.5667 611.778 44.78C611.551 44.9933 611.338 45.23 611.138 45.49V53H608.498ZM629.31 52.41C628.916 52.67 628.44 52.8833 627.88 53.05C627.32 53.2167 626.713 53.3 626.06 53.3C624.766 53.3 623.793 52.9667 623.14 52.3C622.486 51.6267 622.16 50.7333 622.16 49.62V44.28H619.86V42.41H622.16V40.08L624.8 39.76V42.41H628.3L628.03 44.28H624.8V49.61C624.8 50.1567 624.933 50.5567 625.2 50.81C625.466 51.0633 625.896 51.19 626.49 51.19C626.87 51.19 627.216 51.1467 627.53 51.06C627.85 50.9667 628.14 50.85 628.4 50.71L629.31 52.41ZM636.242 42.11C637.295 42.11 638.189 42.34 638.922 42.8C639.655 43.26 640.212 43.91 640.592 44.75C640.979 45.5833 641.172 46.56 641.172 47.68C641.172 48.8267 640.979 49.82 640.592 50.66C640.205 51.5 639.645 52.15 638.912 52.61C638.179 53.07 637.285 53.3 636.232 53.3C635.185 53.3 634.292 53.0767 633.552 52.63C632.819 52.1767 632.259 51.5333 631.872 50.7C631.485 49.86 631.292 48.86 631.292 47.7C631.292 46.5933 631.485 45.62 631.872 44.78C632.259 43.94 632.822 43.2867 633.562 42.82C634.302 42.3467 635.195 42.11 636.242 42.11ZM636.242 44.1C635.502 44.1 634.949 44.39 634.582 44.97C634.222 45.55 634.042 46.46 634.042 47.7C634.042 48.9533 634.222 49.87 634.582 50.45C634.942 51.0233 635.492 51.31 636.232 51.31C636.972 51.31 637.522 51.0233 637.882 50.45C638.242 49.87 638.422 48.9467 638.422 47.68C638.422 46.4467 638.242 45.5433 637.882 44.97C637.522 44.39 636.975 44.1 636.242 44.1ZM661.326 37.9L663.966 38.18V53H661.626L661.466 51.75C661.14 52.2167 660.73 52.5933 660.236 52.88C659.743 53.16 659.17 53.3 658.516 53.3C657.623 53.3 656.883 53.0667 656.296 52.6C655.716 52.1333 655.283 51.48 654.996 50.64C654.716 49.7933 654.576 48.81 654.576 47.69C654.576 46.61 654.743 45.65 655.076 44.81C655.41 43.97 655.89 43.31 656.516 42.83C657.15 42.35 657.9 42.11 658.766 42.11C659.286 42.11 659.76 42.2 660.186 42.38C660.613 42.56 660.993 42.8267 661.326 43.18V37.9ZM659.476 44.08C658.81 44.08 658.283 44.37 657.896 44.95C657.516 45.5233 657.326 46.44 657.326 47.7C657.326 48.5867 657.406 49.2967 657.566 49.83C657.726 50.3567 657.953 50.7367 658.246 50.97C658.54 51.2033 658.886 51.32 659.286 51.32C659.726 51.32 660.113 51.19 660.446 50.93C660.786 50.6633 661.08 50.3333 661.326 49.94V45.12C661.08 44.7933 660.803 44.54 660.496 44.36C660.196 44.1733 659.856 44.08 659.476 44.08ZM669.108 48.51C669.162 49.17 669.312 49.7067 669.558 50.12C669.812 50.5333 670.135 50.8367 670.528 51.03C670.922 51.2233 671.358 51.32 671.838 51.32C672.345 51.32 672.822 51.24 673.268 51.08C673.715 50.92 674.155 50.6967 674.588 50.41L675.688 51.92C675.195 52.3333 674.605 52.6667 673.918 52.92C673.238 53.1733 672.488 53.3 671.668 53.3C670.522 53.3 669.555 53.0633 668.768 52.59C667.988 52.1167 667.398 51.46 666.998 50.62C666.598 49.78 666.398 48.8133 666.398 47.72C666.398 46.6667 666.595 45.7167 666.988 44.87C667.382 44.0233 667.948 43.3533 668.688 42.86C669.428 42.36 670.322 42.11 671.368 42.11C672.342 42.11 673.182 42.3233 673.888 42.75C674.595 43.1767 675.142 43.79 675.528 44.59C675.915 45.3833 676.108 46.34 676.108 47.46C676.108 47.64 676.102 47.8233 676.088 48.01C676.082 48.1967 676.072 48.3633 676.058 48.51H669.108ZM671.378 43.97C670.738 43.97 670.212 44.2 669.798 44.66C669.392 45.1133 669.152 45.8333 669.078 46.82H673.538C673.525 45.9267 673.338 45.23 672.978 44.73C672.625 44.2233 672.092 43.97 671.378 43.97ZM151.2 82.41L147.56 93H144.46L140.8 82.41H143.64L146.05 90.89L148.51 82.41H151.2ZM159.372 82.41V91.13H162.162V93H153.632V91.13H156.732V84.28H153.732V82.41H159.372ZM157.662 77.07C158.149 77.07 158.542 77.22 158.842 77.52C159.149 77.82 159.302 78.1933 159.302 78.64C159.302 79.0867 159.149 79.4633 158.842 79.77C158.542 80.07 158.149 80.22 157.662 80.22C157.176 80.22 156.779 80.07 156.472 79.77C156.166 79.4633 156.012 79.0867 156.012 78.64C156.012 78.1933 156.166 77.82 156.472 77.52C156.779 77.22 157.176 77.07 157.662 77.07ZM168.984 91.35C169.604 91.35 170.101 91.2433 170.474 91.03C170.854 90.81 171.044 90.5033 171.044 90.11C171.044 89.85 170.981 89.63 170.854 89.45C170.734 89.27 170.494 89.1033 170.134 88.95C169.774 88.79 169.234 88.6133 168.514 88.42C167.834 88.2467 167.238 88.0333 166.724 87.78C166.218 87.52 165.821 87.1867 165.534 86.78C165.254 86.3733 165.114 85.86 165.114 85.24C165.114 84.62 165.288 84.0767 165.634 83.61C165.981 83.1367 166.481 82.77 167.134 82.51C167.794 82.2433 168.588 82.11 169.514 82.11C170.421 82.11 171.214 82.23 171.894 82.47C172.574 82.7033 173.158 82.9967 173.644 83.35L172.564 84.96C172.138 84.6867 171.674 84.4667 171.174 84.3C170.681 84.1267 170.148 84.04 169.574 84.04C168.954 84.04 168.501 84.13 168.214 84.31C167.934 84.49 167.794 84.74 167.794 85.06C167.794 85.2867 167.864 85.48 168.004 85.64C168.151 85.7933 168.411 85.9433 168.784 86.09C169.164 86.23 169.704 86.4 170.404 86.6C171.091 86.7867 171.688 87.0067 172.194 87.26C172.708 87.5133 173.104 87.85 173.384 88.27C173.664 88.69 173.804 89.24 173.804 89.92C173.804 90.6867 173.581 91.32 173.134 91.82C172.688 92.32 172.098 92.6933 171.364 92.94C170.638 93.18 169.848 93.3 168.994 93.3C167.994 93.3 167.121 93.1567 166.374 92.87C165.628 92.5833 164.994 92.2133 164.474 91.76L165.844 90.22C166.258 90.5467 166.728 90.8167 167.254 91.03C167.788 91.2433 168.364 91.35 168.984 91.35ZM185.767 92.41C185.373 92.67 184.897 92.8833 184.337 93.05C183.777 93.2167 183.17 93.3 182.517 93.3C181.223 93.3 180.25 92.9667 179.597 92.3C178.943 91.6267 178.617 90.7333 178.617 89.62V84.28H176.317V82.41H178.617V80.08L181.257 79.76V82.41H184.757L184.487 84.28H181.257V89.61C181.257 90.1567 181.39 90.5567 181.657 90.81C181.923 91.0633 182.353 91.19 182.947 91.19C183.327 91.19 183.673 91.1467 183.987 91.06C184.307 90.9667 184.597 90.85 184.857 90.71L185.767 92.41ZM196.749 90.21C196.749 90.6167 196.809 90.9133 196.929 91.1C197.049 91.28 197.242 91.4167 197.509 91.51L196.939 93.28C196.372 93.22 195.889 93.08 195.489 92.86C195.095 92.6333 194.792 92.2967 194.579 91.85C194.179 92.3367 193.672 92.7 193.059 92.94C192.452 93.18 191.815 93.3 191.149 93.3C190.069 93.3 189.212 92.9933 188.579 92.38C187.945 91.7667 187.629 90.97 187.629 89.99C187.629 88.8633 188.069 87.9967 188.949 87.39C189.835 86.7767 191.089 86.47 192.709 86.47H194.189V85.9C194.189 85.2733 193.995 84.82 193.609 84.54C193.222 84.2533 192.665 84.11 191.939 84.11C191.599 84.11 191.172 84.1567 190.659 84.25C190.152 84.3367 189.629 84.4733 189.089 84.66L188.459 82.85C189.132 82.5967 189.809 82.41 190.489 82.29C191.175 82.17 191.799 82.11 192.359 82.11C193.845 82.11 194.949 82.4267 195.669 83.06C196.389 83.6867 196.749 84.5767 196.749 85.73V90.21ZM192.009 91.39C192.409 91.39 192.812 91.2767 193.219 91.05C193.632 90.8233 193.955 90.5067 194.189 90.1V88.04H193.149C192.169 88.04 191.459 88.1967 191.019 88.51C190.585 88.8233 190.369 89.2667 190.369 89.84C190.369 90.3333 190.509 90.7167 190.789 90.99C191.069 91.2567 191.475 91.39 192.009 91.39ZM202.291 91.23C202.291 90.8567 202.381 90.5133 202.561 90.2C202.748 89.8867 202.998 89.6367 203.311 89.45C203.624 89.2633 203.971 89.17 204.351 89.17C204.738 89.17 205.088 89.2633 205.401 89.45C205.714 89.6367 205.961 89.8867 206.141 90.2C206.328 90.5133 206.421 90.8567 206.421 91.23C206.421 91.6033 206.328 91.95 206.141 92.27C205.961 92.5833 205.714 92.8333 205.401 93.02C205.088 93.2067 204.738 93.3 204.351 93.3C203.971 93.3 203.624 93.2067 203.311 93.02C202.998 92.8333 202.748 92.5833 202.561 92.27C202.381 91.95 202.291 91.6033 202.291 91.23Z" fill="#FBFFFD"/>
</svg>
