<svg width="99" height="92" viewBox="0 0 99 92" fill="none" xmlns="http://www.w3.org/2000/svg">
<path d="M58.7632 11.7328L52.1664 3.40774L9.44581 2.9209C5.94053 2.9209 3.06814 5.72026 2.99512 9.22554L3.26288 36.002L11.2958 43.0856L11.4662 76.8726L21.7873 88.4839H84.3469C90.5054 88.4839 95.52 83.4937 95.52 77.3108L95.5686 22.0782L90.9436 11.7328H58.7875H58.7632Z" fill="#0000FF"/>
<path d="M84.3215 91.4294H20.4231L8.49544 77.9925L8.32505 44.4246L0.292114 37.341L0 9.27439C0.121711 4.04081 4.25989 0 9.3961 0L53.5529 0.511185L60.1497 8.81189H92.7926L98.44 22.1271L98.3913 77.3596C98.3913 85.1248 92.0623 91.4538 84.2728 91.4538L84.3215 91.4294ZM23.0764 85.563H84.3215C88.8492 85.563 92.5492 81.8629 92.5492 77.3353L92.5979 22.7356L88.9952 14.7027H57.326L50.7049 6.35333L9.37177 5.89082C7.47307 5.89082 5.91516 7.40004 5.86648 9.32307L6.10991 34.6877L14.1428 41.7713L14.3132 75.7774L23.0034 85.5873L23.0764 85.563Z" fill="#0000FF"/>
<path d="M90.9201 13.1688H21.1553C15.7269 13.1688 11.3697 17.5991 11.4184 23.0031L11.6618 43.913L11.8322 77.0672L22.1046 88.4593H84.0556C89.3866 88.4593 95.3991 84.6376 95.5452 79.3553V23.2952L90.9445 13.1201L90.9201 13.1688Z" fill="#00EEFF"/>
<path d="M84.0305 90.6991H21.1059L9.61632 77.9438L9.20251 23.052C9.17816 19.8388 10.3953 16.8204 12.6591 14.5322C14.9229 12.2441 17.9414 10.9783 21.1545 10.9783H92.3556L97.7352 23.3441V79.4043C97.5405 86.0984 90.3595 90.6991 84.0305 90.6991ZM23.0532 86.2932H84.0305C88.2417 86.2932 93.2076 83.2504 93.3293 79.3313V23.8066L89.5075 15.3599H21.1545C19.1341 15.3599 17.2354 16.1632 15.7993 17.5994C14.3631 19.0356 13.6085 20.9586 13.6328 22.979L14.0223 76.2398L23.0776 86.2932H23.0532Z" fill="#0000FF"/>
</svg>
