<?xml version="1.0" encoding="UTF-8"?>
<svg id="Camada_1" data-name="Camada 1" xmlns="http://www.w3.org/2000/svg" viewBox="0 0 870.43 643.4">
  <defs>
    <style>
      .cls-1 {
        font-size: 31.78px;
      }

      .cls-1, .cls-2, .cls-3, .cls-4, .cls-5 {
        fill: #cacaca;
        font-family: NimbusSan-Reg, 'Nimbus Sans';
      }

      .cls-2 {
        font-size: 30.28px;
      }

      .cls-6 {
        fill: #979797;
      }

      .cls-7 {
        fill: #666;
      }

      .cls-8 {
        fill: #333;
      }

      .cls-9 {
        fill: #b1b1b1;
      }

      .cls-10, .cls-11 {
        fill: #1a1a1a;
      }

      .cls-12 {
        fill: gray;
      }

      .cls-13 {
        fill: #2e0035;
      }

      .cls-14 {
        fill: #3a3a3a;
      }

      .cls-15 {
        fill: #4d4d4d;
      }

      .cls-3 {
        font-size: 57.4px;
      }

      .cls-4 {
        font-size: 43.05px;
      }

      .cls-5 {
        font-size: 28.7px;
      }

      .cls-11 {
        opacity: .36;
      }
    </style>
  </defs>
  <g>
    <g>
      <path d="m736.88,87.55c13.14.07,26.28.15,39.42.22,2.35,1.23,6.22,3.64,7.2,6.95,1.52,5.15-5,8.97-7.2,10.15h-39.42v-17.33Z"/>
      <path class="cls-8" d="m784.96,68.32h16.6c2.5,4.38,6.83,13.36,7.02,25.4.27,16.89-7.77,28.78-10.66,32.68l-12.96-1.48"/>
      <ellipse cx="784.96" cy="96.61" rx="9.49" ry="28.3"/>
    </g>
    <polygon points="66.66 106.34 0 643.4 870.43 643.4 763.26 106.34 66.66 106.34"/>
    <path class="cls-10" d="m92.74,106.34h650.64l39.77,207.56c.91,4.74-2.87,9.11-7.8,9.01l-688.3.33c-4.44-.09-7.9-3.78-7.61-8.11l13.3-208.78Z"/>
    <path class="cls-12" d="m745.75,43.85h5.14s.95-5.11,23.34-3.73l7.88-5.67h5.25v3.18c-2.17,1.94-5.33,4.31-9.54,6.22-7.18,3.25-13.73,3.48-17.42,3.32l-.14,5.58-14.52.42v-9.32Z"/>
    <g>
      <path class="cls-8" d="m106.84,12.56V0h643.77v52.75h14.38c1.51,2.86,3.62,7.8,4.07,14.25.64,9.18-2.47,16.18-4.07,19.24h-11.32l-3.81,20.09H109.71l-2.87-59.53V12.56Z"/>
      <rect id="regua_maior" data-name="regua maior" x="133.64" y="52.75" width="589.43" height="13.4"/>
      <path class="cls-6" d="m137.86,52.75h585.21v-14.45h-120.15c-1.57-6.55-6.73-11.46-12.85-12.34-7.5-1.07-15.22,4.09-17.38,12.34h-275.23c-.93-6.87-6.63-12.08-13.3-12.34-7.06-.27-13.39,5.06-14.38,12.34h-131.92v14.45Z"/>
      <path class="cls-6" d="m137.86,17.87c-.48.12-7.48,2.01-9.58,9.31-2.13,7.41,1.52,17.83,9.58,21.81v-31.12Z"/>
    </g>
    <g>
      <path class="cls-10" d="m791.79,322.54H64.16l-14.55,255.12h28.52l28.52,30.01h656.04l27.65-30.16,30.56.15-29.11-255.12Zm-14.55,210.1c-1.16,17.41-12.22,27.91-14.55,30.01h-87.32c2.33,7.65.87,12.91,0,15.01-4.22,10.95-18.92,18.01-36.09,15.01H209.69c-7.42-1.95-18.48-5.85-29.11-15.01-3.64-3.15-6.69-6.45-9.17-9.45h-60.98c-17.46,0-31.72-14.71-31.72-32.71v-62.88c1.31-6.6,4.8-18.76,14.55-30.01,5.09-5.85,10.33-9.9,14.55-12.46v-37.37c-1.45-.9-13.39-9.45-14.55-25.21-.87-11.86,4.8-23.26,14.55-30.01,218.29,3.45,436.58-3.45,654.87,0,3.49,4.2,12.95,26.71,14.55,45.02,2.04,24.76-11.93,41.87-14.55,45.02v68.73c1.75,1.65,16.01,15.16,14.55,36.32Z"/>
      <g>
        <path class="cls-15" d="m181.31,106.34h509.34c-21.88,4.21-38.54,21.65-41.3,42.36-3.34,25.05,14.21,50.68,41.3,56.48-25.05,22.52-108.66,91.93-235.28,98.44-150.71,7.74-252.64-79.28-274.06-98.44,27.09-5.8,44.64-31.43,41.3-56.48-2.76-20.71-19.41-38.15-41.3-42.36Z"/>
        <g>
          <polygon class="cls-10" points="258.57 217.97 258.22 217.4 319.01 180.43 319.36 181.01 258.57 217.97"/>
          <polygon class="cls-10" points="248.28 208.13 247.93 207.55 308.73 170.59 309.08 171.17 248.28 208.13"/>
          <polygon class="cls-10" points="274.38 229.98 273.99 229.45 329.47 189.09 329.86 189.63 274.38 229.98"/>
          <polygon class="cls-10" points="292.35 238.73 291.91 238.22 339.9 196.64 340.35 197.15 292.35 238.73"/>
          <polygon class="cls-10" points="310.75 248.36 310.28 247.89 352.99 204.55 353.46 205.02 310.75 248.36"/>
          <rect class="cls-10" x="320.92" y="232.11" width="54.56" height=".67" transform="translate(-47.21 370) rotate(-52.91)"/>
          <polygon class="cls-10" points="350.58 260.3 350.01 259.97 375.56 215.41 376.14 215.74 350.58 260.3"/>
          <polygon class="cls-10" points="367.16 264.07 366.55 263.79 386.24 219.2 386.85 219.48 367.16 264.07"/>
          <polygon class="cls-10" points="382.25 267.26 381.62 267.03 398.01 222.28 398.64 222.52 382.25 267.26"/>
          <polygon class="cls-10" points="400.73 269.8 400.08 269.67 409.23 224.87 409.88 225 400.73 269.8"/>
          <rect class="cls-10" x="396.63" y="248.68" width="45.46" height=".67" transform="translate(146.15 653.03) rotate(-86.63)"/>
          <rect class="cls-10" x="408.96" y="250.18" width="47.3" height=".67" transform="translate(165.34 672.98) rotate(-87.75)"/>
          <polygon class="cls-10" points="448.65 273.87 446.26 226.73 446.93 226.69 449.32 273.83 448.65 273.87"/>
          <polygon class="cls-10" points="466.05 274.89 456.06 225.5 456.71 225.37 466.71 274.76 466.05 274.89"/>
          <polygon class="cls-10" points="487.66 274.28 467.05 224.26 467.68 224 488.29 274.02 487.66 274.28"/>
          <polygon class="cls-10" points="507.03 272.48 478.7 221.9 479.28 221.57 507.6 272.15 507.03 272.48"/>
          <rect class="cls-10" x="506.98" y="212.93" width=".68" height="59.66" transform="translate(-52.04 301.3) rotate(-31.55)"/>
          <polygon class="cls-10" points="539.04 262.96 501.39 213.87 501.91 213.47 539.56 262.55 539.04 262.96"/>
          <polygon class="cls-10" points="555.95 257.79 511.95 209.29 512.44 208.84 556.45 257.34 555.95 257.79"/>
          <polygon class="cls-10" points="572.03 248.57 522.58 203.03 523.03 202.54 572.48 248.08 572.03 248.57"/>
          <polygon class="cls-10" points="583.14 241.47 533.69 195.94 534.13 195.44 583.58 240.97 583.14 241.47"/>
          <polygon class="cls-10" points="594.3 232.83 544.83 187.3 545.28 186.81 594.74 232.34 594.3 232.83"/>
          <polygon class="cls-10" points="603.35 224.59 553.9 179.06 554.34 178.56 603.8 224.1 603.35 224.59"/>
          <polygon class="cls-10" points="614.43 213.33 562.59 170.53 563.01 170.02 614.85 212.82 614.43 213.33"/>
          <g>
            <polygon class="cls-7" points="614.32 212.67 627.52 219.33 623.85 221.2 614.32 212.67"/>
            <polyline class="cls-10" points="614.32 212.67 615.17 217.69 623.59 225.02 627.42 223.52 627.52 219.33 623.85 221.2"/>
          </g>
          <g>
            <polygon class="cls-7" points="602.59 223.07 615.79 229.74 612.12 231.61 602.59 223.07"/>
            <polyline class="cls-10" points="602.59 223.07 603.44 228.1 611.86 235.42 615.69 233.93 615.79 229.74 612.12 231.61"/>
          </g>
          <g>
            <polygon class="cls-7" points="594.13 232.01 607.33 238.68 603.66 240.55 594.13 232.01"/>
            <polyline class="cls-10" points="594.13 232.01 594.99 237.04 603.4 244.36 607.23 242.87 607.33 238.68 603.66 240.55"/>
          </g>
          <g>
            <polygon class="cls-7" points="582.7 240.24 595.9 246.9 592.23 248.78 582.7 240.24"/>
            <polyline class="cls-10" points="582.7 240.24 583.56 245.27 591.97 252.59 595.81 251.1 595.9 246.9 592.23 248.78"/>
          </g>
          <g>
            <polygon class="cls-7" points="571.5 247.43 584.7 254.1 581.04 255.97 571.5 247.43"/>
            <polyline class="cls-10" points="571.5 247.43 572.36 252.46 580.77 259.78 584.61 258.29 584.7 254.1 581.04 255.97"/>
          </g>
          <g>
            <polygon class="cls-7" points="555.35 256.21 568.55 262.88 564.88 264.75 555.35 256.21"/>
            <polyline class="cls-10" points="555.35 256.21 556.21 261.24 564.62 268.57 568.46 267.07 568.55 262.88 564.88 264.75"/>
          </g>
          <g>
            <polygon class="cls-7" points="538.82 262.01 552.01 268.67 548.35 270.55 538.82 262.01"/>
            <polyline class="cls-10" points="538.82 262.01 539.67 267.04 548.08 274.36 551.92 272.87 552.01 268.67 548.35 270.55"/>
          </g>
          <g>
            <polygon class="cls-7" points="522.7 267.42 535.49 274.85 531.72 276.5 522.7 267.42"/>
            <polyline class="cls-10" points="522.7 267.42 523.26 272.49 531.23 280.29 535.15 279.03 535.49 274.85 531.72 276.5"/>
          </g>
          <g>
            <polygon class="cls-7" points="506.71 270.99 519.38 278.6 515.58 280.2 506.71 270.99"/>
            <polyline class="cls-10" points="506.71 270.99 507.19 276.06 515.04 283.99 518.98 282.78 519.38 278.6 515.58 280.2"/>
          </g>
          <g>
            <polygon class="cls-7" points="487.55 273.12 500.22 280.74 496.42 282.34 487.55 273.12"/>
            <polyline class="cls-10" points="487.55 273.12 488.03 278.2 495.88 286.12 499.82 284.92 500.22 280.74 496.42 282.34"/>
          </g>
          <g>
            <polygon class="cls-7" points="448.77 273.05 459.85 282.84 455.83 283.73 448.77 273.05"/>
            <polyline class="cls-10" points="448.77 273.05 448.32 278.13 454.6 287.35 458.69 286.88 459.85 282.84 455.83 283.73"/>
          </g>
          <g>
            <polygon class="cls-7" points="431.47 272.8 442.55 282.59 438.53 283.48 431.47 272.8"/>
            <polyline class="cls-10" points="431.47 272.8 431.02 277.88 437.31 287.1 441.4 286.62 442.55 282.59 438.53 283.48"/>
          </g>
          <g>
            <polygon class="cls-7" points="417.78 271 428.86 280.79 424.84 281.68 417.78 271"/>
            <polyline class="cls-10" points="417.78 271 417.34 276.08 423.62 285.3 427.71 284.83 428.86 280.79 424.84 281.68"/>
          </g>
          <g>
            <polygon class="cls-7" points="400.08 269.19 411.16 278.98 407.14 279.86 400.08 269.19"/>
            <polyline class="cls-10" points="400.08 269.19 399.63 274.27 405.92 283.49 410.01 283.01 411.16 278.98 407.14 279.86"/>
          </g>
          <g>
            <polygon class="cls-7" points="381.63 266.6 392.71 276.4 388.69 277.28 381.63 266.6"/>
            <polyline class="cls-10" points="381.63 266.6 381.18 271.68 387.46 280.9 391.55 280.43 392.71 276.4 388.69 277.28"/>
          </g>
          <g>
            <polygon class="cls-7" points="350.38 258.94 357.37 271.97 353.29 271.4 350.38 258.94"/>
            <polyline class="cls-10" points="350.38 258.94 348.2 263.55 350.89 274.37 354.89 275.35 357.37 271.97 353.29 271.4"/>
          </g>
          <g>
            <polygon class="cls-7" points="310.69 247.33 316.13 261.08 312.14 260.05 310.69 247.33"/>
            <polyline class="cls-10" points="310.69 247.33 307.99 251.66 309.41 262.72 313.27 264.15 316.13 261.08 312.14 260.05"/>
          </g>
          <g>
            <polygon class="cls-7" points="292.1 237.86 297.54 251.61 293.55 250.57 292.1 237.86"/>
            <polyline class="cls-10" points="292.1 237.86 289.4 242.18 290.82 253.25 294.68 254.68 297.54 251.61 293.55 250.57"/>
          </g>
          <g>
            <polygon class="cls-7" points="258.65 216.85 261.25 231.41 257.55 229.6 258.65 216.85"/>
            <polyline class="cls-10" points="258.65 216.85 255.14 220.56 254.35 231.68 257.85 233.85 261.25 231.41 257.55 229.6"/>
          </g>
          <g>
            <polygon class="cls-7" points="274.95 228.36 276.12 243.1 272.62 240.94 274.95 228.36"/>
            <polyline class="cls-10" points="274.95 228.36 271.1 231.71 269.22 242.7 272.49 245.2 276.12 243.1 272.62 240.94"/>
          </g>
          <g>
            <polygon class="cls-7" points="250.44 206.04 249.16 220.77 246.06 218.07 250.44 206.04"/>
            <polyline class="cls-10" points="250.44 206.04 246.09 208.71 242.42 219.24 245.24 222.24 249.16 220.77 246.06 218.07"/>
          </g>
          <g>
            <polygon class="cls-7" points="331.89 253.25 337.33 267 333.35 265.96 331.89 253.25"/>
            <polyline class="cls-10" points="331.89 253.25 329.19 257.58 330.62 268.64 334.48 270.07 337.33 267 333.35 265.96"/>
          </g>
          <g>
            <polygon class="cls-7" points="366.86 263 375.33 275.11 371.22 275.03 366.86 263"/>
            <polyline class="cls-10" points="366.86 263 365.23 267.83 369.18 278.26 373.27 278.76 375.33 275.11 371.22 275.03"/>
          </g>
          <g>
            <polygon class="cls-7" points="466.08 273.86 477.67 283.03 473.7 284.13 466.08 273.86"/>
            <polyline class="cls-10" points="466.08 273.86 465.91 278.96 472.68 287.82 476.74 287.12 477.67 283.03 473.7 284.13"/>
          </g>
        </g>
        <path class="cls-12" d="m348.48,142h75.62l-.37-35.67h25.38l-.16,35.67h70.64l43.22,28.3c-9.24,9.93-52.13,53.89-120.57,56.59-76.72,3.04-126.05-48.11-133.96-56.59,13.4-9.43,26.79-18.86,40.19-28.3Z"/>
      </g>
    </g>
    <path class="cls-6" d="m364.86,142.48c1.86,3.04,22.81,36.03,63.8,38.9,30.25,2.12,59.56-13,75.59-38.9h-139.39Z"/>
    <path class="cls-7" d="m385,142.48c2.11,2.95,17.47,23.67,45.14,25.66,32.97,2.38,52.8-24.03,53.98-25.66"/>
    <g>
      <ellipse class="cls-14" cx="123.66" cy="85.66" rx="14.95" ry="19.51"/>
      <path class="cls-10" d="m119.63,66.15h602.22c1.38.55,11.21,4.28,14.01,13.4,2.92,9.5,0,26.79-13.51,26.79H119.63c11.01-5.61,16.28-17.24,13.38-26.79-2.79-9.19-13.38-13.4-13.38-13.4Z"/>
    </g>
    <path class="cls-11" d="m111.64,36.31l-.65-.18c.16,2.03.62,3.57,1.03,4.61.98,2.51,2.15,3.56,2.63,6.06.25,1.28.2,2.38.12,3.11.34-.09.68-.17,1.02-.26.09-1.18.09-2.57-.13-4.09-.63-4.39-2.7-7.55-4.03-9.25Z"/>
    <g>
      <path class="cls-7" d="m452.52,74.24h6.29c-.29.27-2.79,2.71-2.36,6.29.31,2.51,1.88,4.06,2.36,4.49h78.35c7.5,5.35,11.12,11.03,9.67,13.69-1.41,2.61-7.46,1.98-9,1.8v7.18l-65.11-8.55.67,17.98c-.17.21-2.03,2.42-5.01,2.22-2.5-.17-3.96-1.92-4.2-2.22.07-5.99.15-11.98.22-17.98-6.33,1.5-12.85-1.41-15.84-6.95-3.22-5.97-1.6-13.64,3.94-17.96Z"/>
      <path id="regua_menor" data-name="regua menor" class="cls-7" d="m332.54,84.46c30,0,60,.02,90,.02.62,1.05,1.63,2.4,1.81,5.17.23,3.71-1.18,4.59-1.81,5.64h-14.61v20.06c-.82,1.37-2.32,2.11-3.78,1.87-1.66-.27-2.49-1.68-2.59-1.87-.31-6.69-.62-13.38-.93-20.06h-67.82c-2.41-1.42-3.72-4.05-3.3-6.56.45-2.69,2.67-4.07,3.02-4.29Z"/>
    </g>
    <g>
      <g>
        <rect class="cls-9" x="148.39" y="61.62" width=".41" height="4.53"/>
        <rect class="cls-9" x="145.76" y="61.62" width=".41" height="4.53"/>
        <rect class="cls-9" x="151.24" y="59.45" width=".8" height="6.7"/>
      </g>
      <g>
        <rect class="cls-9" x="156.66" y="61.62" width=".41" height="4.53"/>
        <rect class="cls-9" x="154.04" y="61.62" width=".41" height="4.53"/>
        <rect class="cls-9" x="159.51" y="59.45" width=".8" height="6.7"/>
      </g>
      <g>
        <rect class="cls-9" x="165.29" y="61.62" width=".41" height="4.53"/>
        <rect class="cls-9" x="162.67" y="61.62" width=".41" height="4.53"/>
        <rect class="cls-9" x="168.14" y="59.45" width=".8" height="6.7"/>
      </g>
      <g>
        <rect class="cls-9" x="174" y="61.62" width=".41" height="4.53"/>
        <rect class="cls-9" x="171.37" y="61.62" width=".41" height="4.53"/>
        <rect class="cls-9" x="176.85" y="59.45" width=".8" height="6.7"/>
      </g>
      <g>
        <rect class="cls-9" x="182.64" y="61.62" width=".41" height="4.53"/>
        <rect class="cls-9" x="180.01" y="61.62" width=".41" height="4.53"/>
        <rect class="cls-9" x="185.47" y="59.45" width=".8" height="6.7"/>
      </g>
      <g>
        <rect class="cls-9" x="191.41" y="61.62" width=".41" height="4.53"/>
        <rect class="cls-9" x="188.78" y="61.62" width=".41" height="4.53"/>
        <rect class="cls-9" x="194.25" y="59.45" width=".8" height="6.7"/>
      </g>
      <g>
        <rect class="cls-9" x="200.26" y="61.62" width=".41" height="4.53"/>
        <rect class="cls-9" x="197.63" y="61.62" width=".41" height="4.53"/>
        <rect class="cls-9" x="203.1" y="59.45" width=".8" height="6.7"/>
      </g>
      <g>
        <rect class="cls-9" x="208.75" y="61.62" width=".41" height="4.53"/>
        <rect class="cls-9" x="206.12" y="61.62" width=".41" height="4.53"/>
        <rect class="cls-9" x="211.59" y="59.45" width=".8" height="6.7"/>
      </g>
      <g>
        <rect class="cls-9" x="216.88" y="61.62" width=".41" height="4.53"/>
        <rect class="cls-9" x="214.25" y="61.62" width=".41" height="4.53"/>
        <rect class="cls-9" x="219.72" y="59.45" width=".8" height="6.7"/>
      </g>
      <g>
        <rect class="cls-9" x="225.29" y="61.62" width=".41" height="4.53"/>
        <rect class="cls-9" x="222.67" y="61.62" width=".41" height="4.53"/>
        <rect class="cls-9" x="228.13" y="59.45" width=".8" height="6.7"/>
      </g>
      <g>
        <rect class="cls-9" x="233.85" y="61.62" width=".41" height="4.53"/>
        <rect class="cls-9" x="231.23" y="61.62" width=".41" height="4.53"/>
        <rect class="cls-9" x="236.7" y="59.45" width=".8" height="6.7"/>
      </g>
      <g>
        <rect class="cls-9" x="242.7" y="61.62" width=".41" height="4.53"/>
        <rect class="cls-9" x="240.07" y="61.62" width=".41" height="4.53"/>
        <rect class="cls-9" x="245.55" y="59.45" width=".8" height="6.7"/>
      </g>
      <g>
        <rect class="cls-9" x="252.31" y="61.62" width=".41" height="4.53"/>
        <rect class="cls-9" x="249.69" y="61.62" width=".41" height="4.53"/>
        <rect class="cls-9" x="255.16" y="59.45" width=".8" height="6.7"/>
      </g>
    </g>
    <g>
      <g>
        <rect class="cls-9" x="261.72" y="61.5" width=".41" height="4.54"/>
        <rect class="cls-9" x="259.09" y="61.5" width=".41" height="4.54"/>
        <rect class="cls-9" x="264.56" y="59.35" width=".8" height="6.7"/>
      </g>
      <g>
        <rect class="cls-9" x="269.99" y="61.5" width=".41" height="4.54"/>
        <rect class="cls-9" x="267.36" y="61.5" width=".41" height="4.54"/>
        <rect class="cls-9" x="272.83" y="59.35" width=".8" height="6.7"/>
      </g>
      <g>
        <rect class="cls-9" x="278.62" y="61.5" width=".41" height="4.54"/>
        <rect class="cls-9" x="276" y="61.5" width=".41" height="4.54"/>
        <rect class="cls-9" x="281.46" y="59.35" width=".8" height="6.7"/>
      </g>
      <g>
        <rect class="cls-9" x="287.33" y="61.5" width=".41" height="4.54"/>
        <rect class="cls-9" x="284.7" y="61.5" width=".41" height="4.54"/>
        <rect class="cls-9" x="290.17" y="59.35" width=".8" height="6.7"/>
      </g>
      <g>
        <rect class="cls-9" x="295.96" y="61.5" width=".41" height="4.54"/>
        <rect class="cls-9" x="293.33" y="61.5" width=".41" height="4.54"/>
        <rect class="cls-9" x="298.8" y="59.35" width=".8" height="6.7"/>
      </g>
      <g>
        <rect class="cls-9" x="304.74" y="61.5" width=".41" height="4.54"/>
        <rect class="cls-9" x="302.11" y="61.5" width=".41" height="4.54"/>
        <rect class="cls-9" x="307.58" y="59.35" width=".8" height="6.7"/>
      </g>
      <g>
        <rect class="cls-9" x="313.58" y="61.5" width=".41" height="4.54"/>
        <rect class="cls-9" x="310.96" y="61.5" width=".41" height="4.54"/>
        <rect class="cls-9" x="316.43" y="59.35" width=".8" height="6.7"/>
      </g>
      <g>
        <rect class="cls-9" x="322.07" y="61.5" width=".41" height="4.54"/>
        <rect class="cls-9" x="319.45" y="61.5" width=".41" height="4.54"/>
        <rect class="cls-9" x="324.92" y="59.35" width=".8" height="6.7"/>
      </g>
      <g>
        <rect class="cls-9" x="330.2" y="61.5" width=".41" height="4.54"/>
        <rect class="cls-9" x="327.57" y="61.5" width=".41" height="4.54"/>
        <rect class="cls-9" x="333.05" y="59.35" width=".8" height="6.7"/>
      </g>
      <g>
        <rect class="cls-9" x="338.62" y="61.5" width=".41" height="4.54"/>
        <rect class="cls-9" x="335.99" y="61.5" width=".41" height="4.54"/>
        <rect class="cls-9" x="341.46" y="59.35" width=".8" height="6.7"/>
      </g>
      <g>
        <rect class="cls-9" x="347.18" y="61.5" width=".41" height="4.54"/>
        <rect class="cls-9" x="344.55" y="61.5" width=".41" height="4.54"/>
        <rect class="cls-9" x="350.02" y="59.35" width=".8" height="6.7"/>
      </g>
      <g>
        <rect class="cls-9" x="356.03" y="61.5" width=".41" height="4.54"/>
        <rect class="cls-9" x="353.4" y="61.5" width=".41" height="4.54"/>
        <rect class="cls-9" x="358.87" y="59.35" width=".8" height="6.7"/>
      </g>
      <g>
        <rect class="cls-9" x="365.64" y="61.5" width=".41" height="4.54"/>
        <rect class="cls-9" x="363.01" y="61.5" width=".41" height="4.54"/>
        <rect class="cls-9" x="368.48" y="59.35" width=".8" height="6.7"/>
      </g>
    </g>
    <g>
      <g>
        <rect class="cls-9" x="375.43" y="61.56" width=".41" height="4.54"/>
        <rect class="cls-9" x="372.8" y="61.56" width=".41" height="4.54"/>
        <rect class="cls-9" x="378.27" y="59.4" width=".8" height="6.7"/>
      </g>
      <g>
        <rect class="cls-9" x="383.7" y="61.56" width=".41" height="4.54"/>
        <rect class="cls-9" x="381.07" y="61.56" width=".41" height="4.54"/>
        <rect class="cls-9" x="386.55" y="59.4" width=".8" height="6.7"/>
      </g>
      <g>
        <rect class="cls-9" x="392.34" y="61.56" width=".41" height="4.54"/>
        <rect class="cls-9" x="389.71" y="61.56" width=".41" height="4.54"/>
        <rect class="cls-9" x="395.17" y="59.4" width=".8" height="6.7"/>
      </g>
      <g>
        <rect class="cls-9" x="401.04" y="61.56" width=".41" height="4.54"/>
        <rect class="cls-9" x="398.41" y="61.56" width=".41" height="4.54"/>
        <rect class="cls-9" x="403.88" y="59.4" width=".8" height="6.7"/>
      </g>
      <g>
        <rect class="cls-9" x="409.67" y="61.56" width=".41" height="4.54"/>
        <rect class="cls-9" x="407.05" y="61.56" width=".41" height="4.54"/>
        <rect class="cls-9" x="412.52" y="59.4" width=".8" height="6.7"/>
      </g>
      <g>
        <rect class="cls-9" x="418.45" y="61.56" width=".41" height="4.54"/>
        <rect class="cls-9" x="415.82" y="61.56" width=".41" height="4.54"/>
        <rect class="cls-9" x="421.29" y="59.4" width=".8" height="6.7"/>
      </g>
      <g>
        <rect class="cls-9" x="427.3" y="61.56" width=".41" height="4.54"/>
        <rect class="cls-9" x="424.67" y="61.56" width=".41" height="4.54"/>
        <rect class="cls-9" x="430.14" y="59.4" width=".8" height="6.7"/>
      </g>
      <g>
        <rect class="cls-9" x="435.78" y="61.56" width=".41" height="4.54"/>
        <rect class="cls-9" x="433.16" y="61.56" width=".41" height="4.54"/>
        <rect class="cls-9" x="438.63" y="59.4" width=".8" height="6.7"/>
      </g>
      <g>
        <rect class="cls-9" x="443.91" y="61.56" width=".41" height="4.54"/>
        <rect class="cls-9" x="441.29" y="61.56" width=".41" height="4.54"/>
        <rect class="cls-9" x="446.76" y="59.4" width=".8" height="6.7"/>
      </g>
      <g>
        <rect class="cls-9" x="452.34" y="61.56" width=".39" height="4.54"/>
        <rect class="cls-9" x="449.71" y="61.56" width=".39" height="4.54"/>
        <rect class="cls-9" x="455.16" y="59.4" width=".81" height="6.7"/>
      </g>
      <g>
        <rect class="cls-9" x="460.89" y="61.56" width=".39" height="4.54"/>
        <rect class="cls-9" x="458.28" y="61.56" width=".39" height="4.54"/>
        <rect class="cls-9" x="463.73" y="59.4" width=".81" height="6.7"/>
      </g>
      <g>
        <rect class="cls-9" x="469.75" y="61.56" width=".39" height="4.54"/>
        <rect class="cls-9" x="467.12" y="61.56" width=".39" height="4.54"/>
        <rect class="cls-9" x="472.58" y="59.4" width=".81" height="6.7"/>
      </g>
      <g>
        <rect class="cls-9" x="479.35" y="61.56" width=".39" height="4.54"/>
        <rect class="cls-9" x="476.74" y="61.56" width=".39" height="4.54"/>
        <rect class="cls-9" x="482.19" y="59.4" width=".81" height="6.7"/>
      </g>
    </g>
    <g>
      <g>
        <rect class="cls-9" x="488.76" y="61.45" width=".39" height="4.54"/>
        <rect class="cls-9" x="486.14" y="61.45" width=".39" height="4.54"/>
        <rect class="cls-9" x="491.6" y="59.29" width=".81" height="6.7"/>
      </g>
      <g>
        <rect class="cls-9" x="497.04" y="61.45" width=".39" height="4.54"/>
        <rect class="cls-9" x="494.41" y="61.45" width=".39" height="4.54"/>
        <rect class="cls-9" x="499.86" y="59.29" width=".81" height="6.7"/>
      </g>
      <g>
        <rect class="cls-9" x="505.66" y="61.45" width=".39" height="4.54"/>
        <rect class="cls-9" x="503.04" y="61.45" width=".39" height="4.54"/>
        <rect class="cls-9" x="508.5" y="59.29" width=".81" height="6.7"/>
      </g>
      <g>
        <rect class="cls-9" x="514.37" y="61.45" width=".39" height="4.54"/>
        <rect class="cls-9" x="511.74" y="61.45" width=".39" height="4.54"/>
        <rect class="cls-9" x="517.2" y="59.29" width=".81" height="6.7"/>
      </g>
      <g>
        <rect class="cls-9" x="523.01" y="61.45" width=".39" height="4.54"/>
        <rect class="cls-9" x="520.38" y="61.45" width=".39" height="4.54"/>
        <rect class="cls-9" x="525.83" y="59.29" width=".81" height="6.7"/>
      </g>
      <g>
        <rect class="cls-9" x="531.79" y="61.45" width=".39" height="4.54"/>
        <rect class="cls-9" x="529.16" y="61.45" width=".39" height="4.54"/>
        <rect class="cls-9" x="534.61" y="59.29" width=".81" height="6.7"/>
      </g>
      <g>
        <rect class="cls-9" x="540.63" y="61.45" width=".39" height="4.54"/>
        <rect class="cls-9" x="538" y="61.45" width=".39" height="4.54"/>
        <rect class="cls-9" x="543.45" y="59.29" width=".81" height="6.7"/>
      </g>
      <g>
        <rect class="cls-9" x="549.12" y="61.45" width=".39" height="4.54"/>
        <rect class="cls-9" x="546.49" y="61.45" width=".39" height="4.54"/>
        <rect class="cls-9" x="551.94" y="59.29" width=".81" height="6.7"/>
      </g>
      <g>
        <rect class="cls-9" x="557.24" y="61.45" width=".39" height="4.54"/>
        <rect class="cls-9" x="554.61" y="61.45" width=".39" height="4.54"/>
        <rect class="cls-9" x="560.08" y="59.29" width=".81" height="6.7"/>
      </g>
      <g>
        <rect class="cls-9" x="565.67" y="61.45" width=".39" height="4.54"/>
        <rect class="cls-9" x="563.04" y="61.45" width=".39" height="4.54"/>
        <rect class="cls-9" x="568.49" y="59.29" width=".81" height="6.7"/>
      </g>
      <g>
        <rect class="cls-9" x="574.22" y="61.45" width=".39" height="4.54"/>
        <rect class="cls-9" x="571.59" y="61.45" width=".39" height="4.54"/>
        <rect class="cls-9" x="577.05" y="59.29" width=".81" height="6.7"/>
      </g>
      <g>
        <rect class="cls-9" x="583.07" y="61.45" width=".39" height="4.54"/>
        <rect class="cls-9" x="580.45" y="61.45" width=".39" height="4.54"/>
        <rect class="cls-9" x="585.91" y="59.29" width=".81" height="6.7"/>
      </g>
      <g>
        <rect class="cls-9" x="592.68" y="61.45" width=".39" height="4.54"/>
        <rect class="cls-9" x="590.05" y="61.45" width=".39" height="4.54"/>
        <rect class="cls-9" x="595.51" y="59.29" width=".81" height="6.7"/>
      </g>
    </g>
    <g>
      <g>
        <rect class="cls-9" x="601.04" y="61.45" width=".39" height="4.54"/>
        <rect class="cls-9" x="598.43" y="61.45" width=".39" height="4.54"/>
        <rect class="cls-9" x="603.88" y="59.29" width=".81" height="6.7"/>
      </g>
      <g>
        <rect class="cls-9" x="609.32" y="61.45" width=".39" height="4.54"/>
        <rect class="cls-9" x="606.69" y="61.45" width=".39" height="4.54"/>
        <rect class="cls-9" x="612.15" y="59.29" width=".81" height="6.7"/>
      </g>
      <g>
        <rect class="cls-9" x="617.96" y="61.45" width=".39" height="4.54"/>
        <rect class="cls-9" x="615.33" y="61.45" width=".39" height="4.54"/>
        <rect class="cls-9" x="620.78" y="59.29" width=".81" height="6.7"/>
      </g>
      <g>
        <rect class="cls-9" x="626.66" y="61.45" width=".39" height="4.54"/>
        <rect class="cls-9" x="624.03" y="61.45" width=".39" height="4.54"/>
        <rect class="cls-9" x="629.48" y="59.29" width=".81" height="6.7"/>
      </g>
      <g>
        <rect class="cls-9" x="635.29" y="61.45" width=".39" height="4.54"/>
        <rect class="cls-9" x="632.66" y="61.45" width=".39" height="4.54"/>
        <rect class="cls-9" x="638.12" y="59.29" width=".81" height="6.7"/>
      </g>
      <g>
        <rect class="cls-9" x="644.07" y="61.45" width=".39" height="4.54"/>
        <rect class="cls-9" x="641.44" y="61.45" width=".39" height="4.54"/>
        <rect class="cls-9" x="646.9" y="59.29" width=".81" height="6.7"/>
      </g>
      <g>
        <rect class="cls-9" x="652.91" y="61.45" width=".39" height="4.54"/>
        <rect class="cls-9" x="650.28" y="61.45" width=".39" height="4.54"/>
        <rect class="cls-9" x="655.74" y="59.29" width=".81" height="6.7"/>
      </g>
      <g>
        <rect class="cls-9" x="661.4" y="61.45" width=".39" height="4.54"/>
        <rect class="cls-9" x="658.77" y="61.45" width=".39" height="4.54"/>
        <rect class="cls-9" x="664.23" y="59.29" width=".81" height="6.7"/>
      </g>
      <g>
        <rect class="cls-9" x="669.53" y="61.45" width=".39" height="4.54"/>
        <rect class="cls-9" x="666.91" y="61.45" width=".39" height="4.54"/>
        <rect class="cls-9" x="672.37" y="59.29" width=".81" height="6.7"/>
      </g>
      <g>
        <rect class="cls-9" x="677.95" y="61.45" width=".39" height="4.54"/>
        <rect class="cls-9" x="675.32" y="61.45" width=".39" height="4.54"/>
        <rect class="cls-9" x="680.78" y="59.29" width=".81" height="6.7"/>
      </g>
      <g>
        <rect class="cls-9" x="686.51" y="61.45" width=".39" height="4.54"/>
        <rect class="cls-9" x="683.88" y="61.45" width=".39" height="4.54"/>
        <rect class="cls-9" x="689.33" y="59.29" width=".81" height="6.7"/>
      </g>
      <g>
        <rect class="cls-9" x="695.35" y="61.45" width=".39" height="4.54"/>
        <rect class="cls-9" x="692.74" y="61.45" width=".39" height="4.54"/>
        <rect class="cls-9" x="698.19" y="59.29" width=".81" height="6.7"/>
      </g>
      <g>
        <rect class="cls-9" x="704.97" y="61.45" width=".39" height="4.54"/>
        <rect class="cls-9" x="702.34" y="61.45" width=".39" height="4.54"/>
        <rect class="cls-9" x="707.79" y="59.29" width=".81" height="6.7"/>
      </g>
    </g>
    <g>
      <path class="cls-10" d="m113.69,72.83v26.82c1.16.56,2.94,1.23,5.18,1.43,3.68.33,6.56-.79,7.92-1.43v-26.82c-1.71-.52-4.27-1.09-7.39-.97-2.31.09-4.25.52-5.7.97Z"/>
      <path id="rodinha_1" data-name="rodinha 1" class="cls-10" d="m53.71,80.76c-1.01-4.06-1.91-5.35-1.58-11.94.21-4.06.84-7.62,1.58-10.56h-15.09c-1.24,3.62-2.35,7.79-3.06,12.45-2.21,14.52.54,26.77,3.06,34.47h13.99l.72-13.43h60.63v-10.95l-60.25-.03Z"/>
    </g>
    <g>
      <polygon id="alavanca_lateral" data-name="alavanca lateral" class="cls-12" points="120.24 39.22 80.05 25.82 53.26 106.2 31.7 119.59 31.7 133.15 55.87 140.3 93.45 52.54 120.24 49.14 120.24 39.22"/>
      <g>
        <circle id="parafuso_alavanca_2" data-name="parafuso alavanca 2" class="cls-7" cx="84.28" cy="35.11" r="4.86"/>
        <path class="cls-15" d="m82.26,31.87c1.84,2.31,2.69,3.85,3.67,6.62-1.84-2.31-2.69-3.85-3.67-6.62h0Z"/>
      </g>
      <g>
        <path id="mecanismo_alavanca" data-name="mecanismo alavanca" class="cls-12" d="m123.6,25.53c-1.37-.63-2.78-1.26-4.25-1.88-1.12-.47-2.23-.92-3.32-1.35-1.95,1.63-3.04,3.32-3.67,4.59-4.11,8.35,2.22,17.78,2.73,18.51.38,2.05.9,6.5-1.04,11.5-1.2,3.09-2.9,5.28-4.15,6.63,1.93,1.04,3.87,2.07,5.8,3.11,2.01-1.13,5.46-3.46,8.08-7.67,4.92-7.9,3.04-16.25,2.59-18.03-.93-5.14-1.87-10.29-2.8-15.43Z"/>
        <g>
          <circle id="parafuso_alavanca" data-name="parafuso alavanca" class="cls-15" cx="118.26" cy="30.26" r="4.56"/>
          <path class="cls-8" d="m116.69,26.94c1.84,2.31,2.69,3.85,3.67,6.62-1.84-2.31-2.69-3.85-3.67-6.62h0Z"/>
        </g>
      </g>
    </g>
  </g>
  <g>
    <circle class="cls-13" cx="127.89" cy="368.11" r="19.87"/>
    <path class="cls-9" d="m127.89,389.78c-11.95,0-21.67-9.73-21.67-21.67s9.72-21.68,21.67-21.68,21.67,9.73,21.67,21.68-9.72,21.67-21.67,21.67Zm0-39.76c-9.97,0-18.08,8.11-18.08,18.09s8.11,18.08,18.08,18.08,18.08-8.11,18.08-18.08-8.11-18.09-18.08-18.09Z"/>
  </g>
  <g>
    <circle class="cls-13" cx="113.23" cy="483.19" r="19.87"/>
    <path class="cls-9" d="m113.23,504.85c-11.95,0-21.67-9.73-21.67-21.67s9.72-21.67,21.67-21.67,21.67,9.73,21.67,21.67-9.72,21.67-21.67,21.67Zm0-39.74c-9.97,0-18.08,8.11-18.08,18.08s8.11,18.08,18.08,18.08,18.08-8.11,18.08-18.08-8.11-18.08-18.08-18.08Z"/>
  </g>
  <g>
    <circle class="cls-13" cx="738.96" cy="526.47" r="23.41"/>
    <path class="cls-9" d="m738.97,551.67c-13.9,0-25.21-11.31-25.21-25.2s11.31-25.21,25.21-25.21,25.2,11.31,25.2,25.21-11.31,25.2-25.2,25.2Zm0-46.82c-11.93,0-21.62,9.7-21.62,21.62s9.7,21.61,21.62,21.61,21.61-9.7,21.61-21.61-9.7-21.62-21.61-21.62Z"/>
  </g>
  <g>
    <circle class="cls-13" cx="116.77" cy="532.2" r="23.41"/>
    <path class="cls-9" d="m116.77,557.4c-13.89,0-25.2-11.31-25.2-25.21s11.31-25.2,25.2-25.2,25.2,11.31,25.2,25.2-11.31,25.21-25.2,25.21Zm0-46.82c-11.92,0-21.62,9.7-21.62,21.61s9.7,21.62,21.62,21.62,21.62-9.7,21.62-21.62-9.7-21.61-21.62-21.61Z"/>
  </g>
  <g>
    <circle class="cls-13" cx="739.82" cy="365.4" r="21.16"/>
    <path class="cls-9" d="m739.85,388.35c-7.41,0-14.7-3.57-19.12-10.19-7.04-10.52-4.19-24.82,6.33-31.84,5.09-3.42,11.24-4.61,17.22-3.43,6.01,1.19,11.21,4.65,14.6,9.75,3.42,5.09,4.64,11.21,3.43,17.22-1.19,6.01-4.65,11.21-9.75,14.62-3.91,2.62-8.34,3.87-12.72,3.87Zm-.06-42.31c-3.7,0-7.43,1.05-10.73,3.25-8.87,5.94-11.27,17.99-5.35,26.88,5.96,8.87,18.01,11.25,26.88,5.34,8.88-5.96,11.27-18.01,5.34-26.88h0c-3.73-5.58-9.88-8.59-16.13-8.59Z"/>
  </g>
  <g id="espaco">
    <rect class="cls-6" x="205.31" y="558.51" width="447.88" height="22.66" rx="10.63" ry="10.63"/>
    <path class="cls-6" d="m642.56,582.96H215.93c-6.85,0-12.42-5.58-12.42-12.43v-1.4c0-6.85,5.57-12.42,12.42-12.42h426.62c6.85,0,12.42,5.56,12.42,12.42v1.4c0,6.85-5.56,12.43-12.42,12.43Zm-426.62-22.66c-4.87,0-8.84,3.97-8.84,8.83v1.4c0,4.88,3.97,8.84,8.84,8.84h426.62c4.86,0,8.83-3.97,8.83-8.84v-1.4c0-4.86-3.97-8.83-8.83-8.83H215.93Z"/>
  </g>
  <g id="_2" data-name="2">
    <g>
      <circle class="cls-7" cx="186.19" cy="368.11" r="19.87"/>
      <path class="cls-9" d="m186.19,389.78c-11.95,0-21.67-9.73-21.67-21.67s9.72-21.68,21.67-21.68,21.67,9.73,21.67,21.68-9.72,21.67-21.67,21.67Zm0-39.76c-9.97,0-18.08,8.11-18.08,18.09s8.11,18.08,18.08,18.08,18.08-8.11,18.08-18.08-8.11-18.09-18.08-18.09Z"/>
    </g>
    <text class="cls-1" transform="translate(177.22 377.38)"><tspan x="0" y="0">2</tspan></text>
  </g>
  <g id="a">
    <g>
      <circle class="cls-7" cx="147.89" cy="422.23" r="19.87"/>
      <path class="cls-9" d="m147.89,443.89c-11.95,0-21.67-9.73-21.67-21.67s9.72-21.67,21.67-21.67,21.67,9.73,21.67,21.67-9.72,21.67-21.67,21.67Zm0-39.74c-9.97,0-18.08,8.11-18.08,18.08s8.11,18.08,18.08,18.08,18.08-8.11,18.08-18.08-8.11-18.08-18.08-18.08Z"/>
    </g>
    <text class="cls-2" transform="translate(138.61 431.06)"><tspan x="0" y="0">A</tspan></text>
  </g>
  <g id="q">
    <g>
      <circle class="cls-7" cx="158.4" cy="473.24" r="19.87"/>
      <path class="cls-9" d="m158.4,494.91c-11.95,0-21.67-9.73-21.67-21.67s9.72-21.67,21.67-21.67,21.67,9.73,21.67,21.67-9.72,21.67-21.67,21.67Zm0-39.74c-9.97,0-18.08,8.11-18.08,18.08s8.11,18.08,18.08,18.08,18.08-8.11,18.08-18.08-8.11-18.08-18.08-18.08Z"/>
    </g>
    <text class="cls-2" transform="translate(147.36 482.08)"><tspan x="0" y="0">Q</tspan></text>
  </g>
  <g id="w">
    <g>
      <circle class="cls-7" cx="186.78" cy="522.22" r="19.87"/>
      <path class="cls-9" d="m186.78,543.89c-11.95,0-21.67-9.73-21.67-21.68s9.72-21.67,21.67-21.67,21.67,9.73,21.67,21.67-9.72,21.68-21.67,21.68Zm0-39.76c-9.97,0-18.08,8.11-18.08,18.08s8.11,18.09,18.08,18.09,18.08-8.11,18.08-18.09-8.11-18.08-18.08-18.08Z"/>
    </g>
    <text class="cls-2" transform="translate(173.75 532.94)"><tspan x="0" y="0">W</tspan></text>
  </g>
  <g id="x">
    <g>
      <circle class="cls-7" cx="241.62" cy="522.22" r="19.87"/>
      <path class="cls-9" d="m241.62,543.89c-11.95,0-21.67-9.73-21.67-21.68s9.72-21.67,21.67-21.67,21.67,9.73,21.67,21.67-9.73,21.68-21.67,21.68Zm0-39.76c-9.97,0-18.08,8.11-18.08,18.08s8.11,18.09,18.08,18.09,18.09-8.11,18.09-18.09-8.11-18.08-18.09-18.08Z"/>
    </g>
    <text class="cls-2" transform="translate(232.7 531.05)"><tspan x="0" y="0">X</tspan></text>
  </g>
  <g id="b">
    <g>
      <circle class="cls-7" cx="406.14" cy="521.17" r="19.87"/>
      <path class="cls-9" d="m406.14,542.84c-11.95,0-21.67-9.73-21.67-21.67s9.72-21.67,21.67-21.67,21.67,9.73,21.67,21.67-9.72,21.67-21.67,21.67Zm0-39.74c-9.97,0-18.08,8.11-18.08,18.08s8.11,18.08,18.08,18.08,18.08-8.11,18.08-18.08-8.11-18.08-18.08-18.08Z"/>
    </g>
    <text class="cls-2" transform="translate(396.39 530.01)"><tspan x="0" y="0">B</tspan></text>
  </g>
  <g id="v">
    <g>
      <circle class="cls-7" cx="351.3" cy="521.17" r="19.87"/>
      <path class="cls-9" d="m351.3,542.84c-11.95,0-21.67-9.73-21.67-21.67s9.72-21.67,21.67-21.67,21.67,9.73,21.67,21.67-9.72,21.67-21.67,21.67Zm0-39.74c-9.97,0-18.08,8.11-18.08,18.08s8.11,18.08,18.08,18.08,18.08-8.11,18.08-18.08-8.11-18.08-18.08-18.08Z"/>
    </g>
    <text class="cls-2" transform="translate(342.38 530.01)"><tspan x="0" y="0">V</tspan></text>
  </g>
  <g id="_" data-name=",">
    <g>
      <circle class="cls-7" cx="515.82" cy="520.92" r="19.87"/>
      <path class="cls-9" d="m515.82,542.59c-11.94,0-21.67-9.73-21.67-21.67s9.73-21.67,21.67-21.67,21.67,9.73,21.67,21.67-9.73,21.67-21.67,21.67Zm0-39.74c-9.96,0-18.08,8.11-18.08,18.08s8.11,18.08,18.08,18.08,18.08-8.11,18.08-18.08-8.11-18.08-18.08-18.08Z"/>
    </g>
    <text class="cls-3" transform="translate(508.98 520.92)"><tspan x="0" y="0">,</tspan></text>
  </g>
  <g id=":">
    <g>
      <circle class="cls-7" cx="625.5" cy="520.92" r="19.87"/>
      <path class="cls-9" d="m625.5,542.59c-11.94,0-21.67-9.73-21.67-21.67s9.73-21.67,21.67-21.67,21.67,9.73,21.67,21.67-9.73,21.67-21.67,21.67Zm0-39.74c-9.96,0-18.08,8.11-18.08,18.08s8.11,18.08,18.08,18.08,18.08-8.11,18.08-18.08-8.11-18.08-18.08-18.08Z"/>
    </g>
    <text class="cls-2" transform="translate(621.94 528.73)"><tspan x="0" y="0">:</tspan></text>
  </g>
  <g id="_-2" data-name="?">
    <g>
      <circle class="cls-7" cx="680.34" cy="522.21" r="19.87"/>
      <path class="cls-9" d="m680.33,543.88c-11.94,0-21.67-9.73-21.67-21.67s9.73-21.67,21.67-21.67,21.67,9.73,21.67,21.67-9.73,21.67-21.67,21.67Zm0-39.74c-9.96,0-18.08,8.11-18.08,18.08s8.11,18.08,18.08,18.08,18.08-8.11,18.08-18.08-8.11-18.08-18.08-18.08Z"/>
    </g>
    <text class="cls-2" transform="translate(672.89 531.05)"><tspan x="0" y="0">?</tspan></text>
  </g>
  <g id="_-3" data-name=";">
    <g>
      <circle class="cls-7" cx="570.66" cy="520.92" r="19.87"/>
      <path class="cls-9" d="m570.66,542.59c-11.94,0-21.67-9.73-21.67-21.67s9.73-21.67,21.67-21.67,21.67,9.73,21.67,21.67-9.73,21.67-21.67,21.67Zm0-39.74c-9.96,0-18.08,8.11-18.08,18.08s8.11,18.08,18.08,18.08,18.08-8.11,18.08-18.08-8.11-18.08-18.08-18.08Z"/>
    </g>
    <text class="cls-2" transform="translate(567.05 528.73)"><tspan x="0" y="0">;</tspan></text>
  </g>
  <g id="N">
    <g>
      <circle class="cls-7" cx="460.98" cy="520.78" r="19.87"/>
      <path class="cls-9" d="m460.99,542.45c-11.95,0-21.67-9.73-21.67-21.68s9.72-21.67,21.67-21.67,21.67,9.73,21.67,21.67-9.73,21.68-21.67,21.68Zm0-39.76c-9.98,0-18.09,8.11-18.09,18.08s8.11,18.09,18.09,18.09,18.08-8.11,18.08-18.09-8.11-18.08-18.08-18.08Z"/>
    </g>
    <text class="cls-2" transform="translate(450.66 529.62)"><tspan x="0" y="0">N</tspan></text>
  </g>
  <g id="c">
    <g>
      <circle class="cls-7" cx="296.46" cy="521.4" r="19.87"/>
      <path class="cls-9" d="m296.46,543.07c-11.95,0-21.67-9.73-21.67-21.67s9.72-21.67,21.67-21.67,21.67,9.73,21.67,21.67-9.72,21.67-21.67,21.67Zm0-39.74c-9.97,0-18.08,8.11-18.08,18.08s8.11,18.08,18.08,18.08,18.08-8.11,18.08-18.08-8.11-18.08-18.08-18.08Z"/>
    </g>
    <text class="cls-2" transform="translate(286.15 530.23)"><tspan x="0" y="0">C</tspan></text>
  </g>
  <g id="s">
    <g>
      <circle class="cls-7" cx="213.06" cy="473.24" r="19.87"/>
      <path class="cls-9" d="m213.06,494.91c-11.95,0-21.67-9.73-21.67-21.67s9.72-21.67,21.67-21.67,21.67,9.73,21.67,21.67-9.72,21.67-21.67,21.67Zm0-39.74c-9.97,0-18.08,8.11-18.08,18.08s8.11,18.08,18.08,18.08,18.08-8.11,18.08-18.08-8.11-18.08-18.08-18.08Z"/>
    </g>
    <text class="cls-2" transform="translate(203.31 482.08)"><tspan x="0" y="0">S</tspan></text>
  </g>
  <g id="D">
    <g>
      <circle class="cls-7" cx="267.73" cy="473.24" r="19.87"/>
      <path class="cls-9" d="m267.73,494.91c-11.95,0-21.67-9.73-21.67-21.67s9.72-21.67,21.67-21.67,21.67,9.73,21.67,21.67-9.72,21.67-21.67,21.67Zm0-39.74c-9.97,0-18.08,8.11-18.08,18.08s8.11,18.08,18.08,18.08,18.08-8.11,18.08-18.08-8.11-18.08-18.08-18.08Z"/>
    </g>
    <text class="cls-2" transform="translate(257.65 482.08)"><tspan x="0" y="0">D</tspan></text>
  </g>
  <g id="F">
    <g>
      <circle class="cls-7" cx="322.39" cy="473.24" r="19.87"/>
      <path class="cls-9" d="m322.39,494.91c-11.95,0-21.67-9.73-21.67-21.67s9.72-21.67,21.67-21.67,21.67,9.73,21.67,21.67-9.72,21.67-21.67,21.67Zm0-39.74c-9.97,0-18.08,8.11-18.08,18.08s8.11,18.08,18.08,18.08,18.08-8.11,18.08-18.08-8.11-18.08-18.08-18.08Z"/>
    </g>
    <text class="cls-2" transform="translate(314.08 482.08)"><tspan x="0" y="0">F</tspan></text>
  </g>
  <g id="G">
    <g>
      <circle class="cls-7" cx="377.05" cy="473.24" r="19.87"/>
      <path class="cls-9" d="m377.05,494.91c-11.95,0-21.67-9.73-21.67-21.67s9.72-21.67,21.67-21.67,21.67,9.73,21.67,21.67-9.72,21.67-21.67,21.67Zm0-39.74c-9.97,0-18.08,8.11-18.08,18.08s8.11,18.08,18.08,18.08,18.08-8.11,18.08-18.08-8.11-18.08-18.08-18.08Z"/>
    </g>
    <text class="cls-2" transform="translate(366.21 482.09)"><tspan x="0" y="0">G</tspan></text>
  </g>
  <g id="H">
    <g>
      <circle class="cls-7" cx="431.71" cy="473.24" r="19.87"/>
      <path class="cls-9" d="m431.71,494.91c-11.95,0-21.67-9.73-21.67-21.67s9.72-21.67,21.67-21.67,21.67,9.73,21.67,21.67-9.72,21.67-21.67,21.67Zm0-39.74c-9.97,0-18.08,8.11-18.08,18.08s8.11,18.08,18.08,18.08,18.08-8.11,18.08-18.08-8.11-18.08-18.08-18.08Z"/>
    </g>
    <text class="cls-2" transform="translate(421.43 482.09)"><tspan x="0" y="0">H</tspan></text>
  </g>
  <g id="K">
    <g>
      <circle class="cls-7" cx="541.03" cy="473.24" r="19.87"/>
      <path class="cls-9" d="m541.03,494.91c-11.94,0-21.67-9.73-21.67-21.67s9.73-21.67,21.67-21.67,21.67,9.73,21.67,21.67-9.73,21.67-21.67,21.67Zm0-39.74c-9.96,0-18.08,8.11-18.08,18.08s8.11,18.08,18.08,18.08,18.08-8.11,18.08-18.08-8.11-18.08-18.08-18.08Z"/>
    </g>
    <text class="cls-2" transform="translate(531.25 482.08)"><tspan x="0" y="0">K</tspan></text>
  </g>
  <g id="j">
    <g>
      <circle class="cls-7" cx="486.37" cy="473.24" r="19.87"/>
      <path class="cls-9" d="m486.37,494.91c-11.94,0-21.67-9.73-21.67-21.67s9.73-21.67,21.67-21.67,21.67,9.73,21.67,21.67-9.73,21.67-21.67,21.67Zm0-39.74c-9.96,0-18.08,8.11-18.08,18.08s8.11,18.08,18.08,18.08,18.08-8.11,18.08-18.08-8.11-18.08-18.08-18.08Z"/>
    </g>
    <text class="cls-2" transform="translate(479.1 482.08)"><tspan x="0" y="0">J</tspan></text>
  </g>
  <g id="l">
    <g>
      <circle class="cls-7" cx="595.69" cy="473.24" r="19.87"/>
      <path class="cls-9" d="m595.69,494.91c-11.94,0-21.67-9.73-21.67-21.67s9.73-21.67,21.67-21.67,21.67,9.73,21.67,21.67-9.73,21.67-21.67,21.67Zm0-39.74c-9.96,0-18.08,8.11-18.08,18.08s8.11,18.08,18.08,18.08,18.08-8.11,18.08-18.08-8.11-18.08-18.08-18.08Z"/>
    </g>
    <text class="cls-2" transform="translate(587.5 482.08)"><tspan x="0" y="0">L</tspan></text>
  </g>
  <g id="M">
    <g>
      <circle class="cls-7" cx="650.35" cy="473.24" r="19.87"/>
      <path class="cls-9" d="m650.36,494.91c-11.94,0-21.67-9.73-21.67-21.67s9.73-21.67,21.67-21.67,21.67,9.73,21.67,21.67-9.73,21.67-21.67,21.67Zm0-39.74c-9.96,0-18.08,8.11-18.08,18.08s8.11,18.08,18.08,18.08,18.08-8.11,18.08-18.08-8.11-18.08-18.08-18.08Z"/>
    </g>
    <text class="cls-2" transform="translate(638.19 482.08)"><tspan x="0" y="0">M</tspan></text>
  </g>
  <g id="_-4" data-name="%">
    <g>
      <circle class="cls-7" cx="705.01" cy="473.24" r="19.87"/>
      <path class="cls-9" d="m705.01,494.91c-11.94,0-21.67-9.73-21.67-21.67s9.73-21.67,21.67-21.67,21.67,9.73,21.67,21.67-9.73,21.67-21.67,21.67Zm0-39.74c-9.96,0-18.08,8.11-18.08,18.08s8.11,18.08,18.08,18.08,18.08-8.11,18.08-18.08-8.11-18.08-18.08-18.08Z"/>
    </g>
    <text class="cls-5" transform="translate(695.08 481.62)"><tspan x="0" y="0">%</tspan></text>
  </g>
  <g id="Z">
    <g>
      <circle class="cls-7" cx="202.73" cy="422.23" r="19.87"/>
      <path class="cls-9" d="m202.73,443.89c-11.95,0-21.67-9.73-21.67-21.67s9.72-21.67,21.67-21.67,21.67,9.73,21.67,21.67-9.72,21.67-21.67,21.67Zm0-39.74c-9.97,0-18.08,8.11-18.08,18.08s8.11,18.08,18.08,18.08,18.08-8.11,18.08-18.08-8.11-18.08-18.08-18.08Z"/>
    </g>
    <text class="cls-2" transform="translate(193.75 431.14)"><tspan x="0" y="0">Z</tspan></text>
  </g>
  <g id="E">
    <g>
      <circle class="cls-7" cx="257.56" cy="422.23" r="19.87"/>
      <path class="cls-9" d="m257.56,443.89c-11.95,0-21.67-9.73-21.67-21.67s9.72-21.67,21.67-21.67,21.67,9.73,21.67,21.67-9.73,21.67-21.67,21.67Zm0-39.74c-9.97,0-18.08,8.11-18.08,18.08s8.11,18.08,18.08,18.08,18.09-8.11,18.09-18.08-8.11-18.08-18.09-18.08Z"/>
    </g>
    <text class="cls-2" transform="translate(248.47 431.06)"><tspan x="0" y="0">E</tspan></text>
  </g>
  <g id="R">
    <g>
      <circle class="cls-7" cx="312.4" cy="422.23" r="19.87"/>
      <path class="cls-9" d="m312.4,443.89c-11.95,0-21.67-9.73-21.67-21.67s9.72-21.67,21.67-21.67,21.67,9.73,21.67,21.67-9.72,21.67-21.67,21.67Zm0-39.74c-9.97,0-18.08,8.11-18.08,18.08s8.11,18.08,18.08,18.08,18.08-8.11,18.08-18.08-8.11-18.08-18.08-18.08Z"/>
    </g>
    <text class="cls-2" transform="translate(302.69 431.06)"><tspan x="0" y="0">R</tspan></text>
  </g>
  <g id="T">
    <g>
      <circle class="cls-7" cx="367.23" cy="422.23" r="19.87"/>
      <path class="cls-9" d="m367.23,443.89c-11.95,0-21.67-9.73-21.67-21.67s9.72-21.67,21.67-21.67,21.67,9.73,21.67,21.67-9.72,21.67-21.67,21.67Zm0-39.74c-9.97,0-18.08,8.11-18.08,18.08s8.11,18.08,18.08,18.08,18.08-8.11,18.08-18.08-8.11-18.08-18.08-18.08Z"/>
    </g>
    <text class="cls-2" transform="translate(359.19 431.06)"><tspan x="0" y="0">T</tspan></text>
  </g>
  <g id="U">
    <g>
      <circle class="cls-7" cx="476.9" cy="422.23" r="19.87"/>
      <path class="cls-9" d="m476.91,443.89c-11.94,0-21.67-9.73-21.67-21.67s9.73-21.67,21.67-21.67,21.67,9.73,21.67,21.67-9.73,21.67-21.67,21.67Zm0-39.74c-9.96,0-18.08,8.11-18.08,18.08s8.11,18.08,18.08,18.08,18.08-8.11,18.08-18.08-8.11-18.08-18.08-18.08Z"/>
    </g>
    <text class="cls-2" transform="translate(466.61 431.06)"><tspan x="0" y="0">U</tspan></text>
  </g>
  <g id="I">
    <g>
      <circle class="cls-7" cx="531.74" cy="422.23" r="19.87"/>
      <path class="cls-9" d="m531.74,443.89c-11.94,0-21.67-9.73-21.67-21.67s9.73-21.67,21.67-21.67,21.67,9.73,21.67,21.67-9.73,21.67-21.67,21.67Zm0-39.74c-9.96,0-18.08,8.11-18.08,18.08s8.11,18.08,18.08,18.08,18.08-8.11,18.08-18.08-8.11-18.08-18.08-18.08Z"/>
    </g>
    <text class="cls-2" transform="translate(527.92 431.06)"><tspan x="0" y="0">I</tspan></text>
  </g>
  <g id="O">
    <g>
      <circle class="cls-7" cx="586.57" cy="422.23" r="19.87"/>
      <path class="cls-9" d="m586.58,443.89c-11.94,0-21.67-9.73-21.67-21.67s9.73-21.67,21.67-21.67,21.67,9.73,21.67,21.67-9.73,21.67-21.67,21.67Zm0-39.74c-9.96,0-18.08,8.11-18.08,18.08s8.11,18.08,18.08,18.08,18.08-8.11,18.08-18.08-8.11-18.08-18.08-18.08Z"/>
    </g>
    <text class="cls-2" transform="translate(575.26 431.08)"><tspan x="0" y="0">O</tspan></text>
  </g>
  <g id="P">
    <g>
      <circle class="cls-7" cx="641.41" cy="422.23" r="19.87"/>
      <path class="cls-9" d="m641.42,443.89c-11.95,0-21.68-9.73-21.68-21.67s9.73-21.67,21.68-21.67,21.67,9.73,21.67,21.67-9.73,21.67-21.67,21.67Zm0-39.74c-9.98,0-18.09,8.11-18.09,18.08s8.11,18.08,18.09,18.08,18.08-8.11,18.08-18.08-8.11-18.08-18.08-18.08Z"/>
    </g>
    <text class="cls-2" transform="translate(632.48 431.06)"><tspan x="0" y="0">P</tspan></text>
  </g>
  <g id="_-5" data-name="ˆ">
    <g>
      <circle class="cls-7" cx="696.24" cy="422.23" r="19.87"/>
      <path class="cls-9" d="m696.24,443.89c-11.94,0-21.67-9.73-21.67-21.67s9.73-21.67,21.67-21.67,21.67,9.73,21.67,21.67-9.73,21.67-21.67,21.67Zm0-39.74c-9.96,0-18.08,8.11-18.08,18.08s8.11,18.08,18.08,18.08,18.08-8.11,18.08-18.08-8.11-18.08-18.08-18.08Z"/>
    </g>
    <text class="cls-4" transform="translate(685.48 445.67)"><tspan x="0" y="0">ˆ</tspan></text>
  </g>
  <g id="Y">
    <g>
      <circle class="cls-7" cx="422.07" cy="422.23" r="19.87"/>
      <path class="cls-9" d="m422.07,443.89c-11.95,0-21.67-9.73-21.67-21.67s9.72-21.67,21.67-21.67,21.67,9.73,21.67,21.67-9.72,21.67-21.67,21.67Zm0-39.74c-9.97,0-18.08,8.11-18.08,18.08s8.11,18.08,18.08,18.08,18.08-8.11,18.08-18.08-8.11-18.08-18.08-18.08Z"/>
    </g>
    <text class="cls-2" transform="translate(413.21 431.06)"><tspan x="0" y="0">Y</tspan></text>
  </g>
  <g id="_3" data-name="3">
    <g>
      <circle class="cls-7" cx="241.08" cy="368.11" r="19.87"/>
      <path class="cls-9" d="m241.08,389.78c-11.95,0-21.67-9.73-21.67-21.67s9.72-21.68,21.67-21.68,21.67,9.73,21.67,21.68-9.72,21.67-21.67,21.67Zm0-39.76c-9.97,0-18.08,8.11-18.08,18.09s8.11,18.08,18.08,18.08,18.08-8.11,18.08-18.08-8.11-18.09-18.08-18.09Z"/>
    </g>
    <text class="cls-1" transform="translate(232.12 377.37)"><tspan x="0" y="0">3</tspan></text>
  </g>
  <g id="_-6" data-name="$">
    <g>
      <circle class="cls-7" cx="295.97" cy="368.11" r="19.87"/>
      <path class="cls-9" d="m295.97,389.78c-11.95,0-21.67-9.73-21.67-21.67s9.72-21.68,21.67-21.68,21.67,9.73,21.67,21.68-9.72,21.67-21.67,21.67Zm0-39.76c-9.97,0-18.08,8.11-18.08,18.09s8.11,18.08,18.08,18.08,18.08-8.11,18.08-18.08-8.11-18.09-18.08-18.09Z"/>
    </g>
    <text class="cls-1" transform="translate(287.07 377.37)"><tspan x="0" y="0">4</tspan></text>
  </g>
  <g id="_5" data-name="5">
    <g>
      <circle class="cls-7" cx="350.87" cy="368.11" r="19.87"/>
      <path class="cls-9" d="m350.86,389.78c-11.95,0-21.67-9.73-21.67-21.67s9.72-21.68,21.67-21.68,21.67,9.73,21.67,21.68-9.72,21.67-21.67,21.67Zm0-39.76c-9.97,0-18.08,8.11-18.08,18.09s8.11,18.08,18.08,18.08,18.08-8.11,18.08-18.08-8.11-18.09-18.08-18.09Z"/>
    </g>
    <text class="cls-1" transform="translate(341.97 377.38)"><tspan x="0" y="0">5</tspan></text>
  </g>
  <g id="_6" data-name="6">
    <g>
      <circle class="cls-7" cx="405.76" cy="368.11" r="19.87"/>
      <path class="cls-9" d="m405.76,389.78c-11.95,0-21.67-9.73-21.67-21.67s9.72-21.68,21.67-21.68,21.67,9.73,21.67,21.68-9.73,21.67-21.67,21.67Zm0-39.76c-9.97,0-18.08,8.11-18.08,18.09s8.11,18.08,18.08,18.08,18.09-8.11,18.09-18.08-8.11-18.09-18.09-18.09Z"/>
    </g>
    <text class="cls-1" transform="translate(396.86 377.38)"><tspan x="0" y="0">6</tspan></text>
  </g>
  <g id="_7" data-name="7">
    <g>
      <circle class="cls-7" cx="460.65" cy="368.11" r="19.87"/>
      <path class="cls-9" d="m460.65,389.78c-11.94,0-21.66-9.73-21.66-21.67s9.72-21.68,21.66-21.68,21.67,9.73,21.67,21.68-9.73,21.67-21.67,21.67Zm0-39.76c-9.96,0-18.07,8.11-18.07,18.09s8.11,18.08,18.07,18.08,18.08-8.11,18.08-18.08-8.11-18.09-18.08-18.09Z"/>
    </g>
    <text class="cls-1" transform="translate(451.75 377.37)"><tspan x="0" y="0">7</tspan></text>
  </g>
  <g id="_8" data-name="8">
    <g>
      <circle class="cls-7" cx="515.55" cy="368.11" r="19.87"/>
      <path class="cls-9" d="m515.54,389.78c-11.94,0-21.67-9.73-21.67-21.67s9.73-21.68,21.67-21.68,21.67,9.73,21.67,21.68-9.73,21.67-21.67,21.67Zm0-39.76c-9.96,0-18.08,8.11-18.08,18.09s8.11,18.08,18.08,18.08,18.08-8.11,18.08-18.08-8.11-18.09-18.08-18.09Z"/>
    </g>
    <text class="cls-1" transform="translate(506.65 377.37)"><tspan x="0" y="0">8</tspan></text>
  </g>
  <g id="_-7" data-name="&amp;amp;">
    <g>
      <circle class="cls-7" cx="625.34" cy="368.11" r="19.87"/>
      <path class="cls-9" d="m625.34,389.78c-11.95,0-21.68-9.73-21.68-21.67s9.73-21.68,21.68-21.68,21.67,9.73,21.67,21.68-9.73,21.67-21.67,21.67Zm0-39.76c-9.98,0-18.09,8.11-18.09,18.09s8.11,18.08,18.09,18.08,18.08-8.11,18.08-18.08-8.11-18.09-18.08-18.09Z"/>
    </g>
    <text class="cls-1" transform="translate(616.33 377.37)"><tspan x="0" y="0">&amp;</tspan></text>
  </g>
  <g id="_-8" data-name=")">
    <g>
      <circle class="cls-7" cx="680.23" cy="368.11" r="19.87"/>
      <path class="cls-9" d="m680.23,389.78c-11.94,0-21.67-9.73-21.67-21.67s9.73-21.68,21.67-21.68,21.67,9.73,21.67,21.68-9.73,21.67-21.67,21.67Zm0-39.76c-9.96,0-18.08,8.11-18.08,18.09s8.11,18.08,18.08,18.08,18.08-8.11,18.08-18.08-8.11-18.09-18.08-18.09Z"/>
    </g>
    <text class="cls-5" transform="translate(675.77 376.49)"><tspan x="0" y="0">)</tspan></text>
  </g>
  <g id="_9" data-name="9">
    <g>
      <circle class="cls-7" cx="570.44" cy="368.11" r="19.87"/>
      <path class="cls-9" d="m570.44,389.78c-11.94,0-21.67-9.73-21.67-21.67s9.73-21.68,21.67-21.68,21.68,9.73,21.68,21.68-9.73,21.67-21.68,21.67Zm0-39.76c-9.96,0-18.08,8.11-18.08,18.09s8.11,18.08,18.08,18.08,18.09-8.11,18.09-18.08-8.11-18.09-18.09-18.09Z"/>
    </g>
    <text class="cls-1" transform="translate(561.55 377.38)"><tspan x="0" y="0">9</tspan></text>
  </g>
</svg>