<svg width="644" height="524" viewBox="0 0 644 524" fill="none" xmlns="http://www.w3.org/2000/svg">
<g filter="url(#filter0_i_522_244)">
<path d="M612.626 506C612.626 506 606.541 508.843 602.32 508.813C597.56 508.779 590.93 505.062 590.93 505.062L592.557 493.811C592.557 493.811 592.965 494.034 593.642 494.365L612.626 305.736L622.389 188.998L621.304 187.592L622.389 175.871L623.474 175.847V173.058H620.219L611.541 164.62V162.275L509.028 76.0117H506.859L496.553 67.1041V65.6976C496.553 65.6976 495.663 64.9337 494.926 64.76C494.313 64.6154 493.299 64.76 493.299 64.76L492.214 66.6354H477.569L476.485 65.229H465.094L464.01 66.6354H447.195V64.7601L368.548 69.9172L366.921 71.3237H353.903L352.276 70.386H339.801L337.631 71.7925H324.614L322.444 70.386H319.19L318.105 71.7925H305.63V92.1496L304.003 94.0249H290.443L288.273 93.0872V71.7925H276.883L275.256 70.386H205L206.627 55.8525H275.256L277.968 53.5083L319.19 53.9772L322.444 54.446L324.614 53.0395H337.089L339.801 53.9772V36.6307H330.58C330.58 36.6307 330.456 36.2611 330.291 35.693L296.952 36.6307L295.867 37.5683C295.867 37.5683 287.828 38.7874 284.477 35.2242C281.401 31.9534 281.765 25.8477 281.765 25.8477L282.849 24.4412H284.477V1H291.528V24.4412H293.155C293.155 24.4412 293.241 25.5444 294.24 26.3165C295.238 27.0886 296.952 26.7853 296.952 26.7853V27.723L330.291 26.8113C330.456 26.2253 330.58 25.8477 330.58 25.8477H360.412C360.412 25.8477 360.291 26.2142 360.13 26.7853H378.311C378.311 26.7853 377.745 29.6337 377.769 31.4736C377.79 33.1314 378.311 35.693 378.311 35.693H360.122C360.287 36.2611 360.412 36.6307 360.412 36.6307H351.734V53.9772L353.903 53.0395L366.378 52.5707L368.005 53.5083L447.195 49.2889V47.4136H464.01L465.094 48.3513H476.485L477.569 47.4136H492.214L493.299 48.8199C493.299 48.8199 498.771 48.3213 501.977 49.2888C505.139 50.243 509.028 53.5082 509.028 53.5082H511.74L522.046 62.8847V64.2911L624.559 151.961H627.813L635.949 158.994L636.491 162.275C636.491 162.275 639.618 165.858 640.83 168.37C642.222 171.251 641.915 175.427 641.915 175.427L643 175.403V187.592L641.373 188.998L630.525 304.329L611.541 495.169C612.218 494.919 612.626 494.748 612.626 494.748V506Z" fill="url(#paint0_radial_522_244)"/>
</g>
<path d="M593.642 494.365C595.474 495.26 599.279 496.939 602.32 497.092C605.444 497.25 609.6 495.886 611.541 495.169M593.642 494.365C592.965 494.034 592.557 493.811 592.557 493.811L590.93 505.062C590.93 505.062 597.56 508.779 602.32 508.813C606.541 508.843 612.626 506 612.626 506V494.748C612.626 494.748 612.218 494.919 611.541 495.169M593.642 494.365L612.626 305.736L622.389 188.998M611.541 495.169L630.525 304.329L641.373 188.998M641.373 188.998H622.389M641.373 188.998L643 187.592V175.403L641.915 175.427M622.389 188.998L621.304 187.592L622.389 175.871L623.474 175.847M641.915 175.427L623.474 175.847M641.915 175.427C641.915 175.427 642.222 171.251 640.83 168.37C639.618 165.858 636.491 162.275 636.491 162.275M636.491 162.275L623.474 173.058M636.491 162.275L635.949 158.994L627.813 151.961H624.559M623.474 173.058V175.847M623.474 173.058H620.219L611.541 164.62V162.275M624.559 151.961L611.541 162.275M624.559 151.961L522.046 64.2911M611.541 162.275L509.028 76.0117M522.046 64.2911L509.028 76.0117M522.046 64.2911V62.8847L511.74 53.5082H509.028M509.028 76.0117H506.859L496.553 67.1041V65.6976M509.028 53.5082L496.553 65.6976M509.028 53.5082C509.028 53.5082 505.139 50.243 501.977 49.2888C498.771 48.3213 493.299 48.8199 493.299 48.8199M496.553 65.6976C496.553 65.6976 495.663 64.9337 494.926 64.76C494.313 64.6154 493.299 64.76 493.299 64.76M493.299 48.8199V64.76M493.299 48.8199L492.214 47.4136H477.569L476.485 48.3513M493.299 64.76L492.214 66.6354H477.569L476.485 65.229M476.485 48.3513V65.229M476.485 48.3513H465.094M476.485 65.229H465.094M465.094 48.3513V65.229M465.094 48.3513L464.01 47.4136H447.195V49.2889M465.094 65.229L464.01 66.6354H447.195V64.7601M447.195 49.2889C447.195 49.2889 449.982 53.9589 449.907 57.2589C449.837 60.3869 447.195 64.7601 447.195 64.7601M447.195 49.2889L368.005 53.5083M447.195 64.7601L368.548 69.9172M368.005 53.5083L368.548 69.9172M368.005 53.5083L366.378 52.5707L353.903 53.0395L351.734 53.9772M368.548 69.9172L366.921 71.3237H353.903L352.276 70.386M351.734 53.9772C351.734 53.9772 352.729 59.1011 352.818 62.416C352.903 65.533 352.276 70.386 352.276 70.386M351.734 53.9772V36.6307M351.734 53.9772C351.734 53.9772 348.923 55.6371 346.852 55.8525C343.992 56.1499 339.801 53.9772 339.801 53.9772M352.276 70.386H339.801M351.734 36.6307C351.734 36.6307 348.247 34.7554 345.767 34.7554C343.288 34.7554 339.801 36.6307 339.801 36.6307M351.734 36.6307H360.412C360.412 36.6307 360.287 36.2611 360.122 35.693M339.801 53.9772V36.6307M339.801 53.9772L337.089 53.0395H324.614L322.444 54.446M339.801 53.9772C340.541 60.3852 340.525 63.9794 339.801 70.386M339.801 36.6307H330.58C330.58 36.6307 330.456 36.2611 330.291 35.693M322.444 54.446V70.386M322.444 54.446L319.19 53.9772M322.444 70.386L324.614 71.7925H337.631L339.801 70.386M322.444 70.386H319.19M360.13 26.7853C359.8 27.9535 359.302 29.9778 359.327 31.4736C359.35 32.8149 359.809 34.6129 360.122 35.693M360.13 26.7853C360.291 26.2142 360.412 25.8477 360.412 25.8477H330.58C330.58 25.8477 330.456 26.2253 330.291 26.8113M360.13 26.7853H378.311C378.311 26.7853 377.745 29.6337 377.769 31.4736C377.79 33.1314 378.311 35.693 378.311 35.693H360.122M330.291 35.693C329.977 34.6129 329.518 32.8149 329.496 31.4736C329.47 29.9888 329.961 27.9834 330.291 26.8113M330.291 35.693L296.952 36.6307M296.952 36.6307V27.723M296.952 36.6307L295.867 37.5683C295.867 37.5683 287.828 38.7874 284.477 35.2242C281.401 31.9534 281.765 25.8477 281.765 25.8477L282.849 24.4412H284.477M330.291 26.8113L296.952 27.723M296.952 27.723V26.7853C296.952 26.7853 295.238 27.0886 294.24 26.3165C293.241 25.5444 293.155 24.4412 293.155 24.4412H291.528M291.528 24.4412V1H284.477V24.4412M291.528 24.4412H284.477M319.19 53.9772V70.386M319.19 53.9772L277.968 53.5083L275.256 55.8525M319.19 70.386L318.105 71.7925H305.63V92.1496L304.003 94.0249H290.443L288.273 93.0872V71.7925H276.883L275.256 70.386M275.256 70.386V55.8525M275.256 70.386H205L206.627 55.8525H275.256" stroke="#020203"/>
<g filter="url(#filter1_i_522_244)">
<path d="M612.626 505.752C612.626 505.752 606.541 508.594 602.32 508.565C597.56 508.531 590.93 504.814 590.93 504.814L592.557 493.562C592.557 493.562 592.965 493.786 593.642 494.117L612.626 305.736L622.389 188.998L621.304 187.592L622.389 175.871L623.474 175.847V173.058H620.219L611.541 164.62V162.275L509.028 76.0117H506.859L496.553 67.1041V65.6976C496.553 65.6976 495.663 64.9337 494.926 64.76C494.313 64.6154 493.299 64.76 493.299 64.76L492.214 66.6354H477.569L476.485 65.229H465.094L464.01 66.6354H447.195V64.7601L368.548 69.9172L366.921 71.3237H353.903L352.276 70.386H339.801L337.631 71.7925H324.614L322.444 70.386H319.19L318.105 71.7925H305.63V92.1496L304.003 94.0249H290.443L288.273 93.0872V71.7925H276.883L275.256 70.386H205L206.627 55.8525H275.256L277.968 53.5083L319.19 53.9772L322.444 54.446L324.614 53.0395H337.089L339.801 53.9772V36.6307H330.58C330.58 36.6307 330.456 36.2611 330.291 35.693L296.952 36.6307L295.867 37.5683C295.867 37.5683 287.828 38.7874 284.477 35.2242C281.401 31.9534 281.765 25.8477 281.765 25.8477L282.849 24.4412H284.477V1H291.528V24.4412H293.155C293.155 24.4412 293.241 25.5444 294.24 26.3165C295.238 27.0886 296.952 26.7853 296.952 26.7853V27.723L330.291 26.8113C330.456 26.2253 330.58 25.8477 330.58 25.8477H360.412C360.412 25.8477 360.291 26.2142 360.13 26.7853H378.311C378.311 26.7853 377.745 29.6337 377.769 31.4736C377.79 33.1314 378.311 35.693 378.311 35.693H360.122C360.287 36.2611 360.412 36.6307 360.412 36.6307H351.734V53.9772L353.903 53.0395L366.378 52.5707L368.005 53.5083L447.195 49.2889V47.4136H464.01L465.094 48.3513H476.485L477.569 47.4136H492.214L493.299 48.8199C493.299 48.8199 498.771 48.3213 501.977 49.2888C505.139 50.243 509.028 53.5082 509.028 53.5082H511.74L522.046 62.8847V64.2911L624.559 151.961H627.813L635.949 158.994L636.491 162.275C636.491 162.275 639.618 165.858 640.83 168.37C642.222 171.251 641.915 175.427 641.915 175.427L643 175.403V187.592L641.373 188.998L630.525 304.329L611.541 494.921C612.218 494.671 612.626 494.5 612.626 494.5V505.752Z" fill="url(#paint1_linear_522_244)" fill-opacity="0.65"/>
</g>
<path d="M593.642 494.117C595.474 495.012 599.279 496.691 602.32 496.844C605.444 497.002 609.6 495.637 611.541 494.921M593.642 494.117C592.965 493.786 592.557 493.562 592.557 493.562L590.93 504.814C590.93 504.814 597.56 508.531 602.32 508.565C606.541 508.594 612.626 505.752 612.626 505.752V494.5C612.626 494.5 612.218 494.671 611.541 494.921M593.642 494.117L612.626 305.736L622.389 188.998M611.541 494.921L630.525 304.329L641.373 188.998M641.373 188.998H622.389M641.373 188.998L643 187.592V175.403L641.915 175.427M622.389 188.998L621.304 187.592L622.389 175.871L623.474 175.847M641.915 175.427L623.474 175.847M641.915 175.427C641.915 175.427 642.222 171.251 640.83 168.37C639.618 165.858 636.491 162.275 636.491 162.275M636.491 162.275L623.474 173.058M636.491 162.275L635.949 158.994L627.813 151.961H624.559M623.474 173.058V175.847M623.474 173.058H620.219L611.541 164.62V162.275M624.559 151.961L611.541 162.275M624.559 151.961L522.046 64.2911M611.541 162.275L509.028 76.0117M522.046 64.2911L509.028 76.0117M522.046 64.2911V62.8847L511.74 53.5082H509.028M509.028 76.0117H506.859L496.553 67.1041V65.6976M509.028 53.5082L496.553 65.6976M509.028 53.5082C509.028 53.5082 505.139 50.243 501.977 49.2888C498.771 48.3213 493.299 48.8199 493.299 48.8199M496.553 65.6976C496.553 65.6976 495.663 64.9337 494.926 64.76C494.313 64.6154 493.299 64.76 493.299 64.76M493.299 48.8199V64.76M493.299 48.8199L492.214 47.4136H477.569L476.485 48.3513M493.299 64.76L492.214 66.6354H477.569L476.485 65.229M476.485 48.3513V65.229M476.485 48.3513H465.094M476.485 65.229H465.094M465.094 48.3513V65.229M465.094 48.3513L464.01 47.4136H447.195V49.2889M465.094 65.229L464.01 66.6354H447.195V64.7601M447.195 49.2889C447.195 49.2889 449.982 53.9589 449.907 57.2589C449.837 60.3869 447.195 64.7601 447.195 64.7601M447.195 49.2889L368.005 53.5083M447.195 64.7601L368.548 69.9172M368.005 53.5083L368.548 69.9172M368.005 53.5083L366.378 52.5707L353.903 53.0395L351.734 53.9772M368.548 69.9172L366.921 71.3237H353.903L352.276 70.386M351.734 53.9772C351.734 53.9772 352.729 59.1011 352.818 62.416C352.903 65.533 352.276 70.386 352.276 70.386M351.734 53.9772V36.6307M351.734 53.9772C351.734 53.9772 348.923 55.6371 346.852 55.8525C343.992 56.1499 339.801 53.9772 339.801 53.9772M352.276 70.386H339.801M351.734 36.6307C351.734 36.6307 348.247 34.7554 345.767 34.7554C343.288 34.7554 339.801 36.6307 339.801 36.6307M351.734 36.6307H360.412C360.412 36.6307 360.287 36.2611 360.122 35.693M339.801 53.9772V36.6307M339.801 53.9772L337.089 53.0395H324.614L322.444 54.446M339.801 53.9772C340.541 60.3852 340.525 63.9794 339.801 70.386M339.801 36.6307H330.58C330.58 36.6307 330.456 36.2611 330.291 35.693M322.444 54.446V70.386M322.444 54.446L319.19 53.9772M322.444 70.386L324.614 71.7925H337.631L339.801 70.386M322.444 70.386H319.19M360.13 26.7853C359.8 27.9535 359.302 29.9778 359.327 31.4736C359.35 32.8149 359.809 34.6129 360.122 35.693M360.13 26.7853C360.291 26.2142 360.412 25.8477 360.412 25.8477H330.58C330.58 25.8477 330.456 26.2253 330.291 26.8113M360.13 26.7853H378.311C378.311 26.7853 377.745 29.6337 377.769 31.4736C377.79 33.1314 378.311 35.693 378.311 35.693H360.122M330.291 35.693C329.977 34.6129 329.518 32.8149 329.496 31.4736C329.47 29.9888 329.961 27.9834 330.291 26.8113M330.291 35.693L296.952 36.6307M296.952 36.6307V27.723M296.952 36.6307L295.867 37.5683C295.867 37.5683 287.828 38.7874 284.477 35.2242C281.401 31.9534 281.765 25.8477 281.765 25.8477L282.849 24.4412H284.477M330.291 26.8113L296.952 27.723M296.952 27.723V26.7853C296.952 26.7853 295.238 27.0886 294.24 26.3165C293.241 25.5444 293.155 24.4412 293.155 24.4412H291.528M291.528 24.4412V1H284.477V24.4412M291.528 24.4412H284.477M319.19 53.9772V70.386M319.19 53.9772L277.968 53.5083L275.256 55.8525M319.19 70.386L318.105 71.7925H305.63V92.1496L304.003 94.0249H290.443L288.273 93.0872V71.7925H276.883L275.256 70.386M275.256 70.386V55.8525M275.256 70.386H205L206.627 55.8525H275.256" stroke="#020203"/>
<g filter="url(#filter2_i_522_244)">
<path d="M92 520.007C92 520.007 98.4953 523.167 103 523.134C108.081 523.097 115.158 518.965 115.158 518.965L113.421 506.458C113.421 506.458 112.986 506.706 112.263 507.074L29.5 328L23 209.38L24.1579 207.817L23 194.789L21.8421 194.761V191.662H25.3158L34.579 182.281V179.676L144 83.7885H146.316L157.316 73.8871V72.3237C157.316 72.3237 158.266 71.4746 159.053 71.2815C159.707 71.1209 160.789 71.2815 160.789 71.2815L161.947 73.3662H177.579L178.737 71.8028H190.895L192.053 73.3662H210V71.2817C210 71.2817 207.181 66.4206 207.105 62.9437C207.026 59.2755 210 54.0845 210 54.0845V52H192.053L190.895 53.0423H178.737L177.579 52H161.947L160.789 53.5632C160.789 53.5632 154.948 53.0089 151.526 54.0843C148.151 55.145 144 58.7745 144 58.7745H141.105L130.105 69.197V70.7604L20.6842 168.211H17.2105L8.52632 176.028L7.94737 179.676C7.94737 179.676 4.61038 183.658 3.3158 186.45C1.83081 189.653 2.1579 194.295 2.1579 194.295L1 194.267V207.817L2.73683 209.38L14.3158 337.577L93.1579 507.968C92.435 507.69 92 507.5 92 507.5V520.007Z" fill="url(#paint2_linear_522_244)"/>
</g>
<path d="M112.263 507.074C110.308 508.069 106.246 509.935 103 510.106C99.666 510.281 95.2297 508.764 93.1579 507.968M112.263 507.074C112.986 506.706 113.421 506.458 113.421 506.458L115.158 518.965C115.158 518.965 108.081 523.097 103 523.134C98.4953 523.167 92 520.007 92 520.007V507.5C92 507.5 92.435 507.69 93.1579 507.968M112.263 507.074L29.5 328L23 209.38M93.1579 507.968L14.3158 337.577L2.73683 209.38M2.73683 209.38H23M2.73683 209.38L1 207.817V194.267L2.1579 194.295M23 209.38L24.1579 207.817L23 194.789L21.8421 194.761M2.1579 194.295L21.8421 194.761M2.1579 194.295C2.1579 194.295 1.8308 189.653 3.3158 186.45C4.61038 183.658 7.94737 179.676 7.94737 179.676M7.94737 179.676L21.8421 191.662M7.94737 179.676L8.52632 176.028L17.2105 168.211H20.6842M21.8421 191.662V194.761M21.8421 191.662H25.3158L34.579 182.281V179.676M20.6842 168.211L34.579 179.676M20.6842 168.211L130.105 70.7604M34.579 179.676L144 83.7885M130.105 70.7604L144 83.7885M130.105 70.7604V69.197L141.105 58.7745H144M144 83.7885H146.316L157.316 73.8871V72.3237M144 58.7745L157.316 72.3237M144 58.7745C144 58.7745 148.151 55.145 151.526 54.0843C154.948 53.0089 160.789 53.5632 160.789 53.5632M157.316 72.3237C157.316 72.3237 158.266 71.4746 159.053 71.2815C159.707 71.1209 160.789 71.2815 160.789 71.2815M160.789 53.5632V71.2815M160.789 53.5632L161.947 52H177.579L178.737 53.0423M160.789 71.2815L161.947 73.3662H177.579L178.737 71.8028M178.737 53.0423V71.8028M178.737 53.0423H190.895M178.737 71.8028H190.895M190.895 53.0423V71.8028M190.895 53.0423L192.053 52H210V54.0845C210 54.0845 207.026 59.2755 207.105 62.9437C207.181 66.4206 210 71.2817 210 71.2817V73.3662H192.053L190.895 71.8028" stroke="#020203"/>
<g filter="url(#filter3_i_522_244)">
<path d="M92.5789 520.049C92.5789 520.049 99.0742 523.209 103.579 523.176C108.66 523.139 115.737 519.007 115.737 519.007L114 506.5C114 506.5 113.565 506.749 112.842 507.116L29.5 328L23 209.38L24.1579 207.817L23 194.789L21.8421 194.761V191.662H25.3158L34.579 182.281V179.676L144 83.7885H146.316L157.316 73.8871V72.3237C157.316 72.3237 158.266 71.4746 159.053 71.2815C159.707 71.1209 160.789 71.2815 160.789 71.2815L161.947 73.3662H177.579L178.737 71.8028H190.895L192.053 73.3662H210V71.2817C210 71.2817 207.181 66.4206 207.105 62.9437C207.026 59.2755 210 54.0845 210 54.0845V52H192.053L190.895 53.0423H178.737L177.579 52H161.947L160.789 53.5632C160.789 53.5632 154.948 53.0089 151.526 54.0843C148.151 55.145 144 58.7745 144 58.7745H141.105L130.105 69.197V70.7604L20.6842 168.211H17.2105L8.52632 176.028L7.94737 179.676C7.94737 179.676 4.61038 183.658 3.3158 186.45C1.83081 189.653 2.1579 194.295 2.1579 194.295L1 194.267V207.817L2.73683 209.38L14.3158 337.577L93.7368 508.01C93.014 507.732 92.5789 507.542 92.5789 507.542V520.049Z" fill="url(#paint3_linear_522_244)" fill-opacity="0.4"/>
</g>
<path d="M112.842 507.116C110.887 508.111 106.825 509.977 103.579 510.148C100.245 510.323 95.8087 508.807 93.7368 508.01M112.842 507.116C113.565 506.749 114 506.5 114 506.5L115.737 519.007C115.737 519.007 108.66 523.139 103.579 523.176C99.0742 523.209 92.5789 520.049 92.5789 520.049V507.542C92.5789 507.542 93.014 507.732 93.7368 508.01M112.842 507.116L29.5 328L23 209.38M93.7368 508.01L14.3158 337.577L2.73683 209.38M2.73683 209.38H23M2.73683 209.38L1 207.817V194.267L2.1579 194.295M23 209.38L24.1579 207.817L23 194.789L21.8421 194.761M2.1579 194.295L21.8421 194.761M2.1579 194.295C2.1579 194.295 1.8308 189.653 3.3158 186.45C4.61038 183.658 7.94737 179.676 7.94737 179.676M7.94737 179.676L21.8421 191.662M7.94737 179.676L8.52632 176.028L17.2105 168.211H20.6842M21.8421 191.662V194.761M21.8421 191.662H25.3158L34.579 182.281V179.676M20.6842 168.211L34.579 179.676M20.6842 168.211L130.105 70.7604M34.579 179.676L144 83.7885M130.105 70.7604L144 83.7885M130.105 70.7604V69.197L141.105 58.7745H144M144 83.7885H146.316L157.316 73.8871V72.3237M144 58.7745L157.316 72.3237M144 58.7745C144 58.7745 148.151 55.145 151.526 54.0843C154.948 53.0089 160.789 53.5632 160.789 53.5632M157.316 72.3237C157.316 72.3237 158.266 71.4746 159.053 71.2815C159.707 71.1209 160.789 71.2815 160.789 71.2815M160.789 53.5632V71.2815M160.789 53.5632L161.947 52H177.579L178.737 53.0423M160.789 71.2815L161.947 73.3662H177.579L178.737 71.8028M178.737 53.0423V71.8028M178.737 53.0423H190.895M178.737 71.8028H190.895M190.895 53.0423V71.8028M190.895 53.0423L192.053 52H210V54.0845C210 54.0845 207.026 59.2755 207.105 62.9437C207.181 66.4206 210 71.2817 210 71.2817V73.3662H192.053L190.895 71.8028" stroke="#020203"/>
<defs>
<filter id="filter0_i_522_244" x="204.44" y="0.5" width="439.06" height="512.813" filterUnits="userSpaceOnUse" color-interpolation-filters="sRGB">
<feFlood flood-opacity="0" result="BackgroundImageFix"/>
<feBlend mode="normal" in="SourceGraphic" in2="BackgroundImageFix" result="shape"/>
<feColorMatrix in="SourceAlpha" type="matrix" values="0 0 0 0 0 0 0 0 0 0 0 0 0 0 0 0 0 0 127 0" result="hardAlpha"/>
<feOffset dy="4"/>
<feGaussianBlur stdDeviation="2"/>
<feComposite in2="hardAlpha" operator="arithmetic" k2="-1" k3="1"/>
<feColorMatrix type="matrix" values="0 0 0 0 0 0 0 0 0 0 0 0 0 0 0 0 0 0 0.25 0"/>
<feBlend mode="normal" in2="shape" result="effect1_innerShadow_522_244"/>
</filter>
<filter id="filter1_i_522_244" x="204.44" y="0.5" width="439.06" height="512.565" filterUnits="userSpaceOnUse" color-interpolation-filters="sRGB">
<feFlood flood-opacity="0" result="BackgroundImageFix"/>
<feBlend mode="normal" in="SourceGraphic" in2="BackgroundImageFix" result="shape"/>
<feColorMatrix in="SourceAlpha" type="matrix" values="0 0 0 0 0 0 0 0 0 0 0 0 0 0 0 0 0 0 127 0" result="hardAlpha"/>
<feOffset dy="4"/>
<feGaussianBlur stdDeviation="2"/>
<feComposite in2="hardAlpha" operator="arithmetic" k2="-1" k3="1"/>
<feColorMatrix type="matrix" values="0 0 0 0 0 0 0 0 0 0 0 0 0 0 0 0 0 0 0.25 0"/>
<feBlend mode="normal" in2="shape" result="effect1_innerShadow_522_244"/>
</filter>
<filter id="filter2_i_522_244" x="0.5" y="51.5" width="210" height="476.134" filterUnits="userSpaceOnUse" color-interpolation-filters="sRGB">
<feFlood flood-opacity="0" result="BackgroundImageFix"/>
<feBlend mode="normal" in="SourceGraphic" in2="BackgroundImageFix" result="shape"/>
<feColorMatrix in="SourceAlpha" type="matrix" values="0 0 0 0 0 0 0 0 0 0 0 0 0 0 0 0 0 0 127 0" result="hardAlpha"/>
<feOffset dy="4"/>
<feGaussianBlur stdDeviation="2"/>
<feComposite in2="hardAlpha" operator="arithmetic" k2="-1" k3="1"/>
<feColorMatrix type="matrix" values="0 0 0 0 0 0 0 0 0 0 0 0 0 0 0 0 0 0 0.25 0"/>
<feBlend mode="normal" in2="shape" result="effect1_innerShadow_522_244"/>
</filter>
<filter id="filter3_i_522_244" x="0.5" y="51.5" width="210" height="476.176" filterUnits="userSpaceOnUse" color-interpolation-filters="sRGB">
<feFlood flood-opacity="0" result="BackgroundImageFix"/>
<feBlend mode="normal" in="SourceGraphic" in2="BackgroundImageFix" result="shape"/>
<feColorMatrix in="SourceAlpha" type="matrix" values="0 0 0 0 0 0 0 0 0 0 0 0 0 0 0 0 0 0 127 0" result="hardAlpha"/>
<feOffset dy="4"/>
<feGaussianBlur stdDeviation="2"/>
<feComposite in2="hardAlpha" operator="arithmetic" k2="-1" k3="1"/>
<feColorMatrix type="matrix" values="0 0 0 0 0 0 0 0 0 0 0 0 0 0 0 0 0 0 0.25 0"/>
<feBlend mode="normal" in2="shape" result="effect1_innerShadow_522_244"/>
</filter>
<radialGradient id="paint0_radial_522_244" cx="0" cy="0" r="1" gradientUnits="userSpaceOnUse" gradientTransform="translate(223 43.5837) rotate(38.4078) scale(512.373 504.774)">
<stop stop-color="#CB8D31"/>
<stop offset="0.142857" stop-color="#BA9864"/>
<stop offset="0.285714" stop-color="#C7974F"/>
<stop offset="0.428571" stop-color="#CB8D31"/>
<stop offset="0.571429" stop-color="#D5AF78"/>
<stop offset="0.714286" stop-color="#CB8D31"/>
<stop offset="0.857143" stop-color="#D4AF78"/>
<stop offset="1" stop-color="#CB8D31"/>
</radialGradient>
<linearGradient id="paint1_linear_522_244" x1="490" y1="19.6303" x2="415.423" y2="480.612" gradientUnits="userSpaceOnUse">
<stop offset="0.0443846" stop-color="#503713"/>
<stop offset="1" stop-color="#503713" stop-opacity="0"/>
</linearGradient>
<linearGradient id="paint2_linear_522_244" x1="259.5" y1="66" x2="70.5" y2="398.5" gradientUnits="userSpaceOnUse">
<stop stop-color="#C69142"/>
<stop offset="0.25" stop-color="#D1A96D"/>
<stop offset="0.5" stop-color="#CC9441"/>
<stop offset="0.75" stop-color="#CDA56A"/>
<stop offset="1" stop-color="#C69142"/>
</linearGradient>
<linearGradient id="paint3_linear_522_244" x1="-19.5" y1="191" x2="105.5" y2="462.669" gradientUnits="userSpaceOnUse">
<stop stop-color="#34250F"/>
<stop offset="1" stop-color="#34250F" stop-opacity="0"/>
</linearGradient>
</defs>
</svg>
