<svg width="644" height="390" viewBox="0 0 644 390" fill="none" xmlns="http://www.w3.org/2000/svg">
<g filter="url(#filter0_i_522_244)">
<path d="M613.711 449.174C613.711 449.174 607.625 451.844 603.405 451.816C598.645 451.784 592.015 448.293 592.015 448.293L593.642 437.724C593.642 437.724 594.05 437.934 594.727 438.245L612.626 286.246L622.389 176.592L621.304 175.271L622.389 164.261L623.474 164.238V161.619H620.219L611.541 153.692V151.49L509.028 70.4605H506.859L496.553 62.0933V60.7722C496.553 60.7722 495.663 60.0546 494.926 59.8914C494.313 59.7557 493.299 59.8914 493.299 59.8914L492.214 61.6531H477.569L476.485 60.332H465.094L464.01 61.6531H447.195V59.8916L368.548 64.7358L366.921 66.0569H353.903L352.276 65.1761H339.801L337.631 66.4973H324.614L322.444 65.1761H319.19L318.105 66.4973H305.63V85.6192L304.003 87.3808H290.443L288.273 86.5V66.4973H276.883L275.256 65.1761H205L206.627 51.5244H275.256L277.968 49.3225L319.19 49.7629L322.444 50.2032L324.614 48.8821H337.089L339.801 49.7629V33.4688H330.58C330.58 33.4688 330.456 33.1217 330.291 32.5881L296.952 33.4688L295.867 34.3496C295.867 34.3496 287.828 35.4947 284.477 32.1477C281.401 29.0754 281.765 23.3401 281.765 23.3401L282.849 22.019H284.477V0H291.528V22.019H293.155C293.155 22.019 293.241 23.0552 294.24 23.7805C295.238 24.5057 296.952 24.2209 296.952 24.2209V25.1016L330.291 24.2453C330.456 23.6948 330.58 23.3401 330.58 23.3401H360.412C360.412 23.3401 360.291 23.6844 360.13 24.2209H378.311C378.311 24.2209 377.745 26.8964 377.769 28.6247C377.79 30.1819 378.311 32.5881 378.311 32.5881H360.122C360.287 33.1217 360.412 33.4688 360.412 33.4688H351.734V49.7629L353.903 48.8821L366.378 48.4417L368.005 49.3225L447.195 45.3591V43.5976H464.01L465.094 44.4783H476.485L477.569 43.5976H492.214L493.299 44.9185C493.299 44.9185 498.771 44.4501 501.977 45.3589C505.139 46.2552 509.028 49.3223 509.028 49.3223H511.74L522.046 58.1299V59.451L624.559 141.802H627.813L635.949 148.408L636.491 151.49C636.491 151.49 639.618 154.856 640.83 157.215C642.222 159.922 641.915 163.844 641.915 163.844L643 163.821V175.271L641.373 176.592L630.525 284.925L612.626 439C613.303 438.765 613.711 438.605 613.711 438.605V449.174Z" fill="url(#paint0_radial_522_244)"/>
</g>
<path d="M594.727 438.245C596.559 439.085 600.364 440.662 603.405 440.806C606.529 440.955 610.685 439.673 612.626 439M594.727 438.245C594.05 437.934 593.642 437.724 593.642 437.724L592.015 448.293C592.015 448.293 598.645 451.784 603.405 451.816C607.625 451.844 613.711 449.174 613.711 449.174V438.605C613.711 438.605 613.303 438.765 612.626 439M594.727 438.245L612.626 286.246L622.389 176.592M612.626 439L630.525 284.925L641.373 176.592M641.373 176.592H622.389M641.373 176.592L643 175.271V163.821L641.915 163.844M622.389 176.592L621.304 175.271L622.389 164.261L623.474 164.238M641.915 163.844L623.474 164.238M641.915 163.844C641.915 163.844 642.222 159.922 640.83 157.215C639.618 154.856 636.491 151.49 636.491 151.49M636.491 151.49L623.474 161.619M636.491 151.49L635.949 148.408L627.813 141.802H624.559M623.474 161.619V164.238M623.474 161.619H620.219L611.541 153.692V151.49M624.559 141.802L611.541 151.49M624.559 141.802L522.046 59.451M611.541 151.49L509.028 70.4605M522.046 59.451L509.028 70.4605M522.046 59.451V58.1299L511.74 49.3223H509.028M509.028 70.4605H506.859L496.553 62.0933V60.7722M509.028 49.3223L496.553 60.7722M509.028 49.3223C509.028 49.3223 505.139 46.2552 501.977 45.3589C498.771 44.4501 493.299 44.9185 493.299 44.9185M496.553 60.7722C496.553 60.7722 495.663 60.0546 494.926 59.8914C494.313 59.7557 493.299 59.8914 493.299 59.8914M493.299 44.9185V59.8914M493.299 44.9185L492.214 43.5976H477.569L476.485 44.4783M493.299 59.8914L492.214 61.6531H477.569L476.485 60.332M476.485 44.4783V60.332M476.485 44.4783H465.094M476.485 60.332H465.094M465.094 44.4783V60.332M465.094 44.4783L464.01 43.5976H447.195V45.3591M465.094 60.332L464.01 61.6531H447.195V59.8916M447.195 45.3591C447.195 45.3591 449.982 49.7457 449.907 52.8455C449.837 55.7837 447.195 59.8916 447.195 59.8916M447.195 45.3591L368.005 49.3225M447.195 59.8916L368.548 64.7358M368.005 49.3225L368.548 64.7358M368.005 49.3225L366.378 48.4417L353.903 48.8821L351.734 49.7629M368.548 64.7358L366.921 66.0569H353.903L352.276 65.1761M351.734 49.7629C351.734 49.7629 352.729 54.5759 352.818 57.6897C352.903 60.6176 352.276 65.1761 352.276 65.1761M351.734 49.7629V33.4688M351.734 49.7629C351.734 49.7629 348.923 51.3221 346.852 51.5244C343.992 51.8038 339.801 49.7629 339.801 49.7629M352.276 65.1761H339.801M351.734 33.4688C351.734 33.4688 348.247 31.7073 345.767 31.7073C343.288 31.7073 339.801 33.4688 339.801 33.4688M351.734 33.4688H360.412C360.412 33.4688 360.287 33.1217 360.122 32.5881M339.801 49.7629V33.4688M339.801 49.7629L337.089 48.8821H324.614L322.444 50.2032M339.801 49.7629C340.541 55.7821 340.525 59.1583 339.801 65.1761M339.801 33.4688H330.58C330.58 33.4688 330.456 33.1217 330.291 32.5881M322.444 50.2032V65.1761M322.444 50.2032L319.19 49.7629M322.444 65.1761L324.614 66.4973H337.631L339.801 65.1761M322.444 65.1761H319.19M360.13 24.2209C359.8 25.3182 359.302 27.2196 359.327 28.6247C359.35 29.8846 359.809 31.5735 360.122 32.5881M360.13 24.2209C360.291 23.6844 360.412 23.3401 360.412 23.3401H330.58C330.58 23.3401 330.456 23.6948 330.291 24.2453M360.13 24.2209H378.311C378.311 24.2209 377.745 26.8964 377.769 28.6247C377.79 30.1819 378.311 32.5881 378.311 32.5881H360.122M330.291 32.5881C329.977 31.5735 329.518 29.8846 329.496 28.6247C329.47 27.23 329.961 25.3462 330.291 24.2453M330.291 32.5881L296.952 33.4688M296.952 33.4688V25.1016M296.952 33.4688L295.867 34.3496C295.867 34.3496 287.828 35.4947 284.477 32.1477C281.401 29.0754 281.765 23.3401 281.765 23.3401L282.849 22.019H284.477M330.291 24.2453L296.952 25.1016M296.952 25.1016V24.2209C296.952 24.2209 295.238 24.5057 294.24 23.7805C293.241 23.0552 293.155 22.019 293.155 22.019H291.528M291.528 22.019V0H284.477V22.019M291.528 22.019H284.477M319.19 49.7629V65.1761M319.19 49.7629L277.968 49.3225L275.256 51.5244M319.19 65.1761L318.105 66.4973H305.63V85.6192L304.003 87.3808H290.443L288.273 86.5V66.4973H276.883L275.256 65.1761M275.256 65.1761V51.5244M275.256 65.1761H205L206.627 51.5244H275.256" stroke="#020203"/>
<g filter="url(#filter1_i_522_244)">
<path d="M613.711 449.174C613.711 449.174 607.625 451.844 603.405 451.816C598.645 451.784 592.015 448.293 592.015 448.293L593.642 437.724C593.642 437.724 594.05 437.934 594.727 438.245L612.626 286.246L622.389 176.592L621.304 175.271L622.389 164.261L623.474 164.238V161.619H620.219L611.541 153.692V151.49L509.028 70.4605H506.859L496.553 62.0933V60.7722C496.553 60.7722 495.663 60.0546 494.926 59.8914C494.313 59.7557 493.299 59.8914 493.299 59.8914L492.214 61.6531H477.569L476.485 60.332H465.094L464.01 61.6531H447.195V59.8916L368.548 64.7358L366.921 66.0569H353.903L352.276 65.1761H339.801L337.631 66.4973H324.614L322.444 65.1761H319.19L318.105 66.4973H305.63V85.6192L304.003 87.3808H290.443L288.273 86.5V66.4973H276.883L275.256 65.1761H205L206.627 51.5244H275.256L277.968 49.3225L319.19 49.7629L322.444 50.2032L324.614 48.8821H337.089L339.801 49.7629V33.4688H330.58C330.58 33.4688 330.456 33.1217 330.291 32.5881L296.952 33.4688L295.867 34.3496C295.867 34.3496 287.828 35.4947 284.477 32.1477C281.401 29.0754 281.765 23.3401 281.765 23.3401L282.849 22.019H284.477V0H291.528V22.019H293.155C293.155 22.019 293.241 23.0552 294.24 23.7805C295.238 24.5057 296.952 24.2209 296.952 24.2209V25.1016L330.291 24.2453C330.456 23.6948 330.58 23.3401 330.58 23.3401H360.412C360.412 23.3401 360.291 23.6844 360.13 24.2209H378.311C378.311 24.2209 377.745 26.8964 377.769 28.6247C377.79 30.1819 378.311 32.5881 378.311 32.5881H360.122C360.287 33.1217 360.412 33.4688 360.412 33.4688H351.734V49.7629L353.903 48.8821L366.378 48.4417L368.005 49.3225L447.195 45.3591V43.5976H464.01L465.094 44.4783H476.485L477.569 43.5976H492.214L493.299 44.9185C493.299 44.9185 498.771 44.4501 501.977 45.3589C505.139 46.2552 509.028 49.3223 509.028 49.3223H511.74L522.046 58.1299V59.451L624.559 141.802H627.813L635.949 148.408L636.491 151.49C636.491 151.49 639.618 154.856 640.83 157.215C642.222 159.922 641.915 163.844 641.915 163.844L643 163.821V175.271L641.373 176.592L630.525 284.925L612.626 439C613.303 438.765 613.711 438.605 613.711 438.605V449.174Z" fill="url(#paint1_linear_522_244)" fill-opacity="0.65"/>
</g>
<path d="M594.727 438.245C596.559 439.085 600.364 440.662 603.405 440.806C606.529 440.955 610.685 439.673 612.626 439M594.727 438.245C594.05 437.934 593.642 437.724 593.642 437.724L592.015 448.293C592.015 448.293 598.645 451.784 603.405 451.816C607.625 451.844 613.711 449.174 613.711 449.174V438.605C613.711 438.605 613.303 438.765 612.626 439M594.727 438.245L612.626 286.246L622.389 176.592M612.626 439L630.525 284.925L641.373 176.592M641.373 176.592H622.389M641.373 176.592L643 175.271V163.821L641.915 163.844M622.389 176.592L621.304 175.271L622.389 164.261L623.474 164.238M641.915 163.844L623.474 164.238M641.915 163.844C641.915 163.844 642.222 159.922 640.83 157.215C639.618 154.856 636.491 151.49 636.491 151.49M636.491 151.49L623.474 161.619M636.491 151.49L635.949 148.408L627.813 141.802H624.559M623.474 161.619V164.238M623.474 161.619H620.219L611.541 153.692V151.49M624.559 141.802L611.541 151.49M624.559 141.802L522.046 59.451M611.541 151.49L509.028 70.4605M522.046 59.451L509.028 70.4605M522.046 59.451V58.1299L511.74 49.3223H509.028M509.028 70.4605H506.859L496.553 62.0933V60.7722M509.028 49.3223L496.553 60.7722M509.028 49.3223C509.028 49.3223 505.139 46.2552 501.977 45.3589C498.771 44.4501 493.299 44.9185 493.299 44.9185M496.553 60.7722C496.553 60.7722 495.663 60.0546 494.926 59.8914C494.313 59.7557 493.299 59.8914 493.299 59.8914M493.299 44.9185V59.8914M493.299 44.9185L492.214 43.5976H477.569L476.485 44.4783M493.299 59.8914L492.214 61.6531H477.569L476.485 60.332M476.485 44.4783V60.332M476.485 44.4783H465.094M476.485 60.332H465.094M465.094 44.4783V60.332M465.094 44.4783L464.01 43.5976H447.195V45.3591M465.094 60.332L464.01 61.6531H447.195V59.8916M447.195 45.3591C447.195 45.3591 449.982 49.7457 449.907 52.8455C449.837 55.7837 447.195 59.8916 447.195 59.8916M447.195 45.3591L368.005 49.3225M447.195 59.8916L368.548 64.7358M368.005 49.3225L368.548 64.7358M368.005 49.3225L366.378 48.4417L353.903 48.8821L351.734 49.7629M368.548 64.7358L366.921 66.0569H353.903L352.276 65.1761M351.734 49.7629C351.734 49.7629 352.729 54.5759 352.818 57.6897C352.903 60.6176 352.276 65.1761 352.276 65.1761M351.734 49.7629V33.4688M351.734 49.7629C351.734 49.7629 348.923 51.3221 346.852 51.5244C343.992 51.8038 339.801 49.7629 339.801 49.7629M352.276 65.1761H339.801M351.734 33.4688C351.734 33.4688 348.247 31.7073 345.767 31.7073C343.288 31.7073 339.801 33.4688 339.801 33.4688M351.734 33.4688H360.412C360.412 33.4688 360.287 33.1217 360.122 32.5881M339.801 49.7629V33.4688M339.801 49.7629L337.089 48.8821H324.614L322.444 50.2032M339.801 49.7629C340.541 55.7821 340.525 59.1583 339.801 65.1761M339.801 33.4688H330.58C330.58 33.4688 330.456 33.1217 330.291 32.5881M322.444 50.2032V65.1761M322.444 50.2032L319.19 49.7629M322.444 65.1761L324.614 66.4973H337.631L339.801 65.1761M322.444 65.1761H319.19M360.13 24.2209C359.8 25.3182 359.302 27.2196 359.327 28.6247C359.35 29.8846 359.809 31.5735 360.122 32.5881M360.13 24.2209C360.291 23.6844 360.412 23.3401 360.412 23.3401H330.58C330.58 23.3401 330.456 23.6948 330.291 24.2453M360.13 24.2209H378.311C378.311 24.2209 377.745 26.8964 377.769 28.6247C377.79 30.1819 378.311 32.5881 378.311 32.5881H360.122M330.291 32.5881C329.977 31.5735 329.518 29.8846 329.496 28.6247C329.47 27.23 329.961 25.3462 330.291 24.2453M330.291 32.5881L296.952 33.4688M296.952 33.4688V25.1016M296.952 33.4688L295.867 34.3496C295.867 34.3496 287.828 35.4947 284.477 32.1477C281.401 29.0754 281.765 23.3401 281.765 23.3401L282.849 22.019H284.477M330.291 24.2453L296.952 25.1016M296.952 25.1016V24.2209C296.952 24.2209 295.238 24.5057 294.24 23.7805C293.241 23.0552 293.155 22.019 293.155 22.019H291.528M291.528 22.019V0H284.477V22.019M291.528 22.019H284.477M319.19 49.7629V65.1761M319.19 49.7629L277.968 49.3225L275.256 51.5244M319.19 65.1761L318.105 66.4973H305.63V85.6192L304.003 87.3808H290.443L288.273 86.5V66.4973H276.883L275.256 65.1761M275.256 65.1761V51.5244M275.256 65.1761H205L206.627 51.5244H275.256" stroke="#020203"/>
<g filter="url(#filter2_i_522_244)">
<path d="M66.8421 455.542C66.8421 455.542 73.3374 458.702 77.8421 458.669C82.9228 458.632 90 454.5 90 454.5L88.2632 441.993C88.2632 441.993 87.828 442.242 87.1053 442.609L29.5 324L23 205.38L24.1579 203.817L23 190.789L21.8421 190.761V187.662H25.3158L34.579 178.281V175.676L144 79.7885H146.316L157.316 69.8871V68.3237C157.316 68.3237 158.266 67.4746 159.053 67.2815C159.707 67.1209 160.789 67.2815 160.789 67.2815L161.947 69.3662H177.579L178.737 67.8028H190.895L192.053 69.3662H210V67.2817C210 67.2817 207.181 62.4206 207.105 58.9437C207.026 55.2755 210 50.0845 210 50.0845V48H192.053L190.895 49.0423H178.737L177.579 48H161.947L160.789 49.5632C160.789 49.5632 154.948 49.0089 151.526 50.0843C148.151 51.145 144 54.7745 144 54.7745H141.105L130.105 65.197V66.7604L20.6842 164.211H17.2105L8.52632 172.028L7.94737 175.676C7.94737 175.676 4.61038 179.658 3.3158 182.45C1.83081 185.653 2.1579 190.295 2.1579 190.295L1 190.267V203.817L2.73683 205.38L14.3158 333.577L68 443.503C67.2772 443.225 66.8421 443.035 66.8421 443.035V455.542Z" fill="url(#paint2_linear_522_244)"/>
</g>
<path d="M87.1053 442.609C85.1497 443.604 81.0883 445.47 77.8421 445.641C74.5081 445.816 70.0719 444.299 68 443.503M87.1053 442.609C87.828 442.242 88.2632 441.993 88.2632 441.993L90 454.5C90 454.5 82.9228 458.632 77.8421 458.669C73.3374 458.702 66.8421 455.542 66.8421 455.542V443.035C66.8421 443.035 67.2772 443.225 68 443.503M87.1053 442.609L29.5 324L23 205.38M68 443.503L14.3158 333.577L2.73683 205.38M2.73683 205.38H23M2.73683 205.38L1 203.817V190.267L2.1579 190.295M23 205.38L24.1579 203.817L23 190.789L21.8421 190.761M2.1579 190.295L21.8421 190.761M2.1579 190.295C2.1579 190.295 1.8308 185.653 3.3158 182.45C4.61038 179.658 7.94737 175.676 7.94737 175.676M7.94737 175.676L21.8421 187.662M7.94737 175.676L8.52632 172.028L17.2105 164.211H20.6842M21.8421 187.662V190.761M21.8421 187.662H25.3158L34.579 178.281V175.676M20.6842 164.211L34.579 175.676M20.6842 164.211L130.105 66.7604M34.579 175.676L144 79.7885M130.105 66.7604L144 79.7885M130.105 66.7604V65.197L141.105 54.7745H144M144 79.7885H146.316L157.316 69.8871V68.3237M144 54.7745L157.316 68.3237M144 54.7745C144 54.7745 148.151 51.145 151.526 50.0843C154.948 49.0089 160.789 49.5632 160.789 49.5632M157.316 68.3237C157.316 68.3237 158.266 67.4746 159.053 67.2815C159.707 67.1209 160.789 67.2815 160.789 67.2815M160.789 49.5632V67.2815M160.789 49.5632L161.947 48H177.579L178.737 49.0423M160.789 67.2815L161.947 69.3662H177.579L178.737 67.8028M178.737 49.0423V67.8028M178.737 49.0423H190.895M178.737 67.8028H190.895M190.895 49.0423V67.8028M190.895 49.0423L192.053 48H210V50.0845C210 50.0845 207.026 55.2755 207.105 58.9437C207.181 62.4206 210 67.2817 210 67.2817V69.3662H192.053L190.895 67.8028" stroke="#020203"/>
<g filter="url(#filter3_i_522_244)">
<path d="M66.8421 455.542C66.8421 455.542 73.3374 458.702 77.8421 458.669C82.9228 458.632 90 454.5 90 454.5L88.2632 441.993C88.2632 441.993 87.828 442.242 87.1053 442.609L29.5 324L23 205.38L24.1579 203.817L23 190.789L21.8421 190.761V187.662H25.3158L34.579 178.281V175.676L144 79.7885H146.316L157.316 69.8871V68.3237C157.316 68.3237 158.266 67.4746 159.053 67.2815C159.707 67.1209 160.789 67.2815 160.789 67.2815L161.947 69.3662H177.579L178.737 67.8028H190.895L192.053 69.3662H210V67.2817C210 67.2817 207.181 62.4206 207.105 58.9437C207.026 55.2755 210 50.0845 210 50.0845V48H192.053L190.895 49.0423H178.737L177.579 48H161.947L160.789 49.5632C160.789 49.5632 154.948 49.0089 151.526 50.0843C148.151 51.145 144 54.7745 144 54.7745H141.105L130.105 65.197V66.7604L20.6842 164.211H17.2105L8.52632 172.028L7.94737 175.676C7.94737 175.676 4.61038 179.658 3.3158 182.45C1.83081 185.653 2.1579 190.295 2.1579 190.295L1 190.267V203.817L2.73683 205.38L14.3158 333.577L68 443.503C67.2772 443.225 66.8421 443.035 66.8421 443.035V455.542Z" fill="url(#paint3_linear_522_244)" fill-opacity="0.4"/>
</g>
<path d="M87.1053 442.609C85.1497 443.604 81.0883 445.47 77.8421 445.641C74.5081 445.816 70.0719 444.299 68 443.503M87.1053 442.609C87.828 442.242 88.2632 441.993 88.2632 441.993L90 454.5C90 454.5 82.9228 458.632 77.8421 458.669C73.3374 458.702 66.8421 455.542 66.8421 455.542V443.035C66.8421 443.035 67.2772 443.225 68 443.503M87.1053 442.609L29.5 324L23 205.38M68 443.503L14.3158 333.577L2.73683 205.38M2.73683 205.38H23M2.73683 205.38L1 203.817V190.267L2.1579 190.295M23 205.38L24.1579 203.817L23 190.789L21.8421 190.761M2.1579 190.295L21.8421 190.761M2.1579 190.295C2.1579 190.295 1.8308 185.653 3.3158 182.45C4.61038 179.658 7.94737 175.676 7.94737 175.676M7.94737 175.676L21.8421 187.662M7.94737 175.676L8.52632 172.028L17.2105 164.211H20.6842M21.8421 187.662V190.761M21.8421 187.662H25.3158L34.579 178.281V175.676M20.6842 164.211L34.579 175.676M20.6842 164.211L130.105 66.7604M34.579 175.676L144 79.7885M130.105 66.7604L144 79.7885M130.105 66.7604V65.197L141.105 54.7745H144M144 79.7885H146.316L157.316 69.8871V68.3237M144 54.7745L157.316 68.3237M144 54.7745C144 54.7745 148.151 51.145 151.526 50.0843C154.948 49.0089 160.789 49.5632 160.789 49.5632M157.316 68.3237C157.316 68.3237 158.266 67.4746 159.053 67.2815C159.707 67.1209 160.789 67.2815 160.789 67.2815M160.789 49.5632V67.2815M160.789 49.5632L161.947 48H177.579L178.737 49.0423M160.789 67.2815L161.947 69.3662H177.579L178.737 67.8028M178.737 49.0423V67.8028M178.737 49.0423H190.895M178.737 67.8028H190.895M190.895 49.0423V67.8028M190.895 49.0423L192.053 48H210V50.0845C210 50.0845 207.026 55.2755 207.105 58.9437C207.181 62.4206 210 67.2817 210 67.2817V69.3662H192.053L190.895 67.8028" stroke="#020203"/>
<defs>
<filter id="filter0_i_522_244" x="204.437" y="-0.5" width="439.063" height="456.816" filterUnits="userSpaceOnUse" color-interpolation-filters="sRGB">
<feFlood flood-opacity="0" result="BackgroundImageFix"/>
<feBlend mode="normal" in="SourceGraphic" in2="BackgroundImageFix" result="shape"/>
<feColorMatrix in="SourceAlpha" type="matrix" values="0 0 0 0 0 0 0 0 0 0 0 0 0 0 0 0 0 0 127 0" result="hardAlpha"/>
<feOffset dy="4"/>
<feGaussianBlur stdDeviation="2"/>
<feComposite in2="hardAlpha" operator="arithmetic" k2="-1" k3="1"/>
<feColorMatrix type="matrix" values="0 0 0 0 0 0 0 0 0 0 0 0 0 0 0 0 0 0 0.25 0"/>
<feBlend mode="normal" in2="shape" result="effect1_innerShadow_522_244"/>
</filter>
<filter id="filter1_i_522_244" x="204.437" y="-0.5" width="439.063" height="456.816" filterUnits="userSpaceOnUse" color-interpolation-filters="sRGB">
<feFlood flood-opacity="0" result="BackgroundImageFix"/>
<feBlend mode="normal" in="SourceGraphic" in2="BackgroundImageFix" result="shape"/>
<feColorMatrix in="SourceAlpha" type="matrix" values="0 0 0 0 0 0 0 0 0 0 0 0 0 0 0 0 0 0 127 0" result="hardAlpha"/>
<feOffset dy="4"/>
<feGaussianBlur stdDeviation="2"/>
<feComposite in2="hardAlpha" operator="arithmetic" k2="-1" k3="1"/>
<feColorMatrix type="matrix" values="0 0 0 0 0 0 0 0 0 0 0 0 0 0 0 0 0 0 0.25 0"/>
<feBlend mode="normal" in2="shape" result="effect1_innerShadow_522_244"/>
</filter>
<filter id="filter2_i_522_244" x="0.5" y="47.5" width="210" height="415.669" filterUnits="userSpaceOnUse" color-interpolation-filters="sRGB">
<feFlood flood-opacity="0" result="BackgroundImageFix"/>
<feBlend mode="normal" in="SourceGraphic" in2="BackgroundImageFix" result="shape"/>
<feColorMatrix in="SourceAlpha" type="matrix" values="0 0 0 0 0 0 0 0 0 0 0 0 0 0 0 0 0 0 127 0" result="hardAlpha"/>
<feOffset dy="4"/>
<feGaussianBlur stdDeviation="2"/>
<feComposite in2="hardAlpha" operator="arithmetic" k2="-1" k3="1"/>
<feColorMatrix type="matrix" values="0 0 0 0 0 0 0 0 0 0 0 0 0 0 0 0 0 0 0.25 0"/>
<feBlend mode="normal" in2="shape" result="effect1_innerShadow_522_244"/>
</filter>
<filter id="filter3_i_522_244" x="0.5" y="47.5" width="210" height="415.669" filterUnits="userSpaceOnUse" color-interpolation-filters="sRGB">
<feFlood flood-opacity="0" result="BackgroundImageFix"/>
<feBlend mode="normal" in="SourceGraphic" in2="BackgroundImageFix" result="shape"/>
<feColorMatrix in="SourceAlpha" type="matrix" values="0 0 0 0 0 0 0 0 0 0 0 0 0 0 0 0 0 0 127 0" result="hardAlpha"/>
<feOffset dy="4"/>
<feGaussianBlur stdDeviation="2"/>
<feComposite in2="hardAlpha" operator="arithmetic" k2="-1" k3="1"/>
<feColorMatrix type="matrix" values="0 0 0 0 0 0 0 0 0 0 0 0 0 0 0 0 0 0 0.25 0"/>
<feBlend mode="normal" in2="shape" result="effect1_innerShadow_522_244"/>
</filter>
<radialGradient id="paint0_radial_522_244" cx="0" cy="0" r="1" gradientUnits="userSpaceOnUse" gradientTransform="translate(223 40) rotate(36.6753) scale(500.603 485.295)">
<stop stop-color="#CB8D31"/>
<stop offset="0.142857" stop-color="#BA9864"/>
<stop offset="0.285714" stop-color="#C7974F"/>
<stop offset="0.428571" stop-color="#CB8D31"/>
<stop offset="0.571429" stop-color="#D5AF78"/>
<stop offset="0.714286" stop-color="#CB8D31"/>
<stop offset="0.857143" stop-color="#D4AF78"/>
<stop offset="1" stop-color="#CB8D31"/>
</radialGradient>
<linearGradient id="paint1_linear_522_244" x1="490" y1="17.5" x2="424" y2="451.816" gradientUnits="userSpaceOnUse">
<stop offset="0.0443846" stop-color="#503713"/>
<stop offset="1" stop-color="#503713" stop-opacity="0"/>
</linearGradient>
<linearGradient id="paint2_linear_522_244" x1="259.5" y1="62" x2="70.5" y2="394.5" gradientUnits="userSpaceOnUse">
<stop stop-color="#C69142"/>
<stop offset="0.25" stop-color="#D1A96D"/>
<stop offset="0.5" stop-color="#CC9441"/>
<stop offset="0.75" stop-color="#CDA56A"/>
<stop offset="1" stop-color="#C69142"/>
</linearGradient>
<linearGradient id="paint3_linear_522_244" x1="-19.5" y1="187" x2="105.5" y2="458.669" gradientUnits="userSpaceOnUse">
<stop stop-color="#34250F"/>
<stop offset="1" stop-color="#34250F" stop-opacity="0"/>
</linearGradient>
</defs>
</svg>
