<svg width="846" height="328" viewBox="0 0 846 328" fill="none" xmlns="http://www.w3.org/2000/svg">
<rect x="423" width="423" height="328" fill="#D9D9D9"/>
<rect x="470" y="36" width="330" height="255.887" fill="#9E9E9E"/>
<rect width="103" height="328" transform="matrix(-1 0 0 1 423 0)" fill="#D9D9D9"/>
<rect x="333" y="124" width="11" height="80" fill="#CBCBCB"/>
<rect x="349" y="124" width="12" height="80" fill="#CBCBCB"/>
<rect x="366" y="124" width="11" height="80" fill="#CBCBCB"/>
<rect x="382" y="124" width="12" height="80" fill="#CBCBCB"/>
<rect x="399" y="124" width="11" height="80" fill="#CBCBCB"/>
<path d="M460 142C460 142 463.215 140 465.5 140C467.785 140 471 142 471 142V185C471 185 467.785 187 465.5 187C463.215 187 460 185 460 185V142Z" fill="#707070"/>
</svg>
